<?xml version="1.0" encoding="utf-8" standalone="no"?>
<!DOCTYPE svg PUBLIC "-//W3C//DTD SVG 1.1//EN"
  "http://www.w3.org/Graphics/SVG/1.1/DTD/svg11.dtd">
<!-- Created with matplotlib (https://matplotlib.org/) -->
<svg height="345.6pt" version="1.1" viewBox="0 0 460.8 345.6" width="460.8pt" xmlns="http://www.w3.org/2000/svg" xmlns:xlink="http://www.w3.org/1999/xlink">
 <defs>
  <style type="text/css">
*{stroke-linecap:butt;stroke-linejoin:round;}
  </style>
 </defs>
 <g id="figure_1">
  <g id="patch_1">
   <path d="M 0 345.6 
L 460.8 345.6 
L 460.8 0 
L 0 0 
z
" style="fill:#ffffff;"/>
  </g>
  <g id="axes_1">
   <g id="patch_2">
    <path d="M 44.203125 279.86258 
L 427.279961 279.86258 
L 427.279961 10.8 
L 44.203125 10.8 
z
" style="fill:#ffffff;"/>
   </g>
   <g id="matplotlib.axis_1">
    <g id="xtick_1">
     <g id="line2d_1">
      <defs>
       <path d="M 0 0 
L 0 3.5 
" id="mc8dfb69c60" style="stroke:#000000;stroke-width:0.8;"/>
      </defs>
      <g>
       <use style="stroke:#000000;stroke-width:0.8;" x="99.119734" xlink:href="#mc8dfb69c60" y="279.86258"/>
      </g>
     </g>
     <g id="text_1">
      <!-- 2020-03-15 -->
      <defs>
       <path d="M 19.1875 8.296875 
L 53.609375 8.296875 
L 53.609375 0 
L 7.328125 0 
L 7.328125 8.296875 
Q 12.9375 14.109375 22.625 23.890625 
Q 32.328125 33.6875 34.8125 36.53125 
Q 39.546875 41.84375 41.421875 45.53125 
Q 43.3125 49.21875 43.3125 52.78125 
Q 43.3125 58.59375 39.234375 62.25 
Q 35.15625 65.921875 28.609375 65.921875 
Q 23.96875 65.921875 18.8125 64.3125 
Q 13.671875 62.703125 7.8125 59.421875 
L 7.8125 69.390625 
Q 13.765625 71.78125 18.9375 73 
Q 24.125 74.21875 28.421875 74.21875 
Q 39.75 74.21875 46.484375 68.546875 
Q 53.21875 62.890625 53.21875 53.421875 
Q 53.21875 48.921875 51.53125 44.890625 
Q 49.859375 40.875 45.40625 35.40625 
Q 44.1875 33.984375 37.640625 27.21875 
Q 31.109375 20.453125 19.1875 8.296875 
z
" id="DejaVuSans-50"/>
       <path d="M 31.78125 66.40625 
Q 24.171875 66.40625 20.328125 58.90625 
Q 16.5 51.421875 16.5 36.375 
Q 16.5 21.390625 20.328125 13.890625 
Q 24.171875 6.390625 31.78125 6.390625 
Q 39.453125 6.390625 43.28125 13.890625 
Q 47.125 21.390625 47.125 36.375 
Q 47.125 51.421875 43.28125 58.90625 
Q 39.453125 66.40625 31.78125 66.40625 
z
M 31.78125 74.21875 
Q 44.046875 74.21875 50.515625 64.515625 
Q 56.984375 54.828125 56.984375 36.375 
Q 56.984375 17.96875 50.515625 8.265625 
Q 44.046875 -1.421875 31.78125 -1.421875 
Q 19.53125 -1.421875 13.0625 8.265625 
Q 6.59375 17.96875 6.59375 36.375 
Q 6.59375 54.828125 13.0625 64.515625 
Q 19.53125 74.21875 31.78125 74.21875 
z
" id="DejaVuSans-48"/>
       <path d="M 4.890625 31.390625 
L 31.203125 31.390625 
L 31.203125 23.390625 
L 4.890625 23.390625 
z
" id="DejaVuSans-45"/>
       <path d="M 40.578125 39.3125 
Q 47.65625 37.796875 51.625 33 
Q 55.609375 28.21875 55.609375 21.1875 
Q 55.609375 10.40625 48.1875 4.484375 
Q 40.765625 -1.421875 27.09375 -1.421875 
Q 22.515625 -1.421875 17.65625 -0.515625 
Q 12.796875 0.390625 7.625 2.203125 
L 7.625 11.71875 
Q 11.71875 9.328125 16.59375 8.109375 
Q 21.484375 6.890625 26.8125 6.890625 
Q 36.078125 6.890625 40.9375 10.546875 
Q 45.796875 14.203125 45.796875 21.1875 
Q 45.796875 27.640625 41.28125 31.265625 
Q 36.765625 34.90625 28.71875 34.90625 
L 20.21875 34.90625 
L 20.21875 43.015625 
L 29.109375 43.015625 
Q 36.375 43.015625 40.234375 45.921875 
Q 44.09375 48.828125 44.09375 54.296875 
Q 44.09375 59.90625 40.109375 62.90625 
Q 36.140625 65.921875 28.71875 65.921875 
Q 24.65625 65.921875 20.015625 65.03125 
Q 15.375 64.15625 9.8125 62.3125 
L 9.8125 71.09375 
Q 15.4375 72.65625 20.34375 73.4375 
Q 25.25 74.21875 29.59375 74.21875 
Q 40.828125 74.21875 47.359375 69.109375 
Q 53.90625 64.015625 53.90625 55.328125 
Q 53.90625 49.265625 50.4375 45.09375 
Q 46.96875 40.921875 40.578125 39.3125 
z
" id="DejaVuSans-51"/>
       <path d="M 12.40625 8.296875 
L 28.515625 8.296875 
L 28.515625 63.921875 
L 10.984375 60.40625 
L 10.984375 69.390625 
L 28.421875 72.90625 
L 38.28125 72.90625 
L 38.28125 8.296875 
L 54.390625 8.296875 
L 54.390625 0 
L 12.40625 0 
z
" id="DejaVuSans-49"/>
       <path d="M 10.796875 72.90625 
L 49.515625 72.90625 
L 49.515625 64.59375 
L 19.828125 64.59375 
L 19.828125 46.734375 
Q 21.96875 47.46875 24.109375 47.828125 
Q 26.265625 48.1875 28.421875 48.1875 
Q 40.625 48.1875 47.75 41.5 
Q 54.890625 34.8125 54.890625 23.390625 
Q 54.890625 11.625 47.5625 5.09375 
Q 40.234375 -1.421875 26.90625 -1.421875 
Q 22.3125 -1.421875 17.546875 -0.640625 
Q 12.796875 0.140625 7.71875 1.703125 
L 7.71875 11.625 
Q 12.109375 9.234375 16.796875 8.0625 
Q 21.484375 6.890625 26.703125 6.890625 
Q 35.15625 6.890625 40.078125 11.328125 
Q 45.015625 15.765625 45.015625 23.390625 
Q 45.015625 31 40.078125 35.4375 
Q 35.15625 39.890625 26.703125 39.890625 
Q 22.75 39.890625 18.8125 39.015625 
Q 14.890625 38.140625 10.796875 36.28125 
z
" id="DejaVuSans-53"/>
      </defs>
      <g transform="translate(80.523931 333.329439)rotate(-45)scale(0.1 -0.1)">
       <use xlink:href="#DejaVuSans-50"/>
       <use x="63.623047" xlink:href="#DejaVuSans-48"/>
       <use x="127.246094" xlink:href="#DejaVuSans-50"/>
       <use x="190.869141" xlink:href="#DejaVuSans-48"/>
       <use x="254.492188" xlink:href="#DejaVuSans-45"/>
       <use x="290.576172" xlink:href="#DejaVuSans-48"/>
       <use x="354.199219" xlink:href="#DejaVuSans-51"/>
       <use x="417.822266" xlink:href="#DejaVuSans-45"/>
       <use x="453.90625" xlink:href="#DejaVuSans-49"/>
       <use x="517.529297" xlink:href="#DejaVuSans-53"/>
      </g>
     </g>
    </g>
    <g id="xtick_2">
     <g id="line2d_2">
      <g>
       <use style="stroke:#000000;stroke-width:0.8;" x="190.20094" xlink:href="#mc8dfb69c60" y="279.86258"/>
      </g>
     </g>
     <g id="text_2">
      <!-- 2020-04-01 -->
      <defs>
       <path d="M 37.796875 64.3125 
L 12.890625 25.390625 
L 37.796875 25.390625 
z
M 35.203125 72.90625 
L 47.609375 72.90625 
L 47.609375 25.390625 
L 58.015625 25.390625 
L 58.015625 17.1875 
L 47.609375 17.1875 
L 47.609375 0 
L 37.796875 0 
L 37.796875 17.1875 
L 4.890625 17.1875 
L 4.890625 26.703125 
z
" id="DejaVuSans-52"/>
      </defs>
      <g transform="translate(171.605137 333.329439)rotate(-45)scale(0.1 -0.1)">
       <use xlink:href="#DejaVuSans-50"/>
       <use x="63.623047" xlink:href="#DejaVuSans-48"/>
       <use x="127.246094" xlink:href="#DejaVuSans-50"/>
       <use x="190.869141" xlink:href="#DejaVuSans-48"/>
       <use x="254.492188" xlink:href="#DejaVuSans-45"/>
       <use x="290.576172" xlink:href="#DejaVuSans-48"/>
       <use x="354.199219" xlink:href="#DejaVuSans-52"/>
       <use x="417.822266" xlink:href="#DejaVuSans-45"/>
       <use x="453.90625" xlink:href="#DejaVuSans-48"/>
       <use x="517.529297" xlink:href="#DejaVuSans-49"/>
      </g>
     </g>
    </g>
    <g id="xtick_3">
     <g id="line2d_3">
      <g>
       <use style="stroke:#000000;stroke-width:0.8;" x="265.208992" xlink:href="#mc8dfb69c60" y="279.86258"/>
      </g>
     </g>
     <g id="text_3">
      <!-- 2020-04-15 -->
      <g transform="translate(246.613189 333.329439)rotate(-45)scale(0.1 -0.1)">
       <use xlink:href="#DejaVuSans-50"/>
       <use x="63.623047" xlink:href="#DejaVuSans-48"/>
       <use x="127.246094" xlink:href="#DejaVuSans-50"/>
       <use x="190.869141" xlink:href="#DejaVuSans-48"/>
       <use x="254.492188" xlink:href="#DejaVuSans-45"/>
       <use x="290.576172" xlink:href="#DejaVuSans-48"/>
       <use x="354.199219" xlink:href="#DejaVuSans-52"/>
       <use x="417.822266" xlink:href="#DejaVuSans-45"/>
       <use x="453.90625" xlink:href="#DejaVuSans-49"/>
       <use x="517.529297" xlink:href="#DejaVuSans-53"/>
      </g>
     </g>
    </g>
    <g id="xtick_4">
     <g id="line2d_4">
      <g>
       <use style="stroke:#000000;stroke-width:0.8;" x="350.93248" xlink:href="#mc8dfb69c60" y="279.86258"/>
      </g>
     </g>
     <g id="text_4">
      <!-- 2020-05-01 -->
      <g transform="translate(332.336676 333.329439)rotate(-45)scale(0.1 -0.1)">
       <use xlink:href="#DejaVuSans-50"/>
       <use x="63.623047" xlink:href="#DejaVuSans-48"/>
       <use x="127.246094" xlink:href="#DejaVuSans-50"/>
       <use x="190.869141" xlink:href="#DejaVuSans-48"/>
       <use x="254.492188" xlink:href="#DejaVuSans-45"/>
       <use x="290.576172" xlink:href="#DejaVuSans-48"/>
       <use x="354.199219" xlink:href="#DejaVuSans-53"/>
       <use x="417.822266" xlink:href="#DejaVuSans-45"/>
       <use x="453.90625" xlink:href="#DejaVuSans-48"/>
       <use x="517.529297" xlink:href="#DejaVuSans-49"/>
      </g>
     </g>
    </g>
    <g id="xtick_5">
     <g id="line2d_5">
      <g>
       <use style="stroke:#000000;stroke-width:0.8;" x="425.940532" xlink:href="#mc8dfb69c60" y="279.86258"/>
      </g>
     </g>
     <g id="text_5">
      <!-- 2020-05-15 -->
      <g transform="translate(407.344728 333.329439)rotate(-45)scale(0.1 -0.1)">
       <use xlink:href="#DejaVuSans-50"/>
       <use x="63.623047" xlink:href="#DejaVuSans-48"/>
       <use x="127.246094" xlink:href="#DejaVuSans-50"/>
       <use x="190.869141" xlink:href="#DejaVuSans-48"/>
       <use x="254.492188" xlink:href="#DejaVuSans-45"/>
       <use x="290.576172" xlink:href="#DejaVuSans-48"/>
       <use x="354.199219" xlink:href="#DejaVuSans-53"/>
       <use x="417.822266" xlink:href="#DejaVuSans-45"/>
       <use x="453.90625" xlink:href="#DejaVuSans-49"/>
       <use x="517.529297" xlink:href="#DejaVuSans-53"/>
      </g>
     </g>
    </g>
   </g>
   <g id="matplotlib.axis_2">
    <g id="ytick_1">
     <g id="line2d_6">
      <defs>
       <path d="M 0 0 
L -3.5 0 
" id="mf47cb28dfd" style="stroke:#000000;stroke-width:0.8;"/>
      </defs>
      <g>
       <use style="stroke:#000000;stroke-width:0.8;" x="44.203125" xlink:href="#mf47cb28dfd" y="279.86258"/>
      </g>
     </g>
     <g id="text_6">
      <!-- 0 -->
      <g transform="translate(30.840625 283.661798)scale(0.1 -0.1)">
       <use xlink:href="#DejaVuSans-48"/>
      </g>
     </g>
    </g>
    <g id="ytick_2">
     <g id="line2d_7">
      <g>
       <use style="stroke:#000000;stroke-width:0.8;" x="44.203125" xlink:href="#mf47cb28dfd" y="245.221753"/>
      </g>
     </g>
     <g id="text_7">
      <!-- 2 -->
      <g transform="translate(30.840625 249.020972)scale(0.1 -0.1)">
       <use xlink:href="#DejaVuSans-50"/>
      </g>
     </g>
    </g>
    <g id="ytick_3">
     <g id="line2d_8">
      <g>
       <use style="stroke:#000000;stroke-width:0.8;" x="44.203125" xlink:href="#mf47cb28dfd" y="210.580927"/>
      </g>
     </g>
     <g id="text_8">
      <!-- 4 -->
      <g transform="translate(30.840625 214.380145)scale(0.1 -0.1)">
       <use xlink:href="#DejaVuSans-52"/>
      </g>
     </g>
    </g>
    <g id="ytick_4">
     <g id="line2d_9">
      <g>
       <use style="stroke:#000000;stroke-width:0.8;" x="44.203125" xlink:href="#mf47cb28dfd" y="175.9401"/>
      </g>
     </g>
     <g id="text_9">
      <!-- 6 -->
      <defs>
       <path d="M 33.015625 40.375 
Q 26.375 40.375 22.484375 35.828125 
Q 18.609375 31.296875 18.609375 23.390625 
Q 18.609375 15.53125 22.484375 10.953125 
Q 26.375 6.390625 33.015625 6.390625 
Q 39.65625 6.390625 43.53125 10.953125 
Q 47.40625 15.53125 47.40625 23.390625 
Q 47.40625 31.296875 43.53125 35.828125 
Q 39.65625 40.375 33.015625 40.375 
z
M 52.59375 71.296875 
L 52.59375 62.3125 
Q 48.875 64.0625 45.09375 64.984375 
Q 41.3125 65.921875 37.59375 65.921875 
Q 27.828125 65.921875 22.671875 59.328125 
Q 17.53125 52.734375 16.796875 39.40625 
Q 19.671875 43.65625 24.015625 45.921875 
Q 28.375 48.1875 33.59375 48.1875 
Q 44.578125 48.1875 50.953125 41.515625 
Q 57.328125 34.859375 57.328125 23.390625 
Q 57.328125 12.15625 50.6875 5.359375 
Q 44.046875 -1.421875 33.015625 -1.421875 
Q 20.359375 -1.421875 13.671875 8.265625 
Q 6.984375 17.96875 6.984375 36.375 
Q 6.984375 53.65625 15.1875 63.9375 
Q 23.390625 74.21875 37.203125 74.21875 
Q 40.921875 74.21875 44.703125 73.484375 
Q 48.484375 72.75 52.59375 71.296875 
z
" id="DejaVuSans-54"/>
      </defs>
      <g transform="translate(30.840625 179.739319)scale(0.1 -0.1)">
       <use xlink:href="#DejaVuSans-54"/>
      </g>
     </g>
    </g>
    <g id="ytick_5">
     <g id="line2d_10">
      <g>
       <use style="stroke:#000000;stroke-width:0.8;" x="44.203125" xlink:href="#mf47cb28dfd" y="141.299274"/>
      </g>
     </g>
     <g id="text_10">
      <!-- 8 -->
      <defs>
       <path d="M 31.78125 34.625 
Q 24.75 34.625 20.71875 30.859375 
Q 16.703125 27.09375 16.703125 20.515625 
Q 16.703125 13.921875 20.71875 10.15625 
Q 24.75 6.390625 31.78125 6.390625 
Q 38.8125 6.390625 42.859375 10.171875 
Q 46.921875 13.96875 46.921875 20.515625 
Q 46.921875 27.09375 42.890625 30.859375 
Q 38.875 34.625 31.78125 34.625 
z
M 21.921875 38.8125 
Q 15.578125 40.375 12.03125 44.71875 
Q 8.5 49.078125 8.5 55.328125 
Q 8.5 64.0625 14.71875 69.140625 
Q 20.953125 74.21875 31.78125 74.21875 
Q 42.671875 74.21875 48.875 69.140625 
Q 55.078125 64.0625 55.078125 55.328125 
Q 55.078125 49.078125 51.53125 44.71875 
Q 48 40.375 41.703125 38.8125 
Q 48.828125 37.15625 52.796875 32.3125 
Q 56.78125 27.484375 56.78125 20.515625 
Q 56.78125 9.90625 50.3125 4.234375 
Q 43.84375 -1.421875 31.78125 -1.421875 
Q 19.734375 -1.421875 13.25 4.234375 
Q 6.78125 9.90625 6.78125 20.515625 
Q 6.78125 27.484375 10.78125 32.3125 
Q 14.796875 37.15625 21.921875 38.8125 
z
M 18.3125 54.390625 
Q 18.3125 48.734375 21.84375 45.5625 
Q 25.390625 42.390625 31.78125 42.390625 
Q 38.140625 42.390625 41.71875 45.5625 
Q 45.3125 48.734375 45.3125 54.390625 
Q 45.3125 60.0625 41.71875 63.234375 
Q 38.140625 66.40625 31.78125 66.40625 
Q 25.390625 66.40625 21.84375 63.234375 
Q 18.3125 60.0625 18.3125 54.390625 
z
" id="DejaVuSans-56"/>
      </defs>
      <g transform="translate(30.840625 145.098492)scale(0.1 -0.1)">
       <use xlink:href="#DejaVuSans-56"/>
      </g>
     </g>
    </g>
    <g id="ytick_6">
     <g id="line2d_11">
      <g>
       <use style="stroke:#000000;stroke-width:0.8;" x="44.203125" xlink:href="#mf47cb28dfd" y="106.658447"/>
      </g>
     </g>
     <g id="text_11">
      <!-- 10 -->
      <g transform="translate(24.478125 110.457666)scale(0.1 -0.1)">
       <use xlink:href="#DejaVuSans-49"/>
       <use x="63.623047" xlink:href="#DejaVuSans-48"/>
      </g>
     </g>
    </g>
    <g id="ytick_7">
     <g id="line2d_12">
      <g>
       <use style="stroke:#000000;stroke-width:0.8;" x="44.203125" xlink:href="#mf47cb28dfd" y="72.017621"/>
      </g>
     </g>
     <g id="text_12">
      <!-- 12 -->
      <g transform="translate(24.478125 75.81684)scale(0.1 -0.1)">
       <use xlink:href="#DejaVuSans-49"/>
       <use x="63.623047" xlink:href="#DejaVuSans-50"/>
      </g>
     </g>
    </g>
    <g id="ytick_8">
     <g id="line2d_13">
      <g>
       <use style="stroke:#000000;stroke-width:0.8;" x="44.203125" xlink:href="#mf47cb28dfd" y="37.376794"/>
      </g>
     </g>
     <g id="text_13">
      <!-- 14 -->
      <g transform="translate(24.478125 41.176013)scale(0.1 -0.1)">
       <use xlink:href="#DejaVuSans-49"/>
       <use x="63.623047" xlink:href="#DejaVuSans-52"/>
      </g>
     </g>
    </g>
    <g id="text_14">
     <!-- AS uci (por 100000 hab.) acumulados -->
     <defs>
      <path d="M 34.1875 63.1875 
L 20.796875 26.90625 
L 47.609375 26.90625 
z
M 28.609375 72.90625 
L 39.796875 72.90625 
L 67.578125 0 
L 57.328125 0 
L 50.6875 18.703125 
L 17.828125 18.703125 
L 11.1875 0 
L 0.78125 0 
z
" id="DejaVuSans-65"/>
      <path d="M 53.515625 70.515625 
L 53.515625 60.890625 
Q 47.90625 63.578125 42.921875 64.890625 
Q 37.9375 66.21875 33.296875 66.21875 
Q 25.25 66.21875 20.875 63.09375 
Q 16.5 59.96875 16.5 54.203125 
Q 16.5 49.359375 19.40625 46.890625 
Q 22.3125 44.4375 30.421875 42.921875 
L 36.375 41.703125 
Q 47.40625 39.59375 52.65625 34.296875 
Q 57.90625 29 57.90625 20.125 
Q 57.90625 9.515625 50.796875 4.046875 
Q 43.703125 -1.421875 29.984375 -1.421875 
Q 24.8125 -1.421875 18.96875 -0.25 
Q 13.140625 0.921875 6.890625 3.21875 
L 6.890625 13.375 
Q 12.890625 10.015625 18.65625 8.296875 
Q 24.421875 6.59375 29.984375 6.59375 
Q 38.421875 6.59375 43.015625 9.90625 
Q 47.609375 13.234375 47.609375 19.390625 
Q 47.609375 24.75 44.3125 27.78125 
Q 41.015625 30.8125 33.5 32.328125 
L 27.484375 33.5 
Q 16.453125 35.6875 11.515625 40.375 
Q 6.59375 45.0625 6.59375 53.421875 
Q 6.59375 63.09375 13.40625 68.65625 
Q 20.21875 74.21875 32.171875 74.21875 
Q 37.3125 74.21875 42.625 73.28125 
Q 47.953125 72.359375 53.515625 70.515625 
z
" id="DejaVuSans-83"/>
      <path id="DejaVuSans-32"/>
      <path d="M 8.5 21.578125 
L 8.5 54.6875 
L 17.484375 54.6875 
L 17.484375 21.921875 
Q 17.484375 14.15625 20.5 10.265625 
Q 23.53125 6.390625 29.59375 6.390625 
Q 36.859375 6.390625 41.078125 11.03125 
Q 45.3125 15.671875 45.3125 23.6875 
L 45.3125 54.6875 
L 54.296875 54.6875 
L 54.296875 0 
L 45.3125 0 
L 45.3125 8.40625 
Q 42.046875 3.421875 37.71875 1 
Q 33.40625 -1.421875 27.6875 -1.421875 
Q 18.265625 -1.421875 13.375 4.4375 
Q 8.5 10.296875 8.5 21.578125 
z
M 31.109375 56 
z
" id="DejaVuSans-117"/>
      <path d="M 48.78125 52.59375 
L 48.78125 44.1875 
Q 44.96875 46.296875 41.140625 47.34375 
Q 37.3125 48.390625 33.40625 48.390625 
Q 24.65625 48.390625 19.8125 42.84375 
Q 14.984375 37.3125 14.984375 27.296875 
Q 14.984375 17.28125 19.8125 11.734375 
Q 24.65625 6.203125 33.40625 6.203125 
Q 37.3125 6.203125 41.140625 7.25 
Q 44.96875 8.296875 48.78125 10.40625 
L 48.78125 2.09375 
Q 45.015625 0.34375 40.984375 -0.53125 
Q 36.96875 -1.421875 32.421875 -1.421875 
Q 20.0625 -1.421875 12.78125 6.34375 
Q 5.515625 14.109375 5.515625 27.296875 
Q 5.515625 40.671875 12.859375 48.328125 
Q 20.21875 56 33.015625 56 
Q 37.15625 56 41.109375 55.140625 
Q 45.0625 54.296875 48.78125 52.59375 
z
" id="DejaVuSans-99"/>
      <path d="M 9.421875 54.6875 
L 18.40625 54.6875 
L 18.40625 0 
L 9.421875 0 
z
M 9.421875 75.984375 
L 18.40625 75.984375 
L 18.40625 64.59375 
L 9.421875 64.59375 
z
" id="DejaVuSans-105"/>
      <path d="M 31 75.875 
Q 24.46875 64.65625 21.28125 53.65625 
Q 18.109375 42.671875 18.109375 31.390625 
Q 18.109375 20.125 21.3125 9.0625 
Q 24.515625 -2 31 -13.1875 
L 23.1875 -13.1875 
Q 15.875 -1.703125 12.234375 9.375 
Q 8.59375 20.453125 8.59375 31.390625 
Q 8.59375 42.28125 12.203125 53.3125 
Q 15.828125 64.359375 23.1875 75.875 
z
" id="DejaVuSans-40"/>
      <path d="M 18.109375 8.203125 
L 18.109375 -20.796875 
L 9.078125 -20.796875 
L 9.078125 54.6875 
L 18.109375 54.6875 
L 18.109375 46.390625 
Q 20.953125 51.265625 25.265625 53.625 
Q 29.59375 56 35.59375 56 
Q 45.5625 56 51.78125 48.09375 
Q 58.015625 40.1875 58.015625 27.296875 
Q 58.015625 14.40625 51.78125 6.484375 
Q 45.5625 -1.421875 35.59375 -1.421875 
Q 29.59375 -1.421875 25.265625 0.953125 
Q 20.953125 3.328125 18.109375 8.203125 
z
M 48.6875 27.296875 
Q 48.6875 37.203125 44.609375 42.84375 
Q 40.53125 48.484375 33.40625 48.484375 
Q 26.265625 48.484375 22.1875 42.84375 
Q 18.109375 37.203125 18.109375 27.296875 
Q 18.109375 17.390625 22.1875 11.75 
Q 26.265625 6.109375 33.40625 6.109375 
Q 40.53125 6.109375 44.609375 11.75 
Q 48.6875 17.390625 48.6875 27.296875 
z
" id="DejaVuSans-112"/>
      <path d="M 30.609375 48.390625 
Q 23.390625 48.390625 19.1875 42.75 
Q 14.984375 37.109375 14.984375 27.296875 
Q 14.984375 17.484375 19.15625 11.84375 
Q 23.34375 6.203125 30.609375 6.203125 
Q 37.796875 6.203125 41.984375 11.859375 
Q 46.1875 17.53125 46.1875 27.296875 
Q 46.1875 37.015625 41.984375 42.703125 
Q 37.796875 48.390625 30.609375 48.390625 
z
M 30.609375 56 
Q 42.328125 56 49.015625 48.375 
Q 55.71875 40.765625 55.71875 27.296875 
Q 55.71875 13.875 49.015625 6.21875 
Q 42.328125 -1.421875 30.609375 -1.421875 
Q 18.84375 -1.421875 12.171875 6.21875 
Q 5.515625 13.875 5.515625 27.296875 
Q 5.515625 40.765625 12.171875 48.375 
Q 18.84375 56 30.609375 56 
z
" id="DejaVuSans-111"/>
      <path d="M 41.109375 46.296875 
Q 39.59375 47.171875 37.8125 47.578125 
Q 36.03125 48 33.890625 48 
Q 26.265625 48 22.1875 43.046875 
Q 18.109375 38.09375 18.109375 28.8125 
L 18.109375 0 
L 9.078125 0 
L 9.078125 54.6875 
L 18.109375 54.6875 
L 18.109375 46.1875 
Q 20.953125 51.171875 25.484375 53.578125 
Q 30.03125 56 36.53125 56 
Q 37.453125 56 38.578125 55.875 
Q 39.703125 55.765625 41.0625 55.515625 
z
" id="DejaVuSans-114"/>
      <path d="M 54.890625 33.015625 
L 54.890625 0 
L 45.90625 0 
L 45.90625 32.71875 
Q 45.90625 40.484375 42.875 44.328125 
Q 39.84375 48.1875 33.796875 48.1875 
Q 26.515625 48.1875 22.3125 43.546875 
Q 18.109375 38.921875 18.109375 30.90625 
L 18.109375 0 
L 9.078125 0 
L 9.078125 75.984375 
L 18.109375 75.984375 
L 18.109375 46.1875 
Q 21.34375 51.125 25.703125 53.5625 
Q 30.078125 56 35.796875 56 
Q 45.21875 56 50.046875 50.171875 
Q 54.890625 44.34375 54.890625 33.015625 
z
" id="DejaVuSans-104"/>
      <path d="M 34.28125 27.484375 
Q 23.390625 27.484375 19.1875 25 
Q 14.984375 22.515625 14.984375 16.5 
Q 14.984375 11.71875 18.140625 8.90625 
Q 21.296875 6.109375 26.703125 6.109375 
Q 34.1875 6.109375 38.703125 11.40625 
Q 43.21875 16.703125 43.21875 25.484375 
L 43.21875 27.484375 
z
M 52.203125 31.203125 
L 52.203125 0 
L 43.21875 0 
L 43.21875 8.296875 
Q 40.140625 3.328125 35.546875 0.953125 
Q 30.953125 -1.421875 24.3125 -1.421875 
Q 15.921875 -1.421875 10.953125 3.296875 
Q 6 8.015625 6 15.921875 
Q 6 25.140625 12.171875 29.828125 
Q 18.359375 34.515625 30.609375 34.515625 
L 43.21875 34.515625 
L 43.21875 35.40625 
Q 43.21875 41.609375 39.140625 45 
Q 35.0625 48.390625 27.6875 48.390625 
Q 23 48.390625 18.546875 47.265625 
Q 14.109375 46.140625 10.015625 43.890625 
L 10.015625 52.203125 
Q 14.9375 54.109375 19.578125 55.046875 
Q 24.21875 56 28.609375 56 
Q 40.484375 56 46.34375 49.84375 
Q 52.203125 43.703125 52.203125 31.203125 
z
" id="DejaVuSans-97"/>
      <path d="M 48.6875 27.296875 
Q 48.6875 37.203125 44.609375 42.84375 
Q 40.53125 48.484375 33.40625 48.484375 
Q 26.265625 48.484375 22.1875 42.84375 
Q 18.109375 37.203125 18.109375 27.296875 
Q 18.109375 17.390625 22.1875 11.75 
Q 26.265625 6.109375 33.40625 6.109375 
Q 40.53125 6.109375 44.609375 11.75 
Q 48.6875 17.390625 48.6875 27.296875 
z
M 18.109375 46.390625 
Q 20.953125 51.265625 25.265625 53.625 
Q 29.59375 56 35.59375 56 
Q 45.5625 56 51.78125 48.09375 
Q 58.015625 40.1875 58.015625 27.296875 
Q 58.015625 14.40625 51.78125 6.484375 
Q 45.5625 -1.421875 35.59375 -1.421875 
Q 29.59375 -1.421875 25.265625 0.953125 
Q 20.953125 3.328125 18.109375 8.203125 
L 18.109375 0 
L 9.078125 0 
L 9.078125 75.984375 
L 18.109375 75.984375 
z
" id="DejaVuSans-98"/>
      <path d="M 10.6875 12.40625 
L 21 12.40625 
L 21 0 
L 10.6875 0 
z
" id="DejaVuSans-46"/>
      <path d="M 8.015625 75.875 
L 15.828125 75.875 
Q 23.140625 64.359375 26.78125 53.3125 
Q 30.421875 42.28125 30.421875 31.390625 
Q 30.421875 20.453125 26.78125 9.375 
Q 23.140625 -1.703125 15.828125 -13.1875 
L 8.015625 -13.1875 
Q 14.5 -2 17.703125 9.0625 
Q 20.90625 20.125 20.90625 31.390625 
Q 20.90625 42.671875 17.703125 53.65625 
Q 14.5 64.65625 8.015625 75.875 
z
" id="DejaVuSans-41"/>
      <path d="M 52 44.1875 
Q 55.375 50.25 60.0625 53.125 
Q 64.75 56 71.09375 56 
Q 79.640625 56 84.28125 50.015625 
Q 88.921875 44.046875 88.921875 33.015625 
L 88.921875 0 
L 79.890625 0 
L 79.890625 32.71875 
Q 79.890625 40.578125 77.09375 44.375 
Q 74.3125 48.1875 68.609375 48.1875 
Q 61.625 48.1875 57.5625 43.546875 
Q 53.515625 38.921875 53.515625 30.90625 
L 53.515625 0 
L 44.484375 0 
L 44.484375 32.71875 
Q 44.484375 40.625 41.703125 44.40625 
Q 38.921875 48.1875 33.109375 48.1875 
Q 26.21875 48.1875 22.15625 43.53125 
Q 18.109375 38.875 18.109375 30.90625 
L 18.109375 0 
L 9.078125 0 
L 9.078125 54.6875 
L 18.109375 54.6875 
L 18.109375 46.1875 
Q 21.1875 51.21875 25.484375 53.609375 
Q 29.78125 56 35.6875 56 
Q 41.65625 56 45.828125 52.96875 
Q 50 49.953125 52 44.1875 
z
" id="DejaVuSans-109"/>
      <path d="M 9.421875 75.984375 
L 18.40625 75.984375 
L 18.40625 0 
L 9.421875 0 
z
" id="DejaVuSans-108"/>
      <path d="M 45.40625 46.390625 
L 45.40625 75.984375 
L 54.390625 75.984375 
L 54.390625 0 
L 45.40625 0 
L 45.40625 8.203125 
Q 42.578125 3.328125 38.25 0.953125 
Q 33.9375 -1.421875 27.875 -1.421875 
Q 17.96875 -1.421875 11.734375 6.484375 
Q 5.515625 14.40625 5.515625 27.296875 
Q 5.515625 40.1875 11.734375 48.09375 
Q 17.96875 56 27.875 56 
Q 33.9375 56 38.25 53.625 
Q 42.578125 51.265625 45.40625 46.390625 
z
M 14.796875 27.296875 
Q 14.796875 17.390625 18.875 11.75 
Q 22.953125 6.109375 30.078125 6.109375 
Q 37.203125 6.109375 41.296875 11.75 
Q 45.40625 17.390625 45.40625 27.296875 
Q 45.40625 37.203125 41.296875 42.84375 
Q 37.203125 48.484375 30.078125 48.484375 
Q 22.953125 48.484375 18.875 42.84375 
Q 14.796875 37.203125 14.796875 27.296875 
z
" id="DejaVuSans-100"/>
      <path d="M 44.28125 53.078125 
L 44.28125 44.578125 
Q 40.484375 46.53125 36.375 47.5 
Q 32.28125 48.484375 27.875 48.484375 
Q 21.1875 48.484375 17.84375 46.4375 
Q 14.5 44.390625 14.5 40.28125 
Q 14.5 37.15625 16.890625 35.375 
Q 19.28125 33.59375 26.515625 31.984375 
L 29.59375 31.296875 
Q 39.15625 29.25 43.1875 25.515625 
Q 47.21875 21.78125 47.21875 15.09375 
Q 47.21875 7.46875 41.1875 3.015625 
Q 35.15625 -1.421875 24.609375 -1.421875 
Q 20.21875 -1.421875 15.453125 -0.5625 
Q 10.6875 0.296875 5.421875 2 
L 5.421875 11.28125 
Q 10.40625 8.6875 15.234375 7.390625 
Q 20.0625 6.109375 24.8125 6.109375 
Q 31.15625 6.109375 34.5625 8.28125 
Q 37.984375 10.453125 37.984375 14.40625 
Q 37.984375 18.0625 35.515625 20.015625 
Q 33.0625 21.96875 24.703125 23.78125 
L 21.578125 24.515625 
Q 13.234375 26.265625 9.515625 29.90625 
Q 5.8125 33.546875 5.8125 39.890625 
Q 5.8125 47.609375 11.28125 51.796875 
Q 16.75 56 26.8125 56 
Q 31.78125 56 36.171875 55.265625 
Q 40.578125 54.546875 44.28125 53.078125 
z
" id="DejaVuSans-115"/>
     </defs>
     <g transform="translate(18.398438 239.764884)rotate(-90)scale(0.1 -0.1)">
      <use xlink:href="#DejaVuSans-65"/>
      <use x="68.408203" xlink:href="#DejaVuSans-83"/>
      <use x="131.884766" xlink:href="#DejaVuSans-32"/>
      <use x="163.671875" xlink:href="#DejaVuSans-117"/>
      <use x="227.050781" xlink:href="#DejaVuSans-99"/>
      <use x="282.03125" xlink:href="#DejaVuSans-105"/>
      <use x="309.814453" xlink:href="#DejaVuSans-32"/>
      <use x="341.601562" xlink:href="#DejaVuSans-40"/>
      <use x="380.615234" xlink:href="#DejaVuSans-112"/>
      <use x="444.091797" xlink:href="#DejaVuSans-111"/>
      <use x="505.273438" xlink:href="#DejaVuSans-114"/>
      <use x="546.386719" xlink:href="#DejaVuSans-32"/>
      <use x="578.173828" xlink:href="#DejaVuSans-49"/>
      <use x="641.796875" xlink:href="#DejaVuSans-48"/>
      <use x="705.419922" xlink:href="#DejaVuSans-48"/>
      <use x="769.042969" xlink:href="#DejaVuSans-48"/>
      <use x="832.666016" xlink:href="#DejaVuSans-48"/>
      <use x="896.289062" xlink:href="#DejaVuSans-48"/>
      <use x="959.912109" xlink:href="#DejaVuSans-32"/>
      <use x="991.699219" xlink:href="#DejaVuSans-104"/>
      <use x="1055.078125" xlink:href="#DejaVuSans-97"/>
      <use x="1116.357422" xlink:href="#DejaVuSans-98"/>
      <use x="1179.833984" xlink:href="#DejaVuSans-46"/>
      <use x="1211.621094" xlink:href="#DejaVuSans-41"/>
      <use x="1250.634766" xlink:href="#DejaVuSans-32"/>
      <use x="1282.421875" xlink:href="#DejaVuSans-97"/>
      <use x="1343.701172" xlink:href="#DejaVuSans-99"/>
      <use x="1398.681641" xlink:href="#DejaVuSans-117"/>
      <use x="1462.060547" xlink:href="#DejaVuSans-109"/>
      <use x="1559.472656" xlink:href="#DejaVuSans-117"/>
      <use x="1622.851562" xlink:href="#DejaVuSans-108"/>
      <use x="1650.634766" xlink:href="#DejaVuSans-97"/>
      <use x="1711.914062" xlink:href="#DejaVuSans-100"/>
      <use x="1775.390625" xlink:href="#DejaVuSans-111"/>
      <use x="1836.572266" xlink:href="#DejaVuSans-115"/>
     </g>
    </g>
   </g>
   <g id="line2d_14">
    <path clip-path="url(#p1679533b16)" d="M 61.615708 276.466397 
L 66.973426 276.466397 
L 72.331144 276.466397 
L 77.688862 276.466397 
L 83.04658 276.466397 
L 88.404298 276.466397 
L 93.762016 274.768306 
L 99.119734 274.768306 
L 104.477452 271.372123 
L 109.83517 271.372123 
L 115.192888 269.674031 
L 120.550606 267.97594 
L 125.908324 259.485483 
L 131.266042 254.391209 
L 136.62376 242.504569 
L 141.981478 240.806478 
L 147.339196 230.61793 
L 152.696914 222.127473 
L 158.054632 200.052285 
L 163.41235 194.95801 
L 168.770068 183.071371 
L 174.127786 177.977097 
L 179.485504 169.48664 
L 184.843222 150.807635 
L 190.20094 145.71336 
L 195.558658 133.826721 
L 200.916376 132.128629 
L 206.274094 127.034355 
L 211.631812 127.034355 
L 216.98953 125.336264 
L 222.347248 125.336264 
L 227.704966 120.24199 
L 233.062684 110.053441 
L 238.420402 101.562984 
L 243.77812 99.864893 
L 249.135838 93.072528 
L 254.493556 91.374436 
L 259.851274 86.280162 
L 265.208992 82.883979 
L 270.56671 79.487796 
L 275.924428 77.789705 
L 281.282146 76.091614 
L 286.639864 72.695431 
L 291.997582 72.695431 
L 297.3553 62.506883 
L 302.713018 59.1107 
L 308.070736 57.412608 
L 313.428454 55.714517 
L 318.786172 52.318334 
L 324.14389 47.22406 
L 329.501608 47.22406 
L 334.859326 47.22406 
L 340.217044 47.22406 
L 345.574762 42.129786 
L 350.93248 40.431695 
L 356.290198 38.733603 
L 361.647916 38.733603 
L 367.005634 38.733603 
L 372.363352 38.733603 
L 377.72107 37.035512 
L 383.078788 35.33742 
L 388.436506 33.639329 
L 393.794224 30.243146 
L 399.151942 26.846964 
L 404.50966 25.148872 
L 409.867378 23.450781 
" style="fill:none;stroke:#1f77b4;stroke-linecap:square;stroke-width:1.5;"/>
    <defs>
     <path d="M 0 1.5 
C 0.397805 1.5 0.77937 1.341951 1.06066 1.06066 
C 1.341951 0.77937 1.5 0.397805 1.5 0 
C 1.5 -0.397805 1.341951 -0.77937 1.06066 -1.06066 
C 0.77937 -1.341951 0.397805 -1.5 0 -1.5 
C -0.397805 -1.5 -0.77937 -1.341951 -1.06066 -1.06066 
C -1.341951 -0.77937 -1.5 -0.397805 -1.5 0 
C -1.5 0.397805 -1.341951 0.77937 -1.06066 1.06066 
C -0.77937 1.341951 -0.397805 1.5 0 1.5 
z
" id="mbd05c821c2" style="stroke:#1f77b4;"/>
    </defs>
    <g clip-path="url(#p1679533b16)">
     <use style="fill:#1f77b4;stroke:#1f77b4;" x="61.615708" xlink:href="#mbd05c821c2" y="276.466397"/>
     <use style="fill:#1f77b4;stroke:#1f77b4;" x="66.973426" xlink:href="#mbd05c821c2" y="276.466397"/>
     <use style="fill:#1f77b4;stroke:#1f77b4;" x="72.331144" xlink:href="#mbd05c821c2" y="276.466397"/>
     <use style="fill:#1f77b4;stroke:#1f77b4;" x="77.688862" xlink:href="#mbd05c821c2" y="276.466397"/>
     <use style="fill:#1f77b4;stroke:#1f77b4;" x="83.04658" xlink:href="#mbd05c821c2" y="276.466397"/>
     <use style="fill:#1f77b4;stroke:#1f77b4;" x="88.404298" xlink:href="#mbd05c821c2" y="276.466397"/>
     <use style="fill:#1f77b4;stroke:#1f77b4;" x="93.762016" xlink:href="#mbd05c821c2" y="274.768306"/>
     <use style="fill:#1f77b4;stroke:#1f77b4;" x="99.119734" xlink:href="#mbd05c821c2" y="274.768306"/>
     <use style="fill:#1f77b4;stroke:#1f77b4;" x="104.477452" xlink:href="#mbd05c821c2" y="271.372123"/>
     <use style="fill:#1f77b4;stroke:#1f77b4;" x="109.83517" xlink:href="#mbd05c821c2" y="271.372123"/>
     <use style="fill:#1f77b4;stroke:#1f77b4;" x="115.192888" xlink:href="#mbd05c821c2" y="269.674031"/>
     <use style="fill:#1f77b4;stroke:#1f77b4;" x="120.550606" xlink:href="#mbd05c821c2" y="267.97594"/>
     <use style="fill:#1f77b4;stroke:#1f77b4;" x="125.908324" xlink:href="#mbd05c821c2" y="259.485483"/>
     <use style="fill:#1f77b4;stroke:#1f77b4;" x="131.266042" xlink:href="#mbd05c821c2" y="254.391209"/>
     <use style="fill:#1f77b4;stroke:#1f77b4;" x="136.62376" xlink:href="#mbd05c821c2" y="242.504569"/>
     <use style="fill:#1f77b4;stroke:#1f77b4;" x="141.981478" xlink:href="#mbd05c821c2" y="240.806478"/>
     <use style="fill:#1f77b4;stroke:#1f77b4;" x="147.339196" xlink:href="#mbd05c821c2" y="230.61793"/>
     <use style="fill:#1f77b4;stroke:#1f77b4;" x="152.696914" xlink:href="#mbd05c821c2" y="222.127473"/>
     <use style="fill:#1f77b4;stroke:#1f77b4;" x="158.054632" xlink:href="#mbd05c821c2" y="200.052285"/>
     <use style="fill:#1f77b4;stroke:#1f77b4;" x="163.41235" xlink:href="#mbd05c821c2" y="194.95801"/>
     <use style="fill:#1f77b4;stroke:#1f77b4;" x="168.770068" xlink:href="#mbd05c821c2" y="183.071371"/>
     <use style="fill:#1f77b4;stroke:#1f77b4;" x="174.127786" xlink:href="#mbd05c821c2" y="177.977097"/>
     <use style="fill:#1f77b4;stroke:#1f77b4;" x="179.485504" xlink:href="#mbd05c821c2" y="169.48664"/>
     <use style="fill:#1f77b4;stroke:#1f77b4;" x="184.843222" xlink:href="#mbd05c821c2" y="150.807635"/>
     <use style="fill:#1f77b4;stroke:#1f77b4;" x="190.20094" xlink:href="#mbd05c821c2" y="145.71336"/>
     <use style="fill:#1f77b4;stroke:#1f77b4;" x="195.558658" xlink:href="#mbd05c821c2" y="133.826721"/>
     <use style="fill:#1f77b4;stroke:#1f77b4;" x="200.916376" xlink:href="#mbd05c821c2" y="132.128629"/>
     <use style="fill:#1f77b4;stroke:#1f77b4;" x="206.274094" xlink:href="#mbd05c821c2" y="127.034355"/>
     <use style="fill:#1f77b4;stroke:#1f77b4;" x="211.631812" xlink:href="#mbd05c821c2" y="127.034355"/>
     <use style="fill:#1f77b4;stroke:#1f77b4;" x="216.98953" xlink:href="#mbd05c821c2" y="125.336264"/>
     <use style="fill:#1f77b4;stroke:#1f77b4;" x="222.347248" xlink:href="#mbd05c821c2" y="125.336264"/>
     <use style="fill:#1f77b4;stroke:#1f77b4;" x="227.704966" xlink:href="#mbd05c821c2" y="120.24199"/>
     <use style="fill:#1f77b4;stroke:#1f77b4;" x="233.062684" xlink:href="#mbd05c821c2" y="110.053441"/>
     <use style="fill:#1f77b4;stroke:#1f77b4;" x="238.420402" xlink:href="#mbd05c821c2" y="101.562984"/>
     <use style="fill:#1f77b4;stroke:#1f77b4;" x="243.77812" xlink:href="#mbd05c821c2" y="99.864893"/>
     <use style="fill:#1f77b4;stroke:#1f77b4;" x="249.135838" xlink:href="#mbd05c821c2" y="93.072528"/>
     <use style="fill:#1f77b4;stroke:#1f77b4;" x="254.493556" xlink:href="#mbd05c821c2" y="91.374436"/>
     <use style="fill:#1f77b4;stroke:#1f77b4;" x="259.851274" xlink:href="#mbd05c821c2" y="86.280162"/>
     <use style="fill:#1f77b4;stroke:#1f77b4;" x="265.208992" xlink:href="#mbd05c821c2" y="82.883979"/>
     <use style="fill:#1f77b4;stroke:#1f77b4;" x="270.56671" xlink:href="#mbd05c821c2" y="79.487796"/>
     <use style="fill:#1f77b4;stroke:#1f77b4;" x="275.924428" xlink:href="#mbd05c821c2" y="77.789705"/>
     <use style="fill:#1f77b4;stroke:#1f77b4;" x="281.282146" xlink:href="#mbd05c821c2" y="76.091614"/>
     <use style="fill:#1f77b4;stroke:#1f77b4;" x="286.639864" xlink:href="#mbd05c821c2" y="72.695431"/>
     <use style="fill:#1f77b4;stroke:#1f77b4;" x="291.997582" xlink:href="#mbd05c821c2" y="72.695431"/>
     <use style="fill:#1f77b4;stroke:#1f77b4;" x="297.3553" xlink:href="#mbd05c821c2" y="62.506883"/>
     <use style="fill:#1f77b4;stroke:#1f77b4;" x="302.713018" xlink:href="#mbd05c821c2" y="59.1107"/>
     <use style="fill:#1f77b4;stroke:#1f77b4;" x="308.070736" xlink:href="#mbd05c821c2" y="57.412608"/>
     <use style="fill:#1f77b4;stroke:#1f77b4;" x="313.428454" xlink:href="#mbd05c821c2" y="55.714517"/>
     <use style="fill:#1f77b4;stroke:#1f77b4;" x="318.786172" xlink:href="#mbd05c821c2" y="52.318334"/>
     <use style="fill:#1f77b4;stroke:#1f77b4;" x="324.14389" xlink:href="#mbd05c821c2" y="47.22406"/>
     <use style="fill:#1f77b4;stroke:#1f77b4;" x="329.501608" xlink:href="#mbd05c821c2" y="47.22406"/>
     <use style="fill:#1f77b4;stroke:#1f77b4;" x="334.859326" xlink:href="#mbd05c821c2" y="47.22406"/>
     <use style="fill:#1f77b4;stroke:#1f77b4;" x="340.217044" xlink:href="#mbd05c821c2" y="47.22406"/>
     <use style="fill:#1f77b4;stroke:#1f77b4;" x="345.574762" xlink:href="#mbd05c821c2" y="42.129786"/>
     <use style="fill:#1f77b4;stroke:#1f77b4;" x="350.93248" xlink:href="#mbd05c821c2" y="40.431695"/>
     <use style="fill:#1f77b4;stroke:#1f77b4;" x="356.290198" xlink:href="#mbd05c821c2" y="38.733603"/>
     <use style="fill:#1f77b4;stroke:#1f77b4;" x="361.647916" xlink:href="#mbd05c821c2" y="38.733603"/>
     <use style="fill:#1f77b4;stroke:#1f77b4;" x="367.005634" xlink:href="#mbd05c821c2" y="38.733603"/>
     <use style="fill:#1f77b4;stroke:#1f77b4;" x="372.363352" xlink:href="#mbd05c821c2" y="38.733603"/>
     <use style="fill:#1f77b4;stroke:#1f77b4;" x="377.72107" xlink:href="#mbd05c821c2" y="37.035512"/>
     <use style="fill:#1f77b4;stroke:#1f77b4;" x="383.078788" xlink:href="#mbd05c821c2" y="35.33742"/>
     <use style="fill:#1f77b4;stroke:#1f77b4;" x="388.436506" xlink:href="#mbd05c821c2" y="33.639329"/>
     <use style="fill:#1f77b4;stroke:#1f77b4;" x="393.794224" xlink:href="#mbd05c821c2" y="30.243146"/>
     <use style="fill:#1f77b4;stroke:#1f77b4;" x="399.151942" xlink:href="#mbd05c821c2" y="26.846964"/>
     <use style="fill:#1f77b4;stroke:#1f77b4;" x="404.50966" xlink:href="#mbd05c821c2" y="25.148872"/>
     <use style="fill:#1f77b4;stroke:#1f77b4;" x="409.867378" xlink:href="#mbd05c821c2" y="23.450781"/>
    </g>
   </g>
   <g id="patch_3">
    <path d="M 44.203125 279.86258 
L 44.203125 10.8 
" style="fill:none;stroke:#000000;stroke-linecap:square;stroke-linejoin:miter;stroke-width:0.8;"/>
   </g>
   <g id="patch_4">
    <path d="M 427.279961 279.86258 
L 427.279961 10.8 
" style="fill:none;stroke:#000000;stroke-linecap:square;stroke-linejoin:miter;stroke-width:0.8;"/>
   </g>
   <g id="patch_5">
    <path d="M 44.203125 279.86258 
L 427.279961 279.86258 
" style="fill:none;stroke:#000000;stroke-linecap:square;stroke-linejoin:miter;stroke-width:0.8;"/>
   </g>
   <g id="patch_6">
    <path d="M 44.203125 10.8 
L 427.279961 10.8 
" style="fill:none;stroke:#000000;stroke-linecap:square;stroke-linejoin:miter;stroke-width:0.8;"/>
   </g>
  </g>
 </g>
 <defs>
  <clipPath id="p1679533b16">
   <rect height="269.06258" width="383.076836" x="44.203125" y="10.8"/>
  </clipPath>
 </defs>
</svg>
