<?xml version="1.0" encoding="utf-8" standalone="no"?>
<!DOCTYPE svg PUBLIC "-//W3C//DTD SVG 1.1//EN"
  "http://www.w3.org/Graphics/SVG/1.1/DTD/svg11.dtd">
<!-- Created with matplotlib (https://matplotlib.org/) -->
<svg height="345.6pt" version="1.1" viewBox="0 0 460.8 345.6" width="460.8pt" xmlns="http://www.w3.org/2000/svg" xmlns:xlink="http://www.w3.org/1999/xlink">
 <defs>
  <style type="text/css">
*{stroke-linecap:butt;stroke-linejoin:round;}
  </style>
 </defs>
 <g id="figure_1">
  <g id="patch_1">
   <path d="M 0 345.6 
L 460.8 345.6 
L 460.8 0 
L 0 0 
z
" style="fill:#ffffff;"/>
  </g>
  <g id="axes_1">
   <g id="patch_2">
    <path d="M 44.203125 279.86258 
L 437.418427 279.86258 
L 437.418427 10.8 
L 44.203125 10.8 
z
" style="fill:#ffffff;"/>
   </g>
   <g id="matplotlib.axis_1">
    <g id="xtick_1">
     <g id="line2d_1">
      <defs>
       <path d="M 0 0 
L 0 3.5 
" id="ma64d6e6c0d" style="stroke:#000000;stroke-width:0.8;"/>
      </defs>
      <g>
       <use style="stroke:#000000;stroke-width:0.8;" x="99.423998" xlink:href="#ma64d6e6c0d" y="279.86258"/>
      </g>
     </g>
     <g id="text_1">
      <!-- 2020-03-15 -->
      <defs>
       <path d="M 19.1875 8.296875 
L 53.609375 8.296875 
L 53.609375 0 
L 7.328125 0 
L 7.328125 8.296875 
Q 12.9375 14.109375 22.625 23.890625 
Q 32.328125 33.6875 34.8125 36.53125 
Q 39.546875 41.84375 41.421875 45.53125 
Q 43.3125 49.21875 43.3125 52.78125 
Q 43.3125 58.59375 39.234375 62.25 
Q 35.15625 65.921875 28.609375 65.921875 
Q 23.96875 65.921875 18.8125 64.3125 
Q 13.671875 62.703125 7.8125 59.421875 
L 7.8125 69.390625 
Q 13.765625 71.78125 18.9375 73 
Q 24.125 74.21875 28.421875 74.21875 
Q 39.75 74.21875 46.484375 68.546875 
Q 53.21875 62.890625 53.21875 53.421875 
Q 53.21875 48.921875 51.53125 44.890625 
Q 49.859375 40.875 45.40625 35.40625 
Q 44.1875 33.984375 37.640625 27.21875 
Q 31.109375 20.453125 19.1875 8.296875 
z
" id="DejaVuSans-50"/>
       <path d="M 31.78125 66.40625 
Q 24.171875 66.40625 20.328125 58.90625 
Q 16.5 51.421875 16.5 36.375 
Q 16.5 21.390625 20.328125 13.890625 
Q 24.171875 6.390625 31.78125 6.390625 
Q 39.453125 6.390625 43.28125 13.890625 
Q 47.125 21.390625 47.125 36.375 
Q 47.125 51.421875 43.28125 58.90625 
Q 39.453125 66.40625 31.78125 66.40625 
z
M 31.78125 74.21875 
Q 44.046875 74.21875 50.515625 64.515625 
Q 56.984375 54.828125 56.984375 36.375 
Q 56.984375 17.96875 50.515625 8.265625 
Q 44.046875 -1.421875 31.78125 -1.421875 
Q 19.53125 -1.421875 13.0625 8.265625 
Q 6.59375 17.96875 6.59375 36.375 
Q 6.59375 54.828125 13.0625 64.515625 
Q 19.53125 74.21875 31.78125 74.21875 
z
" id="DejaVuSans-48"/>
       <path d="M 4.890625 31.390625 
L 31.203125 31.390625 
L 31.203125 23.390625 
L 4.890625 23.390625 
z
" id="DejaVuSans-45"/>
       <path d="M 40.578125 39.3125 
Q 47.65625 37.796875 51.625 33 
Q 55.609375 28.21875 55.609375 21.1875 
Q 55.609375 10.40625 48.1875 4.484375 
Q 40.765625 -1.421875 27.09375 -1.421875 
Q 22.515625 -1.421875 17.65625 -0.515625 
Q 12.796875 0.390625 7.625 2.203125 
L 7.625 11.71875 
Q 11.71875 9.328125 16.59375 8.109375 
Q 21.484375 6.890625 26.8125 6.890625 
Q 36.078125 6.890625 40.9375 10.546875 
Q 45.796875 14.203125 45.796875 21.1875 
Q 45.796875 27.640625 41.28125 31.265625 
Q 36.765625 34.90625 28.71875 34.90625 
L 20.21875 34.90625 
L 20.21875 43.015625 
L 29.109375 43.015625 
Q 36.375 43.015625 40.234375 45.921875 
Q 44.09375 48.828125 44.09375 54.296875 
Q 44.09375 59.90625 40.109375 62.90625 
Q 36.140625 65.921875 28.71875 65.921875 
Q 24.65625 65.921875 20.015625 65.03125 
Q 15.375 64.15625 9.8125 62.3125 
L 9.8125 71.09375 
Q 15.4375 72.65625 20.34375 73.4375 
Q 25.25 74.21875 29.59375 74.21875 
Q 40.828125 74.21875 47.359375 69.109375 
Q 53.90625 64.015625 53.90625 55.328125 
Q 53.90625 49.265625 50.4375 45.09375 
Q 46.96875 40.921875 40.578125 39.3125 
z
" id="DejaVuSans-51"/>
       <path d="M 12.40625 8.296875 
L 28.515625 8.296875 
L 28.515625 63.921875 
L 10.984375 60.40625 
L 10.984375 69.390625 
L 28.421875 72.90625 
L 38.28125 72.90625 
L 38.28125 8.296875 
L 54.390625 8.296875 
L 54.390625 0 
L 12.40625 0 
z
" id="DejaVuSans-49"/>
       <path d="M 10.796875 72.90625 
L 49.515625 72.90625 
L 49.515625 64.59375 
L 19.828125 64.59375 
L 19.828125 46.734375 
Q 21.96875 47.46875 24.109375 47.828125 
Q 26.265625 48.1875 28.421875 48.1875 
Q 40.625 48.1875 47.75 41.5 
Q 54.890625 34.8125 54.890625 23.390625 
Q 54.890625 11.625 47.5625 5.09375 
Q 40.234375 -1.421875 26.90625 -1.421875 
Q 22.3125 -1.421875 17.546875 -0.640625 
Q 12.796875 0.140625 7.71875 1.703125 
L 7.71875 11.625 
Q 12.109375 9.234375 16.796875 8.0625 
Q 21.484375 6.890625 26.703125 6.890625 
Q 35.15625 6.890625 40.078125 11.328125 
Q 45.015625 15.765625 45.015625 23.390625 
Q 45.015625 31 40.078125 35.4375 
Q 35.15625 39.890625 26.703125 39.890625 
Q 22.75 39.890625 18.8125 39.015625 
Q 14.890625 38.140625 10.796875 36.28125 
z
" id="DejaVuSans-53"/>
      </defs>
      <g transform="translate(80.828195 333.329439)rotate(-45)scale(0.1 -0.1)">
       <use xlink:href="#DejaVuSans-50"/>
       <use x="63.623047" xlink:href="#DejaVuSans-48"/>
       <use x="127.246094" xlink:href="#DejaVuSans-50"/>
       <use x="190.869141" xlink:href="#DejaVuSans-48"/>
       <use x="254.492188" xlink:href="#DejaVuSans-45"/>
       <use x="290.576172" xlink:href="#DejaVuSans-48"/>
       <use x="354.199219" xlink:href="#DejaVuSans-51"/>
       <use x="417.822266" xlink:href="#DejaVuSans-45"/>
       <use x="453.90625" xlink:href="#DejaVuSans-49"/>
       <use x="517.529297" xlink:href="#DejaVuSans-53"/>
      </g>
     </g>
    </g>
    <g id="xtick_2">
     <g id="line2d_2">
      <g>
       <use style="stroke:#000000;stroke-width:0.8;" x="190.12495" xlink:href="#ma64d6e6c0d" y="279.86258"/>
      </g>
     </g>
     <g id="text_2">
      <!-- 2020-04-01 -->
      <defs>
       <path d="M 37.796875 64.3125 
L 12.890625 25.390625 
L 37.796875 25.390625 
z
M 35.203125 72.90625 
L 47.609375 72.90625 
L 47.609375 25.390625 
L 58.015625 25.390625 
L 58.015625 17.1875 
L 47.609375 17.1875 
L 47.609375 0 
L 37.796875 0 
L 37.796875 17.1875 
L 4.890625 17.1875 
L 4.890625 26.703125 
z
" id="DejaVuSans-52"/>
      </defs>
      <g transform="translate(171.529147 333.329439)rotate(-45)scale(0.1 -0.1)">
       <use xlink:href="#DejaVuSans-50"/>
       <use x="63.623047" xlink:href="#DejaVuSans-48"/>
       <use x="127.246094" xlink:href="#DejaVuSans-50"/>
       <use x="190.869141" xlink:href="#DejaVuSans-48"/>
       <use x="254.492188" xlink:href="#DejaVuSans-45"/>
       <use x="290.576172" xlink:href="#DejaVuSans-48"/>
       <use x="354.199219" xlink:href="#DejaVuSans-52"/>
       <use x="417.822266" xlink:href="#DejaVuSans-45"/>
       <use x="453.90625" xlink:href="#DejaVuSans-48"/>
       <use x="517.529297" xlink:href="#DejaVuSans-49"/>
      </g>
     </g>
    </g>
    <g id="xtick_3">
     <g id="line2d_3">
      <g>
       <use style="stroke:#000000;stroke-width:0.8;" x="264.819851" xlink:href="#ma64d6e6c0d" y="279.86258"/>
      </g>
     </g>
     <g id="text_3">
      <!-- 2020-04-15 -->
      <g transform="translate(246.224048 333.329439)rotate(-45)scale(0.1 -0.1)">
       <use xlink:href="#DejaVuSans-50"/>
       <use x="63.623047" xlink:href="#DejaVuSans-48"/>
       <use x="127.246094" xlink:href="#DejaVuSans-50"/>
       <use x="190.869141" xlink:href="#DejaVuSans-48"/>
       <use x="254.492188" xlink:href="#DejaVuSans-45"/>
       <use x="290.576172" xlink:href="#DejaVuSans-48"/>
       <use x="354.199219" xlink:href="#DejaVuSans-52"/>
       <use x="417.822266" xlink:href="#DejaVuSans-45"/>
       <use x="453.90625" xlink:href="#DejaVuSans-49"/>
       <use x="517.529297" xlink:href="#DejaVuSans-53"/>
      </g>
     </g>
    </g>
    <g id="xtick_4">
     <g id="line2d_4">
      <g>
       <use style="stroke:#000000;stroke-width:0.8;" x="350.185453" xlink:href="#ma64d6e6c0d" y="279.86258"/>
      </g>
     </g>
     <g id="text_4">
      <!-- 2020-05-01 -->
      <g transform="translate(331.589649 333.329439)rotate(-45)scale(0.1 -0.1)">
       <use xlink:href="#DejaVuSans-50"/>
       <use x="63.623047" xlink:href="#DejaVuSans-48"/>
       <use x="127.246094" xlink:href="#DejaVuSans-50"/>
       <use x="190.869141" xlink:href="#DejaVuSans-48"/>
       <use x="254.492188" xlink:href="#DejaVuSans-45"/>
       <use x="290.576172" xlink:href="#DejaVuSans-48"/>
       <use x="354.199219" xlink:href="#DejaVuSans-53"/>
       <use x="417.822266" xlink:href="#DejaVuSans-45"/>
       <use x="453.90625" xlink:href="#DejaVuSans-48"/>
       <use x="517.529297" xlink:href="#DejaVuSans-49"/>
      </g>
     </g>
    </g>
    <g id="xtick_5">
     <g id="line2d_5">
      <g>
       <use style="stroke:#000000;stroke-width:0.8;" x="424.880354" xlink:href="#ma64d6e6c0d" y="279.86258"/>
      </g>
     </g>
     <g id="text_5">
      <!-- 2020-05-15 -->
      <g transform="translate(406.284551 333.329439)rotate(-45)scale(0.1 -0.1)">
       <use xlink:href="#DejaVuSans-50"/>
       <use x="63.623047" xlink:href="#DejaVuSans-48"/>
       <use x="127.246094" xlink:href="#DejaVuSans-50"/>
       <use x="190.869141" xlink:href="#DejaVuSans-48"/>
       <use x="254.492188" xlink:href="#DejaVuSans-45"/>
       <use x="290.576172" xlink:href="#DejaVuSans-48"/>
       <use x="354.199219" xlink:href="#DejaVuSans-53"/>
       <use x="417.822266" xlink:href="#DejaVuSans-45"/>
       <use x="453.90625" xlink:href="#DejaVuSans-49"/>
       <use x="517.529297" xlink:href="#DejaVuSans-53"/>
      </g>
     </g>
    </g>
   </g>
   <g id="matplotlib.axis_2">
    <g id="ytick_1">
     <g id="line2d_6">
      <defs>
       <path d="M 0 0 
L -3.5 0 
" id="m904454e6fe" style="stroke:#000000;stroke-width:0.8;"/>
      </defs>
      <g>
       <use style="stroke:#000000;stroke-width:0.8;" x="44.203125" xlink:href="#m904454e6fe" y="279.86258"/>
      </g>
     </g>
     <g id="text_6">
      <!-- 0 -->
      <g transform="translate(30.840625 283.661798)scale(0.1 -0.1)">
       <use xlink:href="#DejaVuSans-48"/>
      </g>
     </g>
    </g>
    <g id="ytick_2">
     <g id="line2d_7">
      <g>
       <use style="stroke:#000000;stroke-width:0.8;" x="44.203125" xlink:href="#m904454e6fe" y="231.894951"/>
      </g>
     </g>
     <g id="text_7">
      <!-- 10 -->
      <g transform="translate(24.478125 235.694169)scale(0.1 -0.1)">
       <use xlink:href="#DejaVuSans-49"/>
       <use x="63.623047" xlink:href="#DejaVuSans-48"/>
      </g>
     </g>
    </g>
    <g id="ytick_3">
     <g id="line2d_8">
      <g>
       <use style="stroke:#000000;stroke-width:0.8;" x="44.203125" xlink:href="#m904454e6fe" y="183.927322"/>
      </g>
     </g>
     <g id="text_8">
      <!-- 20 -->
      <g transform="translate(24.478125 187.72654)scale(0.1 -0.1)">
       <use xlink:href="#DejaVuSans-50"/>
       <use x="63.623047" xlink:href="#DejaVuSans-48"/>
      </g>
     </g>
    </g>
    <g id="ytick_4">
     <g id="line2d_9">
      <g>
       <use style="stroke:#000000;stroke-width:0.8;" x="44.203125" xlink:href="#m904454e6fe" y="135.959692"/>
      </g>
     </g>
     <g id="text_9">
      <!-- 30 -->
      <g transform="translate(24.478125 139.758911)scale(0.1 -0.1)">
       <use xlink:href="#DejaVuSans-51"/>
       <use x="63.623047" xlink:href="#DejaVuSans-48"/>
      </g>
     </g>
    </g>
    <g id="ytick_5">
     <g id="line2d_10">
      <g>
       <use style="stroke:#000000;stroke-width:0.8;" x="44.203125" xlink:href="#m904454e6fe" y="87.992063"/>
      </g>
     </g>
     <g id="text_10">
      <!-- 40 -->
      <g transform="translate(24.478125 91.791282)scale(0.1 -0.1)">
       <use xlink:href="#DejaVuSans-52"/>
       <use x="63.623047" xlink:href="#DejaVuSans-48"/>
      </g>
     </g>
    </g>
    <g id="ytick_6">
     <g id="line2d_11">
      <g>
       <use style="stroke:#000000;stroke-width:0.8;" x="44.203125" xlink:href="#m904454e6fe" y="40.024434"/>
      </g>
     </g>
     <g id="text_11">
      <!-- 50 -->
      <g transform="translate(24.478125 43.823653)scale(0.1 -0.1)">
       <use xlink:href="#DejaVuSans-53"/>
       <use x="63.623047" xlink:href="#DejaVuSans-48"/>
      </g>
     </g>
    </g>
    <g id="text_12">
     <!-- MD uci (por 100000 hab.) acumulados -->
     <defs>
      <path d="M 9.8125 72.90625 
L 24.515625 72.90625 
L 43.109375 23.296875 
L 61.8125 72.90625 
L 76.515625 72.90625 
L 76.515625 0 
L 66.890625 0 
L 66.890625 64.015625 
L 48.09375 14.015625 
L 38.1875 14.015625 
L 19.390625 64.015625 
L 19.390625 0 
L 9.8125 0 
z
" id="DejaVuSans-77"/>
      <path d="M 19.671875 64.796875 
L 19.671875 8.109375 
L 31.59375 8.109375 
Q 46.6875 8.109375 53.6875 14.9375 
Q 60.6875 21.78125 60.6875 36.53125 
Q 60.6875 51.171875 53.6875 57.984375 
Q 46.6875 64.796875 31.59375 64.796875 
z
M 9.8125 72.90625 
L 30.078125 72.90625 
Q 51.265625 72.90625 61.171875 64.09375 
Q 71.09375 55.28125 71.09375 36.53125 
Q 71.09375 17.671875 61.125 8.828125 
Q 51.171875 0 30.078125 0 
L 9.8125 0 
z
" id="DejaVuSans-68"/>
      <path id="DejaVuSans-32"/>
      <path d="M 8.5 21.578125 
L 8.5 54.6875 
L 17.484375 54.6875 
L 17.484375 21.921875 
Q 17.484375 14.15625 20.5 10.265625 
Q 23.53125 6.390625 29.59375 6.390625 
Q 36.859375 6.390625 41.078125 11.03125 
Q 45.3125 15.671875 45.3125 23.6875 
L 45.3125 54.6875 
L 54.296875 54.6875 
L 54.296875 0 
L 45.3125 0 
L 45.3125 8.40625 
Q 42.046875 3.421875 37.71875 1 
Q 33.40625 -1.421875 27.6875 -1.421875 
Q 18.265625 -1.421875 13.375 4.4375 
Q 8.5 10.296875 8.5 21.578125 
z
M 31.109375 56 
z
" id="DejaVuSans-117"/>
      <path d="M 48.78125 52.59375 
L 48.78125 44.1875 
Q 44.96875 46.296875 41.140625 47.34375 
Q 37.3125 48.390625 33.40625 48.390625 
Q 24.65625 48.390625 19.8125 42.84375 
Q 14.984375 37.3125 14.984375 27.296875 
Q 14.984375 17.28125 19.8125 11.734375 
Q 24.65625 6.203125 33.40625 6.203125 
Q 37.3125 6.203125 41.140625 7.25 
Q 44.96875 8.296875 48.78125 10.40625 
L 48.78125 2.09375 
Q 45.015625 0.34375 40.984375 -0.53125 
Q 36.96875 -1.421875 32.421875 -1.421875 
Q 20.0625 -1.421875 12.78125 6.34375 
Q 5.515625 14.109375 5.515625 27.296875 
Q 5.515625 40.671875 12.859375 48.328125 
Q 20.21875 56 33.015625 56 
Q 37.15625 56 41.109375 55.140625 
Q 45.0625 54.296875 48.78125 52.59375 
z
" id="DejaVuSans-99"/>
      <path d="M 9.421875 54.6875 
L 18.40625 54.6875 
L 18.40625 0 
L 9.421875 0 
z
M 9.421875 75.984375 
L 18.40625 75.984375 
L 18.40625 64.59375 
L 9.421875 64.59375 
z
" id="DejaVuSans-105"/>
      <path d="M 31 75.875 
Q 24.46875 64.65625 21.28125 53.65625 
Q 18.109375 42.671875 18.109375 31.390625 
Q 18.109375 20.125 21.3125 9.0625 
Q 24.515625 -2 31 -13.1875 
L 23.1875 -13.1875 
Q 15.875 -1.703125 12.234375 9.375 
Q 8.59375 20.453125 8.59375 31.390625 
Q 8.59375 42.28125 12.203125 53.3125 
Q 15.828125 64.359375 23.1875 75.875 
z
" id="DejaVuSans-40"/>
      <path d="M 18.109375 8.203125 
L 18.109375 -20.796875 
L 9.078125 -20.796875 
L 9.078125 54.6875 
L 18.109375 54.6875 
L 18.109375 46.390625 
Q 20.953125 51.265625 25.265625 53.625 
Q 29.59375 56 35.59375 56 
Q 45.5625 56 51.78125 48.09375 
Q 58.015625 40.1875 58.015625 27.296875 
Q 58.015625 14.40625 51.78125 6.484375 
Q 45.5625 -1.421875 35.59375 -1.421875 
Q 29.59375 -1.421875 25.265625 0.953125 
Q 20.953125 3.328125 18.109375 8.203125 
z
M 48.6875 27.296875 
Q 48.6875 37.203125 44.609375 42.84375 
Q 40.53125 48.484375 33.40625 48.484375 
Q 26.265625 48.484375 22.1875 42.84375 
Q 18.109375 37.203125 18.109375 27.296875 
Q 18.109375 17.390625 22.1875 11.75 
Q 26.265625 6.109375 33.40625 6.109375 
Q 40.53125 6.109375 44.609375 11.75 
Q 48.6875 17.390625 48.6875 27.296875 
z
" id="DejaVuSans-112"/>
      <path d="M 30.609375 48.390625 
Q 23.390625 48.390625 19.1875 42.75 
Q 14.984375 37.109375 14.984375 27.296875 
Q 14.984375 17.484375 19.15625 11.84375 
Q 23.34375 6.203125 30.609375 6.203125 
Q 37.796875 6.203125 41.984375 11.859375 
Q 46.1875 17.53125 46.1875 27.296875 
Q 46.1875 37.015625 41.984375 42.703125 
Q 37.796875 48.390625 30.609375 48.390625 
z
M 30.609375 56 
Q 42.328125 56 49.015625 48.375 
Q 55.71875 40.765625 55.71875 27.296875 
Q 55.71875 13.875 49.015625 6.21875 
Q 42.328125 -1.421875 30.609375 -1.421875 
Q 18.84375 -1.421875 12.171875 6.21875 
Q 5.515625 13.875 5.515625 27.296875 
Q 5.515625 40.765625 12.171875 48.375 
Q 18.84375 56 30.609375 56 
z
" id="DejaVuSans-111"/>
      <path d="M 41.109375 46.296875 
Q 39.59375 47.171875 37.8125 47.578125 
Q 36.03125 48 33.890625 48 
Q 26.265625 48 22.1875 43.046875 
Q 18.109375 38.09375 18.109375 28.8125 
L 18.109375 0 
L 9.078125 0 
L 9.078125 54.6875 
L 18.109375 54.6875 
L 18.109375 46.1875 
Q 20.953125 51.171875 25.484375 53.578125 
Q 30.03125 56 36.53125 56 
Q 37.453125 56 38.578125 55.875 
Q 39.703125 55.765625 41.0625 55.515625 
z
" id="DejaVuSans-114"/>
      <path d="M 54.890625 33.015625 
L 54.890625 0 
L 45.90625 0 
L 45.90625 32.71875 
Q 45.90625 40.484375 42.875 44.328125 
Q 39.84375 48.1875 33.796875 48.1875 
Q 26.515625 48.1875 22.3125 43.546875 
Q 18.109375 38.921875 18.109375 30.90625 
L 18.109375 0 
L 9.078125 0 
L 9.078125 75.984375 
L 18.109375 75.984375 
L 18.109375 46.1875 
Q 21.34375 51.125 25.703125 53.5625 
Q 30.078125 56 35.796875 56 
Q 45.21875 56 50.046875 50.171875 
Q 54.890625 44.34375 54.890625 33.015625 
z
" id="DejaVuSans-104"/>
      <path d="M 34.28125 27.484375 
Q 23.390625 27.484375 19.1875 25 
Q 14.984375 22.515625 14.984375 16.5 
Q 14.984375 11.71875 18.140625 8.90625 
Q 21.296875 6.109375 26.703125 6.109375 
Q 34.1875 6.109375 38.703125 11.40625 
Q 43.21875 16.703125 43.21875 25.484375 
L 43.21875 27.484375 
z
M 52.203125 31.203125 
L 52.203125 0 
L 43.21875 0 
L 43.21875 8.296875 
Q 40.140625 3.328125 35.546875 0.953125 
Q 30.953125 -1.421875 24.3125 -1.421875 
Q 15.921875 -1.421875 10.953125 3.296875 
Q 6 8.015625 6 15.921875 
Q 6 25.140625 12.171875 29.828125 
Q 18.359375 34.515625 30.609375 34.515625 
L 43.21875 34.515625 
L 43.21875 35.40625 
Q 43.21875 41.609375 39.140625 45 
Q 35.0625 48.390625 27.6875 48.390625 
Q 23 48.390625 18.546875 47.265625 
Q 14.109375 46.140625 10.015625 43.890625 
L 10.015625 52.203125 
Q 14.9375 54.109375 19.578125 55.046875 
Q 24.21875 56 28.609375 56 
Q 40.484375 56 46.34375 49.84375 
Q 52.203125 43.703125 52.203125 31.203125 
z
" id="DejaVuSans-97"/>
      <path d="M 48.6875 27.296875 
Q 48.6875 37.203125 44.609375 42.84375 
Q 40.53125 48.484375 33.40625 48.484375 
Q 26.265625 48.484375 22.1875 42.84375 
Q 18.109375 37.203125 18.109375 27.296875 
Q 18.109375 17.390625 22.1875 11.75 
Q 26.265625 6.109375 33.40625 6.109375 
Q 40.53125 6.109375 44.609375 11.75 
Q 48.6875 17.390625 48.6875 27.296875 
z
M 18.109375 46.390625 
Q 20.953125 51.265625 25.265625 53.625 
Q 29.59375 56 35.59375 56 
Q 45.5625 56 51.78125 48.09375 
Q 58.015625 40.1875 58.015625 27.296875 
Q 58.015625 14.40625 51.78125 6.484375 
Q 45.5625 -1.421875 35.59375 -1.421875 
Q 29.59375 -1.421875 25.265625 0.953125 
Q 20.953125 3.328125 18.109375 8.203125 
L 18.109375 0 
L 9.078125 0 
L 9.078125 75.984375 
L 18.109375 75.984375 
z
" id="DejaVuSans-98"/>
      <path d="M 10.6875 12.40625 
L 21 12.40625 
L 21 0 
L 10.6875 0 
z
" id="DejaVuSans-46"/>
      <path d="M 8.015625 75.875 
L 15.828125 75.875 
Q 23.140625 64.359375 26.78125 53.3125 
Q 30.421875 42.28125 30.421875 31.390625 
Q 30.421875 20.453125 26.78125 9.375 
Q 23.140625 -1.703125 15.828125 -13.1875 
L 8.015625 -13.1875 
Q 14.5 -2 17.703125 9.0625 
Q 20.90625 20.125 20.90625 31.390625 
Q 20.90625 42.671875 17.703125 53.65625 
Q 14.5 64.65625 8.015625 75.875 
z
" id="DejaVuSans-41"/>
      <path d="M 52 44.1875 
Q 55.375 50.25 60.0625 53.125 
Q 64.75 56 71.09375 56 
Q 79.640625 56 84.28125 50.015625 
Q 88.921875 44.046875 88.921875 33.015625 
L 88.921875 0 
L 79.890625 0 
L 79.890625 32.71875 
Q 79.890625 40.578125 77.09375 44.375 
Q 74.3125 48.1875 68.609375 48.1875 
Q 61.625 48.1875 57.5625 43.546875 
Q 53.515625 38.921875 53.515625 30.90625 
L 53.515625 0 
L 44.484375 0 
L 44.484375 32.71875 
Q 44.484375 40.625 41.703125 44.40625 
Q 38.921875 48.1875 33.109375 48.1875 
Q 26.21875 48.1875 22.15625 43.53125 
Q 18.109375 38.875 18.109375 30.90625 
L 18.109375 0 
L 9.078125 0 
L 9.078125 54.6875 
L 18.109375 54.6875 
L 18.109375 46.1875 
Q 21.1875 51.21875 25.484375 53.609375 
Q 29.78125 56 35.6875 56 
Q 41.65625 56 45.828125 52.96875 
Q 50 49.953125 52 44.1875 
z
" id="DejaVuSans-109"/>
      <path d="M 9.421875 75.984375 
L 18.40625 75.984375 
L 18.40625 0 
L 9.421875 0 
z
" id="DejaVuSans-108"/>
      <path d="M 45.40625 46.390625 
L 45.40625 75.984375 
L 54.390625 75.984375 
L 54.390625 0 
L 45.40625 0 
L 45.40625 8.203125 
Q 42.578125 3.328125 38.25 0.953125 
Q 33.9375 -1.421875 27.875 -1.421875 
Q 17.96875 -1.421875 11.734375 6.484375 
Q 5.515625 14.40625 5.515625 27.296875 
Q 5.515625 40.1875 11.734375 48.09375 
Q 17.96875 56 27.875 56 
Q 33.9375 56 38.25 53.625 
Q 42.578125 51.265625 45.40625 46.390625 
z
M 14.796875 27.296875 
Q 14.796875 17.390625 18.875 11.75 
Q 22.953125 6.109375 30.078125 6.109375 
Q 37.203125 6.109375 41.296875 11.75 
Q 45.40625 17.390625 45.40625 27.296875 
Q 45.40625 37.203125 41.296875 42.84375 
Q 37.203125 48.484375 30.078125 48.484375 
Q 22.953125 48.484375 18.875 42.84375 
Q 14.796875 37.203125 14.796875 27.296875 
z
" id="DejaVuSans-100"/>
      <path d="M 44.28125 53.078125 
L 44.28125 44.578125 
Q 40.484375 46.53125 36.375 47.5 
Q 32.28125 48.484375 27.875 48.484375 
Q 21.1875 48.484375 17.84375 46.4375 
Q 14.5 44.390625 14.5 40.28125 
Q 14.5 37.15625 16.890625 35.375 
Q 19.28125 33.59375 26.515625 31.984375 
L 29.59375 31.296875 
Q 39.15625 29.25 43.1875 25.515625 
Q 47.21875 21.78125 47.21875 15.09375 
Q 47.21875 7.46875 41.1875 3.015625 
Q 35.15625 -1.421875 24.609375 -1.421875 
Q 20.21875 -1.421875 15.453125 -0.5625 
Q 10.6875 0.296875 5.421875 2 
L 5.421875 11.28125 
Q 10.40625 8.6875 15.234375 7.390625 
Q 20.0625 6.109375 24.8125 6.109375 
Q 31.15625 6.109375 34.5625 8.28125 
Q 37.984375 10.453125 37.984375 14.40625 
Q 37.984375 18.0625 35.515625 20.015625 
Q 33.0625 21.96875 24.703125 23.78125 
L 21.578125 24.515625 
Q 13.234375 26.265625 9.515625 29.90625 
Q 5.8125 33.546875 5.8125 39.890625 
Q 5.8125 47.609375 11.28125 51.796875 
Q 16.75 56 26.8125 56 
Q 31.78125 56 36.171875 55.265625 
Q 40.578125 54.546875 44.28125 53.078125 
z
" id="DejaVuSans-115"/>
     </defs>
     <g transform="translate(18.398438 241.334415)rotate(-90)scale(0.1 -0.1)">
      <use xlink:href="#DejaVuSans-77"/>
      <use x="86.279297" xlink:href="#DejaVuSans-68"/>
      <use x="163.28125" xlink:href="#DejaVuSans-32"/>
      <use x="195.068359" xlink:href="#DejaVuSans-117"/>
      <use x="258.447266" xlink:href="#DejaVuSans-99"/>
      <use x="313.427734" xlink:href="#DejaVuSans-105"/>
      <use x="341.210938" xlink:href="#DejaVuSans-32"/>
      <use x="372.998047" xlink:href="#DejaVuSans-40"/>
      <use x="412.011719" xlink:href="#DejaVuSans-112"/>
      <use x="475.488281" xlink:href="#DejaVuSans-111"/>
      <use x="536.669922" xlink:href="#DejaVuSans-114"/>
      <use x="577.783203" xlink:href="#DejaVuSans-32"/>
      <use x="609.570312" xlink:href="#DejaVuSans-49"/>
      <use x="673.193359" xlink:href="#DejaVuSans-48"/>
      <use x="736.816406" xlink:href="#DejaVuSans-48"/>
      <use x="800.439453" xlink:href="#DejaVuSans-48"/>
      <use x="864.0625" xlink:href="#DejaVuSans-48"/>
      <use x="927.685547" xlink:href="#DejaVuSans-48"/>
      <use x="991.308594" xlink:href="#DejaVuSans-32"/>
      <use x="1023.095703" xlink:href="#DejaVuSans-104"/>
      <use x="1086.474609" xlink:href="#DejaVuSans-97"/>
      <use x="1147.753906" xlink:href="#DejaVuSans-98"/>
      <use x="1211.230469" xlink:href="#DejaVuSans-46"/>
      <use x="1243.017578" xlink:href="#DejaVuSans-41"/>
      <use x="1282.03125" xlink:href="#DejaVuSans-32"/>
      <use x="1313.818359" xlink:href="#DejaVuSans-97"/>
      <use x="1375.097656" xlink:href="#DejaVuSans-99"/>
      <use x="1430.078125" xlink:href="#DejaVuSans-117"/>
      <use x="1493.457031" xlink:href="#DejaVuSans-109"/>
      <use x="1590.869141" xlink:href="#DejaVuSans-117"/>
      <use x="1654.248047" xlink:href="#DejaVuSans-108"/>
      <use x="1682.03125" xlink:href="#DejaVuSans-97"/>
      <use x="1743.310547" xlink:href="#DejaVuSans-100"/>
      <use x="1806.787109" xlink:href="#DejaVuSans-111"/>
      <use x="1867.96875" xlink:href="#DejaVuSans-115"/>
     </g>
    </g>
   </g>
   <g id="line2d_12">
    <path clip-path="url(#pff4271f8ce)" d="M 62.076548 276.059879 
L 67.411898 274.337902 
L 72.747248 272.544175 
L 78.082598 270.176456 
L 83.417948 266.947748 
L 88.753298 266.947748 
L 94.088648 261.710066 
L 99.423998 261.710066 
L 104.759349 255.467898 
L 110.094699 244.633789 
L 115.430049 237.530632 
L 120.765399 231.216714 
L 126.100749 224.831047 
L 131.436099 220.02386 
L 136.771449 212.274961 
L 142.106799 204.526062 
L 147.442149 197.351155 
L 152.777499 192.256972 
L 158.112849 185.727807 
L 163.4482 179.126893 
L 168.78355 177.333166 
L 174.1189 175.108945 
L 179.45425 171.234496 
L 184.7896 171.234496 
L 190.12495 170.230009 
L 195.4603 171.808488 
L 200.79565 172.382481 
L 206.131 172.310732 
L 211.46635 171.521492 
L 216.801701 172.669477 
L 222.137051 175.826436 
L 227.472401 177.04617 
L 232.807751 179.485638 
L 238.143101 181.135867 
L 243.478451 184.292826 
L 248.813801 184.651571 
L 254.149151 186.660545 
L 259.484501 190.606743 
L 264.819851 193.333208 
L 270.155201 197.064159 
L 275.490552 201.369103 
L 280.825902 199.28838 
L 286.161252 200.149369 
L 291.496602 202.660586 
L 296.831952 206.391538 
L 302.167302 209.476747 
L 307.502652 211.772717 
L 312.838002 215.862414 
L 318.173352 217.225646 
L 323.508702 42.444925 
L 328.844052 40.364202 
L 334.179403 39.144468 
L 339.514753 37.565989 
L 344.850103 36.489753 
L 350.185453 35.628764 
L 355.520803 34.40903 
L 360.856153 33.691539 
L 366.191503 32.902299 
L 371.526853 31.252071 
L 376.862203 29.81709 
L 382.197553 29.243097 
L 387.532903 28.166861 
L 392.868254 27.305872 
L 398.203604 26.660131 
L 403.538954 25.655644 
L 408.874304 24.794655 
L 414.209654 24.148913 
L 419.545004 23.431423 
" style="fill:none;stroke:#1f77b4;stroke-linecap:square;stroke-width:1.5;"/>
    <defs>
     <path d="M 0 1.5 
C 0.397805 1.5 0.77937 1.341951 1.06066 1.06066 
C 1.341951 0.77937 1.5 0.397805 1.5 0 
C 1.5 -0.397805 1.341951 -0.77937 1.06066 -1.06066 
C 0.77937 -1.341951 0.397805 -1.5 0 -1.5 
C -0.397805 -1.5 -0.77937 -1.341951 -1.06066 -1.06066 
C -1.341951 -0.77937 -1.5 -0.397805 -1.5 0 
C -1.5 0.397805 -1.341951 0.77937 -1.06066 1.06066 
C -0.77937 1.341951 -0.397805 1.5 0 1.5 
z
" id="m8855fcab78" style="stroke:#1f77b4;"/>
    </defs>
    <g clip-path="url(#pff4271f8ce)">
     <use style="fill:#1f77b4;stroke:#1f77b4;" x="62.076548" xlink:href="#m8855fcab78" y="276.059879"/>
     <use style="fill:#1f77b4;stroke:#1f77b4;" x="67.411898" xlink:href="#m8855fcab78" y="274.337902"/>
     <use style="fill:#1f77b4;stroke:#1f77b4;" x="72.747248" xlink:href="#m8855fcab78" y="272.544175"/>
     <use style="fill:#1f77b4;stroke:#1f77b4;" x="78.082598" xlink:href="#m8855fcab78" y="270.176456"/>
     <use style="fill:#1f77b4;stroke:#1f77b4;" x="83.417948" xlink:href="#m8855fcab78" y="266.947748"/>
     <use style="fill:#1f77b4;stroke:#1f77b4;" x="88.753298" xlink:href="#m8855fcab78" y="266.947748"/>
     <use style="fill:#1f77b4;stroke:#1f77b4;" x="94.088648" xlink:href="#m8855fcab78" y="261.710066"/>
     <use style="fill:#1f77b4;stroke:#1f77b4;" x="99.423998" xlink:href="#m8855fcab78" y="261.710066"/>
     <use style="fill:#1f77b4;stroke:#1f77b4;" x="104.759349" xlink:href="#m8855fcab78" y="255.467898"/>
     <use style="fill:#1f77b4;stroke:#1f77b4;" x="110.094699" xlink:href="#m8855fcab78" y="244.633789"/>
     <use style="fill:#1f77b4;stroke:#1f77b4;" x="115.430049" xlink:href="#m8855fcab78" y="237.530632"/>
     <use style="fill:#1f77b4;stroke:#1f77b4;" x="120.765399" xlink:href="#m8855fcab78" y="231.216714"/>
     <use style="fill:#1f77b4;stroke:#1f77b4;" x="126.100749" xlink:href="#m8855fcab78" y="224.831047"/>
     <use style="fill:#1f77b4;stroke:#1f77b4;" x="131.436099" xlink:href="#m8855fcab78" y="220.02386"/>
     <use style="fill:#1f77b4;stroke:#1f77b4;" x="136.771449" xlink:href="#m8855fcab78" y="212.274961"/>
     <use style="fill:#1f77b4;stroke:#1f77b4;" x="142.106799" xlink:href="#m8855fcab78" y="204.526062"/>
     <use style="fill:#1f77b4;stroke:#1f77b4;" x="147.442149" xlink:href="#m8855fcab78" y="197.351155"/>
     <use style="fill:#1f77b4;stroke:#1f77b4;" x="152.777499" xlink:href="#m8855fcab78" y="192.256972"/>
     <use style="fill:#1f77b4;stroke:#1f77b4;" x="158.112849" xlink:href="#m8855fcab78" y="185.727807"/>
     <use style="fill:#1f77b4;stroke:#1f77b4;" x="163.4482" xlink:href="#m8855fcab78" y="179.126893"/>
     <use style="fill:#1f77b4;stroke:#1f77b4;" x="168.78355" xlink:href="#m8855fcab78" y="177.333166"/>
     <use style="fill:#1f77b4;stroke:#1f77b4;" x="174.1189" xlink:href="#m8855fcab78" y="175.108945"/>
     <use style="fill:#1f77b4;stroke:#1f77b4;" x="179.45425" xlink:href="#m8855fcab78" y="171.234496"/>
     <use style="fill:#1f77b4;stroke:#1f77b4;" x="184.7896" xlink:href="#m8855fcab78" y="171.234496"/>
     <use style="fill:#1f77b4;stroke:#1f77b4;" x="190.12495" xlink:href="#m8855fcab78" y="170.230009"/>
     <use style="fill:#1f77b4;stroke:#1f77b4;" x="195.4603" xlink:href="#m8855fcab78" y="171.808488"/>
     <use style="fill:#1f77b4;stroke:#1f77b4;" x="200.79565" xlink:href="#m8855fcab78" y="172.382481"/>
     <use style="fill:#1f77b4;stroke:#1f77b4;" x="206.131" xlink:href="#m8855fcab78" y="172.310732"/>
     <use style="fill:#1f77b4;stroke:#1f77b4;" x="211.46635" xlink:href="#m8855fcab78" y="171.521492"/>
     <use style="fill:#1f77b4;stroke:#1f77b4;" x="216.801701" xlink:href="#m8855fcab78" y="172.669477"/>
     <use style="fill:#1f77b4;stroke:#1f77b4;" x="222.137051" xlink:href="#m8855fcab78" y="175.826436"/>
     <use style="fill:#1f77b4;stroke:#1f77b4;" x="227.472401" xlink:href="#m8855fcab78" y="177.04617"/>
     <use style="fill:#1f77b4;stroke:#1f77b4;" x="232.807751" xlink:href="#m8855fcab78" y="179.485638"/>
     <use style="fill:#1f77b4;stroke:#1f77b4;" x="238.143101" xlink:href="#m8855fcab78" y="181.135867"/>
     <use style="fill:#1f77b4;stroke:#1f77b4;" x="243.478451" xlink:href="#m8855fcab78" y="184.292826"/>
     <use style="fill:#1f77b4;stroke:#1f77b4;" x="248.813801" xlink:href="#m8855fcab78" y="184.651571"/>
     <use style="fill:#1f77b4;stroke:#1f77b4;" x="254.149151" xlink:href="#m8855fcab78" y="186.660545"/>
     <use style="fill:#1f77b4;stroke:#1f77b4;" x="259.484501" xlink:href="#m8855fcab78" y="190.606743"/>
     <use style="fill:#1f77b4;stroke:#1f77b4;" x="264.819851" xlink:href="#m8855fcab78" y="193.333208"/>
     <use style="fill:#1f77b4;stroke:#1f77b4;" x="270.155201" xlink:href="#m8855fcab78" y="197.064159"/>
     <use style="fill:#1f77b4;stroke:#1f77b4;" x="275.490552" xlink:href="#m8855fcab78" y="201.369103"/>
     <use style="fill:#1f77b4;stroke:#1f77b4;" x="280.825902" xlink:href="#m8855fcab78" y="199.28838"/>
     <use style="fill:#1f77b4;stroke:#1f77b4;" x="286.161252" xlink:href="#m8855fcab78" y="200.149369"/>
     <use style="fill:#1f77b4;stroke:#1f77b4;" x="291.496602" xlink:href="#m8855fcab78" y="202.660586"/>
     <use style="fill:#1f77b4;stroke:#1f77b4;" x="296.831952" xlink:href="#m8855fcab78" y="206.391538"/>
     <use style="fill:#1f77b4;stroke:#1f77b4;" x="302.167302" xlink:href="#m8855fcab78" y="209.476747"/>
     <use style="fill:#1f77b4;stroke:#1f77b4;" x="307.502652" xlink:href="#m8855fcab78" y="211.772717"/>
     <use style="fill:#1f77b4;stroke:#1f77b4;" x="312.838002" xlink:href="#m8855fcab78" y="215.862414"/>
     <use style="fill:#1f77b4;stroke:#1f77b4;" x="318.173352" xlink:href="#m8855fcab78" y="217.225646"/>
     <use style="fill:#1f77b4;stroke:#1f77b4;" x="323.508702" xlink:href="#m8855fcab78" y="42.444925"/>
     <use style="fill:#1f77b4;stroke:#1f77b4;" x="328.844052" xlink:href="#m8855fcab78" y="40.364202"/>
     <use style="fill:#1f77b4;stroke:#1f77b4;" x="334.179403" xlink:href="#m8855fcab78" y="39.144468"/>
     <use style="fill:#1f77b4;stroke:#1f77b4;" x="339.514753" xlink:href="#m8855fcab78" y="37.565989"/>
     <use style="fill:#1f77b4;stroke:#1f77b4;" x="344.850103" xlink:href="#m8855fcab78" y="36.489753"/>
     <use style="fill:#1f77b4;stroke:#1f77b4;" x="350.185453" xlink:href="#m8855fcab78" y="35.628764"/>
     <use style="fill:#1f77b4;stroke:#1f77b4;" x="355.520803" xlink:href="#m8855fcab78" y="34.40903"/>
     <use style="fill:#1f77b4;stroke:#1f77b4;" x="360.856153" xlink:href="#m8855fcab78" y="33.691539"/>
     <use style="fill:#1f77b4;stroke:#1f77b4;" x="366.191503" xlink:href="#m8855fcab78" y="32.902299"/>
     <use style="fill:#1f77b4;stroke:#1f77b4;" x="371.526853" xlink:href="#m8855fcab78" y="31.252071"/>
     <use style="fill:#1f77b4;stroke:#1f77b4;" x="376.862203" xlink:href="#m8855fcab78" y="29.81709"/>
     <use style="fill:#1f77b4;stroke:#1f77b4;" x="382.197553" xlink:href="#m8855fcab78" y="29.243097"/>
     <use style="fill:#1f77b4;stroke:#1f77b4;" x="387.532903" xlink:href="#m8855fcab78" y="28.166861"/>
     <use style="fill:#1f77b4;stroke:#1f77b4;" x="392.868254" xlink:href="#m8855fcab78" y="27.305872"/>
     <use style="fill:#1f77b4;stroke:#1f77b4;" x="398.203604" xlink:href="#m8855fcab78" y="26.660131"/>
     <use style="fill:#1f77b4;stroke:#1f77b4;" x="403.538954" xlink:href="#m8855fcab78" y="25.655644"/>
     <use style="fill:#1f77b4;stroke:#1f77b4;" x="408.874304" xlink:href="#m8855fcab78" y="24.794655"/>
     <use style="fill:#1f77b4;stroke:#1f77b4;" x="414.209654" xlink:href="#m8855fcab78" y="24.148913"/>
     <use style="fill:#1f77b4;stroke:#1f77b4;" x="419.545004" xlink:href="#m8855fcab78" y="23.431423"/>
    </g>
   </g>
   <g id="patch_3">
    <path d="M 44.203125 279.86258 
L 44.203125 10.8 
" style="fill:none;stroke:#000000;stroke-linecap:square;stroke-linejoin:miter;stroke-width:0.8;"/>
   </g>
   <g id="patch_4">
    <path d="M 437.418427 279.86258 
L 437.418427 10.8 
" style="fill:none;stroke:#000000;stroke-linecap:square;stroke-linejoin:miter;stroke-width:0.8;"/>
   </g>
   <g id="patch_5">
    <path d="M 44.203125 279.86258 
L 437.418427 279.86258 
" style="fill:none;stroke:#000000;stroke-linecap:square;stroke-linejoin:miter;stroke-width:0.8;"/>
   </g>
   <g id="patch_6">
    <path d="M 44.203125 10.8 
L 437.418427 10.8 
" style="fill:none;stroke:#000000;stroke-linecap:square;stroke-linejoin:miter;stroke-width:0.8;"/>
   </g>
  </g>
 </g>
 <defs>
  <clipPath id="pff4271f8ce">
   <rect height="269.06258" width="393.215302" x="44.203125" y="10.8"/>
  </clipPath>
 </defs>
</svg>
