<?xml version="1.0" encoding="utf-8" standalone="no"?>
<!DOCTYPE svg PUBLIC "-//W3C//DTD SVG 1.1//EN"
  "http://www.w3.org/Graphics/SVG/1.1/DTD/svg11.dtd">
<!-- Created with matplotlib (https://matplotlib.org/) -->
<svg height="345.6pt" version="1.1" viewBox="0 0 460.8 345.6" width="460.8pt" xmlns="http://www.w3.org/2000/svg" xmlns:xlink="http://www.w3.org/1999/xlink">
 <defs>
  <style type="text/css">
*{stroke-linecap:butt;stroke-linejoin:round;}
  </style>
 </defs>
 <g id="figure_1">
  <g id="patch_1">
   <path d="M 0 345.6 
L 460.8 345.6 
L 460.8 0 
L 0 0 
z
" style="fill:#ffffff;"/>
  </g>
  <g id="axes_1">
   <g id="patch_2">
    <path d="M 54.14375 279.86258 
L 450 279.86258 
L 450 10.8 
L 54.14375 10.8 
z
" style="fill:#ffffff;"/>
   </g>
   <g id="matplotlib.axis_1">
    <g id="xtick_1">
     <g id="line2d_1">
      <defs>
       <path d="M 0 0 
L 0 3.5 
" id="ma1ee965ef7" style="stroke:#000000;stroke-width:0.8;"/>
      </defs>
      <g>
       <use style="stroke:#000000;stroke-width:0.8;" x="104.43318" xlink:href="#ma1ee965ef7" y="279.86258"/>
      </g>
     </g>
     <g id="text_1">
      <!-- 2020-03-01 -->
      <defs>
       <path d="M 19.1875 8.296875 
L 53.609375 8.296875 
L 53.609375 0 
L 7.328125 0 
L 7.328125 8.296875 
Q 12.9375 14.109375 22.625 23.890625 
Q 32.328125 33.6875 34.8125 36.53125 
Q 39.546875 41.84375 41.421875 45.53125 
Q 43.3125 49.21875 43.3125 52.78125 
Q 43.3125 58.59375 39.234375 62.25 
Q 35.15625 65.921875 28.609375 65.921875 
Q 23.96875 65.921875 18.8125 64.3125 
Q 13.671875 62.703125 7.8125 59.421875 
L 7.8125 69.390625 
Q 13.765625 71.78125 18.9375 73 
Q 24.125 74.21875 28.421875 74.21875 
Q 39.75 74.21875 46.484375 68.546875 
Q 53.21875 62.890625 53.21875 53.421875 
Q 53.21875 48.921875 51.53125 44.890625 
Q 49.859375 40.875 45.40625 35.40625 
Q 44.1875 33.984375 37.640625 27.21875 
Q 31.109375 20.453125 19.1875 8.296875 
z
" id="DejaVuSans-50"/>
       <path d="M 31.78125 66.40625 
Q 24.171875 66.40625 20.328125 58.90625 
Q 16.5 51.421875 16.5 36.375 
Q 16.5 21.390625 20.328125 13.890625 
Q 24.171875 6.390625 31.78125 6.390625 
Q 39.453125 6.390625 43.28125 13.890625 
Q 47.125 21.390625 47.125 36.375 
Q 47.125 51.421875 43.28125 58.90625 
Q 39.453125 66.40625 31.78125 66.40625 
z
M 31.78125 74.21875 
Q 44.046875 74.21875 50.515625 64.515625 
Q 56.984375 54.828125 56.984375 36.375 
Q 56.984375 17.96875 50.515625 8.265625 
Q 44.046875 -1.421875 31.78125 -1.421875 
Q 19.53125 -1.421875 13.0625 8.265625 
Q 6.59375 17.96875 6.59375 36.375 
Q 6.59375 54.828125 13.0625 64.515625 
Q 19.53125 74.21875 31.78125 74.21875 
z
" id="DejaVuSans-48"/>
       <path d="M 4.890625 31.390625 
L 31.203125 31.390625 
L 31.203125 23.390625 
L 4.890625 23.390625 
z
" id="DejaVuSans-45"/>
       <path d="M 40.578125 39.3125 
Q 47.65625 37.796875 51.625 33 
Q 55.609375 28.21875 55.609375 21.1875 
Q 55.609375 10.40625 48.1875 4.484375 
Q 40.765625 -1.421875 27.09375 -1.421875 
Q 22.515625 -1.421875 17.65625 -0.515625 
Q 12.796875 0.390625 7.625 2.203125 
L 7.625 11.71875 
Q 11.71875 9.328125 16.59375 8.109375 
Q 21.484375 6.890625 26.8125 6.890625 
Q 36.078125 6.890625 40.9375 10.546875 
Q 45.796875 14.203125 45.796875 21.1875 
Q 45.796875 27.640625 41.28125 31.265625 
Q 36.765625 34.90625 28.71875 34.90625 
L 20.21875 34.90625 
L 20.21875 43.015625 
L 29.109375 43.015625 
Q 36.375 43.015625 40.234375 45.921875 
Q 44.09375 48.828125 44.09375 54.296875 
Q 44.09375 59.90625 40.109375 62.90625 
Q 36.140625 65.921875 28.71875 65.921875 
Q 24.65625 65.921875 20.015625 65.03125 
Q 15.375 64.15625 9.8125 62.3125 
L 9.8125 71.09375 
Q 15.4375 72.65625 20.34375 73.4375 
Q 25.25 74.21875 29.59375 74.21875 
Q 40.828125 74.21875 47.359375 69.109375 
Q 53.90625 64.015625 53.90625 55.328125 
Q 53.90625 49.265625 50.4375 45.09375 
Q 46.96875 40.921875 40.578125 39.3125 
z
" id="DejaVuSans-51"/>
       <path d="M 12.40625 8.296875 
L 28.515625 8.296875 
L 28.515625 63.921875 
L 10.984375 60.40625 
L 10.984375 69.390625 
L 28.421875 72.90625 
L 38.28125 72.90625 
L 38.28125 8.296875 
L 54.390625 8.296875 
L 54.390625 0 
L 12.40625 0 
z
" id="DejaVuSans-49"/>
      </defs>
      <g transform="translate(85.837377 333.329439)rotate(-45)scale(0.1 -0.1)">
       <use xlink:href="#DejaVuSans-50"/>
       <use x="63.623047" xlink:href="#DejaVuSans-48"/>
       <use x="127.246094" xlink:href="#DejaVuSans-50"/>
       <use x="190.869141" xlink:href="#DejaVuSans-48"/>
       <use x="254.492188" xlink:href="#DejaVuSans-45"/>
       <use x="290.576172" xlink:href="#DejaVuSans-48"/>
       <use x="354.199219" xlink:href="#DejaVuSans-51"/>
       <use x="417.822266" xlink:href="#DejaVuSans-45"/>
       <use x="453.90625" xlink:href="#DejaVuSans-48"/>
       <use x="517.529297" xlink:href="#DejaVuSans-49"/>
      </g>
     </g>
    </g>
    <g id="xtick_2">
     <g id="line2d_2">
      <g>
       <use style="stroke:#000000;stroke-width:0.8;" x="169.025109" xlink:href="#ma1ee965ef7" y="279.86258"/>
      </g>
     </g>
     <g id="text_2">
      <!-- 2020-03-15 -->
      <defs>
       <path d="M 10.796875 72.90625 
L 49.515625 72.90625 
L 49.515625 64.59375 
L 19.828125 64.59375 
L 19.828125 46.734375 
Q 21.96875 47.46875 24.109375 47.828125 
Q 26.265625 48.1875 28.421875 48.1875 
Q 40.625 48.1875 47.75 41.5 
Q 54.890625 34.8125 54.890625 23.390625 
Q 54.890625 11.625 47.5625 5.09375 
Q 40.234375 -1.421875 26.90625 -1.421875 
Q 22.3125 -1.421875 17.546875 -0.640625 
Q 12.796875 0.140625 7.71875 1.703125 
L 7.71875 11.625 
Q 12.109375 9.234375 16.796875 8.0625 
Q 21.484375 6.890625 26.703125 6.890625 
Q 35.15625 6.890625 40.078125 11.328125 
Q 45.015625 15.765625 45.015625 23.390625 
Q 45.015625 31 40.078125 35.4375 
Q 35.15625 39.890625 26.703125 39.890625 
Q 22.75 39.890625 18.8125 39.015625 
Q 14.890625 38.140625 10.796875 36.28125 
z
" id="DejaVuSans-53"/>
      </defs>
      <g transform="translate(150.429306 333.329439)rotate(-45)scale(0.1 -0.1)">
       <use xlink:href="#DejaVuSans-50"/>
       <use x="63.623047" xlink:href="#DejaVuSans-48"/>
       <use x="127.246094" xlink:href="#DejaVuSans-50"/>
       <use x="190.869141" xlink:href="#DejaVuSans-48"/>
       <use x="254.492188" xlink:href="#DejaVuSans-45"/>
       <use x="290.576172" xlink:href="#DejaVuSans-48"/>
       <use x="354.199219" xlink:href="#DejaVuSans-51"/>
       <use x="417.822266" xlink:href="#DejaVuSans-45"/>
       <use x="453.90625" xlink:href="#DejaVuSans-49"/>
       <use x="517.529297" xlink:href="#DejaVuSans-53"/>
      </g>
     </g>
    </g>
    <g id="xtick_3">
     <g id="line2d_3">
      <g>
       <use style="stroke:#000000;stroke-width:0.8;" x="247.458166" xlink:href="#ma1ee965ef7" y="279.86258"/>
      </g>
     </g>
     <g id="text_3">
      <!-- 2020-04-01 -->
      <defs>
       <path d="M 37.796875 64.3125 
L 12.890625 25.390625 
L 37.796875 25.390625 
z
M 35.203125 72.90625 
L 47.609375 72.90625 
L 47.609375 25.390625 
L 58.015625 25.390625 
L 58.015625 17.1875 
L 47.609375 17.1875 
L 47.609375 0 
L 37.796875 0 
L 37.796875 17.1875 
L 4.890625 17.1875 
L 4.890625 26.703125 
z
" id="DejaVuSans-52"/>
      </defs>
      <g transform="translate(228.862362 333.329439)rotate(-45)scale(0.1 -0.1)">
       <use xlink:href="#DejaVuSans-50"/>
       <use x="63.623047" xlink:href="#DejaVuSans-48"/>
       <use x="127.246094" xlink:href="#DejaVuSans-50"/>
       <use x="190.869141" xlink:href="#DejaVuSans-48"/>
       <use x="254.492188" xlink:href="#DejaVuSans-45"/>
       <use x="290.576172" xlink:href="#DejaVuSans-48"/>
       <use x="354.199219" xlink:href="#DejaVuSans-52"/>
       <use x="417.822266" xlink:href="#DejaVuSans-45"/>
       <use x="453.90625" xlink:href="#DejaVuSans-48"/>
       <use x="517.529297" xlink:href="#DejaVuSans-49"/>
      </g>
     </g>
    </g>
    <g id="xtick_4">
     <g id="line2d_4">
      <g>
       <use style="stroke:#000000;stroke-width:0.8;" x="312.050095" xlink:href="#ma1ee965ef7" y="279.86258"/>
      </g>
     </g>
     <g id="text_4">
      <!-- 2020-04-15 -->
      <g transform="translate(293.454291 333.329439)rotate(-45)scale(0.1 -0.1)">
       <use xlink:href="#DejaVuSans-50"/>
       <use x="63.623047" xlink:href="#DejaVuSans-48"/>
       <use x="127.246094" xlink:href="#DejaVuSans-50"/>
       <use x="190.869141" xlink:href="#DejaVuSans-48"/>
       <use x="254.492188" xlink:href="#DejaVuSans-45"/>
       <use x="290.576172" xlink:href="#DejaVuSans-48"/>
       <use x="354.199219" xlink:href="#DejaVuSans-52"/>
       <use x="417.822266" xlink:href="#DejaVuSans-45"/>
       <use x="453.90625" xlink:href="#DejaVuSans-49"/>
       <use x="517.529297" xlink:href="#DejaVuSans-53"/>
      </g>
     </g>
    </g>
    <g id="xtick_5">
     <g id="line2d_5">
      <g>
       <use style="stroke:#000000;stroke-width:0.8;" x="385.869442" xlink:href="#ma1ee965ef7" y="279.86258"/>
      </g>
     </g>
     <g id="text_5">
      <!-- 2020-05-01 -->
      <g transform="translate(367.273639 333.329439)rotate(-45)scale(0.1 -0.1)">
       <use xlink:href="#DejaVuSans-50"/>
       <use x="63.623047" xlink:href="#DejaVuSans-48"/>
       <use x="127.246094" xlink:href="#DejaVuSans-50"/>
       <use x="190.869141" xlink:href="#DejaVuSans-48"/>
       <use x="254.492188" xlink:href="#DejaVuSans-45"/>
       <use x="290.576172" xlink:href="#DejaVuSans-48"/>
       <use x="354.199219" xlink:href="#DejaVuSans-53"/>
       <use x="417.822266" xlink:href="#DejaVuSans-45"/>
       <use x="453.90625" xlink:href="#DejaVuSans-48"/>
       <use x="517.529297" xlink:href="#DejaVuSans-49"/>
      </g>
     </g>
    </g>
   </g>
   <g id="matplotlib.axis_2">
    <g id="ytick_1">
     <g id="line2d_6">
      <defs>
       <path d="M 0 0 
L -3.5 0 
" id="m28203bbf80" style="stroke:#000000;stroke-width:0.8;"/>
      </defs>
      <g>
       <use style="stroke:#000000;stroke-width:0.8;" x="54.14375" xlink:href="#m28203bbf80" y="279.86258"/>
      </g>
     </g>
     <g id="text_6">
      <!-- 0.0 -->
      <defs>
       <path d="M 10.6875 12.40625 
L 21 12.40625 
L 21 0 
L 10.6875 0 
z
" id="DejaVuSans-46"/>
      </defs>
      <g transform="translate(31.240625 283.661798)scale(0.1 -0.1)">
       <use xlink:href="#DejaVuSans-48"/>
       <use x="63.623047" xlink:href="#DejaVuSans-46"/>
       <use x="95.410156" xlink:href="#DejaVuSans-48"/>
      </g>
     </g>
    </g>
    <g id="ytick_2">
     <g id="line2d_7">
      <g>
       <use style="stroke:#000000;stroke-width:0.8;" x="54.14375" xlink:href="#m28203bbf80" y="248.759806"/>
      </g>
     </g>
     <g id="text_7">
      <!-- 2.5 -->
      <g transform="translate(31.240625 252.559025)scale(0.1 -0.1)">
       <use xlink:href="#DejaVuSans-50"/>
       <use x="63.623047" xlink:href="#DejaVuSans-46"/>
       <use x="95.410156" xlink:href="#DejaVuSans-53"/>
      </g>
     </g>
    </g>
    <g id="ytick_3">
     <g id="line2d_8">
      <g>
       <use style="stroke:#000000;stroke-width:0.8;" x="54.14375" xlink:href="#m28203bbf80" y="217.657032"/>
      </g>
     </g>
     <g id="text_8">
      <!-- 5.0 -->
      <g transform="translate(31.240625 221.456251)scale(0.1 -0.1)">
       <use xlink:href="#DejaVuSans-53"/>
       <use x="63.623047" xlink:href="#DejaVuSans-46"/>
       <use x="95.410156" xlink:href="#DejaVuSans-48"/>
      </g>
     </g>
    </g>
    <g id="ytick_4">
     <g id="line2d_9">
      <g>
       <use style="stroke:#000000;stroke-width:0.8;" x="54.14375" xlink:href="#m28203bbf80" y="186.554258"/>
      </g>
     </g>
     <g id="text_9">
      <!-- 7.5 -->
      <defs>
       <path d="M 8.203125 72.90625 
L 55.078125 72.90625 
L 55.078125 68.703125 
L 28.609375 0 
L 18.3125 0 
L 43.21875 64.59375 
L 8.203125 64.59375 
z
" id="DejaVuSans-55"/>
      </defs>
      <g transform="translate(31.240625 190.353477)scale(0.1 -0.1)">
       <use xlink:href="#DejaVuSans-55"/>
       <use x="63.623047" xlink:href="#DejaVuSans-46"/>
       <use x="95.410156" xlink:href="#DejaVuSans-53"/>
      </g>
     </g>
    </g>
    <g id="ytick_5">
     <g id="line2d_10">
      <g>
       <use style="stroke:#000000;stroke-width:0.8;" x="54.14375" xlink:href="#m28203bbf80" y="155.451484"/>
      </g>
     </g>
     <g id="text_10">
      <!-- 10.0 -->
      <g transform="translate(24.878125 159.250703)scale(0.1 -0.1)">
       <use xlink:href="#DejaVuSans-49"/>
       <use x="63.623047" xlink:href="#DejaVuSans-48"/>
       <use x="127.246094" xlink:href="#DejaVuSans-46"/>
       <use x="159.033203" xlink:href="#DejaVuSans-48"/>
      </g>
     </g>
    </g>
    <g id="ytick_6">
     <g id="line2d_11">
      <g>
       <use style="stroke:#000000;stroke-width:0.8;" x="54.14375" xlink:href="#m28203bbf80" y="124.348711"/>
      </g>
     </g>
     <g id="text_11">
      <!-- 12.5 -->
      <g transform="translate(24.878125 128.147929)scale(0.1 -0.1)">
       <use xlink:href="#DejaVuSans-49"/>
       <use x="63.623047" xlink:href="#DejaVuSans-50"/>
       <use x="127.246094" xlink:href="#DejaVuSans-46"/>
       <use x="159.033203" xlink:href="#DejaVuSans-53"/>
      </g>
     </g>
    </g>
    <g id="ytick_7">
     <g id="line2d_12">
      <g>
       <use style="stroke:#000000;stroke-width:0.8;" x="54.14375" xlink:href="#m28203bbf80" y="93.245937"/>
      </g>
     </g>
     <g id="text_12">
      <!-- 15.0 -->
      <g transform="translate(24.878125 97.045156)scale(0.1 -0.1)">
       <use xlink:href="#DejaVuSans-49"/>
       <use x="63.623047" xlink:href="#DejaVuSans-53"/>
       <use x="127.246094" xlink:href="#DejaVuSans-46"/>
       <use x="159.033203" xlink:href="#DejaVuSans-48"/>
      </g>
     </g>
    </g>
    <g id="ytick_8">
     <g id="line2d_13">
      <g>
       <use style="stroke:#000000;stroke-width:0.8;" x="54.14375" xlink:href="#m28203bbf80" y="62.143163"/>
      </g>
     </g>
     <g id="text_13">
      <!-- 17.5 -->
      <g transform="translate(24.878125 65.942382)scale(0.1 -0.1)">
       <use xlink:href="#DejaVuSans-49"/>
       <use x="63.623047" xlink:href="#DejaVuSans-55"/>
       <use x="127.246094" xlink:href="#DejaVuSans-46"/>
       <use x="159.033203" xlink:href="#DejaVuSans-53"/>
      </g>
     </g>
    </g>
    <g id="ytick_9">
     <g id="line2d_14">
      <g>
       <use style="stroke:#000000;stroke-width:0.8;" x="54.14375" xlink:href="#m28203bbf80" y="31.040389"/>
      </g>
     </g>
     <g id="text_14">
      <!-- 20.0 -->
      <g transform="translate(24.878125 34.839608)scale(0.1 -0.1)">
       <use xlink:href="#DejaVuSans-50"/>
       <use x="63.623047" xlink:href="#DejaVuSans-48"/>
       <use x="127.246094" xlink:href="#DejaVuSans-46"/>
       <use x="159.033203" xlink:href="#DejaVuSans-48"/>
      </g>
     </g>
    </g>
    <g id="text_15">
     <!-- EX pcr (por 100000 hab.) (Media 3 días) -->
     <defs>
      <path d="M 9.8125 72.90625 
L 55.90625 72.90625 
L 55.90625 64.59375 
L 19.671875 64.59375 
L 19.671875 43.015625 
L 54.390625 43.015625 
L 54.390625 34.71875 
L 19.671875 34.71875 
L 19.671875 8.296875 
L 56.78125 8.296875 
L 56.78125 0 
L 9.8125 0 
z
" id="DejaVuSans-69"/>
      <path d="M 6.296875 72.90625 
L 16.890625 72.90625 
L 35.015625 45.796875 
L 53.21875 72.90625 
L 63.8125 72.90625 
L 40.375 37.890625 
L 65.375 0 
L 54.78125 0 
L 34.28125 31 
L 13.625 0 
L 2.984375 0 
L 29 38.921875 
z
" id="DejaVuSans-88"/>
      <path id="DejaVuSans-32"/>
      <path d="M 18.109375 8.203125 
L 18.109375 -20.796875 
L 9.078125 -20.796875 
L 9.078125 54.6875 
L 18.109375 54.6875 
L 18.109375 46.390625 
Q 20.953125 51.265625 25.265625 53.625 
Q 29.59375 56 35.59375 56 
Q 45.5625 56 51.78125 48.09375 
Q 58.015625 40.1875 58.015625 27.296875 
Q 58.015625 14.40625 51.78125 6.484375 
Q 45.5625 -1.421875 35.59375 -1.421875 
Q 29.59375 -1.421875 25.265625 0.953125 
Q 20.953125 3.328125 18.109375 8.203125 
z
M 48.6875 27.296875 
Q 48.6875 37.203125 44.609375 42.84375 
Q 40.53125 48.484375 33.40625 48.484375 
Q 26.265625 48.484375 22.1875 42.84375 
Q 18.109375 37.203125 18.109375 27.296875 
Q 18.109375 17.390625 22.1875 11.75 
Q 26.265625 6.109375 33.40625 6.109375 
Q 40.53125 6.109375 44.609375 11.75 
Q 48.6875 17.390625 48.6875 27.296875 
z
" id="DejaVuSans-112"/>
      <path d="M 48.78125 52.59375 
L 48.78125 44.1875 
Q 44.96875 46.296875 41.140625 47.34375 
Q 37.3125 48.390625 33.40625 48.390625 
Q 24.65625 48.390625 19.8125 42.84375 
Q 14.984375 37.3125 14.984375 27.296875 
Q 14.984375 17.28125 19.8125 11.734375 
Q 24.65625 6.203125 33.40625 6.203125 
Q 37.3125 6.203125 41.140625 7.25 
Q 44.96875 8.296875 48.78125 10.40625 
L 48.78125 2.09375 
Q 45.015625 0.34375 40.984375 -0.53125 
Q 36.96875 -1.421875 32.421875 -1.421875 
Q 20.0625 -1.421875 12.78125 6.34375 
Q 5.515625 14.109375 5.515625 27.296875 
Q 5.515625 40.671875 12.859375 48.328125 
Q 20.21875 56 33.015625 56 
Q 37.15625 56 41.109375 55.140625 
Q 45.0625 54.296875 48.78125 52.59375 
z
" id="DejaVuSans-99"/>
      <path d="M 41.109375 46.296875 
Q 39.59375 47.171875 37.8125 47.578125 
Q 36.03125 48 33.890625 48 
Q 26.265625 48 22.1875 43.046875 
Q 18.109375 38.09375 18.109375 28.8125 
L 18.109375 0 
L 9.078125 0 
L 9.078125 54.6875 
L 18.109375 54.6875 
L 18.109375 46.1875 
Q 20.953125 51.171875 25.484375 53.578125 
Q 30.03125 56 36.53125 56 
Q 37.453125 56 38.578125 55.875 
Q 39.703125 55.765625 41.0625 55.515625 
z
" id="DejaVuSans-114"/>
      <path d="M 31 75.875 
Q 24.46875 64.65625 21.28125 53.65625 
Q 18.109375 42.671875 18.109375 31.390625 
Q 18.109375 20.125 21.3125 9.0625 
Q 24.515625 -2 31 -13.1875 
L 23.1875 -13.1875 
Q 15.875 -1.703125 12.234375 9.375 
Q 8.59375 20.453125 8.59375 31.390625 
Q 8.59375 42.28125 12.203125 53.3125 
Q 15.828125 64.359375 23.1875 75.875 
z
" id="DejaVuSans-40"/>
      <path d="M 30.609375 48.390625 
Q 23.390625 48.390625 19.1875 42.75 
Q 14.984375 37.109375 14.984375 27.296875 
Q 14.984375 17.484375 19.15625 11.84375 
Q 23.34375 6.203125 30.609375 6.203125 
Q 37.796875 6.203125 41.984375 11.859375 
Q 46.1875 17.53125 46.1875 27.296875 
Q 46.1875 37.015625 41.984375 42.703125 
Q 37.796875 48.390625 30.609375 48.390625 
z
M 30.609375 56 
Q 42.328125 56 49.015625 48.375 
Q 55.71875 40.765625 55.71875 27.296875 
Q 55.71875 13.875 49.015625 6.21875 
Q 42.328125 -1.421875 30.609375 -1.421875 
Q 18.84375 -1.421875 12.171875 6.21875 
Q 5.515625 13.875 5.515625 27.296875 
Q 5.515625 40.765625 12.171875 48.375 
Q 18.84375 56 30.609375 56 
z
" id="DejaVuSans-111"/>
      <path d="M 54.890625 33.015625 
L 54.890625 0 
L 45.90625 0 
L 45.90625 32.71875 
Q 45.90625 40.484375 42.875 44.328125 
Q 39.84375 48.1875 33.796875 48.1875 
Q 26.515625 48.1875 22.3125 43.546875 
Q 18.109375 38.921875 18.109375 30.90625 
L 18.109375 0 
L 9.078125 0 
L 9.078125 75.984375 
L 18.109375 75.984375 
L 18.109375 46.1875 
Q 21.34375 51.125 25.703125 53.5625 
Q 30.078125 56 35.796875 56 
Q 45.21875 56 50.046875 50.171875 
Q 54.890625 44.34375 54.890625 33.015625 
z
" id="DejaVuSans-104"/>
      <path d="M 34.28125 27.484375 
Q 23.390625 27.484375 19.1875 25 
Q 14.984375 22.515625 14.984375 16.5 
Q 14.984375 11.71875 18.140625 8.90625 
Q 21.296875 6.109375 26.703125 6.109375 
Q 34.1875 6.109375 38.703125 11.40625 
Q 43.21875 16.703125 43.21875 25.484375 
L 43.21875 27.484375 
z
M 52.203125 31.203125 
L 52.203125 0 
L 43.21875 0 
L 43.21875 8.296875 
Q 40.140625 3.328125 35.546875 0.953125 
Q 30.953125 -1.421875 24.3125 -1.421875 
Q 15.921875 -1.421875 10.953125 3.296875 
Q 6 8.015625 6 15.921875 
Q 6 25.140625 12.171875 29.828125 
Q 18.359375 34.515625 30.609375 34.515625 
L 43.21875 34.515625 
L 43.21875 35.40625 
Q 43.21875 41.609375 39.140625 45 
Q 35.0625 48.390625 27.6875 48.390625 
Q 23 48.390625 18.546875 47.265625 
Q 14.109375 46.140625 10.015625 43.890625 
L 10.015625 52.203125 
Q 14.9375 54.109375 19.578125 55.046875 
Q 24.21875 56 28.609375 56 
Q 40.484375 56 46.34375 49.84375 
Q 52.203125 43.703125 52.203125 31.203125 
z
" id="DejaVuSans-97"/>
      <path d="M 48.6875 27.296875 
Q 48.6875 37.203125 44.609375 42.84375 
Q 40.53125 48.484375 33.40625 48.484375 
Q 26.265625 48.484375 22.1875 42.84375 
Q 18.109375 37.203125 18.109375 27.296875 
Q 18.109375 17.390625 22.1875 11.75 
Q 26.265625 6.109375 33.40625 6.109375 
Q 40.53125 6.109375 44.609375 11.75 
Q 48.6875 17.390625 48.6875 27.296875 
z
M 18.109375 46.390625 
Q 20.953125 51.265625 25.265625 53.625 
Q 29.59375 56 35.59375 56 
Q 45.5625 56 51.78125 48.09375 
Q 58.015625 40.1875 58.015625 27.296875 
Q 58.015625 14.40625 51.78125 6.484375 
Q 45.5625 -1.421875 35.59375 -1.421875 
Q 29.59375 -1.421875 25.265625 0.953125 
Q 20.953125 3.328125 18.109375 8.203125 
L 18.109375 0 
L 9.078125 0 
L 9.078125 75.984375 
L 18.109375 75.984375 
z
" id="DejaVuSans-98"/>
      <path d="M 8.015625 75.875 
L 15.828125 75.875 
Q 23.140625 64.359375 26.78125 53.3125 
Q 30.421875 42.28125 30.421875 31.390625 
Q 30.421875 20.453125 26.78125 9.375 
Q 23.140625 -1.703125 15.828125 -13.1875 
L 8.015625 -13.1875 
Q 14.5 -2 17.703125 9.0625 
Q 20.90625 20.125 20.90625 31.390625 
Q 20.90625 42.671875 17.703125 53.65625 
Q 14.5 64.65625 8.015625 75.875 
z
" id="DejaVuSans-41"/>
      <path d="M 9.8125 72.90625 
L 24.515625 72.90625 
L 43.109375 23.296875 
L 61.8125 72.90625 
L 76.515625 72.90625 
L 76.515625 0 
L 66.890625 0 
L 66.890625 64.015625 
L 48.09375 14.015625 
L 38.1875 14.015625 
L 19.390625 64.015625 
L 19.390625 0 
L 9.8125 0 
z
" id="DejaVuSans-77"/>
      <path d="M 56.203125 29.59375 
L 56.203125 25.203125 
L 14.890625 25.203125 
Q 15.484375 15.921875 20.484375 11.0625 
Q 25.484375 6.203125 34.421875 6.203125 
Q 39.59375 6.203125 44.453125 7.46875 
Q 49.3125 8.734375 54.109375 11.28125 
L 54.109375 2.78125 
Q 49.265625 0.734375 44.1875 -0.34375 
Q 39.109375 -1.421875 33.890625 -1.421875 
Q 20.796875 -1.421875 13.15625 6.1875 
Q 5.515625 13.8125 5.515625 26.8125 
Q 5.515625 40.234375 12.765625 48.109375 
Q 20.015625 56 32.328125 56 
Q 43.359375 56 49.78125 48.890625 
Q 56.203125 41.796875 56.203125 29.59375 
z
M 47.21875 32.234375 
Q 47.125 39.59375 43.09375 43.984375 
Q 39.0625 48.390625 32.421875 48.390625 
Q 24.90625 48.390625 20.390625 44.140625 
Q 15.875 39.890625 15.1875 32.171875 
z
" id="DejaVuSans-101"/>
      <path d="M 45.40625 46.390625 
L 45.40625 75.984375 
L 54.390625 75.984375 
L 54.390625 0 
L 45.40625 0 
L 45.40625 8.203125 
Q 42.578125 3.328125 38.25 0.953125 
Q 33.9375 -1.421875 27.875 -1.421875 
Q 17.96875 -1.421875 11.734375 6.484375 
Q 5.515625 14.40625 5.515625 27.296875 
Q 5.515625 40.1875 11.734375 48.09375 
Q 17.96875 56 27.875 56 
Q 33.9375 56 38.25 53.625 
Q 42.578125 51.265625 45.40625 46.390625 
z
M 14.796875 27.296875 
Q 14.796875 17.390625 18.875 11.75 
Q 22.953125 6.109375 30.078125 6.109375 
Q 37.203125 6.109375 41.296875 11.75 
Q 45.40625 17.390625 45.40625 27.296875 
Q 45.40625 37.203125 41.296875 42.84375 
Q 37.203125 48.484375 30.078125 48.484375 
Q 22.953125 48.484375 18.875 42.84375 
Q 14.796875 37.203125 14.796875 27.296875 
z
" id="DejaVuSans-100"/>
      <path d="M 9.421875 54.6875 
L 18.40625 54.6875 
L 18.40625 0 
L 9.421875 0 
z
M 9.421875 75.984375 
L 18.40625 75.984375 
L 18.40625 64.59375 
L 9.421875 64.59375 
z
" id="DejaVuSans-105"/>
      <path d="M 20.65625 79.984375 
L 30.375 79.984375 
L 14.46875 61.625 
L 6.984375 61.625 
z
M 9.421875 54.6875 
L 18.40625 54.6875 
L 18.40625 0 
L 9.421875 0 
z
M 13.921875 56 
z
" id="DejaVuSans-237"/>
      <path d="M 44.28125 53.078125 
L 44.28125 44.578125 
Q 40.484375 46.53125 36.375 47.5 
Q 32.28125 48.484375 27.875 48.484375 
Q 21.1875 48.484375 17.84375 46.4375 
Q 14.5 44.390625 14.5 40.28125 
Q 14.5 37.15625 16.890625 35.375 
Q 19.28125 33.59375 26.515625 31.984375 
L 29.59375 31.296875 
Q 39.15625 29.25 43.1875 25.515625 
Q 47.21875 21.78125 47.21875 15.09375 
Q 47.21875 7.46875 41.1875 3.015625 
Q 35.15625 -1.421875 24.609375 -1.421875 
Q 20.21875 -1.421875 15.453125 -0.5625 
Q 10.6875 0.296875 5.421875 2 
L 5.421875 11.28125 
Q 10.40625 8.6875 15.234375 7.390625 
Q 20.0625 6.109375 24.8125 6.109375 
Q 31.15625 6.109375 34.5625 8.28125 
Q 37.984375 10.453125 37.984375 14.40625 
Q 37.984375 18.0625 35.515625 20.015625 
Q 33.0625 21.96875 24.703125 23.78125 
L 21.578125 24.515625 
Q 13.234375 26.265625 9.515625 29.90625 
Q 5.8125 33.546875 5.8125 39.890625 
Q 5.8125 47.609375 11.28125 51.796875 
Q 16.75 56 26.8125 56 
Q 31.78125 56 36.171875 55.265625 
Q 40.578125 54.546875 44.28125 53.078125 
z
" id="DejaVuSans-115"/>
     </defs>
     <g transform="translate(18.798437 245.62504)rotate(-90)scale(0.1 -0.1)">
      <use xlink:href="#DejaVuSans-69"/>
      <use x="63.183594" xlink:href="#DejaVuSans-88"/>
      <use x="131.689453" xlink:href="#DejaVuSans-32"/>
      <use x="163.476562" xlink:href="#DejaVuSans-112"/>
      <use x="226.953125" xlink:href="#DejaVuSans-99"/>
      <use x="281.933594" xlink:href="#DejaVuSans-114"/>
      <use x="323.046875" xlink:href="#DejaVuSans-32"/>
      <use x="354.833984" xlink:href="#DejaVuSans-40"/>
      <use x="393.847656" xlink:href="#DejaVuSans-112"/>
      <use x="457.324219" xlink:href="#DejaVuSans-111"/>
      <use x="518.505859" xlink:href="#DejaVuSans-114"/>
      <use x="559.619141" xlink:href="#DejaVuSans-32"/>
      <use x="591.40625" xlink:href="#DejaVuSans-49"/>
      <use x="655.029297" xlink:href="#DejaVuSans-48"/>
      <use x="718.652344" xlink:href="#DejaVuSans-48"/>
      <use x="782.275391" xlink:href="#DejaVuSans-48"/>
      <use x="845.898438" xlink:href="#DejaVuSans-48"/>
      <use x="909.521484" xlink:href="#DejaVuSans-48"/>
      <use x="973.144531" xlink:href="#DejaVuSans-32"/>
      <use x="1004.931641" xlink:href="#DejaVuSans-104"/>
      <use x="1068.310547" xlink:href="#DejaVuSans-97"/>
      <use x="1129.589844" xlink:href="#DejaVuSans-98"/>
      <use x="1193.066406" xlink:href="#DejaVuSans-46"/>
      <use x="1224.853516" xlink:href="#DejaVuSans-41"/>
      <use x="1263.867188" xlink:href="#DejaVuSans-32"/>
      <use x="1295.654297" xlink:href="#DejaVuSans-40"/>
      <use x="1334.667969" xlink:href="#DejaVuSans-77"/>
      <use x="1420.947266" xlink:href="#DejaVuSans-101"/>
      <use x="1482.470703" xlink:href="#DejaVuSans-100"/>
      <use x="1545.947266" xlink:href="#DejaVuSans-105"/>
      <use x="1573.730469" xlink:href="#DejaVuSans-97"/>
      <use x="1635.009766" xlink:href="#DejaVuSans-32"/>
      <use x="1666.796875" xlink:href="#DejaVuSans-51"/>
      <use x="1730.419922" xlink:href="#DejaVuSans-32"/>
      <use x="1762.207031" xlink:href="#DejaVuSans-100"/>
      <use x="1825.683594" xlink:href="#DejaVuSans-237"/>
      <use x="1853.466797" xlink:href="#DejaVuSans-97"/>
      <use x="1914.746094" xlink:href="#DejaVuSans-115"/>
      <use x="1966.845703" xlink:href="#DejaVuSans-41"/>
     </g>
    </g>
   </g>
   <g id="line2d_15">
    <path clip-path="url(#pe2b71a8f02)" d="M 72.137216 279.86258 
L 76.750925 279.86258 
L 81.364634 279.86258 
L 85.978344 279.86258 
L 90.592053 279.86258 
L 95.205762 279.86258 
L 99.819471 278.301779 
L 104.43318 277.521378 
L 109.04689 277.521378 
L 113.660599 279.082179 
L 118.274308 279.86258 
L 122.888017 279.86258 
L 127.501726 279.86258 
L 132.115436 279.86258 
L 136.729145 279.472379 
L 141.342854 279.082179 
L 145.956563 278.691979 
L 150.570272 275.180177 
L 155.183982 267.766372 
L 159.797691 257.621166 
L 164.4114 250.207361 
L 169.025109 251.768162 
L 173.638818 245.915158 
L 178.252528 241.232755 
L 182.866237 229.136548 
L 187.479946 223.673744 
L 192.093655 217.43054 
L 196.707365 224.063944 
L 201.321074 203.383331 
L 205.934783 169.82611 
L 210.548492 140.170892 
L 215.162201 94.127263 
L 219.775911 47.693433 
L 224.38962 25.452019 
L 229.003329 89.83506 
L 233.617038 151.486699 
L 238.230747 188.555722 
L 242.844457 192.847925 
L 247.458166 171.777112 
L 252.071875 176.459514 
L 256.685584 162.802506 
L 261.299293 197.920528 
L 265.913003 211.577537 
L 270.526712 226.405146 
L 275.140421 226.405146 
L 279.75413 199.871529 
L 284.367839 195.579327 
L 288.981549 162.022105 
L 293.595258 160.071104 
L 298.208967 152.657299 
L 302.822676 202.602931 
L 307.436385 208.846135 
L 312.050095 309.907999 
L 316.663804 290.788187 
L 321.277513 318.492404 
L 325.891222 243.964157 
L 330.504932 265.815371 
L 335.118641 268.546773 
L 339.73235 272.448775 
L 344.346059 270.887974 
L 348.959768 269.717373 
L 353.573478 269.717373 
L 358.187187 271.668374 
L 362.800896 267.766372 
L 367.414605 266.985972 
L 372.028314 268.936973 
L 376.642024 265.815371 
L 381.255733 256.450565 
L 385.869442 256.450565 
L 390.483151 256.840765 
L 395.09686 265.03497 
L 399.71057 268.936973 
L 404.324279 271.668374 
L 408.937988 268.936973 
L 413.551697 261.132968 
L 418.165406 263.474169 
L 422.779116 266.205571 
L 427.392825 272.838975 
L 432.006534 275.180177 
" style="fill:none;stroke:#1f77b4;stroke-linecap:square;stroke-width:1.5;"/>
    <defs>
     <path d="M 0 1.5 
C 0.397805 1.5 0.77937 1.341951 1.06066 1.06066 
C 1.341951 0.77937 1.5 0.397805 1.5 0 
C 1.5 -0.397805 1.341951 -0.77937 1.06066 -1.06066 
C 0.77937 -1.341951 0.397805 -1.5 0 -1.5 
C -0.397805 -1.5 -0.77937 -1.341951 -1.06066 -1.06066 
C -1.341951 -0.77937 -1.5 -0.397805 -1.5 0 
C -1.5 0.397805 -1.341951 0.77937 -1.06066 1.06066 
C -0.77937 1.341951 -0.397805 1.5 0 1.5 
z
" id="m63d406a4e5" style="stroke:#1f77b4;"/>
    </defs>
    <g clip-path="url(#pe2b71a8f02)">
     <use style="fill:#1f77b4;stroke:#1f77b4;" x="72.137216" xlink:href="#m63d406a4e5" y="279.86258"/>
     <use style="fill:#1f77b4;stroke:#1f77b4;" x="76.750925" xlink:href="#m63d406a4e5" y="279.86258"/>
     <use style="fill:#1f77b4;stroke:#1f77b4;" x="81.364634" xlink:href="#m63d406a4e5" y="279.86258"/>
     <use style="fill:#1f77b4;stroke:#1f77b4;" x="85.978344" xlink:href="#m63d406a4e5" y="279.86258"/>
     <use style="fill:#1f77b4;stroke:#1f77b4;" x="90.592053" xlink:href="#m63d406a4e5" y="279.86258"/>
     <use style="fill:#1f77b4;stroke:#1f77b4;" x="95.205762" xlink:href="#m63d406a4e5" y="279.86258"/>
     <use style="fill:#1f77b4;stroke:#1f77b4;" x="99.819471" xlink:href="#m63d406a4e5" y="278.301779"/>
     <use style="fill:#1f77b4;stroke:#1f77b4;" x="104.43318" xlink:href="#m63d406a4e5" y="277.521378"/>
     <use style="fill:#1f77b4;stroke:#1f77b4;" x="109.04689" xlink:href="#m63d406a4e5" y="277.521378"/>
     <use style="fill:#1f77b4;stroke:#1f77b4;" x="113.660599" xlink:href="#m63d406a4e5" y="279.082179"/>
     <use style="fill:#1f77b4;stroke:#1f77b4;" x="118.274308" xlink:href="#m63d406a4e5" y="279.86258"/>
     <use style="fill:#1f77b4;stroke:#1f77b4;" x="122.888017" xlink:href="#m63d406a4e5" y="279.86258"/>
     <use style="fill:#1f77b4;stroke:#1f77b4;" x="127.501726" xlink:href="#m63d406a4e5" y="279.86258"/>
     <use style="fill:#1f77b4;stroke:#1f77b4;" x="132.115436" xlink:href="#m63d406a4e5" y="279.86258"/>
     <use style="fill:#1f77b4;stroke:#1f77b4;" x="136.729145" xlink:href="#m63d406a4e5" y="279.472379"/>
     <use style="fill:#1f77b4;stroke:#1f77b4;" x="141.342854" xlink:href="#m63d406a4e5" y="279.082179"/>
     <use style="fill:#1f77b4;stroke:#1f77b4;" x="145.956563" xlink:href="#m63d406a4e5" y="278.691979"/>
     <use style="fill:#1f77b4;stroke:#1f77b4;" x="150.570272" xlink:href="#m63d406a4e5" y="275.180177"/>
     <use style="fill:#1f77b4;stroke:#1f77b4;" x="155.183982" xlink:href="#m63d406a4e5" y="267.766372"/>
     <use style="fill:#1f77b4;stroke:#1f77b4;" x="159.797691" xlink:href="#m63d406a4e5" y="257.621166"/>
     <use style="fill:#1f77b4;stroke:#1f77b4;" x="164.4114" xlink:href="#m63d406a4e5" y="250.207361"/>
     <use style="fill:#1f77b4;stroke:#1f77b4;" x="169.025109" xlink:href="#m63d406a4e5" y="251.768162"/>
     <use style="fill:#1f77b4;stroke:#1f77b4;" x="173.638818" xlink:href="#m63d406a4e5" y="245.915158"/>
     <use style="fill:#1f77b4;stroke:#1f77b4;" x="178.252528" xlink:href="#m63d406a4e5" y="241.232755"/>
     <use style="fill:#1f77b4;stroke:#1f77b4;" x="182.866237" xlink:href="#m63d406a4e5" y="229.136548"/>
     <use style="fill:#1f77b4;stroke:#1f77b4;" x="187.479946" xlink:href="#m63d406a4e5" y="223.673744"/>
     <use style="fill:#1f77b4;stroke:#1f77b4;" x="192.093655" xlink:href="#m63d406a4e5" y="217.43054"/>
     <use style="fill:#1f77b4;stroke:#1f77b4;" x="196.707365" xlink:href="#m63d406a4e5" y="224.063944"/>
     <use style="fill:#1f77b4;stroke:#1f77b4;" x="201.321074" xlink:href="#m63d406a4e5" y="203.383331"/>
     <use style="fill:#1f77b4;stroke:#1f77b4;" x="205.934783" xlink:href="#m63d406a4e5" y="169.82611"/>
     <use style="fill:#1f77b4;stroke:#1f77b4;" x="210.548492" xlink:href="#m63d406a4e5" y="140.170892"/>
     <use style="fill:#1f77b4;stroke:#1f77b4;" x="215.162201" xlink:href="#m63d406a4e5" y="94.127263"/>
     <use style="fill:#1f77b4;stroke:#1f77b4;" x="219.775911" xlink:href="#m63d406a4e5" y="47.693433"/>
     <use style="fill:#1f77b4;stroke:#1f77b4;" x="224.38962" xlink:href="#m63d406a4e5" y="25.452019"/>
     <use style="fill:#1f77b4;stroke:#1f77b4;" x="229.003329" xlink:href="#m63d406a4e5" y="89.83506"/>
     <use style="fill:#1f77b4;stroke:#1f77b4;" x="233.617038" xlink:href="#m63d406a4e5" y="151.486699"/>
     <use style="fill:#1f77b4;stroke:#1f77b4;" x="238.230747" xlink:href="#m63d406a4e5" y="188.555722"/>
     <use style="fill:#1f77b4;stroke:#1f77b4;" x="242.844457" xlink:href="#m63d406a4e5" y="192.847925"/>
     <use style="fill:#1f77b4;stroke:#1f77b4;" x="247.458166" xlink:href="#m63d406a4e5" y="171.777112"/>
     <use style="fill:#1f77b4;stroke:#1f77b4;" x="252.071875" xlink:href="#m63d406a4e5" y="176.459514"/>
     <use style="fill:#1f77b4;stroke:#1f77b4;" x="256.685584" xlink:href="#m63d406a4e5" y="162.802506"/>
     <use style="fill:#1f77b4;stroke:#1f77b4;" x="261.299293" xlink:href="#m63d406a4e5" y="197.920528"/>
     <use style="fill:#1f77b4;stroke:#1f77b4;" x="265.913003" xlink:href="#m63d406a4e5" y="211.577537"/>
     <use style="fill:#1f77b4;stroke:#1f77b4;" x="270.526712" xlink:href="#m63d406a4e5" y="226.405146"/>
     <use style="fill:#1f77b4;stroke:#1f77b4;" x="275.140421" xlink:href="#m63d406a4e5" y="226.405146"/>
     <use style="fill:#1f77b4;stroke:#1f77b4;" x="279.75413" xlink:href="#m63d406a4e5" y="199.871529"/>
     <use style="fill:#1f77b4;stroke:#1f77b4;" x="284.367839" xlink:href="#m63d406a4e5" y="195.579327"/>
     <use style="fill:#1f77b4;stroke:#1f77b4;" x="288.981549" xlink:href="#m63d406a4e5" y="162.022105"/>
     <use style="fill:#1f77b4;stroke:#1f77b4;" x="293.595258" xlink:href="#m63d406a4e5" y="160.071104"/>
     <use style="fill:#1f77b4;stroke:#1f77b4;" x="298.208967" xlink:href="#m63d406a4e5" y="152.657299"/>
     <use style="fill:#1f77b4;stroke:#1f77b4;" x="302.822676" xlink:href="#m63d406a4e5" y="202.602931"/>
     <use style="fill:#1f77b4;stroke:#1f77b4;" x="307.436385" xlink:href="#m63d406a4e5" y="208.846135"/>
     <use style="fill:#1f77b4;stroke:#1f77b4;" x="312.050095" xlink:href="#m63d406a4e5" y="309.907999"/>
     <use style="fill:#1f77b4;stroke:#1f77b4;" x="316.663804" xlink:href="#m63d406a4e5" y="290.788187"/>
     <use style="fill:#1f77b4;stroke:#1f77b4;" x="321.277513" xlink:href="#m63d406a4e5" y="318.492404"/>
     <use style="fill:#1f77b4;stroke:#1f77b4;" x="325.891222" xlink:href="#m63d406a4e5" y="243.964157"/>
     <use style="fill:#1f77b4;stroke:#1f77b4;" x="330.504932" xlink:href="#m63d406a4e5" y="265.815371"/>
     <use style="fill:#1f77b4;stroke:#1f77b4;" x="335.118641" xlink:href="#m63d406a4e5" y="268.546773"/>
     <use style="fill:#1f77b4;stroke:#1f77b4;" x="339.73235" xlink:href="#m63d406a4e5" y="272.448775"/>
     <use style="fill:#1f77b4;stroke:#1f77b4;" x="344.346059" xlink:href="#m63d406a4e5" y="270.887974"/>
     <use style="fill:#1f77b4;stroke:#1f77b4;" x="348.959768" xlink:href="#m63d406a4e5" y="269.717373"/>
     <use style="fill:#1f77b4;stroke:#1f77b4;" x="353.573478" xlink:href="#m63d406a4e5" y="269.717373"/>
     <use style="fill:#1f77b4;stroke:#1f77b4;" x="358.187187" xlink:href="#m63d406a4e5" y="271.668374"/>
     <use style="fill:#1f77b4;stroke:#1f77b4;" x="362.800896" xlink:href="#m63d406a4e5" y="267.766372"/>
     <use style="fill:#1f77b4;stroke:#1f77b4;" x="367.414605" xlink:href="#m63d406a4e5" y="266.985972"/>
     <use style="fill:#1f77b4;stroke:#1f77b4;" x="372.028314" xlink:href="#m63d406a4e5" y="268.936973"/>
     <use style="fill:#1f77b4;stroke:#1f77b4;" x="376.642024" xlink:href="#m63d406a4e5" y="265.815371"/>
     <use style="fill:#1f77b4;stroke:#1f77b4;" x="381.255733" xlink:href="#m63d406a4e5" y="256.450565"/>
     <use style="fill:#1f77b4;stroke:#1f77b4;" x="385.869442" xlink:href="#m63d406a4e5" y="256.450565"/>
     <use style="fill:#1f77b4;stroke:#1f77b4;" x="390.483151" xlink:href="#m63d406a4e5" y="256.840765"/>
     <use style="fill:#1f77b4;stroke:#1f77b4;" x="395.09686" xlink:href="#m63d406a4e5" y="265.03497"/>
     <use style="fill:#1f77b4;stroke:#1f77b4;" x="399.71057" xlink:href="#m63d406a4e5" y="268.936973"/>
     <use style="fill:#1f77b4;stroke:#1f77b4;" x="404.324279" xlink:href="#m63d406a4e5" y="271.668374"/>
     <use style="fill:#1f77b4;stroke:#1f77b4;" x="408.937988" xlink:href="#m63d406a4e5" y="268.936973"/>
     <use style="fill:#1f77b4;stroke:#1f77b4;" x="413.551697" xlink:href="#m63d406a4e5" y="261.132968"/>
     <use style="fill:#1f77b4;stroke:#1f77b4;" x="418.165406" xlink:href="#m63d406a4e5" y="263.474169"/>
     <use style="fill:#1f77b4;stroke:#1f77b4;" x="422.779116" xlink:href="#m63d406a4e5" y="266.205571"/>
     <use style="fill:#1f77b4;stroke:#1f77b4;" x="427.392825" xlink:href="#m63d406a4e5" y="272.838975"/>
     <use style="fill:#1f77b4;stroke:#1f77b4;" x="432.006534" xlink:href="#m63d406a4e5" y="275.180177"/>
    </g>
   </g>
   <g id="patch_3">
    <path d="M 54.14375 279.86258 
L 54.14375 10.8 
" style="fill:none;stroke:#000000;stroke-linecap:square;stroke-linejoin:miter;stroke-width:0.8;"/>
   </g>
   <g id="patch_4">
    <path d="M 450 279.86258 
L 450 10.8 
" style="fill:none;stroke:#000000;stroke-linecap:square;stroke-linejoin:miter;stroke-width:0.8;"/>
   </g>
   <g id="patch_5">
    <path d="M 54.14375 279.86258 
L 450 279.86258 
" style="fill:none;stroke:#000000;stroke-linecap:square;stroke-linejoin:miter;stroke-width:0.8;"/>
   </g>
   <g id="patch_6">
    <path d="M 54.14375 10.8 
L 450 10.8 
" style="fill:none;stroke:#000000;stroke-linecap:square;stroke-linejoin:miter;stroke-width:0.8;"/>
   </g>
  </g>
 </g>
 <defs>
  <clipPath id="pe2b71a8f02">
   <rect height="269.06258" width="395.85625" x="54.14375" y="10.8"/>
  </clipPath>
 </defs>
</svg>
