<?xml version="1.0" encoding="utf-8" standalone="no"?>
<!DOCTYPE svg PUBLIC "-//W3C//DTD SVG 1.1//EN"
  "http://www.w3.org/Graphics/SVG/1.1/DTD/svg11.dtd">
<!-- Created with matplotlib (https://matplotlib.org/) -->
<svg height="345.6pt" version="1.1" viewBox="0 0 460.8 345.6" width="460.8pt" xmlns="http://www.w3.org/2000/svg" xmlns:xlink="http://www.w3.org/1999/xlink">
 <defs>
  <style type="text/css">
*{stroke-linecap:butt;stroke-linejoin:round;}
  </style>
 </defs>
 <g id="figure_1">
  <g id="patch_1">
   <path d="M 0 345.6 
L 460.8 345.6 
L 460.8 0 
L 0 0 
z
" style="fill:#ffffff;"/>
  </g>
  <g id="axes_1">
   <g id="patch_2">
    <path d="M 44.603125 279.86258 
L 438.255936 279.86258 
L 438.255936 10.8 
L 44.603125 10.8 
z
" style="fill:#ffffff;"/>
   </g>
   <g id="matplotlib.axis_1">
    <g id="xtick_1">
     <g id="line2d_1">
      <defs>
       <path d="M 0 0 
L 0 3.5 
" id="mba32659a82" style="stroke:#000000;stroke-width:0.8;"/>
      </defs>
      <g>
       <use style="stroke:#000000;stroke-width:0.8;" x="93.423143" xlink:href="#mba32659a82" y="279.86258"/>
      </g>
     </g>
     <g id="text_1">
      <!-- 2020-03-01 -->
      <defs>
       <path d="M 19.1875 8.296875 
L 53.609375 8.296875 
L 53.609375 0 
L 7.328125 0 
L 7.328125 8.296875 
Q 12.9375 14.109375 22.625 23.890625 
Q 32.328125 33.6875 34.8125 36.53125 
Q 39.546875 41.84375 41.421875 45.53125 
Q 43.3125 49.21875 43.3125 52.78125 
Q 43.3125 58.59375 39.234375 62.25 
Q 35.15625 65.921875 28.609375 65.921875 
Q 23.96875 65.921875 18.8125 64.3125 
Q 13.671875 62.703125 7.8125 59.421875 
L 7.8125 69.390625 
Q 13.765625 71.78125 18.9375 73 
Q 24.125 74.21875 28.421875 74.21875 
Q 39.75 74.21875 46.484375 68.546875 
Q 53.21875 62.890625 53.21875 53.421875 
Q 53.21875 48.921875 51.53125 44.890625 
Q 49.859375 40.875 45.40625 35.40625 
Q 44.1875 33.984375 37.640625 27.21875 
Q 31.109375 20.453125 19.1875 8.296875 
z
" id="DejaVuSans-50"/>
       <path d="M 31.78125 66.40625 
Q 24.171875 66.40625 20.328125 58.90625 
Q 16.5 51.421875 16.5 36.375 
Q 16.5 21.390625 20.328125 13.890625 
Q 24.171875 6.390625 31.78125 6.390625 
Q 39.453125 6.390625 43.28125 13.890625 
Q 47.125 21.390625 47.125 36.375 
Q 47.125 51.421875 43.28125 58.90625 
Q 39.453125 66.40625 31.78125 66.40625 
z
M 31.78125 74.21875 
Q 44.046875 74.21875 50.515625 64.515625 
Q 56.984375 54.828125 56.984375 36.375 
Q 56.984375 17.96875 50.515625 8.265625 
Q 44.046875 -1.421875 31.78125 -1.421875 
Q 19.53125 -1.421875 13.0625 8.265625 
Q 6.59375 17.96875 6.59375 36.375 
Q 6.59375 54.828125 13.0625 64.515625 
Q 19.53125 74.21875 31.78125 74.21875 
z
" id="DejaVuSans-48"/>
       <path d="M 4.890625 31.390625 
L 31.203125 31.390625 
L 31.203125 23.390625 
L 4.890625 23.390625 
z
" id="DejaVuSans-45"/>
       <path d="M 40.578125 39.3125 
Q 47.65625 37.796875 51.625 33 
Q 55.609375 28.21875 55.609375 21.1875 
Q 55.609375 10.40625 48.1875 4.484375 
Q 40.765625 -1.421875 27.09375 -1.421875 
Q 22.515625 -1.421875 17.65625 -0.515625 
Q 12.796875 0.390625 7.625 2.203125 
L 7.625 11.71875 
Q 11.71875 9.328125 16.59375 8.109375 
Q 21.484375 6.890625 26.8125 6.890625 
Q 36.078125 6.890625 40.9375 10.546875 
Q 45.796875 14.203125 45.796875 21.1875 
Q 45.796875 27.640625 41.28125 31.265625 
Q 36.765625 34.90625 28.71875 34.90625 
L 20.21875 34.90625 
L 20.21875 43.015625 
L 29.109375 43.015625 
Q 36.375 43.015625 40.234375 45.921875 
Q 44.09375 48.828125 44.09375 54.296875 
Q 44.09375 59.90625 40.109375 62.90625 
Q 36.140625 65.921875 28.71875 65.921875 
Q 24.65625 65.921875 20.015625 65.03125 
Q 15.375 64.15625 9.8125 62.3125 
L 9.8125 71.09375 
Q 15.4375 72.65625 20.34375 73.4375 
Q 25.25 74.21875 29.59375 74.21875 
Q 40.828125 74.21875 47.359375 69.109375 
Q 53.90625 64.015625 53.90625 55.328125 
Q 53.90625 49.265625 50.4375 45.09375 
Q 46.96875 40.921875 40.578125 39.3125 
z
" id="DejaVuSans-51"/>
       <path d="M 12.40625 8.296875 
L 28.515625 8.296875 
L 28.515625 63.921875 
L 10.984375 60.40625 
L 10.984375 69.390625 
L 28.421875 72.90625 
L 38.28125 72.90625 
L 38.28125 8.296875 
L 54.390625 8.296875 
L 54.390625 0 
L 12.40625 0 
z
" id="DejaVuSans-49"/>
      </defs>
      <g transform="translate(74.827339 333.329439)rotate(-45)scale(0.1 -0.1)">
       <use xlink:href="#DejaVuSans-50"/>
       <use x="63.623047" xlink:href="#DejaVuSans-48"/>
       <use x="127.246094" xlink:href="#DejaVuSans-50"/>
       <use x="190.869141" xlink:href="#DejaVuSans-48"/>
       <use x="254.492188" xlink:href="#DejaVuSans-45"/>
       <use x="290.576172" xlink:href="#DejaVuSans-48"/>
       <use x="354.199219" xlink:href="#DejaVuSans-51"/>
       <use x="417.822266" xlink:href="#DejaVuSans-45"/>
       <use x="453.90625" xlink:href="#DejaVuSans-48"/>
       <use x="517.529297" xlink:href="#DejaVuSans-49"/>
      </g>
     </g>
    </g>
    <g id="xtick_2">
     <g id="line2d_2">
      <g>
       <use style="stroke:#000000;stroke-width:0.8;" x="155.276558" xlink:href="#mba32659a82" y="279.86258"/>
      </g>
     </g>
     <g id="text_2">
      <!-- 2020-03-15 -->
      <defs>
       <path d="M 10.796875 72.90625 
L 49.515625 72.90625 
L 49.515625 64.59375 
L 19.828125 64.59375 
L 19.828125 46.734375 
Q 21.96875 47.46875 24.109375 47.828125 
Q 26.265625 48.1875 28.421875 48.1875 
Q 40.625 48.1875 47.75 41.5 
Q 54.890625 34.8125 54.890625 23.390625 
Q 54.890625 11.625 47.5625 5.09375 
Q 40.234375 -1.421875 26.90625 -1.421875 
Q 22.3125 -1.421875 17.546875 -0.640625 
Q 12.796875 0.140625 7.71875 1.703125 
L 7.71875 11.625 
Q 12.109375 9.234375 16.796875 8.0625 
Q 21.484375 6.890625 26.703125 6.890625 
Q 35.15625 6.890625 40.078125 11.328125 
Q 45.015625 15.765625 45.015625 23.390625 
Q 45.015625 31 40.078125 35.4375 
Q 35.15625 39.890625 26.703125 39.890625 
Q 22.75 39.890625 18.8125 39.015625 
Q 14.890625 38.140625 10.796875 36.28125 
z
" id="DejaVuSans-53"/>
      </defs>
      <g transform="translate(136.680755 333.329439)rotate(-45)scale(0.1 -0.1)">
       <use xlink:href="#DejaVuSans-50"/>
       <use x="63.623047" xlink:href="#DejaVuSans-48"/>
       <use x="127.246094" xlink:href="#DejaVuSans-50"/>
       <use x="190.869141" xlink:href="#DejaVuSans-48"/>
       <use x="254.492188" xlink:href="#DejaVuSans-45"/>
       <use x="290.576172" xlink:href="#DejaVuSans-48"/>
       <use x="354.199219" xlink:href="#DejaVuSans-51"/>
       <use x="417.822266" xlink:href="#DejaVuSans-45"/>
       <use x="453.90625" xlink:href="#DejaVuSans-49"/>
       <use x="517.529297" xlink:href="#DejaVuSans-53"/>
      </g>
     </g>
    </g>
    <g id="xtick_3">
     <g id="line2d_3">
      <g>
       <use style="stroke:#000000;stroke-width:0.8;" x="230.384278" xlink:href="#mba32659a82" y="279.86258"/>
      </g>
     </g>
     <g id="text_3">
      <!-- 2020-04-01 -->
      <defs>
       <path d="M 37.796875 64.3125 
L 12.890625 25.390625 
L 37.796875 25.390625 
z
M 35.203125 72.90625 
L 47.609375 72.90625 
L 47.609375 25.390625 
L 58.015625 25.390625 
L 58.015625 17.1875 
L 47.609375 17.1875 
L 47.609375 0 
L 37.796875 0 
L 37.796875 17.1875 
L 4.890625 17.1875 
L 4.890625 26.703125 
z
" id="DejaVuSans-52"/>
      </defs>
      <g transform="translate(211.788474 333.329439)rotate(-45)scale(0.1 -0.1)">
       <use xlink:href="#DejaVuSans-50"/>
       <use x="63.623047" xlink:href="#DejaVuSans-48"/>
       <use x="127.246094" xlink:href="#DejaVuSans-50"/>
       <use x="190.869141" xlink:href="#DejaVuSans-48"/>
       <use x="254.492188" xlink:href="#DejaVuSans-45"/>
       <use x="290.576172" xlink:href="#DejaVuSans-48"/>
       <use x="354.199219" xlink:href="#DejaVuSans-52"/>
       <use x="417.822266" xlink:href="#DejaVuSans-45"/>
       <use x="453.90625" xlink:href="#DejaVuSans-48"/>
       <use x="517.529297" xlink:href="#DejaVuSans-49"/>
      </g>
     </g>
    </g>
    <g id="xtick_4">
     <g id="line2d_4">
      <g>
       <use style="stroke:#000000;stroke-width:0.8;" x="292.237694" xlink:href="#mba32659a82" y="279.86258"/>
      </g>
     </g>
     <g id="text_4">
      <!-- 2020-04-15 -->
      <g transform="translate(273.64189 333.329439)rotate(-45)scale(0.1 -0.1)">
       <use xlink:href="#DejaVuSans-50"/>
       <use x="63.623047" xlink:href="#DejaVuSans-48"/>
       <use x="127.246094" xlink:href="#DejaVuSans-50"/>
       <use x="190.869141" xlink:href="#DejaVuSans-48"/>
       <use x="254.492188" xlink:href="#DejaVuSans-45"/>
       <use x="290.576172" xlink:href="#DejaVuSans-48"/>
       <use x="354.199219" xlink:href="#DejaVuSans-52"/>
       <use x="417.822266" xlink:href="#DejaVuSans-45"/>
       <use x="453.90625" xlink:href="#DejaVuSans-49"/>
       <use x="517.529297" xlink:href="#DejaVuSans-53"/>
      </g>
     </g>
    </g>
    <g id="xtick_5">
     <g id="line2d_5">
      <g>
       <use style="stroke:#000000;stroke-width:0.8;" x="362.927312" xlink:href="#mba32659a82" y="279.86258"/>
      </g>
     </g>
     <g id="text_5">
      <!-- 2020-05-01 -->
      <g transform="translate(344.331508 333.329439)rotate(-45)scale(0.1 -0.1)">
       <use xlink:href="#DejaVuSans-50"/>
       <use x="63.623047" xlink:href="#DejaVuSans-48"/>
       <use x="127.246094" xlink:href="#DejaVuSans-50"/>
       <use x="190.869141" xlink:href="#DejaVuSans-48"/>
       <use x="254.492188" xlink:href="#DejaVuSans-45"/>
       <use x="290.576172" xlink:href="#DejaVuSans-48"/>
       <use x="354.199219" xlink:href="#DejaVuSans-53"/>
       <use x="417.822266" xlink:href="#DejaVuSans-45"/>
       <use x="453.90625" xlink:href="#DejaVuSans-48"/>
       <use x="517.529297" xlink:href="#DejaVuSans-49"/>
      </g>
     </g>
    </g>
    <g id="xtick_6">
     <g id="line2d_6">
      <g>
       <use style="stroke:#000000;stroke-width:0.8;" x="424.780728" xlink:href="#mba32659a82" y="279.86258"/>
      </g>
     </g>
     <g id="text_6">
      <!-- 2020-05-15 -->
      <g transform="translate(406.184924 333.329439)rotate(-45)scale(0.1 -0.1)">
       <use xlink:href="#DejaVuSans-50"/>
       <use x="63.623047" xlink:href="#DejaVuSans-48"/>
       <use x="127.246094" xlink:href="#DejaVuSans-50"/>
       <use x="190.869141" xlink:href="#DejaVuSans-48"/>
       <use x="254.492188" xlink:href="#DejaVuSans-45"/>
       <use x="290.576172" xlink:href="#DejaVuSans-48"/>
       <use x="354.199219" xlink:href="#DejaVuSans-53"/>
       <use x="417.822266" xlink:href="#DejaVuSans-45"/>
       <use x="453.90625" xlink:href="#DejaVuSans-49"/>
       <use x="517.529297" xlink:href="#DejaVuSans-53"/>
      </g>
     </g>
    </g>
   </g>
   <g id="matplotlib.axis_2">
    <g id="ytick_1">
     <g id="line2d_7">
      <defs>
       <path d="M 0 0 
L -3.5 0 
" id="mbc13894dc0" style="stroke:#000000;stroke-width:0.8;"/>
      </defs>
      <g>
       <use style="stroke:#000000;stroke-width:0.8;" x="44.603125" xlink:href="#mbc13894dc0" y="279.86258"/>
      </g>
     </g>
     <g id="text_7">
      <!-- 0 -->
      <g transform="translate(31.240625 283.661798)scale(0.1 -0.1)">
       <use xlink:href="#DejaVuSans-48"/>
      </g>
     </g>
    </g>
    <g id="ytick_2">
     <g id="line2d_8">
      <g>
       <use style="stroke:#000000;stroke-width:0.8;" x="44.603125" xlink:href="#mbc13894dc0" y="224.065627"/>
      </g>
     </g>
     <g id="text_8">
      <!-- 10 -->
      <g transform="translate(24.878125 227.864845)scale(0.1 -0.1)">
       <use xlink:href="#DejaVuSans-49"/>
       <use x="63.623047" xlink:href="#DejaVuSans-48"/>
      </g>
     </g>
    </g>
    <g id="ytick_3">
     <g id="line2d_9">
      <g>
       <use style="stroke:#000000;stroke-width:0.8;" x="44.603125" xlink:href="#mbc13894dc0" y="168.268673"/>
      </g>
     </g>
     <g id="text_9">
      <!-- 20 -->
      <g transform="translate(24.878125 172.067892)scale(0.1 -0.1)">
       <use xlink:href="#DejaVuSans-50"/>
       <use x="63.623047" xlink:href="#DejaVuSans-48"/>
      </g>
     </g>
    </g>
    <g id="ytick_4">
     <g id="line2d_10">
      <g>
       <use style="stroke:#000000;stroke-width:0.8;" x="44.603125" xlink:href="#mbc13894dc0" y="112.47172"/>
      </g>
     </g>
     <g id="text_10">
      <!-- 30 -->
      <g transform="translate(24.878125 116.270939)scale(0.1 -0.1)">
       <use xlink:href="#DejaVuSans-51"/>
       <use x="63.623047" xlink:href="#DejaVuSans-48"/>
      </g>
     </g>
    </g>
    <g id="ytick_5">
     <g id="line2d_11">
      <g>
       <use style="stroke:#000000;stroke-width:0.8;" x="44.603125" xlink:href="#mbc13894dc0" y="56.674767"/>
      </g>
     </g>
     <g id="text_11">
      <!-- 40 -->
      <g transform="translate(24.878125 60.473986)scale(0.1 -0.1)">
       <use xlink:href="#DejaVuSans-52"/>
       <use x="63.623047" xlink:href="#DejaVuSans-48"/>
      </g>
     </g>
    </g>
    <g id="text_12">
     <!-- MD pcr (por 100000 hab.) (Media 3 días) -->
     <defs>
      <path d="M 9.8125 72.90625 
L 24.515625 72.90625 
L 43.109375 23.296875 
L 61.8125 72.90625 
L 76.515625 72.90625 
L 76.515625 0 
L 66.890625 0 
L 66.890625 64.015625 
L 48.09375 14.015625 
L 38.1875 14.015625 
L 19.390625 64.015625 
L 19.390625 0 
L 9.8125 0 
z
" id="DejaVuSans-77"/>
      <path d="M 19.671875 64.796875 
L 19.671875 8.109375 
L 31.59375 8.109375 
Q 46.6875 8.109375 53.6875 14.9375 
Q 60.6875 21.78125 60.6875 36.53125 
Q 60.6875 51.171875 53.6875 57.984375 
Q 46.6875 64.796875 31.59375 64.796875 
z
M 9.8125 72.90625 
L 30.078125 72.90625 
Q 51.265625 72.90625 61.171875 64.09375 
Q 71.09375 55.28125 71.09375 36.53125 
Q 71.09375 17.671875 61.125 8.828125 
Q 51.171875 0 30.078125 0 
L 9.8125 0 
z
" id="DejaVuSans-68"/>
      <path id="DejaVuSans-32"/>
      <path d="M 18.109375 8.203125 
L 18.109375 -20.796875 
L 9.078125 -20.796875 
L 9.078125 54.6875 
L 18.109375 54.6875 
L 18.109375 46.390625 
Q 20.953125 51.265625 25.265625 53.625 
Q 29.59375 56 35.59375 56 
Q 45.5625 56 51.78125 48.09375 
Q 58.015625 40.1875 58.015625 27.296875 
Q 58.015625 14.40625 51.78125 6.484375 
Q 45.5625 -1.421875 35.59375 -1.421875 
Q 29.59375 -1.421875 25.265625 0.953125 
Q 20.953125 3.328125 18.109375 8.203125 
z
M 48.6875 27.296875 
Q 48.6875 37.203125 44.609375 42.84375 
Q 40.53125 48.484375 33.40625 48.484375 
Q 26.265625 48.484375 22.1875 42.84375 
Q 18.109375 37.203125 18.109375 27.296875 
Q 18.109375 17.390625 22.1875 11.75 
Q 26.265625 6.109375 33.40625 6.109375 
Q 40.53125 6.109375 44.609375 11.75 
Q 48.6875 17.390625 48.6875 27.296875 
z
" id="DejaVuSans-112"/>
      <path d="M 48.78125 52.59375 
L 48.78125 44.1875 
Q 44.96875 46.296875 41.140625 47.34375 
Q 37.3125 48.390625 33.40625 48.390625 
Q 24.65625 48.390625 19.8125 42.84375 
Q 14.984375 37.3125 14.984375 27.296875 
Q 14.984375 17.28125 19.8125 11.734375 
Q 24.65625 6.203125 33.40625 6.203125 
Q 37.3125 6.203125 41.140625 7.25 
Q 44.96875 8.296875 48.78125 10.40625 
L 48.78125 2.09375 
Q 45.015625 0.34375 40.984375 -0.53125 
Q 36.96875 -1.421875 32.421875 -1.421875 
Q 20.0625 -1.421875 12.78125 6.34375 
Q 5.515625 14.109375 5.515625 27.296875 
Q 5.515625 40.671875 12.859375 48.328125 
Q 20.21875 56 33.015625 56 
Q 37.15625 56 41.109375 55.140625 
Q 45.0625 54.296875 48.78125 52.59375 
z
" id="DejaVuSans-99"/>
      <path d="M 41.109375 46.296875 
Q 39.59375 47.171875 37.8125 47.578125 
Q 36.03125 48 33.890625 48 
Q 26.265625 48 22.1875 43.046875 
Q 18.109375 38.09375 18.109375 28.8125 
L 18.109375 0 
L 9.078125 0 
L 9.078125 54.6875 
L 18.109375 54.6875 
L 18.109375 46.1875 
Q 20.953125 51.171875 25.484375 53.578125 
Q 30.03125 56 36.53125 56 
Q 37.453125 56 38.578125 55.875 
Q 39.703125 55.765625 41.0625 55.515625 
z
" id="DejaVuSans-114"/>
      <path d="M 31 75.875 
Q 24.46875 64.65625 21.28125 53.65625 
Q 18.109375 42.671875 18.109375 31.390625 
Q 18.109375 20.125 21.3125 9.0625 
Q 24.515625 -2 31 -13.1875 
L 23.1875 -13.1875 
Q 15.875 -1.703125 12.234375 9.375 
Q 8.59375 20.453125 8.59375 31.390625 
Q 8.59375 42.28125 12.203125 53.3125 
Q 15.828125 64.359375 23.1875 75.875 
z
" id="DejaVuSans-40"/>
      <path d="M 30.609375 48.390625 
Q 23.390625 48.390625 19.1875 42.75 
Q 14.984375 37.109375 14.984375 27.296875 
Q 14.984375 17.484375 19.15625 11.84375 
Q 23.34375 6.203125 30.609375 6.203125 
Q 37.796875 6.203125 41.984375 11.859375 
Q 46.1875 17.53125 46.1875 27.296875 
Q 46.1875 37.015625 41.984375 42.703125 
Q 37.796875 48.390625 30.609375 48.390625 
z
M 30.609375 56 
Q 42.328125 56 49.015625 48.375 
Q 55.71875 40.765625 55.71875 27.296875 
Q 55.71875 13.875 49.015625 6.21875 
Q 42.328125 -1.421875 30.609375 -1.421875 
Q 18.84375 -1.421875 12.171875 6.21875 
Q 5.515625 13.875 5.515625 27.296875 
Q 5.515625 40.765625 12.171875 48.375 
Q 18.84375 56 30.609375 56 
z
" id="DejaVuSans-111"/>
      <path d="M 54.890625 33.015625 
L 54.890625 0 
L 45.90625 0 
L 45.90625 32.71875 
Q 45.90625 40.484375 42.875 44.328125 
Q 39.84375 48.1875 33.796875 48.1875 
Q 26.515625 48.1875 22.3125 43.546875 
Q 18.109375 38.921875 18.109375 30.90625 
L 18.109375 0 
L 9.078125 0 
L 9.078125 75.984375 
L 18.109375 75.984375 
L 18.109375 46.1875 
Q 21.34375 51.125 25.703125 53.5625 
Q 30.078125 56 35.796875 56 
Q 45.21875 56 50.046875 50.171875 
Q 54.890625 44.34375 54.890625 33.015625 
z
" id="DejaVuSans-104"/>
      <path d="M 34.28125 27.484375 
Q 23.390625 27.484375 19.1875 25 
Q 14.984375 22.515625 14.984375 16.5 
Q 14.984375 11.71875 18.140625 8.90625 
Q 21.296875 6.109375 26.703125 6.109375 
Q 34.1875 6.109375 38.703125 11.40625 
Q 43.21875 16.703125 43.21875 25.484375 
L 43.21875 27.484375 
z
M 52.203125 31.203125 
L 52.203125 0 
L 43.21875 0 
L 43.21875 8.296875 
Q 40.140625 3.328125 35.546875 0.953125 
Q 30.953125 -1.421875 24.3125 -1.421875 
Q 15.921875 -1.421875 10.953125 3.296875 
Q 6 8.015625 6 15.921875 
Q 6 25.140625 12.171875 29.828125 
Q 18.359375 34.515625 30.609375 34.515625 
L 43.21875 34.515625 
L 43.21875 35.40625 
Q 43.21875 41.609375 39.140625 45 
Q 35.0625 48.390625 27.6875 48.390625 
Q 23 48.390625 18.546875 47.265625 
Q 14.109375 46.140625 10.015625 43.890625 
L 10.015625 52.203125 
Q 14.9375 54.109375 19.578125 55.046875 
Q 24.21875 56 28.609375 56 
Q 40.484375 56 46.34375 49.84375 
Q 52.203125 43.703125 52.203125 31.203125 
z
" id="DejaVuSans-97"/>
      <path d="M 48.6875 27.296875 
Q 48.6875 37.203125 44.609375 42.84375 
Q 40.53125 48.484375 33.40625 48.484375 
Q 26.265625 48.484375 22.1875 42.84375 
Q 18.109375 37.203125 18.109375 27.296875 
Q 18.109375 17.390625 22.1875 11.75 
Q 26.265625 6.109375 33.40625 6.109375 
Q 40.53125 6.109375 44.609375 11.75 
Q 48.6875 17.390625 48.6875 27.296875 
z
M 18.109375 46.390625 
Q 20.953125 51.265625 25.265625 53.625 
Q 29.59375 56 35.59375 56 
Q 45.5625 56 51.78125 48.09375 
Q 58.015625 40.1875 58.015625 27.296875 
Q 58.015625 14.40625 51.78125 6.484375 
Q 45.5625 -1.421875 35.59375 -1.421875 
Q 29.59375 -1.421875 25.265625 0.953125 
Q 20.953125 3.328125 18.109375 8.203125 
L 18.109375 0 
L 9.078125 0 
L 9.078125 75.984375 
L 18.109375 75.984375 
z
" id="DejaVuSans-98"/>
      <path d="M 10.6875 12.40625 
L 21 12.40625 
L 21 0 
L 10.6875 0 
z
" id="DejaVuSans-46"/>
      <path d="M 8.015625 75.875 
L 15.828125 75.875 
Q 23.140625 64.359375 26.78125 53.3125 
Q 30.421875 42.28125 30.421875 31.390625 
Q 30.421875 20.453125 26.78125 9.375 
Q 23.140625 -1.703125 15.828125 -13.1875 
L 8.015625 -13.1875 
Q 14.5 -2 17.703125 9.0625 
Q 20.90625 20.125 20.90625 31.390625 
Q 20.90625 42.671875 17.703125 53.65625 
Q 14.5 64.65625 8.015625 75.875 
z
" id="DejaVuSans-41"/>
      <path d="M 56.203125 29.59375 
L 56.203125 25.203125 
L 14.890625 25.203125 
Q 15.484375 15.921875 20.484375 11.0625 
Q 25.484375 6.203125 34.421875 6.203125 
Q 39.59375 6.203125 44.453125 7.46875 
Q 49.3125 8.734375 54.109375 11.28125 
L 54.109375 2.78125 
Q 49.265625 0.734375 44.1875 -0.34375 
Q 39.109375 -1.421875 33.890625 -1.421875 
Q 20.796875 -1.421875 13.15625 6.1875 
Q 5.515625 13.8125 5.515625 26.8125 
Q 5.515625 40.234375 12.765625 48.109375 
Q 20.015625 56 32.328125 56 
Q 43.359375 56 49.78125 48.890625 
Q 56.203125 41.796875 56.203125 29.59375 
z
M 47.21875 32.234375 
Q 47.125 39.59375 43.09375 43.984375 
Q 39.0625 48.390625 32.421875 48.390625 
Q 24.90625 48.390625 20.390625 44.140625 
Q 15.875 39.890625 15.1875 32.171875 
z
" id="DejaVuSans-101"/>
      <path d="M 45.40625 46.390625 
L 45.40625 75.984375 
L 54.390625 75.984375 
L 54.390625 0 
L 45.40625 0 
L 45.40625 8.203125 
Q 42.578125 3.328125 38.25 0.953125 
Q 33.9375 -1.421875 27.875 -1.421875 
Q 17.96875 -1.421875 11.734375 6.484375 
Q 5.515625 14.40625 5.515625 27.296875 
Q 5.515625 40.1875 11.734375 48.09375 
Q 17.96875 56 27.875 56 
Q 33.9375 56 38.25 53.625 
Q 42.578125 51.265625 45.40625 46.390625 
z
M 14.796875 27.296875 
Q 14.796875 17.390625 18.875 11.75 
Q 22.953125 6.109375 30.078125 6.109375 
Q 37.203125 6.109375 41.296875 11.75 
Q 45.40625 17.390625 45.40625 27.296875 
Q 45.40625 37.203125 41.296875 42.84375 
Q 37.203125 48.484375 30.078125 48.484375 
Q 22.953125 48.484375 18.875 42.84375 
Q 14.796875 37.203125 14.796875 27.296875 
z
" id="DejaVuSans-100"/>
      <path d="M 9.421875 54.6875 
L 18.40625 54.6875 
L 18.40625 0 
L 9.421875 0 
z
M 9.421875 75.984375 
L 18.40625 75.984375 
L 18.40625 64.59375 
L 9.421875 64.59375 
z
" id="DejaVuSans-105"/>
      <path d="M 20.65625 79.984375 
L 30.375 79.984375 
L 14.46875 61.625 
L 6.984375 61.625 
z
M 9.421875 54.6875 
L 18.40625 54.6875 
L 18.40625 0 
L 9.421875 0 
z
M 13.921875 56 
z
" id="DejaVuSans-237"/>
      <path d="M 44.28125 53.078125 
L 44.28125 44.578125 
Q 40.484375 46.53125 36.375 47.5 
Q 32.28125 48.484375 27.875 48.484375 
Q 21.1875 48.484375 17.84375 46.4375 
Q 14.5 44.390625 14.5 40.28125 
Q 14.5 37.15625 16.890625 35.375 
Q 19.28125 33.59375 26.515625 31.984375 
L 29.59375 31.296875 
Q 39.15625 29.25 43.1875 25.515625 
Q 47.21875 21.78125 47.21875 15.09375 
Q 47.21875 7.46875 41.1875 3.015625 
Q 35.15625 -1.421875 24.609375 -1.421875 
Q 20.21875 -1.421875 15.453125 -0.5625 
Q 10.6875 0.296875 5.421875 2 
L 5.421875 11.28125 
Q 10.40625 8.6875 15.234375 7.390625 
Q 20.0625 6.109375 24.8125 6.109375 
Q 31.15625 6.109375 34.5625 8.28125 
Q 37.984375 10.453125 37.984375 14.40625 
Q 37.984375 18.0625 35.515625 20.015625 
Q 33.0625 21.96875 24.703125 23.78125 
L 21.578125 24.515625 
Q 13.234375 26.265625 9.515625 29.90625 
Q 5.8125 33.546875 5.8125 39.890625 
Q 5.8125 47.609375 11.28125 51.796875 
Q 16.75 56 26.8125 56 
Q 31.78125 56 36.171875 55.265625 
Q 40.578125 54.546875 44.28125 53.078125 
z
" id="DejaVuSans-115"/>
     </defs>
     <g transform="translate(18.798437 247.204727)rotate(-90)scale(0.1 -0.1)">
      <use xlink:href="#DejaVuSans-77"/>
      <use x="86.279297" xlink:href="#DejaVuSans-68"/>
      <use x="163.28125" xlink:href="#DejaVuSans-32"/>
      <use x="195.068359" xlink:href="#DejaVuSans-112"/>
      <use x="258.544922" xlink:href="#DejaVuSans-99"/>
      <use x="313.525391" xlink:href="#DejaVuSans-114"/>
      <use x="354.638672" xlink:href="#DejaVuSans-32"/>
      <use x="386.425781" xlink:href="#DejaVuSans-40"/>
      <use x="425.439453" xlink:href="#DejaVuSans-112"/>
      <use x="488.916016" xlink:href="#DejaVuSans-111"/>
      <use x="550.097656" xlink:href="#DejaVuSans-114"/>
      <use x="591.210938" xlink:href="#DejaVuSans-32"/>
      <use x="622.998047" xlink:href="#DejaVuSans-49"/>
      <use x="686.621094" xlink:href="#DejaVuSans-48"/>
      <use x="750.244141" xlink:href="#DejaVuSans-48"/>
      <use x="813.867188" xlink:href="#DejaVuSans-48"/>
      <use x="877.490234" xlink:href="#DejaVuSans-48"/>
      <use x="941.113281" xlink:href="#DejaVuSans-48"/>
      <use x="1004.736328" xlink:href="#DejaVuSans-32"/>
      <use x="1036.523438" xlink:href="#DejaVuSans-104"/>
      <use x="1099.902344" xlink:href="#DejaVuSans-97"/>
      <use x="1161.181641" xlink:href="#DejaVuSans-98"/>
      <use x="1224.658203" xlink:href="#DejaVuSans-46"/>
      <use x="1256.445312" xlink:href="#DejaVuSans-41"/>
      <use x="1295.458984" xlink:href="#DejaVuSans-32"/>
      <use x="1327.246094" xlink:href="#DejaVuSans-40"/>
      <use x="1366.259766" xlink:href="#DejaVuSans-77"/>
      <use x="1452.539062" xlink:href="#DejaVuSans-101"/>
      <use x="1514.0625" xlink:href="#DejaVuSans-100"/>
      <use x="1577.539062" xlink:href="#DejaVuSans-105"/>
      <use x="1605.322266" xlink:href="#DejaVuSans-97"/>
      <use x="1666.601562" xlink:href="#DejaVuSans-32"/>
      <use x="1698.388672" xlink:href="#DejaVuSans-51"/>
      <use x="1762.011719" xlink:href="#DejaVuSans-32"/>
      <use x="1793.798828" xlink:href="#DejaVuSans-100"/>
      <use x="1857.275391" xlink:href="#DejaVuSans-237"/>
      <use x="1885.058594" xlink:href="#DejaVuSans-97"/>
      <use x="1946.337891" xlink:href="#DejaVuSans-115"/>
      <use x="1998.4375" xlink:href="#DejaVuSans-41"/>
     </g>
    </g>
   </g>
   <g id="line2d_12">
    <path clip-path="url(#p4c0ec7b4c4)" d="M 62.496435 279.86258 
L 66.914536 279.86258 
L 71.332637 279.83476 
L 75.750738 279.72348 
L 80.168839 279.6122 
L 84.58694 279.36182 
L 89.005041 279.27836 
L 93.423143 278.694139 
L 97.841244 277.803899 
L 102.259345 276.718919 
L 106.677446 275.800859 
L 111.095547 273.853458 
L 115.513648 269.485717 
L 119.931749 264.923236 
L 124.349851 260.722415 
L 128.767952 252.320774 
L 133.186053 238.911531 
L 137.604154 226.030868 
L 142.022255 218.269086 
L 146.440356 211.703565 
L 150.858457 206.835064 
L 155.276558 206.028284 
L 159.69466 197.153702 
L 164.112761 168.026155 
L 168.530862 141.93099 
L 172.948963 120.120105 
L 177.367064 109.715423 
L 181.785165 111.857563 
L 186.203266 126.880366 
L 190.621368 117.199004 
L 195.039469 83.036037 
L 199.45757 43.003048 
L 203.875671 23.612504 
L 208.293772 38.746587 
L 212.711873 92.160999 
L 217.129974 161.571914 
L 221.548076 156.397393 
L 225.966177 134.753428 
L 230.384278 109.325942 
L 234.802379 129.050327 
L 239.22048 130.719527 
L 243.638581 155.646253 
L 248.056682 192.062641 
L 252.474783 196.986782 
L 256.892885 183.076779 
L 261.310986 158.344793 
L 265.729087 175.426277 
L 270.147188 190.14306 
L 274.565289 214.485565 
L 278.98339 231.400129 
L 283.401491 227.783528 
L 287.819593 212.259965 
L 292.237694 196.625122 
L 296.655795 200.881582 
L 301.073896 208.726824 
L 305.491997 220.327767 
L 309.910098 237.910011 
L 314.328199 243.390552 
L 318.746301 239.356651 
L 323.164402 226.197788 
L 327.582503 231.455769 
L 332.000604 234.82199 
L 336.418705 247.257533 
L 340.836806 255.631354 
L 345.254907 253.433574 
L 349.673008 246.256012 
L 354.09111 240.219071 
L 358.509211 248.676353 
L 362.927312 258.468995 
L 367.345413 264.839776 
L 371.763514 269.680457 
L 376.181615 264.505936 
L 380.599716 258.858475 
L 385.017818 254.295994 
L 389.435919 256.827615 
L 393.85402 259.693075 
L 398.272121 265.062336 
L 402.690222 270.097758 
L 407.108323 271.015818 
L 411.526424 267.009737 
L 415.944526 262.447256 
L 420.362627 266.202957 
" style="fill:none;stroke:#1f77b4;stroke-linecap:square;stroke-width:1.5;"/>
    <defs>
     <path d="M 0 1.5 
C 0.397805 1.5 0.77937 1.341951 1.06066 1.06066 
C 1.341951 0.77937 1.5 0.397805 1.5 0 
C 1.5 -0.397805 1.341951 -0.77937 1.06066 -1.06066 
C 0.77937 -1.341951 0.397805 -1.5 0 -1.5 
C -0.397805 -1.5 -0.77937 -1.341951 -1.06066 -1.06066 
C -1.341951 -0.77937 -1.5 -0.397805 -1.5 0 
C -1.5 0.397805 -1.341951 0.77937 -1.06066 1.06066 
C -0.77937 1.341951 -0.397805 1.5 0 1.5 
z
" id="m5f7ede53c2" style="stroke:#1f77b4;"/>
    </defs>
    <g clip-path="url(#p4c0ec7b4c4)">
     <use style="fill:#1f77b4;stroke:#1f77b4;" x="62.496435" xlink:href="#m5f7ede53c2" y="279.86258"/>
     <use style="fill:#1f77b4;stroke:#1f77b4;" x="66.914536" xlink:href="#m5f7ede53c2" y="279.86258"/>
     <use style="fill:#1f77b4;stroke:#1f77b4;" x="71.332637" xlink:href="#m5f7ede53c2" y="279.83476"/>
     <use style="fill:#1f77b4;stroke:#1f77b4;" x="75.750738" xlink:href="#m5f7ede53c2" y="279.72348"/>
     <use style="fill:#1f77b4;stroke:#1f77b4;" x="80.168839" xlink:href="#m5f7ede53c2" y="279.6122"/>
     <use style="fill:#1f77b4;stroke:#1f77b4;" x="84.58694" xlink:href="#m5f7ede53c2" y="279.36182"/>
     <use style="fill:#1f77b4;stroke:#1f77b4;" x="89.005041" xlink:href="#m5f7ede53c2" y="279.27836"/>
     <use style="fill:#1f77b4;stroke:#1f77b4;" x="93.423143" xlink:href="#m5f7ede53c2" y="278.694139"/>
     <use style="fill:#1f77b4;stroke:#1f77b4;" x="97.841244" xlink:href="#m5f7ede53c2" y="277.803899"/>
     <use style="fill:#1f77b4;stroke:#1f77b4;" x="102.259345" xlink:href="#m5f7ede53c2" y="276.718919"/>
     <use style="fill:#1f77b4;stroke:#1f77b4;" x="106.677446" xlink:href="#m5f7ede53c2" y="275.800859"/>
     <use style="fill:#1f77b4;stroke:#1f77b4;" x="111.095547" xlink:href="#m5f7ede53c2" y="273.853458"/>
     <use style="fill:#1f77b4;stroke:#1f77b4;" x="115.513648" xlink:href="#m5f7ede53c2" y="269.485717"/>
     <use style="fill:#1f77b4;stroke:#1f77b4;" x="119.931749" xlink:href="#m5f7ede53c2" y="264.923236"/>
     <use style="fill:#1f77b4;stroke:#1f77b4;" x="124.349851" xlink:href="#m5f7ede53c2" y="260.722415"/>
     <use style="fill:#1f77b4;stroke:#1f77b4;" x="128.767952" xlink:href="#m5f7ede53c2" y="252.320774"/>
     <use style="fill:#1f77b4;stroke:#1f77b4;" x="133.186053" xlink:href="#m5f7ede53c2" y="238.911531"/>
     <use style="fill:#1f77b4;stroke:#1f77b4;" x="137.604154" xlink:href="#m5f7ede53c2" y="226.030868"/>
     <use style="fill:#1f77b4;stroke:#1f77b4;" x="142.022255" xlink:href="#m5f7ede53c2" y="218.269086"/>
     <use style="fill:#1f77b4;stroke:#1f77b4;" x="146.440356" xlink:href="#m5f7ede53c2" y="211.703565"/>
     <use style="fill:#1f77b4;stroke:#1f77b4;" x="150.858457" xlink:href="#m5f7ede53c2" y="206.835064"/>
     <use style="fill:#1f77b4;stroke:#1f77b4;" x="155.276558" xlink:href="#m5f7ede53c2" y="206.028284"/>
     <use style="fill:#1f77b4;stroke:#1f77b4;" x="159.69466" xlink:href="#m5f7ede53c2" y="197.153702"/>
     <use style="fill:#1f77b4;stroke:#1f77b4;" x="164.112761" xlink:href="#m5f7ede53c2" y="168.026155"/>
     <use style="fill:#1f77b4;stroke:#1f77b4;" x="168.530862" xlink:href="#m5f7ede53c2" y="141.93099"/>
     <use style="fill:#1f77b4;stroke:#1f77b4;" x="172.948963" xlink:href="#m5f7ede53c2" y="120.120105"/>
     <use style="fill:#1f77b4;stroke:#1f77b4;" x="177.367064" xlink:href="#m5f7ede53c2" y="109.715423"/>
     <use style="fill:#1f77b4;stroke:#1f77b4;" x="181.785165" xlink:href="#m5f7ede53c2" y="111.857563"/>
     <use style="fill:#1f77b4;stroke:#1f77b4;" x="186.203266" xlink:href="#m5f7ede53c2" y="126.880366"/>
     <use style="fill:#1f77b4;stroke:#1f77b4;" x="190.621368" xlink:href="#m5f7ede53c2" y="117.199004"/>
     <use style="fill:#1f77b4;stroke:#1f77b4;" x="195.039469" xlink:href="#m5f7ede53c2" y="83.036037"/>
     <use style="fill:#1f77b4;stroke:#1f77b4;" x="199.45757" xlink:href="#m5f7ede53c2" y="43.003048"/>
     <use style="fill:#1f77b4;stroke:#1f77b4;" x="203.875671" xlink:href="#m5f7ede53c2" y="23.612504"/>
     <use style="fill:#1f77b4;stroke:#1f77b4;" x="208.293772" xlink:href="#m5f7ede53c2" y="38.746587"/>
     <use style="fill:#1f77b4;stroke:#1f77b4;" x="212.711873" xlink:href="#m5f7ede53c2" y="92.160999"/>
     <use style="fill:#1f77b4;stroke:#1f77b4;" x="217.129974" xlink:href="#m5f7ede53c2" y="161.571914"/>
     <use style="fill:#1f77b4;stroke:#1f77b4;" x="221.548076" xlink:href="#m5f7ede53c2" y="156.397393"/>
     <use style="fill:#1f77b4;stroke:#1f77b4;" x="225.966177" xlink:href="#m5f7ede53c2" y="134.753428"/>
     <use style="fill:#1f77b4;stroke:#1f77b4;" x="230.384278" xlink:href="#m5f7ede53c2" y="109.325942"/>
     <use style="fill:#1f77b4;stroke:#1f77b4;" x="234.802379" xlink:href="#m5f7ede53c2" y="129.050327"/>
     <use style="fill:#1f77b4;stroke:#1f77b4;" x="239.22048" xlink:href="#m5f7ede53c2" y="130.719527"/>
     <use style="fill:#1f77b4;stroke:#1f77b4;" x="243.638581" xlink:href="#m5f7ede53c2" y="155.646253"/>
     <use style="fill:#1f77b4;stroke:#1f77b4;" x="248.056682" xlink:href="#m5f7ede53c2" y="192.062641"/>
     <use style="fill:#1f77b4;stroke:#1f77b4;" x="252.474783" xlink:href="#m5f7ede53c2" y="196.986782"/>
     <use style="fill:#1f77b4;stroke:#1f77b4;" x="256.892885" xlink:href="#m5f7ede53c2" y="183.076779"/>
     <use style="fill:#1f77b4;stroke:#1f77b4;" x="261.310986" xlink:href="#m5f7ede53c2" y="158.344793"/>
     <use style="fill:#1f77b4;stroke:#1f77b4;" x="265.729087" xlink:href="#m5f7ede53c2" y="175.426277"/>
     <use style="fill:#1f77b4;stroke:#1f77b4;" x="270.147188" xlink:href="#m5f7ede53c2" y="190.14306"/>
     <use style="fill:#1f77b4;stroke:#1f77b4;" x="274.565289" xlink:href="#m5f7ede53c2" y="214.485565"/>
     <use style="fill:#1f77b4;stroke:#1f77b4;" x="278.98339" xlink:href="#m5f7ede53c2" y="231.400129"/>
     <use style="fill:#1f77b4;stroke:#1f77b4;" x="283.401491" xlink:href="#m5f7ede53c2" y="227.783528"/>
     <use style="fill:#1f77b4;stroke:#1f77b4;" x="287.819593" xlink:href="#m5f7ede53c2" y="212.259965"/>
     <use style="fill:#1f77b4;stroke:#1f77b4;" x="292.237694" xlink:href="#m5f7ede53c2" y="196.625122"/>
     <use style="fill:#1f77b4;stroke:#1f77b4;" x="296.655795" xlink:href="#m5f7ede53c2" y="200.881582"/>
     <use style="fill:#1f77b4;stroke:#1f77b4;" x="301.073896" xlink:href="#m5f7ede53c2" y="208.726824"/>
     <use style="fill:#1f77b4;stroke:#1f77b4;" x="305.491997" xlink:href="#m5f7ede53c2" y="220.327767"/>
     <use style="fill:#1f77b4;stroke:#1f77b4;" x="309.910098" xlink:href="#m5f7ede53c2" y="237.910011"/>
     <use style="fill:#1f77b4;stroke:#1f77b4;" x="314.328199" xlink:href="#m5f7ede53c2" y="243.390552"/>
     <use style="fill:#1f77b4;stroke:#1f77b4;" x="318.746301" xlink:href="#m5f7ede53c2" y="239.356651"/>
     <use style="fill:#1f77b4;stroke:#1f77b4;" x="323.164402" xlink:href="#m5f7ede53c2" y="226.197788"/>
     <use style="fill:#1f77b4;stroke:#1f77b4;" x="327.582503" xlink:href="#m5f7ede53c2" y="231.455769"/>
     <use style="fill:#1f77b4;stroke:#1f77b4;" x="332.000604" xlink:href="#m5f7ede53c2" y="234.82199"/>
     <use style="fill:#1f77b4;stroke:#1f77b4;" x="336.418705" xlink:href="#m5f7ede53c2" y="247.257533"/>
     <use style="fill:#1f77b4;stroke:#1f77b4;" x="340.836806" xlink:href="#m5f7ede53c2" y="255.631354"/>
     <use style="fill:#1f77b4;stroke:#1f77b4;" x="345.254907" xlink:href="#m5f7ede53c2" y="253.433574"/>
     <use style="fill:#1f77b4;stroke:#1f77b4;" x="349.673008" xlink:href="#m5f7ede53c2" y="246.256012"/>
     <use style="fill:#1f77b4;stroke:#1f77b4;" x="354.09111" xlink:href="#m5f7ede53c2" y="240.219071"/>
     <use style="fill:#1f77b4;stroke:#1f77b4;" x="358.509211" xlink:href="#m5f7ede53c2" y="248.676353"/>
     <use style="fill:#1f77b4;stroke:#1f77b4;" x="362.927312" xlink:href="#m5f7ede53c2" y="258.468995"/>
     <use style="fill:#1f77b4;stroke:#1f77b4;" x="367.345413" xlink:href="#m5f7ede53c2" y="264.839776"/>
     <use style="fill:#1f77b4;stroke:#1f77b4;" x="371.763514" xlink:href="#m5f7ede53c2" y="269.680457"/>
     <use style="fill:#1f77b4;stroke:#1f77b4;" x="376.181615" xlink:href="#m5f7ede53c2" y="264.505936"/>
     <use style="fill:#1f77b4;stroke:#1f77b4;" x="380.599716" xlink:href="#m5f7ede53c2" y="258.858475"/>
     <use style="fill:#1f77b4;stroke:#1f77b4;" x="385.017818" xlink:href="#m5f7ede53c2" y="254.295994"/>
     <use style="fill:#1f77b4;stroke:#1f77b4;" x="389.435919" xlink:href="#m5f7ede53c2" y="256.827615"/>
     <use style="fill:#1f77b4;stroke:#1f77b4;" x="393.85402" xlink:href="#m5f7ede53c2" y="259.693075"/>
     <use style="fill:#1f77b4;stroke:#1f77b4;" x="398.272121" xlink:href="#m5f7ede53c2" y="265.062336"/>
     <use style="fill:#1f77b4;stroke:#1f77b4;" x="402.690222" xlink:href="#m5f7ede53c2" y="270.097758"/>
     <use style="fill:#1f77b4;stroke:#1f77b4;" x="407.108323" xlink:href="#m5f7ede53c2" y="271.015818"/>
     <use style="fill:#1f77b4;stroke:#1f77b4;" x="411.526424" xlink:href="#m5f7ede53c2" y="267.009737"/>
     <use style="fill:#1f77b4;stroke:#1f77b4;" x="415.944526" xlink:href="#m5f7ede53c2" y="262.447256"/>
     <use style="fill:#1f77b4;stroke:#1f77b4;" x="420.362627" xlink:href="#m5f7ede53c2" y="266.202957"/>
    </g>
   </g>
   <g id="patch_3">
    <path d="M 44.603125 279.86258 
L 44.603125 10.8 
" style="fill:none;stroke:#000000;stroke-linecap:square;stroke-linejoin:miter;stroke-width:0.8;"/>
   </g>
   <g id="patch_4">
    <path d="M 438.255936 279.86258 
L 438.255936 10.8 
" style="fill:none;stroke:#000000;stroke-linecap:square;stroke-linejoin:miter;stroke-width:0.8;"/>
   </g>
   <g id="patch_5">
    <path d="M 44.603125 279.86258 
L 438.255936 279.86258 
" style="fill:none;stroke:#000000;stroke-linecap:square;stroke-linejoin:miter;stroke-width:0.8;"/>
   </g>
   <g id="patch_6">
    <path d="M 44.603125 10.8 
L 438.255936 10.8 
" style="fill:none;stroke:#000000;stroke-linecap:square;stroke-linejoin:miter;stroke-width:0.8;"/>
   </g>
  </g>
 </g>
 <defs>
  <clipPath id="p4c0ec7b4c4">
   <rect height="269.06258" width="393.652811" x="44.603125" y="10.8"/>
  </clipPath>
 </defs>
</svg>
