<?xml version="1.0" encoding="utf-8" standalone="no"?>
<!DOCTYPE svg PUBLIC "-//W3C//DTD SVG 1.1//EN"
  "http://www.w3.org/Graphics/SVG/1.1/DTD/svg11.dtd">
<!-- Created with matplotlib (https://matplotlib.org/) -->
<svg height="345.6pt" version="1.1" viewBox="0 0 460.8 345.6" width="460.8pt" xmlns="http://www.w3.org/2000/svg" xmlns:xlink="http://www.w3.org/1999/xlink">
 <defs>
  <style type="text/css">
*{stroke-linecap:butt;stroke-linejoin:round;}
  </style>
 </defs>
 <g id="figure_1">
  <g id="patch_1">
   <path d="M 0 345.6 
L 460.8 345.6 
L 460.8 0 
L 0 0 
z
" style="fill:#ffffff;"/>
  </g>
  <g id="axes_1">
   <g id="patch_2">
    <path d="M 38.240625 279.86258 
L 446.175518 279.86258 
L 446.175518 10.8 
L 38.240625 10.8 
z
" style="fill:#ffffff;"/>
   </g>
   <g id="matplotlib.axis_1">
    <g id="xtick_1">
     <g id="line2d_1">
      <defs>
       <path d="M 0 0 
L 0 3.5 
" id="m9e0e7ce883" style="stroke:#000000;stroke-width:0.8;"/>
      </defs>
      <g>
       <use style="stroke:#000000;stroke-width:0.8;" x="88.059618" xlink:href="#m9e0e7ce883" y="279.86258"/>
      </g>
     </g>
     <g id="text_1">
      <!-- 2020-03-01 -->
      <defs>
       <path d="M 19.1875 8.296875 
L 53.609375 8.296875 
L 53.609375 0 
L 7.328125 0 
L 7.328125 8.296875 
Q 12.9375 14.109375 22.625 23.890625 
Q 32.328125 33.6875 34.8125 36.53125 
Q 39.546875 41.84375 41.421875 45.53125 
Q 43.3125 49.21875 43.3125 52.78125 
Q 43.3125 58.59375 39.234375 62.25 
Q 35.15625 65.921875 28.609375 65.921875 
Q 23.96875 65.921875 18.8125 64.3125 
Q 13.671875 62.703125 7.8125 59.421875 
L 7.8125 69.390625 
Q 13.765625 71.78125 18.9375 73 
Q 24.125 74.21875 28.421875 74.21875 
Q 39.75 74.21875 46.484375 68.546875 
Q 53.21875 62.890625 53.21875 53.421875 
Q 53.21875 48.921875 51.53125 44.890625 
Q 49.859375 40.875 45.40625 35.40625 
Q 44.1875 33.984375 37.640625 27.21875 
Q 31.109375 20.453125 19.1875 8.296875 
z
" id="DejaVuSans-50"/>
       <path d="M 31.78125 66.40625 
Q 24.171875 66.40625 20.328125 58.90625 
Q 16.5 51.421875 16.5 36.375 
Q 16.5 21.390625 20.328125 13.890625 
Q 24.171875 6.390625 31.78125 6.390625 
Q 39.453125 6.390625 43.28125 13.890625 
Q 47.125 21.390625 47.125 36.375 
Q 47.125 51.421875 43.28125 58.90625 
Q 39.453125 66.40625 31.78125 66.40625 
z
M 31.78125 74.21875 
Q 44.046875 74.21875 50.515625 64.515625 
Q 56.984375 54.828125 56.984375 36.375 
Q 56.984375 17.96875 50.515625 8.265625 
Q 44.046875 -1.421875 31.78125 -1.421875 
Q 19.53125 -1.421875 13.0625 8.265625 
Q 6.59375 17.96875 6.59375 36.375 
Q 6.59375 54.828125 13.0625 64.515625 
Q 19.53125 74.21875 31.78125 74.21875 
z
" id="DejaVuSans-48"/>
       <path d="M 4.890625 31.390625 
L 31.203125 31.390625 
L 31.203125 23.390625 
L 4.890625 23.390625 
z
" id="DejaVuSans-45"/>
       <path d="M 40.578125 39.3125 
Q 47.65625 37.796875 51.625 33 
Q 55.609375 28.21875 55.609375 21.1875 
Q 55.609375 10.40625 48.1875 4.484375 
Q 40.765625 -1.421875 27.09375 -1.421875 
Q 22.515625 -1.421875 17.65625 -0.515625 
Q 12.796875 0.390625 7.625 2.203125 
L 7.625 11.71875 
Q 11.71875 9.328125 16.59375 8.109375 
Q 21.484375 6.890625 26.8125 6.890625 
Q 36.078125 6.890625 40.9375 10.546875 
Q 45.796875 14.203125 45.796875 21.1875 
Q 45.796875 27.640625 41.28125 31.265625 
Q 36.765625 34.90625 28.71875 34.90625 
L 20.21875 34.90625 
L 20.21875 43.015625 
L 29.109375 43.015625 
Q 36.375 43.015625 40.234375 45.921875 
Q 44.09375 48.828125 44.09375 54.296875 
Q 44.09375 59.90625 40.109375 62.90625 
Q 36.140625 65.921875 28.71875 65.921875 
Q 24.65625 65.921875 20.015625 65.03125 
Q 15.375 64.15625 9.8125 62.3125 
L 9.8125 71.09375 
Q 15.4375 72.65625 20.34375 73.4375 
Q 25.25 74.21875 29.59375 74.21875 
Q 40.828125 74.21875 47.359375 69.109375 
Q 53.90625 64.015625 53.90625 55.328125 
Q 53.90625 49.265625 50.4375 45.09375 
Q 46.96875 40.921875 40.578125 39.3125 
z
" id="DejaVuSans-51"/>
       <path d="M 12.40625 8.296875 
L 28.515625 8.296875 
L 28.515625 63.921875 
L 10.984375 60.40625 
L 10.984375 69.390625 
L 28.421875 72.90625 
L 38.28125 72.90625 
L 38.28125 8.296875 
L 54.390625 8.296875 
L 54.390625 0 
L 12.40625 0 
z
" id="DejaVuSans-49"/>
      </defs>
      <g transform="translate(69.463814 333.329439)rotate(-45)scale(0.1 -0.1)">
       <use xlink:href="#DejaVuSans-50"/>
       <use x="63.623047" xlink:href="#DejaVuSans-48"/>
       <use x="127.246094" xlink:href="#DejaVuSans-50"/>
       <use x="190.869141" xlink:href="#DejaVuSans-48"/>
       <use x="254.492188" xlink:href="#DejaVuSans-45"/>
       <use x="290.576172" xlink:href="#DejaVuSans-48"/>
       <use x="354.199219" xlink:href="#DejaVuSans-51"/>
       <use x="417.822266" xlink:href="#DejaVuSans-45"/>
       <use x="453.90625" xlink:href="#DejaVuSans-48"/>
       <use x="517.529297" xlink:href="#DejaVuSans-49"/>
      </g>
     </g>
    </g>
    <g id="xtick_2">
     <g id="line2d_2">
      <g>
       <use style="stroke:#000000;stroke-width:0.8;" x="150.612614" xlink:href="#m9e0e7ce883" y="279.86258"/>
      </g>
     </g>
     <g id="text_2">
      <!-- 2020-03-15 -->
      <defs>
       <path d="M 10.796875 72.90625 
L 49.515625 72.90625 
L 49.515625 64.59375 
L 19.828125 64.59375 
L 19.828125 46.734375 
Q 21.96875 47.46875 24.109375 47.828125 
Q 26.265625 48.1875 28.421875 48.1875 
Q 40.625 48.1875 47.75 41.5 
Q 54.890625 34.8125 54.890625 23.390625 
Q 54.890625 11.625 47.5625 5.09375 
Q 40.234375 -1.421875 26.90625 -1.421875 
Q 22.3125 -1.421875 17.546875 -0.640625 
Q 12.796875 0.140625 7.71875 1.703125 
L 7.71875 11.625 
Q 12.109375 9.234375 16.796875 8.0625 
Q 21.484375 6.890625 26.703125 6.890625 
Q 35.15625 6.890625 40.078125 11.328125 
Q 45.015625 15.765625 45.015625 23.390625 
Q 45.015625 31 40.078125 35.4375 
Q 35.15625 39.890625 26.703125 39.890625 
Q 22.75 39.890625 18.8125 39.015625 
Q 14.890625 38.140625 10.796875 36.28125 
z
" id="DejaVuSans-53"/>
      </defs>
      <g transform="translate(132.01681 333.329439)rotate(-45)scale(0.1 -0.1)">
       <use xlink:href="#DejaVuSans-50"/>
       <use x="63.623047" xlink:href="#DejaVuSans-48"/>
       <use x="127.246094" xlink:href="#DejaVuSans-50"/>
       <use x="190.869141" xlink:href="#DejaVuSans-48"/>
       <use x="254.492188" xlink:href="#DejaVuSans-45"/>
       <use x="290.576172" xlink:href="#DejaVuSans-48"/>
       <use x="354.199219" xlink:href="#DejaVuSans-51"/>
       <use x="417.822266" xlink:href="#DejaVuSans-45"/>
       <use x="453.90625" xlink:href="#DejaVuSans-49"/>
       <use x="517.529297" xlink:href="#DejaVuSans-53"/>
      </g>
     </g>
    </g>
    <g id="xtick_3">
     <g id="line2d_3">
      <g>
       <use style="stroke:#000000;stroke-width:0.8;" x="226.569822" xlink:href="#m9e0e7ce883" y="279.86258"/>
      </g>
     </g>
     <g id="text_3">
      <!-- 2020-04-01 -->
      <defs>
       <path d="M 37.796875 64.3125 
L 12.890625 25.390625 
L 37.796875 25.390625 
z
M 35.203125 72.90625 
L 47.609375 72.90625 
L 47.609375 25.390625 
L 58.015625 25.390625 
L 58.015625 17.1875 
L 47.609375 17.1875 
L 47.609375 0 
L 37.796875 0 
L 37.796875 17.1875 
L 4.890625 17.1875 
L 4.890625 26.703125 
z
" id="DejaVuSans-52"/>
      </defs>
      <g transform="translate(207.974019 333.329439)rotate(-45)scale(0.1 -0.1)">
       <use xlink:href="#DejaVuSans-50"/>
       <use x="63.623047" xlink:href="#DejaVuSans-48"/>
       <use x="127.246094" xlink:href="#DejaVuSans-50"/>
       <use x="190.869141" xlink:href="#DejaVuSans-48"/>
       <use x="254.492188" xlink:href="#DejaVuSans-45"/>
       <use x="290.576172" xlink:href="#DejaVuSans-48"/>
       <use x="354.199219" xlink:href="#DejaVuSans-52"/>
       <use x="417.822266" xlink:href="#DejaVuSans-45"/>
       <use x="453.90625" xlink:href="#DejaVuSans-48"/>
       <use x="517.529297" xlink:href="#DejaVuSans-49"/>
      </g>
     </g>
    </g>
    <g id="xtick_4">
     <g id="line2d_4">
      <g>
       <use style="stroke:#000000;stroke-width:0.8;" x="289.122818" xlink:href="#m9e0e7ce883" y="279.86258"/>
      </g>
     </g>
     <g id="text_4">
      <!-- 2020-04-15 -->
      <g transform="translate(270.527015 333.329439)rotate(-45)scale(0.1 -0.1)">
       <use xlink:href="#DejaVuSans-50"/>
       <use x="63.623047" xlink:href="#DejaVuSans-48"/>
       <use x="127.246094" xlink:href="#DejaVuSans-50"/>
       <use x="190.869141" xlink:href="#DejaVuSans-48"/>
       <use x="254.492188" xlink:href="#DejaVuSans-45"/>
       <use x="290.576172" xlink:href="#DejaVuSans-48"/>
       <use x="354.199219" xlink:href="#DejaVuSans-52"/>
       <use x="417.822266" xlink:href="#DejaVuSans-45"/>
       <use x="453.90625" xlink:href="#DejaVuSans-49"/>
       <use x="517.529297" xlink:href="#DejaVuSans-53"/>
      </g>
     </g>
    </g>
    <g id="xtick_5">
     <g id="line2d_5">
      <g>
       <use style="stroke:#000000;stroke-width:0.8;" x="360.611956" xlink:href="#m9e0e7ce883" y="279.86258"/>
      </g>
     </g>
     <g id="text_5">
      <!-- 2020-05-01 -->
      <g transform="translate(342.016152 333.329439)rotate(-45)scale(0.1 -0.1)">
       <use xlink:href="#DejaVuSans-50"/>
       <use x="63.623047" xlink:href="#DejaVuSans-48"/>
       <use x="127.246094" xlink:href="#DejaVuSans-50"/>
       <use x="190.869141" xlink:href="#DejaVuSans-48"/>
       <use x="254.492188" xlink:href="#DejaVuSans-45"/>
       <use x="290.576172" xlink:href="#DejaVuSans-48"/>
       <use x="354.199219" xlink:href="#DejaVuSans-53"/>
       <use x="417.822266" xlink:href="#DejaVuSans-45"/>
       <use x="453.90625" xlink:href="#DejaVuSans-48"/>
       <use x="517.529297" xlink:href="#DejaVuSans-49"/>
      </g>
     </g>
    </g>
    <g id="xtick_6">
     <g id="line2d_6">
      <g>
       <use style="stroke:#000000;stroke-width:0.8;" x="423.164951" xlink:href="#m9e0e7ce883" y="279.86258"/>
      </g>
     </g>
     <g id="text_6">
      <!-- 2020-05-15 -->
      <g transform="translate(404.569148 333.329439)rotate(-45)scale(0.1 -0.1)">
       <use xlink:href="#DejaVuSans-50"/>
       <use x="63.623047" xlink:href="#DejaVuSans-48"/>
       <use x="127.246094" xlink:href="#DejaVuSans-50"/>
       <use x="190.869141" xlink:href="#DejaVuSans-48"/>
       <use x="254.492188" xlink:href="#DejaVuSans-45"/>
       <use x="290.576172" xlink:href="#DejaVuSans-48"/>
       <use x="354.199219" xlink:href="#DejaVuSans-53"/>
       <use x="417.822266" xlink:href="#DejaVuSans-45"/>
       <use x="453.90625" xlink:href="#DejaVuSans-49"/>
       <use x="517.529297" xlink:href="#DejaVuSans-53"/>
      </g>
     </g>
    </g>
   </g>
   <g id="matplotlib.axis_2">
    <g id="ytick_1">
     <g id="line2d_7">
      <defs>
       <path d="M 0 0 
L -3.5 0 
" id="mff7efc72f6" style="stroke:#000000;stroke-width:0.8;"/>
      </defs>
      <g>
       <use style="stroke:#000000;stroke-width:0.8;" x="38.240625" xlink:href="#mff7efc72f6" y="279.86258"/>
      </g>
     </g>
     <g id="text_7">
      <!-- 0 -->
      <g transform="translate(24.878125 283.661798)scale(0.1 -0.1)">
       <use xlink:href="#DejaVuSans-48"/>
      </g>
     </g>
    </g>
    <g id="ytick_2">
     <g id="line2d_8">
      <g>
       <use style="stroke:#000000;stroke-width:0.8;" x="38.240625" xlink:href="#mff7efc72f6" y="249.007874"/>
      </g>
     </g>
     <g id="text_8">
      <!-- 1 -->
      <g transform="translate(24.878125 252.807093)scale(0.1 -0.1)">
       <use xlink:href="#DejaVuSans-49"/>
      </g>
     </g>
    </g>
    <g id="ytick_3">
     <g id="line2d_9">
      <g>
       <use style="stroke:#000000;stroke-width:0.8;" x="38.240625" xlink:href="#mff7efc72f6" y="218.153169"/>
      </g>
     </g>
     <g id="text_9">
      <!-- 2 -->
      <g transform="translate(24.878125 221.952387)scale(0.1 -0.1)">
       <use xlink:href="#DejaVuSans-50"/>
      </g>
     </g>
    </g>
    <g id="ytick_4">
     <g id="line2d_10">
      <g>
       <use style="stroke:#000000;stroke-width:0.8;" x="38.240625" xlink:href="#mff7efc72f6" y="187.298463"/>
      </g>
     </g>
     <g id="text_10">
      <!-- 3 -->
      <g transform="translate(24.878125 191.097682)scale(0.1 -0.1)">
       <use xlink:href="#DejaVuSans-51"/>
      </g>
     </g>
    </g>
    <g id="ytick_5">
     <g id="line2d_11">
      <g>
       <use style="stroke:#000000;stroke-width:0.8;" x="38.240625" xlink:href="#mff7efc72f6" y="156.443757"/>
      </g>
     </g>
     <g id="text_11">
      <!-- 4 -->
      <g transform="translate(24.878125 160.242976)scale(0.1 -0.1)">
       <use xlink:href="#DejaVuSans-52"/>
      </g>
     </g>
    </g>
    <g id="ytick_6">
     <g id="line2d_12">
      <g>
       <use style="stroke:#000000;stroke-width:0.8;" x="38.240625" xlink:href="#mff7efc72f6" y="125.589052"/>
      </g>
     </g>
     <g id="text_12">
      <!-- 5 -->
      <g transform="translate(24.878125 129.388271)scale(0.1 -0.1)">
       <use xlink:href="#DejaVuSans-53"/>
      </g>
     </g>
    </g>
    <g id="ytick_7">
     <g id="line2d_13">
      <g>
       <use style="stroke:#000000;stroke-width:0.8;" x="38.240625" xlink:href="#mff7efc72f6" y="94.734346"/>
      </g>
     </g>
     <g id="text_13">
      <!-- 6 -->
      <defs>
       <path d="M 33.015625 40.375 
Q 26.375 40.375 22.484375 35.828125 
Q 18.609375 31.296875 18.609375 23.390625 
Q 18.609375 15.53125 22.484375 10.953125 
Q 26.375 6.390625 33.015625 6.390625 
Q 39.65625 6.390625 43.53125 10.953125 
Q 47.40625 15.53125 47.40625 23.390625 
Q 47.40625 31.296875 43.53125 35.828125 
Q 39.65625 40.375 33.015625 40.375 
z
M 52.59375 71.296875 
L 52.59375 62.3125 
Q 48.875 64.0625 45.09375 64.984375 
Q 41.3125 65.921875 37.59375 65.921875 
Q 27.828125 65.921875 22.671875 59.328125 
Q 17.53125 52.734375 16.796875 39.40625 
Q 19.671875 43.65625 24.015625 45.921875 
Q 28.375 48.1875 33.59375 48.1875 
Q 44.578125 48.1875 50.953125 41.515625 
Q 57.328125 34.859375 57.328125 23.390625 
Q 57.328125 12.15625 50.6875 5.359375 
Q 44.046875 -1.421875 33.015625 -1.421875 
Q 20.359375 -1.421875 13.671875 8.265625 
Q 6.984375 17.96875 6.984375 36.375 
Q 6.984375 53.65625 15.1875 63.9375 
Q 23.390625 74.21875 37.203125 74.21875 
Q 40.921875 74.21875 44.703125 73.484375 
Q 48.484375 72.75 52.59375 71.296875 
z
" id="DejaVuSans-54"/>
      </defs>
      <g transform="translate(24.878125 98.533565)scale(0.1 -0.1)">
       <use xlink:href="#DejaVuSans-54"/>
      </g>
     </g>
    </g>
    <g id="ytick_8">
     <g id="line2d_14">
      <g>
       <use style="stroke:#000000;stroke-width:0.8;" x="38.240625" xlink:href="#mff7efc72f6" y="63.879641"/>
      </g>
     </g>
     <g id="text_14">
      <!-- 7 -->
      <defs>
       <path d="M 8.203125 72.90625 
L 55.078125 72.90625 
L 55.078125 68.703125 
L 28.609375 0 
L 18.3125 0 
L 43.21875 64.59375 
L 8.203125 64.59375 
z
" id="DejaVuSans-55"/>
      </defs>
      <g transform="translate(24.878125 67.678859)scale(0.1 -0.1)">
       <use xlink:href="#DejaVuSans-55"/>
      </g>
     </g>
    </g>
    <g id="ytick_9">
     <g id="line2d_15">
      <g>
       <use style="stroke:#000000;stroke-width:0.8;" x="38.240625" xlink:href="#mff7efc72f6" y="33.024935"/>
      </g>
     </g>
     <g id="text_15">
      <!-- 8 -->
      <defs>
       <path d="M 31.78125 34.625 
Q 24.75 34.625 20.71875 30.859375 
Q 16.703125 27.09375 16.703125 20.515625 
Q 16.703125 13.921875 20.71875 10.15625 
Q 24.75 6.390625 31.78125 6.390625 
Q 38.8125 6.390625 42.859375 10.171875 
Q 46.921875 13.96875 46.921875 20.515625 
Q 46.921875 27.09375 42.890625 30.859375 
Q 38.875 34.625 31.78125 34.625 
z
M 21.921875 38.8125 
Q 15.578125 40.375 12.03125 44.71875 
Q 8.5 49.078125 8.5 55.328125 
Q 8.5 64.0625 14.71875 69.140625 
Q 20.953125 74.21875 31.78125 74.21875 
Q 42.671875 74.21875 48.875 69.140625 
Q 55.078125 64.0625 55.078125 55.328125 
Q 55.078125 49.078125 51.53125 44.71875 
Q 48 40.375 41.703125 38.8125 
Q 48.828125 37.15625 52.796875 32.3125 
Q 56.78125 27.484375 56.78125 20.515625 
Q 56.78125 9.90625 50.3125 4.234375 
Q 43.84375 -1.421875 31.78125 -1.421875 
Q 19.734375 -1.421875 13.25 4.234375 
Q 6.78125 9.90625 6.78125 20.515625 
Q 6.78125 27.484375 10.78125 32.3125 
Q 14.796875 37.15625 21.921875 38.8125 
z
M 18.3125 54.390625 
Q 18.3125 48.734375 21.84375 45.5625 
Q 25.390625 42.390625 31.78125 42.390625 
Q 38.140625 42.390625 41.71875 45.5625 
Q 45.3125 48.734375 45.3125 54.390625 
Q 45.3125 60.0625 41.71875 63.234375 
Q 38.140625 66.40625 31.78125 66.40625 
Q 25.390625 66.40625 21.84375 63.234375 
Q 18.3125 60.0625 18.3125 54.390625 
z
" id="DejaVuSans-56"/>
      </defs>
      <g transform="translate(24.878125 36.824154)scale(0.1 -0.1)">
       <use xlink:href="#DejaVuSans-56"/>
      </g>
     </g>
    </g>
    <g id="text_16">
     <!-- ML pcr (por 100000 hab.) (Media 3 días) -->
     <defs>
      <path d="M 9.8125 72.90625 
L 24.515625 72.90625 
L 43.109375 23.296875 
L 61.8125 72.90625 
L 76.515625 72.90625 
L 76.515625 0 
L 66.890625 0 
L 66.890625 64.015625 
L 48.09375 14.015625 
L 38.1875 14.015625 
L 19.390625 64.015625 
L 19.390625 0 
L 9.8125 0 
z
" id="DejaVuSans-77"/>
      <path d="M 9.8125 72.90625 
L 19.671875 72.90625 
L 19.671875 8.296875 
L 55.171875 8.296875 
L 55.171875 0 
L 9.8125 0 
z
" id="DejaVuSans-76"/>
      <path id="DejaVuSans-32"/>
      <path d="M 18.109375 8.203125 
L 18.109375 -20.796875 
L 9.078125 -20.796875 
L 9.078125 54.6875 
L 18.109375 54.6875 
L 18.109375 46.390625 
Q 20.953125 51.265625 25.265625 53.625 
Q 29.59375 56 35.59375 56 
Q 45.5625 56 51.78125 48.09375 
Q 58.015625 40.1875 58.015625 27.296875 
Q 58.015625 14.40625 51.78125 6.484375 
Q 45.5625 -1.421875 35.59375 -1.421875 
Q 29.59375 -1.421875 25.265625 0.953125 
Q 20.953125 3.328125 18.109375 8.203125 
z
M 48.6875 27.296875 
Q 48.6875 37.203125 44.609375 42.84375 
Q 40.53125 48.484375 33.40625 48.484375 
Q 26.265625 48.484375 22.1875 42.84375 
Q 18.109375 37.203125 18.109375 27.296875 
Q 18.109375 17.390625 22.1875 11.75 
Q 26.265625 6.109375 33.40625 6.109375 
Q 40.53125 6.109375 44.609375 11.75 
Q 48.6875 17.390625 48.6875 27.296875 
z
" id="DejaVuSans-112"/>
      <path d="M 48.78125 52.59375 
L 48.78125 44.1875 
Q 44.96875 46.296875 41.140625 47.34375 
Q 37.3125 48.390625 33.40625 48.390625 
Q 24.65625 48.390625 19.8125 42.84375 
Q 14.984375 37.3125 14.984375 27.296875 
Q 14.984375 17.28125 19.8125 11.734375 
Q 24.65625 6.203125 33.40625 6.203125 
Q 37.3125 6.203125 41.140625 7.25 
Q 44.96875 8.296875 48.78125 10.40625 
L 48.78125 2.09375 
Q 45.015625 0.34375 40.984375 -0.53125 
Q 36.96875 -1.421875 32.421875 -1.421875 
Q 20.0625 -1.421875 12.78125 6.34375 
Q 5.515625 14.109375 5.515625 27.296875 
Q 5.515625 40.671875 12.859375 48.328125 
Q 20.21875 56 33.015625 56 
Q 37.15625 56 41.109375 55.140625 
Q 45.0625 54.296875 48.78125 52.59375 
z
" id="DejaVuSans-99"/>
      <path d="M 41.109375 46.296875 
Q 39.59375 47.171875 37.8125 47.578125 
Q 36.03125 48 33.890625 48 
Q 26.265625 48 22.1875 43.046875 
Q 18.109375 38.09375 18.109375 28.8125 
L 18.109375 0 
L 9.078125 0 
L 9.078125 54.6875 
L 18.109375 54.6875 
L 18.109375 46.1875 
Q 20.953125 51.171875 25.484375 53.578125 
Q 30.03125 56 36.53125 56 
Q 37.453125 56 38.578125 55.875 
Q 39.703125 55.765625 41.0625 55.515625 
z
" id="DejaVuSans-114"/>
      <path d="M 31 75.875 
Q 24.46875 64.65625 21.28125 53.65625 
Q 18.109375 42.671875 18.109375 31.390625 
Q 18.109375 20.125 21.3125 9.0625 
Q 24.515625 -2 31 -13.1875 
L 23.1875 -13.1875 
Q 15.875 -1.703125 12.234375 9.375 
Q 8.59375 20.453125 8.59375 31.390625 
Q 8.59375 42.28125 12.203125 53.3125 
Q 15.828125 64.359375 23.1875 75.875 
z
" id="DejaVuSans-40"/>
      <path d="M 30.609375 48.390625 
Q 23.390625 48.390625 19.1875 42.75 
Q 14.984375 37.109375 14.984375 27.296875 
Q 14.984375 17.484375 19.15625 11.84375 
Q 23.34375 6.203125 30.609375 6.203125 
Q 37.796875 6.203125 41.984375 11.859375 
Q 46.1875 17.53125 46.1875 27.296875 
Q 46.1875 37.015625 41.984375 42.703125 
Q 37.796875 48.390625 30.609375 48.390625 
z
M 30.609375 56 
Q 42.328125 56 49.015625 48.375 
Q 55.71875 40.765625 55.71875 27.296875 
Q 55.71875 13.875 49.015625 6.21875 
Q 42.328125 -1.421875 30.609375 -1.421875 
Q 18.84375 -1.421875 12.171875 6.21875 
Q 5.515625 13.875 5.515625 27.296875 
Q 5.515625 40.765625 12.171875 48.375 
Q 18.84375 56 30.609375 56 
z
" id="DejaVuSans-111"/>
      <path d="M 54.890625 33.015625 
L 54.890625 0 
L 45.90625 0 
L 45.90625 32.71875 
Q 45.90625 40.484375 42.875 44.328125 
Q 39.84375 48.1875 33.796875 48.1875 
Q 26.515625 48.1875 22.3125 43.546875 
Q 18.109375 38.921875 18.109375 30.90625 
L 18.109375 0 
L 9.078125 0 
L 9.078125 75.984375 
L 18.109375 75.984375 
L 18.109375 46.1875 
Q 21.34375 51.125 25.703125 53.5625 
Q 30.078125 56 35.796875 56 
Q 45.21875 56 50.046875 50.171875 
Q 54.890625 44.34375 54.890625 33.015625 
z
" id="DejaVuSans-104"/>
      <path d="M 34.28125 27.484375 
Q 23.390625 27.484375 19.1875 25 
Q 14.984375 22.515625 14.984375 16.5 
Q 14.984375 11.71875 18.140625 8.90625 
Q 21.296875 6.109375 26.703125 6.109375 
Q 34.1875 6.109375 38.703125 11.40625 
Q 43.21875 16.703125 43.21875 25.484375 
L 43.21875 27.484375 
z
M 52.203125 31.203125 
L 52.203125 0 
L 43.21875 0 
L 43.21875 8.296875 
Q 40.140625 3.328125 35.546875 0.953125 
Q 30.953125 -1.421875 24.3125 -1.421875 
Q 15.921875 -1.421875 10.953125 3.296875 
Q 6 8.015625 6 15.921875 
Q 6 25.140625 12.171875 29.828125 
Q 18.359375 34.515625 30.609375 34.515625 
L 43.21875 34.515625 
L 43.21875 35.40625 
Q 43.21875 41.609375 39.140625 45 
Q 35.0625 48.390625 27.6875 48.390625 
Q 23 48.390625 18.546875 47.265625 
Q 14.109375 46.140625 10.015625 43.890625 
L 10.015625 52.203125 
Q 14.9375 54.109375 19.578125 55.046875 
Q 24.21875 56 28.609375 56 
Q 40.484375 56 46.34375 49.84375 
Q 52.203125 43.703125 52.203125 31.203125 
z
" id="DejaVuSans-97"/>
      <path d="M 48.6875 27.296875 
Q 48.6875 37.203125 44.609375 42.84375 
Q 40.53125 48.484375 33.40625 48.484375 
Q 26.265625 48.484375 22.1875 42.84375 
Q 18.109375 37.203125 18.109375 27.296875 
Q 18.109375 17.390625 22.1875 11.75 
Q 26.265625 6.109375 33.40625 6.109375 
Q 40.53125 6.109375 44.609375 11.75 
Q 48.6875 17.390625 48.6875 27.296875 
z
M 18.109375 46.390625 
Q 20.953125 51.265625 25.265625 53.625 
Q 29.59375 56 35.59375 56 
Q 45.5625 56 51.78125 48.09375 
Q 58.015625 40.1875 58.015625 27.296875 
Q 58.015625 14.40625 51.78125 6.484375 
Q 45.5625 -1.421875 35.59375 -1.421875 
Q 29.59375 -1.421875 25.265625 0.953125 
Q 20.953125 3.328125 18.109375 8.203125 
L 18.109375 0 
L 9.078125 0 
L 9.078125 75.984375 
L 18.109375 75.984375 
z
" id="DejaVuSans-98"/>
      <path d="M 10.6875 12.40625 
L 21 12.40625 
L 21 0 
L 10.6875 0 
z
" id="DejaVuSans-46"/>
      <path d="M 8.015625 75.875 
L 15.828125 75.875 
Q 23.140625 64.359375 26.78125 53.3125 
Q 30.421875 42.28125 30.421875 31.390625 
Q 30.421875 20.453125 26.78125 9.375 
Q 23.140625 -1.703125 15.828125 -13.1875 
L 8.015625 -13.1875 
Q 14.5 -2 17.703125 9.0625 
Q 20.90625 20.125 20.90625 31.390625 
Q 20.90625 42.671875 17.703125 53.65625 
Q 14.5 64.65625 8.015625 75.875 
z
" id="DejaVuSans-41"/>
      <path d="M 56.203125 29.59375 
L 56.203125 25.203125 
L 14.890625 25.203125 
Q 15.484375 15.921875 20.484375 11.0625 
Q 25.484375 6.203125 34.421875 6.203125 
Q 39.59375 6.203125 44.453125 7.46875 
Q 49.3125 8.734375 54.109375 11.28125 
L 54.109375 2.78125 
Q 49.265625 0.734375 44.1875 -0.34375 
Q 39.109375 -1.421875 33.890625 -1.421875 
Q 20.796875 -1.421875 13.15625 6.1875 
Q 5.515625 13.8125 5.515625 26.8125 
Q 5.515625 40.234375 12.765625 48.109375 
Q 20.015625 56 32.328125 56 
Q 43.359375 56 49.78125 48.890625 
Q 56.203125 41.796875 56.203125 29.59375 
z
M 47.21875 32.234375 
Q 47.125 39.59375 43.09375 43.984375 
Q 39.0625 48.390625 32.421875 48.390625 
Q 24.90625 48.390625 20.390625 44.140625 
Q 15.875 39.890625 15.1875 32.171875 
z
" id="DejaVuSans-101"/>
      <path d="M 45.40625 46.390625 
L 45.40625 75.984375 
L 54.390625 75.984375 
L 54.390625 0 
L 45.40625 0 
L 45.40625 8.203125 
Q 42.578125 3.328125 38.25 0.953125 
Q 33.9375 -1.421875 27.875 -1.421875 
Q 17.96875 -1.421875 11.734375 6.484375 
Q 5.515625 14.40625 5.515625 27.296875 
Q 5.515625 40.1875 11.734375 48.09375 
Q 17.96875 56 27.875 56 
Q 33.9375 56 38.25 53.625 
Q 42.578125 51.265625 45.40625 46.390625 
z
M 14.796875 27.296875 
Q 14.796875 17.390625 18.875 11.75 
Q 22.953125 6.109375 30.078125 6.109375 
Q 37.203125 6.109375 41.296875 11.75 
Q 45.40625 17.390625 45.40625 27.296875 
Q 45.40625 37.203125 41.296875 42.84375 
Q 37.203125 48.484375 30.078125 48.484375 
Q 22.953125 48.484375 18.875 42.84375 
Q 14.796875 37.203125 14.796875 27.296875 
z
" id="DejaVuSans-100"/>
      <path d="M 9.421875 54.6875 
L 18.40625 54.6875 
L 18.40625 0 
L 9.421875 0 
z
M 9.421875 75.984375 
L 18.40625 75.984375 
L 18.40625 64.59375 
L 9.421875 64.59375 
z
" id="DejaVuSans-105"/>
      <path d="M 20.65625 79.984375 
L 30.375 79.984375 
L 14.46875 61.625 
L 6.984375 61.625 
z
M 9.421875 54.6875 
L 18.40625 54.6875 
L 18.40625 0 
L 9.421875 0 
z
M 13.921875 56 
z
" id="DejaVuSans-237"/>
      <path d="M 44.28125 53.078125 
L 44.28125 44.578125 
Q 40.484375 46.53125 36.375 47.5 
Q 32.28125 48.484375 27.875 48.484375 
Q 21.1875 48.484375 17.84375 46.4375 
Q 14.5 44.390625 14.5 40.28125 
Q 14.5 37.15625 16.890625 35.375 
Q 19.28125 33.59375 26.515625 31.984375 
L 29.59375 31.296875 
Q 39.15625 29.25 43.1875 25.515625 
Q 47.21875 21.78125 47.21875 15.09375 
Q 47.21875 7.46875 41.1875 3.015625 
Q 35.15625 -1.421875 24.609375 -1.421875 
Q 20.21875 -1.421875 15.453125 -0.5625 
Q 10.6875 0.296875 5.421875 2 
L 5.421875 11.28125 
Q 10.40625 8.6875 15.234375 7.390625 
Q 20.0625 6.109375 24.8125 6.109375 
Q 31.15625 6.109375 34.5625 8.28125 
Q 37.984375 10.453125 37.984375 14.40625 
Q 37.984375 18.0625 35.515625 20.015625 
Q 33.0625 21.96875 24.703125 23.78125 
L 21.578125 24.515625 
Q 13.234375 26.265625 9.515625 29.90625 
Q 5.8125 33.546875 5.8125 39.890625 
Q 5.8125 47.609375 11.28125 51.796875 
Q 16.75 56 26.8125 56 
Q 31.78125 56 36.171875 55.265625 
Q 40.578125 54.546875 44.28125 53.078125 
z
" id="DejaVuSans-115"/>
     </defs>
     <g transform="translate(18.798438 246.140665)rotate(-90)scale(0.1 -0.1)">
      <use xlink:href="#DejaVuSans-77"/>
      <use x="86.279297" xlink:href="#DejaVuSans-76"/>
      <use x="141.992188" xlink:href="#DejaVuSans-32"/>
      <use x="173.779297" xlink:href="#DejaVuSans-112"/>
      <use x="237.255859" xlink:href="#DejaVuSans-99"/>
      <use x="292.236328" xlink:href="#DejaVuSans-114"/>
      <use x="333.349609" xlink:href="#DejaVuSans-32"/>
      <use x="365.136719" xlink:href="#DejaVuSans-40"/>
      <use x="404.150391" xlink:href="#DejaVuSans-112"/>
      <use x="467.626953" xlink:href="#DejaVuSans-111"/>
      <use x="528.808594" xlink:href="#DejaVuSans-114"/>
      <use x="569.921875" xlink:href="#DejaVuSans-32"/>
      <use x="601.708984" xlink:href="#DejaVuSans-49"/>
      <use x="665.332031" xlink:href="#DejaVuSans-48"/>
      <use x="728.955078" xlink:href="#DejaVuSans-48"/>
      <use x="792.578125" xlink:href="#DejaVuSans-48"/>
      <use x="856.201172" xlink:href="#DejaVuSans-48"/>
      <use x="919.824219" xlink:href="#DejaVuSans-48"/>
      <use x="983.447266" xlink:href="#DejaVuSans-32"/>
      <use x="1015.234375" xlink:href="#DejaVuSans-104"/>
      <use x="1078.613281" xlink:href="#DejaVuSans-97"/>
      <use x="1139.892578" xlink:href="#DejaVuSans-98"/>
      <use x="1203.369141" xlink:href="#DejaVuSans-46"/>
      <use x="1235.15625" xlink:href="#DejaVuSans-41"/>
      <use x="1274.169922" xlink:href="#DejaVuSans-32"/>
      <use x="1305.957031" xlink:href="#DejaVuSans-40"/>
      <use x="1344.970703" xlink:href="#DejaVuSans-77"/>
      <use x="1431.25" xlink:href="#DejaVuSans-101"/>
      <use x="1492.773438" xlink:href="#DejaVuSans-100"/>
      <use x="1556.25" xlink:href="#DejaVuSans-105"/>
      <use x="1584.033203" xlink:href="#DejaVuSans-97"/>
      <use x="1645.3125" xlink:href="#DejaVuSans-32"/>
      <use x="1677.099609" xlink:href="#DejaVuSans-51"/>
      <use x="1740.722656" xlink:href="#DejaVuSans-32"/>
      <use x="1772.509766" xlink:href="#DejaVuSans-100"/>
      <use x="1835.986328" xlink:href="#DejaVuSans-237"/>
      <use x="1863.769531" xlink:href="#DejaVuSans-97"/>
      <use x="1925.048828" xlink:href="#DejaVuSans-115"/>
      <use x="1977.148438" xlink:href="#DejaVuSans-41"/>
     </g>
    </g>
   </g>
   <g id="line2d_16">
    <path clip-path="url(#p38dd181a08)" d="M 56.78312 279.86258 
L 61.251191 279.86258 
L 65.719262 279.86258 
L 70.187333 279.86258 
L 74.655405 279.86258 
L 79.123476 279.86258 
L 83.591547 279.86258 
L 88.059618 279.86258 
L 92.527689 279.86258 
L 96.99576 279.86258 
L 101.463831 279.86258 
L 105.931902 279.86258 
L 110.399973 279.86258 
L 114.868045 279.86258 
L 119.336116 279.86258 
L 123.804187 279.86258 
L 128.272258 279.86258 
L 132.740329 279.86258 
L 137.2084 255.457811 
L 141.676471 243.255426 
L 146.144542 182.243503 
L 150.612614 206.648272 
L 155.080685 109.029196 
L 159.548756 133.433965 
L 164.016827 96.826811 
L 168.484898 194.445888 
L 172.952969 218.850657 
L 177.42104 255.457811 
L 181.889111 231.053041 
L 186.357182 243.255426 
L 190.825254 121.23158 
L 195.293325 145.636349 
L 199.761396 109.029196 
L 204.229467 194.445888 
L 208.697538 170.041119 
L 213.165609 170.041119 
L 217.63368 170.041119 
L 222.101751 109.029196 
L 226.569822 145.636349 
L 231.037894 84.624427 
L 235.505965 72.422042 
L 239.974036 23.612504 
L 244.442107 84.624427 
L 248.910178 121.23158 
L 253.378249 157.838734 
L 257.84632 194.445888 
L 262.314391 243.255426 
L 266.782462 218.850657 
L 271.250534 218.850657 
L 275.718605 206.648272 
L 280.186676 243.255426 
L 284.654747 231.053041 
L 289.122818 255.457811 
L 293.590889 243.255426 
L 298.05896 255.457811 
L 302.527031 267.660195 
L 306.995102 279.86258 
L 311.463174 267.660195 
L 315.931245 267.660195 
L 320.399316 255.457811 
L 324.867387 255.457811 
L 329.335458 243.255426 
L 333.803529 231.053041 
L 338.2716 243.255426 
L 342.739671 206.648272 
L 347.207742 231.053041 
L 351.675814 231.053041 
L 356.143885 267.660195 
L 360.611956 267.660195 
L 365.080027 243.255426 
L 369.548098 231.053041 
L 374.016169 231.053041 
L 378.48424 255.457811 
L 382.952311 279.86258 
L 387.420383 279.86258 
L 391.888454 279.86258 
L 396.356525 279.86258 
L 400.824596 279.86258 
L 405.292667 279.86258 
L 409.760738 279.86258 
L 414.228809 279.86258 
L 418.69688 279.86258 
L 423.164951 279.86258 
L 427.633023 255.457811 
" style="fill:none;stroke:#1f77b4;stroke-linecap:square;stroke-width:1.5;"/>
    <defs>
     <path d="M 0 1.5 
C 0.397805 1.5 0.77937 1.341951 1.06066 1.06066 
C 1.341951 0.77937 1.5 0.397805 1.5 0 
C 1.5 -0.397805 1.341951 -0.77937 1.06066 -1.06066 
C 0.77937 -1.341951 0.397805 -1.5 0 -1.5 
C -0.397805 -1.5 -0.77937 -1.341951 -1.06066 -1.06066 
C -1.341951 -0.77937 -1.5 -0.397805 -1.5 0 
C -1.5 0.397805 -1.341951 0.77937 -1.06066 1.06066 
C -0.77937 1.341951 -0.397805 1.5 0 1.5 
z
" id="mbf7467a9ea" style="stroke:#1f77b4;"/>
    </defs>
    <g clip-path="url(#p38dd181a08)">
     <use style="fill:#1f77b4;stroke:#1f77b4;" x="56.78312" xlink:href="#mbf7467a9ea" y="279.86258"/>
     <use style="fill:#1f77b4;stroke:#1f77b4;" x="61.251191" xlink:href="#mbf7467a9ea" y="279.86258"/>
     <use style="fill:#1f77b4;stroke:#1f77b4;" x="65.719262" xlink:href="#mbf7467a9ea" y="279.86258"/>
     <use style="fill:#1f77b4;stroke:#1f77b4;" x="70.187333" xlink:href="#mbf7467a9ea" y="279.86258"/>
     <use style="fill:#1f77b4;stroke:#1f77b4;" x="74.655405" xlink:href="#mbf7467a9ea" y="279.86258"/>
     <use style="fill:#1f77b4;stroke:#1f77b4;" x="79.123476" xlink:href="#mbf7467a9ea" y="279.86258"/>
     <use style="fill:#1f77b4;stroke:#1f77b4;" x="83.591547" xlink:href="#mbf7467a9ea" y="279.86258"/>
     <use style="fill:#1f77b4;stroke:#1f77b4;" x="88.059618" xlink:href="#mbf7467a9ea" y="279.86258"/>
     <use style="fill:#1f77b4;stroke:#1f77b4;" x="92.527689" xlink:href="#mbf7467a9ea" y="279.86258"/>
     <use style="fill:#1f77b4;stroke:#1f77b4;" x="96.99576" xlink:href="#mbf7467a9ea" y="279.86258"/>
     <use style="fill:#1f77b4;stroke:#1f77b4;" x="101.463831" xlink:href="#mbf7467a9ea" y="279.86258"/>
     <use style="fill:#1f77b4;stroke:#1f77b4;" x="105.931902" xlink:href="#mbf7467a9ea" y="279.86258"/>
     <use style="fill:#1f77b4;stroke:#1f77b4;" x="110.399973" xlink:href="#mbf7467a9ea" y="279.86258"/>
     <use style="fill:#1f77b4;stroke:#1f77b4;" x="114.868045" xlink:href="#mbf7467a9ea" y="279.86258"/>
     <use style="fill:#1f77b4;stroke:#1f77b4;" x="119.336116" xlink:href="#mbf7467a9ea" y="279.86258"/>
     <use style="fill:#1f77b4;stroke:#1f77b4;" x="123.804187" xlink:href="#mbf7467a9ea" y="279.86258"/>
     <use style="fill:#1f77b4;stroke:#1f77b4;" x="128.272258" xlink:href="#mbf7467a9ea" y="279.86258"/>
     <use style="fill:#1f77b4;stroke:#1f77b4;" x="132.740329" xlink:href="#mbf7467a9ea" y="279.86258"/>
     <use style="fill:#1f77b4;stroke:#1f77b4;" x="137.2084" xlink:href="#mbf7467a9ea" y="255.457811"/>
     <use style="fill:#1f77b4;stroke:#1f77b4;" x="141.676471" xlink:href="#mbf7467a9ea" y="243.255426"/>
     <use style="fill:#1f77b4;stroke:#1f77b4;" x="146.144542" xlink:href="#mbf7467a9ea" y="182.243503"/>
     <use style="fill:#1f77b4;stroke:#1f77b4;" x="150.612614" xlink:href="#mbf7467a9ea" y="206.648272"/>
     <use style="fill:#1f77b4;stroke:#1f77b4;" x="155.080685" xlink:href="#mbf7467a9ea" y="109.029196"/>
     <use style="fill:#1f77b4;stroke:#1f77b4;" x="159.548756" xlink:href="#mbf7467a9ea" y="133.433965"/>
     <use style="fill:#1f77b4;stroke:#1f77b4;" x="164.016827" xlink:href="#mbf7467a9ea" y="96.826811"/>
     <use style="fill:#1f77b4;stroke:#1f77b4;" x="168.484898" xlink:href="#mbf7467a9ea" y="194.445888"/>
     <use style="fill:#1f77b4;stroke:#1f77b4;" x="172.952969" xlink:href="#mbf7467a9ea" y="218.850657"/>
     <use style="fill:#1f77b4;stroke:#1f77b4;" x="177.42104" xlink:href="#mbf7467a9ea" y="255.457811"/>
     <use style="fill:#1f77b4;stroke:#1f77b4;" x="181.889111" xlink:href="#mbf7467a9ea" y="231.053041"/>
     <use style="fill:#1f77b4;stroke:#1f77b4;" x="186.357182" xlink:href="#mbf7467a9ea" y="243.255426"/>
     <use style="fill:#1f77b4;stroke:#1f77b4;" x="190.825254" xlink:href="#mbf7467a9ea" y="121.23158"/>
     <use style="fill:#1f77b4;stroke:#1f77b4;" x="195.293325" xlink:href="#mbf7467a9ea" y="145.636349"/>
     <use style="fill:#1f77b4;stroke:#1f77b4;" x="199.761396" xlink:href="#mbf7467a9ea" y="109.029196"/>
     <use style="fill:#1f77b4;stroke:#1f77b4;" x="204.229467" xlink:href="#mbf7467a9ea" y="194.445888"/>
     <use style="fill:#1f77b4;stroke:#1f77b4;" x="208.697538" xlink:href="#mbf7467a9ea" y="170.041119"/>
     <use style="fill:#1f77b4;stroke:#1f77b4;" x="213.165609" xlink:href="#mbf7467a9ea" y="170.041119"/>
     <use style="fill:#1f77b4;stroke:#1f77b4;" x="217.63368" xlink:href="#mbf7467a9ea" y="170.041119"/>
     <use style="fill:#1f77b4;stroke:#1f77b4;" x="222.101751" xlink:href="#mbf7467a9ea" y="109.029196"/>
     <use style="fill:#1f77b4;stroke:#1f77b4;" x="226.569822" xlink:href="#mbf7467a9ea" y="145.636349"/>
     <use style="fill:#1f77b4;stroke:#1f77b4;" x="231.037894" xlink:href="#mbf7467a9ea" y="84.624427"/>
     <use style="fill:#1f77b4;stroke:#1f77b4;" x="235.505965" xlink:href="#mbf7467a9ea" y="72.422042"/>
     <use style="fill:#1f77b4;stroke:#1f77b4;" x="239.974036" xlink:href="#mbf7467a9ea" y="23.612504"/>
     <use style="fill:#1f77b4;stroke:#1f77b4;" x="244.442107" xlink:href="#mbf7467a9ea" y="84.624427"/>
     <use style="fill:#1f77b4;stroke:#1f77b4;" x="248.910178" xlink:href="#mbf7467a9ea" y="121.23158"/>
     <use style="fill:#1f77b4;stroke:#1f77b4;" x="253.378249" xlink:href="#mbf7467a9ea" y="157.838734"/>
     <use style="fill:#1f77b4;stroke:#1f77b4;" x="257.84632" xlink:href="#mbf7467a9ea" y="194.445888"/>
     <use style="fill:#1f77b4;stroke:#1f77b4;" x="262.314391" xlink:href="#mbf7467a9ea" y="243.255426"/>
     <use style="fill:#1f77b4;stroke:#1f77b4;" x="266.782462" xlink:href="#mbf7467a9ea" y="218.850657"/>
     <use style="fill:#1f77b4;stroke:#1f77b4;" x="271.250534" xlink:href="#mbf7467a9ea" y="218.850657"/>
     <use style="fill:#1f77b4;stroke:#1f77b4;" x="275.718605" xlink:href="#mbf7467a9ea" y="206.648272"/>
     <use style="fill:#1f77b4;stroke:#1f77b4;" x="280.186676" xlink:href="#mbf7467a9ea" y="243.255426"/>
     <use style="fill:#1f77b4;stroke:#1f77b4;" x="284.654747" xlink:href="#mbf7467a9ea" y="231.053041"/>
     <use style="fill:#1f77b4;stroke:#1f77b4;" x="289.122818" xlink:href="#mbf7467a9ea" y="255.457811"/>
     <use style="fill:#1f77b4;stroke:#1f77b4;" x="293.590889" xlink:href="#mbf7467a9ea" y="243.255426"/>
     <use style="fill:#1f77b4;stroke:#1f77b4;" x="298.05896" xlink:href="#mbf7467a9ea" y="255.457811"/>
     <use style="fill:#1f77b4;stroke:#1f77b4;" x="302.527031" xlink:href="#mbf7467a9ea" y="267.660195"/>
     <use style="fill:#1f77b4;stroke:#1f77b4;" x="306.995102" xlink:href="#mbf7467a9ea" y="279.86258"/>
     <use style="fill:#1f77b4;stroke:#1f77b4;" x="311.463174" xlink:href="#mbf7467a9ea" y="267.660195"/>
     <use style="fill:#1f77b4;stroke:#1f77b4;" x="315.931245" xlink:href="#mbf7467a9ea" y="267.660195"/>
     <use style="fill:#1f77b4;stroke:#1f77b4;" x="320.399316" xlink:href="#mbf7467a9ea" y="255.457811"/>
     <use style="fill:#1f77b4;stroke:#1f77b4;" x="324.867387" xlink:href="#mbf7467a9ea" y="255.457811"/>
     <use style="fill:#1f77b4;stroke:#1f77b4;" x="329.335458" xlink:href="#mbf7467a9ea" y="243.255426"/>
     <use style="fill:#1f77b4;stroke:#1f77b4;" x="333.803529" xlink:href="#mbf7467a9ea" y="231.053041"/>
     <use style="fill:#1f77b4;stroke:#1f77b4;" x="338.2716" xlink:href="#mbf7467a9ea" y="243.255426"/>
     <use style="fill:#1f77b4;stroke:#1f77b4;" x="342.739671" xlink:href="#mbf7467a9ea" y="206.648272"/>
     <use style="fill:#1f77b4;stroke:#1f77b4;" x="347.207742" xlink:href="#mbf7467a9ea" y="231.053041"/>
     <use style="fill:#1f77b4;stroke:#1f77b4;" x="351.675814" xlink:href="#mbf7467a9ea" y="231.053041"/>
     <use style="fill:#1f77b4;stroke:#1f77b4;" x="356.143885" xlink:href="#mbf7467a9ea" y="267.660195"/>
     <use style="fill:#1f77b4;stroke:#1f77b4;" x="360.611956" xlink:href="#mbf7467a9ea" y="267.660195"/>
     <use style="fill:#1f77b4;stroke:#1f77b4;" x="365.080027" xlink:href="#mbf7467a9ea" y="243.255426"/>
     <use style="fill:#1f77b4;stroke:#1f77b4;" x="369.548098" xlink:href="#mbf7467a9ea" y="231.053041"/>
     <use style="fill:#1f77b4;stroke:#1f77b4;" x="374.016169" xlink:href="#mbf7467a9ea" y="231.053041"/>
     <use style="fill:#1f77b4;stroke:#1f77b4;" x="378.48424" xlink:href="#mbf7467a9ea" y="255.457811"/>
     <use style="fill:#1f77b4;stroke:#1f77b4;" x="382.952311" xlink:href="#mbf7467a9ea" y="279.86258"/>
     <use style="fill:#1f77b4;stroke:#1f77b4;" x="387.420383" xlink:href="#mbf7467a9ea" y="279.86258"/>
     <use style="fill:#1f77b4;stroke:#1f77b4;" x="391.888454" xlink:href="#mbf7467a9ea" y="279.86258"/>
     <use style="fill:#1f77b4;stroke:#1f77b4;" x="396.356525" xlink:href="#mbf7467a9ea" y="279.86258"/>
     <use style="fill:#1f77b4;stroke:#1f77b4;" x="400.824596" xlink:href="#mbf7467a9ea" y="279.86258"/>
     <use style="fill:#1f77b4;stroke:#1f77b4;" x="405.292667" xlink:href="#mbf7467a9ea" y="279.86258"/>
     <use style="fill:#1f77b4;stroke:#1f77b4;" x="409.760738" xlink:href="#mbf7467a9ea" y="279.86258"/>
     <use style="fill:#1f77b4;stroke:#1f77b4;" x="414.228809" xlink:href="#mbf7467a9ea" y="279.86258"/>
     <use style="fill:#1f77b4;stroke:#1f77b4;" x="418.69688" xlink:href="#mbf7467a9ea" y="279.86258"/>
     <use style="fill:#1f77b4;stroke:#1f77b4;" x="423.164951" xlink:href="#mbf7467a9ea" y="279.86258"/>
     <use style="fill:#1f77b4;stroke:#1f77b4;" x="427.633023" xlink:href="#mbf7467a9ea" y="255.457811"/>
    </g>
   </g>
   <g id="patch_3">
    <path d="M 38.240625 279.86258 
L 38.240625 10.8 
" style="fill:none;stroke:#000000;stroke-linecap:square;stroke-linejoin:miter;stroke-width:0.8;"/>
   </g>
   <g id="patch_4">
    <path d="M 446.175518 279.86258 
L 446.175518 10.8 
" style="fill:none;stroke:#000000;stroke-linecap:square;stroke-linejoin:miter;stroke-width:0.8;"/>
   </g>
   <g id="patch_5">
    <path d="M 38.240625 279.86258 
L 446.175518 279.86258 
" style="fill:none;stroke:#000000;stroke-linecap:square;stroke-linejoin:miter;stroke-width:0.8;"/>
   </g>
   <g id="patch_6">
    <path d="M 38.240625 10.8 
L 446.175518 10.8 
" style="fill:none;stroke:#000000;stroke-linecap:square;stroke-linejoin:miter;stroke-width:0.8;"/>
   </g>
  </g>
 </g>
 <defs>
  <clipPath id="p38dd181a08">
   <rect height="269.06258" width="407.934893" x="38.240625" y="10.8"/>
  </clipPath>
 </defs>
</svg>
