<?xml version="1.0" encoding="utf-8" standalone="no"?>
<!DOCTYPE svg PUBLIC "-//W3C//DTD SVG 1.1//EN"
  "http://www.w3.org/Graphics/SVG/1.1/DTD/svg11.dtd">
<!-- Created with matplotlib (https://matplotlib.org/) -->
<svg height="345.6pt" version="1.1" viewBox="0 0 460.8 345.6" width="460.8pt" xmlns="http://www.w3.org/2000/svg" xmlns:xlink="http://www.w3.org/1999/xlink">
 <defs>
  <style type="text/css">
*{stroke-linecap:butt;stroke-linejoin:round;}
  </style>
 </defs>
 <g id="figure_1">
  <g id="patch_1">
   <path d="M 0 345.6 
L 460.8 345.6 
L 460.8 0 
L 0 0 
z
" style="fill:#ffffff;"/>
  </g>
  <g id="axes_1">
   <g id="patch_2">
    <path d="M 44.203125 279.86258 
L 450 279.86258 
L 450 10.8 
L 44.203125 10.8 
z
" style="fill:#ffffff;"/>
   </g>
   <g id="matplotlib.axis_1">
    <g id="xtick_1">
     <g id="line2d_1">
      <defs>
       <path d="M 0 0 
L 0 3.5 
" id="m1e5fb1939f" style="stroke:#000000;stroke-width:0.8;"/>
      </defs>
      <g>
       <use style="stroke:#000000;stroke-width:0.8;" x="94.727242" xlink:href="#m1e5fb1939f" y="279.86258"/>
      </g>
     </g>
     <g id="text_1">
      <!-- 2020-03-15 -->
      <defs>
       <path d="M 19.1875 8.296875 
L 53.609375 8.296875 
L 53.609375 0 
L 7.328125 0 
L 7.328125 8.296875 
Q 12.9375 14.109375 22.625 23.890625 
Q 32.328125 33.6875 34.8125 36.53125 
Q 39.546875 41.84375 41.421875 45.53125 
Q 43.3125 49.21875 43.3125 52.78125 
Q 43.3125 58.59375 39.234375 62.25 
Q 35.15625 65.921875 28.609375 65.921875 
Q 23.96875 65.921875 18.8125 64.3125 
Q 13.671875 62.703125 7.8125 59.421875 
L 7.8125 69.390625 
Q 13.765625 71.78125 18.9375 73 
Q 24.125 74.21875 28.421875 74.21875 
Q 39.75 74.21875 46.484375 68.546875 
Q 53.21875 62.890625 53.21875 53.421875 
Q 53.21875 48.921875 51.53125 44.890625 
Q 49.859375 40.875 45.40625 35.40625 
Q 44.1875 33.984375 37.640625 27.21875 
Q 31.109375 20.453125 19.1875 8.296875 
z
" id="DejaVuSans-50"/>
       <path d="M 31.78125 66.40625 
Q 24.171875 66.40625 20.328125 58.90625 
Q 16.5 51.421875 16.5 36.375 
Q 16.5 21.390625 20.328125 13.890625 
Q 24.171875 6.390625 31.78125 6.390625 
Q 39.453125 6.390625 43.28125 13.890625 
Q 47.125 21.390625 47.125 36.375 
Q 47.125 51.421875 43.28125 58.90625 
Q 39.453125 66.40625 31.78125 66.40625 
z
M 31.78125 74.21875 
Q 44.046875 74.21875 50.515625 64.515625 
Q 56.984375 54.828125 56.984375 36.375 
Q 56.984375 17.96875 50.515625 8.265625 
Q 44.046875 -1.421875 31.78125 -1.421875 
Q 19.53125 -1.421875 13.0625 8.265625 
Q 6.59375 17.96875 6.59375 36.375 
Q 6.59375 54.828125 13.0625 64.515625 
Q 19.53125 74.21875 31.78125 74.21875 
z
" id="DejaVuSans-48"/>
       <path d="M 4.890625 31.390625 
L 31.203125 31.390625 
L 31.203125 23.390625 
L 4.890625 23.390625 
z
" id="DejaVuSans-45"/>
       <path d="M 40.578125 39.3125 
Q 47.65625 37.796875 51.625 33 
Q 55.609375 28.21875 55.609375 21.1875 
Q 55.609375 10.40625 48.1875 4.484375 
Q 40.765625 -1.421875 27.09375 -1.421875 
Q 22.515625 -1.421875 17.65625 -0.515625 
Q 12.796875 0.390625 7.625 2.203125 
L 7.625 11.71875 
Q 11.71875 9.328125 16.59375 8.109375 
Q 21.484375 6.890625 26.8125 6.890625 
Q 36.078125 6.890625 40.9375 10.546875 
Q 45.796875 14.203125 45.796875 21.1875 
Q 45.796875 27.640625 41.28125 31.265625 
Q 36.765625 34.90625 28.71875 34.90625 
L 20.21875 34.90625 
L 20.21875 43.015625 
L 29.109375 43.015625 
Q 36.375 43.015625 40.234375 45.921875 
Q 44.09375 48.828125 44.09375 54.296875 
Q 44.09375 59.90625 40.109375 62.90625 
Q 36.140625 65.921875 28.71875 65.921875 
Q 24.65625 65.921875 20.015625 65.03125 
Q 15.375 64.15625 9.8125 62.3125 
L 9.8125 71.09375 
Q 15.4375 72.65625 20.34375 73.4375 
Q 25.25 74.21875 29.59375 74.21875 
Q 40.828125 74.21875 47.359375 69.109375 
Q 53.90625 64.015625 53.90625 55.328125 
Q 53.90625 49.265625 50.4375 45.09375 
Q 46.96875 40.921875 40.578125 39.3125 
z
" id="DejaVuSans-51"/>
       <path d="M 12.40625 8.296875 
L 28.515625 8.296875 
L 28.515625 63.921875 
L 10.984375 60.40625 
L 10.984375 69.390625 
L 28.421875 72.90625 
L 38.28125 72.90625 
L 38.28125 8.296875 
L 54.390625 8.296875 
L 54.390625 0 
L 12.40625 0 
z
" id="DejaVuSans-49"/>
       <path d="M 10.796875 72.90625 
L 49.515625 72.90625 
L 49.515625 64.59375 
L 19.828125 64.59375 
L 19.828125 46.734375 
Q 21.96875 47.46875 24.109375 47.828125 
Q 26.265625 48.1875 28.421875 48.1875 
Q 40.625 48.1875 47.75 41.5 
Q 54.890625 34.8125 54.890625 23.390625 
Q 54.890625 11.625 47.5625 5.09375 
Q 40.234375 -1.421875 26.90625 -1.421875 
Q 22.3125 -1.421875 17.546875 -0.640625 
Q 12.796875 0.140625 7.71875 1.703125 
L 7.71875 11.625 
Q 12.109375 9.234375 16.796875 8.0625 
Q 21.484375 6.890625 26.703125 6.890625 
Q 35.15625 6.890625 40.078125 11.328125 
Q 45.015625 15.765625 45.015625 23.390625 
Q 45.015625 31 40.078125 35.4375 
Q 35.15625 39.890625 26.703125 39.890625 
Q 22.75 39.890625 18.8125 39.015625 
Q 14.890625 38.140625 10.796875 36.28125 
z
" id="DejaVuSans-53"/>
      </defs>
      <g transform="translate(76.131438 333.329439)rotate(-45)scale(0.1 -0.1)">
       <use xlink:href="#DejaVuSans-50"/>
       <use x="63.623047" xlink:href="#DejaVuSans-48"/>
       <use x="127.246094" xlink:href="#DejaVuSans-50"/>
       <use x="190.869141" xlink:href="#DejaVuSans-48"/>
       <use x="254.492188" xlink:href="#DejaVuSans-45"/>
       <use x="290.576172" xlink:href="#DejaVuSans-48"/>
       <use x="354.199219" xlink:href="#DejaVuSans-51"/>
       <use x="417.822266" xlink:href="#DejaVuSans-45"/>
       <use x="453.90625" xlink:href="#DejaVuSans-49"/>
       <use x="517.529297" xlink:href="#DejaVuSans-53"/>
      </g>
     </g>
    </g>
    <g id="xtick_2">
     <g id="line2d_2">
      <g>
       <use style="stroke:#000000;stroke-width:0.8;" x="185.617187" xlink:href="#m1e5fb1939f" y="279.86258"/>
      </g>
     </g>
     <g id="text_2">
      <!-- 2020-04-01 -->
      <defs>
       <path d="M 37.796875 64.3125 
L 12.890625 25.390625 
L 37.796875 25.390625 
z
M 35.203125 72.90625 
L 47.609375 72.90625 
L 47.609375 25.390625 
L 58.015625 25.390625 
L 58.015625 17.1875 
L 47.609375 17.1875 
L 47.609375 0 
L 37.796875 0 
L 37.796875 17.1875 
L 4.890625 17.1875 
L 4.890625 26.703125 
z
" id="DejaVuSans-52"/>
      </defs>
      <g transform="translate(167.021384 333.329439)rotate(-45)scale(0.1 -0.1)">
       <use xlink:href="#DejaVuSans-50"/>
       <use x="63.623047" xlink:href="#DejaVuSans-48"/>
       <use x="127.246094" xlink:href="#DejaVuSans-50"/>
       <use x="190.869141" xlink:href="#DejaVuSans-48"/>
       <use x="254.492188" xlink:href="#DejaVuSans-45"/>
       <use x="290.576172" xlink:href="#DejaVuSans-48"/>
       <use x="354.199219" xlink:href="#DejaVuSans-52"/>
       <use x="417.822266" xlink:href="#DejaVuSans-45"/>
       <use x="453.90625" xlink:href="#DejaVuSans-48"/>
       <use x="517.529297" xlink:href="#DejaVuSans-49"/>
      </g>
     </g>
    </g>
    <g id="xtick_3">
     <g id="line2d_3">
      <g>
       <use style="stroke:#000000;stroke-width:0.8;" x="260.467731" xlink:href="#m1e5fb1939f" y="279.86258"/>
      </g>
     </g>
     <g id="text_3">
      <!-- 2020-04-15 -->
      <g transform="translate(241.871927 333.329439)rotate(-45)scale(0.1 -0.1)">
       <use xlink:href="#DejaVuSans-50"/>
       <use x="63.623047" xlink:href="#DejaVuSans-48"/>
       <use x="127.246094" xlink:href="#DejaVuSans-50"/>
       <use x="190.869141" xlink:href="#DejaVuSans-48"/>
       <use x="254.492188" xlink:href="#DejaVuSans-45"/>
       <use x="290.576172" xlink:href="#DejaVuSans-48"/>
       <use x="354.199219" xlink:href="#DejaVuSans-52"/>
       <use x="417.822266" xlink:href="#DejaVuSans-45"/>
       <use x="453.90625" xlink:href="#DejaVuSans-49"/>
       <use x="517.529297" xlink:href="#DejaVuSans-53"/>
      </g>
     </g>
    </g>
    <g id="xtick_4">
     <g id="line2d_4">
      <g>
       <use style="stroke:#000000;stroke-width:0.8;" x="346.011209" xlink:href="#m1e5fb1939f" y="279.86258"/>
      </g>
     </g>
     <g id="text_4">
      <!-- 2020-05-01 -->
      <g transform="translate(327.415406 333.329439)rotate(-45)scale(0.1 -0.1)">
       <use xlink:href="#DejaVuSans-50"/>
       <use x="63.623047" xlink:href="#DejaVuSans-48"/>
       <use x="127.246094" xlink:href="#DejaVuSans-50"/>
       <use x="190.869141" xlink:href="#DejaVuSans-48"/>
       <use x="254.492188" xlink:href="#DejaVuSans-45"/>
       <use x="290.576172" xlink:href="#DejaVuSans-48"/>
       <use x="354.199219" xlink:href="#DejaVuSans-53"/>
       <use x="417.822266" xlink:href="#DejaVuSans-45"/>
       <use x="453.90625" xlink:href="#DejaVuSans-48"/>
       <use x="517.529297" xlink:href="#DejaVuSans-49"/>
      </g>
     </g>
    </g>
    <g id="xtick_5">
     <g id="line2d_5">
      <g>
       <use style="stroke:#000000;stroke-width:0.8;" x="420.861753" xlink:href="#m1e5fb1939f" y="279.86258"/>
      </g>
     </g>
     <g id="text_5">
      <!-- 2020-05-15 -->
      <g transform="translate(402.265949 333.329439)rotate(-45)scale(0.1 -0.1)">
       <use xlink:href="#DejaVuSans-50"/>
       <use x="63.623047" xlink:href="#DejaVuSans-48"/>
       <use x="127.246094" xlink:href="#DejaVuSans-50"/>
       <use x="190.869141" xlink:href="#DejaVuSans-48"/>
       <use x="254.492188" xlink:href="#DejaVuSans-45"/>
       <use x="290.576172" xlink:href="#DejaVuSans-48"/>
       <use x="354.199219" xlink:href="#DejaVuSans-53"/>
       <use x="417.822266" xlink:href="#DejaVuSans-45"/>
       <use x="453.90625" xlink:href="#DejaVuSans-49"/>
       <use x="517.529297" xlink:href="#DejaVuSans-53"/>
      </g>
     </g>
    </g>
   </g>
   <g id="matplotlib.axis_2">
    <g id="ytick_1">
     <g id="line2d_6">
      <defs>
       <path d="M 0 0 
L -3.5 0 
" id="m3bb49de590" style="stroke:#000000;stroke-width:0.8;"/>
      </defs>
      <g>
       <use style="stroke:#000000;stroke-width:0.8;" x="44.203125" xlink:href="#m3bb49de590" y="279.86258"/>
      </g>
     </g>
     <g id="text_6">
      <!-- 0 -->
      <g transform="translate(30.840625 283.661798)scale(0.1 -0.1)">
       <use xlink:href="#DejaVuSans-48"/>
      </g>
     </g>
    </g>
    <g id="ytick_2">
     <g id="line2d_7">
      <g>
       <use style="stroke:#000000;stroke-width:0.8;" x="44.203125" xlink:href="#m3bb49de590" y="247.010006"/>
      </g>
     </g>
     <g id="text_7">
      <!-- 5 -->
      <g transform="translate(30.840625 250.809225)scale(0.1 -0.1)">
       <use xlink:href="#DejaVuSans-53"/>
      </g>
     </g>
    </g>
    <g id="ytick_3">
     <g id="line2d_8">
      <g>
       <use style="stroke:#000000;stroke-width:0.8;" x="44.203125" xlink:href="#m3bb49de590" y="214.157432"/>
      </g>
     </g>
     <g id="text_8">
      <!-- 10 -->
      <g transform="translate(24.478125 217.956651)scale(0.1 -0.1)">
       <use xlink:href="#DejaVuSans-49"/>
       <use x="63.623047" xlink:href="#DejaVuSans-48"/>
      </g>
     </g>
    </g>
    <g id="ytick_4">
     <g id="line2d_9">
      <g>
       <use style="stroke:#000000;stroke-width:0.8;" x="44.203125" xlink:href="#m3bb49de590" y="181.304858"/>
      </g>
     </g>
     <g id="text_9">
      <!-- 15 -->
      <g transform="translate(24.478125 185.104077)scale(0.1 -0.1)">
       <use xlink:href="#DejaVuSans-49"/>
       <use x="63.623047" xlink:href="#DejaVuSans-53"/>
      </g>
     </g>
    </g>
    <g id="ytick_5">
     <g id="line2d_10">
      <g>
       <use style="stroke:#000000;stroke-width:0.8;" x="44.203125" xlink:href="#m3bb49de590" y="148.452284"/>
      </g>
     </g>
     <g id="text_10">
      <!-- 20 -->
      <g transform="translate(24.478125 152.251503)scale(0.1 -0.1)">
       <use xlink:href="#DejaVuSans-50"/>
       <use x="63.623047" xlink:href="#DejaVuSans-48"/>
      </g>
     </g>
    </g>
    <g id="ytick_6">
     <g id="line2d_11">
      <g>
       <use style="stroke:#000000;stroke-width:0.8;" x="44.203125" xlink:href="#m3bb49de590" y="115.599711"/>
      </g>
     </g>
     <g id="text_11">
      <!-- 25 -->
      <g transform="translate(24.478125 119.398929)scale(0.1 -0.1)">
       <use xlink:href="#DejaVuSans-50"/>
       <use x="63.623047" xlink:href="#DejaVuSans-53"/>
      </g>
     </g>
    </g>
    <g id="ytick_7">
     <g id="line2d_12">
      <g>
       <use style="stroke:#000000;stroke-width:0.8;" x="44.203125" xlink:href="#m3bb49de590" y="82.747137"/>
      </g>
     </g>
     <g id="text_12">
      <!-- 30 -->
      <g transform="translate(24.478125 86.546355)scale(0.1 -0.1)">
       <use xlink:href="#DejaVuSans-51"/>
       <use x="63.623047" xlink:href="#DejaVuSans-48"/>
      </g>
     </g>
    </g>
    <g id="ytick_8">
     <g id="line2d_13">
      <g>
       <use style="stroke:#000000;stroke-width:0.8;" x="44.203125" xlink:href="#m3bb49de590" y="49.894563"/>
      </g>
     </g>
     <g id="text_13">
      <!-- 35 -->
      <g transform="translate(24.478125 53.693782)scale(0.1 -0.1)">
       <use xlink:href="#DejaVuSans-51"/>
       <use x="63.623047" xlink:href="#DejaVuSans-53"/>
      </g>
     </g>
    </g>
    <g id="ytick_9">
     <g id="line2d_14">
      <g>
       <use style="stroke:#000000;stroke-width:0.8;" x="44.203125" xlink:href="#m3bb49de590" y="17.041989"/>
      </g>
     </g>
     <g id="text_14">
      <!-- 40 -->
      <g transform="translate(24.478125 20.841208)scale(0.1 -0.1)">
       <use xlink:href="#DejaVuSans-52"/>
       <use x="63.623047" xlink:href="#DejaVuSans-48"/>
      </g>
     </g>
    </g>
    <g id="text_15">
     <!-- AR fallecidos diarios -->
     <defs>
      <path d="M 34.1875 63.1875 
L 20.796875 26.90625 
L 47.609375 26.90625 
z
M 28.609375 72.90625 
L 39.796875 72.90625 
L 67.578125 0 
L 57.328125 0 
L 50.6875 18.703125 
L 17.828125 18.703125 
L 11.1875 0 
L 0.78125 0 
z
" id="DejaVuSans-65"/>
      <path d="M 44.390625 34.1875 
Q 47.5625 33.109375 50.5625 29.59375 
Q 53.5625 26.078125 56.59375 19.921875 
L 66.609375 0 
L 56 0 
L 46.6875 18.703125 
Q 43.0625 26.03125 39.671875 28.421875 
Q 36.28125 30.8125 30.421875 30.8125 
L 19.671875 30.8125 
L 19.671875 0 
L 9.8125 0 
L 9.8125 72.90625 
L 32.078125 72.90625 
Q 44.578125 72.90625 50.734375 67.671875 
Q 56.890625 62.453125 56.890625 51.90625 
Q 56.890625 45.015625 53.6875 40.46875 
Q 50.484375 35.9375 44.390625 34.1875 
z
M 19.671875 64.796875 
L 19.671875 38.921875 
L 32.078125 38.921875 
Q 39.203125 38.921875 42.84375 42.21875 
Q 46.484375 45.515625 46.484375 51.90625 
Q 46.484375 58.296875 42.84375 61.546875 
Q 39.203125 64.796875 32.078125 64.796875 
z
" id="DejaVuSans-82"/>
      <path id="DejaVuSans-32"/>
      <path d="M 37.109375 75.984375 
L 37.109375 68.5 
L 28.515625 68.5 
Q 23.6875 68.5 21.796875 66.546875 
Q 19.921875 64.59375 19.921875 59.515625 
L 19.921875 54.6875 
L 34.71875 54.6875 
L 34.71875 47.703125 
L 19.921875 47.703125 
L 19.921875 0 
L 10.890625 0 
L 10.890625 47.703125 
L 2.296875 47.703125 
L 2.296875 54.6875 
L 10.890625 54.6875 
L 10.890625 58.5 
Q 10.890625 67.625 15.140625 71.796875 
Q 19.390625 75.984375 28.609375 75.984375 
z
" id="DejaVuSans-102"/>
      <path d="M 34.28125 27.484375 
Q 23.390625 27.484375 19.1875 25 
Q 14.984375 22.515625 14.984375 16.5 
Q 14.984375 11.71875 18.140625 8.90625 
Q 21.296875 6.109375 26.703125 6.109375 
Q 34.1875 6.109375 38.703125 11.40625 
Q 43.21875 16.703125 43.21875 25.484375 
L 43.21875 27.484375 
z
M 52.203125 31.203125 
L 52.203125 0 
L 43.21875 0 
L 43.21875 8.296875 
Q 40.140625 3.328125 35.546875 0.953125 
Q 30.953125 -1.421875 24.3125 -1.421875 
Q 15.921875 -1.421875 10.953125 3.296875 
Q 6 8.015625 6 15.921875 
Q 6 25.140625 12.171875 29.828125 
Q 18.359375 34.515625 30.609375 34.515625 
L 43.21875 34.515625 
L 43.21875 35.40625 
Q 43.21875 41.609375 39.140625 45 
Q 35.0625 48.390625 27.6875 48.390625 
Q 23 48.390625 18.546875 47.265625 
Q 14.109375 46.140625 10.015625 43.890625 
L 10.015625 52.203125 
Q 14.9375 54.109375 19.578125 55.046875 
Q 24.21875 56 28.609375 56 
Q 40.484375 56 46.34375 49.84375 
Q 52.203125 43.703125 52.203125 31.203125 
z
" id="DejaVuSans-97"/>
      <path d="M 9.421875 75.984375 
L 18.40625 75.984375 
L 18.40625 0 
L 9.421875 0 
z
" id="DejaVuSans-108"/>
      <path d="M 56.203125 29.59375 
L 56.203125 25.203125 
L 14.890625 25.203125 
Q 15.484375 15.921875 20.484375 11.0625 
Q 25.484375 6.203125 34.421875 6.203125 
Q 39.59375 6.203125 44.453125 7.46875 
Q 49.3125 8.734375 54.109375 11.28125 
L 54.109375 2.78125 
Q 49.265625 0.734375 44.1875 -0.34375 
Q 39.109375 -1.421875 33.890625 -1.421875 
Q 20.796875 -1.421875 13.15625 6.1875 
Q 5.515625 13.8125 5.515625 26.8125 
Q 5.515625 40.234375 12.765625 48.109375 
Q 20.015625 56 32.328125 56 
Q 43.359375 56 49.78125 48.890625 
Q 56.203125 41.796875 56.203125 29.59375 
z
M 47.21875 32.234375 
Q 47.125 39.59375 43.09375 43.984375 
Q 39.0625 48.390625 32.421875 48.390625 
Q 24.90625 48.390625 20.390625 44.140625 
Q 15.875 39.890625 15.1875 32.171875 
z
" id="DejaVuSans-101"/>
      <path d="M 48.78125 52.59375 
L 48.78125 44.1875 
Q 44.96875 46.296875 41.140625 47.34375 
Q 37.3125 48.390625 33.40625 48.390625 
Q 24.65625 48.390625 19.8125 42.84375 
Q 14.984375 37.3125 14.984375 27.296875 
Q 14.984375 17.28125 19.8125 11.734375 
Q 24.65625 6.203125 33.40625 6.203125 
Q 37.3125 6.203125 41.140625 7.25 
Q 44.96875 8.296875 48.78125 10.40625 
L 48.78125 2.09375 
Q 45.015625 0.34375 40.984375 -0.53125 
Q 36.96875 -1.421875 32.421875 -1.421875 
Q 20.0625 -1.421875 12.78125 6.34375 
Q 5.515625 14.109375 5.515625 27.296875 
Q 5.515625 40.671875 12.859375 48.328125 
Q 20.21875 56 33.015625 56 
Q 37.15625 56 41.109375 55.140625 
Q 45.0625 54.296875 48.78125 52.59375 
z
" id="DejaVuSans-99"/>
      <path d="M 9.421875 54.6875 
L 18.40625 54.6875 
L 18.40625 0 
L 9.421875 0 
z
M 9.421875 75.984375 
L 18.40625 75.984375 
L 18.40625 64.59375 
L 9.421875 64.59375 
z
" id="DejaVuSans-105"/>
      <path d="M 45.40625 46.390625 
L 45.40625 75.984375 
L 54.390625 75.984375 
L 54.390625 0 
L 45.40625 0 
L 45.40625 8.203125 
Q 42.578125 3.328125 38.25 0.953125 
Q 33.9375 -1.421875 27.875 -1.421875 
Q 17.96875 -1.421875 11.734375 6.484375 
Q 5.515625 14.40625 5.515625 27.296875 
Q 5.515625 40.1875 11.734375 48.09375 
Q 17.96875 56 27.875 56 
Q 33.9375 56 38.25 53.625 
Q 42.578125 51.265625 45.40625 46.390625 
z
M 14.796875 27.296875 
Q 14.796875 17.390625 18.875 11.75 
Q 22.953125 6.109375 30.078125 6.109375 
Q 37.203125 6.109375 41.296875 11.75 
Q 45.40625 17.390625 45.40625 27.296875 
Q 45.40625 37.203125 41.296875 42.84375 
Q 37.203125 48.484375 30.078125 48.484375 
Q 22.953125 48.484375 18.875 42.84375 
Q 14.796875 37.203125 14.796875 27.296875 
z
" id="DejaVuSans-100"/>
      <path d="M 30.609375 48.390625 
Q 23.390625 48.390625 19.1875 42.75 
Q 14.984375 37.109375 14.984375 27.296875 
Q 14.984375 17.484375 19.15625 11.84375 
Q 23.34375 6.203125 30.609375 6.203125 
Q 37.796875 6.203125 41.984375 11.859375 
Q 46.1875 17.53125 46.1875 27.296875 
Q 46.1875 37.015625 41.984375 42.703125 
Q 37.796875 48.390625 30.609375 48.390625 
z
M 30.609375 56 
Q 42.328125 56 49.015625 48.375 
Q 55.71875 40.765625 55.71875 27.296875 
Q 55.71875 13.875 49.015625 6.21875 
Q 42.328125 -1.421875 30.609375 -1.421875 
Q 18.84375 -1.421875 12.171875 6.21875 
Q 5.515625 13.875 5.515625 27.296875 
Q 5.515625 40.765625 12.171875 48.375 
Q 18.84375 56 30.609375 56 
z
" id="DejaVuSans-111"/>
      <path d="M 44.28125 53.078125 
L 44.28125 44.578125 
Q 40.484375 46.53125 36.375 47.5 
Q 32.28125 48.484375 27.875 48.484375 
Q 21.1875 48.484375 17.84375 46.4375 
Q 14.5 44.390625 14.5 40.28125 
Q 14.5 37.15625 16.890625 35.375 
Q 19.28125 33.59375 26.515625 31.984375 
L 29.59375 31.296875 
Q 39.15625 29.25 43.1875 25.515625 
Q 47.21875 21.78125 47.21875 15.09375 
Q 47.21875 7.46875 41.1875 3.015625 
Q 35.15625 -1.421875 24.609375 -1.421875 
Q 20.21875 -1.421875 15.453125 -0.5625 
Q 10.6875 0.296875 5.421875 2 
L 5.421875 11.28125 
Q 10.40625 8.6875 15.234375 7.390625 
Q 20.0625 6.109375 24.8125 6.109375 
Q 31.15625 6.109375 34.5625 8.28125 
Q 37.984375 10.453125 37.984375 14.40625 
Q 37.984375 18.0625 35.515625 20.015625 
Q 33.0625 21.96875 24.703125 23.78125 
L 21.578125 24.515625 
Q 13.234375 26.265625 9.515625 29.90625 
Q 5.8125 33.546875 5.8125 39.890625 
Q 5.8125 47.609375 11.28125 51.796875 
Q 16.75 56 26.8125 56 
Q 31.78125 56 36.171875 55.265625 
Q 40.578125 54.546875 44.28125 53.078125 
z
" id="DejaVuSans-115"/>
      <path d="M 41.109375 46.296875 
Q 39.59375 47.171875 37.8125 47.578125 
Q 36.03125 48 33.890625 48 
Q 26.265625 48 22.1875 43.046875 
Q 18.109375 38.09375 18.109375 28.8125 
L 18.109375 0 
L 9.078125 0 
L 9.078125 54.6875 
L 18.109375 54.6875 
L 18.109375 46.1875 
Q 20.953125 51.171875 25.484375 53.578125 
Q 30.03125 56 36.53125 56 
Q 37.453125 56 38.578125 55.875 
Q 39.703125 55.765625 41.0625 55.515625 
z
" id="DejaVuSans-114"/>
     </defs>
     <g transform="translate(18.398438 195.795352)rotate(-90)scale(0.1 -0.1)">
      <use xlink:href="#DejaVuSans-65"/>
      <use x="68.408203" xlink:href="#DejaVuSans-82"/>
      <use x="137.890625" xlink:href="#DejaVuSans-32"/>
      <use x="169.677734" xlink:href="#DejaVuSans-102"/>
      <use x="204.882812" xlink:href="#DejaVuSans-97"/>
      <use x="266.162109" xlink:href="#DejaVuSans-108"/>
      <use x="293.945312" xlink:href="#DejaVuSans-108"/>
      <use x="321.728516" xlink:href="#DejaVuSans-101"/>
      <use x="383.251953" xlink:href="#DejaVuSans-99"/>
      <use x="438.232422" xlink:href="#DejaVuSans-105"/>
      <use x="466.015625" xlink:href="#DejaVuSans-100"/>
      <use x="529.492188" xlink:href="#DejaVuSans-111"/>
      <use x="590.673828" xlink:href="#DejaVuSans-115"/>
      <use x="642.773438" xlink:href="#DejaVuSans-32"/>
      <use x="674.560547" xlink:href="#DejaVuSans-100"/>
      <use x="738.037109" xlink:href="#DejaVuSans-105"/>
      <use x="765.820312" xlink:href="#DejaVuSans-97"/>
      <use x="827.099609" xlink:href="#DejaVuSans-114"/>
      <use x="868.212891" xlink:href="#DejaVuSans-105"/>
      <use x="895.996094" xlink:href="#DejaVuSans-111"/>
      <use x="957.177734" xlink:href="#DejaVuSans-115"/>
     </g>
    </g>
   </g>
   <g id="line2d_15">
    <path clip-path="url(#p1b37c9084f)" d="M 62.648437 273.292065 
L 67.994905 279.86258 
L 73.341372 266.72155 
L 78.68784 273.292065 
L 84.034307 279.86258 
L 89.380774 279.86258 
L 94.727242 253.580521 
L 100.073709 273.292065 
L 105.420177 273.292065 
L 110.766644 266.72155 
L 116.113111 266.72155 
L 121.459579 247.010006 
L 126.806046 266.72155 
L 132.152514 227.298462 
L 137.498981 247.010006 
L 142.845448 260.151035 
L 148.191916 227.298462 
L 153.538383 214.157432 
L 158.884851 49.894563 
L 164.231318 207.586917 
L 169.577785 266.72155 
L 174.924253 69.606107 
L 180.27072 76.176622 
L 185.617187 76.176622 
L 190.963655 122.170225 
L 196.310122 102.458681 
L 201.65659 155.022799 
L 207.003057 187.875373 
L 212.349524 95.888166 
L 217.695992 36.753533 
L 223.042459 43.324048 
L 228.388927 122.170225 
L 233.735394 174.734343 
L 239.081861 115.599711 
L 244.428329 187.875373 
L 249.774796 95.888166 
L 255.121264 135.311255 
L 260.467731 89.317651 
L 265.814198 155.022799 
L 271.160666 23.612504 
L 276.507133 161.593314 
L 281.853601 161.593314 
L 287.200068 240.439491 
L 292.546535 194.445888 
L 297.893003 115.599711 
L 303.23947 187.875373 
L 308.585938 187.875373 
L 313.932405 260.151035 
L 319.278872 187.875373 
L 324.62534 220.727947 
L 329.971807 273.292065 
L 335.318274 260.151035 
L 340.664742 214.157432 
L 346.011209 201.016402 
L 351.357677 279.86258 
L 356.704144 273.292065 
L 362.050611 227.298462 
L 367.397079 161.593314 
L 372.743546 201.016402 
L 378.090014 181.304858 
L 383.436481 227.298462 
L 388.782948 273.292065 
L 394.129416 273.292065 
L 399.475883 260.151035 
L 404.822351 273.292065 
L 410.168818 233.868976 
L 415.515285 273.292065 
L 420.861753 273.292065 
L 426.20822 279.86258 
L 431.554688 279.86258 
" style="fill:none;stroke:#1f77b4;stroke-linecap:square;stroke-width:1.5;"/>
    <defs>
     <path d="M 0 1.5 
C 0.397805 1.5 0.77937 1.341951 1.06066 1.06066 
C 1.341951 0.77937 1.5 0.397805 1.5 0 
C 1.5 -0.397805 1.341951 -0.77937 1.06066 -1.06066 
C 0.77937 -1.341951 0.397805 -1.5 0 -1.5 
C -0.397805 -1.5 -0.77937 -1.341951 -1.06066 -1.06066 
C -1.341951 -0.77937 -1.5 -0.397805 -1.5 0 
C -1.5 0.397805 -1.341951 0.77937 -1.06066 1.06066 
C -0.77937 1.341951 -0.397805 1.5 0 1.5 
z
" id="ma880581cb4" style="stroke:#1f77b4;"/>
    </defs>
    <g clip-path="url(#p1b37c9084f)">
     <use style="fill:#1f77b4;stroke:#1f77b4;" x="62.648437" xlink:href="#ma880581cb4" y="273.292065"/>
     <use style="fill:#1f77b4;stroke:#1f77b4;" x="67.994905" xlink:href="#ma880581cb4" y="279.86258"/>
     <use style="fill:#1f77b4;stroke:#1f77b4;" x="73.341372" xlink:href="#ma880581cb4" y="266.72155"/>
     <use style="fill:#1f77b4;stroke:#1f77b4;" x="78.68784" xlink:href="#ma880581cb4" y="273.292065"/>
     <use style="fill:#1f77b4;stroke:#1f77b4;" x="84.034307" xlink:href="#ma880581cb4" y="279.86258"/>
     <use style="fill:#1f77b4;stroke:#1f77b4;" x="89.380774" xlink:href="#ma880581cb4" y="279.86258"/>
     <use style="fill:#1f77b4;stroke:#1f77b4;" x="94.727242" xlink:href="#ma880581cb4" y="253.580521"/>
     <use style="fill:#1f77b4;stroke:#1f77b4;" x="100.073709" xlink:href="#ma880581cb4" y="273.292065"/>
     <use style="fill:#1f77b4;stroke:#1f77b4;" x="105.420177" xlink:href="#ma880581cb4" y="273.292065"/>
     <use style="fill:#1f77b4;stroke:#1f77b4;" x="110.766644" xlink:href="#ma880581cb4" y="266.72155"/>
     <use style="fill:#1f77b4;stroke:#1f77b4;" x="116.113111" xlink:href="#ma880581cb4" y="266.72155"/>
     <use style="fill:#1f77b4;stroke:#1f77b4;" x="121.459579" xlink:href="#ma880581cb4" y="247.010006"/>
     <use style="fill:#1f77b4;stroke:#1f77b4;" x="126.806046" xlink:href="#ma880581cb4" y="266.72155"/>
     <use style="fill:#1f77b4;stroke:#1f77b4;" x="132.152514" xlink:href="#ma880581cb4" y="227.298462"/>
     <use style="fill:#1f77b4;stroke:#1f77b4;" x="137.498981" xlink:href="#ma880581cb4" y="247.010006"/>
     <use style="fill:#1f77b4;stroke:#1f77b4;" x="142.845448" xlink:href="#ma880581cb4" y="260.151035"/>
     <use style="fill:#1f77b4;stroke:#1f77b4;" x="148.191916" xlink:href="#ma880581cb4" y="227.298462"/>
     <use style="fill:#1f77b4;stroke:#1f77b4;" x="153.538383" xlink:href="#ma880581cb4" y="214.157432"/>
     <use style="fill:#1f77b4;stroke:#1f77b4;" x="158.884851" xlink:href="#ma880581cb4" y="49.894563"/>
     <use style="fill:#1f77b4;stroke:#1f77b4;" x="164.231318" xlink:href="#ma880581cb4" y="207.586917"/>
     <use style="fill:#1f77b4;stroke:#1f77b4;" x="169.577785" xlink:href="#ma880581cb4" y="266.72155"/>
     <use style="fill:#1f77b4;stroke:#1f77b4;" x="174.924253" xlink:href="#ma880581cb4" y="69.606107"/>
     <use style="fill:#1f77b4;stroke:#1f77b4;" x="180.27072" xlink:href="#ma880581cb4" y="76.176622"/>
     <use style="fill:#1f77b4;stroke:#1f77b4;" x="185.617187" xlink:href="#ma880581cb4" y="76.176622"/>
     <use style="fill:#1f77b4;stroke:#1f77b4;" x="190.963655" xlink:href="#ma880581cb4" y="122.170225"/>
     <use style="fill:#1f77b4;stroke:#1f77b4;" x="196.310122" xlink:href="#ma880581cb4" y="102.458681"/>
     <use style="fill:#1f77b4;stroke:#1f77b4;" x="201.65659" xlink:href="#ma880581cb4" y="155.022799"/>
     <use style="fill:#1f77b4;stroke:#1f77b4;" x="207.003057" xlink:href="#ma880581cb4" y="187.875373"/>
     <use style="fill:#1f77b4;stroke:#1f77b4;" x="212.349524" xlink:href="#ma880581cb4" y="95.888166"/>
     <use style="fill:#1f77b4;stroke:#1f77b4;" x="217.695992" xlink:href="#ma880581cb4" y="36.753533"/>
     <use style="fill:#1f77b4;stroke:#1f77b4;" x="223.042459" xlink:href="#ma880581cb4" y="43.324048"/>
     <use style="fill:#1f77b4;stroke:#1f77b4;" x="228.388927" xlink:href="#ma880581cb4" y="122.170225"/>
     <use style="fill:#1f77b4;stroke:#1f77b4;" x="233.735394" xlink:href="#ma880581cb4" y="174.734343"/>
     <use style="fill:#1f77b4;stroke:#1f77b4;" x="239.081861" xlink:href="#ma880581cb4" y="115.599711"/>
     <use style="fill:#1f77b4;stroke:#1f77b4;" x="244.428329" xlink:href="#ma880581cb4" y="187.875373"/>
     <use style="fill:#1f77b4;stroke:#1f77b4;" x="249.774796" xlink:href="#ma880581cb4" y="95.888166"/>
     <use style="fill:#1f77b4;stroke:#1f77b4;" x="255.121264" xlink:href="#ma880581cb4" y="135.311255"/>
     <use style="fill:#1f77b4;stroke:#1f77b4;" x="260.467731" xlink:href="#ma880581cb4" y="89.317651"/>
     <use style="fill:#1f77b4;stroke:#1f77b4;" x="265.814198" xlink:href="#ma880581cb4" y="155.022799"/>
     <use style="fill:#1f77b4;stroke:#1f77b4;" x="271.160666" xlink:href="#ma880581cb4" y="23.612504"/>
     <use style="fill:#1f77b4;stroke:#1f77b4;" x="276.507133" xlink:href="#ma880581cb4" y="161.593314"/>
     <use style="fill:#1f77b4;stroke:#1f77b4;" x="281.853601" xlink:href="#ma880581cb4" y="161.593314"/>
     <use style="fill:#1f77b4;stroke:#1f77b4;" x="287.200068" xlink:href="#ma880581cb4" y="240.439491"/>
     <use style="fill:#1f77b4;stroke:#1f77b4;" x="292.546535" xlink:href="#ma880581cb4" y="194.445888"/>
     <use style="fill:#1f77b4;stroke:#1f77b4;" x="297.893003" xlink:href="#ma880581cb4" y="115.599711"/>
     <use style="fill:#1f77b4;stroke:#1f77b4;" x="303.23947" xlink:href="#ma880581cb4" y="187.875373"/>
     <use style="fill:#1f77b4;stroke:#1f77b4;" x="308.585938" xlink:href="#ma880581cb4" y="187.875373"/>
     <use style="fill:#1f77b4;stroke:#1f77b4;" x="313.932405" xlink:href="#ma880581cb4" y="260.151035"/>
     <use style="fill:#1f77b4;stroke:#1f77b4;" x="319.278872" xlink:href="#ma880581cb4" y="187.875373"/>
     <use style="fill:#1f77b4;stroke:#1f77b4;" x="324.62534" xlink:href="#ma880581cb4" y="220.727947"/>
     <use style="fill:#1f77b4;stroke:#1f77b4;" x="329.971807" xlink:href="#ma880581cb4" y="273.292065"/>
     <use style="fill:#1f77b4;stroke:#1f77b4;" x="335.318274" xlink:href="#ma880581cb4" y="260.151035"/>
     <use style="fill:#1f77b4;stroke:#1f77b4;" x="340.664742" xlink:href="#ma880581cb4" y="214.157432"/>
     <use style="fill:#1f77b4;stroke:#1f77b4;" x="346.011209" xlink:href="#ma880581cb4" y="201.016402"/>
     <use style="fill:#1f77b4;stroke:#1f77b4;" x="351.357677" xlink:href="#ma880581cb4" y="279.86258"/>
     <use style="fill:#1f77b4;stroke:#1f77b4;" x="356.704144" xlink:href="#ma880581cb4" y="273.292065"/>
     <use style="fill:#1f77b4;stroke:#1f77b4;" x="362.050611" xlink:href="#ma880581cb4" y="227.298462"/>
     <use style="fill:#1f77b4;stroke:#1f77b4;" x="367.397079" xlink:href="#ma880581cb4" y="161.593314"/>
     <use style="fill:#1f77b4;stroke:#1f77b4;" x="372.743546" xlink:href="#ma880581cb4" y="201.016402"/>
     <use style="fill:#1f77b4;stroke:#1f77b4;" x="378.090014" xlink:href="#ma880581cb4" y="181.304858"/>
     <use style="fill:#1f77b4;stroke:#1f77b4;" x="383.436481" xlink:href="#ma880581cb4" y="227.298462"/>
     <use style="fill:#1f77b4;stroke:#1f77b4;" x="388.782948" xlink:href="#ma880581cb4" y="273.292065"/>
     <use style="fill:#1f77b4;stroke:#1f77b4;" x="394.129416" xlink:href="#ma880581cb4" y="273.292065"/>
     <use style="fill:#1f77b4;stroke:#1f77b4;" x="399.475883" xlink:href="#ma880581cb4" y="260.151035"/>
     <use style="fill:#1f77b4;stroke:#1f77b4;" x="404.822351" xlink:href="#ma880581cb4" y="273.292065"/>
     <use style="fill:#1f77b4;stroke:#1f77b4;" x="410.168818" xlink:href="#ma880581cb4" y="233.868976"/>
     <use style="fill:#1f77b4;stroke:#1f77b4;" x="415.515285" xlink:href="#ma880581cb4" y="273.292065"/>
     <use style="fill:#1f77b4;stroke:#1f77b4;" x="420.861753" xlink:href="#ma880581cb4" y="273.292065"/>
     <use style="fill:#1f77b4;stroke:#1f77b4;" x="426.20822" xlink:href="#ma880581cb4" y="279.86258"/>
     <use style="fill:#1f77b4;stroke:#1f77b4;" x="431.554688" xlink:href="#ma880581cb4" y="279.86258"/>
    </g>
   </g>
   <g id="patch_3">
    <path d="M 44.203125 279.86258 
L 44.203125 10.8 
" style="fill:none;stroke:#000000;stroke-linecap:square;stroke-linejoin:miter;stroke-width:0.8;"/>
   </g>
   <g id="patch_4">
    <path d="M 450 279.86258 
L 450 10.8 
" style="fill:none;stroke:#000000;stroke-linecap:square;stroke-linejoin:miter;stroke-width:0.8;"/>
   </g>
   <g id="patch_5">
    <path d="M 44.203125 279.86258 
L 450 279.86258 
" style="fill:none;stroke:#000000;stroke-linecap:square;stroke-linejoin:miter;stroke-width:0.8;"/>
   </g>
   <g id="patch_6">
    <path d="M 44.203125 10.8 
L 450 10.8 
" style="fill:none;stroke:#000000;stroke-linecap:square;stroke-linejoin:miter;stroke-width:0.8;"/>
   </g>
  </g>
 </g>
 <defs>
  <clipPath id="p1b37c9084f">
   <rect height="269.06258" width="405.796875" x="44.203125" y="10.8"/>
  </clipPath>
 </defs>
</svg>
