<?xml version="1.0" encoding="utf-8" standalone="no"?>
<!DOCTYPE svg PUBLIC "-//W3C//DTD SVG 1.1//EN"
  "http://www.w3.org/Graphics/SVG/1.1/DTD/svg11.dtd">
<!-- Created with matplotlib (https://matplotlib.org/) -->
<svg height="345.6pt" version="1.1" viewBox="0 0 460.8 345.6" width="460.8pt" xmlns="http://www.w3.org/2000/svg" xmlns:xlink="http://www.w3.org/1999/xlink">
 <defs>
  <style type="text/css">
*{stroke-linecap:butt;stroke-linejoin:round;}
  </style>
 </defs>
 <g id="figure_1">
  <g id="patch_1">
   <path d="M 0 345.6 
L 460.8 345.6 
L 460.8 0 
L 0 0 
z
" style="fill:#ffffff;"/>
  </g>
  <g id="axes_1">
   <g id="patch_2">
    <path d="M 44.203125 279.86258 
L 447.038349 279.86258 
L 447.038349 10.8 
L 44.203125 10.8 
z
" style="fill:#ffffff;"/>
   </g>
   <g id="matplotlib.axis_1">
    <g id="xtick_1">
     <g id="line2d_1">
      <defs>
       <path d="M 0 0 
L 0 3.5 
" id="m5ff2c95146" style="stroke:#000000;stroke-width:0.8;"/>
      </defs>
      <g>
       <use style="stroke:#000000;stroke-width:0.8;" x="94.826803" xlink:href="#m5ff2c95146" y="279.86258"/>
      </g>
     </g>
     <g id="text_1">
      <!-- 2020-03-15 -->
      <defs>
       <path d="M 19.1875 8.296875 
L 53.609375 8.296875 
L 53.609375 0 
L 7.328125 0 
L 7.328125 8.296875 
Q 12.9375 14.109375 22.625 23.890625 
Q 32.328125 33.6875 34.8125 36.53125 
Q 39.546875 41.84375 41.421875 45.53125 
Q 43.3125 49.21875 43.3125 52.78125 
Q 43.3125 58.59375 39.234375 62.25 
Q 35.15625 65.921875 28.609375 65.921875 
Q 23.96875 65.921875 18.8125 64.3125 
Q 13.671875 62.703125 7.8125 59.421875 
L 7.8125 69.390625 
Q 13.765625 71.78125 18.9375 73 
Q 24.125 74.21875 28.421875 74.21875 
Q 39.75 74.21875 46.484375 68.546875 
Q 53.21875 62.890625 53.21875 53.421875 
Q 53.21875 48.921875 51.53125 44.890625 
Q 49.859375 40.875 45.40625 35.40625 
Q 44.1875 33.984375 37.640625 27.21875 
Q 31.109375 20.453125 19.1875 8.296875 
z
" id="DejaVuSans-50"/>
       <path d="M 31.78125 66.40625 
Q 24.171875 66.40625 20.328125 58.90625 
Q 16.5 51.421875 16.5 36.375 
Q 16.5 21.390625 20.328125 13.890625 
Q 24.171875 6.390625 31.78125 6.390625 
Q 39.453125 6.390625 43.28125 13.890625 
Q 47.125 21.390625 47.125 36.375 
Q 47.125 51.421875 43.28125 58.90625 
Q 39.453125 66.40625 31.78125 66.40625 
z
M 31.78125 74.21875 
Q 44.046875 74.21875 50.515625 64.515625 
Q 56.984375 54.828125 56.984375 36.375 
Q 56.984375 17.96875 50.515625 8.265625 
Q 44.046875 -1.421875 31.78125 -1.421875 
Q 19.53125 -1.421875 13.0625 8.265625 
Q 6.59375 17.96875 6.59375 36.375 
Q 6.59375 54.828125 13.0625 64.515625 
Q 19.53125 74.21875 31.78125 74.21875 
z
" id="DejaVuSans-48"/>
       <path d="M 4.890625 31.390625 
L 31.203125 31.390625 
L 31.203125 23.390625 
L 4.890625 23.390625 
z
" id="DejaVuSans-45"/>
       <path d="M 40.578125 39.3125 
Q 47.65625 37.796875 51.625 33 
Q 55.609375 28.21875 55.609375 21.1875 
Q 55.609375 10.40625 48.1875 4.484375 
Q 40.765625 -1.421875 27.09375 -1.421875 
Q 22.515625 -1.421875 17.65625 -0.515625 
Q 12.796875 0.390625 7.625 2.203125 
L 7.625 11.71875 
Q 11.71875 9.328125 16.59375 8.109375 
Q 21.484375 6.890625 26.8125 6.890625 
Q 36.078125 6.890625 40.9375 10.546875 
Q 45.796875 14.203125 45.796875 21.1875 
Q 45.796875 27.640625 41.28125 31.265625 
Q 36.765625 34.90625 28.71875 34.90625 
L 20.21875 34.90625 
L 20.21875 43.015625 
L 29.109375 43.015625 
Q 36.375 43.015625 40.234375 45.921875 
Q 44.09375 48.828125 44.09375 54.296875 
Q 44.09375 59.90625 40.109375 62.90625 
Q 36.140625 65.921875 28.71875 65.921875 
Q 24.65625 65.921875 20.015625 65.03125 
Q 15.375 64.15625 9.8125 62.3125 
L 9.8125 71.09375 
Q 15.4375 72.65625 20.34375 73.4375 
Q 25.25 74.21875 29.59375 74.21875 
Q 40.828125 74.21875 47.359375 69.109375 
Q 53.90625 64.015625 53.90625 55.328125 
Q 53.90625 49.265625 50.4375 45.09375 
Q 46.96875 40.921875 40.578125 39.3125 
z
" id="DejaVuSans-51"/>
       <path d="M 12.40625 8.296875 
L 28.515625 8.296875 
L 28.515625 63.921875 
L 10.984375 60.40625 
L 10.984375 69.390625 
L 28.421875 72.90625 
L 38.28125 72.90625 
L 38.28125 8.296875 
L 54.390625 8.296875 
L 54.390625 0 
L 12.40625 0 
z
" id="DejaVuSans-49"/>
       <path d="M 10.796875 72.90625 
L 49.515625 72.90625 
L 49.515625 64.59375 
L 19.828125 64.59375 
L 19.828125 46.734375 
Q 21.96875 47.46875 24.109375 47.828125 
Q 26.265625 48.1875 28.421875 48.1875 
Q 40.625 48.1875 47.75 41.5 
Q 54.890625 34.8125 54.890625 23.390625 
Q 54.890625 11.625 47.5625 5.09375 
Q 40.234375 -1.421875 26.90625 -1.421875 
Q 22.3125 -1.421875 17.546875 -0.640625 
Q 12.796875 0.140625 7.71875 1.703125 
L 7.71875 11.625 
Q 12.109375 9.234375 16.796875 8.0625 
Q 21.484375 6.890625 26.703125 6.890625 
Q 35.15625 6.890625 40.078125 11.328125 
Q 45.015625 15.765625 45.015625 23.390625 
Q 45.015625 31 40.078125 35.4375 
Q 35.15625 39.890625 26.703125 39.890625 
Q 22.75 39.890625 18.8125 39.015625 
Q 14.890625 38.140625 10.796875 36.28125 
z
" id="DejaVuSans-53"/>
      </defs>
      <g transform="translate(76.230999 333.329439)rotate(-45)scale(0.1 -0.1)">
       <use xlink:href="#DejaVuSans-50"/>
       <use x="63.623047" xlink:href="#DejaVuSans-48"/>
       <use x="127.246094" xlink:href="#DejaVuSans-50"/>
       <use x="190.869141" xlink:href="#DejaVuSans-48"/>
       <use x="254.492188" xlink:href="#DejaVuSans-45"/>
       <use x="290.576172" xlink:href="#DejaVuSans-48"/>
       <use x="354.199219" xlink:href="#DejaVuSans-51"/>
       <use x="417.822266" xlink:href="#DejaVuSans-45"/>
       <use x="453.90625" xlink:href="#DejaVuSans-49"/>
       <use x="517.529297" xlink:href="#DejaVuSans-53"/>
      </g>
     </g>
    </g>
    <g id="xtick_2">
     <g id="line2d_2">
      <g>
       <use style="stroke:#000000;stroke-width:0.8;" x="186.380263" xlink:href="#m5ff2c95146" y="279.86258"/>
      </g>
     </g>
     <g id="text_2">
      <!-- 2020-04-01 -->
      <defs>
       <path d="M 37.796875 64.3125 
L 12.890625 25.390625 
L 37.796875 25.390625 
z
M 35.203125 72.90625 
L 47.609375 72.90625 
L 47.609375 25.390625 
L 58.015625 25.390625 
L 58.015625 17.1875 
L 47.609375 17.1875 
L 47.609375 0 
L 37.796875 0 
L 37.796875 17.1875 
L 4.890625 17.1875 
L 4.890625 26.703125 
z
" id="DejaVuSans-52"/>
      </defs>
      <g transform="translate(167.784459 333.329439)rotate(-45)scale(0.1 -0.1)">
       <use xlink:href="#DejaVuSans-50"/>
       <use x="63.623047" xlink:href="#DejaVuSans-48"/>
       <use x="127.246094" xlink:href="#DejaVuSans-50"/>
       <use x="190.869141" xlink:href="#DejaVuSans-48"/>
       <use x="254.492188" xlink:href="#DejaVuSans-45"/>
       <use x="290.576172" xlink:href="#DejaVuSans-48"/>
       <use x="354.199219" xlink:href="#DejaVuSans-52"/>
       <use x="417.822266" xlink:href="#DejaVuSans-45"/>
       <use x="453.90625" xlink:href="#DejaVuSans-48"/>
       <use x="517.529297" xlink:href="#DejaVuSans-49"/>
      </g>
     </g>
    </g>
    <g id="xtick_3">
     <g id="line2d_3">
      <g>
       <use style="stroke:#000000;stroke-width:0.8;" x="261.77723" xlink:href="#m5ff2c95146" y="279.86258"/>
      </g>
     </g>
     <g id="text_3">
      <!-- 2020-04-15 -->
      <g transform="translate(243.181426 333.329439)rotate(-45)scale(0.1 -0.1)">
       <use xlink:href="#DejaVuSans-50"/>
       <use x="63.623047" xlink:href="#DejaVuSans-48"/>
       <use x="127.246094" xlink:href="#DejaVuSans-50"/>
       <use x="190.869141" xlink:href="#DejaVuSans-48"/>
       <use x="254.492188" xlink:href="#DejaVuSans-45"/>
       <use x="290.576172" xlink:href="#DejaVuSans-48"/>
       <use x="354.199219" xlink:href="#DejaVuSans-52"/>
       <use x="417.822266" xlink:href="#DejaVuSans-45"/>
       <use x="453.90625" xlink:href="#DejaVuSans-49"/>
       <use x="517.529297" xlink:href="#DejaVuSans-53"/>
      </g>
     </g>
    </g>
    <g id="xtick_4">
     <g id="line2d_4">
      <g>
       <use style="stroke:#000000;stroke-width:0.8;" x="347.945192" xlink:href="#m5ff2c95146" y="279.86258"/>
      </g>
     </g>
     <g id="text_4">
      <!-- 2020-05-01 -->
      <g transform="translate(329.349389 333.329439)rotate(-45)scale(0.1 -0.1)">
       <use xlink:href="#DejaVuSans-50"/>
       <use x="63.623047" xlink:href="#DejaVuSans-48"/>
       <use x="127.246094" xlink:href="#DejaVuSans-50"/>
       <use x="190.869141" xlink:href="#DejaVuSans-48"/>
       <use x="254.492188" xlink:href="#DejaVuSans-45"/>
       <use x="290.576172" xlink:href="#DejaVuSans-48"/>
       <use x="354.199219" xlink:href="#DejaVuSans-53"/>
       <use x="417.822266" xlink:href="#DejaVuSans-45"/>
       <use x="453.90625" xlink:href="#DejaVuSans-48"/>
       <use x="517.529297" xlink:href="#DejaVuSans-49"/>
      </g>
     </g>
    </g>
    <g id="xtick_5">
     <g id="line2d_5">
      <g>
       <use style="stroke:#000000;stroke-width:0.8;" x="423.342159" xlink:href="#m5ff2c95146" y="279.86258"/>
      </g>
     </g>
     <g id="text_5">
      <!-- 2020-05-15 -->
      <g transform="translate(404.746356 333.329439)rotate(-45)scale(0.1 -0.1)">
       <use xlink:href="#DejaVuSans-50"/>
       <use x="63.623047" xlink:href="#DejaVuSans-48"/>
       <use x="127.246094" xlink:href="#DejaVuSans-50"/>
       <use x="190.869141" xlink:href="#DejaVuSans-48"/>
       <use x="254.492188" xlink:href="#DejaVuSans-45"/>
       <use x="290.576172" xlink:href="#DejaVuSans-48"/>
       <use x="354.199219" xlink:href="#DejaVuSans-53"/>
       <use x="417.822266" xlink:href="#DejaVuSans-45"/>
       <use x="453.90625" xlink:href="#DejaVuSans-49"/>
       <use x="517.529297" xlink:href="#DejaVuSans-53"/>
      </g>
     </g>
    </g>
   </g>
   <g id="matplotlib.axis_2">
    <g id="ytick_1">
     <g id="line2d_6">
      <defs>
       <path d="M 0 0 
L -3.5 0 
" id="m3f60551759" style="stroke:#000000;stroke-width:0.8;"/>
      </defs>
      <g>
       <use style="stroke:#000000;stroke-width:0.8;" x="44.203125" xlink:href="#m3f60551759" y="279.86258"/>
      </g>
     </g>
     <g id="text_6">
      <!-- 0 -->
      <g transform="translate(30.840625 283.661798)scale(0.1 -0.1)">
       <use xlink:href="#DejaVuSans-48"/>
      </g>
     </g>
    </g>
    <g id="ytick_2">
     <g id="line2d_7">
      <g>
       <use style="stroke:#000000;stroke-width:0.8;" x="44.203125" xlink:href="#m3f60551759" y="232.408862"/>
      </g>
     </g>
     <g id="text_7">
      <!-- 10 -->
      <g transform="translate(24.478125 236.208081)scale(0.1 -0.1)">
       <use xlink:href="#DejaVuSans-49"/>
       <use x="63.623047" xlink:href="#DejaVuSans-48"/>
      </g>
     </g>
    </g>
    <g id="ytick_3">
     <g id="line2d_8">
      <g>
       <use style="stroke:#000000;stroke-width:0.8;" x="44.203125" xlink:href="#m3f60551759" y="184.955144"/>
      </g>
     </g>
     <g id="text_8">
      <!-- 20 -->
      <g transform="translate(24.478125 188.754363)scale(0.1 -0.1)">
       <use xlink:href="#DejaVuSans-50"/>
       <use x="63.623047" xlink:href="#DejaVuSans-48"/>
      </g>
     </g>
    </g>
    <g id="ytick_4">
     <g id="line2d_9">
      <g>
       <use style="stroke:#000000;stroke-width:0.8;" x="44.203125" xlink:href="#m3f60551759" y="137.501426"/>
      </g>
     </g>
     <g id="text_9">
      <!-- 30 -->
      <g transform="translate(24.478125 141.300645)scale(0.1 -0.1)">
       <use xlink:href="#DejaVuSans-51"/>
       <use x="63.623047" xlink:href="#DejaVuSans-48"/>
      </g>
     </g>
    </g>
    <g id="ytick_5">
     <g id="line2d_10">
      <g>
       <use style="stroke:#000000;stroke-width:0.8;" x="44.203125" xlink:href="#m3f60551759" y="90.047709"/>
      </g>
     </g>
     <g id="text_10">
      <!-- 40 -->
      <g transform="translate(24.478125 93.846927)scale(0.1 -0.1)">
       <use xlink:href="#DejaVuSans-52"/>
       <use x="63.623047" xlink:href="#DejaVuSans-48"/>
      </g>
     </g>
    </g>
    <g id="ytick_6">
     <g id="line2d_11">
      <g>
       <use style="stroke:#000000;stroke-width:0.8;" x="44.203125" xlink:href="#m3f60551759" y="42.593991"/>
      </g>
     </g>
     <g id="text_11">
      <!-- 50 -->
      <g transform="translate(24.478125 46.39321)scale(0.1 -0.1)">
       <use xlink:href="#DejaVuSans-53"/>
       <use x="63.623047" xlink:href="#DejaVuSans-48"/>
      </g>
     </g>
    </g>
    <g id="text_12">
     <!-- PV fallecidos diarios -->
     <defs>
      <path d="M 19.671875 64.796875 
L 19.671875 37.40625 
L 32.078125 37.40625 
Q 38.96875 37.40625 42.71875 40.96875 
Q 46.484375 44.53125 46.484375 51.125 
Q 46.484375 57.671875 42.71875 61.234375 
Q 38.96875 64.796875 32.078125 64.796875 
z
M 9.8125 72.90625 
L 32.078125 72.90625 
Q 44.34375 72.90625 50.609375 67.359375 
Q 56.890625 61.8125 56.890625 51.125 
Q 56.890625 40.328125 50.609375 34.8125 
Q 44.34375 29.296875 32.078125 29.296875 
L 19.671875 29.296875 
L 19.671875 0 
L 9.8125 0 
z
" id="DejaVuSans-80"/>
      <path d="M 28.609375 0 
L 0.78125 72.90625 
L 11.078125 72.90625 
L 34.1875 11.53125 
L 57.328125 72.90625 
L 67.578125 72.90625 
L 39.796875 0 
z
" id="DejaVuSans-86"/>
      <path id="DejaVuSans-32"/>
      <path d="M 37.109375 75.984375 
L 37.109375 68.5 
L 28.515625 68.5 
Q 23.6875 68.5 21.796875 66.546875 
Q 19.921875 64.59375 19.921875 59.515625 
L 19.921875 54.6875 
L 34.71875 54.6875 
L 34.71875 47.703125 
L 19.921875 47.703125 
L 19.921875 0 
L 10.890625 0 
L 10.890625 47.703125 
L 2.296875 47.703125 
L 2.296875 54.6875 
L 10.890625 54.6875 
L 10.890625 58.5 
Q 10.890625 67.625 15.140625 71.796875 
Q 19.390625 75.984375 28.609375 75.984375 
z
" id="DejaVuSans-102"/>
      <path d="M 34.28125 27.484375 
Q 23.390625 27.484375 19.1875 25 
Q 14.984375 22.515625 14.984375 16.5 
Q 14.984375 11.71875 18.140625 8.90625 
Q 21.296875 6.109375 26.703125 6.109375 
Q 34.1875 6.109375 38.703125 11.40625 
Q 43.21875 16.703125 43.21875 25.484375 
L 43.21875 27.484375 
z
M 52.203125 31.203125 
L 52.203125 0 
L 43.21875 0 
L 43.21875 8.296875 
Q 40.140625 3.328125 35.546875 0.953125 
Q 30.953125 -1.421875 24.3125 -1.421875 
Q 15.921875 -1.421875 10.953125 3.296875 
Q 6 8.015625 6 15.921875 
Q 6 25.140625 12.171875 29.828125 
Q 18.359375 34.515625 30.609375 34.515625 
L 43.21875 34.515625 
L 43.21875 35.40625 
Q 43.21875 41.609375 39.140625 45 
Q 35.0625 48.390625 27.6875 48.390625 
Q 23 48.390625 18.546875 47.265625 
Q 14.109375 46.140625 10.015625 43.890625 
L 10.015625 52.203125 
Q 14.9375 54.109375 19.578125 55.046875 
Q 24.21875 56 28.609375 56 
Q 40.484375 56 46.34375 49.84375 
Q 52.203125 43.703125 52.203125 31.203125 
z
" id="DejaVuSans-97"/>
      <path d="M 9.421875 75.984375 
L 18.40625 75.984375 
L 18.40625 0 
L 9.421875 0 
z
" id="DejaVuSans-108"/>
      <path d="M 56.203125 29.59375 
L 56.203125 25.203125 
L 14.890625 25.203125 
Q 15.484375 15.921875 20.484375 11.0625 
Q 25.484375 6.203125 34.421875 6.203125 
Q 39.59375 6.203125 44.453125 7.46875 
Q 49.3125 8.734375 54.109375 11.28125 
L 54.109375 2.78125 
Q 49.265625 0.734375 44.1875 -0.34375 
Q 39.109375 -1.421875 33.890625 -1.421875 
Q 20.796875 -1.421875 13.15625 6.1875 
Q 5.515625 13.8125 5.515625 26.8125 
Q 5.515625 40.234375 12.765625 48.109375 
Q 20.015625 56 32.328125 56 
Q 43.359375 56 49.78125 48.890625 
Q 56.203125 41.796875 56.203125 29.59375 
z
M 47.21875 32.234375 
Q 47.125 39.59375 43.09375 43.984375 
Q 39.0625 48.390625 32.421875 48.390625 
Q 24.90625 48.390625 20.390625 44.140625 
Q 15.875 39.890625 15.1875 32.171875 
z
" id="DejaVuSans-101"/>
      <path d="M 48.78125 52.59375 
L 48.78125 44.1875 
Q 44.96875 46.296875 41.140625 47.34375 
Q 37.3125 48.390625 33.40625 48.390625 
Q 24.65625 48.390625 19.8125 42.84375 
Q 14.984375 37.3125 14.984375 27.296875 
Q 14.984375 17.28125 19.8125 11.734375 
Q 24.65625 6.203125 33.40625 6.203125 
Q 37.3125 6.203125 41.140625 7.25 
Q 44.96875 8.296875 48.78125 10.40625 
L 48.78125 2.09375 
Q 45.015625 0.34375 40.984375 -0.53125 
Q 36.96875 -1.421875 32.421875 -1.421875 
Q 20.0625 -1.421875 12.78125 6.34375 
Q 5.515625 14.109375 5.515625 27.296875 
Q 5.515625 40.671875 12.859375 48.328125 
Q 20.21875 56 33.015625 56 
Q 37.15625 56 41.109375 55.140625 
Q 45.0625 54.296875 48.78125 52.59375 
z
" id="DejaVuSans-99"/>
      <path d="M 9.421875 54.6875 
L 18.40625 54.6875 
L 18.40625 0 
L 9.421875 0 
z
M 9.421875 75.984375 
L 18.40625 75.984375 
L 18.40625 64.59375 
L 9.421875 64.59375 
z
" id="DejaVuSans-105"/>
      <path d="M 45.40625 46.390625 
L 45.40625 75.984375 
L 54.390625 75.984375 
L 54.390625 0 
L 45.40625 0 
L 45.40625 8.203125 
Q 42.578125 3.328125 38.25 0.953125 
Q 33.9375 -1.421875 27.875 -1.421875 
Q 17.96875 -1.421875 11.734375 6.484375 
Q 5.515625 14.40625 5.515625 27.296875 
Q 5.515625 40.1875 11.734375 48.09375 
Q 17.96875 56 27.875 56 
Q 33.9375 56 38.25 53.625 
Q 42.578125 51.265625 45.40625 46.390625 
z
M 14.796875 27.296875 
Q 14.796875 17.390625 18.875 11.75 
Q 22.953125 6.109375 30.078125 6.109375 
Q 37.203125 6.109375 41.296875 11.75 
Q 45.40625 17.390625 45.40625 27.296875 
Q 45.40625 37.203125 41.296875 42.84375 
Q 37.203125 48.484375 30.078125 48.484375 
Q 22.953125 48.484375 18.875 42.84375 
Q 14.796875 37.203125 14.796875 27.296875 
z
" id="DejaVuSans-100"/>
      <path d="M 30.609375 48.390625 
Q 23.390625 48.390625 19.1875 42.75 
Q 14.984375 37.109375 14.984375 27.296875 
Q 14.984375 17.484375 19.15625 11.84375 
Q 23.34375 6.203125 30.609375 6.203125 
Q 37.796875 6.203125 41.984375 11.859375 
Q 46.1875 17.53125 46.1875 27.296875 
Q 46.1875 37.015625 41.984375 42.703125 
Q 37.796875 48.390625 30.609375 48.390625 
z
M 30.609375 56 
Q 42.328125 56 49.015625 48.375 
Q 55.71875 40.765625 55.71875 27.296875 
Q 55.71875 13.875 49.015625 6.21875 
Q 42.328125 -1.421875 30.609375 -1.421875 
Q 18.84375 -1.421875 12.171875 6.21875 
Q 5.515625 13.875 5.515625 27.296875 
Q 5.515625 40.765625 12.171875 48.375 
Q 18.84375 56 30.609375 56 
z
" id="DejaVuSans-111"/>
      <path d="M 44.28125 53.078125 
L 44.28125 44.578125 
Q 40.484375 46.53125 36.375 47.5 
Q 32.28125 48.484375 27.875 48.484375 
Q 21.1875 48.484375 17.84375 46.4375 
Q 14.5 44.390625 14.5 40.28125 
Q 14.5 37.15625 16.890625 35.375 
Q 19.28125 33.59375 26.515625 31.984375 
L 29.59375 31.296875 
Q 39.15625 29.25 43.1875 25.515625 
Q 47.21875 21.78125 47.21875 15.09375 
Q 47.21875 7.46875 41.1875 3.015625 
Q 35.15625 -1.421875 24.609375 -1.421875 
Q 20.21875 -1.421875 15.453125 -0.5625 
Q 10.6875 0.296875 5.421875 2 
L 5.421875 11.28125 
Q 10.40625 8.6875 15.234375 7.390625 
Q 20.0625 6.109375 24.8125 6.109375 
Q 31.15625 6.109375 34.5625 8.28125 
Q 37.984375 10.453125 37.984375 14.40625 
Q 37.984375 18.0625 35.515625 20.015625 
Q 33.0625 21.96875 24.703125 23.78125 
L 21.578125 24.515625 
Q 13.234375 26.265625 9.515625 29.90625 
Q 5.8125 33.546875 5.8125 39.890625 
Q 5.8125 47.609375 11.28125 51.796875 
Q 16.75 56 26.8125 56 
Q 31.78125 56 36.171875 55.265625 
Q 40.578125 54.546875 44.28125 53.078125 
z
" id="DejaVuSans-115"/>
      <path d="M 41.109375 46.296875 
Q 39.59375 47.171875 37.8125 47.578125 
Q 36.03125 48 33.890625 48 
Q 26.265625 48 22.1875 43.046875 
Q 18.109375 38.09375 18.109375 28.8125 
L 18.109375 0 
L 9.078125 0 
L 9.078125 54.6875 
L 18.109375 54.6875 
L 18.109375 46.1875 
Q 20.953125 51.171875 25.484375 53.578125 
Q 30.03125 56 36.53125 56 
Q 37.453125 56 38.578125 55.875 
Q 39.703125 55.765625 41.0625 55.515625 
z
" id="DejaVuSans-114"/>
     </defs>
     <g transform="translate(18.398438 195.335977)rotate(-90)scale(0.1 -0.1)">
      <use xlink:href="#DejaVuSans-80"/>
      <use x="60.302734" xlink:href="#DejaVuSans-86"/>
      <use x="128.710938" xlink:href="#DejaVuSans-32"/>
      <use x="160.498047" xlink:href="#DejaVuSans-102"/>
      <use x="195.703125" xlink:href="#DejaVuSans-97"/>
      <use x="256.982422" xlink:href="#DejaVuSans-108"/>
      <use x="284.765625" xlink:href="#DejaVuSans-108"/>
      <use x="312.548828" xlink:href="#DejaVuSans-101"/>
      <use x="374.072266" xlink:href="#DejaVuSans-99"/>
      <use x="429.052734" xlink:href="#DejaVuSans-105"/>
      <use x="456.835938" xlink:href="#DejaVuSans-100"/>
      <use x="520.3125" xlink:href="#DejaVuSans-111"/>
      <use x="581.494141" xlink:href="#DejaVuSans-115"/>
      <use x="633.59375" xlink:href="#DejaVuSans-32"/>
      <use x="665.380859" xlink:href="#DejaVuSans-100"/>
      <use x="728.857422" xlink:href="#DejaVuSans-105"/>
      <use x="756.640625" xlink:href="#DejaVuSans-97"/>
      <use x="817.919922" xlink:href="#DejaVuSans-114"/>
      <use x="859.033203" xlink:href="#DejaVuSans-105"/>
      <use x="886.816406" xlink:href="#DejaVuSans-111"/>
      <use x="947.998047" xlink:href="#DejaVuSans-115"/>
     </g>
    </g>
   </g>
   <g id="line2d_12">
    <path clip-path="url(#p6636da110c)" d="M 62.513817 279.86258 
L 67.899315 279.86258 
L 73.284812 256.135721 
L 78.67031 265.626464 
L 84.055808 279.86258 
L 89.441305 237.154234 
L 94.826803 279.86258 
L 100.2123 218.172747 
L 105.597798 260.881093 
L 110.983296 218.172747 
L 116.368793 194.445888 
L 121.754291 213.427375 
L 127.139789 222.918118 
L 132.525286 170.719029 
L 137.910784 218.172747 
L 143.296282 175.464401 
L 148.681779 161.228285 
L 154.067277 151.737542 
L 159.452775 118.519939 
L 164.838272 165.973657 
L 170.22377 128.010683 
L 175.609267 146.99217 
L 180.994765 71.066222 
L 186.380263 75.811593 
L 191.76576 128.010683 
L 197.151258 123.265311 
L 202.536756 99.538452 
L 207.922253 123.265311 
L 213.307751 99.538452 
L 218.693249 47.339363 
L 224.078746 23.612504 
L 229.464244 90.047709 
L 234.849742 109.029196 
L 240.235239 94.79308 
L 245.620737 151.737542 
L 251.006234 146.99217 
L 256.391732 75.811593 
L 261.77723 23.612504 
L 267.162727 109.029196 
L 272.548225 146.99217 
L 277.933723 80.556965 
L 283.31922 189.700516 
L 288.704718 175.464401 
L 294.090216 180.209772 
L 299.475713 75.811593 
L 304.861211 156.482913 
L 310.246709 189.700516 
L 315.632206 194.445888 
L 321.017704 227.66349 
L 326.403201 213.427375 
L 331.788699 189.700516 
L 337.174197 175.464401 
L 342.559694 203.936631 
L 347.945192 237.154234 
L 353.33069 241.899605 
L 358.716187 222.918118 
L 364.101685 222.918118 
L 369.487183 227.66349 
L 374.87268 189.700516 
L 380.258178 246.644977 
L 385.643676 218.172747 
L 391.029173 208.682003 
L 396.414671 256.135721 
L 401.800168 251.390349 
L 407.185666 218.172747 
L 412.571164 222.918118 
L 417.956661 279.86258 
L 423.342159 275.117208 
L 428.727657 260.881093 
" style="fill:none;stroke:#1f77b4;stroke-linecap:square;stroke-width:1.5;"/>
    <defs>
     <path d="M 0 1.5 
C 0.397805 1.5 0.77937 1.341951 1.06066 1.06066 
C 1.341951 0.77937 1.5 0.397805 1.5 0 
C 1.5 -0.397805 1.341951 -0.77937 1.06066 -1.06066 
C 0.77937 -1.341951 0.397805 -1.5 0 -1.5 
C -0.397805 -1.5 -0.77937 -1.341951 -1.06066 -1.06066 
C -1.341951 -0.77937 -1.5 -0.397805 -1.5 0 
C -1.5 0.397805 -1.341951 0.77937 -1.06066 1.06066 
C -0.77937 1.341951 -0.397805 1.5 0 1.5 
z
" id="md4e2272aad" style="stroke:#1f77b4;"/>
    </defs>
    <g clip-path="url(#p6636da110c)">
     <use style="fill:#1f77b4;stroke:#1f77b4;" x="62.513817" xlink:href="#md4e2272aad" y="279.86258"/>
     <use style="fill:#1f77b4;stroke:#1f77b4;" x="67.899315" xlink:href="#md4e2272aad" y="279.86258"/>
     <use style="fill:#1f77b4;stroke:#1f77b4;" x="73.284812" xlink:href="#md4e2272aad" y="256.135721"/>
     <use style="fill:#1f77b4;stroke:#1f77b4;" x="78.67031" xlink:href="#md4e2272aad" y="265.626464"/>
     <use style="fill:#1f77b4;stroke:#1f77b4;" x="84.055808" xlink:href="#md4e2272aad" y="279.86258"/>
     <use style="fill:#1f77b4;stroke:#1f77b4;" x="89.441305" xlink:href="#md4e2272aad" y="237.154234"/>
     <use style="fill:#1f77b4;stroke:#1f77b4;" x="94.826803" xlink:href="#md4e2272aad" y="279.86258"/>
     <use style="fill:#1f77b4;stroke:#1f77b4;" x="100.2123" xlink:href="#md4e2272aad" y="218.172747"/>
     <use style="fill:#1f77b4;stroke:#1f77b4;" x="105.597798" xlink:href="#md4e2272aad" y="260.881093"/>
     <use style="fill:#1f77b4;stroke:#1f77b4;" x="110.983296" xlink:href="#md4e2272aad" y="218.172747"/>
     <use style="fill:#1f77b4;stroke:#1f77b4;" x="116.368793" xlink:href="#md4e2272aad" y="194.445888"/>
     <use style="fill:#1f77b4;stroke:#1f77b4;" x="121.754291" xlink:href="#md4e2272aad" y="213.427375"/>
     <use style="fill:#1f77b4;stroke:#1f77b4;" x="127.139789" xlink:href="#md4e2272aad" y="222.918118"/>
     <use style="fill:#1f77b4;stroke:#1f77b4;" x="132.525286" xlink:href="#md4e2272aad" y="170.719029"/>
     <use style="fill:#1f77b4;stroke:#1f77b4;" x="137.910784" xlink:href="#md4e2272aad" y="218.172747"/>
     <use style="fill:#1f77b4;stroke:#1f77b4;" x="143.296282" xlink:href="#md4e2272aad" y="175.464401"/>
     <use style="fill:#1f77b4;stroke:#1f77b4;" x="148.681779" xlink:href="#md4e2272aad" y="161.228285"/>
     <use style="fill:#1f77b4;stroke:#1f77b4;" x="154.067277" xlink:href="#md4e2272aad" y="151.737542"/>
     <use style="fill:#1f77b4;stroke:#1f77b4;" x="159.452775" xlink:href="#md4e2272aad" y="118.519939"/>
     <use style="fill:#1f77b4;stroke:#1f77b4;" x="164.838272" xlink:href="#md4e2272aad" y="165.973657"/>
     <use style="fill:#1f77b4;stroke:#1f77b4;" x="170.22377" xlink:href="#md4e2272aad" y="128.010683"/>
     <use style="fill:#1f77b4;stroke:#1f77b4;" x="175.609267" xlink:href="#md4e2272aad" y="146.99217"/>
     <use style="fill:#1f77b4;stroke:#1f77b4;" x="180.994765" xlink:href="#md4e2272aad" y="71.066222"/>
     <use style="fill:#1f77b4;stroke:#1f77b4;" x="186.380263" xlink:href="#md4e2272aad" y="75.811593"/>
     <use style="fill:#1f77b4;stroke:#1f77b4;" x="191.76576" xlink:href="#md4e2272aad" y="128.010683"/>
     <use style="fill:#1f77b4;stroke:#1f77b4;" x="197.151258" xlink:href="#md4e2272aad" y="123.265311"/>
     <use style="fill:#1f77b4;stroke:#1f77b4;" x="202.536756" xlink:href="#md4e2272aad" y="99.538452"/>
     <use style="fill:#1f77b4;stroke:#1f77b4;" x="207.922253" xlink:href="#md4e2272aad" y="123.265311"/>
     <use style="fill:#1f77b4;stroke:#1f77b4;" x="213.307751" xlink:href="#md4e2272aad" y="99.538452"/>
     <use style="fill:#1f77b4;stroke:#1f77b4;" x="218.693249" xlink:href="#md4e2272aad" y="47.339363"/>
     <use style="fill:#1f77b4;stroke:#1f77b4;" x="224.078746" xlink:href="#md4e2272aad" y="23.612504"/>
     <use style="fill:#1f77b4;stroke:#1f77b4;" x="229.464244" xlink:href="#md4e2272aad" y="90.047709"/>
     <use style="fill:#1f77b4;stroke:#1f77b4;" x="234.849742" xlink:href="#md4e2272aad" y="109.029196"/>
     <use style="fill:#1f77b4;stroke:#1f77b4;" x="240.235239" xlink:href="#md4e2272aad" y="94.79308"/>
     <use style="fill:#1f77b4;stroke:#1f77b4;" x="245.620737" xlink:href="#md4e2272aad" y="151.737542"/>
     <use style="fill:#1f77b4;stroke:#1f77b4;" x="251.006234" xlink:href="#md4e2272aad" y="146.99217"/>
     <use style="fill:#1f77b4;stroke:#1f77b4;" x="256.391732" xlink:href="#md4e2272aad" y="75.811593"/>
     <use style="fill:#1f77b4;stroke:#1f77b4;" x="261.77723" xlink:href="#md4e2272aad" y="23.612504"/>
     <use style="fill:#1f77b4;stroke:#1f77b4;" x="267.162727" xlink:href="#md4e2272aad" y="109.029196"/>
     <use style="fill:#1f77b4;stroke:#1f77b4;" x="272.548225" xlink:href="#md4e2272aad" y="146.99217"/>
     <use style="fill:#1f77b4;stroke:#1f77b4;" x="277.933723" xlink:href="#md4e2272aad" y="80.556965"/>
     <use style="fill:#1f77b4;stroke:#1f77b4;" x="283.31922" xlink:href="#md4e2272aad" y="189.700516"/>
     <use style="fill:#1f77b4;stroke:#1f77b4;" x="288.704718" xlink:href="#md4e2272aad" y="175.464401"/>
     <use style="fill:#1f77b4;stroke:#1f77b4;" x="294.090216" xlink:href="#md4e2272aad" y="180.209772"/>
     <use style="fill:#1f77b4;stroke:#1f77b4;" x="299.475713" xlink:href="#md4e2272aad" y="75.811593"/>
     <use style="fill:#1f77b4;stroke:#1f77b4;" x="304.861211" xlink:href="#md4e2272aad" y="156.482913"/>
     <use style="fill:#1f77b4;stroke:#1f77b4;" x="310.246709" xlink:href="#md4e2272aad" y="189.700516"/>
     <use style="fill:#1f77b4;stroke:#1f77b4;" x="315.632206" xlink:href="#md4e2272aad" y="194.445888"/>
     <use style="fill:#1f77b4;stroke:#1f77b4;" x="321.017704" xlink:href="#md4e2272aad" y="227.66349"/>
     <use style="fill:#1f77b4;stroke:#1f77b4;" x="326.403201" xlink:href="#md4e2272aad" y="213.427375"/>
     <use style="fill:#1f77b4;stroke:#1f77b4;" x="331.788699" xlink:href="#md4e2272aad" y="189.700516"/>
     <use style="fill:#1f77b4;stroke:#1f77b4;" x="337.174197" xlink:href="#md4e2272aad" y="175.464401"/>
     <use style="fill:#1f77b4;stroke:#1f77b4;" x="342.559694" xlink:href="#md4e2272aad" y="203.936631"/>
     <use style="fill:#1f77b4;stroke:#1f77b4;" x="347.945192" xlink:href="#md4e2272aad" y="237.154234"/>
     <use style="fill:#1f77b4;stroke:#1f77b4;" x="353.33069" xlink:href="#md4e2272aad" y="241.899605"/>
     <use style="fill:#1f77b4;stroke:#1f77b4;" x="358.716187" xlink:href="#md4e2272aad" y="222.918118"/>
     <use style="fill:#1f77b4;stroke:#1f77b4;" x="364.101685" xlink:href="#md4e2272aad" y="222.918118"/>
     <use style="fill:#1f77b4;stroke:#1f77b4;" x="369.487183" xlink:href="#md4e2272aad" y="227.66349"/>
     <use style="fill:#1f77b4;stroke:#1f77b4;" x="374.87268" xlink:href="#md4e2272aad" y="189.700516"/>
     <use style="fill:#1f77b4;stroke:#1f77b4;" x="380.258178" xlink:href="#md4e2272aad" y="246.644977"/>
     <use style="fill:#1f77b4;stroke:#1f77b4;" x="385.643676" xlink:href="#md4e2272aad" y="218.172747"/>
     <use style="fill:#1f77b4;stroke:#1f77b4;" x="391.029173" xlink:href="#md4e2272aad" y="208.682003"/>
     <use style="fill:#1f77b4;stroke:#1f77b4;" x="396.414671" xlink:href="#md4e2272aad" y="256.135721"/>
     <use style="fill:#1f77b4;stroke:#1f77b4;" x="401.800168" xlink:href="#md4e2272aad" y="251.390349"/>
     <use style="fill:#1f77b4;stroke:#1f77b4;" x="407.185666" xlink:href="#md4e2272aad" y="218.172747"/>
     <use style="fill:#1f77b4;stroke:#1f77b4;" x="412.571164" xlink:href="#md4e2272aad" y="222.918118"/>
     <use style="fill:#1f77b4;stroke:#1f77b4;" x="417.956661" xlink:href="#md4e2272aad" y="279.86258"/>
     <use style="fill:#1f77b4;stroke:#1f77b4;" x="423.342159" xlink:href="#md4e2272aad" y="275.117208"/>
     <use style="fill:#1f77b4;stroke:#1f77b4;" x="428.727657" xlink:href="#md4e2272aad" y="260.881093"/>
    </g>
   </g>
   <g id="patch_3">
    <path d="M 44.203125 279.86258 
L 44.203125 10.8 
" style="fill:none;stroke:#000000;stroke-linecap:square;stroke-linejoin:miter;stroke-width:0.8;"/>
   </g>
   <g id="patch_4">
    <path d="M 447.038349 279.86258 
L 447.038349 10.8 
" style="fill:none;stroke:#000000;stroke-linecap:square;stroke-linejoin:miter;stroke-width:0.8;"/>
   </g>
   <g id="patch_5">
    <path d="M 44.203125 279.86258 
L 447.038349 279.86258 
" style="fill:none;stroke:#000000;stroke-linecap:square;stroke-linejoin:miter;stroke-width:0.8;"/>
   </g>
   <g id="patch_6">
    <path d="M 44.203125 10.8 
L 447.038349 10.8 
" style="fill:none;stroke:#000000;stroke-linecap:square;stroke-linejoin:miter;stroke-width:0.8;"/>
   </g>
  </g>
 </g>
 <defs>
  <clipPath id="p6636da110c">
   <rect height="269.06258" width="402.835224" x="44.203125" y="10.8"/>
  </clipPath>
 </defs>
</svg>
