<?xml version="1.0" encoding="utf-8" standalone="no"?>
<!DOCTYPE svg PUBLIC "-//W3C//DTD SVG 1.1//EN"
  "http://www.w3.org/Graphics/SVG/1.1/DTD/svg11.dtd">
<!-- Created with matplotlib (https://matplotlib.org/) -->
<svg height="345.6pt" version="1.1" viewBox="0 0 460.8 345.6" width="460.8pt" xmlns="http://www.w3.org/2000/svg" xmlns:xlink="http://www.w3.org/1999/xlink">
 <defs>
  <style type="text/css">
*{stroke-linecap:butt;stroke-linejoin:round;}
  </style>
 </defs>
 <g id="figure_1">
  <g id="patch_1">
   <path d="M 0 345.6 
L 460.8 345.6 
L 460.8 0 
L 0 0 
z
" style="fill:#ffffff;"/>
  </g>
  <g id="axes_1">
   <g id="patch_2">
    <path d="M 50.565625 279.86258 
L 447.109607 279.86258 
L 447.109607 10.8 
L 50.565625 10.8 
z
" style="fill:#ffffff;"/>
   </g>
   <g id="matplotlib.axis_1">
    <g id="xtick_1">
     <g id="line2d_1">
      <defs>
       <path d="M 0 0 
L 0 3.5 
" id="m695dc7e4eb" style="stroke:#000000;stroke-width:0.8;"/>
      </defs>
      <g>
       <use style="stroke:#000000;stroke-width:0.8;" x="95.492928" xlink:href="#m695dc7e4eb" y="279.86258"/>
      </g>
     </g>
     <g id="text_1">
      <!-- 2020-03-15 -->
      <defs>
       <path d="M 19.1875 8.296875 
L 53.609375 8.296875 
L 53.609375 0 
L 7.328125 0 
L 7.328125 8.296875 
Q 12.9375 14.109375 22.625 23.890625 
Q 32.328125 33.6875 34.8125 36.53125 
Q 39.546875 41.84375 41.421875 45.53125 
Q 43.3125 49.21875 43.3125 52.78125 
Q 43.3125 58.59375 39.234375 62.25 
Q 35.15625 65.921875 28.609375 65.921875 
Q 23.96875 65.921875 18.8125 64.3125 
Q 13.671875 62.703125 7.8125 59.421875 
L 7.8125 69.390625 
Q 13.765625 71.78125 18.9375 73 
Q 24.125 74.21875 28.421875 74.21875 
Q 39.75 74.21875 46.484375 68.546875 
Q 53.21875 62.890625 53.21875 53.421875 
Q 53.21875 48.921875 51.53125 44.890625 
Q 49.859375 40.875 45.40625 35.40625 
Q 44.1875 33.984375 37.640625 27.21875 
Q 31.109375 20.453125 19.1875 8.296875 
z
" id="DejaVuSans-50"/>
       <path d="M 31.78125 66.40625 
Q 24.171875 66.40625 20.328125 58.90625 
Q 16.5 51.421875 16.5 36.375 
Q 16.5 21.390625 20.328125 13.890625 
Q 24.171875 6.390625 31.78125 6.390625 
Q 39.453125 6.390625 43.28125 13.890625 
Q 47.125 21.390625 47.125 36.375 
Q 47.125 51.421875 43.28125 58.90625 
Q 39.453125 66.40625 31.78125 66.40625 
z
M 31.78125 74.21875 
Q 44.046875 74.21875 50.515625 64.515625 
Q 56.984375 54.828125 56.984375 36.375 
Q 56.984375 17.96875 50.515625 8.265625 
Q 44.046875 -1.421875 31.78125 -1.421875 
Q 19.53125 -1.421875 13.0625 8.265625 
Q 6.59375 17.96875 6.59375 36.375 
Q 6.59375 54.828125 13.0625 64.515625 
Q 19.53125 74.21875 31.78125 74.21875 
z
" id="DejaVuSans-48"/>
       <path d="M 4.890625 31.390625 
L 31.203125 31.390625 
L 31.203125 23.390625 
L 4.890625 23.390625 
z
" id="DejaVuSans-45"/>
       <path d="M 40.578125 39.3125 
Q 47.65625 37.796875 51.625 33 
Q 55.609375 28.21875 55.609375 21.1875 
Q 55.609375 10.40625 48.1875 4.484375 
Q 40.765625 -1.421875 27.09375 -1.421875 
Q 22.515625 -1.421875 17.65625 -0.515625 
Q 12.796875 0.390625 7.625 2.203125 
L 7.625 11.71875 
Q 11.71875 9.328125 16.59375 8.109375 
Q 21.484375 6.890625 26.8125 6.890625 
Q 36.078125 6.890625 40.9375 10.546875 
Q 45.796875 14.203125 45.796875 21.1875 
Q 45.796875 27.640625 41.28125 31.265625 
Q 36.765625 34.90625 28.71875 34.90625 
L 20.21875 34.90625 
L 20.21875 43.015625 
L 29.109375 43.015625 
Q 36.375 43.015625 40.234375 45.921875 
Q 44.09375 48.828125 44.09375 54.296875 
Q 44.09375 59.90625 40.109375 62.90625 
Q 36.140625 65.921875 28.71875 65.921875 
Q 24.65625 65.921875 20.015625 65.03125 
Q 15.375 64.15625 9.8125 62.3125 
L 9.8125 71.09375 
Q 15.4375 72.65625 20.34375 73.4375 
Q 25.25 74.21875 29.59375 74.21875 
Q 40.828125 74.21875 47.359375 69.109375 
Q 53.90625 64.015625 53.90625 55.328125 
Q 53.90625 49.265625 50.4375 45.09375 
Q 46.96875 40.921875 40.578125 39.3125 
z
" id="DejaVuSans-51"/>
       <path d="M 12.40625 8.296875 
L 28.515625 8.296875 
L 28.515625 63.921875 
L 10.984375 60.40625 
L 10.984375 69.390625 
L 28.421875 72.90625 
L 38.28125 72.90625 
L 38.28125 8.296875 
L 54.390625 8.296875 
L 54.390625 0 
L 12.40625 0 
z
" id="DejaVuSans-49"/>
       <path d="M 10.796875 72.90625 
L 49.515625 72.90625 
L 49.515625 64.59375 
L 19.828125 64.59375 
L 19.828125 46.734375 
Q 21.96875 47.46875 24.109375 47.828125 
Q 26.265625 48.1875 28.421875 48.1875 
Q 40.625 48.1875 47.75 41.5 
Q 54.890625 34.8125 54.890625 23.390625 
Q 54.890625 11.625 47.5625 5.09375 
Q 40.234375 -1.421875 26.90625 -1.421875 
Q 22.3125 -1.421875 17.546875 -0.640625 
Q 12.796875 0.140625 7.71875 1.703125 
L 7.71875 11.625 
Q 12.109375 9.234375 16.796875 8.0625 
Q 21.484375 6.890625 26.703125 6.890625 
Q 35.15625 6.890625 40.078125 11.328125 
Q 45.015625 15.765625 45.015625 23.390625 
Q 45.015625 31 40.078125 35.4375 
Q 35.15625 39.890625 26.703125 39.890625 
Q 22.75 39.890625 18.8125 39.015625 
Q 14.890625 38.140625 10.796875 36.28125 
z
" id="DejaVuSans-53"/>
      </defs>
      <g transform="translate(76.897125 333.329439)rotate(-45)scale(0.1 -0.1)">
       <use xlink:href="#DejaVuSans-50"/>
       <use x="63.623047" xlink:href="#DejaVuSans-48"/>
       <use x="127.246094" xlink:href="#DejaVuSans-50"/>
       <use x="190.869141" xlink:href="#DejaVuSans-48"/>
       <use x="254.492188" xlink:href="#DejaVuSans-45"/>
       <use x="290.576172" xlink:href="#DejaVuSans-48"/>
       <use x="354.199219" xlink:href="#DejaVuSans-51"/>
       <use x="417.822266" xlink:href="#DejaVuSans-45"/>
       <use x="453.90625" xlink:href="#DejaVuSans-49"/>
       <use x="517.529297" xlink:href="#DejaVuSans-53"/>
      </g>
     </g>
    </g>
    <g id="xtick_2">
     <g id="line2d_2">
      <g>
       <use style="stroke:#000000;stroke-width:0.8;" x="186.961689" xlink:href="#m695dc7e4eb" y="279.86258"/>
      </g>
     </g>
     <g id="text_2">
      <!-- 2020-04-01 -->
      <defs>
       <path d="M 37.796875 64.3125 
L 12.890625 25.390625 
L 37.796875 25.390625 
z
M 35.203125 72.90625 
L 47.609375 72.90625 
L 47.609375 25.390625 
L 58.015625 25.390625 
L 58.015625 17.1875 
L 47.609375 17.1875 
L 47.609375 0 
L 37.796875 0 
L 37.796875 17.1875 
L 4.890625 17.1875 
L 4.890625 26.703125 
z
" id="DejaVuSans-52"/>
      </defs>
      <g transform="translate(168.365886 333.329439)rotate(-45)scale(0.1 -0.1)">
       <use xlink:href="#DejaVuSans-50"/>
       <use x="63.623047" xlink:href="#DejaVuSans-48"/>
       <use x="127.246094" xlink:href="#DejaVuSans-50"/>
       <use x="190.869141" xlink:href="#DejaVuSans-48"/>
       <use x="254.492188" xlink:href="#DejaVuSans-45"/>
       <use x="290.576172" xlink:href="#DejaVuSans-48"/>
       <use x="354.199219" xlink:href="#DejaVuSans-52"/>
       <use x="417.822266" xlink:href="#DejaVuSans-45"/>
       <use x="453.90625" xlink:href="#DejaVuSans-48"/>
       <use x="517.529297" xlink:href="#DejaVuSans-49"/>
      </g>
     </g>
    </g>
    <g id="xtick_3">
     <g id="line2d_3">
      <g>
       <use style="stroke:#000000;stroke-width:0.8;" x="262.288905" xlink:href="#m695dc7e4eb" y="279.86258"/>
      </g>
     </g>
     <g id="text_3">
      <!-- 2020-04-15 -->
      <g transform="translate(243.693101 333.329439)rotate(-45)scale(0.1 -0.1)">
       <use xlink:href="#DejaVuSans-50"/>
       <use x="63.623047" xlink:href="#DejaVuSans-48"/>
       <use x="127.246094" xlink:href="#DejaVuSans-50"/>
       <use x="190.869141" xlink:href="#DejaVuSans-48"/>
       <use x="254.492188" xlink:href="#DejaVuSans-45"/>
       <use x="290.576172" xlink:href="#DejaVuSans-48"/>
       <use x="354.199219" xlink:href="#DejaVuSans-52"/>
       <use x="417.822266" xlink:href="#DejaVuSans-45"/>
       <use x="453.90625" xlink:href="#DejaVuSans-49"/>
       <use x="517.529297" xlink:href="#DejaVuSans-53"/>
      </g>
     </g>
    </g>
    <g id="xtick_4">
     <g id="line2d_4">
      <g>
       <use style="stroke:#000000;stroke-width:0.8;" x="348.37715" xlink:href="#m695dc7e4eb" y="279.86258"/>
      </g>
     </g>
     <g id="text_4">
      <!-- 2020-05-01 -->
      <g transform="translate(329.781347 333.329439)rotate(-45)scale(0.1 -0.1)">
       <use xlink:href="#DejaVuSans-50"/>
       <use x="63.623047" xlink:href="#DejaVuSans-48"/>
       <use x="127.246094" xlink:href="#DejaVuSans-50"/>
       <use x="190.869141" xlink:href="#DejaVuSans-48"/>
       <use x="254.492188" xlink:href="#DejaVuSans-45"/>
       <use x="290.576172" xlink:href="#DejaVuSans-48"/>
       <use x="354.199219" xlink:href="#DejaVuSans-53"/>
       <use x="417.822266" xlink:href="#DejaVuSans-45"/>
       <use x="453.90625" xlink:href="#DejaVuSans-48"/>
       <use x="517.529297" xlink:href="#DejaVuSans-49"/>
      </g>
     </g>
    </g>
    <g id="xtick_5">
     <g id="line2d_5">
      <g>
       <use style="stroke:#000000;stroke-width:0.8;" x="423.704365" xlink:href="#m695dc7e4eb" y="279.86258"/>
      </g>
     </g>
     <g id="text_5">
      <!-- 2020-05-15 -->
      <g transform="translate(405.108562 333.329439)rotate(-45)scale(0.1 -0.1)">
       <use xlink:href="#DejaVuSans-50"/>
       <use x="63.623047" xlink:href="#DejaVuSans-48"/>
       <use x="127.246094" xlink:href="#DejaVuSans-50"/>
       <use x="190.869141" xlink:href="#DejaVuSans-48"/>
       <use x="254.492188" xlink:href="#DejaVuSans-45"/>
       <use x="290.576172" xlink:href="#DejaVuSans-48"/>
       <use x="354.199219" xlink:href="#DejaVuSans-53"/>
       <use x="417.822266" xlink:href="#DejaVuSans-45"/>
       <use x="453.90625" xlink:href="#DejaVuSans-49"/>
       <use x="517.529297" xlink:href="#DejaVuSans-53"/>
      </g>
     </g>
    </g>
   </g>
   <g id="matplotlib.axis_2">
    <g id="ytick_1">
     <g id="line2d_6">
      <defs>
       <path d="M 0 0 
L -3.5 0 
" id="m6e1ea2c70e" style="stroke:#000000;stroke-width:0.8;"/>
      </defs>
      <g>
       <use style="stroke:#000000;stroke-width:0.8;" x="50.565625" xlink:href="#m6e1ea2c70e" y="279.86258"/>
      </g>
     </g>
     <g id="text_6">
      <!-- 0 -->
      <g transform="translate(37.203125 283.661798)scale(0.1 -0.1)">
       <use xlink:href="#DejaVuSans-48"/>
      </g>
     </g>
    </g>
    <g id="ytick_2">
     <g id="line2d_7">
      <g>
       <use style="stroke:#000000;stroke-width:0.8;" x="50.565625" xlink:href="#m6e1ea2c70e" y="244.42999"/>
      </g>
     </g>
     <g id="text_7">
      <!-- 50 -->
      <g transform="translate(30.840625 248.229209)scale(0.1 -0.1)">
       <use xlink:href="#DejaVuSans-53"/>
       <use x="63.623047" xlink:href="#DejaVuSans-48"/>
      </g>
     </g>
    </g>
    <g id="ytick_3">
     <g id="line2d_8">
      <g>
       <use style="stroke:#000000;stroke-width:0.8;" x="50.565625" xlink:href="#m6e1ea2c70e" y="208.997401"/>
      </g>
     </g>
     <g id="text_8">
      <!-- 100 -->
      <g transform="translate(24.478125 212.79662)scale(0.1 -0.1)">
       <use xlink:href="#DejaVuSans-49"/>
       <use x="63.623047" xlink:href="#DejaVuSans-48"/>
       <use x="127.246094" xlink:href="#DejaVuSans-48"/>
      </g>
     </g>
    </g>
    <g id="ytick_4">
     <g id="line2d_9">
      <g>
       <use style="stroke:#000000;stroke-width:0.8;" x="50.565625" xlink:href="#m6e1ea2c70e" y="173.564812"/>
      </g>
     </g>
     <g id="text_9">
      <!-- 150 -->
      <g transform="translate(24.478125 177.36403)scale(0.1 -0.1)">
       <use xlink:href="#DejaVuSans-49"/>
       <use x="63.623047" xlink:href="#DejaVuSans-53"/>
       <use x="127.246094" xlink:href="#DejaVuSans-48"/>
      </g>
     </g>
    </g>
    <g id="ytick_5">
     <g id="line2d_10">
      <g>
       <use style="stroke:#000000;stroke-width:0.8;" x="50.565625" xlink:href="#m6e1ea2c70e" y="138.132222"/>
      </g>
     </g>
     <g id="text_10">
      <!-- 200 -->
      <g transform="translate(24.478125 141.931441)scale(0.1 -0.1)">
       <use xlink:href="#DejaVuSans-50"/>
       <use x="63.623047" xlink:href="#DejaVuSans-48"/>
       <use x="127.246094" xlink:href="#DejaVuSans-48"/>
      </g>
     </g>
    </g>
    <g id="ytick_6">
     <g id="line2d_11">
      <g>
       <use style="stroke:#000000;stroke-width:0.8;" x="50.565625" xlink:href="#m6e1ea2c70e" y="102.699633"/>
      </g>
     </g>
     <g id="text_11">
      <!-- 250 -->
      <g transform="translate(24.478125 106.498852)scale(0.1 -0.1)">
       <use xlink:href="#DejaVuSans-50"/>
       <use x="63.623047" xlink:href="#DejaVuSans-53"/>
       <use x="127.246094" xlink:href="#DejaVuSans-48"/>
      </g>
     </g>
    </g>
    <g id="ytick_7">
     <g id="line2d_12">
      <g>
       <use style="stroke:#000000;stroke-width:0.8;" x="50.565625" xlink:href="#m6e1ea2c70e" y="67.267044"/>
      </g>
     </g>
     <g id="text_12">
      <!-- 300 -->
      <g transform="translate(24.478125 71.066263)scale(0.1 -0.1)">
       <use xlink:href="#DejaVuSans-51"/>
       <use x="63.623047" xlink:href="#DejaVuSans-48"/>
       <use x="127.246094" xlink:href="#DejaVuSans-48"/>
      </g>
     </g>
    </g>
    <g id="ytick_8">
     <g id="line2d_13">
      <g>
       <use style="stroke:#000000;stroke-width:0.8;" x="50.565625" xlink:href="#m6e1ea2c70e" y="31.834454"/>
      </g>
     </g>
     <g id="text_13">
      <!-- 350 -->
      <g transform="translate(24.478125 35.633673)scale(0.1 -0.1)">
       <use xlink:href="#DejaVuSans-51"/>
       <use x="63.623047" xlink:href="#DejaVuSans-53"/>
       <use x="127.246094" xlink:href="#DejaVuSans-48"/>
      </g>
     </g>
    </g>
    <g id="text_14">
     <!-- CL hospitalizados (por 100000 hab.) acumulados -->
     <defs>
      <path d="M 64.40625 67.28125 
L 64.40625 56.890625 
Q 59.421875 61.53125 53.78125 63.8125 
Q 48.140625 66.109375 41.796875 66.109375 
Q 29.296875 66.109375 22.65625 58.46875 
Q 16.015625 50.828125 16.015625 36.375 
Q 16.015625 21.96875 22.65625 14.328125 
Q 29.296875 6.6875 41.796875 6.6875 
Q 48.140625 6.6875 53.78125 8.984375 
Q 59.421875 11.28125 64.40625 15.921875 
L 64.40625 5.609375 
Q 59.234375 2.09375 53.4375 0.328125 
Q 47.65625 -1.421875 41.21875 -1.421875 
Q 24.65625 -1.421875 15.125 8.703125 
Q 5.609375 18.84375 5.609375 36.375 
Q 5.609375 53.953125 15.125 64.078125 
Q 24.65625 74.21875 41.21875 74.21875 
Q 47.75 74.21875 53.53125 72.484375 
Q 59.328125 70.75 64.40625 67.28125 
z
" id="DejaVuSans-67"/>
      <path d="M 9.8125 72.90625 
L 19.671875 72.90625 
L 19.671875 8.296875 
L 55.171875 8.296875 
L 55.171875 0 
L 9.8125 0 
z
" id="DejaVuSans-76"/>
      <path id="DejaVuSans-32"/>
      <path d="M 54.890625 33.015625 
L 54.890625 0 
L 45.90625 0 
L 45.90625 32.71875 
Q 45.90625 40.484375 42.875 44.328125 
Q 39.84375 48.1875 33.796875 48.1875 
Q 26.515625 48.1875 22.3125 43.546875 
Q 18.109375 38.921875 18.109375 30.90625 
L 18.109375 0 
L 9.078125 0 
L 9.078125 75.984375 
L 18.109375 75.984375 
L 18.109375 46.1875 
Q 21.34375 51.125 25.703125 53.5625 
Q 30.078125 56 35.796875 56 
Q 45.21875 56 50.046875 50.171875 
Q 54.890625 44.34375 54.890625 33.015625 
z
" id="DejaVuSans-104"/>
      <path d="M 30.609375 48.390625 
Q 23.390625 48.390625 19.1875 42.75 
Q 14.984375 37.109375 14.984375 27.296875 
Q 14.984375 17.484375 19.15625 11.84375 
Q 23.34375 6.203125 30.609375 6.203125 
Q 37.796875 6.203125 41.984375 11.859375 
Q 46.1875 17.53125 46.1875 27.296875 
Q 46.1875 37.015625 41.984375 42.703125 
Q 37.796875 48.390625 30.609375 48.390625 
z
M 30.609375 56 
Q 42.328125 56 49.015625 48.375 
Q 55.71875 40.765625 55.71875 27.296875 
Q 55.71875 13.875 49.015625 6.21875 
Q 42.328125 -1.421875 30.609375 -1.421875 
Q 18.84375 -1.421875 12.171875 6.21875 
Q 5.515625 13.875 5.515625 27.296875 
Q 5.515625 40.765625 12.171875 48.375 
Q 18.84375 56 30.609375 56 
z
" id="DejaVuSans-111"/>
      <path d="M 44.28125 53.078125 
L 44.28125 44.578125 
Q 40.484375 46.53125 36.375 47.5 
Q 32.28125 48.484375 27.875 48.484375 
Q 21.1875 48.484375 17.84375 46.4375 
Q 14.5 44.390625 14.5 40.28125 
Q 14.5 37.15625 16.890625 35.375 
Q 19.28125 33.59375 26.515625 31.984375 
L 29.59375 31.296875 
Q 39.15625 29.25 43.1875 25.515625 
Q 47.21875 21.78125 47.21875 15.09375 
Q 47.21875 7.46875 41.1875 3.015625 
Q 35.15625 -1.421875 24.609375 -1.421875 
Q 20.21875 -1.421875 15.453125 -0.5625 
Q 10.6875 0.296875 5.421875 2 
L 5.421875 11.28125 
Q 10.40625 8.6875 15.234375 7.390625 
Q 20.0625 6.109375 24.8125 6.109375 
Q 31.15625 6.109375 34.5625 8.28125 
Q 37.984375 10.453125 37.984375 14.40625 
Q 37.984375 18.0625 35.515625 20.015625 
Q 33.0625 21.96875 24.703125 23.78125 
L 21.578125 24.515625 
Q 13.234375 26.265625 9.515625 29.90625 
Q 5.8125 33.546875 5.8125 39.890625 
Q 5.8125 47.609375 11.28125 51.796875 
Q 16.75 56 26.8125 56 
Q 31.78125 56 36.171875 55.265625 
Q 40.578125 54.546875 44.28125 53.078125 
z
" id="DejaVuSans-115"/>
      <path d="M 18.109375 8.203125 
L 18.109375 -20.796875 
L 9.078125 -20.796875 
L 9.078125 54.6875 
L 18.109375 54.6875 
L 18.109375 46.390625 
Q 20.953125 51.265625 25.265625 53.625 
Q 29.59375 56 35.59375 56 
Q 45.5625 56 51.78125 48.09375 
Q 58.015625 40.1875 58.015625 27.296875 
Q 58.015625 14.40625 51.78125 6.484375 
Q 45.5625 -1.421875 35.59375 -1.421875 
Q 29.59375 -1.421875 25.265625 0.953125 
Q 20.953125 3.328125 18.109375 8.203125 
z
M 48.6875 27.296875 
Q 48.6875 37.203125 44.609375 42.84375 
Q 40.53125 48.484375 33.40625 48.484375 
Q 26.265625 48.484375 22.1875 42.84375 
Q 18.109375 37.203125 18.109375 27.296875 
Q 18.109375 17.390625 22.1875 11.75 
Q 26.265625 6.109375 33.40625 6.109375 
Q 40.53125 6.109375 44.609375 11.75 
Q 48.6875 17.390625 48.6875 27.296875 
z
" id="DejaVuSans-112"/>
      <path d="M 9.421875 54.6875 
L 18.40625 54.6875 
L 18.40625 0 
L 9.421875 0 
z
M 9.421875 75.984375 
L 18.40625 75.984375 
L 18.40625 64.59375 
L 9.421875 64.59375 
z
" id="DejaVuSans-105"/>
      <path d="M 18.3125 70.21875 
L 18.3125 54.6875 
L 36.8125 54.6875 
L 36.8125 47.703125 
L 18.3125 47.703125 
L 18.3125 18.015625 
Q 18.3125 11.328125 20.140625 9.421875 
Q 21.96875 7.515625 27.59375 7.515625 
L 36.8125 7.515625 
L 36.8125 0 
L 27.59375 0 
Q 17.1875 0 13.234375 3.875 
Q 9.28125 7.765625 9.28125 18.015625 
L 9.28125 47.703125 
L 2.6875 47.703125 
L 2.6875 54.6875 
L 9.28125 54.6875 
L 9.28125 70.21875 
z
" id="DejaVuSans-116"/>
      <path d="M 34.28125 27.484375 
Q 23.390625 27.484375 19.1875 25 
Q 14.984375 22.515625 14.984375 16.5 
Q 14.984375 11.71875 18.140625 8.90625 
Q 21.296875 6.109375 26.703125 6.109375 
Q 34.1875 6.109375 38.703125 11.40625 
Q 43.21875 16.703125 43.21875 25.484375 
L 43.21875 27.484375 
z
M 52.203125 31.203125 
L 52.203125 0 
L 43.21875 0 
L 43.21875 8.296875 
Q 40.140625 3.328125 35.546875 0.953125 
Q 30.953125 -1.421875 24.3125 -1.421875 
Q 15.921875 -1.421875 10.953125 3.296875 
Q 6 8.015625 6 15.921875 
Q 6 25.140625 12.171875 29.828125 
Q 18.359375 34.515625 30.609375 34.515625 
L 43.21875 34.515625 
L 43.21875 35.40625 
Q 43.21875 41.609375 39.140625 45 
Q 35.0625 48.390625 27.6875 48.390625 
Q 23 48.390625 18.546875 47.265625 
Q 14.109375 46.140625 10.015625 43.890625 
L 10.015625 52.203125 
Q 14.9375 54.109375 19.578125 55.046875 
Q 24.21875 56 28.609375 56 
Q 40.484375 56 46.34375 49.84375 
Q 52.203125 43.703125 52.203125 31.203125 
z
" id="DejaVuSans-97"/>
      <path d="M 9.421875 75.984375 
L 18.40625 75.984375 
L 18.40625 0 
L 9.421875 0 
z
" id="DejaVuSans-108"/>
      <path d="M 5.515625 54.6875 
L 48.1875 54.6875 
L 48.1875 46.484375 
L 14.40625 7.171875 
L 48.1875 7.171875 
L 48.1875 0 
L 4.296875 0 
L 4.296875 8.203125 
L 38.09375 47.515625 
L 5.515625 47.515625 
z
" id="DejaVuSans-122"/>
      <path d="M 45.40625 46.390625 
L 45.40625 75.984375 
L 54.390625 75.984375 
L 54.390625 0 
L 45.40625 0 
L 45.40625 8.203125 
Q 42.578125 3.328125 38.25 0.953125 
Q 33.9375 -1.421875 27.875 -1.421875 
Q 17.96875 -1.421875 11.734375 6.484375 
Q 5.515625 14.40625 5.515625 27.296875 
Q 5.515625 40.1875 11.734375 48.09375 
Q 17.96875 56 27.875 56 
Q 33.9375 56 38.25 53.625 
Q 42.578125 51.265625 45.40625 46.390625 
z
M 14.796875 27.296875 
Q 14.796875 17.390625 18.875 11.75 
Q 22.953125 6.109375 30.078125 6.109375 
Q 37.203125 6.109375 41.296875 11.75 
Q 45.40625 17.390625 45.40625 27.296875 
Q 45.40625 37.203125 41.296875 42.84375 
Q 37.203125 48.484375 30.078125 48.484375 
Q 22.953125 48.484375 18.875 42.84375 
Q 14.796875 37.203125 14.796875 27.296875 
z
" id="DejaVuSans-100"/>
      <path d="M 31 75.875 
Q 24.46875 64.65625 21.28125 53.65625 
Q 18.109375 42.671875 18.109375 31.390625 
Q 18.109375 20.125 21.3125 9.0625 
Q 24.515625 -2 31 -13.1875 
L 23.1875 -13.1875 
Q 15.875 -1.703125 12.234375 9.375 
Q 8.59375 20.453125 8.59375 31.390625 
Q 8.59375 42.28125 12.203125 53.3125 
Q 15.828125 64.359375 23.1875 75.875 
z
" id="DejaVuSans-40"/>
      <path d="M 41.109375 46.296875 
Q 39.59375 47.171875 37.8125 47.578125 
Q 36.03125 48 33.890625 48 
Q 26.265625 48 22.1875 43.046875 
Q 18.109375 38.09375 18.109375 28.8125 
L 18.109375 0 
L 9.078125 0 
L 9.078125 54.6875 
L 18.109375 54.6875 
L 18.109375 46.1875 
Q 20.953125 51.171875 25.484375 53.578125 
Q 30.03125 56 36.53125 56 
Q 37.453125 56 38.578125 55.875 
Q 39.703125 55.765625 41.0625 55.515625 
z
" id="DejaVuSans-114"/>
      <path d="M 48.6875 27.296875 
Q 48.6875 37.203125 44.609375 42.84375 
Q 40.53125 48.484375 33.40625 48.484375 
Q 26.265625 48.484375 22.1875 42.84375 
Q 18.109375 37.203125 18.109375 27.296875 
Q 18.109375 17.390625 22.1875 11.75 
Q 26.265625 6.109375 33.40625 6.109375 
Q 40.53125 6.109375 44.609375 11.75 
Q 48.6875 17.390625 48.6875 27.296875 
z
M 18.109375 46.390625 
Q 20.953125 51.265625 25.265625 53.625 
Q 29.59375 56 35.59375 56 
Q 45.5625 56 51.78125 48.09375 
Q 58.015625 40.1875 58.015625 27.296875 
Q 58.015625 14.40625 51.78125 6.484375 
Q 45.5625 -1.421875 35.59375 -1.421875 
Q 29.59375 -1.421875 25.265625 0.953125 
Q 20.953125 3.328125 18.109375 8.203125 
L 18.109375 0 
L 9.078125 0 
L 9.078125 75.984375 
L 18.109375 75.984375 
z
" id="DejaVuSans-98"/>
      <path d="M 10.6875 12.40625 
L 21 12.40625 
L 21 0 
L 10.6875 0 
z
" id="DejaVuSans-46"/>
      <path d="M 8.015625 75.875 
L 15.828125 75.875 
Q 23.140625 64.359375 26.78125 53.3125 
Q 30.421875 42.28125 30.421875 31.390625 
Q 30.421875 20.453125 26.78125 9.375 
Q 23.140625 -1.703125 15.828125 -13.1875 
L 8.015625 -13.1875 
Q 14.5 -2 17.703125 9.0625 
Q 20.90625 20.125 20.90625 31.390625 
Q 20.90625 42.671875 17.703125 53.65625 
Q 14.5 64.65625 8.015625 75.875 
z
" id="DejaVuSans-41"/>
      <path d="M 48.78125 52.59375 
L 48.78125 44.1875 
Q 44.96875 46.296875 41.140625 47.34375 
Q 37.3125 48.390625 33.40625 48.390625 
Q 24.65625 48.390625 19.8125 42.84375 
Q 14.984375 37.3125 14.984375 27.296875 
Q 14.984375 17.28125 19.8125 11.734375 
Q 24.65625 6.203125 33.40625 6.203125 
Q 37.3125 6.203125 41.140625 7.25 
Q 44.96875 8.296875 48.78125 10.40625 
L 48.78125 2.09375 
Q 45.015625 0.34375 40.984375 -0.53125 
Q 36.96875 -1.421875 32.421875 -1.421875 
Q 20.0625 -1.421875 12.78125 6.34375 
Q 5.515625 14.109375 5.515625 27.296875 
Q 5.515625 40.671875 12.859375 48.328125 
Q 20.21875 56 33.015625 56 
Q 37.15625 56 41.109375 55.140625 
Q 45.0625 54.296875 48.78125 52.59375 
z
" id="DejaVuSans-99"/>
      <path d="M 8.5 21.578125 
L 8.5 54.6875 
L 17.484375 54.6875 
L 17.484375 21.921875 
Q 17.484375 14.15625 20.5 10.265625 
Q 23.53125 6.390625 29.59375 6.390625 
Q 36.859375 6.390625 41.078125 11.03125 
Q 45.3125 15.671875 45.3125 23.6875 
L 45.3125 54.6875 
L 54.296875 54.6875 
L 54.296875 0 
L 45.3125 0 
L 45.3125 8.40625 
Q 42.046875 3.421875 37.71875 1 
Q 33.40625 -1.421875 27.6875 -1.421875 
Q 18.265625 -1.421875 13.375 4.4375 
Q 8.5 10.296875 8.5 21.578125 
z
M 31.109375 56 
z
" id="DejaVuSans-117"/>
      <path d="M 52 44.1875 
Q 55.375 50.25 60.0625 53.125 
Q 64.75 56 71.09375 56 
Q 79.640625 56 84.28125 50.015625 
Q 88.921875 44.046875 88.921875 33.015625 
L 88.921875 0 
L 79.890625 0 
L 79.890625 32.71875 
Q 79.890625 40.578125 77.09375 44.375 
Q 74.3125 48.1875 68.609375 48.1875 
Q 61.625 48.1875 57.5625 43.546875 
Q 53.515625 38.921875 53.515625 30.90625 
L 53.515625 0 
L 44.484375 0 
L 44.484375 32.71875 
Q 44.484375 40.625 41.703125 44.40625 
Q 38.921875 48.1875 33.109375 48.1875 
Q 26.21875 48.1875 22.15625 43.53125 
Q 18.109375 38.875 18.109375 30.90625 
L 18.109375 0 
L 9.078125 0 
L 9.078125 54.6875 
L 18.109375 54.6875 
L 18.109375 46.1875 
Q 21.1875 51.21875 25.484375 53.609375 
Q 29.78125 56 35.6875 56 
Q 41.65625 56 45.828125 52.96875 
Q 50 49.953125 52 44.1875 
z
" id="DejaVuSans-109"/>
     </defs>
     <g transform="translate(18.398438 267.865665)rotate(-90)scale(0.1 -0.1)">
      <use xlink:href="#DejaVuSans-67"/>
      <use x="69.824219" xlink:href="#DejaVuSans-76"/>
      <use x="125.537109" xlink:href="#DejaVuSans-32"/>
      <use x="157.324219" xlink:href="#DejaVuSans-104"/>
      <use x="220.703125" xlink:href="#DejaVuSans-111"/>
      <use x="281.884766" xlink:href="#DejaVuSans-115"/>
      <use x="333.984375" xlink:href="#DejaVuSans-112"/>
      <use x="397.460938" xlink:href="#DejaVuSans-105"/>
      <use x="425.244141" xlink:href="#DejaVuSans-116"/>
      <use x="464.453125" xlink:href="#DejaVuSans-97"/>
      <use x="525.732422" xlink:href="#DejaVuSans-108"/>
      <use x="553.515625" xlink:href="#DejaVuSans-105"/>
      <use x="581.298828" xlink:href="#DejaVuSans-122"/>
      <use x="633.789062" xlink:href="#DejaVuSans-97"/>
      <use x="695.068359" xlink:href="#DejaVuSans-100"/>
      <use x="758.544922" xlink:href="#DejaVuSans-111"/>
      <use x="819.726562" xlink:href="#DejaVuSans-115"/>
      <use x="871.826172" xlink:href="#DejaVuSans-32"/>
      <use x="903.613281" xlink:href="#DejaVuSans-40"/>
      <use x="942.626953" xlink:href="#DejaVuSans-112"/>
      <use x="1006.103516" xlink:href="#DejaVuSans-111"/>
      <use x="1067.285156" xlink:href="#DejaVuSans-114"/>
      <use x="1108.398438" xlink:href="#DejaVuSans-32"/>
      <use x="1140.185547" xlink:href="#DejaVuSans-49"/>
      <use x="1203.808594" xlink:href="#DejaVuSans-48"/>
      <use x="1267.431641" xlink:href="#DejaVuSans-48"/>
      <use x="1331.054688" xlink:href="#DejaVuSans-48"/>
      <use x="1394.677734" xlink:href="#DejaVuSans-48"/>
      <use x="1458.300781" xlink:href="#DejaVuSans-48"/>
      <use x="1521.923828" xlink:href="#DejaVuSans-32"/>
      <use x="1553.710938" xlink:href="#DejaVuSans-104"/>
      <use x="1617.089844" xlink:href="#DejaVuSans-97"/>
      <use x="1678.369141" xlink:href="#DejaVuSans-98"/>
      <use x="1741.845703" xlink:href="#DejaVuSans-46"/>
      <use x="1773.632812" xlink:href="#DejaVuSans-41"/>
      <use x="1812.646484" xlink:href="#DejaVuSans-32"/>
      <use x="1844.433594" xlink:href="#DejaVuSans-97"/>
      <use x="1905.712891" xlink:href="#DejaVuSans-99"/>
      <use x="1960.693359" xlink:href="#DejaVuSans-117"/>
      <use x="2024.072266" xlink:href="#DejaVuSans-109"/>
      <use x="2121.484375" xlink:href="#DejaVuSans-117"/>
      <use x="2184.863281" xlink:href="#DejaVuSans-108"/>
      <use x="2212.646484" xlink:href="#DejaVuSans-97"/>
      <use x="2273.925781" xlink:href="#DejaVuSans-100"/>
      <use x="2337.402344" xlink:href="#DejaVuSans-111"/>
      <use x="2398.583984" xlink:href="#DejaVuSans-115"/>
     </g>
    </g>
   </g>
   <g id="line2d_14">
    <path clip-path="url(#pa89865837b)" d="M 68.590351 279.154776 
L 73.970867 279.125285 
L 79.351382 279.125285 
L 84.731898 279.125285 
L 90.112413 278.535448 
L 95.492928 277.060858 
L 100.873444 277.060858 
L 106.253959 271.575383 
L 111.634474 269.186546 
L 117.01499 265.824481 
L 122.395505 261.312235 
L 127.77602 256.32812 
L 133.156536 251.049087 
L 138.537051 244.56089 
L 143.917567 236.893021 
L 149.298082 226.09902 
L 154.678597 214.567725 
L 160.059113 201.768281 
L 165.439628 186.668478 
L 170.820143 179.266035 
L 176.200659 172.836821 
L 181.581174 163.34046 
L 186.961689 155.790558 
L 192.342205 147.97523 
L 197.72272 141.693476 
L 203.103236 135.205279 
L 208.483751 131.194393 
L 213.864266 127.095033 
L 219.244782 122.907196 
L 224.625297 116.979344 
L 230.005812 112.526081 
L 235.386328 108.308753 
L 240.766843 104.1799 
L 246.147358 100.640884 
L 251.527874 97.750687 
L 256.908389 93.887261 
L 262.288905 89.669933 
L 267.66942 87.634998 
L 273.049935 78.404063 
L 278.430451 73.980293 
L 283.810966 71.060604 
L 289.191481 68.288374 
L 294.571997 65.634112 
L 299.952512 61.711702 
L 305.333027 58.497095 
L 310.713543 57.051997 
L 316.094058 54.1618 
L 321.474574 52.68721 
L 326.855089 50.504816 
L 332.235604 48.233947 
L 337.61612 45.196292 
L 342.996635 43.633226 
L 348.37715 42.335587 
L 353.757666 41.421341 
L 359.138181 40.300652 
L 364.518696 39.415898 
L 369.899212 36.67316 
L 375.279727 35.080603 
L 380.660243 33.39957 
L 386.040758 32.308373 
L 391.421273 30.125979 
L 396.801789 29.713094 
L 402.182304 29.388684 
L 407.562819 28.680881 
L 412.943335 27.412733 
L 418.32385 26.38052 
L 423.704365 24.787963 
L 429.084881 23.578799 
" style="fill:none;stroke:#1f77b4;stroke-linecap:square;stroke-width:1.5;"/>
    <defs>
     <path d="M 0 1.5 
C 0.397805 1.5 0.77937 1.341951 1.06066 1.06066 
C 1.341951 0.77937 1.5 0.397805 1.5 0 
C 1.5 -0.397805 1.341951 -0.77937 1.06066 -1.06066 
C 0.77937 -1.341951 0.397805 -1.5 0 -1.5 
C -0.397805 -1.5 -0.77937 -1.341951 -1.06066 -1.06066 
C -1.341951 -0.77937 -1.5 -0.397805 -1.5 0 
C -1.5 0.397805 -1.341951 0.77937 -1.06066 1.06066 
C -0.77937 1.341951 -0.397805 1.5 0 1.5 
z
" id="mbbed4ac519" style="stroke:#1f77b4;"/>
    </defs>
    <g clip-path="url(#pa89865837b)">
     <use style="fill:#1f77b4;stroke:#1f77b4;" x="68.590351" xlink:href="#mbbed4ac519" y="279.154776"/>
     <use style="fill:#1f77b4;stroke:#1f77b4;" x="73.970867" xlink:href="#mbbed4ac519" y="279.125285"/>
     <use style="fill:#1f77b4;stroke:#1f77b4;" x="79.351382" xlink:href="#mbbed4ac519" y="279.125285"/>
     <use style="fill:#1f77b4;stroke:#1f77b4;" x="84.731898" xlink:href="#mbbed4ac519" y="279.125285"/>
     <use style="fill:#1f77b4;stroke:#1f77b4;" x="90.112413" xlink:href="#mbbed4ac519" y="278.535448"/>
     <use style="fill:#1f77b4;stroke:#1f77b4;" x="95.492928" xlink:href="#mbbed4ac519" y="277.060858"/>
     <use style="fill:#1f77b4;stroke:#1f77b4;" x="100.873444" xlink:href="#mbbed4ac519" y="277.060858"/>
     <use style="fill:#1f77b4;stroke:#1f77b4;" x="106.253959" xlink:href="#mbbed4ac519" y="271.575383"/>
     <use style="fill:#1f77b4;stroke:#1f77b4;" x="111.634474" xlink:href="#mbbed4ac519" y="269.186546"/>
     <use style="fill:#1f77b4;stroke:#1f77b4;" x="117.01499" xlink:href="#mbbed4ac519" y="265.824481"/>
     <use style="fill:#1f77b4;stroke:#1f77b4;" x="122.395505" xlink:href="#mbbed4ac519" y="261.312235"/>
     <use style="fill:#1f77b4;stroke:#1f77b4;" x="127.77602" xlink:href="#mbbed4ac519" y="256.32812"/>
     <use style="fill:#1f77b4;stroke:#1f77b4;" x="133.156536" xlink:href="#mbbed4ac519" y="251.049087"/>
     <use style="fill:#1f77b4;stroke:#1f77b4;" x="138.537051" xlink:href="#mbbed4ac519" y="244.56089"/>
     <use style="fill:#1f77b4;stroke:#1f77b4;" x="143.917567" xlink:href="#mbbed4ac519" y="236.893021"/>
     <use style="fill:#1f77b4;stroke:#1f77b4;" x="149.298082" xlink:href="#mbbed4ac519" y="226.09902"/>
     <use style="fill:#1f77b4;stroke:#1f77b4;" x="154.678597" xlink:href="#mbbed4ac519" y="214.567725"/>
     <use style="fill:#1f77b4;stroke:#1f77b4;" x="160.059113" xlink:href="#mbbed4ac519" y="201.768281"/>
     <use style="fill:#1f77b4;stroke:#1f77b4;" x="165.439628" xlink:href="#mbbed4ac519" y="186.668478"/>
     <use style="fill:#1f77b4;stroke:#1f77b4;" x="170.820143" xlink:href="#mbbed4ac519" y="179.266035"/>
     <use style="fill:#1f77b4;stroke:#1f77b4;" x="176.200659" xlink:href="#mbbed4ac519" y="172.836821"/>
     <use style="fill:#1f77b4;stroke:#1f77b4;" x="181.581174" xlink:href="#mbbed4ac519" y="163.34046"/>
     <use style="fill:#1f77b4;stroke:#1f77b4;" x="186.961689" xlink:href="#mbbed4ac519" y="155.790558"/>
     <use style="fill:#1f77b4;stroke:#1f77b4;" x="192.342205" xlink:href="#mbbed4ac519" y="147.97523"/>
     <use style="fill:#1f77b4;stroke:#1f77b4;" x="197.72272" xlink:href="#mbbed4ac519" y="141.693476"/>
     <use style="fill:#1f77b4;stroke:#1f77b4;" x="203.103236" xlink:href="#mbbed4ac519" y="135.205279"/>
     <use style="fill:#1f77b4;stroke:#1f77b4;" x="208.483751" xlink:href="#mbbed4ac519" y="131.194393"/>
     <use style="fill:#1f77b4;stroke:#1f77b4;" x="213.864266" xlink:href="#mbbed4ac519" y="127.095033"/>
     <use style="fill:#1f77b4;stroke:#1f77b4;" x="219.244782" xlink:href="#mbbed4ac519" y="122.907196"/>
     <use style="fill:#1f77b4;stroke:#1f77b4;" x="224.625297" xlink:href="#mbbed4ac519" y="116.979344"/>
     <use style="fill:#1f77b4;stroke:#1f77b4;" x="230.005812" xlink:href="#mbbed4ac519" y="112.526081"/>
     <use style="fill:#1f77b4;stroke:#1f77b4;" x="235.386328" xlink:href="#mbbed4ac519" y="108.308753"/>
     <use style="fill:#1f77b4;stroke:#1f77b4;" x="240.766843" xlink:href="#mbbed4ac519" y="104.1799"/>
     <use style="fill:#1f77b4;stroke:#1f77b4;" x="246.147358" xlink:href="#mbbed4ac519" y="100.640884"/>
     <use style="fill:#1f77b4;stroke:#1f77b4;" x="251.527874" xlink:href="#mbbed4ac519" y="97.750687"/>
     <use style="fill:#1f77b4;stroke:#1f77b4;" x="256.908389" xlink:href="#mbbed4ac519" y="93.887261"/>
     <use style="fill:#1f77b4;stroke:#1f77b4;" x="262.288905" xlink:href="#mbbed4ac519" y="89.669933"/>
     <use style="fill:#1f77b4;stroke:#1f77b4;" x="267.66942" xlink:href="#mbbed4ac519" y="87.634998"/>
     <use style="fill:#1f77b4;stroke:#1f77b4;" x="273.049935" xlink:href="#mbbed4ac519" y="78.404063"/>
     <use style="fill:#1f77b4;stroke:#1f77b4;" x="278.430451" xlink:href="#mbbed4ac519" y="73.980293"/>
     <use style="fill:#1f77b4;stroke:#1f77b4;" x="283.810966" xlink:href="#mbbed4ac519" y="71.060604"/>
     <use style="fill:#1f77b4;stroke:#1f77b4;" x="289.191481" xlink:href="#mbbed4ac519" y="68.288374"/>
     <use style="fill:#1f77b4;stroke:#1f77b4;" x="294.571997" xlink:href="#mbbed4ac519" y="65.634112"/>
     <use style="fill:#1f77b4;stroke:#1f77b4;" x="299.952512" xlink:href="#mbbed4ac519" y="61.711702"/>
     <use style="fill:#1f77b4;stroke:#1f77b4;" x="305.333027" xlink:href="#mbbed4ac519" y="58.497095"/>
     <use style="fill:#1f77b4;stroke:#1f77b4;" x="310.713543" xlink:href="#mbbed4ac519" y="57.051997"/>
     <use style="fill:#1f77b4;stroke:#1f77b4;" x="316.094058" xlink:href="#mbbed4ac519" y="54.1618"/>
     <use style="fill:#1f77b4;stroke:#1f77b4;" x="321.474574" xlink:href="#mbbed4ac519" y="52.68721"/>
     <use style="fill:#1f77b4;stroke:#1f77b4;" x="326.855089" xlink:href="#mbbed4ac519" y="50.504816"/>
     <use style="fill:#1f77b4;stroke:#1f77b4;" x="332.235604" xlink:href="#mbbed4ac519" y="48.233947"/>
     <use style="fill:#1f77b4;stroke:#1f77b4;" x="337.61612" xlink:href="#mbbed4ac519" y="45.196292"/>
     <use style="fill:#1f77b4;stroke:#1f77b4;" x="342.996635" xlink:href="#mbbed4ac519" y="43.633226"/>
     <use style="fill:#1f77b4;stroke:#1f77b4;" x="348.37715" xlink:href="#mbbed4ac519" y="42.335587"/>
     <use style="fill:#1f77b4;stroke:#1f77b4;" x="353.757666" xlink:href="#mbbed4ac519" y="41.421341"/>
     <use style="fill:#1f77b4;stroke:#1f77b4;" x="359.138181" xlink:href="#mbbed4ac519" y="40.300652"/>
     <use style="fill:#1f77b4;stroke:#1f77b4;" x="364.518696" xlink:href="#mbbed4ac519" y="39.415898"/>
     <use style="fill:#1f77b4;stroke:#1f77b4;" x="369.899212" xlink:href="#mbbed4ac519" y="36.67316"/>
     <use style="fill:#1f77b4;stroke:#1f77b4;" x="375.279727" xlink:href="#mbbed4ac519" y="35.080603"/>
     <use style="fill:#1f77b4;stroke:#1f77b4;" x="380.660243" xlink:href="#mbbed4ac519" y="33.39957"/>
     <use style="fill:#1f77b4;stroke:#1f77b4;" x="386.040758" xlink:href="#mbbed4ac519" y="32.308373"/>
     <use style="fill:#1f77b4;stroke:#1f77b4;" x="391.421273" xlink:href="#mbbed4ac519" y="30.125979"/>
     <use style="fill:#1f77b4;stroke:#1f77b4;" x="396.801789" xlink:href="#mbbed4ac519" y="29.713094"/>
     <use style="fill:#1f77b4;stroke:#1f77b4;" x="402.182304" xlink:href="#mbbed4ac519" y="29.388684"/>
     <use style="fill:#1f77b4;stroke:#1f77b4;" x="407.562819" xlink:href="#mbbed4ac519" y="28.680881"/>
     <use style="fill:#1f77b4;stroke:#1f77b4;" x="412.943335" xlink:href="#mbbed4ac519" y="27.412733"/>
     <use style="fill:#1f77b4;stroke:#1f77b4;" x="418.32385" xlink:href="#mbbed4ac519" y="26.38052"/>
     <use style="fill:#1f77b4;stroke:#1f77b4;" x="423.704365" xlink:href="#mbbed4ac519" y="24.787963"/>
     <use style="fill:#1f77b4;stroke:#1f77b4;" x="429.084881" xlink:href="#mbbed4ac519" y="23.578799"/>
    </g>
   </g>
   <g id="patch_3">
    <path d="M 50.565625 279.86258 
L 50.565625 10.8 
" style="fill:none;stroke:#000000;stroke-linecap:square;stroke-linejoin:miter;stroke-width:0.8;"/>
   </g>
   <g id="patch_4">
    <path d="M 447.109607 279.86258 
L 447.109607 10.8 
" style="fill:none;stroke:#000000;stroke-linecap:square;stroke-linejoin:miter;stroke-width:0.8;"/>
   </g>
   <g id="patch_5">
    <path d="M 50.565625 279.86258 
L 447.109607 279.86258 
" style="fill:none;stroke:#000000;stroke-linecap:square;stroke-linejoin:miter;stroke-width:0.8;"/>
   </g>
   <g id="patch_6">
    <path d="M 50.565625 10.8 
L 447.109607 10.8 
" style="fill:none;stroke:#000000;stroke-linecap:square;stroke-linejoin:miter;stroke-width:0.8;"/>
   </g>
  </g>
 </g>
 <defs>
  <clipPath id="pa89865837b">
   <rect height="269.06258" width="396.543982" x="50.565625" y="10.8"/>
  </clipPath>
 </defs>
</svg>
