<?xml version="1.0" encoding="utf-8" standalone="no"?>
<!DOCTYPE svg PUBLIC "-//W3C//DTD SVG 1.1//EN"
  "http://www.w3.org/Graphics/SVG/1.1/DTD/svg11.dtd">
<!-- Created with matplotlib (https://matplotlib.org/) -->
<svg height="345.6pt" version="1.1" viewBox="0 0 460.8 345.6" width="460.8pt" xmlns="http://www.w3.org/2000/svg" xmlns:xlink="http://www.w3.org/1999/xlink">
 <defs>
  <style type="text/css">
*{stroke-linecap:butt;stroke-linejoin:round;}
  </style>
 </defs>
 <g id="figure_1">
  <g id="patch_1">
   <path d="M 0 345.6 
L 460.8 345.6 
L 460.8 0 
L 0 0 
z
" style="fill:#ffffff;"/>
  </g>
  <g id="axes_1">
   <g id="patch_2">
    <path d="M 44.203125 279.86258 
L 450 279.86258 
L 450 10.8 
L 44.203125 10.8 
z
" style="fill:#ffffff;"/>
   </g>
   <g id="matplotlib.axis_1">
    <g id="xtick_1">
     <g id="line2d_1">
      <defs>
       <path d="M 0 0 
L 0 3.5 
" id="m62dbbba40a" style="stroke:#000000;stroke-width:0.8;"/>
      </defs>
      <g>
       <use style="stroke:#000000;stroke-width:0.8;" x="88.998884" xlink:href="#m62dbbba40a" y="279.86258"/>
      </g>
     </g>
     <g id="text_1">
      <!-- 2020-03-15 -->
      <defs>
       <path d="M 19.1875 8.296875 
L 53.609375 8.296875 
L 53.609375 0 
L 7.328125 0 
L 7.328125 8.296875 
Q 12.9375 14.109375 22.625 23.890625 
Q 32.328125 33.6875 34.8125 36.53125 
Q 39.546875 41.84375 41.421875 45.53125 
Q 43.3125 49.21875 43.3125 52.78125 
Q 43.3125 58.59375 39.234375 62.25 
Q 35.15625 65.921875 28.609375 65.921875 
Q 23.96875 65.921875 18.8125 64.3125 
Q 13.671875 62.703125 7.8125 59.421875 
L 7.8125 69.390625 
Q 13.765625 71.78125 18.9375 73 
Q 24.125 74.21875 28.421875 74.21875 
Q 39.75 74.21875 46.484375 68.546875 
Q 53.21875 62.890625 53.21875 53.421875 
Q 53.21875 48.921875 51.53125 44.890625 
Q 49.859375 40.875 45.40625 35.40625 
Q 44.1875 33.984375 37.640625 27.21875 
Q 31.109375 20.453125 19.1875 8.296875 
z
" id="DejaVuSans-50"/>
       <path d="M 31.78125 66.40625 
Q 24.171875 66.40625 20.328125 58.90625 
Q 16.5 51.421875 16.5 36.375 
Q 16.5 21.390625 20.328125 13.890625 
Q 24.171875 6.390625 31.78125 6.390625 
Q 39.453125 6.390625 43.28125 13.890625 
Q 47.125 21.390625 47.125 36.375 
Q 47.125 51.421875 43.28125 58.90625 
Q 39.453125 66.40625 31.78125 66.40625 
z
M 31.78125 74.21875 
Q 44.046875 74.21875 50.515625 64.515625 
Q 56.984375 54.828125 56.984375 36.375 
Q 56.984375 17.96875 50.515625 8.265625 
Q 44.046875 -1.421875 31.78125 -1.421875 
Q 19.53125 -1.421875 13.0625 8.265625 
Q 6.59375 17.96875 6.59375 36.375 
Q 6.59375 54.828125 13.0625 64.515625 
Q 19.53125 74.21875 31.78125 74.21875 
z
" id="DejaVuSans-48"/>
       <path d="M 4.890625 31.390625 
L 31.203125 31.390625 
L 31.203125 23.390625 
L 4.890625 23.390625 
z
" id="DejaVuSans-45"/>
       <path d="M 40.578125 39.3125 
Q 47.65625 37.796875 51.625 33 
Q 55.609375 28.21875 55.609375 21.1875 
Q 55.609375 10.40625 48.1875 4.484375 
Q 40.765625 -1.421875 27.09375 -1.421875 
Q 22.515625 -1.421875 17.65625 -0.515625 
Q 12.796875 0.390625 7.625 2.203125 
L 7.625 11.71875 
Q 11.71875 9.328125 16.59375 8.109375 
Q 21.484375 6.890625 26.8125 6.890625 
Q 36.078125 6.890625 40.9375 10.546875 
Q 45.796875 14.203125 45.796875 21.1875 
Q 45.796875 27.640625 41.28125 31.265625 
Q 36.765625 34.90625 28.71875 34.90625 
L 20.21875 34.90625 
L 20.21875 43.015625 
L 29.109375 43.015625 
Q 36.375 43.015625 40.234375 45.921875 
Q 44.09375 48.828125 44.09375 54.296875 
Q 44.09375 59.90625 40.109375 62.90625 
Q 36.140625 65.921875 28.71875 65.921875 
Q 24.65625 65.921875 20.015625 65.03125 
Q 15.375 64.15625 9.8125 62.3125 
L 9.8125 71.09375 
Q 15.4375 72.65625 20.34375 73.4375 
Q 25.25 74.21875 29.59375 74.21875 
Q 40.828125 74.21875 47.359375 69.109375 
Q 53.90625 64.015625 53.90625 55.328125 
Q 53.90625 49.265625 50.4375 45.09375 
Q 46.96875 40.921875 40.578125 39.3125 
z
" id="DejaVuSans-51"/>
       <path d="M 12.40625 8.296875 
L 28.515625 8.296875 
L 28.515625 63.921875 
L 10.984375 60.40625 
L 10.984375 69.390625 
L 28.421875 72.90625 
L 38.28125 72.90625 
L 38.28125 8.296875 
L 54.390625 8.296875 
L 54.390625 0 
L 12.40625 0 
z
" id="DejaVuSans-49"/>
       <path d="M 10.796875 72.90625 
L 49.515625 72.90625 
L 49.515625 64.59375 
L 19.828125 64.59375 
L 19.828125 46.734375 
Q 21.96875 47.46875 24.109375 47.828125 
Q 26.265625 48.1875 28.421875 48.1875 
Q 40.625 48.1875 47.75 41.5 
Q 54.890625 34.8125 54.890625 23.390625 
Q 54.890625 11.625 47.5625 5.09375 
Q 40.234375 -1.421875 26.90625 -1.421875 
Q 22.3125 -1.421875 17.546875 -0.640625 
Q 12.796875 0.140625 7.71875 1.703125 
L 7.71875 11.625 
Q 12.109375 9.234375 16.796875 8.0625 
Q 21.484375 6.890625 26.703125 6.890625 
Q 35.15625 6.890625 40.078125 11.328125 
Q 45.015625 15.765625 45.015625 23.390625 
Q 45.015625 31 40.078125 35.4375 
Q 35.15625 39.890625 26.703125 39.890625 
Q 22.75 39.890625 18.8125 39.015625 
Q 14.890625 38.140625 10.796875 36.28125 
z
" id="DejaVuSans-53"/>
      </defs>
      <g transform="translate(70.40308 333.329439)rotate(-45)scale(0.1 -0.1)">
       <use xlink:href="#DejaVuSans-50"/>
       <use x="63.623047" xlink:href="#DejaVuSans-48"/>
       <use x="127.246094" xlink:href="#DejaVuSans-50"/>
       <use x="190.869141" xlink:href="#DejaVuSans-48"/>
       <use x="254.492188" xlink:href="#DejaVuSans-45"/>
       <use x="290.576172" xlink:href="#DejaVuSans-48"/>
       <use x="354.199219" xlink:href="#DejaVuSans-51"/>
       <use x="417.822266" xlink:href="#DejaVuSans-45"/>
       <use x="453.90625" xlink:href="#DejaVuSans-49"/>
       <use x="517.529297" xlink:href="#DejaVuSans-53"/>
      </g>
     </g>
    </g>
    <g id="xtick_2">
     <g id="line2d_2">
      <g>
       <use style="stroke:#000000;stroke-width:0.8;" x="178.590402" xlink:href="#m62dbbba40a" y="279.86258"/>
      </g>
     </g>
     <g id="text_2">
      <!-- 2020-04-01 -->
      <defs>
       <path d="M 37.796875 64.3125 
L 12.890625 25.390625 
L 37.796875 25.390625 
z
M 35.203125 72.90625 
L 47.609375 72.90625 
L 47.609375 25.390625 
L 58.015625 25.390625 
L 58.015625 17.1875 
L 47.609375 17.1875 
L 47.609375 0 
L 37.796875 0 
L 37.796875 17.1875 
L 4.890625 17.1875 
L 4.890625 26.703125 
z
" id="DejaVuSans-52"/>
      </defs>
      <g transform="translate(159.994598 333.329439)rotate(-45)scale(0.1 -0.1)">
       <use xlink:href="#DejaVuSans-50"/>
       <use x="63.623047" xlink:href="#DejaVuSans-48"/>
       <use x="127.246094" xlink:href="#DejaVuSans-50"/>
       <use x="190.869141" xlink:href="#DejaVuSans-48"/>
       <use x="254.492188" xlink:href="#DejaVuSans-45"/>
       <use x="290.576172" xlink:href="#DejaVuSans-48"/>
       <use x="354.199219" xlink:href="#DejaVuSans-52"/>
       <use x="417.822266" xlink:href="#DejaVuSans-45"/>
       <use x="453.90625" xlink:href="#DejaVuSans-48"/>
       <use x="517.529297" xlink:href="#DejaVuSans-49"/>
      </g>
     </g>
    </g>
    <g id="xtick_3">
     <g id="line2d_3">
      <g>
       <use style="stroke:#000000;stroke-width:0.8;" x="252.371652" xlink:href="#m62dbbba40a" y="279.86258"/>
      </g>
     </g>
     <g id="text_3">
      <!-- 2020-04-15 -->
      <g transform="translate(233.775848 333.329439)rotate(-45)scale(0.1 -0.1)">
       <use xlink:href="#DejaVuSans-50"/>
       <use x="63.623047" xlink:href="#DejaVuSans-48"/>
       <use x="127.246094" xlink:href="#DejaVuSans-50"/>
       <use x="190.869141" xlink:href="#DejaVuSans-48"/>
       <use x="254.492188" xlink:href="#DejaVuSans-45"/>
       <use x="290.576172" xlink:href="#DejaVuSans-48"/>
       <use x="354.199219" xlink:href="#DejaVuSans-52"/>
       <use x="417.822266" xlink:href="#DejaVuSans-45"/>
       <use x="453.90625" xlink:href="#DejaVuSans-49"/>
       <use x="517.529297" xlink:href="#DejaVuSans-53"/>
      </g>
     </g>
    </g>
    <g id="xtick_4">
     <g id="line2d_4">
      <g>
       <use style="stroke:#000000;stroke-width:0.8;" x="336.69308" xlink:href="#m62dbbba40a" y="279.86258"/>
      </g>
     </g>
     <g id="text_4">
      <!-- 2020-05-01 -->
      <g transform="translate(318.097277 333.329439)rotate(-45)scale(0.1 -0.1)">
       <use xlink:href="#DejaVuSans-50"/>
       <use x="63.623047" xlink:href="#DejaVuSans-48"/>
       <use x="127.246094" xlink:href="#DejaVuSans-50"/>
       <use x="190.869141" xlink:href="#DejaVuSans-48"/>
       <use x="254.492188" xlink:href="#DejaVuSans-45"/>
       <use x="290.576172" xlink:href="#DejaVuSans-48"/>
       <use x="354.199219" xlink:href="#DejaVuSans-53"/>
       <use x="417.822266" xlink:href="#DejaVuSans-45"/>
       <use x="453.90625" xlink:href="#DejaVuSans-48"/>
       <use x="517.529297" xlink:href="#DejaVuSans-49"/>
      </g>
     </g>
    </g>
    <g id="xtick_5">
     <g id="line2d_5">
      <g>
       <use style="stroke:#000000;stroke-width:0.8;" x="410.47433" xlink:href="#m62dbbba40a" y="279.86258"/>
      </g>
     </g>
     <g id="text_5">
      <!-- 2020-05-15 -->
      <g transform="translate(391.878527 333.329439)rotate(-45)scale(0.1 -0.1)">
       <use xlink:href="#DejaVuSans-50"/>
       <use x="63.623047" xlink:href="#DejaVuSans-48"/>
       <use x="127.246094" xlink:href="#DejaVuSans-50"/>
       <use x="190.869141" xlink:href="#DejaVuSans-48"/>
       <use x="254.492188" xlink:href="#DejaVuSans-45"/>
       <use x="290.576172" xlink:href="#DejaVuSans-48"/>
       <use x="354.199219" xlink:href="#DejaVuSans-53"/>
       <use x="417.822266" xlink:href="#DejaVuSans-45"/>
       <use x="453.90625" xlink:href="#DejaVuSans-49"/>
       <use x="517.529297" xlink:href="#DejaVuSans-53"/>
      </g>
     </g>
    </g>
   </g>
   <g id="matplotlib.axis_2">
    <g id="ytick_1">
     <g id="line2d_6">
      <defs>
       <path d="M 0 0 
L -3.5 0 
" id="m63458cfc71" style="stroke:#000000;stroke-width:0.8;"/>
      </defs>
      <g>
       <use style="stroke:#000000;stroke-width:0.8;" x="44.203125" xlink:href="#m63458cfc71" y="279.86258"/>
      </g>
     </g>
     <g id="text_6">
      <!-- 0 -->
      <g transform="translate(30.840625 283.661798)scale(0.1 -0.1)">
       <use xlink:href="#DejaVuSans-48"/>
      </g>
     </g>
    </g>
    <g id="ytick_2">
     <g id="line2d_7">
      <g>
       <use style="stroke:#000000;stroke-width:0.8;" x="44.203125" xlink:href="#m63458cfc71" y="223.447508"/>
      </g>
     </g>
     <g id="text_7">
      <!-- 10 -->
      <g transform="translate(24.478125 227.246727)scale(0.1 -0.1)">
       <use xlink:href="#DejaVuSans-49"/>
       <use x="63.623047" xlink:href="#DejaVuSans-48"/>
      </g>
     </g>
    </g>
    <g id="ytick_3">
     <g id="line2d_8">
      <g>
       <use style="stroke:#000000;stroke-width:0.8;" x="44.203125" xlink:href="#m63458cfc71" y="167.032437"/>
      </g>
     </g>
     <g id="text_8">
      <!-- 20 -->
      <g transform="translate(24.478125 170.831656)scale(0.1 -0.1)">
       <use xlink:href="#DejaVuSans-50"/>
       <use x="63.623047" xlink:href="#DejaVuSans-48"/>
      </g>
     </g>
    </g>
    <g id="ytick_4">
     <g id="line2d_9">
      <g>
       <use style="stroke:#000000;stroke-width:0.8;" x="44.203125" xlink:href="#m63458cfc71" y="110.617366"/>
      </g>
     </g>
     <g id="text_9">
      <!-- 30 -->
      <g transform="translate(24.478125 114.416585)scale(0.1 -0.1)">
       <use xlink:href="#DejaVuSans-51"/>
       <use x="63.623047" xlink:href="#DejaVuSans-48"/>
      </g>
     </g>
    </g>
    <g id="ytick_5">
     <g id="line2d_10">
      <g>
       <use style="stroke:#000000;stroke-width:0.8;" x="44.203125" xlink:href="#m63458cfc71" y="54.202295"/>
      </g>
     </g>
     <g id="text_10">
      <!-- 40 -->
      <g transform="translate(24.478125 58.001514)scale(0.1 -0.1)">
       <use xlink:href="#DejaVuSans-52"/>
       <use x="63.623047" xlink:href="#DejaVuSans-48"/>
      </g>
     </g>
    </g>
    <g id="text_11">
     <!-- MC hospitalizados (por 100000 hab.) acumulados -->
     <defs>
      <path d="M 9.8125 72.90625 
L 24.515625 72.90625 
L 43.109375 23.296875 
L 61.8125 72.90625 
L 76.515625 72.90625 
L 76.515625 0 
L 66.890625 0 
L 66.890625 64.015625 
L 48.09375 14.015625 
L 38.1875 14.015625 
L 19.390625 64.015625 
L 19.390625 0 
L 9.8125 0 
z
" id="DejaVuSans-77"/>
      <path d="M 64.40625 67.28125 
L 64.40625 56.890625 
Q 59.421875 61.53125 53.78125 63.8125 
Q 48.140625 66.109375 41.796875 66.109375 
Q 29.296875 66.109375 22.65625 58.46875 
Q 16.015625 50.828125 16.015625 36.375 
Q 16.015625 21.96875 22.65625 14.328125 
Q 29.296875 6.6875 41.796875 6.6875 
Q 48.140625 6.6875 53.78125 8.984375 
Q 59.421875 11.28125 64.40625 15.921875 
L 64.40625 5.609375 
Q 59.234375 2.09375 53.4375 0.328125 
Q 47.65625 -1.421875 41.21875 -1.421875 
Q 24.65625 -1.421875 15.125 8.703125 
Q 5.609375 18.84375 5.609375 36.375 
Q 5.609375 53.953125 15.125 64.078125 
Q 24.65625 74.21875 41.21875 74.21875 
Q 47.75 74.21875 53.53125 72.484375 
Q 59.328125 70.75 64.40625 67.28125 
z
" id="DejaVuSans-67"/>
      <path id="DejaVuSans-32"/>
      <path d="M 54.890625 33.015625 
L 54.890625 0 
L 45.90625 0 
L 45.90625 32.71875 
Q 45.90625 40.484375 42.875 44.328125 
Q 39.84375 48.1875 33.796875 48.1875 
Q 26.515625 48.1875 22.3125 43.546875 
Q 18.109375 38.921875 18.109375 30.90625 
L 18.109375 0 
L 9.078125 0 
L 9.078125 75.984375 
L 18.109375 75.984375 
L 18.109375 46.1875 
Q 21.34375 51.125 25.703125 53.5625 
Q 30.078125 56 35.796875 56 
Q 45.21875 56 50.046875 50.171875 
Q 54.890625 44.34375 54.890625 33.015625 
z
" id="DejaVuSans-104"/>
      <path d="M 30.609375 48.390625 
Q 23.390625 48.390625 19.1875 42.75 
Q 14.984375 37.109375 14.984375 27.296875 
Q 14.984375 17.484375 19.15625 11.84375 
Q 23.34375 6.203125 30.609375 6.203125 
Q 37.796875 6.203125 41.984375 11.859375 
Q 46.1875 17.53125 46.1875 27.296875 
Q 46.1875 37.015625 41.984375 42.703125 
Q 37.796875 48.390625 30.609375 48.390625 
z
M 30.609375 56 
Q 42.328125 56 49.015625 48.375 
Q 55.71875 40.765625 55.71875 27.296875 
Q 55.71875 13.875 49.015625 6.21875 
Q 42.328125 -1.421875 30.609375 -1.421875 
Q 18.84375 -1.421875 12.171875 6.21875 
Q 5.515625 13.875 5.515625 27.296875 
Q 5.515625 40.765625 12.171875 48.375 
Q 18.84375 56 30.609375 56 
z
" id="DejaVuSans-111"/>
      <path d="M 44.28125 53.078125 
L 44.28125 44.578125 
Q 40.484375 46.53125 36.375 47.5 
Q 32.28125 48.484375 27.875 48.484375 
Q 21.1875 48.484375 17.84375 46.4375 
Q 14.5 44.390625 14.5 40.28125 
Q 14.5 37.15625 16.890625 35.375 
Q 19.28125 33.59375 26.515625 31.984375 
L 29.59375 31.296875 
Q 39.15625 29.25 43.1875 25.515625 
Q 47.21875 21.78125 47.21875 15.09375 
Q 47.21875 7.46875 41.1875 3.015625 
Q 35.15625 -1.421875 24.609375 -1.421875 
Q 20.21875 -1.421875 15.453125 -0.5625 
Q 10.6875 0.296875 5.421875 2 
L 5.421875 11.28125 
Q 10.40625 8.6875 15.234375 7.390625 
Q 20.0625 6.109375 24.8125 6.109375 
Q 31.15625 6.109375 34.5625 8.28125 
Q 37.984375 10.453125 37.984375 14.40625 
Q 37.984375 18.0625 35.515625 20.015625 
Q 33.0625 21.96875 24.703125 23.78125 
L 21.578125 24.515625 
Q 13.234375 26.265625 9.515625 29.90625 
Q 5.8125 33.546875 5.8125 39.890625 
Q 5.8125 47.609375 11.28125 51.796875 
Q 16.75 56 26.8125 56 
Q 31.78125 56 36.171875 55.265625 
Q 40.578125 54.546875 44.28125 53.078125 
z
" id="DejaVuSans-115"/>
      <path d="M 18.109375 8.203125 
L 18.109375 -20.796875 
L 9.078125 -20.796875 
L 9.078125 54.6875 
L 18.109375 54.6875 
L 18.109375 46.390625 
Q 20.953125 51.265625 25.265625 53.625 
Q 29.59375 56 35.59375 56 
Q 45.5625 56 51.78125 48.09375 
Q 58.015625 40.1875 58.015625 27.296875 
Q 58.015625 14.40625 51.78125 6.484375 
Q 45.5625 -1.421875 35.59375 -1.421875 
Q 29.59375 -1.421875 25.265625 0.953125 
Q 20.953125 3.328125 18.109375 8.203125 
z
M 48.6875 27.296875 
Q 48.6875 37.203125 44.609375 42.84375 
Q 40.53125 48.484375 33.40625 48.484375 
Q 26.265625 48.484375 22.1875 42.84375 
Q 18.109375 37.203125 18.109375 27.296875 
Q 18.109375 17.390625 22.1875 11.75 
Q 26.265625 6.109375 33.40625 6.109375 
Q 40.53125 6.109375 44.609375 11.75 
Q 48.6875 17.390625 48.6875 27.296875 
z
" id="DejaVuSans-112"/>
      <path d="M 9.421875 54.6875 
L 18.40625 54.6875 
L 18.40625 0 
L 9.421875 0 
z
M 9.421875 75.984375 
L 18.40625 75.984375 
L 18.40625 64.59375 
L 9.421875 64.59375 
z
" id="DejaVuSans-105"/>
      <path d="M 18.3125 70.21875 
L 18.3125 54.6875 
L 36.8125 54.6875 
L 36.8125 47.703125 
L 18.3125 47.703125 
L 18.3125 18.015625 
Q 18.3125 11.328125 20.140625 9.421875 
Q 21.96875 7.515625 27.59375 7.515625 
L 36.8125 7.515625 
L 36.8125 0 
L 27.59375 0 
Q 17.1875 0 13.234375 3.875 
Q 9.28125 7.765625 9.28125 18.015625 
L 9.28125 47.703125 
L 2.6875 47.703125 
L 2.6875 54.6875 
L 9.28125 54.6875 
L 9.28125 70.21875 
z
" id="DejaVuSans-116"/>
      <path d="M 34.28125 27.484375 
Q 23.390625 27.484375 19.1875 25 
Q 14.984375 22.515625 14.984375 16.5 
Q 14.984375 11.71875 18.140625 8.90625 
Q 21.296875 6.109375 26.703125 6.109375 
Q 34.1875 6.109375 38.703125 11.40625 
Q 43.21875 16.703125 43.21875 25.484375 
L 43.21875 27.484375 
z
M 52.203125 31.203125 
L 52.203125 0 
L 43.21875 0 
L 43.21875 8.296875 
Q 40.140625 3.328125 35.546875 0.953125 
Q 30.953125 -1.421875 24.3125 -1.421875 
Q 15.921875 -1.421875 10.953125 3.296875 
Q 6 8.015625 6 15.921875 
Q 6 25.140625 12.171875 29.828125 
Q 18.359375 34.515625 30.609375 34.515625 
L 43.21875 34.515625 
L 43.21875 35.40625 
Q 43.21875 41.609375 39.140625 45 
Q 35.0625 48.390625 27.6875 48.390625 
Q 23 48.390625 18.546875 47.265625 
Q 14.109375 46.140625 10.015625 43.890625 
L 10.015625 52.203125 
Q 14.9375 54.109375 19.578125 55.046875 
Q 24.21875 56 28.609375 56 
Q 40.484375 56 46.34375 49.84375 
Q 52.203125 43.703125 52.203125 31.203125 
z
" id="DejaVuSans-97"/>
      <path d="M 9.421875 75.984375 
L 18.40625 75.984375 
L 18.40625 0 
L 9.421875 0 
z
" id="DejaVuSans-108"/>
      <path d="M 5.515625 54.6875 
L 48.1875 54.6875 
L 48.1875 46.484375 
L 14.40625 7.171875 
L 48.1875 7.171875 
L 48.1875 0 
L 4.296875 0 
L 4.296875 8.203125 
L 38.09375 47.515625 
L 5.515625 47.515625 
z
" id="DejaVuSans-122"/>
      <path d="M 45.40625 46.390625 
L 45.40625 75.984375 
L 54.390625 75.984375 
L 54.390625 0 
L 45.40625 0 
L 45.40625 8.203125 
Q 42.578125 3.328125 38.25 0.953125 
Q 33.9375 -1.421875 27.875 -1.421875 
Q 17.96875 -1.421875 11.734375 6.484375 
Q 5.515625 14.40625 5.515625 27.296875 
Q 5.515625 40.1875 11.734375 48.09375 
Q 17.96875 56 27.875 56 
Q 33.9375 56 38.25 53.625 
Q 42.578125 51.265625 45.40625 46.390625 
z
M 14.796875 27.296875 
Q 14.796875 17.390625 18.875 11.75 
Q 22.953125 6.109375 30.078125 6.109375 
Q 37.203125 6.109375 41.296875 11.75 
Q 45.40625 17.390625 45.40625 27.296875 
Q 45.40625 37.203125 41.296875 42.84375 
Q 37.203125 48.484375 30.078125 48.484375 
Q 22.953125 48.484375 18.875 42.84375 
Q 14.796875 37.203125 14.796875 27.296875 
z
" id="DejaVuSans-100"/>
      <path d="M 31 75.875 
Q 24.46875 64.65625 21.28125 53.65625 
Q 18.109375 42.671875 18.109375 31.390625 
Q 18.109375 20.125 21.3125 9.0625 
Q 24.515625 -2 31 -13.1875 
L 23.1875 -13.1875 
Q 15.875 -1.703125 12.234375 9.375 
Q 8.59375 20.453125 8.59375 31.390625 
Q 8.59375 42.28125 12.203125 53.3125 
Q 15.828125 64.359375 23.1875 75.875 
z
" id="DejaVuSans-40"/>
      <path d="M 41.109375 46.296875 
Q 39.59375 47.171875 37.8125 47.578125 
Q 36.03125 48 33.890625 48 
Q 26.265625 48 22.1875 43.046875 
Q 18.109375 38.09375 18.109375 28.8125 
L 18.109375 0 
L 9.078125 0 
L 9.078125 54.6875 
L 18.109375 54.6875 
L 18.109375 46.1875 
Q 20.953125 51.171875 25.484375 53.578125 
Q 30.03125 56 36.53125 56 
Q 37.453125 56 38.578125 55.875 
Q 39.703125 55.765625 41.0625 55.515625 
z
" id="DejaVuSans-114"/>
      <path d="M 48.6875 27.296875 
Q 48.6875 37.203125 44.609375 42.84375 
Q 40.53125 48.484375 33.40625 48.484375 
Q 26.265625 48.484375 22.1875 42.84375 
Q 18.109375 37.203125 18.109375 27.296875 
Q 18.109375 17.390625 22.1875 11.75 
Q 26.265625 6.109375 33.40625 6.109375 
Q 40.53125 6.109375 44.609375 11.75 
Q 48.6875 17.390625 48.6875 27.296875 
z
M 18.109375 46.390625 
Q 20.953125 51.265625 25.265625 53.625 
Q 29.59375 56 35.59375 56 
Q 45.5625 56 51.78125 48.09375 
Q 58.015625 40.1875 58.015625 27.296875 
Q 58.015625 14.40625 51.78125 6.484375 
Q 45.5625 -1.421875 35.59375 -1.421875 
Q 29.59375 -1.421875 25.265625 0.953125 
Q 20.953125 3.328125 18.109375 8.203125 
L 18.109375 0 
L 9.078125 0 
L 9.078125 75.984375 
L 18.109375 75.984375 
z
" id="DejaVuSans-98"/>
      <path d="M 10.6875 12.40625 
L 21 12.40625 
L 21 0 
L 10.6875 0 
z
" id="DejaVuSans-46"/>
      <path d="M 8.015625 75.875 
L 15.828125 75.875 
Q 23.140625 64.359375 26.78125 53.3125 
Q 30.421875 42.28125 30.421875 31.390625 
Q 30.421875 20.453125 26.78125 9.375 
Q 23.140625 -1.703125 15.828125 -13.1875 
L 8.015625 -13.1875 
Q 14.5 -2 17.703125 9.0625 
Q 20.90625 20.125 20.90625 31.390625 
Q 20.90625 42.671875 17.703125 53.65625 
Q 14.5 64.65625 8.015625 75.875 
z
" id="DejaVuSans-41"/>
      <path d="M 48.78125 52.59375 
L 48.78125 44.1875 
Q 44.96875 46.296875 41.140625 47.34375 
Q 37.3125 48.390625 33.40625 48.390625 
Q 24.65625 48.390625 19.8125 42.84375 
Q 14.984375 37.3125 14.984375 27.296875 
Q 14.984375 17.28125 19.8125 11.734375 
Q 24.65625 6.203125 33.40625 6.203125 
Q 37.3125 6.203125 41.140625 7.25 
Q 44.96875 8.296875 48.78125 10.40625 
L 48.78125 2.09375 
Q 45.015625 0.34375 40.984375 -0.53125 
Q 36.96875 -1.421875 32.421875 -1.421875 
Q 20.0625 -1.421875 12.78125 6.34375 
Q 5.515625 14.109375 5.515625 27.296875 
Q 5.515625 40.671875 12.859375 48.328125 
Q 20.21875 56 33.015625 56 
Q 37.15625 56 41.109375 55.140625 
Q 45.0625 54.296875 48.78125 52.59375 
z
" id="DejaVuSans-99"/>
      <path d="M 8.5 21.578125 
L 8.5 54.6875 
L 17.484375 54.6875 
L 17.484375 21.921875 
Q 17.484375 14.15625 20.5 10.265625 
Q 23.53125 6.390625 29.59375 6.390625 
Q 36.859375 6.390625 41.078125 11.03125 
Q 45.3125 15.671875 45.3125 23.6875 
L 45.3125 54.6875 
L 54.296875 54.6875 
L 54.296875 0 
L 45.3125 0 
L 45.3125 8.40625 
Q 42.046875 3.421875 37.71875 1 
Q 33.40625 -1.421875 27.6875 -1.421875 
Q 18.265625 -1.421875 13.375 4.4375 
Q 8.5 10.296875 8.5 21.578125 
z
M 31.109375 56 
z
" id="DejaVuSans-117"/>
      <path d="M 52 44.1875 
Q 55.375 50.25 60.0625 53.125 
Q 64.75 56 71.09375 56 
Q 79.640625 56 84.28125 50.015625 
Q 88.921875 44.046875 88.921875 33.015625 
L 88.921875 0 
L 79.890625 0 
L 79.890625 32.71875 
Q 79.890625 40.578125 77.09375 44.375 
Q 74.3125 48.1875 68.609375 48.1875 
Q 61.625 48.1875 57.5625 43.546875 
Q 53.515625 38.921875 53.515625 30.90625 
L 53.515625 0 
L 44.484375 0 
L 44.484375 32.71875 
Q 44.484375 40.625 41.703125 44.40625 
Q 38.921875 48.1875 33.109375 48.1875 
Q 26.21875 48.1875 22.15625 43.53125 
Q 18.109375 38.875 18.109375 30.90625 
L 18.109375 0 
L 9.078125 0 
L 9.078125 54.6875 
L 18.109375 54.6875 
L 18.109375 46.1875 
Q 21.1875 51.21875 25.484375 53.609375 
Q 29.78125 56 35.6875 56 
Q 41.65625 56 45.828125 52.96875 
Q 50 49.953125 52 44.1875 
z
" id="DejaVuSans-109"/>
     </defs>
     <g transform="translate(18.398438 269.39379)rotate(-90)scale(0.1 -0.1)">
      <use xlink:href="#DejaVuSans-77"/>
      <use x="86.279297" xlink:href="#DejaVuSans-67"/>
      <use x="156.103516" xlink:href="#DejaVuSans-32"/>
      <use x="187.890625" xlink:href="#DejaVuSans-104"/>
      <use x="251.269531" xlink:href="#DejaVuSans-111"/>
      <use x="312.451172" xlink:href="#DejaVuSans-115"/>
      <use x="364.550781" xlink:href="#DejaVuSans-112"/>
      <use x="428.027344" xlink:href="#DejaVuSans-105"/>
      <use x="455.810547" xlink:href="#DejaVuSans-116"/>
      <use x="495.019531" xlink:href="#DejaVuSans-97"/>
      <use x="556.298828" xlink:href="#DejaVuSans-108"/>
      <use x="584.082031" xlink:href="#DejaVuSans-105"/>
      <use x="611.865234" xlink:href="#DejaVuSans-122"/>
      <use x="664.355469" xlink:href="#DejaVuSans-97"/>
      <use x="725.634766" xlink:href="#DejaVuSans-100"/>
      <use x="789.111328" xlink:href="#DejaVuSans-111"/>
      <use x="850.292969" xlink:href="#DejaVuSans-115"/>
      <use x="902.392578" xlink:href="#DejaVuSans-32"/>
      <use x="934.179688" xlink:href="#DejaVuSans-40"/>
      <use x="973.193359" xlink:href="#DejaVuSans-112"/>
      <use x="1036.669922" xlink:href="#DejaVuSans-111"/>
      <use x="1097.851562" xlink:href="#DejaVuSans-114"/>
      <use x="1138.964844" xlink:href="#DejaVuSans-32"/>
      <use x="1170.751953" xlink:href="#DejaVuSans-49"/>
      <use x="1234.375" xlink:href="#DejaVuSans-48"/>
      <use x="1297.998047" xlink:href="#DejaVuSans-48"/>
      <use x="1361.621094" xlink:href="#DejaVuSans-48"/>
      <use x="1425.244141" xlink:href="#DejaVuSans-48"/>
      <use x="1488.867188" xlink:href="#DejaVuSans-48"/>
      <use x="1552.490234" xlink:href="#DejaVuSans-32"/>
      <use x="1584.277344" xlink:href="#DejaVuSans-104"/>
      <use x="1647.65625" xlink:href="#DejaVuSans-97"/>
      <use x="1708.935547" xlink:href="#DejaVuSans-98"/>
      <use x="1772.412109" xlink:href="#DejaVuSans-46"/>
      <use x="1804.199219" xlink:href="#DejaVuSans-41"/>
      <use x="1843.212891" xlink:href="#DejaVuSans-32"/>
      <use x="1875" xlink:href="#DejaVuSans-97"/>
      <use x="1936.279297" xlink:href="#DejaVuSans-99"/>
      <use x="1991.259766" xlink:href="#DejaVuSans-117"/>
      <use x="2054.638672" xlink:href="#DejaVuSans-109"/>
      <use x="2152.050781" xlink:href="#DejaVuSans-117"/>
      <use x="2215.429688" xlink:href="#DejaVuSans-108"/>
      <use x="2243.212891" xlink:href="#DejaVuSans-97"/>
      <use x="2304.492188" xlink:href="#DejaVuSans-100"/>
      <use x="2367.96875" xlink:href="#DejaVuSans-111"/>
      <use x="2429.150391" xlink:href="#DejaVuSans-115"/>
     </g>
    </g>
   </g>
   <g id="line2d_11">
    <path clip-path="url(#p8e38855f4e)" d="M 62.648438 278.352583 
L 67.918527 277.975083 
L 73.188616 276.842586 
L 78.458705 276.842586 
L 83.728795 274.95509 
L 88.998884 274.95509 
L 94.268973 273.067593 
L 99.539062 271.557596 
L 104.809152 266.272607 
L 110.079241 262.120116 
L 115.34933 256.835126 
L 120.61942 250.417639 
L 125.889509 249.662641 
L 131.159598 242.490155 
L 136.429688 231.920177 
L 141.699777 214.932711 
L 146.969866 200.96524 
L 152.239955 192.660256 
L 157.510045 181.712779 
L 162.780134 179.825282 
L 168.050223 173.030296 
L 173.320312 165.102812 
L 178.590402 133.015377 
L 183.860491 126.97539 
L 189.13058 116.027912 
L 194.40067 111.120422 
L 199.670759 103.192938 
L 204.940848 91.112962 
L 210.210938 85.450474 
L 215.481027 78.655487 
L 220.751116 78.655487 
L 226.021205 78.655487 
L 231.291295 77.145491 
L 236.561384 74.880495 
L 241.831473 66.198013 
L 247.101562 63.178019 
L 252.371652 62.80052 
L 257.641741 59.025527 
L 262.91183 49.210547 
L 268.18192 48.833048 
L 273.452009 48.833048 
L 278.722098 48.078049 
L 283.992188 45.058056 
L 289.262277 44.303057 
L 294.532366 43.925558 
L 299.802455 43.925558 
L 305.072545 43.170559 
L 310.342634 43.170559 
L 315.612723 42.415561 
L 320.882812 40.150566 
L 326.152902 39.395567 
L 331.422991 39.018068 
L 336.69308 38.640569 
L 341.96317 37.88557 
L 347.233259 36.375573 
L 352.503348 34.488077 
L 357.773438 34.488077 
L 363.043527 33.733079 
L 368.313616 31.090584 
L 373.583705 29.958086 
L 378.853795 29.958086 
L 384.123884 28.825588 
L 389.393973 28.825588 
L 394.664062 28.448089 
L 399.934152 26.183094 
L 405.204241 25.050596 
L 410.47433 24.673097 
L 415.74442 24.673097 
L 421.014509 23.918098 
L 426.284598 23.540599 
L 431.554688 23.540599 
" style="fill:none;stroke:#1f77b4;stroke-linecap:square;stroke-width:1.5;"/>
    <defs>
     <path d="M 0 1.5 
C 0.397805 1.5 0.77937 1.341951 1.06066 1.06066 
C 1.341951 0.77937 1.5 0.397805 1.5 0 
C 1.5 -0.397805 1.341951 -0.77937 1.06066 -1.06066 
C 0.77937 -1.341951 0.397805 -1.5 0 -1.5 
C -0.397805 -1.5 -0.77937 -1.341951 -1.06066 -1.06066 
C -1.341951 -0.77937 -1.5 -0.397805 -1.5 0 
C -1.5 0.397805 -1.341951 0.77937 -1.06066 1.06066 
C -0.77937 1.341951 -0.397805 1.5 0 1.5 
z
" id="m171e6e1fea" style="stroke:#1f77b4;"/>
    </defs>
    <g clip-path="url(#p8e38855f4e)">
     <use style="fill:#1f77b4;stroke:#1f77b4;" x="62.648438" xlink:href="#m171e6e1fea" y="278.352583"/>
     <use style="fill:#1f77b4;stroke:#1f77b4;" x="67.918527" xlink:href="#m171e6e1fea" y="277.975083"/>
     <use style="fill:#1f77b4;stroke:#1f77b4;" x="73.188616" xlink:href="#m171e6e1fea" y="276.842586"/>
     <use style="fill:#1f77b4;stroke:#1f77b4;" x="78.458705" xlink:href="#m171e6e1fea" y="276.842586"/>
     <use style="fill:#1f77b4;stroke:#1f77b4;" x="83.728795" xlink:href="#m171e6e1fea" y="274.95509"/>
     <use style="fill:#1f77b4;stroke:#1f77b4;" x="88.998884" xlink:href="#m171e6e1fea" y="274.95509"/>
     <use style="fill:#1f77b4;stroke:#1f77b4;" x="94.268973" xlink:href="#m171e6e1fea" y="273.067593"/>
     <use style="fill:#1f77b4;stroke:#1f77b4;" x="99.539062" xlink:href="#m171e6e1fea" y="271.557596"/>
     <use style="fill:#1f77b4;stroke:#1f77b4;" x="104.809152" xlink:href="#m171e6e1fea" y="266.272607"/>
     <use style="fill:#1f77b4;stroke:#1f77b4;" x="110.079241" xlink:href="#m171e6e1fea" y="262.120116"/>
     <use style="fill:#1f77b4;stroke:#1f77b4;" x="115.34933" xlink:href="#m171e6e1fea" y="256.835126"/>
     <use style="fill:#1f77b4;stroke:#1f77b4;" x="120.61942" xlink:href="#m171e6e1fea" y="250.417639"/>
     <use style="fill:#1f77b4;stroke:#1f77b4;" x="125.889509" xlink:href="#m171e6e1fea" y="249.662641"/>
     <use style="fill:#1f77b4;stroke:#1f77b4;" x="131.159598" xlink:href="#m171e6e1fea" y="242.490155"/>
     <use style="fill:#1f77b4;stroke:#1f77b4;" x="136.429688" xlink:href="#m171e6e1fea" y="231.920177"/>
     <use style="fill:#1f77b4;stroke:#1f77b4;" x="141.699777" xlink:href="#m171e6e1fea" y="214.932711"/>
     <use style="fill:#1f77b4;stroke:#1f77b4;" x="146.969866" xlink:href="#m171e6e1fea" y="200.96524"/>
     <use style="fill:#1f77b4;stroke:#1f77b4;" x="152.239955" xlink:href="#m171e6e1fea" y="192.660256"/>
     <use style="fill:#1f77b4;stroke:#1f77b4;" x="157.510045" xlink:href="#m171e6e1fea" y="181.712779"/>
     <use style="fill:#1f77b4;stroke:#1f77b4;" x="162.780134" xlink:href="#m171e6e1fea" y="179.825282"/>
     <use style="fill:#1f77b4;stroke:#1f77b4;" x="168.050223" xlink:href="#m171e6e1fea" y="173.030296"/>
     <use style="fill:#1f77b4;stroke:#1f77b4;" x="173.320312" xlink:href="#m171e6e1fea" y="165.102812"/>
     <use style="fill:#1f77b4;stroke:#1f77b4;" x="178.590402" xlink:href="#m171e6e1fea" y="133.015377"/>
     <use style="fill:#1f77b4;stroke:#1f77b4;" x="183.860491" xlink:href="#m171e6e1fea" y="126.97539"/>
     <use style="fill:#1f77b4;stroke:#1f77b4;" x="189.13058" xlink:href="#m171e6e1fea" y="116.027912"/>
     <use style="fill:#1f77b4;stroke:#1f77b4;" x="194.40067" xlink:href="#m171e6e1fea" y="111.120422"/>
     <use style="fill:#1f77b4;stroke:#1f77b4;" x="199.670759" xlink:href="#m171e6e1fea" y="103.192938"/>
     <use style="fill:#1f77b4;stroke:#1f77b4;" x="204.940848" xlink:href="#m171e6e1fea" y="91.112962"/>
     <use style="fill:#1f77b4;stroke:#1f77b4;" x="210.210938" xlink:href="#m171e6e1fea" y="85.450474"/>
     <use style="fill:#1f77b4;stroke:#1f77b4;" x="215.481027" xlink:href="#m171e6e1fea" y="78.655487"/>
     <use style="fill:#1f77b4;stroke:#1f77b4;" x="220.751116" xlink:href="#m171e6e1fea" y="78.655487"/>
     <use style="fill:#1f77b4;stroke:#1f77b4;" x="226.021205" xlink:href="#m171e6e1fea" y="78.655487"/>
     <use style="fill:#1f77b4;stroke:#1f77b4;" x="231.291295" xlink:href="#m171e6e1fea" y="77.145491"/>
     <use style="fill:#1f77b4;stroke:#1f77b4;" x="236.561384" xlink:href="#m171e6e1fea" y="74.880495"/>
     <use style="fill:#1f77b4;stroke:#1f77b4;" x="241.831473" xlink:href="#m171e6e1fea" y="66.198013"/>
     <use style="fill:#1f77b4;stroke:#1f77b4;" x="247.101562" xlink:href="#m171e6e1fea" y="63.178019"/>
     <use style="fill:#1f77b4;stroke:#1f77b4;" x="252.371652" xlink:href="#m171e6e1fea" y="62.80052"/>
     <use style="fill:#1f77b4;stroke:#1f77b4;" x="257.641741" xlink:href="#m171e6e1fea" y="59.025527"/>
     <use style="fill:#1f77b4;stroke:#1f77b4;" x="262.91183" xlink:href="#m171e6e1fea" y="49.210547"/>
     <use style="fill:#1f77b4;stroke:#1f77b4;" x="268.18192" xlink:href="#m171e6e1fea" y="48.833048"/>
     <use style="fill:#1f77b4;stroke:#1f77b4;" x="273.452009" xlink:href="#m171e6e1fea" y="48.833048"/>
     <use style="fill:#1f77b4;stroke:#1f77b4;" x="278.722098" xlink:href="#m171e6e1fea" y="48.078049"/>
     <use style="fill:#1f77b4;stroke:#1f77b4;" x="283.992188" xlink:href="#m171e6e1fea" y="45.058056"/>
     <use style="fill:#1f77b4;stroke:#1f77b4;" x="289.262277" xlink:href="#m171e6e1fea" y="44.303057"/>
     <use style="fill:#1f77b4;stroke:#1f77b4;" x="294.532366" xlink:href="#m171e6e1fea" y="43.925558"/>
     <use style="fill:#1f77b4;stroke:#1f77b4;" x="299.802455" xlink:href="#m171e6e1fea" y="43.925558"/>
     <use style="fill:#1f77b4;stroke:#1f77b4;" x="305.072545" xlink:href="#m171e6e1fea" y="43.170559"/>
     <use style="fill:#1f77b4;stroke:#1f77b4;" x="310.342634" xlink:href="#m171e6e1fea" y="43.170559"/>
     <use style="fill:#1f77b4;stroke:#1f77b4;" x="315.612723" xlink:href="#m171e6e1fea" y="42.415561"/>
     <use style="fill:#1f77b4;stroke:#1f77b4;" x="320.882812" xlink:href="#m171e6e1fea" y="40.150566"/>
     <use style="fill:#1f77b4;stroke:#1f77b4;" x="326.152902" xlink:href="#m171e6e1fea" y="39.395567"/>
     <use style="fill:#1f77b4;stroke:#1f77b4;" x="331.422991" xlink:href="#m171e6e1fea" y="39.018068"/>
     <use style="fill:#1f77b4;stroke:#1f77b4;" x="336.69308" xlink:href="#m171e6e1fea" y="38.640569"/>
     <use style="fill:#1f77b4;stroke:#1f77b4;" x="341.96317" xlink:href="#m171e6e1fea" y="37.88557"/>
     <use style="fill:#1f77b4;stroke:#1f77b4;" x="347.233259" xlink:href="#m171e6e1fea" y="36.375573"/>
     <use style="fill:#1f77b4;stroke:#1f77b4;" x="352.503348" xlink:href="#m171e6e1fea" y="34.488077"/>
     <use style="fill:#1f77b4;stroke:#1f77b4;" x="357.773438" xlink:href="#m171e6e1fea" y="34.488077"/>
     <use style="fill:#1f77b4;stroke:#1f77b4;" x="363.043527" xlink:href="#m171e6e1fea" y="33.733079"/>
     <use style="fill:#1f77b4;stroke:#1f77b4;" x="368.313616" xlink:href="#m171e6e1fea" y="31.090584"/>
     <use style="fill:#1f77b4;stroke:#1f77b4;" x="373.583705" xlink:href="#m171e6e1fea" y="29.958086"/>
     <use style="fill:#1f77b4;stroke:#1f77b4;" x="378.853795" xlink:href="#m171e6e1fea" y="29.958086"/>
     <use style="fill:#1f77b4;stroke:#1f77b4;" x="384.123884" xlink:href="#m171e6e1fea" y="28.825588"/>
     <use style="fill:#1f77b4;stroke:#1f77b4;" x="389.393973" xlink:href="#m171e6e1fea" y="28.825588"/>
     <use style="fill:#1f77b4;stroke:#1f77b4;" x="394.664062" xlink:href="#m171e6e1fea" y="28.448089"/>
     <use style="fill:#1f77b4;stroke:#1f77b4;" x="399.934152" xlink:href="#m171e6e1fea" y="26.183094"/>
     <use style="fill:#1f77b4;stroke:#1f77b4;" x="405.204241" xlink:href="#m171e6e1fea" y="25.050596"/>
     <use style="fill:#1f77b4;stroke:#1f77b4;" x="410.47433" xlink:href="#m171e6e1fea" y="24.673097"/>
     <use style="fill:#1f77b4;stroke:#1f77b4;" x="415.74442" xlink:href="#m171e6e1fea" y="24.673097"/>
     <use style="fill:#1f77b4;stroke:#1f77b4;" x="421.014509" xlink:href="#m171e6e1fea" y="23.918098"/>
     <use style="fill:#1f77b4;stroke:#1f77b4;" x="426.284598" xlink:href="#m171e6e1fea" y="23.540599"/>
     <use style="fill:#1f77b4;stroke:#1f77b4;" x="431.554688" xlink:href="#m171e6e1fea" y="23.540599"/>
    </g>
   </g>
   <g id="patch_3">
    <path d="M 44.203125 279.86258 
L 44.203125 10.8 
" style="fill:none;stroke:#000000;stroke-linecap:square;stroke-linejoin:miter;stroke-width:0.8;"/>
   </g>
   <g id="patch_4">
    <path d="M 450 279.86258 
L 450 10.8 
" style="fill:none;stroke:#000000;stroke-linecap:square;stroke-linejoin:miter;stroke-width:0.8;"/>
   </g>
   <g id="patch_5">
    <path d="M 44.203125 279.86258 
L 450 279.86258 
" style="fill:none;stroke:#000000;stroke-linecap:square;stroke-linejoin:miter;stroke-width:0.8;"/>
   </g>
   <g id="patch_6">
    <path d="M 44.203125 10.8 
L 450 10.8 
" style="fill:none;stroke:#000000;stroke-linecap:square;stroke-linejoin:miter;stroke-width:0.8;"/>
   </g>
  </g>
 </g>
 <defs>
  <clipPath id="p8e38855f4e">
   <rect height="269.06258" width="405.796875" x="44.203125" y="10.8"/>
  </clipPath>
 </defs>
</svg>
