<?xml version="1.0" encoding="utf-8" standalone="no"?>
<!DOCTYPE svg PUBLIC "-//W3C//DTD SVG 1.1//EN"
  "http://www.w3.org/Graphics/SVG/1.1/DTD/svg11.dtd">
<!-- Created with matplotlib (https://matplotlib.org/) -->
<svg height="345.6pt" version="1.1" viewBox="0 0 460.8 345.6" width="460.8pt" xmlns="http://www.w3.org/2000/svg" xmlns:xlink="http://www.w3.org/1999/xlink">
 <defs>
  <style type="text/css">
*{stroke-linecap:butt;stroke-linejoin:round;}
  </style>
 </defs>
 <g id="figure_1">
  <g id="patch_1">
   <path d="M 0 345.6 
L 460.8 345.6 
L 460.8 0 
L 0 0 
z
" style="fill:#ffffff;"/>
  </g>
  <g id="axes_1">
   <g id="patch_2">
    <path d="M 50.565625 279.86258 
L 434.345614 279.86258 
L 434.345614 10.8 
L 50.565625 10.8 
z
" style="fill:#ffffff;"/>
   </g>
   <g id="matplotlib.axis_1">
    <g id="xtick_1">
     <g id="line2d_1">
      <defs>
       <path d="M 0 0 
L 0 3.5 
" id="mb86e6fcbaa" style="stroke:#000000;stroke-width:0.8;"/>
      </defs>
      <g>
       <use style="stroke:#000000;stroke-width:0.8;" x="106.303073" xlink:href="#mb86e6fcbaa" y="279.86258"/>
      </g>
     </g>
     <g id="text_1">
      <!-- 2020-03-01 -->
      <defs>
       <path d="M 19.1875 8.296875 
L 53.609375 8.296875 
L 53.609375 0 
L 7.328125 0 
L 7.328125 8.296875 
Q 12.9375 14.109375 22.625 23.890625 
Q 32.328125 33.6875 34.8125 36.53125 
Q 39.546875 41.84375 41.421875 45.53125 
Q 43.3125 49.21875 43.3125 52.78125 
Q 43.3125 58.59375 39.234375 62.25 
Q 35.15625 65.921875 28.609375 65.921875 
Q 23.96875 65.921875 18.8125 64.3125 
Q 13.671875 62.703125 7.8125 59.421875 
L 7.8125 69.390625 
Q 13.765625 71.78125 18.9375 73 
Q 24.125 74.21875 28.421875 74.21875 
Q 39.75 74.21875 46.484375 68.546875 
Q 53.21875 62.890625 53.21875 53.421875 
Q 53.21875 48.921875 51.53125 44.890625 
Q 49.859375 40.875 45.40625 35.40625 
Q 44.1875 33.984375 37.640625 27.21875 
Q 31.109375 20.453125 19.1875 8.296875 
z
" id="DejaVuSans-50"/>
       <path d="M 31.78125 66.40625 
Q 24.171875 66.40625 20.328125 58.90625 
Q 16.5 51.421875 16.5 36.375 
Q 16.5 21.390625 20.328125 13.890625 
Q 24.171875 6.390625 31.78125 6.390625 
Q 39.453125 6.390625 43.28125 13.890625 
Q 47.125 21.390625 47.125 36.375 
Q 47.125 51.421875 43.28125 58.90625 
Q 39.453125 66.40625 31.78125 66.40625 
z
M 31.78125 74.21875 
Q 44.046875 74.21875 50.515625 64.515625 
Q 56.984375 54.828125 56.984375 36.375 
Q 56.984375 17.96875 50.515625 8.265625 
Q 44.046875 -1.421875 31.78125 -1.421875 
Q 19.53125 -1.421875 13.0625 8.265625 
Q 6.59375 17.96875 6.59375 36.375 
Q 6.59375 54.828125 13.0625 64.515625 
Q 19.53125 74.21875 31.78125 74.21875 
z
" id="DejaVuSans-48"/>
       <path d="M 4.890625 31.390625 
L 31.203125 31.390625 
L 31.203125 23.390625 
L 4.890625 23.390625 
z
" id="DejaVuSans-45"/>
       <path d="M 40.578125 39.3125 
Q 47.65625 37.796875 51.625 33 
Q 55.609375 28.21875 55.609375 21.1875 
Q 55.609375 10.40625 48.1875 4.484375 
Q 40.765625 -1.421875 27.09375 -1.421875 
Q 22.515625 -1.421875 17.65625 -0.515625 
Q 12.796875 0.390625 7.625 2.203125 
L 7.625 11.71875 
Q 11.71875 9.328125 16.59375 8.109375 
Q 21.484375 6.890625 26.8125 6.890625 
Q 36.078125 6.890625 40.9375 10.546875 
Q 45.796875 14.203125 45.796875 21.1875 
Q 45.796875 27.640625 41.28125 31.265625 
Q 36.765625 34.90625 28.71875 34.90625 
L 20.21875 34.90625 
L 20.21875 43.015625 
L 29.109375 43.015625 
Q 36.375 43.015625 40.234375 45.921875 
Q 44.09375 48.828125 44.09375 54.296875 
Q 44.09375 59.90625 40.109375 62.90625 
Q 36.140625 65.921875 28.71875 65.921875 
Q 24.65625 65.921875 20.015625 65.03125 
Q 15.375 64.15625 9.8125 62.3125 
L 9.8125 71.09375 
Q 15.4375 72.65625 20.34375 73.4375 
Q 25.25 74.21875 29.59375 74.21875 
Q 40.828125 74.21875 47.359375 69.109375 
Q 53.90625 64.015625 53.90625 55.328125 
Q 53.90625 49.265625 50.4375 45.09375 
Q 46.96875 40.921875 40.578125 39.3125 
z
" id="DejaVuSans-51"/>
       <path d="M 12.40625 8.296875 
L 28.515625 8.296875 
L 28.515625 63.921875 
L 10.984375 60.40625 
L 10.984375 69.390625 
L 28.421875 72.90625 
L 38.28125 72.90625 
L 38.28125 8.296875 
L 54.390625 8.296875 
L 54.390625 0 
L 12.40625 0 
z
" id="DejaVuSans-49"/>
      </defs>
      <g transform="translate(87.70727 333.329439)rotate(-45)scale(0.1 -0.1)">
       <use xlink:href="#DejaVuSans-50"/>
       <use x="63.623047" xlink:href="#DejaVuSans-48"/>
       <use x="127.246094" xlink:href="#DejaVuSans-50"/>
       <use x="190.869141" xlink:href="#DejaVuSans-48"/>
       <use x="254.492188" xlink:href="#DejaVuSans-45"/>
       <use x="290.576172" xlink:href="#DejaVuSans-48"/>
       <use x="354.199219" xlink:href="#DejaVuSans-51"/>
       <use x="417.822266" xlink:href="#DejaVuSans-45"/>
       <use x="453.90625" xlink:href="#DejaVuSans-48"/>
       <use x="517.529297" xlink:href="#DejaVuSans-49"/>
      </g>
     </g>
    </g>
    <g id="xtick_2">
     <g id="line2d_2">
      <g>
       <use style="stroke:#000000;stroke-width:0.8;" x="165.869812" xlink:href="#mb86e6fcbaa" y="279.86258"/>
      </g>
     </g>
     <g id="text_2">
      <!-- 2020-03-15 -->
      <defs>
       <path d="M 10.796875 72.90625 
L 49.515625 72.90625 
L 49.515625 64.59375 
L 19.828125 64.59375 
L 19.828125 46.734375 
Q 21.96875 47.46875 24.109375 47.828125 
Q 26.265625 48.1875 28.421875 48.1875 
Q 40.625 48.1875 47.75 41.5 
Q 54.890625 34.8125 54.890625 23.390625 
Q 54.890625 11.625 47.5625 5.09375 
Q 40.234375 -1.421875 26.90625 -1.421875 
Q 22.3125 -1.421875 17.546875 -0.640625 
Q 12.796875 0.140625 7.71875 1.703125 
L 7.71875 11.625 
Q 12.109375 9.234375 16.796875 8.0625 
Q 21.484375 6.890625 26.703125 6.890625 
Q 35.15625 6.890625 40.078125 11.328125 
Q 45.015625 15.765625 45.015625 23.390625 
Q 45.015625 31 40.078125 35.4375 
Q 35.15625 39.890625 26.703125 39.890625 
Q 22.75 39.890625 18.8125 39.015625 
Q 14.890625 38.140625 10.796875 36.28125 
z
" id="DejaVuSans-53"/>
      </defs>
      <g transform="translate(147.274009 333.329439)rotate(-45)scale(0.1 -0.1)">
       <use xlink:href="#DejaVuSans-50"/>
       <use x="63.623047" xlink:href="#DejaVuSans-48"/>
       <use x="127.246094" xlink:href="#DejaVuSans-50"/>
       <use x="190.869141" xlink:href="#DejaVuSans-48"/>
       <use x="254.492188" xlink:href="#DejaVuSans-45"/>
       <use x="290.576172" xlink:href="#DejaVuSans-48"/>
       <use x="354.199219" xlink:href="#DejaVuSans-51"/>
       <use x="417.822266" xlink:href="#DejaVuSans-45"/>
       <use x="453.90625" xlink:href="#DejaVuSans-49"/>
       <use x="517.529297" xlink:href="#DejaVuSans-53"/>
      </g>
     </g>
    </g>
    <g id="xtick_3">
     <g id="line2d_3">
      <g>
       <use style="stroke:#000000;stroke-width:0.8;" x="238.200852" xlink:href="#mb86e6fcbaa" y="279.86258"/>
      </g>
     </g>
     <g id="text_3">
      <!-- 2020-04-01 -->
      <defs>
       <path d="M 37.796875 64.3125 
L 12.890625 25.390625 
L 37.796875 25.390625 
z
M 35.203125 72.90625 
L 47.609375 72.90625 
L 47.609375 25.390625 
L 58.015625 25.390625 
L 58.015625 17.1875 
L 47.609375 17.1875 
L 47.609375 0 
L 37.796875 0 
L 37.796875 17.1875 
L 4.890625 17.1875 
L 4.890625 26.703125 
z
" id="DejaVuSans-52"/>
      </defs>
      <g transform="translate(219.605049 333.329439)rotate(-45)scale(0.1 -0.1)">
       <use xlink:href="#DejaVuSans-50"/>
       <use x="63.623047" xlink:href="#DejaVuSans-48"/>
       <use x="127.246094" xlink:href="#DejaVuSans-50"/>
       <use x="190.869141" xlink:href="#DejaVuSans-48"/>
       <use x="254.492188" xlink:href="#DejaVuSans-45"/>
       <use x="290.576172" xlink:href="#DejaVuSans-48"/>
       <use x="354.199219" xlink:href="#DejaVuSans-52"/>
       <use x="417.822266" xlink:href="#DejaVuSans-45"/>
       <use x="453.90625" xlink:href="#DejaVuSans-48"/>
       <use x="517.529297" xlink:href="#DejaVuSans-49"/>
      </g>
     </g>
    </g>
    <g id="xtick_4">
     <g id="line2d_4">
      <g>
       <use style="stroke:#000000;stroke-width:0.8;" x="297.767591" xlink:href="#mb86e6fcbaa" y="279.86258"/>
      </g>
     </g>
     <g id="text_4">
      <!-- 2020-04-15 -->
      <g transform="translate(279.171788 333.329439)rotate(-45)scale(0.1 -0.1)">
       <use xlink:href="#DejaVuSans-50"/>
       <use x="63.623047" xlink:href="#DejaVuSans-48"/>
       <use x="127.246094" xlink:href="#DejaVuSans-50"/>
       <use x="190.869141" xlink:href="#DejaVuSans-48"/>
       <use x="254.492188" xlink:href="#DejaVuSans-45"/>
       <use x="290.576172" xlink:href="#DejaVuSans-48"/>
       <use x="354.199219" xlink:href="#DejaVuSans-52"/>
       <use x="417.822266" xlink:href="#DejaVuSans-45"/>
       <use x="453.90625" xlink:href="#DejaVuSans-49"/>
       <use x="517.529297" xlink:href="#DejaVuSans-53"/>
      </g>
     </g>
    </g>
    <g id="xtick_5">
     <g id="line2d_5">
      <g>
       <use style="stroke:#000000;stroke-width:0.8;" x="365.843864" xlink:href="#mb86e6fcbaa" y="279.86258"/>
      </g>
     </g>
     <g id="text_5">
      <!-- 2020-05-01 -->
      <g transform="translate(347.24806 333.329439)rotate(-45)scale(0.1 -0.1)">
       <use xlink:href="#DejaVuSans-50"/>
       <use x="63.623047" xlink:href="#DejaVuSans-48"/>
       <use x="127.246094" xlink:href="#DejaVuSans-50"/>
       <use x="190.869141" xlink:href="#DejaVuSans-48"/>
       <use x="254.492188" xlink:href="#DejaVuSans-45"/>
       <use x="290.576172" xlink:href="#DejaVuSans-48"/>
       <use x="354.199219" xlink:href="#DejaVuSans-53"/>
       <use x="417.822266" xlink:href="#DejaVuSans-45"/>
       <use x="453.90625" xlink:href="#DejaVuSans-48"/>
       <use x="517.529297" xlink:href="#DejaVuSans-49"/>
      </g>
     </g>
    </g>
    <g id="xtick_6">
     <g id="line2d_6">
      <g>
       <use style="stroke:#000000;stroke-width:0.8;" x="425.410603" xlink:href="#mb86e6fcbaa" y="279.86258"/>
      </g>
     </g>
     <g id="text_6">
      <!-- 2020-05-15 -->
      <g transform="translate(406.814799 333.329439)rotate(-45)scale(0.1 -0.1)">
       <use xlink:href="#DejaVuSans-50"/>
       <use x="63.623047" xlink:href="#DejaVuSans-48"/>
       <use x="127.246094" xlink:href="#DejaVuSans-50"/>
       <use x="190.869141" xlink:href="#DejaVuSans-48"/>
       <use x="254.492188" xlink:href="#DejaVuSans-45"/>
       <use x="290.576172" xlink:href="#DejaVuSans-48"/>
       <use x="354.199219" xlink:href="#DejaVuSans-53"/>
       <use x="417.822266" xlink:href="#DejaVuSans-45"/>
       <use x="453.90625" xlink:href="#DejaVuSans-49"/>
       <use x="517.529297" xlink:href="#DejaVuSans-53"/>
      </g>
     </g>
    </g>
   </g>
   <g id="matplotlib.axis_2">
    <g id="ytick_1">
     <g id="line2d_7">
      <defs>
       <path d="M 0 0 
L -3.5 0 
" id="md2488ae7bc" style="stroke:#000000;stroke-width:0.8;"/>
      </defs>
      <g>
       <use style="stroke:#000000;stroke-width:0.8;" x="50.565625" xlink:href="#md2488ae7bc" y="279.86258"/>
      </g>
     </g>
     <g id="text_7">
      <!-- 0 -->
      <g transform="translate(37.203125 283.661798)scale(0.1 -0.1)">
       <use xlink:href="#DejaVuSans-48"/>
      </g>
     </g>
    </g>
    <g id="ytick_2">
     <g id="line2d_8">
      <g>
       <use style="stroke:#000000;stroke-width:0.8;" x="50.565625" xlink:href="#md2488ae7bc" y="232.311653"/>
      </g>
     </g>
     <g id="text_8">
      <!-- 20 -->
      <g transform="translate(30.840625 236.110872)scale(0.1 -0.1)">
       <use xlink:href="#DejaVuSans-50"/>
       <use x="63.623047" xlink:href="#DejaVuSans-48"/>
      </g>
     </g>
    </g>
    <g id="ytick_3">
     <g id="line2d_9">
      <g>
       <use style="stroke:#000000;stroke-width:0.8;" x="50.565625" xlink:href="#md2488ae7bc" y="184.760726"/>
      </g>
     </g>
     <g id="text_9">
      <!-- 40 -->
      <g transform="translate(30.840625 188.559945)scale(0.1 -0.1)">
       <use xlink:href="#DejaVuSans-52"/>
       <use x="63.623047" xlink:href="#DejaVuSans-48"/>
      </g>
     </g>
    </g>
    <g id="ytick_4">
     <g id="line2d_10">
      <g>
       <use style="stroke:#000000;stroke-width:0.8;" x="50.565625" xlink:href="#md2488ae7bc" y="137.209799"/>
      </g>
     </g>
     <g id="text_10">
      <!-- 60 -->
      <defs>
       <path d="M 33.015625 40.375 
Q 26.375 40.375 22.484375 35.828125 
Q 18.609375 31.296875 18.609375 23.390625 
Q 18.609375 15.53125 22.484375 10.953125 
Q 26.375 6.390625 33.015625 6.390625 
Q 39.65625 6.390625 43.53125 10.953125 
Q 47.40625 15.53125 47.40625 23.390625 
Q 47.40625 31.296875 43.53125 35.828125 
Q 39.65625 40.375 33.015625 40.375 
z
M 52.59375 71.296875 
L 52.59375 62.3125 
Q 48.875 64.0625 45.09375 64.984375 
Q 41.3125 65.921875 37.59375 65.921875 
Q 27.828125 65.921875 22.671875 59.328125 
Q 17.53125 52.734375 16.796875 39.40625 
Q 19.671875 43.65625 24.015625 45.921875 
Q 28.375 48.1875 33.59375 48.1875 
Q 44.578125 48.1875 50.953125 41.515625 
Q 57.328125 34.859375 57.328125 23.390625 
Q 57.328125 12.15625 50.6875 5.359375 
Q 44.046875 -1.421875 33.015625 -1.421875 
Q 20.359375 -1.421875 13.671875 8.265625 
Q 6.984375 17.96875 6.984375 36.375 
Q 6.984375 53.65625 15.1875 63.9375 
Q 23.390625 74.21875 37.203125 74.21875 
Q 40.921875 74.21875 44.703125 73.484375 
Q 48.484375 72.75 52.59375 71.296875 
z
" id="DejaVuSans-54"/>
      </defs>
      <g transform="translate(30.840625 141.009018)scale(0.1 -0.1)">
       <use xlink:href="#DejaVuSans-54"/>
       <use x="63.623047" xlink:href="#DejaVuSans-48"/>
      </g>
     </g>
    </g>
    <g id="ytick_5">
     <g id="line2d_11">
      <g>
       <use style="stroke:#000000;stroke-width:0.8;" x="50.565625" xlink:href="#md2488ae7bc" y="89.658872"/>
      </g>
     </g>
     <g id="text_11">
      <!-- 80 -->
      <defs>
       <path d="M 31.78125 34.625 
Q 24.75 34.625 20.71875 30.859375 
Q 16.703125 27.09375 16.703125 20.515625 
Q 16.703125 13.921875 20.71875 10.15625 
Q 24.75 6.390625 31.78125 6.390625 
Q 38.8125 6.390625 42.859375 10.171875 
Q 46.921875 13.96875 46.921875 20.515625 
Q 46.921875 27.09375 42.890625 30.859375 
Q 38.875 34.625 31.78125 34.625 
z
M 21.921875 38.8125 
Q 15.578125 40.375 12.03125 44.71875 
Q 8.5 49.078125 8.5 55.328125 
Q 8.5 64.0625 14.71875 69.140625 
Q 20.953125 74.21875 31.78125 74.21875 
Q 42.671875 74.21875 48.875 69.140625 
Q 55.078125 64.0625 55.078125 55.328125 
Q 55.078125 49.078125 51.53125 44.71875 
Q 48 40.375 41.703125 38.8125 
Q 48.828125 37.15625 52.796875 32.3125 
Q 56.78125 27.484375 56.78125 20.515625 
Q 56.78125 9.90625 50.3125 4.234375 
Q 43.84375 -1.421875 31.78125 -1.421875 
Q 19.734375 -1.421875 13.25 4.234375 
Q 6.78125 9.90625 6.78125 20.515625 
Q 6.78125 27.484375 10.78125 32.3125 
Q 14.796875 37.15625 21.921875 38.8125 
z
M 18.3125 54.390625 
Q 18.3125 48.734375 21.84375 45.5625 
Q 25.390625 42.390625 31.78125 42.390625 
Q 38.140625 42.390625 41.71875 45.5625 
Q 45.3125 48.734375 45.3125 54.390625 
Q 45.3125 60.0625 41.71875 63.234375 
Q 38.140625 66.40625 31.78125 66.40625 
Q 25.390625 66.40625 21.84375 63.234375 
Q 18.3125 60.0625 18.3125 54.390625 
z
" id="DejaVuSans-56"/>
      </defs>
      <g transform="translate(30.840625 93.458091)scale(0.1 -0.1)">
       <use xlink:href="#DejaVuSans-56"/>
       <use x="63.623047" xlink:href="#DejaVuSans-48"/>
      </g>
     </g>
    </g>
    <g id="ytick_6">
     <g id="line2d_12">
      <g>
       <use style="stroke:#000000;stroke-width:0.8;" x="50.565625" xlink:href="#md2488ae7bc" y="42.107946"/>
      </g>
     </g>
     <g id="text_12">
      <!-- 100 -->
      <g transform="translate(24.478125 45.907164)scale(0.1 -0.1)">
       <use xlink:href="#DejaVuSans-49"/>
       <use x="63.623047" xlink:href="#DejaVuSans-48"/>
       <use x="127.246094" xlink:href="#DejaVuSans-48"/>
      </g>
     </g>
    </g>
    <g id="text_13">
     <!-- VC hospitalizados (por 100000 hab.) acumulados -->
     <defs>
      <path d="M 28.609375 0 
L 0.78125 72.90625 
L 11.078125 72.90625 
L 34.1875 11.53125 
L 57.328125 72.90625 
L 67.578125 72.90625 
L 39.796875 0 
z
" id="DejaVuSans-86"/>
      <path d="M 64.40625 67.28125 
L 64.40625 56.890625 
Q 59.421875 61.53125 53.78125 63.8125 
Q 48.140625 66.109375 41.796875 66.109375 
Q 29.296875 66.109375 22.65625 58.46875 
Q 16.015625 50.828125 16.015625 36.375 
Q 16.015625 21.96875 22.65625 14.328125 
Q 29.296875 6.6875 41.796875 6.6875 
Q 48.140625 6.6875 53.78125 8.984375 
Q 59.421875 11.28125 64.40625 15.921875 
L 64.40625 5.609375 
Q 59.234375 2.09375 53.4375 0.328125 
Q 47.65625 -1.421875 41.21875 -1.421875 
Q 24.65625 -1.421875 15.125 8.703125 
Q 5.609375 18.84375 5.609375 36.375 
Q 5.609375 53.953125 15.125 64.078125 
Q 24.65625 74.21875 41.21875 74.21875 
Q 47.75 74.21875 53.53125 72.484375 
Q 59.328125 70.75 64.40625 67.28125 
z
" id="DejaVuSans-67"/>
      <path id="DejaVuSans-32"/>
      <path d="M 54.890625 33.015625 
L 54.890625 0 
L 45.90625 0 
L 45.90625 32.71875 
Q 45.90625 40.484375 42.875 44.328125 
Q 39.84375 48.1875 33.796875 48.1875 
Q 26.515625 48.1875 22.3125 43.546875 
Q 18.109375 38.921875 18.109375 30.90625 
L 18.109375 0 
L 9.078125 0 
L 9.078125 75.984375 
L 18.109375 75.984375 
L 18.109375 46.1875 
Q 21.34375 51.125 25.703125 53.5625 
Q 30.078125 56 35.796875 56 
Q 45.21875 56 50.046875 50.171875 
Q 54.890625 44.34375 54.890625 33.015625 
z
" id="DejaVuSans-104"/>
      <path d="M 30.609375 48.390625 
Q 23.390625 48.390625 19.1875 42.75 
Q 14.984375 37.109375 14.984375 27.296875 
Q 14.984375 17.484375 19.15625 11.84375 
Q 23.34375 6.203125 30.609375 6.203125 
Q 37.796875 6.203125 41.984375 11.859375 
Q 46.1875 17.53125 46.1875 27.296875 
Q 46.1875 37.015625 41.984375 42.703125 
Q 37.796875 48.390625 30.609375 48.390625 
z
M 30.609375 56 
Q 42.328125 56 49.015625 48.375 
Q 55.71875 40.765625 55.71875 27.296875 
Q 55.71875 13.875 49.015625 6.21875 
Q 42.328125 -1.421875 30.609375 -1.421875 
Q 18.84375 -1.421875 12.171875 6.21875 
Q 5.515625 13.875 5.515625 27.296875 
Q 5.515625 40.765625 12.171875 48.375 
Q 18.84375 56 30.609375 56 
z
" id="DejaVuSans-111"/>
      <path d="M 44.28125 53.078125 
L 44.28125 44.578125 
Q 40.484375 46.53125 36.375 47.5 
Q 32.28125 48.484375 27.875 48.484375 
Q 21.1875 48.484375 17.84375 46.4375 
Q 14.5 44.390625 14.5 40.28125 
Q 14.5 37.15625 16.890625 35.375 
Q 19.28125 33.59375 26.515625 31.984375 
L 29.59375 31.296875 
Q 39.15625 29.25 43.1875 25.515625 
Q 47.21875 21.78125 47.21875 15.09375 
Q 47.21875 7.46875 41.1875 3.015625 
Q 35.15625 -1.421875 24.609375 -1.421875 
Q 20.21875 -1.421875 15.453125 -0.5625 
Q 10.6875 0.296875 5.421875 2 
L 5.421875 11.28125 
Q 10.40625 8.6875 15.234375 7.390625 
Q 20.0625 6.109375 24.8125 6.109375 
Q 31.15625 6.109375 34.5625 8.28125 
Q 37.984375 10.453125 37.984375 14.40625 
Q 37.984375 18.0625 35.515625 20.015625 
Q 33.0625 21.96875 24.703125 23.78125 
L 21.578125 24.515625 
Q 13.234375 26.265625 9.515625 29.90625 
Q 5.8125 33.546875 5.8125 39.890625 
Q 5.8125 47.609375 11.28125 51.796875 
Q 16.75 56 26.8125 56 
Q 31.78125 56 36.171875 55.265625 
Q 40.578125 54.546875 44.28125 53.078125 
z
" id="DejaVuSans-115"/>
      <path d="M 18.109375 8.203125 
L 18.109375 -20.796875 
L 9.078125 -20.796875 
L 9.078125 54.6875 
L 18.109375 54.6875 
L 18.109375 46.390625 
Q 20.953125 51.265625 25.265625 53.625 
Q 29.59375 56 35.59375 56 
Q 45.5625 56 51.78125 48.09375 
Q 58.015625 40.1875 58.015625 27.296875 
Q 58.015625 14.40625 51.78125 6.484375 
Q 45.5625 -1.421875 35.59375 -1.421875 
Q 29.59375 -1.421875 25.265625 0.953125 
Q 20.953125 3.328125 18.109375 8.203125 
z
M 48.6875 27.296875 
Q 48.6875 37.203125 44.609375 42.84375 
Q 40.53125 48.484375 33.40625 48.484375 
Q 26.265625 48.484375 22.1875 42.84375 
Q 18.109375 37.203125 18.109375 27.296875 
Q 18.109375 17.390625 22.1875 11.75 
Q 26.265625 6.109375 33.40625 6.109375 
Q 40.53125 6.109375 44.609375 11.75 
Q 48.6875 17.390625 48.6875 27.296875 
z
" id="DejaVuSans-112"/>
      <path d="M 9.421875 54.6875 
L 18.40625 54.6875 
L 18.40625 0 
L 9.421875 0 
z
M 9.421875 75.984375 
L 18.40625 75.984375 
L 18.40625 64.59375 
L 9.421875 64.59375 
z
" id="DejaVuSans-105"/>
      <path d="M 18.3125 70.21875 
L 18.3125 54.6875 
L 36.8125 54.6875 
L 36.8125 47.703125 
L 18.3125 47.703125 
L 18.3125 18.015625 
Q 18.3125 11.328125 20.140625 9.421875 
Q 21.96875 7.515625 27.59375 7.515625 
L 36.8125 7.515625 
L 36.8125 0 
L 27.59375 0 
Q 17.1875 0 13.234375 3.875 
Q 9.28125 7.765625 9.28125 18.015625 
L 9.28125 47.703125 
L 2.6875 47.703125 
L 2.6875 54.6875 
L 9.28125 54.6875 
L 9.28125 70.21875 
z
" id="DejaVuSans-116"/>
      <path d="M 34.28125 27.484375 
Q 23.390625 27.484375 19.1875 25 
Q 14.984375 22.515625 14.984375 16.5 
Q 14.984375 11.71875 18.140625 8.90625 
Q 21.296875 6.109375 26.703125 6.109375 
Q 34.1875 6.109375 38.703125 11.40625 
Q 43.21875 16.703125 43.21875 25.484375 
L 43.21875 27.484375 
z
M 52.203125 31.203125 
L 52.203125 0 
L 43.21875 0 
L 43.21875 8.296875 
Q 40.140625 3.328125 35.546875 0.953125 
Q 30.953125 -1.421875 24.3125 -1.421875 
Q 15.921875 -1.421875 10.953125 3.296875 
Q 6 8.015625 6 15.921875 
Q 6 25.140625 12.171875 29.828125 
Q 18.359375 34.515625 30.609375 34.515625 
L 43.21875 34.515625 
L 43.21875 35.40625 
Q 43.21875 41.609375 39.140625 45 
Q 35.0625 48.390625 27.6875 48.390625 
Q 23 48.390625 18.546875 47.265625 
Q 14.109375 46.140625 10.015625 43.890625 
L 10.015625 52.203125 
Q 14.9375 54.109375 19.578125 55.046875 
Q 24.21875 56 28.609375 56 
Q 40.484375 56 46.34375 49.84375 
Q 52.203125 43.703125 52.203125 31.203125 
z
" id="DejaVuSans-97"/>
      <path d="M 9.421875 75.984375 
L 18.40625 75.984375 
L 18.40625 0 
L 9.421875 0 
z
" id="DejaVuSans-108"/>
      <path d="M 5.515625 54.6875 
L 48.1875 54.6875 
L 48.1875 46.484375 
L 14.40625 7.171875 
L 48.1875 7.171875 
L 48.1875 0 
L 4.296875 0 
L 4.296875 8.203125 
L 38.09375 47.515625 
L 5.515625 47.515625 
z
" id="DejaVuSans-122"/>
      <path d="M 45.40625 46.390625 
L 45.40625 75.984375 
L 54.390625 75.984375 
L 54.390625 0 
L 45.40625 0 
L 45.40625 8.203125 
Q 42.578125 3.328125 38.25 0.953125 
Q 33.9375 -1.421875 27.875 -1.421875 
Q 17.96875 -1.421875 11.734375 6.484375 
Q 5.515625 14.40625 5.515625 27.296875 
Q 5.515625 40.1875 11.734375 48.09375 
Q 17.96875 56 27.875 56 
Q 33.9375 56 38.25 53.625 
Q 42.578125 51.265625 45.40625 46.390625 
z
M 14.796875 27.296875 
Q 14.796875 17.390625 18.875 11.75 
Q 22.953125 6.109375 30.078125 6.109375 
Q 37.203125 6.109375 41.296875 11.75 
Q 45.40625 17.390625 45.40625 27.296875 
Q 45.40625 37.203125 41.296875 42.84375 
Q 37.203125 48.484375 30.078125 48.484375 
Q 22.953125 48.484375 18.875 42.84375 
Q 14.796875 37.203125 14.796875 27.296875 
z
" id="DejaVuSans-100"/>
      <path d="M 31 75.875 
Q 24.46875 64.65625 21.28125 53.65625 
Q 18.109375 42.671875 18.109375 31.390625 
Q 18.109375 20.125 21.3125 9.0625 
Q 24.515625 -2 31 -13.1875 
L 23.1875 -13.1875 
Q 15.875 -1.703125 12.234375 9.375 
Q 8.59375 20.453125 8.59375 31.390625 
Q 8.59375 42.28125 12.203125 53.3125 
Q 15.828125 64.359375 23.1875 75.875 
z
" id="DejaVuSans-40"/>
      <path d="M 41.109375 46.296875 
Q 39.59375 47.171875 37.8125 47.578125 
Q 36.03125 48 33.890625 48 
Q 26.265625 48 22.1875 43.046875 
Q 18.109375 38.09375 18.109375 28.8125 
L 18.109375 0 
L 9.078125 0 
L 9.078125 54.6875 
L 18.109375 54.6875 
L 18.109375 46.1875 
Q 20.953125 51.171875 25.484375 53.578125 
Q 30.03125 56 36.53125 56 
Q 37.453125 56 38.578125 55.875 
Q 39.703125 55.765625 41.0625 55.515625 
z
" id="DejaVuSans-114"/>
      <path d="M 48.6875 27.296875 
Q 48.6875 37.203125 44.609375 42.84375 
Q 40.53125 48.484375 33.40625 48.484375 
Q 26.265625 48.484375 22.1875 42.84375 
Q 18.109375 37.203125 18.109375 27.296875 
Q 18.109375 17.390625 22.1875 11.75 
Q 26.265625 6.109375 33.40625 6.109375 
Q 40.53125 6.109375 44.609375 11.75 
Q 48.6875 17.390625 48.6875 27.296875 
z
M 18.109375 46.390625 
Q 20.953125 51.265625 25.265625 53.625 
Q 29.59375 56 35.59375 56 
Q 45.5625 56 51.78125 48.09375 
Q 58.015625 40.1875 58.015625 27.296875 
Q 58.015625 14.40625 51.78125 6.484375 
Q 45.5625 -1.421875 35.59375 -1.421875 
Q 29.59375 -1.421875 25.265625 0.953125 
Q 20.953125 3.328125 18.109375 8.203125 
L 18.109375 0 
L 9.078125 0 
L 9.078125 75.984375 
L 18.109375 75.984375 
z
" id="DejaVuSans-98"/>
      <path d="M 10.6875 12.40625 
L 21 12.40625 
L 21 0 
L 10.6875 0 
z
" id="DejaVuSans-46"/>
      <path d="M 8.015625 75.875 
L 15.828125 75.875 
Q 23.140625 64.359375 26.78125 53.3125 
Q 30.421875 42.28125 30.421875 31.390625 
Q 30.421875 20.453125 26.78125 9.375 
Q 23.140625 -1.703125 15.828125 -13.1875 
L 8.015625 -13.1875 
Q 14.5 -2 17.703125 9.0625 
Q 20.90625 20.125 20.90625 31.390625 
Q 20.90625 42.671875 17.703125 53.65625 
Q 14.5 64.65625 8.015625 75.875 
z
" id="DejaVuSans-41"/>
      <path d="M 48.78125 52.59375 
L 48.78125 44.1875 
Q 44.96875 46.296875 41.140625 47.34375 
Q 37.3125 48.390625 33.40625 48.390625 
Q 24.65625 48.390625 19.8125 42.84375 
Q 14.984375 37.3125 14.984375 27.296875 
Q 14.984375 17.28125 19.8125 11.734375 
Q 24.65625 6.203125 33.40625 6.203125 
Q 37.3125 6.203125 41.140625 7.25 
Q 44.96875 8.296875 48.78125 10.40625 
L 48.78125 2.09375 
Q 45.015625 0.34375 40.984375 -0.53125 
Q 36.96875 -1.421875 32.421875 -1.421875 
Q 20.0625 -1.421875 12.78125 6.34375 
Q 5.515625 14.109375 5.515625 27.296875 
Q 5.515625 40.671875 12.859375 48.328125 
Q 20.21875 56 33.015625 56 
Q 37.15625 56 41.109375 55.140625 
Q 45.0625 54.296875 48.78125 52.59375 
z
" id="DejaVuSans-99"/>
      <path d="M 8.5 21.578125 
L 8.5 54.6875 
L 17.484375 54.6875 
L 17.484375 21.921875 
Q 17.484375 14.15625 20.5 10.265625 
Q 23.53125 6.390625 29.59375 6.390625 
Q 36.859375 6.390625 41.078125 11.03125 
Q 45.3125 15.671875 45.3125 23.6875 
L 45.3125 54.6875 
L 54.296875 54.6875 
L 54.296875 0 
L 45.3125 0 
L 45.3125 8.40625 
Q 42.046875 3.421875 37.71875 1 
Q 33.40625 -1.421875 27.6875 -1.421875 
Q 18.265625 -1.421875 13.375 4.4375 
Q 8.5 10.296875 8.5 21.578125 
z
M 31.109375 56 
z
" id="DejaVuSans-117"/>
      <path d="M 52 44.1875 
Q 55.375 50.25 60.0625 53.125 
Q 64.75 56 71.09375 56 
Q 79.640625 56 84.28125 50.015625 
Q 88.921875 44.046875 88.921875 33.015625 
L 88.921875 0 
L 79.890625 0 
L 79.890625 32.71875 
Q 79.890625 40.578125 77.09375 44.375 
Q 74.3125 48.1875 68.609375 48.1875 
Q 61.625 48.1875 57.5625 43.546875 
Q 53.515625 38.921875 53.515625 30.90625 
L 53.515625 0 
L 44.484375 0 
L 44.484375 32.71875 
Q 44.484375 40.625 41.703125 44.40625 
Q 38.921875 48.1875 33.109375 48.1875 
Q 26.21875 48.1875 22.15625 43.53125 
Q 18.109375 38.875 18.109375 30.90625 
L 18.109375 0 
L 9.078125 0 
L 9.078125 54.6875 
L 18.109375 54.6875 
L 18.109375 46.1875 
Q 21.1875 51.21875 25.484375 53.609375 
Q 29.78125 56 35.6875 56 
Q 41.65625 56 45.828125 52.96875 
Q 50 49.953125 52 44.1875 
z
" id="DejaVuSans-109"/>
     </defs>
     <g transform="translate(18.398438 268.50004)rotate(-90)scale(0.1 -0.1)">
      <use xlink:href="#DejaVuSans-86"/>
      <use x="68.408203" xlink:href="#DejaVuSans-67"/>
      <use x="138.232422" xlink:href="#DejaVuSans-32"/>
      <use x="170.019531" xlink:href="#DejaVuSans-104"/>
      <use x="233.398438" xlink:href="#DejaVuSans-111"/>
      <use x="294.580078" xlink:href="#DejaVuSans-115"/>
      <use x="346.679688" xlink:href="#DejaVuSans-112"/>
      <use x="410.15625" xlink:href="#DejaVuSans-105"/>
      <use x="437.939453" xlink:href="#DejaVuSans-116"/>
      <use x="477.148438" xlink:href="#DejaVuSans-97"/>
      <use x="538.427734" xlink:href="#DejaVuSans-108"/>
      <use x="566.210938" xlink:href="#DejaVuSans-105"/>
      <use x="593.994141" xlink:href="#DejaVuSans-122"/>
      <use x="646.484375" xlink:href="#DejaVuSans-97"/>
      <use x="707.763672" xlink:href="#DejaVuSans-100"/>
      <use x="771.240234" xlink:href="#DejaVuSans-111"/>
      <use x="832.421875" xlink:href="#DejaVuSans-115"/>
      <use x="884.521484" xlink:href="#DejaVuSans-32"/>
      <use x="916.308594" xlink:href="#DejaVuSans-40"/>
      <use x="955.322266" xlink:href="#DejaVuSans-112"/>
      <use x="1018.798828" xlink:href="#DejaVuSans-111"/>
      <use x="1079.980469" xlink:href="#DejaVuSans-114"/>
      <use x="1121.09375" xlink:href="#DejaVuSans-32"/>
      <use x="1152.880859" xlink:href="#DejaVuSans-49"/>
      <use x="1216.503906" xlink:href="#DejaVuSans-48"/>
      <use x="1280.126953" xlink:href="#DejaVuSans-48"/>
      <use x="1343.75" xlink:href="#DejaVuSans-48"/>
      <use x="1407.373047" xlink:href="#DejaVuSans-48"/>
      <use x="1470.996094" xlink:href="#DejaVuSans-48"/>
      <use x="1534.619141" xlink:href="#DejaVuSans-32"/>
      <use x="1566.40625" xlink:href="#DejaVuSans-104"/>
      <use x="1629.785156" xlink:href="#DejaVuSans-97"/>
      <use x="1691.064453" xlink:href="#DejaVuSans-98"/>
      <use x="1754.541016" xlink:href="#DejaVuSans-46"/>
      <use x="1786.328125" xlink:href="#DejaVuSans-41"/>
      <use x="1825.341797" xlink:href="#DejaVuSans-32"/>
      <use x="1857.128906" xlink:href="#DejaVuSans-97"/>
      <use x="1918.408203" xlink:href="#DejaVuSans-99"/>
      <use x="1973.388672" xlink:href="#DejaVuSans-117"/>
      <use x="2036.767578" xlink:href="#DejaVuSans-109"/>
      <use x="2134.179688" xlink:href="#DejaVuSans-117"/>
      <use x="2197.558594" xlink:href="#DejaVuSans-108"/>
      <use x="2225.341797" xlink:href="#DejaVuSans-97"/>
      <use x="2286.621094" xlink:href="#DejaVuSans-100"/>
      <use x="2350.097656" xlink:href="#DejaVuSans-111"/>
      <use x="2411.279297" xlink:href="#DejaVuSans-115"/>
     </g>
    </g>
   </g>
   <g id="line2d_13">
    <path clip-path="url(#p3631dc86eb)" d="M 68.01017 278.435684 
L 72.264937 278.292994 
L 76.519704 278.055178 
L 80.774471 277.531983 
L 85.029238 277.103915 
L 89.284005 276.866099 
L 93.538772 276.390467 
L 97.793539 276.152651 
L 102.048306 275.819709 
L 106.303073 275.677019 
L 110.557841 275.439203 
L 114.812608 274.868445 
L 119.067375 274.297687 
L 123.322142 273.679365 
L 127.576909 273.29886 
L 131.831676 272.918354 
L 136.086443 272.585412 
L 140.34121 271.729274 
L 144.595977 270.349942 
L 148.850744 268.82792 
L 153.105511 266.972956 
L 157.360278 265.260681 
L 161.615045 263.738659 
L 165.869812 261.312936 
L 170.124579 258.173766 
L 174.379346 254.65409 
L 178.634113 249.089197 
L 182.88888 242.905982 
L 187.143648 234.82024 
L 191.398415 225.830797 
L 195.653182 217.507239 
L 199.907949 205.568879 
L 204.162716 192.251186 
L 208.417483 180.122573 
L 212.67225 167.756144 
L 216.927017 155.91291 
L 221.181784 147.969858 
L 225.436551 141.263448 
L 229.691318 131.8935 
L 233.946085 125.139527 
L 238.200852 118.670934 
L 242.455619 113.771925 
L 246.710386 110.537628 
L 250.965153 107.683837 
L 255.21992 105.400804 
L 259.474688 103.973908 
L 263.729455 103.26046 
L 267.984222 98.409015 
L 272.238989 90.228147 
L 276.493756 83.331484 
L 280.748523 82.52291 
L 285.00329 76.815328 
L 289.258057 70.727239 
L 293.512824 67.492943 
L 297.767591 64.686715 
L 302.022358 60.834096 
L 306.277125 55.935088 
L 310.531892 52.462975 
L 314.786659 50.275068 
L 319.041426 48.420104 
L 323.296193 46.993208 
L 327.55096 45.994381 
L 331.805727 44.662612 
L 336.060495 43.093027 
L 340.315262 41.428315 
L 344.570029 40.524615 
L 348.824796 39.85873 
L 353.079563 38.622087 
L 357.33433 37.480571 
L 361.589097 36.053675 
L 365.843864 34.769469 
L 370.098631 33.4377 
L 374.353398 32.343746 
L 378.608165 31.868114 
L 382.862932 31.344919 
L 387.117699 30.060713 
L 391.372466 28.396002 
L 395.627233 26.969106 
L 399.882 25.209268 
L 404.136767 25.161705 
L 408.391535 24.923889 
L 412.646302 24.448257 
L 416.901069 23.544556 
" style="fill:none;stroke:#1f77b4;stroke-linecap:square;stroke-width:1.5;"/>
    <defs>
     <path d="M 0 1.5 
C 0.397805 1.5 0.77937 1.341951 1.06066 1.06066 
C 1.341951 0.77937 1.5 0.397805 1.5 0 
C 1.5 -0.397805 1.341951 -0.77937 1.06066 -1.06066 
C 0.77937 -1.341951 0.397805 -1.5 0 -1.5 
C -0.397805 -1.5 -0.77937 -1.341951 -1.06066 -1.06066 
C -1.341951 -0.77937 -1.5 -0.397805 -1.5 0 
C -1.5 0.397805 -1.341951 0.77937 -1.06066 1.06066 
C -0.77937 1.341951 -0.397805 1.5 0 1.5 
z
" id="mb0dc52442a" style="stroke:#1f77b4;"/>
    </defs>
    <g clip-path="url(#p3631dc86eb)">
     <use style="fill:#1f77b4;stroke:#1f77b4;" x="68.01017" xlink:href="#mb0dc52442a" y="278.435684"/>
     <use style="fill:#1f77b4;stroke:#1f77b4;" x="72.264937" xlink:href="#mb0dc52442a" y="278.292994"/>
     <use style="fill:#1f77b4;stroke:#1f77b4;" x="76.519704" xlink:href="#mb0dc52442a" y="278.055178"/>
     <use style="fill:#1f77b4;stroke:#1f77b4;" x="80.774471" xlink:href="#mb0dc52442a" y="277.531983"/>
     <use style="fill:#1f77b4;stroke:#1f77b4;" x="85.029238" xlink:href="#mb0dc52442a" y="277.103915"/>
     <use style="fill:#1f77b4;stroke:#1f77b4;" x="89.284005" xlink:href="#mb0dc52442a" y="276.866099"/>
     <use style="fill:#1f77b4;stroke:#1f77b4;" x="93.538772" xlink:href="#mb0dc52442a" y="276.390467"/>
     <use style="fill:#1f77b4;stroke:#1f77b4;" x="97.793539" xlink:href="#mb0dc52442a" y="276.152651"/>
     <use style="fill:#1f77b4;stroke:#1f77b4;" x="102.048306" xlink:href="#mb0dc52442a" y="275.819709"/>
     <use style="fill:#1f77b4;stroke:#1f77b4;" x="106.303073" xlink:href="#mb0dc52442a" y="275.677019"/>
     <use style="fill:#1f77b4;stroke:#1f77b4;" x="110.557841" xlink:href="#mb0dc52442a" y="275.439203"/>
     <use style="fill:#1f77b4;stroke:#1f77b4;" x="114.812608" xlink:href="#mb0dc52442a" y="274.868445"/>
     <use style="fill:#1f77b4;stroke:#1f77b4;" x="119.067375" xlink:href="#mb0dc52442a" y="274.297687"/>
     <use style="fill:#1f77b4;stroke:#1f77b4;" x="123.322142" xlink:href="#mb0dc52442a" y="273.679365"/>
     <use style="fill:#1f77b4;stroke:#1f77b4;" x="127.576909" xlink:href="#mb0dc52442a" y="273.29886"/>
     <use style="fill:#1f77b4;stroke:#1f77b4;" x="131.831676" xlink:href="#mb0dc52442a" y="272.918354"/>
     <use style="fill:#1f77b4;stroke:#1f77b4;" x="136.086443" xlink:href="#mb0dc52442a" y="272.585412"/>
     <use style="fill:#1f77b4;stroke:#1f77b4;" x="140.34121" xlink:href="#mb0dc52442a" y="271.729274"/>
     <use style="fill:#1f77b4;stroke:#1f77b4;" x="144.595977" xlink:href="#mb0dc52442a" y="270.349942"/>
     <use style="fill:#1f77b4;stroke:#1f77b4;" x="148.850744" xlink:href="#mb0dc52442a" y="268.82792"/>
     <use style="fill:#1f77b4;stroke:#1f77b4;" x="153.105511" xlink:href="#mb0dc52442a" y="266.972956"/>
     <use style="fill:#1f77b4;stroke:#1f77b4;" x="157.360278" xlink:href="#mb0dc52442a" y="265.260681"/>
     <use style="fill:#1f77b4;stroke:#1f77b4;" x="161.615045" xlink:href="#mb0dc52442a" y="263.738659"/>
     <use style="fill:#1f77b4;stroke:#1f77b4;" x="165.869812" xlink:href="#mb0dc52442a" y="261.312936"/>
     <use style="fill:#1f77b4;stroke:#1f77b4;" x="170.124579" xlink:href="#mb0dc52442a" y="258.173766"/>
     <use style="fill:#1f77b4;stroke:#1f77b4;" x="174.379346" xlink:href="#mb0dc52442a" y="254.65409"/>
     <use style="fill:#1f77b4;stroke:#1f77b4;" x="178.634113" xlink:href="#mb0dc52442a" y="249.089197"/>
     <use style="fill:#1f77b4;stroke:#1f77b4;" x="182.88888" xlink:href="#mb0dc52442a" y="242.905982"/>
     <use style="fill:#1f77b4;stroke:#1f77b4;" x="187.143648" xlink:href="#mb0dc52442a" y="234.82024"/>
     <use style="fill:#1f77b4;stroke:#1f77b4;" x="191.398415" xlink:href="#mb0dc52442a" y="225.830797"/>
     <use style="fill:#1f77b4;stroke:#1f77b4;" x="195.653182" xlink:href="#mb0dc52442a" y="217.507239"/>
     <use style="fill:#1f77b4;stroke:#1f77b4;" x="199.907949" xlink:href="#mb0dc52442a" y="205.568879"/>
     <use style="fill:#1f77b4;stroke:#1f77b4;" x="204.162716" xlink:href="#mb0dc52442a" y="192.251186"/>
     <use style="fill:#1f77b4;stroke:#1f77b4;" x="208.417483" xlink:href="#mb0dc52442a" y="180.122573"/>
     <use style="fill:#1f77b4;stroke:#1f77b4;" x="212.67225" xlink:href="#mb0dc52442a" y="167.756144"/>
     <use style="fill:#1f77b4;stroke:#1f77b4;" x="216.927017" xlink:href="#mb0dc52442a" y="155.91291"/>
     <use style="fill:#1f77b4;stroke:#1f77b4;" x="221.181784" xlink:href="#mb0dc52442a" y="147.969858"/>
     <use style="fill:#1f77b4;stroke:#1f77b4;" x="225.436551" xlink:href="#mb0dc52442a" y="141.263448"/>
     <use style="fill:#1f77b4;stroke:#1f77b4;" x="229.691318" xlink:href="#mb0dc52442a" y="131.8935"/>
     <use style="fill:#1f77b4;stroke:#1f77b4;" x="233.946085" xlink:href="#mb0dc52442a" y="125.139527"/>
     <use style="fill:#1f77b4;stroke:#1f77b4;" x="238.200852" xlink:href="#mb0dc52442a" y="118.670934"/>
     <use style="fill:#1f77b4;stroke:#1f77b4;" x="242.455619" xlink:href="#mb0dc52442a" y="113.771925"/>
     <use style="fill:#1f77b4;stroke:#1f77b4;" x="246.710386" xlink:href="#mb0dc52442a" y="110.537628"/>
     <use style="fill:#1f77b4;stroke:#1f77b4;" x="250.965153" xlink:href="#mb0dc52442a" y="107.683837"/>
     <use style="fill:#1f77b4;stroke:#1f77b4;" x="255.21992" xlink:href="#mb0dc52442a" y="105.400804"/>
     <use style="fill:#1f77b4;stroke:#1f77b4;" x="259.474688" xlink:href="#mb0dc52442a" y="103.973908"/>
     <use style="fill:#1f77b4;stroke:#1f77b4;" x="263.729455" xlink:href="#mb0dc52442a" y="103.26046"/>
     <use style="fill:#1f77b4;stroke:#1f77b4;" x="267.984222" xlink:href="#mb0dc52442a" y="98.409015"/>
     <use style="fill:#1f77b4;stroke:#1f77b4;" x="272.238989" xlink:href="#mb0dc52442a" y="90.228147"/>
     <use style="fill:#1f77b4;stroke:#1f77b4;" x="276.493756" xlink:href="#mb0dc52442a" y="83.331484"/>
     <use style="fill:#1f77b4;stroke:#1f77b4;" x="280.748523" xlink:href="#mb0dc52442a" y="82.52291"/>
     <use style="fill:#1f77b4;stroke:#1f77b4;" x="285.00329" xlink:href="#mb0dc52442a" y="76.815328"/>
     <use style="fill:#1f77b4;stroke:#1f77b4;" x="289.258057" xlink:href="#mb0dc52442a" y="70.727239"/>
     <use style="fill:#1f77b4;stroke:#1f77b4;" x="293.512824" xlink:href="#mb0dc52442a" y="67.492943"/>
     <use style="fill:#1f77b4;stroke:#1f77b4;" x="297.767591" xlink:href="#mb0dc52442a" y="64.686715"/>
     <use style="fill:#1f77b4;stroke:#1f77b4;" x="302.022358" xlink:href="#mb0dc52442a" y="60.834096"/>
     <use style="fill:#1f77b4;stroke:#1f77b4;" x="306.277125" xlink:href="#mb0dc52442a" y="55.935088"/>
     <use style="fill:#1f77b4;stroke:#1f77b4;" x="310.531892" xlink:href="#mb0dc52442a" y="52.462975"/>
     <use style="fill:#1f77b4;stroke:#1f77b4;" x="314.786659" xlink:href="#mb0dc52442a" y="50.275068"/>
     <use style="fill:#1f77b4;stroke:#1f77b4;" x="319.041426" xlink:href="#mb0dc52442a" y="48.420104"/>
     <use style="fill:#1f77b4;stroke:#1f77b4;" x="323.296193" xlink:href="#mb0dc52442a" y="46.993208"/>
     <use style="fill:#1f77b4;stroke:#1f77b4;" x="327.55096" xlink:href="#mb0dc52442a" y="45.994381"/>
     <use style="fill:#1f77b4;stroke:#1f77b4;" x="331.805727" xlink:href="#mb0dc52442a" y="44.662612"/>
     <use style="fill:#1f77b4;stroke:#1f77b4;" x="336.060495" xlink:href="#mb0dc52442a" y="43.093027"/>
     <use style="fill:#1f77b4;stroke:#1f77b4;" x="340.315262" xlink:href="#mb0dc52442a" y="41.428315"/>
     <use style="fill:#1f77b4;stroke:#1f77b4;" x="344.570029" xlink:href="#mb0dc52442a" y="40.524615"/>
     <use style="fill:#1f77b4;stroke:#1f77b4;" x="348.824796" xlink:href="#mb0dc52442a" y="39.85873"/>
     <use style="fill:#1f77b4;stroke:#1f77b4;" x="353.079563" xlink:href="#mb0dc52442a" y="38.622087"/>
     <use style="fill:#1f77b4;stroke:#1f77b4;" x="357.33433" xlink:href="#mb0dc52442a" y="37.480571"/>
     <use style="fill:#1f77b4;stroke:#1f77b4;" x="361.589097" xlink:href="#mb0dc52442a" y="36.053675"/>
     <use style="fill:#1f77b4;stroke:#1f77b4;" x="365.843864" xlink:href="#mb0dc52442a" y="34.769469"/>
     <use style="fill:#1f77b4;stroke:#1f77b4;" x="370.098631" xlink:href="#mb0dc52442a" y="33.4377"/>
     <use style="fill:#1f77b4;stroke:#1f77b4;" x="374.353398" xlink:href="#mb0dc52442a" y="32.343746"/>
     <use style="fill:#1f77b4;stroke:#1f77b4;" x="378.608165" xlink:href="#mb0dc52442a" y="31.868114"/>
     <use style="fill:#1f77b4;stroke:#1f77b4;" x="382.862932" xlink:href="#mb0dc52442a" y="31.344919"/>
     <use style="fill:#1f77b4;stroke:#1f77b4;" x="387.117699" xlink:href="#mb0dc52442a" y="30.060713"/>
     <use style="fill:#1f77b4;stroke:#1f77b4;" x="391.372466" xlink:href="#mb0dc52442a" y="28.396002"/>
     <use style="fill:#1f77b4;stroke:#1f77b4;" x="395.627233" xlink:href="#mb0dc52442a" y="26.969106"/>
     <use style="fill:#1f77b4;stroke:#1f77b4;" x="399.882" xlink:href="#mb0dc52442a" y="25.209268"/>
     <use style="fill:#1f77b4;stroke:#1f77b4;" x="404.136767" xlink:href="#mb0dc52442a" y="25.161705"/>
     <use style="fill:#1f77b4;stroke:#1f77b4;" x="408.391535" xlink:href="#mb0dc52442a" y="24.923889"/>
     <use style="fill:#1f77b4;stroke:#1f77b4;" x="412.646302" xlink:href="#mb0dc52442a" y="24.448257"/>
     <use style="fill:#1f77b4;stroke:#1f77b4;" x="416.901069" xlink:href="#mb0dc52442a" y="23.544556"/>
    </g>
   </g>
   <g id="patch_3">
    <path d="M 50.565625 279.86258 
L 50.565625 10.8 
" style="fill:none;stroke:#000000;stroke-linecap:square;stroke-linejoin:miter;stroke-width:0.8;"/>
   </g>
   <g id="patch_4">
    <path d="M 434.345614 279.86258 
L 434.345614 10.8 
" style="fill:none;stroke:#000000;stroke-linecap:square;stroke-linejoin:miter;stroke-width:0.8;"/>
   </g>
   <g id="patch_5">
    <path d="M 50.565625 279.86258 
L 434.345614 279.86258 
" style="fill:none;stroke:#000000;stroke-linecap:square;stroke-linejoin:miter;stroke-width:0.8;"/>
   </g>
   <g id="patch_6">
    <path d="M 50.565625 10.8 
L 434.345614 10.8 
" style="fill:none;stroke:#000000;stroke-linecap:square;stroke-linejoin:miter;stroke-width:0.8;"/>
   </g>
  </g>
 </g>
 <defs>
  <clipPath id="p3631dc86eb">
   <rect height="269.06258" width="383.779989" x="50.565625" y="10.8"/>
  </clipPath>
 </defs>
</svg>
