<?xml version="1.0" encoding="utf-8" standalone="no"?>
<!DOCTYPE svg PUBLIC "-//W3C//DTD SVG 1.1//EN"
  "http://www.w3.org/Graphics/SVG/1.1/DTD/svg11.dtd">
<!-- Created with matplotlib (https://matplotlib.org/) -->
<svg height="345.6pt" version="1.1" viewBox="0 0 460.8 345.6" width="460.8pt" xmlns="http://www.w3.org/2000/svg" xmlns:xlink="http://www.w3.org/1999/xlink">
 <defs>
  <style type="text/css">
*{stroke-linecap:butt;stroke-linejoin:round;}
  </style>
 </defs>
 <g id="figure_1">
  <g id="patch_1">
   <path d="M 0 345.6 
L 460.8 345.6 
L 460.8 0 
L 0 0 
z
" style="fill:#ffffff;"/>
  </g>
  <g id="axes_1">
   <g id="patch_2">
    <path d="M 44.603125 279.86258 
L 449.993887 279.86258 
L 449.993887 10.8 
L 44.603125 10.8 
z
" style="fill:#ffffff;"/>
   </g>
   <g id="matplotlib.axis_1">
    <g id="xtick_1">
     <g id="line2d_1">
      <defs>
       <path d="M 0 0 
L 0 3.5 
" id="mb9eb3064bf" style="stroke:#000000;stroke-width:0.8;"/>
      </defs>
      <g>
       <use style="stroke:#000000;stroke-width:0.8;" x="93.741399" xlink:href="#mb9eb3064bf" y="279.86258"/>
      </g>
     </g>
     <g id="text_1">
      <!-- 2020-03-01 -->
      <defs>
       <path d="M 19.1875 8.296875 
L 53.609375 8.296875 
L 53.609375 0 
L 7.328125 0 
L 7.328125 8.296875 
Q 12.9375 14.109375 22.625 23.890625 
Q 32.328125 33.6875 34.8125 36.53125 
Q 39.546875 41.84375 41.421875 45.53125 
Q 43.3125 49.21875 43.3125 52.78125 
Q 43.3125 58.59375 39.234375 62.25 
Q 35.15625 65.921875 28.609375 65.921875 
Q 23.96875 65.921875 18.8125 64.3125 
Q 13.671875 62.703125 7.8125 59.421875 
L 7.8125 69.390625 
Q 13.765625 71.78125 18.9375 73 
Q 24.125 74.21875 28.421875 74.21875 
Q 39.75 74.21875 46.484375 68.546875 
Q 53.21875 62.890625 53.21875 53.421875 
Q 53.21875 48.921875 51.53125 44.890625 
Q 49.859375 40.875 45.40625 35.40625 
Q 44.1875 33.984375 37.640625 27.21875 
Q 31.109375 20.453125 19.1875 8.296875 
z
" id="DejaVuSans-50"/>
       <path d="M 31.78125 66.40625 
Q 24.171875 66.40625 20.328125 58.90625 
Q 16.5 51.421875 16.5 36.375 
Q 16.5 21.390625 20.328125 13.890625 
Q 24.171875 6.390625 31.78125 6.390625 
Q 39.453125 6.390625 43.28125 13.890625 
Q 47.125 21.390625 47.125 36.375 
Q 47.125 51.421875 43.28125 58.90625 
Q 39.453125 66.40625 31.78125 66.40625 
z
M 31.78125 74.21875 
Q 44.046875 74.21875 50.515625 64.515625 
Q 56.984375 54.828125 56.984375 36.375 
Q 56.984375 17.96875 50.515625 8.265625 
Q 44.046875 -1.421875 31.78125 -1.421875 
Q 19.53125 -1.421875 13.0625 8.265625 
Q 6.59375 17.96875 6.59375 36.375 
Q 6.59375 54.828125 13.0625 64.515625 
Q 19.53125 74.21875 31.78125 74.21875 
z
" id="DejaVuSans-48"/>
       <path d="M 4.890625 31.390625 
L 31.203125 31.390625 
L 31.203125 23.390625 
L 4.890625 23.390625 
z
" id="DejaVuSans-45"/>
       <path d="M 40.578125 39.3125 
Q 47.65625 37.796875 51.625 33 
Q 55.609375 28.21875 55.609375 21.1875 
Q 55.609375 10.40625 48.1875 4.484375 
Q 40.765625 -1.421875 27.09375 -1.421875 
Q 22.515625 -1.421875 17.65625 -0.515625 
Q 12.796875 0.390625 7.625 2.203125 
L 7.625 11.71875 
Q 11.71875 9.328125 16.59375 8.109375 
Q 21.484375 6.890625 26.8125 6.890625 
Q 36.078125 6.890625 40.9375 10.546875 
Q 45.796875 14.203125 45.796875 21.1875 
Q 45.796875 27.640625 41.28125 31.265625 
Q 36.765625 34.90625 28.71875 34.90625 
L 20.21875 34.90625 
L 20.21875 43.015625 
L 29.109375 43.015625 
Q 36.375 43.015625 40.234375 45.921875 
Q 44.09375 48.828125 44.09375 54.296875 
Q 44.09375 59.90625 40.109375 62.90625 
Q 36.140625 65.921875 28.71875 65.921875 
Q 24.65625 65.921875 20.015625 65.03125 
Q 15.375 64.15625 9.8125 62.3125 
L 9.8125 71.09375 
Q 15.4375 72.65625 20.34375 73.4375 
Q 25.25 74.21875 29.59375 74.21875 
Q 40.828125 74.21875 47.359375 69.109375 
Q 53.90625 64.015625 53.90625 55.328125 
Q 53.90625 49.265625 50.4375 45.09375 
Q 46.96875 40.921875 40.578125 39.3125 
z
" id="DejaVuSans-51"/>
       <path d="M 12.40625 8.296875 
L 28.515625 8.296875 
L 28.515625 63.921875 
L 10.984375 60.40625 
L 10.984375 69.390625 
L 28.421875 72.90625 
L 38.28125 72.90625 
L 38.28125 8.296875 
L 54.390625 8.296875 
L 54.390625 0 
L 12.40625 0 
z
" id="DejaVuSans-49"/>
      </defs>
      <g transform="translate(75.145596 333.329439)rotate(-45)scale(0.1 -0.1)">
       <use xlink:href="#DejaVuSans-50"/>
       <use x="63.623047" xlink:href="#DejaVuSans-48"/>
       <use x="127.246094" xlink:href="#DejaVuSans-50"/>
       <use x="190.869141" xlink:href="#DejaVuSans-48"/>
       <use x="254.492188" xlink:href="#DejaVuSans-45"/>
       <use x="290.576172" xlink:href="#DejaVuSans-48"/>
       <use x="354.199219" xlink:href="#DejaVuSans-51"/>
       <use x="417.822266" xlink:href="#DejaVuSans-45"/>
       <use x="453.90625" xlink:href="#DejaVuSans-48"/>
       <use x="517.529297" xlink:href="#DejaVuSans-49"/>
      </g>
     </g>
    </g>
    <g id="xtick_2">
     <g id="line2d_2">
      <g>
       <use style="stroke:#000000;stroke-width:0.8;" x="155.164242" xlink:href="#mb9eb3064bf" y="279.86258"/>
      </g>
     </g>
     <g id="text_2">
      <!-- 2020-03-15 -->
      <defs>
       <path d="M 10.796875 72.90625 
L 49.515625 72.90625 
L 49.515625 64.59375 
L 19.828125 64.59375 
L 19.828125 46.734375 
Q 21.96875 47.46875 24.109375 47.828125 
Q 26.265625 48.1875 28.421875 48.1875 
Q 40.625 48.1875 47.75 41.5 
Q 54.890625 34.8125 54.890625 23.390625 
Q 54.890625 11.625 47.5625 5.09375 
Q 40.234375 -1.421875 26.90625 -1.421875 
Q 22.3125 -1.421875 17.546875 -0.640625 
Q 12.796875 0.140625 7.71875 1.703125 
L 7.71875 11.625 
Q 12.109375 9.234375 16.796875 8.0625 
Q 21.484375 6.890625 26.703125 6.890625 
Q 35.15625 6.890625 40.078125 11.328125 
Q 45.015625 15.765625 45.015625 23.390625 
Q 45.015625 31 40.078125 35.4375 
Q 35.15625 39.890625 26.703125 39.890625 
Q 22.75 39.890625 18.8125 39.015625 
Q 14.890625 38.140625 10.796875 36.28125 
z
" id="DejaVuSans-53"/>
      </defs>
      <g transform="translate(136.568438 333.329439)rotate(-45)scale(0.1 -0.1)">
       <use xlink:href="#DejaVuSans-50"/>
       <use x="63.623047" xlink:href="#DejaVuSans-48"/>
       <use x="127.246094" xlink:href="#DejaVuSans-50"/>
       <use x="190.869141" xlink:href="#DejaVuSans-48"/>
       <use x="254.492188" xlink:href="#DejaVuSans-45"/>
       <use x="290.576172" xlink:href="#DejaVuSans-48"/>
       <use x="354.199219" xlink:href="#DejaVuSans-51"/>
       <use x="417.822266" xlink:href="#DejaVuSans-45"/>
       <use x="453.90625" xlink:href="#DejaVuSans-49"/>
       <use x="517.529297" xlink:href="#DejaVuSans-53"/>
      </g>
     </g>
    </g>
    <g id="xtick_3">
     <g id="line2d_3">
      <g>
       <use style="stroke:#000000;stroke-width:0.8;" x="229.749122" xlink:href="#mb9eb3064bf" y="279.86258"/>
      </g>
     </g>
     <g id="text_3">
      <!-- 2020-04-01 -->
      <defs>
       <path d="M 37.796875 64.3125 
L 12.890625 25.390625 
L 37.796875 25.390625 
z
M 35.203125 72.90625 
L 47.609375 72.90625 
L 47.609375 25.390625 
L 58.015625 25.390625 
L 58.015625 17.1875 
L 47.609375 17.1875 
L 47.609375 0 
L 37.796875 0 
L 37.796875 17.1875 
L 4.890625 17.1875 
L 4.890625 26.703125 
z
" id="DejaVuSans-52"/>
      </defs>
      <g transform="translate(211.153319 333.329439)rotate(-45)scale(0.1 -0.1)">
       <use xlink:href="#DejaVuSans-50"/>
       <use x="63.623047" xlink:href="#DejaVuSans-48"/>
       <use x="127.246094" xlink:href="#DejaVuSans-50"/>
       <use x="190.869141" xlink:href="#DejaVuSans-48"/>
       <use x="254.492188" xlink:href="#DejaVuSans-45"/>
       <use x="290.576172" xlink:href="#DejaVuSans-48"/>
       <use x="354.199219" xlink:href="#DejaVuSans-52"/>
       <use x="417.822266" xlink:href="#DejaVuSans-45"/>
       <use x="453.90625" xlink:href="#DejaVuSans-48"/>
       <use x="517.529297" xlink:href="#DejaVuSans-49"/>
      </g>
     </g>
    </g>
    <g id="xtick_4">
     <g id="line2d_4">
      <g>
       <use style="stroke:#000000;stroke-width:0.8;" x="291.171965" xlink:href="#mb9eb3064bf" y="279.86258"/>
      </g>
     </g>
     <g id="text_4">
      <!-- 2020-04-15 -->
      <g transform="translate(272.576162 333.329439)rotate(-45)scale(0.1 -0.1)">
       <use xlink:href="#DejaVuSans-50"/>
       <use x="63.623047" xlink:href="#DejaVuSans-48"/>
       <use x="127.246094" xlink:href="#DejaVuSans-50"/>
       <use x="190.869141" xlink:href="#DejaVuSans-48"/>
       <use x="254.492188" xlink:href="#DejaVuSans-45"/>
       <use x="290.576172" xlink:href="#DejaVuSans-48"/>
       <use x="354.199219" xlink:href="#DejaVuSans-52"/>
       <use x="417.822266" xlink:href="#DejaVuSans-45"/>
       <use x="453.90625" xlink:href="#DejaVuSans-49"/>
       <use x="517.529297" xlink:href="#DejaVuSans-53"/>
      </g>
     </g>
    </g>
    <g id="xtick_5">
     <g id="line2d_5">
      <g>
       <use style="stroke:#000000;stroke-width:0.8;" x="361.3695" xlink:href="#mb9eb3064bf" y="279.86258"/>
      </g>
     </g>
     <g id="text_5">
      <!-- 2020-05-01 -->
      <g transform="translate(342.773696 333.329439)rotate(-45)scale(0.1 -0.1)">
       <use xlink:href="#DejaVuSans-50"/>
       <use x="63.623047" xlink:href="#DejaVuSans-48"/>
       <use x="127.246094" xlink:href="#DejaVuSans-50"/>
       <use x="190.869141" xlink:href="#DejaVuSans-48"/>
       <use x="254.492188" xlink:href="#DejaVuSans-45"/>
       <use x="290.576172" xlink:href="#DejaVuSans-48"/>
       <use x="354.199219" xlink:href="#DejaVuSans-53"/>
       <use x="417.822266" xlink:href="#DejaVuSans-45"/>
       <use x="453.90625" xlink:href="#DejaVuSans-48"/>
       <use x="517.529297" xlink:href="#DejaVuSans-49"/>
      </g>
     </g>
    </g>
    <g id="xtick_6">
     <g id="line2d_6">
      <g>
       <use style="stroke:#000000;stroke-width:0.8;" x="422.792343" xlink:href="#mb9eb3064bf" y="279.86258"/>
      </g>
     </g>
     <g id="text_6">
      <!-- 2020-05-15 -->
      <g transform="translate(404.196539 333.329439)rotate(-45)scale(0.1 -0.1)">
       <use xlink:href="#DejaVuSans-50"/>
       <use x="63.623047" xlink:href="#DejaVuSans-48"/>
       <use x="127.246094" xlink:href="#DejaVuSans-50"/>
       <use x="190.869141" xlink:href="#DejaVuSans-48"/>
       <use x="254.492188" xlink:href="#DejaVuSans-45"/>
       <use x="290.576172" xlink:href="#DejaVuSans-48"/>
       <use x="354.199219" xlink:href="#DejaVuSans-53"/>
       <use x="417.822266" xlink:href="#DejaVuSans-45"/>
       <use x="453.90625" xlink:href="#DejaVuSans-49"/>
       <use x="517.529297" xlink:href="#DejaVuSans-53"/>
      </g>
     </g>
    </g>
   </g>
   <g id="matplotlib.axis_2">
    <g id="ytick_1">
     <g id="line2d_7">
      <defs>
       <path d="M 0 0 
L -3.5 0 
" id="m85becf7f7f" style="stroke:#000000;stroke-width:0.8;"/>
      </defs>
      <g>
       <use style="stroke:#000000;stroke-width:0.8;" x="44.603125" xlink:href="#m85becf7f7f" y="279.86258"/>
      </g>
     </g>
     <g id="text_7">
      <!-- 0 -->
      <g transform="translate(31.240625 283.661798)scale(0.1 -0.1)">
       <use xlink:href="#DejaVuSans-48"/>
      </g>
     </g>
    </g>
    <g id="ytick_2">
     <g id="line2d_8">
      <g>
       <use style="stroke:#000000;stroke-width:0.8;" x="44.603125" xlink:href="#m85becf7f7f" y="221.843695"/>
      </g>
     </g>
     <g id="text_8">
      <!-- 20 -->
      <g transform="translate(24.878125 225.642913)scale(0.1 -0.1)">
       <use xlink:href="#DejaVuSans-50"/>
       <use x="63.623047" xlink:href="#DejaVuSans-48"/>
      </g>
     </g>
    </g>
    <g id="ytick_3">
     <g id="line2d_9">
      <g>
       <use style="stroke:#000000;stroke-width:0.8;" x="44.603125" xlink:href="#m85becf7f7f" y="163.824809"/>
      </g>
     </g>
     <g id="text_9">
      <!-- 40 -->
      <g transform="translate(24.878125 167.624028)scale(0.1 -0.1)">
       <use xlink:href="#DejaVuSans-52"/>
       <use x="63.623047" xlink:href="#DejaVuSans-48"/>
      </g>
     </g>
    </g>
    <g id="ytick_4">
     <g id="line2d_10">
      <g>
       <use style="stroke:#000000;stroke-width:0.8;" x="44.603125" xlink:href="#m85becf7f7f" y="105.805924"/>
      </g>
     </g>
     <g id="text_10">
      <!-- 60 -->
      <defs>
       <path d="M 33.015625 40.375 
Q 26.375 40.375 22.484375 35.828125 
Q 18.609375 31.296875 18.609375 23.390625 
Q 18.609375 15.53125 22.484375 10.953125 
Q 26.375 6.390625 33.015625 6.390625 
Q 39.65625 6.390625 43.53125 10.953125 
Q 47.40625 15.53125 47.40625 23.390625 
Q 47.40625 31.296875 43.53125 35.828125 
Q 39.65625 40.375 33.015625 40.375 
z
M 52.59375 71.296875 
L 52.59375 62.3125 
Q 48.875 64.0625 45.09375 64.984375 
Q 41.3125 65.921875 37.59375 65.921875 
Q 27.828125 65.921875 22.671875 59.328125 
Q 17.53125 52.734375 16.796875 39.40625 
Q 19.671875 43.65625 24.015625 45.921875 
Q 28.375 48.1875 33.59375 48.1875 
Q 44.578125 48.1875 50.953125 41.515625 
Q 57.328125 34.859375 57.328125 23.390625 
Q 57.328125 12.15625 50.6875 5.359375 
Q 44.046875 -1.421875 33.015625 -1.421875 
Q 20.359375 -1.421875 13.671875 8.265625 
Q 6.984375 17.96875 6.984375 36.375 
Q 6.984375 53.65625 15.1875 63.9375 
Q 23.390625 74.21875 37.203125 74.21875 
Q 40.921875 74.21875 44.703125 73.484375 
Q 48.484375 72.75 52.59375 71.296875 
z
" id="DejaVuSans-54"/>
      </defs>
      <g transform="translate(24.878125 109.605143)scale(0.1 -0.1)">
       <use xlink:href="#DejaVuSans-54"/>
       <use x="63.623047" xlink:href="#DejaVuSans-48"/>
      </g>
     </g>
    </g>
    <g id="ytick_5">
     <g id="line2d_11">
      <g>
       <use style="stroke:#000000;stroke-width:0.8;" x="44.603125" xlink:href="#m85becf7f7f" y="47.787039"/>
      </g>
     </g>
     <g id="text_11">
      <!-- 80 -->
      <defs>
       <path d="M 31.78125 34.625 
Q 24.75 34.625 20.71875 30.859375 
Q 16.703125 27.09375 16.703125 20.515625 
Q 16.703125 13.921875 20.71875 10.15625 
Q 24.75 6.390625 31.78125 6.390625 
Q 38.8125 6.390625 42.859375 10.171875 
Q 46.921875 13.96875 46.921875 20.515625 
Q 46.921875 27.09375 42.890625 30.859375 
Q 38.875 34.625 31.78125 34.625 
z
M 21.921875 38.8125 
Q 15.578125 40.375 12.03125 44.71875 
Q 8.5 49.078125 8.5 55.328125 
Q 8.5 64.0625 14.71875 69.140625 
Q 20.953125 74.21875 31.78125 74.21875 
Q 42.671875 74.21875 48.875 69.140625 
Q 55.078125 64.0625 55.078125 55.328125 
Q 55.078125 49.078125 51.53125 44.71875 
Q 48 40.375 41.703125 38.8125 
Q 48.828125 37.15625 52.796875 32.3125 
Q 56.78125 27.484375 56.78125 20.515625 
Q 56.78125 9.90625 50.3125 4.234375 
Q 43.84375 -1.421875 31.78125 -1.421875 
Q 19.734375 -1.421875 13.25 4.234375 
Q 6.78125 9.90625 6.78125 20.515625 
Q 6.78125 27.484375 10.78125 32.3125 
Q 14.796875 37.15625 21.921875 38.8125 
z
M 18.3125 54.390625 
Q 18.3125 48.734375 21.84375 45.5625 
Q 25.390625 42.390625 31.78125 42.390625 
Q 38.140625 42.390625 41.71875 45.5625 
Q 45.3125 48.734375 45.3125 54.390625 
Q 45.3125 60.0625 41.71875 63.234375 
Q 38.140625 66.40625 31.78125 66.40625 
Q 25.390625 66.40625 21.84375 63.234375 
Q 18.3125 60.0625 18.3125 54.390625 
z
" id="DejaVuSans-56"/>
      </defs>
      <g transform="translate(24.878125 51.586258)scale(0.1 -0.1)">
       <use xlink:href="#DejaVuSans-56"/>
       <use x="63.623047" xlink:href="#DejaVuSans-48"/>
      </g>
     </g>
    </g>
    <g id="text_12">
     <!-- AS pcr (Media 3 días) -->
     <defs>
      <path d="M 34.1875 63.1875 
L 20.796875 26.90625 
L 47.609375 26.90625 
z
M 28.609375 72.90625 
L 39.796875 72.90625 
L 67.578125 0 
L 57.328125 0 
L 50.6875 18.703125 
L 17.828125 18.703125 
L 11.1875 0 
L 0.78125 0 
z
" id="DejaVuSans-65"/>
      <path d="M 53.515625 70.515625 
L 53.515625 60.890625 
Q 47.90625 63.578125 42.921875 64.890625 
Q 37.9375 66.21875 33.296875 66.21875 
Q 25.25 66.21875 20.875 63.09375 
Q 16.5 59.96875 16.5 54.203125 
Q 16.5 49.359375 19.40625 46.890625 
Q 22.3125 44.4375 30.421875 42.921875 
L 36.375 41.703125 
Q 47.40625 39.59375 52.65625 34.296875 
Q 57.90625 29 57.90625 20.125 
Q 57.90625 9.515625 50.796875 4.046875 
Q 43.703125 -1.421875 29.984375 -1.421875 
Q 24.8125 -1.421875 18.96875 -0.25 
Q 13.140625 0.921875 6.890625 3.21875 
L 6.890625 13.375 
Q 12.890625 10.015625 18.65625 8.296875 
Q 24.421875 6.59375 29.984375 6.59375 
Q 38.421875 6.59375 43.015625 9.90625 
Q 47.609375 13.234375 47.609375 19.390625 
Q 47.609375 24.75 44.3125 27.78125 
Q 41.015625 30.8125 33.5 32.328125 
L 27.484375 33.5 
Q 16.453125 35.6875 11.515625 40.375 
Q 6.59375 45.0625 6.59375 53.421875 
Q 6.59375 63.09375 13.40625 68.65625 
Q 20.21875 74.21875 32.171875 74.21875 
Q 37.3125 74.21875 42.625 73.28125 
Q 47.953125 72.359375 53.515625 70.515625 
z
" id="DejaVuSans-83"/>
      <path id="DejaVuSans-32"/>
      <path d="M 18.109375 8.203125 
L 18.109375 -20.796875 
L 9.078125 -20.796875 
L 9.078125 54.6875 
L 18.109375 54.6875 
L 18.109375 46.390625 
Q 20.953125 51.265625 25.265625 53.625 
Q 29.59375 56 35.59375 56 
Q 45.5625 56 51.78125 48.09375 
Q 58.015625 40.1875 58.015625 27.296875 
Q 58.015625 14.40625 51.78125 6.484375 
Q 45.5625 -1.421875 35.59375 -1.421875 
Q 29.59375 -1.421875 25.265625 0.953125 
Q 20.953125 3.328125 18.109375 8.203125 
z
M 48.6875 27.296875 
Q 48.6875 37.203125 44.609375 42.84375 
Q 40.53125 48.484375 33.40625 48.484375 
Q 26.265625 48.484375 22.1875 42.84375 
Q 18.109375 37.203125 18.109375 27.296875 
Q 18.109375 17.390625 22.1875 11.75 
Q 26.265625 6.109375 33.40625 6.109375 
Q 40.53125 6.109375 44.609375 11.75 
Q 48.6875 17.390625 48.6875 27.296875 
z
" id="DejaVuSans-112"/>
      <path d="M 48.78125 52.59375 
L 48.78125 44.1875 
Q 44.96875 46.296875 41.140625 47.34375 
Q 37.3125 48.390625 33.40625 48.390625 
Q 24.65625 48.390625 19.8125 42.84375 
Q 14.984375 37.3125 14.984375 27.296875 
Q 14.984375 17.28125 19.8125 11.734375 
Q 24.65625 6.203125 33.40625 6.203125 
Q 37.3125 6.203125 41.140625 7.25 
Q 44.96875 8.296875 48.78125 10.40625 
L 48.78125 2.09375 
Q 45.015625 0.34375 40.984375 -0.53125 
Q 36.96875 -1.421875 32.421875 -1.421875 
Q 20.0625 -1.421875 12.78125 6.34375 
Q 5.515625 14.109375 5.515625 27.296875 
Q 5.515625 40.671875 12.859375 48.328125 
Q 20.21875 56 33.015625 56 
Q 37.15625 56 41.109375 55.140625 
Q 45.0625 54.296875 48.78125 52.59375 
z
" id="DejaVuSans-99"/>
      <path d="M 41.109375 46.296875 
Q 39.59375 47.171875 37.8125 47.578125 
Q 36.03125 48 33.890625 48 
Q 26.265625 48 22.1875 43.046875 
Q 18.109375 38.09375 18.109375 28.8125 
L 18.109375 0 
L 9.078125 0 
L 9.078125 54.6875 
L 18.109375 54.6875 
L 18.109375 46.1875 
Q 20.953125 51.171875 25.484375 53.578125 
Q 30.03125 56 36.53125 56 
Q 37.453125 56 38.578125 55.875 
Q 39.703125 55.765625 41.0625 55.515625 
z
" id="DejaVuSans-114"/>
      <path d="M 31 75.875 
Q 24.46875 64.65625 21.28125 53.65625 
Q 18.109375 42.671875 18.109375 31.390625 
Q 18.109375 20.125 21.3125 9.0625 
Q 24.515625 -2 31 -13.1875 
L 23.1875 -13.1875 
Q 15.875 -1.703125 12.234375 9.375 
Q 8.59375 20.453125 8.59375 31.390625 
Q 8.59375 42.28125 12.203125 53.3125 
Q 15.828125 64.359375 23.1875 75.875 
z
" id="DejaVuSans-40"/>
      <path d="M 9.8125 72.90625 
L 24.515625 72.90625 
L 43.109375 23.296875 
L 61.8125 72.90625 
L 76.515625 72.90625 
L 76.515625 0 
L 66.890625 0 
L 66.890625 64.015625 
L 48.09375 14.015625 
L 38.1875 14.015625 
L 19.390625 64.015625 
L 19.390625 0 
L 9.8125 0 
z
" id="DejaVuSans-77"/>
      <path d="M 56.203125 29.59375 
L 56.203125 25.203125 
L 14.890625 25.203125 
Q 15.484375 15.921875 20.484375 11.0625 
Q 25.484375 6.203125 34.421875 6.203125 
Q 39.59375 6.203125 44.453125 7.46875 
Q 49.3125 8.734375 54.109375 11.28125 
L 54.109375 2.78125 
Q 49.265625 0.734375 44.1875 -0.34375 
Q 39.109375 -1.421875 33.890625 -1.421875 
Q 20.796875 -1.421875 13.15625 6.1875 
Q 5.515625 13.8125 5.515625 26.8125 
Q 5.515625 40.234375 12.765625 48.109375 
Q 20.015625 56 32.328125 56 
Q 43.359375 56 49.78125 48.890625 
Q 56.203125 41.796875 56.203125 29.59375 
z
M 47.21875 32.234375 
Q 47.125 39.59375 43.09375 43.984375 
Q 39.0625 48.390625 32.421875 48.390625 
Q 24.90625 48.390625 20.390625 44.140625 
Q 15.875 39.890625 15.1875 32.171875 
z
" id="DejaVuSans-101"/>
      <path d="M 45.40625 46.390625 
L 45.40625 75.984375 
L 54.390625 75.984375 
L 54.390625 0 
L 45.40625 0 
L 45.40625 8.203125 
Q 42.578125 3.328125 38.25 0.953125 
Q 33.9375 -1.421875 27.875 -1.421875 
Q 17.96875 -1.421875 11.734375 6.484375 
Q 5.515625 14.40625 5.515625 27.296875 
Q 5.515625 40.1875 11.734375 48.09375 
Q 17.96875 56 27.875 56 
Q 33.9375 56 38.25 53.625 
Q 42.578125 51.265625 45.40625 46.390625 
z
M 14.796875 27.296875 
Q 14.796875 17.390625 18.875 11.75 
Q 22.953125 6.109375 30.078125 6.109375 
Q 37.203125 6.109375 41.296875 11.75 
Q 45.40625 17.390625 45.40625 27.296875 
Q 45.40625 37.203125 41.296875 42.84375 
Q 37.203125 48.484375 30.078125 48.484375 
Q 22.953125 48.484375 18.875 42.84375 
Q 14.796875 37.203125 14.796875 27.296875 
z
" id="DejaVuSans-100"/>
      <path d="M 9.421875 54.6875 
L 18.40625 54.6875 
L 18.40625 0 
L 9.421875 0 
z
M 9.421875 75.984375 
L 18.40625 75.984375 
L 18.40625 64.59375 
L 9.421875 64.59375 
z
" id="DejaVuSans-105"/>
      <path d="M 34.28125 27.484375 
Q 23.390625 27.484375 19.1875 25 
Q 14.984375 22.515625 14.984375 16.5 
Q 14.984375 11.71875 18.140625 8.90625 
Q 21.296875 6.109375 26.703125 6.109375 
Q 34.1875 6.109375 38.703125 11.40625 
Q 43.21875 16.703125 43.21875 25.484375 
L 43.21875 27.484375 
z
M 52.203125 31.203125 
L 52.203125 0 
L 43.21875 0 
L 43.21875 8.296875 
Q 40.140625 3.328125 35.546875 0.953125 
Q 30.953125 -1.421875 24.3125 -1.421875 
Q 15.921875 -1.421875 10.953125 3.296875 
Q 6 8.015625 6 15.921875 
Q 6 25.140625 12.171875 29.828125 
Q 18.359375 34.515625 30.609375 34.515625 
L 43.21875 34.515625 
L 43.21875 35.40625 
Q 43.21875 41.609375 39.140625 45 
Q 35.0625 48.390625 27.6875 48.390625 
Q 23 48.390625 18.546875 47.265625 
Q 14.109375 46.140625 10.015625 43.890625 
L 10.015625 52.203125 
Q 14.9375 54.109375 19.578125 55.046875 
Q 24.21875 56 28.609375 56 
Q 40.484375 56 46.34375 49.84375 
Q 52.203125 43.703125 52.203125 31.203125 
z
" id="DejaVuSans-97"/>
      <path d="M 20.65625 79.984375 
L 30.375 79.984375 
L 14.46875 61.625 
L 6.984375 61.625 
z
M 9.421875 54.6875 
L 18.40625 54.6875 
L 18.40625 0 
L 9.421875 0 
z
M 13.921875 56 
z
" id="DejaVuSans-237"/>
      <path d="M 44.28125 53.078125 
L 44.28125 44.578125 
Q 40.484375 46.53125 36.375 47.5 
Q 32.28125 48.484375 27.875 48.484375 
Q 21.1875 48.484375 17.84375 46.4375 
Q 14.5 44.390625 14.5 40.28125 
Q 14.5 37.15625 16.890625 35.375 
Q 19.28125 33.59375 26.515625 31.984375 
L 29.59375 31.296875 
Q 39.15625 29.25 43.1875 25.515625 
Q 47.21875 21.78125 47.21875 15.09375 
Q 47.21875 7.46875 41.1875 3.015625 
Q 35.15625 -1.421875 24.609375 -1.421875 
Q 20.21875 -1.421875 15.453125 -0.5625 
Q 10.6875 0.296875 5.421875 2 
L 5.421875 11.28125 
Q 10.40625 8.6875 15.234375 7.390625 
Q 20.0625 6.109375 24.8125 6.109375 
Q 31.15625 6.109375 34.5625 8.28125 
Q 37.984375 10.453125 37.984375 14.40625 
Q 37.984375 18.0625 35.515625 20.015625 
Q 33.0625 21.96875 24.703125 23.78125 
L 21.578125 24.515625 
Q 13.234375 26.265625 9.515625 29.90625 
Q 5.8125 33.546875 5.8125 39.890625 
Q 5.8125 47.609375 11.28125 51.796875 
Q 16.75 56 26.8125 56 
Q 31.78125 56 36.171875 55.265625 
Q 40.578125 54.546875 44.28125 53.078125 
z
" id="DejaVuSans-115"/>
      <path d="M 8.015625 75.875 
L 15.828125 75.875 
Q 23.140625 64.359375 26.78125 53.3125 
Q 30.421875 42.28125 30.421875 31.390625 
Q 30.421875 20.453125 26.78125 9.375 
Q 23.140625 -1.703125 15.828125 -13.1875 
L 8.015625 -13.1875 
Q 14.5 -2 17.703125 9.0625 
Q 20.90625 20.125 20.90625 31.390625 
Q 20.90625 42.671875 17.703125 53.65625 
Q 14.5 64.65625 8.015625 75.875 
z
" id="DejaVuSans-41"/>
     </defs>
     <g transform="translate(18.798437 198.59379)rotate(-90)scale(0.1 -0.1)">
      <use xlink:href="#DejaVuSans-65"/>
      <use x="68.408203" xlink:href="#DejaVuSans-83"/>
      <use x="131.884766" xlink:href="#DejaVuSans-32"/>
      <use x="163.671875" xlink:href="#DejaVuSans-112"/>
      <use x="227.148438" xlink:href="#DejaVuSans-99"/>
      <use x="282.128906" xlink:href="#DejaVuSans-114"/>
      <use x="323.242188" xlink:href="#DejaVuSans-32"/>
      <use x="355.029297" xlink:href="#DejaVuSans-40"/>
      <use x="394.042969" xlink:href="#DejaVuSans-77"/>
      <use x="480.322266" xlink:href="#DejaVuSans-101"/>
      <use x="541.845703" xlink:href="#DejaVuSans-100"/>
      <use x="605.322266" xlink:href="#DejaVuSans-105"/>
      <use x="633.105469" xlink:href="#DejaVuSans-97"/>
      <use x="694.384766" xlink:href="#DejaVuSans-32"/>
      <use x="726.171875" xlink:href="#DejaVuSans-51"/>
      <use x="789.794922" xlink:href="#DejaVuSans-32"/>
      <use x="821.582031" xlink:href="#DejaVuSans-100"/>
      <use x="885.058594" xlink:href="#DejaVuSans-237"/>
      <use x="912.841797" xlink:href="#DejaVuSans-97"/>
      <use x="974.121094" xlink:href="#DejaVuSans-115"/>
      <use x="1026.220703" xlink:href="#DejaVuSans-41"/>
     </g>
    </g>
   </g>
   <g id="line2d_12">
    <path clip-path="url(#pd21c6c8508)" d="M 63.029978 279.86258 
L 67.417324 279.86258 
L 71.80467 279.86258 
L 76.192016 279.86258 
L 80.579361 279.86258 
L 84.966707 279.86258 
L 89.354053 278.895598 
L 93.741399 278.895598 
L 98.128745 278.895598 
L 102.516091 277.928617 
L 106.903437 276.961635 
L 111.290783 275.994654 
L 115.678129 275.994654 
L 120.065475 275.994654 
L 124.452821 275.027673 
L 128.840167 266.32484 
L 133.227512 251.820119 
L 137.614858 246.01823 
L 142.002204 240.216342 
L 146.38955 218.94275 
L 150.776896 183.164438 
L 155.164242 156.088958 
L 159.551588 148.353107 
L 163.938934 149.320088 
L 168.32628 138.683293 
L 172.713626 54.555909 
L 177.100972 23.612504 
L 181.488317 35.216281 
L 185.875663 98.070073 
L 190.263009 68.093649 
L 194.650355 28.447411 
L 199.037701 31.348355 
L 203.425047 56.489872 
L 207.812393 59.390816 
L 212.199739 30.381374 
L 216.587085 32.315337 
L 220.974431 35.216281 
L 225.361777 67.126668 
L 229.749122 65.192705 
L 234.136468 83.565352 
L 238.523814 83.565352 
L 242.91116 121.277627 
L 247.298506 128.046497 
L 251.685852 164.791791 
L 256.073198 165.758772 
L 260.460544 169.626698 
L 264.84789 154.154995 
L 269.235236 143.5182 
L 273.622582 112.574794 
L 278.009927 124.178571 
L 282.397273 130.947441 
L 286.784619 158.022921 
L 291.171965 138.683293 
L 295.559311 162.857828 
L 299.946657 192.834252 
L 304.334003 227.645583 
L 308.721349 238.282379 
L 313.108695 249.886156 
L 317.496041 247.952193 
L 321.883387 251.820119 
L 326.270733 257.622007 
L 330.658078 258.588988 
L 335.045424 261.489933 
L 339.43277 263.423896 
L 343.820116 268.258803 
L 348.207462 253.754081 
L 352.594808 239.24936 
L 356.982154 242.150304 
L 361.3695 258.588988 
L 365.756846 274.060691 
L 370.144192 276.961635 
L 374.531538 275.994654 
L 378.918883 266.32484 
L 383.306229 268.258803 
L 387.693575 259.55597 
L 392.080921 264.390877 
L 396.468267 263.423896 
L 400.855613 270.192765 
L 405.242959 271.159747 
L 409.630305 267.291821 
L 414.017651 270.192765 
L 418.404997 272.126728 
L 422.792343 270.192765 
L 427.179688 270.192765 
L 431.567034 270.192765 
" style="fill:none;stroke:#1f77b4;stroke-linecap:square;stroke-width:1.5;"/>
    <defs>
     <path d="M 0 1.5 
C 0.397805 1.5 0.77937 1.341951 1.06066 1.06066 
C 1.341951 0.77937 1.5 0.397805 1.5 0 
C 1.5 -0.397805 1.341951 -0.77937 1.06066 -1.06066 
C 0.77937 -1.341951 0.397805 -1.5 0 -1.5 
C -0.397805 -1.5 -0.77937 -1.341951 -1.06066 -1.06066 
C -1.341951 -0.77937 -1.5 -0.397805 -1.5 0 
C -1.5 0.397805 -1.341951 0.77937 -1.06066 1.06066 
C -0.77937 1.341951 -0.397805 1.5 0 1.5 
z
" id="m7cb3cb2b63" style="stroke:#1f77b4;"/>
    </defs>
    <g clip-path="url(#pd21c6c8508)">
     <use style="fill:#1f77b4;stroke:#1f77b4;" x="63.029978" xlink:href="#m7cb3cb2b63" y="279.86258"/>
     <use style="fill:#1f77b4;stroke:#1f77b4;" x="67.417324" xlink:href="#m7cb3cb2b63" y="279.86258"/>
     <use style="fill:#1f77b4;stroke:#1f77b4;" x="71.80467" xlink:href="#m7cb3cb2b63" y="279.86258"/>
     <use style="fill:#1f77b4;stroke:#1f77b4;" x="76.192016" xlink:href="#m7cb3cb2b63" y="279.86258"/>
     <use style="fill:#1f77b4;stroke:#1f77b4;" x="80.579361" xlink:href="#m7cb3cb2b63" y="279.86258"/>
     <use style="fill:#1f77b4;stroke:#1f77b4;" x="84.966707" xlink:href="#m7cb3cb2b63" y="279.86258"/>
     <use style="fill:#1f77b4;stroke:#1f77b4;" x="89.354053" xlink:href="#m7cb3cb2b63" y="278.895598"/>
     <use style="fill:#1f77b4;stroke:#1f77b4;" x="93.741399" xlink:href="#m7cb3cb2b63" y="278.895598"/>
     <use style="fill:#1f77b4;stroke:#1f77b4;" x="98.128745" xlink:href="#m7cb3cb2b63" y="278.895598"/>
     <use style="fill:#1f77b4;stroke:#1f77b4;" x="102.516091" xlink:href="#m7cb3cb2b63" y="277.928617"/>
     <use style="fill:#1f77b4;stroke:#1f77b4;" x="106.903437" xlink:href="#m7cb3cb2b63" y="276.961635"/>
     <use style="fill:#1f77b4;stroke:#1f77b4;" x="111.290783" xlink:href="#m7cb3cb2b63" y="275.994654"/>
     <use style="fill:#1f77b4;stroke:#1f77b4;" x="115.678129" xlink:href="#m7cb3cb2b63" y="275.994654"/>
     <use style="fill:#1f77b4;stroke:#1f77b4;" x="120.065475" xlink:href="#m7cb3cb2b63" y="275.994654"/>
     <use style="fill:#1f77b4;stroke:#1f77b4;" x="124.452821" xlink:href="#m7cb3cb2b63" y="275.027673"/>
     <use style="fill:#1f77b4;stroke:#1f77b4;" x="128.840167" xlink:href="#m7cb3cb2b63" y="266.32484"/>
     <use style="fill:#1f77b4;stroke:#1f77b4;" x="133.227512" xlink:href="#m7cb3cb2b63" y="251.820119"/>
     <use style="fill:#1f77b4;stroke:#1f77b4;" x="137.614858" xlink:href="#m7cb3cb2b63" y="246.01823"/>
     <use style="fill:#1f77b4;stroke:#1f77b4;" x="142.002204" xlink:href="#m7cb3cb2b63" y="240.216342"/>
     <use style="fill:#1f77b4;stroke:#1f77b4;" x="146.38955" xlink:href="#m7cb3cb2b63" y="218.94275"/>
     <use style="fill:#1f77b4;stroke:#1f77b4;" x="150.776896" xlink:href="#m7cb3cb2b63" y="183.164438"/>
     <use style="fill:#1f77b4;stroke:#1f77b4;" x="155.164242" xlink:href="#m7cb3cb2b63" y="156.088958"/>
     <use style="fill:#1f77b4;stroke:#1f77b4;" x="159.551588" xlink:href="#m7cb3cb2b63" y="148.353107"/>
     <use style="fill:#1f77b4;stroke:#1f77b4;" x="163.938934" xlink:href="#m7cb3cb2b63" y="149.320088"/>
     <use style="fill:#1f77b4;stroke:#1f77b4;" x="168.32628" xlink:href="#m7cb3cb2b63" y="138.683293"/>
     <use style="fill:#1f77b4;stroke:#1f77b4;" x="172.713626" xlink:href="#m7cb3cb2b63" y="54.555909"/>
     <use style="fill:#1f77b4;stroke:#1f77b4;" x="177.100972" xlink:href="#m7cb3cb2b63" y="23.612504"/>
     <use style="fill:#1f77b4;stroke:#1f77b4;" x="181.488317" xlink:href="#m7cb3cb2b63" y="35.216281"/>
     <use style="fill:#1f77b4;stroke:#1f77b4;" x="185.875663" xlink:href="#m7cb3cb2b63" y="98.070073"/>
     <use style="fill:#1f77b4;stroke:#1f77b4;" x="190.263009" xlink:href="#m7cb3cb2b63" y="68.093649"/>
     <use style="fill:#1f77b4;stroke:#1f77b4;" x="194.650355" xlink:href="#m7cb3cb2b63" y="28.447411"/>
     <use style="fill:#1f77b4;stroke:#1f77b4;" x="199.037701" xlink:href="#m7cb3cb2b63" y="31.348355"/>
     <use style="fill:#1f77b4;stroke:#1f77b4;" x="203.425047" xlink:href="#m7cb3cb2b63" y="56.489872"/>
     <use style="fill:#1f77b4;stroke:#1f77b4;" x="207.812393" xlink:href="#m7cb3cb2b63" y="59.390816"/>
     <use style="fill:#1f77b4;stroke:#1f77b4;" x="212.199739" xlink:href="#m7cb3cb2b63" y="30.381374"/>
     <use style="fill:#1f77b4;stroke:#1f77b4;" x="216.587085" xlink:href="#m7cb3cb2b63" y="32.315337"/>
     <use style="fill:#1f77b4;stroke:#1f77b4;" x="220.974431" xlink:href="#m7cb3cb2b63" y="35.216281"/>
     <use style="fill:#1f77b4;stroke:#1f77b4;" x="225.361777" xlink:href="#m7cb3cb2b63" y="67.126668"/>
     <use style="fill:#1f77b4;stroke:#1f77b4;" x="229.749122" xlink:href="#m7cb3cb2b63" y="65.192705"/>
     <use style="fill:#1f77b4;stroke:#1f77b4;" x="234.136468" xlink:href="#m7cb3cb2b63" y="83.565352"/>
     <use style="fill:#1f77b4;stroke:#1f77b4;" x="238.523814" xlink:href="#m7cb3cb2b63" y="83.565352"/>
     <use style="fill:#1f77b4;stroke:#1f77b4;" x="242.91116" xlink:href="#m7cb3cb2b63" y="121.277627"/>
     <use style="fill:#1f77b4;stroke:#1f77b4;" x="247.298506" xlink:href="#m7cb3cb2b63" y="128.046497"/>
     <use style="fill:#1f77b4;stroke:#1f77b4;" x="251.685852" xlink:href="#m7cb3cb2b63" y="164.791791"/>
     <use style="fill:#1f77b4;stroke:#1f77b4;" x="256.073198" xlink:href="#m7cb3cb2b63" y="165.758772"/>
     <use style="fill:#1f77b4;stroke:#1f77b4;" x="260.460544" xlink:href="#m7cb3cb2b63" y="169.626698"/>
     <use style="fill:#1f77b4;stroke:#1f77b4;" x="264.84789" xlink:href="#m7cb3cb2b63" y="154.154995"/>
     <use style="fill:#1f77b4;stroke:#1f77b4;" x="269.235236" xlink:href="#m7cb3cb2b63" y="143.5182"/>
     <use style="fill:#1f77b4;stroke:#1f77b4;" x="273.622582" xlink:href="#m7cb3cb2b63" y="112.574794"/>
     <use style="fill:#1f77b4;stroke:#1f77b4;" x="278.009927" xlink:href="#m7cb3cb2b63" y="124.178571"/>
     <use style="fill:#1f77b4;stroke:#1f77b4;" x="282.397273" xlink:href="#m7cb3cb2b63" y="130.947441"/>
     <use style="fill:#1f77b4;stroke:#1f77b4;" x="286.784619" xlink:href="#m7cb3cb2b63" y="158.022921"/>
     <use style="fill:#1f77b4;stroke:#1f77b4;" x="291.171965" xlink:href="#m7cb3cb2b63" y="138.683293"/>
     <use style="fill:#1f77b4;stroke:#1f77b4;" x="295.559311" xlink:href="#m7cb3cb2b63" y="162.857828"/>
     <use style="fill:#1f77b4;stroke:#1f77b4;" x="299.946657" xlink:href="#m7cb3cb2b63" y="192.834252"/>
     <use style="fill:#1f77b4;stroke:#1f77b4;" x="304.334003" xlink:href="#m7cb3cb2b63" y="227.645583"/>
     <use style="fill:#1f77b4;stroke:#1f77b4;" x="308.721349" xlink:href="#m7cb3cb2b63" y="238.282379"/>
     <use style="fill:#1f77b4;stroke:#1f77b4;" x="313.108695" xlink:href="#m7cb3cb2b63" y="249.886156"/>
     <use style="fill:#1f77b4;stroke:#1f77b4;" x="317.496041" xlink:href="#m7cb3cb2b63" y="247.952193"/>
     <use style="fill:#1f77b4;stroke:#1f77b4;" x="321.883387" xlink:href="#m7cb3cb2b63" y="251.820119"/>
     <use style="fill:#1f77b4;stroke:#1f77b4;" x="326.270733" xlink:href="#m7cb3cb2b63" y="257.622007"/>
     <use style="fill:#1f77b4;stroke:#1f77b4;" x="330.658078" xlink:href="#m7cb3cb2b63" y="258.588988"/>
     <use style="fill:#1f77b4;stroke:#1f77b4;" x="335.045424" xlink:href="#m7cb3cb2b63" y="261.489933"/>
     <use style="fill:#1f77b4;stroke:#1f77b4;" x="339.43277" xlink:href="#m7cb3cb2b63" y="263.423896"/>
     <use style="fill:#1f77b4;stroke:#1f77b4;" x="343.820116" xlink:href="#m7cb3cb2b63" y="268.258803"/>
     <use style="fill:#1f77b4;stroke:#1f77b4;" x="348.207462" xlink:href="#m7cb3cb2b63" y="253.754081"/>
     <use style="fill:#1f77b4;stroke:#1f77b4;" x="352.594808" xlink:href="#m7cb3cb2b63" y="239.24936"/>
     <use style="fill:#1f77b4;stroke:#1f77b4;" x="356.982154" xlink:href="#m7cb3cb2b63" y="242.150304"/>
     <use style="fill:#1f77b4;stroke:#1f77b4;" x="361.3695" xlink:href="#m7cb3cb2b63" y="258.588988"/>
     <use style="fill:#1f77b4;stroke:#1f77b4;" x="365.756846" xlink:href="#m7cb3cb2b63" y="274.060691"/>
     <use style="fill:#1f77b4;stroke:#1f77b4;" x="370.144192" xlink:href="#m7cb3cb2b63" y="276.961635"/>
     <use style="fill:#1f77b4;stroke:#1f77b4;" x="374.531538" xlink:href="#m7cb3cb2b63" y="275.994654"/>
     <use style="fill:#1f77b4;stroke:#1f77b4;" x="378.918883" xlink:href="#m7cb3cb2b63" y="266.32484"/>
     <use style="fill:#1f77b4;stroke:#1f77b4;" x="383.306229" xlink:href="#m7cb3cb2b63" y="268.258803"/>
     <use style="fill:#1f77b4;stroke:#1f77b4;" x="387.693575" xlink:href="#m7cb3cb2b63" y="259.55597"/>
     <use style="fill:#1f77b4;stroke:#1f77b4;" x="392.080921" xlink:href="#m7cb3cb2b63" y="264.390877"/>
     <use style="fill:#1f77b4;stroke:#1f77b4;" x="396.468267" xlink:href="#m7cb3cb2b63" y="263.423896"/>
     <use style="fill:#1f77b4;stroke:#1f77b4;" x="400.855613" xlink:href="#m7cb3cb2b63" y="270.192765"/>
     <use style="fill:#1f77b4;stroke:#1f77b4;" x="405.242959" xlink:href="#m7cb3cb2b63" y="271.159747"/>
     <use style="fill:#1f77b4;stroke:#1f77b4;" x="409.630305" xlink:href="#m7cb3cb2b63" y="267.291821"/>
     <use style="fill:#1f77b4;stroke:#1f77b4;" x="414.017651" xlink:href="#m7cb3cb2b63" y="270.192765"/>
     <use style="fill:#1f77b4;stroke:#1f77b4;" x="418.404997" xlink:href="#m7cb3cb2b63" y="272.126728"/>
     <use style="fill:#1f77b4;stroke:#1f77b4;" x="422.792343" xlink:href="#m7cb3cb2b63" y="270.192765"/>
     <use style="fill:#1f77b4;stroke:#1f77b4;" x="427.179688" xlink:href="#m7cb3cb2b63" y="270.192765"/>
     <use style="fill:#1f77b4;stroke:#1f77b4;" x="431.567034" xlink:href="#m7cb3cb2b63" y="270.192765"/>
    </g>
   </g>
   <g id="patch_3">
    <path d="M 44.603125 279.86258 
L 44.603125 10.8 
" style="fill:none;stroke:#000000;stroke-linecap:square;stroke-linejoin:miter;stroke-width:0.8;"/>
   </g>
   <g id="patch_4">
    <path d="M 449.993887 279.86258 
L 449.993887 10.8 
" style="fill:none;stroke:#000000;stroke-linecap:square;stroke-linejoin:miter;stroke-width:0.8;"/>
   </g>
   <g id="patch_5">
    <path d="M 44.603125 279.86258 
L 449.993887 279.86258 
" style="fill:none;stroke:#000000;stroke-linecap:square;stroke-linejoin:miter;stroke-width:0.8;"/>
   </g>
   <g id="patch_6">
    <path d="M 44.603125 10.8 
L 449.993887 10.8 
" style="fill:none;stroke:#000000;stroke-linecap:square;stroke-linejoin:miter;stroke-width:0.8;"/>
   </g>
  </g>
 </g>
 <defs>
  <clipPath id="pd21c6c8508">
   <rect height="269.06258" width="405.390762" x="44.603125" y="10.8"/>
  </clipPath>
 </defs>
</svg>
