<?xml version="1.0" encoding="utf-8" standalone="no"?>
<!DOCTYPE svg PUBLIC "-//W3C//DTD SVG 1.1//EN"
  "http://www.w3.org/Graphics/SVG/1.1/DTD/svg11.dtd">
<!-- Created with matplotlib (https://matplotlib.org/) -->
<svg height="345.6pt" version="1.1" viewBox="0 0 460.8 345.6" width="460.8pt" xmlns="http://www.w3.org/2000/svg" xmlns:xlink="http://www.w3.org/1999/xlink">
 <defs>
  <style type="text/css">
*{stroke-linecap:butt;stroke-linejoin:round;}
  </style>
 </defs>
 <g id="figure_1">
  <g id="patch_1">
   <path d="M 0 345.6 
L 460.8 345.6 
L 460.8 0 
L 0 0 
z
" style="fill:#ffffff;"/>
  </g>
  <g id="axes_1">
   <g id="patch_2">
    <path d="M 50.965625 279.86258 
L 429.935363 279.86258 
L 429.935363 10.8 
L 50.965625 10.8 
z
" style="fill:#ffffff;"/>
   </g>
   <g id="matplotlib.axis_1">
    <g id="xtick_1">
     <g id="line2d_1">
      <defs>
       <path d="M 0 0 
L 0 3.5 
" id="m44864fd395" style="stroke:#000000;stroke-width:0.8;"/>
      </defs>
      <g>
       <use style="stroke:#000000;stroke-width:0.8;" x="98.718429" xlink:href="#m44864fd395" y="279.86258"/>
      </g>
     </g>
     <g id="text_1">
      <!-- 2020-03-01 -->
      <defs>
       <path d="M 19.1875 8.296875 
L 53.609375 8.296875 
L 53.609375 0 
L 7.328125 0 
L 7.328125 8.296875 
Q 12.9375 14.109375 22.625 23.890625 
Q 32.328125 33.6875 34.8125 36.53125 
Q 39.546875 41.84375 41.421875 45.53125 
Q 43.3125 49.21875 43.3125 52.78125 
Q 43.3125 58.59375 39.234375 62.25 
Q 35.15625 65.921875 28.609375 65.921875 
Q 23.96875 65.921875 18.8125 64.3125 
Q 13.671875 62.703125 7.8125 59.421875 
L 7.8125 69.390625 
Q 13.765625 71.78125 18.9375 73 
Q 24.125 74.21875 28.421875 74.21875 
Q 39.75 74.21875 46.484375 68.546875 
Q 53.21875 62.890625 53.21875 53.421875 
Q 53.21875 48.921875 51.53125 44.890625 
Q 49.859375 40.875 45.40625 35.40625 
Q 44.1875 33.984375 37.640625 27.21875 
Q 31.109375 20.453125 19.1875 8.296875 
z
" id="DejaVuSans-50"/>
       <path d="M 31.78125 66.40625 
Q 24.171875 66.40625 20.328125 58.90625 
Q 16.5 51.421875 16.5 36.375 
Q 16.5 21.390625 20.328125 13.890625 
Q 24.171875 6.390625 31.78125 6.390625 
Q 39.453125 6.390625 43.28125 13.890625 
Q 47.125 21.390625 47.125 36.375 
Q 47.125 51.421875 43.28125 58.90625 
Q 39.453125 66.40625 31.78125 66.40625 
z
M 31.78125 74.21875 
Q 44.046875 74.21875 50.515625 64.515625 
Q 56.984375 54.828125 56.984375 36.375 
Q 56.984375 17.96875 50.515625 8.265625 
Q 44.046875 -1.421875 31.78125 -1.421875 
Q 19.53125 -1.421875 13.0625 8.265625 
Q 6.59375 17.96875 6.59375 36.375 
Q 6.59375 54.828125 13.0625 64.515625 
Q 19.53125 74.21875 31.78125 74.21875 
z
" id="DejaVuSans-48"/>
       <path d="M 4.890625 31.390625 
L 31.203125 31.390625 
L 31.203125 23.390625 
L 4.890625 23.390625 
z
" id="DejaVuSans-45"/>
       <path d="M 40.578125 39.3125 
Q 47.65625 37.796875 51.625 33 
Q 55.609375 28.21875 55.609375 21.1875 
Q 55.609375 10.40625 48.1875 4.484375 
Q 40.765625 -1.421875 27.09375 -1.421875 
Q 22.515625 -1.421875 17.65625 -0.515625 
Q 12.796875 0.390625 7.625 2.203125 
L 7.625 11.71875 
Q 11.71875 9.328125 16.59375 8.109375 
Q 21.484375 6.890625 26.8125 6.890625 
Q 36.078125 6.890625 40.9375 10.546875 
Q 45.796875 14.203125 45.796875 21.1875 
Q 45.796875 27.640625 41.28125 31.265625 
Q 36.765625 34.90625 28.71875 34.90625 
L 20.21875 34.90625 
L 20.21875 43.015625 
L 29.109375 43.015625 
Q 36.375 43.015625 40.234375 45.921875 
Q 44.09375 48.828125 44.09375 54.296875 
Q 44.09375 59.90625 40.109375 62.90625 
Q 36.140625 65.921875 28.71875 65.921875 
Q 24.65625 65.921875 20.015625 65.03125 
Q 15.375 64.15625 9.8125 62.3125 
L 9.8125 71.09375 
Q 15.4375 72.65625 20.34375 73.4375 
Q 25.25 74.21875 29.59375 74.21875 
Q 40.828125 74.21875 47.359375 69.109375 
Q 53.90625 64.015625 53.90625 55.328125 
Q 53.90625 49.265625 50.4375 45.09375 
Q 46.96875 40.921875 40.578125 39.3125 
z
" id="DejaVuSans-51"/>
       <path d="M 12.40625 8.296875 
L 28.515625 8.296875 
L 28.515625 63.921875 
L 10.984375 60.40625 
L 10.984375 69.390625 
L 28.421875 72.90625 
L 38.28125 72.90625 
L 38.28125 8.296875 
L 54.390625 8.296875 
L 54.390625 0 
L 12.40625 0 
z
" id="DejaVuSans-49"/>
      </defs>
      <g transform="translate(80.122625 333.329439)rotate(-45)scale(0.1 -0.1)">
       <use xlink:href="#DejaVuSans-50"/>
       <use x="63.623047" xlink:href="#DejaVuSans-48"/>
       <use x="127.246094" xlink:href="#DejaVuSans-50"/>
       <use x="190.869141" xlink:href="#DejaVuSans-48"/>
       <use x="254.492188" xlink:href="#DejaVuSans-45"/>
       <use x="290.576172" xlink:href="#DejaVuSans-48"/>
       <use x="354.199219" xlink:href="#DejaVuSans-51"/>
       <use x="417.822266" xlink:href="#DejaVuSans-45"/>
       <use x="453.90625" xlink:href="#DejaVuSans-48"/>
       <use x="517.529297" xlink:href="#DejaVuSans-49"/>
      </g>
     </g>
    </g>
    <g id="xtick_2">
     <g id="line2d_2">
      <g>
       <use style="stroke:#000000;stroke-width:0.8;" x="159.772242" xlink:href="#m44864fd395" y="279.86258"/>
      </g>
     </g>
     <g id="text_2">
      <!-- 2020-03-15 -->
      <defs>
       <path d="M 10.796875 72.90625 
L 49.515625 72.90625 
L 49.515625 64.59375 
L 19.828125 64.59375 
L 19.828125 46.734375 
Q 21.96875 47.46875 24.109375 47.828125 
Q 26.265625 48.1875 28.421875 48.1875 
Q 40.625 48.1875 47.75 41.5 
Q 54.890625 34.8125 54.890625 23.390625 
Q 54.890625 11.625 47.5625 5.09375 
Q 40.234375 -1.421875 26.90625 -1.421875 
Q 22.3125 -1.421875 17.546875 -0.640625 
Q 12.796875 0.140625 7.71875 1.703125 
L 7.71875 11.625 
Q 12.109375 9.234375 16.796875 8.0625 
Q 21.484375 6.890625 26.703125 6.890625 
Q 35.15625 6.890625 40.078125 11.328125 
Q 45.015625 15.765625 45.015625 23.390625 
Q 45.015625 31 40.078125 35.4375 
Q 35.15625 39.890625 26.703125 39.890625 
Q 22.75 39.890625 18.8125 39.015625 
Q 14.890625 38.140625 10.796875 36.28125 
z
" id="DejaVuSans-53"/>
      </defs>
      <g transform="translate(141.176438 333.329439)rotate(-45)scale(0.1 -0.1)">
       <use xlink:href="#DejaVuSans-50"/>
       <use x="63.623047" xlink:href="#DejaVuSans-48"/>
       <use x="127.246094" xlink:href="#DejaVuSans-50"/>
       <use x="190.869141" xlink:href="#DejaVuSans-48"/>
       <use x="254.492188" xlink:href="#DejaVuSans-45"/>
       <use x="290.576172" xlink:href="#DejaVuSans-48"/>
       <use x="354.199219" xlink:href="#DejaVuSans-51"/>
       <use x="417.822266" xlink:href="#DejaVuSans-45"/>
       <use x="453.90625" xlink:href="#DejaVuSans-49"/>
       <use x="517.529297" xlink:href="#DejaVuSans-53"/>
      </g>
     </g>
    </g>
    <g id="xtick_3">
     <g id="line2d_3">
      <g>
       <use style="stroke:#000000;stroke-width:0.8;" x="233.909014" xlink:href="#m44864fd395" y="279.86258"/>
      </g>
     </g>
     <g id="text_3">
      <!-- 2020-04-01 -->
      <defs>
       <path d="M 37.796875 64.3125 
L 12.890625 25.390625 
L 37.796875 25.390625 
z
M 35.203125 72.90625 
L 47.609375 72.90625 
L 47.609375 25.390625 
L 58.015625 25.390625 
L 58.015625 17.1875 
L 47.609375 17.1875 
L 47.609375 0 
L 37.796875 0 
L 37.796875 17.1875 
L 4.890625 17.1875 
L 4.890625 26.703125 
z
" id="DejaVuSans-52"/>
      </defs>
      <g transform="translate(215.313211 333.329439)rotate(-45)scale(0.1 -0.1)">
       <use xlink:href="#DejaVuSans-50"/>
       <use x="63.623047" xlink:href="#DejaVuSans-48"/>
       <use x="127.246094" xlink:href="#DejaVuSans-50"/>
       <use x="190.869141" xlink:href="#DejaVuSans-48"/>
       <use x="254.492188" xlink:href="#DejaVuSans-45"/>
       <use x="290.576172" xlink:href="#DejaVuSans-48"/>
       <use x="354.199219" xlink:href="#DejaVuSans-52"/>
       <use x="417.822266" xlink:href="#DejaVuSans-45"/>
       <use x="453.90625" xlink:href="#DejaVuSans-48"/>
       <use x="517.529297" xlink:href="#DejaVuSans-49"/>
      </g>
     </g>
    </g>
    <g id="xtick_4">
     <g id="line2d_4">
      <g>
       <use style="stroke:#000000;stroke-width:0.8;" x="294.962827" xlink:href="#m44864fd395" y="279.86258"/>
      </g>
     </g>
     <g id="text_4">
      <!-- 2020-04-15 -->
      <g transform="translate(276.367024 333.329439)rotate(-45)scale(0.1 -0.1)">
       <use xlink:href="#DejaVuSans-50"/>
       <use x="63.623047" xlink:href="#DejaVuSans-48"/>
       <use x="127.246094" xlink:href="#DejaVuSans-50"/>
       <use x="190.869141" xlink:href="#DejaVuSans-48"/>
       <use x="254.492188" xlink:href="#DejaVuSans-45"/>
       <use x="290.576172" xlink:href="#DejaVuSans-48"/>
       <use x="354.199219" xlink:href="#DejaVuSans-52"/>
       <use x="417.822266" xlink:href="#DejaVuSans-45"/>
       <use x="453.90625" xlink:href="#DejaVuSans-49"/>
       <use x="517.529297" xlink:href="#DejaVuSans-53"/>
      </g>
     </g>
    </g>
    <g id="xtick_5">
     <g id="line2d_5">
      <g>
       <use style="stroke:#000000;stroke-width:0.8;" x="364.738613" xlink:href="#m44864fd395" y="279.86258"/>
      </g>
     </g>
     <g id="text_5">
      <!-- 2020-05-01 -->
      <g transform="translate(346.14281 333.329439)rotate(-45)scale(0.1 -0.1)">
       <use xlink:href="#DejaVuSans-50"/>
       <use x="63.623047" xlink:href="#DejaVuSans-48"/>
       <use x="127.246094" xlink:href="#DejaVuSans-50"/>
       <use x="190.869141" xlink:href="#DejaVuSans-48"/>
       <use x="254.492188" xlink:href="#DejaVuSans-45"/>
       <use x="290.576172" xlink:href="#DejaVuSans-48"/>
       <use x="354.199219" xlink:href="#DejaVuSans-53"/>
       <use x="417.822266" xlink:href="#DejaVuSans-45"/>
       <use x="453.90625" xlink:href="#DejaVuSans-48"/>
       <use x="517.529297" xlink:href="#DejaVuSans-49"/>
      </g>
     </g>
    </g>
    <g id="xtick_6">
     <g id="line2d_6">
      <g>
       <use style="stroke:#000000;stroke-width:0.8;" x="425.792426" xlink:href="#m44864fd395" y="279.86258"/>
      </g>
     </g>
     <g id="text_6">
      <!-- 2020-05-15 -->
      <g transform="translate(407.196623 333.329439)rotate(-45)scale(0.1 -0.1)">
       <use xlink:href="#DejaVuSans-50"/>
       <use x="63.623047" xlink:href="#DejaVuSans-48"/>
       <use x="127.246094" xlink:href="#DejaVuSans-50"/>
       <use x="190.869141" xlink:href="#DejaVuSans-48"/>
       <use x="254.492188" xlink:href="#DejaVuSans-45"/>
       <use x="290.576172" xlink:href="#DejaVuSans-48"/>
       <use x="354.199219" xlink:href="#DejaVuSans-53"/>
       <use x="417.822266" xlink:href="#DejaVuSans-45"/>
       <use x="453.90625" xlink:href="#DejaVuSans-49"/>
       <use x="517.529297" xlink:href="#DejaVuSans-53"/>
      </g>
     </g>
    </g>
   </g>
   <g id="matplotlib.axis_2">
    <g id="ytick_1">
     <g id="line2d_7">
      <defs>
       <path d="M 0 0 
L -3.5 0 
" id="m6ae3f3c1f1" style="stroke:#000000;stroke-width:0.8;"/>
      </defs>
      <g>
       <use style="stroke:#000000;stroke-width:0.8;" x="50.965625" xlink:href="#m6ae3f3c1f1" y="279.86258"/>
      </g>
     </g>
     <g id="text_7">
      <!-- 0 -->
      <g transform="translate(37.603125 283.661798)scale(0.1 -0.1)">
       <use xlink:href="#DejaVuSans-48"/>
      </g>
     </g>
    </g>
    <g id="ytick_2">
     <g id="line2d_8">
      <g>
       <use style="stroke:#000000;stroke-width:0.8;" x="50.965625" xlink:href="#m6ae3f3c1f1" y="225.981815"/>
      </g>
     </g>
     <g id="text_8">
      <!-- 100 -->
      <g transform="translate(24.878125 229.781034)scale(0.1 -0.1)">
       <use xlink:href="#DejaVuSans-49"/>
       <use x="63.623047" xlink:href="#DejaVuSans-48"/>
       <use x="127.246094" xlink:href="#DejaVuSans-48"/>
      </g>
     </g>
    </g>
    <g id="ytick_3">
     <g id="line2d_9">
      <g>
       <use style="stroke:#000000;stroke-width:0.8;" x="50.965625" xlink:href="#m6ae3f3c1f1" y="172.10105"/>
      </g>
     </g>
     <g id="text_9">
      <!-- 200 -->
      <g transform="translate(24.878125 175.900269)scale(0.1 -0.1)">
       <use xlink:href="#DejaVuSans-50"/>
       <use x="63.623047" xlink:href="#DejaVuSans-48"/>
       <use x="127.246094" xlink:href="#DejaVuSans-48"/>
      </g>
     </g>
    </g>
    <g id="ytick_4">
     <g id="line2d_10">
      <g>
       <use style="stroke:#000000;stroke-width:0.8;" x="50.965625" xlink:href="#m6ae3f3c1f1" y="118.220285"/>
      </g>
     </g>
     <g id="text_10">
      <!-- 300 -->
      <g transform="translate(24.878125 122.019504)scale(0.1 -0.1)">
       <use xlink:href="#DejaVuSans-51"/>
       <use x="63.623047" xlink:href="#DejaVuSans-48"/>
       <use x="127.246094" xlink:href="#DejaVuSans-48"/>
      </g>
     </g>
    </g>
    <g id="ytick_5">
     <g id="line2d_11">
      <g>
       <use style="stroke:#000000;stroke-width:0.8;" x="50.965625" xlink:href="#m6ae3f3c1f1" y="64.33952"/>
      </g>
     </g>
     <g id="text_11">
      <!-- 400 -->
      <g transform="translate(24.878125 68.138739)scale(0.1 -0.1)">
       <use xlink:href="#DejaVuSans-52"/>
       <use x="63.623047" xlink:href="#DejaVuSans-48"/>
       <use x="127.246094" xlink:href="#DejaVuSans-48"/>
      </g>
     </g>
    </g>
    <g id="text_12">
     <!-- GA pcr (Media 3 días) -->
     <defs>
      <path d="M 59.515625 10.40625 
L 59.515625 29.984375 
L 43.40625 29.984375 
L 43.40625 38.09375 
L 69.28125 38.09375 
L 69.28125 6.78125 
Q 63.578125 2.734375 56.6875 0.65625 
Q 49.8125 -1.421875 42 -1.421875 
Q 24.90625 -1.421875 15.25 8.5625 
Q 5.609375 18.5625 5.609375 36.375 
Q 5.609375 54.25 15.25 64.234375 
Q 24.90625 74.21875 42 74.21875 
Q 49.125 74.21875 55.546875 72.453125 
Q 61.96875 70.703125 67.390625 67.28125 
L 67.390625 56.78125 
Q 61.921875 61.421875 55.765625 63.765625 
Q 49.609375 66.109375 42.828125 66.109375 
Q 29.4375 66.109375 22.71875 58.640625 
Q 16.015625 51.171875 16.015625 36.375 
Q 16.015625 21.625 22.71875 14.15625 
Q 29.4375 6.6875 42.828125 6.6875 
Q 48.046875 6.6875 52.140625 7.59375 
Q 56.25 8.5 59.515625 10.40625 
z
" id="DejaVuSans-71"/>
      <path d="M 34.1875 63.1875 
L 20.796875 26.90625 
L 47.609375 26.90625 
z
M 28.609375 72.90625 
L 39.796875 72.90625 
L 67.578125 0 
L 57.328125 0 
L 50.6875 18.703125 
L 17.828125 18.703125 
L 11.1875 0 
L 0.78125 0 
z
" id="DejaVuSans-65"/>
      <path id="DejaVuSans-32"/>
      <path d="M 18.109375 8.203125 
L 18.109375 -20.796875 
L 9.078125 -20.796875 
L 9.078125 54.6875 
L 18.109375 54.6875 
L 18.109375 46.390625 
Q 20.953125 51.265625 25.265625 53.625 
Q 29.59375 56 35.59375 56 
Q 45.5625 56 51.78125 48.09375 
Q 58.015625 40.1875 58.015625 27.296875 
Q 58.015625 14.40625 51.78125 6.484375 
Q 45.5625 -1.421875 35.59375 -1.421875 
Q 29.59375 -1.421875 25.265625 0.953125 
Q 20.953125 3.328125 18.109375 8.203125 
z
M 48.6875 27.296875 
Q 48.6875 37.203125 44.609375 42.84375 
Q 40.53125 48.484375 33.40625 48.484375 
Q 26.265625 48.484375 22.1875 42.84375 
Q 18.109375 37.203125 18.109375 27.296875 
Q 18.109375 17.390625 22.1875 11.75 
Q 26.265625 6.109375 33.40625 6.109375 
Q 40.53125 6.109375 44.609375 11.75 
Q 48.6875 17.390625 48.6875 27.296875 
z
" id="DejaVuSans-112"/>
      <path d="M 48.78125 52.59375 
L 48.78125 44.1875 
Q 44.96875 46.296875 41.140625 47.34375 
Q 37.3125 48.390625 33.40625 48.390625 
Q 24.65625 48.390625 19.8125 42.84375 
Q 14.984375 37.3125 14.984375 27.296875 
Q 14.984375 17.28125 19.8125 11.734375 
Q 24.65625 6.203125 33.40625 6.203125 
Q 37.3125 6.203125 41.140625 7.25 
Q 44.96875 8.296875 48.78125 10.40625 
L 48.78125 2.09375 
Q 45.015625 0.34375 40.984375 -0.53125 
Q 36.96875 -1.421875 32.421875 -1.421875 
Q 20.0625 -1.421875 12.78125 6.34375 
Q 5.515625 14.109375 5.515625 27.296875 
Q 5.515625 40.671875 12.859375 48.328125 
Q 20.21875 56 33.015625 56 
Q 37.15625 56 41.109375 55.140625 
Q 45.0625 54.296875 48.78125 52.59375 
z
" id="DejaVuSans-99"/>
      <path d="M 41.109375 46.296875 
Q 39.59375 47.171875 37.8125 47.578125 
Q 36.03125 48 33.890625 48 
Q 26.265625 48 22.1875 43.046875 
Q 18.109375 38.09375 18.109375 28.8125 
L 18.109375 0 
L 9.078125 0 
L 9.078125 54.6875 
L 18.109375 54.6875 
L 18.109375 46.1875 
Q 20.953125 51.171875 25.484375 53.578125 
Q 30.03125 56 36.53125 56 
Q 37.453125 56 38.578125 55.875 
Q 39.703125 55.765625 41.0625 55.515625 
z
" id="DejaVuSans-114"/>
      <path d="M 31 75.875 
Q 24.46875 64.65625 21.28125 53.65625 
Q 18.109375 42.671875 18.109375 31.390625 
Q 18.109375 20.125 21.3125 9.0625 
Q 24.515625 -2 31 -13.1875 
L 23.1875 -13.1875 
Q 15.875 -1.703125 12.234375 9.375 
Q 8.59375 20.453125 8.59375 31.390625 
Q 8.59375 42.28125 12.203125 53.3125 
Q 15.828125 64.359375 23.1875 75.875 
z
" id="DejaVuSans-40"/>
      <path d="M 9.8125 72.90625 
L 24.515625 72.90625 
L 43.109375 23.296875 
L 61.8125 72.90625 
L 76.515625 72.90625 
L 76.515625 0 
L 66.890625 0 
L 66.890625 64.015625 
L 48.09375 14.015625 
L 38.1875 14.015625 
L 19.390625 64.015625 
L 19.390625 0 
L 9.8125 0 
z
" id="DejaVuSans-77"/>
      <path d="M 56.203125 29.59375 
L 56.203125 25.203125 
L 14.890625 25.203125 
Q 15.484375 15.921875 20.484375 11.0625 
Q 25.484375 6.203125 34.421875 6.203125 
Q 39.59375 6.203125 44.453125 7.46875 
Q 49.3125 8.734375 54.109375 11.28125 
L 54.109375 2.78125 
Q 49.265625 0.734375 44.1875 -0.34375 
Q 39.109375 -1.421875 33.890625 -1.421875 
Q 20.796875 -1.421875 13.15625 6.1875 
Q 5.515625 13.8125 5.515625 26.8125 
Q 5.515625 40.234375 12.765625 48.109375 
Q 20.015625 56 32.328125 56 
Q 43.359375 56 49.78125 48.890625 
Q 56.203125 41.796875 56.203125 29.59375 
z
M 47.21875 32.234375 
Q 47.125 39.59375 43.09375 43.984375 
Q 39.0625 48.390625 32.421875 48.390625 
Q 24.90625 48.390625 20.390625 44.140625 
Q 15.875 39.890625 15.1875 32.171875 
z
" id="DejaVuSans-101"/>
      <path d="M 45.40625 46.390625 
L 45.40625 75.984375 
L 54.390625 75.984375 
L 54.390625 0 
L 45.40625 0 
L 45.40625 8.203125 
Q 42.578125 3.328125 38.25 0.953125 
Q 33.9375 -1.421875 27.875 -1.421875 
Q 17.96875 -1.421875 11.734375 6.484375 
Q 5.515625 14.40625 5.515625 27.296875 
Q 5.515625 40.1875 11.734375 48.09375 
Q 17.96875 56 27.875 56 
Q 33.9375 56 38.25 53.625 
Q 42.578125 51.265625 45.40625 46.390625 
z
M 14.796875 27.296875 
Q 14.796875 17.390625 18.875 11.75 
Q 22.953125 6.109375 30.078125 6.109375 
Q 37.203125 6.109375 41.296875 11.75 
Q 45.40625 17.390625 45.40625 27.296875 
Q 45.40625 37.203125 41.296875 42.84375 
Q 37.203125 48.484375 30.078125 48.484375 
Q 22.953125 48.484375 18.875 42.84375 
Q 14.796875 37.203125 14.796875 27.296875 
z
" id="DejaVuSans-100"/>
      <path d="M 9.421875 54.6875 
L 18.40625 54.6875 
L 18.40625 0 
L 9.421875 0 
z
M 9.421875 75.984375 
L 18.40625 75.984375 
L 18.40625 64.59375 
L 9.421875 64.59375 
z
" id="DejaVuSans-105"/>
      <path d="M 34.28125 27.484375 
Q 23.390625 27.484375 19.1875 25 
Q 14.984375 22.515625 14.984375 16.5 
Q 14.984375 11.71875 18.140625 8.90625 
Q 21.296875 6.109375 26.703125 6.109375 
Q 34.1875 6.109375 38.703125 11.40625 
Q 43.21875 16.703125 43.21875 25.484375 
L 43.21875 27.484375 
z
M 52.203125 31.203125 
L 52.203125 0 
L 43.21875 0 
L 43.21875 8.296875 
Q 40.140625 3.328125 35.546875 0.953125 
Q 30.953125 -1.421875 24.3125 -1.421875 
Q 15.921875 -1.421875 10.953125 3.296875 
Q 6 8.015625 6 15.921875 
Q 6 25.140625 12.171875 29.828125 
Q 18.359375 34.515625 30.609375 34.515625 
L 43.21875 34.515625 
L 43.21875 35.40625 
Q 43.21875 41.609375 39.140625 45 
Q 35.0625 48.390625 27.6875 48.390625 
Q 23 48.390625 18.546875 47.265625 
Q 14.109375 46.140625 10.015625 43.890625 
L 10.015625 52.203125 
Q 14.9375 54.109375 19.578125 55.046875 
Q 24.21875 56 28.609375 56 
Q 40.484375 56 46.34375 49.84375 
Q 52.203125 43.703125 52.203125 31.203125 
z
" id="DejaVuSans-97"/>
      <path d="M 20.65625 79.984375 
L 30.375 79.984375 
L 14.46875 61.625 
L 6.984375 61.625 
z
M 9.421875 54.6875 
L 18.40625 54.6875 
L 18.40625 0 
L 9.421875 0 
z
M 13.921875 56 
z
" id="DejaVuSans-237"/>
      <path d="M 44.28125 53.078125 
L 44.28125 44.578125 
Q 40.484375 46.53125 36.375 47.5 
Q 32.28125 48.484375 27.875 48.484375 
Q 21.1875 48.484375 17.84375 46.4375 
Q 14.5 44.390625 14.5 40.28125 
Q 14.5 37.15625 16.890625 35.375 
Q 19.28125 33.59375 26.515625 31.984375 
L 29.59375 31.296875 
Q 39.15625 29.25 43.1875 25.515625 
Q 47.21875 21.78125 47.21875 15.09375 
Q 47.21875 7.46875 41.1875 3.015625 
Q 35.15625 -1.421875 24.609375 -1.421875 
Q 20.21875 -1.421875 15.453125 -0.5625 
Q 10.6875 0.296875 5.421875 2 
L 5.421875 11.28125 
Q 10.40625 8.6875 15.234375 7.390625 
Q 20.0625 6.109375 24.8125 6.109375 
Q 31.15625 6.109375 34.5625 8.28125 
Q 37.984375 10.453125 37.984375 14.40625 
Q 37.984375 18.0625 35.515625 20.015625 
Q 33.0625 21.96875 24.703125 23.78125 
L 21.578125 24.515625 
Q 13.234375 26.265625 9.515625 29.90625 
Q 5.8125 33.546875 5.8125 39.890625 
Q 5.8125 47.609375 11.28125 51.796875 
Q 16.75 56 26.8125 56 
Q 31.78125 56 36.171875 55.265625 
Q 40.578125 54.546875 44.28125 53.078125 
z
" id="DejaVuSans-115"/>
      <path d="M 8.015625 75.875 
L 15.828125 75.875 
Q 23.140625 64.359375 26.78125 53.3125 
Q 30.421875 42.28125 30.421875 31.390625 
Q 30.421875 20.453125 26.78125 9.375 
Q 23.140625 -1.703125 15.828125 -13.1875 
L 8.015625 -13.1875 
Q 14.5 -2 17.703125 9.0625 
Q 20.90625 20.125 20.90625 31.390625 
Q 20.90625 42.671875 17.703125 53.65625 
Q 14.5 64.65625 8.015625 75.875 
z
" id="DejaVuSans-41"/>
     </defs>
     <g transform="translate(18.798438 199.29379)rotate(-90)scale(0.1 -0.1)">
      <use xlink:href="#DejaVuSans-71"/>
      <use x="77.490234" xlink:href="#DejaVuSans-65"/>
      <use x="145.898438" xlink:href="#DejaVuSans-32"/>
      <use x="177.685547" xlink:href="#DejaVuSans-112"/>
      <use x="241.162109" xlink:href="#DejaVuSans-99"/>
      <use x="296.142578" xlink:href="#DejaVuSans-114"/>
      <use x="337.255859" xlink:href="#DejaVuSans-32"/>
      <use x="369.042969" xlink:href="#DejaVuSans-40"/>
      <use x="408.056641" xlink:href="#DejaVuSans-77"/>
      <use x="494.335938" xlink:href="#DejaVuSans-101"/>
      <use x="555.859375" xlink:href="#DejaVuSans-100"/>
      <use x="619.335938" xlink:href="#DejaVuSans-105"/>
      <use x="647.119141" xlink:href="#DejaVuSans-97"/>
      <use x="708.398438" xlink:href="#DejaVuSans-32"/>
      <use x="740.185547" xlink:href="#DejaVuSans-51"/>
      <use x="803.808594" xlink:href="#DejaVuSans-32"/>
      <use x="835.595703" xlink:href="#DejaVuSans-100"/>
      <use x="899.072266" xlink:href="#DejaVuSans-237"/>
      <use x="926.855469" xlink:href="#DejaVuSans-97"/>
      <use x="988.134766" xlink:href="#DejaVuSans-115"/>
      <use x="1040.234375" xlink:href="#DejaVuSans-41"/>
     </g>
    </g>
   </g>
   <g id="line2d_12">
    <path clip-path="url(#p16ac1235de)" d="M 68.191522 279.86258 
L 72.552509 279.86258 
L 76.913495 279.86258 
L 81.274482 279.86258 
L 85.635469 279.86258 
L 89.996455 279.86258 
L 94.357442 279.86258 
L 98.718429 279.86258 
L 103.079415 279.86258 
L 107.440402 279.682977 
L 111.801389 279.682977 
L 116.162375 279.323772 
L 120.523362 279.503375 
L 124.884348 279.144169 
L 129.245335 279.323772 
L 133.606322 276.450131 
L 137.967308 274.474503 
L 142.328295 274.654106 
L 146.689282 268.547619 
L 151.050268 265.494376 
L 155.411255 251.126172 
L 159.772242 251.126172 
L 164.133228 248.072928 
L 168.494215 253.640607 
L 172.855201 242.505249 
L 177.216188 228.49625 
L 181.577175 208.380765 
L 185.938161 196.886202 
L 190.299148 166.712973 
L 194.660135 158.451256 
L 199.021121 147.315898 
L 203.382108 152.883577 
L 207.743094 116.963067 
L 212.104081 78.887327 
L 216.465068 60.029059 
L 220.826054 28.239408 
L 225.187041 52.306149 
L 229.548028 47.636483 
L 233.909014 78.887327 
L 238.270001 67.931571 
L 242.630988 65.596738 
L 246.991974 81.94057 
L 251.352961 112.473003 
L 255.713947 153.06318 
L 260.074934 173.178665 
L 264.435921 170.843832 
L 268.796907 169.407012 
L 273.157894 165.276153 
L 277.518881 176.052306 
L 281.879867 181.440382 
L 286.240854 204.249906 
L 290.601841 213.050431 
L 294.962827 211.793213 
L 299.323814 205.147919 
L 303.6848 212.332021 
L 308.045787 223.826584 
L 312.406774 228.49625 
L 316.76776 210.895201 
L 321.128747 199.221035 
L 325.489734 188.98369 
L 329.85072 196.526997 
L 334.211707 193.294151 
L 338.572693 213.230034 
L 342.93368 224.904199 
L 347.294667 241.786839 
L 350.864094 346.6 
M 361.046369 346.6 
L 364.738613 239.092801 
L 369.0996 231.369891 
L 373.460587 250.587364 
L 377.821573 253.1018 
L 382.18256 256.514248 
L 386.543546 257.771466 
L 390.904533 255.975441 
L 395.26552 258.489876 
L 399.626506 258.489876 
L 403.987493 262.620735 
L 408.34848 266.392388 
L 412.709466 271.241657 
" style="fill:none;stroke:#1f77b4;stroke-linecap:square;stroke-width:1.5;"/>
    <defs>
     <path d="M 0 1.5 
C 0.397805 1.5 0.77937 1.341951 1.06066 1.06066 
C 1.341951 0.77937 1.5 0.397805 1.5 0 
C 1.5 -0.397805 1.341951 -0.77937 1.06066 -1.06066 
C 0.77937 -1.341951 0.397805 -1.5 0 -1.5 
C -0.397805 -1.5 -0.77937 -1.341951 -1.06066 -1.06066 
C -1.341951 -0.77937 -1.5 -0.397805 -1.5 0 
C -1.5 0.397805 -1.341951 0.77937 -1.06066 1.06066 
C -0.77937 1.341951 -0.397805 1.5 0 1.5 
z
" id="m9edcaee8de" style="stroke:#1f77b4;"/>
    </defs>
    <g clip-path="url(#p16ac1235de)">
     <use style="fill:#1f77b4;stroke:#1f77b4;" x="68.191522" xlink:href="#m9edcaee8de" y="279.86258"/>
     <use style="fill:#1f77b4;stroke:#1f77b4;" x="72.552509" xlink:href="#m9edcaee8de" y="279.86258"/>
     <use style="fill:#1f77b4;stroke:#1f77b4;" x="76.913495" xlink:href="#m9edcaee8de" y="279.86258"/>
     <use style="fill:#1f77b4;stroke:#1f77b4;" x="81.274482" xlink:href="#m9edcaee8de" y="279.86258"/>
     <use style="fill:#1f77b4;stroke:#1f77b4;" x="85.635469" xlink:href="#m9edcaee8de" y="279.86258"/>
     <use style="fill:#1f77b4;stroke:#1f77b4;" x="89.996455" xlink:href="#m9edcaee8de" y="279.86258"/>
     <use style="fill:#1f77b4;stroke:#1f77b4;" x="94.357442" xlink:href="#m9edcaee8de" y="279.86258"/>
     <use style="fill:#1f77b4;stroke:#1f77b4;" x="98.718429" xlink:href="#m9edcaee8de" y="279.86258"/>
     <use style="fill:#1f77b4;stroke:#1f77b4;" x="103.079415" xlink:href="#m9edcaee8de" y="279.86258"/>
     <use style="fill:#1f77b4;stroke:#1f77b4;" x="107.440402" xlink:href="#m9edcaee8de" y="279.682977"/>
     <use style="fill:#1f77b4;stroke:#1f77b4;" x="111.801389" xlink:href="#m9edcaee8de" y="279.682977"/>
     <use style="fill:#1f77b4;stroke:#1f77b4;" x="116.162375" xlink:href="#m9edcaee8de" y="279.323772"/>
     <use style="fill:#1f77b4;stroke:#1f77b4;" x="120.523362" xlink:href="#m9edcaee8de" y="279.503375"/>
     <use style="fill:#1f77b4;stroke:#1f77b4;" x="124.884348" xlink:href="#m9edcaee8de" y="279.144169"/>
     <use style="fill:#1f77b4;stroke:#1f77b4;" x="129.245335" xlink:href="#m9edcaee8de" y="279.323772"/>
     <use style="fill:#1f77b4;stroke:#1f77b4;" x="133.606322" xlink:href="#m9edcaee8de" y="276.450131"/>
     <use style="fill:#1f77b4;stroke:#1f77b4;" x="137.967308" xlink:href="#m9edcaee8de" y="274.474503"/>
     <use style="fill:#1f77b4;stroke:#1f77b4;" x="142.328295" xlink:href="#m9edcaee8de" y="274.654106"/>
     <use style="fill:#1f77b4;stroke:#1f77b4;" x="146.689282" xlink:href="#m9edcaee8de" y="268.547619"/>
     <use style="fill:#1f77b4;stroke:#1f77b4;" x="151.050268" xlink:href="#m9edcaee8de" y="265.494376"/>
     <use style="fill:#1f77b4;stroke:#1f77b4;" x="155.411255" xlink:href="#m9edcaee8de" y="251.126172"/>
     <use style="fill:#1f77b4;stroke:#1f77b4;" x="159.772242" xlink:href="#m9edcaee8de" y="251.126172"/>
     <use style="fill:#1f77b4;stroke:#1f77b4;" x="164.133228" xlink:href="#m9edcaee8de" y="248.072928"/>
     <use style="fill:#1f77b4;stroke:#1f77b4;" x="168.494215" xlink:href="#m9edcaee8de" y="253.640607"/>
     <use style="fill:#1f77b4;stroke:#1f77b4;" x="172.855201" xlink:href="#m9edcaee8de" y="242.505249"/>
     <use style="fill:#1f77b4;stroke:#1f77b4;" x="177.216188" xlink:href="#m9edcaee8de" y="228.49625"/>
     <use style="fill:#1f77b4;stroke:#1f77b4;" x="181.577175" xlink:href="#m9edcaee8de" y="208.380765"/>
     <use style="fill:#1f77b4;stroke:#1f77b4;" x="185.938161" xlink:href="#m9edcaee8de" y="196.886202"/>
     <use style="fill:#1f77b4;stroke:#1f77b4;" x="190.299148" xlink:href="#m9edcaee8de" y="166.712973"/>
     <use style="fill:#1f77b4;stroke:#1f77b4;" x="194.660135" xlink:href="#m9edcaee8de" y="158.451256"/>
     <use style="fill:#1f77b4;stroke:#1f77b4;" x="199.021121" xlink:href="#m9edcaee8de" y="147.315898"/>
     <use style="fill:#1f77b4;stroke:#1f77b4;" x="203.382108" xlink:href="#m9edcaee8de" y="152.883577"/>
     <use style="fill:#1f77b4;stroke:#1f77b4;" x="207.743094" xlink:href="#m9edcaee8de" y="116.963067"/>
     <use style="fill:#1f77b4;stroke:#1f77b4;" x="212.104081" xlink:href="#m9edcaee8de" y="78.887327"/>
     <use style="fill:#1f77b4;stroke:#1f77b4;" x="216.465068" xlink:href="#m9edcaee8de" y="60.029059"/>
     <use style="fill:#1f77b4;stroke:#1f77b4;" x="220.826054" xlink:href="#m9edcaee8de" y="28.239408"/>
     <use style="fill:#1f77b4;stroke:#1f77b4;" x="225.187041" xlink:href="#m9edcaee8de" y="52.306149"/>
     <use style="fill:#1f77b4;stroke:#1f77b4;" x="229.548028" xlink:href="#m9edcaee8de" y="47.636483"/>
     <use style="fill:#1f77b4;stroke:#1f77b4;" x="233.909014" xlink:href="#m9edcaee8de" y="78.887327"/>
     <use style="fill:#1f77b4;stroke:#1f77b4;" x="238.270001" xlink:href="#m9edcaee8de" y="67.931571"/>
     <use style="fill:#1f77b4;stroke:#1f77b4;" x="242.630988" xlink:href="#m9edcaee8de" y="65.596738"/>
     <use style="fill:#1f77b4;stroke:#1f77b4;" x="246.991974" xlink:href="#m9edcaee8de" y="81.94057"/>
     <use style="fill:#1f77b4;stroke:#1f77b4;" x="251.352961" xlink:href="#m9edcaee8de" y="112.473003"/>
     <use style="fill:#1f77b4;stroke:#1f77b4;" x="255.713947" xlink:href="#m9edcaee8de" y="153.06318"/>
     <use style="fill:#1f77b4;stroke:#1f77b4;" x="260.074934" xlink:href="#m9edcaee8de" y="173.178665"/>
     <use style="fill:#1f77b4;stroke:#1f77b4;" x="264.435921" xlink:href="#m9edcaee8de" y="170.843832"/>
     <use style="fill:#1f77b4;stroke:#1f77b4;" x="268.796907" xlink:href="#m9edcaee8de" y="169.407012"/>
     <use style="fill:#1f77b4;stroke:#1f77b4;" x="273.157894" xlink:href="#m9edcaee8de" y="165.276153"/>
     <use style="fill:#1f77b4;stroke:#1f77b4;" x="277.518881" xlink:href="#m9edcaee8de" y="176.052306"/>
     <use style="fill:#1f77b4;stroke:#1f77b4;" x="281.879867" xlink:href="#m9edcaee8de" y="181.440382"/>
     <use style="fill:#1f77b4;stroke:#1f77b4;" x="286.240854" xlink:href="#m9edcaee8de" y="204.249906"/>
     <use style="fill:#1f77b4;stroke:#1f77b4;" x="290.601841" xlink:href="#m9edcaee8de" y="213.050431"/>
     <use style="fill:#1f77b4;stroke:#1f77b4;" x="294.962827" xlink:href="#m9edcaee8de" y="211.793213"/>
     <use style="fill:#1f77b4;stroke:#1f77b4;" x="299.323814" xlink:href="#m9edcaee8de" y="205.147919"/>
     <use style="fill:#1f77b4;stroke:#1f77b4;" x="303.6848" xlink:href="#m9edcaee8de" y="212.332021"/>
     <use style="fill:#1f77b4;stroke:#1f77b4;" x="308.045787" xlink:href="#m9edcaee8de" y="223.826584"/>
     <use style="fill:#1f77b4;stroke:#1f77b4;" x="312.406774" xlink:href="#m9edcaee8de" y="228.49625"/>
     <use style="fill:#1f77b4;stroke:#1f77b4;" x="316.76776" xlink:href="#m9edcaee8de" y="210.895201"/>
     <use style="fill:#1f77b4;stroke:#1f77b4;" x="321.128747" xlink:href="#m9edcaee8de" y="199.221035"/>
     <use style="fill:#1f77b4;stroke:#1f77b4;" x="325.489734" xlink:href="#m9edcaee8de" y="188.98369"/>
     <use style="fill:#1f77b4;stroke:#1f77b4;" x="329.85072" xlink:href="#m9edcaee8de" y="196.526997"/>
     <use style="fill:#1f77b4;stroke:#1f77b4;" x="334.211707" xlink:href="#m9edcaee8de" y="193.294151"/>
     <use style="fill:#1f77b4;stroke:#1f77b4;" x="338.572693" xlink:href="#m9edcaee8de" y="213.230034"/>
     <use style="fill:#1f77b4;stroke:#1f77b4;" x="342.93368" xlink:href="#m9edcaee8de" y="224.904199"/>
     <use style="fill:#1f77b4;stroke:#1f77b4;" x="347.294667" xlink:href="#m9edcaee8de" y="241.786839"/>
     <use style="fill:#1f77b4;stroke:#1f77b4;" x="351.655653" xlink:href="#m9edcaee8de" y="369.843457"/>
     <use style="fill:#1f77b4;stroke:#1f77b4;" x="356.01664" xlink:href="#m9edcaee8de" y="377.027559"/>
     <use style="fill:#1f77b4;stroke:#1f77b4;" x="360.377627" xlink:href="#m9edcaee8de" y="366.071803"/>
     <use style="fill:#1f77b4;stroke:#1f77b4;" x="364.738613" xlink:href="#m9edcaee8de" y="239.092801"/>
     <use style="fill:#1f77b4;stroke:#1f77b4;" x="369.0996" xlink:href="#m9edcaee8de" y="231.369891"/>
     <use style="fill:#1f77b4;stroke:#1f77b4;" x="373.460587" xlink:href="#m9edcaee8de" y="250.587364"/>
     <use style="fill:#1f77b4;stroke:#1f77b4;" x="377.821573" xlink:href="#m9edcaee8de" y="253.1018"/>
     <use style="fill:#1f77b4;stroke:#1f77b4;" x="382.18256" xlink:href="#m9edcaee8de" y="256.514248"/>
     <use style="fill:#1f77b4;stroke:#1f77b4;" x="386.543546" xlink:href="#m9edcaee8de" y="257.771466"/>
     <use style="fill:#1f77b4;stroke:#1f77b4;" x="390.904533" xlink:href="#m9edcaee8de" y="255.975441"/>
     <use style="fill:#1f77b4;stroke:#1f77b4;" x="395.26552" xlink:href="#m9edcaee8de" y="258.489876"/>
     <use style="fill:#1f77b4;stroke:#1f77b4;" x="399.626506" xlink:href="#m9edcaee8de" y="258.489876"/>
     <use style="fill:#1f77b4;stroke:#1f77b4;" x="403.987493" xlink:href="#m9edcaee8de" y="262.620735"/>
     <use style="fill:#1f77b4;stroke:#1f77b4;" x="408.34848" xlink:href="#m9edcaee8de" y="266.392388"/>
     <use style="fill:#1f77b4;stroke:#1f77b4;" x="412.709466" xlink:href="#m9edcaee8de" y="271.241657"/>
    </g>
   </g>
   <g id="patch_3">
    <path d="M 50.965625 279.86258 
L 50.965625 10.8 
" style="fill:none;stroke:#000000;stroke-linecap:square;stroke-linejoin:miter;stroke-width:0.8;"/>
   </g>
   <g id="patch_4">
    <path d="M 429.935363 279.86258 
L 429.935363 10.8 
" style="fill:none;stroke:#000000;stroke-linecap:square;stroke-linejoin:miter;stroke-width:0.8;"/>
   </g>
   <g id="patch_5">
    <path d="M 50.965625 279.86258 
L 429.935363 279.86258 
" style="fill:none;stroke:#000000;stroke-linecap:square;stroke-linejoin:miter;stroke-width:0.8;"/>
   </g>
   <g id="patch_6">
    <path d="M 50.965625 10.8 
L 429.935363 10.8 
" style="fill:none;stroke:#000000;stroke-linecap:square;stroke-linejoin:miter;stroke-width:0.8;"/>
   </g>
  </g>
 </g>
 <defs>
  <clipPath id="p16ac1235de">
   <rect height="269.06258" width="378.969738" x="50.965625" y="10.8"/>
  </clipPath>
 </defs>
</svg>
