<?xml version="1.0" encoding="utf-8" standalone="no"?>
<!DOCTYPE svg PUBLIC "-//W3C//DTD SVG 1.1//EN"
  "http://www.w3.org/Graphics/SVG/1.1/DTD/svg11.dtd">
<!-- Created with matplotlib (https://matplotlib.org/) -->
<svg height="345.6pt" version="1.1" viewBox="0 0 460.8 345.6" width="460.8pt" xmlns="http://www.w3.org/2000/svg" xmlns:xlink="http://www.w3.org/1999/xlink">
 <defs>
  <style type="text/css">
*{stroke-linecap:butt;stroke-linejoin:round;}
  </style>
 </defs>
 <g id="figure_1">
  <g id="patch_1">
   <path d="M 0 345.6 
L 460.8 345.6 
L 460.8 0 
L 0 0 
z
" style="fill:#ffffff;"/>
  </g>
  <g id="axes_1">
   <g id="patch_2">
    <path d="M 50.965625 279.86258 
L 450 279.86258 
L 450 14.599219 
L 50.965625 14.599219 
z
" style="fill:#ffffff;"/>
   </g>
   <g id="matplotlib.axis_1">
    <g id="xtick_1">
     <g id="line2d_1">
      <defs>
       <path d="M 0 0 
L 0 3.5 
" id="md9de3c58bb" style="stroke:#000000;stroke-width:0.8;"/>
      </defs>
      <g>
       <use style="stroke:#000000;stroke-width:0.8;" x="98.630408" xlink:href="#md9de3c58bb" y="279.86258"/>
      </g>
     </g>
     <g id="text_1">
      <!-- 2020-03-01 -->
      <defs>
       <path d="M 19.1875 8.296875 
L 53.609375 8.296875 
L 53.609375 0 
L 7.328125 0 
L 7.328125 8.296875 
Q 12.9375 14.109375 22.625 23.890625 
Q 32.328125 33.6875 34.8125 36.53125 
Q 39.546875 41.84375 41.421875 45.53125 
Q 43.3125 49.21875 43.3125 52.78125 
Q 43.3125 58.59375 39.234375 62.25 
Q 35.15625 65.921875 28.609375 65.921875 
Q 23.96875 65.921875 18.8125 64.3125 
Q 13.671875 62.703125 7.8125 59.421875 
L 7.8125 69.390625 
Q 13.765625 71.78125 18.9375 73 
Q 24.125 74.21875 28.421875 74.21875 
Q 39.75 74.21875 46.484375 68.546875 
Q 53.21875 62.890625 53.21875 53.421875 
Q 53.21875 48.921875 51.53125 44.890625 
Q 49.859375 40.875 45.40625 35.40625 
Q 44.1875 33.984375 37.640625 27.21875 
Q 31.109375 20.453125 19.1875 8.296875 
z
" id="DejaVuSans-50"/>
       <path d="M 31.78125 66.40625 
Q 24.171875 66.40625 20.328125 58.90625 
Q 16.5 51.421875 16.5 36.375 
Q 16.5 21.390625 20.328125 13.890625 
Q 24.171875 6.390625 31.78125 6.390625 
Q 39.453125 6.390625 43.28125 13.890625 
Q 47.125 21.390625 47.125 36.375 
Q 47.125 51.421875 43.28125 58.90625 
Q 39.453125 66.40625 31.78125 66.40625 
z
M 31.78125 74.21875 
Q 44.046875 74.21875 50.515625 64.515625 
Q 56.984375 54.828125 56.984375 36.375 
Q 56.984375 17.96875 50.515625 8.265625 
Q 44.046875 -1.421875 31.78125 -1.421875 
Q 19.53125 -1.421875 13.0625 8.265625 
Q 6.59375 17.96875 6.59375 36.375 
Q 6.59375 54.828125 13.0625 64.515625 
Q 19.53125 74.21875 31.78125 74.21875 
z
" id="DejaVuSans-48"/>
       <path d="M 4.890625 31.390625 
L 31.203125 31.390625 
L 31.203125 23.390625 
L 4.890625 23.390625 
z
" id="DejaVuSans-45"/>
       <path d="M 40.578125 39.3125 
Q 47.65625 37.796875 51.625 33 
Q 55.609375 28.21875 55.609375 21.1875 
Q 55.609375 10.40625 48.1875 4.484375 
Q 40.765625 -1.421875 27.09375 -1.421875 
Q 22.515625 -1.421875 17.65625 -0.515625 
Q 12.796875 0.390625 7.625 2.203125 
L 7.625 11.71875 
Q 11.71875 9.328125 16.59375 8.109375 
Q 21.484375 6.890625 26.8125 6.890625 
Q 36.078125 6.890625 40.9375 10.546875 
Q 45.796875 14.203125 45.796875 21.1875 
Q 45.796875 27.640625 41.28125 31.265625 
Q 36.765625 34.90625 28.71875 34.90625 
L 20.21875 34.90625 
L 20.21875 43.015625 
L 29.109375 43.015625 
Q 36.375 43.015625 40.234375 45.921875 
Q 44.09375 48.828125 44.09375 54.296875 
Q 44.09375 59.90625 40.109375 62.90625 
Q 36.140625 65.921875 28.71875 65.921875 
Q 24.65625 65.921875 20.015625 65.03125 
Q 15.375 64.15625 9.8125 62.3125 
L 9.8125 71.09375 
Q 15.4375 72.65625 20.34375 73.4375 
Q 25.25 74.21875 29.59375 74.21875 
Q 40.828125 74.21875 47.359375 69.109375 
Q 53.90625 64.015625 53.90625 55.328125 
Q 53.90625 49.265625 50.4375 45.09375 
Q 46.96875 40.921875 40.578125 39.3125 
z
" id="DejaVuSans-51"/>
       <path d="M 12.40625 8.296875 
L 28.515625 8.296875 
L 28.515625 63.921875 
L 10.984375 60.40625 
L 10.984375 69.390625 
L 28.421875 72.90625 
L 38.28125 72.90625 
L 38.28125 8.296875 
L 54.390625 8.296875 
L 54.390625 0 
L 12.40625 0 
z
" id="DejaVuSans-49"/>
      </defs>
      <g transform="translate(80.034604 333.329439)rotate(-45)scale(0.1 -0.1)">
       <use xlink:href="#DejaVuSans-50"/>
       <use x="63.623047" xlink:href="#DejaVuSans-48"/>
       <use x="127.246094" xlink:href="#DejaVuSans-50"/>
       <use x="190.869141" xlink:href="#DejaVuSans-48"/>
       <use x="254.492188" xlink:href="#DejaVuSans-45"/>
       <use x="290.576172" xlink:href="#DejaVuSans-48"/>
       <use x="354.199219" xlink:href="#DejaVuSans-51"/>
       <use x="417.822266" xlink:href="#DejaVuSans-45"/>
       <use x="453.90625" xlink:href="#DejaVuSans-48"/>
       <use x="517.529297" xlink:href="#DejaVuSans-49"/>
      </g>
     </g>
    </g>
    <g id="xtick_2">
     <g id="line2d_2">
      <g>
       <use style="stroke:#000000;stroke-width:0.8;" x="157.684121" xlink:href="#md9de3c58bb" y="279.86258"/>
      </g>
     </g>
     <g id="text_2">
      <!-- 2020-03-15 -->
      <defs>
       <path d="M 10.796875 72.90625 
L 49.515625 72.90625 
L 49.515625 64.59375 
L 19.828125 64.59375 
L 19.828125 46.734375 
Q 21.96875 47.46875 24.109375 47.828125 
Q 26.265625 48.1875 28.421875 48.1875 
Q 40.625 48.1875 47.75 41.5 
Q 54.890625 34.8125 54.890625 23.390625 
Q 54.890625 11.625 47.5625 5.09375 
Q 40.234375 -1.421875 26.90625 -1.421875 
Q 22.3125 -1.421875 17.546875 -0.640625 
Q 12.796875 0.140625 7.71875 1.703125 
L 7.71875 11.625 
Q 12.109375 9.234375 16.796875 8.0625 
Q 21.484375 6.890625 26.703125 6.890625 
Q 35.15625 6.890625 40.078125 11.328125 
Q 45.015625 15.765625 45.015625 23.390625 
Q 45.015625 31 40.078125 35.4375 
Q 35.15625 39.890625 26.703125 39.890625 
Q 22.75 39.890625 18.8125 39.015625 
Q 14.890625 38.140625 10.796875 36.28125 
z
" id="DejaVuSans-53"/>
      </defs>
      <g transform="translate(139.088317 333.329439)rotate(-45)scale(0.1 -0.1)">
       <use xlink:href="#DejaVuSans-50"/>
       <use x="63.623047" xlink:href="#DejaVuSans-48"/>
       <use x="127.246094" xlink:href="#DejaVuSans-50"/>
       <use x="190.869141" xlink:href="#DejaVuSans-48"/>
       <use x="254.492188" xlink:href="#DejaVuSans-45"/>
       <use x="290.576172" xlink:href="#DejaVuSans-48"/>
       <use x="354.199219" xlink:href="#DejaVuSans-51"/>
       <use x="417.822266" xlink:href="#DejaVuSans-45"/>
       <use x="453.90625" xlink:href="#DejaVuSans-49"/>
       <use x="517.529297" xlink:href="#DejaVuSans-53"/>
      </g>
     </g>
    </g>
    <g id="xtick_3">
     <g id="line2d_3">
      <g>
       <use style="stroke:#000000;stroke-width:0.8;" x="229.392201" xlink:href="#md9de3c58bb" y="279.86258"/>
      </g>
     </g>
     <g id="text_3">
      <!-- 2020-04-01 -->
      <defs>
       <path d="M 37.796875 64.3125 
L 12.890625 25.390625 
L 37.796875 25.390625 
z
M 35.203125 72.90625 
L 47.609375 72.90625 
L 47.609375 25.390625 
L 58.015625 25.390625 
L 58.015625 17.1875 
L 47.609375 17.1875 
L 47.609375 0 
L 37.796875 0 
L 37.796875 17.1875 
L 4.890625 17.1875 
L 4.890625 26.703125 
z
" id="DejaVuSans-52"/>
      </defs>
      <g transform="translate(210.796397 333.329439)rotate(-45)scale(0.1 -0.1)">
       <use xlink:href="#DejaVuSans-50"/>
       <use x="63.623047" xlink:href="#DejaVuSans-48"/>
       <use x="127.246094" xlink:href="#DejaVuSans-50"/>
       <use x="190.869141" xlink:href="#DejaVuSans-48"/>
       <use x="254.492188" xlink:href="#DejaVuSans-45"/>
       <use x="290.576172" xlink:href="#DejaVuSans-48"/>
       <use x="354.199219" xlink:href="#DejaVuSans-52"/>
       <use x="417.822266" xlink:href="#DejaVuSans-45"/>
       <use x="453.90625" xlink:href="#DejaVuSans-48"/>
       <use x="517.529297" xlink:href="#DejaVuSans-49"/>
      </g>
     </g>
    </g>
    <g id="xtick_4">
     <g id="line2d_4">
      <g>
       <use style="stroke:#000000;stroke-width:0.8;" x="288.445914" xlink:href="#md9de3c58bb" y="279.86258"/>
      </g>
     </g>
     <g id="text_4">
      <!-- 2020-04-15 -->
      <g transform="translate(269.85011 333.329439)rotate(-45)scale(0.1 -0.1)">
       <use xlink:href="#DejaVuSans-50"/>
       <use x="63.623047" xlink:href="#DejaVuSans-48"/>
       <use x="127.246094" xlink:href="#DejaVuSans-50"/>
       <use x="190.869141" xlink:href="#DejaVuSans-48"/>
       <use x="254.492188" xlink:href="#DejaVuSans-45"/>
       <use x="290.576172" xlink:href="#DejaVuSans-48"/>
       <use x="354.199219" xlink:href="#DejaVuSans-52"/>
       <use x="417.822266" xlink:href="#DejaVuSans-45"/>
       <use x="453.90625" xlink:href="#DejaVuSans-49"/>
       <use x="517.529297" xlink:href="#DejaVuSans-53"/>
      </g>
     </g>
    </g>
    <g id="xtick_5">
     <g id="line2d_5">
      <g>
       <use style="stroke:#000000;stroke-width:0.8;" x="355.935871" xlink:href="#md9de3c58bb" y="279.86258"/>
      </g>
     </g>
     <g id="text_5">
      <!-- 2020-05-01 -->
      <g transform="translate(337.340068 333.329439)rotate(-45)scale(0.1 -0.1)">
       <use xlink:href="#DejaVuSans-50"/>
       <use x="63.623047" xlink:href="#DejaVuSans-48"/>
       <use x="127.246094" xlink:href="#DejaVuSans-50"/>
       <use x="190.869141" xlink:href="#DejaVuSans-48"/>
       <use x="254.492188" xlink:href="#DejaVuSans-45"/>
       <use x="290.576172" xlink:href="#DejaVuSans-48"/>
       <use x="354.199219" xlink:href="#DejaVuSans-53"/>
       <use x="417.822266" xlink:href="#DejaVuSans-45"/>
       <use x="453.90625" xlink:href="#DejaVuSans-48"/>
       <use x="517.529297" xlink:href="#DejaVuSans-49"/>
      </g>
     </g>
    </g>
    <g id="xtick_6">
     <g id="line2d_6">
      <g>
       <use style="stroke:#000000;stroke-width:0.8;" x="414.989584" xlink:href="#md9de3c58bb" y="279.86258"/>
      </g>
     </g>
     <g id="text_6">
      <!-- 2020-05-15 -->
      <g transform="translate(396.393781 333.329439)rotate(-45)scale(0.1 -0.1)">
       <use xlink:href="#DejaVuSans-50"/>
       <use x="63.623047" xlink:href="#DejaVuSans-48"/>
       <use x="127.246094" xlink:href="#DejaVuSans-50"/>
       <use x="190.869141" xlink:href="#DejaVuSans-48"/>
       <use x="254.492188" xlink:href="#DejaVuSans-45"/>
       <use x="290.576172" xlink:href="#DejaVuSans-48"/>
       <use x="354.199219" xlink:href="#DejaVuSans-53"/>
       <use x="417.822266" xlink:href="#DejaVuSans-45"/>
       <use x="453.90625" xlink:href="#DejaVuSans-49"/>
       <use x="517.529297" xlink:href="#DejaVuSans-53"/>
      </g>
     </g>
    </g>
   </g>
   <g id="matplotlib.axis_2">
    <g id="ytick_1">
     <g id="line2d_7">
      <defs>
       <path d="M 0 0 
L -3.5 0 
" id="mf4085a53d9" style="stroke:#000000;stroke-width:0.8;"/>
      </defs>
      <g>
       <use style="stroke:#000000;stroke-width:0.8;" x="50.965625" xlink:href="#mf4085a53d9" y="279.86258"/>
      </g>
     </g>
     <g id="text_7">
      <!-- 0 -->
      <g transform="translate(37.603125 283.661798)scale(0.1 -0.1)">
       <use xlink:href="#DejaVuSans-48"/>
      </g>
     </g>
    </g>
    <g id="ytick_2">
     <g id="line2d_8">
      <g>
       <use style="stroke:#000000;stroke-width:0.8;" x="50.965625" xlink:href="#mf4085a53d9" y="246.70466"/>
      </g>
     </g>
     <g id="text_8">
      <!-- 25 -->
      <g transform="translate(31.240625 250.503878)scale(0.1 -0.1)">
       <use xlink:href="#DejaVuSans-50"/>
       <use x="63.623047" xlink:href="#DejaVuSans-53"/>
      </g>
     </g>
    </g>
    <g id="ytick_3">
     <g id="line2d_9">
      <g>
       <use style="stroke:#000000;stroke-width:0.8;" x="50.965625" xlink:href="#mf4085a53d9" y="213.546739"/>
      </g>
     </g>
     <g id="text_9">
      <!-- 50 -->
      <g transform="translate(31.240625 217.345958)scale(0.1 -0.1)">
       <use xlink:href="#DejaVuSans-53"/>
       <use x="63.623047" xlink:href="#DejaVuSans-48"/>
      </g>
     </g>
    </g>
    <g id="ytick_4">
     <g id="line2d_10">
      <g>
       <use style="stroke:#000000;stroke-width:0.8;" x="50.965625" xlink:href="#mf4085a53d9" y="180.388819"/>
      </g>
     </g>
     <g id="text_10">
      <!-- 75 -->
      <defs>
       <path d="M 8.203125 72.90625 
L 55.078125 72.90625 
L 55.078125 68.703125 
L 28.609375 0 
L 18.3125 0 
L 43.21875 64.59375 
L 8.203125 64.59375 
z
" id="DejaVuSans-55"/>
      </defs>
      <g transform="translate(31.240625 184.188038)scale(0.1 -0.1)">
       <use xlink:href="#DejaVuSans-55"/>
       <use x="63.623047" xlink:href="#DejaVuSans-53"/>
      </g>
     </g>
    </g>
    <g id="ytick_5">
     <g id="line2d_11">
      <g>
       <use style="stroke:#000000;stroke-width:0.8;" x="50.965625" xlink:href="#mf4085a53d9" y="147.230899"/>
      </g>
     </g>
     <g id="text_11">
      <!-- 100 -->
      <g transform="translate(24.878125 151.030118)scale(0.1 -0.1)">
       <use xlink:href="#DejaVuSans-49"/>
       <use x="63.623047" xlink:href="#DejaVuSans-48"/>
       <use x="127.246094" xlink:href="#DejaVuSans-48"/>
      </g>
     </g>
    </g>
    <g id="ytick_6">
     <g id="line2d_12">
      <g>
       <use style="stroke:#000000;stroke-width:0.8;" x="50.965625" xlink:href="#mf4085a53d9" y="114.072979"/>
      </g>
     </g>
     <g id="text_12">
      <!-- 125 -->
      <g transform="translate(24.878125 117.872198)scale(0.1 -0.1)">
       <use xlink:href="#DejaVuSans-49"/>
       <use x="63.623047" xlink:href="#DejaVuSans-50"/>
       <use x="127.246094" xlink:href="#DejaVuSans-53"/>
      </g>
     </g>
    </g>
    <g id="ytick_7">
     <g id="line2d_13">
      <g>
       <use style="stroke:#000000;stroke-width:0.8;" x="50.965625" xlink:href="#mf4085a53d9" y="80.915059"/>
      </g>
     </g>
     <g id="text_13">
      <!-- 150 -->
      <g transform="translate(24.878125 84.714278)scale(0.1 -0.1)">
       <use xlink:href="#DejaVuSans-49"/>
       <use x="63.623047" xlink:href="#DejaVuSans-53"/>
       <use x="127.246094" xlink:href="#DejaVuSans-48"/>
      </g>
     </g>
    </g>
    <g id="ytick_8">
     <g id="line2d_14">
      <g>
       <use style="stroke:#000000;stroke-width:0.8;" x="50.965625" xlink:href="#mf4085a53d9" y="47.757139"/>
      </g>
     </g>
     <g id="text_14">
      <!-- 175 -->
      <g transform="translate(24.878125 51.556358)scale(0.1 -0.1)">
       <use xlink:href="#DejaVuSans-49"/>
       <use x="63.623047" xlink:href="#DejaVuSans-55"/>
       <use x="127.246094" xlink:href="#DejaVuSans-53"/>
      </g>
     </g>
    </g>
    <g id="ytick_9">
     <g id="line2d_15">
      <g>
       <use style="stroke:#000000;stroke-width:0.8;" x="50.965625" xlink:href="#mf4085a53d9" y="14.599219"/>
      </g>
     </g>
     <g id="text_15">
      <!-- 200 -->
      <g transform="translate(24.878125 18.398438)scale(0.1 -0.1)">
       <use xlink:href="#DejaVuSans-50"/>
       <use x="63.623047" xlink:href="#DejaVuSans-48"/>
       <use x="127.246094" xlink:href="#DejaVuSans-48"/>
      </g>
     </g>
    </g>
    <g id="text_16">
     <!-- RI pcr (Media 3 días) -->
     <defs>
      <path d="M 44.390625 34.1875 
Q 47.5625 33.109375 50.5625 29.59375 
Q 53.5625 26.078125 56.59375 19.921875 
L 66.609375 0 
L 56 0 
L 46.6875 18.703125 
Q 43.0625 26.03125 39.671875 28.421875 
Q 36.28125 30.8125 30.421875 30.8125 
L 19.671875 30.8125 
L 19.671875 0 
L 9.8125 0 
L 9.8125 72.90625 
L 32.078125 72.90625 
Q 44.578125 72.90625 50.734375 67.671875 
Q 56.890625 62.453125 56.890625 51.90625 
Q 56.890625 45.015625 53.6875 40.46875 
Q 50.484375 35.9375 44.390625 34.1875 
z
M 19.671875 64.796875 
L 19.671875 38.921875 
L 32.078125 38.921875 
Q 39.203125 38.921875 42.84375 42.21875 
Q 46.484375 45.515625 46.484375 51.90625 
Q 46.484375 58.296875 42.84375 61.546875 
Q 39.203125 64.796875 32.078125 64.796875 
z
" id="DejaVuSans-82"/>
      <path d="M 9.8125 72.90625 
L 19.671875 72.90625 
L 19.671875 0 
L 9.8125 0 
z
" id="DejaVuSans-73"/>
      <path id="DejaVuSans-32"/>
      <path d="M 18.109375 8.203125 
L 18.109375 -20.796875 
L 9.078125 -20.796875 
L 9.078125 54.6875 
L 18.109375 54.6875 
L 18.109375 46.390625 
Q 20.953125 51.265625 25.265625 53.625 
Q 29.59375 56 35.59375 56 
Q 45.5625 56 51.78125 48.09375 
Q 58.015625 40.1875 58.015625 27.296875 
Q 58.015625 14.40625 51.78125 6.484375 
Q 45.5625 -1.421875 35.59375 -1.421875 
Q 29.59375 -1.421875 25.265625 0.953125 
Q 20.953125 3.328125 18.109375 8.203125 
z
M 48.6875 27.296875 
Q 48.6875 37.203125 44.609375 42.84375 
Q 40.53125 48.484375 33.40625 48.484375 
Q 26.265625 48.484375 22.1875 42.84375 
Q 18.109375 37.203125 18.109375 27.296875 
Q 18.109375 17.390625 22.1875 11.75 
Q 26.265625 6.109375 33.40625 6.109375 
Q 40.53125 6.109375 44.609375 11.75 
Q 48.6875 17.390625 48.6875 27.296875 
z
" id="DejaVuSans-112"/>
      <path d="M 48.78125 52.59375 
L 48.78125 44.1875 
Q 44.96875 46.296875 41.140625 47.34375 
Q 37.3125 48.390625 33.40625 48.390625 
Q 24.65625 48.390625 19.8125 42.84375 
Q 14.984375 37.3125 14.984375 27.296875 
Q 14.984375 17.28125 19.8125 11.734375 
Q 24.65625 6.203125 33.40625 6.203125 
Q 37.3125 6.203125 41.140625 7.25 
Q 44.96875 8.296875 48.78125 10.40625 
L 48.78125 2.09375 
Q 45.015625 0.34375 40.984375 -0.53125 
Q 36.96875 -1.421875 32.421875 -1.421875 
Q 20.0625 -1.421875 12.78125 6.34375 
Q 5.515625 14.109375 5.515625 27.296875 
Q 5.515625 40.671875 12.859375 48.328125 
Q 20.21875 56 33.015625 56 
Q 37.15625 56 41.109375 55.140625 
Q 45.0625 54.296875 48.78125 52.59375 
z
" id="DejaVuSans-99"/>
      <path d="M 41.109375 46.296875 
Q 39.59375 47.171875 37.8125 47.578125 
Q 36.03125 48 33.890625 48 
Q 26.265625 48 22.1875 43.046875 
Q 18.109375 38.09375 18.109375 28.8125 
L 18.109375 0 
L 9.078125 0 
L 9.078125 54.6875 
L 18.109375 54.6875 
L 18.109375 46.1875 
Q 20.953125 51.171875 25.484375 53.578125 
Q 30.03125 56 36.53125 56 
Q 37.453125 56 38.578125 55.875 
Q 39.703125 55.765625 41.0625 55.515625 
z
" id="DejaVuSans-114"/>
      <path d="M 31 75.875 
Q 24.46875 64.65625 21.28125 53.65625 
Q 18.109375 42.671875 18.109375 31.390625 
Q 18.109375 20.125 21.3125 9.0625 
Q 24.515625 -2 31 -13.1875 
L 23.1875 -13.1875 
Q 15.875 -1.703125 12.234375 9.375 
Q 8.59375 20.453125 8.59375 31.390625 
Q 8.59375 42.28125 12.203125 53.3125 
Q 15.828125 64.359375 23.1875 75.875 
z
" id="DejaVuSans-40"/>
      <path d="M 9.8125 72.90625 
L 24.515625 72.90625 
L 43.109375 23.296875 
L 61.8125 72.90625 
L 76.515625 72.90625 
L 76.515625 0 
L 66.890625 0 
L 66.890625 64.015625 
L 48.09375 14.015625 
L 38.1875 14.015625 
L 19.390625 64.015625 
L 19.390625 0 
L 9.8125 0 
z
" id="DejaVuSans-77"/>
      <path d="M 56.203125 29.59375 
L 56.203125 25.203125 
L 14.890625 25.203125 
Q 15.484375 15.921875 20.484375 11.0625 
Q 25.484375 6.203125 34.421875 6.203125 
Q 39.59375 6.203125 44.453125 7.46875 
Q 49.3125 8.734375 54.109375 11.28125 
L 54.109375 2.78125 
Q 49.265625 0.734375 44.1875 -0.34375 
Q 39.109375 -1.421875 33.890625 -1.421875 
Q 20.796875 -1.421875 13.15625 6.1875 
Q 5.515625 13.8125 5.515625 26.8125 
Q 5.515625 40.234375 12.765625 48.109375 
Q 20.015625 56 32.328125 56 
Q 43.359375 56 49.78125 48.890625 
Q 56.203125 41.796875 56.203125 29.59375 
z
M 47.21875 32.234375 
Q 47.125 39.59375 43.09375 43.984375 
Q 39.0625 48.390625 32.421875 48.390625 
Q 24.90625 48.390625 20.390625 44.140625 
Q 15.875 39.890625 15.1875 32.171875 
z
" id="DejaVuSans-101"/>
      <path d="M 45.40625 46.390625 
L 45.40625 75.984375 
L 54.390625 75.984375 
L 54.390625 0 
L 45.40625 0 
L 45.40625 8.203125 
Q 42.578125 3.328125 38.25 0.953125 
Q 33.9375 -1.421875 27.875 -1.421875 
Q 17.96875 -1.421875 11.734375 6.484375 
Q 5.515625 14.40625 5.515625 27.296875 
Q 5.515625 40.1875 11.734375 48.09375 
Q 17.96875 56 27.875 56 
Q 33.9375 56 38.25 53.625 
Q 42.578125 51.265625 45.40625 46.390625 
z
M 14.796875 27.296875 
Q 14.796875 17.390625 18.875 11.75 
Q 22.953125 6.109375 30.078125 6.109375 
Q 37.203125 6.109375 41.296875 11.75 
Q 45.40625 17.390625 45.40625 27.296875 
Q 45.40625 37.203125 41.296875 42.84375 
Q 37.203125 48.484375 30.078125 48.484375 
Q 22.953125 48.484375 18.875 42.84375 
Q 14.796875 37.203125 14.796875 27.296875 
z
" id="DejaVuSans-100"/>
      <path d="M 9.421875 54.6875 
L 18.40625 54.6875 
L 18.40625 0 
L 9.421875 0 
z
M 9.421875 75.984375 
L 18.40625 75.984375 
L 18.40625 64.59375 
L 9.421875 64.59375 
z
" id="DejaVuSans-105"/>
      <path d="M 34.28125 27.484375 
Q 23.390625 27.484375 19.1875 25 
Q 14.984375 22.515625 14.984375 16.5 
Q 14.984375 11.71875 18.140625 8.90625 
Q 21.296875 6.109375 26.703125 6.109375 
Q 34.1875 6.109375 38.703125 11.40625 
Q 43.21875 16.703125 43.21875 25.484375 
L 43.21875 27.484375 
z
M 52.203125 31.203125 
L 52.203125 0 
L 43.21875 0 
L 43.21875 8.296875 
Q 40.140625 3.328125 35.546875 0.953125 
Q 30.953125 -1.421875 24.3125 -1.421875 
Q 15.921875 -1.421875 10.953125 3.296875 
Q 6 8.015625 6 15.921875 
Q 6 25.140625 12.171875 29.828125 
Q 18.359375 34.515625 30.609375 34.515625 
L 43.21875 34.515625 
L 43.21875 35.40625 
Q 43.21875 41.609375 39.140625 45 
Q 35.0625 48.390625 27.6875 48.390625 
Q 23 48.390625 18.546875 47.265625 
Q 14.109375 46.140625 10.015625 43.890625 
L 10.015625 52.203125 
Q 14.9375 54.109375 19.578125 55.046875 
Q 24.21875 56 28.609375 56 
Q 40.484375 56 46.34375 49.84375 
Q 52.203125 43.703125 52.203125 31.203125 
z
" id="DejaVuSans-97"/>
      <path d="M 20.65625 79.984375 
L 30.375 79.984375 
L 14.46875 61.625 
L 6.984375 61.625 
z
M 9.421875 54.6875 
L 18.40625 54.6875 
L 18.40625 0 
L 9.421875 0 
z
M 13.921875 56 
z
" id="DejaVuSans-237"/>
      <path d="M 44.28125 53.078125 
L 44.28125 44.578125 
Q 40.484375 46.53125 36.375 47.5 
Q 32.28125 48.484375 27.875 48.484375 
Q 21.1875 48.484375 17.84375 46.4375 
Q 14.5 44.390625 14.5 40.28125 
Q 14.5 37.15625 16.890625 35.375 
Q 19.28125 33.59375 26.515625 31.984375 
L 29.59375 31.296875 
Q 39.15625 29.25 43.1875 25.515625 
Q 47.21875 21.78125 47.21875 15.09375 
Q 47.21875 7.46875 41.1875 3.015625 
Q 35.15625 -1.421875 24.609375 -1.421875 
Q 20.21875 -1.421875 15.453125 -0.5625 
Q 10.6875 0.296875 5.421875 2 
L 5.421875 11.28125 
Q 10.40625 8.6875 15.234375 7.390625 
Q 20.0625 6.109375 24.8125 6.109375 
Q 31.15625 6.109375 34.5625 8.28125 
Q 37.984375 10.453125 37.984375 14.40625 
Q 37.984375 18.0625 35.515625 20.015625 
Q 33.0625 21.96875 24.703125 23.78125 
L 21.578125 24.515625 
Q 13.234375 26.265625 9.515625 29.90625 
Q 5.8125 33.546875 5.8125 39.890625 
Q 5.8125 47.609375 11.28125 51.796875 
Q 16.75 56 26.8125 56 
Q 31.78125 56 36.171875 55.265625 
Q 40.578125 54.546875 44.28125 53.078125 
z
" id="DejaVuSans-115"/>
      <path d="M 8.015625 75.875 
L 15.828125 75.875 
Q 23.140625 64.359375 26.78125 53.3125 
Q 30.421875 42.28125 30.421875 31.390625 
Q 30.421875 20.453125 26.78125 9.375 
Q 23.140625 -1.703125 15.828125 -13.1875 
L 8.015625 -13.1875 
Q 14.5 -2 17.703125 9.0625 
Q 20.90625 20.125 20.90625 31.390625 
Q 20.90625 42.671875 17.703125 53.65625 
Q 14.5 64.65625 8.015625 75.875 
z
" id="DejaVuSans-41"/>
     </defs>
     <g transform="translate(18.798438 198.848087)rotate(-90)scale(0.1 -0.1)">
      <use xlink:href="#DejaVuSans-82"/>
      <use x="69.482422" xlink:href="#DejaVuSans-73"/>
      <use x="98.974609" xlink:href="#DejaVuSans-32"/>
      <use x="130.761719" xlink:href="#DejaVuSans-112"/>
      <use x="194.238281" xlink:href="#DejaVuSans-99"/>
      <use x="249.21875" xlink:href="#DejaVuSans-114"/>
      <use x="290.332031" xlink:href="#DejaVuSans-32"/>
      <use x="322.119141" xlink:href="#DejaVuSans-40"/>
      <use x="361.132812" xlink:href="#DejaVuSans-77"/>
      <use x="447.412109" xlink:href="#DejaVuSans-101"/>
      <use x="508.935547" xlink:href="#DejaVuSans-100"/>
      <use x="572.412109" xlink:href="#DejaVuSans-105"/>
      <use x="600.195312" xlink:href="#DejaVuSans-97"/>
      <use x="661.474609" xlink:href="#DejaVuSans-32"/>
      <use x="693.261719" xlink:href="#DejaVuSans-51"/>
      <use x="756.884766" xlink:href="#DejaVuSans-32"/>
      <use x="788.671875" xlink:href="#DejaVuSans-100"/>
      <use x="852.148438" xlink:href="#DejaVuSans-237"/>
      <use x="879.931641" xlink:href="#DejaVuSans-97"/>
      <use x="941.210938" xlink:href="#DejaVuSans-115"/>
      <use x="993.310547" xlink:href="#DejaVuSans-41"/>
     </g>
    </g>
   </g>
   <g id="line2d_16">
    <path clip-path="url(#p58a0690564)" d="M 69.103551 279.86258 
L 73.321673 279.86258 
L 77.539796 279.86258 
L 81.757918 279.86258 
L 85.976041 279.86258 
L 90.194163 279.86258 
L 94.412285 279.86258 
L 98.630408 279.420474 
L 102.84853 278.978368 
L 107.066652 276.76784 
L 111.284775 272.78889 
L 115.502897 267.925728 
L 119.721019 262.178356 
L 123.939142 256.430983 
L 128.157264 247.588871 
L 132.375386 232.115175 
L 136.593509 229.020435 
L 140.811631 227.694119 
L 145.029754 233.883597 
L 149.247876 232.55728 
L 153.465998 244.494132 
L 157.684121 256.430983 
L 161.902243 252.009927 
L 166.120365 227.252013 
L 170.338488 210.894106 
L 174.55661 217.083584 
L 178.774732 215.757267 
L 182.992855 197.630938 
L 187.210977 169.336179 
L 191.429099 174.641446 
L 195.647222 158.725645 
L 199.865344 170.22039 
L 204.083467 87.988749 
L 208.301589 55.272934 
L 212.519711 -0.432372 
L 216.737834 60.136096 
L 220.955956 114.515085 
L 225.174078 133.525626 
L 229.392201 125.125619 
L 233.610323 96.830861 
L 237.828445 83.125587 
L 242.046568 54.830828 
L 246.26469 61.020307 
L 250.482813 84.894009 
L 254.700935 121.146669 
L 258.919057 144.13616 
L 263.13718 178.178291 
L 267.355302 159.609856 
L 271.573424 168.009862 
L 275.791547 155.1888 
L 280.009669 192.767776 
L 284.227791 201.167783 
L 288.445914 199.841466 
L 292.664036 223.715168 
L 296.882158 224.157274 
L 301.100281 236.978336 
L 305.318403 228.136224 
L 309.536526 235.209914 
L 313.754648 249.799399 
L 317.97277 245.820448 
L 322.190893 232.999386 
L 326.409015 228.136224 
L 330.627137 226.809907 
L 334.84526 234.767808 
L 339.063382 246.262554 
L 343.281504 258.199405 
L 347.499627 268.367834 
L 351.717749 262.620461 
L 355.935871 263.504672 
L 360.153994 264.830989 
L 364.372116 268.80994 
L 368.590239 271.020468 
L 372.808361 267.483623 
L 377.026483 268.80994 
L 381.244606 268.80994 
L 385.462728 271.020468 
L 389.68085 270.136256 
L 393.898973 272.78889 
L 398.117095 276.325735 
L 402.335217 279.420474 
L 406.55334 277.209946 
L 410.771462 276.325735 
L 414.989584 274.999418 
L 419.207707 275.441524 
L 423.425829 276.325735 
L 427.643952 276.76784 
L 431.862074 275.883629 
" style="fill:none;stroke:#1f77b4;stroke-linecap:square;stroke-width:1.5;"/>
    <defs>
     <path d="M 0 1.5 
C 0.397805 1.5 0.77937 1.341951 1.06066 1.06066 
C 1.341951 0.77937 1.5 0.397805 1.5 0 
C 1.5 -0.397805 1.341951 -0.77937 1.06066 -1.06066 
C 0.77937 -1.341951 0.397805 -1.5 0 -1.5 
C -0.397805 -1.5 -0.77937 -1.341951 -1.06066 -1.06066 
C -1.341951 -0.77937 -1.5 -0.397805 -1.5 0 
C -1.5 0.397805 -1.341951 0.77937 -1.06066 1.06066 
C -0.77937 1.341951 -0.397805 1.5 0 1.5 
z
" id="med281a8eb4" style="stroke:#1f77b4;"/>
    </defs>
    <g clip-path="url(#p58a0690564)">
     <use style="fill:#1f77b4;stroke:#1f77b4;" x="69.103551" xlink:href="#med281a8eb4" y="279.86258"/>
     <use style="fill:#1f77b4;stroke:#1f77b4;" x="73.321673" xlink:href="#med281a8eb4" y="279.86258"/>
     <use style="fill:#1f77b4;stroke:#1f77b4;" x="77.539796" xlink:href="#med281a8eb4" y="279.86258"/>
     <use style="fill:#1f77b4;stroke:#1f77b4;" x="81.757918" xlink:href="#med281a8eb4" y="279.86258"/>
     <use style="fill:#1f77b4;stroke:#1f77b4;" x="85.976041" xlink:href="#med281a8eb4" y="279.86258"/>
     <use style="fill:#1f77b4;stroke:#1f77b4;" x="90.194163" xlink:href="#med281a8eb4" y="279.86258"/>
     <use style="fill:#1f77b4;stroke:#1f77b4;" x="94.412285" xlink:href="#med281a8eb4" y="279.86258"/>
     <use style="fill:#1f77b4;stroke:#1f77b4;" x="98.630408" xlink:href="#med281a8eb4" y="279.420474"/>
     <use style="fill:#1f77b4;stroke:#1f77b4;" x="102.84853" xlink:href="#med281a8eb4" y="278.978368"/>
     <use style="fill:#1f77b4;stroke:#1f77b4;" x="107.066652" xlink:href="#med281a8eb4" y="276.76784"/>
     <use style="fill:#1f77b4;stroke:#1f77b4;" x="111.284775" xlink:href="#med281a8eb4" y="272.78889"/>
     <use style="fill:#1f77b4;stroke:#1f77b4;" x="115.502897" xlink:href="#med281a8eb4" y="267.925728"/>
     <use style="fill:#1f77b4;stroke:#1f77b4;" x="119.721019" xlink:href="#med281a8eb4" y="262.178356"/>
     <use style="fill:#1f77b4;stroke:#1f77b4;" x="123.939142" xlink:href="#med281a8eb4" y="256.430983"/>
     <use style="fill:#1f77b4;stroke:#1f77b4;" x="128.157264" xlink:href="#med281a8eb4" y="247.588871"/>
     <use style="fill:#1f77b4;stroke:#1f77b4;" x="132.375386" xlink:href="#med281a8eb4" y="232.115175"/>
     <use style="fill:#1f77b4;stroke:#1f77b4;" x="136.593509" xlink:href="#med281a8eb4" y="229.020435"/>
     <use style="fill:#1f77b4;stroke:#1f77b4;" x="140.811631" xlink:href="#med281a8eb4" y="227.694119"/>
     <use style="fill:#1f77b4;stroke:#1f77b4;" x="145.029754" xlink:href="#med281a8eb4" y="233.883597"/>
     <use style="fill:#1f77b4;stroke:#1f77b4;" x="149.247876" xlink:href="#med281a8eb4" y="232.55728"/>
     <use style="fill:#1f77b4;stroke:#1f77b4;" x="153.465998" xlink:href="#med281a8eb4" y="244.494132"/>
     <use style="fill:#1f77b4;stroke:#1f77b4;" x="157.684121" xlink:href="#med281a8eb4" y="256.430983"/>
     <use style="fill:#1f77b4;stroke:#1f77b4;" x="161.902243" xlink:href="#med281a8eb4" y="252.009927"/>
     <use style="fill:#1f77b4;stroke:#1f77b4;" x="166.120365" xlink:href="#med281a8eb4" y="227.252013"/>
     <use style="fill:#1f77b4;stroke:#1f77b4;" x="170.338488" xlink:href="#med281a8eb4" y="210.894106"/>
     <use style="fill:#1f77b4;stroke:#1f77b4;" x="174.55661" xlink:href="#med281a8eb4" y="217.083584"/>
     <use style="fill:#1f77b4;stroke:#1f77b4;" x="178.774732" xlink:href="#med281a8eb4" y="215.757267"/>
     <use style="fill:#1f77b4;stroke:#1f77b4;" x="182.992855" xlink:href="#med281a8eb4" y="197.630938"/>
     <use style="fill:#1f77b4;stroke:#1f77b4;" x="187.210977" xlink:href="#med281a8eb4" y="169.336179"/>
     <use style="fill:#1f77b4;stroke:#1f77b4;" x="191.429099" xlink:href="#med281a8eb4" y="174.641446"/>
     <use style="fill:#1f77b4;stroke:#1f77b4;" x="195.647222" xlink:href="#med281a8eb4" y="158.725645"/>
     <use style="fill:#1f77b4;stroke:#1f77b4;" x="199.865344" xlink:href="#med281a8eb4" y="170.22039"/>
     <use style="fill:#1f77b4;stroke:#1f77b4;" x="204.083467" xlink:href="#med281a8eb4" y="87.988749"/>
     <use style="fill:#1f77b4;stroke:#1f77b4;" x="208.301589" xlink:href="#med281a8eb4" y="55.272934"/>
     <use style="fill:#1f77b4;stroke:#1f77b4;" x="212.519711" xlink:href="#med281a8eb4" y="-0.432372"/>
     <use style="fill:#1f77b4;stroke:#1f77b4;" x="216.737834" xlink:href="#med281a8eb4" y="60.136096"/>
     <use style="fill:#1f77b4;stroke:#1f77b4;" x="220.955956" xlink:href="#med281a8eb4" y="114.515085"/>
     <use style="fill:#1f77b4;stroke:#1f77b4;" x="225.174078" xlink:href="#med281a8eb4" y="133.525626"/>
     <use style="fill:#1f77b4;stroke:#1f77b4;" x="229.392201" xlink:href="#med281a8eb4" y="125.125619"/>
     <use style="fill:#1f77b4;stroke:#1f77b4;" x="233.610323" xlink:href="#med281a8eb4" y="96.830861"/>
     <use style="fill:#1f77b4;stroke:#1f77b4;" x="237.828445" xlink:href="#med281a8eb4" y="83.125587"/>
     <use style="fill:#1f77b4;stroke:#1f77b4;" x="242.046568" xlink:href="#med281a8eb4" y="54.830828"/>
     <use style="fill:#1f77b4;stroke:#1f77b4;" x="246.26469" xlink:href="#med281a8eb4" y="61.020307"/>
     <use style="fill:#1f77b4;stroke:#1f77b4;" x="250.482813" xlink:href="#med281a8eb4" y="84.894009"/>
     <use style="fill:#1f77b4;stroke:#1f77b4;" x="254.700935" xlink:href="#med281a8eb4" y="121.146669"/>
     <use style="fill:#1f77b4;stroke:#1f77b4;" x="258.919057" xlink:href="#med281a8eb4" y="144.13616"/>
     <use style="fill:#1f77b4;stroke:#1f77b4;" x="263.13718" xlink:href="#med281a8eb4" y="178.178291"/>
     <use style="fill:#1f77b4;stroke:#1f77b4;" x="267.355302" xlink:href="#med281a8eb4" y="159.609856"/>
     <use style="fill:#1f77b4;stroke:#1f77b4;" x="271.573424" xlink:href="#med281a8eb4" y="168.009862"/>
     <use style="fill:#1f77b4;stroke:#1f77b4;" x="275.791547" xlink:href="#med281a8eb4" y="155.1888"/>
     <use style="fill:#1f77b4;stroke:#1f77b4;" x="280.009669" xlink:href="#med281a8eb4" y="192.767776"/>
     <use style="fill:#1f77b4;stroke:#1f77b4;" x="284.227791" xlink:href="#med281a8eb4" y="201.167783"/>
     <use style="fill:#1f77b4;stroke:#1f77b4;" x="288.445914" xlink:href="#med281a8eb4" y="199.841466"/>
     <use style="fill:#1f77b4;stroke:#1f77b4;" x="292.664036" xlink:href="#med281a8eb4" y="223.715168"/>
     <use style="fill:#1f77b4;stroke:#1f77b4;" x="296.882158" xlink:href="#med281a8eb4" y="224.157274"/>
     <use style="fill:#1f77b4;stroke:#1f77b4;" x="301.100281" xlink:href="#med281a8eb4" y="236.978336"/>
     <use style="fill:#1f77b4;stroke:#1f77b4;" x="305.318403" xlink:href="#med281a8eb4" y="228.136224"/>
     <use style="fill:#1f77b4;stroke:#1f77b4;" x="309.536526" xlink:href="#med281a8eb4" y="235.209914"/>
     <use style="fill:#1f77b4;stroke:#1f77b4;" x="313.754648" xlink:href="#med281a8eb4" y="249.799399"/>
     <use style="fill:#1f77b4;stroke:#1f77b4;" x="317.97277" xlink:href="#med281a8eb4" y="245.820448"/>
     <use style="fill:#1f77b4;stroke:#1f77b4;" x="322.190893" xlink:href="#med281a8eb4" y="232.999386"/>
     <use style="fill:#1f77b4;stroke:#1f77b4;" x="326.409015" xlink:href="#med281a8eb4" y="228.136224"/>
     <use style="fill:#1f77b4;stroke:#1f77b4;" x="330.627137" xlink:href="#med281a8eb4" y="226.809907"/>
     <use style="fill:#1f77b4;stroke:#1f77b4;" x="334.84526" xlink:href="#med281a8eb4" y="234.767808"/>
     <use style="fill:#1f77b4;stroke:#1f77b4;" x="339.063382" xlink:href="#med281a8eb4" y="246.262554"/>
     <use style="fill:#1f77b4;stroke:#1f77b4;" x="343.281504" xlink:href="#med281a8eb4" y="258.199405"/>
     <use style="fill:#1f77b4;stroke:#1f77b4;" x="347.499627" xlink:href="#med281a8eb4" y="268.367834"/>
     <use style="fill:#1f77b4;stroke:#1f77b4;" x="351.717749" xlink:href="#med281a8eb4" y="262.620461"/>
     <use style="fill:#1f77b4;stroke:#1f77b4;" x="355.935871" xlink:href="#med281a8eb4" y="263.504672"/>
     <use style="fill:#1f77b4;stroke:#1f77b4;" x="360.153994" xlink:href="#med281a8eb4" y="264.830989"/>
     <use style="fill:#1f77b4;stroke:#1f77b4;" x="364.372116" xlink:href="#med281a8eb4" y="268.80994"/>
     <use style="fill:#1f77b4;stroke:#1f77b4;" x="368.590239" xlink:href="#med281a8eb4" y="271.020468"/>
     <use style="fill:#1f77b4;stroke:#1f77b4;" x="372.808361" xlink:href="#med281a8eb4" y="267.483623"/>
     <use style="fill:#1f77b4;stroke:#1f77b4;" x="377.026483" xlink:href="#med281a8eb4" y="268.80994"/>
     <use style="fill:#1f77b4;stroke:#1f77b4;" x="381.244606" xlink:href="#med281a8eb4" y="268.80994"/>
     <use style="fill:#1f77b4;stroke:#1f77b4;" x="385.462728" xlink:href="#med281a8eb4" y="271.020468"/>
     <use style="fill:#1f77b4;stroke:#1f77b4;" x="389.68085" xlink:href="#med281a8eb4" y="270.136256"/>
     <use style="fill:#1f77b4;stroke:#1f77b4;" x="393.898973" xlink:href="#med281a8eb4" y="272.78889"/>
     <use style="fill:#1f77b4;stroke:#1f77b4;" x="398.117095" xlink:href="#med281a8eb4" y="276.325735"/>
     <use style="fill:#1f77b4;stroke:#1f77b4;" x="402.335217" xlink:href="#med281a8eb4" y="279.420474"/>
     <use style="fill:#1f77b4;stroke:#1f77b4;" x="406.55334" xlink:href="#med281a8eb4" y="277.209946"/>
     <use style="fill:#1f77b4;stroke:#1f77b4;" x="410.771462" xlink:href="#med281a8eb4" y="276.325735"/>
     <use style="fill:#1f77b4;stroke:#1f77b4;" x="414.989584" xlink:href="#med281a8eb4" y="274.999418"/>
     <use style="fill:#1f77b4;stroke:#1f77b4;" x="419.207707" xlink:href="#med281a8eb4" y="275.441524"/>
     <use style="fill:#1f77b4;stroke:#1f77b4;" x="423.425829" xlink:href="#med281a8eb4" y="276.325735"/>
     <use style="fill:#1f77b4;stroke:#1f77b4;" x="427.643952" xlink:href="#med281a8eb4" y="276.76784"/>
     <use style="fill:#1f77b4;stroke:#1f77b4;" x="431.862074" xlink:href="#med281a8eb4" y="275.883629"/>
    </g>
   </g>
   <g id="patch_3">
    <path d="M 50.965625 279.86258 
L 50.965625 14.599219 
" style="fill:none;stroke:#000000;stroke-linecap:square;stroke-linejoin:miter;stroke-width:0.8;"/>
   </g>
   <g id="patch_4">
    <path d="M 450 279.86258 
L 450 14.599219 
" style="fill:none;stroke:#000000;stroke-linecap:square;stroke-linejoin:miter;stroke-width:0.8;"/>
   </g>
   <g id="patch_5">
    <path d="M 50.965625 279.86258 
L 450 279.86258 
" style="fill:none;stroke:#000000;stroke-linecap:square;stroke-linejoin:miter;stroke-width:0.8;"/>
   </g>
   <g id="patch_6">
    <path d="M 50.965625 14.599219 
L 450 14.599219 
" style="fill:none;stroke:#000000;stroke-linecap:square;stroke-linejoin:miter;stroke-width:0.8;"/>
   </g>
  </g>
 </g>
 <defs>
  <clipPath id="p58a0690564">
   <rect height="265.263361" width="399.034375" x="50.965625" y="14.599219"/>
  </clipPath>
 </defs>
</svg>
