<?xml version="1.0" encoding="utf-8" standalone="no"?>
<!DOCTYPE svg PUBLIC "-//W3C//DTD SVG 1.1//EN"
  "http://www.w3.org/Graphics/SVG/1.1/DTD/svg11.dtd">
<!-- Created with matplotlib (https://matplotlib.org/) -->
<svg height="345.6pt" version="1.1" viewBox="0 0 460.8 345.6" width="460.8pt" xmlns="http://www.w3.org/2000/svg" xmlns:xlink="http://www.w3.org/1999/xlink">
 <defs>
  <style type="text/css">
*{stroke-linecap:butt;stroke-linejoin:round;}
  </style>
 </defs>
 <g id="figure_1">
  <g id="patch_1">
   <path d="M 0 345.6 
L 460.8 345.6 
L 460.8 0 
L 0 0 
z
" style="fill:#ffffff;"/>
  </g>
  <g id="axes_1">
   <g id="patch_2">
    <path d="M 50.965625 279.86258 
L 429.935363 279.86258 
L 429.935363 10.8 
L 50.965625 10.8 
z
" style="fill:#ffffff;"/>
   </g>
   <g id="matplotlib.axis_1">
    <g id="xtick_1">
     <g id="line2d_1">
      <defs>
       <path d="M 0 0 
L 0 3.5 
" id="m833aa94620" style="stroke:#000000;stroke-width:0.8;"/>
      </defs>
      <g>
       <use style="stroke:#000000;stroke-width:0.8;" x="98.718429" xlink:href="#m833aa94620" y="279.86258"/>
      </g>
     </g>
     <g id="text_1">
      <!-- 2020-03-01 -->
      <defs>
       <path d="M 19.1875 8.296875 
L 53.609375 8.296875 
L 53.609375 0 
L 7.328125 0 
L 7.328125 8.296875 
Q 12.9375 14.109375 22.625 23.890625 
Q 32.328125 33.6875 34.8125 36.53125 
Q 39.546875 41.84375 41.421875 45.53125 
Q 43.3125 49.21875 43.3125 52.78125 
Q 43.3125 58.59375 39.234375 62.25 
Q 35.15625 65.921875 28.609375 65.921875 
Q 23.96875 65.921875 18.8125 64.3125 
Q 13.671875 62.703125 7.8125 59.421875 
L 7.8125 69.390625 
Q 13.765625 71.78125 18.9375 73 
Q 24.125 74.21875 28.421875 74.21875 
Q 39.75 74.21875 46.484375 68.546875 
Q 53.21875 62.890625 53.21875 53.421875 
Q 53.21875 48.921875 51.53125 44.890625 
Q 49.859375 40.875 45.40625 35.40625 
Q 44.1875 33.984375 37.640625 27.21875 
Q 31.109375 20.453125 19.1875 8.296875 
z
" id="DejaVuSans-50"/>
       <path d="M 31.78125 66.40625 
Q 24.171875 66.40625 20.328125 58.90625 
Q 16.5 51.421875 16.5 36.375 
Q 16.5 21.390625 20.328125 13.890625 
Q 24.171875 6.390625 31.78125 6.390625 
Q 39.453125 6.390625 43.28125 13.890625 
Q 47.125 21.390625 47.125 36.375 
Q 47.125 51.421875 43.28125 58.90625 
Q 39.453125 66.40625 31.78125 66.40625 
z
M 31.78125 74.21875 
Q 44.046875 74.21875 50.515625 64.515625 
Q 56.984375 54.828125 56.984375 36.375 
Q 56.984375 17.96875 50.515625 8.265625 
Q 44.046875 -1.421875 31.78125 -1.421875 
Q 19.53125 -1.421875 13.0625 8.265625 
Q 6.59375 17.96875 6.59375 36.375 
Q 6.59375 54.828125 13.0625 64.515625 
Q 19.53125 74.21875 31.78125 74.21875 
z
" id="DejaVuSans-48"/>
       <path d="M 4.890625 31.390625 
L 31.203125 31.390625 
L 31.203125 23.390625 
L 4.890625 23.390625 
z
" id="DejaVuSans-45"/>
       <path d="M 40.578125 39.3125 
Q 47.65625 37.796875 51.625 33 
Q 55.609375 28.21875 55.609375 21.1875 
Q 55.609375 10.40625 48.1875 4.484375 
Q 40.765625 -1.421875 27.09375 -1.421875 
Q 22.515625 -1.421875 17.65625 -0.515625 
Q 12.796875 0.390625 7.625 2.203125 
L 7.625 11.71875 
Q 11.71875 9.328125 16.59375 8.109375 
Q 21.484375 6.890625 26.8125 6.890625 
Q 36.078125 6.890625 40.9375 10.546875 
Q 45.796875 14.203125 45.796875 21.1875 
Q 45.796875 27.640625 41.28125 31.265625 
Q 36.765625 34.90625 28.71875 34.90625 
L 20.21875 34.90625 
L 20.21875 43.015625 
L 29.109375 43.015625 
Q 36.375 43.015625 40.234375 45.921875 
Q 44.09375 48.828125 44.09375 54.296875 
Q 44.09375 59.90625 40.109375 62.90625 
Q 36.140625 65.921875 28.71875 65.921875 
Q 24.65625 65.921875 20.015625 65.03125 
Q 15.375 64.15625 9.8125 62.3125 
L 9.8125 71.09375 
Q 15.4375 72.65625 20.34375 73.4375 
Q 25.25 74.21875 29.59375 74.21875 
Q 40.828125 74.21875 47.359375 69.109375 
Q 53.90625 64.015625 53.90625 55.328125 
Q 53.90625 49.265625 50.4375 45.09375 
Q 46.96875 40.921875 40.578125 39.3125 
z
" id="DejaVuSans-51"/>
       <path d="M 12.40625 8.296875 
L 28.515625 8.296875 
L 28.515625 63.921875 
L 10.984375 60.40625 
L 10.984375 69.390625 
L 28.421875 72.90625 
L 38.28125 72.90625 
L 38.28125 8.296875 
L 54.390625 8.296875 
L 54.390625 0 
L 12.40625 0 
z
" id="DejaVuSans-49"/>
      </defs>
      <g transform="translate(80.122625 333.329439)rotate(-45)scale(0.1 -0.1)">
       <use xlink:href="#DejaVuSans-50"/>
       <use x="63.623047" xlink:href="#DejaVuSans-48"/>
       <use x="127.246094" xlink:href="#DejaVuSans-50"/>
       <use x="190.869141" xlink:href="#DejaVuSans-48"/>
       <use x="254.492188" xlink:href="#DejaVuSans-45"/>
       <use x="290.576172" xlink:href="#DejaVuSans-48"/>
       <use x="354.199219" xlink:href="#DejaVuSans-51"/>
       <use x="417.822266" xlink:href="#DejaVuSans-45"/>
       <use x="453.90625" xlink:href="#DejaVuSans-48"/>
       <use x="517.529297" xlink:href="#DejaVuSans-49"/>
      </g>
     </g>
    </g>
    <g id="xtick_2">
     <g id="line2d_2">
      <g>
       <use style="stroke:#000000;stroke-width:0.8;" x="159.772242" xlink:href="#m833aa94620" y="279.86258"/>
      </g>
     </g>
     <g id="text_2">
      <!-- 2020-03-15 -->
      <defs>
       <path d="M 10.796875 72.90625 
L 49.515625 72.90625 
L 49.515625 64.59375 
L 19.828125 64.59375 
L 19.828125 46.734375 
Q 21.96875 47.46875 24.109375 47.828125 
Q 26.265625 48.1875 28.421875 48.1875 
Q 40.625 48.1875 47.75 41.5 
Q 54.890625 34.8125 54.890625 23.390625 
Q 54.890625 11.625 47.5625 5.09375 
Q 40.234375 -1.421875 26.90625 -1.421875 
Q 22.3125 -1.421875 17.546875 -0.640625 
Q 12.796875 0.140625 7.71875 1.703125 
L 7.71875 11.625 
Q 12.109375 9.234375 16.796875 8.0625 
Q 21.484375 6.890625 26.703125 6.890625 
Q 35.15625 6.890625 40.078125 11.328125 
Q 45.015625 15.765625 45.015625 23.390625 
Q 45.015625 31 40.078125 35.4375 
Q 35.15625 39.890625 26.703125 39.890625 
Q 22.75 39.890625 18.8125 39.015625 
Q 14.890625 38.140625 10.796875 36.28125 
z
" id="DejaVuSans-53"/>
      </defs>
      <g transform="translate(141.176438 333.329439)rotate(-45)scale(0.1 -0.1)">
       <use xlink:href="#DejaVuSans-50"/>
       <use x="63.623047" xlink:href="#DejaVuSans-48"/>
       <use x="127.246094" xlink:href="#DejaVuSans-50"/>
       <use x="190.869141" xlink:href="#DejaVuSans-48"/>
       <use x="254.492188" xlink:href="#DejaVuSans-45"/>
       <use x="290.576172" xlink:href="#DejaVuSans-48"/>
       <use x="354.199219" xlink:href="#DejaVuSans-51"/>
       <use x="417.822266" xlink:href="#DejaVuSans-45"/>
       <use x="453.90625" xlink:href="#DejaVuSans-49"/>
       <use x="517.529297" xlink:href="#DejaVuSans-53"/>
      </g>
     </g>
    </g>
    <g id="xtick_3">
     <g id="line2d_3">
      <g>
       <use style="stroke:#000000;stroke-width:0.8;" x="233.909014" xlink:href="#m833aa94620" y="279.86258"/>
      </g>
     </g>
     <g id="text_3">
      <!-- 2020-04-01 -->
      <defs>
       <path d="M 37.796875 64.3125 
L 12.890625 25.390625 
L 37.796875 25.390625 
z
M 35.203125 72.90625 
L 47.609375 72.90625 
L 47.609375 25.390625 
L 58.015625 25.390625 
L 58.015625 17.1875 
L 47.609375 17.1875 
L 47.609375 0 
L 37.796875 0 
L 37.796875 17.1875 
L 4.890625 17.1875 
L 4.890625 26.703125 
z
" id="DejaVuSans-52"/>
      </defs>
      <g transform="translate(215.313211 333.329439)rotate(-45)scale(0.1 -0.1)">
       <use xlink:href="#DejaVuSans-50"/>
       <use x="63.623047" xlink:href="#DejaVuSans-48"/>
       <use x="127.246094" xlink:href="#DejaVuSans-50"/>
       <use x="190.869141" xlink:href="#DejaVuSans-48"/>
       <use x="254.492188" xlink:href="#DejaVuSans-45"/>
       <use x="290.576172" xlink:href="#DejaVuSans-48"/>
       <use x="354.199219" xlink:href="#DejaVuSans-52"/>
       <use x="417.822266" xlink:href="#DejaVuSans-45"/>
       <use x="453.90625" xlink:href="#DejaVuSans-48"/>
       <use x="517.529297" xlink:href="#DejaVuSans-49"/>
      </g>
     </g>
    </g>
    <g id="xtick_4">
     <g id="line2d_4">
      <g>
       <use style="stroke:#000000;stroke-width:0.8;" x="294.962827" xlink:href="#m833aa94620" y="279.86258"/>
      </g>
     </g>
     <g id="text_4">
      <!-- 2020-04-15 -->
      <g transform="translate(276.367024 333.329439)rotate(-45)scale(0.1 -0.1)">
       <use xlink:href="#DejaVuSans-50"/>
       <use x="63.623047" xlink:href="#DejaVuSans-48"/>
       <use x="127.246094" xlink:href="#DejaVuSans-50"/>
       <use x="190.869141" xlink:href="#DejaVuSans-48"/>
       <use x="254.492188" xlink:href="#DejaVuSans-45"/>
       <use x="290.576172" xlink:href="#DejaVuSans-48"/>
       <use x="354.199219" xlink:href="#DejaVuSans-52"/>
       <use x="417.822266" xlink:href="#DejaVuSans-45"/>
       <use x="453.90625" xlink:href="#DejaVuSans-49"/>
       <use x="517.529297" xlink:href="#DejaVuSans-53"/>
      </g>
     </g>
    </g>
    <g id="xtick_5">
     <g id="line2d_5">
      <g>
       <use style="stroke:#000000;stroke-width:0.8;" x="364.738613" xlink:href="#m833aa94620" y="279.86258"/>
      </g>
     </g>
     <g id="text_5">
      <!-- 2020-05-01 -->
      <g transform="translate(346.14281 333.329439)rotate(-45)scale(0.1 -0.1)">
       <use xlink:href="#DejaVuSans-50"/>
       <use x="63.623047" xlink:href="#DejaVuSans-48"/>
       <use x="127.246094" xlink:href="#DejaVuSans-50"/>
       <use x="190.869141" xlink:href="#DejaVuSans-48"/>
       <use x="254.492188" xlink:href="#DejaVuSans-45"/>
       <use x="290.576172" xlink:href="#DejaVuSans-48"/>
       <use x="354.199219" xlink:href="#DejaVuSans-53"/>
       <use x="417.822266" xlink:href="#DejaVuSans-45"/>
       <use x="453.90625" xlink:href="#DejaVuSans-48"/>
       <use x="517.529297" xlink:href="#DejaVuSans-49"/>
      </g>
     </g>
    </g>
    <g id="xtick_6">
     <g id="line2d_6">
      <g>
       <use style="stroke:#000000;stroke-width:0.8;" x="425.792426" xlink:href="#m833aa94620" y="279.86258"/>
      </g>
     </g>
     <g id="text_6">
      <!-- 2020-05-15 -->
      <g transform="translate(407.196623 333.329439)rotate(-45)scale(0.1 -0.1)">
       <use xlink:href="#DejaVuSans-50"/>
       <use x="63.623047" xlink:href="#DejaVuSans-48"/>
       <use x="127.246094" xlink:href="#DejaVuSans-50"/>
       <use x="190.869141" xlink:href="#DejaVuSans-48"/>
       <use x="254.492188" xlink:href="#DejaVuSans-45"/>
       <use x="290.576172" xlink:href="#DejaVuSans-48"/>
       <use x="354.199219" xlink:href="#DejaVuSans-53"/>
       <use x="417.822266" xlink:href="#DejaVuSans-45"/>
       <use x="453.90625" xlink:href="#DejaVuSans-49"/>
       <use x="517.529297" xlink:href="#DejaVuSans-53"/>
      </g>
     </g>
    </g>
   </g>
   <g id="matplotlib.axis_2">
    <g id="ytick_1">
     <g id="line2d_7">
      <defs>
       <path d="M 0 0 
L -3.5 0 
" id="m6a3b686fd8" style="stroke:#000000;stroke-width:0.8;"/>
      </defs>
      <g>
       <use style="stroke:#000000;stroke-width:0.8;" x="50.965625" xlink:href="#m6a3b686fd8" y="279.86258"/>
      </g>
     </g>
     <g id="text_7">
      <!-- 0 -->
      <g transform="translate(37.603125 283.661798)scale(0.1 -0.1)">
       <use xlink:href="#DejaVuSans-48"/>
      </g>
     </g>
    </g>
    <g id="ytick_2">
     <g id="line2d_8">
      <g>
       <use style="stroke:#000000;stroke-width:0.8;" x="50.965625" xlink:href="#m6a3b686fd8" y="249.549085"/>
      </g>
     </g>
     <g id="text_8">
      <!-- 25 -->
      <g transform="translate(31.240625 253.348304)scale(0.1 -0.1)">
       <use xlink:href="#DejaVuSans-50"/>
       <use x="63.623047" xlink:href="#DejaVuSans-53"/>
      </g>
     </g>
    </g>
    <g id="ytick_3">
     <g id="line2d_9">
      <g>
       <use style="stroke:#000000;stroke-width:0.8;" x="50.965625" xlink:href="#m6a3b686fd8" y="219.23559"/>
      </g>
     </g>
     <g id="text_9">
      <!-- 50 -->
      <g transform="translate(31.240625 223.034809)scale(0.1 -0.1)">
       <use xlink:href="#DejaVuSans-53"/>
       <use x="63.623047" xlink:href="#DejaVuSans-48"/>
      </g>
     </g>
    </g>
    <g id="ytick_4">
     <g id="line2d_10">
      <g>
       <use style="stroke:#000000;stroke-width:0.8;" x="50.965625" xlink:href="#m6a3b686fd8" y="188.922095"/>
      </g>
     </g>
     <g id="text_10">
      <!-- 75 -->
      <defs>
       <path d="M 8.203125 72.90625 
L 55.078125 72.90625 
L 55.078125 68.703125 
L 28.609375 0 
L 18.3125 0 
L 43.21875 64.59375 
L 8.203125 64.59375 
z
" id="DejaVuSans-55"/>
      </defs>
      <g transform="translate(31.240625 192.721314)scale(0.1 -0.1)">
       <use xlink:href="#DejaVuSans-55"/>
       <use x="63.623047" xlink:href="#DejaVuSans-53"/>
      </g>
     </g>
    </g>
    <g id="ytick_5">
     <g id="line2d_11">
      <g>
       <use style="stroke:#000000;stroke-width:0.8;" x="50.965625" xlink:href="#m6a3b686fd8" y="158.608601"/>
      </g>
     </g>
     <g id="text_11">
      <!-- 100 -->
      <g transform="translate(24.878125 162.407819)scale(0.1 -0.1)">
       <use xlink:href="#DejaVuSans-49"/>
       <use x="63.623047" xlink:href="#DejaVuSans-48"/>
       <use x="127.246094" xlink:href="#DejaVuSans-48"/>
      </g>
     </g>
    </g>
    <g id="ytick_6">
     <g id="line2d_12">
      <g>
       <use style="stroke:#000000;stroke-width:0.8;" x="50.965625" xlink:href="#m6a3b686fd8" y="128.295106"/>
      </g>
     </g>
     <g id="text_12">
      <!-- 125 -->
      <g transform="translate(24.878125 132.094325)scale(0.1 -0.1)">
       <use xlink:href="#DejaVuSans-49"/>
       <use x="63.623047" xlink:href="#DejaVuSans-50"/>
       <use x="127.246094" xlink:href="#DejaVuSans-53"/>
      </g>
     </g>
    </g>
    <g id="ytick_7">
     <g id="line2d_13">
      <g>
       <use style="stroke:#000000;stroke-width:0.8;" x="50.965625" xlink:href="#m6a3b686fd8" y="97.981611"/>
      </g>
     </g>
     <g id="text_13">
      <!-- 150 -->
      <g transform="translate(24.878125 101.78083)scale(0.1 -0.1)">
       <use xlink:href="#DejaVuSans-49"/>
       <use x="63.623047" xlink:href="#DejaVuSans-53"/>
       <use x="127.246094" xlink:href="#DejaVuSans-48"/>
      </g>
     </g>
    </g>
    <g id="ytick_8">
     <g id="line2d_14">
      <g>
       <use style="stroke:#000000;stroke-width:0.8;" x="50.965625" xlink:href="#m6a3b686fd8" y="67.668116"/>
      </g>
     </g>
     <g id="text_14">
      <!-- 175 -->
      <g transform="translate(24.878125 71.467335)scale(0.1 -0.1)">
       <use xlink:href="#DejaVuSans-49"/>
       <use x="63.623047" xlink:href="#DejaVuSans-55"/>
       <use x="127.246094" xlink:href="#DejaVuSans-53"/>
      </g>
     </g>
    </g>
    <g id="ytick_9">
     <g id="line2d_15">
      <g>
       <use style="stroke:#000000;stroke-width:0.8;" x="50.965625" xlink:href="#m6a3b686fd8" y="37.354621"/>
      </g>
     </g>
     <g id="text_15">
      <!-- 200 -->
      <g transform="translate(24.878125 41.15384)scale(0.1 -0.1)">
       <use xlink:href="#DejaVuSans-50"/>
       <use x="63.623047" xlink:href="#DejaVuSans-48"/>
       <use x="127.246094" xlink:href="#DejaVuSans-48"/>
      </g>
     </g>
    </g>
    <g id="text_16">
     <!-- RI pcr (Media 3 días) -->
     <defs>
      <path d="M 44.390625 34.1875 
Q 47.5625 33.109375 50.5625 29.59375 
Q 53.5625 26.078125 56.59375 19.921875 
L 66.609375 0 
L 56 0 
L 46.6875 18.703125 
Q 43.0625 26.03125 39.671875 28.421875 
Q 36.28125 30.8125 30.421875 30.8125 
L 19.671875 30.8125 
L 19.671875 0 
L 9.8125 0 
L 9.8125 72.90625 
L 32.078125 72.90625 
Q 44.578125 72.90625 50.734375 67.671875 
Q 56.890625 62.453125 56.890625 51.90625 
Q 56.890625 45.015625 53.6875 40.46875 
Q 50.484375 35.9375 44.390625 34.1875 
z
M 19.671875 64.796875 
L 19.671875 38.921875 
L 32.078125 38.921875 
Q 39.203125 38.921875 42.84375 42.21875 
Q 46.484375 45.515625 46.484375 51.90625 
Q 46.484375 58.296875 42.84375 61.546875 
Q 39.203125 64.796875 32.078125 64.796875 
z
" id="DejaVuSans-82"/>
      <path d="M 9.8125 72.90625 
L 19.671875 72.90625 
L 19.671875 0 
L 9.8125 0 
z
" id="DejaVuSans-73"/>
      <path id="DejaVuSans-32"/>
      <path d="M 18.109375 8.203125 
L 18.109375 -20.796875 
L 9.078125 -20.796875 
L 9.078125 54.6875 
L 18.109375 54.6875 
L 18.109375 46.390625 
Q 20.953125 51.265625 25.265625 53.625 
Q 29.59375 56 35.59375 56 
Q 45.5625 56 51.78125 48.09375 
Q 58.015625 40.1875 58.015625 27.296875 
Q 58.015625 14.40625 51.78125 6.484375 
Q 45.5625 -1.421875 35.59375 -1.421875 
Q 29.59375 -1.421875 25.265625 0.953125 
Q 20.953125 3.328125 18.109375 8.203125 
z
M 48.6875 27.296875 
Q 48.6875 37.203125 44.609375 42.84375 
Q 40.53125 48.484375 33.40625 48.484375 
Q 26.265625 48.484375 22.1875 42.84375 
Q 18.109375 37.203125 18.109375 27.296875 
Q 18.109375 17.390625 22.1875 11.75 
Q 26.265625 6.109375 33.40625 6.109375 
Q 40.53125 6.109375 44.609375 11.75 
Q 48.6875 17.390625 48.6875 27.296875 
z
" id="DejaVuSans-112"/>
      <path d="M 48.78125 52.59375 
L 48.78125 44.1875 
Q 44.96875 46.296875 41.140625 47.34375 
Q 37.3125 48.390625 33.40625 48.390625 
Q 24.65625 48.390625 19.8125 42.84375 
Q 14.984375 37.3125 14.984375 27.296875 
Q 14.984375 17.28125 19.8125 11.734375 
Q 24.65625 6.203125 33.40625 6.203125 
Q 37.3125 6.203125 41.140625 7.25 
Q 44.96875 8.296875 48.78125 10.40625 
L 48.78125 2.09375 
Q 45.015625 0.34375 40.984375 -0.53125 
Q 36.96875 -1.421875 32.421875 -1.421875 
Q 20.0625 -1.421875 12.78125 6.34375 
Q 5.515625 14.109375 5.515625 27.296875 
Q 5.515625 40.671875 12.859375 48.328125 
Q 20.21875 56 33.015625 56 
Q 37.15625 56 41.109375 55.140625 
Q 45.0625 54.296875 48.78125 52.59375 
z
" id="DejaVuSans-99"/>
      <path d="M 41.109375 46.296875 
Q 39.59375 47.171875 37.8125 47.578125 
Q 36.03125 48 33.890625 48 
Q 26.265625 48 22.1875 43.046875 
Q 18.109375 38.09375 18.109375 28.8125 
L 18.109375 0 
L 9.078125 0 
L 9.078125 54.6875 
L 18.109375 54.6875 
L 18.109375 46.1875 
Q 20.953125 51.171875 25.484375 53.578125 
Q 30.03125 56 36.53125 56 
Q 37.453125 56 38.578125 55.875 
Q 39.703125 55.765625 41.0625 55.515625 
z
" id="DejaVuSans-114"/>
      <path d="M 31 75.875 
Q 24.46875 64.65625 21.28125 53.65625 
Q 18.109375 42.671875 18.109375 31.390625 
Q 18.109375 20.125 21.3125 9.0625 
Q 24.515625 -2 31 -13.1875 
L 23.1875 -13.1875 
Q 15.875 -1.703125 12.234375 9.375 
Q 8.59375 20.453125 8.59375 31.390625 
Q 8.59375 42.28125 12.203125 53.3125 
Q 15.828125 64.359375 23.1875 75.875 
z
" id="DejaVuSans-40"/>
      <path d="M 9.8125 72.90625 
L 24.515625 72.90625 
L 43.109375 23.296875 
L 61.8125 72.90625 
L 76.515625 72.90625 
L 76.515625 0 
L 66.890625 0 
L 66.890625 64.015625 
L 48.09375 14.015625 
L 38.1875 14.015625 
L 19.390625 64.015625 
L 19.390625 0 
L 9.8125 0 
z
" id="DejaVuSans-77"/>
      <path d="M 56.203125 29.59375 
L 56.203125 25.203125 
L 14.890625 25.203125 
Q 15.484375 15.921875 20.484375 11.0625 
Q 25.484375 6.203125 34.421875 6.203125 
Q 39.59375 6.203125 44.453125 7.46875 
Q 49.3125 8.734375 54.109375 11.28125 
L 54.109375 2.78125 
Q 49.265625 0.734375 44.1875 -0.34375 
Q 39.109375 -1.421875 33.890625 -1.421875 
Q 20.796875 -1.421875 13.15625 6.1875 
Q 5.515625 13.8125 5.515625 26.8125 
Q 5.515625 40.234375 12.765625 48.109375 
Q 20.015625 56 32.328125 56 
Q 43.359375 56 49.78125 48.890625 
Q 56.203125 41.796875 56.203125 29.59375 
z
M 47.21875 32.234375 
Q 47.125 39.59375 43.09375 43.984375 
Q 39.0625 48.390625 32.421875 48.390625 
Q 24.90625 48.390625 20.390625 44.140625 
Q 15.875 39.890625 15.1875 32.171875 
z
" id="DejaVuSans-101"/>
      <path d="M 45.40625 46.390625 
L 45.40625 75.984375 
L 54.390625 75.984375 
L 54.390625 0 
L 45.40625 0 
L 45.40625 8.203125 
Q 42.578125 3.328125 38.25 0.953125 
Q 33.9375 -1.421875 27.875 -1.421875 
Q 17.96875 -1.421875 11.734375 6.484375 
Q 5.515625 14.40625 5.515625 27.296875 
Q 5.515625 40.1875 11.734375 48.09375 
Q 17.96875 56 27.875 56 
Q 33.9375 56 38.25 53.625 
Q 42.578125 51.265625 45.40625 46.390625 
z
M 14.796875 27.296875 
Q 14.796875 17.390625 18.875 11.75 
Q 22.953125 6.109375 30.078125 6.109375 
Q 37.203125 6.109375 41.296875 11.75 
Q 45.40625 17.390625 45.40625 27.296875 
Q 45.40625 37.203125 41.296875 42.84375 
Q 37.203125 48.484375 30.078125 48.484375 
Q 22.953125 48.484375 18.875 42.84375 
Q 14.796875 37.203125 14.796875 27.296875 
z
" id="DejaVuSans-100"/>
      <path d="M 9.421875 54.6875 
L 18.40625 54.6875 
L 18.40625 0 
L 9.421875 0 
z
M 9.421875 75.984375 
L 18.40625 75.984375 
L 18.40625 64.59375 
L 9.421875 64.59375 
z
" id="DejaVuSans-105"/>
      <path d="M 34.28125 27.484375 
Q 23.390625 27.484375 19.1875 25 
Q 14.984375 22.515625 14.984375 16.5 
Q 14.984375 11.71875 18.140625 8.90625 
Q 21.296875 6.109375 26.703125 6.109375 
Q 34.1875 6.109375 38.703125 11.40625 
Q 43.21875 16.703125 43.21875 25.484375 
L 43.21875 27.484375 
z
M 52.203125 31.203125 
L 52.203125 0 
L 43.21875 0 
L 43.21875 8.296875 
Q 40.140625 3.328125 35.546875 0.953125 
Q 30.953125 -1.421875 24.3125 -1.421875 
Q 15.921875 -1.421875 10.953125 3.296875 
Q 6 8.015625 6 15.921875 
Q 6 25.140625 12.171875 29.828125 
Q 18.359375 34.515625 30.609375 34.515625 
L 43.21875 34.515625 
L 43.21875 35.40625 
Q 43.21875 41.609375 39.140625 45 
Q 35.0625 48.390625 27.6875 48.390625 
Q 23 48.390625 18.546875 47.265625 
Q 14.109375 46.140625 10.015625 43.890625 
L 10.015625 52.203125 
Q 14.9375 54.109375 19.578125 55.046875 
Q 24.21875 56 28.609375 56 
Q 40.484375 56 46.34375 49.84375 
Q 52.203125 43.703125 52.203125 31.203125 
z
" id="DejaVuSans-97"/>
      <path d="M 20.65625 79.984375 
L 30.375 79.984375 
L 14.46875 61.625 
L 6.984375 61.625 
z
M 9.421875 54.6875 
L 18.40625 54.6875 
L 18.40625 0 
L 9.421875 0 
z
M 13.921875 56 
z
" id="DejaVuSans-237"/>
      <path d="M 44.28125 53.078125 
L 44.28125 44.578125 
Q 40.484375 46.53125 36.375 47.5 
Q 32.28125 48.484375 27.875 48.484375 
Q 21.1875 48.484375 17.84375 46.4375 
Q 14.5 44.390625 14.5 40.28125 
Q 14.5 37.15625 16.890625 35.375 
Q 19.28125 33.59375 26.515625 31.984375 
L 29.59375 31.296875 
Q 39.15625 29.25 43.1875 25.515625 
Q 47.21875 21.78125 47.21875 15.09375 
Q 47.21875 7.46875 41.1875 3.015625 
Q 35.15625 -1.421875 24.609375 -1.421875 
Q 20.21875 -1.421875 15.453125 -0.5625 
Q 10.6875 0.296875 5.421875 2 
L 5.421875 11.28125 
Q 10.40625 8.6875 15.234375 7.390625 
Q 20.0625 6.109375 24.8125 6.109375 
Q 31.15625 6.109375 34.5625 8.28125 
Q 37.984375 10.453125 37.984375 14.40625 
Q 37.984375 18.0625 35.515625 20.015625 
Q 33.0625 21.96875 24.703125 23.78125 
L 21.578125 24.515625 
Q 13.234375 26.265625 9.515625 29.90625 
Q 5.8125 33.546875 5.8125 39.890625 
Q 5.8125 47.609375 11.28125 51.796875 
Q 16.75 56 26.8125 56 
Q 31.78125 56 36.171875 55.265625 
Q 40.578125 54.546875 44.28125 53.078125 
z
" id="DejaVuSans-115"/>
      <path d="M 8.015625 75.875 
L 15.828125 75.875 
Q 23.140625 64.359375 26.78125 53.3125 
Q 30.421875 42.28125 30.421875 31.390625 
Q 30.421875 20.453125 26.78125 9.375 
Q 23.140625 -1.703125 15.828125 -13.1875 
L 8.015625 -13.1875 
Q 14.5 -2 17.703125 9.0625 
Q 20.90625 20.125 20.90625 31.390625 
Q 20.90625 42.671875 17.703125 53.65625 
Q 14.5 64.65625 8.015625 75.875 
z
" id="DejaVuSans-41"/>
     </defs>
     <g transform="translate(18.798438 196.948477)rotate(-90)scale(0.1 -0.1)">
      <use xlink:href="#DejaVuSans-82"/>
      <use x="69.482422" xlink:href="#DejaVuSans-73"/>
      <use x="98.974609" xlink:href="#DejaVuSans-32"/>
      <use x="130.761719" xlink:href="#DejaVuSans-112"/>
      <use x="194.238281" xlink:href="#DejaVuSans-99"/>
      <use x="249.21875" xlink:href="#DejaVuSans-114"/>
      <use x="290.332031" xlink:href="#DejaVuSans-32"/>
      <use x="322.119141" xlink:href="#DejaVuSans-40"/>
      <use x="361.132812" xlink:href="#DejaVuSans-77"/>
      <use x="447.412109" xlink:href="#DejaVuSans-101"/>
      <use x="508.935547" xlink:href="#DejaVuSans-100"/>
      <use x="572.412109" xlink:href="#DejaVuSans-105"/>
      <use x="600.195312" xlink:href="#DejaVuSans-97"/>
      <use x="661.474609" xlink:href="#DejaVuSans-32"/>
      <use x="693.261719" xlink:href="#DejaVuSans-51"/>
      <use x="756.884766" xlink:href="#DejaVuSans-32"/>
      <use x="788.671875" xlink:href="#DejaVuSans-100"/>
      <use x="852.148438" xlink:href="#DejaVuSans-237"/>
      <use x="879.931641" xlink:href="#DejaVuSans-97"/>
      <use x="941.210938" xlink:href="#DejaVuSans-115"/>
      <use x="993.310547" xlink:href="#DejaVuSans-41"/>
     </g>
    </g>
   </g>
   <g id="line2d_16">
    <path clip-path="url(#p220e719fef)" d="M 68.191522 279.86258 
L 72.552509 279.86258 
L 76.913495 279.86258 
L 81.274482 279.86258 
L 85.635469 279.86258 
L 89.996455 279.86258 
L 94.357442 279.86258 
L 98.718429 279.4584 
L 103.079415 279.05422 
L 107.440402 277.03332 
L 111.801389 273.395701 
L 116.162375 268.949722 
L 120.523362 263.695382 
L 124.884348 258.441043 
L 129.245335 250.357445 
L 133.606322 236.211147 
L 137.967308 233.381888 
L 142.328295 232.169348 
L 146.689282 237.827867 
L 151.050268 236.615327 
L 155.411255 247.528185 
L 159.772242 258.441043 
L 164.133228 254.399244 
L 168.494215 231.765168 
L 172.855201 216.810511 
L 177.216188 222.46903 
L 181.577175 221.25649 
L 185.938161 204.685113 
L 190.299148 178.817597 
L 194.660135 183.667756 
L 199.021121 169.117279 
L 203.382108 179.625957 
L 207.743094 104.44849 
L 212.104081 74.539175 
L 216.465068 23.612504 
L 220.826054 78.985154 
L 225.187041 128.699286 
L 229.548028 146.079023 
L 233.909014 138.399604 
L 238.270001 112.532088 
L 242.630988 100.002511 
L 246.991974 74.134995 
L 251.352961 79.793514 
L 255.713947 101.61923 
L 260.074934 134.761985 
L 264.435921 155.779341 
L 268.796907 186.901196 
L 273.157894 169.925639 
L 277.518881 177.605057 
L 281.879867 165.883839 
L 286.240854 200.239133 
L 290.601841 207.918552 
L 294.962827 206.706012 
L 299.323814 228.531728 
L 303.6848 228.935908 
L 308.045787 240.657126 
L 312.406774 232.573528 
L 316.76776 239.040407 
L 321.128747 252.378344 
L 325.489734 248.740725 
L 329.85072 237.019507 
L 334.211707 232.573528 
L 338.572693 231.360988 
L 342.93368 238.636227 
L 347.294667 249.144905 
L 351.655653 260.057763 
L 356.01664 269.353901 
L 360.377627 264.099562 
L 364.738613 264.907922 
L 369.0996 266.120462 
L 373.460587 269.758081 
L 377.821573 271.778981 
L 382.18256 268.545542 
L 386.543546 269.758081 
L 390.904533 269.758081 
L 395.26552 271.778981 
L 399.626506 270.970621 
L 403.987493 273.395701 
L 408.34848 276.62914 
L 412.709466 279.4584 
" style="fill:none;stroke:#1f77b4;stroke-linecap:square;stroke-width:1.5;"/>
    <defs>
     <path d="M 0 1.5 
C 0.397805 1.5 0.77937 1.341951 1.06066 1.06066 
C 1.341951 0.77937 1.5 0.397805 1.5 0 
C 1.5 -0.397805 1.341951 -0.77937 1.06066 -1.06066 
C 0.77937 -1.341951 0.397805 -1.5 0 -1.5 
C -0.397805 -1.5 -0.77937 -1.341951 -1.06066 -1.06066 
C -1.341951 -0.77937 -1.5 -0.397805 -1.5 0 
C -1.5 0.397805 -1.341951 0.77937 -1.06066 1.06066 
C -0.77937 1.341951 -0.397805 1.5 0 1.5 
z
" id="m1c3ec5de85" style="stroke:#1f77b4;"/>
    </defs>
    <g clip-path="url(#p220e719fef)">
     <use style="fill:#1f77b4;stroke:#1f77b4;" x="68.191522" xlink:href="#m1c3ec5de85" y="279.86258"/>
     <use style="fill:#1f77b4;stroke:#1f77b4;" x="72.552509" xlink:href="#m1c3ec5de85" y="279.86258"/>
     <use style="fill:#1f77b4;stroke:#1f77b4;" x="76.913495" xlink:href="#m1c3ec5de85" y="279.86258"/>
     <use style="fill:#1f77b4;stroke:#1f77b4;" x="81.274482" xlink:href="#m1c3ec5de85" y="279.86258"/>
     <use style="fill:#1f77b4;stroke:#1f77b4;" x="85.635469" xlink:href="#m1c3ec5de85" y="279.86258"/>
     <use style="fill:#1f77b4;stroke:#1f77b4;" x="89.996455" xlink:href="#m1c3ec5de85" y="279.86258"/>
     <use style="fill:#1f77b4;stroke:#1f77b4;" x="94.357442" xlink:href="#m1c3ec5de85" y="279.86258"/>
     <use style="fill:#1f77b4;stroke:#1f77b4;" x="98.718429" xlink:href="#m1c3ec5de85" y="279.4584"/>
     <use style="fill:#1f77b4;stroke:#1f77b4;" x="103.079415" xlink:href="#m1c3ec5de85" y="279.05422"/>
     <use style="fill:#1f77b4;stroke:#1f77b4;" x="107.440402" xlink:href="#m1c3ec5de85" y="277.03332"/>
     <use style="fill:#1f77b4;stroke:#1f77b4;" x="111.801389" xlink:href="#m1c3ec5de85" y="273.395701"/>
     <use style="fill:#1f77b4;stroke:#1f77b4;" x="116.162375" xlink:href="#m1c3ec5de85" y="268.949722"/>
     <use style="fill:#1f77b4;stroke:#1f77b4;" x="120.523362" xlink:href="#m1c3ec5de85" y="263.695382"/>
     <use style="fill:#1f77b4;stroke:#1f77b4;" x="124.884348" xlink:href="#m1c3ec5de85" y="258.441043"/>
     <use style="fill:#1f77b4;stroke:#1f77b4;" x="129.245335" xlink:href="#m1c3ec5de85" y="250.357445"/>
     <use style="fill:#1f77b4;stroke:#1f77b4;" x="133.606322" xlink:href="#m1c3ec5de85" y="236.211147"/>
     <use style="fill:#1f77b4;stroke:#1f77b4;" x="137.967308" xlink:href="#m1c3ec5de85" y="233.381888"/>
     <use style="fill:#1f77b4;stroke:#1f77b4;" x="142.328295" xlink:href="#m1c3ec5de85" y="232.169348"/>
     <use style="fill:#1f77b4;stroke:#1f77b4;" x="146.689282" xlink:href="#m1c3ec5de85" y="237.827867"/>
     <use style="fill:#1f77b4;stroke:#1f77b4;" x="151.050268" xlink:href="#m1c3ec5de85" y="236.615327"/>
     <use style="fill:#1f77b4;stroke:#1f77b4;" x="155.411255" xlink:href="#m1c3ec5de85" y="247.528185"/>
     <use style="fill:#1f77b4;stroke:#1f77b4;" x="159.772242" xlink:href="#m1c3ec5de85" y="258.441043"/>
     <use style="fill:#1f77b4;stroke:#1f77b4;" x="164.133228" xlink:href="#m1c3ec5de85" y="254.399244"/>
     <use style="fill:#1f77b4;stroke:#1f77b4;" x="168.494215" xlink:href="#m1c3ec5de85" y="231.765168"/>
     <use style="fill:#1f77b4;stroke:#1f77b4;" x="172.855201" xlink:href="#m1c3ec5de85" y="216.810511"/>
     <use style="fill:#1f77b4;stroke:#1f77b4;" x="177.216188" xlink:href="#m1c3ec5de85" y="222.46903"/>
     <use style="fill:#1f77b4;stroke:#1f77b4;" x="181.577175" xlink:href="#m1c3ec5de85" y="221.25649"/>
     <use style="fill:#1f77b4;stroke:#1f77b4;" x="185.938161" xlink:href="#m1c3ec5de85" y="204.685113"/>
     <use style="fill:#1f77b4;stroke:#1f77b4;" x="190.299148" xlink:href="#m1c3ec5de85" y="178.817597"/>
     <use style="fill:#1f77b4;stroke:#1f77b4;" x="194.660135" xlink:href="#m1c3ec5de85" y="183.667756"/>
     <use style="fill:#1f77b4;stroke:#1f77b4;" x="199.021121" xlink:href="#m1c3ec5de85" y="169.117279"/>
     <use style="fill:#1f77b4;stroke:#1f77b4;" x="203.382108" xlink:href="#m1c3ec5de85" y="179.625957"/>
     <use style="fill:#1f77b4;stroke:#1f77b4;" x="207.743094" xlink:href="#m1c3ec5de85" y="104.44849"/>
     <use style="fill:#1f77b4;stroke:#1f77b4;" x="212.104081" xlink:href="#m1c3ec5de85" y="74.539175"/>
     <use style="fill:#1f77b4;stroke:#1f77b4;" x="216.465068" xlink:href="#m1c3ec5de85" y="23.612504"/>
     <use style="fill:#1f77b4;stroke:#1f77b4;" x="220.826054" xlink:href="#m1c3ec5de85" y="78.985154"/>
     <use style="fill:#1f77b4;stroke:#1f77b4;" x="225.187041" xlink:href="#m1c3ec5de85" y="128.699286"/>
     <use style="fill:#1f77b4;stroke:#1f77b4;" x="229.548028" xlink:href="#m1c3ec5de85" y="146.079023"/>
     <use style="fill:#1f77b4;stroke:#1f77b4;" x="233.909014" xlink:href="#m1c3ec5de85" y="138.399604"/>
     <use style="fill:#1f77b4;stroke:#1f77b4;" x="238.270001" xlink:href="#m1c3ec5de85" y="112.532088"/>
     <use style="fill:#1f77b4;stroke:#1f77b4;" x="242.630988" xlink:href="#m1c3ec5de85" y="100.002511"/>
     <use style="fill:#1f77b4;stroke:#1f77b4;" x="246.991974" xlink:href="#m1c3ec5de85" y="74.134995"/>
     <use style="fill:#1f77b4;stroke:#1f77b4;" x="251.352961" xlink:href="#m1c3ec5de85" y="79.793514"/>
     <use style="fill:#1f77b4;stroke:#1f77b4;" x="255.713947" xlink:href="#m1c3ec5de85" y="101.61923"/>
     <use style="fill:#1f77b4;stroke:#1f77b4;" x="260.074934" xlink:href="#m1c3ec5de85" y="134.761985"/>
     <use style="fill:#1f77b4;stroke:#1f77b4;" x="264.435921" xlink:href="#m1c3ec5de85" y="155.779341"/>
     <use style="fill:#1f77b4;stroke:#1f77b4;" x="268.796907" xlink:href="#m1c3ec5de85" y="186.901196"/>
     <use style="fill:#1f77b4;stroke:#1f77b4;" x="273.157894" xlink:href="#m1c3ec5de85" y="169.925639"/>
     <use style="fill:#1f77b4;stroke:#1f77b4;" x="277.518881" xlink:href="#m1c3ec5de85" y="177.605057"/>
     <use style="fill:#1f77b4;stroke:#1f77b4;" x="281.879867" xlink:href="#m1c3ec5de85" y="165.883839"/>
     <use style="fill:#1f77b4;stroke:#1f77b4;" x="286.240854" xlink:href="#m1c3ec5de85" y="200.239133"/>
     <use style="fill:#1f77b4;stroke:#1f77b4;" x="290.601841" xlink:href="#m1c3ec5de85" y="207.918552"/>
     <use style="fill:#1f77b4;stroke:#1f77b4;" x="294.962827" xlink:href="#m1c3ec5de85" y="206.706012"/>
     <use style="fill:#1f77b4;stroke:#1f77b4;" x="299.323814" xlink:href="#m1c3ec5de85" y="228.531728"/>
     <use style="fill:#1f77b4;stroke:#1f77b4;" x="303.6848" xlink:href="#m1c3ec5de85" y="228.935908"/>
     <use style="fill:#1f77b4;stroke:#1f77b4;" x="308.045787" xlink:href="#m1c3ec5de85" y="240.657126"/>
     <use style="fill:#1f77b4;stroke:#1f77b4;" x="312.406774" xlink:href="#m1c3ec5de85" y="232.573528"/>
     <use style="fill:#1f77b4;stroke:#1f77b4;" x="316.76776" xlink:href="#m1c3ec5de85" y="239.040407"/>
     <use style="fill:#1f77b4;stroke:#1f77b4;" x="321.128747" xlink:href="#m1c3ec5de85" y="252.378344"/>
     <use style="fill:#1f77b4;stroke:#1f77b4;" x="325.489734" xlink:href="#m1c3ec5de85" y="248.740725"/>
     <use style="fill:#1f77b4;stroke:#1f77b4;" x="329.85072" xlink:href="#m1c3ec5de85" y="237.019507"/>
     <use style="fill:#1f77b4;stroke:#1f77b4;" x="334.211707" xlink:href="#m1c3ec5de85" y="232.573528"/>
     <use style="fill:#1f77b4;stroke:#1f77b4;" x="338.572693" xlink:href="#m1c3ec5de85" y="231.360988"/>
     <use style="fill:#1f77b4;stroke:#1f77b4;" x="342.93368" xlink:href="#m1c3ec5de85" y="238.636227"/>
     <use style="fill:#1f77b4;stroke:#1f77b4;" x="347.294667" xlink:href="#m1c3ec5de85" y="249.144905"/>
     <use style="fill:#1f77b4;stroke:#1f77b4;" x="351.655653" xlink:href="#m1c3ec5de85" y="260.057763"/>
     <use style="fill:#1f77b4;stroke:#1f77b4;" x="356.01664" xlink:href="#m1c3ec5de85" y="269.353901"/>
     <use style="fill:#1f77b4;stroke:#1f77b4;" x="360.377627" xlink:href="#m1c3ec5de85" y="264.099562"/>
     <use style="fill:#1f77b4;stroke:#1f77b4;" x="364.738613" xlink:href="#m1c3ec5de85" y="264.907922"/>
     <use style="fill:#1f77b4;stroke:#1f77b4;" x="369.0996" xlink:href="#m1c3ec5de85" y="266.120462"/>
     <use style="fill:#1f77b4;stroke:#1f77b4;" x="373.460587" xlink:href="#m1c3ec5de85" y="269.758081"/>
     <use style="fill:#1f77b4;stroke:#1f77b4;" x="377.821573" xlink:href="#m1c3ec5de85" y="271.778981"/>
     <use style="fill:#1f77b4;stroke:#1f77b4;" x="382.18256" xlink:href="#m1c3ec5de85" y="268.545542"/>
     <use style="fill:#1f77b4;stroke:#1f77b4;" x="386.543546" xlink:href="#m1c3ec5de85" y="269.758081"/>
     <use style="fill:#1f77b4;stroke:#1f77b4;" x="390.904533" xlink:href="#m1c3ec5de85" y="269.758081"/>
     <use style="fill:#1f77b4;stroke:#1f77b4;" x="395.26552" xlink:href="#m1c3ec5de85" y="271.778981"/>
     <use style="fill:#1f77b4;stroke:#1f77b4;" x="399.626506" xlink:href="#m1c3ec5de85" y="270.970621"/>
     <use style="fill:#1f77b4;stroke:#1f77b4;" x="403.987493" xlink:href="#m1c3ec5de85" y="273.395701"/>
     <use style="fill:#1f77b4;stroke:#1f77b4;" x="408.34848" xlink:href="#m1c3ec5de85" y="276.62914"/>
     <use style="fill:#1f77b4;stroke:#1f77b4;" x="412.709466" xlink:href="#m1c3ec5de85" y="279.4584"/>
    </g>
   </g>
   <g id="patch_3">
    <path d="M 50.965625 279.86258 
L 50.965625 10.8 
" style="fill:none;stroke:#000000;stroke-linecap:square;stroke-linejoin:miter;stroke-width:0.8;"/>
   </g>
   <g id="patch_4">
    <path d="M 429.935363 279.86258 
L 429.935363 10.8 
" style="fill:none;stroke:#000000;stroke-linecap:square;stroke-linejoin:miter;stroke-width:0.8;"/>
   </g>
   <g id="patch_5">
    <path d="M 50.965625 279.86258 
L 429.935363 279.86258 
" style="fill:none;stroke:#000000;stroke-linecap:square;stroke-linejoin:miter;stroke-width:0.8;"/>
   </g>
   <g id="patch_6">
    <path d="M 50.965625 10.8 
L 429.935363 10.8 
" style="fill:none;stroke:#000000;stroke-linecap:square;stroke-linejoin:miter;stroke-width:0.8;"/>
   </g>
  </g>
 </g>
 <defs>
  <clipPath id="p220e719fef">
   <rect height="269.06258" width="378.969738" x="50.965625" y="10.8"/>
  </clipPath>
 </defs>
</svg>
