<?xml version="1.0" encoding="utf-8" standalone="no"?>
<!DOCTYPE svg PUBLIC "-//W3C//DTD SVG 1.1//EN"
  "http://www.w3.org/Graphics/SVG/1.1/DTD/svg11.dtd">
<!-- Created with matplotlib (https://matplotlib.org/) -->
<svg height="345.6pt" version="1.1" viewBox="0 0 460.8 345.6" width="460.8pt" xmlns="http://www.w3.org/2000/svg" xmlns:xlink="http://www.w3.org/1999/xlink">
 <defs>
  <style type="text/css">
*{stroke-linecap:butt;stroke-linejoin:round;}
  </style>
 </defs>
 <g id="figure_1">
  <g id="patch_1">
   <path d="M 0 345.6 
L 460.8 345.6 
L 460.8 0 
L 0 0 
z
" style="fill:#ffffff;"/>
  </g>
  <g id="axes_1">
   <g id="patch_2">
    <path d="M 50.965625 279.86258 
L 438.255936 279.86258 
L 438.255936 14.599219 
L 50.965625 14.599219 
z
" style="fill:#ffffff;"/>
   </g>
   <g id="matplotlib.axis_1">
    <g id="xtick_1">
     <g id="line2d_1">
      <defs>
       <path d="M 0 0 
L 0 3.5 
" id="m226a089e9e" style="stroke:#000000;stroke-width:0.8;"/>
      </defs>
      <g>
       <use style="stroke:#000000;stroke-width:0.8;" x="98.996578" xlink:href="#m226a089e9e" y="279.86258"/>
      </g>
     </g>
     <g id="text_1">
      <!-- 2020-03-01 -->
      <defs>
       <path d="M 19.1875 8.296875 
L 53.609375 8.296875 
L 53.609375 0 
L 7.328125 0 
L 7.328125 8.296875 
Q 12.9375 14.109375 22.625 23.890625 
Q 32.328125 33.6875 34.8125 36.53125 
Q 39.546875 41.84375 41.421875 45.53125 
Q 43.3125 49.21875 43.3125 52.78125 
Q 43.3125 58.59375 39.234375 62.25 
Q 35.15625 65.921875 28.609375 65.921875 
Q 23.96875 65.921875 18.8125 64.3125 
Q 13.671875 62.703125 7.8125 59.421875 
L 7.8125 69.390625 
Q 13.765625 71.78125 18.9375 73 
Q 24.125 74.21875 28.421875 74.21875 
Q 39.75 74.21875 46.484375 68.546875 
Q 53.21875 62.890625 53.21875 53.421875 
Q 53.21875 48.921875 51.53125 44.890625 
Q 49.859375 40.875 45.40625 35.40625 
Q 44.1875 33.984375 37.640625 27.21875 
Q 31.109375 20.453125 19.1875 8.296875 
z
" id="DejaVuSans-50"/>
       <path d="M 31.78125 66.40625 
Q 24.171875 66.40625 20.328125 58.90625 
Q 16.5 51.421875 16.5 36.375 
Q 16.5 21.390625 20.328125 13.890625 
Q 24.171875 6.390625 31.78125 6.390625 
Q 39.453125 6.390625 43.28125 13.890625 
Q 47.125 21.390625 47.125 36.375 
Q 47.125 51.421875 43.28125 58.90625 
Q 39.453125 66.40625 31.78125 66.40625 
z
M 31.78125 74.21875 
Q 44.046875 74.21875 50.515625 64.515625 
Q 56.984375 54.828125 56.984375 36.375 
Q 56.984375 17.96875 50.515625 8.265625 
Q 44.046875 -1.421875 31.78125 -1.421875 
Q 19.53125 -1.421875 13.0625 8.265625 
Q 6.59375 17.96875 6.59375 36.375 
Q 6.59375 54.828125 13.0625 64.515625 
Q 19.53125 74.21875 31.78125 74.21875 
z
" id="DejaVuSans-48"/>
       <path d="M 4.890625 31.390625 
L 31.203125 31.390625 
L 31.203125 23.390625 
L 4.890625 23.390625 
z
" id="DejaVuSans-45"/>
       <path d="M 40.578125 39.3125 
Q 47.65625 37.796875 51.625 33 
Q 55.609375 28.21875 55.609375 21.1875 
Q 55.609375 10.40625 48.1875 4.484375 
Q 40.765625 -1.421875 27.09375 -1.421875 
Q 22.515625 -1.421875 17.65625 -0.515625 
Q 12.796875 0.390625 7.625 2.203125 
L 7.625 11.71875 
Q 11.71875 9.328125 16.59375 8.109375 
Q 21.484375 6.890625 26.8125 6.890625 
Q 36.078125 6.890625 40.9375 10.546875 
Q 45.796875 14.203125 45.796875 21.1875 
Q 45.796875 27.640625 41.28125 31.265625 
Q 36.765625 34.90625 28.71875 34.90625 
L 20.21875 34.90625 
L 20.21875 43.015625 
L 29.109375 43.015625 
Q 36.375 43.015625 40.234375 45.921875 
Q 44.09375 48.828125 44.09375 54.296875 
Q 44.09375 59.90625 40.109375 62.90625 
Q 36.140625 65.921875 28.71875 65.921875 
Q 24.65625 65.921875 20.015625 65.03125 
Q 15.375 64.15625 9.8125 62.3125 
L 9.8125 71.09375 
Q 15.4375 72.65625 20.34375 73.4375 
Q 25.25 74.21875 29.59375 74.21875 
Q 40.828125 74.21875 47.359375 69.109375 
Q 53.90625 64.015625 53.90625 55.328125 
Q 53.90625 49.265625 50.4375 45.09375 
Q 46.96875 40.921875 40.578125 39.3125 
z
" id="DejaVuSans-51"/>
       <path d="M 12.40625 8.296875 
L 28.515625 8.296875 
L 28.515625 63.921875 
L 10.984375 60.40625 
L 10.984375 69.390625 
L 28.421875 72.90625 
L 38.28125 72.90625 
L 38.28125 8.296875 
L 54.390625 8.296875 
L 54.390625 0 
L 12.40625 0 
z
" id="DejaVuSans-49"/>
      </defs>
      <g transform="translate(80.400775 333.329439)rotate(-45)scale(0.1 -0.1)">
       <use xlink:href="#DejaVuSans-50"/>
       <use x="63.623047" xlink:href="#DejaVuSans-48"/>
       <use x="127.246094" xlink:href="#DejaVuSans-50"/>
       <use x="190.869141" xlink:href="#DejaVuSans-48"/>
       <use x="254.492188" xlink:href="#DejaVuSans-45"/>
       <use x="290.576172" xlink:href="#DejaVuSans-48"/>
       <use x="354.199219" xlink:href="#DejaVuSans-51"/>
       <use x="417.822266" xlink:href="#DejaVuSans-45"/>
       <use x="453.90625" xlink:href="#DejaVuSans-48"/>
       <use x="517.529297" xlink:href="#DejaVuSans-49"/>
      </g>
     </g>
    </g>
    <g id="xtick_2">
     <g id="line2d_2">
      <g>
       <use style="stroke:#000000;stroke-width:0.8;" x="159.850275" xlink:href="#m226a089e9e" y="279.86258"/>
      </g>
     </g>
     <g id="text_2">
      <!-- 2020-03-15 -->
      <defs>
       <path d="M 10.796875 72.90625 
L 49.515625 72.90625 
L 49.515625 64.59375 
L 19.828125 64.59375 
L 19.828125 46.734375 
Q 21.96875 47.46875 24.109375 47.828125 
Q 26.265625 48.1875 28.421875 48.1875 
Q 40.625 48.1875 47.75 41.5 
Q 54.890625 34.8125 54.890625 23.390625 
Q 54.890625 11.625 47.5625 5.09375 
Q 40.234375 -1.421875 26.90625 -1.421875 
Q 22.3125 -1.421875 17.546875 -0.640625 
Q 12.796875 0.140625 7.71875 1.703125 
L 7.71875 11.625 
Q 12.109375 9.234375 16.796875 8.0625 
Q 21.484375 6.890625 26.703125 6.890625 
Q 35.15625 6.890625 40.078125 11.328125 
Q 45.015625 15.765625 45.015625 23.390625 
Q 45.015625 31 40.078125 35.4375 
Q 35.15625 39.890625 26.703125 39.890625 
Q 22.75 39.890625 18.8125 39.015625 
Q 14.890625 38.140625 10.796875 36.28125 
z
" id="DejaVuSans-53"/>
      </defs>
      <g transform="translate(141.254471 333.329439)rotate(-45)scale(0.1 -0.1)">
       <use xlink:href="#DejaVuSans-50"/>
       <use x="63.623047" xlink:href="#DejaVuSans-48"/>
       <use x="127.246094" xlink:href="#DejaVuSans-50"/>
       <use x="190.869141" xlink:href="#DejaVuSans-48"/>
       <use x="254.492188" xlink:href="#DejaVuSans-45"/>
       <use x="290.576172" xlink:href="#DejaVuSans-48"/>
       <use x="354.199219" xlink:href="#DejaVuSans-51"/>
       <use x="417.822266" xlink:href="#DejaVuSans-45"/>
       <use x="453.90625" xlink:href="#DejaVuSans-49"/>
       <use x="517.529297" xlink:href="#DejaVuSans-53"/>
      </g>
     </g>
    </g>
    <g id="xtick_3">
     <g id="line2d_3">
      <g>
       <use style="stroke:#000000;stroke-width:0.8;" x="233.744049" xlink:href="#m226a089e9e" y="279.86258"/>
      </g>
     </g>
     <g id="text_3">
      <!-- 2020-04-01 -->
      <defs>
       <path d="M 37.796875 64.3125 
L 12.890625 25.390625 
L 37.796875 25.390625 
z
M 35.203125 72.90625 
L 47.609375 72.90625 
L 47.609375 25.390625 
L 58.015625 25.390625 
L 58.015625 17.1875 
L 47.609375 17.1875 
L 47.609375 0 
L 37.796875 0 
L 37.796875 17.1875 
L 4.890625 17.1875 
L 4.890625 26.703125 
z
" id="DejaVuSans-52"/>
      </defs>
      <g transform="translate(215.148246 333.329439)rotate(-45)scale(0.1 -0.1)">
       <use xlink:href="#DejaVuSans-50"/>
       <use x="63.623047" xlink:href="#DejaVuSans-48"/>
       <use x="127.246094" xlink:href="#DejaVuSans-50"/>
       <use x="190.869141" xlink:href="#DejaVuSans-48"/>
       <use x="254.492188" xlink:href="#DejaVuSans-45"/>
       <use x="290.576172" xlink:href="#DejaVuSans-48"/>
       <use x="354.199219" xlink:href="#DejaVuSans-52"/>
       <use x="417.822266" xlink:href="#DejaVuSans-45"/>
       <use x="453.90625" xlink:href="#DejaVuSans-48"/>
       <use x="517.529297" xlink:href="#DejaVuSans-49"/>
      </g>
     </g>
    </g>
    <g id="xtick_4">
     <g id="line2d_4">
      <g>
       <use style="stroke:#000000;stroke-width:0.8;" x="294.597746" xlink:href="#m226a089e9e" y="279.86258"/>
      </g>
     </g>
     <g id="text_4">
      <!-- 2020-04-15 -->
      <g transform="translate(276.001942 333.329439)rotate(-45)scale(0.1 -0.1)">
       <use xlink:href="#DejaVuSans-50"/>
       <use x="63.623047" xlink:href="#DejaVuSans-48"/>
       <use x="127.246094" xlink:href="#DejaVuSans-50"/>
       <use x="190.869141" xlink:href="#DejaVuSans-48"/>
       <use x="254.492188" xlink:href="#DejaVuSans-45"/>
       <use x="290.576172" xlink:href="#DejaVuSans-48"/>
       <use x="354.199219" xlink:href="#DejaVuSans-52"/>
       <use x="417.822266" xlink:href="#DejaVuSans-45"/>
       <use x="453.90625" xlink:href="#DejaVuSans-49"/>
       <use x="517.529297" xlink:href="#DejaVuSans-53"/>
      </g>
     </g>
    </g>
    <g id="xtick_5">
     <g id="line2d_5">
      <g>
       <use style="stroke:#000000;stroke-width:0.8;" x="364.144827" xlink:href="#m226a089e9e" y="279.86258"/>
      </g>
     </g>
     <g id="text_5">
      <!-- 2020-05-01 -->
      <g transform="translate(345.549024 333.329439)rotate(-45)scale(0.1 -0.1)">
       <use xlink:href="#DejaVuSans-50"/>
       <use x="63.623047" xlink:href="#DejaVuSans-48"/>
       <use x="127.246094" xlink:href="#DejaVuSans-50"/>
       <use x="190.869141" xlink:href="#DejaVuSans-48"/>
       <use x="254.492188" xlink:href="#DejaVuSans-45"/>
       <use x="290.576172" xlink:href="#DejaVuSans-48"/>
       <use x="354.199219" xlink:href="#DejaVuSans-53"/>
       <use x="417.822266" xlink:href="#DejaVuSans-45"/>
       <use x="453.90625" xlink:href="#DejaVuSans-48"/>
       <use x="517.529297" xlink:href="#DejaVuSans-49"/>
      </g>
     </g>
    </g>
    <g id="xtick_6">
     <g id="line2d_6">
      <g>
       <use style="stroke:#000000;stroke-width:0.8;" x="424.998524" xlink:href="#m226a089e9e" y="279.86258"/>
      </g>
     </g>
     <g id="text_6">
      <!-- 2020-05-15 -->
      <g transform="translate(406.40272 333.329439)rotate(-45)scale(0.1 -0.1)">
       <use xlink:href="#DejaVuSans-50"/>
       <use x="63.623047" xlink:href="#DejaVuSans-48"/>
       <use x="127.246094" xlink:href="#DejaVuSans-50"/>
       <use x="190.869141" xlink:href="#DejaVuSans-48"/>
       <use x="254.492188" xlink:href="#DejaVuSans-45"/>
       <use x="290.576172" xlink:href="#DejaVuSans-48"/>
       <use x="354.199219" xlink:href="#DejaVuSans-53"/>
       <use x="417.822266" xlink:href="#DejaVuSans-45"/>
       <use x="453.90625" xlink:href="#DejaVuSans-49"/>
       <use x="517.529297" xlink:href="#DejaVuSans-53"/>
      </g>
     </g>
    </g>
   </g>
   <g id="matplotlib.axis_2">
    <g id="ytick_1">
     <g id="line2d_7">
      <defs>
       <path d="M 0 0 
L -3.5 0 
" id="m8e83e78a61" style="stroke:#000000;stroke-width:0.8;"/>
      </defs>
      <g>
       <use style="stroke:#000000;stroke-width:0.8;" x="50.965625" xlink:href="#m8e83e78a61" y="279.86258"/>
      </g>
     </g>
     <g id="text_7">
      <!-- 0 -->
      <g transform="translate(37.603125 283.661798)scale(0.1 -0.1)">
       <use xlink:href="#DejaVuSans-48"/>
      </g>
     </g>
    </g>
    <g id="ytick_2">
     <g id="line2d_8">
      <g>
       <use style="stroke:#000000;stroke-width:0.8;" x="50.965625" xlink:href="#m8e83e78a61" y="246.70466"/>
      </g>
     </g>
     <g id="text_8">
      <!-- 25 -->
      <g transform="translate(31.240625 250.503878)scale(0.1 -0.1)">
       <use xlink:href="#DejaVuSans-50"/>
       <use x="63.623047" xlink:href="#DejaVuSans-53"/>
      </g>
     </g>
    </g>
    <g id="ytick_3">
     <g id="line2d_9">
      <g>
       <use style="stroke:#000000;stroke-width:0.8;" x="50.965625" xlink:href="#m8e83e78a61" y="213.546739"/>
      </g>
     </g>
     <g id="text_9">
      <!-- 50 -->
      <g transform="translate(31.240625 217.345958)scale(0.1 -0.1)">
       <use xlink:href="#DejaVuSans-53"/>
       <use x="63.623047" xlink:href="#DejaVuSans-48"/>
      </g>
     </g>
    </g>
    <g id="ytick_4">
     <g id="line2d_10">
      <g>
       <use style="stroke:#000000;stroke-width:0.8;" x="50.965625" xlink:href="#m8e83e78a61" y="180.388819"/>
      </g>
     </g>
     <g id="text_10">
      <!-- 75 -->
      <defs>
       <path d="M 8.203125 72.90625 
L 55.078125 72.90625 
L 55.078125 68.703125 
L 28.609375 0 
L 18.3125 0 
L 43.21875 64.59375 
L 8.203125 64.59375 
z
" id="DejaVuSans-55"/>
      </defs>
      <g transform="translate(31.240625 184.188038)scale(0.1 -0.1)">
       <use xlink:href="#DejaVuSans-55"/>
       <use x="63.623047" xlink:href="#DejaVuSans-53"/>
      </g>
     </g>
    </g>
    <g id="ytick_5">
     <g id="line2d_11">
      <g>
       <use style="stroke:#000000;stroke-width:0.8;" x="50.965625" xlink:href="#m8e83e78a61" y="147.230899"/>
      </g>
     </g>
     <g id="text_11">
      <!-- 100 -->
      <g transform="translate(24.878125 151.030118)scale(0.1 -0.1)">
       <use xlink:href="#DejaVuSans-49"/>
       <use x="63.623047" xlink:href="#DejaVuSans-48"/>
       <use x="127.246094" xlink:href="#DejaVuSans-48"/>
      </g>
     </g>
    </g>
    <g id="ytick_6">
     <g id="line2d_12">
      <g>
       <use style="stroke:#000000;stroke-width:0.8;" x="50.965625" xlink:href="#m8e83e78a61" y="114.072979"/>
      </g>
     </g>
     <g id="text_12">
      <!-- 125 -->
      <g transform="translate(24.878125 117.872198)scale(0.1 -0.1)">
       <use xlink:href="#DejaVuSans-49"/>
       <use x="63.623047" xlink:href="#DejaVuSans-50"/>
       <use x="127.246094" xlink:href="#DejaVuSans-53"/>
      </g>
     </g>
    </g>
    <g id="ytick_7">
     <g id="line2d_13">
      <g>
       <use style="stroke:#000000;stroke-width:0.8;" x="50.965625" xlink:href="#m8e83e78a61" y="80.915059"/>
      </g>
     </g>
     <g id="text_13">
      <!-- 150 -->
      <g transform="translate(24.878125 84.714278)scale(0.1 -0.1)">
       <use xlink:href="#DejaVuSans-49"/>
       <use x="63.623047" xlink:href="#DejaVuSans-53"/>
       <use x="127.246094" xlink:href="#DejaVuSans-48"/>
      </g>
     </g>
    </g>
    <g id="ytick_8">
     <g id="line2d_14">
      <g>
       <use style="stroke:#000000;stroke-width:0.8;" x="50.965625" xlink:href="#m8e83e78a61" y="47.757139"/>
      </g>
     </g>
     <g id="text_14">
      <!-- 175 -->
      <g transform="translate(24.878125 51.556358)scale(0.1 -0.1)">
       <use xlink:href="#DejaVuSans-49"/>
       <use x="63.623047" xlink:href="#DejaVuSans-55"/>
       <use x="127.246094" xlink:href="#DejaVuSans-53"/>
      </g>
     </g>
    </g>
    <g id="ytick_9">
     <g id="line2d_15">
      <g>
       <use style="stroke:#000000;stroke-width:0.8;" x="50.965625" xlink:href="#m8e83e78a61" y="14.599219"/>
      </g>
     </g>
     <g id="text_15">
      <!-- 200 -->
      <g transform="translate(24.878125 18.398438)scale(0.1 -0.1)">
       <use xlink:href="#DejaVuSans-50"/>
       <use x="63.623047" xlink:href="#DejaVuSans-48"/>
       <use x="127.246094" xlink:href="#DejaVuSans-48"/>
      </g>
     </g>
    </g>
    <g id="text_16">
     <!-- VC pcr (Media 3 días) -->
     <defs>
      <path d="M 28.609375 0 
L 0.78125 72.90625 
L 11.078125 72.90625 
L 34.1875 11.53125 
L 57.328125 72.90625 
L 67.578125 72.90625 
L 39.796875 0 
z
" id="DejaVuSans-86"/>
      <path d="M 64.40625 67.28125 
L 64.40625 56.890625 
Q 59.421875 61.53125 53.78125 63.8125 
Q 48.140625 66.109375 41.796875 66.109375 
Q 29.296875 66.109375 22.65625 58.46875 
Q 16.015625 50.828125 16.015625 36.375 
Q 16.015625 21.96875 22.65625 14.328125 
Q 29.296875 6.6875 41.796875 6.6875 
Q 48.140625 6.6875 53.78125 8.984375 
Q 59.421875 11.28125 64.40625 15.921875 
L 64.40625 5.609375 
Q 59.234375 2.09375 53.4375 0.328125 
Q 47.65625 -1.421875 41.21875 -1.421875 
Q 24.65625 -1.421875 15.125 8.703125 
Q 5.609375 18.84375 5.609375 36.375 
Q 5.609375 53.953125 15.125 64.078125 
Q 24.65625 74.21875 41.21875 74.21875 
Q 47.75 74.21875 53.53125 72.484375 
Q 59.328125 70.75 64.40625 67.28125 
z
" id="DejaVuSans-67"/>
      <path id="DejaVuSans-32"/>
      <path d="M 18.109375 8.203125 
L 18.109375 -20.796875 
L 9.078125 -20.796875 
L 9.078125 54.6875 
L 18.109375 54.6875 
L 18.109375 46.390625 
Q 20.953125 51.265625 25.265625 53.625 
Q 29.59375 56 35.59375 56 
Q 45.5625 56 51.78125 48.09375 
Q 58.015625 40.1875 58.015625 27.296875 
Q 58.015625 14.40625 51.78125 6.484375 
Q 45.5625 -1.421875 35.59375 -1.421875 
Q 29.59375 -1.421875 25.265625 0.953125 
Q 20.953125 3.328125 18.109375 8.203125 
z
M 48.6875 27.296875 
Q 48.6875 37.203125 44.609375 42.84375 
Q 40.53125 48.484375 33.40625 48.484375 
Q 26.265625 48.484375 22.1875 42.84375 
Q 18.109375 37.203125 18.109375 27.296875 
Q 18.109375 17.390625 22.1875 11.75 
Q 26.265625 6.109375 33.40625 6.109375 
Q 40.53125 6.109375 44.609375 11.75 
Q 48.6875 17.390625 48.6875 27.296875 
z
" id="DejaVuSans-112"/>
      <path d="M 48.78125 52.59375 
L 48.78125 44.1875 
Q 44.96875 46.296875 41.140625 47.34375 
Q 37.3125 48.390625 33.40625 48.390625 
Q 24.65625 48.390625 19.8125 42.84375 
Q 14.984375 37.3125 14.984375 27.296875 
Q 14.984375 17.28125 19.8125 11.734375 
Q 24.65625 6.203125 33.40625 6.203125 
Q 37.3125 6.203125 41.140625 7.25 
Q 44.96875 8.296875 48.78125 10.40625 
L 48.78125 2.09375 
Q 45.015625 0.34375 40.984375 -0.53125 
Q 36.96875 -1.421875 32.421875 -1.421875 
Q 20.0625 -1.421875 12.78125 6.34375 
Q 5.515625 14.109375 5.515625 27.296875 
Q 5.515625 40.671875 12.859375 48.328125 
Q 20.21875 56 33.015625 56 
Q 37.15625 56 41.109375 55.140625 
Q 45.0625 54.296875 48.78125 52.59375 
z
" id="DejaVuSans-99"/>
      <path d="M 41.109375 46.296875 
Q 39.59375 47.171875 37.8125 47.578125 
Q 36.03125 48 33.890625 48 
Q 26.265625 48 22.1875 43.046875 
Q 18.109375 38.09375 18.109375 28.8125 
L 18.109375 0 
L 9.078125 0 
L 9.078125 54.6875 
L 18.109375 54.6875 
L 18.109375 46.1875 
Q 20.953125 51.171875 25.484375 53.578125 
Q 30.03125 56 36.53125 56 
Q 37.453125 56 38.578125 55.875 
Q 39.703125 55.765625 41.0625 55.515625 
z
" id="DejaVuSans-114"/>
      <path d="M 31 75.875 
Q 24.46875 64.65625 21.28125 53.65625 
Q 18.109375 42.671875 18.109375 31.390625 
Q 18.109375 20.125 21.3125 9.0625 
Q 24.515625 -2 31 -13.1875 
L 23.1875 -13.1875 
Q 15.875 -1.703125 12.234375 9.375 
Q 8.59375 20.453125 8.59375 31.390625 
Q 8.59375 42.28125 12.203125 53.3125 
Q 15.828125 64.359375 23.1875 75.875 
z
" id="DejaVuSans-40"/>
      <path d="M 9.8125 72.90625 
L 24.515625 72.90625 
L 43.109375 23.296875 
L 61.8125 72.90625 
L 76.515625 72.90625 
L 76.515625 0 
L 66.890625 0 
L 66.890625 64.015625 
L 48.09375 14.015625 
L 38.1875 14.015625 
L 19.390625 64.015625 
L 19.390625 0 
L 9.8125 0 
z
" id="DejaVuSans-77"/>
      <path d="M 56.203125 29.59375 
L 56.203125 25.203125 
L 14.890625 25.203125 
Q 15.484375 15.921875 20.484375 11.0625 
Q 25.484375 6.203125 34.421875 6.203125 
Q 39.59375 6.203125 44.453125 7.46875 
Q 49.3125 8.734375 54.109375 11.28125 
L 54.109375 2.78125 
Q 49.265625 0.734375 44.1875 -0.34375 
Q 39.109375 -1.421875 33.890625 -1.421875 
Q 20.796875 -1.421875 13.15625 6.1875 
Q 5.515625 13.8125 5.515625 26.8125 
Q 5.515625 40.234375 12.765625 48.109375 
Q 20.015625 56 32.328125 56 
Q 43.359375 56 49.78125 48.890625 
Q 56.203125 41.796875 56.203125 29.59375 
z
M 47.21875 32.234375 
Q 47.125 39.59375 43.09375 43.984375 
Q 39.0625 48.390625 32.421875 48.390625 
Q 24.90625 48.390625 20.390625 44.140625 
Q 15.875 39.890625 15.1875 32.171875 
z
" id="DejaVuSans-101"/>
      <path d="M 45.40625 46.390625 
L 45.40625 75.984375 
L 54.390625 75.984375 
L 54.390625 0 
L 45.40625 0 
L 45.40625 8.203125 
Q 42.578125 3.328125 38.25 0.953125 
Q 33.9375 -1.421875 27.875 -1.421875 
Q 17.96875 -1.421875 11.734375 6.484375 
Q 5.515625 14.40625 5.515625 27.296875 
Q 5.515625 40.1875 11.734375 48.09375 
Q 17.96875 56 27.875 56 
Q 33.9375 56 38.25 53.625 
Q 42.578125 51.265625 45.40625 46.390625 
z
M 14.796875 27.296875 
Q 14.796875 17.390625 18.875 11.75 
Q 22.953125 6.109375 30.078125 6.109375 
Q 37.203125 6.109375 41.296875 11.75 
Q 45.40625 17.390625 45.40625 27.296875 
Q 45.40625 37.203125 41.296875 42.84375 
Q 37.203125 48.484375 30.078125 48.484375 
Q 22.953125 48.484375 18.875 42.84375 
Q 14.796875 37.203125 14.796875 27.296875 
z
" id="DejaVuSans-100"/>
      <path d="M 9.421875 54.6875 
L 18.40625 54.6875 
L 18.40625 0 
L 9.421875 0 
z
M 9.421875 75.984375 
L 18.40625 75.984375 
L 18.40625 64.59375 
L 9.421875 64.59375 
z
" id="DejaVuSans-105"/>
      <path d="M 34.28125 27.484375 
Q 23.390625 27.484375 19.1875 25 
Q 14.984375 22.515625 14.984375 16.5 
Q 14.984375 11.71875 18.140625 8.90625 
Q 21.296875 6.109375 26.703125 6.109375 
Q 34.1875 6.109375 38.703125 11.40625 
Q 43.21875 16.703125 43.21875 25.484375 
L 43.21875 27.484375 
z
M 52.203125 31.203125 
L 52.203125 0 
L 43.21875 0 
L 43.21875 8.296875 
Q 40.140625 3.328125 35.546875 0.953125 
Q 30.953125 -1.421875 24.3125 -1.421875 
Q 15.921875 -1.421875 10.953125 3.296875 
Q 6 8.015625 6 15.921875 
Q 6 25.140625 12.171875 29.828125 
Q 18.359375 34.515625 30.609375 34.515625 
L 43.21875 34.515625 
L 43.21875 35.40625 
Q 43.21875 41.609375 39.140625 45 
Q 35.0625 48.390625 27.6875 48.390625 
Q 23 48.390625 18.546875 47.265625 
Q 14.109375 46.140625 10.015625 43.890625 
L 10.015625 52.203125 
Q 14.9375 54.109375 19.578125 55.046875 
Q 24.21875 56 28.609375 56 
Q 40.484375 56 46.34375 49.84375 
Q 52.203125 43.703125 52.203125 31.203125 
z
" id="DejaVuSans-97"/>
      <path d="M 20.65625 79.984375 
L 30.375 79.984375 
L 14.46875 61.625 
L 6.984375 61.625 
z
M 9.421875 54.6875 
L 18.40625 54.6875 
L 18.40625 0 
L 9.421875 0 
z
M 13.921875 56 
z
" id="DejaVuSans-237"/>
      <path d="M 44.28125 53.078125 
L 44.28125 44.578125 
Q 40.484375 46.53125 36.375 47.5 
Q 32.28125 48.484375 27.875 48.484375 
Q 21.1875 48.484375 17.84375 46.4375 
Q 14.5 44.390625 14.5 40.28125 
Q 14.5 37.15625 16.890625 35.375 
Q 19.28125 33.59375 26.515625 31.984375 
L 29.59375 31.296875 
Q 39.15625 29.25 43.1875 25.515625 
Q 47.21875 21.78125 47.21875 15.09375 
Q 47.21875 7.46875 41.1875 3.015625 
Q 35.15625 -1.421875 24.609375 -1.421875 
Q 20.21875 -1.421875 15.453125 -0.5625 
Q 10.6875 0.296875 5.421875 2 
L 5.421875 11.28125 
Q 10.40625 8.6875 15.234375 7.390625 
Q 20.0625 6.109375 24.8125 6.109375 
Q 31.15625 6.109375 34.5625 8.28125 
Q 37.984375 10.453125 37.984375 14.40625 
Q 37.984375 18.0625 35.515625 20.015625 
Q 33.0625 21.96875 24.703125 23.78125 
L 21.578125 24.515625 
Q 13.234375 26.265625 9.515625 29.90625 
Q 5.8125 33.546875 5.8125 39.890625 
Q 5.8125 47.609375 11.28125 51.796875 
Q 16.75 56 26.8125 56 
Q 31.78125 56 36.171875 55.265625 
Q 40.578125 54.546875 44.28125 53.078125 
z
" id="DejaVuSans-115"/>
      <path d="M 8.015625 75.875 
L 15.828125 75.875 
Q 23.140625 64.359375 26.78125 53.3125 
Q 30.421875 42.28125 30.421875 31.390625 
Q 30.421875 20.453125 26.78125 9.375 
Q 23.140625 -1.703125 15.828125 -13.1875 
L 8.015625 -13.1875 
Q 14.5 -2 17.703125 9.0625 
Q 20.90625 20.125 20.90625 31.390625 
Q 20.90625 42.671875 17.703125 53.65625 
Q 14.5 64.65625 8.015625 75.875 
z
" id="DejaVuSans-41"/>
     </defs>
     <g transform="translate(18.798438 200.810587)rotate(-90)scale(0.1 -0.1)">
      <use xlink:href="#DejaVuSans-86"/>
      <use x="68.408203" xlink:href="#DejaVuSans-67"/>
      <use x="138.232422" xlink:href="#DejaVuSans-32"/>
      <use x="170.019531" xlink:href="#DejaVuSans-112"/>
      <use x="233.496094" xlink:href="#DejaVuSans-99"/>
      <use x="288.476562" xlink:href="#DejaVuSans-114"/>
      <use x="329.589844" xlink:href="#DejaVuSans-32"/>
      <use x="361.376953" xlink:href="#DejaVuSans-40"/>
      <use x="400.390625" xlink:href="#DejaVuSans-77"/>
      <use x="486.669922" xlink:href="#DejaVuSans-101"/>
      <use x="548.193359" xlink:href="#DejaVuSans-100"/>
      <use x="611.669922" xlink:href="#DejaVuSans-105"/>
      <use x="639.453125" xlink:href="#DejaVuSans-97"/>
      <use x="700.732422" xlink:href="#DejaVuSans-32"/>
      <use x="732.519531" xlink:href="#DejaVuSans-51"/>
      <use x="796.142578" xlink:href="#DejaVuSans-32"/>
      <use x="827.929688" xlink:href="#DejaVuSans-100"/>
      <use x="891.40625" xlink:href="#DejaVuSans-237"/>
      <use x="919.189453" xlink:href="#DejaVuSans-97"/>
      <use x="980.46875" xlink:href="#DejaVuSans-115"/>
      <use x="1032.568359" xlink:href="#DejaVuSans-41"/>
     </g>
    </g>
   </g>
   <g id="line2d_16">
    <path clip-path="url(#pf815f99cfe)" d="M 68.56973 279.86258 
L 72.916423 279.86258 
L 77.263115 279.420474 
L 81.609808 278.978368 
L 85.9565 276.325735 
L 90.303193 275.883629 
L 94.649886 274.115207 
L 98.996578 276.76784 
L 103.343271 277.652052 
L 107.689964 278.094157 
L 112.036656 278.094157 
L 116.383349 273.230996 
L 120.730041 274.999418 
L 125.076734 271.904679 
L 129.423427 276.76784 
L 133.770119 271.020468 
L 138.116812 267.483623 
L 142.463504 262.620461 
L 146.810197 260.409933 
L 151.15689 251.125716 
L 155.503582 132.641414 
L 159.850275 140.599315 
L 164.196967 98.157177 
L 168.54366 139.715104 
L 172.890353 53.504512 
L 177.237045 30.51502 
L 181.481556 -1 
M 253.063961 -1 
L 255.477512 40.241344 
L 259.824205 71.630841 
L 264.170897 1.336051 
L 264.259919 -1 
M 285.891232 -1 
L 285.90436 -0.874477 
L 290.251053 22.115014 
L 294.597746 34.493971 
L 298.944438 159.16775 
L 303.291131 209.125683 
L 307.637823 261.294144 
L 311.984516 181.715136 
L 316.331209 206.47305 
L 320.677901 205.588839 
L 325.024594 208.683578 
L 329.371286 196.304621 
L 333.717979 173.31513 
L 338.064672 151.20985 
L 342.411364 173.31513 
L 346.758057 218.852007 
L 351.10475 246.262554 
L 355.451442 213.104634 
L 359.798135 216.641479 
L 364.144827 202.494099 
L 368.49152 233.441491 
L 372.838213 240.515181 
L 377.184905 240.515181 
L 381.531598 235.209914 
L 385.87829 210.894106 
L 390.224983 227.252013 
L 394.571676 225.041485 
L 398.918368 226.367802 
L 403.265061 231.230963 
L 407.611753 244.936237 
L 411.958446 259.083616 
L 416.305139 255.546772 
L 420.651831 247.588871 
" style="fill:none;stroke:#1f77b4;stroke-linecap:square;stroke-width:1.5;"/>
    <defs>
     <path d="M 0 1.5 
C 0.397805 1.5 0.77937 1.341951 1.06066 1.06066 
C 1.341951 0.77937 1.5 0.397805 1.5 0 
C 1.5 -0.397805 1.341951 -0.77937 1.06066 -1.06066 
C 0.77937 -1.341951 0.397805 -1.5 0 -1.5 
C -0.397805 -1.5 -0.77937 -1.341951 -1.06066 -1.06066 
C -1.341951 -0.77937 -1.5 -0.397805 -1.5 0 
C -1.5 0.397805 -1.341951 0.77937 -1.06066 1.06066 
C -0.77937 1.341951 -0.397805 1.5 0 1.5 
z
" id="m574eaa24fd" style="stroke:#1f77b4;"/>
    </defs>
    <g clip-path="url(#pf815f99cfe)">
     <use style="fill:#1f77b4;stroke:#1f77b4;" x="68.56973" xlink:href="#m574eaa24fd" y="279.86258"/>
     <use style="fill:#1f77b4;stroke:#1f77b4;" x="72.916423" xlink:href="#m574eaa24fd" y="279.86258"/>
     <use style="fill:#1f77b4;stroke:#1f77b4;" x="77.263115" xlink:href="#m574eaa24fd" y="279.420474"/>
     <use style="fill:#1f77b4;stroke:#1f77b4;" x="81.609808" xlink:href="#m574eaa24fd" y="278.978368"/>
     <use style="fill:#1f77b4;stroke:#1f77b4;" x="85.9565" xlink:href="#m574eaa24fd" y="276.325735"/>
     <use style="fill:#1f77b4;stroke:#1f77b4;" x="90.303193" xlink:href="#m574eaa24fd" y="275.883629"/>
     <use style="fill:#1f77b4;stroke:#1f77b4;" x="94.649886" xlink:href="#m574eaa24fd" y="274.115207"/>
     <use style="fill:#1f77b4;stroke:#1f77b4;" x="98.996578" xlink:href="#m574eaa24fd" y="276.76784"/>
     <use style="fill:#1f77b4;stroke:#1f77b4;" x="103.343271" xlink:href="#m574eaa24fd" y="277.652052"/>
     <use style="fill:#1f77b4;stroke:#1f77b4;" x="107.689964" xlink:href="#m574eaa24fd" y="278.094157"/>
     <use style="fill:#1f77b4;stroke:#1f77b4;" x="112.036656" xlink:href="#m574eaa24fd" y="278.094157"/>
     <use style="fill:#1f77b4;stroke:#1f77b4;" x="116.383349" xlink:href="#m574eaa24fd" y="273.230996"/>
     <use style="fill:#1f77b4;stroke:#1f77b4;" x="120.730041" xlink:href="#m574eaa24fd" y="274.999418"/>
     <use style="fill:#1f77b4;stroke:#1f77b4;" x="125.076734" xlink:href="#m574eaa24fd" y="271.904679"/>
     <use style="fill:#1f77b4;stroke:#1f77b4;" x="129.423427" xlink:href="#m574eaa24fd" y="276.76784"/>
     <use style="fill:#1f77b4;stroke:#1f77b4;" x="133.770119" xlink:href="#m574eaa24fd" y="271.020468"/>
     <use style="fill:#1f77b4;stroke:#1f77b4;" x="138.116812" xlink:href="#m574eaa24fd" y="267.483623"/>
     <use style="fill:#1f77b4;stroke:#1f77b4;" x="142.463504" xlink:href="#m574eaa24fd" y="262.620461"/>
     <use style="fill:#1f77b4;stroke:#1f77b4;" x="146.810197" xlink:href="#m574eaa24fd" y="260.409933"/>
     <use style="fill:#1f77b4;stroke:#1f77b4;" x="151.15689" xlink:href="#m574eaa24fd" y="251.125716"/>
     <use style="fill:#1f77b4;stroke:#1f77b4;" x="155.503582" xlink:href="#m574eaa24fd" y="132.641414"/>
     <use style="fill:#1f77b4;stroke:#1f77b4;" x="159.850275" xlink:href="#m574eaa24fd" y="140.599315"/>
     <use style="fill:#1f77b4;stroke:#1f77b4;" x="164.196967" xlink:href="#m574eaa24fd" y="98.157177"/>
     <use style="fill:#1f77b4;stroke:#1f77b4;" x="168.54366" xlink:href="#m574eaa24fd" y="139.715104"/>
     <use style="fill:#1f77b4;stroke:#1f77b4;" x="172.890353" xlink:href="#m574eaa24fd" y="53.504512"/>
     <use style="fill:#1f77b4;stroke:#1f77b4;" x="177.237045" xlink:href="#m574eaa24fd" y="30.51502"/>
     <use style="fill:#1f77b4;stroke:#1f77b4;" x="181.481556" xlink:href="#m574eaa24fd" y="-1"/>
     <use style="fill:#1f77b4;stroke:#1f77b4;" x="253.063961" xlink:href="#m574eaa24fd" y="-1"/>
     <use style="fill:#1f77b4;stroke:#1f77b4;" x="255.477512" xlink:href="#m574eaa24fd" y="40.241344"/>
     <use style="fill:#1f77b4;stroke:#1f77b4;" x="259.824205" xlink:href="#m574eaa24fd" y="71.630841"/>
     <use style="fill:#1f77b4;stroke:#1f77b4;" x="264.170897" xlink:href="#m574eaa24fd" y="1.336051"/>
     <use style="fill:#1f77b4;stroke:#1f77b4;" x="264.259919" xlink:href="#m574eaa24fd" y="-1"/>
     <use style="fill:#1f77b4;stroke:#1f77b4;" x="285.891232" xlink:href="#m574eaa24fd" y="-1"/>
     <use style="fill:#1f77b4;stroke:#1f77b4;" x="285.90436" xlink:href="#m574eaa24fd" y="-0.874477"/>
     <use style="fill:#1f77b4;stroke:#1f77b4;" x="290.251053" xlink:href="#m574eaa24fd" y="22.115014"/>
     <use style="fill:#1f77b4;stroke:#1f77b4;" x="294.597746" xlink:href="#m574eaa24fd" y="34.493971"/>
     <use style="fill:#1f77b4;stroke:#1f77b4;" x="298.944438" xlink:href="#m574eaa24fd" y="159.16775"/>
     <use style="fill:#1f77b4;stroke:#1f77b4;" x="303.291131" xlink:href="#m574eaa24fd" y="209.125683"/>
     <use style="fill:#1f77b4;stroke:#1f77b4;" x="307.637823" xlink:href="#m574eaa24fd" y="261.294144"/>
     <use style="fill:#1f77b4;stroke:#1f77b4;" x="311.984516" xlink:href="#m574eaa24fd" y="181.715136"/>
     <use style="fill:#1f77b4;stroke:#1f77b4;" x="316.331209" xlink:href="#m574eaa24fd" y="206.47305"/>
     <use style="fill:#1f77b4;stroke:#1f77b4;" x="320.677901" xlink:href="#m574eaa24fd" y="205.588839"/>
     <use style="fill:#1f77b4;stroke:#1f77b4;" x="325.024594" xlink:href="#m574eaa24fd" y="208.683578"/>
     <use style="fill:#1f77b4;stroke:#1f77b4;" x="329.371286" xlink:href="#m574eaa24fd" y="196.304621"/>
     <use style="fill:#1f77b4;stroke:#1f77b4;" x="333.717979" xlink:href="#m574eaa24fd" y="173.31513"/>
     <use style="fill:#1f77b4;stroke:#1f77b4;" x="338.064672" xlink:href="#m574eaa24fd" y="151.20985"/>
     <use style="fill:#1f77b4;stroke:#1f77b4;" x="342.411364" xlink:href="#m574eaa24fd" y="173.31513"/>
     <use style="fill:#1f77b4;stroke:#1f77b4;" x="346.758057" xlink:href="#m574eaa24fd" y="218.852007"/>
     <use style="fill:#1f77b4;stroke:#1f77b4;" x="351.10475" xlink:href="#m574eaa24fd" y="246.262554"/>
     <use style="fill:#1f77b4;stroke:#1f77b4;" x="355.451442" xlink:href="#m574eaa24fd" y="213.104634"/>
     <use style="fill:#1f77b4;stroke:#1f77b4;" x="359.798135" xlink:href="#m574eaa24fd" y="216.641479"/>
     <use style="fill:#1f77b4;stroke:#1f77b4;" x="364.144827" xlink:href="#m574eaa24fd" y="202.494099"/>
     <use style="fill:#1f77b4;stroke:#1f77b4;" x="368.49152" xlink:href="#m574eaa24fd" y="233.441491"/>
     <use style="fill:#1f77b4;stroke:#1f77b4;" x="372.838213" xlink:href="#m574eaa24fd" y="240.515181"/>
     <use style="fill:#1f77b4;stroke:#1f77b4;" x="377.184905" xlink:href="#m574eaa24fd" y="240.515181"/>
     <use style="fill:#1f77b4;stroke:#1f77b4;" x="381.531598" xlink:href="#m574eaa24fd" y="235.209914"/>
     <use style="fill:#1f77b4;stroke:#1f77b4;" x="385.87829" xlink:href="#m574eaa24fd" y="210.894106"/>
     <use style="fill:#1f77b4;stroke:#1f77b4;" x="390.224983" xlink:href="#m574eaa24fd" y="227.252013"/>
     <use style="fill:#1f77b4;stroke:#1f77b4;" x="394.571676" xlink:href="#m574eaa24fd" y="225.041485"/>
     <use style="fill:#1f77b4;stroke:#1f77b4;" x="398.918368" xlink:href="#m574eaa24fd" y="226.367802"/>
     <use style="fill:#1f77b4;stroke:#1f77b4;" x="403.265061" xlink:href="#m574eaa24fd" y="231.230963"/>
     <use style="fill:#1f77b4;stroke:#1f77b4;" x="407.611753" xlink:href="#m574eaa24fd" y="244.936237"/>
     <use style="fill:#1f77b4;stroke:#1f77b4;" x="411.958446" xlink:href="#m574eaa24fd" y="259.083616"/>
     <use style="fill:#1f77b4;stroke:#1f77b4;" x="416.305139" xlink:href="#m574eaa24fd" y="255.546772"/>
     <use style="fill:#1f77b4;stroke:#1f77b4;" x="420.651831" xlink:href="#m574eaa24fd" y="247.588871"/>
    </g>
   </g>
   <g id="patch_3">
    <path d="M 50.965625 279.86258 
L 50.965625 14.599219 
" style="fill:none;stroke:#000000;stroke-linecap:square;stroke-linejoin:miter;stroke-width:0.8;"/>
   </g>
   <g id="patch_4">
    <path d="M 438.255936 279.86258 
L 438.255936 14.599219 
" style="fill:none;stroke:#000000;stroke-linecap:square;stroke-linejoin:miter;stroke-width:0.8;"/>
   </g>
   <g id="patch_5">
    <path d="M 50.965625 279.86258 
L 438.255936 279.86258 
" style="fill:none;stroke:#000000;stroke-linecap:square;stroke-linejoin:miter;stroke-width:0.8;"/>
   </g>
   <g id="patch_6">
    <path d="M 50.965625 14.599219 
L 438.255936 14.599219 
" style="fill:none;stroke:#000000;stroke-linecap:square;stroke-linejoin:miter;stroke-width:0.8;"/>
   </g>
  </g>
 </g>
 <defs>
  <clipPath id="pf815f99cfe">
   <rect height="265.263361" width="387.290311" x="50.965625" y="14.599219"/>
  </clipPath>
 </defs>
</svg>
