<?xml version="1.0" encoding="utf-8" standalone="no"?>
<!DOCTYPE svg PUBLIC "-//W3C//DTD SVG 1.1//EN"
  "http://www.w3.org/Graphics/SVG/1.1/DTD/svg11.dtd">
<!-- Created with matplotlib (https://matplotlib.org/) -->
<svg height="345.6pt" version="1.1" viewBox="0 0 460.8 345.6" width="460.8pt" xmlns="http://www.w3.org/2000/svg" xmlns:xlink="http://www.w3.org/1999/xlink">
 <defs>
  <style type="text/css">
*{stroke-linecap:butt;stroke-linejoin:round;}
  </style>
 </defs>
 <g id="figure_1">
  <g id="patch_1">
   <path d="M 0 345.6 
L 460.8 345.6 
L 460.8 0 
L 0 0 
z
" style="fill:#ffffff;"/>
  </g>
  <g id="axes_1">
   <g id="patch_2">
    <path d="M 44.603125 279.86258 
L 450 279.86258 
L 450 10.8 
L 44.603125 10.8 
z
" style="fill:#ffffff;"/>
   </g>
   <g id="matplotlib.axis_1">
    <g id="xtick_1">
     <g id="line2d_1">
      <defs>
       <path d="M 0 0 
L 0 3.5 
" id="m1624e0d59f" style="stroke:#000000;stroke-width:0.8;"/>
      </defs>
      <g>
       <use style="stroke:#000000;stroke-width:0.8;" x="74.370028" xlink:href="#m1624e0d59f" y="279.86258"/>
      </g>
     </g>
     <g id="text_1">
      <!-- 2020-03-15 -->
      <defs>
       <path d="M 19.1875 8.296875 
L 53.609375 8.296875 
L 53.609375 0 
L 7.328125 0 
L 7.328125 8.296875 
Q 12.9375 14.109375 22.625 23.890625 
Q 32.328125 33.6875 34.8125 36.53125 
Q 39.546875 41.84375 41.421875 45.53125 
Q 43.3125 49.21875 43.3125 52.78125 
Q 43.3125 58.59375 39.234375 62.25 
Q 35.15625 65.921875 28.609375 65.921875 
Q 23.96875 65.921875 18.8125 64.3125 
Q 13.671875 62.703125 7.8125 59.421875 
L 7.8125 69.390625 
Q 13.765625 71.78125 18.9375 73 
Q 24.125 74.21875 28.421875 74.21875 
Q 39.75 74.21875 46.484375 68.546875 
Q 53.21875 62.890625 53.21875 53.421875 
Q 53.21875 48.921875 51.53125 44.890625 
Q 49.859375 40.875 45.40625 35.40625 
Q 44.1875 33.984375 37.640625 27.21875 
Q 31.109375 20.453125 19.1875 8.296875 
z
" id="DejaVuSans-50"/>
       <path d="M 31.78125 66.40625 
Q 24.171875 66.40625 20.328125 58.90625 
Q 16.5 51.421875 16.5 36.375 
Q 16.5 21.390625 20.328125 13.890625 
Q 24.171875 6.390625 31.78125 6.390625 
Q 39.453125 6.390625 43.28125 13.890625 
Q 47.125 21.390625 47.125 36.375 
Q 47.125 51.421875 43.28125 58.90625 
Q 39.453125 66.40625 31.78125 66.40625 
z
M 31.78125 74.21875 
Q 44.046875 74.21875 50.515625 64.515625 
Q 56.984375 54.828125 56.984375 36.375 
Q 56.984375 17.96875 50.515625 8.265625 
Q 44.046875 -1.421875 31.78125 -1.421875 
Q 19.53125 -1.421875 13.0625 8.265625 
Q 6.59375 17.96875 6.59375 36.375 
Q 6.59375 54.828125 13.0625 64.515625 
Q 19.53125 74.21875 31.78125 74.21875 
z
" id="DejaVuSans-48"/>
       <path d="M 4.890625 31.390625 
L 31.203125 31.390625 
L 31.203125 23.390625 
L 4.890625 23.390625 
z
" id="DejaVuSans-45"/>
       <path d="M 40.578125 39.3125 
Q 47.65625 37.796875 51.625 33 
Q 55.609375 28.21875 55.609375 21.1875 
Q 55.609375 10.40625 48.1875 4.484375 
Q 40.765625 -1.421875 27.09375 -1.421875 
Q 22.515625 -1.421875 17.65625 -0.515625 
Q 12.796875 0.390625 7.625 2.203125 
L 7.625 11.71875 
Q 11.71875 9.328125 16.59375 8.109375 
Q 21.484375 6.890625 26.8125 6.890625 
Q 36.078125 6.890625 40.9375 10.546875 
Q 45.796875 14.203125 45.796875 21.1875 
Q 45.796875 27.640625 41.28125 31.265625 
Q 36.765625 34.90625 28.71875 34.90625 
L 20.21875 34.90625 
L 20.21875 43.015625 
L 29.109375 43.015625 
Q 36.375 43.015625 40.234375 45.921875 
Q 44.09375 48.828125 44.09375 54.296875 
Q 44.09375 59.90625 40.109375 62.90625 
Q 36.140625 65.921875 28.71875 65.921875 
Q 24.65625 65.921875 20.015625 65.03125 
Q 15.375 64.15625 9.8125 62.3125 
L 9.8125 71.09375 
Q 15.4375 72.65625 20.34375 73.4375 
Q 25.25 74.21875 29.59375 74.21875 
Q 40.828125 74.21875 47.359375 69.109375 
Q 53.90625 64.015625 53.90625 55.328125 
Q 53.90625 49.265625 50.4375 45.09375 
Q 46.96875 40.921875 40.578125 39.3125 
z
" id="DejaVuSans-51"/>
       <path d="M 12.40625 8.296875 
L 28.515625 8.296875 
L 28.515625 63.921875 
L 10.984375 60.40625 
L 10.984375 69.390625 
L 28.421875 72.90625 
L 38.28125 72.90625 
L 38.28125 8.296875 
L 54.390625 8.296875 
L 54.390625 0 
L 12.40625 0 
z
" id="DejaVuSans-49"/>
       <path d="M 10.796875 72.90625 
L 49.515625 72.90625 
L 49.515625 64.59375 
L 19.828125 64.59375 
L 19.828125 46.734375 
Q 21.96875 47.46875 24.109375 47.828125 
Q 26.265625 48.1875 28.421875 48.1875 
Q 40.625 48.1875 47.75 41.5 
Q 54.890625 34.8125 54.890625 23.390625 
Q 54.890625 11.625 47.5625 5.09375 
Q 40.234375 -1.421875 26.90625 -1.421875 
Q 22.3125 -1.421875 17.546875 -0.640625 
Q 12.796875 0.140625 7.71875 1.703125 
L 7.71875 11.625 
Q 12.109375 9.234375 16.796875 8.0625 
Q 21.484375 6.890625 26.703125 6.890625 
Q 35.15625 6.890625 40.078125 11.328125 
Q 45.015625 15.765625 45.015625 23.390625 
Q 45.015625 31 40.078125 35.4375 
Q 35.15625 39.890625 26.703125 39.890625 
Q 22.75 39.890625 18.8125 39.015625 
Q 14.890625 38.140625 10.796875 36.28125 
z
" id="DejaVuSans-53"/>
      </defs>
      <g transform="translate(55.774225 333.329439)rotate(-45)scale(0.1 -0.1)">
       <use xlink:href="#DejaVuSans-50"/>
       <use x="63.623047" xlink:href="#DejaVuSans-48"/>
       <use x="127.246094" xlink:href="#DejaVuSans-50"/>
       <use x="190.869141" xlink:href="#DejaVuSans-48"/>
       <use x="254.492188" xlink:href="#DejaVuSans-45"/>
       <use x="290.576172" xlink:href="#DejaVuSans-48"/>
       <use x="354.199219" xlink:href="#DejaVuSans-51"/>
       <use x="417.822266" xlink:href="#DejaVuSans-45"/>
       <use x="453.90625" xlink:href="#DejaVuSans-49"/>
       <use x="517.529297" xlink:href="#DejaVuSans-53"/>
      </g>
     </g>
    </g>
    <g id="xtick_2">
     <g id="line2d_2">
      <g>
       <use style="stroke:#000000;stroke-width:0.8;" x="170.758097" xlink:href="#m1624e0d59f" y="279.86258"/>
      </g>
     </g>
     <g id="text_2">
      <!-- 2020-04-01 -->
      <defs>
       <path d="M 37.796875 64.3125 
L 12.890625 25.390625 
L 37.796875 25.390625 
z
M 35.203125 72.90625 
L 47.609375 72.90625 
L 47.609375 25.390625 
L 58.015625 25.390625 
L 58.015625 17.1875 
L 47.609375 17.1875 
L 47.609375 0 
L 37.796875 0 
L 37.796875 17.1875 
L 4.890625 17.1875 
L 4.890625 26.703125 
z
" id="DejaVuSans-52"/>
      </defs>
      <g transform="translate(152.162293 333.329439)rotate(-45)scale(0.1 -0.1)">
       <use xlink:href="#DejaVuSans-50"/>
       <use x="63.623047" xlink:href="#DejaVuSans-48"/>
       <use x="127.246094" xlink:href="#DejaVuSans-50"/>
       <use x="190.869141" xlink:href="#DejaVuSans-48"/>
       <use x="254.492188" xlink:href="#DejaVuSans-45"/>
       <use x="290.576172" xlink:href="#DejaVuSans-48"/>
       <use x="354.199219" xlink:href="#DejaVuSans-52"/>
       <use x="417.822266" xlink:href="#DejaVuSans-45"/>
       <use x="453.90625" xlink:href="#DejaVuSans-48"/>
       <use x="517.529297" xlink:href="#DejaVuSans-49"/>
      </g>
     </g>
    </g>
    <g id="xtick_3">
     <g id="line2d_3">
      <g>
       <use style="stroke:#000000;stroke-width:0.8;" x="250.136506" xlink:href="#m1624e0d59f" y="279.86258"/>
      </g>
     </g>
     <g id="text_3">
      <!-- 2020-04-15 -->
      <g transform="translate(231.540702 333.329439)rotate(-45)scale(0.1 -0.1)">
       <use xlink:href="#DejaVuSans-50"/>
       <use x="63.623047" xlink:href="#DejaVuSans-48"/>
       <use x="127.246094" xlink:href="#DejaVuSans-50"/>
       <use x="190.869141" xlink:href="#DejaVuSans-48"/>
       <use x="254.492188" xlink:href="#DejaVuSans-45"/>
       <use x="290.576172" xlink:href="#DejaVuSans-48"/>
       <use x="354.199219" xlink:href="#DejaVuSans-52"/>
       <use x="417.822266" xlink:href="#DejaVuSans-45"/>
       <use x="453.90625" xlink:href="#DejaVuSans-49"/>
       <use x="517.529297" xlink:href="#DejaVuSans-53"/>
      </g>
     </g>
    </g>
    <g id="xtick_4">
     <g id="line2d_4">
      <g>
       <use style="stroke:#000000;stroke-width:0.8;" x="340.854687" xlink:href="#m1624e0d59f" y="279.86258"/>
      </g>
     </g>
     <g id="text_4">
      <!-- 2020-05-01 -->
      <g transform="translate(322.258884 333.329439)rotate(-45)scale(0.1 -0.1)">
       <use xlink:href="#DejaVuSans-50"/>
       <use x="63.623047" xlink:href="#DejaVuSans-48"/>
       <use x="127.246094" xlink:href="#DejaVuSans-50"/>
       <use x="190.869141" xlink:href="#DejaVuSans-48"/>
       <use x="254.492188" xlink:href="#DejaVuSans-45"/>
       <use x="290.576172" xlink:href="#DejaVuSans-48"/>
       <use x="354.199219" xlink:href="#DejaVuSans-53"/>
       <use x="417.822266" xlink:href="#DejaVuSans-45"/>
       <use x="453.90625" xlink:href="#DejaVuSans-48"/>
       <use x="517.529297" xlink:href="#DejaVuSans-49"/>
      </g>
     </g>
    </g>
    <g id="xtick_5">
     <g id="line2d_5">
      <g>
       <use style="stroke:#000000;stroke-width:0.8;" x="420.233097" xlink:href="#m1624e0d59f" y="279.86258"/>
      </g>
     </g>
     <g id="text_5">
      <!-- 2020-05-15 -->
      <g transform="translate(401.637293 333.329439)rotate(-45)scale(0.1 -0.1)">
       <use xlink:href="#DejaVuSans-50"/>
       <use x="63.623047" xlink:href="#DejaVuSans-48"/>
       <use x="127.246094" xlink:href="#DejaVuSans-50"/>
       <use x="190.869141" xlink:href="#DejaVuSans-48"/>
       <use x="254.492188" xlink:href="#DejaVuSans-45"/>
       <use x="290.576172" xlink:href="#DejaVuSans-48"/>
       <use x="354.199219" xlink:href="#DejaVuSans-53"/>
       <use x="417.822266" xlink:href="#DejaVuSans-45"/>
       <use x="453.90625" xlink:href="#DejaVuSans-49"/>
       <use x="517.529297" xlink:href="#DejaVuSans-53"/>
      </g>
     </g>
    </g>
   </g>
   <g id="matplotlib.axis_2">
    <g id="ytick_1">
     <g id="line2d_6">
      <defs>
       <path d="M 0 0 
L -3.5 0 
" id="m4b7355d24a" style="stroke:#000000;stroke-width:0.8;"/>
      </defs>
      <g>
       <use style="stroke:#000000;stroke-width:0.8;" x="44.603125" xlink:href="#m4b7355d24a" y="279.86258"/>
      </g>
     </g>
     <g id="text_6">
      <!-- 0 -->
      <g transform="translate(31.240625 283.661798)scale(0.1 -0.1)">
       <use xlink:href="#DejaVuSans-48"/>
      </g>
     </g>
    </g>
    <g id="ytick_2">
     <g id="line2d_7">
      <g>
       <use style="stroke:#000000;stroke-width:0.8;" x="44.603125" xlink:href="#m4b7355d24a" y="224.471571"/>
      </g>
     </g>
     <g id="text_7">
      <!-- 20 -->
      <g transform="translate(24.878125 228.270789)scale(0.1 -0.1)">
       <use xlink:href="#DejaVuSans-50"/>
       <use x="63.623047" xlink:href="#DejaVuSans-48"/>
      </g>
     </g>
    </g>
    <g id="ytick_3">
     <g id="line2d_8">
      <g>
       <use style="stroke:#000000;stroke-width:0.8;" x="44.603125" xlink:href="#m4b7355d24a" y="169.080561"/>
      </g>
     </g>
     <g id="text_8">
      <!-- 40 -->
      <g transform="translate(24.878125 172.87978)scale(0.1 -0.1)">
       <use xlink:href="#DejaVuSans-52"/>
       <use x="63.623047" xlink:href="#DejaVuSans-48"/>
      </g>
     </g>
    </g>
    <g id="ytick_4">
     <g id="line2d_9">
      <g>
       <use style="stroke:#000000;stroke-width:0.8;" x="44.603125" xlink:href="#m4b7355d24a" y="113.689552"/>
      </g>
     </g>
     <g id="text_9">
      <!-- 60 -->
      <defs>
       <path d="M 33.015625 40.375 
Q 26.375 40.375 22.484375 35.828125 
Q 18.609375 31.296875 18.609375 23.390625 
Q 18.609375 15.53125 22.484375 10.953125 
Q 26.375 6.390625 33.015625 6.390625 
Q 39.65625 6.390625 43.53125 10.953125 
Q 47.40625 15.53125 47.40625 23.390625 
Q 47.40625 31.296875 43.53125 35.828125 
Q 39.65625 40.375 33.015625 40.375 
z
M 52.59375 71.296875 
L 52.59375 62.3125 
Q 48.875 64.0625 45.09375 64.984375 
Q 41.3125 65.921875 37.59375 65.921875 
Q 27.828125 65.921875 22.671875 59.328125 
Q 17.53125 52.734375 16.796875 39.40625 
Q 19.671875 43.65625 24.015625 45.921875 
Q 28.375 48.1875 33.59375 48.1875 
Q 44.578125 48.1875 50.953125 41.515625 
Q 57.328125 34.859375 57.328125 23.390625 
Q 57.328125 12.15625 50.6875 5.359375 
Q 44.046875 -1.421875 33.015625 -1.421875 
Q 20.359375 -1.421875 13.671875 8.265625 
Q 6.984375 17.96875 6.984375 36.375 
Q 6.984375 53.65625 15.1875 63.9375 
Q 23.390625 74.21875 37.203125 74.21875 
Q 40.921875 74.21875 44.703125 73.484375 
Q 48.484375 72.75 52.59375 71.296875 
z
" id="DejaVuSans-54"/>
      </defs>
      <g transform="translate(24.878125 117.488771)scale(0.1 -0.1)">
       <use xlink:href="#DejaVuSans-54"/>
       <use x="63.623047" xlink:href="#DejaVuSans-48"/>
      </g>
     </g>
    </g>
    <g id="ytick_5">
     <g id="line2d_10">
      <g>
       <use style="stroke:#000000;stroke-width:0.8;" x="44.603125" xlink:href="#m4b7355d24a" y="58.298543"/>
      </g>
     </g>
     <g id="text_10">
      <!-- 80 -->
      <defs>
       <path d="M 31.78125 34.625 
Q 24.75 34.625 20.71875 30.859375 
Q 16.703125 27.09375 16.703125 20.515625 
Q 16.703125 13.921875 20.71875 10.15625 
Q 24.75 6.390625 31.78125 6.390625 
Q 38.8125 6.390625 42.859375 10.171875 
Q 46.921875 13.96875 46.921875 20.515625 
Q 46.921875 27.09375 42.890625 30.859375 
Q 38.875 34.625 31.78125 34.625 
z
M 21.921875 38.8125 
Q 15.578125 40.375 12.03125 44.71875 
Q 8.5 49.078125 8.5 55.328125 
Q 8.5 64.0625 14.71875 69.140625 
Q 20.953125 74.21875 31.78125 74.21875 
Q 42.671875 74.21875 48.875 69.140625 
Q 55.078125 64.0625 55.078125 55.328125 
Q 55.078125 49.078125 51.53125 44.71875 
Q 48 40.375 41.703125 38.8125 
Q 48.828125 37.15625 52.796875 32.3125 
Q 56.78125 27.484375 56.78125 20.515625 
Q 56.78125 9.90625 50.3125 4.234375 
Q 43.84375 -1.421875 31.78125 -1.421875 
Q 19.734375 -1.421875 13.25 4.234375 
Q 6.78125 9.90625 6.78125 20.515625 
Q 6.78125 27.484375 10.78125 32.3125 
Q 14.796875 37.15625 21.921875 38.8125 
z
M 18.3125 54.390625 
Q 18.3125 48.734375 21.84375 45.5625 
Q 25.390625 42.390625 31.78125 42.390625 
Q 38.140625 42.390625 41.71875 45.5625 
Q 45.3125 48.734375 45.3125 54.390625 
Q 45.3125 60.0625 41.71875 63.234375 
Q 38.140625 66.40625 31.78125 66.40625 
Q 25.390625 66.40625 21.84375 63.234375 
Q 18.3125 60.0625 18.3125 54.390625 
z
" id="DejaVuSans-56"/>
      </defs>
      <g transform="translate(24.878125 62.097762)scale(0.1 -0.1)">
       <use xlink:href="#DejaVuSans-56"/>
       <use x="63.623047" xlink:href="#DejaVuSans-48"/>
      </g>
     </g>
    </g>
    <g id="text_11">
     <!-- CM hospitalizados (por 100000 hab.) (Media 3 días) -->
     <defs>
      <path d="M 64.40625 67.28125 
L 64.40625 56.890625 
Q 59.421875 61.53125 53.78125 63.8125 
Q 48.140625 66.109375 41.796875 66.109375 
Q 29.296875 66.109375 22.65625 58.46875 
Q 16.015625 50.828125 16.015625 36.375 
Q 16.015625 21.96875 22.65625 14.328125 
Q 29.296875 6.6875 41.796875 6.6875 
Q 48.140625 6.6875 53.78125 8.984375 
Q 59.421875 11.28125 64.40625 15.921875 
L 64.40625 5.609375 
Q 59.234375 2.09375 53.4375 0.328125 
Q 47.65625 -1.421875 41.21875 -1.421875 
Q 24.65625 -1.421875 15.125 8.703125 
Q 5.609375 18.84375 5.609375 36.375 
Q 5.609375 53.953125 15.125 64.078125 
Q 24.65625 74.21875 41.21875 74.21875 
Q 47.75 74.21875 53.53125 72.484375 
Q 59.328125 70.75 64.40625 67.28125 
z
" id="DejaVuSans-67"/>
      <path d="M 9.8125 72.90625 
L 24.515625 72.90625 
L 43.109375 23.296875 
L 61.8125 72.90625 
L 76.515625 72.90625 
L 76.515625 0 
L 66.890625 0 
L 66.890625 64.015625 
L 48.09375 14.015625 
L 38.1875 14.015625 
L 19.390625 64.015625 
L 19.390625 0 
L 9.8125 0 
z
" id="DejaVuSans-77"/>
      <path id="DejaVuSans-32"/>
      <path d="M 54.890625 33.015625 
L 54.890625 0 
L 45.90625 0 
L 45.90625 32.71875 
Q 45.90625 40.484375 42.875 44.328125 
Q 39.84375 48.1875 33.796875 48.1875 
Q 26.515625 48.1875 22.3125 43.546875 
Q 18.109375 38.921875 18.109375 30.90625 
L 18.109375 0 
L 9.078125 0 
L 9.078125 75.984375 
L 18.109375 75.984375 
L 18.109375 46.1875 
Q 21.34375 51.125 25.703125 53.5625 
Q 30.078125 56 35.796875 56 
Q 45.21875 56 50.046875 50.171875 
Q 54.890625 44.34375 54.890625 33.015625 
z
" id="DejaVuSans-104"/>
      <path d="M 30.609375 48.390625 
Q 23.390625 48.390625 19.1875 42.75 
Q 14.984375 37.109375 14.984375 27.296875 
Q 14.984375 17.484375 19.15625 11.84375 
Q 23.34375 6.203125 30.609375 6.203125 
Q 37.796875 6.203125 41.984375 11.859375 
Q 46.1875 17.53125 46.1875 27.296875 
Q 46.1875 37.015625 41.984375 42.703125 
Q 37.796875 48.390625 30.609375 48.390625 
z
M 30.609375 56 
Q 42.328125 56 49.015625 48.375 
Q 55.71875 40.765625 55.71875 27.296875 
Q 55.71875 13.875 49.015625 6.21875 
Q 42.328125 -1.421875 30.609375 -1.421875 
Q 18.84375 -1.421875 12.171875 6.21875 
Q 5.515625 13.875 5.515625 27.296875 
Q 5.515625 40.765625 12.171875 48.375 
Q 18.84375 56 30.609375 56 
z
" id="DejaVuSans-111"/>
      <path d="M 44.28125 53.078125 
L 44.28125 44.578125 
Q 40.484375 46.53125 36.375 47.5 
Q 32.28125 48.484375 27.875 48.484375 
Q 21.1875 48.484375 17.84375 46.4375 
Q 14.5 44.390625 14.5 40.28125 
Q 14.5 37.15625 16.890625 35.375 
Q 19.28125 33.59375 26.515625 31.984375 
L 29.59375 31.296875 
Q 39.15625 29.25 43.1875 25.515625 
Q 47.21875 21.78125 47.21875 15.09375 
Q 47.21875 7.46875 41.1875 3.015625 
Q 35.15625 -1.421875 24.609375 -1.421875 
Q 20.21875 -1.421875 15.453125 -0.5625 
Q 10.6875 0.296875 5.421875 2 
L 5.421875 11.28125 
Q 10.40625 8.6875 15.234375 7.390625 
Q 20.0625 6.109375 24.8125 6.109375 
Q 31.15625 6.109375 34.5625 8.28125 
Q 37.984375 10.453125 37.984375 14.40625 
Q 37.984375 18.0625 35.515625 20.015625 
Q 33.0625 21.96875 24.703125 23.78125 
L 21.578125 24.515625 
Q 13.234375 26.265625 9.515625 29.90625 
Q 5.8125 33.546875 5.8125 39.890625 
Q 5.8125 47.609375 11.28125 51.796875 
Q 16.75 56 26.8125 56 
Q 31.78125 56 36.171875 55.265625 
Q 40.578125 54.546875 44.28125 53.078125 
z
" id="DejaVuSans-115"/>
      <path d="M 18.109375 8.203125 
L 18.109375 -20.796875 
L 9.078125 -20.796875 
L 9.078125 54.6875 
L 18.109375 54.6875 
L 18.109375 46.390625 
Q 20.953125 51.265625 25.265625 53.625 
Q 29.59375 56 35.59375 56 
Q 45.5625 56 51.78125 48.09375 
Q 58.015625 40.1875 58.015625 27.296875 
Q 58.015625 14.40625 51.78125 6.484375 
Q 45.5625 -1.421875 35.59375 -1.421875 
Q 29.59375 -1.421875 25.265625 0.953125 
Q 20.953125 3.328125 18.109375 8.203125 
z
M 48.6875 27.296875 
Q 48.6875 37.203125 44.609375 42.84375 
Q 40.53125 48.484375 33.40625 48.484375 
Q 26.265625 48.484375 22.1875 42.84375 
Q 18.109375 37.203125 18.109375 27.296875 
Q 18.109375 17.390625 22.1875 11.75 
Q 26.265625 6.109375 33.40625 6.109375 
Q 40.53125 6.109375 44.609375 11.75 
Q 48.6875 17.390625 48.6875 27.296875 
z
" id="DejaVuSans-112"/>
      <path d="M 9.421875 54.6875 
L 18.40625 54.6875 
L 18.40625 0 
L 9.421875 0 
z
M 9.421875 75.984375 
L 18.40625 75.984375 
L 18.40625 64.59375 
L 9.421875 64.59375 
z
" id="DejaVuSans-105"/>
      <path d="M 18.3125 70.21875 
L 18.3125 54.6875 
L 36.8125 54.6875 
L 36.8125 47.703125 
L 18.3125 47.703125 
L 18.3125 18.015625 
Q 18.3125 11.328125 20.140625 9.421875 
Q 21.96875 7.515625 27.59375 7.515625 
L 36.8125 7.515625 
L 36.8125 0 
L 27.59375 0 
Q 17.1875 0 13.234375 3.875 
Q 9.28125 7.765625 9.28125 18.015625 
L 9.28125 47.703125 
L 2.6875 47.703125 
L 2.6875 54.6875 
L 9.28125 54.6875 
L 9.28125 70.21875 
z
" id="DejaVuSans-116"/>
      <path d="M 34.28125 27.484375 
Q 23.390625 27.484375 19.1875 25 
Q 14.984375 22.515625 14.984375 16.5 
Q 14.984375 11.71875 18.140625 8.90625 
Q 21.296875 6.109375 26.703125 6.109375 
Q 34.1875 6.109375 38.703125 11.40625 
Q 43.21875 16.703125 43.21875 25.484375 
L 43.21875 27.484375 
z
M 52.203125 31.203125 
L 52.203125 0 
L 43.21875 0 
L 43.21875 8.296875 
Q 40.140625 3.328125 35.546875 0.953125 
Q 30.953125 -1.421875 24.3125 -1.421875 
Q 15.921875 -1.421875 10.953125 3.296875 
Q 6 8.015625 6 15.921875 
Q 6 25.140625 12.171875 29.828125 
Q 18.359375 34.515625 30.609375 34.515625 
L 43.21875 34.515625 
L 43.21875 35.40625 
Q 43.21875 41.609375 39.140625 45 
Q 35.0625 48.390625 27.6875 48.390625 
Q 23 48.390625 18.546875 47.265625 
Q 14.109375 46.140625 10.015625 43.890625 
L 10.015625 52.203125 
Q 14.9375 54.109375 19.578125 55.046875 
Q 24.21875 56 28.609375 56 
Q 40.484375 56 46.34375 49.84375 
Q 52.203125 43.703125 52.203125 31.203125 
z
" id="DejaVuSans-97"/>
      <path d="M 9.421875 75.984375 
L 18.40625 75.984375 
L 18.40625 0 
L 9.421875 0 
z
" id="DejaVuSans-108"/>
      <path d="M 5.515625 54.6875 
L 48.1875 54.6875 
L 48.1875 46.484375 
L 14.40625 7.171875 
L 48.1875 7.171875 
L 48.1875 0 
L 4.296875 0 
L 4.296875 8.203125 
L 38.09375 47.515625 
L 5.515625 47.515625 
z
" id="DejaVuSans-122"/>
      <path d="M 45.40625 46.390625 
L 45.40625 75.984375 
L 54.390625 75.984375 
L 54.390625 0 
L 45.40625 0 
L 45.40625 8.203125 
Q 42.578125 3.328125 38.25 0.953125 
Q 33.9375 -1.421875 27.875 -1.421875 
Q 17.96875 -1.421875 11.734375 6.484375 
Q 5.515625 14.40625 5.515625 27.296875 
Q 5.515625 40.1875 11.734375 48.09375 
Q 17.96875 56 27.875 56 
Q 33.9375 56 38.25 53.625 
Q 42.578125 51.265625 45.40625 46.390625 
z
M 14.796875 27.296875 
Q 14.796875 17.390625 18.875 11.75 
Q 22.953125 6.109375 30.078125 6.109375 
Q 37.203125 6.109375 41.296875 11.75 
Q 45.40625 17.390625 45.40625 27.296875 
Q 45.40625 37.203125 41.296875 42.84375 
Q 37.203125 48.484375 30.078125 48.484375 
Q 22.953125 48.484375 18.875 42.84375 
Q 14.796875 37.203125 14.796875 27.296875 
z
" id="DejaVuSans-100"/>
      <path d="M 31 75.875 
Q 24.46875 64.65625 21.28125 53.65625 
Q 18.109375 42.671875 18.109375 31.390625 
Q 18.109375 20.125 21.3125 9.0625 
Q 24.515625 -2 31 -13.1875 
L 23.1875 -13.1875 
Q 15.875 -1.703125 12.234375 9.375 
Q 8.59375 20.453125 8.59375 31.390625 
Q 8.59375 42.28125 12.203125 53.3125 
Q 15.828125 64.359375 23.1875 75.875 
z
" id="DejaVuSans-40"/>
      <path d="M 41.109375 46.296875 
Q 39.59375 47.171875 37.8125 47.578125 
Q 36.03125 48 33.890625 48 
Q 26.265625 48 22.1875 43.046875 
Q 18.109375 38.09375 18.109375 28.8125 
L 18.109375 0 
L 9.078125 0 
L 9.078125 54.6875 
L 18.109375 54.6875 
L 18.109375 46.1875 
Q 20.953125 51.171875 25.484375 53.578125 
Q 30.03125 56 36.53125 56 
Q 37.453125 56 38.578125 55.875 
Q 39.703125 55.765625 41.0625 55.515625 
z
" id="DejaVuSans-114"/>
      <path d="M 48.6875 27.296875 
Q 48.6875 37.203125 44.609375 42.84375 
Q 40.53125 48.484375 33.40625 48.484375 
Q 26.265625 48.484375 22.1875 42.84375 
Q 18.109375 37.203125 18.109375 27.296875 
Q 18.109375 17.390625 22.1875 11.75 
Q 26.265625 6.109375 33.40625 6.109375 
Q 40.53125 6.109375 44.609375 11.75 
Q 48.6875 17.390625 48.6875 27.296875 
z
M 18.109375 46.390625 
Q 20.953125 51.265625 25.265625 53.625 
Q 29.59375 56 35.59375 56 
Q 45.5625 56 51.78125 48.09375 
Q 58.015625 40.1875 58.015625 27.296875 
Q 58.015625 14.40625 51.78125 6.484375 
Q 45.5625 -1.421875 35.59375 -1.421875 
Q 29.59375 -1.421875 25.265625 0.953125 
Q 20.953125 3.328125 18.109375 8.203125 
L 18.109375 0 
L 9.078125 0 
L 9.078125 75.984375 
L 18.109375 75.984375 
z
" id="DejaVuSans-98"/>
      <path d="M 10.6875 12.40625 
L 21 12.40625 
L 21 0 
L 10.6875 0 
z
" id="DejaVuSans-46"/>
      <path d="M 8.015625 75.875 
L 15.828125 75.875 
Q 23.140625 64.359375 26.78125 53.3125 
Q 30.421875 42.28125 30.421875 31.390625 
Q 30.421875 20.453125 26.78125 9.375 
Q 23.140625 -1.703125 15.828125 -13.1875 
L 8.015625 -13.1875 
Q 14.5 -2 17.703125 9.0625 
Q 20.90625 20.125 20.90625 31.390625 
Q 20.90625 42.671875 17.703125 53.65625 
Q 14.5 64.65625 8.015625 75.875 
z
" id="DejaVuSans-41"/>
      <path d="M 56.203125 29.59375 
L 56.203125 25.203125 
L 14.890625 25.203125 
Q 15.484375 15.921875 20.484375 11.0625 
Q 25.484375 6.203125 34.421875 6.203125 
Q 39.59375 6.203125 44.453125 7.46875 
Q 49.3125 8.734375 54.109375 11.28125 
L 54.109375 2.78125 
Q 49.265625 0.734375 44.1875 -0.34375 
Q 39.109375 -1.421875 33.890625 -1.421875 
Q 20.796875 -1.421875 13.15625 6.1875 
Q 5.515625 13.8125 5.515625 26.8125 
Q 5.515625 40.234375 12.765625 48.109375 
Q 20.015625 56 32.328125 56 
Q 43.359375 56 49.78125 48.890625 
Q 56.203125 41.796875 56.203125 29.59375 
z
M 47.21875 32.234375 
Q 47.125 39.59375 43.09375 43.984375 
Q 39.0625 48.390625 32.421875 48.390625 
Q 24.90625 48.390625 20.390625 44.140625 
Q 15.875 39.890625 15.1875 32.171875 
z
" id="DejaVuSans-101"/>
      <path d="M 20.65625 79.984375 
L 30.375 79.984375 
L 14.46875 61.625 
L 6.984375 61.625 
z
M 9.421875 54.6875 
L 18.40625 54.6875 
L 18.40625 0 
L 9.421875 0 
z
M 13.921875 56 
z
" id="DejaVuSans-237"/>
     </defs>
     <g transform="translate(18.798437 274.592227)rotate(-90)scale(0.1 -0.1)">
      <use xlink:href="#DejaVuSans-67"/>
      <use x="69.824219" xlink:href="#DejaVuSans-77"/>
      <use x="156.103516" xlink:href="#DejaVuSans-32"/>
      <use x="187.890625" xlink:href="#DejaVuSans-104"/>
      <use x="251.269531" xlink:href="#DejaVuSans-111"/>
      <use x="312.451172" xlink:href="#DejaVuSans-115"/>
      <use x="364.550781" xlink:href="#DejaVuSans-112"/>
      <use x="428.027344" xlink:href="#DejaVuSans-105"/>
      <use x="455.810547" xlink:href="#DejaVuSans-116"/>
      <use x="495.019531" xlink:href="#DejaVuSans-97"/>
      <use x="556.298828" xlink:href="#DejaVuSans-108"/>
      <use x="584.082031" xlink:href="#DejaVuSans-105"/>
      <use x="611.865234" xlink:href="#DejaVuSans-122"/>
      <use x="664.355469" xlink:href="#DejaVuSans-97"/>
      <use x="725.634766" xlink:href="#DejaVuSans-100"/>
      <use x="789.111328" xlink:href="#DejaVuSans-111"/>
      <use x="850.292969" xlink:href="#DejaVuSans-115"/>
      <use x="902.392578" xlink:href="#DejaVuSans-32"/>
      <use x="934.179688" xlink:href="#DejaVuSans-40"/>
      <use x="973.193359" xlink:href="#DejaVuSans-112"/>
      <use x="1036.669922" xlink:href="#DejaVuSans-111"/>
      <use x="1097.851562" xlink:href="#DejaVuSans-114"/>
      <use x="1138.964844" xlink:href="#DejaVuSans-32"/>
      <use x="1170.751953" xlink:href="#DejaVuSans-49"/>
      <use x="1234.375" xlink:href="#DejaVuSans-48"/>
      <use x="1297.998047" xlink:href="#DejaVuSans-48"/>
      <use x="1361.621094" xlink:href="#DejaVuSans-48"/>
      <use x="1425.244141" xlink:href="#DejaVuSans-48"/>
      <use x="1488.867188" xlink:href="#DejaVuSans-48"/>
      <use x="1552.490234" xlink:href="#DejaVuSans-32"/>
      <use x="1584.277344" xlink:href="#DejaVuSans-104"/>
      <use x="1647.65625" xlink:href="#DejaVuSans-97"/>
      <use x="1708.935547" xlink:href="#DejaVuSans-98"/>
      <use x="1772.412109" xlink:href="#DejaVuSans-46"/>
      <use x="1804.199219" xlink:href="#DejaVuSans-41"/>
      <use x="1843.212891" xlink:href="#DejaVuSans-32"/>
      <use x="1875" xlink:href="#DejaVuSans-40"/>
      <use x="1914.013672" xlink:href="#DejaVuSans-77"/>
      <use x="2000.292969" xlink:href="#DejaVuSans-101"/>
      <use x="2061.816406" xlink:href="#DejaVuSans-100"/>
      <use x="2125.292969" xlink:href="#DejaVuSans-105"/>
      <use x="2153.076172" xlink:href="#DejaVuSans-97"/>
      <use x="2214.355469" xlink:href="#DejaVuSans-32"/>
      <use x="2246.142578" xlink:href="#DejaVuSans-51"/>
      <use x="2309.765625" xlink:href="#DejaVuSans-32"/>
      <use x="2341.552734" xlink:href="#DejaVuSans-100"/>
      <use x="2405.029297" xlink:href="#DejaVuSans-237"/>
      <use x="2432.8125" xlink:href="#DejaVuSans-97"/>
      <use x="2494.091797" xlink:href="#DejaVuSans-115"/>
      <use x="2546.191406" xlink:href="#DejaVuSans-41"/>
     </g>
    </g>
   </g>
   <g id="line2d_11">
    <path clip-path="url(#p4506b9511c)" d="M 63.030256 276.330059 
L 68.700142 278.096319 
L 74.370028 274.020334 
L 80.039915 274.020334 
L 85.709801 270.850123 
L 91.379687 275.061975 
L 97.049574 275.061975 
L 102.71946 263.649216 
L 108.389347 256.085999 
L 114.059233 223.976293 
L 119.729119 225.923708 
L 125.399006 219.900308 
L 131.068892 252.010014 
L 136.738778 239.963213 
L 142.408665 242.952269 
L 148.078551 241.095431 
L 153.748437 260.524294 
L 159.418324 268.630976 
L 165.08821 270.26137 
L 170.758097 275.514862 
L 176.427983 282.444037 
L 182.097869 284.255586 
L 187.767756 292.543423 
L 193.437642 291.954669 
L 199.107528 290.052543 
L 204.777415 289.78081 
L 210.447301 294.626704 
L 216.117188 304.72609 
L 221.787074 304.00147 
L 227.45696 86.796745 
L 233.126847 34.261824 
L 238.796733 24.79648 
L 244.466619 231.947109 
L 250.136506 270.578391 
L 255.806392 271.348299 
L 261.476278 270.940701 
L 267.146165 273.069271 
L 272.816051 272.842827 
L 278.485937 275.061975 
L 284.155824 275.061975 
L 289.82571 273.929757 
L 295.495597 273.386292 
L 301.165483 273.431581 
L 306.835369 274.744954 
L 312.505256 275.24313 
L 318.175142 276.28477 
L 323.845028 275.061975 
L 329.514915 274.292066 
L 335.184801 272.888116 
L 340.854687 274.337355 
L 346.524574 274.926109 
L 352.19446 276.239482 
L 357.864347 276.239482 
L 363.534233 275.831883 
L 369.204119 275.424285 
L 374.874006 275.197841 
L 380.543892 275.24313 
L 386.213778 275.378996 
L 391.883665 275.786594 
L 397.553551 276.556503 
L 403.223437 276.782946 
L 408.893324 277.054679 
L 414.56321 277.099967 
L 420.233097 276.964101 
L 425.902983 276.511214 
L 431.572869 276.918813 
" style="fill:none;stroke:#1f77b4;stroke-linecap:square;stroke-width:1.5;"/>
    <defs>
     <path d="M 0 1.5 
C 0.397805 1.5 0.77937 1.341951 1.06066 1.06066 
C 1.341951 0.77937 1.5 0.397805 1.5 0 
C 1.5 -0.397805 1.341951 -0.77937 1.06066 -1.06066 
C 0.77937 -1.341951 0.397805 -1.5 0 -1.5 
C -0.397805 -1.5 -0.77937 -1.341951 -1.06066 -1.06066 
C -1.341951 -0.77937 -1.5 -0.397805 -1.5 0 
C -1.5 0.397805 -1.341951 0.77937 -1.06066 1.06066 
C -0.77937 1.341951 -0.397805 1.5 0 1.5 
z
" id="m4e252eec40" style="stroke:#1f77b4;"/>
    </defs>
    <g clip-path="url(#p4506b9511c)">
     <use style="fill:#1f77b4;stroke:#1f77b4;" x="63.030256" xlink:href="#m4e252eec40" y="276.330059"/>
     <use style="fill:#1f77b4;stroke:#1f77b4;" x="68.700142" xlink:href="#m4e252eec40" y="278.096319"/>
     <use style="fill:#1f77b4;stroke:#1f77b4;" x="74.370028" xlink:href="#m4e252eec40" y="274.020334"/>
     <use style="fill:#1f77b4;stroke:#1f77b4;" x="80.039915" xlink:href="#m4e252eec40" y="274.020334"/>
     <use style="fill:#1f77b4;stroke:#1f77b4;" x="85.709801" xlink:href="#m4e252eec40" y="270.850123"/>
     <use style="fill:#1f77b4;stroke:#1f77b4;" x="91.379687" xlink:href="#m4e252eec40" y="275.061975"/>
     <use style="fill:#1f77b4;stroke:#1f77b4;" x="97.049574" xlink:href="#m4e252eec40" y="275.061975"/>
     <use style="fill:#1f77b4;stroke:#1f77b4;" x="102.71946" xlink:href="#m4e252eec40" y="263.649216"/>
     <use style="fill:#1f77b4;stroke:#1f77b4;" x="108.389347" xlink:href="#m4e252eec40" y="256.085999"/>
     <use style="fill:#1f77b4;stroke:#1f77b4;" x="114.059233" xlink:href="#m4e252eec40" y="223.976293"/>
     <use style="fill:#1f77b4;stroke:#1f77b4;" x="119.729119" xlink:href="#m4e252eec40" y="225.923708"/>
     <use style="fill:#1f77b4;stroke:#1f77b4;" x="125.399006" xlink:href="#m4e252eec40" y="219.900308"/>
     <use style="fill:#1f77b4;stroke:#1f77b4;" x="131.068892" xlink:href="#m4e252eec40" y="252.010014"/>
     <use style="fill:#1f77b4;stroke:#1f77b4;" x="136.738778" xlink:href="#m4e252eec40" y="239.963213"/>
     <use style="fill:#1f77b4;stroke:#1f77b4;" x="142.408665" xlink:href="#m4e252eec40" y="242.952269"/>
     <use style="fill:#1f77b4;stroke:#1f77b4;" x="148.078551" xlink:href="#m4e252eec40" y="241.095431"/>
     <use style="fill:#1f77b4;stroke:#1f77b4;" x="153.748437" xlink:href="#m4e252eec40" y="260.524294"/>
     <use style="fill:#1f77b4;stroke:#1f77b4;" x="159.418324" xlink:href="#m4e252eec40" y="268.630976"/>
     <use style="fill:#1f77b4;stroke:#1f77b4;" x="165.08821" xlink:href="#m4e252eec40" y="270.26137"/>
     <use style="fill:#1f77b4;stroke:#1f77b4;" x="170.758097" xlink:href="#m4e252eec40" y="275.514862"/>
     <use style="fill:#1f77b4;stroke:#1f77b4;" x="176.427983" xlink:href="#m4e252eec40" y="282.444037"/>
     <use style="fill:#1f77b4;stroke:#1f77b4;" x="182.097869" xlink:href="#m4e252eec40" y="284.255586"/>
     <use style="fill:#1f77b4;stroke:#1f77b4;" x="187.767756" xlink:href="#m4e252eec40" y="292.543423"/>
     <use style="fill:#1f77b4;stroke:#1f77b4;" x="193.437642" xlink:href="#m4e252eec40" y="291.954669"/>
     <use style="fill:#1f77b4;stroke:#1f77b4;" x="199.107528" xlink:href="#m4e252eec40" y="290.052543"/>
     <use style="fill:#1f77b4;stroke:#1f77b4;" x="204.777415" xlink:href="#m4e252eec40" y="289.78081"/>
     <use style="fill:#1f77b4;stroke:#1f77b4;" x="210.447301" xlink:href="#m4e252eec40" y="294.626704"/>
     <use style="fill:#1f77b4;stroke:#1f77b4;" x="216.117188" xlink:href="#m4e252eec40" y="304.72609"/>
     <use style="fill:#1f77b4;stroke:#1f77b4;" x="221.787074" xlink:href="#m4e252eec40" y="304.00147"/>
     <use style="fill:#1f77b4;stroke:#1f77b4;" x="227.45696" xlink:href="#m4e252eec40" y="86.796745"/>
     <use style="fill:#1f77b4;stroke:#1f77b4;" x="233.126847" xlink:href="#m4e252eec40" y="34.261824"/>
     <use style="fill:#1f77b4;stroke:#1f77b4;" x="238.796733" xlink:href="#m4e252eec40" y="24.79648"/>
     <use style="fill:#1f77b4;stroke:#1f77b4;" x="244.466619" xlink:href="#m4e252eec40" y="231.947109"/>
     <use style="fill:#1f77b4;stroke:#1f77b4;" x="250.136506" xlink:href="#m4e252eec40" y="270.578391"/>
     <use style="fill:#1f77b4;stroke:#1f77b4;" x="255.806392" xlink:href="#m4e252eec40" y="271.348299"/>
     <use style="fill:#1f77b4;stroke:#1f77b4;" x="261.476278" xlink:href="#m4e252eec40" y="270.940701"/>
     <use style="fill:#1f77b4;stroke:#1f77b4;" x="267.146165" xlink:href="#m4e252eec40" y="273.069271"/>
     <use style="fill:#1f77b4;stroke:#1f77b4;" x="272.816051" xlink:href="#m4e252eec40" y="272.842827"/>
     <use style="fill:#1f77b4;stroke:#1f77b4;" x="278.485937" xlink:href="#m4e252eec40" y="275.061975"/>
     <use style="fill:#1f77b4;stroke:#1f77b4;" x="284.155824" xlink:href="#m4e252eec40" y="275.061975"/>
     <use style="fill:#1f77b4;stroke:#1f77b4;" x="289.82571" xlink:href="#m4e252eec40" y="273.929757"/>
     <use style="fill:#1f77b4;stroke:#1f77b4;" x="295.495597" xlink:href="#m4e252eec40" y="273.386292"/>
     <use style="fill:#1f77b4;stroke:#1f77b4;" x="301.165483" xlink:href="#m4e252eec40" y="273.431581"/>
     <use style="fill:#1f77b4;stroke:#1f77b4;" x="306.835369" xlink:href="#m4e252eec40" y="274.744954"/>
     <use style="fill:#1f77b4;stroke:#1f77b4;" x="312.505256" xlink:href="#m4e252eec40" y="275.24313"/>
     <use style="fill:#1f77b4;stroke:#1f77b4;" x="318.175142" xlink:href="#m4e252eec40" y="276.28477"/>
     <use style="fill:#1f77b4;stroke:#1f77b4;" x="323.845028" xlink:href="#m4e252eec40" y="275.061975"/>
     <use style="fill:#1f77b4;stroke:#1f77b4;" x="329.514915" xlink:href="#m4e252eec40" y="274.292066"/>
     <use style="fill:#1f77b4;stroke:#1f77b4;" x="335.184801" xlink:href="#m4e252eec40" y="272.888116"/>
     <use style="fill:#1f77b4;stroke:#1f77b4;" x="340.854687" xlink:href="#m4e252eec40" y="274.337355"/>
     <use style="fill:#1f77b4;stroke:#1f77b4;" x="346.524574" xlink:href="#m4e252eec40" y="274.926109"/>
     <use style="fill:#1f77b4;stroke:#1f77b4;" x="352.19446" xlink:href="#m4e252eec40" y="276.239482"/>
     <use style="fill:#1f77b4;stroke:#1f77b4;" x="357.864347" xlink:href="#m4e252eec40" y="276.239482"/>
     <use style="fill:#1f77b4;stroke:#1f77b4;" x="363.534233" xlink:href="#m4e252eec40" y="275.831883"/>
     <use style="fill:#1f77b4;stroke:#1f77b4;" x="369.204119" xlink:href="#m4e252eec40" y="275.424285"/>
     <use style="fill:#1f77b4;stroke:#1f77b4;" x="374.874006" xlink:href="#m4e252eec40" y="275.197841"/>
     <use style="fill:#1f77b4;stroke:#1f77b4;" x="380.543892" xlink:href="#m4e252eec40" y="275.24313"/>
     <use style="fill:#1f77b4;stroke:#1f77b4;" x="386.213778" xlink:href="#m4e252eec40" y="275.378996"/>
     <use style="fill:#1f77b4;stroke:#1f77b4;" x="391.883665" xlink:href="#m4e252eec40" y="275.786594"/>
     <use style="fill:#1f77b4;stroke:#1f77b4;" x="397.553551" xlink:href="#m4e252eec40" y="276.556503"/>
     <use style="fill:#1f77b4;stroke:#1f77b4;" x="403.223437" xlink:href="#m4e252eec40" y="276.782946"/>
     <use style="fill:#1f77b4;stroke:#1f77b4;" x="408.893324" xlink:href="#m4e252eec40" y="277.054679"/>
     <use style="fill:#1f77b4;stroke:#1f77b4;" x="414.56321" xlink:href="#m4e252eec40" y="277.099967"/>
     <use style="fill:#1f77b4;stroke:#1f77b4;" x="420.233097" xlink:href="#m4e252eec40" y="276.964101"/>
     <use style="fill:#1f77b4;stroke:#1f77b4;" x="425.902983" xlink:href="#m4e252eec40" y="276.511214"/>
     <use style="fill:#1f77b4;stroke:#1f77b4;" x="431.572869" xlink:href="#m4e252eec40" y="276.918813"/>
    </g>
   </g>
   <g id="patch_3">
    <path d="M 44.603125 279.86258 
L 44.603125 10.8 
" style="fill:none;stroke:#000000;stroke-linecap:square;stroke-linejoin:miter;stroke-width:0.8;"/>
   </g>
   <g id="patch_4">
    <path d="M 450 279.86258 
L 450 10.8 
" style="fill:none;stroke:#000000;stroke-linecap:square;stroke-linejoin:miter;stroke-width:0.8;"/>
   </g>
   <g id="patch_5">
    <path d="M 44.603125 279.86258 
L 450 279.86258 
" style="fill:none;stroke:#000000;stroke-linecap:square;stroke-linejoin:miter;stroke-width:0.8;"/>
   </g>
   <g id="patch_6">
    <path d="M 44.603125 10.8 
L 450 10.8 
" style="fill:none;stroke:#000000;stroke-linecap:square;stroke-linejoin:miter;stroke-width:0.8;"/>
   </g>
  </g>
 </g>
 <defs>
  <clipPath id="p4506b9511c">
   <rect height="269.06258" width="405.396875" x="44.603125" y="10.8"/>
  </clipPath>
 </defs>
</svg>
