<?xml version="1.0" encoding="utf-8" standalone="no"?>
<!DOCTYPE svg PUBLIC "-//W3C//DTD SVG 1.1//EN"
  "http://www.w3.org/Graphics/SVG/1.1/DTD/svg11.dtd">
<!-- Created with matplotlib (https://matplotlib.org/) -->
<svg height="345.6pt" version="1.1" viewBox="0 0 460.8 345.6" width="460.8pt" xmlns="http://www.w3.org/2000/svg" xmlns:xlink="http://www.w3.org/1999/xlink">
 <defs>
  <style type="text/css">
*{stroke-linecap:butt;stroke-linejoin:round;}
  </style>
 </defs>
 <g id="figure_1">
  <g id="patch_1">
   <path d="M 0 345.6 
L 460.8 345.6 
L 460.8 0 
L 0 0 
z
" style="fill:#ffffff;"/>
  </g>
  <g id="axes_1">
   <g id="patch_2">
    <path d="M 47.78125 279.86258 
L 450 279.86258 
L 450 10.891951 
L 47.78125 10.891951 
z
" style="fill:#ffffff;"/>
   </g>
   <g id="matplotlib.axis_1">
    <g id="xtick_1">
     <g id="line2d_1">
      <defs>
       <path d="M 0 0 
L 0 3.5 
" id="mf5546ccc54" style="stroke:#000000;stroke-width:0.8;"/>
      </defs>
      <g>
       <use style="stroke:#000000;stroke-width:0.8;" x="77.314795" xlink:href="#mf5546ccc54" y="279.86258"/>
      </g>
     </g>
     <g id="text_1">
      <!-- 2020-03-15 -->
      <defs>
       <path d="M 19.1875 8.296875 
L 53.609375 8.296875 
L 53.609375 0 
L 7.328125 0 
L 7.328125 8.296875 
Q 12.9375 14.109375 22.625 23.890625 
Q 32.328125 33.6875 34.8125 36.53125 
Q 39.546875 41.84375 41.421875 45.53125 
Q 43.3125 49.21875 43.3125 52.78125 
Q 43.3125 58.59375 39.234375 62.25 
Q 35.15625 65.921875 28.609375 65.921875 
Q 23.96875 65.921875 18.8125 64.3125 
Q 13.671875 62.703125 7.8125 59.421875 
L 7.8125 69.390625 
Q 13.765625 71.78125 18.9375 73 
Q 24.125 74.21875 28.421875 74.21875 
Q 39.75 74.21875 46.484375 68.546875 
Q 53.21875 62.890625 53.21875 53.421875 
Q 53.21875 48.921875 51.53125 44.890625 
Q 49.859375 40.875 45.40625 35.40625 
Q 44.1875 33.984375 37.640625 27.21875 
Q 31.109375 20.453125 19.1875 8.296875 
z
" id="DejaVuSans-50"/>
       <path d="M 31.78125 66.40625 
Q 24.171875 66.40625 20.328125 58.90625 
Q 16.5 51.421875 16.5 36.375 
Q 16.5 21.390625 20.328125 13.890625 
Q 24.171875 6.390625 31.78125 6.390625 
Q 39.453125 6.390625 43.28125 13.890625 
Q 47.125 21.390625 47.125 36.375 
Q 47.125 51.421875 43.28125 58.90625 
Q 39.453125 66.40625 31.78125 66.40625 
z
M 31.78125 74.21875 
Q 44.046875 74.21875 50.515625 64.515625 
Q 56.984375 54.828125 56.984375 36.375 
Q 56.984375 17.96875 50.515625 8.265625 
Q 44.046875 -1.421875 31.78125 -1.421875 
Q 19.53125 -1.421875 13.0625 8.265625 
Q 6.59375 17.96875 6.59375 36.375 
Q 6.59375 54.828125 13.0625 64.515625 
Q 19.53125 74.21875 31.78125 74.21875 
z
" id="DejaVuSans-48"/>
       <path d="M 4.890625 31.390625 
L 31.203125 31.390625 
L 31.203125 23.390625 
L 4.890625 23.390625 
z
" id="DejaVuSans-45"/>
       <path d="M 40.578125 39.3125 
Q 47.65625 37.796875 51.625 33 
Q 55.609375 28.21875 55.609375 21.1875 
Q 55.609375 10.40625 48.1875 4.484375 
Q 40.765625 -1.421875 27.09375 -1.421875 
Q 22.515625 -1.421875 17.65625 -0.515625 
Q 12.796875 0.390625 7.625 2.203125 
L 7.625 11.71875 
Q 11.71875 9.328125 16.59375 8.109375 
Q 21.484375 6.890625 26.8125 6.890625 
Q 36.078125 6.890625 40.9375 10.546875 
Q 45.796875 14.203125 45.796875 21.1875 
Q 45.796875 27.640625 41.28125 31.265625 
Q 36.765625 34.90625 28.71875 34.90625 
L 20.21875 34.90625 
L 20.21875 43.015625 
L 29.109375 43.015625 
Q 36.375 43.015625 40.234375 45.921875 
Q 44.09375 48.828125 44.09375 54.296875 
Q 44.09375 59.90625 40.109375 62.90625 
Q 36.140625 65.921875 28.71875 65.921875 
Q 24.65625 65.921875 20.015625 65.03125 
Q 15.375 64.15625 9.8125 62.3125 
L 9.8125 71.09375 
Q 15.4375 72.65625 20.34375 73.4375 
Q 25.25 74.21875 29.59375 74.21875 
Q 40.828125 74.21875 47.359375 69.109375 
Q 53.90625 64.015625 53.90625 55.328125 
Q 53.90625 49.265625 50.4375 45.09375 
Q 46.96875 40.921875 40.578125 39.3125 
z
" id="DejaVuSans-51"/>
       <path d="M 12.40625 8.296875 
L 28.515625 8.296875 
L 28.515625 63.921875 
L 10.984375 60.40625 
L 10.984375 69.390625 
L 28.421875 72.90625 
L 38.28125 72.90625 
L 38.28125 8.296875 
L 54.390625 8.296875 
L 54.390625 0 
L 12.40625 0 
z
" id="DejaVuSans-49"/>
       <path d="M 10.796875 72.90625 
L 49.515625 72.90625 
L 49.515625 64.59375 
L 19.828125 64.59375 
L 19.828125 46.734375 
Q 21.96875 47.46875 24.109375 47.828125 
Q 26.265625 48.1875 28.421875 48.1875 
Q 40.625 48.1875 47.75 41.5 
Q 54.890625 34.8125 54.890625 23.390625 
Q 54.890625 11.625 47.5625 5.09375 
Q 40.234375 -1.421875 26.90625 -1.421875 
Q 22.3125 -1.421875 17.546875 -0.640625 
Q 12.796875 0.140625 7.71875 1.703125 
L 7.71875 11.625 
Q 12.109375 9.234375 16.796875 8.0625 
Q 21.484375 6.890625 26.703125 6.890625 
Q 35.15625 6.890625 40.078125 11.328125 
Q 45.015625 15.765625 45.015625 23.390625 
Q 45.015625 31 40.078125 35.4375 
Q 35.15625 39.890625 26.703125 39.890625 
Q 22.75 39.890625 18.8125 39.015625 
Q 14.890625 38.140625 10.796875 36.28125 
z
" id="DejaVuSans-53"/>
      </defs>
      <g transform="translate(58.718991 333.329439)rotate(-45)scale(0.1 -0.1)">
       <use xlink:href="#DejaVuSans-50"/>
       <use x="63.623047" xlink:href="#DejaVuSans-48"/>
       <use x="127.246094" xlink:href="#DejaVuSans-50"/>
       <use x="190.869141" xlink:href="#DejaVuSans-48"/>
       <use x="254.492188" xlink:href="#DejaVuSans-45"/>
       <use x="290.576172" xlink:href="#DejaVuSans-48"/>
       <use x="354.199219" xlink:href="#DejaVuSans-51"/>
       <use x="417.822266" xlink:href="#DejaVuSans-45"/>
       <use x="453.90625" xlink:href="#DejaVuSans-49"/>
       <use x="517.529297" xlink:href="#DejaVuSans-53"/>
      </g>
     </g>
    </g>
    <g id="xtick_2">
     <g id="line2d_2">
      <g>
       <use style="stroke:#000000;stroke-width:0.8;" x="172.947225" xlink:href="#mf5546ccc54" y="279.86258"/>
      </g>
     </g>
     <g id="text_2">
      <!-- 2020-04-01 -->
      <defs>
       <path d="M 37.796875 64.3125 
L 12.890625 25.390625 
L 37.796875 25.390625 
z
M 35.203125 72.90625 
L 47.609375 72.90625 
L 47.609375 25.390625 
L 58.015625 25.390625 
L 58.015625 17.1875 
L 47.609375 17.1875 
L 47.609375 0 
L 37.796875 0 
L 37.796875 17.1875 
L 4.890625 17.1875 
L 4.890625 26.703125 
z
" id="DejaVuSans-52"/>
      </defs>
      <g transform="translate(154.351421 333.329439)rotate(-45)scale(0.1 -0.1)">
       <use xlink:href="#DejaVuSans-50"/>
       <use x="63.623047" xlink:href="#DejaVuSans-48"/>
       <use x="127.246094" xlink:href="#DejaVuSans-50"/>
       <use x="190.869141" xlink:href="#DejaVuSans-48"/>
       <use x="254.492188" xlink:href="#DejaVuSans-45"/>
       <use x="290.576172" xlink:href="#DejaVuSans-48"/>
       <use x="354.199219" xlink:href="#DejaVuSans-52"/>
       <use x="417.822266" xlink:href="#DejaVuSans-45"/>
       <use x="453.90625" xlink:href="#DejaVuSans-48"/>
       <use x="517.529297" xlink:href="#DejaVuSans-49"/>
      </g>
     </g>
    </g>
    <g id="xtick_3">
     <g id="line2d_3">
      <g>
       <use style="stroke:#000000;stroke-width:0.8;" x="251.703344" xlink:href="#mf5546ccc54" y="279.86258"/>
      </g>
     </g>
     <g id="text_3">
      <!-- 2020-04-15 -->
      <g transform="translate(233.10754 333.329439)rotate(-45)scale(0.1 -0.1)">
       <use xlink:href="#DejaVuSans-50"/>
       <use x="63.623047" xlink:href="#DejaVuSans-48"/>
       <use x="127.246094" xlink:href="#DejaVuSans-50"/>
       <use x="190.869141" xlink:href="#DejaVuSans-48"/>
       <use x="254.492188" xlink:href="#DejaVuSans-45"/>
       <use x="290.576172" xlink:href="#DejaVuSans-48"/>
       <use x="354.199219" xlink:href="#DejaVuSans-52"/>
       <use x="417.822266" xlink:href="#DejaVuSans-45"/>
       <use x="453.90625" xlink:href="#DejaVuSans-49"/>
       <use x="517.529297" xlink:href="#DejaVuSans-53"/>
      </g>
     </g>
    </g>
    <g id="xtick_4">
     <g id="line2d_4">
      <g>
       <use style="stroke:#000000;stroke-width:0.8;" x="341.710337" xlink:href="#mf5546ccc54" y="279.86258"/>
      </g>
     </g>
     <g id="text_4">
      <!-- 2020-05-01 -->
      <g transform="translate(323.114533 333.329439)rotate(-45)scale(0.1 -0.1)">
       <use xlink:href="#DejaVuSans-50"/>
       <use x="63.623047" xlink:href="#DejaVuSans-48"/>
       <use x="127.246094" xlink:href="#DejaVuSans-50"/>
       <use x="190.869141" xlink:href="#DejaVuSans-48"/>
       <use x="254.492188" xlink:href="#DejaVuSans-45"/>
       <use x="290.576172" xlink:href="#DejaVuSans-48"/>
       <use x="354.199219" xlink:href="#DejaVuSans-53"/>
       <use x="417.822266" xlink:href="#DejaVuSans-45"/>
       <use x="453.90625" xlink:href="#DejaVuSans-48"/>
       <use x="517.529297" xlink:href="#DejaVuSans-49"/>
      </g>
     </g>
    </g>
    <g id="xtick_5">
     <g id="line2d_5">
      <g>
       <use style="stroke:#000000;stroke-width:0.8;" x="420.466455" xlink:href="#mf5546ccc54" y="279.86258"/>
      </g>
     </g>
     <g id="text_5">
      <!-- 2020-05-15 -->
      <g transform="translate(401.870652 333.329439)rotate(-45)scale(0.1 -0.1)">
       <use xlink:href="#DejaVuSans-50"/>
       <use x="63.623047" xlink:href="#DejaVuSans-48"/>
       <use x="127.246094" xlink:href="#DejaVuSans-50"/>
       <use x="190.869141" xlink:href="#DejaVuSans-48"/>
       <use x="254.492188" xlink:href="#DejaVuSans-45"/>
       <use x="290.576172" xlink:href="#DejaVuSans-48"/>
       <use x="354.199219" xlink:href="#DejaVuSans-53"/>
       <use x="417.822266" xlink:href="#DejaVuSans-45"/>
       <use x="453.90625" xlink:href="#DejaVuSans-49"/>
       <use x="517.529297" xlink:href="#DejaVuSans-53"/>
      </g>
     </g>
    </g>
   </g>
   <g id="matplotlib.axis_2">
    <g id="ytick_1">
     <g id="line2d_6">
      <defs>
       <path d="M 0 0 
L -3.5 0 
" id="m2277371a06" style="stroke:#000000;stroke-width:0.8;"/>
      </defs>
      <g>
       <use style="stroke:#000000;stroke-width:0.8;" x="47.78125" xlink:href="#m2277371a06" y="279.86258"/>
      </g>
     </g>
     <g id="text_6">
      <!-- 0.0 -->
      <defs>
       <path d="M 10.6875 12.40625 
L 21 12.40625 
L 21 0 
L 10.6875 0 
z
" id="DejaVuSans-46"/>
      </defs>
      <g transform="translate(24.878125 283.661798)scale(0.1 -0.1)">
       <use xlink:href="#DejaVuSans-48"/>
       <use x="63.623047" xlink:href="#DejaVuSans-46"/>
       <use x="95.410156" xlink:href="#DejaVuSans-48"/>
      </g>
     </g>
    </g>
    <g id="ytick_2">
     <g id="line2d_7">
      <g>
       <use style="stroke:#000000;stroke-width:0.8;" x="47.78125" xlink:href="#m2277371a06" y="235.658657"/>
      </g>
     </g>
     <g id="text_7">
      <!-- 0.5 -->
      <g transform="translate(24.878125 239.457876)scale(0.1 -0.1)">
       <use xlink:href="#DejaVuSans-48"/>
       <use x="63.623047" xlink:href="#DejaVuSans-46"/>
       <use x="95.410156" xlink:href="#DejaVuSans-53"/>
      </g>
     </g>
    </g>
    <g id="ytick_3">
     <g id="line2d_8">
      <g>
       <use style="stroke:#000000;stroke-width:0.8;" x="47.78125" xlink:href="#m2277371a06" y="191.454734"/>
      </g>
     </g>
     <g id="text_8">
      <!-- 1.0 -->
      <g transform="translate(24.878125 195.253953)scale(0.1 -0.1)">
       <use xlink:href="#DejaVuSans-49"/>
       <use x="63.623047" xlink:href="#DejaVuSans-46"/>
       <use x="95.410156" xlink:href="#DejaVuSans-48"/>
      </g>
     </g>
    </g>
    <g id="ytick_4">
     <g id="line2d_9">
      <g>
       <use style="stroke:#000000;stroke-width:0.8;" x="47.78125" xlink:href="#m2277371a06" y="147.250811"/>
      </g>
     </g>
     <g id="text_9">
      <!-- 1.5 -->
      <g transform="translate(24.878125 151.05003)scale(0.1 -0.1)">
       <use xlink:href="#DejaVuSans-49"/>
       <use x="63.623047" xlink:href="#DejaVuSans-46"/>
       <use x="95.410156" xlink:href="#DejaVuSans-53"/>
      </g>
     </g>
    </g>
    <g id="ytick_5">
     <g id="line2d_10">
      <g>
       <use style="stroke:#000000;stroke-width:0.8;" x="47.78125" xlink:href="#m2277371a06" y="103.046889"/>
      </g>
     </g>
     <g id="text_10">
      <!-- 2.0 -->
      <g transform="translate(24.878125 106.846107)scale(0.1 -0.1)">
       <use xlink:href="#DejaVuSans-50"/>
       <use x="63.623047" xlink:href="#DejaVuSans-46"/>
       <use x="95.410156" xlink:href="#DejaVuSans-48"/>
      </g>
     </g>
    </g>
    <g id="ytick_6">
     <g id="line2d_11">
      <g>
       <use style="stroke:#000000;stroke-width:0.8;" x="47.78125" xlink:href="#m2277371a06" y="58.842966"/>
      </g>
     </g>
     <g id="text_11">
      <!-- 2.5 -->
      <g transform="translate(24.878125 62.642185)scale(0.1 -0.1)">
       <use xlink:href="#DejaVuSans-50"/>
       <use x="63.623047" xlink:href="#DejaVuSans-46"/>
       <use x="95.410156" xlink:href="#DejaVuSans-53"/>
      </g>
     </g>
    </g>
    <g id="ytick_7">
     <g id="line2d_12">
      <g>
       <use style="stroke:#000000;stroke-width:0.8;" x="47.78125" xlink:href="#m2277371a06" y="14.639043"/>
      </g>
     </g>
     <g id="text_12">
      <!-- 3.0 -->
      <g transform="translate(24.878125 18.438262)scale(0.1 -0.1)">
       <use xlink:href="#DejaVuSans-51"/>
       <use x="63.623047" xlink:href="#DejaVuSans-46"/>
       <use x="95.410156" xlink:href="#DejaVuSans-48"/>
      </g>
     </g>
    </g>
    <g id="text_13">
     <!-- MC hospitalizados (por 100000 hab.) (Media 3 días) -->
     <defs>
      <path d="M 9.8125 72.90625 
L 24.515625 72.90625 
L 43.109375 23.296875 
L 61.8125 72.90625 
L 76.515625 72.90625 
L 76.515625 0 
L 66.890625 0 
L 66.890625 64.015625 
L 48.09375 14.015625 
L 38.1875 14.015625 
L 19.390625 64.015625 
L 19.390625 0 
L 9.8125 0 
z
" id="DejaVuSans-77"/>
      <path d="M 64.40625 67.28125 
L 64.40625 56.890625 
Q 59.421875 61.53125 53.78125 63.8125 
Q 48.140625 66.109375 41.796875 66.109375 
Q 29.296875 66.109375 22.65625 58.46875 
Q 16.015625 50.828125 16.015625 36.375 
Q 16.015625 21.96875 22.65625 14.328125 
Q 29.296875 6.6875 41.796875 6.6875 
Q 48.140625 6.6875 53.78125 8.984375 
Q 59.421875 11.28125 64.40625 15.921875 
L 64.40625 5.609375 
Q 59.234375 2.09375 53.4375 0.328125 
Q 47.65625 -1.421875 41.21875 -1.421875 
Q 24.65625 -1.421875 15.125 8.703125 
Q 5.609375 18.84375 5.609375 36.375 
Q 5.609375 53.953125 15.125 64.078125 
Q 24.65625 74.21875 41.21875 74.21875 
Q 47.75 74.21875 53.53125 72.484375 
Q 59.328125 70.75 64.40625 67.28125 
z
" id="DejaVuSans-67"/>
      <path id="DejaVuSans-32"/>
      <path d="M 54.890625 33.015625 
L 54.890625 0 
L 45.90625 0 
L 45.90625 32.71875 
Q 45.90625 40.484375 42.875 44.328125 
Q 39.84375 48.1875 33.796875 48.1875 
Q 26.515625 48.1875 22.3125 43.546875 
Q 18.109375 38.921875 18.109375 30.90625 
L 18.109375 0 
L 9.078125 0 
L 9.078125 75.984375 
L 18.109375 75.984375 
L 18.109375 46.1875 
Q 21.34375 51.125 25.703125 53.5625 
Q 30.078125 56 35.796875 56 
Q 45.21875 56 50.046875 50.171875 
Q 54.890625 44.34375 54.890625 33.015625 
z
" id="DejaVuSans-104"/>
      <path d="M 30.609375 48.390625 
Q 23.390625 48.390625 19.1875 42.75 
Q 14.984375 37.109375 14.984375 27.296875 
Q 14.984375 17.484375 19.15625 11.84375 
Q 23.34375 6.203125 30.609375 6.203125 
Q 37.796875 6.203125 41.984375 11.859375 
Q 46.1875 17.53125 46.1875 27.296875 
Q 46.1875 37.015625 41.984375 42.703125 
Q 37.796875 48.390625 30.609375 48.390625 
z
M 30.609375 56 
Q 42.328125 56 49.015625 48.375 
Q 55.71875 40.765625 55.71875 27.296875 
Q 55.71875 13.875 49.015625 6.21875 
Q 42.328125 -1.421875 30.609375 -1.421875 
Q 18.84375 -1.421875 12.171875 6.21875 
Q 5.515625 13.875 5.515625 27.296875 
Q 5.515625 40.765625 12.171875 48.375 
Q 18.84375 56 30.609375 56 
z
" id="DejaVuSans-111"/>
      <path d="M 44.28125 53.078125 
L 44.28125 44.578125 
Q 40.484375 46.53125 36.375 47.5 
Q 32.28125 48.484375 27.875 48.484375 
Q 21.1875 48.484375 17.84375 46.4375 
Q 14.5 44.390625 14.5 40.28125 
Q 14.5 37.15625 16.890625 35.375 
Q 19.28125 33.59375 26.515625 31.984375 
L 29.59375 31.296875 
Q 39.15625 29.25 43.1875 25.515625 
Q 47.21875 21.78125 47.21875 15.09375 
Q 47.21875 7.46875 41.1875 3.015625 
Q 35.15625 -1.421875 24.609375 -1.421875 
Q 20.21875 -1.421875 15.453125 -0.5625 
Q 10.6875 0.296875 5.421875 2 
L 5.421875 11.28125 
Q 10.40625 8.6875 15.234375 7.390625 
Q 20.0625 6.109375 24.8125 6.109375 
Q 31.15625 6.109375 34.5625 8.28125 
Q 37.984375 10.453125 37.984375 14.40625 
Q 37.984375 18.0625 35.515625 20.015625 
Q 33.0625 21.96875 24.703125 23.78125 
L 21.578125 24.515625 
Q 13.234375 26.265625 9.515625 29.90625 
Q 5.8125 33.546875 5.8125 39.890625 
Q 5.8125 47.609375 11.28125 51.796875 
Q 16.75 56 26.8125 56 
Q 31.78125 56 36.171875 55.265625 
Q 40.578125 54.546875 44.28125 53.078125 
z
" id="DejaVuSans-115"/>
      <path d="M 18.109375 8.203125 
L 18.109375 -20.796875 
L 9.078125 -20.796875 
L 9.078125 54.6875 
L 18.109375 54.6875 
L 18.109375 46.390625 
Q 20.953125 51.265625 25.265625 53.625 
Q 29.59375 56 35.59375 56 
Q 45.5625 56 51.78125 48.09375 
Q 58.015625 40.1875 58.015625 27.296875 
Q 58.015625 14.40625 51.78125 6.484375 
Q 45.5625 -1.421875 35.59375 -1.421875 
Q 29.59375 -1.421875 25.265625 0.953125 
Q 20.953125 3.328125 18.109375 8.203125 
z
M 48.6875 27.296875 
Q 48.6875 37.203125 44.609375 42.84375 
Q 40.53125 48.484375 33.40625 48.484375 
Q 26.265625 48.484375 22.1875 42.84375 
Q 18.109375 37.203125 18.109375 27.296875 
Q 18.109375 17.390625 22.1875 11.75 
Q 26.265625 6.109375 33.40625 6.109375 
Q 40.53125 6.109375 44.609375 11.75 
Q 48.6875 17.390625 48.6875 27.296875 
z
" id="DejaVuSans-112"/>
      <path d="M 9.421875 54.6875 
L 18.40625 54.6875 
L 18.40625 0 
L 9.421875 0 
z
M 9.421875 75.984375 
L 18.40625 75.984375 
L 18.40625 64.59375 
L 9.421875 64.59375 
z
" id="DejaVuSans-105"/>
      <path d="M 18.3125 70.21875 
L 18.3125 54.6875 
L 36.8125 54.6875 
L 36.8125 47.703125 
L 18.3125 47.703125 
L 18.3125 18.015625 
Q 18.3125 11.328125 20.140625 9.421875 
Q 21.96875 7.515625 27.59375 7.515625 
L 36.8125 7.515625 
L 36.8125 0 
L 27.59375 0 
Q 17.1875 0 13.234375 3.875 
Q 9.28125 7.765625 9.28125 18.015625 
L 9.28125 47.703125 
L 2.6875 47.703125 
L 2.6875 54.6875 
L 9.28125 54.6875 
L 9.28125 70.21875 
z
" id="DejaVuSans-116"/>
      <path d="M 34.28125 27.484375 
Q 23.390625 27.484375 19.1875 25 
Q 14.984375 22.515625 14.984375 16.5 
Q 14.984375 11.71875 18.140625 8.90625 
Q 21.296875 6.109375 26.703125 6.109375 
Q 34.1875 6.109375 38.703125 11.40625 
Q 43.21875 16.703125 43.21875 25.484375 
L 43.21875 27.484375 
z
M 52.203125 31.203125 
L 52.203125 0 
L 43.21875 0 
L 43.21875 8.296875 
Q 40.140625 3.328125 35.546875 0.953125 
Q 30.953125 -1.421875 24.3125 -1.421875 
Q 15.921875 -1.421875 10.953125 3.296875 
Q 6 8.015625 6 15.921875 
Q 6 25.140625 12.171875 29.828125 
Q 18.359375 34.515625 30.609375 34.515625 
L 43.21875 34.515625 
L 43.21875 35.40625 
Q 43.21875 41.609375 39.140625 45 
Q 35.0625 48.390625 27.6875 48.390625 
Q 23 48.390625 18.546875 47.265625 
Q 14.109375 46.140625 10.015625 43.890625 
L 10.015625 52.203125 
Q 14.9375 54.109375 19.578125 55.046875 
Q 24.21875 56 28.609375 56 
Q 40.484375 56 46.34375 49.84375 
Q 52.203125 43.703125 52.203125 31.203125 
z
" id="DejaVuSans-97"/>
      <path d="M 9.421875 75.984375 
L 18.40625 75.984375 
L 18.40625 0 
L 9.421875 0 
z
" id="DejaVuSans-108"/>
      <path d="M 5.515625 54.6875 
L 48.1875 54.6875 
L 48.1875 46.484375 
L 14.40625 7.171875 
L 48.1875 7.171875 
L 48.1875 0 
L 4.296875 0 
L 4.296875 8.203125 
L 38.09375 47.515625 
L 5.515625 47.515625 
z
" id="DejaVuSans-122"/>
      <path d="M 45.40625 46.390625 
L 45.40625 75.984375 
L 54.390625 75.984375 
L 54.390625 0 
L 45.40625 0 
L 45.40625 8.203125 
Q 42.578125 3.328125 38.25 0.953125 
Q 33.9375 -1.421875 27.875 -1.421875 
Q 17.96875 -1.421875 11.734375 6.484375 
Q 5.515625 14.40625 5.515625 27.296875 
Q 5.515625 40.1875 11.734375 48.09375 
Q 17.96875 56 27.875 56 
Q 33.9375 56 38.25 53.625 
Q 42.578125 51.265625 45.40625 46.390625 
z
M 14.796875 27.296875 
Q 14.796875 17.390625 18.875 11.75 
Q 22.953125 6.109375 30.078125 6.109375 
Q 37.203125 6.109375 41.296875 11.75 
Q 45.40625 17.390625 45.40625 27.296875 
Q 45.40625 37.203125 41.296875 42.84375 
Q 37.203125 48.484375 30.078125 48.484375 
Q 22.953125 48.484375 18.875 42.84375 
Q 14.796875 37.203125 14.796875 27.296875 
z
" id="DejaVuSans-100"/>
      <path d="M 31 75.875 
Q 24.46875 64.65625 21.28125 53.65625 
Q 18.109375 42.671875 18.109375 31.390625 
Q 18.109375 20.125 21.3125 9.0625 
Q 24.515625 -2 31 -13.1875 
L 23.1875 -13.1875 
Q 15.875 -1.703125 12.234375 9.375 
Q 8.59375 20.453125 8.59375 31.390625 
Q 8.59375 42.28125 12.203125 53.3125 
Q 15.828125 64.359375 23.1875 75.875 
z
" id="DejaVuSans-40"/>
      <path d="M 41.109375 46.296875 
Q 39.59375 47.171875 37.8125 47.578125 
Q 36.03125 48 33.890625 48 
Q 26.265625 48 22.1875 43.046875 
Q 18.109375 38.09375 18.109375 28.8125 
L 18.109375 0 
L 9.078125 0 
L 9.078125 54.6875 
L 18.109375 54.6875 
L 18.109375 46.1875 
Q 20.953125 51.171875 25.484375 53.578125 
Q 30.03125 56 36.53125 56 
Q 37.453125 56 38.578125 55.875 
Q 39.703125 55.765625 41.0625 55.515625 
z
" id="DejaVuSans-114"/>
      <path d="M 48.6875 27.296875 
Q 48.6875 37.203125 44.609375 42.84375 
Q 40.53125 48.484375 33.40625 48.484375 
Q 26.265625 48.484375 22.1875 42.84375 
Q 18.109375 37.203125 18.109375 27.296875 
Q 18.109375 17.390625 22.1875 11.75 
Q 26.265625 6.109375 33.40625 6.109375 
Q 40.53125 6.109375 44.609375 11.75 
Q 48.6875 17.390625 48.6875 27.296875 
z
M 18.109375 46.390625 
Q 20.953125 51.265625 25.265625 53.625 
Q 29.59375 56 35.59375 56 
Q 45.5625 56 51.78125 48.09375 
Q 58.015625 40.1875 58.015625 27.296875 
Q 58.015625 14.40625 51.78125 6.484375 
Q 45.5625 -1.421875 35.59375 -1.421875 
Q 29.59375 -1.421875 25.265625 0.953125 
Q 20.953125 3.328125 18.109375 8.203125 
L 18.109375 0 
L 9.078125 0 
L 9.078125 75.984375 
L 18.109375 75.984375 
z
" id="DejaVuSans-98"/>
      <path d="M 8.015625 75.875 
L 15.828125 75.875 
Q 23.140625 64.359375 26.78125 53.3125 
Q 30.421875 42.28125 30.421875 31.390625 
Q 30.421875 20.453125 26.78125 9.375 
Q 23.140625 -1.703125 15.828125 -13.1875 
L 8.015625 -13.1875 
Q 14.5 -2 17.703125 9.0625 
Q 20.90625 20.125 20.90625 31.390625 
Q 20.90625 42.671875 17.703125 53.65625 
Q 14.5 64.65625 8.015625 75.875 
z
" id="DejaVuSans-41"/>
      <path d="M 56.203125 29.59375 
L 56.203125 25.203125 
L 14.890625 25.203125 
Q 15.484375 15.921875 20.484375 11.0625 
Q 25.484375 6.203125 34.421875 6.203125 
Q 39.59375 6.203125 44.453125 7.46875 
Q 49.3125 8.734375 54.109375 11.28125 
L 54.109375 2.78125 
Q 49.265625 0.734375 44.1875 -0.34375 
Q 39.109375 -1.421875 33.890625 -1.421875 
Q 20.796875 -1.421875 13.15625 6.1875 
Q 5.515625 13.8125 5.515625 26.8125 
Q 5.515625 40.234375 12.765625 48.109375 
Q 20.015625 56 32.328125 56 
Q 43.359375 56 49.78125 48.890625 
Q 56.203125 41.796875 56.203125 29.59375 
z
M 47.21875 32.234375 
Q 47.125 39.59375 43.09375 43.984375 
Q 39.0625 48.390625 32.421875 48.390625 
Q 24.90625 48.390625 20.390625 44.140625 
Q 15.875 39.890625 15.1875 32.171875 
z
" id="DejaVuSans-101"/>
      <path d="M 20.65625 79.984375 
L 30.375 79.984375 
L 14.46875 61.625 
L 6.984375 61.625 
z
M 9.421875 54.6875 
L 18.40625 54.6875 
L 18.40625 0 
L 9.421875 0 
z
M 13.921875 56 
z
" id="DejaVuSans-237"/>
     </defs>
     <g transform="translate(18.798437 274.638203)rotate(-90)scale(0.1 -0.1)">
      <use xlink:href="#DejaVuSans-77"/>
      <use x="86.279297" xlink:href="#DejaVuSans-67"/>
      <use x="156.103516" xlink:href="#DejaVuSans-32"/>
      <use x="187.890625" xlink:href="#DejaVuSans-104"/>
      <use x="251.269531" xlink:href="#DejaVuSans-111"/>
      <use x="312.451172" xlink:href="#DejaVuSans-115"/>
      <use x="364.550781" xlink:href="#DejaVuSans-112"/>
      <use x="428.027344" xlink:href="#DejaVuSans-105"/>
      <use x="455.810547" xlink:href="#DejaVuSans-116"/>
      <use x="495.019531" xlink:href="#DejaVuSans-97"/>
      <use x="556.298828" xlink:href="#DejaVuSans-108"/>
      <use x="584.082031" xlink:href="#DejaVuSans-105"/>
      <use x="611.865234" xlink:href="#DejaVuSans-122"/>
      <use x="664.355469" xlink:href="#DejaVuSans-97"/>
      <use x="725.634766" xlink:href="#DejaVuSans-100"/>
      <use x="789.111328" xlink:href="#DejaVuSans-111"/>
      <use x="850.292969" xlink:href="#DejaVuSans-115"/>
      <use x="902.392578" xlink:href="#DejaVuSans-32"/>
      <use x="934.179688" xlink:href="#DejaVuSans-40"/>
      <use x="973.193359" xlink:href="#DejaVuSans-112"/>
      <use x="1036.669922" xlink:href="#DejaVuSans-111"/>
      <use x="1097.851562" xlink:href="#DejaVuSans-114"/>
      <use x="1138.964844" xlink:href="#DejaVuSans-32"/>
      <use x="1170.751953" xlink:href="#DejaVuSans-49"/>
      <use x="1234.375" xlink:href="#DejaVuSans-48"/>
      <use x="1297.998047" xlink:href="#DejaVuSans-48"/>
      <use x="1361.621094" xlink:href="#DejaVuSans-48"/>
      <use x="1425.244141" xlink:href="#DejaVuSans-48"/>
      <use x="1488.867188" xlink:href="#DejaVuSans-48"/>
      <use x="1552.490234" xlink:href="#DejaVuSans-32"/>
      <use x="1584.277344" xlink:href="#DejaVuSans-104"/>
      <use x="1647.65625" xlink:href="#DejaVuSans-97"/>
      <use x="1708.935547" xlink:href="#DejaVuSans-98"/>
      <use x="1772.412109" xlink:href="#DejaVuSans-46"/>
      <use x="1804.199219" xlink:href="#DejaVuSans-41"/>
      <use x="1843.212891" xlink:href="#DejaVuSans-32"/>
      <use x="1875" xlink:href="#DejaVuSans-40"/>
      <use x="1914.013672" xlink:href="#DejaVuSans-77"/>
      <use x="2000.292969" xlink:href="#DejaVuSans-101"/>
      <use x="2061.816406" xlink:href="#DejaVuSans-100"/>
      <use x="2125.292969" xlink:href="#DejaVuSans-105"/>
      <use x="2153.076172" xlink:href="#DejaVuSans-97"/>
      <use x="2214.355469" xlink:href="#DejaVuSans-32"/>
      <use x="2246.142578" xlink:href="#DejaVuSans-51"/>
      <use x="2309.765625" xlink:href="#DejaVuSans-32"/>
      <use x="2341.552734" xlink:href="#DejaVuSans-100"/>
      <use x="2405.029297" xlink:href="#DejaVuSans-237"/>
      <use x="2432.8125" xlink:href="#DejaVuSans-97"/>
      <use x="2494.091797" xlink:href="#DejaVuSans-115"/>
      <use x="2546.191406" xlink:href="#DejaVuSans-41"/>
     </g>
    </g>
   </g>
   <g id="line2d_13">
    <path clip-path="url(#pb5233226a2)" d="M 66.06392 271.974878 
L 71.689358 264.087176 
L 77.314795 270.002952 
L 82.940232 260.143325 
L 88.565669 262.115251 
L 94.191106 234.508295 
L 99.816543 222.676742 
L 105.44198 202.957488 
L 111.067417 197.041712 
L 116.692854 214.78904 
L 122.318291 204.929413 
L 127.943728 183.238234 
L 133.569165 98.44544 
L 139.194602 62.950782 
L 144.820039 74.782335 
L 150.445476 106.333142 
L 156.070913 169.434756 
L 161.696351 177.322457 
L 167.321788 193.097861 
L 172.947225 35.343826 
L 178.572662 39.287677 
L 184.198099 23.512274 
L 189.823536 165.490905 
L 195.448973 155.631277 
L 201.07441 149.715501 
L 206.699847 145.77165 
L 212.325284 151.687427 
L 217.950721 214.78904 
L 223.576158 244.367922 
L 229.201595 271.974878 
L 234.827032 260.143325 
L 240.452469 214.78904 
L 246.077906 206.901339 
L 251.703344 216.760966 
L 257.328781 242.395996 
L 262.954218 206.901339 
L 268.579655 206.901339 
L 274.205092 226.620593 
L 279.830529 273.946803 
L 285.455966 260.143325 
L 291.081403 256.199474 
L 296.70684 258.1714 
L 302.332277 273.946803 
L 307.957714 273.946803 
L 313.583151 275.918729 
L 319.208588 271.974878 
L 324.834025 264.087176 
L 330.459462 260.143325 
L 336.084899 262.115251 
L 341.710337 271.974878 
L 347.335774 271.974878 
L 352.961211 266.059102 
L 358.586648 258.1714 
L 364.212085 262.115251 
L 369.837522 266.059102 
L 375.462959 262.115251 
L 381.088396 256.199474 
L 386.713833 260.143325 
L 392.33927 268.031027 
L 397.964707 273.946803 
L 403.590144 271.974878 
L 409.215581 266.059102 
L 414.841018 260.143325 
L 420.466455 260.143325 
L 426.091892 271.974878 
L 431.71733 273.946803 
" style="fill:none;stroke:#1f77b4;stroke-linecap:square;stroke-width:1.5;"/>
    <defs>
     <path d="M 0 1.5 
C 0.397805 1.5 0.77937 1.341951 1.06066 1.06066 
C 1.341951 0.77937 1.5 0.397805 1.5 0 
C 1.5 -0.397805 1.341951 -0.77937 1.06066 -1.06066 
C 0.77937 -1.341951 0.397805 -1.5 0 -1.5 
C -0.397805 -1.5 -0.77937 -1.341951 -1.06066 -1.06066 
C -1.341951 -0.77937 -1.5 -0.397805 -1.5 0 
C -1.5 0.397805 -1.341951 0.77937 -1.06066 1.06066 
C -0.77937 1.341951 -0.397805 1.5 0 1.5 
z
" id="m7b8bae0b3c" style="stroke:#1f77b4;"/>
    </defs>
    <g clip-path="url(#pb5233226a2)">
     <use style="fill:#1f77b4;stroke:#1f77b4;" x="66.06392" xlink:href="#m7b8bae0b3c" y="271.974878"/>
     <use style="fill:#1f77b4;stroke:#1f77b4;" x="71.689358" xlink:href="#m7b8bae0b3c" y="264.087176"/>
     <use style="fill:#1f77b4;stroke:#1f77b4;" x="77.314795" xlink:href="#m7b8bae0b3c" y="270.002952"/>
     <use style="fill:#1f77b4;stroke:#1f77b4;" x="82.940232" xlink:href="#m7b8bae0b3c" y="260.143325"/>
     <use style="fill:#1f77b4;stroke:#1f77b4;" x="88.565669" xlink:href="#m7b8bae0b3c" y="262.115251"/>
     <use style="fill:#1f77b4;stroke:#1f77b4;" x="94.191106" xlink:href="#m7b8bae0b3c" y="234.508295"/>
     <use style="fill:#1f77b4;stroke:#1f77b4;" x="99.816543" xlink:href="#m7b8bae0b3c" y="222.676742"/>
     <use style="fill:#1f77b4;stroke:#1f77b4;" x="105.44198" xlink:href="#m7b8bae0b3c" y="202.957488"/>
     <use style="fill:#1f77b4;stroke:#1f77b4;" x="111.067417" xlink:href="#m7b8bae0b3c" y="197.041712"/>
     <use style="fill:#1f77b4;stroke:#1f77b4;" x="116.692854" xlink:href="#m7b8bae0b3c" y="214.78904"/>
     <use style="fill:#1f77b4;stroke:#1f77b4;" x="122.318291" xlink:href="#m7b8bae0b3c" y="204.929413"/>
     <use style="fill:#1f77b4;stroke:#1f77b4;" x="127.943728" xlink:href="#m7b8bae0b3c" y="183.238234"/>
     <use style="fill:#1f77b4;stroke:#1f77b4;" x="133.569165" xlink:href="#m7b8bae0b3c" y="98.44544"/>
     <use style="fill:#1f77b4;stroke:#1f77b4;" x="139.194602" xlink:href="#m7b8bae0b3c" y="62.950782"/>
     <use style="fill:#1f77b4;stroke:#1f77b4;" x="144.820039" xlink:href="#m7b8bae0b3c" y="74.782335"/>
     <use style="fill:#1f77b4;stroke:#1f77b4;" x="150.445476" xlink:href="#m7b8bae0b3c" y="106.333142"/>
     <use style="fill:#1f77b4;stroke:#1f77b4;" x="156.070913" xlink:href="#m7b8bae0b3c" y="169.434756"/>
     <use style="fill:#1f77b4;stroke:#1f77b4;" x="161.696351" xlink:href="#m7b8bae0b3c" y="177.322457"/>
     <use style="fill:#1f77b4;stroke:#1f77b4;" x="167.321788" xlink:href="#m7b8bae0b3c" y="193.097861"/>
     <use style="fill:#1f77b4;stroke:#1f77b4;" x="172.947225" xlink:href="#m7b8bae0b3c" y="35.343826"/>
     <use style="fill:#1f77b4;stroke:#1f77b4;" x="178.572662" xlink:href="#m7b8bae0b3c" y="39.287677"/>
     <use style="fill:#1f77b4;stroke:#1f77b4;" x="184.198099" xlink:href="#m7b8bae0b3c" y="23.512274"/>
     <use style="fill:#1f77b4;stroke:#1f77b4;" x="189.823536" xlink:href="#m7b8bae0b3c" y="165.490905"/>
     <use style="fill:#1f77b4;stroke:#1f77b4;" x="195.448973" xlink:href="#m7b8bae0b3c" y="155.631277"/>
     <use style="fill:#1f77b4;stroke:#1f77b4;" x="201.07441" xlink:href="#m7b8bae0b3c" y="149.715501"/>
     <use style="fill:#1f77b4;stroke:#1f77b4;" x="206.699847" xlink:href="#m7b8bae0b3c" y="145.77165"/>
     <use style="fill:#1f77b4;stroke:#1f77b4;" x="212.325284" xlink:href="#m7b8bae0b3c" y="151.687427"/>
     <use style="fill:#1f77b4;stroke:#1f77b4;" x="217.950721" xlink:href="#m7b8bae0b3c" y="214.78904"/>
     <use style="fill:#1f77b4;stroke:#1f77b4;" x="223.576158" xlink:href="#m7b8bae0b3c" y="244.367922"/>
     <use style="fill:#1f77b4;stroke:#1f77b4;" x="229.201595" xlink:href="#m7b8bae0b3c" y="271.974878"/>
     <use style="fill:#1f77b4;stroke:#1f77b4;" x="234.827032" xlink:href="#m7b8bae0b3c" y="260.143325"/>
     <use style="fill:#1f77b4;stroke:#1f77b4;" x="240.452469" xlink:href="#m7b8bae0b3c" y="214.78904"/>
     <use style="fill:#1f77b4;stroke:#1f77b4;" x="246.077906" xlink:href="#m7b8bae0b3c" y="206.901339"/>
     <use style="fill:#1f77b4;stroke:#1f77b4;" x="251.703344" xlink:href="#m7b8bae0b3c" y="216.760966"/>
     <use style="fill:#1f77b4;stroke:#1f77b4;" x="257.328781" xlink:href="#m7b8bae0b3c" y="242.395996"/>
     <use style="fill:#1f77b4;stroke:#1f77b4;" x="262.954218" xlink:href="#m7b8bae0b3c" y="206.901339"/>
     <use style="fill:#1f77b4;stroke:#1f77b4;" x="268.579655" xlink:href="#m7b8bae0b3c" y="206.901339"/>
     <use style="fill:#1f77b4;stroke:#1f77b4;" x="274.205092" xlink:href="#m7b8bae0b3c" y="226.620593"/>
     <use style="fill:#1f77b4;stroke:#1f77b4;" x="279.830529" xlink:href="#m7b8bae0b3c" y="273.946803"/>
     <use style="fill:#1f77b4;stroke:#1f77b4;" x="285.455966" xlink:href="#m7b8bae0b3c" y="260.143325"/>
     <use style="fill:#1f77b4;stroke:#1f77b4;" x="291.081403" xlink:href="#m7b8bae0b3c" y="256.199474"/>
     <use style="fill:#1f77b4;stroke:#1f77b4;" x="296.70684" xlink:href="#m7b8bae0b3c" y="258.1714"/>
     <use style="fill:#1f77b4;stroke:#1f77b4;" x="302.332277" xlink:href="#m7b8bae0b3c" y="273.946803"/>
     <use style="fill:#1f77b4;stroke:#1f77b4;" x="307.957714" xlink:href="#m7b8bae0b3c" y="273.946803"/>
     <use style="fill:#1f77b4;stroke:#1f77b4;" x="313.583151" xlink:href="#m7b8bae0b3c" y="275.918729"/>
     <use style="fill:#1f77b4;stroke:#1f77b4;" x="319.208588" xlink:href="#m7b8bae0b3c" y="271.974878"/>
     <use style="fill:#1f77b4;stroke:#1f77b4;" x="324.834025" xlink:href="#m7b8bae0b3c" y="264.087176"/>
     <use style="fill:#1f77b4;stroke:#1f77b4;" x="330.459462" xlink:href="#m7b8bae0b3c" y="260.143325"/>
     <use style="fill:#1f77b4;stroke:#1f77b4;" x="336.084899" xlink:href="#m7b8bae0b3c" y="262.115251"/>
     <use style="fill:#1f77b4;stroke:#1f77b4;" x="341.710337" xlink:href="#m7b8bae0b3c" y="271.974878"/>
     <use style="fill:#1f77b4;stroke:#1f77b4;" x="347.335774" xlink:href="#m7b8bae0b3c" y="271.974878"/>
     <use style="fill:#1f77b4;stroke:#1f77b4;" x="352.961211" xlink:href="#m7b8bae0b3c" y="266.059102"/>
     <use style="fill:#1f77b4;stroke:#1f77b4;" x="358.586648" xlink:href="#m7b8bae0b3c" y="258.1714"/>
     <use style="fill:#1f77b4;stroke:#1f77b4;" x="364.212085" xlink:href="#m7b8bae0b3c" y="262.115251"/>
     <use style="fill:#1f77b4;stroke:#1f77b4;" x="369.837522" xlink:href="#m7b8bae0b3c" y="266.059102"/>
     <use style="fill:#1f77b4;stroke:#1f77b4;" x="375.462959" xlink:href="#m7b8bae0b3c" y="262.115251"/>
     <use style="fill:#1f77b4;stroke:#1f77b4;" x="381.088396" xlink:href="#m7b8bae0b3c" y="256.199474"/>
     <use style="fill:#1f77b4;stroke:#1f77b4;" x="386.713833" xlink:href="#m7b8bae0b3c" y="260.143325"/>
     <use style="fill:#1f77b4;stroke:#1f77b4;" x="392.33927" xlink:href="#m7b8bae0b3c" y="268.031027"/>
     <use style="fill:#1f77b4;stroke:#1f77b4;" x="397.964707" xlink:href="#m7b8bae0b3c" y="273.946803"/>
     <use style="fill:#1f77b4;stroke:#1f77b4;" x="403.590144" xlink:href="#m7b8bae0b3c" y="271.974878"/>
     <use style="fill:#1f77b4;stroke:#1f77b4;" x="409.215581" xlink:href="#m7b8bae0b3c" y="266.059102"/>
     <use style="fill:#1f77b4;stroke:#1f77b4;" x="414.841018" xlink:href="#m7b8bae0b3c" y="260.143325"/>
     <use style="fill:#1f77b4;stroke:#1f77b4;" x="420.466455" xlink:href="#m7b8bae0b3c" y="260.143325"/>
     <use style="fill:#1f77b4;stroke:#1f77b4;" x="426.091892" xlink:href="#m7b8bae0b3c" y="271.974878"/>
     <use style="fill:#1f77b4;stroke:#1f77b4;" x="431.71733" xlink:href="#m7b8bae0b3c" y="273.946803"/>
    </g>
   </g>
   <g id="patch_3">
    <path d="M 47.78125 279.86258 
L 47.78125 10.891951 
" style="fill:none;stroke:#000000;stroke-linecap:square;stroke-linejoin:miter;stroke-width:0.8;"/>
   </g>
   <g id="patch_4">
    <path d="M 450 279.86258 
L 450 10.891951 
" style="fill:none;stroke:#000000;stroke-linecap:square;stroke-linejoin:miter;stroke-width:0.8;"/>
   </g>
   <g id="patch_5">
    <path d="M 47.78125 279.86258 
L 450 279.86258 
" style="fill:none;stroke:#000000;stroke-linecap:square;stroke-linejoin:miter;stroke-width:0.8;"/>
   </g>
   <g id="patch_6">
    <path d="M 47.78125 10.891951 
L 450 10.891951 
" style="fill:none;stroke:#000000;stroke-linecap:square;stroke-linejoin:miter;stroke-width:0.8;"/>
   </g>
  </g>
 </g>
 <defs>
  <clipPath id="pb5233226a2">
   <rect height="268.970629" width="402.21875" x="47.78125" y="10.891951"/>
  </clipPath>
 </defs>
</svg>
