<?xml version="1.0" encoding="utf-8" standalone="no"?>
<!DOCTYPE svg PUBLIC "-//W3C//DTD SVG 1.1//EN"
  "http://www.w3.org/Graphics/SVG/1.1/DTD/svg11.dtd">
<!-- Created with matplotlib (https://matplotlib.org/) -->
<svg height="345.6pt" version="1.1" viewBox="0 0 460.8 345.6" width="460.8pt" xmlns="http://www.w3.org/2000/svg" xmlns:xlink="http://www.w3.org/1999/xlink">
 <defs>
  <style type="text/css">
*{stroke-linecap:butt;stroke-linejoin:round;}
  </style>
 </defs>
 <g id="figure_1">
  <g id="patch_1">
   <path d="M 0 345.6 
L 460.8 345.6 
L 460.8 0 
L 0 0 
z
" style="fill:#ffffff;"/>
  </g>
  <g id="axes_1">
   <g id="patch_2">
    <path d="M 37.840625 279.86258 
L 450 279.86258 
L 450 10.8 
L 37.840625 10.8 
z
" style="fill:#ffffff;"/>
   </g>
   <g id="matplotlib.axis_1">
    <g id="xtick_1">
     <g id="line2d_1">
      <defs>
       <path d="M 0 0 
L 0 3.5 
" id="mcd5da7ece5" style="stroke:#000000;stroke-width:0.8;"/>
      </defs>
      <g>
       <use style="stroke:#000000;stroke-width:0.8;" x="50.627676" xlink:href="#mcd5da7ece5" y="279.86258"/>
      </g>
     </g>
     <g id="text_1">
      <!-- 2020-03-08 -->
      <defs>
       <path d="M 19.1875 8.296875 
L 53.609375 8.296875 
L 53.609375 0 
L 7.328125 0 
L 7.328125 8.296875 
Q 12.9375 14.109375 22.625 23.890625 
Q 32.328125 33.6875 34.8125 36.53125 
Q 39.546875 41.84375 41.421875 45.53125 
Q 43.3125 49.21875 43.3125 52.78125 
Q 43.3125 58.59375 39.234375 62.25 
Q 35.15625 65.921875 28.609375 65.921875 
Q 23.96875 65.921875 18.8125 64.3125 
Q 13.671875 62.703125 7.8125 59.421875 
L 7.8125 69.390625 
Q 13.765625 71.78125 18.9375 73 
Q 24.125 74.21875 28.421875 74.21875 
Q 39.75 74.21875 46.484375 68.546875 
Q 53.21875 62.890625 53.21875 53.421875 
Q 53.21875 48.921875 51.53125 44.890625 
Q 49.859375 40.875 45.40625 35.40625 
Q 44.1875 33.984375 37.640625 27.21875 
Q 31.109375 20.453125 19.1875 8.296875 
z
" id="DejaVuSans-50"/>
       <path d="M 31.78125 66.40625 
Q 24.171875 66.40625 20.328125 58.90625 
Q 16.5 51.421875 16.5 36.375 
Q 16.5 21.390625 20.328125 13.890625 
Q 24.171875 6.390625 31.78125 6.390625 
Q 39.453125 6.390625 43.28125 13.890625 
Q 47.125 21.390625 47.125 36.375 
Q 47.125 51.421875 43.28125 58.90625 
Q 39.453125 66.40625 31.78125 66.40625 
z
M 31.78125 74.21875 
Q 44.046875 74.21875 50.515625 64.515625 
Q 56.984375 54.828125 56.984375 36.375 
Q 56.984375 17.96875 50.515625 8.265625 
Q 44.046875 -1.421875 31.78125 -1.421875 
Q 19.53125 -1.421875 13.0625 8.265625 
Q 6.59375 17.96875 6.59375 36.375 
Q 6.59375 54.828125 13.0625 64.515625 
Q 19.53125 74.21875 31.78125 74.21875 
z
" id="DejaVuSans-48"/>
       <path d="M 4.890625 31.390625 
L 31.203125 31.390625 
L 31.203125 23.390625 
L 4.890625 23.390625 
z
" id="DejaVuSans-45"/>
       <path d="M 40.578125 39.3125 
Q 47.65625 37.796875 51.625 33 
Q 55.609375 28.21875 55.609375 21.1875 
Q 55.609375 10.40625 48.1875 4.484375 
Q 40.765625 -1.421875 27.09375 -1.421875 
Q 22.515625 -1.421875 17.65625 -0.515625 
Q 12.796875 0.390625 7.625 2.203125 
L 7.625 11.71875 
Q 11.71875 9.328125 16.59375 8.109375 
Q 21.484375 6.890625 26.8125 6.890625 
Q 36.078125 6.890625 40.9375 10.546875 
Q 45.796875 14.203125 45.796875 21.1875 
Q 45.796875 27.640625 41.28125 31.265625 
Q 36.765625 34.90625 28.71875 34.90625 
L 20.21875 34.90625 
L 20.21875 43.015625 
L 29.109375 43.015625 
Q 36.375 43.015625 40.234375 45.921875 
Q 44.09375 48.828125 44.09375 54.296875 
Q 44.09375 59.90625 40.109375 62.90625 
Q 36.140625 65.921875 28.71875 65.921875 
Q 24.65625 65.921875 20.015625 65.03125 
Q 15.375 64.15625 9.8125 62.3125 
L 9.8125 71.09375 
Q 15.4375 72.65625 20.34375 73.4375 
Q 25.25 74.21875 29.59375 74.21875 
Q 40.828125 74.21875 47.359375 69.109375 
Q 53.90625 64.015625 53.90625 55.328125 
Q 53.90625 49.265625 50.4375 45.09375 
Q 46.96875 40.921875 40.578125 39.3125 
z
" id="DejaVuSans-51"/>
       <path d="M 31.78125 34.625 
Q 24.75 34.625 20.71875 30.859375 
Q 16.703125 27.09375 16.703125 20.515625 
Q 16.703125 13.921875 20.71875 10.15625 
Q 24.75 6.390625 31.78125 6.390625 
Q 38.8125 6.390625 42.859375 10.171875 
Q 46.921875 13.96875 46.921875 20.515625 
Q 46.921875 27.09375 42.890625 30.859375 
Q 38.875 34.625 31.78125 34.625 
z
M 21.921875 38.8125 
Q 15.578125 40.375 12.03125 44.71875 
Q 8.5 49.078125 8.5 55.328125 
Q 8.5 64.0625 14.71875 69.140625 
Q 20.953125 74.21875 31.78125 74.21875 
Q 42.671875 74.21875 48.875 69.140625 
Q 55.078125 64.0625 55.078125 55.328125 
Q 55.078125 49.078125 51.53125 44.71875 
Q 48 40.375 41.703125 38.8125 
Q 48.828125 37.15625 52.796875 32.3125 
Q 56.78125 27.484375 56.78125 20.515625 
Q 56.78125 9.90625 50.3125 4.234375 
Q 43.84375 -1.421875 31.78125 -1.421875 
Q 19.734375 -1.421875 13.25 4.234375 
Q 6.78125 9.90625 6.78125 20.515625 
Q 6.78125 27.484375 10.78125 32.3125 
Q 14.796875 37.15625 21.921875 38.8125 
z
M 18.3125 54.390625 
Q 18.3125 48.734375 21.84375 45.5625 
Q 25.390625 42.390625 31.78125 42.390625 
Q 38.140625 42.390625 41.71875 45.5625 
Q 45.3125 48.734375 45.3125 54.390625 
Q 45.3125 60.0625 41.71875 63.234375 
Q 38.140625 66.40625 31.78125 66.40625 
Q 25.390625 66.40625 21.84375 63.234375 
Q 18.3125 60.0625 18.3125 54.390625 
z
" id="DejaVuSans-56"/>
      </defs>
      <g transform="translate(32.031873 333.329439)rotate(-45)scale(0.1 -0.1)">
       <use xlink:href="#DejaVuSans-50"/>
       <use x="63.623047" xlink:href="#DejaVuSans-48"/>
       <use x="127.246094" xlink:href="#DejaVuSans-50"/>
       <use x="190.869141" xlink:href="#DejaVuSans-48"/>
       <use x="254.492188" xlink:href="#DejaVuSans-45"/>
       <use x="290.576172" xlink:href="#DejaVuSans-48"/>
       <use x="354.199219" xlink:href="#DejaVuSans-51"/>
       <use x="417.822266" xlink:href="#DejaVuSans-45"/>
       <use x="453.90625" xlink:href="#DejaVuSans-48"/>
       <use x="517.529297" xlink:href="#DejaVuSans-56"/>
      </g>
     </g>
    </g>
    <g id="xtick_2">
     <g id="line2d_2">
      <g>
       <use style="stroke:#000000;stroke-width:0.8;" x="92.259936" xlink:href="#mcd5da7ece5" y="279.86258"/>
      </g>
     </g>
     <g id="text_2">
      <!-- 2020-03-15 -->
      <defs>
       <path d="M 12.40625 8.296875 
L 28.515625 8.296875 
L 28.515625 63.921875 
L 10.984375 60.40625 
L 10.984375 69.390625 
L 28.421875 72.90625 
L 38.28125 72.90625 
L 38.28125 8.296875 
L 54.390625 8.296875 
L 54.390625 0 
L 12.40625 0 
z
" id="DejaVuSans-49"/>
       <path d="M 10.796875 72.90625 
L 49.515625 72.90625 
L 49.515625 64.59375 
L 19.828125 64.59375 
L 19.828125 46.734375 
Q 21.96875 47.46875 24.109375 47.828125 
Q 26.265625 48.1875 28.421875 48.1875 
Q 40.625 48.1875 47.75 41.5 
Q 54.890625 34.8125 54.890625 23.390625 
Q 54.890625 11.625 47.5625 5.09375 
Q 40.234375 -1.421875 26.90625 -1.421875 
Q 22.3125 -1.421875 17.546875 -0.640625 
Q 12.796875 0.140625 7.71875 1.703125 
L 7.71875 11.625 
Q 12.109375 9.234375 16.796875 8.0625 
Q 21.484375 6.890625 26.703125 6.890625 
Q 35.15625 6.890625 40.078125 11.328125 
Q 45.015625 15.765625 45.015625 23.390625 
Q 45.015625 31 40.078125 35.4375 
Q 35.15625 39.890625 26.703125 39.890625 
Q 22.75 39.890625 18.8125 39.015625 
Q 14.890625 38.140625 10.796875 36.28125 
z
" id="DejaVuSans-53"/>
      </defs>
      <g transform="translate(73.664133 333.329439)rotate(-45)scale(0.1 -0.1)">
       <use xlink:href="#DejaVuSans-50"/>
       <use x="63.623047" xlink:href="#DejaVuSans-48"/>
       <use x="127.246094" xlink:href="#DejaVuSans-50"/>
       <use x="190.869141" xlink:href="#DejaVuSans-48"/>
       <use x="254.492188" xlink:href="#DejaVuSans-45"/>
       <use x="290.576172" xlink:href="#DejaVuSans-48"/>
       <use x="354.199219" xlink:href="#DejaVuSans-51"/>
       <use x="417.822266" xlink:href="#DejaVuSans-45"/>
       <use x="453.90625" xlink:href="#DejaVuSans-49"/>
       <use x="517.529297" xlink:href="#DejaVuSans-53"/>
      </g>
     </g>
    </g>
    <g id="xtick_3">
     <g id="line2d_3">
      <g>
       <use style="stroke:#000000;stroke-width:0.8;" x="133.892197" xlink:href="#mcd5da7ece5" y="279.86258"/>
      </g>
     </g>
     <g id="text_3">
      <!-- 2020-03-22 -->
      <g transform="translate(115.296393 333.329439)rotate(-45)scale(0.1 -0.1)">
       <use xlink:href="#DejaVuSans-50"/>
       <use x="63.623047" xlink:href="#DejaVuSans-48"/>
       <use x="127.246094" xlink:href="#DejaVuSans-50"/>
       <use x="190.869141" xlink:href="#DejaVuSans-48"/>
       <use x="254.492188" xlink:href="#DejaVuSans-45"/>
       <use x="290.576172" xlink:href="#DejaVuSans-48"/>
       <use x="354.199219" xlink:href="#DejaVuSans-51"/>
       <use x="417.822266" xlink:href="#DejaVuSans-45"/>
       <use x="453.90625" xlink:href="#DejaVuSans-50"/>
       <use x="517.529297" xlink:href="#DejaVuSans-50"/>
      </g>
     </g>
    </g>
    <g id="xtick_4">
     <g id="line2d_4">
      <g>
       <use style="stroke:#000000;stroke-width:0.8;" x="193.366854" xlink:href="#mcd5da7ece5" y="279.86258"/>
      </g>
     </g>
     <g id="text_4">
      <!-- 2020-04-01 -->
      <defs>
       <path d="M 37.796875 64.3125 
L 12.890625 25.390625 
L 37.796875 25.390625 
z
M 35.203125 72.90625 
L 47.609375 72.90625 
L 47.609375 25.390625 
L 58.015625 25.390625 
L 58.015625 17.1875 
L 47.609375 17.1875 
L 47.609375 0 
L 37.796875 0 
L 37.796875 17.1875 
L 4.890625 17.1875 
L 4.890625 26.703125 
z
" id="DejaVuSans-52"/>
      </defs>
      <g transform="translate(174.77105 333.329439)rotate(-45)scale(0.1 -0.1)">
       <use xlink:href="#DejaVuSans-50"/>
       <use x="63.623047" xlink:href="#DejaVuSans-48"/>
       <use x="127.246094" xlink:href="#DejaVuSans-50"/>
       <use x="190.869141" xlink:href="#DejaVuSans-48"/>
       <use x="254.492188" xlink:href="#DejaVuSans-45"/>
       <use x="290.576172" xlink:href="#DejaVuSans-48"/>
       <use x="354.199219" xlink:href="#DejaVuSans-52"/>
       <use x="417.822266" xlink:href="#DejaVuSans-45"/>
       <use x="453.90625" xlink:href="#DejaVuSans-48"/>
       <use x="517.529297" xlink:href="#DejaVuSans-49"/>
      </g>
     </g>
    </g>
    <g id="xtick_5">
     <g id="line2d_5">
      <g>
       <use style="stroke:#000000;stroke-width:0.8;" x="234.999114" xlink:href="#mcd5da7ece5" y="279.86258"/>
      </g>
     </g>
     <g id="text_5">
      <!-- 2020-04-08 -->
      <g transform="translate(216.40331 333.329439)rotate(-45)scale(0.1 -0.1)">
       <use xlink:href="#DejaVuSans-50"/>
       <use x="63.623047" xlink:href="#DejaVuSans-48"/>
       <use x="127.246094" xlink:href="#DejaVuSans-50"/>
       <use x="190.869141" xlink:href="#DejaVuSans-48"/>
       <use x="254.492188" xlink:href="#DejaVuSans-45"/>
       <use x="290.576172" xlink:href="#DejaVuSans-48"/>
       <use x="354.199219" xlink:href="#DejaVuSans-52"/>
       <use x="417.822266" xlink:href="#DejaVuSans-45"/>
       <use x="453.90625" xlink:href="#DejaVuSans-48"/>
       <use x="517.529297" xlink:href="#DejaVuSans-56"/>
      </g>
     </g>
    </g>
    <g id="xtick_6">
     <g id="line2d_6">
      <g>
       <use style="stroke:#000000;stroke-width:0.8;" x="276.631374" xlink:href="#mcd5da7ece5" y="279.86258"/>
      </g>
     </g>
     <g id="text_6">
      <!-- 2020-04-15 -->
      <g transform="translate(258.035571 333.329439)rotate(-45)scale(0.1 -0.1)">
       <use xlink:href="#DejaVuSans-50"/>
       <use x="63.623047" xlink:href="#DejaVuSans-48"/>
       <use x="127.246094" xlink:href="#DejaVuSans-50"/>
       <use x="190.869141" xlink:href="#DejaVuSans-48"/>
       <use x="254.492188" xlink:href="#DejaVuSans-45"/>
       <use x="290.576172" xlink:href="#DejaVuSans-48"/>
       <use x="354.199219" xlink:href="#DejaVuSans-52"/>
       <use x="417.822266" xlink:href="#DejaVuSans-45"/>
       <use x="453.90625" xlink:href="#DejaVuSans-49"/>
       <use x="517.529297" xlink:href="#DejaVuSans-53"/>
      </g>
     </g>
    </g>
    <g id="xtick_7">
     <g id="line2d_7">
      <g>
       <use style="stroke:#000000;stroke-width:0.8;" x="318.263634" xlink:href="#mcd5da7ece5" y="279.86258"/>
      </g>
     </g>
     <g id="text_7">
      <!-- 2020-04-22 -->
      <g transform="translate(299.667831 333.329439)rotate(-45)scale(0.1 -0.1)">
       <use xlink:href="#DejaVuSans-50"/>
       <use x="63.623047" xlink:href="#DejaVuSans-48"/>
       <use x="127.246094" xlink:href="#DejaVuSans-50"/>
       <use x="190.869141" xlink:href="#DejaVuSans-48"/>
       <use x="254.492188" xlink:href="#DejaVuSans-45"/>
       <use x="290.576172" xlink:href="#DejaVuSans-48"/>
       <use x="354.199219" xlink:href="#DejaVuSans-52"/>
       <use x="417.822266" xlink:href="#DejaVuSans-45"/>
       <use x="453.90625" xlink:href="#DejaVuSans-50"/>
       <use x="517.529297" xlink:href="#DejaVuSans-50"/>
      </g>
     </g>
    </g>
    <g id="xtick_8">
     <g id="line2d_8">
      <g>
       <use style="stroke:#000000;stroke-width:0.8;" x="371.790826" xlink:href="#mcd5da7ece5" y="279.86258"/>
      </g>
     </g>
     <g id="text_8">
      <!-- 2020-05-01 -->
      <g transform="translate(353.195022 333.329439)rotate(-45)scale(0.1 -0.1)">
       <use xlink:href="#DejaVuSans-50"/>
       <use x="63.623047" xlink:href="#DejaVuSans-48"/>
       <use x="127.246094" xlink:href="#DejaVuSans-50"/>
       <use x="190.869141" xlink:href="#DejaVuSans-48"/>
       <use x="254.492188" xlink:href="#DejaVuSans-45"/>
       <use x="290.576172" xlink:href="#DejaVuSans-48"/>
       <use x="354.199219" xlink:href="#DejaVuSans-53"/>
       <use x="417.822266" xlink:href="#DejaVuSans-45"/>
       <use x="453.90625" xlink:href="#DejaVuSans-48"/>
       <use x="517.529297" xlink:href="#DejaVuSans-49"/>
      </g>
     </g>
    </g>
    <g id="xtick_9">
     <g id="line2d_9">
      <g>
       <use style="stroke:#000000;stroke-width:0.8;" x="413.423086" xlink:href="#mcd5da7ece5" y="279.86258"/>
      </g>
     </g>
     <g id="text_9">
      <!-- 2020-05-08 -->
      <g transform="translate(394.827282 333.329439)rotate(-45)scale(0.1 -0.1)">
       <use xlink:href="#DejaVuSans-50"/>
       <use x="63.623047" xlink:href="#DejaVuSans-48"/>
       <use x="127.246094" xlink:href="#DejaVuSans-50"/>
       <use x="190.869141" xlink:href="#DejaVuSans-48"/>
       <use x="254.492188" xlink:href="#DejaVuSans-45"/>
       <use x="290.576172" xlink:href="#DejaVuSans-48"/>
       <use x="354.199219" xlink:href="#DejaVuSans-53"/>
       <use x="417.822266" xlink:href="#DejaVuSans-45"/>
       <use x="453.90625" xlink:href="#DejaVuSans-48"/>
       <use x="517.529297" xlink:href="#DejaVuSans-56"/>
      </g>
     </g>
    </g>
   </g>
   <g id="matplotlib.axis_2">
    <g id="ytick_1">
     <g id="line2d_10">
      <defs>
       <path d="M 0 0 
L -3.5 0 
" id="m377593f2eb" style="stroke:#000000;stroke-width:0.8;"/>
      </defs>
      <g>
       <use style="stroke:#000000;stroke-width:0.8;" x="37.840625" xlink:href="#m377593f2eb" y="279.86258"/>
      </g>
     </g>
     <g id="text_10">
      <!-- 0 -->
      <g transform="translate(24.478125 283.661798)scale(0.1 -0.1)">
       <use xlink:href="#DejaVuSans-48"/>
      </g>
     </g>
    </g>
    <g id="ytick_2">
     <g id="line2d_11">
      <g>
       <use style="stroke:#000000;stroke-width:0.8;" x="37.840625" xlink:href="#m377593f2eb" y="230.205987"/>
      </g>
     </g>
     <g id="text_11">
      <!-- 1 -->
      <g transform="translate(24.478125 234.005206)scale(0.1 -0.1)">
       <use xlink:href="#DejaVuSans-49"/>
      </g>
     </g>
    </g>
    <g id="ytick_3">
     <g id="line2d_12">
      <g>
       <use style="stroke:#000000;stroke-width:0.8;" x="37.840625" xlink:href="#m377593f2eb" y="180.549394"/>
      </g>
     </g>
     <g id="text_12">
      <!-- 2 -->
      <g transform="translate(24.478125 184.348613)scale(0.1 -0.1)">
       <use xlink:href="#DejaVuSans-50"/>
      </g>
     </g>
    </g>
    <g id="ytick_4">
     <g id="line2d_13">
      <g>
       <use style="stroke:#000000;stroke-width:0.8;" x="37.840625" xlink:href="#m377593f2eb" y="130.892801"/>
      </g>
     </g>
     <g id="text_13">
      <!-- 3 -->
      <g transform="translate(24.478125 134.69202)scale(0.1 -0.1)">
       <use xlink:href="#DejaVuSans-51"/>
      </g>
     </g>
    </g>
    <g id="ytick_5">
     <g id="line2d_14">
      <g>
       <use style="stroke:#000000;stroke-width:0.8;" x="37.840625" xlink:href="#m377593f2eb" y="81.236209"/>
      </g>
     </g>
     <g id="text_14">
      <!-- 4 -->
      <g transform="translate(24.478125 85.035427)scale(0.1 -0.1)">
       <use xlink:href="#DejaVuSans-52"/>
      </g>
     </g>
    </g>
    <g id="ytick_6">
     <g id="line2d_15">
      <g>
       <use style="stroke:#000000;stroke-width:0.8;" x="37.840625" xlink:href="#m377593f2eb" y="31.579616"/>
      </g>
     </g>
     <g id="text_15">
      <!-- 5 -->
      <g transform="translate(24.478125 35.378835)scale(0.1 -0.1)">
       <use xlink:href="#DejaVuSans-53"/>
      </g>
     </g>
    </g>
    <g id="text_16">
     <!-- MD fallecidos (por 100000 hab.) diarios -->
     <defs>
      <path d="M 9.8125 72.90625 
L 24.515625 72.90625 
L 43.109375 23.296875 
L 61.8125 72.90625 
L 76.515625 72.90625 
L 76.515625 0 
L 66.890625 0 
L 66.890625 64.015625 
L 48.09375 14.015625 
L 38.1875 14.015625 
L 19.390625 64.015625 
L 19.390625 0 
L 9.8125 0 
z
" id="DejaVuSans-77"/>
      <path d="M 19.671875 64.796875 
L 19.671875 8.109375 
L 31.59375 8.109375 
Q 46.6875 8.109375 53.6875 14.9375 
Q 60.6875 21.78125 60.6875 36.53125 
Q 60.6875 51.171875 53.6875 57.984375 
Q 46.6875 64.796875 31.59375 64.796875 
z
M 9.8125 72.90625 
L 30.078125 72.90625 
Q 51.265625 72.90625 61.171875 64.09375 
Q 71.09375 55.28125 71.09375 36.53125 
Q 71.09375 17.671875 61.125 8.828125 
Q 51.171875 0 30.078125 0 
L 9.8125 0 
z
" id="DejaVuSans-68"/>
      <path id="DejaVuSans-32"/>
      <path d="M 37.109375 75.984375 
L 37.109375 68.5 
L 28.515625 68.5 
Q 23.6875 68.5 21.796875 66.546875 
Q 19.921875 64.59375 19.921875 59.515625 
L 19.921875 54.6875 
L 34.71875 54.6875 
L 34.71875 47.703125 
L 19.921875 47.703125 
L 19.921875 0 
L 10.890625 0 
L 10.890625 47.703125 
L 2.296875 47.703125 
L 2.296875 54.6875 
L 10.890625 54.6875 
L 10.890625 58.5 
Q 10.890625 67.625 15.140625 71.796875 
Q 19.390625 75.984375 28.609375 75.984375 
z
" id="DejaVuSans-102"/>
      <path d="M 34.28125 27.484375 
Q 23.390625 27.484375 19.1875 25 
Q 14.984375 22.515625 14.984375 16.5 
Q 14.984375 11.71875 18.140625 8.90625 
Q 21.296875 6.109375 26.703125 6.109375 
Q 34.1875 6.109375 38.703125 11.40625 
Q 43.21875 16.703125 43.21875 25.484375 
L 43.21875 27.484375 
z
M 52.203125 31.203125 
L 52.203125 0 
L 43.21875 0 
L 43.21875 8.296875 
Q 40.140625 3.328125 35.546875 0.953125 
Q 30.953125 -1.421875 24.3125 -1.421875 
Q 15.921875 -1.421875 10.953125 3.296875 
Q 6 8.015625 6 15.921875 
Q 6 25.140625 12.171875 29.828125 
Q 18.359375 34.515625 30.609375 34.515625 
L 43.21875 34.515625 
L 43.21875 35.40625 
Q 43.21875 41.609375 39.140625 45 
Q 35.0625 48.390625 27.6875 48.390625 
Q 23 48.390625 18.546875 47.265625 
Q 14.109375 46.140625 10.015625 43.890625 
L 10.015625 52.203125 
Q 14.9375 54.109375 19.578125 55.046875 
Q 24.21875 56 28.609375 56 
Q 40.484375 56 46.34375 49.84375 
Q 52.203125 43.703125 52.203125 31.203125 
z
" id="DejaVuSans-97"/>
      <path d="M 9.421875 75.984375 
L 18.40625 75.984375 
L 18.40625 0 
L 9.421875 0 
z
" id="DejaVuSans-108"/>
      <path d="M 56.203125 29.59375 
L 56.203125 25.203125 
L 14.890625 25.203125 
Q 15.484375 15.921875 20.484375 11.0625 
Q 25.484375 6.203125 34.421875 6.203125 
Q 39.59375 6.203125 44.453125 7.46875 
Q 49.3125 8.734375 54.109375 11.28125 
L 54.109375 2.78125 
Q 49.265625 0.734375 44.1875 -0.34375 
Q 39.109375 -1.421875 33.890625 -1.421875 
Q 20.796875 -1.421875 13.15625 6.1875 
Q 5.515625 13.8125 5.515625 26.8125 
Q 5.515625 40.234375 12.765625 48.109375 
Q 20.015625 56 32.328125 56 
Q 43.359375 56 49.78125 48.890625 
Q 56.203125 41.796875 56.203125 29.59375 
z
M 47.21875 32.234375 
Q 47.125 39.59375 43.09375 43.984375 
Q 39.0625 48.390625 32.421875 48.390625 
Q 24.90625 48.390625 20.390625 44.140625 
Q 15.875 39.890625 15.1875 32.171875 
z
" id="DejaVuSans-101"/>
      <path d="M 48.78125 52.59375 
L 48.78125 44.1875 
Q 44.96875 46.296875 41.140625 47.34375 
Q 37.3125 48.390625 33.40625 48.390625 
Q 24.65625 48.390625 19.8125 42.84375 
Q 14.984375 37.3125 14.984375 27.296875 
Q 14.984375 17.28125 19.8125 11.734375 
Q 24.65625 6.203125 33.40625 6.203125 
Q 37.3125 6.203125 41.140625 7.25 
Q 44.96875 8.296875 48.78125 10.40625 
L 48.78125 2.09375 
Q 45.015625 0.34375 40.984375 -0.53125 
Q 36.96875 -1.421875 32.421875 -1.421875 
Q 20.0625 -1.421875 12.78125 6.34375 
Q 5.515625 14.109375 5.515625 27.296875 
Q 5.515625 40.671875 12.859375 48.328125 
Q 20.21875 56 33.015625 56 
Q 37.15625 56 41.109375 55.140625 
Q 45.0625 54.296875 48.78125 52.59375 
z
" id="DejaVuSans-99"/>
      <path d="M 9.421875 54.6875 
L 18.40625 54.6875 
L 18.40625 0 
L 9.421875 0 
z
M 9.421875 75.984375 
L 18.40625 75.984375 
L 18.40625 64.59375 
L 9.421875 64.59375 
z
" id="DejaVuSans-105"/>
      <path d="M 45.40625 46.390625 
L 45.40625 75.984375 
L 54.390625 75.984375 
L 54.390625 0 
L 45.40625 0 
L 45.40625 8.203125 
Q 42.578125 3.328125 38.25 0.953125 
Q 33.9375 -1.421875 27.875 -1.421875 
Q 17.96875 -1.421875 11.734375 6.484375 
Q 5.515625 14.40625 5.515625 27.296875 
Q 5.515625 40.1875 11.734375 48.09375 
Q 17.96875 56 27.875 56 
Q 33.9375 56 38.25 53.625 
Q 42.578125 51.265625 45.40625 46.390625 
z
M 14.796875 27.296875 
Q 14.796875 17.390625 18.875 11.75 
Q 22.953125 6.109375 30.078125 6.109375 
Q 37.203125 6.109375 41.296875 11.75 
Q 45.40625 17.390625 45.40625 27.296875 
Q 45.40625 37.203125 41.296875 42.84375 
Q 37.203125 48.484375 30.078125 48.484375 
Q 22.953125 48.484375 18.875 42.84375 
Q 14.796875 37.203125 14.796875 27.296875 
z
" id="DejaVuSans-100"/>
      <path d="M 30.609375 48.390625 
Q 23.390625 48.390625 19.1875 42.75 
Q 14.984375 37.109375 14.984375 27.296875 
Q 14.984375 17.484375 19.15625 11.84375 
Q 23.34375 6.203125 30.609375 6.203125 
Q 37.796875 6.203125 41.984375 11.859375 
Q 46.1875 17.53125 46.1875 27.296875 
Q 46.1875 37.015625 41.984375 42.703125 
Q 37.796875 48.390625 30.609375 48.390625 
z
M 30.609375 56 
Q 42.328125 56 49.015625 48.375 
Q 55.71875 40.765625 55.71875 27.296875 
Q 55.71875 13.875 49.015625 6.21875 
Q 42.328125 -1.421875 30.609375 -1.421875 
Q 18.84375 -1.421875 12.171875 6.21875 
Q 5.515625 13.875 5.515625 27.296875 
Q 5.515625 40.765625 12.171875 48.375 
Q 18.84375 56 30.609375 56 
z
" id="DejaVuSans-111"/>
      <path d="M 44.28125 53.078125 
L 44.28125 44.578125 
Q 40.484375 46.53125 36.375 47.5 
Q 32.28125 48.484375 27.875 48.484375 
Q 21.1875 48.484375 17.84375 46.4375 
Q 14.5 44.390625 14.5 40.28125 
Q 14.5 37.15625 16.890625 35.375 
Q 19.28125 33.59375 26.515625 31.984375 
L 29.59375 31.296875 
Q 39.15625 29.25 43.1875 25.515625 
Q 47.21875 21.78125 47.21875 15.09375 
Q 47.21875 7.46875 41.1875 3.015625 
Q 35.15625 -1.421875 24.609375 -1.421875 
Q 20.21875 -1.421875 15.453125 -0.5625 
Q 10.6875 0.296875 5.421875 2 
L 5.421875 11.28125 
Q 10.40625 8.6875 15.234375 7.390625 
Q 20.0625 6.109375 24.8125 6.109375 
Q 31.15625 6.109375 34.5625 8.28125 
Q 37.984375 10.453125 37.984375 14.40625 
Q 37.984375 18.0625 35.515625 20.015625 
Q 33.0625 21.96875 24.703125 23.78125 
L 21.578125 24.515625 
Q 13.234375 26.265625 9.515625 29.90625 
Q 5.8125 33.546875 5.8125 39.890625 
Q 5.8125 47.609375 11.28125 51.796875 
Q 16.75 56 26.8125 56 
Q 31.78125 56 36.171875 55.265625 
Q 40.578125 54.546875 44.28125 53.078125 
z
" id="DejaVuSans-115"/>
      <path d="M 31 75.875 
Q 24.46875 64.65625 21.28125 53.65625 
Q 18.109375 42.671875 18.109375 31.390625 
Q 18.109375 20.125 21.3125 9.0625 
Q 24.515625 -2 31 -13.1875 
L 23.1875 -13.1875 
Q 15.875 -1.703125 12.234375 9.375 
Q 8.59375 20.453125 8.59375 31.390625 
Q 8.59375 42.28125 12.203125 53.3125 
Q 15.828125 64.359375 23.1875 75.875 
z
" id="DejaVuSans-40"/>
      <path d="M 18.109375 8.203125 
L 18.109375 -20.796875 
L 9.078125 -20.796875 
L 9.078125 54.6875 
L 18.109375 54.6875 
L 18.109375 46.390625 
Q 20.953125 51.265625 25.265625 53.625 
Q 29.59375 56 35.59375 56 
Q 45.5625 56 51.78125 48.09375 
Q 58.015625 40.1875 58.015625 27.296875 
Q 58.015625 14.40625 51.78125 6.484375 
Q 45.5625 -1.421875 35.59375 -1.421875 
Q 29.59375 -1.421875 25.265625 0.953125 
Q 20.953125 3.328125 18.109375 8.203125 
z
M 48.6875 27.296875 
Q 48.6875 37.203125 44.609375 42.84375 
Q 40.53125 48.484375 33.40625 48.484375 
Q 26.265625 48.484375 22.1875 42.84375 
Q 18.109375 37.203125 18.109375 27.296875 
Q 18.109375 17.390625 22.1875 11.75 
Q 26.265625 6.109375 33.40625 6.109375 
Q 40.53125 6.109375 44.609375 11.75 
Q 48.6875 17.390625 48.6875 27.296875 
z
" id="DejaVuSans-112"/>
      <path d="M 41.109375 46.296875 
Q 39.59375 47.171875 37.8125 47.578125 
Q 36.03125 48 33.890625 48 
Q 26.265625 48 22.1875 43.046875 
Q 18.109375 38.09375 18.109375 28.8125 
L 18.109375 0 
L 9.078125 0 
L 9.078125 54.6875 
L 18.109375 54.6875 
L 18.109375 46.1875 
Q 20.953125 51.171875 25.484375 53.578125 
Q 30.03125 56 36.53125 56 
Q 37.453125 56 38.578125 55.875 
Q 39.703125 55.765625 41.0625 55.515625 
z
" id="DejaVuSans-114"/>
      <path d="M 54.890625 33.015625 
L 54.890625 0 
L 45.90625 0 
L 45.90625 32.71875 
Q 45.90625 40.484375 42.875 44.328125 
Q 39.84375 48.1875 33.796875 48.1875 
Q 26.515625 48.1875 22.3125 43.546875 
Q 18.109375 38.921875 18.109375 30.90625 
L 18.109375 0 
L 9.078125 0 
L 9.078125 75.984375 
L 18.109375 75.984375 
L 18.109375 46.1875 
Q 21.34375 51.125 25.703125 53.5625 
Q 30.078125 56 35.796875 56 
Q 45.21875 56 50.046875 50.171875 
Q 54.890625 44.34375 54.890625 33.015625 
z
" id="DejaVuSans-104"/>
      <path d="M 48.6875 27.296875 
Q 48.6875 37.203125 44.609375 42.84375 
Q 40.53125 48.484375 33.40625 48.484375 
Q 26.265625 48.484375 22.1875 42.84375 
Q 18.109375 37.203125 18.109375 27.296875 
Q 18.109375 17.390625 22.1875 11.75 
Q 26.265625 6.109375 33.40625 6.109375 
Q 40.53125 6.109375 44.609375 11.75 
Q 48.6875 17.390625 48.6875 27.296875 
z
M 18.109375 46.390625 
Q 20.953125 51.265625 25.265625 53.625 
Q 29.59375 56 35.59375 56 
Q 45.5625 56 51.78125 48.09375 
Q 58.015625 40.1875 58.015625 27.296875 
Q 58.015625 14.40625 51.78125 6.484375 
Q 45.5625 -1.421875 35.59375 -1.421875 
Q 29.59375 -1.421875 25.265625 0.953125 
Q 20.953125 3.328125 18.109375 8.203125 
L 18.109375 0 
L 9.078125 0 
L 9.078125 75.984375 
L 18.109375 75.984375 
z
" id="DejaVuSans-98"/>
      <path d="M 10.6875 12.40625 
L 21 12.40625 
L 21 0 
L 10.6875 0 
z
" id="DejaVuSans-46"/>
      <path d="M 8.015625 75.875 
L 15.828125 75.875 
Q 23.140625 64.359375 26.78125 53.3125 
Q 30.421875 42.28125 30.421875 31.390625 
Q 30.421875 20.453125 26.78125 9.375 
Q 23.140625 -1.703125 15.828125 -13.1875 
L 8.015625 -13.1875 
Q 14.5 -2 17.703125 9.0625 
Q 20.90625 20.125 20.90625 31.390625 
Q 20.90625 42.671875 17.703125 53.65625 
Q 14.5 64.65625 8.015625 75.875 
z
" id="DejaVuSans-41"/>
     </defs>
     <g transform="translate(18.398438 244.10629)rotate(-90)scale(0.1 -0.1)">
      <use xlink:href="#DejaVuSans-77"/>
      <use x="86.279297" xlink:href="#DejaVuSans-68"/>
      <use x="163.28125" xlink:href="#DejaVuSans-32"/>
      <use x="195.068359" xlink:href="#DejaVuSans-102"/>
      <use x="230.273438" xlink:href="#DejaVuSans-97"/>
      <use x="291.552734" xlink:href="#DejaVuSans-108"/>
      <use x="319.335938" xlink:href="#DejaVuSans-108"/>
      <use x="347.119141" xlink:href="#DejaVuSans-101"/>
      <use x="408.642578" xlink:href="#DejaVuSans-99"/>
      <use x="463.623047" xlink:href="#DejaVuSans-105"/>
      <use x="491.40625" xlink:href="#DejaVuSans-100"/>
      <use x="554.882812" xlink:href="#DejaVuSans-111"/>
      <use x="616.064453" xlink:href="#DejaVuSans-115"/>
      <use x="668.164062" xlink:href="#DejaVuSans-32"/>
      <use x="699.951172" xlink:href="#DejaVuSans-40"/>
      <use x="738.964844" xlink:href="#DejaVuSans-112"/>
      <use x="802.441406" xlink:href="#DejaVuSans-111"/>
      <use x="863.623047" xlink:href="#DejaVuSans-114"/>
      <use x="904.736328" xlink:href="#DejaVuSans-32"/>
      <use x="936.523438" xlink:href="#DejaVuSans-49"/>
      <use x="1000.146484" xlink:href="#DejaVuSans-48"/>
      <use x="1063.769531" xlink:href="#DejaVuSans-48"/>
      <use x="1127.392578" xlink:href="#DejaVuSans-48"/>
      <use x="1191.015625" xlink:href="#DejaVuSans-48"/>
      <use x="1254.638672" xlink:href="#DejaVuSans-48"/>
      <use x="1318.261719" xlink:href="#DejaVuSans-32"/>
      <use x="1350.048828" xlink:href="#DejaVuSans-104"/>
      <use x="1413.427734" xlink:href="#DejaVuSans-97"/>
      <use x="1474.707031" xlink:href="#DejaVuSans-98"/>
      <use x="1538.183594" xlink:href="#DejaVuSans-46"/>
      <use x="1569.970703" xlink:href="#DejaVuSans-41"/>
      <use x="1608.984375" xlink:href="#DejaVuSans-32"/>
      <use x="1640.771484" xlink:href="#DejaVuSans-100"/>
      <use x="1704.248047" xlink:href="#DejaVuSans-105"/>
      <use x="1732.03125" xlink:href="#DejaVuSans-97"/>
      <use x="1793.310547" xlink:href="#DejaVuSans-114"/>
      <use x="1834.423828" xlink:href="#DejaVuSans-105"/>
      <use x="1862.207031" xlink:href="#DejaVuSans-111"/>
      <use x="1923.388672" xlink:href="#DejaVuSans-115"/>
     </g>
    </g>
   </g>
   <g id="line2d_16">
    <path clip-path="url(#p4e8ef5e1b7)" d="M 56.575142 276.14881 
L 62.522608 272.435041 
L 68.470074 261.293734 
L 74.417539 261.293734 
L 80.365005 276.14881 
L 86.312471 185.532842 
L 92.259936 279.86258 
L 98.207402 174.391534 
L 104.154868 253.866195 
L 110.102334 199.645165 
L 116.049799 183.30458 
L 121.997265 149.137903 
L 127.944731 118.684996 
L 133.892197 100.11615 
L 139.839662 77.833534 
L 145.787128 64.463965 
L 151.734594 83.032811 
L 157.682059 40.695842 
L 163.629525 23.612504 
L 169.576991 38.467581 
L 175.524457 49.608888 
L 181.471922 123.141519 
L 187.419388 85.261073 
L 193.366854 49.608888 
L 199.31432 51.094396 
L 205.261785 101.601657 
L 211.209251 117.942242 
L 217.156717 135.02558 
L 223.104182 105.315427 
L 229.051648 120.170503 
L 234.999114 120.913257 
L 240.94658 152.108919 
L 246.894045 196.674149 
L 252.841511 135.768334 
L 258.788977 172.163272 
L 264.736443 172.163272 
L 270.683908 163.99298 
L 276.631374 166.221242 
L 282.57884 183.30458 
L 288.526305 187.018349 
L 294.473771 200.387918 
L 300.421237 196.674149 
L 306.368703 198.902411 
L 312.316168 192.96038 
L 318.263634 200.387918 
L 324.2111 219.699518 
L 330.158566 218.214011 
L 336.106031 224.898795 
L 342.053497 232.326334 
L 348.000963 233.811841 
L 353.948428 237.525611 
L 359.895894 227.127057 
L 365.84336 245.695903 
L 371.790826 227.869811 
L 377.738291 250.152426 
L 383.685757 247.181411 
L 389.633223 247.181411 
L 395.580689 245.695903 
L 401.528154 251.637934 
L 407.47562 244.210395 
L 413.423086 245.695903 
L 419.370551 245.695903 
L 425.318017 250.89518 
L 431.265483 252.380687 
" style="fill:none;stroke:#1f77b4;stroke-linecap:square;stroke-width:1.5;"/>
    <defs>
     <path d="M 0 1.5 
C 0.397805 1.5 0.77937 1.341951 1.06066 1.06066 
C 1.341951 0.77937 1.5 0.397805 1.5 0 
C 1.5 -0.397805 1.341951 -0.77937 1.06066 -1.06066 
C 0.77937 -1.341951 0.397805 -1.5 0 -1.5 
C -0.397805 -1.5 -0.77937 -1.341951 -1.06066 -1.06066 
C -1.341951 -0.77937 -1.5 -0.397805 -1.5 0 
C -1.5 0.397805 -1.341951 0.77937 -1.06066 1.06066 
C -0.77937 1.341951 -0.397805 1.5 0 1.5 
z
" id="mb6d1745d28" style="stroke:#1f77b4;"/>
    </defs>
    <g clip-path="url(#p4e8ef5e1b7)">
     <use style="fill:#1f77b4;stroke:#1f77b4;" x="56.575142" xlink:href="#mb6d1745d28" y="276.14881"/>
     <use style="fill:#1f77b4;stroke:#1f77b4;" x="62.522608" xlink:href="#mb6d1745d28" y="272.435041"/>
     <use style="fill:#1f77b4;stroke:#1f77b4;" x="68.470074" xlink:href="#mb6d1745d28" y="261.293734"/>
     <use style="fill:#1f77b4;stroke:#1f77b4;" x="74.417539" xlink:href="#mb6d1745d28" y="261.293734"/>
     <use style="fill:#1f77b4;stroke:#1f77b4;" x="80.365005" xlink:href="#mb6d1745d28" y="276.14881"/>
     <use style="fill:#1f77b4;stroke:#1f77b4;" x="86.312471" xlink:href="#mb6d1745d28" y="185.532842"/>
     <use style="fill:#1f77b4;stroke:#1f77b4;" x="92.259936" xlink:href="#mb6d1745d28" y="279.86258"/>
     <use style="fill:#1f77b4;stroke:#1f77b4;" x="98.207402" xlink:href="#mb6d1745d28" y="174.391534"/>
     <use style="fill:#1f77b4;stroke:#1f77b4;" x="104.154868" xlink:href="#mb6d1745d28" y="253.866195"/>
     <use style="fill:#1f77b4;stroke:#1f77b4;" x="110.102334" xlink:href="#mb6d1745d28" y="199.645165"/>
     <use style="fill:#1f77b4;stroke:#1f77b4;" x="116.049799" xlink:href="#mb6d1745d28" y="183.30458"/>
     <use style="fill:#1f77b4;stroke:#1f77b4;" x="121.997265" xlink:href="#mb6d1745d28" y="149.137903"/>
     <use style="fill:#1f77b4;stroke:#1f77b4;" x="127.944731" xlink:href="#mb6d1745d28" y="118.684996"/>
     <use style="fill:#1f77b4;stroke:#1f77b4;" x="133.892197" xlink:href="#mb6d1745d28" y="100.11615"/>
     <use style="fill:#1f77b4;stroke:#1f77b4;" x="139.839662" xlink:href="#mb6d1745d28" y="77.833534"/>
     <use style="fill:#1f77b4;stroke:#1f77b4;" x="145.787128" xlink:href="#mb6d1745d28" y="64.463965"/>
     <use style="fill:#1f77b4;stroke:#1f77b4;" x="151.734594" xlink:href="#mb6d1745d28" y="83.032811"/>
     <use style="fill:#1f77b4;stroke:#1f77b4;" x="157.682059" xlink:href="#mb6d1745d28" y="40.695842"/>
     <use style="fill:#1f77b4;stroke:#1f77b4;" x="163.629525" xlink:href="#mb6d1745d28" y="23.612504"/>
     <use style="fill:#1f77b4;stroke:#1f77b4;" x="169.576991" xlink:href="#mb6d1745d28" y="38.467581"/>
     <use style="fill:#1f77b4;stroke:#1f77b4;" x="175.524457" xlink:href="#mb6d1745d28" y="49.608888"/>
     <use style="fill:#1f77b4;stroke:#1f77b4;" x="181.471922" xlink:href="#mb6d1745d28" y="123.141519"/>
     <use style="fill:#1f77b4;stroke:#1f77b4;" x="187.419388" xlink:href="#mb6d1745d28" y="85.261073"/>
     <use style="fill:#1f77b4;stroke:#1f77b4;" x="193.366854" xlink:href="#mb6d1745d28" y="49.608888"/>
     <use style="fill:#1f77b4;stroke:#1f77b4;" x="199.31432" xlink:href="#mb6d1745d28" y="51.094396"/>
     <use style="fill:#1f77b4;stroke:#1f77b4;" x="205.261785" xlink:href="#mb6d1745d28" y="101.601657"/>
     <use style="fill:#1f77b4;stroke:#1f77b4;" x="211.209251" xlink:href="#mb6d1745d28" y="117.942242"/>
     <use style="fill:#1f77b4;stroke:#1f77b4;" x="217.156717" xlink:href="#mb6d1745d28" y="135.02558"/>
     <use style="fill:#1f77b4;stroke:#1f77b4;" x="223.104182" xlink:href="#mb6d1745d28" y="105.315427"/>
     <use style="fill:#1f77b4;stroke:#1f77b4;" x="229.051648" xlink:href="#mb6d1745d28" y="120.170503"/>
     <use style="fill:#1f77b4;stroke:#1f77b4;" x="234.999114" xlink:href="#mb6d1745d28" y="120.913257"/>
     <use style="fill:#1f77b4;stroke:#1f77b4;" x="240.94658" xlink:href="#mb6d1745d28" y="152.108919"/>
     <use style="fill:#1f77b4;stroke:#1f77b4;" x="246.894045" xlink:href="#mb6d1745d28" y="196.674149"/>
     <use style="fill:#1f77b4;stroke:#1f77b4;" x="252.841511" xlink:href="#mb6d1745d28" y="135.768334"/>
     <use style="fill:#1f77b4;stroke:#1f77b4;" x="258.788977" xlink:href="#mb6d1745d28" y="172.163272"/>
     <use style="fill:#1f77b4;stroke:#1f77b4;" x="264.736443" xlink:href="#mb6d1745d28" y="172.163272"/>
     <use style="fill:#1f77b4;stroke:#1f77b4;" x="270.683908" xlink:href="#mb6d1745d28" y="163.99298"/>
     <use style="fill:#1f77b4;stroke:#1f77b4;" x="276.631374" xlink:href="#mb6d1745d28" y="166.221242"/>
     <use style="fill:#1f77b4;stroke:#1f77b4;" x="282.57884" xlink:href="#mb6d1745d28" y="183.30458"/>
     <use style="fill:#1f77b4;stroke:#1f77b4;" x="288.526305" xlink:href="#mb6d1745d28" y="187.018349"/>
     <use style="fill:#1f77b4;stroke:#1f77b4;" x="294.473771" xlink:href="#mb6d1745d28" y="200.387918"/>
     <use style="fill:#1f77b4;stroke:#1f77b4;" x="300.421237" xlink:href="#mb6d1745d28" y="196.674149"/>
     <use style="fill:#1f77b4;stroke:#1f77b4;" x="306.368703" xlink:href="#mb6d1745d28" y="198.902411"/>
     <use style="fill:#1f77b4;stroke:#1f77b4;" x="312.316168" xlink:href="#mb6d1745d28" y="192.96038"/>
     <use style="fill:#1f77b4;stroke:#1f77b4;" x="318.263634" xlink:href="#mb6d1745d28" y="200.387918"/>
     <use style="fill:#1f77b4;stroke:#1f77b4;" x="324.2111" xlink:href="#mb6d1745d28" y="219.699518"/>
     <use style="fill:#1f77b4;stroke:#1f77b4;" x="330.158566" xlink:href="#mb6d1745d28" y="218.214011"/>
     <use style="fill:#1f77b4;stroke:#1f77b4;" x="336.106031" xlink:href="#mb6d1745d28" y="224.898795"/>
     <use style="fill:#1f77b4;stroke:#1f77b4;" x="342.053497" xlink:href="#mb6d1745d28" y="232.326334"/>
     <use style="fill:#1f77b4;stroke:#1f77b4;" x="348.000963" xlink:href="#mb6d1745d28" y="233.811841"/>
     <use style="fill:#1f77b4;stroke:#1f77b4;" x="353.948428" xlink:href="#mb6d1745d28" y="237.525611"/>
     <use style="fill:#1f77b4;stroke:#1f77b4;" x="359.895894" xlink:href="#mb6d1745d28" y="227.127057"/>
     <use style="fill:#1f77b4;stroke:#1f77b4;" x="365.84336" xlink:href="#mb6d1745d28" y="245.695903"/>
     <use style="fill:#1f77b4;stroke:#1f77b4;" x="371.790826" xlink:href="#mb6d1745d28" y="227.869811"/>
     <use style="fill:#1f77b4;stroke:#1f77b4;" x="377.738291" xlink:href="#mb6d1745d28" y="250.152426"/>
     <use style="fill:#1f77b4;stroke:#1f77b4;" x="383.685757" xlink:href="#mb6d1745d28" y="247.181411"/>
     <use style="fill:#1f77b4;stroke:#1f77b4;" x="389.633223" xlink:href="#mb6d1745d28" y="247.181411"/>
     <use style="fill:#1f77b4;stroke:#1f77b4;" x="395.580689" xlink:href="#mb6d1745d28" y="245.695903"/>
     <use style="fill:#1f77b4;stroke:#1f77b4;" x="401.528154" xlink:href="#mb6d1745d28" y="251.637934"/>
     <use style="fill:#1f77b4;stroke:#1f77b4;" x="407.47562" xlink:href="#mb6d1745d28" y="244.210395"/>
     <use style="fill:#1f77b4;stroke:#1f77b4;" x="413.423086" xlink:href="#mb6d1745d28" y="245.695903"/>
     <use style="fill:#1f77b4;stroke:#1f77b4;" x="419.370551" xlink:href="#mb6d1745d28" y="245.695903"/>
     <use style="fill:#1f77b4;stroke:#1f77b4;" x="425.318017" xlink:href="#mb6d1745d28" y="250.89518"/>
     <use style="fill:#1f77b4;stroke:#1f77b4;" x="431.265483" xlink:href="#mb6d1745d28" y="252.380687"/>
    </g>
   </g>
   <g id="patch_3">
    <path d="M 37.840625 279.86258 
L 37.840625 10.8 
" style="fill:none;stroke:#000000;stroke-linecap:square;stroke-linejoin:miter;stroke-width:0.8;"/>
   </g>
   <g id="patch_4">
    <path d="M 450 279.86258 
L 450 10.8 
" style="fill:none;stroke:#000000;stroke-linecap:square;stroke-linejoin:miter;stroke-width:0.8;"/>
   </g>
   <g id="patch_5">
    <path d="M 37.840625 279.86258 
L 450 279.86258 
" style="fill:none;stroke:#000000;stroke-linecap:square;stroke-linejoin:miter;stroke-width:0.8;"/>
   </g>
   <g id="patch_6">
    <path d="M 37.840625 10.8 
L 450 10.8 
" style="fill:none;stroke:#000000;stroke-linecap:square;stroke-linejoin:miter;stroke-width:0.8;"/>
   </g>
  </g>
 </g>
 <defs>
  <clipPath id="p4e8ef5e1b7">
   <rect height="269.06258" width="412.159375" x="37.840625" y="10.8"/>
  </clipPath>
 </defs>
</svg>
