<?xml version="1.0" encoding="utf-8" standalone="no"?>
<!DOCTYPE svg PUBLIC "-//W3C//DTD SVG 1.1//EN"
  "http://www.w3.org/Graphics/SVG/1.1/DTD/svg11.dtd">
<!-- Created with matplotlib (https://matplotlib.org/) -->
<svg height="345.6pt" version="1.1" viewBox="0 0 460.8 345.6" width="460.8pt" xmlns="http://www.w3.org/2000/svg" xmlns:xlink="http://www.w3.org/1999/xlink">
 <defs>
  <style type="text/css">
*{stroke-linecap:butt;stroke-linejoin:round;}
  </style>
 </defs>
 <g id="figure_1">
  <g id="patch_1">
   <path d="M 0 345.6 
L 460.8 345.6 
L 460.8 0 
L 0 0 
z
" style="fill:#ffffff;"/>
  </g>
  <g id="axes_1">
   <g id="patch_2">
    <path d="M 56.928125 279.86258 
L 426.03129 279.86258 
L 426.03129 10.8 
L 56.928125 10.8 
z
" style="fill:#ffffff;"/>
   </g>
   <g id="matplotlib.axis_1">
    <g id="xtick_1">
     <g id="line2d_1">
      <defs>
       <path d="M 0 0 
L 0 3.5 
" id="m1cef877a14" style="stroke:#000000;stroke-width:0.8;"/>
      </defs>
      <g>
       <use style="stroke:#000000;stroke-width:0.8;" x="111.454729" xlink:href="#m1cef877a14" y="279.86258"/>
      </g>
     </g>
     <g id="text_1">
      <!-- 2020-03-01 -->
      <defs>
       <path d="M 19.1875 8.296875 
L 53.609375 8.296875 
L 53.609375 0 
L 7.328125 0 
L 7.328125 8.296875 
Q 12.9375 14.109375 22.625 23.890625 
Q 32.328125 33.6875 34.8125 36.53125 
Q 39.546875 41.84375 41.421875 45.53125 
Q 43.3125 49.21875 43.3125 52.78125 
Q 43.3125 58.59375 39.234375 62.25 
Q 35.15625 65.921875 28.609375 65.921875 
Q 23.96875 65.921875 18.8125 64.3125 
Q 13.671875 62.703125 7.8125 59.421875 
L 7.8125 69.390625 
Q 13.765625 71.78125 18.9375 73 
Q 24.125 74.21875 28.421875 74.21875 
Q 39.75 74.21875 46.484375 68.546875 
Q 53.21875 62.890625 53.21875 53.421875 
Q 53.21875 48.921875 51.53125 44.890625 
Q 49.859375 40.875 45.40625 35.40625 
Q 44.1875 33.984375 37.640625 27.21875 
Q 31.109375 20.453125 19.1875 8.296875 
z
" id="DejaVuSans-50"/>
       <path d="M 31.78125 66.40625 
Q 24.171875 66.40625 20.328125 58.90625 
Q 16.5 51.421875 16.5 36.375 
Q 16.5 21.390625 20.328125 13.890625 
Q 24.171875 6.390625 31.78125 6.390625 
Q 39.453125 6.390625 43.28125 13.890625 
Q 47.125 21.390625 47.125 36.375 
Q 47.125 51.421875 43.28125 58.90625 
Q 39.453125 66.40625 31.78125 66.40625 
z
M 31.78125 74.21875 
Q 44.046875 74.21875 50.515625 64.515625 
Q 56.984375 54.828125 56.984375 36.375 
Q 56.984375 17.96875 50.515625 8.265625 
Q 44.046875 -1.421875 31.78125 -1.421875 
Q 19.53125 -1.421875 13.0625 8.265625 
Q 6.59375 17.96875 6.59375 36.375 
Q 6.59375 54.828125 13.0625 64.515625 
Q 19.53125 74.21875 31.78125 74.21875 
z
" id="DejaVuSans-48"/>
       <path d="M 4.890625 31.390625 
L 31.203125 31.390625 
L 31.203125 23.390625 
L 4.890625 23.390625 
z
" id="DejaVuSans-45"/>
       <path d="M 40.578125 39.3125 
Q 47.65625 37.796875 51.625 33 
Q 55.609375 28.21875 55.609375 21.1875 
Q 55.609375 10.40625 48.1875 4.484375 
Q 40.765625 -1.421875 27.09375 -1.421875 
Q 22.515625 -1.421875 17.65625 -0.515625 
Q 12.796875 0.390625 7.625 2.203125 
L 7.625 11.71875 
Q 11.71875 9.328125 16.59375 8.109375 
Q 21.484375 6.890625 26.8125 6.890625 
Q 36.078125 6.890625 40.9375 10.546875 
Q 45.796875 14.203125 45.796875 21.1875 
Q 45.796875 27.640625 41.28125 31.265625 
Q 36.765625 34.90625 28.71875 34.90625 
L 20.21875 34.90625 
L 20.21875 43.015625 
L 29.109375 43.015625 
Q 36.375 43.015625 40.234375 45.921875 
Q 44.09375 48.828125 44.09375 54.296875 
Q 44.09375 59.90625 40.109375 62.90625 
Q 36.140625 65.921875 28.71875 65.921875 
Q 24.65625 65.921875 20.015625 65.03125 
Q 15.375 64.15625 9.8125 62.3125 
L 9.8125 71.09375 
Q 15.4375 72.65625 20.34375 73.4375 
Q 25.25 74.21875 29.59375 74.21875 
Q 40.828125 74.21875 47.359375 69.109375 
Q 53.90625 64.015625 53.90625 55.328125 
Q 53.90625 49.265625 50.4375 45.09375 
Q 46.96875 40.921875 40.578125 39.3125 
z
" id="DejaVuSans-51"/>
       <path d="M 12.40625 8.296875 
L 28.515625 8.296875 
L 28.515625 63.921875 
L 10.984375 60.40625 
L 10.984375 69.390625 
L 28.421875 72.90625 
L 38.28125 72.90625 
L 38.28125 8.296875 
L 54.390625 8.296875 
L 54.390625 0 
L 12.40625 0 
z
" id="DejaVuSans-49"/>
      </defs>
      <g transform="translate(92.858925 333.329439)rotate(-45)scale(0.1 -0.1)">
       <use xlink:href="#DejaVuSans-50"/>
       <use x="63.623047" xlink:href="#DejaVuSans-48"/>
       <use x="127.246094" xlink:href="#DejaVuSans-50"/>
       <use x="190.869141" xlink:href="#DejaVuSans-48"/>
       <use x="254.492188" xlink:href="#DejaVuSans-45"/>
       <use x="290.576172" xlink:href="#DejaVuSans-48"/>
       <use x="354.199219" xlink:href="#DejaVuSans-51"/>
       <use x="417.822266" xlink:href="#DejaVuSans-45"/>
       <use x="453.90625" xlink:href="#DejaVuSans-48"/>
       <use x="517.529297" xlink:href="#DejaVuSans-49"/>
      </g>
     </g>
    </g>
    <g id="xtick_2">
     <g id="line2d_2">
      <g>
       <use style="stroke:#000000;stroke-width:0.8;" x="170.175687" xlink:href="#m1cef877a14" y="279.86258"/>
      </g>
     </g>
     <g id="text_2">
      <!-- 2020-03-15 -->
      <defs>
       <path d="M 10.796875 72.90625 
L 49.515625 72.90625 
L 49.515625 64.59375 
L 19.828125 64.59375 
L 19.828125 46.734375 
Q 21.96875 47.46875 24.109375 47.828125 
Q 26.265625 48.1875 28.421875 48.1875 
Q 40.625 48.1875 47.75 41.5 
Q 54.890625 34.8125 54.890625 23.390625 
Q 54.890625 11.625 47.5625 5.09375 
Q 40.234375 -1.421875 26.90625 -1.421875 
Q 22.3125 -1.421875 17.546875 -0.640625 
Q 12.796875 0.140625 7.71875 1.703125 
L 7.71875 11.625 
Q 12.109375 9.234375 16.796875 8.0625 
Q 21.484375 6.890625 26.703125 6.890625 
Q 35.15625 6.890625 40.078125 11.328125 
Q 45.015625 15.765625 45.015625 23.390625 
Q 45.015625 31 40.078125 35.4375 
Q 35.15625 39.890625 26.703125 39.890625 
Q 22.75 39.890625 18.8125 39.015625 
Q 14.890625 38.140625 10.796875 36.28125 
z
" id="DejaVuSans-53"/>
      </defs>
      <g transform="translate(151.579883 333.329439)rotate(-45)scale(0.1 -0.1)">
       <use xlink:href="#DejaVuSans-50"/>
       <use x="63.623047" xlink:href="#DejaVuSans-48"/>
       <use x="127.246094" xlink:href="#DejaVuSans-50"/>
       <use x="190.869141" xlink:href="#DejaVuSans-48"/>
       <use x="254.492188" xlink:href="#DejaVuSans-45"/>
       <use x="290.576172" xlink:href="#DejaVuSans-48"/>
       <use x="354.199219" xlink:href="#DejaVuSans-51"/>
       <use x="417.822266" xlink:href="#DejaVuSans-45"/>
       <use x="453.90625" xlink:href="#DejaVuSans-49"/>
       <use x="517.529297" xlink:href="#DejaVuSans-53"/>
      </g>
     </g>
    </g>
    <g id="xtick_3">
     <g id="line2d_3">
      <g>
       <use style="stroke:#000000;stroke-width:0.8;" x="241.479707" xlink:href="#m1cef877a14" y="279.86258"/>
      </g>
     </g>
     <g id="text_3">
      <!-- 2020-04-01 -->
      <defs>
       <path d="M 37.796875 64.3125 
L 12.890625 25.390625 
L 37.796875 25.390625 
z
M 35.203125 72.90625 
L 47.609375 72.90625 
L 47.609375 25.390625 
L 58.015625 25.390625 
L 58.015625 17.1875 
L 47.609375 17.1875 
L 47.609375 0 
L 37.796875 0 
L 37.796875 17.1875 
L 4.890625 17.1875 
L 4.890625 26.703125 
z
" id="DejaVuSans-52"/>
      </defs>
      <g transform="translate(222.883904 333.329439)rotate(-45)scale(0.1 -0.1)">
       <use xlink:href="#DejaVuSans-50"/>
       <use x="63.623047" xlink:href="#DejaVuSans-48"/>
       <use x="127.246094" xlink:href="#DejaVuSans-50"/>
       <use x="190.869141" xlink:href="#DejaVuSans-48"/>
       <use x="254.492188" xlink:href="#DejaVuSans-45"/>
       <use x="290.576172" xlink:href="#DejaVuSans-48"/>
       <use x="354.199219" xlink:href="#DejaVuSans-52"/>
       <use x="417.822266" xlink:href="#DejaVuSans-45"/>
       <use x="453.90625" xlink:href="#DejaVuSans-48"/>
       <use x="517.529297" xlink:href="#DejaVuSans-49"/>
      </g>
     </g>
    </g>
    <g id="xtick_4">
     <g id="line2d_4">
      <g>
       <use style="stroke:#000000;stroke-width:0.8;" x="300.200665" xlink:href="#m1cef877a14" y="279.86258"/>
      </g>
     </g>
     <g id="text_4">
      <!-- 2020-04-15 -->
      <g transform="translate(281.604862 333.329439)rotate(-45)scale(0.1 -0.1)">
       <use xlink:href="#DejaVuSans-50"/>
       <use x="63.623047" xlink:href="#DejaVuSans-48"/>
       <use x="127.246094" xlink:href="#DejaVuSans-50"/>
       <use x="190.869141" xlink:href="#DejaVuSans-48"/>
       <use x="254.492188" xlink:href="#DejaVuSans-45"/>
       <use x="290.576172" xlink:href="#DejaVuSans-48"/>
       <use x="354.199219" xlink:href="#DejaVuSans-52"/>
       <use x="417.822266" xlink:href="#DejaVuSans-45"/>
       <use x="453.90625" xlink:href="#DejaVuSans-49"/>
       <use x="517.529297" xlink:href="#DejaVuSans-53"/>
      </g>
     </g>
    </g>
    <g id="xtick_5">
     <g id="line2d_5">
      <g>
       <use style="stroke:#000000;stroke-width:0.8;" x="367.310332" xlink:href="#m1cef877a14" y="279.86258"/>
      </g>
     </g>
     <g id="text_5">
      <!-- 2020-05-01 -->
      <g transform="translate(348.714528 333.329439)rotate(-45)scale(0.1 -0.1)">
       <use xlink:href="#DejaVuSans-50"/>
       <use x="63.623047" xlink:href="#DejaVuSans-48"/>
       <use x="127.246094" xlink:href="#DejaVuSans-50"/>
       <use x="190.869141" xlink:href="#DejaVuSans-48"/>
       <use x="254.492188" xlink:href="#DejaVuSans-45"/>
       <use x="290.576172" xlink:href="#DejaVuSans-48"/>
       <use x="354.199219" xlink:href="#DejaVuSans-53"/>
       <use x="417.822266" xlink:href="#DejaVuSans-45"/>
       <use x="453.90625" xlink:href="#DejaVuSans-48"/>
       <use x="517.529297" xlink:href="#DejaVuSans-49"/>
      </g>
     </g>
    </g>
    <g id="xtick_6">
     <g id="line2d_6">
      <g>
       <use style="stroke:#000000;stroke-width:0.8;" x="426.03129" xlink:href="#m1cef877a14" y="279.86258"/>
      </g>
     </g>
     <g id="text_6">
      <!-- 2020-05-15 -->
      <g transform="translate(407.435486 333.329439)rotate(-45)scale(0.1 -0.1)">
       <use xlink:href="#DejaVuSans-50"/>
       <use x="63.623047" xlink:href="#DejaVuSans-48"/>
       <use x="127.246094" xlink:href="#DejaVuSans-50"/>
       <use x="190.869141" xlink:href="#DejaVuSans-48"/>
       <use x="254.492188" xlink:href="#DejaVuSans-45"/>
       <use x="290.576172" xlink:href="#DejaVuSans-48"/>
       <use x="354.199219" xlink:href="#DejaVuSans-53"/>
       <use x="417.822266" xlink:href="#DejaVuSans-45"/>
       <use x="453.90625" xlink:href="#DejaVuSans-49"/>
       <use x="517.529297" xlink:href="#DejaVuSans-53"/>
      </g>
     </g>
    </g>
   </g>
   <g id="matplotlib.axis_2">
    <g id="ytick_1">
     <g id="line2d_7">
      <defs>
       <path d="M 0 0 
L -3.5 0 
" id="m1616e6cf49" style="stroke:#000000;stroke-width:0.8;"/>
      </defs>
      <g>
       <use style="stroke:#000000;stroke-width:0.8;" x="56.928125" xlink:href="#m1616e6cf49" y="279.86258"/>
      </g>
     </g>
     <g id="text_7">
      <!-- 0 -->
      <g transform="translate(43.565625 283.661798)scale(0.1 -0.1)">
       <use xlink:href="#DejaVuSans-48"/>
      </g>
     </g>
    </g>
    <g id="ytick_2">
     <g id="line2d_8">
      <g>
       <use style="stroke:#000000;stroke-width:0.8;" x="56.928125" xlink:href="#m1616e6cf49" y="232.041984"/>
      </g>
     </g>
     <g id="text_8">
      <!-- 1000 -->
      <g transform="translate(24.478125 235.841203)scale(0.1 -0.1)">
       <use xlink:href="#DejaVuSans-49"/>
       <use x="63.623047" xlink:href="#DejaVuSans-48"/>
       <use x="127.246094" xlink:href="#DejaVuSans-48"/>
       <use x="190.869141" xlink:href="#DejaVuSans-48"/>
      </g>
     </g>
    </g>
    <g id="ytick_3">
     <g id="line2d_9">
      <g>
       <use style="stroke:#000000;stroke-width:0.8;" x="56.928125" xlink:href="#m1616e6cf49" y="184.221389"/>
      </g>
     </g>
     <g id="text_9">
      <!-- 2000 -->
      <g transform="translate(24.478125 188.020608)scale(0.1 -0.1)">
       <use xlink:href="#DejaVuSans-50"/>
       <use x="63.623047" xlink:href="#DejaVuSans-48"/>
       <use x="127.246094" xlink:href="#DejaVuSans-48"/>
       <use x="190.869141" xlink:href="#DejaVuSans-48"/>
      </g>
     </g>
    </g>
    <g id="ytick_4">
     <g id="line2d_10">
      <g>
       <use style="stroke:#000000;stroke-width:0.8;" x="56.928125" xlink:href="#m1616e6cf49" y="136.400794"/>
      </g>
     </g>
     <g id="text_10">
      <!-- 3000 -->
      <g transform="translate(24.478125 140.200012)scale(0.1 -0.1)">
       <use xlink:href="#DejaVuSans-51"/>
       <use x="63.623047" xlink:href="#DejaVuSans-48"/>
       <use x="127.246094" xlink:href="#DejaVuSans-48"/>
       <use x="190.869141" xlink:href="#DejaVuSans-48"/>
      </g>
     </g>
    </g>
    <g id="ytick_5">
     <g id="line2d_11">
      <g>
       <use style="stroke:#000000;stroke-width:0.8;" x="56.928125" xlink:href="#m1616e6cf49" y="88.580198"/>
      </g>
     </g>
     <g id="text_11">
      <!-- 4000 -->
      <g transform="translate(24.478125 92.379417)scale(0.1 -0.1)">
       <use xlink:href="#DejaVuSans-52"/>
       <use x="63.623047" xlink:href="#DejaVuSans-48"/>
       <use x="127.246094" xlink:href="#DejaVuSans-48"/>
       <use x="190.869141" xlink:href="#DejaVuSans-48"/>
      </g>
     </g>
    </g>
    <g id="ytick_6">
     <g id="line2d_12">
      <g>
       <use style="stroke:#000000;stroke-width:0.8;" x="56.928125" xlink:href="#m1616e6cf49" y="40.759603"/>
      </g>
     </g>
     <g id="text_12">
      <!-- 5000 -->
      <g transform="translate(24.478125 44.558822)scale(0.1 -0.1)">
       <use xlink:href="#DejaVuSans-53"/>
       <use x="63.623047" xlink:href="#DejaVuSans-48"/>
       <use x="127.246094" xlink:href="#DejaVuSans-48"/>
       <use x="190.869141" xlink:href="#DejaVuSans-48"/>
      </g>
     </g>
    </g>
    <g id="text_13">
     <!-- VC hospitalizados acumulados -->
     <defs>
      <path d="M 28.609375 0 
L 0.78125 72.90625 
L 11.078125 72.90625 
L 34.1875 11.53125 
L 57.328125 72.90625 
L 67.578125 72.90625 
L 39.796875 0 
z
" id="DejaVuSans-86"/>
      <path d="M 64.40625 67.28125 
L 64.40625 56.890625 
Q 59.421875 61.53125 53.78125 63.8125 
Q 48.140625 66.109375 41.796875 66.109375 
Q 29.296875 66.109375 22.65625 58.46875 
Q 16.015625 50.828125 16.015625 36.375 
Q 16.015625 21.96875 22.65625 14.328125 
Q 29.296875 6.6875 41.796875 6.6875 
Q 48.140625 6.6875 53.78125 8.984375 
Q 59.421875 11.28125 64.40625 15.921875 
L 64.40625 5.609375 
Q 59.234375 2.09375 53.4375 0.328125 
Q 47.65625 -1.421875 41.21875 -1.421875 
Q 24.65625 -1.421875 15.125 8.703125 
Q 5.609375 18.84375 5.609375 36.375 
Q 5.609375 53.953125 15.125 64.078125 
Q 24.65625 74.21875 41.21875 74.21875 
Q 47.75 74.21875 53.53125 72.484375 
Q 59.328125 70.75 64.40625 67.28125 
z
" id="DejaVuSans-67"/>
      <path id="DejaVuSans-32"/>
      <path d="M 54.890625 33.015625 
L 54.890625 0 
L 45.90625 0 
L 45.90625 32.71875 
Q 45.90625 40.484375 42.875 44.328125 
Q 39.84375 48.1875 33.796875 48.1875 
Q 26.515625 48.1875 22.3125 43.546875 
Q 18.109375 38.921875 18.109375 30.90625 
L 18.109375 0 
L 9.078125 0 
L 9.078125 75.984375 
L 18.109375 75.984375 
L 18.109375 46.1875 
Q 21.34375 51.125 25.703125 53.5625 
Q 30.078125 56 35.796875 56 
Q 45.21875 56 50.046875 50.171875 
Q 54.890625 44.34375 54.890625 33.015625 
z
" id="DejaVuSans-104"/>
      <path d="M 30.609375 48.390625 
Q 23.390625 48.390625 19.1875 42.75 
Q 14.984375 37.109375 14.984375 27.296875 
Q 14.984375 17.484375 19.15625 11.84375 
Q 23.34375 6.203125 30.609375 6.203125 
Q 37.796875 6.203125 41.984375 11.859375 
Q 46.1875 17.53125 46.1875 27.296875 
Q 46.1875 37.015625 41.984375 42.703125 
Q 37.796875 48.390625 30.609375 48.390625 
z
M 30.609375 56 
Q 42.328125 56 49.015625 48.375 
Q 55.71875 40.765625 55.71875 27.296875 
Q 55.71875 13.875 49.015625 6.21875 
Q 42.328125 -1.421875 30.609375 -1.421875 
Q 18.84375 -1.421875 12.171875 6.21875 
Q 5.515625 13.875 5.515625 27.296875 
Q 5.515625 40.765625 12.171875 48.375 
Q 18.84375 56 30.609375 56 
z
" id="DejaVuSans-111"/>
      <path d="M 44.28125 53.078125 
L 44.28125 44.578125 
Q 40.484375 46.53125 36.375 47.5 
Q 32.28125 48.484375 27.875 48.484375 
Q 21.1875 48.484375 17.84375 46.4375 
Q 14.5 44.390625 14.5 40.28125 
Q 14.5 37.15625 16.890625 35.375 
Q 19.28125 33.59375 26.515625 31.984375 
L 29.59375 31.296875 
Q 39.15625 29.25 43.1875 25.515625 
Q 47.21875 21.78125 47.21875 15.09375 
Q 47.21875 7.46875 41.1875 3.015625 
Q 35.15625 -1.421875 24.609375 -1.421875 
Q 20.21875 -1.421875 15.453125 -0.5625 
Q 10.6875 0.296875 5.421875 2 
L 5.421875 11.28125 
Q 10.40625 8.6875 15.234375 7.390625 
Q 20.0625 6.109375 24.8125 6.109375 
Q 31.15625 6.109375 34.5625 8.28125 
Q 37.984375 10.453125 37.984375 14.40625 
Q 37.984375 18.0625 35.515625 20.015625 
Q 33.0625 21.96875 24.703125 23.78125 
L 21.578125 24.515625 
Q 13.234375 26.265625 9.515625 29.90625 
Q 5.8125 33.546875 5.8125 39.890625 
Q 5.8125 47.609375 11.28125 51.796875 
Q 16.75 56 26.8125 56 
Q 31.78125 56 36.171875 55.265625 
Q 40.578125 54.546875 44.28125 53.078125 
z
" id="DejaVuSans-115"/>
      <path d="M 18.109375 8.203125 
L 18.109375 -20.796875 
L 9.078125 -20.796875 
L 9.078125 54.6875 
L 18.109375 54.6875 
L 18.109375 46.390625 
Q 20.953125 51.265625 25.265625 53.625 
Q 29.59375 56 35.59375 56 
Q 45.5625 56 51.78125 48.09375 
Q 58.015625 40.1875 58.015625 27.296875 
Q 58.015625 14.40625 51.78125 6.484375 
Q 45.5625 -1.421875 35.59375 -1.421875 
Q 29.59375 -1.421875 25.265625 0.953125 
Q 20.953125 3.328125 18.109375 8.203125 
z
M 48.6875 27.296875 
Q 48.6875 37.203125 44.609375 42.84375 
Q 40.53125 48.484375 33.40625 48.484375 
Q 26.265625 48.484375 22.1875 42.84375 
Q 18.109375 37.203125 18.109375 27.296875 
Q 18.109375 17.390625 22.1875 11.75 
Q 26.265625 6.109375 33.40625 6.109375 
Q 40.53125 6.109375 44.609375 11.75 
Q 48.6875 17.390625 48.6875 27.296875 
z
" id="DejaVuSans-112"/>
      <path d="M 9.421875 54.6875 
L 18.40625 54.6875 
L 18.40625 0 
L 9.421875 0 
z
M 9.421875 75.984375 
L 18.40625 75.984375 
L 18.40625 64.59375 
L 9.421875 64.59375 
z
" id="DejaVuSans-105"/>
      <path d="M 18.3125 70.21875 
L 18.3125 54.6875 
L 36.8125 54.6875 
L 36.8125 47.703125 
L 18.3125 47.703125 
L 18.3125 18.015625 
Q 18.3125 11.328125 20.140625 9.421875 
Q 21.96875 7.515625 27.59375 7.515625 
L 36.8125 7.515625 
L 36.8125 0 
L 27.59375 0 
Q 17.1875 0 13.234375 3.875 
Q 9.28125 7.765625 9.28125 18.015625 
L 9.28125 47.703125 
L 2.6875 47.703125 
L 2.6875 54.6875 
L 9.28125 54.6875 
L 9.28125 70.21875 
z
" id="DejaVuSans-116"/>
      <path d="M 34.28125 27.484375 
Q 23.390625 27.484375 19.1875 25 
Q 14.984375 22.515625 14.984375 16.5 
Q 14.984375 11.71875 18.140625 8.90625 
Q 21.296875 6.109375 26.703125 6.109375 
Q 34.1875 6.109375 38.703125 11.40625 
Q 43.21875 16.703125 43.21875 25.484375 
L 43.21875 27.484375 
z
M 52.203125 31.203125 
L 52.203125 0 
L 43.21875 0 
L 43.21875 8.296875 
Q 40.140625 3.328125 35.546875 0.953125 
Q 30.953125 -1.421875 24.3125 -1.421875 
Q 15.921875 -1.421875 10.953125 3.296875 
Q 6 8.015625 6 15.921875 
Q 6 25.140625 12.171875 29.828125 
Q 18.359375 34.515625 30.609375 34.515625 
L 43.21875 34.515625 
L 43.21875 35.40625 
Q 43.21875 41.609375 39.140625 45 
Q 35.0625 48.390625 27.6875 48.390625 
Q 23 48.390625 18.546875 47.265625 
Q 14.109375 46.140625 10.015625 43.890625 
L 10.015625 52.203125 
Q 14.9375 54.109375 19.578125 55.046875 
Q 24.21875 56 28.609375 56 
Q 40.484375 56 46.34375 49.84375 
Q 52.203125 43.703125 52.203125 31.203125 
z
" id="DejaVuSans-97"/>
      <path d="M 9.421875 75.984375 
L 18.40625 75.984375 
L 18.40625 0 
L 9.421875 0 
z
" id="DejaVuSans-108"/>
      <path d="M 5.515625 54.6875 
L 48.1875 54.6875 
L 48.1875 46.484375 
L 14.40625 7.171875 
L 48.1875 7.171875 
L 48.1875 0 
L 4.296875 0 
L 4.296875 8.203125 
L 38.09375 47.515625 
L 5.515625 47.515625 
z
" id="DejaVuSans-122"/>
      <path d="M 45.40625 46.390625 
L 45.40625 75.984375 
L 54.390625 75.984375 
L 54.390625 0 
L 45.40625 0 
L 45.40625 8.203125 
Q 42.578125 3.328125 38.25 0.953125 
Q 33.9375 -1.421875 27.875 -1.421875 
Q 17.96875 -1.421875 11.734375 6.484375 
Q 5.515625 14.40625 5.515625 27.296875 
Q 5.515625 40.1875 11.734375 48.09375 
Q 17.96875 56 27.875 56 
Q 33.9375 56 38.25 53.625 
Q 42.578125 51.265625 45.40625 46.390625 
z
M 14.796875 27.296875 
Q 14.796875 17.390625 18.875 11.75 
Q 22.953125 6.109375 30.078125 6.109375 
Q 37.203125 6.109375 41.296875 11.75 
Q 45.40625 17.390625 45.40625 27.296875 
Q 45.40625 37.203125 41.296875 42.84375 
Q 37.203125 48.484375 30.078125 48.484375 
Q 22.953125 48.484375 18.875 42.84375 
Q 14.796875 37.203125 14.796875 27.296875 
z
" id="DejaVuSans-100"/>
      <path d="M 48.78125 52.59375 
L 48.78125 44.1875 
Q 44.96875 46.296875 41.140625 47.34375 
Q 37.3125 48.390625 33.40625 48.390625 
Q 24.65625 48.390625 19.8125 42.84375 
Q 14.984375 37.3125 14.984375 27.296875 
Q 14.984375 17.28125 19.8125 11.734375 
Q 24.65625 6.203125 33.40625 6.203125 
Q 37.3125 6.203125 41.140625 7.25 
Q 44.96875 8.296875 48.78125 10.40625 
L 48.78125 2.09375 
Q 45.015625 0.34375 40.984375 -0.53125 
Q 36.96875 -1.421875 32.421875 -1.421875 
Q 20.0625 -1.421875 12.78125 6.34375 
Q 5.515625 14.109375 5.515625 27.296875 
Q 5.515625 40.671875 12.859375 48.328125 
Q 20.21875 56 33.015625 56 
Q 37.15625 56 41.109375 55.140625 
Q 45.0625 54.296875 48.78125 52.59375 
z
" id="DejaVuSans-99"/>
      <path d="M 8.5 21.578125 
L 8.5 54.6875 
L 17.484375 54.6875 
L 17.484375 21.921875 
Q 17.484375 14.15625 20.5 10.265625 
Q 23.53125 6.390625 29.59375 6.390625 
Q 36.859375 6.390625 41.078125 11.03125 
Q 45.3125 15.671875 45.3125 23.6875 
L 45.3125 54.6875 
L 54.296875 54.6875 
L 54.296875 0 
L 45.3125 0 
L 45.3125 8.40625 
Q 42.046875 3.421875 37.71875 1 
Q 33.40625 -1.421875 27.6875 -1.421875 
Q 18.265625 -1.421875 13.375 4.4375 
Q 8.5 10.296875 8.5 21.578125 
z
M 31.109375 56 
z
" id="DejaVuSans-117"/>
      <path d="M 52 44.1875 
Q 55.375 50.25 60.0625 53.125 
Q 64.75 56 71.09375 56 
Q 79.640625 56 84.28125 50.015625 
Q 88.921875 44.046875 88.921875 33.015625 
L 88.921875 0 
L 79.890625 0 
L 79.890625 32.71875 
Q 79.890625 40.578125 77.09375 44.375 
Q 74.3125 48.1875 68.609375 48.1875 
Q 61.625 48.1875 57.5625 43.546875 
Q 53.515625 38.921875 53.515625 30.90625 
L 53.515625 0 
L 44.484375 0 
L 44.484375 32.71875 
Q 44.484375 40.625 41.703125 44.40625 
Q 38.921875 48.1875 33.109375 48.1875 
Q 26.21875 48.1875 22.15625 43.53125 
Q 18.109375 38.875 18.109375 30.90625 
L 18.109375 0 
L 9.078125 0 
L 9.078125 54.6875 
L 18.109375 54.6875 
L 18.109375 46.1875 
Q 21.1875 51.21875 25.484375 53.609375 
Q 29.78125 56 35.6875 56 
Q 41.65625 56 45.828125 52.96875 
Q 50 49.953125 52 44.1875 
z
" id="DejaVuSans-109"/>
     </defs>
     <g transform="translate(18.398438 221.458634)rotate(-90)scale(0.1 -0.1)">
      <use xlink:href="#DejaVuSans-86"/>
      <use x="68.408203" xlink:href="#DejaVuSans-67"/>
      <use x="138.232422" xlink:href="#DejaVuSans-32"/>
      <use x="170.019531" xlink:href="#DejaVuSans-104"/>
      <use x="233.398438" xlink:href="#DejaVuSans-111"/>
      <use x="294.580078" xlink:href="#DejaVuSans-115"/>
      <use x="346.679688" xlink:href="#DejaVuSans-112"/>
      <use x="410.15625" xlink:href="#DejaVuSans-105"/>
      <use x="437.939453" xlink:href="#DejaVuSans-116"/>
      <use x="477.148438" xlink:href="#DejaVuSans-97"/>
      <use x="538.427734" xlink:href="#DejaVuSans-108"/>
      <use x="566.210938" xlink:href="#DejaVuSans-105"/>
      <use x="593.994141" xlink:href="#DejaVuSans-122"/>
      <use x="646.484375" xlink:href="#DejaVuSans-97"/>
      <use x="707.763672" xlink:href="#DejaVuSans-100"/>
      <use x="771.240234" xlink:href="#DejaVuSans-111"/>
      <use x="832.421875" xlink:href="#DejaVuSans-115"/>
      <use x="884.521484" xlink:href="#DejaVuSans-32"/>
      <use x="916.308594" xlink:href="#DejaVuSans-97"/>
      <use x="977.587891" xlink:href="#DejaVuSans-99"/>
      <use x="1032.568359" xlink:href="#DejaVuSans-117"/>
      <use x="1095.947266" xlink:href="#DejaVuSans-109"/>
      <use x="1193.359375" xlink:href="#DejaVuSans-117"/>
      <use x="1256.738281" xlink:href="#DejaVuSans-108"/>
      <use x="1284.521484" xlink:href="#DejaVuSans-97"/>
      <use x="1345.800781" xlink:href="#DejaVuSans-100"/>
      <use x="1409.277344" xlink:href="#DejaVuSans-111"/>
      <use x="1470.458984" xlink:href="#DejaVuSans-115"/>
     </g>
    </g>
   </g>
   <g id="line2d_13">
    <path clip-path="url(#pe21190254b)" d="M 73.705542 278.427962 
L 77.899896 278.2845 
L 82.09425 278.045397 
L 86.288604 277.51937 
L 90.482958 277.088985 
L 94.677312 276.849882 
L 98.871666 276.371676 
L 103.066021 276.132573 
L 107.260375 275.797829 
L 111.454729 275.654367 
L 115.649083 275.415264 
L 119.843437 274.841417 
L 124.037791 274.26757 
L 128.232145 273.645902 
L 132.4265 273.263337 
L 136.620854 272.880773 
L 140.815208 272.546029 
L 145.009562 271.685258 
L 149.203916 270.298461 
L 153.39827 268.768202 
L 157.592624 266.903198 
L 161.786979 265.181657 
L 165.981333 263.651398 
L 170.175687 261.212547 
L 174.370041 258.056388 
L 178.564395 254.517664 
L 182.758749 248.922654 
L 186.953104 242.705977 
L 191.147458 234.576476 
L 195.341812 225.538383 
L 199.536166 217.169779 
L 203.73052 205.16681 
L 207.924874 191.777043 
L 212.119228 179.582791 
L 216.313583 167.149436 
L 220.507937 155.242108 
L 224.702291 147.256069 
L 228.896645 140.513365 
L 233.090999 131.092708 
L 237.285353 124.302183 
L 241.479707 117.798582 
L 245.674062 112.873061 
L 249.868416 109.62126 
L 254.06277 106.752025 
L 258.257124 104.456636 
L 262.451478 103.022018 
L 266.645832 102.304709 
L 270.840186 97.427008 
L 275.034541 89.201866 
L 279.228895 82.26788 
L 283.423249 81.45493 
L 287.617603 75.716458 
L 291.811957 69.595422 
L 296.006311 66.343621 
L 300.200665 63.522206 
L 304.39502 59.648738 
L 308.589374 54.723217 
L 312.783728 51.232313 
L 316.978082 49.032566 
L 321.172436 47.167563 
L 325.36679 45.732945 
L 329.561144 44.728712 
L 333.755499 43.389736 
L 337.949853 41.811656 
L 342.144207 40.137935 
L 346.338561 39.229344 
L 350.532915 38.559856 
L 354.727269 37.31652 
L 358.921623 36.168826 
L 363.115978 34.734208 
L 367.310332 33.443052 
L 371.504686 32.104075 
L 375.69904 31.004202 
L 379.893394 30.525996 
L 384.087748 29.999969 
L 388.282103 28.708813 
L 392.476457 27.035092 
L 396.670811 25.600474 
L 400.865165 23.831112 
L 405.059519 23.783292 
L 409.253873 23.544189 
" style="fill:none;stroke:#1f77b4;stroke-linecap:square;stroke-width:1.5;"/>
    <defs>
     <path d="M 0 1.5 
C 0.397805 1.5 0.77937 1.341951 1.06066 1.06066 
C 1.341951 0.77937 1.5 0.397805 1.5 0 
C 1.5 -0.397805 1.341951 -0.77937 1.06066 -1.06066 
C 0.77937 -1.341951 0.397805 -1.5 0 -1.5 
C -0.397805 -1.5 -0.77937 -1.341951 -1.06066 -1.06066 
C -1.341951 -0.77937 -1.5 -0.397805 -1.5 0 
C -1.5 0.397805 -1.341951 0.77937 -1.06066 1.06066 
C -0.77937 1.341951 -0.397805 1.5 0 1.5 
z
" id="m5bc20f90ff" style="stroke:#1f77b4;"/>
    </defs>
    <g clip-path="url(#pe21190254b)">
     <use style="fill:#1f77b4;stroke:#1f77b4;" x="73.705542" xlink:href="#m5bc20f90ff" y="278.427962"/>
     <use style="fill:#1f77b4;stroke:#1f77b4;" x="77.899896" xlink:href="#m5bc20f90ff" y="278.2845"/>
     <use style="fill:#1f77b4;stroke:#1f77b4;" x="82.09425" xlink:href="#m5bc20f90ff" y="278.045397"/>
     <use style="fill:#1f77b4;stroke:#1f77b4;" x="86.288604" xlink:href="#m5bc20f90ff" y="277.51937"/>
     <use style="fill:#1f77b4;stroke:#1f77b4;" x="90.482958" xlink:href="#m5bc20f90ff" y="277.088985"/>
     <use style="fill:#1f77b4;stroke:#1f77b4;" x="94.677312" xlink:href="#m5bc20f90ff" y="276.849882"/>
     <use style="fill:#1f77b4;stroke:#1f77b4;" x="98.871666" xlink:href="#m5bc20f90ff" y="276.371676"/>
     <use style="fill:#1f77b4;stroke:#1f77b4;" x="103.066021" xlink:href="#m5bc20f90ff" y="276.132573"/>
     <use style="fill:#1f77b4;stroke:#1f77b4;" x="107.260375" xlink:href="#m5bc20f90ff" y="275.797829"/>
     <use style="fill:#1f77b4;stroke:#1f77b4;" x="111.454729" xlink:href="#m5bc20f90ff" y="275.654367"/>
     <use style="fill:#1f77b4;stroke:#1f77b4;" x="115.649083" xlink:href="#m5bc20f90ff" y="275.415264"/>
     <use style="fill:#1f77b4;stroke:#1f77b4;" x="119.843437" xlink:href="#m5bc20f90ff" y="274.841417"/>
     <use style="fill:#1f77b4;stroke:#1f77b4;" x="124.037791" xlink:href="#m5bc20f90ff" y="274.26757"/>
     <use style="fill:#1f77b4;stroke:#1f77b4;" x="128.232145" xlink:href="#m5bc20f90ff" y="273.645902"/>
     <use style="fill:#1f77b4;stroke:#1f77b4;" x="132.4265" xlink:href="#m5bc20f90ff" y="273.263337"/>
     <use style="fill:#1f77b4;stroke:#1f77b4;" x="136.620854" xlink:href="#m5bc20f90ff" y="272.880773"/>
     <use style="fill:#1f77b4;stroke:#1f77b4;" x="140.815208" xlink:href="#m5bc20f90ff" y="272.546029"/>
     <use style="fill:#1f77b4;stroke:#1f77b4;" x="145.009562" xlink:href="#m5bc20f90ff" y="271.685258"/>
     <use style="fill:#1f77b4;stroke:#1f77b4;" x="149.203916" xlink:href="#m5bc20f90ff" y="270.298461"/>
     <use style="fill:#1f77b4;stroke:#1f77b4;" x="153.39827" xlink:href="#m5bc20f90ff" y="268.768202"/>
     <use style="fill:#1f77b4;stroke:#1f77b4;" x="157.592624" xlink:href="#m5bc20f90ff" y="266.903198"/>
     <use style="fill:#1f77b4;stroke:#1f77b4;" x="161.786979" xlink:href="#m5bc20f90ff" y="265.181657"/>
     <use style="fill:#1f77b4;stroke:#1f77b4;" x="165.981333" xlink:href="#m5bc20f90ff" y="263.651398"/>
     <use style="fill:#1f77b4;stroke:#1f77b4;" x="170.175687" xlink:href="#m5bc20f90ff" y="261.212547"/>
     <use style="fill:#1f77b4;stroke:#1f77b4;" x="174.370041" xlink:href="#m5bc20f90ff" y="258.056388"/>
     <use style="fill:#1f77b4;stroke:#1f77b4;" x="178.564395" xlink:href="#m5bc20f90ff" y="254.517664"/>
     <use style="fill:#1f77b4;stroke:#1f77b4;" x="182.758749" xlink:href="#m5bc20f90ff" y="248.922654"/>
     <use style="fill:#1f77b4;stroke:#1f77b4;" x="186.953104" xlink:href="#m5bc20f90ff" y="242.705977"/>
     <use style="fill:#1f77b4;stroke:#1f77b4;" x="191.147458" xlink:href="#m5bc20f90ff" y="234.576476"/>
     <use style="fill:#1f77b4;stroke:#1f77b4;" x="195.341812" xlink:href="#m5bc20f90ff" y="225.538383"/>
     <use style="fill:#1f77b4;stroke:#1f77b4;" x="199.536166" xlink:href="#m5bc20f90ff" y="217.169779"/>
     <use style="fill:#1f77b4;stroke:#1f77b4;" x="203.73052" xlink:href="#m5bc20f90ff" y="205.16681"/>
     <use style="fill:#1f77b4;stroke:#1f77b4;" x="207.924874" xlink:href="#m5bc20f90ff" y="191.777043"/>
     <use style="fill:#1f77b4;stroke:#1f77b4;" x="212.119228" xlink:href="#m5bc20f90ff" y="179.582791"/>
     <use style="fill:#1f77b4;stroke:#1f77b4;" x="216.313583" xlink:href="#m5bc20f90ff" y="167.149436"/>
     <use style="fill:#1f77b4;stroke:#1f77b4;" x="220.507937" xlink:href="#m5bc20f90ff" y="155.242108"/>
     <use style="fill:#1f77b4;stroke:#1f77b4;" x="224.702291" xlink:href="#m5bc20f90ff" y="147.256069"/>
     <use style="fill:#1f77b4;stroke:#1f77b4;" x="228.896645" xlink:href="#m5bc20f90ff" y="140.513365"/>
     <use style="fill:#1f77b4;stroke:#1f77b4;" x="233.090999" xlink:href="#m5bc20f90ff" y="131.092708"/>
     <use style="fill:#1f77b4;stroke:#1f77b4;" x="237.285353" xlink:href="#m5bc20f90ff" y="124.302183"/>
     <use style="fill:#1f77b4;stroke:#1f77b4;" x="241.479707" xlink:href="#m5bc20f90ff" y="117.798582"/>
     <use style="fill:#1f77b4;stroke:#1f77b4;" x="245.674062" xlink:href="#m5bc20f90ff" y="112.873061"/>
     <use style="fill:#1f77b4;stroke:#1f77b4;" x="249.868416" xlink:href="#m5bc20f90ff" y="109.62126"/>
     <use style="fill:#1f77b4;stroke:#1f77b4;" x="254.06277" xlink:href="#m5bc20f90ff" y="106.752025"/>
     <use style="fill:#1f77b4;stroke:#1f77b4;" x="258.257124" xlink:href="#m5bc20f90ff" y="104.456636"/>
     <use style="fill:#1f77b4;stroke:#1f77b4;" x="262.451478" xlink:href="#m5bc20f90ff" y="103.022018"/>
     <use style="fill:#1f77b4;stroke:#1f77b4;" x="266.645832" xlink:href="#m5bc20f90ff" y="102.304709"/>
     <use style="fill:#1f77b4;stroke:#1f77b4;" x="270.840186" xlink:href="#m5bc20f90ff" y="97.427008"/>
     <use style="fill:#1f77b4;stroke:#1f77b4;" x="275.034541" xlink:href="#m5bc20f90ff" y="89.201866"/>
     <use style="fill:#1f77b4;stroke:#1f77b4;" x="279.228895" xlink:href="#m5bc20f90ff" y="82.26788"/>
     <use style="fill:#1f77b4;stroke:#1f77b4;" x="283.423249" xlink:href="#m5bc20f90ff" y="81.45493"/>
     <use style="fill:#1f77b4;stroke:#1f77b4;" x="287.617603" xlink:href="#m5bc20f90ff" y="75.716458"/>
     <use style="fill:#1f77b4;stroke:#1f77b4;" x="291.811957" xlink:href="#m5bc20f90ff" y="69.595422"/>
     <use style="fill:#1f77b4;stroke:#1f77b4;" x="296.006311" xlink:href="#m5bc20f90ff" y="66.343621"/>
     <use style="fill:#1f77b4;stroke:#1f77b4;" x="300.200665" xlink:href="#m5bc20f90ff" y="63.522206"/>
     <use style="fill:#1f77b4;stroke:#1f77b4;" x="304.39502" xlink:href="#m5bc20f90ff" y="59.648738"/>
     <use style="fill:#1f77b4;stroke:#1f77b4;" x="308.589374" xlink:href="#m5bc20f90ff" y="54.723217"/>
     <use style="fill:#1f77b4;stroke:#1f77b4;" x="312.783728" xlink:href="#m5bc20f90ff" y="51.232313"/>
     <use style="fill:#1f77b4;stroke:#1f77b4;" x="316.978082" xlink:href="#m5bc20f90ff" y="49.032566"/>
     <use style="fill:#1f77b4;stroke:#1f77b4;" x="321.172436" xlink:href="#m5bc20f90ff" y="47.167563"/>
     <use style="fill:#1f77b4;stroke:#1f77b4;" x="325.36679" xlink:href="#m5bc20f90ff" y="45.732945"/>
     <use style="fill:#1f77b4;stroke:#1f77b4;" x="329.561144" xlink:href="#m5bc20f90ff" y="44.728712"/>
     <use style="fill:#1f77b4;stroke:#1f77b4;" x="333.755499" xlink:href="#m5bc20f90ff" y="43.389736"/>
     <use style="fill:#1f77b4;stroke:#1f77b4;" x="337.949853" xlink:href="#m5bc20f90ff" y="41.811656"/>
     <use style="fill:#1f77b4;stroke:#1f77b4;" x="342.144207" xlink:href="#m5bc20f90ff" y="40.137935"/>
     <use style="fill:#1f77b4;stroke:#1f77b4;" x="346.338561" xlink:href="#m5bc20f90ff" y="39.229344"/>
     <use style="fill:#1f77b4;stroke:#1f77b4;" x="350.532915" xlink:href="#m5bc20f90ff" y="38.559856"/>
     <use style="fill:#1f77b4;stroke:#1f77b4;" x="354.727269" xlink:href="#m5bc20f90ff" y="37.31652"/>
     <use style="fill:#1f77b4;stroke:#1f77b4;" x="358.921623" xlink:href="#m5bc20f90ff" y="36.168826"/>
     <use style="fill:#1f77b4;stroke:#1f77b4;" x="363.115978" xlink:href="#m5bc20f90ff" y="34.734208"/>
     <use style="fill:#1f77b4;stroke:#1f77b4;" x="367.310332" xlink:href="#m5bc20f90ff" y="33.443052"/>
     <use style="fill:#1f77b4;stroke:#1f77b4;" x="371.504686" xlink:href="#m5bc20f90ff" y="32.104075"/>
     <use style="fill:#1f77b4;stroke:#1f77b4;" x="375.69904" xlink:href="#m5bc20f90ff" y="31.004202"/>
     <use style="fill:#1f77b4;stroke:#1f77b4;" x="379.893394" xlink:href="#m5bc20f90ff" y="30.525996"/>
     <use style="fill:#1f77b4;stroke:#1f77b4;" x="384.087748" xlink:href="#m5bc20f90ff" y="29.999969"/>
     <use style="fill:#1f77b4;stroke:#1f77b4;" x="388.282103" xlink:href="#m5bc20f90ff" y="28.708813"/>
     <use style="fill:#1f77b4;stroke:#1f77b4;" x="392.476457" xlink:href="#m5bc20f90ff" y="27.035092"/>
     <use style="fill:#1f77b4;stroke:#1f77b4;" x="396.670811" xlink:href="#m5bc20f90ff" y="25.600474"/>
     <use style="fill:#1f77b4;stroke:#1f77b4;" x="400.865165" xlink:href="#m5bc20f90ff" y="23.831112"/>
     <use style="fill:#1f77b4;stroke:#1f77b4;" x="405.059519" xlink:href="#m5bc20f90ff" y="23.783292"/>
     <use style="fill:#1f77b4;stroke:#1f77b4;" x="409.253873" xlink:href="#m5bc20f90ff" y="23.544189"/>
    </g>
   </g>
   <g id="patch_3">
    <path d="M 56.928125 279.86258 
L 56.928125 10.8 
" style="fill:none;stroke:#000000;stroke-linecap:square;stroke-linejoin:miter;stroke-width:0.8;"/>
   </g>
   <g id="patch_4">
    <path d="M 426.03129 279.86258 
L 426.03129 10.8 
" style="fill:none;stroke:#000000;stroke-linecap:square;stroke-linejoin:miter;stroke-width:0.8;"/>
   </g>
   <g id="patch_5">
    <path d="M 56.928125 279.86258 
L 426.03129 279.86258 
" style="fill:none;stroke:#000000;stroke-linecap:square;stroke-linejoin:miter;stroke-width:0.8;"/>
   </g>
   <g id="patch_6">
    <path d="M 56.928125 10.8 
L 426.03129 10.8 
" style="fill:none;stroke:#000000;stroke-linecap:square;stroke-linejoin:miter;stroke-width:0.8;"/>
   </g>
  </g>
 </g>
 <defs>
  <clipPath id="pe21190254b">
   <rect height="269.06258" width="369.103165" x="56.928125" y="10.8"/>
  </clipPath>
 </defs>
</svg>
