<?xml version="1.0" encoding="utf-8" standalone="no"?>
<!DOCTYPE svg PUBLIC "-//W3C//DTD SVG 1.1//EN"
  "http://www.w3.org/Graphics/SVG/1.1/DTD/svg11.dtd">
<!-- Created with matplotlib (https://matplotlib.org/) -->
<svg height="345.6pt" version="1.1" viewBox="0 0 460.8 345.6" width="460.8pt" xmlns="http://www.w3.org/2000/svg" xmlns:xlink="http://www.w3.org/1999/xlink">
 <defs>
  <style type="text/css">
*{stroke-linecap:butt;stroke-linejoin:round;}
  </style>
 </defs>
 <g id="figure_1">
  <g id="patch_1">
   <path d="M 0 345.6 
L 460.8 345.6 
L 460.8 0 
L 0 0 
z
" style="fill:#ffffff;"/>
  </g>
  <g id="axes_1">
   <g id="patch_2">
    <path d="M 44.603125 279.86258 
L 426.03129 279.86258 
L 426.03129 10.8 
L 44.603125 10.8 
z
" style="fill:#ffffff;"/>
   </g>
   <g id="matplotlib.axis_1">
    <g id="xtick_1">
     <g id="line2d_1">
      <defs>
       <path d="M 0 0 
L 0 3.5 
" id="mcbb3869331" style="stroke:#000000;stroke-width:0.8;"/>
      </defs>
      <g>
       <use style="stroke:#000000;stroke-width:0.8;" x="73.499198" xlink:href="#mcbb3869331" y="279.86258"/>
      </g>
     </g>
     <g id="text_1">
      <!-- 2020-03-15 -->
      <defs>
       <path d="M 19.1875 8.296875 
L 53.609375 8.296875 
L 53.609375 0 
L 7.328125 0 
L 7.328125 8.296875 
Q 12.9375 14.109375 22.625 23.890625 
Q 32.328125 33.6875 34.8125 36.53125 
Q 39.546875 41.84375 41.421875 45.53125 
Q 43.3125 49.21875 43.3125 52.78125 
Q 43.3125 58.59375 39.234375 62.25 
Q 35.15625 65.921875 28.609375 65.921875 
Q 23.96875 65.921875 18.8125 64.3125 
Q 13.671875 62.703125 7.8125 59.421875 
L 7.8125 69.390625 
Q 13.765625 71.78125 18.9375 73 
Q 24.125 74.21875 28.421875 74.21875 
Q 39.75 74.21875 46.484375 68.546875 
Q 53.21875 62.890625 53.21875 53.421875 
Q 53.21875 48.921875 51.53125 44.890625 
Q 49.859375 40.875 45.40625 35.40625 
Q 44.1875 33.984375 37.640625 27.21875 
Q 31.109375 20.453125 19.1875 8.296875 
z
" id="DejaVuSans-50"/>
       <path d="M 31.78125 66.40625 
Q 24.171875 66.40625 20.328125 58.90625 
Q 16.5 51.421875 16.5 36.375 
Q 16.5 21.390625 20.328125 13.890625 
Q 24.171875 6.390625 31.78125 6.390625 
Q 39.453125 6.390625 43.28125 13.890625 
Q 47.125 21.390625 47.125 36.375 
Q 47.125 51.421875 43.28125 58.90625 
Q 39.453125 66.40625 31.78125 66.40625 
z
M 31.78125 74.21875 
Q 44.046875 74.21875 50.515625 64.515625 
Q 56.984375 54.828125 56.984375 36.375 
Q 56.984375 17.96875 50.515625 8.265625 
Q 44.046875 -1.421875 31.78125 -1.421875 
Q 19.53125 -1.421875 13.0625 8.265625 
Q 6.59375 17.96875 6.59375 36.375 
Q 6.59375 54.828125 13.0625 64.515625 
Q 19.53125 74.21875 31.78125 74.21875 
z
" id="DejaVuSans-48"/>
       <path d="M 4.890625 31.390625 
L 31.203125 31.390625 
L 31.203125 23.390625 
L 4.890625 23.390625 
z
" id="DejaVuSans-45"/>
       <path d="M 40.578125 39.3125 
Q 47.65625 37.796875 51.625 33 
Q 55.609375 28.21875 55.609375 21.1875 
Q 55.609375 10.40625 48.1875 4.484375 
Q 40.765625 -1.421875 27.09375 -1.421875 
Q 22.515625 -1.421875 17.65625 -0.515625 
Q 12.796875 0.390625 7.625 2.203125 
L 7.625 11.71875 
Q 11.71875 9.328125 16.59375 8.109375 
Q 21.484375 6.890625 26.8125 6.890625 
Q 36.078125 6.890625 40.9375 10.546875 
Q 45.796875 14.203125 45.796875 21.1875 
Q 45.796875 27.640625 41.28125 31.265625 
Q 36.765625 34.90625 28.71875 34.90625 
L 20.21875 34.90625 
L 20.21875 43.015625 
L 29.109375 43.015625 
Q 36.375 43.015625 40.234375 45.921875 
Q 44.09375 48.828125 44.09375 54.296875 
Q 44.09375 59.90625 40.109375 62.90625 
Q 36.140625 65.921875 28.71875 65.921875 
Q 24.65625 65.921875 20.015625 65.03125 
Q 15.375 64.15625 9.8125 62.3125 
L 9.8125 71.09375 
Q 15.4375 72.65625 20.34375 73.4375 
Q 25.25 74.21875 29.59375 74.21875 
Q 40.828125 74.21875 47.359375 69.109375 
Q 53.90625 64.015625 53.90625 55.328125 
Q 53.90625 49.265625 50.4375 45.09375 
Q 46.96875 40.921875 40.578125 39.3125 
z
" id="DejaVuSans-51"/>
       <path d="M 12.40625 8.296875 
L 28.515625 8.296875 
L 28.515625 63.921875 
L 10.984375 60.40625 
L 10.984375 69.390625 
L 28.421875 72.90625 
L 38.28125 72.90625 
L 38.28125 8.296875 
L 54.390625 8.296875 
L 54.390625 0 
L 12.40625 0 
z
" id="DejaVuSans-49"/>
       <path d="M 10.796875 72.90625 
L 49.515625 72.90625 
L 49.515625 64.59375 
L 19.828125 64.59375 
L 19.828125 46.734375 
Q 21.96875 47.46875 24.109375 47.828125 
Q 26.265625 48.1875 28.421875 48.1875 
Q 40.625 48.1875 47.75 41.5 
Q 54.890625 34.8125 54.890625 23.390625 
Q 54.890625 11.625 47.5625 5.09375 
Q 40.234375 -1.421875 26.90625 -1.421875 
Q 22.3125 -1.421875 17.546875 -0.640625 
Q 12.796875 0.140625 7.71875 1.703125 
L 7.71875 11.625 
Q 12.109375 9.234375 16.796875 8.0625 
Q 21.484375 6.890625 26.703125 6.890625 
Q 35.15625 6.890625 40.078125 11.328125 
Q 45.015625 15.765625 45.015625 23.390625 
Q 45.015625 31 40.078125 35.4375 
Q 35.15625 39.890625 26.703125 39.890625 
Q 22.75 39.890625 18.8125 39.015625 
Q 14.890625 38.140625 10.796875 36.28125 
z
" id="DejaVuSans-53"/>
      </defs>
      <g transform="translate(54.903395 333.329439)rotate(-45)scale(0.1 -0.1)">
       <use xlink:href="#DejaVuSans-50"/>
       <use x="63.623047" xlink:href="#DejaVuSans-48"/>
       <use x="127.246094" xlink:href="#DejaVuSans-50"/>
       <use x="190.869141" xlink:href="#DejaVuSans-48"/>
       <use x="254.492188" xlink:href="#DejaVuSans-45"/>
       <use x="290.576172" xlink:href="#DejaVuSans-48"/>
       <use x="354.199219" xlink:href="#DejaVuSans-51"/>
       <use x="417.822266" xlink:href="#DejaVuSans-45"/>
       <use x="453.90625" xlink:href="#DejaVuSans-49"/>
       <use x="517.529297" xlink:href="#DejaVuSans-53"/>
      </g>
     </g>
    </g>
    <g id="xtick_2">
     <g id="line2d_2">
      <g>
       <use style="stroke:#000000;stroke-width:0.8;" x="113.9537" xlink:href="#mcbb3869331" y="279.86258"/>
      </g>
     </g>
     <g id="text_2">
      <!-- 2020-03-22 -->
      <g transform="translate(95.357897 333.329439)rotate(-45)scale(0.1 -0.1)">
       <use xlink:href="#DejaVuSans-50"/>
       <use x="63.623047" xlink:href="#DejaVuSans-48"/>
       <use x="127.246094" xlink:href="#DejaVuSans-50"/>
       <use x="190.869141" xlink:href="#DejaVuSans-48"/>
       <use x="254.492188" xlink:href="#DejaVuSans-45"/>
       <use x="290.576172" xlink:href="#DejaVuSans-48"/>
       <use x="354.199219" xlink:href="#DejaVuSans-51"/>
       <use x="417.822266" xlink:href="#DejaVuSans-45"/>
       <use x="453.90625" xlink:href="#DejaVuSans-50"/>
       <use x="517.529297" xlink:href="#DejaVuSans-50"/>
      </g>
     </g>
    </g>
    <g id="xtick_3">
     <g id="line2d_3">
      <g>
       <use style="stroke:#000000;stroke-width:0.8;" x="171.745847" xlink:href="#mcbb3869331" y="279.86258"/>
      </g>
     </g>
     <g id="text_3">
      <!-- 2020-04-01 -->
      <defs>
       <path d="M 37.796875 64.3125 
L 12.890625 25.390625 
L 37.796875 25.390625 
z
M 35.203125 72.90625 
L 47.609375 72.90625 
L 47.609375 25.390625 
L 58.015625 25.390625 
L 58.015625 17.1875 
L 47.609375 17.1875 
L 47.609375 0 
L 37.796875 0 
L 37.796875 17.1875 
L 4.890625 17.1875 
L 4.890625 26.703125 
z
" id="DejaVuSans-52"/>
      </defs>
      <g transform="translate(153.150043 333.329439)rotate(-45)scale(0.1 -0.1)">
       <use xlink:href="#DejaVuSans-50"/>
       <use x="63.623047" xlink:href="#DejaVuSans-48"/>
       <use x="127.246094" xlink:href="#DejaVuSans-50"/>
       <use x="190.869141" xlink:href="#DejaVuSans-48"/>
       <use x="254.492188" xlink:href="#DejaVuSans-45"/>
       <use x="290.576172" xlink:href="#DejaVuSans-48"/>
       <use x="354.199219" xlink:href="#DejaVuSans-52"/>
       <use x="417.822266" xlink:href="#DejaVuSans-45"/>
       <use x="453.90625" xlink:href="#DejaVuSans-48"/>
       <use x="517.529297" xlink:href="#DejaVuSans-49"/>
      </g>
     </g>
    </g>
    <g id="xtick_4">
     <g id="line2d_4">
      <g>
       <use style="stroke:#000000;stroke-width:0.8;" x="212.200349" xlink:href="#mcbb3869331" y="279.86258"/>
      </g>
     </g>
     <g id="text_4">
      <!-- 2020-04-08 -->
      <defs>
       <path d="M 31.78125 34.625 
Q 24.75 34.625 20.71875 30.859375 
Q 16.703125 27.09375 16.703125 20.515625 
Q 16.703125 13.921875 20.71875 10.15625 
Q 24.75 6.390625 31.78125 6.390625 
Q 38.8125 6.390625 42.859375 10.171875 
Q 46.921875 13.96875 46.921875 20.515625 
Q 46.921875 27.09375 42.890625 30.859375 
Q 38.875 34.625 31.78125 34.625 
z
M 21.921875 38.8125 
Q 15.578125 40.375 12.03125 44.71875 
Q 8.5 49.078125 8.5 55.328125 
Q 8.5 64.0625 14.71875 69.140625 
Q 20.953125 74.21875 31.78125 74.21875 
Q 42.671875 74.21875 48.875 69.140625 
Q 55.078125 64.0625 55.078125 55.328125 
Q 55.078125 49.078125 51.53125 44.71875 
Q 48 40.375 41.703125 38.8125 
Q 48.828125 37.15625 52.796875 32.3125 
Q 56.78125 27.484375 56.78125 20.515625 
Q 56.78125 9.90625 50.3125 4.234375 
Q 43.84375 -1.421875 31.78125 -1.421875 
Q 19.734375 -1.421875 13.25 4.234375 
Q 6.78125 9.90625 6.78125 20.515625 
Q 6.78125 27.484375 10.78125 32.3125 
Q 14.796875 37.15625 21.921875 38.8125 
z
M 18.3125 54.390625 
Q 18.3125 48.734375 21.84375 45.5625 
Q 25.390625 42.390625 31.78125 42.390625 
Q 38.140625 42.390625 41.71875 45.5625 
Q 45.3125 48.734375 45.3125 54.390625 
Q 45.3125 60.0625 41.71875 63.234375 
Q 38.140625 66.40625 31.78125 66.40625 
Q 25.390625 66.40625 21.84375 63.234375 
Q 18.3125 60.0625 18.3125 54.390625 
z
" id="DejaVuSans-56"/>
      </defs>
      <g transform="translate(193.604545 333.329439)rotate(-45)scale(0.1 -0.1)">
       <use xlink:href="#DejaVuSans-50"/>
       <use x="63.623047" xlink:href="#DejaVuSans-48"/>
       <use x="127.246094" xlink:href="#DejaVuSans-50"/>
       <use x="190.869141" xlink:href="#DejaVuSans-48"/>
       <use x="254.492188" xlink:href="#DejaVuSans-45"/>
       <use x="290.576172" xlink:href="#DejaVuSans-48"/>
       <use x="354.199219" xlink:href="#DejaVuSans-52"/>
       <use x="417.822266" xlink:href="#DejaVuSans-45"/>
       <use x="453.90625" xlink:href="#DejaVuSans-48"/>
       <use x="517.529297" xlink:href="#DejaVuSans-56"/>
      </g>
     </g>
    </g>
    <g id="xtick_5">
     <g id="line2d_5">
      <g>
       <use style="stroke:#000000;stroke-width:0.8;" x="252.654851" xlink:href="#mcbb3869331" y="279.86258"/>
      </g>
     </g>
     <g id="text_5">
      <!-- 2020-04-15 -->
      <g transform="translate(234.059048 333.329439)rotate(-45)scale(0.1 -0.1)">
       <use xlink:href="#DejaVuSans-50"/>
       <use x="63.623047" xlink:href="#DejaVuSans-48"/>
       <use x="127.246094" xlink:href="#DejaVuSans-50"/>
       <use x="190.869141" xlink:href="#DejaVuSans-48"/>
       <use x="254.492188" xlink:href="#DejaVuSans-45"/>
       <use x="290.576172" xlink:href="#DejaVuSans-48"/>
       <use x="354.199219" xlink:href="#DejaVuSans-52"/>
       <use x="417.822266" xlink:href="#DejaVuSans-45"/>
       <use x="453.90625" xlink:href="#DejaVuSans-49"/>
       <use x="517.529297" xlink:href="#DejaVuSans-53"/>
      </g>
     </g>
    </g>
    <g id="xtick_6">
     <g id="line2d_6">
      <g>
       <use style="stroke:#000000;stroke-width:0.8;" x="293.109354" xlink:href="#mcbb3869331" y="279.86258"/>
      </g>
     </g>
     <g id="text_6">
      <!-- 2020-04-22 -->
      <g transform="translate(274.51355 333.329439)rotate(-45)scale(0.1 -0.1)">
       <use xlink:href="#DejaVuSans-50"/>
       <use x="63.623047" xlink:href="#DejaVuSans-48"/>
       <use x="127.246094" xlink:href="#DejaVuSans-50"/>
       <use x="190.869141" xlink:href="#DejaVuSans-48"/>
       <use x="254.492188" xlink:href="#DejaVuSans-45"/>
       <use x="290.576172" xlink:href="#DejaVuSans-48"/>
       <use x="354.199219" xlink:href="#DejaVuSans-52"/>
       <use x="417.822266" xlink:href="#DejaVuSans-45"/>
       <use x="453.90625" xlink:href="#DejaVuSans-50"/>
       <use x="517.529297" xlink:href="#DejaVuSans-50"/>
      </g>
     </g>
    </g>
    <g id="xtick_7">
     <g id="line2d_7">
      <g>
       <use style="stroke:#000000;stroke-width:0.8;" x="345.122285" xlink:href="#mcbb3869331" y="279.86258"/>
      </g>
     </g>
     <g id="text_7">
      <!-- 2020-05-01 -->
      <g transform="translate(326.526482 333.329439)rotate(-45)scale(0.1 -0.1)">
       <use xlink:href="#DejaVuSans-50"/>
       <use x="63.623047" xlink:href="#DejaVuSans-48"/>
       <use x="127.246094" xlink:href="#DejaVuSans-50"/>
       <use x="190.869141" xlink:href="#DejaVuSans-48"/>
       <use x="254.492188" xlink:href="#DejaVuSans-45"/>
       <use x="290.576172" xlink:href="#DejaVuSans-48"/>
       <use x="354.199219" xlink:href="#DejaVuSans-53"/>
       <use x="417.822266" xlink:href="#DejaVuSans-45"/>
       <use x="453.90625" xlink:href="#DejaVuSans-48"/>
       <use x="517.529297" xlink:href="#DejaVuSans-49"/>
      </g>
     </g>
    </g>
    <g id="xtick_8">
     <g id="line2d_8">
      <g>
       <use style="stroke:#000000;stroke-width:0.8;" x="385.576787" xlink:href="#mcbb3869331" y="279.86258"/>
      </g>
     </g>
     <g id="text_8">
      <!-- 2020-05-08 -->
      <g transform="translate(366.980984 333.329439)rotate(-45)scale(0.1 -0.1)">
       <use xlink:href="#DejaVuSans-50"/>
       <use x="63.623047" xlink:href="#DejaVuSans-48"/>
       <use x="127.246094" xlink:href="#DejaVuSans-50"/>
       <use x="190.869141" xlink:href="#DejaVuSans-48"/>
       <use x="254.492188" xlink:href="#DejaVuSans-45"/>
       <use x="290.576172" xlink:href="#DejaVuSans-48"/>
       <use x="354.199219" xlink:href="#DejaVuSans-53"/>
       <use x="417.822266" xlink:href="#DejaVuSans-45"/>
       <use x="453.90625" xlink:href="#DejaVuSans-48"/>
       <use x="517.529297" xlink:href="#DejaVuSans-56"/>
      </g>
     </g>
    </g>
    <g id="xtick_9">
     <g id="line2d_9">
      <g>
       <use style="stroke:#000000;stroke-width:0.8;" x="426.03129" xlink:href="#mcbb3869331" y="279.86258"/>
      </g>
     </g>
     <g id="text_9">
      <!-- 2020-05-15 -->
      <g transform="translate(407.435486 333.329439)rotate(-45)scale(0.1 -0.1)">
       <use xlink:href="#DejaVuSans-50"/>
       <use x="63.623047" xlink:href="#DejaVuSans-48"/>
       <use x="127.246094" xlink:href="#DejaVuSans-50"/>
       <use x="190.869141" xlink:href="#DejaVuSans-48"/>
       <use x="254.492188" xlink:href="#DejaVuSans-45"/>
       <use x="290.576172" xlink:href="#DejaVuSans-48"/>
       <use x="354.199219" xlink:href="#DejaVuSans-53"/>
       <use x="417.822266" xlink:href="#DejaVuSans-45"/>
       <use x="453.90625" xlink:href="#DejaVuSans-49"/>
       <use x="517.529297" xlink:href="#DejaVuSans-53"/>
      </g>
     </g>
    </g>
   </g>
   <g id="matplotlib.axis_2">
    <g id="ytick_1">
     <g id="line2d_10">
      <defs>
       <path d="M 0 0 
L -3.5 0 
" id="m63048666a7" style="stroke:#000000;stroke-width:0.8;"/>
      </defs>
      <g>
       <use style="stroke:#000000;stroke-width:0.8;" x="44.603125" xlink:href="#m63048666a7" y="279.86258"/>
      </g>
     </g>
     <g id="text_10">
      <!-- 0 -->
      <g transform="translate(31.240625 283.661798)scale(0.1 -0.1)">
       <use xlink:href="#DejaVuSans-48"/>
      </g>
     </g>
    </g>
    <g id="ytick_2">
     <g id="line2d_11">
      <g>
       <use style="stroke:#000000;stroke-width:0.8;" x="44.603125" xlink:href="#m63048666a7" y="239.116101"/>
      </g>
     </g>
     <g id="text_11">
      <!-- 10 -->
      <g transform="translate(24.878125 242.91532)scale(0.1 -0.1)">
       <use xlink:href="#DejaVuSans-49"/>
       <use x="63.623047" xlink:href="#DejaVuSans-48"/>
      </g>
     </g>
    </g>
    <g id="ytick_3">
     <g id="line2d_12">
      <g>
       <use style="stroke:#000000;stroke-width:0.8;" x="44.603125" xlink:href="#m63048666a7" y="198.369623"/>
      </g>
     </g>
     <g id="text_12">
      <!-- 20 -->
      <g transform="translate(24.878125 202.168841)scale(0.1 -0.1)">
       <use xlink:href="#DejaVuSans-50"/>
       <use x="63.623047" xlink:href="#DejaVuSans-48"/>
      </g>
     </g>
    </g>
    <g id="ytick_4">
     <g id="line2d_13">
      <g>
       <use style="stroke:#000000;stroke-width:0.8;" x="44.603125" xlink:href="#m63048666a7" y="157.623144"/>
      </g>
     </g>
     <g id="text_13">
      <!-- 30 -->
      <g transform="translate(24.878125 161.422363)scale(0.1 -0.1)">
       <use xlink:href="#DejaVuSans-51"/>
       <use x="63.623047" xlink:href="#DejaVuSans-48"/>
      </g>
     </g>
    </g>
    <g id="ytick_5">
     <g id="line2d_14">
      <g>
       <use style="stroke:#000000;stroke-width:0.8;" x="44.603125" xlink:href="#m63048666a7" y="116.876666"/>
      </g>
     </g>
     <g id="text_14">
      <!-- 40 -->
      <g transform="translate(24.878125 120.675884)scale(0.1 -0.1)">
       <use xlink:href="#DejaVuSans-52"/>
       <use x="63.623047" xlink:href="#DejaVuSans-48"/>
      </g>
     </g>
    </g>
    <g id="ytick_6">
     <g id="line2d_15">
      <g>
       <use style="stroke:#000000;stroke-width:0.8;" x="44.603125" xlink:href="#m63048666a7" y="76.130187"/>
      </g>
     </g>
     <g id="text_15">
      <!-- 50 -->
      <g transform="translate(24.878125 79.929406)scale(0.1 -0.1)">
       <use xlink:href="#DejaVuSans-53"/>
       <use x="63.623047" xlink:href="#DejaVuSans-48"/>
      </g>
     </g>
    </g>
    <g id="ytick_7">
     <g id="line2d_16">
      <g>
       <use style="stroke:#000000;stroke-width:0.8;" x="44.603125" xlink:href="#m63048666a7" y="35.383709"/>
      </g>
     </g>
     <g id="text_16">
      <!-- 60 -->
      <defs>
       <path d="M 33.015625 40.375 
Q 26.375 40.375 22.484375 35.828125 
Q 18.609375 31.296875 18.609375 23.390625 
Q 18.609375 15.53125 22.484375 10.953125 
Q 26.375 6.390625 33.015625 6.390625 
Q 39.65625 6.390625 43.53125 10.953125 
Q 47.40625 15.53125 47.40625 23.390625 
Q 47.40625 31.296875 43.53125 35.828125 
Q 39.65625 40.375 33.015625 40.375 
z
M 52.59375 71.296875 
L 52.59375 62.3125 
Q 48.875 64.0625 45.09375 64.984375 
Q 41.3125 65.921875 37.59375 65.921875 
Q 27.828125 65.921875 22.671875 59.328125 
Q 17.53125 52.734375 16.796875 39.40625 
Q 19.671875 43.65625 24.015625 45.921875 
Q 28.375 48.1875 33.59375 48.1875 
Q 44.578125 48.1875 50.953125 41.515625 
Q 57.328125 34.859375 57.328125 23.390625 
Q 57.328125 12.15625 50.6875 5.359375 
Q 44.046875 -1.421875 33.015625 -1.421875 
Q 20.359375 -1.421875 13.671875 8.265625 
Q 6.984375 17.96875 6.984375 36.375 
Q 6.984375 53.65625 15.1875 63.9375 
Q 23.390625 74.21875 37.203125 74.21875 
Q 40.921875 74.21875 44.703125 73.484375 
Q 48.484375 72.75 52.59375 71.296875 
z
" id="DejaVuSans-54"/>
      </defs>
      <g transform="translate(24.878125 39.182927)scale(0.1 -0.1)">
       <use xlink:href="#DejaVuSans-54"/>
       <use x="63.623047" xlink:href="#DejaVuSans-48"/>
      </g>
     </g>
    </g>
    <g id="text_17">
     <!-- IB hospitalizados (Media 3 días) -->
     <defs>
      <path d="M 9.8125 72.90625 
L 19.671875 72.90625 
L 19.671875 0 
L 9.8125 0 
z
" id="DejaVuSans-73"/>
      <path d="M 19.671875 34.8125 
L 19.671875 8.109375 
L 35.5 8.109375 
Q 43.453125 8.109375 47.28125 11.40625 
Q 51.125 14.703125 51.125 21.484375 
Q 51.125 28.328125 47.28125 31.5625 
Q 43.453125 34.8125 35.5 34.8125 
z
M 19.671875 64.796875 
L 19.671875 42.828125 
L 34.28125 42.828125 
Q 41.5 42.828125 45.03125 45.53125 
Q 48.578125 48.25 48.578125 53.8125 
Q 48.578125 59.328125 45.03125 62.0625 
Q 41.5 64.796875 34.28125 64.796875 
z
M 9.8125 72.90625 
L 35.015625 72.90625 
Q 46.296875 72.90625 52.390625 68.21875 
Q 58.5 63.53125 58.5 54.890625 
Q 58.5 48.1875 55.375 44.234375 
Q 52.25 40.28125 46.1875 39.3125 
Q 53.46875 37.75 57.5 32.78125 
Q 61.53125 27.828125 61.53125 20.40625 
Q 61.53125 10.640625 54.890625 5.3125 
Q 48.25 0 35.984375 0 
L 9.8125 0 
z
" id="DejaVuSans-66"/>
      <path id="DejaVuSans-32"/>
      <path d="M 54.890625 33.015625 
L 54.890625 0 
L 45.90625 0 
L 45.90625 32.71875 
Q 45.90625 40.484375 42.875 44.328125 
Q 39.84375 48.1875 33.796875 48.1875 
Q 26.515625 48.1875 22.3125 43.546875 
Q 18.109375 38.921875 18.109375 30.90625 
L 18.109375 0 
L 9.078125 0 
L 9.078125 75.984375 
L 18.109375 75.984375 
L 18.109375 46.1875 
Q 21.34375 51.125 25.703125 53.5625 
Q 30.078125 56 35.796875 56 
Q 45.21875 56 50.046875 50.171875 
Q 54.890625 44.34375 54.890625 33.015625 
z
" id="DejaVuSans-104"/>
      <path d="M 30.609375 48.390625 
Q 23.390625 48.390625 19.1875 42.75 
Q 14.984375 37.109375 14.984375 27.296875 
Q 14.984375 17.484375 19.15625 11.84375 
Q 23.34375 6.203125 30.609375 6.203125 
Q 37.796875 6.203125 41.984375 11.859375 
Q 46.1875 17.53125 46.1875 27.296875 
Q 46.1875 37.015625 41.984375 42.703125 
Q 37.796875 48.390625 30.609375 48.390625 
z
M 30.609375 56 
Q 42.328125 56 49.015625 48.375 
Q 55.71875 40.765625 55.71875 27.296875 
Q 55.71875 13.875 49.015625 6.21875 
Q 42.328125 -1.421875 30.609375 -1.421875 
Q 18.84375 -1.421875 12.171875 6.21875 
Q 5.515625 13.875 5.515625 27.296875 
Q 5.515625 40.765625 12.171875 48.375 
Q 18.84375 56 30.609375 56 
z
" id="DejaVuSans-111"/>
      <path d="M 44.28125 53.078125 
L 44.28125 44.578125 
Q 40.484375 46.53125 36.375 47.5 
Q 32.28125 48.484375 27.875 48.484375 
Q 21.1875 48.484375 17.84375 46.4375 
Q 14.5 44.390625 14.5 40.28125 
Q 14.5 37.15625 16.890625 35.375 
Q 19.28125 33.59375 26.515625 31.984375 
L 29.59375 31.296875 
Q 39.15625 29.25 43.1875 25.515625 
Q 47.21875 21.78125 47.21875 15.09375 
Q 47.21875 7.46875 41.1875 3.015625 
Q 35.15625 -1.421875 24.609375 -1.421875 
Q 20.21875 -1.421875 15.453125 -0.5625 
Q 10.6875 0.296875 5.421875 2 
L 5.421875 11.28125 
Q 10.40625 8.6875 15.234375 7.390625 
Q 20.0625 6.109375 24.8125 6.109375 
Q 31.15625 6.109375 34.5625 8.28125 
Q 37.984375 10.453125 37.984375 14.40625 
Q 37.984375 18.0625 35.515625 20.015625 
Q 33.0625 21.96875 24.703125 23.78125 
L 21.578125 24.515625 
Q 13.234375 26.265625 9.515625 29.90625 
Q 5.8125 33.546875 5.8125 39.890625 
Q 5.8125 47.609375 11.28125 51.796875 
Q 16.75 56 26.8125 56 
Q 31.78125 56 36.171875 55.265625 
Q 40.578125 54.546875 44.28125 53.078125 
z
" id="DejaVuSans-115"/>
      <path d="M 18.109375 8.203125 
L 18.109375 -20.796875 
L 9.078125 -20.796875 
L 9.078125 54.6875 
L 18.109375 54.6875 
L 18.109375 46.390625 
Q 20.953125 51.265625 25.265625 53.625 
Q 29.59375 56 35.59375 56 
Q 45.5625 56 51.78125 48.09375 
Q 58.015625 40.1875 58.015625 27.296875 
Q 58.015625 14.40625 51.78125 6.484375 
Q 45.5625 -1.421875 35.59375 -1.421875 
Q 29.59375 -1.421875 25.265625 0.953125 
Q 20.953125 3.328125 18.109375 8.203125 
z
M 48.6875 27.296875 
Q 48.6875 37.203125 44.609375 42.84375 
Q 40.53125 48.484375 33.40625 48.484375 
Q 26.265625 48.484375 22.1875 42.84375 
Q 18.109375 37.203125 18.109375 27.296875 
Q 18.109375 17.390625 22.1875 11.75 
Q 26.265625 6.109375 33.40625 6.109375 
Q 40.53125 6.109375 44.609375 11.75 
Q 48.6875 17.390625 48.6875 27.296875 
z
" id="DejaVuSans-112"/>
      <path d="M 9.421875 54.6875 
L 18.40625 54.6875 
L 18.40625 0 
L 9.421875 0 
z
M 9.421875 75.984375 
L 18.40625 75.984375 
L 18.40625 64.59375 
L 9.421875 64.59375 
z
" id="DejaVuSans-105"/>
      <path d="M 18.3125 70.21875 
L 18.3125 54.6875 
L 36.8125 54.6875 
L 36.8125 47.703125 
L 18.3125 47.703125 
L 18.3125 18.015625 
Q 18.3125 11.328125 20.140625 9.421875 
Q 21.96875 7.515625 27.59375 7.515625 
L 36.8125 7.515625 
L 36.8125 0 
L 27.59375 0 
Q 17.1875 0 13.234375 3.875 
Q 9.28125 7.765625 9.28125 18.015625 
L 9.28125 47.703125 
L 2.6875 47.703125 
L 2.6875 54.6875 
L 9.28125 54.6875 
L 9.28125 70.21875 
z
" id="DejaVuSans-116"/>
      <path d="M 34.28125 27.484375 
Q 23.390625 27.484375 19.1875 25 
Q 14.984375 22.515625 14.984375 16.5 
Q 14.984375 11.71875 18.140625 8.90625 
Q 21.296875 6.109375 26.703125 6.109375 
Q 34.1875 6.109375 38.703125 11.40625 
Q 43.21875 16.703125 43.21875 25.484375 
L 43.21875 27.484375 
z
M 52.203125 31.203125 
L 52.203125 0 
L 43.21875 0 
L 43.21875 8.296875 
Q 40.140625 3.328125 35.546875 0.953125 
Q 30.953125 -1.421875 24.3125 -1.421875 
Q 15.921875 -1.421875 10.953125 3.296875 
Q 6 8.015625 6 15.921875 
Q 6 25.140625 12.171875 29.828125 
Q 18.359375 34.515625 30.609375 34.515625 
L 43.21875 34.515625 
L 43.21875 35.40625 
Q 43.21875 41.609375 39.140625 45 
Q 35.0625 48.390625 27.6875 48.390625 
Q 23 48.390625 18.546875 47.265625 
Q 14.109375 46.140625 10.015625 43.890625 
L 10.015625 52.203125 
Q 14.9375 54.109375 19.578125 55.046875 
Q 24.21875 56 28.609375 56 
Q 40.484375 56 46.34375 49.84375 
Q 52.203125 43.703125 52.203125 31.203125 
z
" id="DejaVuSans-97"/>
      <path d="M 9.421875 75.984375 
L 18.40625 75.984375 
L 18.40625 0 
L 9.421875 0 
z
" id="DejaVuSans-108"/>
      <path d="M 5.515625 54.6875 
L 48.1875 54.6875 
L 48.1875 46.484375 
L 14.40625 7.171875 
L 48.1875 7.171875 
L 48.1875 0 
L 4.296875 0 
L 4.296875 8.203125 
L 38.09375 47.515625 
L 5.515625 47.515625 
z
" id="DejaVuSans-122"/>
      <path d="M 45.40625 46.390625 
L 45.40625 75.984375 
L 54.390625 75.984375 
L 54.390625 0 
L 45.40625 0 
L 45.40625 8.203125 
Q 42.578125 3.328125 38.25 0.953125 
Q 33.9375 -1.421875 27.875 -1.421875 
Q 17.96875 -1.421875 11.734375 6.484375 
Q 5.515625 14.40625 5.515625 27.296875 
Q 5.515625 40.1875 11.734375 48.09375 
Q 17.96875 56 27.875 56 
Q 33.9375 56 38.25 53.625 
Q 42.578125 51.265625 45.40625 46.390625 
z
M 14.796875 27.296875 
Q 14.796875 17.390625 18.875 11.75 
Q 22.953125 6.109375 30.078125 6.109375 
Q 37.203125 6.109375 41.296875 11.75 
Q 45.40625 17.390625 45.40625 27.296875 
Q 45.40625 37.203125 41.296875 42.84375 
Q 37.203125 48.484375 30.078125 48.484375 
Q 22.953125 48.484375 18.875 42.84375 
Q 14.796875 37.203125 14.796875 27.296875 
z
" id="DejaVuSans-100"/>
      <path d="M 31 75.875 
Q 24.46875 64.65625 21.28125 53.65625 
Q 18.109375 42.671875 18.109375 31.390625 
Q 18.109375 20.125 21.3125 9.0625 
Q 24.515625 -2 31 -13.1875 
L 23.1875 -13.1875 
Q 15.875 -1.703125 12.234375 9.375 
Q 8.59375 20.453125 8.59375 31.390625 
Q 8.59375 42.28125 12.203125 53.3125 
Q 15.828125 64.359375 23.1875 75.875 
z
" id="DejaVuSans-40"/>
      <path d="M 9.8125 72.90625 
L 24.515625 72.90625 
L 43.109375 23.296875 
L 61.8125 72.90625 
L 76.515625 72.90625 
L 76.515625 0 
L 66.890625 0 
L 66.890625 64.015625 
L 48.09375 14.015625 
L 38.1875 14.015625 
L 19.390625 64.015625 
L 19.390625 0 
L 9.8125 0 
z
" id="DejaVuSans-77"/>
      <path d="M 56.203125 29.59375 
L 56.203125 25.203125 
L 14.890625 25.203125 
Q 15.484375 15.921875 20.484375 11.0625 
Q 25.484375 6.203125 34.421875 6.203125 
Q 39.59375 6.203125 44.453125 7.46875 
Q 49.3125 8.734375 54.109375 11.28125 
L 54.109375 2.78125 
Q 49.265625 0.734375 44.1875 -0.34375 
Q 39.109375 -1.421875 33.890625 -1.421875 
Q 20.796875 -1.421875 13.15625 6.1875 
Q 5.515625 13.8125 5.515625 26.8125 
Q 5.515625 40.234375 12.765625 48.109375 
Q 20.015625 56 32.328125 56 
Q 43.359375 56 49.78125 48.890625 
Q 56.203125 41.796875 56.203125 29.59375 
z
M 47.21875 32.234375 
Q 47.125 39.59375 43.09375 43.984375 
Q 39.0625 48.390625 32.421875 48.390625 
Q 24.90625 48.390625 20.390625 44.140625 
Q 15.875 39.890625 15.1875 32.171875 
z
" id="DejaVuSans-101"/>
      <path d="M 20.65625 79.984375 
L 30.375 79.984375 
L 14.46875 61.625 
L 6.984375 61.625 
z
M 9.421875 54.6875 
L 18.40625 54.6875 
L 18.40625 0 
L 9.421875 0 
z
M 13.921875 56 
z
" id="DejaVuSans-237"/>
      <path d="M 8.015625 75.875 
L 15.828125 75.875 
Q 23.140625 64.359375 26.78125 53.3125 
Q 30.421875 42.28125 30.421875 31.390625 
Q 30.421875 20.453125 26.78125 9.375 
Q 23.140625 -1.703125 15.828125 -13.1875 
L 8.015625 -13.1875 
Q 14.5 -2 17.703125 9.0625 
Q 20.90625 20.125 20.90625 31.390625 
Q 20.90625 42.671875 17.703125 53.65625 
Q 14.5 64.65625 8.015625 75.875 
z
" id="DejaVuSans-41"/>
     </defs>
     <g transform="translate(18.798437 224.650821)rotate(-90)scale(0.1 -0.1)">
      <use xlink:href="#DejaVuSans-73"/>
      <use x="29.492188" xlink:href="#DejaVuSans-66"/>
      <use x="98.095703" xlink:href="#DejaVuSans-32"/>
      <use x="129.882812" xlink:href="#DejaVuSans-104"/>
      <use x="193.261719" xlink:href="#DejaVuSans-111"/>
      <use x="254.443359" xlink:href="#DejaVuSans-115"/>
      <use x="306.542969" xlink:href="#DejaVuSans-112"/>
      <use x="370.019531" xlink:href="#DejaVuSans-105"/>
      <use x="397.802734" xlink:href="#DejaVuSans-116"/>
      <use x="437.011719" xlink:href="#DejaVuSans-97"/>
      <use x="498.291016" xlink:href="#DejaVuSans-108"/>
      <use x="526.074219" xlink:href="#DejaVuSans-105"/>
      <use x="553.857422" xlink:href="#DejaVuSans-122"/>
      <use x="606.347656" xlink:href="#DejaVuSans-97"/>
      <use x="667.626953" xlink:href="#DejaVuSans-100"/>
      <use x="731.103516" xlink:href="#DejaVuSans-111"/>
      <use x="792.285156" xlink:href="#DejaVuSans-115"/>
      <use x="844.384766" xlink:href="#DejaVuSans-32"/>
      <use x="876.171875" xlink:href="#DejaVuSans-40"/>
      <use x="915.185547" xlink:href="#DejaVuSans-77"/>
      <use x="1001.464844" xlink:href="#DejaVuSans-101"/>
      <use x="1062.988281" xlink:href="#DejaVuSans-100"/>
      <use x="1126.464844" xlink:href="#DejaVuSans-105"/>
      <use x="1154.248047" xlink:href="#DejaVuSans-97"/>
      <use x="1215.527344" xlink:href="#DejaVuSans-32"/>
      <use x="1247.314453" xlink:href="#DejaVuSans-51"/>
      <use x="1310.9375" xlink:href="#DejaVuSans-32"/>
      <use x="1342.724609" xlink:href="#DejaVuSans-100"/>
      <use x="1406.201172" xlink:href="#DejaVuSans-237"/>
      <use x="1433.984375" xlink:href="#DejaVuSans-97"/>
      <use x="1495.263672" xlink:href="#DejaVuSans-115"/>
      <use x="1547.363281" xlink:href="#DejaVuSans-41"/>
     </g>
    </g>
   </g>
   <g id="line2d_17">
    <path clip-path="url(#pdbb8fcd307)" d="M 61.940769 278.504364 
L 67.719983 278.504364 
L 73.499198 263.563988 
L 79.278413 256.772909 
L 85.057627 252.698261 
L 90.836842 266.28042 
L 96.616057 249.981829 
L 102.395271 237.757885 
L 108.174486 214.668214 
L 113.9537 226.892158 
L 119.732915 188.862111 
L 125.51213 164.414224 
L 131.291344 119.593098 
L 137.070559 130.458825 
L 142.849774 118.234882 
L 148.628988 89.712347 
L 154.408203 122.309529 
L 160.187417 122.309529 
L 165.966632 112.802018 
L 171.745847 57.115164 
L 177.525061 24.517981 
L 183.304276 54.398732 
L 189.08349 80.204835 
L 194.862705 149.473848 
L 200.64192 183.429247 
L 206.421134 188.862111 
L 212.200349 187.503895 
L 217.979564 182.071031 
L 223.758778 216.02643 
L 229.537993 206.518918 
L 235.317207 233.683237 
L 241.096422 214.668214 
L 246.875637 209.23535 
L 252.654851 197.011407 
L 258.434066 172.56352 
L 264.213281 171.205304 
L 269.992495 167.130656 
L 275.77171 201.086055 
L 281.550924 213.309998 
L 287.330139 211.951782 
L 293.109354 199.727839 
L 298.888568 206.518918 
L 304.667783 207.877134 
L 310.446997 225.533942 
L 316.226212 249.981829 
L 322.005427 258.131124 
L 327.784641 256.772909 
L 333.563856 252.698261 
L 339.343071 258.131124 
L 345.122285 259.48934 
L 350.9015 256.772909 
L 356.680714 263.563988 
L 362.459929 258.131124 
L 368.239144 248.623613 
L 374.018358 239.116101 
L 379.797573 245.907181 
L 385.576787 254.056477 
L 391.356002 267.638636 
L 397.135217 292.086523 
L 402.914431 298.877603 
L 408.693646 292.086523 
" style="fill:none;stroke:#1f77b4;stroke-linecap:square;stroke-width:1.5;"/>
    <defs>
     <path d="M 0 1.5 
C 0.397805 1.5 0.77937 1.341951 1.06066 1.06066 
C 1.341951 0.77937 1.5 0.397805 1.5 0 
C 1.5 -0.397805 1.341951 -0.77937 1.06066 -1.06066 
C 0.77937 -1.341951 0.397805 -1.5 0 -1.5 
C -0.397805 -1.5 -0.77937 -1.341951 -1.06066 -1.06066 
C -1.341951 -0.77937 -1.5 -0.397805 -1.5 0 
C -1.5 0.397805 -1.341951 0.77937 -1.06066 1.06066 
C -0.77937 1.341951 -0.397805 1.5 0 1.5 
z
" id="mbd1e43bbcd" style="stroke:#1f77b4;"/>
    </defs>
    <g clip-path="url(#pdbb8fcd307)">
     <use style="fill:#1f77b4;stroke:#1f77b4;" x="61.940769" xlink:href="#mbd1e43bbcd" y="278.504364"/>
     <use style="fill:#1f77b4;stroke:#1f77b4;" x="67.719983" xlink:href="#mbd1e43bbcd" y="278.504364"/>
     <use style="fill:#1f77b4;stroke:#1f77b4;" x="73.499198" xlink:href="#mbd1e43bbcd" y="263.563988"/>
     <use style="fill:#1f77b4;stroke:#1f77b4;" x="79.278413" xlink:href="#mbd1e43bbcd" y="256.772909"/>
     <use style="fill:#1f77b4;stroke:#1f77b4;" x="85.057627" xlink:href="#mbd1e43bbcd" y="252.698261"/>
     <use style="fill:#1f77b4;stroke:#1f77b4;" x="90.836842" xlink:href="#mbd1e43bbcd" y="266.28042"/>
     <use style="fill:#1f77b4;stroke:#1f77b4;" x="96.616057" xlink:href="#mbd1e43bbcd" y="249.981829"/>
     <use style="fill:#1f77b4;stroke:#1f77b4;" x="102.395271" xlink:href="#mbd1e43bbcd" y="237.757885"/>
     <use style="fill:#1f77b4;stroke:#1f77b4;" x="108.174486" xlink:href="#mbd1e43bbcd" y="214.668214"/>
     <use style="fill:#1f77b4;stroke:#1f77b4;" x="113.9537" xlink:href="#mbd1e43bbcd" y="226.892158"/>
     <use style="fill:#1f77b4;stroke:#1f77b4;" x="119.732915" xlink:href="#mbd1e43bbcd" y="188.862111"/>
     <use style="fill:#1f77b4;stroke:#1f77b4;" x="125.51213" xlink:href="#mbd1e43bbcd" y="164.414224"/>
     <use style="fill:#1f77b4;stroke:#1f77b4;" x="131.291344" xlink:href="#mbd1e43bbcd" y="119.593098"/>
     <use style="fill:#1f77b4;stroke:#1f77b4;" x="137.070559" xlink:href="#mbd1e43bbcd" y="130.458825"/>
     <use style="fill:#1f77b4;stroke:#1f77b4;" x="142.849774" xlink:href="#mbd1e43bbcd" y="118.234882"/>
     <use style="fill:#1f77b4;stroke:#1f77b4;" x="148.628988" xlink:href="#mbd1e43bbcd" y="89.712347"/>
     <use style="fill:#1f77b4;stroke:#1f77b4;" x="154.408203" xlink:href="#mbd1e43bbcd" y="122.309529"/>
     <use style="fill:#1f77b4;stroke:#1f77b4;" x="160.187417" xlink:href="#mbd1e43bbcd" y="122.309529"/>
     <use style="fill:#1f77b4;stroke:#1f77b4;" x="165.966632" xlink:href="#mbd1e43bbcd" y="112.802018"/>
     <use style="fill:#1f77b4;stroke:#1f77b4;" x="171.745847" xlink:href="#mbd1e43bbcd" y="57.115164"/>
     <use style="fill:#1f77b4;stroke:#1f77b4;" x="177.525061" xlink:href="#mbd1e43bbcd" y="24.517981"/>
     <use style="fill:#1f77b4;stroke:#1f77b4;" x="183.304276" xlink:href="#mbd1e43bbcd" y="54.398732"/>
     <use style="fill:#1f77b4;stroke:#1f77b4;" x="189.08349" xlink:href="#mbd1e43bbcd" y="80.204835"/>
     <use style="fill:#1f77b4;stroke:#1f77b4;" x="194.862705" xlink:href="#mbd1e43bbcd" y="149.473848"/>
     <use style="fill:#1f77b4;stroke:#1f77b4;" x="200.64192" xlink:href="#mbd1e43bbcd" y="183.429247"/>
     <use style="fill:#1f77b4;stroke:#1f77b4;" x="206.421134" xlink:href="#mbd1e43bbcd" y="188.862111"/>
     <use style="fill:#1f77b4;stroke:#1f77b4;" x="212.200349" xlink:href="#mbd1e43bbcd" y="187.503895"/>
     <use style="fill:#1f77b4;stroke:#1f77b4;" x="217.979564" xlink:href="#mbd1e43bbcd" y="182.071031"/>
     <use style="fill:#1f77b4;stroke:#1f77b4;" x="223.758778" xlink:href="#mbd1e43bbcd" y="216.02643"/>
     <use style="fill:#1f77b4;stroke:#1f77b4;" x="229.537993" xlink:href="#mbd1e43bbcd" y="206.518918"/>
     <use style="fill:#1f77b4;stroke:#1f77b4;" x="235.317207" xlink:href="#mbd1e43bbcd" y="233.683237"/>
     <use style="fill:#1f77b4;stroke:#1f77b4;" x="241.096422" xlink:href="#mbd1e43bbcd" y="214.668214"/>
     <use style="fill:#1f77b4;stroke:#1f77b4;" x="246.875637" xlink:href="#mbd1e43bbcd" y="209.23535"/>
     <use style="fill:#1f77b4;stroke:#1f77b4;" x="252.654851" xlink:href="#mbd1e43bbcd" y="197.011407"/>
     <use style="fill:#1f77b4;stroke:#1f77b4;" x="258.434066" xlink:href="#mbd1e43bbcd" y="172.56352"/>
     <use style="fill:#1f77b4;stroke:#1f77b4;" x="264.213281" xlink:href="#mbd1e43bbcd" y="171.205304"/>
     <use style="fill:#1f77b4;stroke:#1f77b4;" x="269.992495" xlink:href="#mbd1e43bbcd" y="167.130656"/>
     <use style="fill:#1f77b4;stroke:#1f77b4;" x="275.77171" xlink:href="#mbd1e43bbcd" y="201.086055"/>
     <use style="fill:#1f77b4;stroke:#1f77b4;" x="281.550924" xlink:href="#mbd1e43bbcd" y="213.309998"/>
     <use style="fill:#1f77b4;stroke:#1f77b4;" x="287.330139" xlink:href="#mbd1e43bbcd" y="211.951782"/>
     <use style="fill:#1f77b4;stroke:#1f77b4;" x="293.109354" xlink:href="#mbd1e43bbcd" y="199.727839"/>
     <use style="fill:#1f77b4;stroke:#1f77b4;" x="298.888568" xlink:href="#mbd1e43bbcd" y="206.518918"/>
     <use style="fill:#1f77b4;stroke:#1f77b4;" x="304.667783" xlink:href="#mbd1e43bbcd" y="207.877134"/>
     <use style="fill:#1f77b4;stroke:#1f77b4;" x="310.446997" xlink:href="#mbd1e43bbcd" y="225.533942"/>
     <use style="fill:#1f77b4;stroke:#1f77b4;" x="316.226212" xlink:href="#mbd1e43bbcd" y="249.981829"/>
     <use style="fill:#1f77b4;stroke:#1f77b4;" x="322.005427" xlink:href="#mbd1e43bbcd" y="258.131124"/>
     <use style="fill:#1f77b4;stroke:#1f77b4;" x="327.784641" xlink:href="#mbd1e43bbcd" y="256.772909"/>
     <use style="fill:#1f77b4;stroke:#1f77b4;" x="333.563856" xlink:href="#mbd1e43bbcd" y="252.698261"/>
     <use style="fill:#1f77b4;stroke:#1f77b4;" x="339.343071" xlink:href="#mbd1e43bbcd" y="258.131124"/>
     <use style="fill:#1f77b4;stroke:#1f77b4;" x="345.122285" xlink:href="#mbd1e43bbcd" y="259.48934"/>
     <use style="fill:#1f77b4;stroke:#1f77b4;" x="350.9015" xlink:href="#mbd1e43bbcd" y="256.772909"/>
     <use style="fill:#1f77b4;stroke:#1f77b4;" x="356.680714" xlink:href="#mbd1e43bbcd" y="263.563988"/>
     <use style="fill:#1f77b4;stroke:#1f77b4;" x="362.459929" xlink:href="#mbd1e43bbcd" y="258.131124"/>
     <use style="fill:#1f77b4;stroke:#1f77b4;" x="368.239144" xlink:href="#mbd1e43bbcd" y="248.623613"/>
     <use style="fill:#1f77b4;stroke:#1f77b4;" x="374.018358" xlink:href="#mbd1e43bbcd" y="239.116101"/>
     <use style="fill:#1f77b4;stroke:#1f77b4;" x="379.797573" xlink:href="#mbd1e43bbcd" y="245.907181"/>
     <use style="fill:#1f77b4;stroke:#1f77b4;" x="385.576787" xlink:href="#mbd1e43bbcd" y="254.056477"/>
     <use style="fill:#1f77b4;stroke:#1f77b4;" x="391.356002" xlink:href="#mbd1e43bbcd" y="267.638636"/>
     <use style="fill:#1f77b4;stroke:#1f77b4;" x="397.135217" xlink:href="#mbd1e43bbcd" y="292.086523"/>
     <use style="fill:#1f77b4;stroke:#1f77b4;" x="402.914431" xlink:href="#mbd1e43bbcd" y="298.877603"/>
     <use style="fill:#1f77b4;stroke:#1f77b4;" x="408.693646" xlink:href="#mbd1e43bbcd" y="292.086523"/>
    </g>
   </g>
   <g id="patch_3">
    <path d="M 44.603125 279.86258 
L 44.603125 10.8 
" style="fill:none;stroke:#000000;stroke-linecap:square;stroke-linejoin:miter;stroke-width:0.8;"/>
   </g>
   <g id="patch_4">
    <path d="M 426.03129 279.86258 
L 426.03129 10.8 
" style="fill:none;stroke:#000000;stroke-linecap:square;stroke-linejoin:miter;stroke-width:0.8;"/>
   </g>
   <g id="patch_5">
    <path d="M 44.603125 279.86258 
L 426.03129 279.86258 
" style="fill:none;stroke:#000000;stroke-linecap:square;stroke-linejoin:miter;stroke-width:0.8;"/>
   </g>
   <g id="patch_6">
    <path d="M 44.603125 10.8 
L 426.03129 10.8 
" style="fill:none;stroke:#000000;stroke-linecap:square;stroke-linejoin:miter;stroke-width:0.8;"/>
   </g>
  </g>
 </g>
 <defs>
  <clipPath id="pdbb8fcd307">
   <rect height="269.06258" width="381.428165" x="44.603125" y="10.8"/>
  </clipPath>
 </defs>
</svg>
