<?xml version="1.0" encoding="utf-8" standalone="no"?>
<!DOCTYPE svg PUBLIC "-//W3C//DTD SVG 1.1//EN"
  "http://www.w3.org/Graphics/SVG/1.1/DTD/svg11.dtd">
<!-- Created with matplotlib (https://matplotlib.org/) -->
<svg height="345.6pt" version="1.1" viewBox="0 0 460.8 345.6" width="460.8pt" xmlns="http://www.w3.org/2000/svg" xmlns:xlink="http://www.w3.org/1999/xlink">
 <defs>
  <style type="text/css">
*{stroke-linecap:butt;stroke-linejoin:round;}
  </style>
 </defs>
 <g id="figure_1">
  <g id="patch_1">
   <path d="M 0 345.6 
L 460.8 345.6 
L 460.8 0 
L 0 0 
z
" style="fill:#ffffff;"/>
  </g>
  <g id="axes_1">
   <g id="patch_2">
    <path d="M 50.965625 279.86258 
L 446.175518 279.86258 
L 446.175518 14.599219 
L 50.965625 14.599219 
z
" style="fill:#ffffff;"/>
   </g>
   <g id="matplotlib.axis_1">
    <g id="xtick_1">
     <g id="line2d_1">
      <defs>
       <path d="M 0 0 
L 0 3.5 
" id="mc0f477e775" style="stroke:#000000;stroke-width:0.8;"/>
      </defs>
      <g>
       <use style="stroke:#000000;stroke-width:0.8;" x="99.230579" xlink:href="#mc0f477e775" y="279.86258"/>
      </g>
     </g>
     <g id="text_1">
      <!-- 2020-03-01 -->
      <defs>
       <path d="M 19.1875 8.296875 
L 53.609375 8.296875 
L 53.609375 0 
L 7.328125 0 
L 7.328125 8.296875 
Q 12.9375 14.109375 22.625 23.890625 
Q 32.328125 33.6875 34.8125 36.53125 
Q 39.546875 41.84375 41.421875 45.53125 
Q 43.3125 49.21875 43.3125 52.78125 
Q 43.3125 58.59375 39.234375 62.25 
Q 35.15625 65.921875 28.609375 65.921875 
Q 23.96875 65.921875 18.8125 64.3125 
Q 13.671875 62.703125 7.8125 59.421875 
L 7.8125 69.390625 
Q 13.765625 71.78125 18.9375 73 
Q 24.125 74.21875 28.421875 74.21875 
Q 39.75 74.21875 46.484375 68.546875 
Q 53.21875 62.890625 53.21875 53.421875 
Q 53.21875 48.921875 51.53125 44.890625 
Q 49.859375 40.875 45.40625 35.40625 
Q 44.1875 33.984375 37.640625 27.21875 
Q 31.109375 20.453125 19.1875 8.296875 
z
" id="DejaVuSans-50"/>
       <path d="M 31.78125 66.40625 
Q 24.171875 66.40625 20.328125 58.90625 
Q 16.5 51.421875 16.5 36.375 
Q 16.5 21.390625 20.328125 13.890625 
Q 24.171875 6.390625 31.78125 6.390625 
Q 39.453125 6.390625 43.28125 13.890625 
Q 47.125 21.390625 47.125 36.375 
Q 47.125 51.421875 43.28125 58.90625 
Q 39.453125 66.40625 31.78125 66.40625 
z
M 31.78125 74.21875 
Q 44.046875 74.21875 50.515625 64.515625 
Q 56.984375 54.828125 56.984375 36.375 
Q 56.984375 17.96875 50.515625 8.265625 
Q 44.046875 -1.421875 31.78125 -1.421875 
Q 19.53125 -1.421875 13.0625 8.265625 
Q 6.59375 17.96875 6.59375 36.375 
Q 6.59375 54.828125 13.0625 64.515625 
Q 19.53125 74.21875 31.78125 74.21875 
z
" id="DejaVuSans-48"/>
       <path d="M 4.890625 31.390625 
L 31.203125 31.390625 
L 31.203125 23.390625 
L 4.890625 23.390625 
z
" id="DejaVuSans-45"/>
       <path d="M 40.578125 39.3125 
Q 47.65625 37.796875 51.625 33 
Q 55.609375 28.21875 55.609375 21.1875 
Q 55.609375 10.40625 48.1875 4.484375 
Q 40.765625 -1.421875 27.09375 -1.421875 
Q 22.515625 -1.421875 17.65625 -0.515625 
Q 12.796875 0.390625 7.625 2.203125 
L 7.625 11.71875 
Q 11.71875 9.328125 16.59375 8.109375 
Q 21.484375 6.890625 26.8125 6.890625 
Q 36.078125 6.890625 40.9375 10.546875 
Q 45.796875 14.203125 45.796875 21.1875 
Q 45.796875 27.640625 41.28125 31.265625 
Q 36.765625 34.90625 28.71875 34.90625 
L 20.21875 34.90625 
L 20.21875 43.015625 
L 29.109375 43.015625 
Q 36.375 43.015625 40.234375 45.921875 
Q 44.09375 48.828125 44.09375 54.296875 
Q 44.09375 59.90625 40.109375 62.90625 
Q 36.140625 65.921875 28.71875 65.921875 
Q 24.65625 65.921875 20.015625 65.03125 
Q 15.375 64.15625 9.8125 62.3125 
L 9.8125 71.09375 
Q 15.4375 72.65625 20.34375 73.4375 
Q 25.25 74.21875 29.59375 74.21875 
Q 40.828125 74.21875 47.359375 69.109375 
Q 53.90625 64.015625 53.90625 55.328125 
Q 53.90625 49.265625 50.4375 45.09375 
Q 46.96875 40.921875 40.578125 39.3125 
z
" id="DejaVuSans-51"/>
       <path d="M 12.40625 8.296875 
L 28.515625 8.296875 
L 28.515625 63.921875 
L 10.984375 60.40625 
L 10.984375 69.390625 
L 28.421875 72.90625 
L 38.28125 72.90625 
L 38.28125 8.296875 
L 54.390625 8.296875 
L 54.390625 0 
L 12.40625 0 
z
" id="DejaVuSans-49"/>
      </defs>
      <g transform="translate(80.634776 333.329439)rotate(-45)scale(0.1 -0.1)">
       <use xlink:href="#DejaVuSans-50"/>
       <use x="63.623047" xlink:href="#DejaVuSans-48"/>
       <use x="127.246094" xlink:href="#DejaVuSans-50"/>
       <use x="190.869141" xlink:href="#DejaVuSans-48"/>
       <use x="254.492188" xlink:href="#DejaVuSans-45"/>
       <use x="290.576172" xlink:href="#DejaVuSans-48"/>
       <use x="354.199219" xlink:href="#DejaVuSans-51"/>
       <use x="417.822266" xlink:href="#DejaVuSans-45"/>
       <use x="453.90625" xlink:href="#DejaVuSans-48"/>
       <use x="517.529297" xlink:href="#DejaVuSans-49"/>
      </g>
     </g>
    </g>
    <g id="xtick_2">
     <g id="line2d_2">
      <g>
       <use style="stroke:#000000;stroke-width:0.8;" x="159.832315" xlink:href="#mc0f477e775" y="279.86258"/>
      </g>
     </g>
     <g id="text_2">
      <!-- 2020-03-15 -->
      <defs>
       <path d="M 10.796875 72.90625 
L 49.515625 72.90625 
L 49.515625 64.59375 
L 19.828125 64.59375 
L 19.828125 46.734375 
Q 21.96875 47.46875 24.109375 47.828125 
Q 26.265625 48.1875 28.421875 48.1875 
Q 40.625 48.1875 47.75 41.5 
Q 54.890625 34.8125 54.890625 23.390625 
Q 54.890625 11.625 47.5625 5.09375 
Q 40.234375 -1.421875 26.90625 -1.421875 
Q 22.3125 -1.421875 17.546875 -0.640625 
Q 12.796875 0.140625 7.71875 1.703125 
L 7.71875 11.625 
Q 12.109375 9.234375 16.796875 8.0625 
Q 21.484375 6.890625 26.703125 6.890625 
Q 35.15625 6.890625 40.078125 11.328125 
Q 45.015625 15.765625 45.015625 23.390625 
Q 45.015625 31 40.078125 35.4375 
Q 35.15625 39.890625 26.703125 39.890625 
Q 22.75 39.890625 18.8125 39.015625 
Q 14.890625 38.140625 10.796875 36.28125 
z
" id="DejaVuSans-53"/>
      </defs>
      <g transform="translate(141.236512 333.329439)rotate(-45)scale(0.1 -0.1)">
       <use xlink:href="#DejaVuSans-50"/>
       <use x="63.623047" xlink:href="#DejaVuSans-48"/>
       <use x="127.246094" xlink:href="#DejaVuSans-50"/>
       <use x="190.869141" xlink:href="#DejaVuSans-48"/>
       <use x="254.492188" xlink:href="#DejaVuSans-45"/>
       <use x="290.576172" xlink:href="#DejaVuSans-48"/>
       <use x="354.199219" xlink:href="#DejaVuSans-51"/>
       <use x="417.822266" xlink:href="#DejaVuSans-45"/>
       <use x="453.90625" xlink:href="#DejaVuSans-49"/>
       <use x="517.529297" xlink:href="#DejaVuSans-53"/>
      </g>
     </g>
    </g>
    <g id="xtick_3">
     <g id="line2d_3">
      <g>
       <use style="stroke:#000000;stroke-width:0.8;" x="233.420137" xlink:href="#mc0f477e775" y="279.86258"/>
      </g>
     </g>
     <g id="text_3">
      <!-- 2020-04-01 -->
      <defs>
       <path d="M 37.796875 64.3125 
L 12.890625 25.390625 
L 37.796875 25.390625 
z
M 35.203125 72.90625 
L 47.609375 72.90625 
L 47.609375 25.390625 
L 58.015625 25.390625 
L 58.015625 17.1875 
L 47.609375 17.1875 
L 47.609375 0 
L 37.796875 0 
L 37.796875 17.1875 
L 4.890625 17.1875 
L 4.890625 26.703125 
z
" id="DejaVuSans-52"/>
      </defs>
      <g transform="translate(214.824334 333.329439)rotate(-45)scale(0.1 -0.1)">
       <use xlink:href="#DejaVuSans-50"/>
       <use x="63.623047" xlink:href="#DejaVuSans-48"/>
       <use x="127.246094" xlink:href="#DejaVuSans-50"/>
       <use x="190.869141" xlink:href="#DejaVuSans-48"/>
       <use x="254.492188" xlink:href="#DejaVuSans-45"/>
       <use x="290.576172" xlink:href="#DejaVuSans-48"/>
       <use x="354.199219" xlink:href="#DejaVuSans-52"/>
       <use x="417.822266" xlink:href="#DejaVuSans-45"/>
       <use x="453.90625" xlink:href="#DejaVuSans-48"/>
       <use x="517.529297" xlink:href="#DejaVuSans-49"/>
      </g>
     </g>
    </g>
    <g id="xtick_4">
     <g id="line2d_4">
      <g>
       <use style="stroke:#000000;stroke-width:0.8;" x="294.021873" xlink:href="#mc0f477e775" y="279.86258"/>
      </g>
     </g>
     <g id="text_4">
      <!-- 2020-04-15 -->
      <g transform="translate(275.42607 333.329439)rotate(-45)scale(0.1 -0.1)">
       <use xlink:href="#DejaVuSans-50"/>
       <use x="63.623047" xlink:href="#DejaVuSans-48"/>
       <use x="127.246094" xlink:href="#DejaVuSans-50"/>
       <use x="190.869141" xlink:href="#DejaVuSans-48"/>
       <use x="254.492188" xlink:href="#DejaVuSans-45"/>
       <use x="290.576172" xlink:href="#DejaVuSans-48"/>
       <use x="354.199219" xlink:href="#DejaVuSans-52"/>
       <use x="417.822266" xlink:href="#DejaVuSans-45"/>
       <use x="453.90625" xlink:href="#DejaVuSans-49"/>
       <use x="517.529297" xlink:href="#DejaVuSans-53"/>
      </g>
     </g>
    </g>
    <g id="xtick_5">
     <g id="line2d_5">
      <g>
       <use style="stroke:#000000;stroke-width:0.8;" x="363.281" xlink:href="#mc0f477e775" y="279.86258"/>
      </g>
     </g>
     <g id="text_5">
      <!-- 2020-05-01 -->
      <g transform="translate(344.685197 333.329439)rotate(-45)scale(0.1 -0.1)">
       <use xlink:href="#DejaVuSans-50"/>
       <use x="63.623047" xlink:href="#DejaVuSans-48"/>
       <use x="127.246094" xlink:href="#DejaVuSans-50"/>
       <use x="190.869141" xlink:href="#DejaVuSans-48"/>
       <use x="254.492188" xlink:href="#DejaVuSans-45"/>
       <use x="290.576172" xlink:href="#DejaVuSans-48"/>
       <use x="354.199219" xlink:href="#DejaVuSans-53"/>
       <use x="417.822266" xlink:href="#DejaVuSans-45"/>
       <use x="453.90625" xlink:href="#DejaVuSans-48"/>
       <use x="517.529297" xlink:href="#DejaVuSans-49"/>
      </g>
     </g>
    </g>
    <g id="xtick_6">
     <g id="line2d_6">
      <g>
       <use style="stroke:#000000;stroke-width:0.8;" x="423.882736" xlink:href="#mc0f477e775" y="279.86258"/>
      </g>
     </g>
     <g id="text_6">
      <!-- 2020-05-15 -->
      <g transform="translate(405.286933 333.329439)rotate(-45)scale(0.1 -0.1)">
       <use xlink:href="#DejaVuSans-50"/>
       <use x="63.623047" xlink:href="#DejaVuSans-48"/>
       <use x="127.246094" xlink:href="#DejaVuSans-50"/>
       <use x="190.869141" xlink:href="#DejaVuSans-48"/>
       <use x="254.492188" xlink:href="#DejaVuSans-45"/>
       <use x="290.576172" xlink:href="#DejaVuSans-48"/>
       <use x="354.199219" xlink:href="#DejaVuSans-53"/>
       <use x="417.822266" xlink:href="#DejaVuSans-45"/>
       <use x="453.90625" xlink:href="#DejaVuSans-49"/>
       <use x="517.529297" xlink:href="#DejaVuSans-53"/>
      </g>
     </g>
    </g>
   </g>
   <g id="matplotlib.axis_2">
    <g id="ytick_1">
     <g id="line2d_7">
      <defs>
       <path d="M 0 0 
L -3.5 0 
" id="m7ec1d91cd3" style="stroke:#000000;stroke-width:0.8;"/>
      </defs>
      <g>
       <use style="stroke:#000000;stroke-width:0.8;" x="50.965625" xlink:href="#m7ec1d91cd3" y="279.86258"/>
      </g>
     </g>
     <g id="text_7">
      <!-- 0 -->
      <g transform="translate(37.603125 283.661798)scale(0.1 -0.1)">
       <use xlink:href="#DejaVuSans-48"/>
      </g>
     </g>
    </g>
    <g id="ytick_2">
     <g id="line2d_8">
      <g>
       <use style="stroke:#000000;stroke-width:0.8;" x="50.965625" xlink:href="#m7ec1d91cd3" y="246.70466"/>
      </g>
     </g>
     <g id="text_8">
      <!-- 25 -->
      <g transform="translate(31.240625 250.503878)scale(0.1 -0.1)">
       <use xlink:href="#DejaVuSans-50"/>
       <use x="63.623047" xlink:href="#DejaVuSans-53"/>
      </g>
     </g>
    </g>
    <g id="ytick_3">
     <g id="line2d_9">
      <g>
       <use style="stroke:#000000;stroke-width:0.8;" x="50.965625" xlink:href="#m7ec1d91cd3" y="213.546739"/>
      </g>
     </g>
     <g id="text_9">
      <!-- 50 -->
      <g transform="translate(31.240625 217.345958)scale(0.1 -0.1)">
       <use xlink:href="#DejaVuSans-53"/>
       <use x="63.623047" xlink:href="#DejaVuSans-48"/>
      </g>
     </g>
    </g>
    <g id="ytick_4">
     <g id="line2d_10">
      <g>
       <use style="stroke:#000000;stroke-width:0.8;" x="50.965625" xlink:href="#m7ec1d91cd3" y="180.388819"/>
      </g>
     </g>
     <g id="text_10">
      <!-- 75 -->
      <defs>
       <path d="M 8.203125 72.90625 
L 55.078125 72.90625 
L 55.078125 68.703125 
L 28.609375 0 
L 18.3125 0 
L 43.21875 64.59375 
L 8.203125 64.59375 
z
" id="DejaVuSans-55"/>
      </defs>
      <g transform="translate(31.240625 184.188038)scale(0.1 -0.1)">
       <use xlink:href="#DejaVuSans-55"/>
       <use x="63.623047" xlink:href="#DejaVuSans-53"/>
      </g>
     </g>
    </g>
    <g id="ytick_5">
     <g id="line2d_11">
      <g>
       <use style="stroke:#000000;stroke-width:0.8;" x="50.965625" xlink:href="#m7ec1d91cd3" y="147.230899"/>
      </g>
     </g>
     <g id="text_11">
      <!-- 100 -->
      <g transform="translate(24.878125 151.030118)scale(0.1 -0.1)">
       <use xlink:href="#DejaVuSans-49"/>
       <use x="63.623047" xlink:href="#DejaVuSans-48"/>
       <use x="127.246094" xlink:href="#DejaVuSans-48"/>
      </g>
     </g>
    </g>
    <g id="ytick_6">
     <g id="line2d_12">
      <g>
       <use style="stroke:#000000;stroke-width:0.8;" x="50.965625" xlink:href="#m7ec1d91cd3" y="114.072979"/>
      </g>
     </g>
     <g id="text_12">
      <!-- 125 -->
      <g transform="translate(24.878125 117.872198)scale(0.1 -0.1)">
       <use xlink:href="#DejaVuSans-49"/>
       <use x="63.623047" xlink:href="#DejaVuSans-50"/>
       <use x="127.246094" xlink:href="#DejaVuSans-53"/>
      </g>
     </g>
    </g>
    <g id="ytick_7">
     <g id="line2d_13">
      <g>
       <use style="stroke:#000000;stroke-width:0.8;" x="50.965625" xlink:href="#m7ec1d91cd3" y="80.915059"/>
      </g>
     </g>
     <g id="text_13">
      <!-- 150 -->
      <g transform="translate(24.878125 84.714278)scale(0.1 -0.1)">
       <use xlink:href="#DejaVuSans-49"/>
       <use x="63.623047" xlink:href="#DejaVuSans-53"/>
       <use x="127.246094" xlink:href="#DejaVuSans-48"/>
      </g>
     </g>
    </g>
    <g id="ytick_8">
     <g id="line2d_14">
      <g>
       <use style="stroke:#000000;stroke-width:0.8;" x="50.965625" xlink:href="#m7ec1d91cd3" y="47.757139"/>
      </g>
     </g>
     <g id="text_14">
      <!-- 175 -->
      <g transform="translate(24.878125 51.556358)scale(0.1 -0.1)">
       <use xlink:href="#DejaVuSans-49"/>
       <use x="63.623047" xlink:href="#DejaVuSans-55"/>
       <use x="127.246094" xlink:href="#DejaVuSans-53"/>
      </g>
     </g>
    </g>
    <g id="ytick_9">
     <g id="line2d_15">
      <g>
       <use style="stroke:#000000;stroke-width:0.8;" x="50.965625" xlink:href="#m7ec1d91cd3" y="14.599219"/>
      </g>
     </g>
     <g id="text_15">
      <!-- 200 -->
      <g transform="translate(24.878125 18.398438)scale(0.1 -0.1)">
       <use xlink:href="#DejaVuSans-50"/>
       <use x="63.623047" xlink:href="#DejaVuSans-48"/>
       <use x="127.246094" xlink:href="#DejaVuSans-48"/>
      </g>
     </g>
    </g>
    <g id="text_16">
     <!-- VC hospitalizados (Media 3 días) -->
     <defs>
      <path d="M 28.609375 0 
L 0.78125 72.90625 
L 11.078125 72.90625 
L 34.1875 11.53125 
L 57.328125 72.90625 
L 67.578125 72.90625 
L 39.796875 0 
z
" id="DejaVuSans-86"/>
      <path d="M 64.40625 67.28125 
L 64.40625 56.890625 
Q 59.421875 61.53125 53.78125 63.8125 
Q 48.140625 66.109375 41.796875 66.109375 
Q 29.296875 66.109375 22.65625 58.46875 
Q 16.015625 50.828125 16.015625 36.375 
Q 16.015625 21.96875 22.65625 14.328125 
Q 29.296875 6.6875 41.796875 6.6875 
Q 48.140625 6.6875 53.78125 8.984375 
Q 59.421875 11.28125 64.40625 15.921875 
L 64.40625 5.609375 
Q 59.234375 2.09375 53.4375 0.328125 
Q 47.65625 -1.421875 41.21875 -1.421875 
Q 24.65625 -1.421875 15.125 8.703125 
Q 5.609375 18.84375 5.609375 36.375 
Q 5.609375 53.953125 15.125 64.078125 
Q 24.65625 74.21875 41.21875 74.21875 
Q 47.75 74.21875 53.53125 72.484375 
Q 59.328125 70.75 64.40625 67.28125 
z
" id="DejaVuSans-67"/>
      <path id="DejaVuSans-32"/>
      <path d="M 54.890625 33.015625 
L 54.890625 0 
L 45.90625 0 
L 45.90625 32.71875 
Q 45.90625 40.484375 42.875 44.328125 
Q 39.84375 48.1875 33.796875 48.1875 
Q 26.515625 48.1875 22.3125 43.546875 
Q 18.109375 38.921875 18.109375 30.90625 
L 18.109375 0 
L 9.078125 0 
L 9.078125 75.984375 
L 18.109375 75.984375 
L 18.109375 46.1875 
Q 21.34375 51.125 25.703125 53.5625 
Q 30.078125 56 35.796875 56 
Q 45.21875 56 50.046875 50.171875 
Q 54.890625 44.34375 54.890625 33.015625 
z
" id="DejaVuSans-104"/>
      <path d="M 30.609375 48.390625 
Q 23.390625 48.390625 19.1875 42.75 
Q 14.984375 37.109375 14.984375 27.296875 
Q 14.984375 17.484375 19.15625 11.84375 
Q 23.34375 6.203125 30.609375 6.203125 
Q 37.796875 6.203125 41.984375 11.859375 
Q 46.1875 17.53125 46.1875 27.296875 
Q 46.1875 37.015625 41.984375 42.703125 
Q 37.796875 48.390625 30.609375 48.390625 
z
M 30.609375 56 
Q 42.328125 56 49.015625 48.375 
Q 55.71875 40.765625 55.71875 27.296875 
Q 55.71875 13.875 49.015625 6.21875 
Q 42.328125 -1.421875 30.609375 -1.421875 
Q 18.84375 -1.421875 12.171875 6.21875 
Q 5.515625 13.875 5.515625 27.296875 
Q 5.515625 40.765625 12.171875 48.375 
Q 18.84375 56 30.609375 56 
z
" id="DejaVuSans-111"/>
      <path d="M 44.28125 53.078125 
L 44.28125 44.578125 
Q 40.484375 46.53125 36.375 47.5 
Q 32.28125 48.484375 27.875 48.484375 
Q 21.1875 48.484375 17.84375 46.4375 
Q 14.5 44.390625 14.5 40.28125 
Q 14.5 37.15625 16.890625 35.375 
Q 19.28125 33.59375 26.515625 31.984375 
L 29.59375 31.296875 
Q 39.15625 29.25 43.1875 25.515625 
Q 47.21875 21.78125 47.21875 15.09375 
Q 47.21875 7.46875 41.1875 3.015625 
Q 35.15625 -1.421875 24.609375 -1.421875 
Q 20.21875 -1.421875 15.453125 -0.5625 
Q 10.6875 0.296875 5.421875 2 
L 5.421875 11.28125 
Q 10.40625 8.6875 15.234375 7.390625 
Q 20.0625 6.109375 24.8125 6.109375 
Q 31.15625 6.109375 34.5625 8.28125 
Q 37.984375 10.453125 37.984375 14.40625 
Q 37.984375 18.0625 35.515625 20.015625 
Q 33.0625 21.96875 24.703125 23.78125 
L 21.578125 24.515625 
Q 13.234375 26.265625 9.515625 29.90625 
Q 5.8125 33.546875 5.8125 39.890625 
Q 5.8125 47.609375 11.28125 51.796875 
Q 16.75 56 26.8125 56 
Q 31.78125 56 36.171875 55.265625 
Q 40.578125 54.546875 44.28125 53.078125 
z
" id="DejaVuSans-115"/>
      <path d="M 18.109375 8.203125 
L 18.109375 -20.796875 
L 9.078125 -20.796875 
L 9.078125 54.6875 
L 18.109375 54.6875 
L 18.109375 46.390625 
Q 20.953125 51.265625 25.265625 53.625 
Q 29.59375 56 35.59375 56 
Q 45.5625 56 51.78125 48.09375 
Q 58.015625 40.1875 58.015625 27.296875 
Q 58.015625 14.40625 51.78125 6.484375 
Q 45.5625 -1.421875 35.59375 -1.421875 
Q 29.59375 -1.421875 25.265625 0.953125 
Q 20.953125 3.328125 18.109375 8.203125 
z
M 48.6875 27.296875 
Q 48.6875 37.203125 44.609375 42.84375 
Q 40.53125 48.484375 33.40625 48.484375 
Q 26.265625 48.484375 22.1875 42.84375 
Q 18.109375 37.203125 18.109375 27.296875 
Q 18.109375 17.390625 22.1875 11.75 
Q 26.265625 6.109375 33.40625 6.109375 
Q 40.53125 6.109375 44.609375 11.75 
Q 48.6875 17.390625 48.6875 27.296875 
z
" id="DejaVuSans-112"/>
      <path d="M 9.421875 54.6875 
L 18.40625 54.6875 
L 18.40625 0 
L 9.421875 0 
z
M 9.421875 75.984375 
L 18.40625 75.984375 
L 18.40625 64.59375 
L 9.421875 64.59375 
z
" id="DejaVuSans-105"/>
      <path d="M 18.3125 70.21875 
L 18.3125 54.6875 
L 36.8125 54.6875 
L 36.8125 47.703125 
L 18.3125 47.703125 
L 18.3125 18.015625 
Q 18.3125 11.328125 20.140625 9.421875 
Q 21.96875 7.515625 27.59375 7.515625 
L 36.8125 7.515625 
L 36.8125 0 
L 27.59375 0 
Q 17.1875 0 13.234375 3.875 
Q 9.28125 7.765625 9.28125 18.015625 
L 9.28125 47.703125 
L 2.6875 47.703125 
L 2.6875 54.6875 
L 9.28125 54.6875 
L 9.28125 70.21875 
z
" id="DejaVuSans-116"/>
      <path d="M 34.28125 27.484375 
Q 23.390625 27.484375 19.1875 25 
Q 14.984375 22.515625 14.984375 16.5 
Q 14.984375 11.71875 18.140625 8.90625 
Q 21.296875 6.109375 26.703125 6.109375 
Q 34.1875 6.109375 38.703125 11.40625 
Q 43.21875 16.703125 43.21875 25.484375 
L 43.21875 27.484375 
z
M 52.203125 31.203125 
L 52.203125 0 
L 43.21875 0 
L 43.21875 8.296875 
Q 40.140625 3.328125 35.546875 0.953125 
Q 30.953125 -1.421875 24.3125 -1.421875 
Q 15.921875 -1.421875 10.953125 3.296875 
Q 6 8.015625 6 15.921875 
Q 6 25.140625 12.171875 29.828125 
Q 18.359375 34.515625 30.609375 34.515625 
L 43.21875 34.515625 
L 43.21875 35.40625 
Q 43.21875 41.609375 39.140625 45 
Q 35.0625 48.390625 27.6875 48.390625 
Q 23 48.390625 18.546875 47.265625 
Q 14.109375 46.140625 10.015625 43.890625 
L 10.015625 52.203125 
Q 14.9375 54.109375 19.578125 55.046875 
Q 24.21875 56 28.609375 56 
Q 40.484375 56 46.34375 49.84375 
Q 52.203125 43.703125 52.203125 31.203125 
z
" id="DejaVuSans-97"/>
      <path d="M 9.421875 75.984375 
L 18.40625 75.984375 
L 18.40625 0 
L 9.421875 0 
z
" id="DejaVuSans-108"/>
      <path d="M 5.515625 54.6875 
L 48.1875 54.6875 
L 48.1875 46.484375 
L 14.40625 7.171875 
L 48.1875 7.171875 
L 48.1875 0 
L 4.296875 0 
L 4.296875 8.203125 
L 38.09375 47.515625 
L 5.515625 47.515625 
z
" id="DejaVuSans-122"/>
      <path d="M 45.40625 46.390625 
L 45.40625 75.984375 
L 54.390625 75.984375 
L 54.390625 0 
L 45.40625 0 
L 45.40625 8.203125 
Q 42.578125 3.328125 38.25 0.953125 
Q 33.9375 -1.421875 27.875 -1.421875 
Q 17.96875 -1.421875 11.734375 6.484375 
Q 5.515625 14.40625 5.515625 27.296875 
Q 5.515625 40.1875 11.734375 48.09375 
Q 17.96875 56 27.875 56 
Q 33.9375 56 38.25 53.625 
Q 42.578125 51.265625 45.40625 46.390625 
z
M 14.796875 27.296875 
Q 14.796875 17.390625 18.875 11.75 
Q 22.953125 6.109375 30.078125 6.109375 
Q 37.203125 6.109375 41.296875 11.75 
Q 45.40625 17.390625 45.40625 27.296875 
Q 45.40625 37.203125 41.296875 42.84375 
Q 37.203125 48.484375 30.078125 48.484375 
Q 22.953125 48.484375 18.875 42.84375 
Q 14.796875 37.203125 14.796875 27.296875 
z
" id="DejaVuSans-100"/>
      <path d="M 31 75.875 
Q 24.46875 64.65625 21.28125 53.65625 
Q 18.109375 42.671875 18.109375 31.390625 
Q 18.109375 20.125 21.3125 9.0625 
Q 24.515625 -2 31 -13.1875 
L 23.1875 -13.1875 
Q 15.875 -1.703125 12.234375 9.375 
Q 8.59375 20.453125 8.59375 31.390625 
Q 8.59375 42.28125 12.203125 53.3125 
Q 15.828125 64.359375 23.1875 75.875 
z
" id="DejaVuSans-40"/>
      <path d="M 9.8125 72.90625 
L 24.515625 72.90625 
L 43.109375 23.296875 
L 61.8125 72.90625 
L 76.515625 72.90625 
L 76.515625 0 
L 66.890625 0 
L 66.890625 64.015625 
L 48.09375 14.015625 
L 38.1875 14.015625 
L 19.390625 64.015625 
L 19.390625 0 
L 9.8125 0 
z
" id="DejaVuSans-77"/>
      <path d="M 56.203125 29.59375 
L 56.203125 25.203125 
L 14.890625 25.203125 
Q 15.484375 15.921875 20.484375 11.0625 
Q 25.484375 6.203125 34.421875 6.203125 
Q 39.59375 6.203125 44.453125 7.46875 
Q 49.3125 8.734375 54.109375 11.28125 
L 54.109375 2.78125 
Q 49.265625 0.734375 44.1875 -0.34375 
Q 39.109375 -1.421875 33.890625 -1.421875 
Q 20.796875 -1.421875 13.15625 6.1875 
Q 5.515625 13.8125 5.515625 26.8125 
Q 5.515625 40.234375 12.765625 48.109375 
Q 20.015625 56 32.328125 56 
Q 43.359375 56 49.78125 48.890625 
Q 56.203125 41.796875 56.203125 29.59375 
z
M 47.21875 32.234375 
Q 47.125 39.59375 43.09375 43.984375 
Q 39.0625 48.390625 32.421875 48.390625 
Q 24.90625 48.390625 20.390625 44.140625 
Q 15.875 39.890625 15.1875 32.171875 
z
" id="DejaVuSans-101"/>
      <path d="M 20.65625 79.984375 
L 30.375 79.984375 
L 14.46875 61.625 
L 6.984375 61.625 
z
M 9.421875 54.6875 
L 18.40625 54.6875 
L 18.40625 0 
L 9.421875 0 
z
M 13.921875 56 
z
" id="DejaVuSans-237"/>
      <path d="M 8.015625 75.875 
L 15.828125 75.875 
Q 23.140625 64.359375 26.78125 53.3125 
Q 30.421875 42.28125 30.421875 31.390625 
Q 30.421875 20.453125 26.78125 9.375 
Q 23.140625 -1.703125 15.828125 -13.1875 
L 8.015625 -13.1875 
Q 14.5 -2 17.703125 9.0625 
Q 20.90625 20.125 20.90625 31.390625 
Q 20.90625 42.671875 17.703125 53.65625 
Q 14.5 64.65625 8.015625 75.875 
z
" id="DejaVuSans-41"/>
     </defs>
     <g transform="translate(18.798438 228.55668)rotate(-90)scale(0.1 -0.1)">
      <use xlink:href="#DejaVuSans-86"/>
      <use x="68.408203" xlink:href="#DejaVuSans-67"/>
      <use x="138.232422" xlink:href="#DejaVuSans-32"/>
      <use x="170.019531" xlink:href="#DejaVuSans-104"/>
      <use x="233.398438" xlink:href="#DejaVuSans-111"/>
      <use x="294.580078" xlink:href="#DejaVuSans-115"/>
      <use x="346.679688" xlink:href="#DejaVuSans-112"/>
      <use x="410.15625" xlink:href="#DejaVuSans-105"/>
      <use x="437.939453" xlink:href="#DejaVuSans-116"/>
      <use x="477.148438" xlink:href="#DejaVuSans-97"/>
      <use x="538.427734" xlink:href="#DejaVuSans-108"/>
      <use x="566.210938" xlink:href="#DejaVuSans-105"/>
      <use x="593.994141" xlink:href="#DejaVuSans-122"/>
      <use x="646.484375" xlink:href="#DejaVuSans-97"/>
      <use x="707.763672" xlink:href="#DejaVuSans-100"/>
      <use x="771.240234" xlink:href="#DejaVuSans-111"/>
      <use x="832.421875" xlink:href="#DejaVuSans-115"/>
      <use x="884.521484" xlink:href="#DejaVuSans-32"/>
      <use x="916.308594" xlink:href="#DejaVuSans-40"/>
      <use x="955.322266" xlink:href="#DejaVuSans-77"/>
      <use x="1041.601562" xlink:href="#DejaVuSans-101"/>
      <use x="1103.125" xlink:href="#DejaVuSans-100"/>
      <use x="1166.601562" xlink:href="#DejaVuSans-105"/>
      <use x="1194.384766" xlink:href="#DejaVuSans-97"/>
      <use x="1255.664062" xlink:href="#DejaVuSans-32"/>
      <use x="1287.451172" xlink:href="#DejaVuSans-51"/>
      <use x="1351.074219" xlink:href="#DejaVuSans-32"/>
      <use x="1382.861328" xlink:href="#DejaVuSans-100"/>
      <use x="1446.337891" xlink:href="#DejaVuSans-237"/>
      <use x="1474.121094" xlink:href="#DejaVuSans-97"/>
      <use x="1535.400391" xlink:href="#DejaVuSans-115"/>
      <use x="1587.5" xlink:href="#DejaVuSans-41"/>
     </g>
    </g>
   </g>
   <g id="line2d_16">
    <path clip-path="url(#pae246d271b)" d="M 68.929711 274.557312 
L 73.258406 271.462573 
L 77.587102 268.80994 
L 81.915797 268.80994 
L 86.244493 269.252045 
L 90.573188 271.020468 
L 94.901884 270.136256 
L 99.230579 273.230996 
L 103.559274 273.230996 
L 107.88797 271.020468 
L 112.216665 267.041517 
L 116.545361 263.504672 
L 120.874056 265.273095 
L 125.202752 267.041517 
L 129.531447 269.694151 
L 133.860142 265.273095 
L 138.188838 255.988877 
L 142.517533 244.936237 
L 146.846229 235.65202 
L 151.174924 232.55728 
L 155.50362 232.55728 
L 159.832315 227.252013 
L 164.16101 213.988845 
L 168.489706 195.42041 
L 172.818401 166.24144 
L 177.147097 137.946682 
L 181.475792 95.504544 
L 185.804488 63.672941 
L 190.133183 43.778188 
L 194.461878 7.967635 
L 195.426746 -1 
M 217.586427 -1 
L 220.434051 33.60976 
L 224.762746 56.599251 
L 229.091442 67.651891 
L 233.420137 69.862419 
L 237.748833 111.420345 
L 242.077528 144.13616 
L 246.406224 177.736186 
L 250.734919 202.051994 
L 255.063614 218.852007 
L 259.39231 238.746759 
L 263.721005 214.873056 
L 268.049701 152.094061 
L 272.378396 94.620333 
L 276.707092 132.199309 
L 281.035787 155.1888 
L 285.364482 162.704595 
L 289.693178 140.15721 
L 294.021873 167.125651 
L 298.350569 187.904615 
L 302.679264 172.430918 
L 307.00796 166.24144 
L 311.336655 181.715136 
L 315.66535 210.009895 
L 319.994046 229.020435 
L 324.322741 240.073076 
L 328.651437 244.936237 
L 332.980132 243.60992 
L 337.308828 237.420442 
L 341.637523 241.399392 
L 345.966218 249.799399 
L 350.294914 253.778349 
L 354.623609 251.567821 
L 358.952305 244.494132 
L 363.281 244.052026 
L 367.609696 242.283604 
L 371.938391 245.378343 
L 376.267086 252.894138 
L 380.595782 260.409933 
L 384.924477 258.641511 
L 389.253173 247.588871 
L 393.581868 239.188864 
L 397.910564 234.767808 
L 402.239259 249.799399 
L 406.567954 260.852039 
L 410.89665 272.78889 
L 415.225345 264.830989 
L 419.554041 255.546772 
L 423.882736 251.125716 
L 428.211432 251.125716 
" style="fill:none;stroke:#1f77b4;stroke-linecap:square;stroke-width:1.5;"/>
    <defs>
     <path d="M 0 1.5 
C 0.397805 1.5 0.77937 1.341951 1.06066 1.06066 
C 1.341951 0.77937 1.5 0.397805 1.5 0 
C 1.5 -0.397805 1.341951 -0.77937 1.06066 -1.06066 
C 0.77937 -1.341951 0.397805 -1.5 0 -1.5 
C -0.397805 -1.5 -0.77937 -1.341951 -1.06066 -1.06066 
C -1.341951 -0.77937 -1.5 -0.397805 -1.5 0 
C -1.5 0.397805 -1.341951 0.77937 -1.06066 1.06066 
C -0.77937 1.341951 -0.397805 1.5 0 1.5 
z
" id="m1489006487" style="stroke:#1f77b4;"/>
    </defs>
    <g clip-path="url(#pae246d271b)">
     <use style="fill:#1f77b4;stroke:#1f77b4;" x="68.929711" xlink:href="#m1489006487" y="274.557312"/>
     <use style="fill:#1f77b4;stroke:#1f77b4;" x="73.258406" xlink:href="#m1489006487" y="271.462573"/>
     <use style="fill:#1f77b4;stroke:#1f77b4;" x="77.587102" xlink:href="#m1489006487" y="268.80994"/>
     <use style="fill:#1f77b4;stroke:#1f77b4;" x="81.915797" xlink:href="#m1489006487" y="268.80994"/>
     <use style="fill:#1f77b4;stroke:#1f77b4;" x="86.244493" xlink:href="#m1489006487" y="269.252045"/>
     <use style="fill:#1f77b4;stroke:#1f77b4;" x="90.573188" xlink:href="#m1489006487" y="271.020468"/>
     <use style="fill:#1f77b4;stroke:#1f77b4;" x="94.901884" xlink:href="#m1489006487" y="270.136256"/>
     <use style="fill:#1f77b4;stroke:#1f77b4;" x="99.230579" xlink:href="#m1489006487" y="273.230996"/>
     <use style="fill:#1f77b4;stroke:#1f77b4;" x="103.559274" xlink:href="#m1489006487" y="273.230996"/>
     <use style="fill:#1f77b4;stroke:#1f77b4;" x="107.88797" xlink:href="#m1489006487" y="271.020468"/>
     <use style="fill:#1f77b4;stroke:#1f77b4;" x="112.216665" xlink:href="#m1489006487" y="267.041517"/>
     <use style="fill:#1f77b4;stroke:#1f77b4;" x="116.545361" xlink:href="#m1489006487" y="263.504672"/>
     <use style="fill:#1f77b4;stroke:#1f77b4;" x="120.874056" xlink:href="#m1489006487" y="265.273095"/>
     <use style="fill:#1f77b4;stroke:#1f77b4;" x="125.202752" xlink:href="#m1489006487" y="267.041517"/>
     <use style="fill:#1f77b4;stroke:#1f77b4;" x="129.531447" xlink:href="#m1489006487" y="269.694151"/>
     <use style="fill:#1f77b4;stroke:#1f77b4;" x="133.860142" xlink:href="#m1489006487" y="265.273095"/>
     <use style="fill:#1f77b4;stroke:#1f77b4;" x="138.188838" xlink:href="#m1489006487" y="255.988877"/>
     <use style="fill:#1f77b4;stroke:#1f77b4;" x="142.517533" xlink:href="#m1489006487" y="244.936237"/>
     <use style="fill:#1f77b4;stroke:#1f77b4;" x="146.846229" xlink:href="#m1489006487" y="235.65202"/>
     <use style="fill:#1f77b4;stroke:#1f77b4;" x="151.174924" xlink:href="#m1489006487" y="232.55728"/>
     <use style="fill:#1f77b4;stroke:#1f77b4;" x="155.50362" xlink:href="#m1489006487" y="232.55728"/>
     <use style="fill:#1f77b4;stroke:#1f77b4;" x="159.832315" xlink:href="#m1489006487" y="227.252013"/>
     <use style="fill:#1f77b4;stroke:#1f77b4;" x="164.16101" xlink:href="#m1489006487" y="213.988845"/>
     <use style="fill:#1f77b4;stroke:#1f77b4;" x="168.489706" xlink:href="#m1489006487" y="195.42041"/>
     <use style="fill:#1f77b4;stroke:#1f77b4;" x="172.818401" xlink:href="#m1489006487" y="166.24144"/>
     <use style="fill:#1f77b4;stroke:#1f77b4;" x="177.147097" xlink:href="#m1489006487" y="137.946682"/>
     <use style="fill:#1f77b4;stroke:#1f77b4;" x="181.475792" xlink:href="#m1489006487" y="95.504544"/>
     <use style="fill:#1f77b4;stroke:#1f77b4;" x="185.804488" xlink:href="#m1489006487" y="63.672941"/>
     <use style="fill:#1f77b4;stroke:#1f77b4;" x="190.133183" xlink:href="#m1489006487" y="43.778188"/>
     <use style="fill:#1f77b4;stroke:#1f77b4;" x="194.461878" xlink:href="#m1489006487" y="7.967635"/>
     <use style="fill:#1f77b4;stroke:#1f77b4;" x="195.426746" xlink:href="#m1489006487" y="-1"/>
     <use style="fill:#1f77b4;stroke:#1f77b4;" x="217.586427" xlink:href="#m1489006487" y="-1"/>
     <use style="fill:#1f77b4;stroke:#1f77b4;" x="220.434051" xlink:href="#m1489006487" y="33.60976"/>
     <use style="fill:#1f77b4;stroke:#1f77b4;" x="224.762746" xlink:href="#m1489006487" y="56.599251"/>
     <use style="fill:#1f77b4;stroke:#1f77b4;" x="229.091442" xlink:href="#m1489006487" y="67.651891"/>
     <use style="fill:#1f77b4;stroke:#1f77b4;" x="233.420137" xlink:href="#m1489006487" y="69.862419"/>
     <use style="fill:#1f77b4;stroke:#1f77b4;" x="237.748833" xlink:href="#m1489006487" y="111.420345"/>
     <use style="fill:#1f77b4;stroke:#1f77b4;" x="242.077528" xlink:href="#m1489006487" y="144.13616"/>
     <use style="fill:#1f77b4;stroke:#1f77b4;" x="246.406224" xlink:href="#m1489006487" y="177.736186"/>
     <use style="fill:#1f77b4;stroke:#1f77b4;" x="250.734919" xlink:href="#m1489006487" y="202.051994"/>
     <use style="fill:#1f77b4;stroke:#1f77b4;" x="255.063614" xlink:href="#m1489006487" y="218.852007"/>
     <use style="fill:#1f77b4;stroke:#1f77b4;" x="259.39231" xlink:href="#m1489006487" y="238.746759"/>
     <use style="fill:#1f77b4;stroke:#1f77b4;" x="263.721005" xlink:href="#m1489006487" y="214.873056"/>
     <use style="fill:#1f77b4;stroke:#1f77b4;" x="268.049701" xlink:href="#m1489006487" y="152.094061"/>
     <use style="fill:#1f77b4;stroke:#1f77b4;" x="272.378396" xlink:href="#m1489006487" y="94.620333"/>
     <use style="fill:#1f77b4;stroke:#1f77b4;" x="276.707092" xlink:href="#m1489006487" y="132.199309"/>
     <use style="fill:#1f77b4;stroke:#1f77b4;" x="281.035787" xlink:href="#m1489006487" y="155.1888"/>
     <use style="fill:#1f77b4;stroke:#1f77b4;" x="285.364482" xlink:href="#m1489006487" y="162.704595"/>
     <use style="fill:#1f77b4;stroke:#1f77b4;" x="289.693178" xlink:href="#m1489006487" y="140.15721"/>
     <use style="fill:#1f77b4;stroke:#1f77b4;" x="294.021873" xlink:href="#m1489006487" y="167.125651"/>
     <use style="fill:#1f77b4;stroke:#1f77b4;" x="298.350569" xlink:href="#m1489006487" y="187.904615"/>
     <use style="fill:#1f77b4;stroke:#1f77b4;" x="302.679264" xlink:href="#m1489006487" y="172.430918"/>
     <use style="fill:#1f77b4;stroke:#1f77b4;" x="307.00796" xlink:href="#m1489006487" y="166.24144"/>
     <use style="fill:#1f77b4;stroke:#1f77b4;" x="311.336655" xlink:href="#m1489006487" y="181.715136"/>
     <use style="fill:#1f77b4;stroke:#1f77b4;" x="315.66535" xlink:href="#m1489006487" y="210.009895"/>
     <use style="fill:#1f77b4;stroke:#1f77b4;" x="319.994046" xlink:href="#m1489006487" y="229.020435"/>
     <use style="fill:#1f77b4;stroke:#1f77b4;" x="324.322741" xlink:href="#m1489006487" y="240.073076"/>
     <use style="fill:#1f77b4;stroke:#1f77b4;" x="328.651437" xlink:href="#m1489006487" y="244.936237"/>
     <use style="fill:#1f77b4;stroke:#1f77b4;" x="332.980132" xlink:href="#m1489006487" y="243.60992"/>
     <use style="fill:#1f77b4;stroke:#1f77b4;" x="337.308828" xlink:href="#m1489006487" y="237.420442"/>
     <use style="fill:#1f77b4;stroke:#1f77b4;" x="341.637523" xlink:href="#m1489006487" y="241.399392"/>
     <use style="fill:#1f77b4;stroke:#1f77b4;" x="345.966218" xlink:href="#m1489006487" y="249.799399"/>
     <use style="fill:#1f77b4;stroke:#1f77b4;" x="350.294914" xlink:href="#m1489006487" y="253.778349"/>
     <use style="fill:#1f77b4;stroke:#1f77b4;" x="354.623609" xlink:href="#m1489006487" y="251.567821"/>
     <use style="fill:#1f77b4;stroke:#1f77b4;" x="358.952305" xlink:href="#m1489006487" y="244.494132"/>
     <use style="fill:#1f77b4;stroke:#1f77b4;" x="363.281" xlink:href="#m1489006487" y="244.052026"/>
     <use style="fill:#1f77b4;stroke:#1f77b4;" x="367.609696" xlink:href="#m1489006487" y="242.283604"/>
     <use style="fill:#1f77b4;stroke:#1f77b4;" x="371.938391" xlink:href="#m1489006487" y="245.378343"/>
     <use style="fill:#1f77b4;stroke:#1f77b4;" x="376.267086" xlink:href="#m1489006487" y="252.894138"/>
     <use style="fill:#1f77b4;stroke:#1f77b4;" x="380.595782" xlink:href="#m1489006487" y="260.409933"/>
     <use style="fill:#1f77b4;stroke:#1f77b4;" x="384.924477" xlink:href="#m1489006487" y="258.641511"/>
     <use style="fill:#1f77b4;stroke:#1f77b4;" x="389.253173" xlink:href="#m1489006487" y="247.588871"/>
     <use style="fill:#1f77b4;stroke:#1f77b4;" x="393.581868" xlink:href="#m1489006487" y="239.188864"/>
     <use style="fill:#1f77b4;stroke:#1f77b4;" x="397.910564" xlink:href="#m1489006487" y="234.767808"/>
     <use style="fill:#1f77b4;stroke:#1f77b4;" x="402.239259" xlink:href="#m1489006487" y="249.799399"/>
     <use style="fill:#1f77b4;stroke:#1f77b4;" x="406.567954" xlink:href="#m1489006487" y="260.852039"/>
     <use style="fill:#1f77b4;stroke:#1f77b4;" x="410.89665" xlink:href="#m1489006487" y="272.78889"/>
     <use style="fill:#1f77b4;stroke:#1f77b4;" x="415.225345" xlink:href="#m1489006487" y="264.830989"/>
     <use style="fill:#1f77b4;stroke:#1f77b4;" x="419.554041" xlink:href="#m1489006487" y="255.546772"/>
     <use style="fill:#1f77b4;stroke:#1f77b4;" x="423.882736" xlink:href="#m1489006487" y="251.125716"/>
     <use style="fill:#1f77b4;stroke:#1f77b4;" x="428.211432" xlink:href="#m1489006487" y="251.125716"/>
    </g>
   </g>
   <g id="patch_3">
    <path d="M 50.965625 279.86258 
L 50.965625 14.599219 
" style="fill:none;stroke:#000000;stroke-linecap:square;stroke-linejoin:miter;stroke-width:0.8;"/>
   </g>
   <g id="patch_4">
    <path d="M 446.175518 279.86258 
L 446.175518 14.599219 
" style="fill:none;stroke:#000000;stroke-linecap:square;stroke-linejoin:miter;stroke-width:0.8;"/>
   </g>
   <g id="patch_5">
    <path d="M 50.965625 279.86258 
L 446.175518 279.86258 
" style="fill:none;stroke:#000000;stroke-linecap:square;stroke-linejoin:miter;stroke-width:0.8;"/>
   </g>
   <g id="patch_6">
    <path d="M 50.965625 14.599219 
L 446.175518 14.599219 
" style="fill:none;stroke:#000000;stroke-linecap:square;stroke-linejoin:miter;stroke-width:0.8;"/>
   </g>
  </g>
 </g>
 <defs>
  <clipPath id="pae246d271b">
   <rect height="265.263361" width="395.209893" x="50.965625" y="14.599219"/>
  </clipPath>
 </defs>
</svg>
