<?xml version="1.0" encoding="utf-8" standalone="no"?>
<!DOCTYPE svg PUBLIC "-//W3C//DTD SVG 1.1//EN"
  "http://www.w3.org/Graphics/SVG/1.1/DTD/svg11.dtd">
<!-- Created with matplotlib (https://matplotlib.org/) -->
<svg height="345.6pt" version="1.1" viewBox="0 0 460.8 345.6" width="460.8pt" xmlns="http://www.w3.org/2000/svg" xmlns:xlink="http://www.w3.org/1999/xlink">
 <defs>
  <style type="text/css">
*{stroke-linecap:butt;stroke-linejoin:round;}
  </style>
 </defs>
 <g id="figure_1">
  <g id="patch_1">
   <path d="M 0 345.6 
L 460.8 345.6 
L 460.8 0 
L 0 0 
z
" style="fill:#ffffff;"/>
  </g>
  <g id="axes_1">
   <g id="patch_2">
    <path d="M 50.565625 279.86258 
L 450 279.86258 
L 450 11.425271 
L 50.565625 11.425271 
z
" style="fill:#ffffff;"/>
   </g>
   <g id="matplotlib.axis_1">
    <g id="xtick_1">
     <g id="line2d_1">
      <defs>
       <path d="M 0 0 
L 0 3.5 
" id="m6e20fc4931" style="stroke:#000000;stroke-width:0.8;"/>
      </defs>
      <g>
       <use style="stroke:#000000;stroke-width:0.8;" x="110.09008" xlink:href="#m6e20fc4931" y="279.86258"/>
      </g>
     </g>
     <g id="text_1">
      <!-- 2020-03-01 -->
      <defs>
       <path d="M 19.1875 8.296875 
L 53.609375 8.296875 
L 53.609375 0 
L 7.328125 0 
L 7.328125 8.296875 
Q 12.9375 14.109375 22.625 23.890625 
Q 32.328125 33.6875 34.8125 36.53125 
Q 39.546875 41.84375 41.421875 45.53125 
Q 43.3125 49.21875 43.3125 52.78125 
Q 43.3125 58.59375 39.234375 62.25 
Q 35.15625 65.921875 28.609375 65.921875 
Q 23.96875 65.921875 18.8125 64.3125 
Q 13.671875 62.703125 7.8125 59.421875 
L 7.8125 69.390625 
Q 13.765625 71.78125 18.9375 73 
Q 24.125 74.21875 28.421875 74.21875 
Q 39.75 74.21875 46.484375 68.546875 
Q 53.21875 62.890625 53.21875 53.421875 
Q 53.21875 48.921875 51.53125 44.890625 
Q 49.859375 40.875 45.40625 35.40625 
Q 44.1875 33.984375 37.640625 27.21875 
Q 31.109375 20.453125 19.1875 8.296875 
z
" id="DejaVuSans-50"/>
       <path d="M 31.78125 66.40625 
Q 24.171875 66.40625 20.328125 58.90625 
Q 16.5 51.421875 16.5 36.375 
Q 16.5 21.390625 20.328125 13.890625 
Q 24.171875 6.390625 31.78125 6.390625 
Q 39.453125 6.390625 43.28125 13.890625 
Q 47.125 21.390625 47.125 36.375 
Q 47.125 51.421875 43.28125 58.90625 
Q 39.453125 66.40625 31.78125 66.40625 
z
M 31.78125 74.21875 
Q 44.046875 74.21875 50.515625 64.515625 
Q 56.984375 54.828125 56.984375 36.375 
Q 56.984375 17.96875 50.515625 8.265625 
Q 44.046875 -1.421875 31.78125 -1.421875 
Q 19.53125 -1.421875 13.0625 8.265625 
Q 6.59375 17.96875 6.59375 36.375 
Q 6.59375 54.828125 13.0625 64.515625 
Q 19.53125 74.21875 31.78125 74.21875 
z
" id="DejaVuSans-48"/>
       <path d="M 4.890625 31.390625 
L 31.203125 31.390625 
L 31.203125 23.390625 
L 4.890625 23.390625 
z
" id="DejaVuSans-45"/>
       <path d="M 40.578125 39.3125 
Q 47.65625 37.796875 51.625 33 
Q 55.609375 28.21875 55.609375 21.1875 
Q 55.609375 10.40625 48.1875 4.484375 
Q 40.765625 -1.421875 27.09375 -1.421875 
Q 22.515625 -1.421875 17.65625 -0.515625 
Q 12.796875 0.390625 7.625 2.203125 
L 7.625 11.71875 
Q 11.71875 9.328125 16.59375 8.109375 
Q 21.484375 6.890625 26.8125 6.890625 
Q 36.078125 6.890625 40.9375 10.546875 
Q 45.796875 14.203125 45.796875 21.1875 
Q 45.796875 27.640625 41.28125 31.265625 
Q 36.765625 34.90625 28.71875 34.90625 
L 20.21875 34.90625 
L 20.21875 43.015625 
L 29.109375 43.015625 
Q 36.375 43.015625 40.234375 45.921875 
Q 44.09375 48.828125 44.09375 54.296875 
Q 44.09375 59.90625 40.109375 62.90625 
Q 36.140625 65.921875 28.71875 65.921875 
Q 24.65625 65.921875 20.015625 65.03125 
Q 15.375 64.15625 9.8125 62.3125 
L 9.8125 71.09375 
Q 15.4375 72.65625 20.34375 73.4375 
Q 25.25 74.21875 29.59375 74.21875 
Q 40.828125 74.21875 47.359375 69.109375 
Q 53.90625 64.015625 53.90625 55.328125 
Q 53.90625 49.265625 50.4375 45.09375 
Q 46.96875 40.921875 40.578125 39.3125 
z
" id="DejaVuSans-51"/>
       <path d="M 12.40625 8.296875 
L 28.515625 8.296875 
L 28.515625 63.921875 
L 10.984375 60.40625 
L 10.984375 69.390625 
L 28.421875 72.90625 
L 38.28125 72.90625 
L 38.28125 8.296875 
L 54.390625 8.296875 
L 54.390625 0 
L 12.40625 0 
z
" id="DejaVuSans-49"/>
      </defs>
      <g transform="translate(91.494277 333.329439)rotate(-45)scale(0.1 -0.1)">
       <use xlink:href="#DejaVuSans-50"/>
       <use x="63.623047" xlink:href="#DejaVuSans-48"/>
       <use x="127.246094" xlink:href="#DejaVuSans-50"/>
       <use x="190.869141" xlink:href="#DejaVuSans-48"/>
       <use x="254.492188" xlink:href="#DejaVuSans-45"/>
       <use x="290.576172" xlink:href="#DejaVuSans-48"/>
       <use x="354.199219" xlink:href="#DejaVuSans-51"/>
       <use x="417.822266" xlink:href="#DejaVuSans-45"/>
       <use x="453.90625" xlink:href="#DejaVuSans-48"/>
       <use x="517.529297" xlink:href="#DejaVuSans-49"/>
      </g>
     </g>
    </g>
    <g id="xtick_2">
     <g id="line2d_2">
      <g>
       <use style="stroke:#000000;stroke-width:0.8;" x="174.440843" xlink:href="#m6e20fc4931" y="279.86258"/>
      </g>
     </g>
     <g id="text_2">
      <!-- 2020-03-15 -->
      <defs>
       <path d="M 10.796875 72.90625 
L 49.515625 72.90625 
L 49.515625 64.59375 
L 19.828125 64.59375 
L 19.828125 46.734375 
Q 21.96875 47.46875 24.109375 47.828125 
Q 26.265625 48.1875 28.421875 48.1875 
Q 40.625 48.1875 47.75 41.5 
Q 54.890625 34.8125 54.890625 23.390625 
Q 54.890625 11.625 47.5625 5.09375 
Q 40.234375 -1.421875 26.90625 -1.421875 
Q 22.3125 -1.421875 17.546875 -0.640625 
Q 12.796875 0.140625 7.71875 1.703125 
L 7.71875 11.625 
Q 12.109375 9.234375 16.796875 8.0625 
Q 21.484375 6.890625 26.703125 6.890625 
Q 35.15625 6.890625 40.078125 11.328125 
Q 45.015625 15.765625 45.015625 23.390625 
Q 45.015625 31 40.078125 35.4375 
Q 35.15625 39.890625 26.703125 39.890625 
Q 22.75 39.890625 18.8125 39.015625 
Q 14.890625 38.140625 10.796875 36.28125 
z
" id="DejaVuSans-53"/>
      </defs>
      <g transform="translate(155.845039 333.329439)rotate(-45)scale(0.1 -0.1)">
       <use xlink:href="#DejaVuSans-50"/>
       <use x="63.623047" xlink:href="#DejaVuSans-48"/>
       <use x="127.246094" xlink:href="#DejaVuSans-50"/>
       <use x="190.869141" xlink:href="#DejaVuSans-48"/>
       <use x="254.492188" xlink:href="#DejaVuSans-45"/>
       <use x="290.576172" xlink:href="#DejaVuSans-48"/>
       <use x="354.199219" xlink:href="#DejaVuSans-51"/>
       <use x="417.822266" xlink:href="#DejaVuSans-45"/>
       <use x="453.90625" xlink:href="#DejaVuSans-49"/>
       <use x="517.529297" xlink:href="#DejaVuSans-53"/>
      </g>
     </g>
    </g>
    <g id="xtick_3">
     <g id="line2d_3">
      <g>
       <use style="stroke:#000000;stroke-width:0.8;" x="252.581054" xlink:href="#m6e20fc4931" y="279.86258"/>
      </g>
     </g>
     <g id="text_3">
      <!-- 2020-04-01 -->
      <defs>
       <path d="M 37.796875 64.3125 
L 12.890625 25.390625 
L 37.796875 25.390625 
z
M 35.203125 72.90625 
L 47.609375 72.90625 
L 47.609375 25.390625 
L 58.015625 25.390625 
L 58.015625 17.1875 
L 47.609375 17.1875 
L 47.609375 0 
L 37.796875 0 
L 37.796875 17.1875 
L 4.890625 17.1875 
L 4.890625 26.703125 
z
" id="DejaVuSans-52"/>
      </defs>
      <g transform="translate(233.985251 333.329439)rotate(-45)scale(0.1 -0.1)">
       <use xlink:href="#DejaVuSans-50"/>
       <use x="63.623047" xlink:href="#DejaVuSans-48"/>
       <use x="127.246094" xlink:href="#DejaVuSans-50"/>
       <use x="190.869141" xlink:href="#DejaVuSans-48"/>
       <use x="254.492188" xlink:href="#DejaVuSans-45"/>
       <use x="290.576172" xlink:href="#DejaVuSans-48"/>
       <use x="354.199219" xlink:href="#DejaVuSans-52"/>
       <use x="417.822266" xlink:href="#DejaVuSans-45"/>
       <use x="453.90625" xlink:href="#DejaVuSans-48"/>
       <use x="517.529297" xlink:href="#DejaVuSans-49"/>
      </g>
     </g>
    </g>
    <g id="xtick_4">
     <g id="line2d_4">
      <g>
       <use style="stroke:#000000;stroke-width:0.8;" x="316.931816" xlink:href="#m6e20fc4931" y="279.86258"/>
      </g>
     </g>
     <g id="text_4">
      <!-- 2020-04-15 -->
      <g transform="translate(298.336013 333.329439)rotate(-45)scale(0.1 -0.1)">
       <use xlink:href="#DejaVuSans-50"/>
       <use x="63.623047" xlink:href="#DejaVuSans-48"/>
       <use x="127.246094" xlink:href="#DejaVuSans-50"/>
       <use x="190.869141" xlink:href="#DejaVuSans-48"/>
       <use x="254.492188" xlink:href="#DejaVuSans-45"/>
       <use x="290.576172" xlink:href="#DejaVuSans-48"/>
       <use x="354.199219" xlink:href="#DejaVuSans-52"/>
       <use x="417.822266" xlink:href="#DejaVuSans-45"/>
       <use x="453.90625" xlink:href="#DejaVuSans-49"/>
       <use x="517.529297" xlink:href="#DejaVuSans-53"/>
      </g>
     </g>
    </g>
    <g id="xtick_5">
     <g id="line2d_5">
      <g>
       <use style="stroke:#000000;stroke-width:0.8;" x="390.475545" xlink:href="#m6e20fc4931" y="279.86258"/>
      </g>
     </g>
     <g id="text_5">
      <!-- 2020-05-01 -->
      <g transform="translate(371.879741 333.329439)rotate(-45)scale(0.1 -0.1)">
       <use xlink:href="#DejaVuSans-50"/>
       <use x="63.623047" xlink:href="#DejaVuSans-48"/>
       <use x="127.246094" xlink:href="#DejaVuSans-50"/>
       <use x="190.869141" xlink:href="#DejaVuSans-48"/>
       <use x="254.492188" xlink:href="#DejaVuSans-45"/>
       <use x="290.576172" xlink:href="#DejaVuSans-48"/>
       <use x="354.199219" xlink:href="#DejaVuSans-53"/>
       <use x="417.822266" xlink:href="#DejaVuSans-45"/>
       <use x="453.90625" xlink:href="#DejaVuSans-48"/>
       <use x="517.529297" xlink:href="#DejaVuSans-49"/>
      </g>
     </g>
    </g>
   </g>
   <g id="matplotlib.axis_2">
    <g id="ytick_1">
     <g id="line2d_6">
      <defs>
       <path d="M 0 0 
L -3.5 0 
" id="m1081c00581" style="stroke:#000000;stroke-width:0.8;"/>
      </defs>
      <g>
       <use style="stroke:#000000;stroke-width:0.8;" x="50.565625" xlink:href="#m1081c00581" y="267.660884"/>
      </g>
     </g>
     <g id="text_6">
      <!-- 0 -->
      <g transform="translate(37.203125 271.460103)scale(0.1 -0.1)">
       <use xlink:href="#DejaVuSans-48"/>
      </g>
     </g>
    </g>
    <g id="ytick_2">
     <g id="line2d_7">
      <g>
       <use style="stroke:#000000;stroke-width:0.8;" x="50.565625" xlink:href="#m1081c00581" y="236.031642"/>
      </g>
     </g>
     <g id="text_7">
      <!-- 50 -->
      <g transform="translate(30.840625 239.830861)scale(0.1 -0.1)">
       <use xlink:href="#DejaVuSans-53"/>
       <use x="63.623047" xlink:href="#DejaVuSans-48"/>
      </g>
     </g>
    </g>
    <g id="ytick_3">
     <g id="line2d_8">
      <g>
       <use style="stroke:#000000;stroke-width:0.8;" x="50.565625" xlink:href="#m1081c00581" y="204.402401"/>
      </g>
     </g>
     <g id="text_8">
      <!-- 100 -->
      <g transform="translate(24.478125 208.20162)scale(0.1 -0.1)">
       <use xlink:href="#DejaVuSans-49"/>
       <use x="63.623047" xlink:href="#DejaVuSans-48"/>
       <use x="127.246094" xlink:href="#DejaVuSans-48"/>
      </g>
     </g>
    </g>
    <g id="ytick_4">
     <g id="line2d_9">
      <g>
       <use style="stroke:#000000;stroke-width:0.8;" x="50.565625" xlink:href="#m1081c00581" y="172.77316"/>
      </g>
     </g>
     <g id="text_9">
      <!-- 150 -->
      <g transform="translate(24.478125 176.572379)scale(0.1 -0.1)">
       <use xlink:href="#DejaVuSans-49"/>
       <use x="63.623047" xlink:href="#DejaVuSans-53"/>
       <use x="127.246094" xlink:href="#DejaVuSans-48"/>
      </g>
     </g>
    </g>
    <g id="ytick_5">
     <g id="line2d_10">
      <g>
       <use style="stroke:#000000;stroke-width:0.8;" x="50.565625" xlink:href="#m1081c00581" y="141.143918"/>
      </g>
     </g>
     <g id="text_10">
      <!-- 200 -->
      <g transform="translate(24.478125 144.943137)scale(0.1 -0.1)">
       <use xlink:href="#DejaVuSans-50"/>
       <use x="63.623047" xlink:href="#DejaVuSans-48"/>
       <use x="127.246094" xlink:href="#DejaVuSans-48"/>
      </g>
     </g>
    </g>
    <g id="ytick_6">
     <g id="line2d_11">
      <g>
       <use style="stroke:#000000;stroke-width:0.8;" x="50.565625" xlink:href="#m1081c00581" y="109.514677"/>
      </g>
     </g>
     <g id="text_11">
      <!-- 250 -->
      <g transform="translate(24.478125 113.313896)scale(0.1 -0.1)">
       <use xlink:href="#DejaVuSans-50"/>
       <use x="63.623047" xlink:href="#DejaVuSans-53"/>
       <use x="127.246094" xlink:href="#DejaVuSans-48"/>
      </g>
     </g>
    </g>
    <g id="ytick_7">
     <g id="line2d_12">
      <g>
       <use style="stroke:#000000;stroke-width:0.8;" x="50.565625" xlink:href="#m1081c00581" y="77.885436"/>
      </g>
     </g>
     <g id="text_12">
      <!-- 300 -->
      <g transform="translate(24.478125 81.684654)scale(0.1 -0.1)">
       <use xlink:href="#DejaVuSans-51"/>
       <use x="63.623047" xlink:href="#DejaVuSans-48"/>
       <use x="127.246094" xlink:href="#DejaVuSans-48"/>
      </g>
     </g>
    </g>
    <g id="ytick_8">
     <g id="line2d_13">
      <g>
       <use style="stroke:#000000;stroke-width:0.8;" x="50.565625" xlink:href="#m1081c00581" y="46.256194"/>
      </g>
     </g>
     <g id="text_13">
      <!-- 350 -->
      <g transform="translate(24.478125 50.055413)scale(0.1 -0.1)">
       <use xlink:href="#DejaVuSans-51"/>
       <use x="63.623047" xlink:href="#DejaVuSans-53"/>
       <use x="127.246094" xlink:href="#DejaVuSans-48"/>
      </g>
     </g>
    </g>
    <g id="ytick_9">
     <g id="line2d_14">
      <g>
       <use style="stroke:#000000;stroke-width:0.8;" x="50.565625" xlink:href="#m1081c00581" y="14.626953"/>
      </g>
     </g>
     <g id="text_14">
      <!-- 400 -->
      <g transform="translate(24.478125 18.426172)scale(0.1 -0.1)">
       <use xlink:href="#DejaVuSans-52"/>
       <use x="63.623047" xlink:href="#DejaVuSans-48"/>
       <use x="127.246094" xlink:href="#DejaVuSans-48"/>
      </g>
     </g>
    </g>
    <g id="text_15">
     <!-- CB pcr (por 100000 hab.) acumulados -->
     <defs>
      <path d="M 64.40625 67.28125 
L 64.40625 56.890625 
Q 59.421875 61.53125 53.78125 63.8125 
Q 48.140625 66.109375 41.796875 66.109375 
Q 29.296875 66.109375 22.65625 58.46875 
Q 16.015625 50.828125 16.015625 36.375 
Q 16.015625 21.96875 22.65625 14.328125 
Q 29.296875 6.6875 41.796875 6.6875 
Q 48.140625 6.6875 53.78125 8.984375 
Q 59.421875 11.28125 64.40625 15.921875 
L 64.40625 5.609375 
Q 59.234375 2.09375 53.4375 0.328125 
Q 47.65625 -1.421875 41.21875 -1.421875 
Q 24.65625 -1.421875 15.125 8.703125 
Q 5.609375 18.84375 5.609375 36.375 
Q 5.609375 53.953125 15.125 64.078125 
Q 24.65625 74.21875 41.21875 74.21875 
Q 47.75 74.21875 53.53125 72.484375 
Q 59.328125 70.75 64.40625 67.28125 
z
" id="DejaVuSans-67"/>
      <path d="M 19.671875 34.8125 
L 19.671875 8.109375 
L 35.5 8.109375 
Q 43.453125 8.109375 47.28125 11.40625 
Q 51.125 14.703125 51.125 21.484375 
Q 51.125 28.328125 47.28125 31.5625 
Q 43.453125 34.8125 35.5 34.8125 
z
M 19.671875 64.796875 
L 19.671875 42.828125 
L 34.28125 42.828125 
Q 41.5 42.828125 45.03125 45.53125 
Q 48.578125 48.25 48.578125 53.8125 
Q 48.578125 59.328125 45.03125 62.0625 
Q 41.5 64.796875 34.28125 64.796875 
z
M 9.8125 72.90625 
L 35.015625 72.90625 
Q 46.296875 72.90625 52.390625 68.21875 
Q 58.5 63.53125 58.5 54.890625 
Q 58.5 48.1875 55.375 44.234375 
Q 52.25 40.28125 46.1875 39.3125 
Q 53.46875 37.75 57.5 32.78125 
Q 61.53125 27.828125 61.53125 20.40625 
Q 61.53125 10.640625 54.890625 5.3125 
Q 48.25 0 35.984375 0 
L 9.8125 0 
z
" id="DejaVuSans-66"/>
      <path id="DejaVuSans-32"/>
      <path d="M 18.109375 8.203125 
L 18.109375 -20.796875 
L 9.078125 -20.796875 
L 9.078125 54.6875 
L 18.109375 54.6875 
L 18.109375 46.390625 
Q 20.953125 51.265625 25.265625 53.625 
Q 29.59375 56 35.59375 56 
Q 45.5625 56 51.78125 48.09375 
Q 58.015625 40.1875 58.015625 27.296875 
Q 58.015625 14.40625 51.78125 6.484375 
Q 45.5625 -1.421875 35.59375 -1.421875 
Q 29.59375 -1.421875 25.265625 0.953125 
Q 20.953125 3.328125 18.109375 8.203125 
z
M 48.6875 27.296875 
Q 48.6875 37.203125 44.609375 42.84375 
Q 40.53125 48.484375 33.40625 48.484375 
Q 26.265625 48.484375 22.1875 42.84375 
Q 18.109375 37.203125 18.109375 27.296875 
Q 18.109375 17.390625 22.1875 11.75 
Q 26.265625 6.109375 33.40625 6.109375 
Q 40.53125 6.109375 44.609375 11.75 
Q 48.6875 17.390625 48.6875 27.296875 
z
" id="DejaVuSans-112"/>
      <path d="M 48.78125 52.59375 
L 48.78125 44.1875 
Q 44.96875 46.296875 41.140625 47.34375 
Q 37.3125 48.390625 33.40625 48.390625 
Q 24.65625 48.390625 19.8125 42.84375 
Q 14.984375 37.3125 14.984375 27.296875 
Q 14.984375 17.28125 19.8125 11.734375 
Q 24.65625 6.203125 33.40625 6.203125 
Q 37.3125 6.203125 41.140625 7.25 
Q 44.96875 8.296875 48.78125 10.40625 
L 48.78125 2.09375 
Q 45.015625 0.34375 40.984375 -0.53125 
Q 36.96875 -1.421875 32.421875 -1.421875 
Q 20.0625 -1.421875 12.78125 6.34375 
Q 5.515625 14.109375 5.515625 27.296875 
Q 5.515625 40.671875 12.859375 48.328125 
Q 20.21875 56 33.015625 56 
Q 37.15625 56 41.109375 55.140625 
Q 45.0625 54.296875 48.78125 52.59375 
z
" id="DejaVuSans-99"/>
      <path d="M 41.109375 46.296875 
Q 39.59375 47.171875 37.8125 47.578125 
Q 36.03125 48 33.890625 48 
Q 26.265625 48 22.1875 43.046875 
Q 18.109375 38.09375 18.109375 28.8125 
L 18.109375 0 
L 9.078125 0 
L 9.078125 54.6875 
L 18.109375 54.6875 
L 18.109375 46.1875 
Q 20.953125 51.171875 25.484375 53.578125 
Q 30.03125 56 36.53125 56 
Q 37.453125 56 38.578125 55.875 
Q 39.703125 55.765625 41.0625 55.515625 
z
" id="DejaVuSans-114"/>
      <path d="M 31 75.875 
Q 24.46875 64.65625 21.28125 53.65625 
Q 18.109375 42.671875 18.109375 31.390625 
Q 18.109375 20.125 21.3125 9.0625 
Q 24.515625 -2 31 -13.1875 
L 23.1875 -13.1875 
Q 15.875 -1.703125 12.234375 9.375 
Q 8.59375 20.453125 8.59375 31.390625 
Q 8.59375 42.28125 12.203125 53.3125 
Q 15.828125 64.359375 23.1875 75.875 
z
" id="DejaVuSans-40"/>
      <path d="M 30.609375 48.390625 
Q 23.390625 48.390625 19.1875 42.75 
Q 14.984375 37.109375 14.984375 27.296875 
Q 14.984375 17.484375 19.15625 11.84375 
Q 23.34375 6.203125 30.609375 6.203125 
Q 37.796875 6.203125 41.984375 11.859375 
Q 46.1875 17.53125 46.1875 27.296875 
Q 46.1875 37.015625 41.984375 42.703125 
Q 37.796875 48.390625 30.609375 48.390625 
z
M 30.609375 56 
Q 42.328125 56 49.015625 48.375 
Q 55.71875 40.765625 55.71875 27.296875 
Q 55.71875 13.875 49.015625 6.21875 
Q 42.328125 -1.421875 30.609375 -1.421875 
Q 18.84375 -1.421875 12.171875 6.21875 
Q 5.515625 13.875 5.515625 27.296875 
Q 5.515625 40.765625 12.171875 48.375 
Q 18.84375 56 30.609375 56 
z
" id="DejaVuSans-111"/>
      <path d="M 54.890625 33.015625 
L 54.890625 0 
L 45.90625 0 
L 45.90625 32.71875 
Q 45.90625 40.484375 42.875 44.328125 
Q 39.84375 48.1875 33.796875 48.1875 
Q 26.515625 48.1875 22.3125 43.546875 
Q 18.109375 38.921875 18.109375 30.90625 
L 18.109375 0 
L 9.078125 0 
L 9.078125 75.984375 
L 18.109375 75.984375 
L 18.109375 46.1875 
Q 21.34375 51.125 25.703125 53.5625 
Q 30.078125 56 35.796875 56 
Q 45.21875 56 50.046875 50.171875 
Q 54.890625 44.34375 54.890625 33.015625 
z
" id="DejaVuSans-104"/>
      <path d="M 34.28125 27.484375 
Q 23.390625 27.484375 19.1875 25 
Q 14.984375 22.515625 14.984375 16.5 
Q 14.984375 11.71875 18.140625 8.90625 
Q 21.296875 6.109375 26.703125 6.109375 
Q 34.1875 6.109375 38.703125 11.40625 
Q 43.21875 16.703125 43.21875 25.484375 
L 43.21875 27.484375 
z
M 52.203125 31.203125 
L 52.203125 0 
L 43.21875 0 
L 43.21875 8.296875 
Q 40.140625 3.328125 35.546875 0.953125 
Q 30.953125 -1.421875 24.3125 -1.421875 
Q 15.921875 -1.421875 10.953125 3.296875 
Q 6 8.015625 6 15.921875 
Q 6 25.140625 12.171875 29.828125 
Q 18.359375 34.515625 30.609375 34.515625 
L 43.21875 34.515625 
L 43.21875 35.40625 
Q 43.21875 41.609375 39.140625 45 
Q 35.0625 48.390625 27.6875 48.390625 
Q 23 48.390625 18.546875 47.265625 
Q 14.109375 46.140625 10.015625 43.890625 
L 10.015625 52.203125 
Q 14.9375 54.109375 19.578125 55.046875 
Q 24.21875 56 28.609375 56 
Q 40.484375 56 46.34375 49.84375 
Q 52.203125 43.703125 52.203125 31.203125 
z
" id="DejaVuSans-97"/>
      <path d="M 48.6875 27.296875 
Q 48.6875 37.203125 44.609375 42.84375 
Q 40.53125 48.484375 33.40625 48.484375 
Q 26.265625 48.484375 22.1875 42.84375 
Q 18.109375 37.203125 18.109375 27.296875 
Q 18.109375 17.390625 22.1875 11.75 
Q 26.265625 6.109375 33.40625 6.109375 
Q 40.53125 6.109375 44.609375 11.75 
Q 48.6875 17.390625 48.6875 27.296875 
z
M 18.109375 46.390625 
Q 20.953125 51.265625 25.265625 53.625 
Q 29.59375 56 35.59375 56 
Q 45.5625 56 51.78125 48.09375 
Q 58.015625 40.1875 58.015625 27.296875 
Q 58.015625 14.40625 51.78125 6.484375 
Q 45.5625 -1.421875 35.59375 -1.421875 
Q 29.59375 -1.421875 25.265625 0.953125 
Q 20.953125 3.328125 18.109375 8.203125 
L 18.109375 0 
L 9.078125 0 
L 9.078125 75.984375 
L 18.109375 75.984375 
z
" id="DejaVuSans-98"/>
      <path d="M 10.6875 12.40625 
L 21 12.40625 
L 21 0 
L 10.6875 0 
z
" id="DejaVuSans-46"/>
      <path d="M 8.015625 75.875 
L 15.828125 75.875 
Q 23.140625 64.359375 26.78125 53.3125 
Q 30.421875 42.28125 30.421875 31.390625 
Q 30.421875 20.453125 26.78125 9.375 
Q 23.140625 -1.703125 15.828125 -13.1875 
L 8.015625 -13.1875 
Q 14.5 -2 17.703125 9.0625 
Q 20.90625 20.125 20.90625 31.390625 
Q 20.90625 42.671875 17.703125 53.65625 
Q 14.5 64.65625 8.015625 75.875 
z
" id="DejaVuSans-41"/>
      <path d="M 8.5 21.578125 
L 8.5 54.6875 
L 17.484375 54.6875 
L 17.484375 21.921875 
Q 17.484375 14.15625 20.5 10.265625 
Q 23.53125 6.390625 29.59375 6.390625 
Q 36.859375 6.390625 41.078125 11.03125 
Q 45.3125 15.671875 45.3125 23.6875 
L 45.3125 54.6875 
L 54.296875 54.6875 
L 54.296875 0 
L 45.3125 0 
L 45.3125 8.40625 
Q 42.046875 3.421875 37.71875 1 
Q 33.40625 -1.421875 27.6875 -1.421875 
Q 18.265625 -1.421875 13.375 4.4375 
Q 8.5 10.296875 8.5 21.578125 
z
M 31.109375 56 
z
" id="DejaVuSans-117"/>
      <path d="M 52 44.1875 
Q 55.375 50.25 60.0625 53.125 
Q 64.75 56 71.09375 56 
Q 79.640625 56 84.28125 50.015625 
Q 88.921875 44.046875 88.921875 33.015625 
L 88.921875 0 
L 79.890625 0 
L 79.890625 32.71875 
Q 79.890625 40.578125 77.09375 44.375 
Q 74.3125 48.1875 68.609375 48.1875 
Q 61.625 48.1875 57.5625 43.546875 
Q 53.515625 38.921875 53.515625 30.90625 
L 53.515625 0 
L 44.484375 0 
L 44.484375 32.71875 
Q 44.484375 40.625 41.703125 44.40625 
Q 38.921875 48.1875 33.109375 48.1875 
Q 26.21875 48.1875 22.15625 43.53125 
Q 18.109375 38.875 18.109375 30.90625 
L 18.109375 0 
L 9.078125 0 
L 9.078125 54.6875 
L 18.109375 54.6875 
L 18.109375 46.1875 
Q 21.1875 51.21875 25.484375 53.609375 
Q 29.78125 56 35.6875 56 
Q 41.65625 56 45.828125 52.96875 
Q 50 49.953125 52 44.1875 
z
" id="DejaVuSans-109"/>
      <path d="M 9.421875 75.984375 
L 18.40625 75.984375 
L 18.40625 0 
L 9.421875 0 
z
" id="DejaVuSans-108"/>
      <path d="M 45.40625 46.390625 
L 45.40625 75.984375 
L 54.390625 75.984375 
L 54.390625 0 
L 45.40625 0 
L 45.40625 8.203125 
Q 42.578125 3.328125 38.25 0.953125 
Q 33.9375 -1.421875 27.875 -1.421875 
Q 17.96875 -1.421875 11.734375 6.484375 
Q 5.515625 14.40625 5.515625 27.296875 
Q 5.515625 40.1875 11.734375 48.09375 
Q 17.96875 56 27.875 56 
Q 33.9375 56 38.25 53.625 
Q 42.578125 51.265625 45.40625 46.390625 
z
M 14.796875 27.296875 
Q 14.796875 17.390625 18.875 11.75 
Q 22.953125 6.109375 30.078125 6.109375 
Q 37.203125 6.109375 41.296875 11.75 
Q 45.40625 17.390625 45.40625 27.296875 
Q 45.40625 37.203125 41.296875 42.84375 
Q 37.203125 48.484375 30.078125 48.484375 
Q 22.953125 48.484375 18.875 42.84375 
Q 14.796875 37.203125 14.796875 27.296875 
z
" id="DejaVuSans-100"/>
      <path d="M 44.28125 53.078125 
L 44.28125 44.578125 
Q 40.484375 46.53125 36.375 47.5 
Q 32.28125 48.484375 27.875 48.484375 
Q 21.1875 48.484375 17.84375 46.4375 
Q 14.5 44.390625 14.5 40.28125 
Q 14.5 37.15625 16.890625 35.375 
Q 19.28125 33.59375 26.515625 31.984375 
L 29.59375 31.296875 
Q 39.15625 29.25 43.1875 25.515625 
Q 47.21875 21.78125 47.21875 15.09375 
Q 47.21875 7.46875 41.1875 3.015625 
Q 35.15625 -1.421875 24.609375 -1.421875 
Q 20.21875 -1.421875 15.453125 -0.5625 
Q 10.6875 0.296875 5.421875 2 
L 5.421875 11.28125 
Q 10.40625 8.6875 15.234375 7.390625 
Q 20.0625 6.109375 24.8125 6.109375 
Q 31.15625 6.109375 34.5625 8.28125 
Q 37.984375 10.453125 37.984375 14.40625 
Q 37.984375 18.0625 35.515625 20.015625 
Q 33.0625 21.96875 24.703125 23.78125 
L 21.578125 24.515625 
Q 13.234375 26.265625 9.515625 29.90625 
Q 5.8125 33.546875 5.8125 39.890625 
Q 5.8125 47.609375 11.28125 51.796875 
Q 16.75 56 26.8125 56 
Q 31.78125 56 36.171875 55.265625 
Q 40.578125 54.546875 44.28125 53.078125 
z
" id="DejaVuSans-115"/>
     </defs>
     <g transform="translate(18.398438 241.076738)rotate(-90)scale(0.1 -0.1)">
      <use xlink:href="#DejaVuSans-67"/>
      <use x="69.824219" xlink:href="#DejaVuSans-66"/>
      <use x="138.427734" xlink:href="#DejaVuSans-32"/>
      <use x="170.214844" xlink:href="#DejaVuSans-112"/>
      <use x="233.691406" xlink:href="#DejaVuSans-99"/>
      <use x="288.671875" xlink:href="#DejaVuSans-114"/>
      <use x="329.785156" xlink:href="#DejaVuSans-32"/>
      <use x="361.572266" xlink:href="#DejaVuSans-40"/>
      <use x="400.585938" xlink:href="#DejaVuSans-112"/>
      <use x="464.0625" xlink:href="#DejaVuSans-111"/>
      <use x="525.244141" xlink:href="#DejaVuSans-114"/>
      <use x="566.357422" xlink:href="#DejaVuSans-32"/>
      <use x="598.144531" xlink:href="#DejaVuSans-49"/>
      <use x="661.767578" xlink:href="#DejaVuSans-48"/>
      <use x="725.390625" xlink:href="#DejaVuSans-48"/>
      <use x="789.013672" xlink:href="#DejaVuSans-48"/>
      <use x="852.636719" xlink:href="#DejaVuSans-48"/>
      <use x="916.259766" xlink:href="#DejaVuSans-48"/>
      <use x="979.882812" xlink:href="#DejaVuSans-32"/>
      <use x="1011.669922" xlink:href="#DejaVuSans-104"/>
      <use x="1075.048828" xlink:href="#DejaVuSans-97"/>
      <use x="1136.328125" xlink:href="#DejaVuSans-98"/>
      <use x="1199.804688" xlink:href="#DejaVuSans-46"/>
      <use x="1231.591797" xlink:href="#DejaVuSans-41"/>
      <use x="1270.605469" xlink:href="#DejaVuSans-32"/>
      <use x="1302.392578" xlink:href="#DejaVuSans-97"/>
      <use x="1363.671875" xlink:href="#DejaVuSans-99"/>
      <use x="1418.652344" xlink:href="#DejaVuSans-117"/>
      <use x="1482.03125" xlink:href="#DejaVuSans-109"/>
      <use x="1579.443359" xlink:href="#DejaVuSans-117"/>
      <use x="1642.822266" xlink:href="#DejaVuSans-108"/>
      <use x="1670.605469" xlink:href="#DejaVuSans-97"/>
      <use x="1731.884766" xlink:href="#DejaVuSans-100"/>
      <use x="1795.361328" xlink:href="#DejaVuSans-111"/>
      <use x="1856.542969" xlink:href="#DejaVuSans-115"/>
     </g>
    </g>
   </g>
   <g id="line2d_15">
    <path clip-path="url(#p06a93861d2)" d="M 68.721733 267.660884 
L 73.318216 267.660884 
L 77.914699 267.660884 
L 82.511182 267.660884 
L 87.107665 267.660884 
L 91.704148 267.660884 
L 96.300631 267.660884 
L 100.897114 267.660884 
L 105.493597 267.552183 
L 110.09008 266.573873 
L 114.686563 266.573873 
L 119.283046 266.573873 
L 123.879529 266.573873 
L 128.476012 266.573873 
L 133.072495 266.573873 
L 137.668978 266.356471 
L 142.265461 266.356471 
L 146.861944 266.356471 
L 151.458427 266.356471 
L 156.05491 265.921667 
L 160.651393 264.508553 
L 165.247877 264.29115 
L 169.84436 262.117129 
L 174.440843 261.356221 
L 179.037326 261.356221 
L 183.633809 260.269211 
L 188.230292 258.638694 
L 192.826775 252.007929 
L 197.423258 244.290152 
L 202.019741 237.00718 
L 206.616224 229.94161 
L 211.212707 221.462926 
L 215.80919 212.223335 
L 220.405673 194.722462 
L 225.002156 179.613012 
L 229.598639 165.807975 
L 234.195122 156.459683 
L 238.791605 148.0897 
L 243.388088 140.371923 
L 247.984571 135.806478 
L 252.581054 129.827919 
L 257.177537 124.066762 
L 261.77402 117.218594 
L 266.370503 111.022633 
L 270.966986 106.457188 
L 275.563469 104.500568 
L 280.159952 96.782792 
L 284.756435 91.673841 
L 289.352918 87.325798 
L 293.949401 80.803733 
L 298.545884 77.216598 
L 303.142367 74.499071 
L 307.73885 72.433751 
L 312.335333 69.498822 
L 316.931816 67.107398 
L 321.528299 62.868056 
L 326.124782 51.345742 
L 330.721265 55.802486 
L 335.317748 53.19366 
L 339.914232 50.476133 
L 344.510715 48.954318 
L 349.107198 47.758606 
L 353.703681 44.280172 
L 358.300164 42.540955 
L 362.896647 41.236542 
L 367.49313 38.953819 
L 372.089613 37.758107 
L 376.686096 34.388374 
L 381.282579 31.453445 
L 385.879062 30.257733 
L 390.475545 28.409815 
L 395.072028 27.97501 
L 399.668511 27.866309 
L 404.264994 27.757608 
L 408.861477 27.105402 
L 413.45796 26.344494 
L 418.054443 25.040081 
L 422.650926 24.061772 
L 427.247409 23.735668 
L 431.843892 23.626967 
" style="fill:none;stroke:#1f77b4;stroke-linecap:square;stroke-width:1.5;"/>
    <defs>
     <path d="M 0 1.5 
C 0.397805 1.5 0.77937 1.341951 1.06066 1.06066 
C 1.341951 0.77937 1.5 0.397805 1.5 0 
C 1.5 -0.397805 1.341951 -0.77937 1.06066 -1.06066 
C 0.77937 -1.341951 0.397805 -1.5 0 -1.5 
C -0.397805 -1.5 -0.77937 -1.341951 -1.06066 -1.06066 
C -1.341951 -0.77937 -1.5 -0.397805 -1.5 0 
C -1.5 0.397805 -1.341951 0.77937 -1.06066 1.06066 
C -0.77937 1.341951 -0.397805 1.5 0 1.5 
z
" id="m1f0d67f8ff" style="stroke:#1f77b4;"/>
    </defs>
    <g clip-path="url(#p06a93861d2)">
     <use style="fill:#1f77b4;stroke:#1f77b4;" x="68.721733" xlink:href="#m1f0d67f8ff" y="267.660884"/>
     <use style="fill:#1f77b4;stroke:#1f77b4;" x="73.318216" xlink:href="#m1f0d67f8ff" y="267.660884"/>
     <use style="fill:#1f77b4;stroke:#1f77b4;" x="77.914699" xlink:href="#m1f0d67f8ff" y="267.660884"/>
     <use style="fill:#1f77b4;stroke:#1f77b4;" x="82.511182" xlink:href="#m1f0d67f8ff" y="267.660884"/>
     <use style="fill:#1f77b4;stroke:#1f77b4;" x="87.107665" xlink:href="#m1f0d67f8ff" y="267.660884"/>
     <use style="fill:#1f77b4;stroke:#1f77b4;" x="91.704148" xlink:href="#m1f0d67f8ff" y="267.660884"/>
     <use style="fill:#1f77b4;stroke:#1f77b4;" x="96.300631" xlink:href="#m1f0d67f8ff" y="267.660884"/>
     <use style="fill:#1f77b4;stroke:#1f77b4;" x="100.897114" xlink:href="#m1f0d67f8ff" y="267.660884"/>
     <use style="fill:#1f77b4;stroke:#1f77b4;" x="105.493597" xlink:href="#m1f0d67f8ff" y="267.552183"/>
     <use style="fill:#1f77b4;stroke:#1f77b4;" x="110.09008" xlink:href="#m1f0d67f8ff" y="266.573873"/>
     <use style="fill:#1f77b4;stroke:#1f77b4;" x="114.686563" xlink:href="#m1f0d67f8ff" y="266.573873"/>
     <use style="fill:#1f77b4;stroke:#1f77b4;" x="119.283046" xlink:href="#m1f0d67f8ff" y="266.573873"/>
     <use style="fill:#1f77b4;stroke:#1f77b4;" x="123.879529" xlink:href="#m1f0d67f8ff" y="266.573873"/>
     <use style="fill:#1f77b4;stroke:#1f77b4;" x="128.476012" xlink:href="#m1f0d67f8ff" y="266.573873"/>
     <use style="fill:#1f77b4;stroke:#1f77b4;" x="133.072495" xlink:href="#m1f0d67f8ff" y="266.573873"/>
     <use style="fill:#1f77b4;stroke:#1f77b4;" x="137.668978" xlink:href="#m1f0d67f8ff" y="266.356471"/>
     <use style="fill:#1f77b4;stroke:#1f77b4;" x="142.265461" xlink:href="#m1f0d67f8ff" y="266.356471"/>
     <use style="fill:#1f77b4;stroke:#1f77b4;" x="146.861944" xlink:href="#m1f0d67f8ff" y="266.356471"/>
     <use style="fill:#1f77b4;stroke:#1f77b4;" x="151.458427" xlink:href="#m1f0d67f8ff" y="266.356471"/>
     <use style="fill:#1f77b4;stroke:#1f77b4;" x="156.05491" xlink:href="#m1f0d67f8ff" y="265.921667"/>
     <use style="fill:#1f77b4;stroke:#1f77b4;" x="160.651393" xlink:href="#m1f0d67f8ff" y="264.508553"/>
     <use style="fill:#1f77b4;stroke:#1f77b4;" x="165.247877" xlink:href="#m1f0d67f8ff" y="264.29115"/>
     <use style="fill:#1f77b4;stroke:#1f77b4;" x="169.84436" xlink:href="#m1f0d67f8ff" y="262.117129"/>
     <use style="fill:#1f77b4;stroke:#1f77b4;" x="174.440843" xlink:href="#m1f0d67f8ff" y="261.356221"/>
     <use style="fill:#1f77b4;stroke:#1f77b4;" x="179.037326" xlink:href="#m1f0d67f8ff" y="261.356221"/>
     <use style="fill:#1f77b4;stroke:#1f77b4;" x="183.633809" xlink:href="#m1f0d67f8ff" y="260.269211"/>
     <use style="fill:#1f77b4;stroke:#1f77b4;" x="188.230292" xlink:href="#m1f0d67f8ff" y="258.638694"/>
     <use style="fill:#1f77b4;stroke:#1f77b4;" x="192.826775" xlink:href="#m1f0d67f8ff" y="252.007929"/>
     <use style="fill:#1f77b4;stroke:#1f77b4;" x="197.423258" xlink:href="#m1f0d67f8ff" y="244.290152"/>
     <use style="fill:#1f77b4;stroke:#1f77b4;" x="202.019741" xlink:href="#m1f0d67f8ff" y="237.00718"/>
     <use style="fill:#1f77b4;stroke:#1f77b4;" x="206.616224" xlink:href="#m1f0d67f8ff" y="229.94161"/>
     <use style="fill:#1f77b4;stroke:#1f77b4;" x="211.212707" xlink:href="#m1f0d67f8ff" y="221.462926"/>
     <use style="fill:#1f77b4;stroke:#1f77b4;" x="215.80919" xlink:href="#m1f0d67f8ff" y="212.223335"/>
     <use style="fill:#1f77b4;stroke:#1f77b4;" x="220.405673" xlink:href="#m1f0d67f8ff" y="194.722462"/>
     <use style="fill:#1f77b4;stroke:#1f77b4;" x="225.002156" xlink:href="#m1f0d67f8ff" y="179.613012"/>
     <use style="fill:#1f77b4;stroke:#1f77b4;" x="229.598639" xlink:href="#m1f0d67f8ff" y="165.807975"/>
     <use style="fill:#1f77b4;stroke:#1f77b4;" x="234.195122" xlink:href="#m1f0d67f8ff" y="156.459683"/>
     <use style="fill:#1f77b4;stroke:#1f77b4;" x="238.791605" xlink:href="#m1f0d67f8ff" y="148.0897"/>
     <use style="fill:#1f77b4;stroke:#1f77b4;" x="243.388088" xlink:href="#m1f0d67f8ff" y="140.371923"/>
     <use style="fill:#1f77b4;stroke:#1f77b4;" x="247.984571" xlink:href="#m1f0d67f8ff" y="135.806478"/>
     <use style="fill:#1f77b4;stroke:#1f77b4;" x="252.581054" xlink:href="#m1f0d67f8ff" y="129.827919"/>
     <use style="fill:#1f77b4;stroke:#1f77b4;" x="257.177537" xlink:href="#m1f0d67f8ff" y="124.066762"/>
     <use style="fill:#1f77b4;stroke:#1f77b4;" x="261.77402" xlink:href="#m1f0d67f8ff" y="117.218594"/>
     <use style="fill:#1f77b4;stroke:#1f77b4;" x="266.370503" xlink:href="#m1f0d67f8ff" y="111.022633"/>
     <use style="fill:#1f77b4;stroke:#1f77b4;" x="270.966986" xlink:href="#m1f0d67f8ff" y="106.457188"/>
     <use style="fill:#1f77b4;stroke:#1f77b4;" x="275.563469" xlink:href="#m1f0d67f8ff" y="104.500568"/>
     <use style="fill:#1f77b4;stroke:#1f77b4;" x="280.159952" xlink:href="#m1f0d67f8ff" y="96.782792"/>
     <use style="fill:#1f77b4;stroke:#1f77b4;" x="284.756435" xlink:href="#m1f0d67f8ff" y="91.673841"/>
     <use style="fill:#1f77b4;stroke:#1f77b4;" x="289.352918" xlink:href="#m1f0d67f8ff" y="87.325798"/>
     <use style="fill:#1f77b4;stroke:#1f77b4;" x="293.949401" xlink:href="#m1f0d67f8ff" y="80.803733"/>
     <use style="fill:#1f77b4;stroke:#1f77b4;" x="298.545884" xlink:href="#m1f0d67f8ff" y="77.216598"/>
     <use style="fill:#1f77b4;stroke:#1f77b4;" x="303.142367" xlink:href="#m1f0d67f8ff" y="74.499071"/>
     <use style="fill:#1f77b4;stroke:#1f77b4;" x="307.73885" xlink:href="#m1f0d67f8ff" y="72.433751"/>
     <use style="fill:#1f77b4;stroke:#1f77b4;" x="312.335333" xlink:href="#m1f0d67f8ff" y="69.498822"/>
     <use style="fill:#1f77b4;stroke:#1f77b4;" x="316.931816" xlink:href="#m1f0d67f8ff" y="67.107398"/>
     <use style="fill:#1f77b4;stroke:#1f77b4;" x="321.528299" xlink:href="#m1f0d67f8ff" y="62.868056"/>
     <use style="fill:#1f77b4;stroke:#1f77b4;" x="326.124782" xlink:href="#m1f0d67f8ff" y="51.345742"/>
     <use style="fill:#1f77b4;stroke:#1f77b4;" x="330.721265" xlink:href="#m1f0d67f8ff" y="55.802486"/>
     <use style="fill:#1f77b4;stroke:#1f77b4;" x="335.317748" xlink:href="#m1f0d67f8ff" y="53.19366"/>
     <use style="fill:#1f77b4;stroke:#1f77b4;" x="339.914232" xlink:href="#m1f0d67f8ff" y="50.476133"/>
     <use style="fill:#1f77b4;stroke:#1f77b4;" x="344.510715" xlink:href="#m1f0d67f8ff" y="48.954318"/>
     <use style="fill:#1f77b4;stroke:#1f77b4;" x="349.107198" xlink:href="#m1f0d67f8ff" y="47.758606"/>
     <use style="fill:#1f77b4;stroke:#1f77b4;" x="353.703681" xlink:href="#m1f0d67f8ff" y="44.280172"/>
     <use style="fill:#1f77b4;stroke:#1f77b4;" x="358.300164" xlink:href="#m1f0d67f8ff" y="42.540955"/>
     <use style="fill:#1f77b4;stroke:#1f77b4;" x="362.896647" xlink:href="#m1f0d67f8ff" y="41.236542"/>
     <use style="fill:#1f77b4;stroke:#1f77b4;" x="367.49313" xlink:href="#m1f0d67f8ff" y="38.953819"/>
     <use style="fill:#1f77b4;stroke:#1f77b4;" x="372.089613" xlink:href="#m1f0d67f8ff" y="37.758107"/>
     <use style="fill:#1f77b4;stroke:#1f77b4;" x="376.686096" xlink:href="#m1f0d67f8ff" y="34.388374"/>
     <use style="fill:#1f77b4;stroke:#1f77b4;" x="381.282579" xlink:href="#m1f0d67f8ff" y="31.453445"/>
     <use style="fill:#1f77b4;stroke:#1f77b4;" x="385.879062" xlink:href="#m1f0d67f8ff" y="30.257733"/>
     <use style="fill:#1f77b4;stroke:#1f77b4;" x="390.475545" xlink:href="#m1f0d67f8ff" y="28.409815"/>
     <use style="fill:#1f77b4;stroke:#1f77b4;" x="395.072028" xlink:href="#m1f0d67f8ff" y="27.97501"/>
     <use style="fill:#1f77b4;stroke:#1f77b4;" x="399.668511" xlink:href="#m1f0d67f8ff" y="27.866309"/>
     <use style="fill:#1f77b4;stroke:#1f77b4;" x="404.264994" xlink:href="#m1f0d67f8ff" y="27.757608"/>
     <use style="fill:#1f77b4;stroke:#1f77b4;" x="408.861477" xlink:href="#m1f0d67f8ff" y="27.105402"/>
     <use style="fill:#1f77b4;stroke:#1f77b4;" x="413.45796" xlink:href="#m1f0d67f8ff" y="26.344494"/>
     <use style="fill:#1f77b4;stroke:#1f77b4;" x="418.054443" xlink:href="#m1f0d67f8ff" y="25.040081"/>
     <use style="fill:#1f77b4;stroke:#1f77b4;" x="422.650926" xlink:href="#m1f0d67f8ff" y="24.061772"/>
     <use style="fill:#1f77b4;stroke:#1f77b4;" x="427.247409" xlink:href="#m1f0d67f8ff" y="23.735668"/>
     <use style="fill:#1f77b4;stroke:#1f77b4;" x="431.843892" xlink:href="#m1f0d67f8ff" y="23.626967"/>
    </g>
   </g>
   <g id="patch_3">
    <path d="M 50.565625 279.86258 
L 50.565625 11.425271 
" style="fill:none;stroke:#000000;stroke-linecap:square;stroke-linejoin:miter;stroke-width:0.8;"/>
   </g>
   <g id="patch_4">
    <path d="M 450 279.86258 
L 450 11.425271 
" style="fill:none;stroke:#000000;stroke-linecap:square;stroke-linejoin:miter;stroke-width:0.8;"/>
   </g>
   <g id="patch_5">
    <path d="M 50.565625 279.86258 
L 450 279.86258 
" style="fill:none;stroke:#000000;stroke-linecap:square;stroke-linejoin:miter;stroke-width:0.8;"/>
   </g>
   <g id="patch_6">
    <path d="M 50.565625 11.425271 
L 450 11.425271 
" style="fill:none;stroke:#000000;stroke-linecap:square;stroke-linejoin:miter;stroke-width:0.8;"/>
   </g>
  </g>
 </g>
 <defs>
  <clipPath id="p06a93861d2">
   <rect height="268.437308" width="399.434375" x="50.565625" y="11.425271"/>
  </clipPath>
 </defs>
</svg>
