<?xml version="1.0" encoding="utf-8" standalone="no"?>
<!DOCTYPE svg PUBLIC "-//W3C//DTD SVG 1.1//EN"
  "http://www.w3.org/Graphics/SVG/1.1/DTD/svg11.dtd">
<!-- Created with matplotlib (https://matplotlib.org/) -->
<svg height="345.6pt" version="1.1" viewBox="0 0 460.8 345.6" width="460.8pt" xmlns="http://www.w3.org/2000/svg" xmlns:xlink="http://www.w3.org/1999/xlink">
 <defs>
  <style type="text/css">
*{stroke-linecap:butt;stroke-linejoin:round;}
  </style>
 </defs>
 <g id="figure_1">
  <g id="patch_1">
   <path d="M 0 345.6 
L 460.8 345.6 
L 460.8 0 
L 0 0 
z
" style="fill:#ffffff;"/>
  </g>
  <g id="axes_1">
   <g id="patch_2">
    <path d="M 50.565625 279.86258 
L 449.814123 279.86258 
L 449.814123 10.8 
L 50.565625 10.8 
z
" style="fill:#ffffff;"/>
   </g>
   <g id="matplotlib.axis_1">
    <g id="xtick_1">
     <g id="line2d_1">
      <defs>
       <path d="M 0 0 
L 0 3.5 
" id="mccbbb22ee4" style="stroke:#000000;stroke-width:0.8;"/>
      </defs>
      <g>
       <use style="stroke:#000000;stroke-width:0.8;" x="106.696756" xlink:href="#mccbbb22ee4" y="279.86258"/>
      </g>
     </g>
     <g id="text_1">
      <!-- 2020-03-01 -->
      <defs>
       <path d="M 19.1875 8.296875 
L 53.609375 8.296875 
L 53.609375 0 
L 7.328125 0 
L 7.328125 8.296875 
Q 12.9375 14.109375 22.625 23.890625 
Q 32.328125 33.6875 34.8125 36.53125 
Q 39.546875 41.84375 41.421875 45.53125 
Q 43.3125 49.21875 43.3125 52.78125 
Q 43.3125 58.59375 39.234375 62.25 
Q 35.15625 65.921875 28.609375 65.921875 
Q 23.96875 65.921875 18.8125 64.3125 
Q 13.671875 62.703125 7.8125 59.421875 
L 7.8125 69.390625 
Q 13.765625 71.78125 18.9375 73 
Q 24.125 74.21875 28.421875 74.21875 
Q 39.75 74.21875 46.484375 68.546875 
Q 53.21875 62.890625 53.21875 53.421875 
Q 53.21875 48.921875 51.53125 44.890625 
Q 49.859375 40.875 45.40625 35.40625 
Q 44.1875 33.984375 37.640625 27.21875 
Q 31.109375 20.453125 19.1875 8.296875 
z
" id="DejaVuSans-50"/>
       <path d="M 31.78125 66.40625 
Q 24.171875 66.40625 20.328125 58.90625 
Q 16.5 51.421875 16.5 36.375 
Q 16.5 21.390625 20.328125 13.890625 
Q 24.171875 6.390625 31.78125 6.390625 
Q 39.453125 6.390625 43.28125 13.890625 
Q 47.125 21.390625 47.125 36.375 
Q 47.125 51.421875 43.28125 58.90625 
Q 39.453125 66.40625 31.78125 66.40625 
z
M 31.78125 74.21875 
Q 44.046875 74.21875 50.515625 64.515625 
Q 56.984375 54.828125 56.984375 36.375 
Q 56.984375 17.96875 50.515625 8.265625 
Q 44.046875 -1.421875 31.78125 -1.421875 
Q 19.53125 -1.421875 13.0625 8.265625 
Q 6.59375 17.96875 6.59375 36.375 
Q 6.59375 54.828125 13.0625 64.515625 
Q 19.53125 74.21875 31.78125 74.21875 
z
" id="DejaVuSans-48"/>
       <path d="M 4.890625 31.390625 
L 31.203125 31.390625 
L 31.203125 23.390625 
L 4.890625 23.390625 
z
" id="DejaVuSans-45"/>
       <path d="M 40.578125 39.3125 
Q 47.65625 37.796875 51.625 33 
Q 55.609375 28.21875 55.609375 21.1875 
Q 55.609375 10.40625 48.1875 4.484375 
Q 40.765625 -1.421875 27.09375 -1.421875 
Q 22.515625 -1.421875 17.65625 -0.515625 
Q 12.796875 0.390625 7.625 2.203125 
L 7.625 11.71875 
Q 11.71875 9.328125 16.59375 8.109375 
Q 21.484375 6.890625 26.8125 6.890625 
Q 36.078125 6.890625 40.9375 10.546875 
Q 45.796875 14.203125 45.796875 21.1875 
Q 45.796875 27.640625 41.28125 31.265625 
Q 36.765625 34.90625 28.71875 34.90625 
L 20.21875 34.90625 
L 20.21875 43.015625 
L 29.109375 43.015625 
Q 36.375 43.015625 40.234375 45.921875 
Q 44.09375 48.828125 44.09375 54.296875 
Q 44.09375 59.90625 40.109375 62.90625 
Q 36.140625 65.921875 28.71875 65.921875 
Q 24.65625 65.921875 20.015625 65.03125 
Q 15.375 64.15625 9.8125 62.3125 
L 9.8125 71.09375 
Q 15.4375 72.65625 20.34375 73.4375 
Q 25.25 74.21875 29.59375 74.21875 
Q 40.828125 74.21875 47.359375 69.109375 
Q 53.90625 64.015625 53.90625 55.328125 
Q 53.90625 49.265625 50.4375 45.09375 
Q 46.96875 40.921875 40.578125 39.3125 
z
" id="DejaVuSans-51"/>
       <path d="M 12.40625 8.296875 
L 28.515625 8.296875 
L 28.515625 63.921875 
L 10.984375 60.40625 
L 10.984375 69.390625 
L 28.421875 72.90625 
L 38.28125 72.90625 
L 38.28125 8.296875 
L 54.390625 8.296875 
L 54.390625 0 
L 12.40625 0 
z
" id="DejaVuSans-49"/>
      </defs>
      <g transform="translate(88.100953 333.329439)rotate(-45)scale(0.1 -0.1)">
       <use xlink:href="#DejaVuSans-50"/>
       <use x="63.623047" xlink:href="#DejaVuSans-48"/>
       <use x="127.246094" xlink:href="#DejaVuSans-50"/>
       <use x="190.869141" xlink:href="#DejaVuSans-48"/>
       <use x="254.492188" xlink:href="#DejaVuSans-45"/>
       <use x="290.576172" xlink:href="#DejaVuSans-48"/>
       <use x="354.199219" xlink:href="#DejaVuSans-51"/>
       <use x="417.822266" xlink:href="#DejaVuSans-45"/>
       <use x="453.90625" xlink:href="#DejaVuSans-48"/>
       <use x="517.529297" xlink:href="#DejaVuSans-49"/>
      </g>
     </g>
    </g>
    <g id="xtick_2">
     <g id="line2d_2">
      <g>
       <use style="stroke:#000000;stroke-width:0.8;" x="165.782158" xlink:href="#mccbbb22ee4" y="279.86258"/>
      </g>
     </g>
     <g id="text_2">
      <!-- 2020-03-15 -->
      <defs>
       <path d="M 10.796875 72.90625 
L 49.515625 72.90625 
L 49.515625 64.59375 
L 19.828125 64.59375 
L 19.828125 46.734375 
Q 21.96875 47.46875 24.109375 47.828125 
Q 26.265625 48.1875 28.421875 48.1875 
Q 40.625 48.1875 47.75 41.5 
Q 54.890625 34.8125 54.890625 23.390625 
Q 54.890625 11.625 47.5625 5.09375 
Q 40.234375 -1.421875 26.90625 -1.421875 
Q 22.3125 -1.421875 17.546875 -0.640625 
Q 12.796875 0.140625 7.71875 1.703125 
L 7.71875 11.625 
Q 12.109375 9.234375 16.796875 8.0625 
Q 21.484375 6.890625 26.703125 6.890625 
Q 35.15625 6.890625 40.078125 11.328125 
Q 45.015625 15.765625 45.015625 23.390625 
Q 45.015625 31 40.078125 35.4375 
Q 35.15625 39.890625 26.703125 39.890625 
Q 22.75 39.890625 18.8125 39.015625 
Q 14.890625 38.140625 10.796875 36.28125 
z
" id="DejaVuSans-53"/>
      </defs>
      <g transform="translate(147.186354 333.329439)rotate(-45)scale(0.1 -0.1)">
       <use xlink:href="#DejaVuSans-50"/>
       <use x="63.623047" xlink:href="#DejaVuSans-48"/>
       <use x="127.246094" xlink:href="#DejaVuSans-50"/>
       <use x="190.869141" xlink:href="#DejaVuSans-48"/>
       <use x="254.492188" xlink:href="#DejaVuSans-45"/>
       <use x="290.576172" xlink:href="#DejaVuSans-48"/>
       <use x="354.199219" xlink:href="#DejaVuSans-51"/>
       <use x="417.822266" xlink:href="#DejaVuSans-45"/>
       <use x="453.90625" xlink:href="#DejaVuSans-49"/>
       <use x="517.529297" xlink:href="#DejaVuSans-53"/>
      </g>
     </g>
    </g>
    <g id="xtick_3">
     <g id="line2d_3">
      <g>
       <use style="stroke:#000000;stroke-width:0.8;" x="237.528716" xlink:href="#mccbbb22ee4" y="279.86258"/>
      </g>
     </g>
     <g id="text_3">
      <!-- 2020-04-01 -->
      <defs>
       <path d="M 37.796875 64.3125 
L 12.890625 25.390625 
L 37.796875 25.390625 
z
M 35.203125 72.90625 
L 47.609375 72.90625 
L 47.609375 25.390625 
L 58.015625 25.390625 
L 58.015625 17.1875 
L 47.609375 17.1875 
L 47.609375 0 
L 37.796875 0 
L 37.796875 17.1875 
L 4.890625 17.1875 
L 4.890625 26.703125 
z
" id="DejaVuSans-52"/>
      </defs>
      <g transform="translate(218.932913 333.329439)rotate(-45)scale(0.1 -0.1)">
       <use xlink:href="#DejaVuSans-50"/>
       <use x="63.623047" xlink:href="#DejaVuSans-48"/>
       <use x="127.246094" xlink:href="#DejaVuSans-50"/>
       <use x="190.869141" xlink:href="#DejaVuSans-48"/>
       <use x="254.492188" xlink:href="#DejaVuSans-45"/>
       <use x="290.576172" xlink:href="#DejaVuSans-48"/>
       <use x="354.199219" xlink:href="#DejaVuSans-52"/>
       <use x="417.822266" xlink:href="#DejaVuSans-45"/>
       <use x="453.90625" xlink:href="#DejaVuSans-48"/>
       <use x="517.529297" xlink:href="#DejaVuSans-49"/>
      </g>
     </g>
    </g>
    <g id="xtick_4">
     <g id="line2d_4">
      <g>
       <use style="stroke:#000000;stroke-width:0.8;" x="296.614118" xlink:href="#mccbbb22ee4" y="279.86258"/>
      </g>
     </g>
     <g id="text_4">
      <!-- 2020-04-15 -->
      <g transform="translate(278.018314 333.329439)rotate(-45)scale(0.1 -0.1)">
       <use xlink:href="#DejaVuSans-50"/>
       <use x="63.623047" xlink:href="#DejaVuSans-48"/>
       <use x="127.246094" xlink:href="#DejaVuSans-50"/>
       <use x="190.869141" xlink:href="#DejaVuSans-48"/>
       <use x="254.492188" xlink:href="#DejaVuSans-45"/>
       <use x="290.576172" xlink:href="#DejaVuSans-48"/>
       <use x="354.199219" xlink:href="#DejaVuSans-52"/>
       <use x="417.822266" xlink:href="#DejaVuSans-45"/>
       <use x="453.90625" xlink:href="#DejaVuSans-49"/>
       <use x="517.529297" xlink:href="#DejaVuSans-53"/>
      </g>
     </g>
    </g>
    <g id="xtick_5">
     <g id="line2d_5">
      <g>
       <use style="stroke:#000000;stroke-width:0.8;" x="364.140291" xlink:href="#mccbbb22ee4" y="279.86258"/>
      </g>
     </g>
     <g id="text_5">
      <!-- 2020-05-01 -->
      <g transform="translate(345.544487 333.329439)rotate(-45)scale(0.1 -0.1)">
       <use xlink:href="#DejaVuSans-50"/>
       <use x="63.623047" xlink:href="#DejaVuSans-48"/>
       <use x="127.246094" xlink:href="#DejaVuSans-50"/>
       <use x="190.869141" xlink:href="#DejaVuSans-48"/>
       <use x="254.492188" xlink:href="#DejaVuSans-45"/>
       <use x="290.576172" xlink:href="#DejaVuSans-48"/>
       <use x="354.199219" xlink:href="#DejaVuSans-53"/>
       <use x="417.822266" xlink:href="#DejaVuSans-45"/>
       <use x="453.90625" xlink:href="#DejaVuSans-48"/>
       <use x="517.529297" xlink:href="#DejaVuSans-49"/>
      </g>
     </g>
    </g>
    <g id="xtick_6">
     <g id="line2d_6">
      <g>
       <use style="stroke:#000000;stroke-width:0.8;" x="423.225692" xlink:href="#mccbbb22ee4" y="279.86258"/>
      </g>
     </g>
     <g id="text_6">
      <!-- 2020-05-15 -->
      <g transform="translate(404.629889 333.329439)rotate(-45)scale(0.1 -0.1)">
       <use xlink:href="#DejaVuSans-50"/>
       <use x="63.623047" xlink:href="#DejaVuSans-48"/>
       <use x="127.246094" xlink:href="#DejaVuSans-50"/>
       <use x="190.869141" xlink:href="#DejaVuSans-48"/>
       <use x="254.492188" xlink:href="#DejaVuSans-45"/>
       <use x="290.576172" xlink:href="#DejaVuSans-48"/>
       <use x="354.199219" xlink:href="#DejaVuSans-53"/>
       <use x="417.822266" xlink:href="#DejaVuSans-45"/>
       <use x="453.90625" xlink:href="#DejaVuSans-49"/>
       <use x="517.529297" xlink:href="#DejaVuSans-53"/>
      </g>
     </g>
    </g>
   </g>
   <g id="matplotlib.axis_2">
    <g id="ytick_1">
     <g id="line2d_7">
      <defs>
       <path d="M 0 0 
L -3.5 0 
" id="mee55b44404" style="stroke:#000000;stroke-width:0.8;"/>
      </defs>
      <g>
       <use style="stroke:#000000;stroke-width:0.8;" x="50.565625" xlink:href="#mee55b44404" y="279.86258"/>
      </g>
     </g>
     <g id="text_7">
      <!-- 0 -->
      <g transform="translate(37.203125 283.661798)scale(0.1 -0.1)">
       <use xlink:href="#DejaVuSans-48"/>
      </g>
     </g>
    </g>
    <g id="ytick_2">
     <g id="line2d_8">
      <g>
       <use style="stroke:#000000;stroke-width:0.8;" x="50.565625" xlink:href="#mee55b44404" y="247.030242"/>
      </g>
     </g>
     <g id="text_8">
      <!-- 50 -->
      <g transform="translate(30.840625 250.829461)scale(0.1 -0.1)">
       <use xlink:href="#DejaVuSans-53"/>
       <use x="63.623047" xlink:href="#DejaVuSans-48"/>
      </g>
     </g>
    </g>
    <g id="ytick_3">
     <g id="line2d_9">
      <g>
       <use style="stroke:#000000;stroke-width:0.8;" x="50.565625" xlink:href="#mee55b44404" y="214.197905"/>
      </g>
     </g>
     <g id="text_9">
      <!-- 100 -->
      <g transform="translate(24.478125 217.997124)scale(0.1 -0.1)">
       <use xlink:href="#DejaVuSans-49"/>
       <use x="63.623047" xlink:href="#DejaVuSans-48"/>
       <use x="127.246094" xlink:href="#DejaVuSans-48"/>
      </g>
     </g>
    </g>
    <g id="ytick_4">
     <g id="line2d_10">
      <g>
       <use style="stroke:#000000;stroke-width:0.8;" x="50.565625" xlink:href="#mee55b44404" y="181.365568"/>
      </g>
     </g>
     <g id="text_10">
      <!-- 150 -->
      <g transform="translate(24.478125 185.164787)scale(0.1 -0.1)">
       <use xlink:href="#DejaVuSans-49"/>
       <use x="63.623047" xlink:href="#DejaVuSans-53"/>
       <use x="127.246094" xlink:href="#DejaVuSans-48"/>
      </g>
     </g>
    </g>
    <g id="ytick_5">
     <g id="line2d_11">
      <g>
       <use style="stroke:#000000;stroke-width:0.8;" x="50.565625" xlink:href="#mee55b44404" y="148.533231"/>
      </g>
     </g>
     <g id="text_11">
      <!-- 200 -->
      <g transform="translate(24.478125 152.33245)scale(0.1 -0.1)">
       <use xlink:href="#DejaVuSans-50"/>
       <use x="63.623047" xlink:href="#DejaVuSans-48"/>
       <use x="127.246094" xlink:href="#DejaVuSans-48"/>
      </g>
     </g>
    </g>
    <g id="ytick_6">
     <g id="line2d_12">
      <g>
       <use style="stroke:#000000;stroke-width:0.8;" x="50.565625" xlink:href="#mee55b44404" y="115.700894"/>
      </g>
     </g>
     <g id="text_12">
      <!-- 250 -->
      <g transform="translate(24.478125 119.500113)scale(0.1 -0.1)">
       <use xlink:href="#DejaVuSans-50"/>
       <use x="63.623047" xlink:href="#DejaVuSans-53"/>
       <use x="127.246094" xlink:href="#DejaVuSans-48"/>
      </g>
     </g>
    </g>
    <g id="ytick_7">
     <g id="line2d_13">
      <g>
       <use style="stroke:#000000;stroke-width:0.8;" x="50.565625" xlink:href="#mee55b44404" y="82.868557"/>
      </g>
     </g>
     <g id="text_13">
      <!-- 300 -->
      <g transform="translate(24.478125 86.667775)scale(0.1 -0.1)">
       <use xlink:href="#DejaVuSans-51"/>
       <use x="63.623047" xlink:href="#DejaVuSans-48"/>
       <use x="127.246094" xlink:href="#DejaVuSans-48"/>
      </g>
     </g>
    </g>
    <g id="ytick_8">
     <g id="line2d_14">
      <g>
       <use style="stroke:#000000;stroke-width:0.8;" x="50.565625" xlink:href="#mee55b44404" y="50.03622"/>
      </g>
     </g>
     <g id="text_14">
      <!-- 350 -->
      <g transform="translate(24.478125 53.835438)scale(0.1 -0.1)">
       <use xlink:href="#DejaVuSans-51"/>
       <use x="63.623047" xlink:href="#DejaVuSans-53"/>
       <use x="127.246094" xlink:href="#DejaVuSans-48"/>
      </g>
     </g>
    </g>
    <g id="ytick_9">
     <g id="line2d_15">
      <g>
       <use style="stroke:#000000;stroke-width:0.8;" x="50.565625" xlink:href="#mee55b44404" y="17.203882"/>
      </g>
     </g>
     <g id="text_15">
      <!-- 400 -->
      <g transform="translate(24.478125 21.003101)scale(0.1 -0.1)">
       <use xlink:href="#DejaVuSans-52"/>
       <use x="63.623047" xlink:href="#DejaVuSans-48"/>
       <use x="127.246094" xlink:href="#DejaVuSans-48"/>
      </g>
     </g>
    </g>
    <g id="text_16">
     <!-- CB pcr (por 100000 hab.) acumulados -->
     <defs>
      <path d="M 64.40625 67.28125 
L 64.40625 56.890625 
Q 59.421875 61.53125 53.78125 63.8125 
Q 48.140625 66.109375 41.796875 66.109375 
Q 29.296875 66.109375 22.65625 58.46875 
Q 16.015625 50.828125 16.015625 36.375 
Q 16.015625 21.96875 22.65625 14.328125 
Q 29.296875 6.6875 41.796875 6.6875 
Q 48.140625 6.6875 53.78125 8.984375 
Q 59.421875 11.28125 64.40625 15.921875 
L 64.40625 5.609375 
Q 59.234375 2.09375 53.4375 0.328125 
Q 47.65625 -1.421875 41.21875 -1.421875 
Q 24.65625 -1.421875 15.125 8.703125 
Q 5.609375 18.84375 5.609375 36.375 
Q 5.609375 53.953125 15.125 64.078125 
Q 24.65625 74.21875 41.21875 74.21875 
Q 47.75 74.21875 53.53125 72.484375 
Q 59.328125 70.75 64.40625 67.28125 
z
" id="DejaVuSans-67"/>
      <path d="M 19.671875 34.8125 
L 19.671875 8.109375 
L 35.5 8.109375 
Q 43.453125 8.109375 47.28125 11.40625 
Q 51.125 14.703125 51.125 21.484375 
Q 51.125 28.328125 47.28125 31.5625 
Q 43.453125 34.8125 35.5 34.8125 
z
M 19.671875 64.796875 
L 19.671875 42.828125 
L 34.28125 42.828125 
Q 41.5 42.828125 45.03125 45.53125 
Q 48.578125 48.25 48.578125 53.8125 
Q 48.578125 59.328125 45.03125 62.0625 
Q 41.5 64.796875 34.28125 64.796875 
z
M 9.8125 72.90625 
L 35.015625 72.90625 
Q 46.296875 72.90625 52.390625 68.21875 
Q 58.5 63.53125 58.5 54.890625 
Q 58.5 48.1875 55.375 44.234375 
Q 52.25 40.28125 46.1875 39.3125 
Q 53.46875 37.75 57.5 32.78125 
Q 61.53125 27.828125 61.53125 20.40625 
Q 61.53125 10.640625 54.890625 5.3125 
Q 48.25 0 35.984375 0 
L 9.8125 0 
z
" id="DejaVuSans-66"/>
      <path id="DejaVuSans-32"/>
      <path d="M 18.109375 8.203125 
L 18.109375 -20.796875 
L 9.078125 -20.796875 
L 9.078125 54.6875 
L 18.109375 54.6875 
L 18.109375 46.390625 
Q 20.953125 51.265625 25.265625 53.625 
Q 29.59375 56 35.59375 56 
Q 45.5625 56 51.78125 48.09375 
Q 58.015625 40.1875 58.015625 27.296875 
Q 58.015625 14.40625 51.78125 6.484375 
Q 45.5625 -1.421875 35.59375 -1.421875 
Q 29.59375 -1.421875 25.265625 0.953125 
Q 20.953125 3.328125 18.109375 8.203125 
z
M 48.6875 27.296875 
Q 48.6875 37.203125 44.609375 42.84375 
Q 40.53125 48.484375 33.40625 48.484375 
Q 26.265625 48.484375 22.1875 42.84375 
Q 18.109375 37.203125 18.109375 27.296875 
Q 18.109375 17.390625 22.1875 11.75 
Q 26.265625 6.109375 33.40625 6.109375 
Q 40.53125 6.109375 44.609375 11.75 
Q 48.6875 17.390625 48.6875 27.296875 
z
" id="DejaVuSans-112"/>
      <path d="M 48.78125 52.59375 
L 48.78125 44.1875 
Q 44.96875 46.296875 41.140625 47.34375 
Q 37.3125 48.390625 33.40625 48.390625 
Q 24.65625 48.390625 19.8125 42.84375 
Q 14.984375 37.3125 14.984375 27.296875 
Q 14.984375 17.28125 19.8125 11.734375 
Q 24.65625 6.203125 33.40625 6.203125 
Q 37.3125 6.203125 41.140625 7.25 
Q 44.96875 8.296875 48.78125 10.40625 
L 48.78125 2.09375 
Q 45.015625 0.34375 40.984375 -0.53125 
Q 36.96875 -1.421875 32.421875 -1.421875 
Q 20.0625 -1.421875 12.78125 6.34375 
Q 5.515625 14.109375 5.515625 27.296875 
Q 5.515625 40.671875 12.859375 48.328125 
Q 20.21875 56 33.015625 56 
Q 37.15625 56 41.109375 55.140625 
Q 45.0625 54.296875 48.78125 52.59375 
z
" id="DejaVuSans-99"/>
      <path d="M 41.109375 46.296875 
Q 39.59375 47.171875 37.8125 47.578125 
Q 36.03125 48 33.890625 48 
Q 26.265625 48 22.1875 43.046875 
Q 18.109375 38.09375 18.109375 28.8125 
L 18.109375 0 
L 9.078125 0 
L 9.078125 54.6875 
L 18.109375 54.6875 
L 18.109375 46.1875 
Q 20.953125 51.171875 25.484375 53.578125 
Q 30.03125 56 36.53125 56 
Q 37.453125 56 38.578125 55.875 
Q 39.703125 55.765625 41.0625 55.515625 
z
" id="DejaVuSans-114"/>
      <path d="M 31 75.875 
Q 24.46875 64.65625 21.28125 53.65625 
Q 18.109375 42.671875 18.109375 31.390625 
Q 18.109375 20.125 21.3125 9.0625 
Q 24.515625 -2 31 -13.1875 
L 23.1875 -13.1875 
Q 15.875 -1.703125 12.234375 9.375 
Q 8.59375 20.453125 8.59375 31.390625 
Q 8.59375 42.28125 12.203125 53.3125 
Q 15.828125 64.359375 23.1875 75.875 
z
" id="DejaVuSans-40"/>
      <path d="M 30.609375 48.390625 
Q 23.390625 48.390625 19.1875 42.75 
Q 14.984375 37.109375 14.984375 27.296875 
Q 14.984375 17.484375 19.15625 11.84375 
Q 23.34375 6.203125 30.609375 6.203125 
Q 37.796875 6.203125 41.984375 11.859375 
Q 46.1875 17.53125 46.1875 27.296875 
Q 46.1875 37.015625 41.984375 42.703125 
Q 37.796875 48.390625 30.609375 48.390625 
z
M 30.609375 56 
Q 42.328125 56 49.015625 48.375 
Q 55.71875 40.765625 55.71875 27.296875 
Q 55.71875 13.875 49.015625 6.21875 
Q 42.328125 -1.421875 30.609375 -1.421875 
Q 18.84375 -1.421875 12.171875 6.21875 
Q 5.515625 13.875 5.515625 27.296875 
Q 5.515625 40.765625 12.171875 48.375 
Q 18.84375 56 30.609375 56 
z
" id="DejaVuSans-111"/>
      <path d="M 54.890625 33.015625 
L 54.890625 0 
L 45.90625 0 
L 45.90625 32.71875 
Q 45.90625 40.484375 42.875 44.328125 
Q 39.84375 48.1875 33.796875 48.1875 
Q 26.515625 48.1875 22.3125 43.546875 
Q 18.109375 38.921875 18.109375 30.90625 
L 18.109375 0 
L 9.078125 0 
L 9.078125 75.984375 
L 18.109375 75.984375 
L 18.109375 46.1875 
Q 21.34375 51.125 25.703125 53.5625 
Q 30.078125 56 35.796875 56 
Q 45.21875 56 50.046875 50.171875 
Q 54.890625 44.34375 54.890625 33.015625 
z
" id="DejaVuSans-104"/>
      <path d="M 34.28125 27.484375 
Q 23.390625 27.484375 19.1875 25 
Q 14.984375 22.515625 14.984375 16.5 
Q 14.984375 11.71875 18.140625 8.90625 
Q 21.296875 6.109375 26.703125 6.109375 
Q 34.1875 6.109375 38.703125 11.40625 
Q 43.21875 16.703125 43.21875 25.484375 
L 43.21875 27.484375 
z
M 52.203125 31.203125 
L 52.203125 0 
L 43.21875 0 
L 43.21875 8.296875 
Q 40.140625 3.328125 35.546875 0.953125 
Q 30.953125 -1.421875 24.3125 -1.421875 
Q 15.921875 -1.421875 10.953125 3.296875 
Q 6 8.015625 6 15.921875 
Q 6 25.140625 12.171875 29.828125 
Q 18.359375 34.515625 30.609375 34.515625 
L 43.21875 34.515625 
L 43.21875 35.40625 
Q 43.21875 41.609375 39.140625 45 
Q 35.0625 48.390625 27.6875 48.390625 
Q 23 48.390625 18.546875 47.265625 
Q 14.109375 46.140625 10.015625 43.890625 
L 10.015625 52.203125 
Q 14.9375 54.109375 19.578125 55.046875 
Q 24.21875 56 28.609375 56 
Q 40.484375 56 46.34375 49.84375 
Q 52.203125 43.703125 52.203125 31.203125 
z
" id="DejaVuSans-97"/>
      <path d="M 48.6875 27.296875 
Q 48.6875 37.203125 44.609375 42.84375 
Q 40.53125 48.484375 33.40625 48.484375 
Q 26.265625 48.484375 22.1875 42.84375 
Q 18.109375 37.203125 18.109375 27.296875 
Q 18.109375 17.390625 22.1875 11.75 
Q 26.265625 6.109375 33.40625 6.109375 
Q 40.53125 6.109375 44.609375 11.75 
Q 48.6875 17.390625 48.6875 27.296875 
z
M 18.109375 46.390625 
Q 20.953125 51.265625 25.265625 53.625 
Q 29.59375 56 35.59375 56 
Q 45.5625 56 51.78125 48.09375 
Q 58.015625 40.1875 58.015625 27.296875 
Q 58.015625 14.40625 51.78125 6.484375 
Q 45.5625 -1.421875 35.59375 -1.421875 
Q 29.59375 -1.421875 25.265625 0.953125 
Q 20.953125 3.328125 18.109375 8.203125 
L 18.109375 0 
L 9.078125 0 
L 9.078125 75.984375 
L 18.109375 75.984375 
z
" id="DejaVuSans-98"/>
      <path d="M 10.6875 12.40625 
L 21 12.40625 
L 21 0 
L 10.6875 0 
z
" id="DejaVuSans-46"/>
      <path d="M 8.015625 75.875 
L 15.828125 75.875 
Q 23.140625 64.359375 26.78125 53.3125 
Q 30.421875 42.28125 30.421875 31.390625 
Q 30.421875 20.453125 26.78125 9.375 
Q 23.140625 -1.703125 15.828125 -13.1875 
L 8.015625 -13.1875 
Q 14.5 -2 17.703125 9.0625 
Q 20.90625 20.125 20.90625 31.390625 
Q 20.90625 42.671875 17.703125 53.65625 
Q 14.5 64.65625 8.015625 75.875 
z
" id="DejaVuSans-41"/>
      <path d="M 8.5 21.578125 
L 8.5 54.6875 
L 17.484375 54.6875 
L 17.484375 21.921875 
Q 17.484375 14.15625 20.5 10.265625 
Q 23.53125 6.390625 29.59375 6.390625 
Q 36.859375 6.390625 41.078125 11.03125 
Q 45.3125 15.671875 45.3125 23.6875 
L 45.3125 54.6875 
L 54.296875 54.6875 
L 54.296875 0 
L 45.3125 0 
L 45.3125 8.40625 
Q 42.046875 3.421875 37.71875 1 
Q 33.40625 -1.421875 27.6875 -1.421875 
Q 18.265625 -1.421875 13.375 4.4375 
Q 8.5 10.296875 8.5 21.578125 
z
M 31.109375 56 
z
" id="DejaVuSans-117"/>
      <path d="M 52 44.1875 
Q 55.375 50.25 60.0625 53.125 
Q 64.75 56 71.09375 56 
Q 79.640625 56 84.28125 50.015625 
Q 88.921875 44.046875 88.921875 33.015625 
L 88.921875 0 
L 79.890625 0 
L 79.890625 32.71875 
Q 79.890625 40.578125 77.09375 44.375 
Q 74.3125 48.1875 68.609375 48.1875 
Q 61.625 48.1875 57.5625 43.546875 
Q 53.515625 38.921875 53.515625 30.90625 
L 53.515625 0 
L 44.484375 0 
L 44.484375 32.71875 
Q 44.484375 40.625 41.703125 44.40625 
Q 38.921875 48.1875 33.109375 48.1875 
Q 26.21875 48.1875 22.15625 43.53125 
Q 18.109375 38.875 18.109375 30.90625 
L 18.109375 0 
L 9.078125 0 
L 9.078125 54.6875 
L 18.109375 54.6875 
L 18.109375 46.1875 
Q 21.1875 51.21875 25.484375 53.609375 
Q 29.78125 56 35.6875 56 
Q 41.65625 56 45.828125 52.96875 
Q 50 49.953125 52 44.1875 
z
" id="DejaVuSans-109"/>
      <path d="M 9.421875 75.984375 
L 18.40625 75.984375 
L 18.40625 0 
L 9.421875 0 
z
" id="DejaVuSans-108"/>
      <path d="M 45.40625 46.390625 
L 45.40625 75.984375 
L 54.390625 75.984375 
L 54.390625 0 
L 45.40625 0 
L 45.40625 8.203125 
Q 42.578125 3.328125 38.25 0.953125 
Q 33.9375 -1.421875 27.875 -1.421875 
Q 17.96875 -1.421875 11.734375 6.484375 
Q 5.515625 14.40625 5.515625 27.296875 
Q 5.515625 40.1875 11.734375 48.09375 
Q 17.96875 56 27.875 56 
Q 33.9375 56 38.25 53.625 
Q 42.578125 51.265625 45.40625 46.390625 
z
M 14.796875 27.296875 
Q 14.796875 17.390625 18.875 11.75 
Q 22.953125 6.109375 30.078125 6.109375 
Q 37.203125 6.109375 41.296875 11.75 
Q 45.40625 17.390625 45.40625 27.296875 
Q 45.40625 37.203125 41.296875 42.84375 
Q 37.203125 48.484375 30.078125 48.484375 
Q 22.953125 48.484375 18.875 42.84375 
Q 14.796875 37.203125 14.796875 27.296875 
z
" id="DejaVuSans-100"/>
      <path d="M 44.28125 53.078125 
L 44.28125 44.578125 
Q 40.484375 46.53125 36.375 47.5 
Q 32.28125 48.484375 27.875 48.484375 
Q 21.1875 48.484375 17.84375 46.4375 
Q 14.5 44.390625 14.5 40.28125 
Q 14.5 37.15625 16.890625 35.375 
Q 19.28125 33.59375 26.515625 31.984375 
L 29.59375 31.296875 
Q 39.15625 29.25 43.1875 25.515625 
Q 47.21875 21.78125 47.21875 15.09375 
Q 47.21875 7.46875 41.1875 3.015625 
Q 35.15625 -1.421875 24.609375 -1.421875 
Q 20.21875 -1.421875 15.453125 -0.5625 
Q 10.6875 0.296875 5.421875 2 
L 5.421875 11.28125 
Q 10.40625 8.6875 15.234375 7.390625 
Q 20.0625 6.109375 24.8125 6.109375 
Q 31.15625 6.109375 34.5625 8.28125 
Q 37.984375 10.453125 37.984375 14.40625 
Q 37.984375 18.0625 35.515625 20.015625 
Q 33.0625 21.96875 24.703125 23.78125 
L 21.578125 24.515625 
Q 13.234375 26.265625 9.515625 29.90625 
Q 5.8125 33.546875 5.8125 39.890625 
Q 5.8125 47.609375 11.28125 51.796875 
Q 16.75 56 26.8125 56 
Q 31.78125 56 36.171875 55.265625 
Q 40.578125 54.546875 44.28125 53.078125 
z
" id="DejaVuSans-115"/>
     </defs>
     <g transform="translate(18.398438 240.764102)rotate(-90)scale(0.1 -0.1)">
      <use xlink:href="#DejaVuSans-67"/>
      <use x="69.824219" xlink:href="#DejaVuSans-66"/>
      <use x="138.427734" xlink:href="#DejaVuSans-32"/>
      <use x="170.214844" xlink:href="#DejaVuSans-112"/>
      <use x="233.691406" xlink:href="#DejaVuSans-99"/>
      <use x="288.671875" xlink:href="#DejaVuSans-114"/>
      <use x="329.785156" xlink:href="#DejaVuSans-32"/>
      <use x="361.572266" xlink:href="#DejaVuSans-40"/>
      <use x="400.585938" xlink:href="#DejaVuSans-112"/>
      <use x="464.0625" xlink:href="#DejaVuSans-111"/>
      <use x="525.244141" xlink:href="#DejaVuSans-114"/>
      <use x="566.357422" xlink:href="#DejaVuSans-32"/>
      <use x="598.144531" xlink:href="#DejaVuSans-49"/>
      <use x="661.767578" xlink:href="#DejaVuSans-48"/>
      <use x="725.390625" xlink:href="#DejaVuSans-48"/>
      <use x="789.013672" xlink:href="#DejaVuSans-48"/>
      <use x="852.636719" xlink:href="#DejaVuSans-48"/>
      <use x="916.259766" xlink:href="#DejaVuSans-48"/>
      <use x="979.882812" xlink:href="#DejaVuSans-32"/>
      <use x="1011.669922" xlink:href="#DejaVuSans-104"/>
      <use x="1075.048828" xlink:href="#DejaVuSans-97"/>
      <use x="1136.328125" xlink:href="#DejaVuSans-98"/>
      <use x="1199.804688" xlink:href="#DejaVuSans-46"/>
      <use x="1231.591797" xlink:href="#DejaVuSans-41"/>
      <use x="1270.605469" xlink:href="#DejaVuSans-32"/>
      <use x="1302.392578" xlink:href="#DejaVuSans-97"/>
      <use x="1363.671875" xlink:href="#DejaVuSans-99"/>
      <use x="1418.652344" xlink:href="#DejaVuSans-117"/>
      <use x="1482.03125" xlink:href="#DejaVuSans-109"/>
      <use x="1579.443359" xlink:href="#DejaVuSans-117"/>
      <use x="1642.822266" xlink:href="#DejaVuSans-108"/>
      <use x="1670.605469" xlink:href="#DejaVuSans-97"/>
      <use x="1731.884766" xlink:href="#DejaVuSans-100"/>
      <use x="1795.361328" xlink:href="#DejaVuSans-111"/>
      <use x="1856.542969" xlink:href="#DejaVuSans-115"/>
     </g>
    </g>
   </g>
   <g id="line2d_16">
    <path clip-path="url(#p8b9f302acb)" d="M 68.713284 279.86258 
L 72.93367 279.86258 
L 77.154056 279.86258 
L 81.374441 279.86258 
L 85.594827 279.86258 
L 89.815213 279.86258 
L 94.035599 279.86258 
L 98.255985 279.86258 
L 102.47637 279.749744 
L 106.696756 278.734222 
L 110.917142 278.734222 
L 115.137528 278.734222 
L 119.357914 278.734222 
L 123.5783 278.734222 
L 127.798685 278.734222 
L 132.019071 278.50855 
L 136.239457 278.50855 
L 140.459843 278.50855 
L 144.680229 278.50855 
L 148.900614 278.057207 
L 153.121 276.590342 
L 157.341386 276.36467 
L 161.561772 274.107954 
L 165.782158 273.318104 
L 170.002543 273.318104 
L 174.222929 272.189746 
L 178.443315 270.497209 
L 182.663701 263.614226 
L 186.884087 255.602885 
L 191.104473 248.042887 
L 195.324858 240.708561 
L 199.545244 231.90737 
L 203.76563 222.316327 
L 207.986016 204.149766 
L 212.206402 188.465591 
L 216.426787 174.135446 
L 220.647173 164.431568 
L 224.867559 155.743212 
L 229.087945 147.731871 
L 233.308331 142.992768 
L 237.528716 136.7868 
L 241.749102 130.806503 
L 245.969488 123.697848 
L 250.189874 117.266208 
L 254.41026 112.527105 
L 258.630646 110.496061 
L 262.851031 102.48472 
L 267.071417 97.181438 
L 271.291803 92.668006 
L 275.512189 85.897859 
L 279.732575 82.174278 
L 283.95296 79.353383 
L 288.173346 77.209503 
L 292.393732 74.162937 
L 296.614118 71.68055 
L 300.834504 67.279954 
L 305.054889 55.31936 
L 309.275275 59.945628 
L 313.495661 57.237569 
L 317.716047 54.416674 
L 321.936433 52.836973 
L 326.156819 51.595779 
L 330.377204 47.985034 
L 334.59759 46.179662 
L 338.817976 44.825632 
L 343.038362 42.45608 
L 347.258748 41.214887 
L 351.479133 37.716977 
L 355.699519 34.670411 
L 359.919905 33.429217 
L 364.140291 31.511009 
L 368.360677 31.059666 
L 372.581062 30.94683 
L 376.801448 30.833994 
L 381.021834 30.15698 
L 385.24222 29.367129 
L 389.462606 28.0131 
L 393.682992 26.997577 
L 397.903377 26.65907 
L 402.123763 26.546234 
L 406.344149 26.433399 
L 410.564535 25.305041 
L 414.784921 25.305041 
L 419.005306 24.51519 
L 423.225692 24.289519 
L 427.446078 23.951011 
L 431.666464 23.612504 
" style="fill:none;stroke:#1f77b4;stroke-linecap:square;stroke-width:1.5;"/>
    <defs>
     <path d="M 0 1.5 
C 0.397805 1.5 0.77937 1.341951 1.06066 1.06066 
C 1.341951 0.77937 1.5 0.397805 1.5 0 
C 1.5 -0.397805 1.341951 -0.77937 1.06066 -1.06066 
C 0.77937 -1.341951 0.397805 -1.5 0 -1.5 
C -0.397805 -1.5 -0.77937 -1.341951 -1.06066 -1.06066 
C -1.341951 -0.77937 -1.5 -0.397805 -1.5 0 
C -1.5 0.397805 -1.341951 0.77937 -1.06066 1.06066 
C -0.77937 1.341951 -0.397805 1.5 0 1.5 
z
" id="m395001a815" style="stroke:#1f77b4;"/>
    </defs>
    <g clip-path="url(#p8b9f302acb)">
     <use style="fill:#1f77b4;stroke:#1f77b4;" x="68.713284" xlink:href="#m395001a815" y="279.86258"/>
     <use style="fill:#1f77b4;stroke:#1f77b4;" x="72.93367" xlink:href="#m395001a815" y="279.86258"/>
     <use style="fill:#1f77b4;stroke:#1f77b4;" x="77.154056" xlink:href="#m395001a815" y="279.86258"/>
     <use style="fill:#1f77b4;stroke:#1f77b4;" x="81.374441" xlink:href="#m395001a815" y="279.86258"/>
     <use style="fill:#1f77b4;stroke:#1f77b4;" x="85.594827" xlink:href="#m395001a815" y="279.86258"/>
     <use style="fill:#1f77b4;stroke:#1f77b4;" x="89.815213" xlink:href="#m395001a815" y="279.86258"/>
     <use style="fill:#1f77b4;stroke:#1f77b4;" x="94.035599" xlink:href="#m395001a815" y="279.86258"/>
     <use style="fill:#1f77b4;stroke:#1f77b4;" x="98.255985" xlink:href="#m395001a815" y="279.86258"/>
     <use style="fill:#1f77b4;stroke:#1f77b4;" x="102.47637" xlink:href="#m395001a815" y="279.749744"/>
     <use style="fill:#1f77b4;stroke:#1f77b4;" x="106.696756" xlink:href="#m395001a815" y="278.734222"/>
     <use style="fill:#1f77b4;stroke:#1f77b4;" x="110.917142" xlink:href="#m395001a815" y="278.734222"/>
     <use style="fill:#1f77b4;stroke:#1f77b4;" x="115.137528" xlink:href="#m395001a815" y="278.734222"/>
     <use style="fill:#1f77b4;stroke:#1f77b4;" x="119.357914" xlink:href="#m395001a815" y="278.734222"/>
     <use style="fill:#1f77b4;stroke:#1f77b4;" x="123.5783" xlink:href="#m395001a815" y="278.734222"/>
     <use style="fill:#1f77b4;stroke:#1f77b4;" x="127.798685" xlink:href="#m395001a815" y="278.734222"/>
     <use style="fill:#1f77b4;stroke:#1f77b4;" x="132.019071" xlink:href="#m395001a815" y="278.50855"/>
     <use style="fill:#1f77b4;stroke:#1f77b4;" x="136.239457" xlink:href="#m395001a815" y="278.50855"/>
     <use style="fill:#1f77b4;stroke:#1f77b4;" x="140.459843" xlink:href="#m395001a815" y="278.50855"/>
     <use style="fill:#1f77b4;stroke:#1f77b4;" x="144.680229" xlink:href="#m395001a815" y="278.50855"/>
     <use style="fill:#1f77b4;stroke:#1f77b4;" x="148.900614" xlink:href="#m395001a815" y="278.057207"/>
     <use style="fill:#1f77b4;stroke:#1f77b4;" x="153.121" xlink:href="#m395001a815" y="276.590342"/>
     <use style="fill:#1f77b4;stroke:#1f77b4;" x="157.341386" xlink:href="#m395001a815" y="276.36467"/>
     <use style="fill:#1f77b4;stroke:#1f77b4;" x="161.561772" xlink:href="#m395001a815" y="274.107954"/>
     <use style="fill:#1f77b4;stroke:#1f77b4;" x="165.782158" xlink:href="#m395001a815" y="273.318104"/>
     <use style="fill:#1f77b4;stroke:#1f77b4;" x="170.002543" xlink:href="#m395001a815" y="273.318104"/>
     <use style="fill:#1f77b4;stroke:#1f77b4;" x="174.222929" xlink:href="#m395001a815" y="272.189746"/>
     <use style="fill:#1f77b4;stroke:#1f77b4;" x="178.443315" xlink:href="#m395001a815" y="270.497209"/>
     <use style="fill:#1f77b4;stroke:#1f77b4;" x="182.663701" xlink:href="#m395001a815" y="263.614226"/>
     <use style="fill:#1f77b4;stroke:#1f77b4;" x="186.884087" xlink:href="#m395001a815" y="255.602885"/>
     <use style="fill:#1f77b4;stroke:#1f77b4;" x="191.104473" xlink:href="#m395001a815" y="248.042887"/>
     <use style="fill:#1f77b4;stroke:#1f77b4;" x="195.324858" xlink:href="#m395001a815" y="240.708561"/>
     <use style="fill:#1f77b4;stroke:#1f77b4;" x="199.545244" xlink:href="#m395001a815" y="231.90737"/>
     <use style="fill:#1f77b4;stroke:#1f77b4;" x="203.76563" xlink:href="#m395001a815" y="222.316327"/>
     <use style="fill:#1f77b4;stroke:#1f77b4;" x="207.986016" xlink:href="#m395001a815" y="204.149766"/>
     <use style="fill:#1f77b4;stroke:#1f77b4;" x="212.206402" xlink:href="#m395001a815" y="188.465591"/>
     <use style="fill:#1f77b4;stroke:#1f77b4;" x="216.426787" xlink:href="#m395001a815" y="174.135446"/>
     <use style="fill:#1f77b4;stroke:#1f77b4;" x="220.647173" xlink:href="#m395001a815" y="164.431568"/>
     <use style="fill:#1f77b4;stroke:#1f77b4;" x="224.867559" xlink:href="#m395001a815" y="155.743212"/>
     <use style="fill:#1f77b4;stroke:#1f77b4;" x="229.087945" xlink:href="#m395001a815" y="147.731871"/>
     <use style="fill:#1f77b4;stroke:#1f77b4;" x="233.308331" xlink:href="#m395001a815" y="142.992768"/>
     <use style="fill:#1f77b4;stroke:#1f77b4;" x="237.528716" xlink:href="#m395001a815" y="136.7868"/>
     <use style="fill:#1f77b4;stroke:#1f77b4;" x="241.749102" xlink:href="#m395001a815" y="130.806503"/>
     <use style="fill:#1f77b4;stroke:#1f77b4;" x="245.969488" xlink:href="#m395001a815" y="123.697848"/>
     <use style="fill:#1f77b4;stroke:#1f77b4;" x="250.189874" xlink:href="#m395001a815" y="117.266208"/>
     <use style="fill:#1f77b4;stroke:#1f77b4;" x="254.41026" xlink:href="#m395001a815" y="112.527105"/>
     <use style="fill:#1f77b4;stroke:#1f77b4;" x="258.630646" xlink:href="#m395001a815" y="110.496061"/>
     <use style="fill:#1f77b4;stroke:#1f77b4;" x="262.851031" xlink:href="#m395001a815" y="102.48472"/>
     <use style="fill:#1f77b4;stroke:#1f77b4;" x="267.071417" xlink:href="#m395001a815" y="97.181438"/>
     <use style="fill:#1f77b4;stroke:#1f77b4;" x="271.291803" xlink:href="#m395001a815" y="92.668006"/>
     <use style="fill:#1f77b4;stroke:#1f77b4;" x="275.512189" xlink:href="#m395001a815" y="85.897859"/>
     <use style="fill:#1f77b4;stroke:#1f77b4;" x="279.732575" xlink:href="#m395001a815" y="82.174278"/>
     <use style="fill:#1f77b4;stroke:#1f77b4;" x="283.95296" xlink:href="#m395001a815" y="79.353383"/>
     <use style="fill:#1f77b4;stroke:#1f77b4;" x="288.173346" xlink:href="#m395001a815" y="77.209503"/>
     <use style="fill:#1f77b4;stroke:#1f77b4;" x="292.393732" xlink:href="#m395001a815" y="74.162937"/>
     <use style="fill:#1f77b4;stroke:#1f77b4;" x="296.614118" xlink:href="#m395001a815" y="71.68055"/>
     <use style="fill:#1f77b4;stroke:#1f77b4;" x="300.834504" xlink:href="#m395001a815" y="67.279954"/>
     <use style="fill:#1f77b4;stroke:#1f77b4;" x="305.054889" xlink:href="#m395001a815" y="55.31936"/>
     <use style="fill:#1f77b4;stroke:#1f77b4;" x="309.275275" xlink:href="#m395001a815" y="59.945628"/>
     <use style="fill:#1f77b4;stroke:#1f77b4;" x="313.495661" xlink:href="#m395001a815" y="57.237569"/>
     <use style="fill:#1f77b4;stroke:#1f77b4;" x="317.716047" xlink:href="#m395001a815" y="54.416674"/>
     <use style="fill:#1f77b4;stroke:#1f77b4;" x="321.936433" xlink:href="#m395001a815" y="52.836973"/>
     <use style="fill:#1f77b4;stroke:#1f77b4;" x="326.156819" xlink:href="#m395001a815" y="51.595779"/>
     <use style="fill:#1f77b4;stroke:#1f77b4;" x="330.377204" xlink:href="#m395001a815" y="47.985034"/>
     <use style="fill:#1f77b4;stroke:#1f77b4;" x="334.59759" xlink:href="#m395001a815" y="46.179662"/>
     <use style="fill:#1f77b4;stroke:#1f77b4;" x="338.817976" xlink:href="#m395001a815" y="44.825632"/>
     <use style="fill:#1f77b4;stroke:#1f77b4;" x="343.038362" xlink:href="#m395001a815" y="42.45608"/>
     <use style="fill:#1f77b4;stroke:#1f77b4;" x="347.258748" xlink:href="#m395001a815" y="41.214887"/>
     <use style="fill:#1f77b4;stroke:#1f77b4;" x="351.479133" xlink:href="#m395001a815" y="37.716977"/>
     <use style="fill:#1f77b4;stroke:#1f77b4;" x="355.699519" xlink:href="#m395001a815" y="34.670411"/>
     <use style="fill:#1f77b4;stroke:#1f77b4;" x="359.919905" xlink:href="#m395001a815" y="33.429217"/>
     <use style="fill:#1f77b4;stroke:#1f77b4;" x="364.140291" xlink:href="#m395001a815" y="31.511009"/>
     <use style="fill:#1f77b4;stroke:#1f77b4;" x="368.360677" xlink:href="#m395001a815" y="31.059666"/>
     <use style="fill:#1f77b4;stroke:#1f77b4;" x="372.581062" xlink:href="#m395001a815" y="30.94683"/>
     <use style="fill:#1f77b4;stroke:#1f77b4;" x="376.801448" xlink:href="#m395001a815" y="30.833994"/>
     <use style="fill:#1f77b4;stroke:#1f77b4;" x="381.021834" xlink:href="#m395001a815" y="30.15698"/>
     <use style="fill:#1f77b4;stroke:#1f77b4;" x="385.24222" xlink:href="#m395001a815" y="29.367129"/>
     <use style="fill:#1f77b4;stroke:#1f77b4;" x="389.462606" xlink:href="#m395001a815" y="28.0131"/>
     <use style="fill:#1f77b4;stroke:#1f77b4;" x="393.682992" xlink:href="#m395001a815" y="26.997577"/>
     <use style="fill:#1f77b4;stroke:#1f77b4;" x="397.903377" xlink:href="#m395001a815" y="26.65907"/>
     <use style="fill:#1f77b4;stroke:#1f77b4;" x="402.123763" xlink:href="#m395001a815" y="26.546234"/>
     <use style="fill:#1f77b4;stroke:#1f77b4;" x="406.344149" xlink:href="#m395001a815" y="26.433399"/>
     <use style="fill:#1f77b4;stroke:#1f77b4;" x="410.564535" xlink:href="#m395001a815" y="25.305041"/>
     <use style="fill:#1f77b4;stroke:#1f77b4;" x="414.784921" xlink:href="#m395001a815" y="25.305041"/>
     <use style="fill:#1f77b4;stroke:#1f77b4;" x="419.005306" xlink:href="#m395001a815" y="24.51519"/>
     <use style="fill:#1f77b4;stroke:#1f77b4;" x="423.225692" xlink:href="#m395001a815" y="24.289519"/>
     <use style="fill:#1f77b4;stroke:#1f77b4;" x="427.446078" xlink:href="#m395001a815" y="23.951011"/>
     <use style="fill:#1f77b4;stroke:#1f77b4;" x="431.666464" xlink:href="#m395001a815" y="23.612504"/>
    </g>
   </g>
   <g id="patch_3">
    <path d="M 50.565625 279.86258 
L 50.565625 10.8 
" style="fill:none;stroke:#000000;stroke-linecap:square;stroke-linejoin:miter;stroke-width:0.8;"/>
   </g>
   <g id="patch_4">
    <path d="M 449.814123 279.86258 
L 449.814123 10.8 
" style="fill:none;stroke:#000000;stroke-linecap:square;stroke-linejoin:miter;stroke-width:0.8;"/>
   </g>
   <g id="patch_5">
    <path d="M 50.565625 279.86258 
L 449.814123 279.86258 
" style="fill:none;stroke:#000000;stroke-linecap:square;stroke-linejoin:miter;stroke-width:0.8;"/>
   </g>
   <g id="patch_6">
    <path d="M 50.565625 10.8 
L 449.814123 10.8 
" style="fill:none;stroke:#000000;stroke-linecap:square;stroke-linejoin:miter;stroke-width:0.8;"/>
   </g>
  </g>
 </g>
 <defs>
  <clipPath id="p8b9f302acb">
   <rect height="269.06258" width="399.248498" x="50.565625" y="10.8"/>
  </clipPath>
 </defs>
</svg>
