<?xml version="1.0" encoding="utf-8" standalone="no"?>
<!DOCTYPE svg PUBLIC "-//W3C//DTD SVG 1.1//EN"
  "http://www.w3.org/Graphics/SVG/1.1/DTD/svg11.dtd">
<!-- Created with matplotlib (https://matplotlib.org/) -->
<svg height="345.6pt" version="1.1" viewBox="0 0 460.8 345.6" width="460.8pt" xmlns="http://www.w3.org/2000/svg" xmlns:xlink="http://www.w3.org/1999/xlink">
 <defs>
  <style type="text/css">
*{stroke-linecap:butt;stroke-linejoin:round;}
  </style>
 </defs>
 <g id="figure_1">
  <g id="patch_1">
   <path d="M 0 345.6 
L 460.8 345.6 
L 460.8 0 
L 0 0 
z
" style="fill:#ffffff;"/>
  </g>
  <g id="axes_1">
   <g id="patch_2">
    <path d="M 50.565625 279.86258 
L 434.345614 279.86258 
L 434.345614 10.8 
L 50.565625 10.8 
z
" style="fill:#ffffff;"/>
   </g>
   <g id="matplotlib.axis_1">
    <g id="xtick_1">
     <g id="line2d_1">
      <defs>
       <path d="M 0 0 
L 0 3.5 
" id="m34425f0884" style="stroke:#000000;stroke-width:0.8;"/>
      </defs>
      <g>
       <use style="stroke:#000000;stroke-width:0.8;" x="106.303073" xlink:href="#m34425f0884" y="279.86258"/>
      </g>
     </g>
     <g id="text_1">
      <!-- 2020-03-01 -->
      <defs>
       <path d="M 19.1875 8.296875 
L 53.609375 8.296875 
L 53.609375 0 
L 7.328125 0 
L 7.328125 8.296875 
Q 12.9375 14.109375 22.625 23.890625 
Q 32.328125 33.6875 34.8125 36.53125 
Q 39.546875 41.84375 41.421875 45.53125 
Q 43.3125 49.21875 43.3125 52.78125 
Q 43.3125 58.59375 39.234375 62.25 
Q 35.15625 65.921875 28.609375 65.921875 
Q 23.96875 65.921875 18.8125 64.3125 
Q 13.671875 62.703125 7.8125 59.421875 
L 7.8125 69.390625 
Q 13.765625 71.78125 18.9375 73 
Q 24.125 74.21875 28.421875 74.21875 
Q 39.75 74.21875 46.484375 68.546875 
Q 53.21875 62.890625 53.21875 53.421875 
Q 53.21875 48.921875 51.53125 44.890625 
Q 49.859375 40.875 45.40625 35.40625 
Q 44.1875 33.984375 37.640625 27.21875 
Q 31.109375 20.453125 19.1875 8.296875 
z
" id="DejaVuSans-50"/>
       <path d="M 31.78125 66.40625 
Q 24.171875 66.40625 20.328125 58.90625 
Q 16.5 51.421875 16.5 36.375 
Q 16.5 21.390625 20.328125 13.890625 
Q 24.171875 6.390625 31.78125 6.390625 
Q 39.453125 6.390625 43.28125 13.890625 
Q 47.125 21.390625 47.125 36.375 
Q 47.125 51.421875 43.28125 58.90625 
Q 39.453125 66.40625 31.78125 66.40625 
z
M 31.78125 74.21875 
Q 44.046875 74.21875 50.515625 64.515625 
Q 56.984375 54.828125 56.984375 36.375 
Q 56.984375 17.96875 50.515625 8.265625 
Q 44.046875 -1.421875 31.78125 -1.421875 
Q 19.53125 -1.421875 13.0625 8.265625 
Q 6.59375 17.96875 6.59375 36.375 
Q 6.59375 54.828125 13.0625 64.515625 
Q 19.53125 74.21875 31.78125 74.21875 
z
" id="DejaVuSans-48"/>
       <path d="M 4.890625 31.390625 
L 31.203125 31.390625 
L 31.203125 23.390625 
L 4.890625 23.390625 
z
" id="DejaVuSans-45"/>
       <path d="M 40.578125 39.3125 
Q 47.65625 37.796875 51.625 33 
Q 55.609375 28.21875 55.609375 21.1875 
Q 55.609375 10.40625 48.1875 4.484375 
Q 40.765625 -1.421875 27.09375 -1.421875 
Q 22.515625 -1.421875 17.65625 -0.515625 
Q 12.796875 0.390625 7.625 2.203125 
L 7.625 11.71875 
Q 11.71875 9.328125 16.59375 8.109375 
Q 21.484375 6.890625 26.8125 6.890625 
Q 36.078125 6.890625 40.9375 10.546875 
Q 45.796875 14.203125 45.796875 21.1875 
Q 45.796875 27.640625 41.28125 31.265625 
Q 36.765625 34.90625 28.71875 34.90625 
L 20.21875 34.90625 
L 20.21875 43.015625 
L 29.109375 43.015625 
Q 36.375 43.015625 40.234375 45.921875 
Q 44.09375 48.828125 44.09375 54.296875 
Q 44.09375 59.90625 40.109375 62.90625 
Q 36.140625 65.921875 28.71875 65.921875 
Q 24.65625 65.921875 20.015625 65.03125 
Q 15.375 64.15625 9.8125 62.3125 
L 9.8125 71.09375 
Q 15.4375 72.65625 20.34375 73.4375 
Q 25.25 74.21875 29.59375 74.21875 
Q 40.828125 74.21875 47.359375 69.109375 
Q 53.90625 64.015625 53.90625 55.328125 
Q 53.90625 49.265625 50.4375 45.09375 
Q 46.96875 40.921875 40.578125 39.3125 
z
" id="DejaVuSans-51"/>
       <path d="M 12.40625 8.296875 
L 28.515625 8.296875 
L 28.515625 63.921875 
L 10.984375 60.40625 
L 10.984375 69.390625 
L 28.421875 72.90625 
L 38.28125 72.90625 
L 38.28125 8.296875 
L 54.390625 8.296875 
L 54.390625 0 
L 12.40625 0 
z
" id="DejaVuSans-49"/>
      </defs>
      <g transform="translate(87.70727 333.329439)rotate(-45)scale(0.1 -0.1)">
       <use xlink:href="#DejaVuSans-50"/>
       <use x="63.623047" xlink:href="#DejaVuSans-48"/>
       <use x="127.246094" xlink:href="#DejaVuSans-50"/>
       <use x="190.869141" xlink:href="#DejaVuSans-48"/>
       <use x="254.492188" xlink:href="#DejaVuSans-45"/>
       <use x="290.576172" xlink:href="#DejaVuSans-48"/>
       <use x="354.199219" xlink:href="#DejaVuSans-51"/>
       <use x="417.822266" xlink:href="#DejaVuSans-45"/>
       <use x="453.90625" xlink:href="#DejaVuSans-48"/>
       <use x="517.529297" xlink:href="#DejaVuSans-49"/>
      </g>
     </g>
    </g>
    <g id="xtick_2">
     <g id="line2d_2">
      <g>
       <use style="stroke:#000000;stroke-width:0.8;" x="165.869812" xlink:href="#m34425f0884" y="279.86258"/>
      </g>
     </g>
     <g id="text_2">
      <!-- 2020-03-15 -->
      <defs>
       <path d="M 10.796875 72.90625 
L 49.515625 72.90625 
L 49.515625 64.59375 
L 19.828125 64.59375 
L 19.828125 46.734375 
Q 21.96875 47.46875 24.109375 47.828125 
Q 26.265625 48.1875 28.421875 48.1875 
Q 40.625 48.1875 47.75 41.5 
Q 54.890625 34.8125 54.890625 23.390625 
Q 54.890625 11.625 47.5625 5.09375 
Q 40.234375 -1.421875 26.90625 -1.421875 
Q 22.3125 -1.421875 17.546875 -0.640625 
Q 12.796875 0.140625 7.71875 1.703125 
L 7.71875 11.625 
Q 12.109375 9.234375 16.796875 8.0625 
Q 21.484375 6.890625 26.703125 6.890625 
Q 35.15625 6.890625 40.078125 11.328125 
Q 45.015625 15.765625 45.015625 23.390625 
Q 45.015625 31 40.078125 35.4375 
Q 35.15625 39.890625 26.703125 39.890625 
Q 22.75 39.890625 18.8125 39.015625 
Q 14.890625 38.140625 10.796875 36.28125 
z
" id="DejaVuSans-53"/>
      </defs>
      <g transform="translate(147.274009 333.329439)rotate(-45)scale(0.1 -0.1)">
       <use xlink:href="#DejaVuSans-50"/>
       <use x="63.623047" xlink:href="#DejaVuSans-48"/>
       <use x="127.246094" xlink:href="#DejaVuSans-50"/>
       <use x="190.869141" xlink:href="#DejaVuSans-48"/>
       <use x="254.492188" xlink:href="#DejaVuSans-45"/>
       <use x="290.576172" xlink:href="#DejaVuSans-48"/>
       <use x="354.199219" xlink:href="#DejaVuSans-51"/>
       <use x="417.822266" xlink:href="#DejaVuSans-45"/>
       <use x="453.90625" xlink:href="#DejaVuSans-49"/>
       <use x="517.529297" xlink:href="#DejaVuSans-53"/>
      </g>
     </g>
    </g>
    <g id="xtick_3">
     <g id="line2d_3">
      <g>
       <use style="stroke:#000000;stroke-width:0.8;" x="238.200852" xlink:href="#m34425f0884" y="279.86258"/>
      </g>
     </g>
     <g id="text_3">
      <!-- 2020-04-01 -->
      <defs>
       <path d="M 37.796875 64.3125 
L 12.890625 25.390625 
L 37.796875 25.390625 
z
M 35.203125 72.90625 
L 47.609375 72.90625 
L 47.609375 25.390625 
L 58.015625 25.390625 
L 58.015625 17.1875 
L 47.609375 17.1875 
L 47.609375 0 
L 37.796875 0 
L 37.796875 17.1875 
L 4.890625 17.1875 
L 4.890625 26.703125 
z
" id="DejaVuSans-52"/>
      </defs>
      <g transform="translate(219.605049 333.329439)rotate(-45)scale(0.1 -0.1)">
       <use xlink:href="#DejaVuSans-50"/>
       <use x="63.623047" xlink:href="#DejaVuSans-48"/>
       <use x="127.246094" xlink:href="#DejaVuSans-50"/>
       <use x="190.869141" xlink:href="#DejaVuSans-48"/>
       <use x="254.492188" xlink:href="#DejaVuSans-45"/>
       <use x="290.576172" xlink:href="#DejaVuSans-48"/>
       <use x="354.199219" xlink:href="#DejaVuSans-52"/>
       <use x="417.822266" xlink:href="#DejaVuSans-45"/>
       <use x="453.90625" xlink:href="#DejaVuSans-48"/>
       <use x="517.529297" xlink:href="#DejaVuSans-49"/>
      </g>
     </g>
    </g>
    <g id="xtick_4">
     <g id="line2d_4">
      <g>
       <use style="stroke:#000000;stroke-width:0.8;" x="297.767591" xlink:href="#m34425f0884" y="279.86258"/>
      </g>
     </g>
     <g id="text_4">
      <!-- 2020-04-15 -->
      <g transform="translate(279.171788 333.329439)rotate(-45)scale(0.1 -0.1)">
       <use xlink:href="#DejaVuSans-50"/>
       <use x="63.623047" xlink:href="#DejaVuSans-48"/>
       <use x="127.246094" xlink:href="#DejaVuSans-50"/>
       <use x="190.869141" xlink:href="#DejaVuSans-48"/>
       <use x="254.492188" xlink:href="#DejaVuSans-45"/>
       <use x="290.576172" xlink:href="#DejaVuSans-48"/>
       <use x="354.199219" xlink:href="#DejaVuSans-52"/>
       <use x="417.822266" xlink:href="#DejaVuSans-45"/>
       <use x="453.90625" xlink:href="#DejaVuSans-49"/>
       <use x="517.529297" xlink:href="#DejaVuSans-53"/>
      </g>
     </g>
    </g>
    <g id="xtick_5">
     <g id="line2d_5">
      <g>
       <use style="stroke:#000000;stroke-width:0.8;" x="365.843864" xlink:href="#m34425f0884" y="279.86258"/>
      </g>
     </g>
     <g id="text_5">
      <!-- 2020-05-01 -->
      <g transform="translate(347.24806 333.329439)rotate(-45)scale(0.1 -0.1)">
       <use xlink:href="#DejaVuSans-50"/>
       <use x="63.623047" xlink:href="#DejaVuSans-48"/>
       <use x="127.246094" xlink:href="#DejaVuSans-50"/>
       <use x="190.869141" xlink:href="#DejaVuSans-48"/>
       <use x="254.492188" xlink:href="#DejaVuSans-45"/>
       <use x="290.576172" xlink:href="#DejaVuSans-48"/>
       <use x="354.199219" xlink:href="#DejaVuSans-53"/>
       <use x="417.822266" xlink:href="#DejaVuSans-45"/>
       <use x="453.90625" xlink:href="#DejaVuSans-48"/>
       <use x="517.529297" xlink:href="#DejaVuSans-49"/>
      </g>
     </g>
    </g>
    <g id="xtick_6">
     <g id="line2d_6">
      <g>
       <use style="stroke:#000000;stroke-width:0.8;" x="425.410603" xlink:href="#m34425f0884" y="279.86258"/>
      </g>
     </g>
     <g id="text_6">
      <!-- 2020-05-15 -->
      <g transform="translate(406.814799 333.329439)rotate(-45)scale(0.1 -0.1)">
       <use xlink:href="#DejaVuSans-50"/>
       <use x="63.623047" xlink:href="#DejaVuSans-48"/>
       <use x="127.246094" xlink:href="#DejaVuSans-50"/>
       <use x="190.869141" xlink:href="#DejaVuSans-48"/>
       <use x="254.492188" xlink:href="#DejaVuSans-45"/>
       <use x="290.576172" xlink:href="#DejaVuSans-48"/>
       <use x="354.199219" xlink:href="#DejaVuSans-53"/>
       <use x="417.822266" xlink:href="#DejaVuSans-45"/>
       <use x="453.90625" xlink:href="#DejaVuSans-49"/>
       <use x="517.529297" xlink:href="#DejaVuSans-53"/>
      </g>
     </g>
    </g>
   </g>
   <g id="matplotlib.axis_2">
    <g id="ytick_1">
     <g id="line2d_7">
      <defs>
       <path d="M 0 0 
L -3.5 0 
" id="m736434a7bb" style="stroke:#000000;stroke-width:0.8;"/>
      </defs>
      <g>
       <use style="stroke:#000000;stroke-width:0.8;" x="50.565625" xlink:href="#m736434a7bb" y="279.86258"/>
      </g>
     </g>
     <g id="text_7">
      <!-- 0 -->
      <g transform="translate(37.203125 283.661798)scale(0.1 -0.1)">
       <use xlink:href="#DejaVuSans-48"/>
      </g>
     </g>
    </g>
    <g id="ytick_2">
     <g id="line2d_8">
      <g>
       <use style="stroke:#000000;stroke-width:0.8;" x="50.565625" xlink:href="#m736434a7bb" y="244.717223"/>
      </g>
     </g>
     <g id="text_8">
      <!-- 100 -->
      <g transform="translate(24.478125 248.516441)scale(0.1 -0.1)">
       <use xlink:href="#DejaVuSans-49"/>
       <use x="63.623047" xlink:href="#DejaVuSans-48"/>
       <use x="127.246094" xlink:href="#DejaVuSans-48"/>
      </g>
     </g>
    </g>
    <g id="ytick_3">
     <g id="line2d_9">
      <g>
       <use style="stroke:#000000;stroke-width:0.8;" x="50.565625" xlink:href="#m736434a7bb" y="209.571866"/>
      </g>
     </g>
     <g id="text_9">
      <!-- 200 -->
      <g transform="translate(24.478125 213.371084)scale(0.1 -0.1)">
       <use xlink:href="#DejaVuSans-50"/>
       <use x="63.623047" xlink:href="#DejaVuSans-48"/>
       <use x="127.246094" xlink:href="#DejaVuSans-48"/>
      </g>
     </g>
    </g>
    <g id="ytick_4">
     <g id="line2d_10">
      <g>
       <use style="stroke:#000000;stroke-width:0.8;" x="50.565625" xlink:href="#m736434a7bb" y="174.426509"/>
      </g>
     </g>
     <g id="text_10">
      <!-- 300 -->
      <g transform="translate(24.478125 178.225727)scale(0.1 -0.1)">
       <use xlink:href="#DejaVuSans-51"/>
       <use x="63.623047" xlink:href="#DejaVuSans-48"/>
       <use x="127.246094" xlink:href="#DejaVuSans-48"/>
      </g>
     </g>
    </g>
    <g id="ytick_5">
     <g id="line2d_11">
      <g>
       <use style="stroke:#000000;stroke-width:0.8;" x="50.565625" xlink:href="#m736434a7bb" y="139.281152"/>
      </g>
     </g>
     <g id="text_11">
      <!-- 400 -->
      <g transform="translate(24.478125 143.08037)scale(0.1 -0.1)">
       <use xlink:href="#DejaVuSans-52"/>
       <use x="63.623047" xlink:href="#DejaVuSans-48"/>
       <use x="127.246094" xlink:href="#DejaVuSans-48"/>
      </g>
     </g>
    </g>
    <g id="ytick_6">
     <g id="line2d_12">
      <g>
       <use style="stroke:#000000;stroke-width:0.8;" x="50.565625" xlink:href="#m736434a7bb" y="104.135795"/>
      </g>
     </g>
     <g id="text_12">
      <!-- 500 -->
      <g transform="translate(24.478125 107.935013)scale(0.1 -0.1)">
       <use xlink:href="#DejaVuSans-53"/>
       <use x="63.623047" xlink:href="#DejaVuSans-48"/>
       <use x="127.246094" xlink:href="#DejaVuSans-48"/>
      </g>
     </g>
    </g>
    <g id="ytick_7">
     <g id="line2d_13">
      <g>
       <use style="stroke:#000000;stroke-width:0.8;" x="50.565625" xlink:href="#m736434a7bb" y="68.990438"/>
      </g>
     </g>
     <g id="text_13">
      <!-- 600 -->
      <defs>
       <path d="M 33.015625 40.375 
Q 26.375 40.375 22.484375 35.828125 
Q 18.609375 31.296875 18.609375 23.390625 
Q 18.609375 15.53125 22.484375 10.953125 
Q 26.375 6.390625 33.015625 6.390625 
Q 39.65625 6.390625 43.53125 10.953125 
Q 47.40625 15.53125 47.40625 23.390625 
Q 47.40625 31.296875 43.53125 35.828125 
Q 39.65625 40.375 33.015625 40.375 
z
M 52.59375 71.296875 
L 52.59375 62.3125 
Q 48.875 64.0625 45.09375 64.984375 
Q 41.3125 65.921875 37.59375 65.921875 
Q 27.828125 65.921875 22.671875 59.328125 
Q 17.53125 52.734375 16.796875 39.40625 
Q 19.671875 43.65625 24.015625 45.921875 
Q 28.375 48.1875 33.59375 48.1875 
Q 44.578125 48.1875 50.953125 41.515625 
Q 57.328125 34.859375 57.328125 23.390625 
Q 57.328125 12.15625 50.6875 5.359375 
Q 44.046875 -1.421875 33.015625 -1.421875 
Q 20.359375 -1.421875 13.671875 8.265625 
Q 6.984375 17.96875 6.984375 36.375 
Q 6.984375 53.65625 15.1875 63.9375 
Q 23.390625 74.21875 37.203125 74.21875 
Q 40.921875 74.21875 44.703125 73.484375 
Q 48.484375 72.75 52.59375 71.296875 
z
" id="DejaVuSans-54"/>
      </defs>
      <g transform="translate(24.478125 72.789657)scale(0.1 -0.1)">
       <use xlink:href="#DejaVuSans-54"/>
       <use x="63.623047" xlink:href="#DejaVuSans-48"/>
       <use x="127.246094" xlink:href="#DejaVuSans-48"/>
      </g>
     </g>
    </g>
    <g id="ytick_8">
     <g id="line2d_14">
      <g>
       <use style="stroke:#000000;stroke-width:0.8;" x="50.565625" xlink:href="#m736434a7bb" y="33.845081"/>
      </g>
     </g>
     <g id="text_14">
      <!-- 700 -->
      <defs>
       <path d="M 8.203125 72.90625 
L 55.078125 72.90625 
L 55.078125 68.703125 
L 28.609375 0 
L 18.3125 0 
L 43.21875 64.59375 
L 8.203125 64.59375 
z
" id="DejaVuSans-55"/>
      </defs>
      <g transform="translate(24.478125 37.6443)scale(0.1 -0.1)">
       <use xlink:href="#DejaVuSans-55"/>
       <use x="63.623047" xlink:href="#DejaVuSans-48"/>
       <use x="127.246094" xlink:href="#DejaVuSans-48"/>
      </g>
     </g>
    </g>
    <g id="text_15">
     <!-- CT pcr (por 100000 hab.) acumulados -->
     <defs>
      <path d="M 64.40625 67.28125 
L 64.40625 56.890625 
Q 59.421875 61.53125 53.78125 63.8125 
Q 48.140625 66.109375 41.796875 66.109375 
Q 29.296875 66.109375 22.65625 58.46875 
Q 16.015625 50.828125 16.015625 36.375 
Q 16.015625 21.96875 22.65625 14.328125 
Q 29.296875 6.6875 41.796875 6.6875 
Q 48.140625 6.6875 53.78125 8.984375 
Q 59.421875 11.28125 64.40625 15.921875 
L 64.40625 5.609375 
Q 59.234375 2.09375 53.4375 0.328125 
Q 47.65625 -1.421875 41.21875 -1.421875 
Q 24.65625 -1.421875 15.125 8.703125 
Q 5.609375 18.84375 5.609375 36.375 
Q 5.609375 53.953125 15.125 64.078125 
Q 24.65625 74.21875 41.21875 74.21875 
Q 47.75 74.21875 53.53125 72.484375 
Q 59.328125 70.75 64.40625 67.28125 
z
" id="DejaVuSans-67"/>
      <path d="M -0.296875 72.90625 
L 61.375 72.90625 
L 61.375 64.59375 
L 35.5 64.59375 
L 35.5 0 
L 25.59375 0 
L 25.59375 64.59375 
L -0.296875 64.59375 
z
" id="DejaVuSans-84"/>
      <path id="DejaVuSans-32"/>
      <path d="M 18.109375 8.203125 
L 18.109375 -20.796875 
L 9.078125 -20.796875 
L 9.078125 54.6875 
L 18.109375 54.6875 
L 18.109375 46.390625 
Q 20.953125 51.265625 25.265625 53.625 
Q 29.59375 56 35.59375 56 
Q 45.5625 56 51.78125 48.09375 
Q 58.015625 40.1875 58.015625 27.296875 
Q 58.015625 14.40625 51.78125 6.484375 
Q 45.5625 -1.421875 35.59375 -1.421875 
Q 29.59375 -1.421875 25.265625 0.953125 
Q 20.953125 3.328125 18.109375 8.203125 
z
M 48.6875 27.296875 
Q 48.6875 37.203125 44.609375 42.84375 
Q 40.53125 48.484375 33.40625 48.484375 
Q 26.265625 48.484375 22.1875 42.84375 
Q 18.109375 37.203125 18.109375 27.296875 
Q 18.109375 17.390625 22.1875 11.75 
Q 26.265625 6.109375 33.40625 6.109375 
Q 40.53125 6.109375 44.609375 11.75 
Q 48.6875 17.390625 48.6875 27.296875 
z
" id="DejaVuSans-112"/>
      <path d="M 48.78125 52.59375 
L 48.78125 44.1875 
Q 44.96875 46.296875 41.140625 47.34375 
Q 37.3125 48.390625 33.40625 48.390625 
Q 24.65625 48.390625 19.8125 42.84375 
Q 14.984375 37.3125 14.984375 27.296875 
Q 14.984375 17.28125 19.8125 11.734375 
Q 24.65625 6.203125 33.40625 6.203125 
Q 37.3125 6.203125 41.140625 7.25 
Q 44.96875 8.296875 48.78125 10.40625 
L 48.78125 2.09375 
Q 45.015625 0.34375 40.984375 -0.53125 
Q 36.96875 -1.421875 32.421875 -1.421875 
Q 20.0625 -1.421875 12.78125 6.34375 
Q 5.515625 14.109375 5.515625 27.296875 
Q 5.515625 40.671875 12.859375 48.328125 
Q 20.21875 56 33.015625 56 
Q 37.15625 56 41.109375 55.140625 
Q 45.0625 54.296875 48.78125 52.59375 
z
" id="DejaVuSans-99"/>
      <path d="M 41.109375 46.296875 
Q 39.59375 47.171875 37.8125 47.578125 
Q 36.03125 48 33.890625 48 
Q 26.265625 48 22.1875 43.046875 
Q 18.109375 38.09375 18.109375 28.8125 
L 18.109375 0 
L 9.078125 0 
L 9.078125 54.6875 
L 18.109375 54.6875 
L 18.109375 46.1875 
Q 20.953125 51.171875 25.484375 53.578125 
Q 30.03125 56 36.53125 56 
Q 37.453125 56 38.578125 55.875 
Q 39.703125 55.765625 41.0625 55.515625 
z
" id="DejaVuSans-114"/>
      <path d="M 31 75.875 
Q 24.46875 64.65625 21.28125 53.65625 
Q 18.109375 42.671875 18.109375 31.390625 
Q 18.109375 20.125 21.3125 9.0625 
Q 24.515625 -2 31 -13.1875 
L 23.1875 -13.1875 
Q 15.875 -1.703125 12.234375 9.375 
Q 8.59375 20.453125 8.59375 31.390625 
Q 8.59375 42.28125 12.203125 53.3125 
Q 15.828125 64.359375 23.1875 75.875 
z
" id="DejaVuSans-40"/>
      <path d="M 30.609375 48.390625 
Q 23.390625 48.390625 19.1875 42.75 
Q 14.984375 37.109375 14.984375 27.296875 
Q 14.984375 17.484375 19.15625 11.84375 
Q 23.34375 6.203125 30.609375 6.203125 
Q 37.796875 6.203125 41.984375 11.859375 
Q 46.1875 17.53125 46.1875 27.296875 
Q 46.1875 37.015625 41.984375 42.703125 
Q 37.796875 48.390625 30.609375 48.390625 
z
M 30.609375 56 
Q 42.328125 56 49.015625 48.375 
Q 55.71875 40.765625 55.71875 27.296875 
Q 55.71875 13.875 49.015625 6.21875 
Q 42.328125 -1.421875 30.609375 -1.421875 
Q 18.84375 -1.421875 12.171875 6.21875 
Q 5.515625 13.875 5.515625 27.296875 
Q 5.515625 40.765625 12.171875 48.375 
Q 18.84375 56 30.609375 56 
z
" id="DejaVuSans-111"/>
      <path d="M 54.890625 33.015625 
L 54.890625 0 
L 45.90625 0 
L 45.90625 32.71875 
Q 45.90625 40.484375 42.875 44.328125 
Q 39.84375 48.1875 33.796875 48.1875 
Q 26.515625 48.1875 22.3125 43.546875 
Q 18.109375 38.921875 18.109375 30.90625 
L 18.109375 0 
L 9.078125 0 
L 9.078125 75.984375 
L 18.109375 75.984375 
L 18.109375 46.1875 
Q 21.34375 51.125 25.703125 53.5625 
Q 30.078125 56 35.796875 56 
Q 45.21875 56 50.046875 50.171875 
Q 54.890625 44.34375 54.890625 33.015625 
z
" id="DejaVuSans-104"/>
      <path d="M 34.28125 27.484375 
Q 23.390625 27.484375 19.1875 25 
Q 14.984375 22.515625 14.984375 16.5 
Q 14.984375 11.71875 18.140625 8.90625 
Q 21.296875 6.109375 26.703125 6.109375 
Q 34.1875 6.109375 38.703125 11.40625 
Q 43.21875 16.703125 43.21875 25.484375 
L 43.21875 27.484375 
z
M 52.203125 31.203125 
L 52.203125 0 
L 43.21875 0 
L 43.21875 8.296875 
Q 40.140625 3.328125 35.546875 0.953125 
Q 30.953125 -1.421875 24.3125 -1.421875 
Q 15.921875 -1.421875 10.953125 3.296875 
Q 6 8.015625 6 15.921875 
Q 6 25.140625 12.171875 29.828125 
Q 18.359375 34.515625 30.609375 34.515625 
L 43.21875 34.515625 
L 43.21875 35.40625 
Q 43.21875 41.609375 39.140625 45 
Q 35.0625 48.390625 27.6875 48.390625 
Q 23 48.390625 18.546875 47.265625 
Q 14.109375 46.140625 10.015625 43.890625 
L 10.015625 52.203125 
Q 14.9375 54.109375 19.578125 55.046875 
Q 24.21875 56 28.609375 56 
Q 40.484375 56 46.34375 49.84375 
Q 52.203125 43.703125 52.203125 31.203125 
z
" id="DejaVuSans-97"/>
      <path d="M 48.6875 27.296875 
Q 48.6875 37.203125 44.609375 42.84375 
Q 40.53125 48.484375 33.40625 48.484375 
Q 26.265625 48.484375 22.1875 42.84375 
Q 18.109375 37.203125 18.109375 27.296875 
Q 18.109375 17.390625 22.1875 11.75 
Q 26.265625 6.109375 33.40625 6.109375 
Q 40.53125 6.109375 44.609375 11.75 
Q 48.6875 17.390625 48.6875 27.296875 
z
M 18.109375 46.390625 
Q 20.953125 51.265625 25.265625 53.625 
Q 29.59375 56 35.59375 56 
Q 45.5625 56 51.78125 48.09375 
Q 58.015625 40.1875 58.015625 27.296875 
Q 58.015625 14.40625 51.78125 6.484375 
Q 45.5625 -1.421875 35.59375 -1.421875 
Q 29.59375 -1.421875 25.265625 0.953125 
Q 20.953125 3.328125 18.109375 8.203125 
L 18.109375 0 
L 9.078125 0 
L 9.078125 75.984375 
L 18.109375 75.984375 
z
" id="DejaVuSans-98"/>
      <path d="M 10.6875 12.40625 
L 21 12.40625 
L 21 0 
L 10.6875 0 
z
" id="DejaVuSans-46"/>
      <path d="M 8.015625 75.875 
L 15.828125 75.875 
Q 23.140625 64.359375 26.78125 53.3125 
Q 30.421875 42.28125 30.421875 31.390625 
Q 30.421875 20.453125 26.78125 9.375 
Q 23.140625 -1.703125 15.828125 -13.1875 
L 8.015625 -13.1875 
Q 14.5 -2 17.703125 9.0625 
Q 20.90625 20.125 20.90625 31.390625 
Q 20.90625 42.671875 17.703125 53.65625 
Q 14.5 64.65625 8.015625 75.875 
z
" id="DejaVuSans-41"/>
      <path d="M 8.5 21.578125 
L 8.5 54.6875 
L 17.484375 54.6875 
L 17.484375 21.921875 
Q 17.484375 14.15625 20.5 10.265625 
Q 23.53125 6.390625 29.59375 6.390625 
Q 36.859375 6.390625 41.078125 11.03125 
Q 45.3125 15.671875 45.3125 23.6875 
L 45.3125 54.6875 
L 54.296875 54.6875 
L 54.296875 0 
L 45.3125 0 
L 45.3125 8.40625 
Q 42.046875 3.421875 37.71875 1 
Q 33.40625 -1.421875 27.6875 -1.421875 
Q 18.265625 -1.421875 13.375 4.4375 
Q 8.5 10.296875 8.5 21.578125 
z
M 31.109375 56 
z
" id="DejaVuSans-117"/>
      <path d="M 52 44.1875 
Q 55.375 50.25 60.0625 53.125 
Q 64.75 56 71.09375 56 
Q 79.640625 56 84.28125 50.015625 
Q 88.921875 44.046875 88.921875 33.015625 
L 88.921875 0 
L 79.890625 0 
L 79.890625 32.71875 
Q 79.890625 40.578125 77.09375 44.375 
Q 74.3125 48.1875 68.609375 48.1875 
Q 61.625 48.1875 57.5625 43.546875 
Q 53.515625 38.921875 53.515625 30.90625 
L 53.515625 0 
L 44.484375 0 
L 44.484375 32.71875 
Q 44.484375 40.625 41.703125 44.40625 
Q 38.921875 48.1875 33.109375 48.1875 
Q 26.21875 48.1875 22.15625 43.53125 
Q 18.109375 38.875 18.109375 30.90625 
L 18.109375 0 
L 9.078125 0 
L 9.078125 54.6875 
L 18.109375 54.6875 
L 18.109375 46.1875 
Q 21.1875 51.21875 25.484375 53.609375 
Q 29.78125 56 35.6875 56 
Q 41.65625 56 45.828125 52.96875 
Q 50 49.953125 52 44.1875 
z
" id="DejaVuSans-109"/>
      <path d="M 9.421875 75.984375 
L 18.40625 75.984375 
L 18.40625 0 
L 9.421875 0 
z
" id="DejaVuSans-108"/>
      <path d="M 45.40625 46.390625 
L 45.40625 75.984375 
L 54.390625 75.984375 
L 54.390625 0 
L 45.40625 0 
L 45.40625 8.203125 
Q 42.578125 3.328125 38.25 0.953125 
Q 33.9375 -1.421875 27.875 -1.421875 
Q 17.96875 -1.421875 11.734375 6.484375 
Q 5.515625 14.40625 5.515625 27.296875 
Q 5.515625 40.1875 11.734375 48.09375 
Q 17.96875 56 27.875 56 
Q 33.9375 56 38.25 53.625 
Q 42.578125 51.265625 45.40625 46.390625 
z
M 14.796875 27.296875 
Q 14.796875 17.390625 18.875 11.75 
Q 22.953125 6.109375 30.078125 6.109375 
Q 37.203125 6.109375 41.296875 11.75 
Q 45.40625 17.390625 45.40625 27.296875 
Q 45.40625 37.203125 41.296875 42.84375 
Q 37.203125 48.484375 30.078125 48.484375 
Q 22.953125 48.484375 18.875 42.84375 
Q 14.796875 37.203125 14.796875 27.296875 
z
" id="DejaVuSans-100"/>
      <path d="M 44.28125 53.078125 
L 44.28125 44.578125 
Q 40.484375 46.53125 36.375 47.5 
Q 32.28125 48.484375 27.875 48.484375 
Q 21.1875 48.484375 17.84375 46.4375 
Q 14.5 44.390625 14.5 40.28125 
Q 14.5 37.15625 16.890625 35.375 
Q 19.28125 33.59375 26.515625 31.984375 
L 29.59375 31.296875 
Q 39.15625 29.25 43.1875 25.515625 
Q 47.21875 21.78125 47.21875 15.09375 
Q 47.21875 7.46875 41.1875 3.015625 
Q 35.15625 -1.421875 24.609375 -1.421875 
Q 20.21875 -1.421875 15.453125 -0.5625 
Q 10.6875 0.296875 5.421875 2 
L 5.421875 11.28125 
Q 10.40625 8.6875 15.234375 7.390625 
Q 20.0625 6.109375 24.8125 6.109375 
Q 31.15625 6.109375 34.5625 8.28125 
Q 37.984375 10.453125 37.984375 14.40625 
Q 37.984375 18.0625 35.515625 20.015625 
Q 33.0625 21.96875 24.703125 23.78125 
L 21.578125 24.515625 
Q 13.234375 26.265625 9.515625 29.90625 
Q 5.8125 33.546875 5.8125 39.890625 
Q 5.8125 47.609375 11.28125 51.796875 
Q 16.75 56 26.8125 56 
Q 31.78125 56 36.171875 55.265625 
Q 40.578125 54.546875 44.28125 53.078125 
z
" id="DejaVuSans-115"/>
     </defs>
     <g transform="translate(18.398438 240.38754)rotate(-90)scale(0.1 -0.1)">
      <use xlink:href="#DejaVuSans-67"/>
      <use x="69.824219" xlink:href="#DejaVuSans-84"/>
      <use x="130.908203" xlink:href="#DejaVuSans-32"/>
      <use x="162.695312" xlink:href="#DejaVuSans-112"/>
      <use x="226.171875" xlink:href="#DejaVuSans-99"/>
      <use x="281.152344" xlink:href="#DejaVuSans-114"/>
      <use x="322.265625" xlink:href="#DejaVuSans-32"/>
      <use x="354.052734" xlink:href="#DejaVuSans-40"/>
      <use x="393.066406" xlink:href="#DejaVuSans-112"/>
      <use x="456.542969" xlink:href="#DejaVuSans-111"/>
      <use x="517.724609" xlink:href="#DejaVuSans-114"/>
      <use x="558.837891" xlink:href="#DejaVuSans-32"/>
      <use x="590.625" xlink:href="#DejaVuSans-49"/>
      <use x="654.248047" xlink:href="#DejaVuSans-48"/>
      <use x="717.871094" xlink:href="#DejaVuSans-48"/>
      <use x="781.494141" xlink:href="#DejaVuSans-48"/>
      <use x="845.117188" xlink:href="#DejaVuSans-48"/>
      <use x="908.740234" xlink:href="#DejaVuSans-48"/>
      <use x="972.363281" xlink:href="#DejaVuSans-32"/>
      <use x="1004.150391" xlink:href="#DejaVuSans-104"/>
      <use x="1067.529297" xlink:href="#DejaVuSans-97"/>
      <use x="1128.808594" xlink:href="#DejaVuSans-98"/>
      <use x="1192.285156" xlink:href="#DejaVuSans-46"/>
      <use x="1224.072266" xlink:href="#DejaVuSans-41"/>
      <use x="1263.085938" xlink:href="#DejaVuSans-32"/>
      <use x="1294.873047" xlink:href="#DejaVuSans-97"/>
      <use x="1356.152344" xlink:href="#DejaVuSans-99"/>
      <use x="1411.132812" xlink:href="#DejaVuSans-117"/>
      <use x="1474.511719" xlink:href="#DejaVuSans-109"/>
      <use x="1571.923828" xlink:href="#DejaVuSans-117"/>
      <use x="1635.302734" xlink:href="#DejaVuSans-108"/>
      <use x="1663.085938" xlink:href="#DejaVuSans-97"/>
      <use x="1724.365234" xlink:href="#DejaVuSans-100"/>
      <use x="1787.841797" xlink:href="#DejaVuSans-111"/>
      <use x="1849.023438" xlink:href="#DejaVuSans-115"/>
     </g>
    </g>
   </g>
   <g id="line2d_15">
    <path clip-path="url(#pba6f863e67)" d="M 68.01017 279.86258 
L 72.264937 279.86258 
L 76.519704 279.86258 
L 80.774471 279.86258 
L 85.029238 279.857961 
L 89.284005 279.853342 
L 93.538772 279.848724 
L 97.793539 279.839487 
L 102.048306 279.834868 
L 106.303073 279.7933 
L 110.557841 279.7933 
L 114.812608 279.7933 
L 119.067375 279.751733 
L 123.322142 279.751733 
L 127.576909 279.751733 
L 131.831676 279.636267 
L 136.086443 279.590081 
L 140.34121 279.483853 
L 144.595977 279.29449 
L 148.850744 278.929619 
L 153.105511 278.250683 
L 157.360278 277.285392 
L 161.615045 276.435566 
L 165.869812 275.165447 
L 170.124579 273.331856 
L 174.379346 271.244241 
L 178.634113 267.383078 
L 182.88888 264.759704 
L 187.143648 260.450535 
L 191.398415 256.557041 
L 195.653182 253.319391 
L 199.907949 243.54178 
L 204.162716 233.967388 
L 208.417483 226.323578 
L 212.67225 220.097683 
L 216.927017 213.987254 
L 221.181784 210.467868 
L 225.436551 205.484381 
L 229.691318 194.325804 
L 233.946085 187.531819 
L 238.200852 179.158267 
L 242.455619 171.509839 
L 246.710386 165.625721 
L 250.965153 159.630757 
L 255.21992 155.972813 
L 259.474688 149.049507 
L 263.729455 142.934459 
L 267.984222 136.48687 
L 272.238989 132.879731 
L 276.493756 127.522136 
L 280.748523 122.704919 
L 285.00329 119.476506 
L 289.258057 117.301138 
L 293.512824 111.259987 
L 297.767591 107.338782 
L 302.022358 102.895673 
L 306.277125 95.381184 
L 310.531892 93.048783 
L 314.786659 87.377122 
L 319.041426 80.744789 
L 323.296193 77.557944 
L 327.55096 72.523652 
L 331.805727 69.512314 
L 336.060495 66.200766 
L 340.315262 63.660527 
L 344.570029 59.300553 
L 348.824796 57.43925 
L 353.079563 55.148417 
L 357.33433 53.938339 
L 361.589097 52.13246 
L 365.843864 49.624551 
L 370.098631 47.851003 
L 374.353398 47.241345 
L 378.608165 45.370806 
L 382.862932 44.664157 
L 387.117699 43.435605 
L 391.372466 40.927697 
L 395.627233 39.994736 
L 399.882 26.406767 
L 404.136767 26.023422 
L 408.391535 25.173596 
L 412.646302 24.513134 
L 416.901069 23.612504 
" style="fill:none;stroke:#1f77b4;stroke-linecap:square;stroke-width:1.5;"/>
    <defs>
     <path d="M 0 1.5 
C 0.397805 1.5 0.77937 1.341951 1.06066 1.06066 
C 1.341951 0.77937 1.5 0.397805 1.5 0 
C 1.5 -0.397805 1.341951 -0.77937 1.06066 -1.06066 
C 0.77937 -1.341951 0.397805 -1.5 0 -1.5 
C -0.397805 -1.5 -0.77937 -1.341951 -1.06066 -1.06066 
C -1.341951 -0.77937 -1.5 -0.397805 -1.5 0 
C -1.5 0.397805 -1.341951 0.77937 -1.06066 1.06066 
C -0.77937 1.341951 -0.397805 1.5 0 1.5 
z
" id="ma9910b78b6" style="stroke:#1f77b4;"/>
    </defs>
    <g clip-path="url(#pba6f863e67)">
     <use style="fill:#1f77b4;stroke:#1f77b4;" x="68.01017" xlink:href="#ma9910b78b6" y="279.86258"/>
     <use style="fill:#1f77b4;stroke:#1f77b4;" x="72.264937" xlink:href="#ma9910b78b6" y="279.86258"/>
     <use style="fill:#1f77b4;stroke:#1f77b4;" x="76.519704" xlink:href="#ma9910b78b6" y="279.86258"/>
     <use style="fill:#1f77b4;stroke:#1f77b4;" x="80.774471" xlink:href="#ma9910b78b6" y="279.86258"/>
     <use style="fill:#1f77b4;stroke:#1f77b4;" x="85.029238" xlink:href="#ma9910b78b6" y="279.857961"/>
     <use style="fill:#1f77b4;stroke:#1f77b4;" x="89.284005" xlink:href="#ma9910b78b6" y="279.853342"/>
     <use style="fill:#1f77b4;stroke:#1f77b4;" x="93.538772" xlink:href="#ma9910b78b6" y="279.848724"/>
     <use style="fill:#1f77b4;stroke:#1f77b4;" x="97.793539" xlink:href="#ma9910b78b6" y="279.839487"/>
     <use style="fill:#1f77b4;stroke:#1f77b4;" x="102.048306" xlink:href="#ma9910b78b6" y="279.834868"/>
     <use style="fill:#1f77b4;stroke:#1f77b4;" x="106.303073" xlink:href="#ma9910b78b6" y="279.7933"/>
     <use style="fill:#1f77b4;stroke:#1f77b4;" x="110.557841" xlink:href="#ma9910b78b6" y="279.7933"/>
     <use style="fill:#1f77b4;stroke:#1f77b4;" x="114.812608" xlink:href="#ma9910b78b6" y="279.7933"/>
     <use style="fill:#1f77b4;stroke:#1f77b4;" x="119.067375" xlink:href="#ma9910b78b6" y="279.751733"/>
     <use style="fill:#1f77b4;stroke:#1f77b4;" x="123.322142" xlink:href="#ma9910b78b6" y="279.751733"/>
     <use style="fill:#1f77b4;stroke:#1f77b4;" x="127.576909" xlink:href="#ma9910b78b6" y="279.751733"/>
     <use style="fill:#1f77b4;stroke:#1f77b4;" x="131.831676" xlink:href="#ma9910b78b6" y="279.636267"/>
     <use style="fill:#1f77b4;stroke:#1f77b4;" x="136.086443" xlink:href="#ma9910b78b6" y="279.590081"/>
     <use style="fill:#1f77b4;stroke:#1f77b4;" x="140.34121" xlink:href="#ma9910b78b6" y="279.483853"/>
     <use style="fill:#1f77b4;stroke:#1f77b4;" x="144.595977" xlink:href="#ma9910b78b6" y="279.29449"/>
     <use style="fill:#1f77b4;stroke:#1f77b4;" x="148.850744" xlink:href="#ma9910b78b6" y="278.929619"/>
     <use style="fill:#1f77b4;stroke:#1f77b4;" x="153.105511" xlink:href="#ma9910b78b6" y="278.250683"/>
     <use style="fill:#1f77b4;stroke:#1f77b4;" x="157.360278" xlink:href="#ma9910b78b6" y="277.285392"/>
     <use style="fill:#1f77b4;stroke:#1f77b4;" x="161.615045" xlink:href="#ma9910b78b6" y="276.435566"/>
     <use style="fill:#1f77b4;stroke:#1f77b4;" x="165.869812" xlink:href="#ma9910b78b6" y="275.165447"/>
     <use style="fill:#1f77b4;stroke:#1f77b4;" x="170.124579" xlink:href="#ma9910b78b6" y="273.331856"/>
     <use style="fill:#1f77b4;stroke:#1f77b4;" x="174.379346" xlink:href="#ma9910b78b6" y="271.244241"/>
     <use style="fill:#1f77b4;stroke:#1f77b4;" x="178.634113" xlink:href="#ma9910b78b6" y="267.383078"/>
     <use style="fill:#1f77b4;stroke:#1f77b4;" x="182.88888" xlink:href="#ma9910b78b6" y="264.759704"/>
     <use style="fill:#1f77b4;stroke:#1f77b4;" x="187.143648" xlink:href="#ma9910b78b6" y="260.450535"/>
     <use style="fill:#1f77b4;stroke:#1f77b4;" x="191.398415" xlink:href="#ma9910b78b6" y="256.557041"/>
     <use style="fill:#1f77b4;stroke:#1f77b4;" x="195.653182" xlink:href="#ma9910b78b6" y="253.319391"/>
     <use style="fill:#1f77b4;stroke:#1f77b4;" x="199.907949" xlink:href="#ma9910b78b6" y="243.54178"/>
     <use style="fill:#1f77b4;stroke:#1f77b4;" x="204.162716" xlink:href="#ma9910b78b6" y="233.967388"/>
     <use style="fill:#1f77b4;stroke:#1f77b4;" x="208.417483" xlink:href="#ma9910b78b6" y="226.323578"/>
     <use style="fill:#1f77b4;stroke:#1f77b4;" x="212.67225" xlink:href="#ma9910b78b6" y="220.097683"/>
     <use style="fill:#1f77b4;stroke:#1f77b4;" x="216.927017" xlink:href="#ma9910b78b6" y="213.987254"/>
     <use style="fill:#1f77b4;stroke:#1f77b4;" x="221.181784" xlink:href="#ma9910b78b6" y="210.467868"/>
     <use style="fill:#1f77b4;stroke:#1f77b4;" x="225.436551" xlink:href="#ma9910b78b6" y="205.484381"/>
     <use style="fill:#1f77b4;stroke:#1f77b4;" x="229.691318" xlink:href="#ma9910b78b6" y="194.325804"/>
     <use style="fill:#1f77b4;stroke:#1f77b4;" x="233.946085" xlink:href="#ma9910b78b6" y="187.531819"/>
     <use style="fill:#1f77b4;stroke:#1f77b4;" x="238.200852" xlink:href="#ma9910b78b6" y="179.158267"/>
     <use style="fill:#1f77b4;stroke:#1f77b4;" x="242.455619" xlink:href="#ma9910b78b6" y="171.509839"/>
     <use style="fill:#1f77b4;stroke:#1f77b4;" x="246.710386" xlink:href="#ma9910b78b6" y="165.625721"/>
     <use style="fill:#1f77b4;stroke:#1f77b4;" x="250.965153" xlink:href="#ma9910b78b6" y="159.630757"/>
     <use style="fill:#1f77b4;stroke:#1f77b4;" x="255.21992" xlink:href="#ma9910b78b6" y="155.972813"/>
     <use style="fill:#1f77b4;stroke:#1f77b4;" x="259.474688" xlink:href="#ma9910b78b6" y="149.049507"/>
     <use style="fill:#1f77b4;stroke:#1f77b4;" x="263.729455" xlink:href="#ma9910b78b6" y="142.934459"/>
     <use style="fill:#1f77b4;stroke:#1f77b4;" x="267.984222" xlink:href="#ma9910b78b6" y="136.48687"/>
     <use style="fill:#1f77b4;stroke:#1f77b4;" x="272.238989" xlink:href="#ma9910b78b6" y="132.879731"/>
     <use style="fill:#1f77b4;stroke:#1f77b4;" x="276.493756" xlink:href="#ma9910b78b6" y="127.522136"/>
     <use style="fill:#1f77b4;stroke:#1f77b4;" x="280.748523" xlink:href="#ma9910b78b6" y="122.704919"/>
     <use style="fill:#1f77b4;stroke:#1f77b4;" x="285.00329" xlink:href="#ma9910b78b6" y="119.476506"/>
     <use style="fill:#1f77b4;stroke:#1f77b4;" x="289.258057" xlink:href="#ma9910b78b6" y="117.301138"/>
     <use style="fill:#1f77b4;stroke:#1f77b4;" x="293.512824" xlink:href="#ma9910b78b6" y="111.259987"/>
     <use style="fill:#1f77b4;stroke:#1f77b4;" x="297.767591" xlink:href="#ma9910b78b6" y="107.338782"/>
     <use style="fill:#1f77b4;stroke:#1f77b4;" x="302.022358" xlink:href="#ma9910b78b6" y="102.895673"/>
     <use style="fill:#1f77b4;stroke:#1f77b4;" x="306.277125" xlink:href="#ma9910b78b6" y="95.381184"/>
     <use style="fill:#1f77b4;stroke:#1f77b4;" x="310.531892" xlink:href="#ma9910b78b6" y="93.048783"/>
     <use style="fill:#1f77b4;stroke:#1f77b4;" x="314.786659" xlink:href="#ma9910b78b6" y="87.377122"/>
     <use style="fill:#1f77b4;stroke:#1f77b4;" x="319.041426" xlink:href="#ma9910b78b6" y="80.744789"/>
     <use style="fill:#1f77b4;stroke:#1f77b4;" x="323.296193" xlink:href="#ma9910b78b6" y="77.557944"/>
     <use style="fill:#1f77b4;stroke:#1f77b4;" x="327.55096" xlink:href="#ma9910b78b6" y="72.523652"/>
     <use style="fill:#1f77b4;stroke:#1f77b4;" x="331.805727" xlink:href="#ma9910b78b6" y="69.512314"/>
     <use style="fill:#1f77b4;stroke:#1f77b4;" x="336.060495" xlink:href="#ma9910b78b6" y="66.200766"/>
     <use style="fill:#1f77b4;stroke:#1f77b4;" x="340.315262" xlink:href="#ma9910b78b6" y="63.660527"/>
     <use style="fill:#1f77b4;stroke:#1f77b4;" x="344.570029" xlink:href="#ma9910b78b6" y="59.300553"/>
     <use style="fill:#1f77b4;stroke:#1f77b4;" x="348.824796" xlink:href="#ma9910b78b6" y="57.43925"/>
     <use style="fill:#1f77b4;stroke:#1f77b4;" x="353.079563" xlink:href="#ma9910b78b6" y="55.148417"/>
     <use style="fill:#1f77b4;stroke:#1f77b4;" x="357.33433" xlink:href="#ma9910b78b6" y="53.938339"/>
     <use style="fill:#1f77b4;stroke:#1f77b4;" x="361.589097" xlink:href="#ma9910b78b6" y="52.13246"/>
     <use style="fill:#1f77b4;stroke:#1f77b4;" x="365.843864" xlink:href="#ma9910b78b6" y="49.624551"/>
     <use style="fill:#1f77b4;stroke:#1f77b4;" x="370.098631" xlink:href="#ma9910b78b6" y="47.851003"/>
     <use style="fill:#1f77b4;stroke:#1f77b4;" x="374.353398" xlink:href="#ma9910b78b6" y="47.241345"/>
     <use style="fill:#1f77b4;stroke:#1f77b4;" x="378.608165" xlink:href="#ma9910b78b6" y="45.370806"/>
     <use style="fill:#1f77b4;stroke:#1f77b4;" x="382.862932" xlink:href="#ma9910b78b6" y="44.664157"/>
     <use style="fill:#1f77b4;stroke:#1f77b4;" x="387.117699" xlink:href="#ma9910b78b6" y="43.435605"/>
     <use style="fill:#1f77b4;stroke:#1f77b4;" x="391.372466" xlink:href="#ma9910b78b6" y="40.927697"/>
     <use style="fill:#1f77b4;stroke:#1f77b4;" x="395.627233" xlink:href="#ma9910b78b6" y="39.994736"/>
     <use style="fill:#1f77b4;stroke:#1f77b4;" x="399.882" xlink:href="#ma9910b78b6" y="26.406767"/>
     <use style="fill:#1f77b4;stroke:#1f77b4;" x="404.136767" xlink:href="#ma9910b78b6" y="26.023422"/>
     <use style="fill:#1f77b4;stroke:#1f77b4;" x="408.391535" xlink:href="#ma9910b78b6" y="25.173596"/>
     <use style="fill:#1f77b4;stroke:#1f77b4;" x="412.646302" xlink:href="#ma9910b78b6" y="24.513134"/>
     <use style="fill:#1f77b4;stroke:#1f77b4;" x="416.901069" xlink:href="#ma9910b78b6" y="23.612504"/>
    </g>
   </g>
   <g id="patch_3">
    <path d="M 50.565625 279.86258 
L 50.565625 10.8 
" style="fill:none;stroke:#000000;stroke-linecap:square;stroke-linejoin:miter;stroke-width:0.8;"/>
   </g>
   <g id="patch_4">
    <path d="M 434.345614 279.86258 
L 434.345614 10.8 
" style="fill:none;stroke:#000000;stroke-linecap:square;stroke-linejoin:miter;stroke-width:0.8;"/>
   </g>
   <g id="patch_5">
    <path d="M 50.565625 279.86258 
L 434.345614 279.86258 
" style="fill:none;stroke:#000000;stroke-linecap:square;stroke-linejoin:miter;stroke-width:0.8;"/>
   </g>
   <g id="patch_6">
    <path d="M 50.565625 10.8 
L 434.345614 10.8 
" style="fill:none;stroke:#000000;stroke-linecap:square;stroke-linejoin:miter;stroke-width:0.8;"/>
   </g>
  </g>
 </g>
 <defs>
  <clipPath id="pba6f863e67">
   <rect height="269.06258" width="383.779989" x="50.565625" y="10.8"/>
  </clipPath>
 </defs>
</svg>
