<?xml version="1.0" encoding="utf-8" standalone="no"?>
<!DOCTYPE svg PUBLIC "-//W3C//DTD SVG 1.1//EN"
  "http://www.w3.org/Graphics/SVG/1.1/DTD/svg11.dtd">
<!-- Created with matplotlib (https://matplotlib.org/) -->
<svg height="345.6pt" version="1.1" viewBox="0 0 460.8 345.6" width="460.8pt" xmlns="http://www.w3.org/2000/svg" xmlns:xlink="http://www.w3.org/1999/xlink">
 <defs>
  <style type="text/css">
*{stroke-linecap:butt;stroke-linejoin:round;}
  </style>
 </defs>
 <g id="figure_1">
  <g id="patch_1">
   <path d="M 0 345.6 
L 460.8 345.6 
L 460.8 0 
L 0 0 
z
" style="fill:#ffffff;"/>
  </g>
  <g id="axes_1">
   <g id="patch_2">
    <path d="M 50.565625 279.86258 
L 449.814123 279.86258 
L 449.814123 10.8 
L 50.565625 10.8 
z
" style="fill:#ffffff;"/>
   </g>
   <g id="matplotlib.axis_1">
    <g id="xtick_1">
     <g id="line2d_1">
      <defs>
       <path d="M 0 0 
L 0 3.5 
" id="mf6c458232f" style="stroke:#000000;stroke-width:0.8;"/>
      </defs>
      <g>
       <use style="stroke:#000000;stroke-width:0.8;" x="106.696756" xlink:href="#mf6c458232f" y="279.86258"/>
      </g>
     </g>
     <g id="text_1">
      <!-- 2020-03-01 -->
      <defs>
       <path d="M 19.1875 8.296875 
L 53.609375 8.296875 
L 53.609375 0 
L 7.328125 0 
L 7.328125 8.296875 
Q 12.9375 14.109375 22.625 23.890625 
Q 32.328125 33.6875 34.8125 36.53125 
Q 39.546875 41.84375 41.421875 45.53125 
Q 43.3125 49.21875 43.3125 52.78125 
Q 43.3125 58.59375 39.234375 62.25 
Q 35.15625 65.921875 28.609375 65.921875 
Q 23.96875 65.921875 18.8125 64.3125 
Q 13.671875 62.703125 7.8125 59.421875 
L 7.8125 69.390625 
Q 13.765625 71.78125 18.9375 73 
Q 24.125 74.21875 28.421875 74.21875 
Q 39.75 74.21875 46.484375 68.546875 
Q 53.21875 62.890625 53.21875 53.421875 
Q 53.21875 48.921875 51.53125 44.890625 
Q 49.859375 40.875 45.40625 35.40625 
Q 44.1875 33.984375 37.640625 27.21875 
Q 31.109375 20.453125 19.1875 8.296875 
z
" id="DejaVuSans-50"/>
       <path d="M 31.78125 66.40625 
Q 24.171875 66.40625 20.328125 58.90625 
Q 16.5 51.421875 16.5 36.375 
Q 16.5 21.390625 20.328125 13.890625 
Q 24.171875 6.390625 31.78125 6.390625 
Q 39.453125 6.390625 43.28125 13.890625 
Q 47.125 21.390625 47.125 36.375 
Q 47.125 51.421875 43.28125 58.90625 
Q 39.453125 66.40625 31.78125 66.40625 
z
M 31.78125 74.21875 
Q 44.046875 74.21875 50.515625 64.515625 
Q 56.984375 54.828125 56.984375 36.375 
Q 56.984375 17.96875 50.515625 8.265625 
Q 44.046875 -1.421875 31.78125 -1.421875 
Q 19.53125 -1.421875 13.0625 8.265625 
Q 6.59375 17.96875 6.59375 36.375 
Q 6.59375 54.828125 13.0625 64.515625 
Q 19.53125 74.21875 31.78125 74.21875 
z
" id="DejaVuSans-48"/>
       <path d="M 4.890625 31.390625 
L 31.203125 31.390625 
L 31.203125 23.390625 
L 4.890625 23.390625 
z
" id="DejaVuSans-45"/>
       <path d="M 40.578125 39.3125 
Q 47.65625 37.796875 51.625 33 
Q 55.609375 28.21875 55.609375 21.1875 
Q 55.609375 10.40625 48.1875 4.484375 
Q 40.765625 -1.421875 27.09375 -1.421875 
Q 22.515625 -1.421875 17.65625 -0.515625 
Q 12.796875 0.390625 7.625 2.203125 
L 7.625 11.71875 
Q 11.71875 9.328125 16.59375 8.109375 
Q 21.484375 6.890625 26.8125 6.890625 
Q 36.078125 6.890625 40.9375 10.546875 
Q 45.796875 14.203125 45.796875 21.1875 
Q 45.796875 27.640625 41.28125 31.265625 
Q 36.765625 34.90625 28.71875 34.90625 
L 20.21875 34.90625 
L 20.21875 43.015625 
L 29.109375 43.015625 
Q 36.375 43.015625 40.234375 45.921875 
Q 44.09375 48.828125 44.09375 54.296875 
Q 44.09375 59.90625 40.109375 62.90625 
Q 36.140625 65.921875 28.71875 65.921875 
Q 24.65625 65.921875 20.015625 65.03125 
Q 15.375 64.15625 9.8125 62.3125 
L 9.8125 71.09375 
Q 15.4375 72.65625 20.34375 73.4375 
Q 25.25 74.21875 29.59375 74.21875 
Q 40.828125 74.21875 47.359375 69.109375 
Q 53.90625 64.015625 53.90625 55.328125 
Q 53.90625 49.265625 50.4375 45.09375 
Q 46.96875 40.921875 40.578125 39.3125 
z
" id="DejaVuSans-51"/>
       <path d="M 12.40625 8.296875 
L 28.515625 8.296875 
L 28.515625 63.921875 
L 10.984375 60.40625 
L 10.984375 69.390625 
L 28.421875 72.90625 
L 38.28125 72.90625 
L 38.28125 8.296875 
L 54.390625 8.296875 
L 54.390625 0 
L 12.40625 0 
z
" id="DejaVuSans-49"/>
      </defs>
      <g transform="translate(88.100953 333.329439)rotate(-45)scale(0.1 -0.1)">
       <use xlink:href="#DejaVuSans-50"/>
       <use x="63.623047" xlink:href="#DejaVuSans-48"/>
       <use x="127.246094" xlink:href="#DejaVuSans-50"/>
       <use x="190.869141" xlink:href="#DejaVuSans-48"/>
       <use x="254.492188" xlink:href="#DejaVuSans-45"/>
       <use x="290.576172" xlink:href="#DejaVuSans-48"/>
       <use x="354.199219" xlink:href="#DejaVuSans-51"/>
       <use x="417.822266" xlink:href="#DejaVuSans-45"/>
       <use x="453.90625" xlink:href="#DejaVuSans-48"/>
       <use x="517.529297" xlink:href="#DejaVuSans-49"/>
      </g>
     </g>
    </g>
    <g id="xtick_2">
     <g id="line2d_2">
      <g>
       <use style="stroke:#000000;stroke-width:0.8;" x="165.782158" xlink:href="#mf6c458232f" y="279.86258"/>
      </g>
     </g>
     <g id="text_2">
      <!-- 2020-03-15 -->
      <defs>
       <path d="M 10.796875 72.90625 
L 49.515625 72.90625 
L 49.515625 64.59375 
L 19.828125 64.59375 
L 19.828125 46.734375 
Q 21.96875 47.46875 24.109375 47.828125 
Q 26.265625 48.1875 28.421875 48.1875 
Q 40.625 48.1875 47.75 41.5 
Q 54.890625 34.8125 54.890625 23.390625 
Q 54.890625 11.625 47.5625 5.09375 
Q 40.234375 -1.421875 26.90625 -1.421875 
Q 22.3125 -1.421875 17.546875 -0.640625 
Q 12.796875 0.140625 7.71875 1.703125 
L 7.71875 11.625 
Q 12.109375 9.234375 16.796875 8.0625 
Q 21.484375 6.890625 26.703125 6.890625 
Q 35.15625 6.890625 40.078125 11.328125 
Q 45.015625 15.765625 45.015625 23.390625 
Q 45.015625 31 40.078125 35.4375 
Q 35.15625 39.890625 26.703125 39.890625 
Q 22.75 39.890625 18.8125 39.015625 
Q 14.890625 38.140625 10.796875 36.28125 
z
" id="DejaVuSans-53"/>
      </defs>
      <g transform="translate(147.186354 333.329439)rotate(-45)scale(0.1 -0.1)">
       <use xlink:href="#DejaVuSans-50"/>
       <use x="63.623047" xlink:href="#DejaVuSans-48"/>
       <use x="127.246094" xlink:href="#DejaVuSans-50"/>
       <use x="190.869141" xlink:href="#DejaVuSans-48"/>
       <use x="254.492188" xlink:href="#DejaVuSans-45"/>
       <use x="290.576172" xlink:href="#DejaVuSans-48"/>
       <use x="354.199219" xlink:href="#DejaVuSans-51"/>
       <use x="417.822266" xlink:href="#DejaVuSans-45"/>
       <use x="453.90625" xlink:href="#DejaVuSans-49"/>
       <use x="517.529297" xlink:href="#DejaVuSans-53"/>
      </g>
     </g>
    </g>
    <g id="xtick_3">
     <g id="line2d_3">
      <g>
       <use style="stroke:#000000;stroke-width:0.8;" x="237.528716" xlink:href="#mf6c458232f" y="279.86258"/>
      </g>
     </g>
     <g id="text_3">
      <!-- 2020-04-01 -->
      <defs>
       <path d="M 37.796875 64.3125 
L 12.890625 25.390625 
L 37.796875 25.390625 
z
M 35.203125 72.90625 
L 47.609375 72.90625 
L 47.609375 25.390625 
L 58.015625 25.390625 
L 58.015625 17.1875 
L 47.609375 17.1875 
L 47.609375 0 
L 37.796875 0 
L 37.796875 17.1875 
L 4.890625 17.1875 
L 4.890625 26.703125 
z
" id="DejaVuSans-52"/>
      </defs>
      <g transform="translate(218.932913 333.329439)rotate(-45)scale(0.1 -0.1)">
       <use xlink:href="#DejaVuSans-50"/>
       <use x="63.623047" xlink:href="#DejaVuSans-48"/>
       <use x="127.246094" xlink:href="#DejaVuSans-50"/>
       <use x="190.869141" xlink:href="#DejaVuSans-48"/>
       <use x="254.492188" xlink:href="#DejaVuSans-45"/>
       <use x="290.576172" xlink:href="#DejaVuSans-48"/>
       <use x="354.199219" xlink:href="#DejaVuSans-52"/>
       <use x="417.822266" xlink:href="#DejaVuSans-45"/>
       <use x="453.90625" xlink:href="#DejaVuSans-48"/>
       <use x="517.529297" xlink:href="#DejaVuSans-49"/>
      </g>
     </g>
    </g>
    <g id="xtick_4">
     <g id="line2d_4">
      <g>
       <use style="stroke:#000000;stroke-width:0.8;" x="296.614118" xlink:href="#mf6c458232f" y="279.86258"/>
      </g>
     </g>
     <g id="text_4">
      <!-- 2020-04-15 -->
      <g transform="translate(278.018314 333.329439)rotate(-45)scale(0.1 -0.1)">
       <use xlink:href="#DejaVuSans-50"/>
       <use x="63.623047" xlink:href="#DejaVuSans-48"/>
       <use x="127.246094" xlink:href="#DejaVuSans-50"/>
       <use x="190.869141" xlink:href="#DejaVuSans-48"/>
       <use x="254.492188" xlink:href="#DejaVuSans-45"/>
       <use x="290.576172" xlink:href="#DejaVuSans-48"/>
       <use x="354.199219" xlink:href="#DejaVuSans-52"/>
       <use x="417.822266" xlink:href="#DejaVuSans-45"/>
       <use x="453.90625" xlink:href="#DejaVuSans-49"/>
       <use x="517.529297" xlink:href="#DejaVuSans-53"/>
      </g>
     </g>
    </g>
    <g id="xtick_5">
     <g id="line2d_5">
      <g>
       <use style="stroke:#000000;stroke-width:0.8;" x="364.140291" xlink:href="#mf6c458232f" y="279.86258"/>
      </g>
     </g>
     <g id="text_5">
      <!-- 2020-05-01 -->
      <g transform="translate(345.544487 333.329439)rotate(-45)scale(0.1 -0.1)">
       <use xlink:href="#DejaVuSans-50"/>
       <use x="63.623047" xlink:href="#DejaVuSans-48"/>
       <use x="127.246094" xlink:href="#DejaVuSans-50"/>
       <use x="190.869141" xlink:href="#DejaVuSans-48"/>
       <use x="254.492188" xlink:href="#DejaVuSans-45"/>
       <use x="290.576172" xlink:href="#DejaVuSans-48"/>
       <use x="354.199219" xlink:href="#DejaVuSans-53"/>
       <use x="417.822266" xlink:href="#DejaVuSans-45"/>
       <use x="453.90625" xlink:href="#DejaVuSans-48"/>
       <use x="517.529297" xlink:href="#DejaVuSans-49"/>
      </g>
     </g>
    </g>
    <g id="xtick_6">
     <g id="line2d_6">
      <g>
       <use style="stroke:#000000;stroke-width:0.8;" x="423.225692" xlink:href="#mf6c458232f" y="279.86258"/>
      </g>
     </g>
     <g id="text_6">
      <!-- 2020-05-15 -->
      <g transform="translate(404.629889 333.329439)rotate(-45)scale(0.1 -0.1)">
       <use xlink:href="#DejaVuSans-50"/>
       <use x="63.623047" xlink:href="#DejaVuSans-48"/>
       <use x="127.246094" xlink:href="#DejaVuSans-50"/>
       <use x="190.869141" xlink:href="#DejaVuSans-48"/>
       <use x="254.492188" xlink:href="#DejaVuSans-45"/>
       <use x="290.576172" xlink:href="#DejaVuSans-48"/>
       <use x="354.199219" xlink:href="#DejaVuSans-53"/>
       <use x="417.822266" xlink:href="#DejaVuSans-45"/>
       <use x="453.90625" xlink:href="#DejaVuSans-49"/>
       <use x="517.529297" xlink:href="#DejaVuSans-53"/>
      </g>
     </g>
    </g>
   </g>
   <g id="matplotlib.axis_2">
    <g id="ytick_1">
     <g id="line2d_7">
      <defs>
       <path d="M 0 0 
L -3.5 0 
" id="m448d2cc322" style="stroke:#000000;stroke-width:0.8;"/>
      </defs>
      <g>
       <use style="stroke:#000000;stroke-width:0.8;" x="50.565625" xlink:href="#m448d2cc322" y="279.86258"/>
      </g>
     </g>
     <g id="text_7">
      <!-- 0 -->
      <g transform="translate(37.203125 283.661798)scale(0.1 -0.1)">
       <use xlink:href="#DejaVuSans-48"/>
      </g>
     </g>
    </g>
    <g id="ytick_2">
     <g id="line2d_8">
      <g>
       <use style="stroke:#000000;stroke-width:0.8;" x="50.565625" xlink:href="#m448d2cc322" y="244.16292"/>
      </g>
     </g>
     <g id="text_8">
      <!-- 20 -->
      <g transform="translate(30.840625 247.962139)scale(0.1 -0.1)">
       <use xlink:href="#DejaVuSans-50"/>
       <use x="63.623047" xlink:href="#DejaVuSans-48"/>
      </g>
     </g>
    </g>
    <g id="ytick_3">
     <g id="line2d_9">
      <g>
       <use style="stroke:#000000;stroke-width:0.8;" x="50.565625" xlink:href="#m448d2cc322" y="208.463261"/>
      </g>
     </g>
     <g id="text_9">
      <!-- 40 -->
      <g transform="translate(30.840625 212.26248)scale(0.1 -0.1)">
       <use xlink:href="#DejaVuSans-52"/>
       <use x="63.623047" xlink:href="#DejaVuSans-48"/>
      </g>
     </g>
    </g>
    <g id="ytick_4">
     <g id="line2d_10">
      <g>
       <use style="stroke:#000000;stroke-width:0.8;" x="50.565625" xlink:href="#m448d2cc322" y="172.763602"/>
      </g>
     </g>
     <g id="text_10">
      <!-- 60 -->
      <defs>
       <path d="M 33.015625 40.375 
Q 26.375 40.375 22.484375 35.828125 
Q 18.609375 31.296875 18.609375 23.390625 
Q 18.609375 15.53125 22.484375 10.953125 
Q 26.375 6.390625 33.015625 6.390625 
Q 39.65625 6.390625 43.53125 10.953125 
Q 47.40625 15.53125 47.40625 23.390625 
Q 47.40625 31.296875 43.53125 35.828125 
Q 39.65625 40.375 33.015625 40.375 
z
M 52.59375 71.296875 
L 52.59375 62.3125 
Q 48.875 64.0625 45.09375 64.984375 
Q 41.3125 65.921875 37.59375 65.921875 
Q 27.828125 65.921875 22.671875 59.328125 
Q 17.53125 52.734375 16.796875 39.40625 
Q 19.671875 43.65625 24.015625 45.921875 
Q 28.375 48.1875 33.59375 48.1875 
Q 44.578125 48.1875 50.953125 41.515625 
Q 57.328125 34.859375 57.328125 23.390625 
Q 57.328125 12.15625 50.6875 5.359375 
Q 44.046875 -1.421875 33.015625 -1.421875 
Q 20.359375 -1.421875 13.671875 8.265625 
Q 6.984375 17.96875 6.984375 36.375 
Q 6.984375 53.65625 15.1875 63.9375 
Q 23.390625 74.21875 37.203125 74.21875 
Q 40.921875 74.21875 44.703125 73.484375 
Q 48.484375 72.75 52.59375 71.296875 
z
" id="DejaVuSans-54"/>
      </defs>
      <g transform="translate(30.840625 176.56282)scale(0.1 -0.1)">
       <use xlink:href="#DejaVuSans-54"/>
       <use x="63.623047" xlink:href="#DejaVuSans-48"/>
      </g>
     </g>
    </g>
    <g id="ytick_5">
     <g id="line2d_11">
      <g>
       <use style="stroke:#000000;stroke-width:0.8;" x="50.565625" xlink:href="#m448d2cc322" y="137.063942"/>
      </g>
     </g>
     <g id="text_11">
      <!-- 80 -->
      <defs>
       <path d="M 31.78125 34.625 
Q 24.75 34.625 20.71875 30.859375 
Q 16.703125 27.09375 16.703125 20.515625 
Q 16.703125 13.921875 20.71875 10.15625 
Q 24.75 6.390625 31.78125 6.390625 
Q 38.8125 6.390625 42.859375 10.171875 
Q 46.921875 13.96875 46.921875 20.515625 
Q 46.921875 27.09375 42.890625 30.859375 
Q 38.875 34.625 31.78125 34.625 
z
M 21.921875 38.8125 
Q 15.578125 40.375 12.03125 44.71875 
Q 8.5 49.078125 8.5 55.328125 
Q 8.5 64.0625 14.71875 69.140625 
Q 20.953125 74.21875 31.78125 74.21875 
Q 42.671875 74.21875 48.875 69.140625 
Q 55.078125 64.0625 55.078125 55.328125 
Q 55.078125 49.078125 51.53125 44.71875 
Q 48 40.375 41.703125 38.8125 
Q 48.828125 37.15625 52.796875 32.3125 
Q 56.78125 27.484375 56.78125 20.515625 
Q 56.78125 9.90625 50.3125 4.234375 
Q 43.84375 -1.421875 31.78125 -1.421875 
Q 19.734375 -1.421875 13.25 4.234375 
Q 6.78125 9.90625 6.78125 20.515625 
Q 6.78125 27.484375 10.78125 32.3125 
Q 14.796875 37.15625 21.921875 38.8125 
z
M 18.3125 54.390625 
Q 18.3125 48.734375 21.84375 45.5625 
Q 25.390625 42.390625 31.78125 42.390625 
Q 38.140625 42.390625 41.71875 45.5625 
Q 45.3125 48.734375 45.3125 54.390625 
Q 45.3125 60.0625 41.71875 63.234375 
Q 38.140625 66.40625 31.78125 66.40625 
Q 25.390625 66.40625 21.84375 63.234375 
Q 18.3125 60.0625 18.3125 54.390625 
z
" id="DejaVuSans-56"/>
      </defs>
      <g transform="translate(30.840625 140.863161)scale(0.1 -0.1)">
       <use xlink:href="#DejaVuSans-56"/>
       <use x="63.623047" xlink:href="#DejaVuSans-48"/>
      </g>
     </g>
    </g>
    <g id="ytick_6">
     <g id="line2d_12">
      <g>
       <use style="stroke:#000000;stroke-width:0.8;" x="50.565625" xlink:href="#m448d2cc322" y="101.364283"/>
      </g>
     </g>
     <g id="text_12">
      <!-- 100 -->
      <g transform="translate(24.478125 105.163502)scale(0.1 -0.1)">
       <use xlink:href="#DejaVuSans-49"/>
       <use x="63.623047" xlink:href="#DejaVuSans-48"/>
       <use x="127.246094" xlink:href="#DejaVuSans-48"/>
      </g>
     </g>
    </g>
    <g id="ytick_7">
     <g id="line2d_13">
      <g>
       <use style="stroke:#000000;stroke-width:0.8;" x="50.565625" xlink:href="#m448d2cc322" y="65.664624"/>
      </g>
     </g>
     <g id="text_13">
      <!-- 120 -->
      <g transform="translate(24.478125 69.463842)scale(0.1 -0.1)">
       <use xlink:href="#DejaVuSans-49"/>
       <use x="63.623047" xlink:href="#DejaVuSans-50"/>
       <use x="127.246094" xlink:href="#DejaVuSans-48"/>
      </g>
     </g>
    </g>
    <g id="ytick_8">
     <g id="line2d_14">
      <g>
       <use style="stroke:#000000;stroke-width:0.8;" x="50.565625" xlink:href="#m448d2cc322" y="29.964964"/>
      </g>
     </g>
     <g id="text_14">
      <!-- 140 -->
      <g transform="translate(24.478125 33.764183)scale(0.1 -0.1)">
       <use xlink:href="#DejaVuSans-49"/>
       <use x="63.623047" xlink:href="#DejaVuSans-52"/>
       <use x="127.246094" xlink:href="#DejaVuSans-48"/>
      </g>
     </g>
    </g>
    <g id="text_15">
     <!-- ML pcr (por 100000 hab.) acumulados -->
     <defs>
      <path d="M 9.8125 72.90625 
L 24.515625 72.90625 
L 43.109375 23.296875 
L 61.8125 72.90625 
L 76.515625 72.90625 
L 76.515625 0 
L 66.890625 0 
L 66.890625 64.015625 
L 48.09375 14.015625 
L 38.1875 14.015625 
L 19.390625 64.015625 
L 19.390625 0 
L 9.8125 0 
z
" id="DejaVuSans-77"/>
      <path d="M 9.8125 72.90625 
L 19.671875 72.90625 
L 19.671875 8.296875 
L 55.171875 8.296875 
L 55.171875 0 
L 9.8125 0 
z
" id="DejaVuSans-76"/>
      <path id="DejaVuSans-32"/>
      <path d="M 18.109375 8.203125 
L 18.109375 -20.796875 
L 9.078125 -20.796875 
L 9.078125 54.6875 
L 18.109375 54.6875 
L 18.109375 46.390625 
Q 20.953125 51.265625 25.265625 53.625 
Q 29.59375 56 35.59375 56 
Q 45.5625 56 51.78125 48.09375 
Q 58.015625 40.1875 58.015625 27.296875 
Q 58.015625 14.40625 51.78125 6.484375 
Q 45.5625 -1.421875 35.59375 -1.421875 
Q 29.59375 -1.421875 25.265625 0.953125 
Q 20.953125 3.328125 18.109375 8.203125 
z
M 48.6875 27.296875 
Q 48.6875 37.203125 44.609375 42.84375 
Q 40.53125 48.484375 33.40625 48.484375 
Q 26.265625 48.484375 22.1875 42.84375 
Q 18.109375 37.203125 18.109375 27.296875 
Q 18.109375 17.390625 22.1875 11.75 
Q 26.265625 6.109375 33.40625 6.109375 
Q 40.53125 6.109375 44.609375 11.75 
Q 48.6875 17.390625 48.6875 27.296875 
z
" id="DejaVuSans-112"/>
      <path d="M 48.78125 52.59375 
L 48.78125 44.1875 
Q 44.96875 46.296875 41.140625 47.34375 
Q 37.3125 48.390625 33.40625 48.390625 
Q 24.65625 48.390625 19.8125 42.84375 
Q 14.984375 37.3125 14.984375 27.296875 
Q 14.984375 17.28125 19.8125 11.734375 
Q 24.65625 6.203125 33.40625 6.203125 
Q 37.3125 6.203125 41.140625 7.25 
Q 44.96875 8.296875 48.78125 10.40625 
L 48.78125 2.09375 
Q 45.015625 0.34375 40.984375 -0.53125 
Q 36.96875 -1.421875 32.421875 -1.421875 
Q 20.0625 -1.421875 12.78125 6.34375 
Q 5.515625 14.109375 5.515625 27.296875 
Q 5.515625 40.671875 12.859375 48.328125 
Q 20.21875 56 33.015625 56 
Q 37.15625 56 41.109375 55.140625 
Q 45.0625 54.296875 48.78125 52.59375 
z
" id="DejaVuSans-99"/>
      <path d="M 41.109375 46.296875 
Q 39.59375 47.171875 37.8125 47.578125 
Q 36.03125 48 33.890625 48 
Q 26.265625 48 22.1875 43.046875 
Q 18.109375 38.09375 18.109375 28.8125 
L 18.109375 0 
L 9.078125 0 
L 9.078125 54.6875 
L 18.109375 54.6875 
L 18.109375 46.1875 
Q 20.953125 51.171875 25.484375 53.578125 
Q 30.03125 56 36.53125 56 
Q 37.453125 56 38.578125 55.875 
Q 39.703125 55.765625 41.0625 55.515625 
z
" id="DejaVuSans-114"/>
      <path d="M 31 75.875 
Q 24.46875 64.65625 21.28125 53.65625 
Q 18.109375 42.671875 18.109375 31.390625 
Q 18.109375 20.125 21.3125 9.0625 
Q 24.515625 -2 31 -13.1875 
L 23.1875 -13.1875 
Q 15.875 -1.703125 12.234375 9.375 
Q 8.59375 20.453125 8.59375 31.390625 
Q 8.59375 42.28125 12.203125 53.3125 
Q 15.828125 64.359375 23.1875 75.875 
z
" id="DejaVuSans-40"/>
      <path d="M 30.609375 48.390625 
Q 23.390625 48.390625 19.1875 42.75 
Q 14.984375 37.109375 14.984375 27.296875 
Q 14.984375 17.484375 19.15625 11.84375 
Q 23.34375 6.203125 30.609375 6.203125 
Q 37.796875 6.203125 41.984375 11.859375 
Q 46.1875 17.53125 46.1875 27.296875 
Q 46.1875 37.015625 41.984375 42.703125 
Q 37.796875 48.390625 30.609375 48.390625 
z
M 30.609375 56 
Q 42.328125 56 49.015625 48.375 
Q 55.71875 40.765625 55.71875 27.296875 
Q 55.71875 13.875 49.015625 6.21875 
Q 42.328125 -1.421875 30.609375 -1.421875 
Q 18.84375 -1.421875 12.171875 6.21875 
Q 5.515625 13.875 5.515625 27.296875 
Q 5.515625 40.765625 12.171875 48.375 
Q 18.84375 56 30.609375 56 
z
" id="DejaVuSans-111"/>
      <path d="M 54.890625 33.015625 
L 54.890625 0 
L 45.90625 0 
L 45.90625 32.71875 
Q 45.90625 40.484375 42.875 44.328125 
Q 39.84375 48.1875 33.796875 48.1875 
Q 26.515625 48.1875 22.3125 43.546875 
Q 18.109375 38.921875 18.109375 30.90625 
L 18.109375 0 
L 9.078125 0 
L 9.078125 75.984375 
L 18.109375 75.984375 
L 18.109375 46.1875 
Q 21.34375 51.125 25.703125 53.5625 
Q 30.078125 56 35.796875 56 
Q 45.21875 56 50.046875 50.171875 
Q 54.890625 44.34375 54.890625 33.015625 
z
" id="DejaVuSans-104"/>
      <path d="M 34.28125 27.484375 
Q 23.390625 27.484375 19.1875 25 
Q 14.984375 22.515625 14.984375 16.5 
Q 14.984375 11.71875 18.140625 8.90625 
Q 21.296875 6.109375 26.703125 6.109375 
Q 34.1875 6.109375 38.703125 11.40625 
Q 43.21875 16.703125 43.21875 25.484375 
L 43.21875 27.484375 
z
M 52.203125 31.203125 
L 52.203125 0 
L 43.21875 0 
L 43.21875 8.296875 
Q 40.140625 3.328125 35.546875 0.953125 
Q 30.953125 -1.421875 24.3125 -1.421875 
Q 15.921875 -1.421875 10.953125 3.296875 
Q 6 8.015625 6 15.921875 
Q 6 25.140625 12.171875 29.828125 
Q 18.359375 34.515625 30.609375 34.515625 
L 43.21875 34.515625 
L 43.21875 35.40625 
Q 43.21875 41.609375 39.140625 45 
Q 35.0625 48.390625 27.6875 48.390625 
Q 23 48.390625 18.546875 47.265625 
Q 14.109375 46.140625 10.015625 43.890625 
L 10.015625 52.203125 
Q 14.9375 54.109375 19.578125 55.046875 
Q 24.21875 56 28.609375 56 
Q 40.484375 56 46.34375 49.84375 
Q 52.203125 43.703125 52.203125 31.203125 
z
" id="DejaVuSans-97"/>
      <path d="M 48.6875 27.296875 
Q 48.6875 37.203125 44.609375 42.84375 
Q 40.53125 48.484375 33.40625 48.484375 
Q 26.265625 48.484375 22.1875 42.84375 
Q 18.109375 37.203125 18.109375 27.296875 
Q 18.109375 17.390625 22.1875 11.75 
Q 26.265625 6.109375 33.40625 6.109375 
Q 40.53125 6.109375 44.609375 11.75 
Q 48.6875 17.390625 48.6875 27.296875 
z
M 18.109375 46.390625 
Q 20.953125 51.265625 25.265625 53.625 
Q 29.59375 56 35.59375 56 
Q 45.5625 56 51.78125 48.09375 
Q 58.015625 40.1875 58.015625 27.296875 
Q 58.015625 14.40625 51.78125 6.484375 
Q 45.5625 -1.421875 35.59375 -1.421875 
Q 29.59375 -1.421875 25.265625 0.953125 
Q 20.953125 3.328125 18.109375 8.203125 
L 18.109375 0 
L 9.078125 0 
L 9.078125 75.984375 
L 18.109375 75.984375 
z
" id="DejaVuSans-98"/>
      <path d="M 10.6875 12.40625 
L 21 12.40625 
L 21 0 
L 10.6875 0 
z
" id="DejaVuSans-46"/>
      <path d="M 8.015625 75.875 
L 15.828125 75.875 
Q 23.140625 64.359375 26.78125 53.3125 
Q 30.421875 42.28125 30.421875 31.390625 
Q 30.421875 20.453125 26.78125 9.375 
Q 23.140625 -1.703125 15.828125 -13.1875 
L 8.015625 -13.1875 
Q 14.5 -2 17.703125 9.0625 
Q 20.90625 20.125 20.90625 31.390625 
Q 20.90625 42.671875 17.703125 53.65625 
Q 14.5 64.65625 8.015625 75.875 
z
" id="DejaVuSans-41"/>
      <path d="M 8.5 21.578125 
L 8.5 54.6875 
L 17.484375 54.6875 
L 17.484375 21.921875 
Q 17.484375 14.15625 20.5 10.265625 
Q 23.53125 6.390625 29.59375 6.390625 
Q 36.859375 6.390625 41.078125 11.03125 
Q 45.3125 15.671875 45.3125 23.6875 
L 45.3125 54.6875 
L 54.296875 54.6875 
L 54.296875 0 
L 45.3125 0 
L 45.3125 8.40625 
Q 42.046875 3.421875 37.71875 1 
Q 33.40625 -1.421875 27.6875 -1.421875 
Q 18.265625 -1.421875 13.375 4.4375 
Q 8.5 10.296875 8.5 21.578125 
z
M 31.109375 56 
z
" id="DejaVuSans-117"/>
      <path d="M 52 44.1875 
Q 55.375 50.25 60.0625 53.125 
Q 64.75 56 71.09375 56 
Q 79.640625 56 84.28125 50.015625 
Q 88.921875 44.046875 88.921875 33.015625 
L 88.921875 0 
L 79.890625 0 
L 79.890625 32.71875 
Q 79.890625 40.578125 77.09375 44.375 
Q 74.3125 48.1875 68.609375 48.1875 
Q 61.625 48.1875 57.5625 43.546875 
Q 53.515625 38.921875 53.515625 30.90625 
L 53.515625 0 
L 44.484375 0 
L 44.484375 32.71875 
Q 44.484375 40.625 41.703125 44.40625 
Q 38.921875 48.1875 33.109375 48.1875 
Q 26.21875 48.1875 22.15625 43.53125 
Q 18.109375 38.875 18.109375 30.90625 
L 18.109375 0 
L 9.078125 0 
L 9.078125 54.6875 
L 18.109375 54.6875 
L 18.109375 46.1875 
Q 21.1875 51.21875 25.484375 53.609375 
Q 29.78125 56 35.6875 56 
Q 41.65625 56 45.828125 52.96875 
Q 50 49.953125 52 44.1875 
z
" id="DejaVuSans-109"/>
      <path d="M 9.421875 75.984375 
L 18.40625 75.984375 
L 18.40625 0 
L 9.421875 0 
z
" id="DejaVuSans-108"/>
      <path d="M 45.40625 46.390625 
L 45.40625 75.984375 
L 54.390625 75.984375 
L 54.390625 0 
L 45.40625 0 
L 45.40625 8.203125 
Q 42.578125 3.328125 38.25 0.953125 
Q 33.9375 -1.421875 27.875 -1.421875 
Q 17.96875 -1.421875 11.734375 6.484375 
Q 5.515625 14.40625 5.515625 27.296875 
Q 5.515625 40.1875 11.734375 48.09375 
Q 17.96875 56 27.875 56 
Q 33.9375 56 38.25 53.625 
Q 42.578125 51.265625 45.40625 46.390625 
z
M 14.796875 27.296875 
Q 14.796875 17.390625 18.875 11.75 
Q 22.953125 6.109375 30.078125 6.109375 
Q 37.203125 6.109375 41.296875 11.75 
Q 45.40625 17.390625 45.40625 27.296875 
Q 45.40625 37.203125 41.296875 42.84375 
Q 37.203125 48.484375 30.078125 48.484375 
Q 22.953125 48.484375 18.875 42.84375 
Q 14.796875 37.203125 14.796875 27.296875 
z
" id="DejaVuSans-100"/>
      <path d="M 44.28125 53.078125 
L 44.28125 44.578125 
Q 40.484375 46.53125 36.375 47.5 
Q 32.28125 48.484375 27.875 48.484375 
Q 21.1875 48.484375 17.84375 46.4375 
Q 14.5 44.390625 14.5 40.28125 
Q 14.5 37.15625 16.890625 35.375 
Q 19.28125 33.59375 26.515625 31.984375 
L 29.59375 31.296875 
Q 39.15625 29.25 43.1875 25.515625 
Q 47.21875 21.78125 47.21875 15.09375 
Q 47.21875 7.46875 41.1875 3.015625 
Q 35.15625 -1.421875 24.609375 -1.421875 
Q 20.21875 -1.421875 15.453125 -0.5625 
Q 10.6875 0.296875 5.421875 2 
L 5.421875 11.28125 
Q 10.40625 8.6875 15.234375 7.390625 
Q 20.0625 6.109375 24.8125 6.109375 
Q 31.15625 6.109375 34.5625 8.28125 
Q 37.984375 10.453125 37.984375 14.40625 
Q 37.984375 18.0625 35.515625 20.015625 
Q 33.0625 21.96875 24.703125 23.78125 
L 21.578125 24.515625 
Q 13.234375 26.265625 9.515625 29.90625 
Q 5.8125 33.546875 5.8125 39.890625 
Q 5.8125 47.609375 11.28125 51.796875 
Q 16.75 56 26.8125 56 
Q 31.78125 56 36.171875 55.265625 
Q 40.578125 54.546875 44.28125 53.078125 
z
" id="DejaVuSans-115"/>
     </defs>
     <g transform="translate(18.398438 240.942227)rotate(-90)scale(0.1 -0.1)">
      <use xlink:href="#DejaVuSans-77"/>
      <use x="86.279297" xlink:href="#DejaVuSans-76"/>
      <use x="141.992188" xlink:href="#DejaVuSans-32"/>
      <use x="173.779297" xlink:href="#DejaVuSans-112"/>
      <use x="237.255859" xlink:href="#DejaVuSans-99"/>
      <use x="292.236328" xlink:href="#DejaVuSans-114"/>
      <use x="333.349609" xlink:href="#DejaVuSans-32"/>
      <use x="365.136719" xlink:href="#DejaVuSans-40"/>
      <use x="404.150391" xlink:href="#DejaVuSans-112"/>
      <use x="467.626953" xlink:href="#DejaVuSans-111"/>
      <use x="528.808594" xlink:href="#DejaVuSans-114"/>
      <use x="569.921875" xlink:href="#DejaVuSans-32"/>
      <use x="601.708984" xlink:href="#DejaVuSans-49"/>
      <use x="665.332031" xlink:href="#DejaVuSans-48"/>
      <use x="728.955078" xlink:href="#DejaVuSans-48"/>
      <use x="792.578125" xlink:href="#DejaVuSans-48"/>
      <use x="856.201172" xlink:href="#DejaVuSans-48"/>
      <use x="919.824219" xlink:href="#DejaVuSans-48"/>
      <use x="983.447266" xlink:href="#DejaVuSans-32"/>
      <use x="1015.234375" xlink:href="#DejaVuSans-104"/>
      <use x="1078.613281" xlink:href="#DejaVuSans-97"/>
      <use x="1139.892578" xlink:href="#DejaVuSans-98"/>
      <use x="1203.369141" xlink:href="#DejaVuSans-46"/>
      <use x="1235.15625" xlink:href="#DejaVuSans-41"/>
      <use x="1274.169922" xlink:href="#DejaVuSans-32"/>
      <use x="1305.957031" xlink:href="#DejaVuSans-97"/>
      <use x="1367.236328" xlink:href="#DejaVuSans-99"/>
      <use x="1422.216797" xlink:href="#DejaVuSans-117"/>
      <use x="1485.595703" xlink:href="#DejaVuSans-109"/>
      <use x="1583.007812" xlink:href="#DejaVuSans-117"/>
      <use x="1646.386719" xlink:href="#DejaVuSans-108"/>
      <use x="1674.169922" xlink:href="#DejaVuSans-97"/>
      <use x="1735.449219" xlink:href="#DejaVuSans-100"/>
      <use x="1798.925781" xlink:href="#DejaVuSans-111"/>
      <use x="1860.107422" xlink:href="#DejaVuSans-115"/>
     </g>
    </g>
   </g>
   <g id="line2d_15">
    <path clip-path="url(#pbcc9372a1c)" d="M 68.713284 279.86258 
L 72.93367 279.86258 
L 77.154056 279.86258 
L 81.374441 279.86258 
L 85.594827 279.86258 
L 89.815213 279.86258 
L 94.035599 279.86258 
L 98.255985 279.86258 
L 102.47637 279.86258 
L 106.696756 279.86258 
L 110.917142 279.86258 
L 115.137528 279.86258 
L 119.357914 279.86258 
L 123.5783 279.86258 
L 127.798685 279.86258 
L 132.019071 279.86258 
L 136.239457 279.86258 
L 140.459843 279.86258 
L 144.680229 279.86258 
L 148.900614 279.86258 
L 153.121 275.627041 
L 157.341386 273.509272 
L 161.561772 262.920426 
L 165.782158 262.920426 
L 170.002543 243.860503 
L 174.222929 237.507195 
L 178.443315 231.153888 
L 182.663701 229.036118 
L 186.884087 226.918349 
L 191.104473 226.918349 
L 195.324858 220.565041 
L 199.545244 220.565041 
L 203.76563 199.387349 
L 207.986016 197.26958 
L 212.206402 190.916272 
L 216.426787 184.562965 
L 220.647173 178.209657 
L 224.867559 171.856349 
L 229.087945 165.503042 
L 233.308331 148.560888 
L 237.528716 148.560888 
L 241.749102 131.618734 
L 245.969488 112.558811 
L 250.189874 104.087734 
L 254.41026 97.734427 
L 258.630646 85.027811 
L 262.851031 82.910042 
L 267.071417 82.910042 
L 271.291803 78.674504 
L 275.512189 72.321196 
L 279.732575 72.321196 
L 283.95296 65.967888 
L 288.173346 65.967888 
L 292.393732 63.850119 
L 296.614118 61.73235 
L 300.834504 59.614581 
L 305.054889 59.614581 
L 309.275275 59.614581 
L 313.495661 59.614581 
L 317.716047 57.496811 
L 321.936433 57.496811 
L 326.156819 55.379042 
L 330.377204 53.261273 
L 334.59759 51.143504 
L 338.817976 46.907965 
L 343.038362 46.907965 
L 347.258748 38.436888 
L 351.479133 38.436888 
L 355.699519 38.436888 
L 359.919905 36.319119 
L 364.140291 36.319119 
L 368.360677 32.083581 
L 372.581062 27.848042 
L 376.801448 27.848042 
L 381.021834 27.848042 
L 385.24222 27.848042 
L 389.462606 27.848042 
L 393.682992 27.848042 
L 397.903377 27.848042 
L 402.123763 27.848042 
L 406.344149 27.848042 
L 410.564535 27.848042 
L 414.784921 27.848042 
L 419.005306 27.848042 
L 423.225692 27.848042 
L 427.446078 23.612504 
L 431.666464 23.612504 
" style="fill:none;stroke:#1f77b4;stroke-linecap:square;stroke-width:1.5;"/>
    <defs>
     <path d="M 0 1.5 
C 0.397805 1.5 0.77937 1.341951 1.06066 1.06066 
C 1.341951 0.77937 1.5 0.397805 1.5 0 
C 1.5 -0.397805 1.341951 -0.77937 1.06066 -1.06066 
C 0.77937 -1.341951 0.397805 -1.5 0 -1.5 
C -0.397805 -1.5 -0.77937 -1.341951 -1.06066 -1.06066 
C -1.341951 -0.77937 -1.5 -0.397805 -1.5 0 
C -1.5 0.397805 -1.341951 0.77937 -1.06066 1.06066 
C -0.77937 1.341951 -0.397805 1.5 0 1.5 
z
" id="m7e6ff262fa" style="stroke:#1f77b4;"/>
    </defs>
    <g clip-path="url(#pbcc9372a1c)">
     <use style="fill:#1f77b4;stroke:#1f77b4;" x="68.713284" xlink:href="#m7e6ff262fa" y="279.86258"/>
     <use style="fill:#1f77b4;stroke:#1f77b4;" x="72.93367" xlink:href="#m7e6ff262fa" y="279.86258"/>
     <use style="fill:#1f77b4;stroke:#1f77b4;" x="77.154056" xlink:href="#m7e6ff262fa" y="279.86258"/>
     <use style="fill:#1f77b4;stroke:#1f77b4;" x="81.374441" xlink:href="#m7e6ff262fa" y="279.86258"/>
     <use style="fill:#1f77b4;stroke:#1f77b4;" x="85.594827" xlink:href="#m7e6ff262fa" y="279.86258"/>
     <use style="fill:#1f77b4;stroke:#1f77b4;" x="89.815213" xlink:href="#m7e6ff262fa" y="279.86258"/>
     <use style="fill:#1f77b4;stroke:#1f77b4;" x="94.035599" xlink:href="#m7e6ff262fa" y="279.86258"/>
     <use style="fill:#1f77b4;stroke:#1f77b4;" x="98.255985" xlink:href="#m7e6ff262fa" y="279.86258"/>
     <use style="fill:#1f77b4;stroke:#1f77b4;" x="102.47637" xlink:href="#m7e6ff262fa" y="279.86258"/>
     <use style="fill:#1f77b4;stroke:#1f77b4;" x="106.696756" xlink:href="#m7e6ff262fa" y="279.86258"/>
     <use style="fill:#1f77b4;stroke:#1f77b4;" x="110.917142" xlink:href="#m7e6ff262fa" y="279.86258"/>
     <use style="fill:#1f77b4;stroke:#1f77b4;" x="115.137528" xlink:href="#m7e6ff262fa" y="279.86258"/>
     <use style="fill:#1f77b4;stroke:#1f77b4;" x="119.357914" xlink:href="#m7e6ff262fa" y="279.86258"/>
     <use style="fill:#1f77b4;stroke:#1f77b4;" x="123.5783" xlink:href="#m7e6ff262fa" y="279.86258"/>
     <use style="fill:#1f77b4;stroke:#1f77b4;" x="127.798685" xlink:href="#m7e6ff262fa" y="279.86258"/>
     <use style="fill:#1f77b4;stroke:#1f77b4;" x="132.019071" xlink:href="#m7e6ff262fa" y="279.86258"/>
     <use style="fill:#1f77b4;stroke:#1f77b4;" x="136.239457" xlink:href="#m7e6ff262fa" y="279.86258"/>
     <use style="fill:#1f77b4;stroke:#1f77b4;" x="140.459843" xlink:href="#m7e6ff262fa" y="279.86258"/>
     <use style="fill:#1f77b4;stroke:#1f77b4;" x="144.680229" xlink:href="#m7e6ff262fa" y="279.86258"/>
     <use style="fill:#1f77b4;stroke:#1f77b4;" x="148.900614" xlink:href="#m7e6ff262fa" y="279.86258"/>
     <use style="fill:#1f77b4;stroke:#1f77b4;" x="153.121" xlink:href="#m7e6ff262fa" y="275.627041"/>
     <use style="fill:#1f77b4;stroke:#1f77b4;" x="157.341386" xlink:href="#m7e6ff262fa" y="273.509272"/>
     <use style="fill:#1f77b4;stroke:#1f77b4;" x="161.561772" xlink:href="#m7e6ff262fa" y="262.920426"/>
     <use style="fill:#1f77b4;stroke:#1f77b4;" x="165.782158" xlink:href="#m7e6ff262fa" y="262.920426"/>
     <use style="fill:#1f77b4;stroke:#1f77b4;" x="170.002543" xlink:href="#m7e6ff262fa" y="243.860503"/>
     <use style="fill:#1f77b4;stroke:#1f77b4;" x="174.222929" xlink:href="#m7e6ff262fa" y="237.507195"/>
     <use style="fill:#1f77b4;stroke:#1f77b4;" x="178.443315" xlink:href="#m7e6ff262fa" y="231.153888"/>
     <use style="fill:#1f77b4;stroke:#1f77b4;" x="182.663701" xlink:href="#m7e6ff262fa" y="229.036118"/>
     <use style="fill:#1f77b4;stroke:#1f77b4;" x="186.884087" xlink:href="#m7e6ff262fa" y="226.918349"/>
     <use style="fill:#1f77b4;stroke:#1f77b4;" x="191.104473" xlink:href="#m7e6ff262fa" y="226.918349"/>
     <use style="fill:#1f77b4;stroke:#1f77b4;" x="195.324858" xlink:href="#m7e6ff262fa" y="220.565041"/>
     <use style="fill:#1f77b4;stroke:#1f77b4;" x="199.545244" xlink:href="#m7e6ff262fa" y="220.565041"/>
     <use style="fill:#1f77b4;stroke:#1f77b4;" x="203.76563" xlink:href="#m7e6ff262fa" y="199.387349"/>
     <use style="fill:#1f77b4;stroke:#1f77b4;" x="207.986016" xlink:href="#m7e6ff262fa" y="197.26958"/>
     <use style="fill:#1f77b4;stroke:#1f77b4;" x="212.206402" xlink:href="#m7e6ff262fa" y="190.916272"/>
     <use style="fill:#1f77b4;stroke:#1f77b4;" x="216.426787" xlink:href="#m7e6ff262fa" y="184.562965"/>
     <use style="fill:#1f77b4;stroke:#1f77b4;" x="220.647173" xlink:href="#m7e6ff262fa" y="178.209657"/>
     <use style="fill:#1f77b4;stroke:#1f77b4;" x="224.867559" xlink:href="#m7e6ff262fa" y="171.856349"/>
     <use style="fill:#1f77b4;stroke:#1f77b4;" x="229.087945" xlink:href="#m7e6ff262fa" y="165.503042"/>
     <use style="fill:#1f77b4;stroke:#1f77b4;" x="233.308331" xlink:href="#m7e6ff262fa" y="148.560888"/>
     <use style="fill:#1f77b4;stroke:#1f77b4;" x="237.528716" xlink:href="#m7e6ff262fa" y="148.560888"/>
     <use style="fill:#1f77b4;stroke:#1f77b4;" x="241.749102" xlink:href="#m7e6ff262fa" y="131.618734"/>
     <use style="fill:#1f77b4;stroke:#1f77b4;" x="245.969488" xlink:href="#m7e6ff262fa" y="112.558811"/>
     <use style="fill:#1f77b4;stroke:#1f77b4;" x="250.189874" xlink:href="#m7e6ff262fa" y="104.087734"/>
     <use style="fill:#1f77b4;stroke:#1f77b4;" x="254.41026" xlink:href="#m7e6ff262fa" y="97.734427"/>
     <use style="fill:#1f77b4;stroke:#1f77b4;" x="258.630646" xlink:href="#m7e6ff262fa" y="85.027811"/>
     <use style="fill:#1f77b4;stroke:#1f77b4;" x="262.851031" xlink:href="#m7e6ff262fa" y="82.910042"/>
     <use style="fill:#1f77b4;stroke:#1f77b4;" x="267.071417" xlink:href="#m7e6ff262fa" y="82.910042"/>
     <use style="fill:#1f77b4;stroke:#1f77b4;" x="271.291803" xlink:href="#m7e6ff262fa" y="78.674504"/>
     <use style="fill:#1f77b4;stroke:#1f77b4;" x="275.512189" xlink:href="#m7e6ff262fa" y="72.321196"/>
     <use style="fill:#1f77b4;stroke:#1f77b4;" x="279.732575" xlink:href="#m7e6ff262fa" y="72.321196"/>
     <use style="fill:#1f77b4;stroke:#1f77b4;" x="283.95296" xlink:href="#m7e6ff262fa" y="65.967888"/>
     <use style="fill:#1f77b4;stroke:#1f77b4;" x="288.173346" xlink:href="#m7e6ff262fa" y="65.967888"/>
     <use style="fill:#1f77b4;stroke:#1f77b4;" x="292.393732" xlink:href="#m7e6ff262fa" y="63.850119"/>
     <use style="fill:#1f77b4;stroke:#1f77b4;" x="296.614118" xlink:href="#m7e6ff262fa" y="61.73235"/>
     <use style="fill:#1f77b4;stroke:#1f77b4;" x="300.834504" xlink:href="#m7e6ff262fa" y="59.614581"/>
     <use style="fill:#1f77b4;stroke:#1f77b4;" x="305.054889" xlink:href="#m7e6ff262fa" y="59.614581"/>
     <use style="fill:#1f77b4;stroke:#1f77b4;" x="309.275275" xlink:href="#m7e6ff262fa" y="59.614581"/>
     <use style="fill:#1f77b4;stroke:#1f77b4;" x="313.495661" xlink:href="#m7e6ff262fa" y="59.614581"/>
     <use style="fill:#1f77b4;stroke:#1f77b4;" x="317.716047" xlink:href="#m7e6ff262fa" y="57.496811"/>
     <use style="fill:#1f77b4;stroke:#1f77b4;" x="321.936433" xlink:href="#m7e6ff262fa" y="57.496811"/>
     <use style="fill:#1f77b4;stroke:#1f77b4;" x="326.156819" xlink:href="#m7e6ff262fa" y="55.379042"/>
     <use style="fill:#1f77b4;stroke:#1f77b4;" x="330.377204" xlink:href="#m7e6ff262fa" y="53.261273"/>
     <use style="fill:#1f77b4;stroke:#1f77b4;" x="334.59759" xlink:href="#m7e6ff262fa" y="51.143504"/>
     <use style="fill:#1f77b4;stroke:#1f77b4;" x="338.817976" xlink:href="#m7e6ff262fa" y="46.907965"/>
     <use style="fill:#1f77b4;stroke:#1f77b4;" x="343.038362" xlink:href="#m7e6ff262fa" y="46.907965"/>
     <use style="fill:#1f77b4;stroke:#1f77b4;" x="347.258748" xlink:href="#m7e6ff262fa" y="38.436888"/>
     <use style="fill:#1f77b4;stroke:#1f77b4;" x="351.479133" xlink:href="#m7e6ff262fa" y="38.436888"/>
     <use style="fill:#1f77b4;stroke:#1f77b4;" x="355.699519" xlink:href="#m7e6ff262fa" y="38.436888"/>
     <use style="fill:#1f77b4;stroke:#1f77b4;" x="359.919905" xlink:href="#m7e6ff262fa" y="36.319119"/>
     <use style="fill:#1f77b4;stroke:#1f77b4;" x="364.140291" xlink:href="#m7e6ff262fa" y="36.319119"/>
     <use style="fill:#1f77b4;stroke:#1f77b4;" x="368.360677" xlink:href="#m7e6ff262fa" y="32.083581"/>
     <use style="fill:#1f77b4;stroke:#1f77b4;" x="372.581062" xlink:href="#m7e6ff262fa" y="27.848042"/>
     <use style="fill:#1f77b4;stroke:#1f77b4;" x="376.801448" xlink:href="#m7e6ff262fa" y="27.848042"/>
     <use style="fill:#1f77b4;stroke:#1f77b4;" x="381.021834" xlink:href="#m7e6ff262fa" y="27.848042"/>
     <use style="fill:#1f77b4;stroke:#1f77b4;" x="385.24222" xlink:href="#m7e6ff262fa" y="27.848042"/>
     <use style="fill:#1f77b4;stroke:#1f77b4;" x="389.462606" xlink:href="#m7e6ff262fa" y="27.848042"/>
     <use style="fill:#1f77b4;stroke:#1f77b4;" x="393.682992" xlink:href="#m7e6ff262fa" y="27.848042"/>
     <use style="fill:#1f77b4;stroke:#1f77b4;" x="397.903377" xlink:href="#m7e6ff262fa" y="27.848042"/>
     <use style="fill:#1f77b4;stroke:#1f77b4;" x="402.123763" xlink:href="#m7e6ff262fa" y="27.848042"/>
     <use style="fill:#1f77b4;stroke:#1f77b4;" x="406.344149" xlink:href="#m7e6ff262fa" y="27.848042"/>
     <use style="fill:#1f77b4;stroke:#1f77b4;" x="410.564535" xlink:href="#m7e6ff262fa" y="27.848042"/>
     <use style="fill:#1f77b4;stroke:#1f77b4;" x="414.784921" xlink:href="#m7e6ff262fa" y="27.848042"/>
     <use style="fill:#1f77b4;stroke:#1f77b4;" x="419.005306" xlink:href="#m7e6ff262fa" y="27.848042"/>
     <use style="fill:#1f77b4;stroke:#1f77b4;" x="423.225692" xlink:href="#m7e6ff262fa" y="27.848042"/>
     <use style="fill:#1f77b4;stroke:#1f77b4;" x="427.446078" xlink:href="#m7e6ff262fa" y="23.612504"/>
     <use style="fill:#1f77b4;stroke:#1f77b4;" x="431.666464" xlink:href="#m7e6ff262fa" y="23.612504"/>
    </g>
   </g>
   <g id="patch_3">
    <path d="M 50.565625 279.86258 
L 50.565625 10.8 
" style="fill:none;stroke:#000000;stroke-linecap:square;stroke-linejoin:miter;stroke-width:0.8;"/>
   </g>
   <g id="patch_4">
    <path d="M 449.814123 279.86258 
L 449.814123 10.8 
" style="fill:none;stroke:#000000;stroke-linecap:square;stroke-linejoin:miter;stroke-width:0.8;"/>
   </g>
   <g id="patch_5">
    <path d="M 50.565625 279.86258 
L 449.814123 279.86258 
" style="fill:none;stroke:#000000;stroke-linecap:square;stroke-linejoin:miter;stroke-width:0.8;"/>
   </g>
   <g id="patch_6">
    <path d="M 50.565625 10.8 
L 449.814123 10.8 
" style="fill:none;stroke:#000000;stroke-linecap:square;stroke-linejoin:miter;stroke-width:0.8;"/>
   </g>
  </g>
 </g>
 <defs>
  <clipPath id="pbcc9372a1c">
   <rect height="269.06258" width="399.248498" x="50.565625" y="10.8"/>
  </clipPath>
 </defs>
</svg>
