<?xml version="1.0" encoding="utf-8" standalone="no"?>
<!DOCTYPE svg PUBLIC "-//W3C//DTD SVG 1.1//EN"
  "http://www.w3.org/Graphics/SVG/1.1/DTD/svg11.dtd">
<!-- Created with matplotlib (https://matplotlib.org/) -->
<svg height="345.6pt" version="1.1" viewBox="0 0 460.8 345.6" width="460.8pt" xmlns="http://www.w3.org/2000/svg" xmlns:xlink="http://www.w3.org/1999/xlink">
 <defs>
  <style type="text/css">
*{stroke-linecap:butt;stroke-linejoin:round;}
  </style>
 </defs>
 <g id="figure_1">
  <g id="patch_1">
   <path d="M 0 345.6 
L 460.8 345.6 
L 460.8 0 
L 0 0 
z
" style="fill:#ffffff;"/>
  </g>
  <g id="axes_1">
   <g id="patch_2">
    <path d="M 50.565625 279.86258 
L 438.352517 279.86258 
L 438.352517 10.8 
L 50.565625 10.8 
z
" style="fill:#ffffff;"/>
   </g>
   <g id="matplotlib.axis_1">
    <g id="xtick_1">
     <g id="line2d_1">
      <defs>
       <path d="M 0 0 
L 0 3.5 
" id="m642b466ca8" style="stroke:#000000;stroke-width:0.8;"/>
      </defs>
      <g>
       <use style="stroke:#000000;stroke-width:0.8;" x="106.41883" xlink:href="#m642b466ca8" y="279.86258"/>
      </g>
     </g>
     <g id="text_1">
      <!-- 2020-03-01 -->
      <defs>
       <path d="M 19.1875 8.296875 
L 53.609375 8.296875 
L 53.609375 0 
L 7.328125 0 
L 7.328125 8.296875 
Q 12.9375 14.109375 22.625 23.890625 
Q 32.328125 33.6875 34.8125 36.53125 
Q 39.546875 41.84375 41.421875 45.53125 
Q 43.3125 49.21875 43.3125 52.78125 
Q 43.3125 58.59375 39.234375 62.25 
Q 35.15625 65.921875 28.609375 65.921875 
Q 23.96875 65.921875 18.8125 64.3125 
Q 13.671875 62.703125 7.8125 59.421875 
L 7.8125 69.390625 
Q 13.765625 71.78125 18.9375 73 
Q 24.125 74.21875 28.421875 74.21875 
Q 39.75 74.21875 46.484375 68.546875 
Q 53.21875 62.890625 53.21875 53.421875 
Q 53.21875 48.921875 51.53125 44.890625 
Q 49.859375 40.875 45.40625 35.40625 
Q 44.1875 33.984375 37.640625 27.21875 
Q 31.109375 20.453125 19.1875 8.296875 
z
" id="DejaVuSans-50"/>
       <path d="M 31.78125 66.40625 
Q 24.171875 66.40625 20.328125 58.90625 
Q 16.5 51.421875 16.5 36.375 
Q 16.5 21.390625 20.328125 13.890625 
Q 24.171875 6.390625 31.78125 6.390625 
Q 39.453125 6.390625 43.28125 13.890625 
Q 47.125 21.390625 47.125 36.375 
Q 47.125 51.421875 43.28125 58.90625 
Q 39.453125 66.40625 31.78125 66.40625 
z
M 31.78125 74.21875 
Q 44.046875 74.21875 50.515625 64.515625 
Q 56.984375 54.828125 56.984375 36.375 
Q 56.984375 17.96875 50.515625 8.265625 
Q 44.046875 -1.421875 31.78125 -1.421875 
Q 19.53125 -1.421875 13.0625 8.265625 
Q 6.59375 17.96875 6.59375 36.375 
Q 6.59375 54.828125 13.0625 64.515625 
Q 19.53125 74.21875 31.78125 74.21875 
z
" id="DejaVuSans-48"/>
       <path d="M 4.890625 31.390625 
L 31.203125 31.390625 
L 31.203125 23.390625 
L 4.890625 23.390625 
z
" id="DejaVuSans-45"/>
       <path d="M 40.578125 39.3125 
Q 47.65625 37.796875 51.625 33 
Q 55.609375 28.21875 55.609375 21.1875 
Q 55.609375 10.40625 48.1875 4.484375 
Q 40.765625 -1.421875 27.09375 -1.421875 
Q 22.515625 -1.421875 17.65625 -0.515625 
Q 12.796875 0.390625 7.625 2.203125 
L 7.625 11.71875 
Q 11.71875 9.328125 16.59375 8.109375 
Q 21.484375 6.890625 26.8125 6.890625 
Q 36.078125 6.890625 40.9375 10.546875 
Q 45.796875 14.203125 45.796875 21.1875 
Q 45.796875 27.640625 41.28125 31.265625 
Q 36.765625 34.90625 28.71875 34.90625 
L 20.21875 34.90625 
L 20.21875 43.015625 
L 29.109375 43.015625 
Q 36.375 43.015625 40.234375 45.921875 
Q 44.09375 48.828125 44.09375 54.296875 
Q 44.09375 59.90625 40.109375 62.90625 
Q 36.140625 65.921875 28.71875 65.921875 
Q 24.65625 65.921875 20.015625 65.03125 
Q 15.375 64.15625 9.8125 62.3125 
L 9.8125 71.09375 
Q 15.4375 72.65625 20.34375 73.4375 
Q 25.25 74.21875 29.59375 74.21875 
Q 40.828125 74.21875 47.359375 69.109375 
Q 53.90625 64.015625 53.90625 55.328125 
Q 53.90625 49.265625 50.4375 45.09375 
Q 46.96875 40.921875 40.578125 39.3125 
z
" id="DejaVuSans-51"/>
       <path d="M 12.40625 8.296875 
L 28.515625 8.296875 
L 28.515625 63.921875 
L 10.984375 60.40625 
L 10.984375 69.390625 
L 28.421875 72.90625 
L 38.28125 72.90625 
L 38.28125 8.296875 
L 54.390625 8.296875 
L 54.390625 0 
L 12.40625 0 
z
" id="DejaVuSans-49"/>
      </defs>
      <g transform="translate(87.823027 333.329439)rotate(-45)scale(0.1 -0.1)">
       <use xlink:href="#DejaVuSans-50"/>
       <use x="63.623047" xlink:href="#DejaVuSans-48"/>
       <use x="127.246094" xlink:href="#DejaVuSans-50"/>
       <use x="190.869141" xlink:href="#DejaVuSans-48"/>
       <use x="254.492188" xlink:href="#DejaVuSans-45"/>
       <use x="290.576172" xlink:href="#DejaVuSans-48"/>
       <use x="354.199219" xlink:href="#DejaVuSans-51"/>
       <use x="417.822266" xlink:href="#DejaVuSans-45"/>
       <use x="453.90625" xlink:href="#DejaVuSans-48"/>
       <use x="517.529297" xlink:href="#DejaVuSans-49"/>
      </g>
     </g>
    </g>
    <g id="xtick_2">
     <g id="line2d_2">
      <g>
       <use style="stroke:#000000;stroke-width:0.8;" x="165.882318" xlink:href="#m642b466ca8" y="279.86258"/>
      </g>
     </g>
     <g id="text_2">
      <!-- 2020-03-15 -->
      <defs>
       <path d="M 10.796875 72.90625 
L 49.515625 72.90625 
L 49.515625 64.59375 
L 19.828125 64.59375 
L 19.828125 46.734375 
Q 21.96875 47.46875 24.109375 47.828125 
Q 26.265625 48.1875 28.421875 48.1875 
Q 40.625 48.1875 47.75 41.5 
Q 54.890625 34.8125 54.890625 23.390625 
Q 54.890625 11.625 47.5625 5.09375 
Q 40.234375 -1.421875 26.90625 -1.421875 
Q 22.3125 -1.421875 17.546875 -0.640625 
Q 12.796875 0.140625 7.71875 1.703125 
L 7.71875 11.625 
Q 12.109375 9.234375 16.796875 8.0625 
Q 21.484375 6.890625 26.703125 6.890625 
Q 35.15625 6.890625 40.078125 11.328125 
Q 45.015625 15.765625 45.015625 23.390625 
Q 45.015625 31 40.078125 35.4375 
Q 35.15625 39.890625 26.703125 39.890625 
Q 22.75 39.890625 18.8125 39.015625 
Q 14.890625 38.140625 10.796875 36.28125 
z
" id="DejaVuSans-53"/>
      </defs>
      <g transform="translate(147.286515 333.329439)rotate(-45)scale(0.1 -0.1)">
       <use xlink:href="#DejaVuSans-50"/>
       <use x="63.623047" xlink:href="#DejaVuSans-48"/>
       <use x="127.246094" xlink:href="#DejaVuSans-50"/>
       <use x="190.869141" xlink:href="#DejaVuSans-48"/>
       <use x="254.492188" xlink:href="#DejaVuSans-45"/>
       <use x="290.576172" xlink:href="#DejaVuSans-48"/>
       <use x="354.199219" xlink:href="#DejaVuSans-51"/>
       <use x="417.822266" xlink:href="#DejaVuSans-45"/>
       <use x="453.90625" xlink:href="#DejaVuSans-49"/>
       <use x="517.529297" xlink:href="#DejaVuSans-53"/>
      </g>
     </g>
    </g>
    <g id="xtick_3">
     <g id="line2d_3">
      <g>
       <use style="stroke:#000000;stroke-width:0.8;" x="238.087983" xlink:href="#m642b466ca8" y="279.86258"/>
      </g>
     </g>
     <g id="text_3">
      <!-- 2020-04-01 -->
      <defs>
       <path d="M 37.796875 64.3125 
L 12.890625 25.390625 
L 37.796875 25.390625 
z
M 35.203125 72.90625 
L 47.609375 72.90625 
L 47.609375 25.390625 
L 58.015625 25.390625 
L 58.015625 17.1875 
L 47.609375 17.1875 
L 47.609375 0 
L 37.796875 0 
L 37.796875 17.1875 
L 4.890625 17.1875 
L 4.890625 26.703125 
z
" id="DejaVuSans-52"/>
      </defs>
      <g transform="translate(219.492179 333.329439)rotate(-45)scale(0.1 -0.1)">
       <use xlink:href="#DejaVuSans-50"/>
       <use x="63.623047" xlink:href="#DejaVuSans-48"/>
       <use x="127.246094" xlink:href="#DejaVuSans-50"/>
       <use x="190.869141" xlink:href="#DejaVuSans-48"/>
       <use x="254.492188" xlink:href="#DejaVuSans-45"/>
       <use x="290.576172" xlink:href="#DejaVuSans-48"/>
       <use x="354.199219" xlink:href="#DejaVuSans-52"/>
       <use x="417.822266" xlink:href="#DejaVuSans-45"/>
       <use x="453.90625" xlink:href="#DejaVuSans-48"/>
       <use x="517.529297" xlink:href="#DejaVuSans-49"/>
      </g>
     </g>
    </g>
    <g id="xtick_4">
     <g id="line2d_4">
      <g>
       <use style="stroke:#000000;stroke-width:0.8;" x="297.551471" xlink:href="#m642b466ca8" y="279.86258"/>
      </g>
     </g>
     <g id="text_4">
      <!-- 2020-04-15 -->
      <g transform="translate(278.955668 333.329439)rotate(-45)scale(0.1 -0.1)">
       <use xlink:href="#DejaVuSans-50"/>
       <use x="63.623047" xlink:href="#DejaVuSans-48"/>
       <use x="127.246094" xlink:href="#DejaVuSans-50"/>
       <use x="190.869141" xlink:href="#DejaVuSans-48"/>
       <use x="254.492188" xlink:href="#DejaVuSans-45"/>
       <use x="290.576172" xlink:href="#DejaVuSans-48"/>
       <use x="354.199219" xlink:href="#DejaVuSans-52"/>
       <use x="417.822266" xlink:href="#DejaVuSans-45"/>
       <use x="453.90625" xlink:href="#DejaVuSans-49"/>
       <use x="517.529297" xlink:href="#DejaVuSans-53"/>
      </g>
     </g>
    </g>
    <g id="xtick_5">
     <g id="line2d_5">
      <g>
       <use style="stroke:#000000;stroke-width:0.8;" x="365.509743" xlink:href="#m642b466ca8" y="279.86258"/>
      </g>
     </g>
     <g id="text_5">
      <!-- 2020-05-01 -->
      <g transform="translate(346.91394 333.329439)rotate(-45)scale(0.1 -0.1)">
       <use xlink:href="#DejaVuSans-50"/>
       <use x="63.623047" xlink:href="#DejaVuSans-48"/>
       <use x="127.246094" xlink:href="#DejaVuSans-50"/>
       <use x="190.869141" xlink:href="#DejaVuSans-48"/>
       <use x="254.492188" xlink:href="#DejaVuSans-45"/>
       <use x="290.576172" xlink:href="#DejaVuSans-48"/>
       <use x="354.199219" xlink:href="#DejaVuSans-53"/>
       <use x="417.822266" xlink:href="#DejaVuSans-45"/>
       <use x="453.90625" xlink:href="#DejaVuSans-48"/>
       <use x="517.529297" xlink:href="#DejaVuSans-49"/>
      </g>
     </g>
    </g>
    <g id="xtick_6">
     <g id="line2d_6">
      <g>
       <use style="stroke:#000000;stroke-width:0.8;" x="424.973232" xlink:href="#m642b466ca8" y="279.86258"/>
      </g>
     </g>
     <g id="text_6">
      <!-- 2020-05-15 -->
      <g transform="translate(406.377428 333.329439)rotate(-45)scale(0.1 -0.1)">
       <use xlink:href="#DejaVuSans-50"/>
       <use x="63.623047" xlink:href="#DejaVuSans-48"/>
       <use x="127.246094" xlink:href="#DejaVuSans-50"/>
       <use x="190.869141" xlink:href="#DejaVuSans-48"/>
       <use x="254.492188" xlink:href="#DejaVuSans-45"/>
       <use x="290.576172" xlink:href="#DejaVuSans-48"/>
       <use x="354.199219" xlink:href="#DejaVuSans-53"/>
       <use x="417.822266" xlink:href="#DejaVuSans-45"/>
       <use x="453.90625" xlink:href="#DejaVuSans-49"/>
       <use x="517.529297" xlink:href="#DejaVuSans-53"/>
      </g>
     </g>
    </g>
   </g>
   <g id="matplotlib.axis_2">
    <g id="ytick_1">
     <g id="line2d_7">
      <defs>
       <path d="M 0 0 
L -3.5 0 
" id="md46f0703c8" style="stroke:#000000;stroke-width:0.8;"/>
      </defs>
      <g>
       <use style="stroke:#000000;stroke-width:0.8;" x="50.565625" xlink:href="#md46f0703c8" y="279.86258"/>
      </g>
     </g>
     <g id="text_7">
      <!-- 0 -->
      <g transform="translate(37.203125 283.661798)scale(0.1 -0.1)">
       <use xlink:href="#DejaVuSans-48"/>
      </g>
     </g>
    </g>
    <g id="ytick_2">
     <g id="line2d_8">
      <g>
       <use style="stroke:#000000;stroke-width:0.8;" x="50.565625" xlink:href="#md46f0703c8" y="220.63202"/>
      </g>
     </g>
     <g id="text_8">
      <!-- 50 -->
      <g transform="translate(30.840625 224.431239)scale(0.1 -0.1)">
       <use xlink:href="#DejaVuSans-53"/>
       <use x="63.623047" xlink:href="#DejaVuSans-48"/>
      </g>
     </g>
    </g>
    <g id="ytick_3">
     <g id="line2d_9">
      <g>
       <use style="stroke:#000000;stroke-width:0.8;" x="50.565625" xlink:href="#md46f0703c8" y="161.401461"/>
      </g>
     </g>
     <g id="text_9">
      <!-- 100 -->
      <g transform="translate(24.478125 165.20068)scale(0.1 -0.1)">
       <use xlink:href="#DejaVuSans-49"/>
       <use x="63.623047" xlink:href="#DejaVuSans-48"/>
       <use x="127.246094" xlink:href="#DejaVuSans-48"/>
      </g>
     </g>
    </g>
    <g id="ytick_4">
     <g id="line2d_10">
      <g>
       <use style="stroke:#000000;stroke-width:0.8;" x="50.565625" xlink:href="#md46f0703c8" y="102.170902"/>
      </g>
     </g>
     <g id="text_10">
      <!-- 150 -->
      <g transform="translate(24.478125 105.970121)scale(0.1 -0.1)">
       <use xlink:href="#DejaVuSans-49"/>
       <use x="63.623047" xlink:href="#DejaVuSans-53"/>
       <use x="127.246094" xlink:href="#DejaVuSans-48"/>
      </g>
     </g>
    </g>
    <g id="ytick_5">
     <g id="line2d_11">
      <g>
       <use style="stroke:#000000;stroke-width:0.8;" x="50.565625" xlink:href="#md46f0703c8" y="42.940343"/>
      </g>
     </g>
     <g id="text_11">
      <!-- 200 -->
      <g transform="translate(24.478125 46.739562)scale(0.1 -0.1)">
       <use xlink:href="#DejaVuSans-50"/>
       <use x="63.623047" xlink:href="#DejaVuSans-48"/>
       <use x="127.246094" xlink:href="#DejaVuSans-48"/>
      </g>
     </g>
    </g>
    <g id="text_12">
     <!-- VC pcr (por 100000 hab.) acumulados -->
     <defs>
      <path d="M 28.609375 0 
L 0.78125 72.90625 
L 11.078125 72.90625 
L 34.1875 11.53125 
L 57.328125 72.90625 
L 67.578125 72.90625 
L 39.796875 0 
z
" id="DejaVuSans-86"/>
      <path d="M 64.40625 67.28125 
L 64.40625 56.890625 
Q 59.421875 61.53125 53.78125 63.8125 
Q 48.140625 66.109375 41.796875 66.109375 
Q 29.296875 66.109375 22.65625 58.46875 
Q 16.015625 50.828125 16.015625 36.375 
Q 16.015625 21.96875 22.65625 14.328125 
Q 29.296875 6.6875 41.796875 6.6875 
Q 48.140625 6.6875 53.78125 8.984375 
Q 59.421875 11.28125 64.40625 15.921875 
L 64.40625 5.609375 
Q 59.234375 2.09375 53.4375 0.328125 
Q 47.65625 -1.421875 41.21875 -1.421875 
Q 24.65625 -1.421875 15.125 8.703125 
Q 5.609375 18.84375 5.609375 36.375 
Q 5.609375 53.953125 15.125 64.078125 
Q 24.65625 74.21875 41.21875 74.21875 
Q 47.75 74.21875 53.53125 72.484375 
Q 59.328125 70.75 64.40625 67.28125 
z
" id="DejaVuSans-67"/>
      <path id="DejaVuSans-32"/>
      <path d="M 18.109375 8.203125 
L 18.109375 -20.796875 
L 9.078125 -20.796875 
L 9.078125 54.6875 
L 18.109375 54.6875 
L 18.109375 46.390625 
Q 20.953125 51.265625 25.265625 53.625 
Q 29.59375 56 35.59375 56 
Q 45.5625 56 51.78125 48.09375 
Q 58.015625 40.1875 58.015625 27.296875 
Q 58.015625 14.40625 51.78125 6.484375 
Q 45.5625 -1.421875 35.59375 -1.421875 
Q 29.59375 -1.421875 25.265625 0.953125 
Q 20.953125 3.328125 18.109375 8.203125 
z
M 48.6875 27.296875 
Q 48.6875 37.203125 44.609375 42.84375 
Q 40.53125 48.484375 33.40625 48.484375 
Q 26.265625 48.484375 22.1875 42.84375 
Q 18.109375 37.203125 18.109375 27.296875 
Q 18.109375 17.390625 22.1875 11.75 
Q 26.265625 6.109375 33.40625 6.109375 
Q 40.53125 6.109375 44.609375 11.75 
Q 48.6875 17.390625 48.6875 27.296875 
z
" id="DejaVuSans-112"/>
      <path d="M 48.78125 52.59375 
L 48.78125 44.1875 
Q 44.96875 46.296875 41.140625 47.34375 
Q 37.3125 48.390625 33.40625 48.390625 
Q 24.65625 48.390625 19.8125 42.84375 
Q 14.984375 37.3125 14.984375 27.296875 
Q 14.984375 17.28125 19.8125 11.734375 
Q 24.65625 6.203125 33.40625 6.203125 
Q 37.3125 6.203125 41.140625 7.25 
Q 44.96875 8.296875 48.78125 10.40625 
L 48.78125 2.09375 
Q 45.015625 0.34375 40.984375 -0.53125 
Q 36.96875 -1.421875 32.421875 -1.421875 
Q 20.0625 -1.421875 12.78125 6.34375 
Q 5.515625 14.109375 5.515625 27.296875 
Q 5.515625 40.671875 12.859375 48.328125 
Q 20.21875 56 33.015625 56 
Q 37.15625 56 41.109375 55.140625 
Q 45.0625 54.296875 48.78125 52.59375 
z
" id="DejaVuSans-99"/>
      <path d="M 41.109375 46.296875 
Q 39.59375 47.171875 37.8125 47.578125 
Q 36.03125 48 33.890625 48 
Q 26.265625 48 22.1875 43.046875 
Q 18.109375 38.09375 18.109375 28.8125 
L 18.109375 0 
L 9.078125 0 
L 9.078125 54.6875 
L 18.109375 54.6875 
L 18.109375 46.1875 
Q 20.953125 51.171875 25.484375 53.578125 
Q 30.03125 56 36.53125 56 
Q 37.453125 56 38.578125 55.875 
Q 39.703125 55.765625 41.0625 55.515625 
z
" id="DejaVuSans-114"/>
      <path d="M 31 75.875 
Q 24.46875 64.65625 21.28125 53.65625 
Q 18.109375 42.671875 18.109375 31.390625 
Q 18.109375 20.125 21.3125 9.0625 
Q 24.515625 -2 31 -13.1875 
L 23.1875 -13.1875 
Q 15.875 -1.703125 12.234375 9.375 
Q 8.59375 20.453125 8.59375 31.390625 
Q 8.59375 42.28125 12.203125 53.3125 
Q 15.828125 64.359375 23.1875 75.875 
z
" id="DejaVuSans-40"/>
      <path d="M 30.609375 48.390625 
Q 23.390625 48.390625 19.1875 42.75 
Q 14.984375 37.109375 14.984375 27.296875 
Q 14.984375 17.484375 19.15625 11.84375 
Q 23.34375 6.203125 30.609375 6.203125 
Q 37.796875 6.203125 41.984375 11.859375 
Q 46.1875 17.53125 46.1875 27.296875 
Q 46.1875 37.015625 41.984375 42.703125 
Q 37.796875 48.390625 30.609375 48.390625 
z
M 30.609375 56 
Q 42.328125 56 49.015625 48.375 
Q 55.71875 40.765625 55.71875 27.296875 
Q 55.71875 13.875 49.015625 6.21875 
Q 42.328125 -1.421875 30.609375 -1.421875 
Q 18.84375 -1.421875 12.171875 6.21875 
Q 5.515625 13.875 5.515625 27.296875 
Q 5.515625 40.765625 12.171875 48.375 
Q 18.84375 56 30.609375 56 
z
" id="DejaVuSans-111"/>
      <path d="M 54.890625 33.015625 
L 54.890625 0 
L 45.90625 0 
L 45.90625 32.71875 
Q 45.90625 40.484375 42.875 44.328125 
Q 39.84375 48.1875 33.796875 48.1875 
Q 26.515625 48.1875 22.3125 43.546875 
Q 18.109375 38.921875 18.109375 30.90625 
L 18.109375 0 
L 9.078125 0 
L 9.078125 75.984375 
L 18.109375 75.984375 
L 18.109375 46.1875 
Q 21.34375 51.125 25.703125 53.5625 
Q 30.078125 56 35.796875 56 
Q 45.21875 56 50.046875 50.171875 
Q 54.890625 44.34375 54.890625 33.015625 
z
" id="DejaVuSans-104"/>
      <path d="M 34.28125 27.484375 
Q 23.390625 27.484375 19.1875 25 
Q 14.984375 22.515625 14.984375 16.5 
Q 14.984375 11.71875 18.140625 8.90625 
Q 21.296875 6.109375 26.703125 6.109375 
Q 34.1875 6.109375 38.703125 11.40625 
Q 43.21875 16.703125 43.21875 25.484375 
L 43.21875 27.484375 
z
M 52.203125 31.203125 
L 52.203125 0 
L 43.21875 0 
L 43.21875 8.296875 
Q 40.140625 3.328125 35.546875 0.953125 
Q 30.953125 -1.421875 24.3125 -1.421875 
Q 15.921875 -1.421875 10.953125 3.296875 
Q 6 8.015625 6 15.921875 
Q 6 25.140625 12.171875 29.828125 
Q 18.359375 34.515625 30.609375 34.515625 
L 43.21875 34.515625 
L 43.21875 35.40625 
Q 43.21875 41.609375 39.140625 45 
Q 35.0625 48.390625 27.6875 48.390625 
Q 23 48.390625 18.546875 47.265625 
Q 14.109375 46.140625 10.015625 43.890625 
L 10.015625 52.203125 
Q 14.9375 54.109375 19.578125 55.046875 
Q 24.21875 56 28.609375 56 
Q 40.484375 56 46.34375 49.84375 
Q 52.203125 43.703125 52.203125 31.203125 
z
" id="DejaVuSans-97"/>
      <path d="M 48.6875 27.296875 
Q 48.6875 37.203125 44.609375 42.84375 
Q 40.53125 48.484375 33.40625 48.484375 
Q 26.265625 48.484375 22.1875 42.84375 
Q 18.109375 37.203125 18.109375 27.296875 
Q 18.109375 17.390625 22.1875 11.75 
Q 26.265625 6.109375 33.40625 6.109375 
Q 40.53125 6.109375 44.609375 11.75 
Q 48.6875 17.390625 48.6875 27.296875 
z
M 18.109375 46.390625 
Q 20.953125 51.265625 25.265625 53.625 
Q 29.59375 56 35.59375 56 
Q 45.5625 56 51.78125 48.09375 
Q 58.015625 40.1875 58.015625 27.296875 
Q 58.015625 14.40625 51.78125 6.484375 
Q 45.5625 -1.421875 35.59375 -1.421875 
Q 29.59375 -1.421875 25.265625 0.953125 
Q 20.953125 3.328125 18.109375 8.203125 
L 18.109375 0 
L 9.078125 0 
L 9.078125 75.984375 
L 18.109375 75.984375 
z
" id="DejaVuSans-98"/>
      <path d="M 10.6875 12.40625 
L 21 12.40625 
L 21 0 
L 10.6875 0 
z
" id="DejaVuSans-46"/>
      <path d="M 8.015625 75.875 
L 15.828125 75.875 
Q 23.140625 64.359375 26.78125 53.3125 
Q 30.421875 42.28125 30.421875 31.390625 
Q 30.421875 20.453125 26.78125 9.375 
Q 23.140625 -1.703125 15.828125 -13.1875 
L 8.015625 -13.1875 
Q 14.5 -2 17.703125 9.0625 
Q 20.90625 20.125 20.90625 31.390625 
Q 20.90625 42.671875 17.703125 53.65625 
Q 14.5 64.65625 8.015625 75.875 
z
" id="DejaVuSans-41"/>
      <path d="M 8.5 21.578125 
L 8.5 54.6875 
L 17.484375 54.6875 
L 17.484375 21.921875 
Q 17.484375 14.15625 20.5 10.265625 
Q 23.53125 6.390625 29.59375 6.390625 
Q 36.859375 6.390625 41.078125 11.03125 
Q 45.3125 15.671875 45.3125 23.6875 
L 45.3125 54.6875 
L 54.296875 54.6875 
L 54.296875 0 
L 45.3125 0 
L 45.3125 8.40625 
Q 42.046875 3.421875 37.71875 1 
Q 33.40625 -1.421875 27.6875 -1.421875 
Q 18.265625 -1.421875 13.375 4.4375 
Q 8.5 10.296875 8.5 21.578125 
z
M 31.109375 56 
z
" id="DejaVuSans-117"/>
      <path d="M 52 44.1875 
Q 55.375 50.25 60.0625 53.125 
Q 64.75 56 71.09375 56 
Q 79.640625 56 84.28125 50.015625 
Q 88.921875 44.046875 88.921875 33.015625 
L 88.921875 0 
L 79.890625 0 
L 79.890625 32.71875 
Q 79.890625 40.578125 77.09375 44.375 
Q 74.3125 48.1875 68.609375 48.1875 
Q 61.625 48.1875 57.5625 43.546875 
Q 53.515625 38.921875 53.515625 30.90625 
L 53.515625 0 
L 44.484375 0 
L 44.484375 32.71875 
Q 44.484375 40.625 41.703125 44.40625 
Q 38.921875 48.1875 33.109375 48.1875 
Q 26.21875 48.1875 22.15625 43.53125 
Q 18.109375 38.875 18.109375 30.90625 
L 18.109375 0 
L 9.078125 0 
L 9.078125 54.6875 
L 18.109375 54.6875 
L 18.109375 46.1875 
Q 21.1875 51.21875 25.484375 53.609375 
Q 29.78125 56 35.6875 56 
Q 41.65625 56 45.828125 52.96875 
Q 50 49.953125 52 44.1875 
z
" id="DejaVuSans-109"/>
      <path d="M 9.421875 75.984375 
L 18.40625 75.984375 
L 18.40625 0 
L 9.421875 0 
z
" id="DejaVuSans-108"/>
      <path d="M 45.40625 46.390625 
L 45.40625 75.984375 
L 54.390625 75.984375 
L 54.390625 0 
L 45.40625 0 
L 45.40625 8.203125 
Q 42.578125 3.328125 38.25 0.953125 
Q 33.9375 -1.421875 27.875 -1.421875 
Q 17.96875 -1.421875 11.734375 6.484375 
Q 5.515625 14.40625 5.515625 27.296875 
Q 5.515625 40.1875 11.734375 48.09375 
Q 17.96875 56 27.875 56 
Q 33.9375 56 38.25 53.625 
Q 42.578125 51.265625 45.40625 46.390625 
z
M 14.796875 27.296875 
Q 14.796875 17.390625 18.875 11.75 
Q 22.953125 6.109375 30.078125 6.109375 
Q 37.203125 6.109375 41.296875 11.75 
Q 45.40625 17.390625 45.40625 27.296875 
Q 45.40625 37.203125 41.296875 42.84375 
Q 37.203125 48.484375 30.078125 48.484375 
Q 22.953125 48.484375 18.875 42.84375 
Q 14.796875 37.203125 14.796875 27.296875 
z
" id="DejaVuSans-100"/>
      <path d="M 44.28125 53.078125 
L 44.28125 44.578125 
Q 40.484375 46.53125 36.375 47.5 
Q 32.28125 48.484375 27.875 48.484375 
Q 21.1875 48.484375 17.84375 46.4375 
Q 14.5 44.390625 14.5 40.28125 
Q 14.5 37.15625 16.890625 35.375 
Q 19.28125 33.59375 26.515625 31.984375 
L 29.59375 31.296875 
Q 39.15625 29.25 43.1875 25.515625 
Q 47.21875 21.78125 47.21875 15.09375 
Q 47.21875 7.46875 41.1875 3.015625 
Q 35.15625 -1.421875 24.609375 -1.421875 
Q 20.21875 -1.421875 15.453125 -0.5625 
Q 10.6875 0.296875 5.421875 2 
L 5.421875 11.28125 
Q 10.40625 8.6875 15.234375 7.390625 
Q 20.0625 6.109375 24.8125 6.109375 
Q 31.15625 6.109375 34.5625 8.28125 
Q 37.984375 10.453125 37.984375 14.40625 
Q 37.984375 18.0625 35.515625 20.015625 
Q 33.0625 21.96875 24.703125 23.78125 
L 21.578125 24.515625 
Q 13.234375 26.265625 9.515625 29.90625 
Q 5.8125 33.546875 5.8125 39.890625 
Q 5.8125 47.609375 11.28125 51.796875 
Q 16.75 56 26.8125 56 
Q 31.78125 56 36.171875 55.265625 
Q 40.578125 54.546875 44.28125 53.078125 
z
" id="DejaVuSans-115"/>
     </defs>
     <g transform="translate(18.398438 240.753946)rotate(-90)scale(0.1 -0.1)">
      <use xlink:href="#DejaVuSans-86"/>
      <use x="68.408203" xlink:href="#DejaVuSans-67"/>
      <use x="138.232422" xlink:href="#DejaVuSans-32"/>
      <use x="170.019531" xlink:href="#DejaVuSans-112"/>
      <use x="233.496094" xlink:href="#DejaVuSans-99"/>
      <use x="288.476562" xlink:href="#DejaVuSans-114"/>
      <use x="329.589844" xlink:href="#DejaVuSans-32"/>
      <use x="361.376953" xlink:href="#DejaVuSans-40"/>
      <use x="400.390625" xlink:href="#DejaVuSans-112"/>
      <use x="463.867188" xlink:href="#DejaVuSans-111"/>
      <use x="525.048828" xlink:href="#DejaVuSans-114"/>
      <use x="566.162109" xlink:href="#DejaVuSans-32"/>
      <use x="597.949219" xlink:href="#DejaVuSans-49"/>
      <use x="661.572266" xlink:href="#DejaVuSans-48"/>
      <use x="725.195312" xlink:href="#DejaVuSans-48"/>
      <use x="788.818359" xlink:href="#DejaVuSans-48"/>
      <use x="852.441406" xlink:href="#DejaVuSans-48"/>
      <use x="916.064453" xlink:href="#DejaVuSans-48"/>
      <use x="979.6875" xlink:href="#DejaVuSans-32"/>
      <use x="1011.474609" xlink:href="#DejaVuSans-104"/>
      <use x="1074.853516" xlink:href="#DejaVuSans-97"/>
      <use x="1136.132812" xlink:href="#DejaVuSans-98"/>
      <use x="1199.609375" xlink:href="#DejaVuSans-46"/>
      <use x="1231.396484" xlink:href="#DejaVuSans-41"/>
      <use x="1270.410156" xlink:href="#DejaVuSans-32"/>
      <use x="1302.197266" xlink:href="#DejaVuSans-97"/>
      <use x="1363.476562" xlink:href="#DejaVuSans-99"/>
      <use x="1418.457031" xlink:href="#DejaVuSans-117"/>
      <use x="1481.835938" xlink:href="#DejaVuSans-109"/>
      <use x="1579.248047" xlink:href="#DejaVuSans-117"/>
      <use x="1642.626953" xlink:href="#DejaVuSans-108"/>
      <use x="1670.410156" xlink:href="#DejaVuSans-97"/>
      <use x="1731.689453" xlink:href="#DejaVuSans-100"/>
      <use x="1795.166016" xlink:href="#DejaVuSans-111"/>
      <use x="1856.347656" xlink:href="#DejaVuSans-115"/>
     </g>
    </g>
   </g>
   <g id="line2d_12">
    <path clip-path="url(#p43bfe695f1)" d="M 68.192302 279.86258 
L 72.439694 279.86258 
L 76.687086 279.86258 
L 80.934478 279.86258 
L 85.18187 279.838881 
L 89.429262 279.815183 
L 93.676654 279.672993 
L 97.924046 279.625596 
L 102.171438 279.507105 
L 106.41883 279.507105 
L 110.666222 279.507105 
L 114.913614 279.412311 
L 119.161006 279.412311 
L 123.408398 279.15163 
L 127.65579 279.15163 
L 131.903182 278.985741 
L 136.150574 278.985741 
L 140.397966 278.677663 
L 144.645358 278.322188 
L 148.89275 278.061506 
L 153.140142 277.634936 
L 157.387534 276.781796 
L 161.634926 270.169961 
L 165.882318 270.169961 
L 170.12971 267.041781 
L 174.377102 262.65759 
L 178.624494 258.036415 
L 182.871886 253.675922 
L 187.119278 247.561752 
L 191.366671 241.850453 
L 195.614063 234.812048 
L 199.861455 228.508292 
L 204.108847 217.86774 
L 208.356239 204.027914 
L 212.603631 196.160067 
L 216.851023 184.263504 
L 221.098415 166.489754 
L 225.345807 158.764097 
L 229.593199 149.332161 
L 233.840591 139.521051 
L 238.087983 130.373494 
L 242.335375 122.884821 
L 246.582767 116.320383 
L 250.830159 109.613755 
L 255.077551 106.059005 
L 259.324943 103.475886 
L 263.572335 98.45184 
L 267.819727 91.129055 
L 272.067119 82.431767 
L 276.314511 76.578278 
L 280.561903 70.345617 
L 284.809295 65.155682 
L 289.056687 61.529837 
L 293.304079 56.529488 
L 297.551471 52.003107 
L 301.798863 55.060192 
L 306.046255 52.737755 
L 310.293647 51.007777 
L 314.541039 49.799162 
L 318.788431 48.803832 
L 323.035823 47.026457 
L 327.283215 45.98373 
L 331.530607 44.324847 
L 335.777999 41.315159 
L 340.025391 39.087515 
L 344.272783 38.613549 
L 348.520175 38.044789 
L 352.767567 37.286442 
L 357.014959 35.0351 
L 361.262351 34.655927 
L 365.509743 33.139234 
L 369.757135 32.546775 
L 374.004527 32.546775 
L 378.251919 31.030082 
L 382.499311 30.153244 
L 386.746703 28.849835 
L 390.994096 28.20998 
L 395.241488 27.21465 
L 399.48888 25.982337 
L 403.736272 25.603164 
L 407.983664 25.342482 
L 412.231056 24.868515 
L 416.478448 24.299755 
L 420.72584 23.612504 
" style="fill:none;stroke:#1f77b4;stroke-linecap:square;stroke-width:1.5;"/>
    <defs>
     <path d="M 0 1.5 
C 0.397805 1.5 0.77937 1.341951 1.06066 1.06066 
C 1.341951 0.77937 1.5 0.397805 1.5 0 
C 1.5 -0.397805 1.341951 -0.77937 1.06066 -1.06066 
C 0.77937 -1.341951 0.397805 -1.5 0 -1.5 
C -0.397805 -1.5 -0.77937 -1.341951 -1.06066 -1.06066 
C -1.341951 -0.77937 -1.5 -0.397805 -1.5 0 
C -1.5 0.397805 -1.341951 0.77937 -1.06066 1.06066 
C -0.77937 1.341951 -0.397805 1.5 0 1.5 
z
" id="m3a90db8b83" style="stroke:#1f77b4;"/>
    </defs>
    <g clip-path="url(#p43bfe695f1)">
     <use style="fill:#1f77b4;stroke:#1f77b4;" x="68.192302" xlink:href="#m3a90db8b83" y="279.86258"/>
     <use style="fill:#1f77b4;stroke:#1f77b4;" x="72.439694" xlink:href="#m3a90db8b83" y="279.86258"/>
     <use style="fill:#1f77b4;stroke:#1f77b4;" x="76.687086" xlink:href="#m3a90db8b83" y="279.86258"/>
     <use style="fill:#1f77b4;stroke:#1f77b4;" x="80.934478" xlink:href="#m3a90db8b83" y="279.86258"/>
     <use style="fill:#1f77b4;stroke:#1f77b4;" x="85.18187" xlink:href="#m3a90db8b83" y="279.838881"/>
     <use style="fill:#1f77b4;stroke:#1f77b4;" x="89.429262" xlink:href="#m3a90db8b83" y="279.815183"/>
     <use style="fill:#1f77b4;stroke:#1f77b4;" x="93.676654" xlink:href="#m3a90db8b83" y="279.672993"/>
     <use style="fill:#1f77b4;stroke:#1f77b4;" x="97.924046" xlink:href="#m3a90db8b83" y="279.625596"/>
     <use style="fill:#1f77b4;stroke:#1f77b4;" x="102.171438" xlink:href="#m3a90db8b83" y="279.507105"/>
     <use style="fill:#1f77b4;stroke:#1f77b4;" x="106.41883" xlink:href="#m3a90db8b83" y="279.507105"/>
     <use style="fill:#1f77b4;stroke:#1f77b4;" x="110.666222" xlink:href="#m3a90db8b83" y="279.507105"/>
     <use style="fill:#1f77b4;stroke:#1f77b4;" x="114.913614" xlink:href="#m3a90db8b83" y="279.412311"/>
     <use style="fill:#1f77b4;stroke:#1f77b4;" x="119.161006" xlink:href="#m3a90db8b83" y="279.412311"/>
     <use style="fill:#1f77b4;stroke:#1f77b4;" x="123.408398" xlink:href="#m3a90db8b83" y="279.15163"/>
     <use style="fill:#1f77b4;stroke:#1f77b4;" x="127.65579" xlink:href="#m3a90db8b83" y="279.15163"/>
     <use style="fill:#1f77b4;stroke:#1f77b4;" x="131.903182" xlink:href="#m3a90db8b83" y="278.985741"/>
     <use style="fill:#1f77b4;stroke:#1f77b4;" x="136.150574" xlink:href="#m3a90db8b83" y="278.985741"/>
     <use style="fill:#1f77b4;stroke:#1f77b4;" x="140.397966" xlink:href="#m3a90db8b83" y="278.677663"/>
     <use style="fill:#1f77b4;stroke:#1f77b4;" x="144.645358" xlink:href="#m3a90db8b83" y="278.322188"/>
     <use style="fill:#1f77b4;stroke:#1f77b4;" x="148.89275" xlink:href="#m3a90db8b83" y="278.061506"/>
     <use style="fill:#1f77b4;stroke:#1f77b4;" x="153.140142" xlink:href="#m3a90db8b83" y="277.634936"/>
     <use style="fill:#1f77b4;stroke:#1f77b4;" x="157.387534" xlink:href="#m3a90db8b83" y="276.781796"/>
     <use style="fill:#1f77b4;stroke:#1f77b4;" x="161.634926" xlink:href="#m3a90db8b83" y="270.169961"/>
     <use style="fill:#1f77b4;stroke:#1f77b4;" x="165.882318" xlink:href="#m3a90db8b83" y="270.169961"/>
     <use style="fill:#1f77b4;stroke:#1f77b4;" x="170.12971" xlink:href="#m3a90db8b83" y="267.041781"/>
     <use style="fill:#1f77b4;stroke:#1f77b4;" x="174.377102" xlink:href="#m3a90db8b83" y="262.65759"/>
     <use style="fill:#1f77b4;stroke:#1f77b4;" x="178.624494" xlink:href="#m3a90db8b83" y="258.036415"/>
     <use style="fill:#1f77b4;stroke:#1f77b4;" x="182.871886" xlink:href="#m3a90db8b83" y="253.675922"/>
     <use style="fill:#1f77b4;stroke:#1f77b4;" x="187.119278" xlink:href="#m3a90db8b83" y="247.561752"/>
     <use style="fill:#1f77b4;stroke:#1f77b4;" x="191.366671" xlink:href="#m3a90db8b83" y="241.850453"/>
     <use style="fill:#1f77b4;stroke:#1f77b4;" x="195.614063" xlink:href="#m3a90db8b83" y="234.812048"/>
     <use style="fill:#1f77b4;stroke:#1f77b4;" x="199.861455" xlink:href="#m3a90db8b83" y="228.508292"/>
     <use style="fill:#1f77b4;stroke:#1f77b4;" x="204.108847" xlink:href="#m3a90db8b83" y="217.86774"/>
     <use style="fill:#1f77b4;stroke:#1f77b4;" x="208.356239" xlink:href="#m3a90db8b83" y="204.027914"/>
     <use style="fill:#1f77b4;stroke:#1f77b4;" x="212.603631" xlink:href="#m3a90db8b83" y="196.160067"/>
     <use style="fill:#1f77b4;stroke:#1f77b4;" x="216.851023" xlink:href="#m3a90db8b83" y="184.263504"/>
     <use style="fill:#1f77b4;stroke:#1f77b4;" x="221.098415" xlink:href="#m3a90db8b83" y="166.489754"/>
     <use style="fill:#1f77b4;stroke:#1f77b4;" x="225.345807" xlink:href="#m3a90db8b83" y="158.764097"/>
     <use style="fill:#1f77b4;stroke:#1f77b4;" x="229.593199" xlink:href="#m3a90db8b83" y="149.332161"/>
     <use style="fill:#1f77b4;stroke:#1f77b4;" x="233.840591" xlink:href="#m3a90db8b83" y="139.521051"/>
     <use style="fill:#1f77b4;stroke:#1f77b4;" x="238.087983" xlink:href="#m3a90db8b83" y="130.373494"/>
     <use style="fill:#1f77b4;stroke:#1f77b4;" x="242.335375" xlink:href="#m3a90db8b83" y="122.884821"/>
     <use style="fill:#1f77b4;stroke:#1f77b4;" x="246.582767" xlink:href="#m3a90db8b83" y="116.320383"/>
     <use style="fill:#1f77b4;stroke:#1f77b4;" x="250.830159" xlink:href="#m3a90db8b83" y="109.613755"/>
     <use style="fill:#1f77b4;stroke:#1f77b4;" x="255.077551" xlink:href="#m3a90db8b83" y="106.059005"/>
     <use style="fill:#1f77b4;stroke:#1f77b4;" x="259.324943" xlink:href="#m3a90db8b83" y="103.475886"/>
     <use style="fill:#1f77b4;stroke:#1f77b4;" x="263.572335" xlink:href="#m3a90db8b83" y="98.45184"/>
     <use style="fill:#1f77b4;stroke:#1f77b4;" x="267.819727" xlink:href="#m3a90db8b83" y="91.129055"/>
     <use style="fill:#1f77b4;stroke:#1f77b4;" x="272.067119" xlink:href="#m3a90db8b83" y="82.431767"/>
     <use style="fill:#1f77b4;stroke:#1f77b4;" x="276.314511" xlink:href="#m3a90db8b83" y="76.578278"/>
     <use style="fill:#1f77b4;stroke:#1f77b4;" x="280.561903" xlink:href="#m3a90db8b83" y="70.345617"/>
     <use style="fill:#1f77b4;stroke:#1f77b4;" x="284.809295" xlink:href="#m3a90db8b83" y="65.155682"/>
     <use style="fill:#1f77b4;stroke:#1f77b4;" x="289.056687" xlink:href="#m3a90db8b83" y="61.529837"/>
     <use style="fill:#1f77b4;stroke:#1f77b4;" x="293.304079" xlink:href="#m3a90db8b83" y="56.529488"/>
     <use style="fill:#1f77b4;stroke:#1f77b4;" x="297.551471" xlink:href="#m3a90db8b83" y="52.003107"/>
     <use style="fill:#1f77b4;stroke:#1f77b4;" x="301.798863" xlink:href="#m3a90db8b83" y="55.060192"/>
     <use style="fill:#1f77b4;stroke:#1f77b4;" x="306.046255" xlink:href="#m3a90db8b83" y="52.737755"/>
     <use style="fill:#1f77b4;stroke:#1f77b4;" x="310.293647" xlink:href="#m3a90db8b83" y="51.007777"/>
     <use style="fill:#1f77b4;stroke:#1f77b4;" x="314.541039" xlink:href="#m3a90db8b83" y="49.799162"/>
     <use style="fill:#1f77b4;stroke:#1f77b4;" x="318.788431" xlink:href="#m3a90db8b83" y="48.803832"/>
     <use style="fill:#1f77b4;stroke:#1f77b4;" x="323.035823" xlink:href="#m3a90db8b83" y="47.026457"/>
     <use style="fill:#1f77b4;stroke:#1f77b4;" x="327.283215" xlink:href="#m3a90db8b83" y="45.98373"/>
     <use style="fill:#1f77b4;stroke:#1f77b4;" x="331.530607" xlink:href="#m3a90db8b83" y="44.324847"/>
     <use style="fill:#1f77b4;stroke:#1f77b4;" x="335.777999" xlink:href="#m3a90db8b83" y="41.315159"/>
     <use style="fill:#1f77b4;stroke:#1f77b4;" x="340.025391" xlink:href="#m3a90db8b83" y="39.087515"/>
     <use style="fill:#1f77b4;stroke:#1f77b4;" x="344.272783" xlink:href="#m3a90db8b83" y="38.613549"/>
     <use style="fill:#1f77b4;stroke:#1f77b4;" x="348.520175" xlink:href="#m3a90db8b83" y="38.044789"/>
     <use style="fill:#1f77b4;stroke:#1f77b4;" x="352.767567" xlink:href="#m3a90db8b83" y="37.286442"/>
     <use style="fill:#1f77b4;stroke:#1f77b4;" x="357.014959" xlink:href="#m3a90db8b83" y="35.0351"/>
     <use style="fill:#1f77b4;stroke:#1f77b4;" x="361.262351" xlink:href="#m3a90db8b83" y="34.655927"/>
     <use style="fill:#1f77b4;stroke:#1f77b4;" x="365.509743" xlink:href="#m3a90db8b83" y="33.139234"/>
     <use style="fill:#1f77b4;stroke:#1f77b4;" x="369.757135" xlink:href="#m3a90db8b83" y="32.546775"/>
     <use style="fill:#1f77b4;stroke:#1f77b4;" x="374.004527" xlink:href="#m3a90db8b83" y="32.546775"/>
     <use style="fill:#1f77b4;stroke:#1f77b4;" x="378.251919" xlink:href="#m3a90db8b83" y="31.030082"/>
     <use style="fill:#1f77b4;stroke:#1f77b4;" x="382.499311" xlink:href="#m3a90db8b83" y="30.153244"/>
     <use style="fill:#1f77b4;stroke:#1f77b4;" x="386.746703" xlink:href="#m3a90db8b83" y="28.849835"/>
     <use style="fill:#1f77b4;stroke:#1f77b4;" x="390.994096" xlink:href="#m3a90db8b83" y="28.20998"/>
     <use style="fill:#1f77b4;stroke:#1f77b4;" x="395.241488" xlink:href="#m3a90db8b83" y="27.21465"/>
     <use style="fill:#1f77b4;stroke:#1f77b4;" x="399.48888" xlink:href="#m3a90db8b83" y="25.982337"/>
     <use style="fill:#1f77b4;stroke:#1f77b4;" x="403.736272" xlink:href="#m3a90db8b83" y="25.603164"/>
     <use style="fill:#1f77b4;stroke:#1f77b4;" x="407.983664" xlink:href="#m3a90db8b83" y="25.342482"/>
     <use style="fill:#1f77b4;stroke:#1f77b4;" x="412.231056" xlink:href="#m3a90db8b83" y="24.868515"/>
     <use style="fill:#1f77b4;stroke:#1f77b4;" x="416.478448" xlink:href="#m3a90db8b83" y="24.299755"/>
     <use style="fill:#1f77b4;stroke:#1f77b4;" x="420.72584" xlink:href="#m3a90db8b83" y="23.612504"/>
    </g>
   </g>
   <g id="patch_3">
    <path d="M 50.565625 279.86258 
L 50.565625 10.8 
" style="fill:none;stroke:#000000;stroke-linecap:square;stroke-linejoin:miter;stroke-width:0.8;"/>
   </g>
   <g id="patch_4">
    <path d="M 438.352517 279.86258 
L 438.352517 10.8 
" style="fill:none;stroke:#000000;stroke-linecap:square;stroke-linejoin:miter;stroke-width:0.8;"/>
   </g>
   <g id="patch_5">
    <path d="M 50.565625 279.86258 
L 438.352517 279.86258 
" style="fill:none;stroke:#000000;stroke-linecap:square;stroke-linejoin:miter;stroke-width:0.8;"/>
   </g>
   <g id="patch_6">
    <path d="M 50.565625 10.8 
L 438.352517 10.8 
" style="fill:none;stroke:#000000;stroke-linecap:square;stroke-linejoin:miter;stroke-width:0.8;"/>
   </g>
  </g>
 </g>
 <defs>
  <clipPath id="p43bfe695f1">
   <rect height="269.06258" width="387.786892" x="50.565625" y="10.8"/>
  </clipPath>
 </defs>
</svg>
