<?xml version="1.0" encoding="utf-8" standalone="no"?>
<!DOCTYPE svg PUBLIC "-//W3C//DTD SVG 1.1//EN"
  "http://www.w3.org/Graphics/SVG/1.1/DTD/svg11.dtd">
<!-- Created with matplotlib (https://matplotlib.org/) -->
<svg height="345.6pt" version="1.1" viewBox="0 0 460.8 345.6" width="460.8pt" xmlns="http://www.w3.org/2000/svg" xmlns:xlink="http://www.w3.org/1999/xlink">
 <defs>
  <style type="text/css">
*{stroke-linecap:butt;stroke-linejoin:round;}
  </style>
 </defs>
 <g id="figure_1">
  <g id="patch_1">
   <path d="M 0 345.6 
L 460.8 345.6 
L 460.8 0 
L 0 0 
z
" style="fill:#ffffff;"/>
  </g>
  <g id="axes_1">
   <g id="patch_2">
    <path d="M 47.38125 279.86258 
L 450 279.86258 
L 450 10.8 
L 47.38125 10.8 
z
" style="fill:#ffffff;"/>
   </g>
   <g id="matplotlib.axis_1">
    <g id="xtick_1">
     <g id="line2d_1">
      <defs>
       <path d="M 0 0 
L 0 3.5 
" id="m926ac2715a" style="stroke:#000000;stroke-width:0.8;"/>
      </defs>
      <g>
       <use style="stroke:#000000;stroke-width:0.8;" x="102.283807" xlink:href="#m926ac2715a" y="279.86258"/>
      </g>
     </g>
     <g id="text_1">
      <!-- 2020-03-15 -->
      <defs>
       <path d="M 19.1875 8.296875 
L 53.609375 8.296875 
L 53.609375 0 
L 7.328125 0 
L 7.328125 8.296875 
Q 12.9375 14.109375 22.625 23.890625 
Q 32.328125 33.6875 34.8125 36.53125 
Q 39.546875 41.84375 41.421875 45.53125 
Q 43.3125 49.21875 43.3125 52.78125 
Q 43.3125 58.59375 39.234375 62.25 
Q 35.15625 65.921875 28.609375 65.921875 
Q 23.96875 65.921875 18.8125 64.3125 
Q 13.671875 62.703125 7.8125 59.421875 
L 7.8125 69.390625 
Q 13.765625 71.78125 18.9375 73 
Q 24.125 74.21875 28.421875 74.21875 
Q 39.75 74.21875 46.484375 68.546875 
Q 53.21875 62.890625 53.21875 53.421875 
Q 53.21875 48.921875 51.53125 44.890625 
Q 49.859375 40.875 45.40625 35.40625 
Q 44.1875 33.984375 37.640625 27.21875 
Q 31.109375 20.453125 19.1875 8.296875 
z
" id="DejaVuSans-50"/>
       <path d="M 31.78125 66.40625 
Q 24.171875 66.40625 20.328125 58.90625 
Q 16.5 51.421875 16.5 36.375 
Q 16.5 21.390625 20.328125 13.890625 
Q 24.171875 6.390625 31.78125 6.390625 
Q 39.453125 6.390625 43.28125 13.890625 
Q 47.125 21.390625 47.125 36.375 
Q 47.125 51.421875 43.28125 58.90625 
Q 39.453125 66.40625 31.78125 66.40625 
z
M 31.78125 74.21875 
Q 44.046875 74.21875 50.515625 64.515625 
Q 56.984375 54.828125 56.984375 36.375 
Q 56.984375 17.96875 50.515625 8.265625 
Q 44.046875 -1.421875 31.78125 -1.421875 
Q 19.53125 -1.421875 13.0625 8.265625 
Q 6.59375 17.96875 6.59375 36.375 
Q 6.59375 54.828125 13.0625 64.515625 
Q 19.53125 74.21875 31.78125 74.21875 
z
" id="DejaVuSans-48"/>
       <path d="M 4.890625 31.390625 
L 31.203125 31.390625 
L 31.203125 23.390625 
L 4.890625 23.390625 
z
" id="DejaVuSans-45"/>
       <path d="M 40.578125 39.3125 
Q 47.65625 37.796875 51.625 33 
Q 55.609375 28.21875 55.609375 21.1875 
Q 55.609375 10.40625 48.1875 4.484375 
Q 40.765625 -1.421875 27.09375 -1.421875 
Q 22.515625 -1.421875 17.65625 -0.515625 
Q 12.796875 0.390625 7.625 2.203125 
L 7.625 11.71875 
Q 11.71875 9.328125 16.59375 8.109375 
Q 21.484375 6.890625 26.8125 6.890625 
Q 36.078125 6.890625 40.9375 10.546875 
Q 45.796875 14.203125 45.796875 21.1875 
Q 45.796875 27.640625 41.28125 31.265625 
Q 36.765625 34.90625 28.71875 34.90625 
L 20.21875 34.90625 
L 20.21875 43.015625 
L 29.109375 43.015625 
Q 36.375 43.015625 40.234375 45.921875 
Q 44.09375 48.828125 44.09375 54.296875 
Q 44.09375 59.90625 40.109375 62.90625 
Q 36.140625 65.921875 28.71875 65.921875 
Q 24.65625 65.921875 20.015625 65.03125 
Q 15.375 64.15625 9.8125 62.3125 
L 9.8125 71.09375 
Q 15.4375 72.65625 20.34375 73.4375 
Q 25.25 74.21875 29.59375 74.21875 
Q 40.828125 74.21875 47.359375 69.109375 
Q 53.90625 64.015625 53.90625 55.328125 
Q 53.90625 49.265625 50.4375 45.09375 
Q 46.96875 40.921875 40.578125 39.3125 
z
" id="DejaVuSans-51"/>
       <path d="M 12.40625 8.296875 
L 28.515625 8.296875 
L 28.515625 63.921875 
L 10.984375 60.40625 
L 10.984375 69.390625 
L 28.421875 72.90625 
L 38.28125 72.90625 
L 38.28125 8.296875 
L 54.390625 8.296875 
L 54.390625 0 
L 12.40625 0 
z
" id="DejaVuSans-49"/>
       <path d="M 10.796875 72.90625 
L 49.515625 72.90625 
L 49.515625 64.59375 
L 19.828125 64.59375 
L 19.828125 46.734375 
Q 21.96875 47.46875 24.109375 47.828125 
Q 26.265625 48.1875 28.421875 48.1875 
Q 40.625 48.1875 47.75 41.5 
Q 54.890625 34.8125 54.890625 23.390625 
Q 54.890625 11.625 47.5625 5.09375 
Q 40.234375 -1.421875 26.90625 -1.421875 
Q 22.3125 -1.421875 17.546875 -0.640625 
Q 12.796875 0.140625 7.71875 1.703125 
L 7.71875 11.625 
Q 12.109375 9.234375 16.796875 8.0625 
Q 21.484375 6.890625 26.703125 6.890625 
Q 35.15625 6.890625 40.078125 11.328125 
Q 45.015625 15.765625 45.015625 23.390625 
Q 45.015625 31 40.078125 35.4375 
Q 35.15625 39.890625 26.703125 39.890625 
Q 22.75 39.890625 18.8125 39.015625 
Q 14.890625 38.140625 10.796875 36.28125 
z
" id="DejaVuSans-53"/>
      </defs>
      <g transform="translate(83.688003 333.329439)rotate(-45)scale(0.1 -0.1)">
       <use xlink:href="#DejaVuSans-50"/>
       <use x="63.623047" xlink:href="#DejaVuSans-48"/>
       <use x="127.246094" xlink:href="#DejaVuSans-50"/>
       <use x="190.869141" xlink:href="#DejaVuSans-48"/>
       <use x="254.492188" xlink:href="#DejaVuSans-45"/>
       <use x="290.576172" xlink:href="#DejaVuSans-48"/>
       <use x="354.199219" xlink:href="#DejaVuSans-51"/>
       <use x="417.822266" xlink:href="#DejaVuSans-45"/>
       <use x="453.90625" xlink:href="#DejaVuSans-49"/>
       <use x="517.529297" xlink:href="#DejaVuSans-53"/>
      </g>
     </g>
    </g>
    <g id="xtick_2">
     <g id="line2d_2">
      <g>
       <use style="stroke:#000000;stroke-width:0.8;" x="191.173661" xlink:href="#m926ac2715a" y="279.86258"/>
      </g>
     </g>
     <g id="text_2">
      <!-- 2020-04-01 -->
      <defs>
       <path d="M 37.796875 64.3125 
L 12.890625 25.390625 
L 37.796875 25.390625 
z
M 35.203125 72.90625 
L 47.609375 72.90625 
L 47.609375 25.390625 
L 58.015625 25.390625 
L 58.015625 17.1875 
L 47.609375 17.1875 
L 47.609375 0 
L 37.796875 0 
L 37.796875 17.1875 
L 4.890625 17.1875 
L 4.890625 26.703125 
z
" id="DejaVuSans-52"/>
      </defs>
      <g transform="translate(172.577857 333.329439)rotate(-45)scale(0.1 -0.1)">
       <use xlink:href="#DejaVuSans-50"/>
       <use x="63.623047" xlink:href="#DejaVuSans-48"/>
       <use x="127.246094" xlink:href="#DejaVuSans-50"/>
       <use x="190.869141" xlink:href="#DejaVuSans-48"/>
       <use x="254.492188" xlink:href="#DejaVuSans-45"/>
       <use x="290.576172" xlink:href="#DejaVuSans-48"/>
       <use x="354.199219" xlink:href="#DejaVuSans-52"/>
       <use x="417.822266" xlink:href="#DejaVuSans-45"/>
       <use x="453.90625" xlink:href="#DejaVuSans-48"/>
       <use x="517.529297" xlink:href="#DejaVuSans-49"/>
      </g>
     </g>
    </g>
    <g id="xtick_3">
     <g id="line2d_3">
      <g>
       <use style="stroke:#000000;stroke-width:0.8;" x="264.37707" xlink:href="#m926ac2715a" y="279.86258"/>
      </g>
     </g>
     <g id="text_3">
      <!-- 2020-04-15 -->
      <g transform="translate(245.781266 333.329439)rotate(-45)scale(0.1 -0.1)">
       <use xlink:href="#DejaVuSans-50"/>
       <use x="63.623047" xlink:href="#DejaVuSans-48"/>
       <use x="127.246094" xlink:href="#DejaVuSans-50"/>
       <use x="190.869141" xlink:href="#DejaVuSans-48"/>
       <use x="254.492188" xlink:href="#DejaVuSans-45"/>
       <use x="290.576172" xlink:href="#DejaVuSans-48"/>
       <use x="354.199219" xlink:href="#DejaVuSans-52"/>
       <use x="417.822266" xlink:href="#DejaVuSans-45"/>
       <use x="453.90625" xlink:href="#DejaVuSans-49"/>
       <use x="517.529297" xlink:href="#DejaVuSans-53"/>
      </g>
     </g>
    </g>
    <g id="xtick_4">
     <g id="line2d_4">
      <g>
       <use style="stroke:#000000;stroke-width:0.8;" x="348.038109" xlink:href="#m926ac2715a" y="279.86258"/>
      </g>
     </g>
     <g id="text_4">
      <!-- 2020-05-01 -->
      <g transform="translate(329.442305 333.329439)rotate(-45)scale(0.1 -0.1)">
       <use xlink:href="#DejaVuSans-50"/>
       <use x="63.623047" xlink:href="#DejaVuSans-48"/>
       <use x="127.246094" xlink:href="#DejaVuSans-50"/>
       <use x="190.869141" xlink:href="#DejaVuSans-48"/>
       <use x="254.492188" xlink:href="#DejaVuSans-45"/>
       <use x="290.576172" xlink:href="#DejaVuSans-48"/>
       <use x="354.199219" xlink:href="#DejaVuSans-53"/>
       <use x="417.822266" xlink:href="#DejaVuSans-45"/>
       <use x="453.90625" xlink:href="#DejaVuSans-48"/>
       <use x="517.529297" xlink:href="#DejaVuSans-49"/>
      </g>
     </g>
    </g>
    <g id="xtick_5">
     <g id="line2d_5">
      <g>
       <use style="stroke:#000000;stroke-width:0.8;" x="421.241518" xlink:href="#m926ac2715a" y="279.86258"/>
      </g>
     </g>
     <g id="text_5">
      <!-- 2020-05-15 -->
      <g transform="translate(402.645714 333.329439)rotate(-45)scale(0.1 -0.1)">
       <use xlink:href="#DejaVuSans-50"/>
       <use x="63.623047" xlink:href="#DejaVuSans-48"/>
       <use x="127.246094" xlink:href="#DejaVuSans-50"/>
       <use x="190.869141" xlink:href="#DejaVuSans-48"/>
       <use x="254.492188" xlink:href="#DejaVuSans-45"/>
       <use x="290.576172" xlink:href="#DejaVuSans-48"/>
       <use x="354.199219" xlink:href="#DejaVuSans-53"/>
       <use x="417.822266" xlink:href="#DejaVuSans-45"/>
       <use x="453.90625" xlink:href="#DejaVuSans-49"/>
       <use x="517.529297" xlink:href="#DejaVuSans-53"/>
      </g>
     </g>
    </g>
   </g>
   <g id="matplotlib.axis_2">
    <g id="ytick_1">
     <g id="line2d_6">
      <defs>
       <path d="M 0 0 
L -3.5 0 
" id="mf18585d13c" style="stroke:#000000;stroke-width:0.8;"/>
      </defs>
      <g>
       <use style="stroke:#000000;stroke-width:0.8;" x="47.38125" xlink:href="#mf18585d13c" y="279.86258"/>
      </g>
     </g>
     <g id="text_6">
      <!-- 0.0 -->
      <defs>
       <path d="M 10.6875 12.40625 
L 21 12.40625 
L 21 0 
L 10.6875 0 
z
" id="DejaVuSans-46"/>
      </defs>
      <g transform="translate(24.478125 283.661798)scale(0.1 -0.1)">
       <use xlink:href="#DejaVuSans-48"/>
       <use x="63.623047" xlink:href="#DejaVuSans-46"/>
       <use x="95.410156" xlink:href="#DejaVuSans-48"/>
      </g>
     </g>
    </g>
    <g id="ytick_2">
     <g id="line2d_7">
      <g>
       <use style="stroke:#000000;stroke-width:0.8;" x="47.38125" xlink:href="#mf18585d13c" y="247.83132"/>
      </g>
     </g>
     <g id="text_7">
      <!-- 0.5 -->
      <g transform="translate(24.478125 251.630539)scale(0.1 -0.1)">
       <use xlink:href="#DejaVuSans-48"/>
       <use x="63.623047" xlink:href="#DejaVuSans-46"/>
       <use x="95.410156" xlink:href="#DejaVuSans-53"/>
      </g>
     </g>
    </g>
    <g id="ytick_3">
     <g id="line2d_8">
      <g>
       <use style="stroke:#000000;stroke-width:0.8;" x="47.38125" xlink:href="#mf18585d13c" y="215.800061"/>
      </g>
     </g>
     <g id="text_8">
      <!-- 1.0 -->
      <g transform="translate(24.478125 219.599279)scale(0.1 -0.1)">
       <use xlink:href="#DejaVuSans-49"/>
       <use x="63.623047" xlink:href="#DejaVuSans-46"/>
       <use x="95.410156" xlink:href="#DejaVuSans-48"/>
      </g>
     </g>
    </g>
    <g id="ytick_4">
     <g id="line2d_9">
      <g>
       <use style="stroke:#000000;stroke-width:0.8;" x="47.38125" xlink:href="#mf18585d13c" y="183.768801"/>
      </g>
     </g>
     <g id="text_9">
      <!-- 1.5 -->
      <g transform="translate(24.478125 187.56802)scale(0.1 -0.1)">
       <use xlink:href="#DejaVuSans-49"/>
       <use x="63.623047" xlink:href="#DejaVuSans-46"/>
       <use x="95.410156" xlink:href="#DejaVuSans-53"/>
      </g>
     </g>
    </g>
    <g id="ytick_5">
     <g id="line2d_10">
      <g>
       <use style="stroke:#000000;stroke-width:0.8;" x="47.38125" xlink:href="#mf18585d13c" y="151.737542"/>
      </g>
     </g>
     <g id="text_10">
      <!-- 2.0 -->
      <g transform="translate(24.478125 155.53676)scale(0.1 -0.1)">
       <use xlink:href="#DejaVuSans-50"/>
       <use x="63.623047" xlink:href="#DejaVuSans-46"/>
       <use x="95.410156" xlink:href="#DejaVuSans-48"/>
      </g>
     </g>
    </g>
    <g id="ytick_6">
     <g id="line2d_11">
      <g>
       <use style="stroke:#000000;stroke-width:0.8;" x="47.38125" xlink:href="#mf18585d13c" y="119.706282"/>
      </g>
     </g>
     <g id="text_11">
      <!-- 2.5 -->
      <g transform="translate(24.478125 123.505501)scale(0.1 -0.1)">
       <use xlink:href="#DejaVuSans-50"/>
       <use x="63.623047" xlink:href="#DejaVuSans-46"/>
       <use x="95.410156" xlink:href="#DejaVuSans-53"/>
      </g>
     </g>
    </g>
    <g id="ytick_7">
     <g id="line2d_12">
      <g>
       <use style="stroke:#000000;stroke-width:0.8;" x="47.38125" xlink:href="#mf18585d13c" y="87.675023"/>
      </g>
     </g>
     <g id="text_12">
      <!-- 3.0 -->
      <g transform="translate(24.478125 91.474242)scale(0.1 -0.1)">
       <use xlink:href="#DejaVuSans-51"/>
       <use x="63.623047" xlink:href="#DejaVuSans-46"/>
       <use x="95.410156" xlink:href="#DejaVuSans-48"/>
      </g>
     </g>
    </g>
    <g id="ytick_8">
     <g id="line2d_13">
      <g>
       <use style="stroke:#000000;stroke-width:0.8;" x="47.38125" xlink:href="#mf18585d13c" y="55.643763"/>
      </g>
     </g>
     <g id="text_13">
      <!-- 3.5 -->
      <g transform="translate(24.478125 59.442982)scale(0.1 -0.1)">
       <use xlink:href="#DejaVuSans-51"/>
       <use x="63.623047" xlink:href="#DejaVuSans-46"/>
       <use x="95.410156" xlink:href="#DejaVuSans-53"/>
      </g>
     </g>
    </g>
    <g id="ytick_9">
     <g id="line2d_14">
      <g>
       <use style="stroke:#000000;stroke-width:0.8;" x="47.38125" xlink:href="#mf18585d13c" y="23.612504"/>
      </g>
     </g>
     <g id="text_14">
      <!-- 4.0 -->
      <g transform="translate(24.478125 27.411723)scale(0.1 -0.1)">
       <use xlink:href="#DejaVuSans-52"/>
       <use x="63.623047" xlink:href="#DejaVuSans-46"/>
       <use x="95.410156" xlink:href="#DejaVuSans-48"/>
      </g>
     </g>
    </g>
    <g id="text_15">
     <!-- CE uci acumulados -->
     <defs>
      <path d="M 64.40625 67.28125 
L 64.40625 56.890625 
Q 59.421875 61.53125 53.78125 63.8125 
Q 48.140625 66.109375 41.796875 66.109375 
Q 29.296875 66.109375 22.65625 58.46875 
Q 16.015625 50.828125 16.015625 36.375 
Q 16.015625 21.96875 22.65625 14.328125 
Q 29.296875 6.6875 41.796875 6.6875 
Q 48.140625 6.6875 53.78125 8.984375 
Q 59.421875 11.28125 64.40625 15.921875 
L 64.40625 5.609375 
Q 59.234375 2.09375 53.4375 0.328125 
Q 47.65625 -1.421875 41.21875 -1.421875 
Q 24.65625 -1.421875 15.125 8.703125 
Q 5.609375 18.84375 5.609375 36.375 
Q 5.609375 53.953125 15.125 64.078125 
Q 24.65625 74.21875 41.21875 74.21875 
Q 47.75 74.21875 53.53125 72.484375 
Q 59.328125 70.75 64.40625 67.28125 
z
" id="DejaVuSans-67"/>
      <path d="M 9.8125 72.90625 
L 55.90625 72.90625 
L 55.90625 64.59375 
L 19.671875 64.59375 
L 19.671875 43.015625 
L 54.390625 43.015625 
L 54.390625 34.71875 
L 19.671875 34.71875 
L 19.671875 8.296875 
L 56.78125 8.296875 
L 56.78125 0 
L 9.8125 0 
z
" id="DejaVuSans-69"/>
      <path id="DejaVuSans-32"/>
      <path d="M 8.5 21.578125 
L 8.5 54.6875 
L 17.484375 54.6875 
L 17.484375 21.921875 
Q 17.484375 14.15625 20.5 10.265625 
Q 23.53125 6.390625 29.59375 6.390625 
Q 36.859375 6.390625 41.078125 11.03125 
Q 45.3125 15.671875 45.3125 23.6875 
L 45.3125 54.6875 
L 54.296875 54.6875 
L 54.296875 0 
L 45.3125 0 
L 45.3125 8.40625 
Q 42.046875 3.421875 37.71875 1 
Q 33.40625 -1.421875 27.6875 -1.421875 
Q 18.265625 -1.421875 13.375 4.4375 
Q 8.5 10.296875 8.5 21.578125 
z
M 31.109375 56 
z
" id="DejaVuSans-117"/>
      <path d="M 48.78125 52.59375 
L 48.78125 44.1875 
Q 44.96875 46.296875 41.140625 47.34375 
Q 37.3125 48.390625 33.40625 48.390625 
Q 24.65625 48.390625 19.8125 42.84375 
Q 14.984375 37.3125 14.984375 27.296875 
Q 14.984375 17.28125 19.8125 11.734375 
Q 24.65625 6.203125 33.40625 6.203125 
Q 37.3125 6.203125 41.140625 7.25 
Q 44.96875 8.296875 48.78125 10.40625 
L 48.78125 2.09375 
Q 45.015625 0.34375 40.984375 -0.53125 
Q 36.96875 -1.421875 32.421875 -1.421875 
Q 20.0625 -1.421875 12.78125 6.34375 
Q 5.515625 14.109375 5.515625 27.296875 
Q 5.515625 40.671875 12.859375 48.328125 
Q 20.21875 56 33.015625 56 
Q 37.15625 56 41.109375 55.140625 
Q 45.0625 54.296875 48.78125 52.59375 
z
" id="DejaVuSans-99"/>
      <path d="M 9.421875 54.6875 
L 18.40625 54.6875 
L 18.40625 0 
L 9.421875 0 
z
M 9.421875 75.984375 
L 18.40625 75.984375 
L 18.40625 64.59375 
L 9.421875 64.59375 
z
" id="DejaVuSans-105"/>
      <path d="M 34.28125 27.484375 
Q 23.390625 27.484375 19.1875 25 
Q 14.984375 22.515625 14.984375 16.5 
Q 14.984375 11.71875 18.140625 8.90625 
Q 21.296875 6.109375 26.703125 6.109375 
Q 34.1875 6.109375 38.703125 11.40625 
Q 43.21875 16.703125 43.21875 25.484375 
L 43.21875 27.484375 
z
M 52.203125 31.203125 
L 52.203125 0 
L 43.21875 0 
L 43.21875 8.296875 
Q 40.140625 3.328125 35.546875 0.953125 
Q 30.953125 -1.421875 24.3125 -1.421875 
Q 15.921875 -1.421875 10.953125 3.296875 
Q 6 8.015625 6 15.921875 
Q 6 25.140625 12.171875 29.828125 
Q 18.359375 34.515625 30.609375 34.515625 
L 43.21875 34.515625 
L 43.21875 35.40625 
Q 43.21875 41.609375 39.140625 45 
Q 35.0625 48.390625 27.6875 48.390625 
Q 23 48.390625 18.546875 47.265625 
Q 14.109375 46.140625 10.015625 43.890625 
L 10.015625 52.203125 
Q 14.9375 54.109375 19.578125 55.046875 
Q 24.21875 56 28.609375 56 
Q 40.484375 56 46.34375 49.84375 
Q 52.203125 43.703125 52.203125 31.203125 
z
" id="DejaVuSans-97"/>
      <path d="M 52 44.1875 
Q 55.375 50.25 60.0625 53.125 
Q 64.75 56 71.09375 56 
Q 79.640625 56 84.28125 50.015625 
Q 88.921875 44.046875 88.921875 33.015625 
L 88.921875 0 
L 79.890625 0 
L 79.890625 32.71875 
Q 79.890625 40.578125 77.09375 44.375 
Q 74.3125 48.1875 68.609375 48.1875 
Q 61.625 48.1875 57.5625 43.546875 
Q 53.515625 38.921875 53.515625 30.90625 
L 53.515625 0 
L 44.484375 0 
L 44.484375 32.71875 
Q 44.484375 40.625 41.703125 44.40625 
Q 38.921875 48.1875 33.109375 48.1875 
Q 26.21875 48.1875 22.15625 43.53125 
Q 18.109375 38.875 18.109375 30.90625 
L 18.109375 0 
L 9.078125 0 
L 9.078125 54.6875 
L 18.109375 54.6875 
L 18.109375 46.1875 
Q 21.1875 51.21875 25.484375 53.609375 
Q 29.78125 56 35.6875 56 
Q 41.65625 56 45.828125 52.96875 
Q 50 49.953125 52 44.1875 
z
" id="DejaVuSans-109"/>
      <path d="M 9.421875 75.984375 
L 18.40625 75.984375 
L 18.40625 0 
L 9.421875 0 
z
" id="DejaVuSans-108"/>
      <path d="M 45.40625 46.390625 
L 45.40625 75.984375 
L 54.390625 75.984375 
L 54.390625 0 
L 45.40625 0 
L 45.40625 8.203125 
Q 42.578125 3.328125 38.25 0.953125 
Q 33.9375 -1.421875 27.875 -1.421875 
Q 17.96875 -1.421875 11.734375 6.484375 
Q 5.515625 14.40625 5.515625 27.296875 
Q 5.515625 40.1875 11.734375 48.09375 
Q 17.96875 56 27.875 56 
Q 33.9375 56 38.25 53.625 
Q 42.578125 51.265625 45.40625 46.390625 
z
M 14.796875 27.296875 
Q 14.796875 17.390625 18.875 11.75 
Q 22.953125 6.109375 30.078125 6.109375 
Q 37.203125 6.109375 41.296875 11.75 
Q 45.40625 17.390625 45.40625 27.296875 
Q 45.40625 37.203125 41.296875 42.84375 
Q 37.203125 48.484375 30.078125 48.484375 
Q 22.953125 48.484375 18.875 42.84375 
Q 14.796875 37.203125 14.796875 27.296875 
z
" id="DejaVuSans-100"/>
      <path d="M 30.609375 48.390625 
Q 23.390625 48.390625 19.1875 42.75 
Q 14.984375 37.109375 14.984375 27.296875 
Q 14.984375 17.484375 19.15625 11.84375 
Q 23.34375 6.203125 30.609375 6.203125 
Q 37.796875 6.203125 41.984375 11.859375 
Q 46.1875 17.53125 46.1875 27.296875 
Q 46.1875 37.015625 41.984375 42.703125 
Q 37.796875 48.390625 30.609375 48.390625 
z
M 30.609375 56 
Q 42.328125 56 49.015625 48.375 
Q 55.71875 40.765625 55.71875 27.296875 
Q 55.71875 13.875 49.015625 6.21875 
Q 42.328125 -1.421875 30.609375 -1.421875 
Q 18.84375 -1.421875 12.171875 6.21875 
Q 5.515625 13.875 5.515625 27.296875 
Q 5.515625 40.765625 12.171875 48.375 
Q 18.84375 56 30.609375 56 
z
" id="DejaVuSans-111"/>
      <path d="M 44.28125 53.078125 
L 44.28125 44.578125 
Q 40.484375 46.53125 36.375 47.5 
Q 32.28125 48.484375 27.875 48.484375 
Q 21.1875 48.484375 17.84375 46.4375 
Q 14.5 44.390625 14.5 40.28125 
Q 14.5 37.15625 16.890625 35.375 
Q 19.28125 33.59375 26.515625 31.984375 
L 29.59375 31.296875 
Q 39.15625 29.25 43.1875 25.515625 
Q 47.21875 21.78125 47.21875 15.09375 
Q 47.21875 7.46875 41.1875 3.015625 
Q 35.15625 -1.421875 24.609375 -1.421875 
Q 20.21875 -1.421875 15.453125 -0.5625 
Q 10.6875 0.296875 5.421875 2 
L 5.421875 11.28125 
Q 10.40625 8.6875 15.234375 7.390625 
Q 20.0625 6.109375 24.8125 6.109375 
Q 31.15625 6.109375 34.5625 8.28125 
Q 37.984375 10.453125 37.984375 14.40625 
Q 37.984375 18.0625 35.515625 20.015625 
Q 33.0625 21.96875 24.703125 23.78125 
L 21.578125 24.515625 
Q 13.234375 26.265625 9.515625 29.90625 
Q 5.8125 33.546875 5.8125 39.890625 
Q 5.8125 47.609375 11.28125 51.796875 
Q 16.75 56 26.8125 56 
Q 31.78125 56 36.171875 55.265625 
Q 40.578125 54.546875 44.28125 53.078125 
z
" id="DejaVuSans-115"/>
     </defs>
     <g transform="translate(18.398438 192.779727)rotate(-90)scale(0.1 -0.1)">
      <use xlink:href="#DejaVuSans-67"/>
      <use x="69.824219" xlink:href="#DejaVuSans-69"/>
      <use x="133.007812" xlink:href="#DejaVuSans-32"/>
      <use x="164.794922" xlink:href="#DejaVuSans-117"/>
      <use x="228.173828" xlink:href="#DejaVuSans-99"/>
      <use x="283.154297" xlink:href="#DejaVuSans-105"/>
      <use x="310.9375" xlink:href="#DejaVuSans-32"/>
      <use x="342.724609" xlink:href="#DejaVuSans-97"/>
      <use x="404.003906" xlink:href="#DejaVuSans-99"/>
      <use x="458.984375" xlink:href="#DejaVuSans-117"/>
      <use x="522.363281" xlink:href="#DejaVuSans-109"/>
      <use x="619.775391" xlink:href="#DejaVuSans-117"/>
      <use x="683.154297" xlink:href="#DejaVuSans-108"/>
      <use x="710.9375" xlink:href="#DejaVuSans-97"/>
      <use x="772.216797" xlink:href="#DejaVuSans-100"/>
      <use x="835.693359" xlink:href="#DejaVuSans-111"/>
      <use x="896.875" xlink:href="#DejaVuSans-115"/>
     </g>
    </g>
   </g>
   <g id="line2d_15">
    <path clip-path="url(#p4b9f423076)" d="M 65.682102 279.86258 
L 70.910917 279.86258 
L 76.139732 279.86258 
L 81.368547 279.86258 
L 86.597362 279.86258 
L 91.826177 279.86258 
L 97.054992 279.86258 
L 102.283807 279.86258 
L 107.512622 279.86258 
L 112.741437 279.86258 
L 117.970252 279.86258 
L 123.199067 279.86258 
L 128.427881 279.86258 
L 133.656696 279.86258 
L 138.885511 279.86258 
L 144.114326 279.86258 
L 149.343141 215.800061 
L 154.571956 151.737542 
L 159.800771 151.737542 
L 165.029586 151.737542 
L 170.258401 151.737542 
L 175.487216 151.737542 
L 180.716031 87.675023 
L 185.944846 87.675023 
L 191.173661 87.675023 
L 196.402476 87.675023 
L 201.631291 23.612504 
L 206.860106 23.612504 
L 212.08892 23.612504 
L 217.317735 23.612504 
L 222.54655 23.612504 
L 227.775365 23.612504 
L 233.00418 23.612504 
L 238.232995 23.612504 
L 243.46181 23.612504 
L 248.690625 23.612504 
L 253.91944 23.612504 
L 259.148255 23.612504 
L 264.37707 23.612504 
L 269.605885 23.612504 
L 274.8347 23.612504 
L 280.063515 23.612504 
L 285.29233 23.612504 
L 290.521144 23.612504 
L 295.749959 23.612504 
L 300.978774 23.612504 
L 306.207589 23.612504 
L 311.436404 23.612504 
L 316.665219 23.612504 
L 321.894034 23.612504 
L 327.122849 23.612504 
L 332.351664 23.612504 
L 337.580479 23.612504 
L 342.809294 23.612504 
L 348.038109 23.612504 
L 353.266924 23.612504 
L 358.495739 23.612504 
L 363.724554 23.612504 
L 368.953369 23.612504 
L 374.182183 23.612504 
L 379.410998 23.612504 
L 384.639813 23.612504 
L 389.868628 23.612504 
L 395.097443 23.612504 
L 400.326258 23.612504 
L 405.555073 23.612504 
L 410.783888 23.612504 
L 416.012703 23.612504 
L 421.241518 23.612504 
L 426.470333 23.612504 
L 431.699148 23.612504 
" style="fill:none;stroke:#1f77b4;stroke-linecap:square;stroke-width:1.5;"/>
    <defs>
     <path d="M 0 1.5 
C 0.397805 1.5 0.77937 1.341951 1.06066 1.06066 
C 1.341951 0.77937 1.5 0.397805 1.5 0 
C 1.5 -0.397805 1.341951 -0.77937 1.06066 -1.06066 
C 0.77937 -1.341951 0.397805 -1.5 0 -1.5 
C -0.397805 -1.5 -0.77937 -1.341951 -1.06066 -1.06066 
C -1.341951 -0.77937 -1.5 -0.397805 -1.5 0 
C -1.5 0.397805 -1.341951 0.77937 -1.06066 1.06066 
C -0.77937 1.341951 -0.397805 1.5 0 1.5 
z
" id="m6912a2fe53" style="stroke:#1f77b4;"/>
    </defs>
    <g clip-path="url(#p4b9f423076)">
     <use style="fill:#1f77b4;stroke:#1f77b4;" x="65.682102" xlink:href="#m6912a2fe53" y="279.86258"/>
     <use style="fill:#1f77b4;stroke:#1f77b4;" x="70.910917" xlink:href="#m6912a2fe53" y="279.86258"/>
     <use style="fill:#1f77b4;stroke:#1f77b4;" x="76.139732" xlink:href="#m6912a2fe53" y="279.86258"/>
     <use style="fill:#1f77b4;stroke:#1f77b4;" x="81.368547" xlink:href="#m6912a2fe53" y="279.86258"/>
     <use style="fill:#1f77b4;stroke:#1f77b4;" x="86.597362" xlink:href="#m6912a2fe53" y="279.86258"/>
     <use style="fill:#1f77b4;stroke:#1f77b4;" x="91.826177" xlink:href="#m6912a2fe53" y="279.86258"/>
     <use style="fill:#1f77b4;stroke:#1f77b4;" x="97.054992" xlink:href="#m6912a2fe53" y="279.86258"/>
     <use style="fill:#1f77b4;stroke:#1f77b4;" x="102.283807" xlink:href="#m6912a2fe53" y="279.86258"/>
     <use style="fill:#1f77b4;stroke:#1f77b4;" x="107.512622" xlink:href="#m6912a2fe53" y="279.86258"/>
     <use style="fill:#1f77b4;stroke:#1f77b4;" x="112.741437" xlink:href="#m6912a2fe53" y="279.86258"/>
     <use style="fill:#1f77b4;stroke:#1f77b4;" x="117.970252" xlink:href="#m6912a2fe53" y="279.86258"/>
     <use style="fill:#1f77b4;stroke:#1f77b4;" x="123.199067" xlink:href="#m6912a2fe53" y="279.86258"/>
     <use style="fill:#1f77b4;stroke:#1f77b4;" x="128.427881" xlink:href="#m6912a2fe53" y="279.86258"/>
     <use style="fill:#1f77b4;stroke:#1f77b4;" x="133.656696" xlink:href="#m6912a2fe53" y="279.86258"/>
     <use style="fill:#1f77b4;stroke:#1f77b4;" x="138.885511" xlink:href="#m6912a2fe53" y="279.86258"/>
     <use style="fill:#1f77b4;stroke:#1f77b4;" x="144.114326" xlink:href="#m6912a2fe53" y="279.86258"/>
     <use style="fill:#1f77b4;stroke:#1f77b4;" x="149.343141" xlink:href="#m6912a2fe53" y="215.800061"/>
     <use style="fill:#1f77b4;stroke:#1f77b4;" x="154.571956" xlink:href="#m6912a2fe53" y="151.737542"/>
     <use style="fill:#1f77b4;stroke:#1f77b4;" x="159.800771" xlink:href="#m6912a2fe53" y="151.737542"/>
     <use style="fill:#1f77b4;stroke:#1f77b4;" x="165.029586" xlink:href="#m6912a2fe53" y="151.737542"/>
     <use style="fill:#1f77b4;stroke:#1f77b4;" x="170.258401" xlink:href="#m6912a2fe53" y="151.737542"/>
     <use style="fill:#1f77b4;stroke:#1f77b4;" x="175.487216" xlink:href="#m6912a2fe53" y="151.737542"/>
     <use style="fill:#1f77b4;stroke:#1f77b4;" x="180.716031" xlink:href="#m6912a2fe53" y="87.675023"/>
     <use style="fill:#1f77b4;stroke:#1f77b4;" x="185.944846" xlink:href="#m6912a2fe53" y="87.675023"/>
     <use style="fill:#1f77b4;stroke:#1f77b4;" x="191.173661" xlink:href="#m6912a2fe53" y="87.675023"/>
     <use style="fill:#1f77b4;stroke:#1f77b4;" x="196.402476" xlink:href="#m6912a2fe53" y="87.675023"/>
     <use style="fill:#1f77b4;stroke:#1f77b4;" x="201.631291" xlink:href="#m6912a2fe53" y="23.612504"/>
     <use style="fill:#1f77b4;stroke:#1f77b4;" x="206.860106" xlink:href="#m6912a2fe53" y="23.612504"/>
     <use style="fill:#1f77b4;stroke:#1f77b4;" x="212.08892" xlink:href="#m6912a2fe53" y="23.612504"/>
     <use style="fill:#1f77b4;stroke:#1f77b4;" x="217.317735" xlink:href="#m6912a2fe53" y="23.612504"/>
     <use style="fill:#1f77b4;stroke:#1f77b4;" x="222.54655" xlink:href="#m6912a2fe53" y="23.612504"/>
     <use style="fill:#1f77b4;stroke:#1f77b4;" x="227.775365" xlink:href="#m6912a2fe53" y="23.612504"/>
     <use style="fill:#1f77b4;stroke:#1f77b4;" x="233.00418" xlink:href="#m6912a2fe53" y="23.612504"/>
     <use style="fill:#1f77b4;stroke:#1f77b4;" x="238.232995" xlink:href="#m6912a2fe53" y="23.612504"/>
     <use style="fill:#1f77b4;stroke:#1f77b4;" x="243.46181" xlink:href="#m6912a2fe53" y="23.612504"/>
     <use style="fill:#1f77b4;stroke:#1f77b4;" x="248.690625" xlink:href="#m6912a2fe53" y="23.612504"/>
     <use style="fill:#1f77b4;stroke:#1f77b4;" x="253.91944" xlink:href="#m6912a2fe53" y="23.612504"/>
     <use style="fill:#1f77b4;stroke:#1f77b4;" x="259.148255" xlink:href="#m6912a2fe53" y="23.612504"/>
     <use style="fill:#1f77b4;stroke:#1f77b4;" x="264.37707" xlink:href="#m6912a2fe53" y="23.612504"/>
     <use style="fill:#1f77b4;stroke:#1f77b4;" x="269.605885" xlink:href="#m6912a2fe53" y="23.612504"/>
     <use style="fill:#1f77b4;stroke:#1f77b4;" x="274.8347" xlink:href="#m6912a2fe53" y="23.612504"/>
     <use style="fill:#1f77b4;stroke:#1f77b4;" x="280.063515" xlink:href="#m6912a2fe53" y="23.612504"/>
     <use style="fill:#1f77b4;stroke:#1f77b4;" x="285.29233" xlink:href="#m6912a2fe53" y="23.612504"/>
     <use style="fill:#1f77b4;stroke:#1f77b4;" x="290.521144" xlink:href="#m6912a2fe53" y="23.612504"/>
     <use style="fill:#1f77b4;stroke:#1f77b4;" x="295.749959" xlink:href="#m6912a2fe53" y="23.612504"/>
     <use style="fill:#1f77b4;stroke:#1f77b4;" x="300.978774" xlink:href="#m6912a2fe53" y="23.612504"/>
     <use style="fill:#1f77b4;stroke:#1f77b4;" x="306.207589" xlink:href="#m6912a2fe53" y="23.612504"/>
     <use style="fill:#1f77b4;stroke:#1f77b4;" x="311.436404" xlink:href="#m6912a2fe53" y="23.612504"/>
     <use style="fill:#1f77b4;stroke:#1f77b4;" x="316.665219" xlink:href="#m6912a2fe53" y="23.612504"/>
     <use style="fill:#1f77b4;stroke:#1f77b4;" x="321.894034" xlink:href="#m6912a2fe53" y="23.612504"/>
     <use style="fill:#1f77b4;stroke:#1f77b4;" x="327.122849" xlink:href="#m6912a2fe53" y="23.612504"/>
     <use style="fill:#1f77b4;stroke:#1f77b4;" x="332.351664" xlink:href="#m6912a2fe53" y="23.612504"/>
     <use style="fill:#1f77b4;stroke:#1f77b4;" x="337.580479" xlink:href="#m6912a2fe53" y="23.612504"/>
     <use style="fill:#1f77b4;stroke:#1f77b4;" x="342.809294" xlink:href="#m6912a2fe53" y="23.612504"/>
     <use style="fill:#1f77b4;stroke:#1f77b4;" x="348.038109" xlink:href="#m6912a2fe53" y="23.612504"/>
     <use style="fill:#1f77b4;stroke:#1f77b4;" x="353.266924" xlink:href="#m6912a2fe53" y="23.612504"/>
     <use style="fill:#1f77b4;stroke:#1f77b4;" x="358.495739" xlink:href="#m6912a2fe53" y="23.612504"/>
     <use style="fill:#1f77b4;stroke:#1f77b4;" x="363.724554" xlink:href="#m6912a2fe53" y="23.612504"/>
     <use style="fill:#1f77b4;stroke:#1f77b4;" x="368.953369" xlink:href="#m6912a2fe53" y="23.612504"/>
     <use style="fill:#1f77b4;stroke:#1f77b4;" x="374.182183" xlink:href="#m6912a2fe53" y="23.612504"/>
     <use style="fill:#1f77b4;stroke:#1f77b4;" x="379.410998" xlink:href="#m6912a2fe53" y="23.612504"/>
     <use style="fill:#1f77b4;stroke:#1f77b4;" x="384.639813" xlink:href="#m6912a2fe53" y="23.612504"/>
     <use style="fill:#1f77b4;stroke:#1f77b4;" x="389.868628" xlink:href="#m6912a2fe53" y="23.612504"/>
     <use style="fill:#1f77b4;stroke:#1f77b4;" x="395.097443" xlink:href="#m6912a2fe53" y="23.612504"/>
     <use style="fill:#1f77b4;stroke:#1f77b4;" x="400.326258" xlink:href="#m6912a2fe53" y="23.612504"/>
     <use style="fill:#1f77b4;stroke:#1f77b4;" x="405.555073" xlink:href="#m6912a2fe53" y="23.612504"/>
     <use style="fill:#1f77b4;stroke:#1f77b4;" x="410.783888" xlink:href="#m6912a2fe53" y="23.612504"/>
     <use style="fill:#1f77b4;stroke:#1f77b4;" x="416.012703" xlink:href="#m6912a2fe53" y="23.612504"/>
     <use style="fill:#1f77b4;stroke:#1f77b4;" x="421.241518" xlink:href="#m6912a2fe53" y="23.612504"/>
     <use style="fill:#1f77b4;stroke:#1f77b4;" x="426.470333" xlink:href="#m6912a2fe53" y="23.612504"/>
     <use style="fill:#1f77b4;stroke:#1f77b4;" x="431.699148" xlink:href="#m6912a2fe53" y="23.612504"/>
    </g>
   </g>
   <g id="patch_3">
    <path d="M 47.38125 279.86258 
L 47.38125 10.8 
" style="fill:none;stroke:#000000;stroke-linecap:square;stroke-linejoin:miter;stroke-width:0.8;"/>
   </g>
   <g id="patch_4">
    <path d="M 450 279.86258 
L 450 10.8 
" style="fill:none;stroke:#000000;stroke-linecap:square;stroke-linejoin:miter;stroke-width:0.8;"/>
   </g>
   <g id="patch_5">
    <path d="M 47.38125 279.86258 
L 450 279.86258 
" style="fill:none;stroke:#000000;stroke-linecap:square;stroke-linejoin:miter;stroke-width:0.8;"/>
   </g>
   <g id="patch_6">
    <path d="M 47.38125 10.8 
L 450 10.8 
" style="fill:none;stroke:#000000;stroke-linecap:square;stroke-linejoin:miter;stroke-width:0.8;"/>
   </g>
  </g>
 </g>
 <defs>
  <clipPath id="p4b9f423076">
   <rect height="269.06258" width="402.61875" x="47.38125" y="10.8"/>
  </clipPath>
 </defs>
</svg>
