<?xml version="1.0" encoding="utf-8" standalone="no"?>
<!DOCTYPE svg PUBLIC "-//W3C//DTD SVG 1.1//EN"
  "http://www.w3.org/Graphics/SVG/1.1/DTD/svg11.dtd">
<!-- Created with matplotlib (https://matplotlib.org/) -->
<svg height="345.6pt" version="1.1" viewBox="0 0 460.8 345.6" width="460.8pt" xmlns="http://www.w3.org/2000/svg" xmlns:xlink="http://www.w3.org/1999/xlink">
 <defs>
  <style type="text/css">
*{stroke-linecap:butt;stroke-linejoin:round;}
  </style>
 </defs>
 <g id="figure_1">
  <g id="patch_1">
   <path d="M 0 345.6 
L 460.8 345.6 
L 460.8 0 
L 0 0 
z
" style="fill:#ffffff;"/>
  </g>
  <g id="axes_1">
   <g id="patch_2">
    <path d="M 50.565625 279.86258 
L 450 279.86258 
L 450 10.8 
L 50.565625 10.8 
z
" style="fill:#ffffff;"/>
   </g>
   <g id="matplotlib.axis_1">
    <g id="xtick_1">
     <g id="line2d_1">
      <defs>
       <path d="M 0 0 
L 0 3.5 
" id="maa326809e3" style="stroke:#000000;stroke-width:0.8;"/>
      </defs>
      <g>
       <use style="stroke:#000000;stroke-width:0.8;" x="68.721733" xlink:href="#maa326809e3" y="279.86258"/>
      </g>
     </g>
     <g id="text_1">
      <!-- 2020-03-08 -->
      <defs>
       <path d="M 19.1875 8.296875 
L 53.609375 8.296875 
L 53.609375 0 
L 7.328125 0 
L 7.328125 8.296875 
Q 12.9375 14.109375 22.625 23.890625 
Q 32.328125 33.6875 34.8125 36.53125 
Q 39.546875 41.84375 41.421875 45.53125 
Q 43.3125 49.21875 43.3125 52.78125 
Q 43.3125 58.59375 39.234375 62.25 
Q 35.15625 65.921875 28.609375 65.921875 
Q 23.96875 65.921875 18.8125 64.3125 
Q 13.671875 62.703125 7.8125 59.421875 
L 7.8125 69.390625 
Q 13.765625 71.78125 18.9375 73 
Q 24.125 74.21875 28.421875 74.21875 
Q 39.75 74.21875 46.484375 68.546875 
Q 53.21875 62.890625 53.21875 53.421875 
Q 53.21875 48.921875 51.53125 44.890625 
Q 49.859375 40.875 45.40625 35.40625 
Q 44.1875 33.984375 37.640625 27.21875 
Q 31.109375 20.453125 19.1875 8.296875 
z
" id="DejaVuSans-50"/>
       <path d="M 31.78125 66.40625 
Q 24.171875 66.40625 20.328125 58.90625 
Q 16.5 51.421875 16.5 36.375 
Q 16.5 21.390625 20.328125 13.890625 
Q 24.171875 6.390625 31.78125 6.390625 
Q 39.453125 6.390625 43.28125 13.890625 
Q 47.125 21.390625 47.125 36.375 
Q 47.125 51.421875 43.28125 58.90625 
Q 39.453125 66.40625 31.78125 66.40625 
z
M 31.78125 74.21875 
Q 44.046875 74.21875 50.515625 64.515625 
Q 56.984375 54.828125 56.984375 36.375 
Q 56.984375 17.96875 50.515625 8.265625 
Q 44.046875 -1.421875 31.78125 -1.421875 
Q 19.53125 -1.421875 13.0625 8.265625 
Q 6.59375 17.96875 6.59375 36.375 
Q 6.59375 54.828125 13.0625 64.515625 
Q 19.53125 74.21875 31.78125 74.21875 
z
" id="DejaVuSans-48"/>
       <path d="M 4.890625 31.390625 
L 31.203125 31.390625 
L 31.203125 23.390625 
L 4.890625 23.390625 
z
" id="DejaVuSans-45"/>
       <path d="M 40.578125 39.3125 
Q 47.65625 37.796875 51.625 33 
Q 55.609375 28.21875 55.609375 21.1875 
Q 55.609375 10.40625 48.1875 4.484375 
Q 40.765625 -1.421875 27.09375 -1.421875 
Q 22.515625 -1.421875 17.65625 -0.515625 
Q 12.796875 0.390625 7.625 2.203125 
L 7.625 11.71875 
Q 11.71875 9.328125 16.59375 8.109375 
Q 21.484375 6.890625 26.8125 6.890625 
Q 36.078125 6.890625 40.9375 10.546875 
Q 45.796875 14.203125 45.796875 21.1875 
Q 45.796875 27.640625 41.28125 31.265625 
Q 36.765625 34.90625 28.71875 34.90625 
L 20.21875 34.90625 
L 20.21875 43.015625 
L 29.109375 43.015625 
Q 36.375 43.015625 40.234375 45.921875 
Q 44.09375 48.828125 44.09375 54.296875 
Q 44.09375 59.90625 40.109375 62.90625 
Q 36.140625 65.921875 28.71875 65.921875 
Q 24.65625 65.921875 20.015625 65.03125 
Q 15.375 64.15625 9.8125 62.3125 
L 9.8125 71.09375 
Q 15.4375 72.65625 20.34375 73.4375 
Q 25.25 74.21875 29.59375 74.21875 
Q 40.828125 74.21875 47.359375 69.109375 
Q 53.90625 64.015625 53.90625 55.328125 
Q 53.90625 49.265625 50.4375 45.09375 
Q 46.96875 40.921875 40.578125 39.3125 
z
" id="DejaVuSans-51"/>
       <path d="M 31.78125 34.625 
Q 24.75 34.625 20.71875 30.859375 
Q 16.703125 27.09375 16.703125 20.515625 
Q 16.703125 13.921875 20.71875 10.15625 
Q 24.75 6.390625 31.78125 6.390625 
Q 38.8125 6.390625 42.859375 10.171875 
Q 46.921875 13.96875 46.921875 20.515625 
Q 46.921875 27.09375 42.890625 30.859375 
Q 38.875 34.625 31.78125 34.625 
z
M 21.921875 38.8125 
Q 15.578125 40.375 12.03125 44.71875 
Q 8.5 49.078125 8.5 55.328125 
Q 8.5 64.0625 14.71875 69.140625 
Q 20.953125 74.21875 31.78125 74.21875 
Q 42.671875 74.21875 48.875 69.140625 
Q 55.078125 64.0625 55.078125 55.328125 
Q 55.078125 49.078125 51.53125 44.71875 
Q 48 40.375 41.703125 38.8125 
Q 48.828125 37.15625 52.796875 32.3125 
Q 56.78125 27.484375 56.78125 20.515625 
Q 56.78125 9.90625 50.3125 4.234375 
Q 43.84375 -1.421875 31.78125 -1.421875 
Q 19.734375 -1.421875 13.25 4.234375 
Q 6.78125 9.90625 6.78125 20.515625 
Q 6.78125 27.484375 10.78125 32.3125 
Q 14.796875 37.15625 21.921875 38.8125 
z
M 18.3125 54.390625 
Q 18.3125 48.734375 21.84375 45.5625 
Q 25.390625 42.390625 31.78125 42.390625 
Q 38.140625 42.390625 41.71875 45.5625 
Q 45.3125 48.734375 45.3125 54.390625 
Q 45.3125 60.0625 41.71875 63.234375 
Q 38.140625 66.40625 31.78125 66.40625 
Q 25.390625 66.40625 21.84375 63.234375 
Q 18.3125 60.0625 18.3125 54.390625 
z
" id="DejaVuSans-56"/>
      </defs>
      <g transform="translate(50.125929 333.329439)rotate(-45)scale(0.1 -0.1)">
       <use xlink:href="#DejaVuSans-50"/>
       <use x="63.623047" xlink:href="#DejaVuSans-48"/>
       <use x="127.246094" xlink:href="#DejaVuSans-50"/>
       <use x="190.869141" xlink:href="#DejaVuSans-48"/>
       <use x="254.492188" xlink:href="#DejaVuSans-45"/>
       <use x="290.576172" xlink:href="#DejaVuSans-48"/>
       <use x="354.199219" xlink:href="#DejaVuSans-51"/>
       <use x="417.822266" xlink:href="#DejaVuSans-45"/>
       <use x="453.90625" xlink:href="#DejaVuSans-48"/>
       <use x="517.529297" xlink:href="#DejaVuSans-56"/>
      </g>
     </g>
    </g>
    <g id="xtick_2">
     <g id="line2d_2">
      <g>
       <use style="stroke:#000000;stroke-width:0.8;" x="108.438219" xlink:href="#maa326809e3" y="279.86258"/>
      </g>
     </g>
     <g id="text_2">
      <!-- 2020-03-15 -->
      <defs>
       <path d="M 12.40625 8.296875 
L 28.515625 8.296875 
L 28.515625 63.921875 
L 10.984375 60.40625 
L 10.984375 69.390625 
L 28.421875 72.90625 
L 38.28125 72.90625 
L 38.28125 8.296875 
L 54.390625 8.296875 
L 54.390625 0 
L 12.40625 0 
z
" id="DejaVuSans-49"/>
       <path d="M 10.796875 72.90625 
L 49.515625 72.90625 
L 49.515625 64.59375 
L 19.828125 64.59375 
L 19.828125 46.734375 
Q 21.96875 47.46875 24.109375 47.828125 
Q 26.265625 48.1875 28.421875 48.1875 
Q 40.625 48.1875 47.75 41.5 
Q 54.890625 34.8125 54.890625 23.390625 
Q 54.890625 11.625 47.5625 5.09375 
Q 40.234375 -1.421875 26.90625 -1.421875 
Q 22.3125 -1.421875 17.546875 -0.640625 
Q 12.796875 0.140625 7.71875 1.703125 
L 7.71875 11.625 
Q 12.109375 9.234375 16.796875 8.0625 
Q 21.484375 6.890625 26.703125 6.890625 
Q 35.15625 6.890625 40.078125 11.328125 
Q 45.015625 15.765625 45.015625 23.390625 
Q 45.015625 31 40.078125 35.4375 
Q 35.15625 39.890625 26.703125 39.890625 
Q 22.75 39.890625 18.8125 39.015625 
Q 14.890625 38.140625 10.796875 36.28125 
z
" id="DejaVuSans-53"/>
      </defs>
      <g transform="translate(89.842416 333.329439)rotate(-45)scale(0.1 -0.1)">
       <use xlink:href="#DejaVuSans-50"/>
       <use x="63.623047" xlink:href="#DejaVuSans-48"/>
       <use x="127.246094" xlink:href="#DejaVuSans-50"/>
       <use x="190.869141" xlink:href="#DejaVuSans-48"/>
       <use x="254.492188" xlink:href="#DejaVuSans-45"/>
       <use x="290.576172" xlink:href="#DejaVuSans-48"/>
       <use x="354.199219" xlink:href="#DejaVuSans-51"/>
       <use x="417.822266" xlink:href="#DejaVuSans-45"/>
       <use x="453.90625" xlink:href="#DejaVuSans-49"/>
       <use x="517.529297" xlink:href="#DejaVuSans-53"/>
      </g>
     </g>
    </g>
    <g id="xtick_3">
     <g id="line2d_3">
      <g>
       <use style="stroke:#000000;stroke-width:0.8;" x="148.154705" xlink:href="#maa326809e3" y="279.86258"/>
      </g>
     </g>
     <g id="text_3">
      <!-- 2020-03-22 -->
      <g transform="translate(129.558902 333.329439)rotate(-45)scale(0.1 -0.1)">
       <use xlink:href="#DejaVuSans-50"/>
       <use x="63.623047" xlink:href="#DejaVuSans-48"/>
       <use x="127.246094" xlink:href="#DejaVuSans-50"/>
       <use x="190.869141" xlink:href="#DejaVuSans-48"/>
       <use x="254.492188" xlink:href="#DejaVuSans-45"/>
       <use x="290.576172" xlink:href="#DejaVuSans-48"/>
       <use x="354.199219" xlink:href="#DejaVuSans-51"/>
       <use x="417.822266" xlink:href="#DejaVuSans-45"/>
       <use x="453.90625" xlink:href="#DejaVuSans-50"/>
       <use x="517.529297" xlink:href="#DejaVuSans-50"/>
      </g>
     </g>
    </g>
    <g id="xtick_4">
     <g id="line2d_4">
      <g>
       <use style="stroke:#000000;stroke-width:0.8;" x="204.892543" xlink:href="#maa326809e3" y="279.86258"/>
      </g>
     </g>
     <g id="text_4">
      <!-- 2020-04-01 -->
      <defs>
       <path d="M 37.796875 64.3125 
L 12.890625 25.390625 
L 37.796875 25.390625 
z
M 35.203125 72.90625 
L 47.609375 72.90625 
L 47.609375 25.390625 
L 58.015625 25.390625 
L 58.015625 17.1875 
L 47.609375 17.1875 
L 47.609375 0 
L 37.796875 0 
L 37.796875 17.1875 
L 4.890625 17.1875 
L 4.890625 26.703125 
z
" id="DejaVuSans-52"/>
      </defs>
      <g transform="translate(186.296739 333.329439)rotate(-45)scale(0.1 -0.1)">
       <use xlink:href="#DejaVuSans-50"/>
       <use x="63.623047" xlink:href="#DejaVuSans-48"/>
       <use x="127.246094" xlink:href="#DejaVuSans-50"/>
       <use x="190.869141" xlink:href="#DejaVuSans-48"/>
       <use x="254.492188" xlink:href="#DejaVuSans-45"/>
       <use x="290.576172" xlink:href="#DejaVuSans-48"/>
       <use x="354.199219" xlink:href="#DejaVuSans-52"/>
       <use x="417.822266" xlink:href="#DejaVuSans-45"/>
       <use x="453.90625" xlink:href="#DejaVuSans-48"/>
       <use x="517.529297" xlink:href="#DejaVuSans-49"/>
      </g>
     </g>
    </g>
    <g id="xtick_5">
     <g id="line2d_5">
      <g>
       <use style="stroke:#000000;stroke-width:0.8;" x="244.609029" xlink:href="#maa326809e3" y="279.86258"/>
      </g>
     </g>
     <g id="text_5">
      <!-- 2020-04-08 -->
      <g transform="translate(226.013225 333.329439)rotate(-45)scale(0.1 -0.1)">
       <use xlink:href="#DejaVuSans-50"/>
       <use x="63.623047" xlink:href="#DejaVuSans-48"/>
       <use x="127.246094" xlink:href="#DejaVuSans-50"/>
       <use x="190.869141" xlink:href="#DejaVuSans-48"/>
       <use x="254.492188" xlink:href="#DejaVuSans-45"/>
       <use x="290.576172" xlink:href="#DejaVuSans-48"/>
       <use x="354.199219" xlink:href="#DejaVuSans-52"/>
       <use x="417.822266" xlink:href="#DejaVuSans-45"/>
       <use x="453.90625" xlink:href="#DejaVuSans-48"/>
       <use x="517.529297" xlink:href="#DejaVuSans-56"/>
      </g>
     </g>
    </g>
    <g id="xtick_6">
     <g id="line2d_6">
      <g>
       <use style="stroke:#000000;stroke-width:0.8;" x="284.325515" xlink:href="#maa326809e3" y="279.86258"/>
      </g>
     </g>
     <g id="text_6">
      <!-- 2020-04-15 -->
      <g transform="translate(265.729711 333.329439)rotate(-45)scale(0.1 -0.1)">
       <use xlink:href="#DejaVuSans-50"/>
       <use x="63.623047" xlink:href="#DejaVuSans-48"/>
       <use x="127.246094" xlink:href="#DejaVuSans-50"/>
       <use x="190.869141" xlink:href="#DejaVuSans-48"/>
       <use x="254.492188" xlink:href="#DejaVuSans-45"/>
       <use x="290.576172" xlink:href="#DejaVuSans-48"/>
       <use x="354.199219" xlink:href="#DejaVuSans-52"/>
       <use x="417.822266" xlink:href="#DejaVuSans-45"/>
       <use x="453.90625" xlink:href="#DejaVuSans-49"/>
       <use x="517.529297" xlink:href="#DejaVuSans-53"/>
      </g>
     </g>
    </g>
    <g id="xtick_7">
     <g id="line2d_7">
      <g>
       <use style="stroke:#000000;stroke-width:0.8;" x="324.042001" xlink:href="#maa326809e3" y="279.86258"/>
      </g>
     </g>
     <g id="text_7">
      <!-- 2020-04-22 -->
      <g transform="translate(305.446198 333.329439)rotate(-45)scale(0.1 -0.1)">
       <use xlink:href="#DejaVuSans-50"/>
       <use x="63.623047" xlink:href="#DejaVuSans-48"/>
       <use x="127.246094" xlink:href="#DejaVuSans-50"/>
       <use x="190.869141" xlink:href="#DejaVuSans-48"/>
       <use x="254.492188" xlink:href="#DejaVuSans-45"/>
       <use x="290.576172" xlink:href="#DejaVuSans-48"/>
       <use x="354.199219" xlink:href="#DejaVuSans-52"/>
       <use x="417.822266" xlink:href="#DejaVuSans-45"/>
       <use x="453.90625" xlink:href="#DejaVuSans-50"/>
       <use x="517.529297" xlink:href="#DejaVuSans-50"/>
      </g>
     </g>
    </g>
    <g id="xtick_8">
     <g id="line2d_8">
      <g>
       <use style="stroke:#000000;stroke-width:0.8;" x="375.106055" xlink:href="#maa326809e3" y="279.86258"/>
      </g>
     </g>
     <g id="text_8">
      <!-- 2020-05-01 -->
      <g transform="translate(356.510251 333.329439)rotate(-45)scale(0.1 -0.1)">
       <use xlink:href="#DejaVuSans-50"/>
       <use x="63.623047" xlink:href="#DejaVuSans-48"/>
       <use x="127.246094" xlink:href="#DejaVuSans-50"/>
       <use x="190.869141" xlink:href="#DejaVuSans-48"/>
       <use x="254.492188" xlink:href="#DejaVuSans-45"/>
       <use x="290.576172" xlink:href="#DejaVuSans-48"/>
       <use x="354.199219" xlink:href="#DejaVuSans-53"/>
       <use x="417.822266" xlink:href="#DejaVuSans-45"/>
       <use x="453.90625" xlink:href="#DejaVuSans-48"/>
       <use x="517.529297" xlink:href="#DejaVuSans-49"/>
      </g>
     </g>
    </g>
    <g id="xtick_9">
     <g id="line2d_9">
      <g>
       <use style="stroke:#000000;stroke-width:0.8;" x="414.822541" xlink:href="#maa326809e3" y="279.86258"/>
      </g>
     </g>
     <g id="text_9">
      <!-- 2020-05-08 -->
      <g transform="translate(396.226737 333.329439)rotate(-45)scale(0.1 -0.1)">
       <use xlink:href="#DejaVuSans-50"/>
       <use x="63.623047" xlink:href="#DejaVuSans-48"/>
       <use x="127.246094" xlink:href="#DejaVuSans-50"/>
       <use x="190.869141" xlink:href="#DejaVuSans-48"/>
       <use x="254.492188" xlink:href="#DejaVuSans-45"/>
       <use x="290.576172" xlink:href="#DejaVuSans-48"/>
       <use x="354.199219" xlink:href="#DejaVuSans-53"/>
       <use x="417.822266" xlink:href="#DejaVuSans-45"/>
       <use x="453.90625" xlink:href="#DejaVuSans-48"/>
       <use x="517.529297" xlink:href="#DejaVuSans-56"/>
      </g>
     </g>
    </g>
   </g>
   <g id="matplotlib.axis_2">
    <g id="ytick_1">
     <g id="line2d_10">
      <defs>
       <path d="M 0 0 
L -3.5 0 
" id="mf584615d83" style="stroke:#000000;stroke-width:0.8;"/>
      </defs>
      <g>
       <use style="stroke:#000000;stroke-width:0.8;" x="50.565625" xlink:href="#mf584615d83" y="279.86258"/>
      </g>
     </g>
     <g id="text_10">
      <!-- 0 -->
      <g transform="translate(37.203125 283.661798)scale(0.1 -0.1)">
       <use xlink:href="#DejaVuSans-48"/>
      </g>
     </g>
    </g>
    <g id="ytick_2">
     <g id="line2d_11">
      <g>
       <use style="stroke:#000000;stroke-width:0.8;" x="50.565625" xlink:href="#mf584615d83" y="227.244494"/>
      </g>
     </g>
     <g id="text_11">
      <!-- 100 -->
      <g transform="translate(24.478125 231.043713)scale(0.1 -0.1)">
       <use xlink:href="#DejaVuSans-49"/>
       <use x="63.623047" xlink:href="#DejaVuSans-48"/>
       <use x="127.246094" xlink:href="#DejaVuSans-48"/>
      </g>
     </g>
    </g>
    <g id="ytick_3">
     <g id="line2d_12">
      <g>
       <use style="stroke:#000000;stroke-width:0.8;" x="50.565625" xlink:href="#mf584615d83" y="174.626409"/>
      </g>
     </g>
     <g id="text_12">
      <!-- 200 -->
      <g transform="translate(24.478125 178.425628)scale(0.1 -0.1)">
       <use xlink:href="#DejaVuSans-50"/>
       <use x="63.623047" xlink:href="#DejaVuSans-48"/>
       <use x="127.246094" xlink:href="#DejaVuSans-48"/>
      </g>
     </g>
    </g>
    <g id="ytick_4">
     <g id="line2d_13">
      <g>
       <use style="stroke:#000000;stroke-width:0.8;" x="50.565625" xlink:href="#mf584615d83" y="122.008323"/>
      </g>
     </g>
     <g id="text_13">
      <!-- 300 -->
      <g transform="translate(24.478125 125.807542)scale(0.1 -0.1)">
       <use xlink:href="#DejaVuSans-51"/>
       <use x="63.623047" xlink:href="#DejaVuSans-48"/>
       <use x="127.246094" xlink:href="#DejaVuSans-48"/>
      </g>
     </g>
    </g>
    <g id="ytick_5">
     <g id="line2d_14">
      <g>
       <use style="stroke:#000000;stroke-width:0.8;" x="50.565625" xlink:href="#mf584615d83" y="69.390238"/>
      </g>
     </g>
     <g id="text_14">
      <!-- 400 -->
      <g transform="translate(24.478125 73.189457)scale(0.1 -0.1)">
       <use xlink:href="#DejaVuSans-52"/>
       <use x="63.623047" xlink:href="#DejaVuSans-48"/>
       <use x="127.246094" xlink:href="#DejaVuSans-48"/>
      </g>
     </g>
    </g>
    <g id="ytick_6">
     <g id="line2d_15">
      <g>
       <use style="stroke:#000000;stroke-width:0.8;" x="50.565625" xlink:href="#mf584615d83" y="16.772153"/>
      </g>
     </g>
     <g id="text_15">
      <!-- 500 -->
      <g transform="translate(24.478125 20.571371)scale(0.1 -0.1)">
       <use xlink:href="#DejaVuSans-53"/>
       <use x="63.623047" xlink:href="#DejaVuSans-48"/>
       <use x="127.246094" xlink:href="#DejaVuSans-48"/>
      </g>
     </g>
    </g>
    <g id="text_16">
     <!-- EX fallecidos acumulados -->
     <defs>
      <path d="M 9.8125 72.90625 
L 55.90625 72.90625 
L 55.90625 64.59375 
L 19.671875 64.59375 
L 19.671875 43.015625 
L 54.390625 43.015625 
L 54.390625 34.71875 
L 19.671875 34.71875 
L 19.671875 8.296875 
L 56.78125 8.296875 
L 56.78125 0 
L 9.8125 0 
z
" id="DejaVuSans-69"/>
      <path d="M 6.296875 72.90625 
L 16.890625 72.90625 
L 35.015625 45.796875 
L 53.21875 72.90625 
L 63.8125 72.90625 
L 40.375 37.890625 
L 65.375 0 
L 54.78125 0 
L 34.28125 31 
L 13.625 0 
L 2.984375 0 
L 29 38.921875 
z
" id="DejaVuSans-88"/>
      <path id="DejaVuSans-32"/>
      <path d="M 37.109375 75.984375 
L 37.109375 68.5 
L 28.515625 68.5 
Q 23.6875 68.5 21.796875 66.546875 
Q 19.921875 64.59375 19.921875 59.515625 
L 19.921875 54.6875 
L 34.71875 54.6875 
L 34.71875 47.703125 
L 19.921875 47.703125 
L 19.921875 0 
L 10.890625 0 
L 10.890625 47.703125 
L 2.296875 47.703125 
L 2.296875 54.6875 
L 10.890625 54.6875 
L 10.890625 58.5 
Q 10.890625 67.625 15.140625 71.796875 
Q 19.390625 75.984375 28.609375 75.984375 
z
" id="DejaVuSans-102"/>
      <path d="M 34.28125 27.484375 
Q 23.390625 27.484375 19.1875 25 
Q 14.984375 22.515625 14.984375 16.5 
Q 14.984375 11.71875 18.140625 8.90625 
Q 21.296875 6.109375 26.703125 6.109375 
Q 34.1875 6.109375 38.703125 11.40625 
Q 43.21875 16.703125 43.21875 25.484375 
L 43.21875 27.484375 
z
M 52.203125 31.203125 
L 52.203125 0 
L 43.21875 0 
L 43.21875 8.296875 
Q 40.140625 3.328125 35.546875 0.953125 
Q 30.953125 -1.421875 24.3125 -1.421875 
Q 15.921875 -1.421875 10.953125 3.296875 
Q 6 8.015625 6 15.921875 
Q 6 25.140625 12.171875 29.828125 
Q 18.359375 34.515625 30.609375 34.515625 
L 43.21875 34.515625 
L 43.21875 35.40625 
Q 43.21875 41.609375 39.140625 45 
Q 35.0625 48.390625 27.6875 48.390625 
Q 23 48.390625 18.546875 47.265625 
Q 14.109375 46.140625 10.015625 43.890625 
L 10.015625 52.203125 
Q 14.9375 54.109375 19.578125 55.046875 
Q 24.21875 56 28.609375 56 
Q 40.484375 56 46.34375 49.84375 
Q 52.203125 43.703125 52.203125 31.203125 
z
" id="DejaVuSans-97"/>
      <path d="M 9.421875 75.984375 
L 18.40625 75.984375 
L 18.40625 0 
L 9.421875 0 
z
" id="DejaVuSans-108"/>
      <path d="M 56.203125 29.59375 
L 56.203125 25.203125 
L 14.890625 25.203125 
Q 15.484375 15.921875 20.484375 11.0625 
Q 25.484375 6.203125 34.421875 6.203125 
Q 39.59375 6.203125 44.453125 7.46875 
Q 49.3125 8.734375 54.109375 11.28125 
L 54.109375 2.78125 
Q 49.265625 0.734375 44.1875 -0.34375 
Q 39.109375 -1.421875 33.890625 -1.421875 
Q 20.796875 -1.421875 13.15625 6.1875 
Q 5.515625 13.8125 5.515625 26.8125 
Q 5.515625 40.234375 12.765625 48.109375 
Q 20.015625 56 32.328125 56 
Q 43.359375 56 49.78125 48.890625 
Q 56.203125 41.796875 56.203125 29.59375 
z
M 47.21875 32.234375 
Q 47.125 39.59375 43.09375 43.984375 
Q 39.0625 48.390625 32.421875 48.390625 
Q 24.90625 48.390625 20.390625 44.140625 
Q 15.875 39.890625 15.1875 32.171875 
z
" id="DejaVuSans-101"/>
      <path d="M 48.78125 52.59375 
L 48.78125 44.1875 
Q 44.96875 46.296875 41.140625 47.34375 
Q 37.3125 48.390625 33.40625 48.390625 
Q 24.65625 48.390625 19.8125 42.84375 
Q 14.984375 37.3125 14.984375 27.296875 
Q 14.984375 17.28125 19.8125 11.734375 
Q 24.65625 6.203125 33.40625 6.203125 
Q 37.3125 6.203125 41.140625 7.25 
Q 44.96875 8.296875 48.78125 10.40625 
L 48.78125 2.09375 
Q 45.015625 0.34375 40.984375 -0.53125 
Q 36.96875 -1.421875 32.421875 -1.421875 
Q 20.0625 -1.421875 12.78125 6.34375 
Q 5.515625 14.109375 5.515625 27.296875 
Q 5.515625 40.671875 12.859375 48.328125 
Q 20.21875 56 33.015625 56 
Q 37.15625 56 41.109375 55.140625 
Q 45.0625 54.296875 48.78125 52.59375 
z
" id="DejaVuSans-99"/>
      <path d="M 9.421875 54.6875 
L 18.40625 54.6875 
L 18.40625 0 
L 9.421875 0 
z
M 9.421875 75.984375 
L 18.40625 75.984375 
L 18.40625 64.59375 
L 9.421875 64.59375 
z
" id="DejaVuSans-105"/>
      <path d="M 45.40625 46.390625 
L 45.40625 75.984375 
L 54.390625 75.984375 
L 54.390625 0 
L 45.40625 0 
L 45.40625 8.203125 
Q 42.578125 3.328125 38.25 0.953125 
Q 33.9375 -1.421875 27.875 -1.421875 
Q 17.96875 -1.421875 11.734375 6.484375 
Q 5.515625 14.40625 5.515625 27.296875 
Q 5.515625 40.1875 11.734375 48.09375 
Q 17.96875 56 27.875 56 
Q 33.9375 56 38.25 53.625 
Q 42.578125 51.265625 45.40625 46.390625 
z
M 14.796875 27.296875 
Q 14.796875 17.390625 18.875 11.75 
Q 22.953125 6.109375 30.078125 6.109375 
Q 37.203125 6.109375 41.296875 11.75 
Q 45.40625 17.390625 45.40625 27.296875 
Q 45.40625 37.203125 41.296875 42.84375 
Q 37.203125 48.484375 30.078125 48.484375 
Q 22.953125 48.484375 18.875 42.84375 
Q 14.796875 37.203125 14.796875 27.296875 
z
" id="DejaVuSans-100"/>
      <path d="M 30.609375 48.390625 
Q 23.390625 48.390625 19.1875 42.75 
Q 14.984375 37.109375 14.984375 27.296875 
Q 14.984375 17.484375 19.15625 11.84375 
Q 23.34375 6.203125 30.609375 6.203125 
Q 37.796875 6.203125 41.984375 11.859375 
Q 46.1875 17.53125 46.1875 27.296875 
Q 46.1875 37.015625 41.984375 42.703125 
Q 37.796875 48.390625 30.609375 48.390625 
z
M 30.609375 56 
Q 42.328125 56 49.015625 48.375 
Q 55.71875 40.765625 55.71875 27.296875 
Q 55.71875 13.875 49.015625 6.21875 
Q 42.328125 -1.421875 30.609375 -1.421875 
Q 18.84375 -1.421875 12.171875 6.21875 
Q 5.515625 13.875 5.515625 27.296875 
Q 5.515625 40.765625 12.171875 48.375 
Q 18.84375 56 30.609375 56 
z
" id="DejaVuSans-111"/>
      <path d="M 44.28125 53.078125 
L 44.28125 44.578125 
Q 40.484375 46.53125 36.375 47.5 
Q 32.28125 48.484375 27.875 48.484375 
Q 21.1875 48.484375 17.84375 46.4375 
Q 14.5 44.390625 14.5 40.28125 
Q 14.5 37.15625 16.890625 35.375 
Q 19.28125 33.59375 26.515625 31.984375 
L 29.59375 31.296875 
Q 39.15625 29.25 43.1875 25.515625 
Q 47.21875 21.78125 47.21875 15.09375 
Q 47.21875 7.46875 41.1875 3.015625 
Q 35.15625 -1.421875 24.609375 -1.421875 
Q 20.21875 -1.421875 15.453125 -0.5625 
Q 10.6875 0.296875 5.421875 2 
L 5.421875 11.28125 
Q 10.40625 8.6875 15.234375 7.390625 
Q 20.0625 6.109375 24.8125 6.109375 
Q 31.15625 6.109375 34.5625 8.28125 
Q 37.984375 10.453125 37.984375 14.40625 
Q 37.984375 18.0625 35.515625 20.015625 
Q 33.0625 21.96875 24.703125 23.78125 
L 21.578125 24.515625 
Q 13.234375 26.265625 9.515625 29.90625 
Q 5.8125 33.546875 5.8125 39.890625 
Q 5.8125 47.609375 11.28125 51.796875 
Q 16.75 56 26.8125 56 
Q 31.78125 56 36.171875 55.265625 
Q 40.578125 54.546875 44.28125 53.078125 
z
" id="DejaVuSans-115"/>
      <path d="M 8.5 21.578125 
L 8.5 54.6875 
L 17.484375 54.6875 
L 17.484375 21.921875 
Q 17.484375 14.15625 20.5 10.265625 
Q 23.53125 6.390625 29.59375 6.390625 
Q 36.859375 6.390625 41.078125 11.03125 
Q 45.3125 15.671875 45.3125 23.6875 
L 45.3125 54.6875 
L 54.296875 54.6875 
L 54.296875 0 
L 45.3125 0 
L 45.3125 8.40625 
Q 42.046875 3.421875 37.71875 1 
Q 33.40625 -1.421875 27.6875 -1.421875 
Q 18.265625 -1.421875 13.375 4.4375 
Q 8.5 10.296875 8.5 21.578125 
z
M 31.109375 56 
z
" id="DejaVuSans-117"/>
      <path d="M 52 44.1875 
Q 55.375 50.25 60.0625 53.125 
Q 64.75 56 71.09375 56 
Q 79.640625 56 84.28125 50.015625 
Q 88.921875 44.046875 88.921875 33.015625 
L 88.921875 0 
L 79.890625 0 
L 79.890625 32.71875 
Q 79.890625 40.578125 77.09375 44.375 
Q 74.3125 48.1875 68.609375 48.1875 
Q 61.625 48.1875 57.5625 43.546875 
Q 53.515625 38.921875 53.515625 30.90625 
L 53.515625 0 
L 44.484375 0 
L 44.484375 32.71875 
Q 44.484375 40.625 41.703125 44.40625 
Q 38.921875 48.1875 33.109375 48.1875 
Q 26.21875 48.1875 22.15625 43.53125 
Q 18.109375 38.875 18.109375 30.90625 
L 18.109375 0 
L 9.078125 0 
L 9.078125 54.6875 
L 18.109375 54.6875 
L 18.109375 46.1875 
Q 21.1875 51.21875 25.484375 53.609375 
Q 29.78125 56 35.6875 56 
Q 41.65625 56 45.828125 52.96875 
Q 50 49.953125 52 44.1875 
z
" id="DejaVuSans-109"/>
     </defs>
     <g transform="translate(18.398438 209.061759)rotate(-90)scale(0.1 -0.1)">
      <use xlink:href="#DejaVuSans-69"/>
      <use x="63.183594" xlink:href="#DejaVuSans-88"/>
      <use x="131.689453" xlink:href="#DejaVuSans-32"/>
      <use x="163.476562" xlink:href="#DejaVuSans-102"/>
      <use x="198.681641" xlink:href="#DejaVuSans-97"/>
      <use x="259.960938" xlink:href="#DejaVuSans-108"/>
      <use x="287.744141" xlink:href="#DejaVuSans-108"/>
      <use x="315.527344" xlink:href="#DejaVuSans-101"/>
      <use x="377.050781" xlink:href="#DejaVuSans-99"/>
      <use x="432.03125" xlink:href="#DejaVuSans-105"/>
      <use x="459.814453" xlink:href="#DejaVuSans-100"/>
      <use x="523.291016" xlink:href="#DejaVuSans-111"/>
      <use x="584.472656" xlink:href="#DejaVuSans-115"/>
      <use x="636.572266" xlink:href="#DejaVuSans-32"/>
      <use x="668.359375" xlink:href="#DejaVuSans-97"/>
      <use x="729.638672" xlink:href="#DejaVuSans-99"/>
      <use x="784.619141" xlink:href="#DejaVuSans-117"/>
      <use x="847.998047" xlink:href="#DejaVuSans-109"/>
      <use x="945.410156" xlink:href="#DejaVuSans-117"/>
      <use x="1008.789062" xlink:href="#DejaVuSans-108"/>
      <use x="1036.572266" xlink:href="#DejaVuSans-97"/>
      <use x="1097.851562" xlink:href="#DejaVuSans-100"/>
      <use x="1161.328125" xlink:href="#DejaVuSans-111"/>
      <use x="1222.509766" xlink:href="#DejaVuSans-115"/>
     </g>
    </g>
   </g>
   <g id="line2d_16">
    <path clip-path="url(#p6fb11ab9a0)" d="M 68.721733 279.86258 
L 74.395517 279.86258 
L 80.0693 279.336399 
L 85.743084 279.336399 
L 91.416868 279.336399 
L 97.090652 278.810218 
L 102.764435 278.810218 
L 108.438219 278.810218 
L 114.112003 278.284037 
L 119.785787 276.705495 
L 125.45957 275.653133 
L 131.133354 274.600771 
L 136.807138 273.548409 
L 142.480922 272.496048 
L 148.154705 270.391324 
L 153.828489 266.181877 
L 159.502273 259.341526 
L 165.176056 249.34409 
L 170.84984 243.556101 
L 176.523624 233.558665 
L 182.197408 227.244494 
L 187.871191 224.087409 
L 193.544975 209.880526 
L 199.218759 199.88309 
L 204.892543 184.623845 
L 210.566326 174.626409 
L 216.24011 170.416962 
L 221.913894 165.155153 
L 227.587678 159.893345 
L 233.261461 144.107919 
L 238.935245 137.267568 
L 244.609029 130.953398 
L 250.282812 128.322494 
L 255.956596 120.429781 
L 261.63038 115.694153 
L 267.304164 110.958526 
L 272.977947 104.118174 
L 278.651731 99.908728 
L 284.325515 90.963653 
L 289.999299 84.123302 
L 295.673082 79.913855 
L 301.346866 77.809132 
L 307.02065 75.178227 
L 312.694434 70.968781 
L 318.368217 67.285515 
L 324.042001 65.706972 
L 329.715785 63.602249 
L 335.389569 60.971344 
L 341.063352 57.814259 
L 346.737136 54.657174 
L 352.41092 52.02627 
L 358.084703 48.343004 
L 363.758487 45.185919 
L 369.432271 42.555015 
L 375.106055 38.871749 
L 380.779838 37.819387 
L 386.453622 37.819387 
L 392.127406 36.767025 
L 397.80119 36.240844 
L 403.474973 34.136121 
L 409.148757 31.505217 
L 414.822541 28.874312 
L 420.496325 27.29577 
L 426.170108 25.717227 
L 431.843892 23.612504 
" style="fill:none;stroke:#1f77b4;stroke-linecap:square;stroke-width:1.5;"/>
    <defs>
     <path d="M 0 1.5 
C 0.397805 1.5 0.77937 1.341951 1.06066 1.06066 
C 1.341951 0.77937 1.5 0.397805 1.5 0 
C 1.5 -0.397805 1.341951 -0.77937 1.06066 -1.06066 
C 0.77937 -1.341951 0.397805 -1.5 0 -1.5 
C -0.397805 -1.5 -0.77937 -1.341951 -1.06066 -1.06066 
C -1.341951 -0.77937 -1.5 -0.397805 -1.5 0 
C -1.5 0.397805 -1.341951 0.77937 -1.06066 1.06066 
C -0.77937 1.341951 -0.397805 1.5 0 1.5 
z
" id="m2e16d9908a" style="stroke:#1f77b4;"/>
    </defs>
    <g clip-path="url(#p6fb11ab9a0)">
     <use style="fill:#1f77b4;stroke:#1f77b4;" x="68.721733" xlink:href="#m2e16d9908a" y="279.86258"/>
     <use style="fill:#1f77b4;stroke:#1f77b4;" x="74.395517" xlink:href="#m2e16d9908a" y="279.86258"/>
     <use style="fill:#1f77b4;stroke:#1f77b4;" x="80.0693" xlink:href="#m2e16d9908a" y="279.336399"/>
     <use style="fill:#1f77b4;stroke:#1f77b4;" x="85.743084" xlink:href="#m2e16d9908a" y="279.336399"/>
     <use style="fill:#1f77b4;stroke:#1f77b4;" x="91.416868" xlink:href="#m2e16d9908a" y="279.336399"/>
     <use style="fill:#1f77b4;stroke:#1f77b4;" x="97.090652" xlink:href="#m2e16d9908a" y="278.810218"/>
     <use style="fill:#1f77b4;stroke:#1f77b4;" x="102.764435" xlink:href="#m2e16d9908a" y="278.810218"/>
     <use style="fill:#1f77b4;stroke:#1f77b4;" x="108.438219" xlink:href="#m2e16d9908a" y="278.810218"/>
     <use style="fill:#1f77b4;stroke:#1f77b4;" x="114.112003" xlink:href="#m2e16d9908a" y="278.284037"/>
     <use style="fill:#1f77b4;stroke:#1f77b4;" x="119.785787" xlink:href="#m2e16d9908a" y="276.705495"/>
     <use style="fill:#1f77b4;stroke:#1f77b4;" x="125.45957" xlink:href="#m2e16d9908a" y="275.653133"/>
     <use style="fill:#1f77b4;stroke:#1f77b4;" x="131.133354" xlink:href="#m2e16d9908a" y="274.600771"/>
     <use style="fill:#1f77b4;stroke:#1f77b4;" x="136.807138" xlink:href="#m2e16d9908a" y="273.548409"/>
     <use style="fill:#1f77b4;stroke:#1f77b4;" x="142.480922" xlink:href="#m2e16d9908a" y="272.496048"/>
     <use style="fill:#1f77b4;stroke:#1f77b4;" x="148.154705" xlink:href="#m2e16d9908a" y="270.391324"/>
     <use style="fill:#1f77b4;stroke:#1f77b4;" x="153.828489" xlink:href="#m2e16d9908a" y="266.181877"/>
     <use style="fill:#1f77b4;stroke:#1f77b4;" x="159.502273" xlink:href="#m2e16d9908a" y="259.341526"/>
     <use style="fill:#1f77b4;stroke:#1f77b4;" x="165.176056" xlink:href="#m2e16d9908a" y="249.34409"/>
     <use style="fill:#1f77b4;stroke:#1f77b4;" x="170.84984" xlink:href="#m2e16d9908a" y="243.556101"/>
     <use style="fill:#1f77b4;stroke:#1f77b4;" x="176.523624" xlink:href="#m2e16d9908a" y="233.558665"/>
     <use style="fill:#1f77b4;stroke:#1f77b4;" x="182.197408" xlink:href="#m2e16d9908a" y="227.244494"/>
     <use style="fill:#1f77b4;stroke:#1f77b4;" x="187.871191" xlink:href="#m2e16d9908a" y="224.087409"/>
     <use style="fill:#1f77b4;stroke:#1f77b4;" x="193.544975" xlink:href="#m2e16d9908a" y="209.880526"/>
     <use style="fill:#1f77b4;stroke:#1f77b4;" x="199.218759" xlink:href="#m2e16d9908a" y="199.88309"/>
     <use style="fill:#1f77b4;stroke:#1f77b4;" x="204.892543" xlink:href="#m2e16d9908a" y="184.623845"/>
     <use style="fill:#1f77b4;stroke:#1f77b4;" x="210.566326" xlink:href="#m2e16d9908a" y="174.626409"/>
     <use style="fill:#1f77b4;stroke:#1f77b4;" x="216.24011" xlink:href="#m2e16d9908a" y="170.416962"/>
     <use style="fill:#1f77b4;stroke:#1f77b4;" x="221.913894" xlink:href="#m2e16d9908a" y="165.155153"/>
     <use style="fill:#1f77b4;stroke:#1f77b4;" x="227.587678" xlink:href="#m2e16d9908a" y="159.893345"/>
     <use style="fill:#1f77b4;stroke:#1f77b4;" x="233.261461" xlink:href="#m2e16d9908a" y="144.107919"/>
     <use style="fill:#1f77b4;stroke:#1f77b4;" x="238.935245" xlink:href="#m2e16d9908a" y="137.267568"/>
     <use style="fill:#1f77b4;stroke:#1f77b4;" x="244.609029" xlink:href="#m2e16d9908a" y="130.953398"/>
     <use style="fill:#1f77b4;stroke:#1f77b4;" x="250.282812" xlink:href="#m2e16d9908a" y="128.322494"/>
     <use style="fill:#1f77b4;stroke:#1f77b4;" x="255.956596" xlink:href="#m2e16d9908a" y="120.429781"/>
     <use style="fill:#1f77b4;stroke:#1f77b4;" x="261.63038" xlink:href="#m2e16d9908a" y="115.694153"/>
     <use style="fill:#1f77b4;stroke:#1f77b4;" x="267.304164" xlink:href="#m2e16d9908a" y="110.958526"/>
     <use style="fill:#1f77b4;stroke:#1f77b4;" x="272.977947" xlink:href="#m2e16d9908a" y="104.118174"/>
     <use style="fill:#1f77b4;stroke:#1f77b4;" x="278.651731" xlink:href="#m2e16d9908a" y="99.908728"/>
     <use style="fill:#1f77b4;stroke:#1f77b4;" x="284.325515" xlink:href="#m2e16d9908a" y="90.963653"/>
     <use style="fill:#1f77b4;stroke:#1f77b4;" x="289.999299" xlink:href="#m2e16d9908a" y="84.123302"/>
     <use style="fill:#1f77b4;stroke:#1f77b4;" x="295.673082" xlink:href="#m2e16d9908a" y="79.913855"/>
     <use style="fill:#1f77b4;stroke:#1f77b4;" x="301.346866" xlink:href="#m2e16d9908a" y="77.809132"/>
     <use style="fill:#1f77b4;stroke:#1f77b4;" x="307.02065" xlink:href="#m2e16d9908a" y="75.178227"/>
     <use style="fill:#1f77b4;stroke:#1f77b4;" x="312.694434" xlink:href="#m2e16d9908a" y="70.968781"/>
     <use style="fill:#1f77b4;stroke:#1f77b4;" x="318.368217" xlink:href="#m2e16d9908a" y="67.285515"/>
     <use style="fill:#1f77b4;stroke:#1f77b4;" x="324.042001" xlink:href="#m2e16d9908a" y="65.706972"/>
     <use style="fill:#1f77b4;stroke:#1f77b4;" x="329.715785" xlink:href="#m2e16d9908a" y="63.602249"/>
     <use style="fill:#1f77b4;stroke:#1f77b4;" x="335.389569" xlink:href="#m2e16d9908a" y="60.971344"/>
     <use style="fill:#1f77b4;stroke:#1f77b4;" x="341.063352" xlink:href="#m2e16d9908a" y="57.814259"/>
     <use style="fill:#1f77b4;stroke:#1f77b4;" x="346.737136" xlink:href="#m2e16d9908a" y="54.657174"/>
     <use style="fill:#1f77b4;stroke:#1f77b4;" x="352.41092" xlink:href="#m2e16d9908a" y="52.02627"/>
     <use style="fill:#1f77b4;stroke:#1f77b4;" x="358.084703" xlink:href="#m2e16d9908a" y="48.343004"/>
     <use style="fill:#1f77b4;stroke:#1f77b4;" x="363.758487" xlink:href="#m2e16d9908a" y="45.185919"/>
     <use style="fill:#1f77b4;stroke:#1f77b4;" x="369.432271" xlink:href="#m2e16d9908a" y="42.555015"/>
     <use style="fill:#1f77b4;stroke:#1f77b4;" x="375.106055" xlink:href="#m2e16d9908a" y="38.871749"/>
     <use style="fill:#1f77b4;stroke:#1f77b4;" x="380.779838" xlink:href="#m2e16d9908a" y="37.819387"/>
     <use style="fill:#1f77b4;stroke:#1f77b4;" x="386.453622" xlink:href="#m2e16d9908a" y="37.819387"/>
     <use style="fill:#1f77b4;stroke:#1f77b4;" x="392.127406" xlink:href="#m2e16d9908a" y="36.767025"/>
     <use style="fill:#1f77b4;stroke:#1f77b4;" x="397.80119" xlink:href="#m2e16d9908a" y="36.240844"/>
     <use style="fill:#1f77b4;stroke:#1f77b4;" x="403.474973" xlink:href="#m2e16d9908a" y="34.136121"/>
     <use style="fill:#1f77b4;stroke:#1f77b4;" x="409.148757" xlink:href="#m2e16d9908a" y="31.505217"/>
     <use style="fill:#1f77b4;stroke:#1f77b4;" x="414.822541" xlink:href="#m2e16d9908a" y="28.874312"/>
     <use style="fill:#1f77b4;stroke:#1f77b4;" x="420.496325" xlink:href="#m2e16d9908a" y="27.29577"/>
     <use style="fill:#1f77b4;stroke:#1f77b4;" x="426.170108" xlink:href="#m2e16d9908a" y="25.717227"/>
     <use style="fill:#1f77b4;stroke:#1f77b4;" x="431.843892" xlink:href="#m2e16d9908a" y="23.612504"/>
    </g>
   </g>
   <g id="patch_3">
    <path d="M 50.565625 279.86258 
L 50.565625 10.8 
" style="fill:none;stroke:#000000;stroke-linecap:square;stroke-linejoin:miter;stroke-width:0.8;"/>
   </g>
   <g id="patch_4">
    <path d="M 450 279.86258 
L 450 10.8 
" style="fill:none;stroke:#000000;stroke-linecap:square;stroke-linejoin:miter;stroke-width:0.8;"/>
   </g>
   <g id="patch_5">
    <path d="M 50.565625 279.86258 
L 450 279.86258 
" style="fill:none;stroke:#000000;stroke-linecap:square;stroke-linejoin:miter;stroke-width:0.8;"/>
   </g>
   <g id="patch_6">
    <path d="M 50.565625 10.8 
L 450 10.8 
" style="fill:none;stroke:#000000;stroke-linecap:square;stroke-linejoin:miter;stroke-width:0.8;"/>
   </g>
  </g>
 </g>
 <defs>
  <clipPath id="p6fb11ab9a0">
   <rect height="269.06258" width="399.434375" x="50.565625" y="10.8"/>
  </clipPath>
 </defs>
</svg>
