<?xml version="1.0" encoding="utf-8" standalone="no"?>
<!DOCTYPE svg PUBLIC "-//W3C//DTD SVG 1.1//EN"
  "http://www.w3.org/Graphics/SVG/1.1/DTD/svg11.dtd">
<!-- Created with matplotlib (https://matplotlib.org/) -->
<svg height="345.6pt" version="1.1" viewBox="0 0 460.8 345.6" width="460.8pt" xmlns="http://www.w3.org/2000/svg" xmlns:xlink="http://www.w3.org/1999/xlink">
 <defs>
  <style type="text/css">
*{stroke-linecap:butt;stroke-linejoin:round;}
  </style>
 </defs>
 <g id="figure_1">
  <g id="patch_1">
   <path d="M 0 345.6 
L 460.8 345.6 
L 460.8 0 
L 0 0 
z
" style="fill:#ffffff;"/>
  </g>
  <g id="axes_1">
   <g id="patch_2">
    <path d="M 53.74375 279.86258 
L 450 279.86258 
L 450 10.8 
L 53.74375 10.8 
z
" style="fill:#ffffff;"/>
   </g>
   <g id="matplotlib.axis_1">
    <g id="xtick_1">
     <g id="line2d_1">
      <defs>
       <path d="M 0 0 
L 0 3.5 
" id="m4ad74377f4" style="stroke:#000000;stroke-width:0.8;"/>
      </defs>
      <g>
       <use style="stroke:#000000;stroke-width:0.8;" x="106.778046" xlink:href="#m4ad74377f4" y="279.86258"/>
      </g>
     </g>
     <g id="text_1">
      <!-- 2020-03-15 -->
      <defs>
       <path d="M 19.1875 8.296875 
L 53.609375 8.296875 
L 53.609375 0 
L 7.328125 0 
L 7.328125 8.296875 
Q 12.9375 14.109375 22.625 23.890625 
Q 32.328125 33.6875 34.8125 36.53125 
Q 39.546875 41.84375 41.421875 45.53125 
Q 43.3125 49.21875 43.3125 52.78125 
Q 43.3125 58.59375 39.234375 62.25 
Q 35.15625 65.921875 28.609375 65.921875 
Q 23.96875 65.921875 18.8125 64.3125 
Q 13.671875 62.703125 7.8125 59.421875 
L 7.8125 69.390625 
Q 13.765625 71.78125 18.9375 73 
Q 24.125 74.21875 28.421875 74.21875 
Q 39.75 74.21875 46.484375 68.546875 
Q 53.21875 62.890625 53.21875 53.421875 
Q 53.21875 48.921875 51.53125 44.890625 
Q 49.859375 40.875 45.40625 35.40625 
Q 44.1875 33.984375 37.640625 27.21875 
Q 31.109375 20.453125 19.1875 8.296875 
z
" id="DejaVuSans-50"/>
       <path d="M 31.78125 66.40625 
Q 24.171875 66.40625 20.328125 58.90625 
Q 16.5 51.421875 16.5 36.375 
Q 16.5 21.390625 20.328125 13.890625 
Q 24.171875 6.390625 31.78125 6.390625 
Q 39.453125 6.390625 43.28125 13.890625 
Q 47.125 21.390625 47.125 36.375 
Q 47.125 51.421875 43.28125 58.90625 
Q 39.453125 66.40625 31.78125 66.40625 
z
M 31.78125 74.21875 
Q 44.046875 74.21875 50.515625 64.515625 
Q 56.984375 54.828125 56.984375 36.375 
Q 56.984375 17.96875 50.515625 8.265625 
Q 44.046875 -1.421875 31.78125 -1.421875 
Q 19.53125 -1.421875 13.0625 8.265625 
Q 6.59375 17.96875 6.59375 36.375 
Q 6.59375 54.828125 13.0625 64.515625 
Q 19.53125 74.21875 31.78125 74.21875 
z
" id="DejaVuSans-48"/>
       <path d="M 4.890625 31.390625 
L 31.203125 31.390625 
L 31.203125 23.390625 
L 4.890625 23.390625 
z
" id="DejaVuSans-45"/>
       <path d="M 40.578125 39.3125 
Q 47.65625 37.796875 51.625 33 
Q 55.609375 28.21875 55.609375 21.1875 
Q 55.609375 10.40625 48.1875 4.484375 
Q 40.765625 -1.421875 27.09375 -1.421875 
Q 22.515625 -1.421875 17.65625 -0.515625 
Q 12.796875 0.390625 7.625 2.203125 
L 7.625 11.71875 
Q 11.71875 9.328125 16.59375 8.109375 
Q 21.484375 6.890625 26.8125 6.890625 
Q 36.078125 6.890625 40.9375 10.546875 
Q 45.796875 14.203125 45.796875 21.1875 
Q 45.796875 27.640625 41.28125 31.265625 
Q 36.765625 34.90625 28.71875 34.90625 
L 20.21875 34.90625 
L 20.21875 43.015625 
L 29.109375 43.015625 
Q 36.375 43.015625 40.234375 45.921875 
Q 44.09375 48.828125 44.09375 54.296875 
Q 44.09375 59.90625 40.109375 62.90625 
Q 36.140625 65.921875 28.71875 65.921875 
Q 24.65625 65.921875 20.015625 65.03125 
Q 15.375 64.15625 9.8125 62.3125 
L 9.8125 71.09375 
Q 15.4375 72.65625 20.34375 73.4375 
Q 25.25 74.21875 29.59375 74.21875 
Q 40.828125 74.21875 47.359375 69.109375 
Q 53.90625 64.015625 53.90625 55.328125 
Q 53.90625 49.265625 50.4375 45.09375 
Q 46.96875 40.921875 40.578125 39.3125 
z
" id="DejaVuSans-51"/>
       <path d="M 12.40625 8.296875 
L 28.515625 8.296875 
L 28.515625 63.921875 
L 10.984375 60.40625 
L 10.984375 69.390625 
L 28.421875 72.90625 
L 38.28125 72.90625 
L 38.28125 8.296875 
L 54.390625 8.296875 
L 54.390625 0 
L 12.40625 0 
z
" id="DejaVuSans-49"/>
       <path d="M 10.796875 72.90625 
L 49.515625 72.90625 
L 49.515625 64.59375 
L 19.828125 64.59375 
L 19.828125 46.734375 
Q 21.96875 47.46875 24.109375 47.828125 
Q 26.265625 48.1875 28.421875 48.1875 
Q 40.625 48.1875 47.75 41.5 
Q 54.890625 34.8125 54.890625 23.390625 
Q 54.890625 11.625 47.5625 5.09375 
Q 40.234375 -1.421875 26.90625 -1.421875 
Q 22.3125 -1.421875 17.546875 -0.640625 
Q 12.796875 0.140625 7.71875 1.703125 
L 7.71875 11.625 
Q 12.109375 9.234375 16.796875 8.0625 
Q 21.484375 6.890625 26.703125 6.890625 
Q 35.15625 6.890625 40.078125 11.328125 
Q 45.015625 15.765625 45.015625 23.390625 
Q 45.015625 31 40.078125 35.4375 
Q 35.15625 39.890625 26.703125 39.890625 
Q 22.75 39.890625 18.8125 39.015625 
Q 14.890625 38.140625 10.796875 36.28125 
z
" id="DejaVuSans-53"/>
      </defs>
      <g transform="translate(88.182243 333.329439)rotate(-45)scale(0.1 -0.1)">
       <use xlink:href="#DejaVuSans-50"/>
       <use x="63.623047" xlink:href="#DejaVuSans-48"/>
       <use x="127.246094" xlink:href="#DejaVuSans-50"/>
       <use x="190.869141" xlink:href="#DejaVuSans-48"/>
       <use x="254.492188" xlink:href="#DejaVuSans-45"/>
       <use x="290.576172" xlink:href="#DejaVuSans-48"/>
       <use x="354.199219" xlink:href="#DejaVuSans-51"/>
       <use x="417.822266" xlink:href="#DejaVuSans-45"/>
       <use x="453.90625" xlink:href="#DejaVuSans-49"/>
       <use x="517.529297" xlink:href="#DejaVuSans-53"/>
      </g>
     </g>
    </g>
    <g id="xtick_2">
     <g id="line2d_2">
      <g>
       <use style="stroke:#000000;stroke-width:0.8;" x="191.833049" xlink:href="#m4ad74377f4" y="279.86258"/>
      </g>
     </g>
     <g id="text_2">
      <!-- 2020-04-01 -->
      <defs>
       <path d="M 37.796875 64.3125 
L 12.890625 25.390625 
L 37.796875 25.390625 
z
M 35.203125 72.90625 
L 47.609375 72.90625 
L 47.609375 25.390625 
L 58.015625 25.390625 
L 58.015625 17.1875 
L 47.609375 17.1875 
L 47.609375 0 
L 37.796875 0 
L 37.796875 17.1875 
L 4.890625 17.1875 
L 4.890625 26.703125 
z
" id="DejaVuSans-52"/>
      </defs>
      <g transform="translate(173.237246 333.329439)rotate(-45)scale(0.1 -0.1)">
       <use xlink:href="#DejaVuSans-50"/>
       <use x="63.623047" xlink:href="#DejaVuSans-48"/>
       <use x="127.246094" xlink:href="#DejaVuSans-50"/>
       <use x="190.869141" xlink:href="#DejaVuSans-48"/>
       <use x="254.492188" xlink:href="#DejaVuSans-45"/>
       <use x="290.576172" xlink:href="#DejaVuSans-48"/>
       <use x="354.199219" xlink:href="#DejaVuSans-52"/>
       <use x="417.822266" xlink:href="#DejaVuSans-45"/>
       <use x="453.90625" xlink:href="#DejaVuSans-48"/>
       <use x="517.529297" xlink:href="#DejaVuSans-49"/>
      </g>
     </g>
    </g>
    <g id="xtick_3">
     <g id="line2d_3">
      <g>
       <use style="stroke:#000000;stroke-width:0.8;" x="261.878346" xlink:href="#m4ad74377f4" y="279.86258"/>
      </g>
     </g>
     <g id="text_3">
      <!-- 2020-04-15 -->
      <g transform="translate(243.282542 333.329439)rotate(-45)scale(0.1 -0.1)">
       <use xlink:href="#DejaVuSans-50"/>
       <use x="63.623047" xlink:href="#DejaVuSans-48"/>
       <use x="127.246094" xlink:href="#DejaVuSans-50"/>
       <use x="190.869141" xlink:href="#DejaVuSans-48"/>
       <use x="254.492188" xlink:href="#DejaVuSans-45"/>
       <use x="290.576172" xlink:href="#DejaVuSans-48"/>
       <use x="354.199219" xlink:href="#DejaVuSans-52"/>
       <use x="417.822266" xlink:href="#DejaVuSans-45"/>
       <use x="453.90625" xlink:href="#DejaVuSans-49"/>
       <use x="517.529297" xlink:href="#DejaVuSans-53"/>
      </g>
     </g>
    </g>
    <g id="xtick_4">
     <g id="line2d_4">
      <g>
       <use style="stroke:#000000;stroke-width:0.8;" x="341.930114" xlink:href="#m4ad74377f4" y="279.86258"/>
      </g>
     </g>
     <g id="text_4">
      <!-- 2020-05-01 -->
      <g transform="translate(323.33431 333.329439)rotate(-45)scale(0.1 -0.1)">
       <use xlink:href="#DejaVuSans-50"/>
       <use x="63.623047" xlink:href="#DejaVuSans-48"/>
       <use x="127.246094" xlink:href="#DejaVuSans-50"/>
       <use x="190.869141" xlink:href="#DejaVuSans-48"/>
       <use x="254.492188" xlink:href="#DejaVuSans-45"/>
       <use x="290.576172" xlink:href="#DejaVuSans-48"/>
       <use x="354.199219" xlink:href="#DejaVuSans-53"/>
       <use x="417.822266" xlink:href="#DejaVuSans-45"/>
       <use x="453.90625" xlink:href="#DejaVuSans-48"/>
       <use x="517.529297" xlink:href="#DejaVuSans-49"/>
      </g>
     </g>
    </g>
    <g id="xtick_5">
     <g id="line2d_5">
      <g>
       <use style="stroke:#000000;stroke-width:0.8;" x="411.97541" xlink:href="#m4ad74377f4" y="279.86258"/>
      </g>
     </g>
     <g id="text_5">
      <!-- 2020-05-15 -->
      <g transform="translate(393.379607 333.329439)rotate(-45)scale(0.1 -0.1)">
       <use xlink:href="#DejaVuSans-50"/>
       <use x="63.623047" xlink:href="#DejaVuSans-48"/>
       <use x="127.246094" xlink:href="#DejaVuSans-50"/>
       <use x="190.869141" xlink:href="#DejaVuSans-48"/>
       <use x="254.492188" xlink:href="#DejaVuSans-45"/>
       <use x="290.576172" xlink:href="#DejaVuSans-48"/>
       <use x="354.199219" xlink:href="#DejaVuSans-53"/>
       <use x="417.822266" xlink:href="#DejaVuSans-45"/>
       <use x="453.90625" xlink:href="#DejaVuSans-49"/>
       <use x="517.529297" xlink:href="#DejaVuSans-53"/>
      </g>
     </g>
    </g>
   </g>
   <g id="matplotlib.axis_2">
    <g id="ytick_1">
     <g id="line2d_6">
      <defs>
       <path d="M 0 0 
L -3.5 0 
" id="m2145b34cfc" style="stroke:#000000;stroke-width:0.8;"/>
      </defs>
      <g>
       <use style="stroke:#000000;stroke-width:0.8;" x="53.74375" xlink:href="#m2145b34cfc" y="279.86258"/>
      </g>
     </g>
     <g id="text_6">
      <!-- 0.00 -->
      <defs>
       <path d="M 10.6875 12.40625 
L 21 12.40625 
L 21 0 
L 10.6875 0 
z
" id="DejaVuSans-46"/>
      </defs>
      <g transform="translate(24.478125 283.661798)scale(0.1 -0.1)">
       <use xlink:href="#DejaVuSans-48"/>
       <use x="63.623047" xlink:href="#DejaVuSans-46"/>
       <use x="95.410156" xlink:href="#DejaVuSans-48"/>
       <use x="159.033203" xlink:href="#DejaVuSans-48"/>
      </g>
     </g>
    </g>
    <g id="ytick_2">
     <g id="line2d_7">
      <g>
       <use style="stroke:#000000;stroke-width:0.8;" x="53.74375" xlink:href="#m2145b34cfc" y="247.83132"/>
      </g>
     </g>
     <g id="text_7">
      <!-- 0.25 -->
      <g transform="translate(24.478125 251.630539)scale(0.1 -0.1)">
       <use xlink:href="#DejaVuSans-48"/>
       <use x="63.623047" xlink:href="#DejaVuSans-46"/>
       <use x="95.410156" xlink:href="#DejaVuSans-50"/>
       <use x="159.033203" xlink:href="#DejaVuSans-53"/>
      </g>
     </g>
    </g>
    <g id="ytick_3">
     <g id="line2d_8">
      <g>
       <use style="stroke:#000000;stroke-width:0.8;" x="53.74375" xlink:href="#m2145b34cfc" y="215.800061"/>
      </g>
     </g>
     <g id="text_8">
      <!-- 0.50 -->
      <g transform="translate(24.478125 219.599279)scale(0.1 -0.1)">
       <use xlink:href="#DejaVuSans-48"/>
       <use x="63.623047" xlink:href="#DejaVuSans-46"/>
       <use x="95.410156" xlink:href="#DejaVuSans-53"/>
       <use x="159.033203" xlink:href="#DejaVuSans-48"/>
      </g>
     </g>
    </g>
    <g id="ytick_4">
     <g id="line2d_9">
      <g>
       <use style="stroke:#000000;stroke-width:0.8;" x="53.74375" xlink:href="#m2145b34cfc" y="183.768801"/>
      </g>
     </g>
     <g id="text_9">
      <!-- 0.75 -->
      <defs>
       <path d="M 8.203125 72.90625 
L 55.078125 72.90625 
L 55.078125 68.703125 
L 28.609375 0 
L 18.3125 0 
L 43.21875 64.59375 
L 8.203125 64.59375 
z
" id="DejaVuSans-55"/>
      </defs>
      <g transform="translate(24.478125 187.56802)scale(0.1 -0.1)">
       <use xlink:href="#DejaVuSans-48"/>
       <use x="63.623047" xlink:href="#DejaVuSans-46"/>
       <use x="95.410156" xlink:href="#DejaVuSans-55"/>
       <use x="159.033203" xlink:href="#DejaVuSans-53"/>
      </g>
     </g>
    </g>
    <g id="ytick_5">
     <g id="line2d_10">
      <g>
       <use style="stroke:#000000;stroke-width:0.8;" x="53.74375" xlink:href="#m2145b34cfc" y="151.737542"/>
      </g>
     </g>
     <g id="text_10">
      <!-- 1.00 -->
      <g transform="translate(24.478125 155.53676)scale(0.1 -0.1)">
       <use xlink:href="#DejaVuSans-49"/>
       <use x="63.623047" xlink:href="#DejaVuSans-46"/>
       <use x="95.410156" xlink:href="#DejaVuSans-48"/>
       <use x="159.033203" xlink:href="#DejaVuSans-48"/>
      </g>
     </g>
    </g>
    <g id="ytick_6">
     <g id="line2d_11">
      <g>
       <use style="stroke:#000000;stroke-width:0.8;" x="53.74375" xlink:href="#m2145b34cfc" y="119.706282"/>
      </g>
     </g>
     <g id="text_11">
      <!-- 1.25 -->
      <g transform="translate(24.478125 123.505501)scale(0.1 -0.1)">
       <use xlink:href="#DejaVuSans-49"/>
       <use x="63.623047" xlink:href="#DejaVuSans-46"/>
       <use x="95.410156" xlink:href="#DejaVuSans-50"/>
       <use x="159.033203" xlink:href="#DejaVuSans-53"/>
      </g>
     </g>
    </g>
    <g id="ytick_7">
     <g id="line2d_12">
      <g>
       <use style="stroke:#000000;stroke-width:0.8;" x="53.74375" xlink:href="#m2145b34cfc" y="87.675023"/>
      </g>
     </g>
     <g id="text_12">
      <!-- 1.50 -->
      <g transform="translate(24.478125 91.474242)scale(0.1 -0.1)">
       <use xlink:href="#DejaVuSans-49"/>
       <use x="63.623047" xlink:href="#DejaVuSans-46"/>
       <use x="95.410156" xlink:href="#DejaVuSans-53"/>
       <use x="159.033203" xlink:href="#DejaVuSans-48"/>
      </g>
     </g>
    </g>
    <g id="ytick_8">
     <g id="line2d_13">
      <g>
       <use style="stroke:#000000;stroke-width:0.8;" x="53.74375" xlink:href="#m2145b34cfc" y="55.643763"/>
      </g>
     </g>
     <g id="text_13">
      <!-- 1.75 -->
      <g transform="translate(24.478125 59.442982)scale(0.1 -0.1)">
       <use xlink:href="#DejaVuSans-49"/>
       <use x="63.623047" xlink:href="#DejaVuSans-46"/>
       <use x="95.410156" xlink:href="#DejaVuSans-55"/>
       <use x="159.033203" xlink:href="#DejaVuSans-53"/>
      </g>
     </g>
    </g>
    <g id="ytick_9">
     <g id="line2d_14">
      <g>
       <use style="stroke:#000000;stroke-width:0.8;" x="53.74375" xlink:href="#m2145b34cfc" y="23.612504"/>
      </g>
     </g>
     <g id="text_14">
      <!-- 2.00 -->
      <g transform="translate(24.478125 27.411723)scale(0.1 -0.1)">
       <use xlink:href="#DejaVuSans-50"/>
       <use x="63.623047" xlink:href="#DejaVuSans-46"/>
       <use x="95.410156" xlink:href="#DejaVuSans-48"/>
       <use x="159.033203" xlink:href="#DejaVuSans-48"/>
      </g>
     </g>
    </g>
    <g id="text_15">
     <!-- ML fallecidos acumulados -->
     <defs>
      <path d="M 9.8125 72.90625 
L 24.515625 72.90625 
L 43.109375 23.296875 
L 61.8125 72.90625 
L 76.515625 72.90625 
L 76.515625 0 
L 66.890625 0 
L 66.890625 64.015625 
L 48.09375 14.015625 
L 38.1875 14.015625 
L 19.390625 64.015625 
L 19.390625 0 
L 9.8125 0 
z
" id="DejaVuSans-77"/>
      <path d="M 9.8125 72.90625 
L 19.671875 72.90625 
L 19.671875 8.296875 
L 55.171875 8.296875 
L 55.171875 0 
L 9.8125 0 
z
" id="DejaVuSans-76"/>
      <path id="DejaVuSans-32"/>
      <path d="M 37.109375 75.984375 
L 37.109375 68.5 
L 28.515625 68.5 
Q 23.6875 68.5 21.796875 66.546875 
Q 19.921875 64.59375 19.921875 59.515625 
L 19.921875 54.6875 
L 34.71875 54.6875 
L 34.71875 47.703125 
L 19.921875 47.703125 
L 19.921875 0 
L 10.890625 0 
L 10.890625 47.703125 
L 2.296875 47.703125 
L 2.296875 54.6875 
L 10.890625 54.6875 
L 10.890625 58.5 
Q 10.890625 67.625 15.140625 71.796875 
Q 19.390625 75.984375 28.609375 75.984375 
z
" id="DejaVuSans-102"/>
      <path d="M 34.28125 27.484375 
Q 23.390625 27.484375 19.1875 25 
Q 14.984375 22.515625 14.984375 16.5 
Q 14.984375 11.71875 18.140625 8.90625 
Q 21.296875 6.109375 26.703125 6.109375 
Q 34.1875 6.109375 38.703125 11.40625 
Q 43.21875 16.703125 43.21875 25.484375 
L 43.21875 27.484375 
z
M 52.203125 31.203125 
L 52.203125 0 
L 43.21875 0 
L 43.21875 8.296875 
Q 40.140625 3.328125 35.546875 0.953125 
Q 30.953125 -1.421875 24.3125 -1.421875 
Q 15.921875 -1.421875 10.953125 3.296875 
Q 6 8.015625 6 15.921875 
Q 6 25.140625 12.171875 29.828125 
Q 18.359375 34.515625 30.609375 34.515625 
L 43.21875 34.515625 
L 43.21875 35.40625 
Q 43.21875 41.609375 39.140625 45 
Q 35.0625 48.390625 27.6875 48.390625 
Q 23 48.390625 18.546875 47.265625 
Q 14.109375 46.140625 10.015625 43.890625 
L 10.015625 52.203125 
Q 14.9375 54.109375 19.578125 55.046875 
Q 24.21875 56 28.609375 56 
Q 40.484375 56 46.34375 49.84375 
Q 52.203125 43.703125 52.203125 31.203125 
z
" id="DejaVuSans-97"/>
      <path d="M 9.421875 75.984375 
L 18.40625 75.984375 
L 18.40625 0 
L 9.421875 0 
z
" id="DejaVuSans-108"/>
      <path d="M 56.203125 29.59375 
L 56.203125 25.203125 
L 14.890625 25.203125 
Q 15.484375 15.921875 20.484375 11.0625 
Q 25.484375 6.203125 34.421875 6.203125 
Q 39.59375 6.203125 44.453125 7.46875 
Q 49.3125 8.734375 54.109375 11.28125 
L 54.109375 2.78125 
Q 49.265625 0.734375 44.1875 -0.34375 
Q 39.109375 -1.421875 33.890625 -1.421875 
Q 20.796875 -1.421875 13.15625 6.1875 
Q 5.515625 13.8125 5.515625 26.8125 
Q 5.515625 40.234375 12.765625 48.109375 
Q 20.015625 56 32.328125 56 
Q 43.359375 56 49.78125 48.890625 
Q 56.203125 41.796875 56.203125 29.59375 
z
M 47.21875 32.234375 
Q 47.125 39.59375 43.09375 43.984375 
Q 39.0625 48.390625 32.421875 48.390625 
Q 24.90625 48.390625 20.390625 44.140625 
Q 15.875 39.890625 15.1875 32.171875 
z
" id="DejaVuSans-101"/>
      <path d="M 48.78125 52.59375 
L 48.78125 44.1875 
Q 44.96875 46.296875 41.140625 47.34375 
Q 37.3125 48.390625 33.40625 48.390625 
Q 24.65625 48.390625 19.8125 42.84375 
Q 14.984375 37.3125 14.984375 27.296875 
Q 14.984375 17.28125 19.8125 11.734375 
Q 24.65625 6.203125 33.40625 6.203125 
Q 37.3125 6.203125 41.140625 7.25 
Q 44.96875 8.296875 48.78125 10.40625 
L 48.78125 2.09375 
Q 45.015625 0.34375 40.984375 -0.53125 
Q 36.96875 -1.421875 32.421875 -1.421875 
Q 20.0625 -1.421875 12.78125 6.34375 
Q 5.515625 14.109375 5.515625 27.296875 
Q 5.515625 40.671875 12.859375 48.328125 
Q 20.21875 56 33.015625 56 
Q 37.15625 56 41.109375 55.140625 
Q 45.0625 54.296875 48.78125 52.59375 
z
" id="DejaVuSans-99"/>
      <path d="M 9.421875 54.6875 
L 18.40625 54.6875 
L 18.40625 0 
L 9.421875 0 
z
M 9.421875 75.984375 
L 18.40625 75.984375 
L 18.40625 64.59375 
L 9.421875 64.59375 
z
" id="DejaVuSans-105"/>
      <path d="M 45.40625 46.390625 
L 45.40625 75.984375 
L 54.390625 75.984375 
L 54.390625 0 
L 45.40625 0 
L 45.40625 8.203125 
Q 42.578125 3.328125 38.25 0.953125 
Q 33.9375 -1.421875 27.875 -1.421875 
Q 17.96875 -1.421875 11.734375 6.484375 
Q 5.515625 14.40625 5.515625 27.296875 
Q 5.515625 40.1875 11.734375 48.09375 
Q 17.96875 56 27.875 56 
Q 33.9375 56 38.25 53.625 
Q 42.578125 51.265625 45.40625 46.390625 
z
M 14.796875 27.296875 
Q 14.796875 17.390625 18.875 11.75 
Q 22.953125 6.109375 30.078125 6.109375 
Q 37.203125 6.109375 41.296875 11.75 
Q 45.40625 17.390625 45.40625 27.296875 
Q 45.40625 37.203125 41.296875 42.84375 
Q 37.203125 48.484375 30.078125 48.484375 
Q 22.953125 48.484375 18.875 42.84375 
Q 14.796875 37.203125 14.796875 27.296875 
z
" id="DejaVuSans-100"/>
      <path d="M 30.609375 48.390625 
Q 23.390625 48.390625 19.1875 42.75 
Q 14.984375 37.109375 14.984375 27.296875 
Q 14.984375 17.484375 19.15625 11.84375 
Q 23.34375 6.203125 30.609375 6.203125 
Q 37.796875 6.203125 41.984375 11.859375 
Q 46.1875 17.53125 46.1875 27.296875 
Q 46.1875 37.015625 41.984375 42.703125 
Q 37.796875 48.390625 30.609375 48.390625 
z
M 30.609375 56 
Q 42.328125 56 49.015625 48.375 
Q 55.71875 40.765625 55.71875 27.296875 
Q 55.71875 13.875 49.015625 6.21875 
Q 42.328125 -1.421875 30.609375 -1.421875 
Q 18.84375 -1.421875 12.171875 6.21875 
Q 5.515625 13.875 5.515625 27.296875 
Q 5.515625 40.765625 12.171875 48.375 
Q 18.84375 56 30.609375 56 
z
" id="DejaVuSans-111"/>
      <path d="M 44.28125 53.078125 
L 44.28125 44.578125 
Q 40.484375 46.53125 36.375 47.5 
Q 32.28125 48.484375 27.875 48.484375 
Q 21.1875 48.484375 17.84375 46.4375 
Q 14.5 44.390625 14.5 40.28125 
Q 14.5 37.15625 16.890625 35.375 
Q 19.28125 33.59375 26.515625 31.984375 
L 29.59375 31.296875 
Q 39.15625 29.25 43.1875 25.515625 
Q 47.21875 21.78125 47.21875 15.09375 
Q 47.21875 7.46875 41.1875 3.015625 
Q 35.15625 -1.421875 24.609375 -1.421875 
Q 20.21875 -1.421875 15.453125 -0.5625 
Q 10.6875 0.296875 5.421875 2 
L 5.421875 11.28125 
Q 10.40625 8.6875 15.234375 7.390625 
Q 20.0625 6.109375 24.8125 6.109375 
Q 31.15625 6.109375 34.5625 8.28125 
Q 37.984375 10.453125 37.984375 14.40625 
Q 37.984375 18.0625 35.515625 20.015625 
Q 33.0625 21.96875 24.703125 23.78125 
L 21.578125 24.515625 
Q 13.234375 26.265625 9.515625 29.90625 
Q 5.8125 33.546875 5.8125 39.890625 
Q 5.8125 47.609375 11.28125 51.796875 
Q 16.75 56 26.8125 56 
Q 31.78125 56 36.171875 55.265625 
Q 40.578125 54.546875 44.28125 53.078125 
z
" id="DejaVuSans-115"/>
      <path d="M 8.5 21.578125 
L 8.5 54.6875 
L 17.484375 54.6875 
L 17.484375 21.921875 
Q 17.484375 14.15625 20.5 10.265625 
Q 23.53125 6.390625 29.59375 6.390625 
Q 36.859375 6.390625 41.078125 11.03125 
Q 45.3125 15.671875 45.3125 23.6875 
L 45.3125 54.6875 
L 54.296875 54.6875 
L 54.296875 0 
L 45.3125 0 
L 45.3125 8.40625 
Q 42.046875 3.421875 37.71875 1 
Q 33.40625 -1.421875 27.6875 -1.421875 
Q 18.265625 -1.421875 13.375 4.4375 
Q 8.5 10.296875 8.5 21.578125 
z
M 31.109375 56 
z
" id="DejaVuSans-117"/>
      <path d="M 52 44.1875 
Q 55.375 50.25 60.0625 53.125 
Q 64.75 56 71.09375 56 
Q 79.640625 56 84.28125 50.015625 
Q 88.921875 44.046875 88.921875 33.015625 
L 88.921875 0 
L 79.890625 0 
L 79.890625 32.71875 
Q 79.890625 40.578125 77.09375 44.375 
Q 74.3125 48.1875 68.609375 48.1875 
Q 61.625 48.1875 57.5625 43.546875 
Q 53.515625 38.921875 53.515625 30.90625 
L 53.515625 0 
L 44.484375 0 
L 44.484375 32.71875 
Q 44.484375 40.625 41.703125 44.40625 
Q 38.921875 48.1875 33.109375 48.1875 
Q 26.21875 48.1875 22.15625 43.53125 
Q 18.109375 38.875 18.109375 30.90625 
L 18.109375 0 
L 9.078125 0 
L 9.078125 54.6875 
L 18.109375 54.6875 
L 18.109375 46.1875 
Q 21.1875 51.21875 25.484375 53.609375 
Q 29.78125 56 35.6875 56 
Q 41.65625 56 45.828125 52.96875 
Q 50 49.953125 52 44.1875 
z
" id="DejaVuSans-109"/>
     </defs>
     <g transform="translate(18.398438 209.577384)rotate(-90)scale(0.1 -0.1)">
      <use xlink:href="#DejaVuSans-77"/>
      <use x="86.279297" xlink:href="#DejaVuSans-76"/>
      <use x="141.992188" xlink:href="#DejaVuSans-32"/>
      <use x="173.779297" xlink:href="#DejaVuSans-102"/>
      <use x="208.984375" xlink:href="#DejaVuSans-97"/>
      <use x="270.263672" xlink:href="#DejaVuSans-108"/>
      <use x="298.046875" xlink:href="#DejaVuSans-108"/>
      <use x="325.830078" xlink:href="#DejaVuSans-101"/>
      <use x="387.353516" xlink:href="#DejaVuSans-99"/>
      <use x="442.333984" xlink:href="#DejaVuSans-105"/>
      <use x="470.117188" xlink:href="#DejaVuSans-100"/>
      <use x="533.59375" xlink:href="#DejaVuSans-111"/>
      <use x="594.775391" xlink:href="#DejaVuSans-115"/>
      <use x="646.875" xlink:href="#DejaVuSans-32"/>
      <use x="678.662109" xlink:href="#DejaVuSans-97"/>
      <use x="739.941406" xlink:href="#DejaVuSans-99"/>
      <use x="794.921875" xlink:href="#DejaVuSans-117"/>
      <use x="858.300781" xlink:href="#DejaVuSans-109"/>
      <use x="955.712891" xlink:href="#DejaVuSans-117"/>
      <use x="1019.091797" xlink:href="#DejaVuSans-108"/>
      <use x="1046.875" xlink:href="#DejaVuSans-97"/>
      <use x="1108.154297" xlink:href="#DejaVuSans-100"/>
      <use x="1171.630859" xlink:href="#DejaVuSans-111"/>
      <use x="1232.8125" xlink:href="#DejaVuSans-115"/>
     </g>
    </g>
   </g>
   <g id="line2d_15">
    <path clip-path="url(#p1daba8d9be)" d="M 71.755398 279.86258 
L 76.758633 279.86258 
L 81.761869 279.86258 
L 86.765104 279.86258 
L 91.76834 279.86258 
L 96.771575 279.86258 
L 101.774811 279.86258 
L 106.778046 279.86258 
L 111.781282 279.86258 
L 116.784517 279.86258 
L 121.787753 279.86258 
L 126.790988 279.86258 
L 131.794223 279.86258 
L 136.797459 279.86258 
L 141.800694 279.86258 
L 146.80393 279.86258 
L 151.807165 279.86258 
L 156.810401 151.737542 
L 161.813636 151.737542 
L 166.816872 151.737542 
L 171.820107 151.737542 
L 176.823343 151.737542 
L 181.826578 151.737542 
L 186.829814 151.737542 
L 191.833049 151.737542 
L 196.836285 23.612504 
L 201.83952 23.612504 
L 206.842756 23.612504 
L 211.845991 23.612504 
L 216.849227 23.612504 
L 221.852462 23.612504 
L 226.855698 23.612504 
L 231.858933 23.612504 
L 236.862169 23.612504 
L 241.865404 23.612504 
L 246.86864 23.612504 
L 251.871875 23.612504 
L 256.87511 23.612504 
L 261.878346 23.612504 
L 266.881581 23.612504 
L 271.884817 23.612504 
L 276.888052 23.612504 
L 281.891288 23.612504 
L 286.894523 23.612504 
L 291.897759 23.612504 
L 296.900994 23.612504 
L 301.90423 23.612504 
L 306.907465 23.612504 
L 311.910701 23.612504 
L 316.913936 23.612504 
L 321.917172 23.612504 
L 326.920407 23.612504 
L 331.923643 23.612504 
L 336.926878 23.612504 
L 341.930114 23.612504 
L 346.933349 23.612504 
L 351.936585 23.612504 
L 356.93982 23.612504 
L 361.943056 23.612504 
L 366.946291 23.612504 
L 371.949527 23.612504 
L 376.952762 23.612504 
L 381.955997 23.612504 
L 386.959233 23.612504 
L 391.962468 23.612504 
L 396.965704 23.612504 
L 401.968939 23.612504 
L 406.972175 23.612504 
L 411.97541 23.612504 
L 416.978646 23.612504 
L 421.981881 23.612504 
L 426.985117 23.612504 
L 431.988352 23.612504 
" style="fill:none;stroke:#1f77b4;stroke-linecap:square;stroke-width:1.5;"/>
    <defs>
     <path d="M 0 1.5 
C 0.397805 1.5 0.77937 1.341951 1.06066 1.06066 
C 1.341951 0.77937 1.5 0.397805 1.5 0 
C 1.5 -0.397805 1.341951 -0.77937 1.06066 -1.06066 
C 0.77937 -1.341951 0.397805 -1.5 0 -1.5 
C -0.397805 -1.5 -0.77937 -1.341951 -1.06066 -1.06066 
C -1.341951 -0.77937 -1.5 -0.397805 -1.5 0 
C -1.5 0.397805 -1.341951 0.77937 -1.06066 1.06066 
C -0.77937 1.341951 -0.397805 1.5 0 1.5 
z
" id="m262feaf4ee" style="stroke:#1f77b4;"/>
    </defs>
    <g clip-path="url(#p1daba8d9be)">
     <use style="fill:#1f77b4;stroke:#1f77b4;" x="71.755398" xlink:href="#m262feaf4ee" y="279.86258"/>
     <use style="fill:#1f77b4;stroke:#1f77b4;" x="76.758633" xlink:href="#m262feaf4ee" y="279.86258"/>
     <use style="fill:#1f77b4;stroke:#1f77b4;" x="81.761869" xlink:href="#m262feaf4ee" y="279.86258"/>
     <use style="fill:#1f77b4;stroke:#1f77b4;" x="86.765104" xlink:href="#m262feaf4ee" y="279.86258"/>
     <use style="fill:#1f77b4;stroke:#1f77b4;" x="91.76834" xlink:href="#m262feaf4ee" y="279.86258"/>
     <use style="fill:#1f77b4;stroke:#1f77b4;" x="96.771575" xlink:href="#m262feaf4ee" y="279.86258"/>
     <use style="fill:#1f77b4;stroke:#1f77b4;" x="101.774811" xlink:href="#m262feaf4ee" y="279.86258"/>
     <use style="fill:#1f77b4;stroke:#1f77b4;" x="106.778046" xlink:href="#m262feaf4ee" y="279.86258"/>
     <use style="fill:#1f77b4;stroke:#1f77b4;" x="111.781282" xlink:href="#m262feaf4ee" y="279.86258"/>
     <use style="fill:#1f77b4;stroke:#1f77b4;" x="116.784517" xlink:href="#m262feaf4ee" y="279.86258"/>
     <use style="fill:#1f77b4;stroke:#1f77b4;" x="121.787753" xlink:href="#m262feaf4ee" y="279.86258"/>
     <use style="fill:#1f77b4;stroke:#1f77b4;" x="126.790988" xlink:href="#m262feaf4ee" y="279.86258"/>
     <use style="fill:#1f77b4;stroke:#1f77b4;" x="131.794223" xlink:href="#m262feaf4ee" y="279.86258"/>
     <use style="fill:#1f77b4;stroke:#1f77b4;" x="136.797459" xlink:href="#m262feaf4ee" y="279.86258"/>
     <use style="fill:#1f77b4;stroke:#1f77b4;" x="141.800694" xlink:href="#m262feaf4ee" y="279.86258"/>
     <use style="fill:#1f77b4;stroke:#1f77b4;" x="146.80393" xlink:href="#m262feaf4ee" y="279.86258"/>
     <use style="fill:#1f77b4;stroke:#1f77b4;" x="151.807165" xlink:href="#m262feaf4ee" y="279.86258"/>
     <use style="fill:#1f77b4;stroke:#1f77b4;" x="156.810401" xlink:href="#m262feaf4ee" y="151.737542"/>
     <use style="fill:#1f77b4;stroke:#1f77b4;" x="161.813636" xlink:href="#m262feaf4ee" y="151.737542"/>
     <use style="fill:#1f77b4;stroke:#1f77b4;" x="166.816872" xlink:href="#m262feaf4ee" y="151.737542"/>
     <use style="fill:#1f77b4;stroke:#1f77b4;" x="171.820107" xlink:href="#m262feaf4ee" y="151.737542"/>
     <use style="fill:#1f77b4;stroke:#1f77b4;" x="176.823343" xlink:href="#m262feaf4ee" y="151.737542"/>
     <use style="fill:#1f77b4;stroke:#1f77b4;" x="181.826578" xlink:href="#m262feaf4ee" y="151.737542"/>
     <use style="fill:#1f77b4;stroke:#1f77b4;" x="186.829814" xlink:href="#m262feaf4ee" y="151.737542"/>
     <use style="fill:#1f77b4;stroke:#1f77b4;" x="191.833049" xlink:href="#m262feaf4ee" y="151.737542"/>
     <use style="fill:#1f77b4;stroke:#1f77b4;" x="196.836285" xlink:href="#m262feaf4ee" y="23.612504"/>
     <use style="fill:#1f77b4;stroke:#1f77b4;" x="201.83952" xlink:href="#m262feaf4ee" y="23.612504"/>
     <use style="fill:#1f77b4;stroke:#1f77b4;" x="206.842756" xlink:href="#m262feaf4ee" y="23.612504"/>
     <use style="fill:#1f77b4;stroke:#1f77b4;" x="211.845991" xlink:href="#m262feaf4ee" y="23.612504"/>
     <use style="fill:#1f77b4;stroke:#1f77b4;" x="216.849227" xlink:href="#m262feaf4ee" y="23.612504"/>
     <use style="fill:#1f77b4;stroke:#1f77b4;" x="221.852462" xlink:href="#m262feaf4ee" y="23.612504"/>
     <use style="fill:#1f77b4;stroke:#1f77b4;" x="226.855698" xlink:href="#m262feaf4ee" y="23.612504"/>
     <use style="fill:#1f77b4;stroke:#1f77b4;" x="231.858933" xlink:href="#m262feaf4ee" y="23.612504"/>
     <use style="fill:#1f77b4;stroke:#1f77b4;" x="236.862169" xlink:href="#m262feaf4ee" y="23.612504"/>
     <use style="fill:#1f77b4;stroke:#1f77b4;" x="241.865404" xlink:href="#m262feaf4ee" y="23.612504"/>
     <use style="fill:#1f77b4;stroke:#1f77b4;" x="246.86864" xlink:href="#m262feaf4ee" y="23.612504"/>
     <use style="fill:#1f77b4;stroke:#1f77b4;" x="251.871875" xlink:href="#m262feaf4ee" y="23.612504"/>
     <use style="fill:#1f77b4;stroke:#1f77b4;" x="256.87511" xlink:href="#m262feaf4ee" y="23.612504"/>
     <use style="fill:#1f77b4;stroke:#1f77b4;" x="261.878346" xlink:href="#m262feaf4ee" y="23.612504"/>
     <use style="fill:#1f77b4;stroke:#1f77b4;" x="266.881581" xlink:href="#m262feaf4ee" y="23.612504"/>
     <use style="fill:#1f77b4;stroke:#1f77b4;" x="271.884817" xlink:href="#m262feaf4ee" y="23.612504"/>
     <use style="fill:#1f77b4;stroke:#1f77b4;" x="276.888052" xlink:href="#m262feaf4ee" y="23.612504"/>
     <use style="fill:#1f77b4;stroke:#1f77b4;" x="281.891288" xlink:href="#m262feaf4ee" y="23.612504"/>
     <use style="fill:#1f77b4;stroke:#1f77b4;" x="286.894523" xlink:href="#m262feaf4ee" y="23.612504"/>
     <use style="fill:#1f77b4;stroke:#1f77b4;" x="291.897759" xlink:href="#m262feaf4ee" y="23.612504"/>
     <use style="fill:#1f77b4;stroke:#1f77b4;" x="296.900994" xlink:href="#m262feaf4ee" y="23.612504"/>
     <use style="fill:#1f77b4;stroke:#1f77b4;" x="301.90423" xlink:href="#m262feaf4ee" y="23.612504"/>
     <use style="fill:#1f77b4;stroke:#1f77b4;" x="306.907465" xlink:href="#m262feaf4ee" y="23.612504"/>
     <use style="fill:#1f77b4;stroke:#1f77b4;" x="311.910701" xlink:href="#m262feaf4ee" y="23.612504"/>
     <use style="fill:#1f77b4;stroke:#1f77b4;" x="316.913936" xlink:href="#m262feaf4ee" y="23.612504"/>
     <use style="fill:#1f77b4;stroke:#1f77b4;" x="321.917172" xlink:href="#m262feaf4ee" y="23.612504"/>
     <use style="fill:#1f77b4;stroke:#1f77b4;" x="326.920407" xlink:href="#m262feaf4ee" y="23.612504"/>
     <use style="fill:#1f77b4;stroke:#1f77b4;" x="331.923643" xlink:href="#m262feaf4ee" y="23.612504"/>
     <use style="fill:#1f77b4;stroke:#1f77b4;" x="336.926878" xlink:href="#m262feaf4ee" y="23.612504"/>
     <use style="fill:#1f77b4;stroke:#1f77b4;" x="341.930114" xlink:href="#m262feaf4ee" y="23.612504"/>
     <use style="fill:#1f77b4;stroke:#1f77b4;" x="346.933349" xlink:href="#m262feaf4ee" y="23.612504"/>
     <use style="fill:#1f77b4;stroke:#1f77b4;" x="351.936585" xlink:href="#m262feaf4ee" y="23.612504"/>
     <use style="fill:#1f77b4;stroke:#1f77b4;" x="356.93982" xlink:href="#m262feaf4ee" y="23.612504"/>
     <use style="fill:#1f77b4;stroke:#1f77b4;" x="361.943056" xlink:href="#m262feaf4ee" y="23.612504"/>
     <use style="fill:#1f77b4;stroke:#1f77b4;" x="366.946291" xlink:href="#m262feaf4ee" y="23.612504"/>
     <use style="fill:#1f77b4;stroke:#1f77b4;" x="371.949527" xlink:href="#m262feaf4ee" y="23.612504"/>
     <use style="fill:#1f77b4;stroke:#1f77b4;" x="376.952762" xlink:href="#m262feaf4ee" y="23.612504"/>
     <use style="fill:#1f77b4;stroke:#1f77b4;" x="381.955997" xlink:href="#m262feaf4ee" y="23.612504"/>
     <use style="fill:#1f77b4;stroke:#1f77b4;" x="386.959233" xlink:href="#m262feaf4ee" y="23.612504"/>
     <use style="fill:#1f77b4;stroke:#1f77b4;" x="391.962468" xlink:href="#m262feaf4ee" y="23.612504"/>
     <use style="fill:#1f77b4;stroke:#1f77b4;" x="396.965704" xlink:href="#m262feaf4ee" y="23.612504"/>
     <use style="fill:#1f77b4;stroke:#1f77b4;" x="401.968939" xlink:href="#m262feaf4ee" y="23.612504"/>
     <use style="fill:#1f77b4;stroke:#1f77b4;" x="406.972175" xlink:href="#m262feaf4ee" y="23.612504"/>
     <use style="fill:#1f77b4;stroke:#1f77b4;" x="411.97541" xlink:href="#m262feaf4ee" y="23.612504"/>
     <use style="fill:#1f77b4;stroke:#1f77b4;" x="416.978646" xlink:href="#m262feaf4ee" y="23.612504"/>
     <use style="fill:#1f77b4;stroke:#1f77b4;" x="421.981881" xlink:href="#m262feaf4ee" y="23.612504"/>
     <use style="fill:#1f77b4;stroke:#1f77b4;" x="426.985117" xlink:href="#m262feaf4ee" y="23.612504"/>
     <use style="fill:#1f77b4;stroke:#1f77b4;" x="431.988352" xlink:href="#m262feaf4ee" y="23.612504"/>
    </g>
   </g>
   <g id="patch_3">
    <path d="M 53.74375 279.86258 
L 53.74375 10.8 
" style="fill:none;stroke:#000000;stroke-linecap:square;stroke-linejoin:miter;stroke-width:0.8;"/>
   </g>
   <g id="patch_4">
    <path d="M 450 279.86258 
L 450 10.8 
" style="fill:none;stroke:#000000;stroke-linecap:square;stroke-linejoin:miter;stroke-width:0.8;"/>
   </g>
   <g id="patch_5">
    <path d="M 53.74375 279.86258 
L 450 279.86258 
" style="fill:none;stroke:#000000;stroke-linecap:square;stroke-linejoin:miter;stroke-width:0.8;"/>
   </g>
   <g id="patch_6">
    <path d="M 53.74375 10.8 
L 450 10.8 
" style="fill:none;stroke:#000000;stroke-linecap:square;stroke-linejoin:miter;stroke-width:0.8;"/>
   </g>
  </g>
 </g>
 <defs>
  <clipPath id="p1daba8d9be">
   <rect height="269.06258" width="396.25625" x="53.74375" y="10.8"/>
  </clipPath>
 </defs>
</svg>
