<?xml version="1.0" encoding="utf-8" standalone="no"?>
<!DOCTYPE svg PUBLIC "-//W3C//DTD SVG 1.1//EN"
  "http://www.w3.org/Graphics/SVG/1.1/DTD/svg11.dtd">
<!-- Created with matplotlib (https://matplotlib.org/) -->
<svg height="345.6pt" version="1.1" viewBox="0 0 460.8 345.6" width="460.8pt" xmlns="http://www.w3.org/2000/svg" xmlns:xlink="http://www.w3.org/1999/xlink">
 <defs>
  <style type="text/css">
*{stroke-linecap:butt;stroke-linejoin:round;}
  </style>
 </defs>
 <g id="figure_1">
  <g id="patch_1">
   <path d="M 0 345.6 
L 460.8 345.6 
L 460.8 0 
L 0 0 
z
" style="fill:#ffffff;"/>
  </g>
  <g id="axes_1">
   <g id="patch_2">
    <path d="M 54.14375 279.86258 
L 450 279.86258 
L 450 10.8 
L 54.14375 10.8 
z
" style="fill:#ffffff;"/>
   </g>
   <g id="matplotlib.axis_1">
    <g id="xtick_1">
     <g id="line2d_1">
      <defs>
       <path d="M 0 0 
L 0 3.5 
" id="me56d97c9f8" style="stroke:#000000;stroke-width:0.8;"/>
      </defs>
      <g>
       <use style="stroke:#000000;stroke-width:0.8;" x="93.621951" xlink:href="#me56d97c9f8" y="279.86258"/>
      </g>
     </g>
     <g id="text_1">
      <!-- 2020-03-15 -->
      <defs>
       <path d="M 19.1875 8.296875 
L 53.609375 8.296875 
L 53.609375 0 
L 7.328125 0 
L 7.328125 8.296875 
Q 12.9375 14.109375 22.625 23.890625 
Q 32.328125 33.6875 34.8125 36.53125 
Q 39.546875 41.84375 41.421875 45.53125 
Q 43.3125 49.21875 43.3125 52.78125 
Q 43.3125 58.59375 39.234375 62.25 
Q 35.15625 65.921875 28.609375 65.921875 
Q 23.96875 65.921875 18.8125 64.3125 
Q 13.671875 62.703125 7.8125 59.421875 
L 7.8125 69.390625 
Q 13.765625 71.78125 18.9375 73 
Q 24.125 74.21875 28.421875 74.21875 
Q 39.75 74.21875 46.484375 68.546875 
Q 53.21875 62.890625 53.21875 53.421875 
Q 53.21875 48.921875 51.53125 44.890625 
Q 49.859375 40.875 45.40625 35.40625 
Q 44.1875 33.984375 37.640625 27.21875 
Q 31.109375 20.453125 19.1875 8.296875 
z
" id="DejaVuSans-50"/>
       <path d="M 31.78125 66.40625 
Q 24.171875 66.40625 20.328125 58.90625 
Q 16.5 51.421875 16.5 36.375 
Q 16.5 21.390625 20.328125 13.890625 
Q 24.171875 6.390625 31.78125 6.390625 
Q 39.453125 6.390625 43.28125 13.890625 
Q 47.125 21.390625 47.125 36.375 
Q 47.125 51.421875 43.28125 58.90625 
Q 39.453125 66.40625 31.78125 66.40625 
z
M 31.78125 74.21875 
Q 44.046875 74.21875 50.515625 64.515625 
Q 56.984375 54.828125 56.984375 36.375 
Q 56.984375 17.96875 50.515625 8.265625 
Q 44.046875 -1.421875 31.78125 -1.421875 
Q 19.53125 -1.421875 13.0625 8.265625 
Q 6.59375 17.96875 6.59375 36.375 
Q 6.59375 54.828125 13.0625 64.515625 
Q 19.53125 74.21875 31.78125 74.21875 
z
" id="DejaVuSans-48"/>
       <path d="M 4.890625 31.390625 
L 31.203125 31.390625 
L 31.203125 23.390625 
L 4.890625 23.390625 
z
" id="DejaVuSans-45"/>
       <path d="M 40.578125 39.3125 
Q 47.65625 37.796875 51.625 33 
Q 55.609375 28.21875 55.609375 21.1875 
Q 55.609375 10.40625 48.1875 4.484375 
Q 40.765625 -1.421875 27.09375 -1.421875 
Q 22.515625 -1.421875 17.65625 -0.515625 
Q 12.796875 0.390625 7.625 2.203125 
L 7.625 11.71875 
Q 11.71875 9.328125 16.59375 8.109375 
Q 21.484375 6.890625 26.8125 6.890625 
Q 36.078125 6.890625 40.9375 10.546875 
Q 45.796875 14.203125 45.796875 21.1875 
Q 45.796875 27.640625 41.28125 31.265625 
Q 36.765625 34.90625 28.71875 34.90625 
L 20.21875 34.90625 
L 20.21875 43.015625 
L 29.109375 43.015625 
Q 36.375 43.015625 40.234375 45.921875 
Q 44.09375 48.828125 44.09375 54.296875 
Q 44.09375 59.90625 40.109375 62.90625 
Q 36.140625 65.921875 28.71875 65.921875 
Q 24.65625 65.921875 20.015625 65.03125 
Q 15.375 64.15625 9.8125 62.3125 
L 9.8125 71.09375 
Q 15.4375 72.65625 20.34375 73.4375 
Q 25.25 74.21875 29.59375 74.21875 
Q 40.828125 74.21875 47.359375 69.109375 
Q 53.90625 64.015625 53.90625 55.328125 
Q 53.90625 49.265625 50.4375 45.09375 
Q 46.96875 40.921875 40.578125 39.3125 
z
" id="DejaVuSans-51"/>
       <path d="M 12.40625 8.296875 
L 28.515625 8.296875 
L 28.515625 63.921875 
L 10.984375 60.40625 
L 10.984375 69.390625 
L 28.421875 72.90625 
L 38.28125 72.90625 
L 38.28125 8.296875 
L 54.390625 8.296875 
L 54.390625 0 
L 12.40625 0 
z
" id="DejaVuSans-49"/>
       <path d="M 10.796875 72.90625 
L 49.515625 72.90625 
L 49.515625 64.59375 
L 19.828125 64.59375 
L 19.828125 46.734375 
Q 21.96875 47.46875 24.109375 47.828125 
Q 26.265625 48.1875 28.421875 48.1875 
Q 40.625 48.1875 47.75 41.5 
Q 54.890625 34.8125 54.890625 23.390625 
Q 54.890625 11.625 47.5625 5.09375 
Q 40.234375 -1.421875 26.90625 -1.421875 
Q 22.3125 -1.421875 17.546875 -0.640625 
Q 12.796875 0.140625 7.71875 1.703125 
L 7.71875 11.625 
Q 12.109375 9.234375 16.796875 8.0625 
Q 21.484375 6.890625 26.703125 6.890625 
Q 35.15625 6.890625 40.078125 11.328125 
Q 45.015625 15.765625 45.015625 23.390625 
Q 45.015625 31 40.078125 35.4375 
Q 35.15625 39.890625 26.703125 39.890625 
Q 22.75 39.890625 18.8125 39.015625 
Q 14.890625 38.140625 10.796875 36.28125 
z
" id="DejaVuSans-53"/>
      </defs>
      <g transform="translate(75.026148 333.329439)rotate(-45)scale(0.1 -0.1)">
       <use xlink:href="#DejaVuSans-50"/>
       <use x="63.623047" xlink:href="#DejaVuSans-48"/>
       <use x="127.246094" xlink:href="#DejaVuSans-50"/>
       <use x="190.869141" xlink:href="#DejaVuSans-48"/>
       <use x="254.492188" xlink:href="#DejaVuSans-45"/>
       <use x="290.576172" xlink:href="#DejaVuSans-48"/>
       <use x="354.199219" xlink:href="#DejaVuSans-51"/>
       <use x="417.822266" xlink:href="#DejaVuSans-45"/>
       <use x="453.90625" xlink:href="#DejaVuSans-49"/>
       <use x="517.529297" xlink:href="#DejaVuSans-53"/>
      </g>
     </g>
    </g>
    <g id="xtick_2">
     <g id="line2d_2">
      <g>
       <use style="stroke:#000000;stroke-width:0.8;" x="184.932077" xlink:href="#me56d97c9f8" y="279.86258"/>
      </g>
     </g>
     <g id="text_2">
      <!-- 2020-04-01 -->
      <defs>
       <path d="M 37.796875 64.3125 
L 12.890625 25.390625 
L 37.796875 25.390625 
z
M 35.203125 72.90625 
L 47.609375 72.90625 
L 47.609375 25.390625 
L 58.015625 25.390625 
L 58.015625 17.1875 
L 47.609375 17.1875 
L 47.609375 0 
L 37.796875 0 
L 37.796875 17.1875 
L 4.890625 17.1875 
L 4.890625 26.703125 
z
" id="DejaVuSans-52"/>
      </defs>
      <g transform="translate(166.336273 333.329439)rotate(-45)scale(0.1 -0.1)">
       <use xlink:href="#DejaVuSans-50"/>
       <use x="63.623047" xlink:href="#DejaVuSans-48"/>
       <use x="127.246094" xlink:href="#DejaVuSans-50"/>
       <use x="190.869141" xlink:href="#DejaVuSans-48"/>
       <use x="254.492188" xlink:href="#DejaVuSans-45"/>
       <use x="290.576172" xlink:href="#DejaVuSans-48"/>
       <use x="354.199219" xlink:href="#DejaVuSans-52"/>
       <use x="417.822266" xlink:href="#DejaVuSans-45"/>
       <use x="453.90625" xlink:href="#DejaVuSans-48"/>
       <use x="517.529297" xlink:href="#DejaVuSans-49"/>
      </g>
     </g>
    </g>
    <g id="xtick_3">
     <g id="line2d_3">
      <g>
       <use style="stroke:#000000;stroke-width:0.8;" x="260.128651" xlink:href="#me56d97c9f8" y="279.86258"/>
      </g>
     </g>
     <g id="text_3">
      <!-- 2020-04-15 -->
      <g transform="translate(241.532847 333.329439)rotate(-45)scale(0.1 -0.1)">
       <use xlink:href="#DejaVuSans-50"/>
       <use x="63.623047" xlink:href="#DejaVuSans-48"/>
       <use x="127.246094" xlink:href="#DejaVuSans-50"/>
       <use x="190.869141" xlink:href="#DejaVuSans-48"/>
       <use x="254.492188" xlink:href="#DejaVuSans-45"/>
       <use x="290.576172" xlink:href="#DejaVuSans-48"/>
       <use x="354.199219" xlink:href="#DejaVuSans-52"/>
       <use x="417.822266" xlink:href="#DejaVuSans-45"/>
       <use x="453.90625" xlink:href="#DejaVuSans-49"/>
       <use x="517.529297" xlink:href="#DejaVuSans-53"/>
      </g>
     </g>
    </g>
    <g id="xtick_4">
     <g id="line2d_4">
      <g>
       <use style="stroke:#000000;stroke-width:0.8;" x="346.067592" xlink:href="#me56d97c9f8" y="279.86258"/>
      </g>
     </g>
     <g id="text_4">
      <!-- 2020-05-01 -->
      <g transform="translate(327.471789 333.329439)rotate(-45)scale(0.1 -0.1)">
       <use xlink:href="#DejaVuSans-50"/>
       <use x="63.623047" xlink:href="#DejaVuSans-48"/>
       <use x="127.246094" xlink:href="#DejaVuSans-50"/>
       <use x="190.869141" xlink:href="#DejaVuSans-48"/>
       <use x="254.492188" xlink:href="#DejaVuSans-45"/>
       <use x="290.576172" xlink:href="#DejaVuSans-48"/>
       <use x="354.199219" xlink:href="#DejaVuSans-53"/>
       <use x="417.822266" xlink:href="#DejaVuSans-45"/>
       <use x="453.90625" xlink:href="#DejaVuSans-48"/>
       <use x="517.529297" xlink:href="#DejaVuSans-49"/>
      </g>
     </g>
    </g>
    <g id="xtick_5">
     <g id="line2d_5">
      <g>
       <use style="stroke:#000000;stroke-width:0.8;" x="421.264166" xlink:href="#me56d97c9f8" y="279.86258"/>
      </g>
     </g>
     <g id="text_5">
      <!-- 2020-05-15 -->
      <g transform="translate(402.668363 333.329439)rotate(-45)scale(0.1 -0.1)">
       <use xlink:href="#DejaVuSans-50"/>
       <use x="63.623047" xlink:href="#DejaVuSans-48"/>
       <use x="127.246094" xlink:href="#DejaVuSans-50"/>
       <use x="190.869141" xlink:href="#DejaVuSans-48"/>
       <use x="254.492188" xlink:href="#DejaVuSans-45"/>
       <use x="290.576172" xlink:href="#DejaVuSans-48"/>
       <use x="354.199219" xlink:href="#DejaVuSans-53"/>
       <use x="417.822266" xlink:href="#DejaVuSans-45"/>
       <use x="453.90625" xlink:href="#DejaVuSans-49"/>
       <use x="517.529297" xlink:href="#DejaVuSans-53"/>
      </g>
     </g>
    </g>
   </g>
   <g id="matplotlib.axis_2">
    <g id="ytick_1">
     <g id="line2d_6">
      <defs>
       <path d="M 0 0 
L -3.5 0 
" id="m27714ed9b8" style="stroke:#000000;stroke-width:0.8;"/>
      </defs>
      <g>
       <use style="stroke:#000000;stroke-width:0.8;" x="54.14375" xlink:href="#m27714ed9b8" y="279.86258"/>
      </g>
     </g>
     <g id="text_6">
      <!-- 0.00 -->
      <defs>
       <path d="M 10.6875 12.40625 
L 21 12.40625 
L 21 0 
L 10.6875 0 
z
" id="DejaVuSans-46"/>
      </defs>
      <g transform="translate(24.878125 283.661798)scale(0.1 -0.1)">
       <use xlink:href="#DejaVuSans-48"/>
       <use x="63.623047" xlink:href="#DejaVuSans-46"/>
       <use x="95.410156" xlink:href="#DejaVuSans-48"/>
       <use x="159.033203" xlink:href="#DejaVuSans-48"/>
      </g>
     </g>
    </g>
    <g id="ytick_2">
     <g id="line2d_7">
      <g>
       <use style="stroke:#000000;stroke-width:0.8;" x="54.14375" xlink:href="#m27714ed9b8" y="245.970653"/>
      </g>
     </g>
     <g id="text_7">
      <!-- 0.25 -->
      <g transform="translate(24.878125 249.769872)scale(0.1 -0.1)">
       <use xlink:href="#DejaVuSans-48"/>
       <use x="63.623047" xlink:href="#DejaVuSans-46"/>
       <use x="95.410156" xlink:href="#DejaVuSans-50"/>
       <use x="159.033203" xlink:href="#DejaVuSans-53"/>
      </g>
     </g>
    </g>
    <g id="ytick_3">
     <g id="line2d_8">
      <g>
       <use style="stroke:#000000;stroke-width:0.8;" x="54.14375" xlink:href="#m27714ed9b8" y="212.078727"/>
      </g>
     </g>
     <g id="text_8">
      <!-- 0.50 -->
      <g transform="translate(24.878125 215.877946)scale(0.1 -0.1)">
       <use xlink:href="#DejaVuSans-48"/>
       <use x="63.623047" xlink:href="#DejaVuSans-46"/>
       <use x="95.410156" xlink:href="#DejaVuSans-53"/>
       <use x="159.033203" xlink:href="#DejaVuSans-48"/>
      </g>
     </g>
    </g>
    <g id="ytick_4">
     <g id="line2d_9">
      <g>
       <use style="stroke:#000000;stroke-width:0.8;" x="54.14375" xlink:href="#m27714ed9b8" y="178.186801"/>
      </g>
     </g>
     <g id="text_9">
      <!-- 0.75 -->
      <defs>
       <path d="M 8.203125 72.90625 
L 55.078125 72.90625 
L 55.078125 68.703125 
L 28.609375 0 
L 18.3125 0 
L 43.21875 64.59375 
L 8.203125 64.59375 
z
" id="DejaVuSans-55"/>
      </defs>
      <g transform="translate(24.878125 181.98602)scale(0.1 -0.1)">
       <use xlink:href="#DejaVuSans-48"/>
       <use x="63.623047" xlink:href="#DejaVuSans-46"/>
       <use x="95.410156" xlink:href="#DejaVuSans-55"/>
       <use x="159.033203" xlink:href="#DejaVuSans-53"/>
      </g>
     </g>
    </g>
    <g id="ytick_5">
     <g id="line2d_10">
      <g>
       <use style="stroke:#000000;stroke-width:0.8;" x="54.14375" xlink:href="#m27714ed9b8" y="144.294875"/>
      </g>
     </g>
     <g id="text_10">
      <!-- 1.00 -->
      <g transform="translate(24.878125 148.094093)scale(0.1 -0.1)">
       <use xlink:href="#DejaVuSans-49"/>
       <use x="63.623047" xlink:href="#DejaVuSans-46"/>
       <use x="95.410156" xlink:href="#DejaVuSans-48"/>
       <use x="159.033203" xlink:href="#DejaVuSans-48"/>
      </g>
     </g>
    </g>
    <g id="ytick_6">
     <g id="line2d_11">
      <g>
       <use style="stroke:#000000;stroke-width:0.8;" x="54.14375" xlink:href="#m27714ed9b8" y="110.402949"/>
      </g>
     </g>
     <g id="text_11">
      <!-- 1.25 -->
      <g transform="translate(24.878125 114.202167)scale(0.1 -0.1)">
       <use xlink:href="#DejaVuSans-49"/>
       <use x="63.623047" xlink:href="#DejaVuSans-46"/>
       <use x="95.410156" xlink:href="#DejaVuSans-50"/>
       <use x="159.033203" xlink:href="#DejaVuSans-53"/>
      </g>
     </g>
    </g>
    <g id="ytick_7">
     <g id="line2d_12">
      <g>
       <use style="stroke:#000000;stroke-width:0.8;" x="54.14375" xlink:href="#m27714ed9b8" y="76.511022"/>
      </g>
     </g>
     <g id="text_12">
      <!-- 1.50 -->
      <g transform="translate(24.878125 80.310241)scale(0.1 -0.1)">
       <use xlink:href="#DejaVuSans-49"/>
       <use x="63.623047" xlink:href="#DejaVuSans-46"/>
       <use x="95.410156" xlink:href="#DejaVuSans-53"/>
       <use x="159.033203" xlink:href="#DejaVuSans-48"/>
      </g>
     </g>
    </g>
    <g id="ytick_8">
     <g id="line2d_13">
      <g>
       <use style="stroke:#000000;stroke-width:0.8;" x="54.14375" xlink:href="#m27714ed9b8" y="42.619096"/>
      </g>
     </g>
     <g id="text_13">
      <!-- 1.75 -->
      <g transform="translate(24.878125 46.418315)scale(0.1 -0.1)">
       <use xlink:href="#DejaVuSans-49"/>
       <use x="63.623047" xlink:href="#DejaVuSans-46"/>
       <use x="95.410156" xlink:href="#DejaVuSans-55"/>
       <use x="159.033203" xlink:href="#DejaVuSans-53"/>
      </g>
     </g>
    </g>
    <g id="text_14">
     <!-- CB fallecidos (por 100000 hab.) (Media 3 días) -->
     <defs>
      <path d="M 64.40625 67.28125 
L 64.40625 56.890625 
Q 59.421875 61.53125 53.78125 63.8125 
Q 48.140625 66.109375 41.796875 66.109375 
Q 29.296875 66.109375 22.65625 58.46875 
Q 16.015625 50.828125 16.015625 36.375 
Q 16.015625 21.96875 22.65625 14.328125 
Q 29.296875 6.6875 41.796875 6.6875 
Q 48.140625 6.6875 53.78125 8.984375 
Q 59.421875 11.28125 64.40625 15.921875 
L 64.40625 5.609375 
Q 59.234375 2.09375 53.4375 0.328125 
Q 47.65625 -1.421875 41.21875 -1.421875 
Q 24.65625 -1.421875 15.125 8.703125 
Q 5.609375 18.84375 5.609375 36.375 
Q 5.609375 53.953125 15.125 64.078125 
Q 24.65625 74.21875 41.21875 74.21875 
Q 47.75 74.21875 53.53125 72.484375 
Q 59.328125 70.75 64.40625 67.28125 
z
" id="DejaVuSans-67"/>
      <path d="M 19.671875 34.8125 
L 19.671875 8.109375 
L 35.5 8.109375 
Q 43.453125 8.109375 47.28125 11.40625 
Q 51.125 14.703125 51.125 21.484375 
Q 51.125 28.328125 47.28125 31.5625 
Q 43.453125 34.8125 35.5 34.8125 
z
M 19.671875 64.796875 
L 19.671875 42.828125 
L 34.28125 42.828125 
Q 41.5 42.828125 45.03125 45.53125 
Q 48.578125 48.25 48.578125 53.8125 
Q 48.578125 59.328125 45.03125 62.0625 
Q 41.5 64.796875 34.28125 64.796875 
z
M 9.8125 72.90625 
L 35.015625 72.90625 
Q 46.296875 72.90625 52.390625 68.21875 
Q 58.5 63.53125 58.5 54.890625 
Q 58.5 48.1875 55.375 44.234375 
Q 52.25 40.28125 46.1875 39.3125 
Q 53.46875 37.75 57.5 32.78125 
Q 61.53125 27.828125 61.53125 20.40625 
Q 61.53125 10.640625 54.890625 5.3125 
Q 48.25 0 35.984375 0 
L 9.8125 0 
z
" id="DejaVuSans-66"/>
      <path id="DejaVuSans-32"/>
      <path d="M 37.109375 75.984375 
L 37.109375 68.5 
L 28.515625 68.5 
Q 23.6875 68.5 21.796875 66.546875 
Q 19.921875 64.59375 19.921875 59.515625 
L 19.921875 54.6875 
L 34.71875 54.6875 
L 34.71875 47.703125 
L 19.921875 47.703125 
L 19.921875 0 
L 10.890625 0 
L 10.890625 47.703125 
L 2.296875 47.703125 
L 2.296875 54.6875 
L 10.890625 54.6875 
L 10.890625 58.5 
Q 10.890625 67.625 15.140625 71.796875 
Q 19.390625 75.984375 28.609375 75.984375 
z
" id="DejaVuSans-102"/>
      <path d="M 34.28125 27.484375 
Q 23.390625 27.484375 19.1875 25 
Q 14.984375 22.515625 14.984375 16.5 
Q 14.984375 11.71875 18.140625 8.90625 
Q 21.296875 6.109375 26.703125 6.109375 
Q 34.1875 6.109375 38.703125 11.40625 
Q 43.21875 16.703125 43.21875 25.484375 
L 43.21875 27.484375 
z
M 52.203125 31.203125 
L 52.203125 0 
L 43.21875 0 
L 43.21875 8.296875 
Q 40.140625 3.328125 35.546875 0.953125 
Q 30.953125 -1.421875 24.3125 -1.421875 
Q 15.921875 -1.421875 10.953125 3.296875 
Q 6 8.015625 6 15.921875 
Q 6 25.140625 12.171875 29.828125 
Q 18.359375 34.515625 30.609375 34.515625 
L 43.21875 34.515625 
L 43.21875 35.40625 
Q 43.21875 41.609375 39.140625 45 
Q 35.0625 48.390625 27.6875 48.390625 
Q 23 48.390625 18.546875 47.265625 
Q 14.109375 46.140625 10.015625 43.890625 
L 10.015625 52.203125 
Q 14.9375 54.109375 19.578125 55.046875 
Q 24.21875 56 28.609375 56 
Q 40.484375 56 46.34375 49.84375 
Q 52.203125 43.703125 52.203125 31.203125 
z
" id="DejaVuSans-97"/>
      <path d="M 9.421875 75.984375 
L 18.40625 75.984375 
L 18.40625 0 
L 9.421875 0 
z
" id="DejaVuSans-108"/>
      <path d="M 56.203125 29.59375 
L 56.203125 25.203125 
L 14.890625 25.203125 
Q 15.484375 15.921875 20.484375 11.0625 
Q 25.484375 6.203125 34.421875 6.203125 
Q 39.59375 6.203125 44.453125 7.46875 
Q 49.3125 8.734375 54.109375 11.28125 
L 54.109375 2.78125 
Q 49.265625 0.734375 44.1875 -0.34375 
Q 39.109375 -1.421875 33.890625 -1.421875 
Q 20.796875 -1.421875 13.15625 6.1875 
Q 5.515625 13.8125 5.515625 26.8125 
Q 5.515625 40.234375 12.765625 48.109375 
Q 20.015625 56 32.328125 56 
Q 43.359375 56 49.78125 48.890625 
Q 56.203125 41.796875 56.203125 29.59375 
z
M 47.21875 32.234375 
Q 47.125 39.59375 43.09375 43.984375 
Q 39.0625 48.390625 32.421875 48.390625 
Q 24.90625 48.390625 20.390625 44.140625 
Q 15.875 39.890625 15.1875 32.171875 
z
" id="DejaVuSans-101"/>
      <path d="M 48.78125 52.59375 
L 48.78125 44.1875 
Q 44.96875 46.296875 41.140625 47.34375 
Q 37.3125 48.390625 33.40625 48.390625 
Q 24.65625 48.390625 19.8125 42.84375 
Q 14.984375 37.3125 14.984375 27.296875 
Q 14.984375 17.28125 19.8125 11.734375 
Q 24.65625 6.203125 33.40625 6.203125 
Q 37.3125 6.203125 41.140625 7.25 
Q 44.96875 8.296875 48.78125 10.40625 
L 48.78125 2.09375 
Q 45.015625 0.34375 40.984375 -0.53125 
Q 36.96875 -1.421875 32.421875 -1.421875 
Q 20.0625 -1.421875 12.78125 6.34375 
Q 5.515625 14.109375 5.515625 27.296875 
Q 5.515625 40.671875 12.859375 48.328125 
Q 20.21875 56 33.015625 56 
Q 37.15625 56 41.109375 55.140625 
Q 45.0625 54.296875 48.78125 52.59375 
z
" id="DejaVuSans-99"/>
      <path d="M 9.421875 54.6875 
L 18.40625 54.6875 
L 18.40625 0 
L 9.421875 0 
z
M 9.421875 75.984375 
L 18.40625 75.984375 
L 18.40625 64.59375 
L 9.421875 64.59375 
z
" id="DejaVuSans-105"/>
      <path d="M 45.40625 46.390625 
L 45.40625 75.984375 
L 54.390625 75.984375 
L 54.390625 0 
L 45.40625 0 
L 45.40625 8.203125 
Q 42.578125 3.328125 38.25 0.953125 
Q 33.9375 -1.421875 27.875 -1.421875 
Q 17.96875 -1.421875 11.734375 6.484375 
Q 5.515625 14.40625 5.515625 27.296875 
Q 5.515625 40.1875 11.734375 48.09375 
Q 17.96875 56 27.875 56 
Q 33.9375 56 38.25 53.625 
Q 42.578125 51.265625 45.40625 46.390625 
z
M 14.796875 27.296875 
Q 14.796875 17.390625 18.875 11.75 
Q 22.953125 6.109375 30.078125 6.109375 
Q 37.203125 6.109375 41.296875 11.75 
Q 45.40625 17.390625 45.40625 27.296875 
Q 45.40625 37.203125 41.296875 42.84375 
Q 37.203125 48.484375 30.078125 48.484375 
Q 22.953125 48.484375 18.875 42.84375 
Q 14.796875 37.203125 14.796875 27.296875 
z
" id="DejaVuSans-100"/>
      <path d="M 30.609375 48.390625 
Q 23.390625 48.390625 19.1875 42.75 
Q 14.984375 37.109375 14.984375 27.296875 
Q 14.984375 17.484375 19.15625 11.84375 
Q 23.34375 6.203125 30.609375 6.203125 
Q 37.796875 6.203125 41.984375 11.859375 
Q 46.1875 17.53125 46.1875 27.296875 
Q 46.1875 37.015625 41.984375 42.703125 
Q 37.796875 48.390625 30.609375 48.390625 
z
M 30.609375 56 
Q 42.328125 56 49.015625 48.375 
Q 55.71875 40.765625 55.71875 27.296875 
Q 55.71875 13.875 49.015625 6.21875 
Q 42.328125 -1.421875 30.609375 -1.421875 
Q 18.84375 -1.421875 12.171875 6.21875 
Q 5.515625 13.875 5.515625 27.296875 
Q 5.515625 40.765625 12.171875 48.375 
Q 18.84375 56 30.609375 56 
z
" id="DejaVuSans-111"/>
      <path d="M 44.28125 53.078125 
L 44.28125 44.578125 
Q 40.484375 46.53125 36.375 47.5 
Q 32.28125 48.484375 27.875 48.484375 
Q 21.1875 48.484375 17.84375 46.4375 
Q 14.5 44.390625 14.5 40.28125 
Q 14.5 37.15625 16.890625 35.375 
Q 19.28125 33.59375 26.515625 31.984375 
L 29.59375 31.296875 
Q 39.15625 29.25 43.1875 25.515625 
Q 47.21875 21.78125 47.21875 15.09375 
Q 47.21875 7.46875 41.1875 3.015625 
Q 35.15625 -1.421875 24.609375 -1.421875 
Q 20.21875 -1.421875 15.453125 -0.5625 
Q 10.6875 0.296875 5.421875 2 
L 5.421875 11.28125 
Q 10.40625 8.6875 15.234375 7.390625 
Q 20.0625 6.109375 24.8125 6.109375 
Q 31.15625 6.109375 34.5625 8.28125 
Q 37.984375 10.453125 37.984375 14.40625 
Q 37.984375 18.0625 35.515625 20.015625 
Q 33.0625 21.96875 24.703125 23.78125 
L 21.578125 24.515625 
Q 13.234375 26.265625 9.515625 29.90625 
Q 5.8125 33.546875 5.8125 39.890625 
Q 5.8125 47.609375 11.28125 51.796875 
Q 16.75 56 26.8125 56 
Q 31.78125 56 36.171875 55.265625 
Q 40.578125 54.546875 44.28125 53.078125 
z
" id="DejaVuSans-115"/>
      <path d="M 31 75.875 
Q 24.46875 64.65625 21.28125 53.65625 
Q 18.109375 42.671875 18.109375 31.390625 
Q 18.109375 20.125 21.3125 9.0625 
Q 24.515625 -2 31 -13.1875 
L 23.1875 -13.1875 
Q 15.875 -1.703125 12.234375 9.375 
Q 8.59375 20.453125 8.59375 31.390625 
Q 8.59375 42.28125 12.203125 53.3125 
Q 15.828125 64.359375 23.1875 75.875 
z
" id="DejaVuSans-40"/>
      <path d="M 18.109375 8.203125 
L 18.109375 -20.796875 
L 9.078125 -20.796875 
L 9.078125 54.6875 
L 18.109375 54.6875 
L 18.109375 46.390625 
Q 20.953125 51.265625 25.265625 53.625 
Q 29.59375 56 35.59375 56 
Q 45.5625 56 51.78125 48.09375 
Q 58.015625 40.1875 58.015625 27.296875 
Q 58.015625 14.40625 51.78125 6.484375 
Q 45.5625 -1.421875 35.59375 -1.421875 
Q 29.59375 -1.421875 25.265625 0.953125 
Q 20.953125 3.328125 18.109375 8.203125 
z
M 48.6875 27.296875 
Q 48.6875 37.203125 44.609375 42.84375 
Q 40.53125 48.484375 33.40625 48.484375 
Q 26.265625 48.484375 22.1875 42.84375 
Q 18.109375 37.203125 18.109375 27.296875 
Q 18.109375 17.390625 22.1875 11.75 
Q 26.265625 6.109375 33.40625 6.109375 
Q 40.53125 6.109375 44.609375 11.75 
Q 48.6875 17.390625 48.6875 27.296875 
z
" id="DejaVuSans-112"/>
      <path d="M 41.109375 46.296875 
Q 39.59375 47.171875 37.8125 47.578125 
Q 36.03125 48 33.890625 48 
Q 26.265625 48 22.1875 43.046875 
Q 18.109375 38.09375 18.109375 28.8125 
L 18.109375 0 
L 9.078125 0 
L 9.078125 54.6875 
L 18.109375 54.6875 
L 18.109375 46.1875 
Q 20.953125 51.171875 25.484375 53.578125 
Q 30.03125 56 36.53125 56 
Q 37.453125 56 38.578125 55.875 
Q 39.703125 55.765625 41.0625 55.515625 
z
" id="DejaVuSans-114"/>
      <path d="M 54.890625 33.015625 
L 54.890625 0 
L 45.90625 0 
L 45.90625 32.71875 
Q 45.90625 40.484375 42.875 44.328125 
Q 39.84375 48.1875 33.796875 48.1875 
Q 26.515625 48.1875 22.3125 43.546875 
Q 18.109375 38.921875 18.109375 30.90625 
L 18.109375 0 
L 9.078125 0 
L 9.078125 75.984375 
L 18.109375 75.984375 
L 18.109375 46.1875 
Q 21.34375 51.125 25.703125 53.5625 
Q 30.078125 56 35.796875 56 
Q 45.21875 56 50.046875 50.171875 
Q 54.890625 44.34375 54.890625 33.015625 
z
" id="DejaVuSans-104"/>
      <path d="M 48.6875 27.296875 
Q 48.6875 37.203125 44.609375 42.84375 
Q 40.53125 48.484375 33.40625 48.484375 
Q 26.265625 48.484375 22.1875 42.84375 
Q 18.109375 37.203125 18.109375 27.296875 
Q 18.109375 17.390625 22.1875 11.75 
Q 26.265625 6.109375 33.40625 6.109375 
Q 40.53125 6.109375 44.609375 11.75 
Q 48.6875 17.390625 48.6875 27.296875 
z
M 18.109375 46.390625 
Q 20.953125 51.265625 25.265625 53.625 
Q 29.59375 56 35.59375 56 
Q 45.5625 56 51.78125 48.09375 
Q 58.015625 40.1875 58.015625 27.296875 
Q 58.015625 14.40625 51.78125 6.484375 
Q 45.5625 -1.421875 35.59375 -1.421875 
Q 29.59375 -1.421875 25.265625 0.953125 
Q 20.953125 3.328125 18.109375 8.203125 
L 18.109375 0 
L 9.078125 0 
L 9.078125 75.984375 
L 18.109375 75.984375 
z
" id="DejaVuSans-98"/>
      <path d="M 8.015625 75.875 
L 15.828125 75.875 
Q 23.140625 64.359375 26.78125 53.3125 
Q 30.421875 42.28125 30.421875 31.390625 
Q 30.421875 20.453125 26.78125 9.375 
Q 23.140625 -1.703125 15.828125 -13.1875 
L 8.015625 -13.1875 
Q 14.5 -2 17.703125 9.0625 
Q 20.90625 20.125 20.90625 31.390625 
Q 20.90625 42.671875 17.703125 53.65625 
Q 14.5 64.65625 8.015625 75.875 
z
" id="DejaVuSans-41"/>
      <path d="M 9.8125 72.90625 
L 24.515625 72.90625 
L 43.109375 23.296875 
L 61.8125 72.90625 
L 76.515625 72.90625 
L 76.515625 0 
L 66.890625 0 
L 66.890625 64.015625 
L 48.09375 14.015625 
L 38.1875 14.015625 
L 19.390625 64.015625 
L 19.390625 0 
L 9.8125 0 
z
" id="DejaVuSans-77"/>
      <path d="M 20.65625 79.984375 
L 30.375 79.984375 
L 14.46875 61.625 
L 6.984375 61.625 
z
M 9.421875 54.6875 
L 18.40625 54.6875 
L 18.40625 0 
L 9.421875 0 
z
M 13.921875 56 
z
" id="DejaVuSans-237"/>
     </defs>
     <g transform="translate(18.798437 261.639102)rotate(-90)scale(0.1 -0.1)">
      <use xlink:href="#DejaVuSans-67"/>
      <use x="69.824219" xlink:href="#DejaVuSans-66"/>
      <use x="138.427734" xlink:href="#DejaVuSans-32"/>
      <use x="170.214844" xlink:href="#DejaVuSans-102"/>
      <use x="205.419922" xlink:href="#DejaVuSans-97"/>
      <use x="266.699219" xlink:href="#DejaVuSans-108"/>
      <use x="294.482422" xlink:href="#DejaVuSans-108"/>
      <use x="322.265625" xlink:href="#DejaVuSans-101"/>
      <use x="383.789062" xlink:href="#DejaVuSans-99"/>
      <use x="438.769531" xlink:href="#DejaVuSans-105"/>
      <use x="466.552734" xlink:href="#DejaVuSans-100"/>
      <use x="530.029297" xlink:href="#DejaVuSans-111"/>
      <use x="591.210938" xlink:href="#DejaVuSans-115"/>
      <use x="643.310547" xlink:href="#DejaVuSans-32"/>
      <use x="675.097656" xlink:href="#DejaVuSans-40"/>
      <use x="714.111328" xlink:href="#DejaVuSans-112"/>
      <use x="777.587891" xlink:href="#DejaVuSans-111"/>
      <use x="838.769531" xlink:href="#DejaVuSans-114"/>
      <use x="879.882812" xlink:href="#DejaVuSans-32"/>
      <use x="911.669922" xlink:href="#DejaVuSans-49"/>
      <use x="975.292969" xlink:href="#DejaVuSans-48"/>
      <use x="1038.916016" xlink:href="#DejaVuSans-48"/>
      <use x="1102.539062" xlink:href="#DejaVuSans-48"/>
      <use x="1166.162109" xlink:href="#DejaVuSans-48"/>
      <use x="1229.785156" xlink:href="#DejaVuSans-48"/>
      <use x="1293.408203" xlink:href="#DejaVuSans-32"/>
      <use x="1325.195312" xlink:href="#DejaVuSans-104"/>
      <use x="1388.574219" xlink:href="#DejaVuSans-97"/>
      <use x="1449.853516" xlink:href="#DejaVuSans-98"/>
      <use x="1513.330078" xlink:href="#DejaVuSans-46"/>
      <use x="1545.117188" xlink:href="#DejaVuSans-41"/>
      <use x="1584.130859" xlink:href="#DejaVuSans-32"/>
      <use x="1615.917969" xlink:href="#DejaVuSans-40"/>
      <use x="1654.931641" xlink:href="#DejaVuSans-77"/>
      <use x="1741.210938" xlink:href="#DejaVuSans-101"/>
      <use x="1802.734375" xlink:href="#DejaVuSans-100"/>
      <use x="1866.210938" xlink:href="#DejaVuSans-105"/>
      <use x="1893.994141" xlink:href="#DejaVuSans-97"/>
      <use x="1955.273438" xlink:href="#DejaVuSans-32"/>
      <use x="1987.060547" xlink:href="#DejaVuSans-51"/>
      <use x="2050.683594" xlink:href="#DejaVuSans-32"/>
      <use x="2082.470703" xlink:href="#DejaVuSans-100"/>
      <use x="2145.947266" xlink:href="#DejaVuSans-237"/>
      <use x="2173.730469" xlink:href="#DejaVuSans-97"/>
      <use x="2235.009766" xlink:href="#DejaVuSans-115"/>
      <use x="2287.109375" xlink:href="#DejaVuSans-41"/>
     </g>
    </g>
   </g>
   <g id="line2d_14">
    <path clip-path="url(#p6420d190e6)" d="M 72.137216 279.86258 
L 77.5084 279.86258 
L 82.879584 279.86258 
L 88.250767 279.86258 
L 93.621951 279.86258 
L 98.993135 279.86258 
L 104.364319 272.097426 
L 109.735503 272.097426 
L 115.106687 272.097426 
L 120.477871 272.097426 
L 125.849054 248.801964 
L 131.220238 241.036811 
L 136.591422 225.506503 
L 141.962606 209.976195 
L 147.33379 194.445888 
L 152.704974 186.680734 
L 158.076158 217.741349 
L 163.447341 209.976195 
L 168.818525 233.271657 
L 174.189709 163.385272 
L 179.560893 62.438273 
L 184.932077 23.612504 
L 190.303261 70.203427 
L 195.674445 171.150426 
L 201.045628 217.741349 
L 206.416812 178.91558 
L 211.787996 147.854965 
L 217.15918 93.498888 
L 222.530364 116.79435 
L 227.901548 147.854965 
L 233.272732 163.385272 
L 238.643915 186.680734 
L 244.015099 163.385272 
L 249.386283 178.91558 
L 254.757467 109.029196 
L 260.128651 124.559503 
L 265.499835 93.498888 
L 270.871018 147.854965 
L 276.242202 155.620119 
L 281.613386 171.150426 
L 286.98457 155.620119 
L 292.355754 171.150426 
L 297.726938 163.385272 
L 303.098122 178.91558 
L 308.469305 163.385272 
L 313.840489 202.211042 
L 319.211673 217.741349 
L 324.582857 233.271657 
L 329.954041 217.741349 
L 335.325225 241.036811 
L 340.696409 248.801964 
L 346.067592 264.332272 
L 351.438776 248.801964 
L 356.80996 241.036811 
L 362.181144 241.036811 
L 367.552328 248.801964 
L 372.923512 256.567118 
L 378.294696 256.567118 
L 383.665879 264.332272 
L 389.037063 272.097426 
L 394.408247 279.86258 
L 399.779431 264.332272 
L 405.150615 248.801964 
L 410.521799 248.801964 
L 415.892983 256.567118 
L 421.264166 272.097426 
L 426.63535 264.332272 
L 432.006534 272.097426 
" style="fill:none;stroke:#1f77b4;stroke-linecap:square;stroke-width:1.5;"/>
    <defs>
     <path d="M 0 1.5 
C 0.397805 1.5 0.77937 1.341951 1.06066 1.06066 
C 1.341951 0.77937 1.5 0.397805 1.5 0 
C 1.5 -0.397805 1.341951 -0.77937 1.06066 -1.06066 
C 0.77937 -1.341951 0.397805 -1.5 0 -1.5 
C -0.397805 -1.5 -0.77937 -1.341951 -1.06066 -1.06066 
C -1.341951 -0.77937 -1.5 -0.397805 -1.5 0 
C -1.5 0.397805 -1.341951 0.77937 -1.06066 1.06066 
C -0.77937 1.341951 -0.397805 1.5 0 1.5 
z
" id="m27848da00f" style="stroke:#1f77b4;"/>
    </defs>
    <g clip-path="url(#p6420d190e6)">
     <use style="fill:#1f77b4;stroke:#1f77b4;" x="72.137216" xlink:href="#m27848da00f" y="279.86258"/>
     <use style="fill:#1f77b4;stroke:#1f77b4;" x="77.5084" xlink:href="#m27848da00f" y="279.86258"/>
     <use style="fill:#1f77b4;stroke:#1f77b4;" x="82.879584" xlink:href="#m27848da00f" y="279.86258"/>
     <use style="fill:#1f77b4;stroke:#1f77b4;" x="88.250767" xlink:href="#m27848da00f" y="279.86258"/>
     <use style="fill:#1f77b4;stroke:#1f77b4;" x="93.621951" xlink:href="#m27848da00f" y="279.86258"/>
     <use style="fill:#1f77b4;stroke:#1f77b4;" x="98.993135" xlink:href="#m27848da00f" y="279.86258"/>
     <use style="fill:#1f77b4;stroke:#1f77b4;" x="104.364319" xlink:href="#m27848da00f" y="272.097426"/>
     <use style="fill:#1f77b4;stroke:#1f77b4;" x="109.735503" xlink:href="#m27848da00f" y="272.097426"/>
     <use style="fill:#1f77b4;stroke:#1f77b4;" x="115.106687" xlink:href="#m27848da00f" y="272.097426"/>
     <use style="fill:#1f77b4;stroke:#1f77b4;" x="120.477871" xlink:href="#m27848da00f" y="272.097426"/>
     <use style="fill:#1f77b4;stroke:#1f77b4;" x="125.849054" xlink:href="#m27848da00f" y="248.801964"/>
     <use style="fill:#1f77b4;stroke:#1f77b4;" x="131.220238" xlink:href="#m27848da00f" y="241.036811"/>
     <use style="fill:#1f77b4;stroke:#1f77b4;" x="136.591422" xlink:href="#m27848da00f" y="225.506503"/>
     <use style="fill:#1f77b4;stroke:#1f77b4;" x="141.962606" xlink:href="#m27848da00f" y="209.976195"/>
     <use style="fill:#1f77b4;stroke:#1f77b4;" x="147.33379" xlink:href="#m27848da00f" y="194.445888"/>
     <use style="fill:#1f77b4;stroke:#1f77b4;" x="152.704974" xlink:href="#m27848da00f" y="186.680734"/>
     <use style="fill:#1f77b4;stroke:#1f77b4;" x="158.076158" xlink:href="#m27848da00f" y="217.741349"/>
     <use style="fill:#1f77b4;stroke:#1f77b4;" x="163.447341" xlink:href="#m27848da00f" y="209.976195"/>
     <use style="fill:#1f77b4;stroke:#1f77b4;" x="168.818525" xlink:href="#m27848da00f" y="233.271657"/>
     <use style="fill:#1f77b4;stroke:#1f77b4;" x="174.189709" xlink:href="#m27848da00f" y="163.385272"/>
     <use style="fill:#1f77b4;stroke:#1f77b4;" x="179.560893" xlink:href="#m27848da00f" y="62.438273"/>
     <use style="fill:#1f77b4;stroke:#1f77b4;" x="184.932077" xlink:href="#m27848da00f" y="23.612504"/>
     <use style="fill:#1f77b4;stroke:#1f77b4;" x="190.303261" xlink:href="#m27848da00f" y="70.203427"/>
     <use style="fill:#1f77b4;stroke:#1f77b4;" x="195.674445" xlink:href="#m27848da00f" y="171.150426"/>
     <use style="fill:#1f77b4;stroke:#1f77b4;" x="201.045628" xlink:href="#m27848da00f" y="217.741349"/>
     <use style="fill:#1f77b4;stroke:#1f77b4;" x="206.416812" xlink:href="#m27848da00f" y="178.91558"/>
     <use style="fill:#1f77b4;stroke:#1f77b4;" x="211.787996" xlink:href="#m27848da00f" y="147.854965"/>
     <use style="fill:#1f77b4;stroke:#1f77b4;" x="217.15918" xlink:href="#m27848da00f" y="93.498888"/>
     <use style="fill:#1f77b4;stroke:#1f77b4;" x="222.530364" xlink:href="#m27848da00f" y="116.79435"/>
     <use style="fill:#1f77b4;stroke:#1f77b4;" x="227.901548" xlink:href="#m27848da00f" y="147.854965"/>
     <use style="fill:#1f77b4;stroke:#1f77b4;" x="233.272732" xlink:href="#m27848da00f" y="163.385272"/>
     <use style="fill:#1f77b4;stroke:#1f77b4;" x="238.643915" xlink:href="#m27848da00f" y="186.680734"/>
     <use style="fill:#1f77b4;stroke:#1f77b4;" x="244.015099" xlink:href="#m27848da00f" y="163.385272"/>
     <use style="fill:#1f77b4;stroke:#1f77b4;" x="249.386283" xlink:href="#m27848da00f" y="178.91558"/>
     <use style="fill:#1f77b4;stroke:#1f77b4;" x="254.757467" xlink:href="#m27848da00f" y="109.029196"/>
     <use style="fill:#1f77b4;stroke:#1f77b4;" x="260.128651" xlink:href="#m27848da00f" y="124.559503"/>
     <use style="fill:#1f77b4;stroke:#1f77b4;" x="265.499835" xlink:href="#m27848da00f" y="93.498888"/>
     <use style="fill:#1f77b4;stroke:#1f77b4;" x="270.871018" xlink:href="#m27848da00f" y="147.854965"/>
     <use style="fill:#1f77b4;stroke:#1f77b4;" x="276.242202" xlink:href="#m27848da00f" y="155.620119"/>
     <use style="fill:#1f77b4;stroke:#1f77b4;" x="281.613386" xlink:href="#m27848da00f" y="171.150426"/>
     <use style="fill:#1f77b4;stroke:#1f77b4;" x="286.98457" xlink:href="#m27848da00f" y="155.620119"/>
     <use style="fill:#1f77b4;stroke:#1f77b4;" x="292.355754" xlink:href="#m27848da00f" y="171.150426"/>
     <use style="fill:#1f77b4;stroke:#1f77b4;" x="297.726938" xlink:href="#m27848da00f" y="163.385272"/>
     <use style="fill:#1f77b4;stroke:#1f77b4;" x="303.098122" xlink:href="#m27848da00f" y="178.91558"/>
     <use style="fill:#1f77b4;stroke:#1f77b4;" x="308.469305" xlink:href="#m27848da00f" y="163.385272"/>
     <use style="fill:#1f77b4;stroke:#1f77b4;" x="313.840489" xlink:href="#m27848da00f" y="202.211042"/>
     <use style="fill:#1f77b4;stroke:#1f77b4;" x="319.211673" xlink:href="#m27848da00f" y="217.741349"/>
     <use style="fill:#1f77b4;stroke:#1f77b4;" x="324.582857" xlink:href="#m27848da00f" y="233.271657"/>
     <use style="fill:#1f77b4;stroke:#1f77b4;" x="329.954041" xlink:href="#m27848da00f" y="217.741349"/>
     <use style="fill:#1f77b4;stroke:#1f77b4;" x="335.325225" xlink:href="#m27848da00f" y="241.036811"/>
     <use style="fill:#1f77b4;stroke:#1f77b4;" x="340.696409" xlink:href="#m27848da00f" y="248.801964"/>
     <use style="fill:#1f77b4;stroke:#1f77b4;" x="346.067592" xlink:href="#m27848da00f" y="264.332272"/>
     <use style="fill:#1f77b4;stroke:#1f77b4;" x="351.438776" xlink:href="#m27848da00f" y="248.801964"/>
     <use style="fill:#1f77b4;stroke:#1f77b4;" x="356.80996" xlink:href="#m27848da00f" y="241.036811"/>
     <use style="fill:#1f77b4;stroke:#1f77b4;" x="362.181144" xlink:href="#m27848da00f" y="241.036811"/>
     <use style="fill:#1f77b4;stroke:#1f77b4;" x="367.552328" xlink:href="#m27848da00f" y="248.801964"/>
     <use style="fill:#1f77b4;stroke:#1f77b4;" x="372.923512" xlink:href="#m27848da00f" y="256.567118"/>
     <use style="fill:#1f77b4;stroke:#1f77b4;" x="378.294696" xlink:href="#m27848da00f" y="256.567118"/>
     <use style="fill:#1f77b4;stroke:#1f77b4;" x="383.665879" xlink:href="#m27848da00f" y="264.332272"/>
     <use style="fill:#1f77b4;stroke:#1f77b4;" x="389.037063" xlink:href="#m27848da00f" y="272.097426"/>
     <use style="fill:#1f77b4;stroke:#1f77b4;" x="394.408247" xlink:href="#m27848da00f" y="279.86258"/>
     <use style="fill:#1f77b4;stroke:#1f77b4;" x="399.779431" xlink:href="#m27848da00f" y="264.332272"/>
     <use style="fill:#1f77b4;stroke:#1f77b4;" x="405.150615" xlink:href="#m27848da00f" y="248.801964"/>
     <use style="fill:#1f77b4;stroke:#1f77b4;" x="410.521799" xlink:href="#m27848da00f" y="248.801964"/>
     <use style="fill:#1f77b4;stroke:#1f77b4;" x="415.892983" xlink:href="#m27848da00f" y="256.567118"/>
     <use style="fill:#1f77b4;stroke:#1f77b4;" x="421.264166" xlink:href="#m27848da00f" y="272.097426"/>
     <use style="fill:#1f77b4;stroke:#1f77b4;" x="426.63535" xlink:href="#m27848da00f" y="264.332272"/>
     <use style="fill:#1f77b4;stroke:#1f77b4;" x="432.006534" xlink:href="#m27848da00f" y="272.097426"/>
    </g>
   </g>
   <g id="patch_3">
    <path d="M 54.14375 279.86258 
L 54.14375 10.8 
" style="fill:none;stroke:#000000;stroke-linecap:square;stroke-linejoin:miter;stroke-width:0.8;"/>
   </g>
   <g id="patch_4">
    <path d="M 450 279.86258 
L 450 10.8 
" style="fill:none;stroke:#000000;stroke-linecap:square;stroke-linejoin:miter;stroke-width:0.8;"/>
   </g>
   <g id="patch_5">
    <path d="M 54.14375 279.86258 
L 450 279.86258 
" style="fill:none;stroke:#000000;stroke-linecap:square;stroke-linejoin:miter;stroke-width:0.8;"/>
   </g>
   <g id="patch_6">
    <path d="M 54.14375 10.8 
L 450 10.8 
" style="fill:none;stroke:#000000;stroke-linecap:square;stroke-linejoin:miter;stroke-width:0.8;"/>
   </g>
  </g>
 </g>
 <defs>
  <clipPath id="p6420d190e6">
   <rect height="269.06258" width="395.85625" x="54.14375" y="10.8"/>
  </clipPath>
 </defs>
</svg>
