<?xml version="1.0" encoding="utf-8" standalone="no"?>
<!DOCTYPE svg PUBLIC "-//W3C//DTD SVG 1.1//EN"
  "http://www.w3.org/Graphics/SVG/1.1/DTD/svg11.dtd">
<!-- Created with matplotlib (https://matplotlib.org/) -->
<svg height="345.6pt" version="1.1" viewBox="0 0 460.8 345.6" width="460.8pt" xmlns="http://www.w3.org/2000/svg" xmlns:xlink="http://www.w3.org/1999/xlink">
 <defs>
  <style type="text/css">
*{stroke-linecap:butt;stroke-linejoin:round;}
  </style>
 </defs>
 <g id="figure_1">
  <g id="patch_1">
   <path d="M 0 345.6 
L 460.8 345.6 
L 460.8 0 
L 0 0 
z
" style="fill:#ffffff;"/>
  </g>
  <g id="axes_1">
   <g id="patch_2">
    <path d="M 54.14375 279.86258 
L 450 279.86258 
L 450 10.8 
L 54.14375 10.8 
z
" style="fill:#ffffff;"/>
   </g>
   <g id="matplotlib.axis_1">
    <g id="xtick_1">
     <g id="line2d_1">
      <defs>
       <path d="M 0 0 
L 0 3.5 
" id="m7997e68bc9" style="stroke:#000000;stroke-width:0.8;"/>
      </defs>
      <g>
       <use style="stroke:#000000;stroke-width:0.8;" x="93.621951" xlink:href="#m7997e68bc9" y="279.86258"/>
      </g>
     </g>
     <g id="text_1">
      <!-- 2020-03-15 -->
      <defs>
       <path d="M 19.1875 8.296875 
L 53.609375 8.296875 
L 53.609375 0 
L 7.328125 0 
L 7.328125 8.296875 
Q 12.9375 14.109375 22.625 23.890625 
Q 32.328125 33.6875 34.8125 36.53125 
Q 39.546875 41.84375 41.421875 45.53125 
Q 43.3125 49.21875 43.3125 52.78125 
Q 43.3125 58.59375 39.234375 62.25 
Q 35.15625 65.921875 28.609375 65.921875 
Q 23.96875 65.921875 18.8125 64.3125 
Q 13.671875 62.703125 7.8125 59.421875 
L 7.8125 69.390625 
Q 13.765625 71.78125 18.9375 73 
Q 24.125 74.21875 28.421875 74.21875 
Q 39.75 74.21875 46.484375 68.546875 
Q 53.21875 62.890625 53.21875 53.421875 
Q 53.21875 48.921875 51.53125 44.890625 
Q 49.859375 40.875 45.40625 35.40625 
Q 44.1875 33.984375 37.640625 27.21875 
Q 31.109375 20.453125 19.1875 8.296875 
z
" id="DejaVuSans-50"/>
       <path d="M 31.78125 66.40625 
Q 24.171875 66.40625 20.328125 58.90625 
Q 16.5 51.421875 16.5 36.375 
Q 16.5 21.390625 20.328125 13.890625 
Q 24.171875 6.390625 31.78125 6.390625 
Q 39.453125 6.390625 43.28125 13.890625 
Q 47.125 21.390625 47.125 36.375 
Q 47.125 51.421875 43.28125 58.90625 
Q 39.453125 66.40625 31.78125 66.40625 
z
M 31.78125 74.21875 
Q 44.046875 74.21875 50.515625 64.515625 
Q 56.984375 54.828125 56.984375 36.375 
Q 56.984375 17.96875 50.515625 8.265625 
Q 44.046875 -1.421875 31.78125 -1.421875 
Q 19.53125 -1.421875 13.0625 8.265625 
Q 6.59375 17.96875 6.59375 36.375 
Q 6.59375 54.828125 13.0625 64.515625 
Q 19.53125 74.21875 31.78125 74.21875 
z
" id="DejaVuSans-48"/>
       <path d="M 4.890625 31.390625 
L 31.203125 31.390625 
L 31.203125 23.390625 
L 4.890625 23.390625 
z
" id="DejaVuSans-45"/>
       <path d="M 40.578125 39.3125 
Q 47.65625 37.796875 51.625 33 
Q 55.609375 28.21875 55.609375 21.1875 
Q 55.609375 10.40625 48.1875 4.484375 
Q 40.765625 -1.421875 27.09375 -1.421875 
Q 22.515625 -1.421875 17.65625 -0.515625 
Q 12.796875 0.390625 7.625 2.203125 
L 7.625 11.71875 
Q 11.71875 9.328125 16.59375 8.109375 
Q 21.484375 6.890625 26.8125 6.890625 
Q 36.078125 6.890625 40.9375 10.546875 
Q 45.796875 14.203125 45.796875 21.1875 
Q 45.796875 27.640625 41.28125 31.265625 
Q 36.765625 34.90625 28.71875 34.90625 
L 20.21875 34.90625 
L 20.21875 43.015625 
L 29.109375 43.015625 
Q 36.375 43.015625 40.234375 45.921875 
Q 44.09375 48.828125 44.09375 54.296875 
Q 44.09375 59.90625 40.109375 62.90625 
Q 36.140625 65.921875 28.71875 65.921875 
Q 24.65625 65.921875 20.015625 65.03125 
Q 15.375 64.15625 9.8125 62.3125 
L 9.8125 71.09375 
Q 15.4375 72.65625 20.34375 73.4375 
Q 25.25 74.21875 29.59375 74.21875 
Q 40.828125 74.21875 47.359375 69.109375 
Q 53.90625 64.015625 53.90625 55.328125 
Q 53.90625 49.265625 50.4375 45.09375 
Q 46.96875 40.921875 40.578125 39.3125 
z
" id="DejaVuSans-51"/>
       <path d="M 12.40625 8.296875 
L 28.515625 8.296875 
L 28.515625 63.921875 
L 10.984375 60.40625 
L 10.984375 69.390625 
L 28.421875 72.90625 
L 38.28125 72.90625 
L 38.28125 8.296875 
L 54.390625 8.296875 
L 54.390625 0 
L 12.40625 0 
z
" id="DejaVuSans-49"/>
       <path d="M 10.796875 72.90625 
L 49.515625 72.90625 
L 49.515625 64.59375 
L 19.828125 64.59375 
L 19.828125 46.734375 
Q 21.96875 47.46875 24.109375 47.828125 
Q 26.265625 48.1875 28.421875 48.1875 
Q 40.625 48.1875 47.75 41.5 
Q 54.890625 34.8125 54.890625 23.390625 
Q 54.890625 11.625 47.5625 5.09375 
Q 40.234375 -1.421875 26.90625 -1.421875 
Q 22.3125 -1.421875 17.546875 -0.640625 
Q 12.796875 0.140625 7.71875 1.703125 
L 7.71875 11.625 
Q 12.109375 9.234375 16.796875 8.0625 
Q 21.484375 6.890625 26.703125 6.890625 
Q 35.15625 6.890625 40.078125 11.328125 
Q 45.015625 15.765625 45.015625 23.390625 
Q 45.015625 31 40.078125 35.4375 
Q 35.15625 39.890625 26.703125 39.890625 
Q 22.75 39.890625 18.8125 39.015625 
Q 14.890625 38.140625 10.796875 36.28125 
z
" id="DejaVuSans-53"/>
      </defs>
      <g transform="translate(75.026148 333.329439)rotate(-45)scale(0.1 -0.1)">
       <use xlink:href="#DejaVuSans-50"/>
       <use x="63.623047" xlink:href="#DejaVuSans-48"/>
       <use x="127.246094" xlink:href="#DejaVuSans-50"/>
       <use x="190.869141" xlink:href="#DejaVuSans-48"/>
       <use x="254.492188" xlink:href="#DejaVuSans-45"/>
       <use x="290.576172" xlink:href="#DejaVuSans-48"/>
       <use x="354.199219" xlink:href="#DejaVuSans-51"/>
       <use x="417.822266" xlink:href="#DejaVuSans-45"/>
       <use x="453.90625" xlink:href="#DejaVuSans-49"/>
       <use x="517.529297" xlink:href="#DejaVuSans-53"/>
      </g>
     </g>
    </g>
    <g id="xtick_2">
     <g id="line2d_2">
      <g>
       <use style="stroke:#000000;stroke-width:0.8;" x="184.932077" xlink:href="#m7997e68bc9" y="279.86258"/>
      </g>
     </g>
     <g id="text_2">
      <!-- 2020-04-01 -->
      <defs>
       <path d="M 37.796875 64.3125 
L 12.890625 25.390625 
L 37.796875 25.390625 
z
M 35.203125 72.90625 
L 47.609375 72.90625 
L 47.609375 25.390625 
L 58.015625 25.390625 
L 58.015625 17.1875 
L 47.609375 17.1875 
L 47.609375 0 
L 37.796875 0 
L 37.796875 17.1875 
L 4.890625 17.1875 
L 4.890625 26.703125 
z
" id="DejaVuSans-52"/>
      </defs>
      <g transform="translate(166.336273 333.329439)rotate(-45)scale(0.1 -0.1)">
       <use xlink:href="#DejaVuSans-50"/>
       <use x="63.623047" xlink:href="#DejaVuSans-48"/>
       <use x="127.246094" xlink:href="#DejaVuSans-50"/>
       <use x="190.869141" xlink:href="#DejaVuSans-48"/>
       <use x="254.492188" xlink:href="#DejaVuSans-45"/>
       <use x="290.576172" xlink:href="#DejaVuSans-48"/>
       <use x="354.199219" xlink:href="#DejaVuSans-52"/>
       <use x="417.822266" xlink:href="#DejaVuSans-45"/>
       <use x="453.90625" xlink:href="#DejaVuSans-48"/>
       <use x="517.529297" xlink:href="#DejaVuSans-49"/>
      </g>
     </g>
    </g>
    <g id="xtick_3">
     <g id="line2d_3">
      <g>
       <use style="stroke:#000000;stroke-width:0.8;" x="260.128651" xlink:href="#m7997e68bc9" y="279.86258"/>
      </g>
     </g>
     <g id="text_3">
      <!-- 2020-04-15 -->
      <g transform="translate(241.532847 333.329439)rotate(-45)scale(0.1 -0.1)">
       <use xlink:href="#DejaVuSans-50"/>
       <use x="63.623047" xlink:href="#DejaVuSans-48"/>
       <use x="127.246094" xlink:href="#DejaVuSans-50"/>
       <use x="190.869141" xlink:href="#DejaVuSans-48"/>
       <use x="254.492188" xlink:href="#DejaVuSans-45"/>
       <use x="290.576172" xlink:href="#DejaVuSans-48"/>
       <use x="354.199219" xlink:href="#DejaVuSans-52"/>
       <use x="417.822266" xlink:href="#DejaVuSans-45"/>
       <use x="453.90625" xlink:href="#DejaVuSans-49"/>
       <use x="517.529297" xlink:href="#DejaVuSans-53"/>
      </g>
     </g>
    </g>
    <g id="xtick_4">
     <g id="line2d_4">
      <g>
       <use style="stroke:#000000;stroke-width:0.8;" x="346.067592" xlink:href="#m7997e68bc9" y="279.86258"/>
      </g>
     </g>
     <g id="text_4">
      <!-- 2020-05-01 -->
      <g transform="translate(327.471789 333.329439)rotate(-45)scale(0.1 -0.1)">
       <use xlink:href="#DejaVuSans-50"/>
       <use x="63.623047" xlink:href="#DejaVuSans-48"/>
       <use x="127.246094" xlink:href="#DejaVuSans-50"/>
       <use x="190.869141" xlink:href="#DejaVuSans-48"/>
       <use x="254.492188" xlink:href="#DejaVuSans-45"/>
       <use x="290.576172" xlink:href="#DejaVuSans-48"/>
       <use x="354.199219" xlink:href="#DejaVuSans-53"/>
       <use x="417.822266" xlink:href="#DejaVuSans-45"/>
       <use x="453.90625" xlink:href="#DejaVuSans-48"/>
       <use x="517.529297" xlink:href="#DejaVuSans-49"/>
      </g>
     </g>
    </g>
    <g id="xtick_5">
     <g id="line2d_5">
      <g>
       <use style="stroke:#000000;stroke-width:0.8;" x="421.264166" xlink:href="#m7997e68bc9" y="279.86258"/>
      </g>
     </g>
     <g id="text_5">
      <!-- 2020-05-15 -->
      <g transform="translate(402.668363 333.329439)rotate(-45)scale(0.1 -0.1)">
       <use xlink:href="#DejaVuSans-50"/>
       <use x="63.623047" xlink:href="#DejaVuSans-48"/>
       <use x="127.246094" xlink:href="#DejaVuSans-50"/>
       <use x="190.869141" xlink:href="#DejaVuSans-48"/>
       <use x="254.492188" xlink:href="#DejaVuSans-45"/>
       <use x="290.576172" xlink:href="#DejaVuSans-48"/>
       <use x="354.199219" xlink:href="#DejaVuSans-53"/>
       <use x="417.822266" xlink:href="#DejaVuSans-45"/>
       <use x="453.90625" xlink:href="#DejaVuSans-49"/>
       <use x="517.529297" xlink:href="#DejaVuSans-53"/>
      </g>
     </g>
    </g>
   </g>
   <g id="matplotlib.axis_2">
    <g id="ytick_1">
     <g id="line2d_6">
      <defs>
       <path d="M 0 0 
L -3.5 0 
" id="mec59fa5121" style="stroke:#000000;stroke-width:0.8;"/>
      </defs>
      <g>
       <use style="stroke:#000000;stroke-width:0.8;" x="54.14375" xlink:href="#mec59fa5121" y="279.86258"/>
      </g>
     </g>
     <g id="text_6">
      <!-- 0.00 -->
      <defs>
       <path d="M 10.6875 12.40625 
L 21 12.40625 
L 21 0 
L 10.6875 0 
z
" id="DejaVuSans-46"/>
      </defs>
      <g transform="translate(24.878125 283.661798)scale(0.1 -0.1)">
       <use xlink:href="#DejaVuSans-48"/>
       <use x="63.623047" xlink:href="#DejaVuSans-46"/>
       <use x="95.410156" xlink:href="#DejaVuSans-48"/>
       <use x="159.033203" xlink:href="#DejaVuSans-48"/>
      </g>
     </g>
    </g>
    <g id="ytick_2">
     <g id="line2d_7">
      <g>
       <use style="stroke:#000000;stroke-width:0.8;" x="54.14375" xlink:href="#mec59fa5121" y="246.826347"/>
      </g>
     </g>
     <g id="text_7">
      <!-- 0.25 -->
      <g transform="translate(24.878125 250.625565)scale(0.1 -0.1)">
       <use xlink:href="#DejaVuSans-48"/>
       <use x="63.623047" xlink:href="#DejaVuSans-46"/>
       <use x="95.410156" xlink:href="#DejaVuSans-50"/>
       <use x="159.033203" xlink:href="#DejaVuSans-53"/>
      </g>
     </g>
    </g>
    <g id="ytick_3">
     <g id="line2d_8">
      <g>
       <use style="stroke:#000000;stroke-width:0.8;" x="54.14375" xlink:href="#mec59fa5121" y="213.790113"/>
      </g>
     </g>
     <g id="text_8">
      <!-- 0.50 -->
      <g transform="translate(24.878125 217.589332)scale(0.1 -0.1)">
       <use xlink:href="#DejaVuSans-48"/>
       <use x="63.623047" xlink:href="#DejaVuSans-46"/>
       <use x="95.410156" xlink:href="#DejaVuSans-53"/>
       <use x="159.033203" xlink:href="#DejaVuSans-48"/>
      </g>
     </g>
    </g>
    <g id="ytick_4">
     <g id="line2d_9">
      <g>
       <use style="stroke:#000000;stroke-width:0.8;" x="54.14375" xlink:href="#mec59fa5121" y="180.75388"/>
      </g>
     </g>
     <g id="text_9">
      <!-- 0.75 -->
      <defs>
       <path d="M 8.203125 72.90625 
L 55.078125 72.90625 
L 55.078125 68.703125 
L 28.609375 0 
L 18.3125 0 
L 43.21875 64.59375 
L 8.203125 64.59375 
z
" id="DejaVuSans-55"/>
      </defs>
      <g transform="translate(24.878125 184.553099)scale(0.1 -0.1)">
       <use xlink:href="#DejaVuSans-48"/>
       <use x="63.623047" xlink:href="#DejaVuSans-46"/>
       <use x="95.410156" xlink:href="#DejaVuSans-55"/>
       <use x="159.033203" xlink:href="#DejaVuSans-53"/>
      </g>
     </g>
    </g>
    <g id="ytick_5">
     <g id="line2d_10">
      <g>
       <use style="stroke:#000000;stroke-width:0.8;" x="54.14375" xlink:href="#mec59fa5121" y="147.717647"/>
      </g>
     </g>
     <g id="text_10">
      <!-- 1.00 -->
      <g transform="translate(24.878125 151.516866)scale(0.1 -0.1)">
       <use xlink:href="#DejaVuSans-49"/>
       <use x="63.623047" xlink:href="#DejaVuSans-46"/>
       <use x="95.410156" xlink:href="#DejaVuSans-48"/>
       <use x="159.033203" xlink:href="#DejaVuSans-48"/>
      </g>
     </g>
    </g>
    <g id="ytick_6">
     <g id="line2d_11">
      <g>
       <use style="stroke:#000000;stroke-width:0.8;" x="54.14375" xlink:href="#mec59fa5121" y="114.681414"/>
      </g>
     </g>
     <g id="text_11">
      <!-- 1.25 -->
      <g transform="translate(24.878125 118.480633)scale(0.1 -0.1)">
       <use xlink:href="#DejaVuSans-49"/>
       <use x="63.623047" xlink:href="#DejaVuSans-46"/>
       <use x="95.410156" xlink:href="#DejaVuSans-50"/>
       <use x="159.033203" xlink:href="#DejaVuSans-53"/>
      </g>
     </g>
    </g>
    <g id="ytick_7">
     <g id="line2d_12">
      <g>
       <use style="stroke:#000000;stroke-width:0.8;" x="54.14375" xlink:href="#mec59fa5121" y="81.645181"/>
      </g>
     </g>
     <g id="text_12">
      <!-- 1.50 -->
      <g transform="translate(24.878125 85.4444)scale(0.1 -0.1)">
       <use xlink:href="#DejaVuSans-49"/>
       <use x="63.623047" xlink:href="#DejaVuSans-46"/>
       <use x="95.410156" xlink:href="#DejaVuSans-53"/>
       <use x="159.033203" xlink:href="#DejaVuSans-48"/>
      </g>
     </g>
    </g>
    <g id="ytick_8">
     <g id="line2d_13">
      <g>
       <use style="stroke:#000000;stroke-width:0.8;" x="54.14375" xlink:href="#mec59fa5121" y="48.608948"/>
      </g>
     </g>
     <g id="text_13">
      <!-- 1.75 -->
      <g transform="translate(24.878125 52.408167)scale(0.1 -0.1)">
       <use xlink:href="#DejaVuSans-49"/>
       <use x="63.623047" xlink:href="#DejaVuSans-46"/>
       <use x="95.410156" xlink:href="#DejaVuSans-55"/>
       <use x="159.033203" xlink:href="#DejaVuSans-53"/>
      </g>
     </g>
    </g>
    <g id="ytick_9">
     <g id="line2d_14">
      <g>
       <use style="stroke:#000000;stroke-width:0.8;" x="54.14375" xlink:href="#mec59fa5121" y="15.572715"/>
      </g>
     </g>
     <g id="text_14">
      <!-- 2.00 -->
      <g transform="translate(24.878125 19.371934)scale(0.1 -0.1)">
       <use xlink:href="#DejaVuSans-50"/>
       <use x="63.623047" xlink:href="#DejaVuSans-46"/>
       <use x="95.410156" xlink:href="#DejaVuSans-48"/>
       <use x="159.033203" xlink:href="#DejaVuSans-48"/>
      </g>
     </g>
    </g>
    <g id="text_15">
     <!-- GA fallecidos (por 100000 hab.) (Media 3 días) -->
     <defs>
      <path d="M 59.515625 10.40625 
L 59.515625 29.984375 
L 43.40625 29.984375 
L 43.40625 38.09375 
L 69.28125 38.09375 
L 69.28125 6.78125 
Q 63.578125 2.734375 56.6875 0.65625 
Q 49.8125 -1.421875 42 -1.421875 
Q 24.90625 -1.421875 15.25 8.5625 
Q 5.609375 18.5625 5.609375 36.375 
Q 5.609375 54.25 15.25 64.234375 
Q 24.90625 74.21875 42 74.21875 
Q 49.125 74.21875 55.546875 72.453125 
Q 61.96875 70.703125 67.390625 67.28125 
L 67.390625 56.78125 
Q 61.921875 61.421875 55.765625 63.765625 
Q 49.609375 66.109375 42.828125 66.109375 
Q 29.4375 66.109375 22.71875 58.640625 
Q 16.015625 51.171875 16.015625 36.375 
Q 16.015625 21.625 22.71875 14.15625 
Q 29.4375 6.6875 42.828125 6.6875 
Q 48.046875 6.6875 52.140625 7.59375 
Q 56.25 8.5 59.515625 10.40625 
z
" id="DejaVuSans-71"/>
      <path d="M 34.1875 63.1875 
L 20.796875 26.90625 
L 47.609375 26.90625 
z
M 28.609375 72.90625 
L 39.796875 72.90625 
L 67.578125 0 
L 57.328125 0 
L 50.6875 18.703125 
L 17.828125 18.703125 
L 11.1875 0 
L 0.78125 0 
z
" id="DejaVuSans-65"/>
      <path id="DejaVuSans-32"/>
      <path d="M 37.109375 75.984375 
L 37.109375 68.5 
L 28.515625 68.5 
Q 23.6875 68.5 21.796875 66.546875 
Q 19.921875 64.59375 19.921875 59.515625 
L 19.921875 54.6875 
L 34.71875 54.6875 
L 34.71875 47.703125 
L 19.921875 47.703125 
L 19.921875 0 
L 10.890625 0 
L 10.890625 47.703125 
L 2.296875 47.703125 
L 2.296875 54.6875 
L 10.890625 54.6875 
L 10.890625 58.5 
Q 10.890625 67.625 15.140625 71.796875 
Q 19.390625 75.984375 28.609375 75.984375 
z
" id="DejaVuSans-102"/>
      <path d="M 34.28125 27.484375 
Q 23.390625 27.484375 19.1875 25 
Q 14.984375 22.515625 14.984375 16.5 
Q 14.984375 11.71875 18.140625 8.90625 
Q 21.296875 6.109375 26.703125 6.109375 
Q 34.1875 6.109375 38.703125 11.40625 
Q 43.21875 16.703125 43.21875 25.484375 
L 43.21875 27.484375 
z
M 52.203125 31.203125 
L 52.203125 0 
L 43.21875 0 
L 43.21875 8.296875 
Q 40.140625 3.328125 35.546875 0.953125 
Q 30.953125 -1.421875 24.3125 -1.421875 
Q 15.921875 -1.421875 10.953125 3.296875 
Q 6 8.015625 6 15.921875 
Q 6 25.140625 12.171875 29.828125 
Q 18.359375 34.515625 30.609375 34.515625 
L 43.21875 34.515625 
L 43.21875 35.40625 
Q 43.21875 41.609375 39.140625 45 
Q 35.0625 48.390625 27.6875 48.390625 
Q 23 48.390625 18.546875 47.265625 
Q 14.109375 46.140625 10.015625 43.890625 
L 10.015625 52.203125 
Q 14.9375 54.109375 19.578125 55.046875 
Q 24.21875 56 28.609375 56 
Q 40.484375 56 46.34375 49.84375 
Q 52.203125 43.703125 52.203125 31.203125 
z
" id="DejaVuSans-97"/>
      <path d="M 9.421875 75.984375 
L 18.40625 75.984375 
L 18.40625 0 
L 9.421875 0 
z
" id="DejaVuSans-108"/>
      <path d="M 56.203125 29.59375 
L 56.203125 25.203125 
L 14.890625 25.203125 
Q 15.484375 15.921875 20.484375 11.0625 
Q 25.484375 6.203125 34.421875 6.203125 
Q 39.59375 6.203125 44.453125 7.46875 
Q 49.3125 8.734375 54.109375 11.28125 
L 54.109375 2.78125 
Q 49.265625 0.734375 44.1875 -0.34375 
Q 39.109375 -1.421875 33.890625 -1.421875 
Q 20.796875 -1.421875 13.15625 6.1875 
Q 5.515625 13.8125 5.515625 26.8125 
Q 5.515625 40.234375 12.765625 48.109375 
Q 20.015625 56 32.328125 56 
Q 43.359375 56 49.78125 48.890625 
Q 56.203125 41.796875 56.203125 29.59375 
z
M 47.21875 32.234375 
Q 47.125 39.59375 43.09375 43.984375 
Q 39.0625 48.390625 32.421875 48.390625 
Q 24.90625 48.390625 20.390625 44.140625 
Q 15.875 39.890625 15.1875 32.171875 
z
" id="DejaVuSans-101"/>
      <path d="M 48.78125 52.59375 
L 48.78125 44.1875 
Q 44.96875 46.296875 41.140625 47.34375 
Q 37.3125 48.390625 33.40625 48.390625 
Q 24.65625 48.390625 19.8125 42.84375 
Q 14.984375 37.3125 14.984375 27.296875 
Q 14.984375 17.28125 19.8125 11.734375 
Q 24.65625 6.203125 33.40625 6.203125 
Q 37.3125 6.203125 41.140625 7.25 
Q 44.96875 8.296875 48.78125 10.40625 
L 48.78125 2.09375 
Q 45.015625 0.34375 40.984375 -0.53125 
Q 36.96875 -1.421875 32.421875 -1.421875 
Q 20.0625 -1.421875 12.78125 6.34375 
Q 5.515625 14.109375 5.515625 27.296875 
Q 5.515625 40.671875 12.859375 48.328125 
Q 20.21875 56 33.015625 56 
Q 37.15625 56 41.109375 55.140625 
Q 45.0625 54.296875 48.78125 52.59375 
z
" id="DejaVuSans-99"/>
      <path d="M 9.421875 54.6875 
L 18.40625 54.6875 
L 18.40625 0 
L 9.421875 0 
z
M 9.421875 75.984375 
L 18.40625 75.984375 
L 18.40625 64.59375 
L 9.421875 64.59375 
z
" id="DejaVuSans-105"/>
      <path d="M 45.40625 46.390625 
L 45.40625 75.984375 
L 54.390625 75.984375 
L 54.390625 0 
L 45.40625 0 
L 45.40625 8.203125 
Q 42.578125 3.328125 38.25 0.953125 
Q 33.9375 -1.421875 27.875 -1.421875 
Q 17.96875 -1.421875 11.734375 6.484375 
Q 5.515625 14.40625 5.515625 27.296875 
Q 5.515625 40.1875 11.734375 48.09375 
Q 17.96875 56 27.875 56 
Q 33.9375 56 38.25 53.625 
Q 42.578125 51.265625 45.40625 46.390625 
z
M 14.796875 27.296875 
Q 14.796875 17.390625 18.875 11.75 
Q 22.953125 6.109375 30.078125 6.109375 
Q 37.203125 6.109375 41.296875 11.75 
Q 45.40625 17.390625 45.40625 27.296875 
Q 45.40625 37.203125 41.296875 42.84375 
Q 37.203125 48.484375 30.078125 48.484375 
Q 22.953125 48.484375 18.875 42.84375 
Q 14.796875 37.203125 14.796875 27.296875 
z
" id="DejaVuSans-100"/>
      <path d="M 30.609375 48.390625 
Q 23.390625 48.390625 19.1875 42.75 
Q 14.984375 37.109375 14.984375 27.296875 
Q 14.984375 17.484375 19.15625 11.84375 
Q 23.34375 6.203125 30.609375 6.203125 
Q 37.796875 6.203125 41.984375 11.859375 
Q 46.1875 17.53125 46.1875 27.296875 
Q 46.1875 37.015625 41.984375 42.703125 
Q 37.796875 48.390625 30.609375 48.390625 
z
M 30.609375 56 
Q 42.328125 56 49.015625 48.375 
Q 55.71875 40.765625 55.71875 27.296875 
Q 55.71875 13.875 49.015625 6.21875 
Q 42.328125 -1.421875 30.609375 -1.421875 
Q 18.84375 -1.421875 12.171875 6.21875 
Q 5.515625 13.875 5.515625 27.296875 
Q 5.515625 40.765625 12.171875 48.375 
Q 18.84375 56 30.609375 56 
z
" id="DejaVuSans-111"/>
      <path d="M 44.28125 53.078125 
L 44.28125 44.578125 
Q 40.484375 46.53125 36.375 47.5 
Q 32.28125 48.484375 27.875 48.484375 
Q 21.1875 48.484375 17.84375 46.4375 
Q 14.5 44.390625 14.5 40.28125 
Q 14.5 37.15625 16.890625 35.375 
Q 19.28125 33.59375 26.515625 31.984375 
L 29.59375 31.296875 
Q 39.15625 29.25 43.1875 25.515625 
Q 47.21875 21.78125 47.21875 15.09375 
Q 47.21875 7.46875 41.1875 3.015625 
Q 35.15625 -1.421875 24.609375 -1.421875 
Q 20.21875 -1.421875 15.453125 -0.5625 
Q 10.6875 0.296875 5.421875 2 
L 5.421875 11.28125 
Q 10.40625 8.6875 15.234375 7.390625 
Q 20.0625 6.109375 24.8125 6.109375 
Q 31.15625 6.109375 34.5625 8.28125 
Q 37.984375 10.453125 37.984375 14.40625 
Q 37.984375 18.0625 35.515625 20.015625 
Q 33.0625 21.96875 24.703125 23.78125 
L 21.578125 24.515625 
Q 13.234375 26.265625 9.515625 29.90625 
Q 5.8125 33.546875 5.8125 39.890625 
Q 5.8125 47.609375 11.28125 51.796875 
Q 16.75 56 26.8125 56 
Q 31.78125 56 36.171875 55.265625 
Q 40.578125 54.546875 44.28125 53.078125 
z
" id="DejaVuSans-115"/>
      <path d="M 31 75.875 
Q 24.46875 64.65625 21.28125 53.65625 
Q 18.109375 42.671875 18.109375 31.390625 
Q 18.109375 20.125 21.3125 9.0625 
Q 24.515625 -2 31 -13.1875 
L 23.1875 -13.1875 
Q 15.875 -1.703125 12.234375 9.375 
Q 8.59375 20.453125 8.59375 31.390625 
Q 8.59375 42.28125 12.203125 53.3125 
Q 15.828125 64.359375 23.1875 75.875 
z
" id="DejaVuSans-40"/>
      <path d="M 18.109375 8.203125 
L 18.109375 -20.796875 
L 9.078125 -20.796875 
L 9.078125 54.6875 
L 18.109375 54.6875 
L 18.109375 46.390625 
Q 20.953125 51.265625 25.265625 53.625 
Q 29.59375 56 35.59375 56 
Q 45.5625 56 51.78125 48.09375 
Q 58.015625 40.1875 58.015625 27.296875 
Q 58.015625 14.40625 51.78125 6.484375 
Q 45.5625 -1.421875 35.59375 -1.421875 
Q 29.59375 -1.421875 25.265625 0.953125 
Q 20.953125 3.328125 18.109375 8.203125 
z
M 48.6875 27.296875 
Q 48.6875 37.203125 44.609375 42.84375 
Q 40.53125 48.484375 33.40625 48.484375 
Q 26.265625 48.484375 22.1875 42.84375 
Q 18.109375 37.203125 18.109375 27.296875 
Q 18.109375 17.390625 22.1875 11.75 
Q 26.265625 6.109375 33.40625 6.109375 
Q 40.53125 6.109375 44.609375 11.75 
Q 48.6875 17.390625 48.6875 27.296875 
z
" id="DejaVuSans-112"/>
      <path d="M 41.109375 46.296875 
Q 39.59375 47.171875 37.8125 47.578125 
Q 36.03125 48 33.890625 48 
Q 26.265625 48 22.1875 43.046875 
Q 18.109375 38.09375 18.109375 28.8125 
L 18.109375 0 
L 9.078125 0 
L 9.078125 54.6875 
L 18.109375 54.6875 
L 18.109375 46.1875 
Q 20.953125 51.171875 25.484375 53.578125 
Q 30.03125 56 36.53125 56 
Q 37.453125 56 38.578125 55.875 
Q 39.703125 55.765625 41.0625 55.515625 
z
" id="DejaVuSans-114"/>
      <path d="M 54.890625 33.015625 
L 54.890625 0 
L 45.90625 0 
L 45.90625 32.71875 
Q 45.90625 40.484375 42.875 44.328125 
Q 39.84375 48.1875 33.796875 48.1875 
Q 26.515625 48.1875 22.3125 43.546875 
Q 18.109375 38.921875 18.109375 30.90625 
L 18.109375 0 
L 9.078125 0 
L 9.078125 75.984375 
L 18.109375 75.984375 
L 18.109375 46.1875 
Q 21.34375 51.125 25.703125 53.5625 
Q 30.078125 56 35.796875 56 
Q 45.21875 56 50.046875 50.171875 
Q 54.890625 44.34375 54.890625 33.015625 
z
" id="DejaVuSans-104"/>
      <path d="M 48.6875 27.296875 
Q 48.6875 37.203125 44.609375 42.84375 
Q 40.53125 48.484375 33.40625 48.484375 
Q 26.265625 48.484375 22.1875 42.84375 
Q 18.109375 37.203125 18.109375 27.296875 
Q 18.109375 17.390625 22.1875 11.75 
Q 26.265625 6.109375 33.40625 6.109375 
Q 40.53125 6.109375 44.609375 11.75 
Q 48.6875 17.390625 48.6875 27.296875 
z
M 18.109375 46.390625 
Q 20.953125 51.265625 25.265625 53.625 
Q 29.59375 56 35.59375 56 
Q 45.5625 56 51.78125 48.09375 
Q 58.015625 40.1875 58.015625 27.296875 
Q 58.015625 14.40625 51.78125 6.484375 
Q 45.5625 -1.421875 35.59375 -1.421875 
Q 29.59375 -1.421875 25.265625 0.953125 
Q 20.953125 3.328125 18.109375 8.203125 
L 18.109375 0 
L 9.078125 0 
L 9.078125 75.984375 
L 18.109375 75.984375 
z
" id="DejaVuSans-98"/>
      <path d="M 8.015625 75.875 
L 15.828125 75.875 
Q 23.140625 64.359375 26.78125 53.3125 
Q 30.421875 42.28125 30.421875 31.390625 
Q 30.421875 20.453125 26.78125 9.375 
Q 23.140625 -1.703125 15.828125 -13.1875 
L 8.015625 -13.1875 
Q 14.5 -2 17.703125 9.0625 
Q 20.90625 20.125 20.90625 31.390625 
Q 20.90625 42.671875 17.703125 53.65625 
Q 14.5 64.65625 8.015625 75.875 
z
" id="DejaVuSans-41"/>
      <path d="M 9.8125 72.90625 
L 24.515625 72.90625 
L 43.109375 23.296875 
L 61.8125 72.90625 
L 76.515625 72.90625 
L 76.515625 0 
L 66.890625 0 
L 66.890625 64.015625 
L 48.09375 14.015625 
L 38.1875 14.015625 
L 19.390625 64.015625 
L 19.390625 0 
L 9.8125 0 
z
" id="DejaVuSans-77"/>
      <path d="M 20.65625 79.984375 
L 30.375 79.984375 
L 14.46875 61.625 
L 6.984375 61.625 
z
M 9.421875 54.6875 
L 18.40625 54.6875 
L 18.40625 0 
L 9.421875 0 
z
M 13.921875 56 
z
" id="DejaVuSans-237"/>
     </defs>
     <g transform="translate(18.798437 262.011759)rotate(-90)scale(0.1 -0.1)">
      <use xlink:href="#DejaVuSans-71"/>
      <use x="77.490234" xlink:href="#DejaVuSans-65"/>
      <use x="145.898438" xlink:href="#DejaVuSans-32"/>
      <use x="177.685547" xlink:href="#DejaVuSans-102"/>
      <use x="212.890625" xlink:href="#DejaVuSans-97"/>
      <use x="274.169922" xlink:href="#DejaVuSans-108"/>
      <use x="301.953125" xlink:href="#DejaVuSans-108"/>
      <use x="329.736328" xlink:href="#DejaVuSans-101"/>
      <use x="391.259766" xlink:href="#DejaVuSans-99"/>
      <use x="446.240234" xlink:href="#DejaVuSans-105"/>
      <use x="474.023438" xlink:href="#DejaVuSans-100"/>
      <use x="537.5" xlink:href="#DejaVuSans-111"/>
      <use x="598.681641" xlink:href="#DejaVuSans-115"/>
      <use x="650.78125" xlink:href="#DejaVuSans-32"/>
      <use x="682.568359" xlink:href="#DejaVuSans-40"/>
      <use x="721.582031" xlink:href="#DejaVuSans-112"/>
      <use x="785.058594" xlink:href="#DejaVuSans-111"/>
      <use x="846.240234" xlink:href="#DejaVuSans-114"/>
      <use x="887.353516" xlink:href="#DejaVuSans-32"/>
      <use x="919.140625" xlink:href="#DejaVuSans-49"/>
      <use x="982.763672" xlink:href="#DejaVuSans-48"/>
      <use x="1046.386719" xlink:href="#DejaVuSans-48"/>
      <use x="1110.009766" xlink:href="#DejaVuSans-48"/>
      <use x="1173.632812" xlink:href="#DejaVuSans-48"/>
      <use x="1237.255859" xlink:href="#DejaVuSans-48"/>
      <use x="1300.878906" xlink:href="#DejaVuSans-32"/>
      <use x="1332.666016" xlink:href="#DejaVuSans-104"/>
      <use x="1396.044922" xlink:href="#DejaVuSans-97"/>
      <use x="1457.324219" xlink:href="#DejaVuSans-98"/>
      <use x="1520.800781" xlink:href="#DejaVuSans-46"/>
      <use x="1552.587891" xlink:href="#DejaVuSans-41"/>
      <use x="1591.601562" xlink:href="#DejaVuSans-32"/>
      <use x="1623.388672" xlink:href="#DejaVuSans-40"/>
      <use x="1662.402344" xlink:href="#DejaVuSans-77"/>
      <use x="1748.681641" xlink:href="#DejaVuSans-101"/>
      <use x="1810.205078" xlink:href="#DejaVuSans-100"/>
      <use x="1873.681641" xlink:href="#DejaVuSans-105"/>
      <use x="1901.464844" xlink:href="#DejaVuSans-97"/>
      <use x="1962.744141" xlink:href="#DejaVuSans-32"/>
      <use x="1994.53125" xlink:href="#DejaVuSans-51"/>
      <use x="2058.154297" xlink:href="#DejaVuSans-32"/>
      <use x="2089.941406" xlink:href="#DejaVuSans-100"/>
      <use x="2153.417969" xlink:href="#DejaVuSans-237"/>
      <use x="2181.201172" xlink:href="#DejaVuSans-97"/>
      <use x="2242.480469" xlink:href="#DejaVuSans-115"/>
      <use x="2294.580078" xlink:href="#DejaVuSans-41"/>
     </g>
    </g>
   </g>
   <g id="line2d_15">
    <path clip-path="url(#p7b2b433c62)" d="M 72.137216 279.86258 
L 77.5084 279.86258 
L 82.879584 279.86258 
L 88.250767 276.598247 
L 93.621951 276.598247 
L 98.993135 274.966081 
L 104.364319 278.230414 
L 109.735503 276.598247 
L 115.106687 276.598247 
L 120.477871 270.069583 
L 125.849054 266.805251 
L 131.220238 258.644421 
L 136.591422 261.908753 
L 141.962606 255.380088 
L 147.33379 257.012254 
L 152.704974 242.32276 
L 158.076158 247.219258 
L 163.447341 234.161929 
L 168.818525 242.32276 
L 174.189709 219.472434 
L 179.560893 209.679438 
L 184.932077 191.725611 
L 190.303261 191.725611 
L 195.674445 188.461279 
L 201.045628 191.725611 
L 206.416812 194.989943 
L 211.787996 206.415106 
L 217.15918 216.208102 
L 222.530364 212.94377 
L 227.901548 216.208102 
L 233.272732 201.518607 
L 238.643915 209.679438 
L 244.015099 212.94377 
L 249.386283 232.529763 
L 254.757467 239.058427 
L 260.128651 237.426261 
L 265.499835 230.897597 
L 270.871018 222.736767 
L 276.242202 221.1046 
L 281.613386 227.633265 
L 286.98457 237.426261 
L 292.355754 243.954926 
L 297.726938 242.32276 
L 303.098122 243.954926 
L 308.469305 247.219258 
L 313.840489 248.851424 
L 319.211673 242.32276 
L 324.582857 240.690594 
L 329.954041 23.612504 
L 335.325225 41.566331 
L 340.696409 41.566331 
L 346.067592 260.276587 
L 351.438776 250.48359 
L 356.80996 252.115756 
L 362.181144 253.747922 
L 367.552328 248.851424 
L 372.923512 253.747922 
L 378.294696 258.644421 
L 383.665879 268.437417 
L 389.037063 271.701749 
L 394.408247 271.701749 
L 399.779431 274.966081 
L 405.150615 274.966081 
L 410.521799 270.069583 
L 415.892983 271.701749 
L 421.264166 271.701749 
L 426.63535 274.966081 
L 432.006534 273.333915 
" style="fill:none;stroke:#1f77b4;stroke-linecap:square;stroke-width:1.5;"/>
    <defs>
     <path d="M 0 1.5 
C 0.397805 1.5 0.77937 1.341951 1.06066 1.06066 
C 1.341951 0.77937 1.5 0.397805 1.5 0 
C 1.5 -0.397805 1.341951 -0.77937 1.06066 -1.06066 
C 0.77937 -1.341951 0.397805 -1.5 0 -1.5 
C -0.397805 -1.5 -0.77937 -1.341951 -1.06066 -1.06066 
C -1.341951 -0.77937 -1.5 -0.397805 -1.5 0 
C -1.5 0.397805 -1.341951 0.77937 -1.06066 1.06066 
C -0.77937 1.341951 -0.397805 1.5 0 1.5 
z
" id="m9b3860bbc9" style="stroke:#1f77b4;"/>
    </defs>
    <g clip-path="url(#p7b2b433c62)">
     <use style="fill:#1f77b4;stroke:#1f77b4;" x="72.137216" xlink:href="#m9b3860bbc9" y="279.86258"/>
     <use style="fill:#1f77b4;stroke:#1f77b4;" x="77.5084" xlink:href="#m9b3860bbc9" y="279.86258"/>
     <use style="fill:#1f77b4;stroke:#1f77b4;" x="82.879584" xlink:href="#m9b3860bbc9" y="279.86258"/>
     <use style="fill:#1f77b4;stroke:#1f77b4;" x="88.250767" xlink:href="#m9b3860bbc9" y="276.598247"/>
     <use style="fill:#1f77b4;stroke:#1f77b4;" x="93.621951" xlink:href="#m9b3860bbc9" y="276.598247"/>
     <use style="fill:#1f77b4;stroke:#1f77b4;" x="98.993135" xlink:href="#m9b3860bbc9" y="274.966081"/>
     <use style="fill:#1f77b4;stroke:#1f77b4;" x="104.364319" xlink:href="#m9b3860bbc9" y="278.230414"/>
     <use style="fill:#1f77b4;stroke:#1f77b4;" x="109.735503" xlink:href="#m9b3860bbc9" y="276.598247"/>
     <use style="fill:#1f77b4;stroke:#1f77b4;" x="115.106687" xlink:href="#m9b3860bbc9" y="276.598247"/>
     <use style="fill:#1f77b4;stroke:#1f77b4;" x="120.477871" xlink:href="#m9b3860bbc9" y="270.069583"/>
     <use style="fill:#1f77b4;stroke:#1f77b4;" x="125.849054" xlink:href="#m9b3860bbc9" y="266.805251"/>
     <use style="fill:#1f77b4;stroke:#1f77b4;" x="131.220238" xlink:href="#m9b3860bbc9" y="258.644421"/>
     <use style="fill:#1f77b4;stroke:#1f77b4;" x="136.591422" xlink:href="#m9b3860bbc9" y="261.908753"/>
     <use style="fill:#1f77b4;stroke:#1f77b4;" x="141.962606" xlink:href="#m9b3860bbc9" y="255.380088"/>
     <use style="fill:#1f77b4;stroke:#1f77b4;" x="147.33379" xlink:href="#m9b3860bbc9" y="257.012254"/>
     <use style="fill:#1f77b4;stroke:#1f77b4;" x="152.704974" xlink:href="#m9b3860bbc9" y="242.32276"/>
     <use style="fill:#1f77b4;stroke:#1f77b4;" x="158.076158" xlink:href="#m9b3860bbc9" y="247.219258"/>
     <use style="fill:#1f77b4;stroke:#1f77b4;" x="163.447341" xlink:href="#m9b3860bbc9" y="234.161929"/>
     <use style="fill:#1f77b4;stroke:#1f77b4;" x="168.818525" xlink:href="#m9b3860bbc9" y="242.32276"/>
     <use style="fill:#1f77b4;stroke:#1f77b4;" x="174.189709" xlink:href="#m9b3860bbc9" y="219.472434"/>
     <use style="fill:#1f77b4;stroke:#1f77b4;" x="179.560893" xlink:href="#m9b3860bbc9" y="209.679438"/>
     <use style="fill:#1f77b4;stroke:#1f77b4;" x="184.932077" xlink:href="#m9b3860bbc9" y="191.725611"/>
     <use style="fill:#1f77b4;stroke:#1f77b4;" x="190.303261" xlink:href="#m9b3860bbc9" y="191.725611"/>
     <use style="fill:#1f77b4;stroke:#1f77b4;" x="195.674445" xlink:href="#m9b3860bbc9" y="188.461279"/>
     <use style="fill:#1f77b4;stroke:#1f77b4;" x="201.045628" xlink:href="#m9b3860bbc9" y="191.725611"/>
     <use style="fill:#1f77b4;stroke:#1f77b4;" x="206.416812" xlink:href="#m9b3860bbc9" y="194.989943"/>
     <use style="fill:#1f77b4;stroke:#1f77b4;" x="211.787996" xlink:href="#m9b3860bbc9" y="206.415106"/>
     <use style="fill:#1f77b4;stroke:#1f77b4;" x="217.15918" xlink:href="#m9b3860bbc9" y="216.208102"/>
     <use style="fill:#1f77b4;stroke:#1f77b4;" x="222.530364" xlink:href="#m9b3860bbc9" y="212.94377"/>
     <use style="fill:#1f77b4;stroke:#1f77b4;" x="227.901548" xlink:href="#m9b3860bbc9" y="216.208102"/>
     <use style="fill:#1f77b4;stroke:#1f77b4;" x="233.272732" xlink:href="#m9b3860bbc9" y="201.518607"/>
     <use style="fill:#1f77b4;stroke:#1f77b4;" x="238.643915" xlink:href="#m9b3860bbc9" y="209.679438"/>
     <use style="fill:#1f77b4;stroke:#1f77b4;" x="244.015099" xlink:href="#m9b3860bbc9" y="212.94377"/>
     <use style="fill:#1f77b4;stroke:#1f77b4;" x="249.386283" xlink:href="#m9b3860bbc9" y="232.529763"/>
     <use style="fill:#1f77b4;stroke:#1f77b4;" x="254.757467" xlink:href="#m9b3860bbc9" y="239.058427"/>
     <use style="fill:#1f77b4;stroke:#1f77b4;" x="260.128651" xlink:href="#m9b3860bbc9" y="237.426261"/>
     <use style="fill:#1f77b4;stroke:#1f77b4;" x="265.499835" xlink:href="#m9b3860bbc9" y="230.897597"/>
     <use style="fill:#1f77b4;stroke:#1f77b4;" x="270.871018" xlink:href="#m9b3860bbc9" y="222.736767"/>
     <use style="fill:#1f77b4;stroke:#1f77b4;" x="276.242202" xlink:href="#m9b3860bbc9" y="221.1046"/>
     <use style="fill:#1f77b4;stroke:#1f77b4;" x="281.613386" xlink:href="#m9b3860bbc9" y="227.633265"/>
     <use style="fill:#1f77b4;stroke:#1f77b4;" x="286.98457" xlink:href="#m9b3860bbc9" y="237.426261"/>
     <use style="fill:#1f77b4;stroke:#1f77b4;" x="292.355754" xlink:href="#m9b3860bbc9" y="243.954926"/>
     <use style="fill:#1f77b4;stroke:#1f77b4;" x="297.726938" xlink:href="#m9b3860bbc9" y="242.32276"/>
     <use style="fill:#1f77b4;stroke:#1f77b4;" x="303.098122" xlink:href="#m9b3860bbc9" y="243.954926"/>
     <use style="fill:#1f77b4;stroke:#1f77b4;" x="308.469305" xlink:href="#m9b3860bbc9" y="247.219258"/>
     <use style="fill:#1f77b4;stroke:#1f77b4;" x="313.840489" xlink:href="#m9b3860bbc9" y="248.851424"/>
     <use style="fill:#1f77b4;stroke:#1f77b4;" x="319.211673" xlink:href="#m9b3860bbc9" y="242.32276"/>
     <use style="fill:#1f77b4;stroke:#1f77b4;" x="324.582857" xlink:href="#m9b3860bbc9" y="240.690594"/>
     <use style="fill:#1f77b4;stroke:#1f77b4;" x="329.954041" xlink:href="#m9b3860bbc9" y="23.612504"/>
     <use style="fill:#1f77b4;stroke:#1f77b4;" x="335.325225" xlink:href="#m9b3860bbc9" y="41.566331"/>
     <use style="fill:#1f77b4;stroke:#1f77b4;" x="340.696409" xlink:href="#m9b3860bbc9" y="41.566331"/>
     <use style="fill:#1f77b4;stroke:#1f77b4;" x="346.067592" xlink:href="#m9b3860bbc9" y="260.276587"/>
     <use style="fill:#1f77b4;stroke:#1f77b4;" x="351.438776" xlink:href="#m9b3860bbc9" y="250.48359"/>
     <use style="fill:#1f77b4;stroke:#1f77b4;" x="356.80996" xlink:href="#m9b3860bbc9" y="252.115756"/>
     <use style="fill:#1f77b4;stroke:#1f77b4;" x="362.181144" xlink:href="#m9b3860bbc9" y="253.747922"/>
     <use style="fill:#1f77b4;stroke:#1f77b4;" x="367.552328" xlink:href="#m9b3860bbc9" y="248.851424"/>
     <use style="fill:#1f77b4;stroke:#1f77b4;" x="372.923512" xlink:href="#m9b3860bbc9" y="253.747922"/>
     <use style="fill:#1f77b4;stroke:#1f77b4;" x="378.294696" xlink:href="#m9b3860bbc9" y="258.644421"/>
     <use style="fill:#1f77b4;stroke:#1f77b4;" x="383.665879" xlink:href="#m9b3860bbc9" y="268.437417"/>
     <use style="fill:#1f77b4;stroke:#1f77b4;" x="389.037063" xlink:href="#m9b3860bbc9" y="271.701749"/>
     <use style="fill:#1f77b4;stroke:#1f77b4;" x="394.408247" xlink:href="#m9b3860bbc9" y="271.701749"/>
     <use style="fill:#1f77b4;stroke:#1f77b4;" x="399.779431" xlink:href="#m9b3860bbc9" y="274.966081"/>
     <use style="fill:#1f77b4;stroke:#1f77b4;" x="405.150615" xlink:href="#m9b3860bbc9" y="274.966081"/>
     <use style="fill:#1f77b4;stroke:#1f77b4;" x="410.521799" xlink:href="#m9b3860bbc9" y="270.069583"/>
     <use style="fill:#1f77b4;stroke:#1f77b4;" x="415.892983" xlink:href="#m9b3860bbc9" y="271.701749"/>
     <use style="fill:#1f77b4;stroke:#1f77b4;" x="421.264166" xlink:href="#m9b3860bbc9" y="271.701749"/>
     <use style="fill:#1f77b4;stroke:#1f77b4;" x="426.63535" xlink:href="#m9b3860bbc9" y="274.966081"/>
     <use style="fill:#1f77b4;stroke:#1f77b4;" x="432.006534" xlink:href="#m9b3860bbc9" y="273.333915"/>
    </g>
   </g>
   <g id="patch_3">
    <path d="M 54.14375 279.86258 
L 54.14375 10.8 
" style="fill:none;stroke:#000000;stroke-linecap:square;stroke-linejoin:miter;stroke-width:0.8;"/>
   </g>
   <g id="patch_4">
    <path d="M 450 279.86258 
L 450 10.8 
" style="fill:none;stroke:#000000;stroke-linecap:square;stroke-linejoin:miter;stroke-width:0.8;"/>
   </g>
   <g id="patch_5">
    <path d="M 54.14375 279.86258 
L 450 279.86258 
" style="fill:none;stroke:#000000;stroke-linecap:square;stroke-linejoin:miter;stroke-width:0.8;"/>
   </g>
   <g id="patch_6">
    <path d="M 54.14375 10.8 
L 450 10.8 
" style="fill:none;stroke:#000000;stroke-linecap:square;stroke-linejoin:miter;stroke-width:0.8;"/>
   </g>
  </g>
 </g>
 <defs>
  <clipPath id="p7b2b433c62">
   <rect height="269.06258" width="395.85625" x="54.14375" y="10.8"/>
  </clipPath>
 </defs>
</svg>
