<?xml version="1.0" encoding="utf-8" standalone="no"?>
<!DOCTYPE svg PUBLIC "-//W3C//DTD SVG 1.1//EN"
  "http://www.w3.org/Graphics/SVG/1.1/DTD/svg11.dtd">
<!-- Created with matplotlib (https://matplotlib.org/) -->
<svg height="345.6pt" version="1.1" viewBox="0 0 460.8 345.6" width="460.8pt" xmlns="http://www.w3.org/2000/svg" xmlns:xlink="http://www.w3.org/1999/xlink">
 <defs>
  <style type="text/css">
*{stroke-linecap:butt;stroke-linejoin:round;}
  </style>
 </defs>
 <g id="figure_1">
  <g id="patch_1">
   <path d="M 0 345.6 
L 460.8 345.6 
L 460.8 0 
L 0 0 
z
" style="fill:#ffffff;"/>
  </g>
  <g id="axes_1">
   <g id="patch_2">
    <path d="M 47.38125 279.86258 
L 450 279.86258 
L 450 10.8 
L 47.38125 10.8 
z
" style="fill:#ffffff;"/>
   </g>
   <g id="matplotlib.axis_1">
    <g id="xtick_1">
     <g id="line2d_1">
      <defs>
       <path d="M 0 0 
L 0 3.5 
" id="m1cf7d63806" style="stroke:#000000;stroke-width:0.8;"/>
      </defs>
      <g>
       <use style="stroke:#000000;stroke-width:0.8;" x="107.380247" xlink:href="#m1cf7d63806" y="279.86258"/>
      </g>
     </g>
     <g id="text_1">
      <!-- 2020-03-01 -->
      <defs>
       <path d="M 19.1875 8.296875 
L 53.609375 8.296875 
L 53.609375 0 
L 7.328125 0 
L 7.328125 8.296875 
Q 12.9375 14.109375 22.625 23.890625 
Q 32.328125 33.6875 34.8125 36.53125 
Q 39.546875 41.84375 41.421875 45.53125 
Q 43.3125 49.21875 43.3125 52.78125 
Q 43.3125 58.59375 39.234375 62.25 
Q 35.15625 65.921875 28.609375 65.921875 
Q 23.96875 65.921875 18.8125 64.3125 
Q 13.671875 62.703125 7.8125 59.421875 
L 7.8125 69.390625 
Q 13.765625 71.78125 18.9375 73 
Q 24.125 74.21875 28.421875 74.21875 
Q 39.75 74.21875 46.484375 68.546875 
Q 53.21875 62.890625 53.21875 53.421875 
Q 53.21875 48.921875 51.53125 44.890625 
Q 49.859375 40.875 45.40625 35.40625 
Q 44.1875 33.984375 37.640625 27.21875 
Q 31.109375 20.453125 19.1875 8.296875 
z
" id="DejaVuSans-50"/>
       <path d="M 31.78125 66.40625 
Q 24.171875 66.40625 20.328125 58.90625 
Q 16.5 51.421875 16.5 36.375 
Q 16.5 21.390625 20.328125 13.890625 
Q 24.171875 6.390625 31.78125 6.390625 
Q 39.453125 6.390625 43.28125 13.890625 
Q 47.125 21.390625 47.125 36.375 
Q 47.125 51.421875 43.28125 58.90625 
Q 39.453125 66.40625 31.78125 66.40625 
z
M 31.78125 74.21875 
Q 44.046875 74.21875 50.515625 64.515625 
Q 56.984375 54.828125 56.984375 36.375 
Q 56.984375 17.96875 50.515625 8.265625 
Q 44.046875 -1.421875 31.78125 -1.421875 
Q 19.53125 -1.421875 13.0625 8.265625 
Q 6.59375 17.96875 6.59375 36.375 
Q 6.59375 54.828125 13.0625 64.515625 
Q 19.53125 74.21875 31.78125 74.21875 
z
" id="DejaVuSans-48"/>
       <path d="M 4.890625 31.390625 
L 31.203125 31.390625 
L 31.203125 23.390625 
L 4.890625 23.390625 
z
" id="DejaVuSans-45"/>
       <path d="M 40.578125 39.3125 
Q 47.65625 37.796875 51.625 33 
Q 55.609375 28.21875 55.609375 21.1875 
Q 55.609375 10.40625 48.1875 4.484375 
Q 40.765625 -1.421875 27.09375 -1.421875 
Q 22.515625 -1.421875 17.65625 -0.515625 
Q 12.796875 0.390625 7.625 2.203125 
L 7.625 11.71875 
Q 11.71875 9.328125 16.59375 8.109375 
Q 21.484375 6.890625 26.8125 6.890625 
Q 36.078125 6.890625 40.9375 10.546875 
Q 45.796875 14.203125 45.796875 21.1875 
Q 45.796875 27.640625 41.28125 31.265625 
Q 36.765625 34.90625 28.71875 34.90625 
L 20.21875 34.90625 
L 20.21875 43.015625 
L 29.109375 43.015625 
Q 36.375 43.015625 40.234375 45.921875 
Q 44.09375 48.828125 44.09375 54.296875 
Q 44.09375 59.90625 40.109375 62.90625 
Q 36.140625 65.921875 28.71875 65.921875 
Q 24.65625 65.921875 20.015625 65.03125 
Q 15.375 64.15625 9.8125 62.3125 
L 9.8125 71.09375 
Q 15.4375 72.65625 20.34375 73.4375 
Q 25.25 74.21875 29.59375 74.21875 
Q 40.828125 74.21875 47.359375 69.109375 
Q 53.90625 64.015625 53.90625 55.328125 
Q 53.90625 49.265625 50.4375 45.09375 
Q 46.96875 40.921875 40.578125 39.3125 
z
" id="DejaVuSans-51"/>
       <path d="M 12.40625 8.296875 
L 28.515625 8.296875 
L 28.515625 63.921875 
L 10.984375 60.40625 
L 10.984375 69.390625 
L 28.421875 72.90625 
L 38.28125 72.90625 
L 38.28125 8.296875 
L 54.390625 8.296875 
L 54.390625 0 
L 12.40625 0 
z
" id="DejaVuSans-49"/>
      </defs>
      <g transform="translate(88.784443 333.329439)rotate(-45)scale(0.1 -0.1)">
       <use xlink:href="#DejaVuSans-50"/>
       <use x="63.623047" xlink:href="#DejaVuSans-48"/>
       <use x="127.246094" xlink:href="#DejaVuSans-50"/>
       <use x="190.869141" xlink:href="#DejaVuSans-48"/>
       <use x="254.492188" xlink:href="#DejaVuSans-45"/>
       <use x="290.576172" xlink:href="#DejaVuSans-48"/>
       <use x="354.199219" xlink:href="#DejaVuSans-51"/>
       <use x="417.822266" xlink:href="#DejaVuSans-45"/>
       <use x="453.90625" xlink:href="#DejaVuSans-48"/>
       <use x="517.529297" xlink:href="#DejaVuSans-49"/>
      </g>
     </g>
    </g>
    <g id="xtick_2">
     <g id="line2d_2">
      <g>
       <use style="stroke:#000000;stroke-width:0.8;" x="172.244027" xlink:href="#m1cf7d63806" y="279.86258"/>
      </g>
     </g>
     <g id="text_2">
      <!-- 2020-03-15 -->
      <defs>
       <path d="M 10.796875 72.90625 
L 49.515625 72.90625 
L 49.515625 64.59375 
L 19.828125 64.59375 
L 19.828125 46.734375 
Q 21.96875 47.46875 24.109375 47.828125 
Q 26.265625 48.1875 28.421875 48.1875 
Q 40.625 48.1875 47.75 41.5 
Q 54.890625 34.8125 54.890625 23.390625 
Q 54.890625 11.625 47.5625 5.09375 
Q 40.234375 -1.421875 26.90625 -1.421875 
Q 22.3125 -1.421875 17.546875 -0.640625 
Q 12.796875 0.140625 7.71875 1.703125 
L 7.71875 11.625 
Q 12.109375 9.234375 16.796875 8.0625 
Q 21.484375 6.890625 26.703125 6.890625 
Q 35.15625 6.890625 40.078125 11.328125 
Q 45.015625 15.765625 45.015625 23.390625 
Q 45.015625 31 40.078125 35.4375 
Q 35.15625 39.890625 26.703125 39.890625 
Q 22.75 39.890625 18.8125 39.015625 
Q 14.890625 38.140625 10.796875 36.28125 
z
" id="DejaVuSans-53"/>
      </defs>
      <g transform="translate(153.648223 333.329439)rotate(-45)scale(0.1 -0.1)">
       <use xlink:href="#DejaVuSans-50"/>
       <use x="63.623047" xlink:href="#DejaVuSans-48"/>
       <use x="127.246094" xlink:href="#DejaVuSans-50"/>
       <use x="190.869141" xlink:href="#DejaVuSans-48"/>
       <use x="254.492188" xlink:href="#DejaVuSans-45"/>
       <use x="290.576172" xlink:href="#DejaVuSans-48"/>
       <use x="354.199219" xlink:href="#DejaVuSans-51"/>
       <use x="417.822266" xlink:href="#DejaVuSans-45"/>
       <use x="453.90625" xlink:href="#DejaVuSans-49"/>
       <use x="517.529297" xlink:href="#DejaVuSans-53"/>
      </g>
     </g>
    </g>
    <g id="xtick_3">
     <g id="line2d_3">
      <g>
       <use style="stroke:#000000;stroke-width:0.8;" x="251.007189" xlink:href="#m1cf7d63806" y="279.86258"/>
      </g>
     </g>
     <g id="text_3">
      <!-- 2020-04-01 -->
      <defs>
       <path d="M 37.796875 64.3125 
L 12.890625 25.390625 
L 37.796875 25.390625 
z
M 35.203125 72.90625 
L 47.609375 72.90625 
L 47.609375 25.390625 
L 58.015625 25.390625 
L 58.015625 17.1875 
L 47.609375 17.1875 
L 47.609375 0 
L 37.796875 0 
L 37.796875 17.1875 
L 4.890625 17.1875 
L 4.890625 26.703125 
z
" id="DejaVuSans-52"/>
      </defs>
      <g transform="translate(232.411385 333.329439)rotate(-45)scale(0.1 -0.1)">
       <use xlink:href="#DejaVuSans-50"/>
       <use x="63.623047" xlink:href="#DejaVuSans-48"/>
       <use x="127.246094" xlink:href="#DejaVuSans-50"/>
       <use x="190.869141" xlink:href="#DejaVuSans-48"/>
       <use x="254.492188" xlink:href="#DejaVuSans-45"/>
       <use x="290.576172" xlink:href="#DejaVuSans-48"/>
       <use x="354.199219" xlink:href="#DejaVuSans-52"/>
       <use x="417.822266" xlink:href="#DejaVuSans-45"/>
       <use x="453.90625" xlink:href="#DejaVuSans-48"/>
       <use x="517.529297" xlink:href="#DejaVuSans-49"/>
      </g>
     </g>
    </g>
    <g id="xtick_4">
     <g id="line2d_4">
      <g>
       <use style="stroke:#000000;stroke-width:0.8;" x="315.870969" xlink:href="#m1cf7d63806" y="279.86258"/>
      </g>
     </g>
     <g id="text_4">
      <!-- 2020-04-15 -->
      <g transform="translate(297.275165 333.329439)rotate(-45)scale(0.1 -0.1)">
       <use xlink:href="#DejaVuSans-50"/>
       <use x="63.623047" xlink:href="#DejaVuSans-48"/>
       <use x="127.246094" xlink:href="#DejaVuSans-50"/>
       <use x="190.869141" xlink:href="#DejaVuSans-48"/>
       <use x="254.492188" xlink:href="#DejaVuSans-45"/>
       <use x="290.576172" xlink:href="#DejaVuSans-48"/>
       <use x="354.199219" xlink:href="#DejaVuSans-52"/>
       <use x="417.822266" xlink:href="#DejaVuSans-45"/>
       <use x="453.90625" xlink:href="#DejaVuSans-49"/>
       <use x="517.529297" xlink:href="#DejaVuSans-53"/>
      </g>
     </g>
    </g>
    <g id="xtick_5">
     <g id="line2d_5">
      <g>
       <use style="stroke:#000000;stroke-width:0.8;" x="390.001003" xlink:href="#m1cf7d63806" y="279.86258"/>
      </g>
     </g>
     <g id="text_5">
      <!-- 2020-05-01 -->
      <g transform="translate(371.4052 333.329439)rotate(-45)scale(0.1 -0.1)">
       <use xlink:href="#DejaVuSans-50"/>
       <use x="63.623047" xlink:href="#DejaVuSans-48"/>
       <use x="127.246094" xlink:href="#DejaVuSans-50"/>
       <use x="190.869141" xlink:href="#DejaVuSans-48"/>
       <use x="254.492188" xlink:href="#DejaVuSans-45"/>
       <use x="290.576172" xlink:href="#DejaVuSans-48"/>
       <use x="354.199219" xlink:href="#DejaVuSans-53"/>
       <use x="417.822266" xlink:href="#DejaVuSans-45"/>
       <use x="453.90625" xlink:href="#DejaVuSans-48"/>
       <use x="517.529297" xlink:href="#DejaVuSans-49"/>
      </g>
     </g>
    </g>
   </g>
   <g id="matplotlib.axis_2">
    <g id="ytick_1">
     <g id="line2d_6">
      <defs>
       <path d="M 0 0 
L -3.5 0 
" id="md74e9012a5" style="stroke:#000000;stroke-width:0.8;"/>
      </defs>
      <g>
       <use style="stroke:#000000;stroke-width:0.8;" x="47.38125" xlink:href="#md74e9012a5" y="267.632462"/>
      </g>
     </g>
     <g id="text_6">
      <!-- 0.0 -->
      <defs>
       <path d="M 10.6875 12.40625 
L 21 12.40625 
L 21 0 
L 10.6875 0 
z
" id="DejaVuSans-46"/>
      </defs>
      <g transform="translate(24.478125 271.431681)scale(0.1 -0.1)">
       <use xlink:href="#DejaVuSans-48"/>
       <use x="63.623047" xlink:href="#DejaVuSans-46"/>
       <use x="95.410156" xlink:href="#DejaVuSans-48"/>
      </g>
     </g>
    </g>
    <g id="ytick_2">
     <g id="line2d_7">
      <g>
       <use style="stroke:#000000;stroke-width:0.8;" x="47.38125" xlink:href="#md74e9012a5" y="213.290399"/>
      </g>
     </g>
     <g id="text_7">
      <!-- 0.2 -->
      <g transform="translate(24.478125 217.089617)scale(0.1 -0.1)">
       <use xlink:href="#DejaVuSans-48"/>
       <use x="63.623047" xlink:href="#DejaVuSans-46"/>
       <use x="95.410156" xlink:href="#DejaVuSans-50"/>
      </g>
     </g>
    </g>
    <g id="ytick_3">
     <g id="line2d_8">
      <g>
       <use style="stroke:#000000;stroke-width:0.8;" x="47.38125" xlink:href="#md74e9012a5" y="158.948335"/>
      </g>
     </g>
     <g id="text_8">
      <!-- 0.4 -->
      <g transform="translate(24.478125 162.747554)scale(0.1 -0.1)">
       <use xlink:href="#DejaVuSans-48"/>
       <use x="63.623047" xlink:href="#DejaVuSans-46"/>
       <use x="95.410156" xlink:href="#DejaVuSans-52"/>
      </g>
     </g>
    </g>
    <g id="ytick_4">
     <g id="line2d_9">
      <g>
       <use style="stroke:#000000;stroke-width:0.8;" x="47.38125" xlink:href="#md74e9012a5" y="104.606271"/>
      </g>
     </g>
     <g id="text_9">
      <!-- 0.6 -->
      <defs>
       <path d="M 33.015625 40.375 
Q 26.375 40.375 22.484375 35.828125 
Q 18.609375 31.296875 18.609375 23.390625 
Q 18.609375 15.53125 22.484375 10.953125 
Q 26.375 6.390625 33.015625 6.390625 
Q 39.65625 6.390625 43.53125 10.953125 
Q 47.40625 15.53125 47.40625 23.390625 
Q 47.40625 31.296875 43.53125 35.828125 
Q 39.65625 40.375 33.015625 40.375 
z
M 52.59375 71.296875 
L 52.59375 62.3125 
Q 48.875 64.0625 45.09375 64.984375 
Q 41.3125 65.921875 37.59375 65.921875 
Q 27.828125 65.921875 22.671875 59.328125 
Q 17.53125 52.734375 16.796875 39.40625 
Q 19.671875 43.65625 24.015625 45.921875 
Q 28.375 48.1875 33.59375 48.1875 
Q 44.578125 48.1875 50.953125 41.515625 
Q 57.328125 34.859375 57.328125 23.390625 
Q 57.328125 12.15625 50.6875 5.359375 
Q 44.046875 -1.421875 33.015625 -1.421875 
Q 20.359375 -1.421875 13.671875 8.265625 
Q 6.984375 17.96875 6.984375 36.375 
Q 6.984375 53.65625 15.1875 63.9375 
Q 23.390625 74.21875 37.203125 74.21875 
Q 40.921875 74.21875 44.703125 73.484375 
Q 48.484375 72.75 52.59375 71.296875 
z
" id="DejaVuSans-54"/>
      </defs>
      <g transform="translate(24.478125 108.40549)scale(0.1 -0.1)">
       <use xlink:href="#DejaVuSans-48"/>
       <use x="63.623047" xlink:href="#DejaVuSans-46"/>
       <use x="95.410156" xlink:href="#DejaVuSans-54"/>
      </g>
     </g>
    </g>
    <g id="ytick_5">
     <g id="line2d_10">
      <g>
       <use style="stroke:#000000;stroke-width:0.8;" x="47.38125" xlink:href="#md74e9012a5" y="50.264208"/>
      </g>
     </g>
     <g id="text_10">
      <!-- 0.8 -->
      <defs>
       <path d="M 31.78125 34.625 
Q 24.75 34.625 20.71875 30.859375 
Q 16.703125 27.09375 16.703125 20.515625 
Q 16.703125 13.921875 20.71875 10.15625 
Q 24.75 6.390625 31.78125 6.390625 
Q 38.8125 6.390625 42.859375 10.171875 
Q 46.921875 13.96875 46.921875 20.515625 
Q 46.921875 27.09375 42.890625 30.859375 
Q 38.875 34.625 31.78125 34.625 
z
M 21.921875 38.8125 
Q 15.578125 40.375 12.03125 44.71875 
Q 8.5 49.078125 8.5 55.328125 
Q 8.5 64.0625 14.71875 69.140625 
Q 20.953125 74.21875 31.78125 74.21875 
Q 42.671875 74.21875 48.875 69.140625 
Q 55.078125 64.0625 55.078125 55.328125 
Q 55.078125 49.078125 51.53125 44.71875 
Q 48 40.375 41.703125 38.8125 
Q 48.828125 37.15625 52.796875 32.3125 
Q 56.78125 27.484375 56.78125 20.515625 
Q 56.78125 9.90625 50.3125 4.234375 
Q 43.84375 -1.421875 31.78125 -1.421875 
Q 19.734375 -1.421875 13.25 4.234375 
Q 6.78125 9.90625 6.78125 20.515625 
Q 6.78125 27.484375 10.78125 32.3125 
Q 14.796875 37.15625 21.921875 38.8125 
z
M 18.3125 54.390625 
Q 18.3125 48.734375 21.84375 45.5625 
Q 25.390625 42.390625 31.78125 42.390625 
Q 38.140625 42.390625 41.71875 45.5625 
Q 45.3125 48.734375 45.3125 54.390625 
Q 45.3125 60.0625 41.71875 63.234375 
Q 38.140625 66.40625 31.78125 66.40625 
Q 25.390625 66.40625 21.84375 63.234375 
Q 18.3125 60.0625 18.3125 54.390625 
z
" id="DejaVuSans-56"/>
      </defs>
      <g transform="translate(24.478125 54.063426)scale(0.1 -0.1)">
       <use xlink:href="#DejaVuSans-48"/>
       <use x="63.623047" xlink:href="#DejaVuSans-46"/>
       <use x="95.410156" xlink:href="#DejaVuSans-56"/>
      </g>
     </g>
    </g>
    <g id="text_11">
     <!-- VC uci (por 100000 hab.) diarios -->
     <defs>
      <path d="M 28.609375 0 
L 0.78125 72.90625 
L 11.078125 72.90625 
L 34.1875 11.53125 
L 57.328125 72.90625 
L 67.578125 72.90625 
L 39.796875 0 
z
" id="DejaVuSans-86"/>
      <path d="M 64.40625 67.28125 
L 64.40625 56.890625 
Q 59.421875 61.53125 53.78125 63.8125 
Q 48.140625 66.109375 41.796875 66.109375 
Q 29.296875 66.109375 22.65625 58.46875 
Q 16.015625 50.828125 16.015625 36.375 
Q 16.015625 21.96875 22.65625 14.328125 
Q 29.296875 6.6875 41.796875 6.6875 
Q 48.140625 6.6875 53.78125 8.984375 
Q 59.421875 11.28125 64.40625 15.921875 
L 64.40625 5.609375 
Q 59.234375 2.09375 53.4375 0.328125 
Q 47.65625 -1.421875 41.21875 -1.421875 
Q 24.65625 -1.421875 15.125 8.703125 
Q 5.609375 18.84375 5.609375 36.375 
Q 5.609375 53.953125 15.125 64.078125 
Q 24.65625 74.21875 41.21875 74.21875 
Q 47.75 74.21875 53.53125 72.484375 
Q 59.328125 70.75 64.40625 67.28125 
z
" id="DejaVuSans-67"/>
      <path id="DejaVuSans-32"/>
      <path d="M 8.5 21.578125 
L 8.5 54.6875 
L 17.484375 54.6875 
L 17.484375 21.921875 
Q 17.484375 14.15625 20.5 10.265625 
Q 23.53125 6.390625 29.59375 6.390625 
Q 36.859375 6.390625 41.078125 11.03125 
Q 45.3125 15.671875 45.3125 23.6875 
L 45.3125 54.6875 
L 54.296875 54.6875 
L 54.296875 0 
L 45.3125 0 
L 45.3125 8.40625 
Q 42.046875 3.421875 37.71875 1 
Q 33.40625 -1.421875 27.6875 -1.421875 
Q 18.265625 -1.421875 13.375 4.4375 
Q 8.5 10.296875 8.5 21.578125 
z
M 31.109375 56 
z
" id="DejaVuSans-117"/>
      <path d="M 48.78125 52.59375 
L 48.78125 44.1875 
Q 44.96875 46.296875 41.140625 47.34375 
Q 37.3125 48.390625 33.40625 48.390625 
Q 24.65625 48.390625 19.8125 42.84375 
Q 14.984375 37.3125 14.984375 27.296875 
Q 14.984375 17.28125 19.8125 11.734375 
Q 24.65625 6.203125 33.40625 6.203125 
Q 37.3125 6.203125 41.140625 7.25 
Q 44.96875 8.296875 48.78125 10.40625 
L 48.78125 2.09375 
Q 45.015625 0.34375 40.984375 -0.53125 
Q 36.96875 -1.421875 32.421875 -1.421875 
Q 20.0625 -1.421875 12.78125 6.34375 
Q 5.515625 14.109375 5.515625 27.296875 
Q 5.515625 40.671875 12.859375 48.328125 
Q 20.21875 56 33.015625 56 
Q 37.15625 56 41.109375 55.140625 
Q 45.0625 54.296875 48.78125 52.59375 
z
" id="DejaVuSans-99"/>
      <path d="M 9.421875 54.6875 
L 18.40625 54.6875 
L 18.40625 0 
L 9.421875 0 
z
M 9.421875 75.984375 
L 18.40625 75.984375 
L 18.40625 64.59375 
L 9.421875 64.59375 
z
" id="DejaVuSans-105"/>
      <path d="M 31 75.875 
Q 24.46875 64.65625 21.28125 53.65625 
Q 18.109375 42.671875 18.109375 31.390625 
Q 18.109375 20.125 21.3125 9.0625 
Q 24.515625 -2 31 -13.1875 
L 23.1875 -13.1875 
Q 15.875 -1.703125 12.234375 9.375 
Q 8.59375 20.453125 8.59375 31.390625 
Q 8.59375 42.28125 12.203125 53.3125 
Q 15.828125 64.359375 23.1875 75.875 
z
" id="DejaVuSans-40"/>
      <path d="M 18.109375 8.203125 
L 18.109375 -20.796875 
L 9.078125 -20.796875 
L 9.078125 54.6875 
L 18.109375 54.6875 
L 18.109375 46.390625 
Q 20.953125 51.265625 25.265625 53.625 
Q 29.59375 56 35.59375 56 
Q 45.5625 56 51.78125 48.09375 
Q 58.015625 40.1875 58.015625 27.296875 
Q 58.015625 14.40625 51.78125 6.484375 
Q 45.5625 -1.421875 35.59375 -1.421875 
Q 29.59375 -1.421875 25.265625 0.953125 
Q 20.953125 3.328125 18.109375 8.203125 
z
M 48.6875 27.296875 
Q 48.6875 37.203125 44.609375 42.84375 
Q 40.53125 48.484375 33.40625 48.484375 
Q 26.265625 48.484375 22.1875 42.84375 
Q 18.109375 37.203125 18.109375 27.296875 
Q 18.109375 17.390625 22.1875 11.75 
Q 26.265625 6.109375 33.40625 6.109375 
Q 40.53125 6.109375 44.609375 11.75 
Q 48.6875 17.390625 48.6875 27.296875 
z
" id="DejaVuSans-112"/>
      <path d="M 30.609375 48.390625 
Q 23.390625 48.390625 19.1875 42.75 
Q 14.984375 37.109375 14.984375 27.296875 
Q 14.984375 17.484375 19.15625 11.84375 
Q 23.34375 6.203125 30.609375 6.203125 
Q 37.796875 6.203125 41.984375 11.859375 
Q 46.1875 17.53125 46.1875 27.296875 
Q 46.1875 37.015625 41.984375 42.703125 
Q 37.796875 48.390625 30.609375 48.390625 
z
M 30.609375 56 
Q 42.328125 56 49.015625 48.375 
Q 55.71875 40.765625 55.71875 27.296875 
Q 55.71875 13.875 49.015625 6.21875 
Q 42.328125 -1.421875 30.609375 -1.421875 
Q 18.84375 -1.421875 12.171875 6.21875 
Q 5.515625 13.875 5.515625 27.296875 
Q 5.515625 40.765625 12.171875 48.375 
Q 18.84375 56 30.609375 56 
z
" id="DejaVuSans-111"/>
      <path d="M 41.109375 46.296875 
Q 39.59375 47.171875 37.8125 47.578125 
Q 36.03125 48 33.890625 48 
Q 26.265625 48 22.1875 43.046875 
Q 18.109375 38.09375 18.109375 28.8125 
L 18.109375 0 
L 9.078125 0 
L 9.078125 54.6875 
L 18.109375 54.6875 
L 18.109375 46.1875 
Q 20.953125 51.171875 25.484375 53.578125 
Q 30.03125 56 36.53125 56 
Q 37.453125 56 38.578125 55.875 
Q 39.703125 55.765625 41.0625 55.515625 
z
" id="DejaVuSans-114"/>
      <path d="M 54.890625 33.015625 
L 54.890625 0 
L 45.90625 0 
L 45.90625 32.71875 
Q 45.90625 40.484375 42.875 44.328125 
Q 39.84375 48.1875 33.796875 48.1875 
Q 26.515625 48.1875 22.3125 43.546875 
Q 18.109375 38.921875 18.109375 30.90625 
L 18.109375 0 
L 9.078125 0 
L 9.078125 75.984375 
L 18.109375 75.984375 
L 18.109375 46.1875 
Q 21.34375 51.125 25.703125 53.5625 
Q 30.078125 56 35.796875 56 
Q 45.21875 56 50.046875 50.171875 
Q 54.890625 44.34375 54.890625 33.015625 
z
" id="DejaVuSans-104"/>
      <path d="M 34.28125 27.484375 
Q 23.390625 27.484375 19.1875 25 
Q 14.984375 22.515625 14.984375 16.5 
Q 14.984375 11.71875 18.140625 8.90625 
Q 21.296875 6.109375 26.703125 6.109375 
Q 34.1875 6.109375 38.703125 11.40625 
Q 43.21875 16.703125 43.21875 25.484375 
L 43.21875 27.484375 
z
M 52.203125 31.203125 
L 52.203125 0 
L 43.21875 0 
L 43.21875 8.296875 
Q 40.140625 3.328125 35.546875 0.953125 
Q 30.953125 -1.421875 24.3125 -1.421875 
Q 15.921875 -1.421875 10.953125 3.296875 
Q 6 8.015625 6 15.921875 
Q 6 25.140625 12.171875 29.828125 
Q 18.359375 34.515625 30.609375 34.515625 
L 43.21875 34.515625 
L 43.21875 35.40625 
Q 43.21875 41.609375 39.140625 45 
Q 35.0625 48.390625 27.6875 48.390625 
Q 23 48.390625 18.546875 47.265625 
Q 14.109375 46.140625 10.015625 43.890625 
L 10.015625 52.203125 
Q 14.9375 54.109375 19.578125 55.046875 
Q 24.21875 56 28.609375 56 
Q 40.484375 56 46.34375 49.84375 
Q 52.203125 43.703125 52.203125 31.203125 
z
" id="DejaVuSans-97"/>
      <path d="M 48.6875 27.296875 
Q 48.6875 37.203125 44.609375 42.84375 
Q 40.53125 48.484375 33.40625 48.484375 
Q 26.265625 48.484375 22.1875 42.84375 
Q 18.109375 37.203125 18.109375 27.296875 
Q 18.109375 17.390625 22.1875 11.75 
Q 26.265625 6.109375 33.40625 6.109375 
Q 40.53125 6.109375 44.609375 11.75 
Q 48.6875 17.390625 48.6875 27.296875 
z
M 18.109375 46.390625 
Q 20.953125 51.265625 25.265625 53.625 
Q 29.59375 56 35.59375 56 
Q 45.5625 56 51.78125 48.09375 
Q 58.015625 40.1875 58.015625 27.296875 
Q 58.015625 14.40625 51.78125 6.484375 
Q 45.5625 -1.421875 35.59375 -1.421875 
Q 29.59375 -1.421875 25.265625 0.953125 
Q 20.953125 3.328125 18.109375 8.203125 
L 18.109375 0 
L 9.078125 0 
L 9.078125 75.984375 
L 18.109375 75.984375 
z
" id="DejaVuSans-98"/>
      <path d="M 8.015625 75.875 
L 15.828125 75.875 
Q 23.140625 64.359375 26.78125 53.3125 
Q 30.421875 42.28125 30.421875 31.390625 
Q 30.421875 20.453125 26.78125 9.375 
Q 23.140625 -1.703125 15.828125 -13.1875 
L 8.015625 -13.1875 
Q 14.5 -2 17.703125 9.0625 
Q 20.90625 20.125 20.90625 31.390625 
Q 20.90625 42.671875 17.703125 53.65625 
Q 14.5 64.65625 8.015625 75.875 
z
" id="DejaVuSans-41"/>
      <path d="M 45.40625 46.390625 
L 45.40625 75.984375 
L 54.390625 75.984375 
L 54.390625 0 
L 45.40625 0 
L 45.40625 8.203125 
Q 42.578125 3.328125 38.25 0.953125 
Q 33.9375 -1.421875 27.875 -1.421875 
Q 17.96875 -1.421875 11.734375 6.484375 
Q 5.515625 14.40625 5.515625 27.296875 
Q 5.515625 40.1875 11.734375 48.09375 
Q 17.96875 56 27.875 56 
Q 33.9375 56 38.25 53.625 
Q 42.578125 51.265625 45.40625 46.390625 
z
M 14.796875 27.296875 
Q 14.796875 17.390625 18.875 11.75 
Q 22.953125 6.109375 30.078125 6.109375 
Q 37.203125 6.109375 41.296875 11.75 
Q 45.40625 17.390625 45.40625 27.296875 
Q 45.40625 37.203125 41.296875 42.84375 
Q 37.203125 48.484375 30.078125 48.484375 
Q 22.953125 48.484375 18.875 42.84375 
Q 14.796875 37.203125 14.796875 27.296875 
z
" id="DejaVuSans-100"/>
      <path d="M 44.28125 53.078125 
L 44.28125 44.578125 
Q 40.484375 46.53125 36.375 47.5 
Q 32.28125 48.484375 27.875 48.484375 
Q 21.1875 48.484375 17.84375 46.4375 
Q 14.5 44.390625 14.5 40.28125 
Q 14.5 37.15625 16.890625 35.375 
Q 19.28125 33.59375 26.515625 31.984375 
L 29.59375 31.296875 
Q 39.15625 29.25 43.1875 25.515625 
Q 47.21875 21.78125 47.21875 15.09375 
Q 47.21875 7.46875 41.1875 3.015625 
Q 35.15625 -1.421875 24.609375 -1.421875 
Q 20.21875 -1.421875 15.453125 -0.5625 
Q 10.6875 0.296875 5.421875 2 
L 5.421875 11.28125 
Q 10.40625 8.6875 15.234375 7.390625 
Q 20.0625 6.109375 24.8125 6.109375 
Q 31.15625 6.109375 34.5625 8.28125 
Q 37.984375 10.453125 37.984375 14.40625 
Q 37.984375 18.0625 35.515625 20.015625 
Q 33.0625 21.96875 24.703125 23.78125 
L 21.578125 24.515625 
Q 13.234375 26.265625 9.515625 29.90625 
Q 5.8125 33.546875 5.8125 39.890625 
Q 5.8125 47.609375 11.28125 51.796875 
Q 16.75 56 26.8125 56 
Q 31.78125 56 36.171875 55.265625 
Q 40.578125 54.546875 44.28125 53.078125 
z
" id="DejaVuSans-115"/>
     </defs>
     <g transform="translate(18.398438 226.505509)rotate(-90)scale(0.1 -0.1)">
      <use xlink:href="#DejaVuSans-86"/>
      <use x="68.408203" xlink:href="#DejaVuSans-67"/>
      <use x="138.232422" xlink:href="#DejaVuSans-32"/>
      <use x="170.019531" xlink:href="#DejaVuSans-117"/>
      <use x="233.398438" xlink:href="#DejaVuSans-99"/>
      <use x="288.378906" xlink:href="#DejaVuSans-105"/>
      <use x="316.162109" xlink:href="#DejaVuSans-32"/>
      <use x="347.949219" xlink:href="#DejaVuSans-40"/>
      <use x="386.962891" xlink:href="#DejaVuSans-112"/>
      <use x="450.439453" xlink:href="#DejaVuSans-111"/>
      <use x="511.621094" xlink:href="#DejaVuSans-114"/>
      <use x="552.734375" xlink:href="#DejaVuSans-32"/>
      <use x="584.521484" xlink:href="#DejaVuSans-49"/>
      <use x="648.144531" xlink:href="#DejaVuSans-48"/>
      <use x="711.767578" xlink:href="#DejaVuSans-48"/>
      <use x="775.390625" xlink:href="#DejaVuSans-48"/>
      <use x="839.013672" xlink:href="#DejaVuSans-48"/>
      <use x="902.636719" xlink:href="#DejaVuSans-48"/>
      <use x="966.259766" xlink:href="#DejaVuSans-32"/>
      <use x="998.046875" xlink:href="#DejaVuSans-104"/>
      <use x="1061.425781" xlink:href="#DejaVuSans-97"/>
      <use x="1122.705078" xlink:href="#DejaVuSans-98"/>
      <use x="1186.181641" xlink:href="#DejaVuSans-46"/>
      <use x="1217.96875" xlink:href="#DejaVuSans-41"/>
      <use x="1256.982422" xlink:href="#DejaVuSans-32"/>
      <use x="1288.769531" xlink:href="#DejaVuSans-100"/>
      <use x="1352.246094" xlink:href="#DejaVuSans-105"/>
      <use x="1380.029297" xlink:href="#DejaVuSans-97"/>
      <use x="1441.308594" xlink:href="#DejaVuSans-114"/>
      <use x="1482.421875" xlink:href="#DejaVuSans-105"/>
      <use x="1510.205078" xlink:href="#DejaVuSans-111"/>
      <use x="1571.386719" xlink:href="#DejaVuSans-115"/>
     </g>
    </g>
   </g>
   <g id="line2d_11">
    <path clip-path="url(#p7809883b7f)" d="M 65.682102 262.196855 
L 70.315229 267.632462 
L 74.948357 262.196855 
L 79.581484 267.632462 
L 84.214611 267.632462 
L 88.847738 262.196855 
L 93.480865 267.632462 
L 98.113992 267.632462 
L 102.74712 267.632462 
L 107.380247 267.632462 
L 112.013374 267.632462 
L 116.646501 256.761247 
L 121.279628 262.196855 
L 125.912755 256.761247 
L 130.545882 267.632462 
L 135.17901 262.196855 
L 139.812137 267.632462 
L 144.445264 262.196855 
L 149.078391 256.761247 
L 153.711518 251.325639 
L 158.344645 229.583209 
L 162.977773 229.583209 
L 167.6109 224.147601 
L 172.244027 213.276386 
L 176.877154 240.454424 
L 181.510281 196.969563 
L 186.143408 158.920309 
L 190.776536 180.66274 
L 195.409663 115.435448 
L 200.04279 142.613486 
L 204.675917 109.99984 
L 209.309044 44.772548 
L 213.942171 88.257409 
L 218.575298 82.821802 
L 223.208426 71.950586 
L 227.841553 142.613486 
L 232.47468 120.871055 
L 237.107807 169.791524 
L 241.740934 142.613486 
L 246.374061 169.791524 
L 251.007189 186.098347 
L 255.640316 207.840778 
L 260.273443 213.276386 
L 264.90657 224.147601 
L 269.539697 218.711993 
L 274.172824 240.454424 
L 278.805952 245.890032 
L 283.439079 23.030117 
L 288.072206 158.920309 
L 292.705333 245.890032 
L 297.33846 256.761247 
L 301.971587 218.711993 
L 306.604714 240.454424 
L 311.237842 229.583209 
L 315.870969 66.514979 
L 320.504096 229.583209 
L 325.137223 245.890032 
L 329.77035 229.583209 
L 334.403477 251.325639 
L 339.036605 256.761247 
L 343.669732 262.196855 
L 348.302859 262.196855 
L 352.935986 262.196855 
L 357.569113 256.761247 
L 362.20224 262.196855 
L 366.835368 256.761247 
L 371.468495 251.325639 
L 376.101622 251.325639 
L 380.734749 262.196855 
L 385.367876 99.128625 
L 390.001003 262.196855 
L 394.63413 251.325639 
L 399.267258 256.761247 
L 403.900385 262.196855 
L 408.533512 267.632462 
L 413.166639 251.325639 
L 417.799766 256.761247 
L 422.432893 251.325639 
L 427.066021 229.583209 
L 431.699148 267.632462 
" style="fill:none;stroke:#1f77b4;stroke-linecap:square;stroke-width:1.5;"/>
    <defs>
     <path d="M 0 1.5 
C 0.397805 1.5 0.77937 1.341951 1.06066 1.06066 
C 1.341951 0.77937 1.5 0.397805 1.5 0 
C 1.5 -0.397805 1.341951 -0.77937 1.06066 -1.06066 
C 0.77937 -1.341951 0.397805 -1.5 0 -1.5 
C -0.397805 -1.5 -0.77937 -1.341951 -1.06066 -1.06066 
C -1.341951 -0.77937 -1.5 -0.397805 -1.5 0 
C -1.5 0.397805 -1.341951 0.77937 -1.06066 1.06066 
C -0.77937 1.341951 -0.397805 1.5 0 1.5 
z
" id="m4b482aa7f9" style="stroke:#1f77b4;"/>
    </defs>
    <g clip-path="url(#p7809883b7f)">
     <use style="fill:#1f77b4;stroke:#1f77b4;" x="65.682102" xlink:href="#m4b482aa7f9" y="262.196855"/>
     <use style="fill:#1f77b4;stroke:#1f77b4;" x="70.315229" xlink:href="#m4b482aa7f9" y="267.632462"/>
     <use style="fill:#1f77b4;stroke:#1f77b4;" x="74.948357" xlink:href="#m4b482aa7f9" y="262.196855"/>
     <use style="fill:#1f77b4;stroke:#1f77b4;" x="79.581484" xlink:href="#m4b482aa7f9" y="267.632462"/>
     <use style="fill:#1f77b4;stroke:#1f77b4;" x="84.214611" xlink:href="#m4b482aa7f9" y="267.632462"/>
     <use style="fill:#1f77b4;stroke:#1f77b4;" x="88.847738" xlink:href="#m4b482aa7f9" y="262.196855"/>
     <use style="fill:#1f77b4;stroke:#1f77b4;" x="93.480865" xlink:href="#m4b482aa7f9" y="267.632462"/>
     <use style="fill:#1f77b4;stroke:#1f77b4;" x="98.113992" xlink:href="#m4b482aa7f9" y="267.632462"/>
     <use style="fill:#1f77b4;stroke:#1f77b4;" x="102.74712" xlink:href="#m4b482aa7f9" y="267.632462"/>
     <use style="fill:#1f77b4;stroke:#1f77b4;" x="107.380247" xlink:href="#m4b482aa7f9" y="267.632462"/>
     <use style="fill:#1f77b4;stroke:#1f77b4;" x="112.013374" xlink:href="#m4b482aa7f9" y="267.632462"/>
     <use style="fill:#1f77b4;stroke:#1f77b4;" x="116.646501" xlink:href="#m4b482aa7f9" y="256.761247"/>
     <use style="fill:#1f77b4;stroke:#1f77b4;" x="121.279628" xlink:href="#m4b482aa7f9" y="262.196855"/>
     <use style="fill:#1f77b4;stroke:#1f77b4;" x="125.912755" xlink:href="#m4b482aa7f9" y="256.761247"/>
     <use style="fill:#1f77b4;stroke:#1f77b4;" x="130.545882" xlink:href="#m4b482aa7f9" y="267.632462"/>
     <use style="fill:#1f77b4;stroke:#1f77b4;" x="135.17901" xlink:href="#m4b482aa7f9" y="262.196855"/>
     <use style="fill:#1f77b4;stroke:#1f77b4;" x="139.812137" xlink:href="#m4b482aa7f9" y="267.632462"/>
     <use style="fill:#1f77b4;stroke:#1f77b4;" x="144.445264" xlink:href="#m4b482aa7f9" y="262.196855"/>
     <use style="fill:#1f77b4;stroke:#1f77b4;" x="149.078391" xlink:href="#m4b482aa7f9" y="256.761247"/>
     <use style="fill:#1f77b4;stroke:#1f77b4;" x="153.711518" xlink:href="#m4b482aa7f9" y="251.325639"/>
     <use style="fill:#1f77b4;stroke:#1f77b4;" x="158.344645" xlink:href="#m4b482aa7f9" y="229.583209"/>
     <use style="fill:#1f77b4;stroke:#1f77b4;" x="162.977773" xlink:href="#m4b482aa7f9" y="229.583209"/>
     <use style="fill:#1f77b4;stroke:#1f77b4;" x="167.6109" xlink:href="#m4b482aa7f9" y="224.147601"/>
     <use style="fill:#1f77b4;stroke:#1f77b4;" x="172.244027" xlink:href="#m4b482aa7f9" y="213.276386"/>
     <use style="fill:#1f77b4;stroke:#1f77b4;" x="176.877154" xlink:href="#m4b482aa7f9" y="240.454424"/>
     <use style="fill:#1f77b4;stroke:#1f77b4;" x="181.510281" xlink:href="#m4b482aa7f9" y="196.969563"/>
     <use style="fill:#1f77b4;stroke:#1f77b4;" x="186.143408" xlink:href="#m4b482aa7f9" y="158.920309"/>
     <use style="fill:#1f77b4;stroke:#1f77b4;" x="190.776536" xlink:href="#m4b482aa7f9" y="180.66274"/>
     <use style="fill:#1f77b4;stroke:#1f77b4;" x="195.409663" xlink:href="#m4b482aa7f9" y="115.435448"/>
     <use style="fill:#1f77b4;stroke:#1f77b4;" x="200.04279" xlink:href="#m4b482aa7f9" y="142.613486"/>
     <use style="fill:#1f77b4;stroke:#1f77b4;" x="204.675917" xlink:href="#m4b482aa7f9" y="109.99984"/>
     <use style="fill:#1f77b4;stroke:#1f77b4;" x="209.309044" xlink:href="#m4b482aa7f9" y="44.772548"/>
     <use style="fill:#1f77b4;stroke:#1f77b4;" x="213.942171" xlink:href="#m4b482aa7f9" y="88.257409"/>
     <use style="fill:#1f77b4;stroke:#1f77b4;" x="218.575298" xlink:href="#m4b482aa7f9" y="82.821802"/>
     <use style="fill:#1f77b4;stroke:#1f77b4;" x="223.208426" xlink:href="#m4b482aa7f9" y="71.950586"/>
     <use style="fill:#1f77b4;stroke:#1f77b4;" x="227.841553" xlink:href="#m4b482aa7f9" y="142.613486"/>
     <use style="fill:#1f77b4;stroke:#1f77b4;" x="232.47468" xlink:href="#m4b482aa7f9" y="120.871055"/>
     <use style="fill:#1f77b4;stroke:#1f77b4;" x="237.107807" xlink:href="#m4b482aa7f9" y="169.791524"/>
     <use style="fill:#1f77b4;stroke:#1f77b4;" x="241.740934" xlink:href="#m4b482aa7f9" y="142.613486"/>
     <use style="fill:#1f77b4;stroke:#1f77b4;" x="246.374061" xlink:href="#m4b482aa7f9" y="169.791524"/>
     <use style="fill:#1f77b4;stroke:#1f77b4;" x="251.007189" xlink:href="#m4b482aa7f9" y="186.098347"/>
     <use style="fill:#1f77b4;stroke:#1f77b4;" x="255.640316" xlink:href="#m4b482aa7f9" y="207.840778"/>
     <use style="fill:#1f77b4;stroke:#1f77b4;" x="260.273443" xlink:href="#m4b482aa7f9" y="213.276386"/>
     <use style="fill:#1f77b4;stroke:#1f77b4;" x="264.90657" xlink:href="#m4b482aa7f9" y="224.147601"/>
     <use style="fill:#1f77b4;stroke:#1f77b4;" x="269.539697" xlink:href="#m4b482aa7f9" y="218.711993"/>
     <use style="fill:#1f77b4;stroke:#1f77b4;" x="274.172824" xlink:href="#m4b482aa7f9" y="240.454424"/>
     <use style="fill:#1f77b4;stroke:#1f77b4;" x="278.805952" xlink:href="#m4b482aa7f9" y="245.890032"/>
     <use style="fill:#1f77b4;stroke:#1f77b4;" x="283.439079" xlink:href="#m4b482aa7f9" y="23.030117"/>
     <use style="fill:#1f77b4;stroke:#1f77b4;" x="288.072206" xlink:href="#m4b482aa7f9" y="158.920309"/>
     <use style="fill:#1f77b4;stroke:#1f77b4;" x="292.705333" xlink:href="#m4b482aa7f9" y="245.890032"/>
     <use style="fill:#1f77b4;stroke:#1f77b4;" x="297.33846" xlink:href="#m4b482aa7f9" y="256.761247"/>
     <use style="fill:#1f77b4;stroke:#1f77b4;" x="301.971587" xlink:href="#m4b482aa7f9" y="218.711993"/>
     <use style="fill:#1f77b4;stroke:#1f77b4;" x="306.604714" xlink:href="#m4b482aa7f9" y="240.454424"/>
     <use style="fill:#1f77b4;stroke:#1f77b4;" x="311.237842" xlink:href="#m4b482aa7f9" y="229.583209"/>
     <use style="fill:#1f77b4;stroke:#1f77b4;" x="315.870969" xlink:href="#m4b482aa7f9" y="66.514979"/>
     <use style="fill:#1f77b4;stroke:#1f77b4;" x="320.504096" xlink:href="#m4b482aa7f9" y="229.583209"/>
     <use style="fill:#1f77b4;stroke:#1f77b4;" x="325.137223" xlink:href="#m4b482aa7f9" y="245.890032"/>
     <use style="fill:#1f77b4;stroke:#1f77b4;" x="329.77035" xlink:href="#m4b482aa7f9" y="229.583209"/>
     <use style="fill:#1f77b4;stroke:#1f77b4;" x="334.403477" xlink:href="#m4b482aa7f9" y="251.325639"/>
     <use style="fill:#1f77b4;stroke:#1f77b4;" x="339.036605" xlink:href="#m4b482aa7f9" y="256.761247"/>
     <use style="fill:#1f77b4;stroke:#1f77b4;" x="343.669732" xlink:href="#m4b482aa7f9" y="262.196855"/>
     <use style="fill:#1f77b4;stroke:#1f77b4;" x="348.302859" xlink:href="#m4b482aa7f9" y="262.196855"/>
     <use style="fill:#1f77b4;stroke:#1f77b4;" x="352.935986" xlink:href="#m4b482aa7f9" y="262.196855"/>
     <use style="fill:#1f77b4;stroke:#1f77b4;" x="357.569113" xlink:href="#m4b482aa7f9" y="256.761247"/>
     <use style="fill:#1f77b4;stroke:#1f77b4;" x="362.20224" xlink:href="#m4b482aa7f9" y="262.196855"/>
     <use style="fill:#1f77b4;stroke:#1f77b4;" x="366.835368" xlink:href="#m4b482aa7f9" y="256.761247"/>
     <use style="fill:#1f77b4;stroke:#1f77b4;" x="371.468495" xlink:href="#m4b482aa7f9" y="251.325639"/>
     <use style="fill:#1f77b4;stroke:#1f77b4;" x="376.101622" xlink:href="#m4b482aa7f9" y="251.325639"/>
     <use style="fill:#1f77b4;stroke:#1f77b4;" x="380.734749" xlink:href="#m4b482aa7f9" y="262.196855"/>
     <use style="fill:#1f77b4;stroke:#1f77b4;" x="385.367876" xlink:href="#m4b482aa7f9" y="99.128625"/>
     <use style="fill:#1f77b4;stroke:#1f77b4;" x="390.001003" xlink:href="#m4b482aa7f9" y="262.196855"/>
     <use style="fill:#1f77b4;stroke:#1f77b4;" x="394.63413" xlink:href="#m4b482aa7f9" y="251.325639"/>
     <use style="fill:#1f77b4;stroke:#1f77b4;" x="399.267258" xlink:href="#m4b482aa7f9" y="256.761247"/>
     <use style="fill:#1f77b4;stroke:#1f77b4;" x="403.900385" xlink:href="#m4b482aa7f9" y="262.196855"/>
     <use style="fill:#1f77b4;stroke:#1f77b4;" x="408.533512" xlink:href="#m4b482aa7f9" y="267.632462"/>
     <use style="fill:#1f77b4;stroke:#1f77b4;" x="413.166639" xlink:href="#m4b482aa7f9" y="251.325639"/>
     <use style="fill:#1f77b4;stroke:#1f77b4;" x="417.799766" xlink:href="#m4b482aa7f9" y="256.761247"/>
     <use style="fill:#1f77b4;stroke:#1f77b4;" x="422.432893" xlink:href="#m4b482aa7f9" y="251.325639"/>
     <use style="fill:#1f77b4;stroke:#1f77b4;" x="427.066021" xlink:href="#m4b482aa7f9" y="229.583209"/>
     <use style="fill:#1f77b4;stroke:#1f77b4;" x="431.699148" xlink:href="#m4b482aa7f9" y="267.632462"/>
    </g>
   </g>
   <g id="patch_3">
    <path d="M 47.38125 279.86258 
L 47.38125 10.8 
" style="fill:none;stroke:#000000;stroke-linecap:square;stroke-linejoin:miter;stroke-width:0.8;"/>
   </g>
   <g id="patch_4">
    <path d="M 450 279.86258 
L 450 10.8 
" style="fill:none;stroke:#000000;stroke-linecap:square;stroke-linejoin:miter;stroke-width:0.8;"/>
   </g>
   <g id="patch_5">
    <path d="M 47.38125 279.86258 
L 450 279.86258 
" style="fill:none;stroke:#000000;stroke-linecap:square;stroke-linejoin:miter;stroke-width:0.8;"/>
   </g>
   <g id="patch_6">
    <path d="M 47.38125 10.8 
L 450 10.8 
" style="fill:none;stroke:#000000;stroke-linecap:square;stroke-linejoin:miter;stroke-width:0.8;"/>
   </g>
  </g>
 </g>
 <defs>
  <clipPath id="p7809883b7f">
   <rect height="269.06258" width="402.61875" x="47.38125" y="10.8"/>
  </clipPath>
 </defs>
</svg>
