<?xml version="1.0" encoding="utf-8" standalone="no"?>
<!DOCTYPE svg PUBLIC "-//W3C//DTD SVG 1.1//EN"
  "http://www.w3.org/Graphics/SVG/1.1/DTD/svg11.dtd">
<!-- Created with matplotlib (https://matplotlib.org/) -->
<svg height="345.6pt" version="1.1" viewBox="0 0 460.8 345.6" width="460.8pt" xmlns="http://www.w3.org/2000/svg" xmlns:xlink="http://www.w3.org/1999/xlink">
 <defs>
  <style type="text/css">
*{stroke-linecap:butt;stroke-linejoin:round;}
  </style>
 </defs>
 <g id="figure_1">
  <g id="patch_1">
   <path d="M 0 345.6 
L 460.8 345.6 
L 460.8 0 
L 0 0 
z
" style="fill:#ffffff;"/>
  </g>
  <g id="axes_1">
   <g id="patch_2">
    <path d="M 47.38125 279.86258 
L 449.150629 279.86258 
L 449.150629 14.599219 
L 47.38125 14.599219 
z
" style="fill:#ffffff;"/>
   </g>
   <g id="matplotlib.axis_1">
    <g id="xtick_1">
     <g id="line2d_1">
      <defs>
       <path d="M 0 0 
L 0 3.5 
" id="m921592640d" style="stroke:#000000;stroke-width:0.8;"/>
      </defs>
      <g>
       <use style="stroke:#000000;stroke-width:0.8;" x="91.099956" xlink:href="#m921592640d" y="279.86258"/>
      </g>
     </g>
     <g id="text_1">
      <!-- 2020-03-01 -->
      <defs>
       <path d="M 19.1875 8.296875 
L 53.609375 8.296875 
L 53.609375 0 
L 7.328125 0 
L 7.328125 8.296875 
Q 12.9375 14.109375 22.625 23.890625 
Q 32.328125 33.6875 34.8125 36.53125 
Q 39.546875 41.84375 41.421875 45.53125 
Q 43.3125 49.21875 43.3125 52.78125 
Q 43.3125 58.59375 39.234375 62.25 
Q 35.15625 65.921875 28.609375 65.921875 
Q 23.96875 65.921875 18.8125 64.3125 
Q 13.671875 62.703125 7.8125 59.421875 
L 7.8125 69.390625 
Q 13.765625 71.78125 18.9375 73 
Q 24.125 74.21875 28.421875 74.21875 
Q 39.75 74.21875 46.484375 68.546875 
Q 53.21875 62.890625 53.21875 53.421875 
Q 53.21875 48.921875 51.53125 44.890625 
Q 49.859375 40.875 45.40625 35.40625 
Q 44.1875 33.984375 37.640625 27.21875 
Q 31.109375 20.453125 19.1875 8.296875 
z
" id="DejaVuSans-50"/>
       <path d="M 31.78125 66.40625 
Q 24.171875 66.40625 20.328125 58.90625 
Q 16.5 51.421875 16.5 36.375 
Q 16.5 21.390625 20.328125 13.890625 
Q 24.171875 6.390625 31.78125 6.390625 
Q 39.453125 6.390625 43.28125 13.890625 
Q 47.125 21.390625 47.125 36.375 
Q 47.125 51.421875 43.28125 58.90625 
Q 39.453125 66.40625 31.78125 66.40625 
z
M 31.78125 74.21875 
Q 44.046875 74.21875 50.515625 64.515625 
Q 56.984375 54.828125 56.984375 36.375 
Q 56.984375 17.96875 50.515625 8.265625 
Q 44.046875 -1.421875 31.78125 -1.421875 
Q 19.53125 -1.421875 13.0625 8.265625 
Q 6.59375 17.96875 6.59375 36.375 
Q 6.59375 54.828125 13.0625 64.515625 
Q 19.53125 74.21875 31.78125 74.21875 
z
" id="DejaVuSans-48"/>
       <path d="M 4.890625 31.390625 
L 31.203125 31.390625 
L 31.203125 23.390625 
L 4.890625 23.390625 
z
" id="DejaVuSans-45"/>
       <path d="M 40.578125 39.3125 
Q 47.65625 37.796875 51.625 33 
Q 55.609375 28.21875 55.609375 21.1875 
Q 55.609375 10.40625 48.1875 4.484375 
Q 40.765625 -1.421875 27.09375 -1.421875 
Q 22.515625 -1.421875 17.65625 -0.515625 
Q 12.796875 0.390625 7.625 2.203125 
L 7.625 11.71875 
Q 11.71875 9.328125 16.59375 8.109375 
Q 21.484375 6.890625 26.8125 6.890625 
Q 36.078125 6.890625 40.9375 10.546875 
Q 45.796875 14.203125 45.796875 21.1875 
Q 45.796875 27.640625 41.28125 31.265625 
Q 36.765625 34.90625 28.71875 34.90625 
L 20.21875 34.90625 
L 20.21875 43.015625 
L 29.109375 43.015625 
Q 36.375 43.015625 40.234375 45.921875 
Q 44.09375 48.828125 44.09375 54.296875 
Q 44.09375 59.90625 40.109375 62.90625 
Q 36.140625 65.921875 28.71875 65.921875 
Q 24.65625 65.921875 20.015625 65.03125 
Q 15.375 64.15625 9.8125 62.3125 
L 9.8125 71.09375 
Q 15.4375 72.65625 20.34375 73.4375 
Q 25.25 74.21875 29.59375 74.21875 
Q 40.828125 74.21875 47.359375 69.109375 
Q 53.90625 64.015625 53.90625 55.328125 
Q 53.90625 49.265625 50.4375 45.09375 
Q 46.96875 40.921875 40.578125 39.3125 
z
" id="DejaVuSans-51"/>
       <path d="M 12.40625 8.296875 
L 28.515625 8.296875 
L 28.515625 63.921875 
L 10.984375 60.40625 
L 10.984375 69.390625 
L 28.421875 72.90625 
L 38.28125 72.90625 
L 38.28125 8.296875 
L 54.390625 8.296875 
L 54.390625 0 
L 12.40625 0 
z
" id="DejaVuSans-49"/>
      </defs>
      <g transform="translate(72.504153 333.329439)rotate(-45)scale(0.1 -0.1)">
       <use xlink:href="#DejaVuSans-50"/>
       <use x="63.623047" xlink:href="#DejaVuSans-48"/>
       <use x="127.246094" xlink:href="#DejaVuSans-50"/>
       <use x="190.869141" xlink:href="#DejaVuSans-48"/>
       <use x="254.492188" xlink:href="#DejaVuSans-45"/>
       <use x="290.576172" xlink:href="#DejaVuSans-48"/>
       <use x="354.199219" xlink:href="#DejaVuSans-51"/>
       <use x="417.822266" xlink:href="#DejaVuSans-45"/>
       <use x="453.90625" xlink:href="#DejaVuSans-48"/>
       <use x="517.529297" xlink:href="#DejaVuSans-49"/>
      </g>
     </g>
    </g>
    <g id="xtick_2">
     <g id="line2d_2">
      <g>
       <use style="stroke:#000000;stroke-width:0.8;" x="153.080907" xlink:href="#m921592640d" y="279.86258"/>
      </g>
     </g>
     <g id="text_2">
      <!-- 2020-03-15 -->
      <defs>
       <path d="M 10.796875 72.90625 
L 49.515625 72.90625 
L 49.515625 64.59375 
L 19.828125 64.59375 
L 19.828125 46.734375 
Q 21.96875 47.46875 24.109375 47.828125 
Q 26.265625 48.1875 28.421875 48.1875 
Q 40.625 48.1875 47.75 41.5 
Q 54.890625 34.8125 54.890625 23.390625 
Q 54.890625 11.625 47.5625 5.09375 
Q 40.234375 -1.421875 26.90625 -1.421875 
Q 22.3125 -1.421875 17.546875 -0.640625 
Q 12.796875 0.140625 7.71875 1.703125 
L 7.71875 11.625 
Q 12.109375 9.234375 16.796875 8.0625 
Q 21.484375 6.890625 26.703125 6.890625 
Q 35.15625 6.890625 40.078125 11.328125 
Q 45.015625 15.765625 45.015625 23.390625 
Q 45.015625 31 40.078125 35.4375 
Q 35.15625 39.890625 26.703125 39.890625 
Q 22.75 39.890625 18.8125 39.015625 
Q 14.890625 38.140625 10.796875 36.28125 
z
" id="DejaVuSans-53"/>
      </defs>
      <g transform="translate(134.485104 333.329439)rotate(-45)scale(0.1 -0.1)">
       <use xlink:href="#DejaVuSans-50"/>
       <use x="63.623047" xlink:href="#DejaVuSans-48"/>
       <use x="127.246094" xlink:href="#DejaVuSans-50"/>
       <use x="190.869141" xlink:href="#DejaVuSans-48"/>
       <use x="254.492188" xlink:href="#DejaVuSans-45"/>
       <use x="290.576172" xlink:href="#DejaVuSans-48"/>
       <use x="354.199219" xlink:href="#DejaVuSans-51"/>
       <use x="417.822266" xlink:href="#DejaVuSans-45"/>
       <use x="453.90625" xlink:href="#DejaVuSans-49"/>
       <use x="517.529297" xlink:href="#DejaVuSans-53"/>
      </g>
     </g>
    </g>
    <g id="xtick_3">
     <g id="line2d_3">
      <g>
       <use style="stroke:#000000;stroke-width:0.8;" x="228.343491" xlink:href="#m921592640d" y="279.86258"/>
      </g>
     </g>
     <g id="text_3">
      <!-- 2020-04-01 -->
      <defs>
       <path d="M 37.796875 64.3125 
L 12.890625 25.390625 
L 37.796875 25.390625 
z
M 35.203125 72.90625 
L 47.609375 72.90625 
L 47.609375 25.390625 
L 58.015625 25.390625 
L 58.015625 17.1875 
L 47.609375 17.1875 
L 47.609375 0 
L 37.796875 0 
L 37.796875 17.1875 
L 4.890625 17.1875 
L 4.890625 26.703125 
z
" id="DejaVuSans-52"/>
      </defs>
      <g transform="translate(209.747687 333.329439)rotate(-45)scale(0.1 -0.1)">
       <use xlink:href="#DejaVuSans-50"/>
       <use x="63.623047" xlink:href="#DejaVuSans-48"/>
       <use x="127.246094" xlink:href="#DejaVuSans-50"/>
       <use x="190.869141" xlink:href="#DejaVuSans-48"/>
       <use x="254.492188" xlink:href="#DejaVuSans-45"/>
       <use x="290.576172" xlink:href="#DejaVuSans-48"/>
       <use x="354.199219" xlink:href="#DejaVuSans-52"/>
       <use x="417.822266" xlink:href="#DejaVuSans-45"/>
       <use x="453.90625" xlink:href="#DejaVuSans-48"/>
       <use x="517.529297" xlink:href="#DejaVuSans-49"/>
      </g>
     </g>
    </g>
    <g id="xtick_4">
     <g id="line2d_4">
      <g>
       <use style="stroke:#000000;stroke-width:0.8;" x="290.324442" xlink:href="#m921592640d" y="279.86258"/>
      </g>
     </g>
     <g id="text_4">
      <!-- 2020-04-15 -->
      <g transform="translate(271.728638 333.329439)rotate(-45)scale(0.1 -0.1)">
       <use xlink:href="#DejaVuSans-50"/>
       <use x="63.623047" xlink:href="#DejaVuSans-48"/>
       <use x="127.246094" xlink:href="#DejaVuSans-50"/>
       <use x="190.869141" xlink:href="#DejaVuSans-48"/>
       <use x="254.492188" xlink:href="#DejaVuSans-45"/>
       <use x="290.576172" xlink:href="#DejaVuSans-48"/>
       <use x="354.199219" xlink:href="#DejaVuSans-52"/>
       <use x="417.822266" xlink:href="#DejaVuSans-45"/>
       <use x="453.90625" xlink:href="#DejaVuSans-49"/>
       <use x="517.529297" xlink:href="#DejaVuSans-53"/>
      </g>
     </g>
    </g>
    <g id="xtick_5">
     <g id="line2d_5">
      <g>
       <use style="stroke:#000000;stroke-width:0.8;" x="361.159814" xlink:href="#m921592640d" y="279.86258"/>
      </g>
     </g>
     <g id="text_5">
      <!-- 2020-05-01 -->
      <g transform="translate(342.564011 333.329439)rotate(-45)scale(0.1 -0.1)">
       <use xlink:href="#DejaVuSans-50"/>
       <use x="63.623047" xlink:href="#DejaVuSans-48"/>
       <use x="127.246094" xlink:href="#DejaVuSans-50"/>
       <use x="190.869141" xlink:href="#DejaVuSans-48"/>
       <use x="254.492188" xlink:href="#DejaVuSans-45"/>
       <use x="290.576172" xlink:href="#DejaVuSans-48"/>
       <use x="354.199219" xlink:href="#DejaVuSans-53"/>
       <use x="417.822266" xlink:href="#DejaVuSans-45"/>
       <use x="453.90625" xlink:href="#DejaVuSans-48"/>
       <use x="517.529297" xlink:href="#DejaVuSans-49"/>
      </g>
     </g>
    </g>
    <g id="xtick_6">
     <g id="line2d_6">
      <g>
       <use style="stroke:#000000;stroke-width:0.8;" x="423.140765" xlink:href="#m921592640d" y="279.86258"/>
      </g>
     </g>
     <g id="text_6">
      <!-- 2020-05-15 -->
      <g transform="translate(404.544962 333.329439)rotate(-45)scale(0.1 -0.1)">
       <use xlink:href="#DejaVuSans-50"/>
       <use x="63.623047" xlink:href="#DejaVuSans-48"/>
       <use x="127.246094" xlink:href="#DejaVuSans-50"/>
       <use x="190.869141" xlink:href="#DejaVuSans-48"/>
       <use x="254.492188" xlink:href="#DejaVuSans-45"/>
       <use x="290.576172" xlink:href="#DejaVuSans-48"/>
       <use x="354.199219" xlink:href="#DejaVuSans-53"/>
       <use x="417.822266" xlink:href="#DejaVuSans-45"/>
       <use x="453.90625" xlink:href="#DejaVuSans-49"/>
       <use x="517.529297" xlink:href="#DejaVuSans-53"/>
      </g>
     </g>
    </g>
   </g>
   <g id="matplotlib.axis_2">
    <g id="ytick_1">
     <g id="line2d_7">
      <defs>
       <path d="M 0 0 
L -3.5 0 
" id="mf53f2f8a47" style="stroke:#000000;stroke-width:0.8;"/>
      </defs>
      <g>
       <use style="stroke:#000000;stroke-width:0.8;" x="47.38125" xlink:href="#mf53f2f8a47" y="279.86258"/>
      </g>
     </g>
     <g id="text_7">
      <!-- 0.0 -->
      <defs>
       <path d="M 10.6875 12.40625 
L 21 12.40625 
L 21 0 
L 10.6875 0 
z
" id="DejaVuSans-46"/>
      </defs>
      <g transform="translate(24.478125 283.661798)scale(0.1 -0.1)">
       <use xlink:href="#DejaVuSans-48"/>
       <use x="63.623047" xlink:href="#DejaVuSans-46"/>
       <use x="95.410156" xlink:href="#DejaVuSans-48"/>
      </g>
     </g>
    </g>
    <g id="ytick_2">
     <g id="line2d_8">
      <g>
       <use style="stroke:#000000;stroke-width:0.8;" x="47.38125" xlink:href="#mf53f2f8a47" y="235.65202"/>
      </g>
     </g>
     <g id="text_8">
      <!-- 0.5 -->
      <g transform="translate(24.478125 239.451238)scale(0.1 -0.1)">
       <use xlink:href="#DejaVuSans-48"/>
       <use x="63.623047" xlink:href="#DejaVuSans-46"/>
       <use x="95.410156" xlink:href="#DejaVuSans-53"/>
      </g>
     </g>
    </g>
    <g id="ytick_3">
     <g id="line2d_9">
      <g>
       <use style="stroke:#000000;stroke-width:0.8;" x="47.38125" xlink:href="#mf53f2f8a47" y="191.441459"/>
      </g>
     </g>
     <g id="text_9">
      <!-- 1.0 -->
      <g transform="translate(24.478125 195.240678)scale(0.1 -0.1)">
       <use xlink:href="#DejaVuSans-49"/>
       <use x="63.623047" xlink:href="#DejaVuSans-46"/>
       <use x="95.410156" xlink:href="#DejaVuSans-48"/>
      </g>
     </g>
    </g>
    <g id="ytick_4">
     <g id="line2d_10">
      <g>
       <use style="stroke:#000000;stroke-width:0.8;" x="47.38125" xlink:href="#mf53f2f8a47" y="147.230899"/>
      </g>
     </g>
     <g id="text_10">
      <!-- 1.5 -->
      <g transform="translate(24.478125 151.030118)scale(0.1 -0.1)">
       <use xlink:href="#DejaVuSans-49"/>
       <use x="63.623047" xlink:href="#DejaVuSans-46"/>
       <use x="95.410156" xlink:href="#DejaVuSans-53"/>
      </g>
     </g>
    </g>
    <g id="ytick_5">
     <g id="line2d_11">
      <g>
       <use style="stroke:#000000;stroke-width:0.8;" x="47.38125" xlink:href="#mf53f2f8a47" y="103.020339"/>
      </g>
     </g>
     <g id="text_11">
      <!-- 2.0 -->
      <g transform="translate(24.478125 106.819558)scale(0.1 -0.1)">
       <use xlink:href="#DejaVuSans-50"/>
       <use x="63.623047" xlink:href="#DejaVuSans-46"/>
       <use x="95.410156" xlink:href="#DejaVuSans-48"/>
      </g>
     </g>
    </g>
    <g id="ytick_6">
     <g id="line2d_12">
      <g>
       <use style="stroke:#000000;stroke-width:0.8;" x="47.38125" xlink:href="#mf53f2f8a47" y="58.809779"/>
      </g>
     </g>
     <g id="text_12">
      <!-- 2.5 -->
      <g transform="translate(24.478125 62.608998)scale(0.1 -0.1)">
       <use xlink:href="#DejaVuSans-50"/>
       <use x="63.623047" xlink:href="#DejaVuSans-46"/>
       <use x="95.410156" xlink:href="#DejaVuSans-53"/>
      </g>
     </g>
    </g>
    <g id="ytick_7">
     <g id="line2d_13">
      <g>
       <use style="stroke:#000000;stroke-width:0.8;" x="47.38125" xlink:href="#mf53f2f8a47" y="14.599219"/>
      </g>
     </g>
     <g id="text_13">
      <!-- 3.0 -->
      <g transform="translate(24.478125 18.398438)scale(0.1 -0.1)">
       <use xlink:href="#DejaVuSans-51"/>
       <use x="63.623047" xlink:href="#DejaVuSans-46"/>
       <use x="95.410156" xlink:href="#DejaVuSans-48"/>
      </g>
     </g>
    </g>
    <g id="text_14">
     <!-- CB r medio semanal -->
     <defs>
      <path d="M 64.40625 67.28125 
L 64.40625 56.890625 
Q 59.421875 61.53125 53.78125 63.8125 
Q 48.140625 66.109375 41.796875 66.109375 
Q 29.296875 66.109375 22.65625 58.46875 
Q 16.015625 50.828125 16.015625 36.375 
Q 16.015625 21.96875 22.65625 14.328125 
Q 29.296875 6.6875 41.796875 6.6875 
Q 48.140625 6.6875 53.78125 8.984375 
Q 59.421875 11.28125 64.40625 15.921875 
L 64.40625 5.609375 
Q 59.234375 2.09375 53.4375 0.328125 
Q 47.65625 -1.421875 41.21875 -1.421875 
Q 24.65625 -1.421875 15.125 8.703125 
Q 5.609375 18.84375 5.609375 36.375 
Q 5.609375 53.953125 15.125 64.078125 
Q 24.65625 74.21875 41.21875 74.21875 
Q 47.75 74.21875 53.53125 72.484375 
Q 59.328125 70.75 64.40625 67.28125 
z
" id="DejaVuSans-67"/>
      <path d="M 19.671875 34.8125 
L 19.671875 8.109375 
L 35.5 8.109375 
Q 43.453125 8.109375 47.28125 11.40625 
Q 51.125 14.703125 51.125 21.484375 
Q 51.125 28.328125 47.28125 31.5625 
Q 43.453125 34.8125 35.5 34.8125 
z
M 19.671875 64.796875 
L 19.671875 42.828125 
L 34.28125 42.828125 
Q 41.5 42.828125 45.03125 45.53125 
Q 48.578125 48.25 48.578125 53.8125 
Q 48.578125 59.328125 45.03125 62.0625 
Q 41.5 64.796875 34.28125 64.796875 
z
M 9.8125 72.90625 
L 35.015625 72.90625 
Q 46.296875 72.90625 52.390625 68.21875 
Q 58.5 63.53125 58.5 54.890625 
Q 58.5 48.1875 55.375 44.234375 
Q 52.25 40.28125 46.1875 39.3125 
Q 53.46875 37.75 57.5 32.78125 
Q 61.53125 27.828125 61.53125 20.40625 
Q 61.53125 10.640625 54.890625 5.3125 
Q 48.25 0 35.984375 0 
L 9.8125 0 
z
" id="DejaVuSans-66"/>
      <path id="DejaVuSans-32"/>
      <path d="M 41.109375 46.296875 
Q 39.59375 47.171875 37.8125 47.578125 
Q 36.03125 48 33.890625 48 
Q 26.265625 48 22.1875 43.046875 
Q 18.109375 38.09375 18.109375 28.8125 
L 18.109375 0 
L 9.078125 0 
L 9.078125 54.6875 
L 18.109375 54.6875 
L 18.109375 46.1875 
Q 20.953125 51.171875 25.484375 53.578125 
Q 30.03125 56 36.53125 56 
Q 37.453125 56 38.578125 55.875 
Q 39.703125 55.765625 41.0625 55.515625 
z
" id="DejaVuSans-114"/>
      <path d="M 52 44.1875 
Q 55.375 50.25 60.0625 53.125 
Q 64.75 56 71.09375 56 
Q 79.640625 56 84.28125 50.015625 
Q 88.921875 44.046875 88.921875 33.015625 
L 88.921875 0 
L 79.890625 0 
L 79.890625 32.71875 
Q 79.890625 40.578125 77.09375 44.375 
Q 74.3125 48.1875 68.609375 48.1875 
Q 61.625 48.1875 57.5625 43.546875 
Q 53.515625 38.921875 53.515625 30.90625 
L 53.515625 0 
L 44.484375 0 
L 44.484375 32.71875 
Q 44.484375 40.625 41.703125 44.40625 
Q 38.921875 48.1875 33.109375 48.1875 
Q 26.21875 48.1875 22.15625 43.53125 
Q 18.109375 38.875 18.109375 30.90625 
L 18.109375 0 
L 9.078125 0 
L 9.078125 54.6875 
L 18.109375 54.6875 
L 18.109375 46.1875 
Q 21.1875 51.21875 25.484375 53.609375 
Q 29.78125 56 35.6875 56 
Q 41.65625 56 45.828125 52.96875 
Q 50 49.953125 52 44.1875 
z
" id="DejaVuSans-109"/>
      <path d="M 56.203125 29.59375 
L 56.203125 25.203125 
L 14.890625 25.203125 
Q 15.484375 15.921875 20.484375 11.0625 
Q 25.484375 6.203125 34.421875 6.203125 
Q 39.59375 6.203125 44.453125 7.46875 
Q 49.3125 8.734375 54.109375 11.28125 
L 54.109375 2.78125 
Q 49.265625 0.734375 44.1875 -0.34375 
Q 39.109375 -1.421875 33.890625 -1.421875 
Q 20.796875 -1.421875 13.15625 6.1875 
Q 5.515625 13.8125 5.515625 26.8125 
Q 5.515625 40.234375 12.765625 48.109375 
Q 20.015625 56 32.328125 56 
Q 43.359375 56 49.78125 48.890625 
Q 56.203125 41.796875 56.203125 29.59375 
z
M 47.21875 32.234375 
Q 47.125 39.59375 43.09375 43.984375 
Q 39.0625 48.390625 32.421875 48.390625 
Q 24.90625 48.390625 20.390625 44.140625 
Q 15.875 39.890625 15.1875 32.171875 
z
" id="DejaVuSans-101"/>
      <path d="M 45.40625 46.390625 
L 45.40625 75.984375 
L 54.390625 75.984375 
L 54.390625 0 
L 45.40625 0 
L 45.40625 8.203125 
Q 42.578125 3.328125 38.25 0.953125 
Q 33.9375 -1.421875 27.875 -1.421875 
Q 17.96875 -1.421875 11.734375 6.484375 
Q 5.515625 14.40625 5.515625 27.296875 
Q 5.515625 40.1875 11.734375 48.09375 
Q 17.96875 56 27.875 56 
Q 33.9375 56 38.25 53.625 
Q 42.578125 51.265625 45.40625 46.390625 
z
M 14.796875 27.296875 
Q 14.796875 17.390625 18.875 11.75 
Q 22.953125 6.109375 30.078125 6.109375 
Q 37.203125 6.109375 41.296875 11.75 
Q 45.40625 17.390625 45.40625 27.296875 
Q 45.40625 37.203125 41.296875 42.84375 
Q 37.203125 48.484375 30.078125 48.484375 
Q 22.953125 48.484375 18.875 42.84375 
Q 14.796875 37.203125 14.796875 27.296875 
z
" id="DejaVuSans-100"/>
      <path d="M 9.421875 54.6875 
L 18.40625 54.6875 
L 18.40625 0 
L 9.421875 0 
z
M 9.421875 75.984375 
L 18.40625 75.984375 
L 18.40625 64.59375 
L 9.421875 64.59375 
z
" id="DejaVuSans-105"/>
      <path d="M 30.609375 48.390625 
Q 23.390625 48.390625 19.1875 42.75 
Q 14.984375 37.109375 14.984375 27.296875 
Q 14.984375 17.484375 19.15625 11.84375 
Q 23.34375 6.203125 30.609375 6.203125 
Q 37.796875 6.203125 41.984375 11.859375 
Q 46.1875 17.53125 46.1875 27.296875 
Q 46.1875 37.015625 41.984375 42.703125 
Q 37.796875 48.390625 30.609375 48.390625 
z
M 30.609375 56 
Q 42.328125 56 49.015625 48.375 
Q 55.71875 40.765625 55.71875 27.296875 
Q 55.71875 13.875 49.015625 6.21875 
Q 42.328125 -1.421875 30.609375 -1.421875 
Q 18.84375 -1.421875 12.171875 6.21875 
Q 5.515625 13.875 5.515625 27.296875 
Q 5.515625 40.765625 12.171875 48.375 
Q 18.84375 56 30.609375 56 
z
" id="DejaVuSans-111"/>
      <path d="M 44.28125 53.078125 
L 44.28125 44.578125 
Q 40.484375 46.53125 36.375 47.5 
Q 32.28125 48.484375 27.875 48.484375 
Q 21.1875 48.484375 17.84375 46.4375 
Q 14.5 44.390625 14.5 40.28125 
Q 14.5 37.15625 16.890625 35.375 
Q 19.28125 33.59375 26.515625 31.984375 
L 29.59375 31.296875 
Q 39.15625 29.25 43.1875 25.515625 
Q 47.21875 21.78125 47.21875 15.09375 
Q 47.21875 7.46875 41.1875 3.015625 
Q 35.15625 -1.421875 24.609375 -1.421875 
Q 20.21875 -1.421875 15.453125 -0.5625 
Q 10.6875 0.296875 5.421875 2 
L 5.421875 11.28125 
Q 10.40625 8.6875 15.234375 7.390625 
Q 20.0625 6.109375 24.8125 6.109375 
Q 31.15625 6.109375 34.5625 8.28125 
Q 37.984375 10.453125 37.984375 14.40625 
Q 37.984375 18.0625 35.515625 20.015625 
Q 33.0625 21.96875 24.703125 23.78125 
L 21.578125 24.515625 
Q 13.234375 26.265625 9.515625 29.90625 
Q 5.8125 33.546875 5.8125 39.890625 
Q 5.8125 47.609375 11.28125 51.796875 
Q 16.75 56 26.8125 56 
Q 31.78125 56 36.171875 55.265625 
Q 40.578125 54.546875 44.28125 53.078125 
z
" id="DejaVuSans-115"/>
      <path d="M 34.28125 27.484375 
Q 23.390625 27.484375 19.1875 25 
Q 14.984375 22.515625 14.984375 16.5 
Q 14.984375 11.71875 18.140625 8.90625 
Q 21.296875 6.109375 26.703125 6.109375 
Q 34.1875 6.109375 38.703125 11.40625 
Q 43.21875 16.703125 43.21875 25.484375 
L 43.21875 27.484375 
z
M 52.203125 31.203125 
L 52.203125 0 
L 43.21875 0 
L 43.21875 8.296875 
Q 40.140625 3.328125 35.546875 0.953125 
Q 30.953125 -1.421875 24.3125 -1.421875 
Q 15.921875 -1.421875 10.953125 3.296875 
Q 6 8.015625 6 15.921875 
Q 6 25.140625 12.171875 29.828125 
Q 18.359375 34.515625 30.609375 34.515625 
L 43.21875 34.515625 
L 43.21875 35.40625 
Q 43.21875 41.609375 39.140625 45 
Q 35.0625 48.390625 27.6875 48.390625 
Q 23 48.390625 18.546875 47.265625 
Q 14.109375 46.140625 10.015625 43.890625 
L 10.015625 52.203125 
Q 14.9375 54.109375 19.578125 55.046875 
Q 24.21875 56 28.609375 56 
Q 40.484375 56 46.34375 49.84375 
Q 52.203125 43.703125 52.203125 31.203125 
z
" id="DejaVuSans-97"/>
      <path d="M 54.890625 33.015625 
L 54.890625 0 
L 45.90625 0 
L 45.90625 32.71875 
Q 45.90625 40.484375 42.875 44.328125 
Q 39.84375 48.1875 33.796875 48.1875 
Q 26.515625 48.1875 22.3125 43.546875 
Q 18.109375 38.921875 18.109375 30.90625 
L 18.109375 0 
L 9.078125 0 
L 9.078125 54.6875 
L 18.109375 54.6875 
L 18.109375 46.1875 
Q 21.34375 51.125 25.703125 53.5625 
Q 30.078125 56 35.796875 56 
Q 45.21875 56 50.046875 50.171875 
Q 54.890625 44.34375 54.890625 33.015625 
z
" id="DejaVuSans-110"/>
      <path d="M 9.421875 75.984375 
L 18.40625 75.984375 
L 18.40625 0 
L 9.421875 0 
z
" id="DejaVuSans-108"/>
     </defs>
     <g transform="translate(18.398438 197.782462)rotate(-90)scale(0.1 -0.1)">
      <use xlink:href="#DejaVuSans-67"/>
      <use x="69.824219" xlink:href="#DejaVuSans-66"/>
      <use x="138.427734" xlink:href="#DejaVuSans-32"/>
      <use x="170.214844" xlink:href="#DejaVuSans-114"/>
      <use x="211.328125" xlink:href="#DejaVuSans-32"/>
      <use x="243.115234" xlink:href="#DejaVuSans-109"/>
      <use x="340.527344" xlink:href="#DejaVuSans-101"/>
      <use x="402.050781" xlink:href="#DejaVuSans-100"/>
      <use x="465.527344" xlink:href="#DejaVuSans-105"/>
      <use x="493.310547" xlink:href="#DejaVuSans-111"/>
      <use x="554.492188" xlink:href="#DejaVuSans-32"/>
      <use x="586.279297" xlink:href="#DejaVuSans-115"/>
      <use x="638.378906" xlink:href="#DejaVuSans-101"/>
      <use x="699.902344" xlink:href="#DejaVuSans-109"/>
      <use x="797.314453" xlink:href="#DejaVuSans-97"/>
      <use x="858.59375" xlink:href="#DejaVuSans-110"/>
      <use x="921.972656" xlink:href="#DejaVuSans-97"/>
      <use x="983.251953" xlink:href="#DejaVuSans-108"/>
     </g>
    </g>
   </g>
   <g id="LineCollection_1">
    <path clip-path="url(#p91a7675542)" d="M 65.643494 191.441459 
L 430.888384 191.441459 
" style="fill:none;stroke:#000000;stroke-width:1.5;"/>
   </g>
   <g id="line2d_14">
    <path clip-path="url(#p91a7675542)" d="M 108.587004 -1 
L 108.8088 31.893339 
L 113.23601 149.494556 
L 117.663221 167.417557 
L 122.090432 253.476558 
L 126.517643 253.806798 
L 130.944854 253.966355 
L 135.372064 217.937253 
L 139.799275 55.651619 
L 141.171402 -1 
M 163.184911 -1 
L 166.36254 47.899767 
L 170.370705 -1 
M 198.467345 -1 
L 201.780226 28.942512 
L 206.207437 65.221803 
L 210.634648 103.715367 
L 215.061858 136.870207 
L 219.489069 163.375463 
L 223.91628 184.034296 
L 228.343491 204.726254 
L 232.770702 218.089054 
L 237.197912 226.466553 
L 241.625123 228.824425 
L 246.052334 229.591905 
L 250.479545 231.036016 
L 254.906756 218.980235 
L 259.333966 212.65838 
L 263.761177 208.297148 
L 268.188388 201.915813 
L 272.615599 202.934115 
L 277.042809 205.807022 
L 281.47002 204.54904 
L 285.897231 214.306681 
L 290.324442 218.70165 
L 294.751653 216.027516 
L 299.178863 199.41159 
L 303.606074 204.512407 
L 308.033285 197.678951 
L 312.460496 189.831149 
L 316.887706 195.363827 
L 321.314917 201.137186 
L 325.742128 202.740703 
L 330.169339 234.682732 
L 334.59655 229.476421 
L 339.02376 228.976569 
L 343.450971 231.494011 
L 347.878182 215.656862 
L 352.305393 192.807994 
L 356.732604 195.626051 
L 361.159814 190.00399 
L 365.587025 195.044047 
L 370.014236 212.147785 
L 374.441447 219.971742 
L 378.868657 234.875335 
L 383.295868 246.563945 
L 387.723079 242.966778 
L 392.15029 244.974269 
L 396.577501 239.378496 
L 401.004711 228.671296 
L 405.431922 215.838358 
L 409.859133 197.530578 
L 414.286344 202.928724 
" style="fill:none;stroke:#1f77b4;stroke-linecap:square;stroke-width:1.5;"/>
    <defs>
     <path d="M 0 1.5 
C 0.397805 1.5 0.77937 1.341951 1.06066 1.06066 
C 1.341951 0.77937 1.5 0.397805 1.5 0 
C 1.5 -0.397805 1.341951 -0.77937 1.06066 -1.06066 
C 0.77937 -1.341951 0.397805 -1.5 0 -1.5 
C -0.397805 -1.5 -0.77937 -1.341951 -1.06066 -1.06066 
C -1.341951 -0.77937 -1.5 -0.397805 -1.5 0 
C -1.5 0.397805 -1.341951 0.77937 -1.06066 1.06066 
C -0.77937 1.341951 -0.397805 1.5 0 1.5 
z
" id="me685651d51" style="stroke:#1f77b4;"/>
    </defs>
    <g clip-path="url(#p91a7675542)">
     <use style="fill:#1f77b4;stroke:#1f77b4;" x="108.587004" xlink:href="#me685651d51" y="-1"/>
     <use style="fill:#1f77b4;stroke:#1f77b4;" x="108.8088" xlink:href="#me685651d51" y="31.893339"/>
     <use style="fill:#1f77b4;stroke:#1f77b4;" x="113.23601" xlink:href="#me685651d51" y="149.494556"/>
     <use style="fill:#1f77b4;stroke:#1f77b4;" x="117.663221" xlink:href="#me685651d51" y="167.417557"/>
     <use style="fill:#1f77b4;stroke:#1f77b4;" x="122.090432" xlink:href="#me685651d51" y="253.476558"/>
     <use style="fill:#1f77b4;stroke:#1f77b4;" x="126.517643" xlink:href="#me685651d51" y="253.806798"/>
     <use style="fill:#1f77b4;stroke:#1f77b4;" x="130.944854" xlink:href="#me685651d51" y="253.966355"/>
     <use style="fill:#1f77b4;stroke:#1f77b4;" x="135.372064" xlink:href="#me685651d51" y="217.937253"/>
     <use style="fill:#1f77b4;stroke:#1f77b4;" x="139.799275" xlink:href="#me685651d51" y="55.651619"/>
     <use style="fill:#1f77b4;stroke:#1f77b4;" x="141.171402" xlink:href="#me685651d51" y="-1"/>
     <use style="fill:#1f77b4;stroke:#1f77b4;" x="163.184911" xlink:href="#me685651d51" y="-1"/>
     <use style="fill:#1f77b4;stroke:#1f77b4;" x="166.36254" xlink:href="#me685651d51" y="47.899767"/>
     <use style="fill:#1f77b4;stroke:#1f77b4;" x="170.370705" xlink:href="#me685651d51" y="-1"/>
     <use style="fill:#1f77b4;stroke:#1f77b4;" x="198.467345" xlink:href="#me685651d51" y="-1"/>
     <use style="fill:#1f77b4;stroke:#1f77b4;" x="201.780226" xlink:href="#me685651d51" y="28.942512"/>
     <use style="fill:#1f77b4;stroke:#1f77b4;" x="206.207437" xlink:href="#me685651d51" y="65.221803"/>
     <use style="fill:#1f77b4;stroke:#1f77b4;" x="210.634648" xlink:href="#me685651d51" y="103.715367"/>
     <use style="fill:#1f77b4;stroke:#1f77b4;" x="215.061858" xlink:href="#me685651d51" y="136.870207"/>
     <use style="fill:#1f77b4;stroke:#1f77b4;" x="219.489069" xlink:href="#me685651d51" y="163.375463"/>
     <use style="fill:#1f77b4;stroke:#1f77b4;" x="223.91628" xlink:href="#me685651d51" y="184.034296"/>
     <use style="fill:#1f77b4;stroke:#1f77b4;" x="228.343491" xlink:href="#me685651d51" y="204.726254"/>
     <use style="fill:#1f77b4;stroke:#1f77b4;" x="232.770702" xlink:href="#me685651d51" y="218.089054"/>
     <use style="fill:#1f77b4;stroke:#1f77b4;" x="237.197912" xlink:href="#me685651d51" y="226.466553"/>
     <use style="fill:#1f77b4;stroke:#1f77b4;" x="241.625123" xlink:href="#me685651d51" y="228.824425"/>
     <use style="fill:#1f77b4;stroke:#1f77b4;" x="246.052334" xlink:href="#me685651d51" y="229.591905"/>
     <use style="fill:#1f77b4;stroke:#1f77b4;" x="250.479545" xlink:href="#me685651d51" y="231.036016"/>
     <use style="fill:#1f77b4;stroke:#1f77b4;" x="254.906756" xlink:href="#me685651d51" y="218.980235"/>
     <use style="fill:#1f77b4;stroke:#1f77b4;" x="259.333966" xlink:href="#me685651d51" y="212.65838"/>
     <use style="fill:#1f77b4;stroke:#1f77b4;" x="263.761177" xlink:href="#me685651d51" y="208.297148"/>
     <use style="fill:#1f77b4;stroke:#1f77b4;" x="268.188388" xlink:href="#me685651d51" y="201.915813"/>
     <use style="fill:#1f77b4;stroke:#1f77b4;" x="272.615599" xlink:href="#me685651d51" y="202.934115"/>
     <use style="fill:#1f77b4;stroke:#1f77b4;" x="277.042809" xlink:href="#me685651d51" y="205.807022"/>
     <use style="fill:#1f77b4;stroke:#1f77b4;" x="281.47002" xlink:href="#me685651d51" y="204.54904"/>
     <use style="fill:#1f77b4;stroke:#1f77b4;" x="285.897231" xlink:href="#me685651d51" y="214.306681"/>
     <use style="fill:#1f77b4;stroke:#1f77b4;" x="290.324442" xlink:href="#me685651d51" y="218.70165"/>
     <use style="fill:#1f77b4;stroke:#1f77b4;" x="294.751653" xlink:href="#me685651d51" y="216.027516"/>
     <use style="fill:#1f77b4;stroke:#1f77b4;" x="299.178863" xlink:href="#me685651d51" y="199.41159"/>
     <use style="fill:#1f77b4;stroke:#1f77b4;" x="303.606074" xlink:href="#me685651d51" y="204.512407"/>
     <use style="fill:#1f77b4;stroke:#1f77b4;" x="308.033285" xlink:href="#me685651d51" y="197.678951"/>
     <use style="fill:#1f77b4;stroke:#1f77b4;" x="312.460496" xlink:href="#me685651d51" y="189.831149"/>
     <use style="fill:#1f77b4;stroke:#1f77b4;" x="316.887706" xlink:href="#me685651d51" y="195.363827"/>
     <use style="fill:#1f77b4;stroke:#1f77b4;" x="321.314917" xlink:href="#me685651d51" y="201.137186"/>
     <use style="fill:#1f77b4;stroke:#1f77b4;" x="325.742128" xlink:href="#me685651d51" y="202.740703"/>
     <use style="fill:#1f77b4;stroke:#1f77b4;" x="330.169339" xlink:href="#me685651d51" y="234.682732"/>
     <use style="fill:#1f77b4;stroke:#1f77b4;" x="334.59655" xlink:href="#me685651d51" y="229.476421"/>
     <use style="fill:#1f77b4;stroke:#1f77b4;" x="339.02376" xlink:href="#me685651d51" y="228.976569"/>
     <use style="fill:#1f77b4;stroke:#1f77b4;" x="343.450971" xlink:href="#me685651d51" y="231.494011"/>
     <use style="fill:#1f77b4;stroke:#1f77b4;" x="347.878182" xlink:href="#me685651d51" y="215.656862"/>
     <use style="fill:#1f77b4;stroke:#1f77b4;" x="352.305393" xlink:href="#me685651d51" y="192.807994"/>
     <use style="fill:#1f77b4;stroke:#1f77b4;" x="356.732604" xlink:href="#me685651d51" y="195.626051"/>
     <use style="fill:#1f77b4;stroke:#1f77b4;" x="361.159814" xlink:href="#me685651d51" y="190.00399"/>
     <use style="fill:#1f77b4;stroke:#1f77b4;" x="365.587025" xlink:href="#me685651d51" y="195.044047"/>
     <use style="fill:#1f77b4;stroke:#1f77b4;" x="370.014236" xlink:href="#me685651d51" y="212.147785"/>
     <use style="fill:#1f77b4;stroke:#1f77b4;" x="374.441447" xlink:href="#me685651d51" y="219.971742"/>
     <use style="fill:#1f77b4;stroke:#1f77b4;" x="378.868657" xlink:href="#me685651d51" y="234.875335"/>
     <use style="fill:#1f77b4;stroke:#1f77b4;" x="383.295868" xlink:href="#me685651d51" y="246.563945"/>
     <use style="fill:#1f77b4;stroke:#1f77b4;" x="387.723079" xlink:href="#me685651d51" y="242.966778"/>
     <use style="fill:#1f77b4;stroke:#1f77b4;" x="392.15029" xlink:href="#me685651d51" y="244.974269"/>
     <use style="fill:#1f77b4;stroke:#1f77b4;" x="396.577501" xlink:href="#me685651d51" y="239.378496"/>
     <use style="fill:#1f77b4;stroke:#1f77b4;" x="401.004711" xlink:href="#me685651d51" y="228.671296"/>
     <use style="fill:#1f77b4;stroke:#1f77b4;" x="405.431922" xlink:href="#me685651d51" y="215.838358"/>
     <use style="fill:#1f77b4;stroke:#1f77b4;" x="409.859133" xlink:href="#me685651d51" y="197.530578"/>
     <use style="fill:#1f77b4;stroke:#1f77b4;" x="414.286344" xlink:href="#me685651d51" y="202.928724"/>
    </g>
   </g>
   <g id="patch_3">
    <path d="M 47.38125 279.86258 
L 47.38125 14.599219 
" style="fill:none;stroke:#000000;stroke-linecap:square;stroke-linejoin:miter;stroke-width:0.8;"/>
   </g>
   <g id="patch_4">
    <path d="M 449.150629 279.86258 
L 449.150629 14.599219 
" style="fill:none;stroke:#000000;stroke-linecap:square;stroke-linejoin:miter;stroke-width:0.8;"/>
   </g>
   <g id="patch_5">
    <path d="M 47.38125 279.86258 
L 449.150629 279.86258 
" style="fill:none;stroke:#000000;stroke-linecap:square;stroke-linejoin:miter;stroke-width:0.8;"/>
   </g>
   <g id="patch_6">
    <path d="M 47.38125 14.599219 
L 449.150629 14.599219 
" style="fill:none;stroke:#000000;stroke-linecap:square;stroke-linejoin:miter;stroke-width:0.8;"/>
   </g>
  </g>
 </g>
 <defs>
  <clipPath id="p91a7675542">
   <rect height="265.263361" width="401.769379" x="47.38125" y="14.599219"/>
  </clipPath>
 </defs>
</svg>
