<?xml version="1.0" encoding="utf-8" standalone="no"?>
<!DOCTYPE svg PUBLIC "-//W3C//DTD SVG 1.1//EN"
  "http://www.w3.org/Graphics/SVG/1.1/DTD/svg11.dtd">
<!-- Created with matplotlib (https://matplotlib.org/) -->
<svg height="345.6pt" version="1.1" viewBox="0 0 460.8 345.6" width="460.8pt" xmlns="http://www.w3.org/2000/svg" xmlns:xlink="http://www.w3.org/1999/xlink">
 <defs>
  <style type="text/css">
*{stroke-linecap:butt;stroke-linejoin:round;}
  </style>
 </defs>
 <g id="figure_1">
  <g id="patch_1">
   <path d="M 0 345.6 
L 460.8 345.6 
L 460.8 0 
L 0 0 
z
" style="fill:#ffffff;"/>
  </g>
  <g id="axes_1">
   <g id="patch_2">
    <path d="M 47.38125 279.86258 
L 450 279.86258 
L 450 14.599219 
L 47.38125 14.599219 
z
" style="fill:#ffffff;"/>
   </g>
   <g id="matplotlib.axis_1">
    <g id="xtick_1">
     <g id="line2d_1">
      <defs>
       <path d="M 0 0 
L 0 3.5 
" id="m136e7c939f" style="stroke:#000000;stroke-width:0.8;"/>
      </defs>
      <g>
       <use style="stroke:#000000;stroke-width:0.8;" x="90.851107" xlink:href="#m136e7c939f" y="279.86258"/>
      </g>
     </g>
     <g id="text_1">
      <!-- 2020-03-01 -->
      <defs>
       <path d="M 19.1875 8.296875 
L 53.609375 8.296875 
L 53.609375 0 
L 7.328125 0 
L 7.328125 8.296875 
Q 12.9375 14.109375 22.625 23.890625 
Q 32.328125 33.6875 34.8125 36.53125 
Q 39.546875 41.84375 41.421875 45.53125 
Q 43.3125 49.21875 43.3125 52.78125 
Q 43.3125 58.59375 39.234375 62.25 
Q 35.15625 65.921875 28.609375 65.921875 
Q 23.96875 65.921875 18.8125 64.3125 
Q 13.671875 62.703125 7.8125 59.421875 
L 7.8125 69.390625 
Q 13.765625 71.78125 18.9375 73 
Q 24.125 74.21875 28.421875 74.21875 
Q 39.75 74.21875 46.484375 68.546875 
Q 53.21875 62.890625 53.21875 53.421875 
Q 53.21875 48.921875 51.53125 44.890625 
Q 49.859375 40.875 45.40625 35.40625 
Q 44.1875 33.984375 37.640625 27.21875 
Q 31.109375 20.453125 19.1875 8.296875 
z
" id="DejaVuSans-50"/>
       <path d="M 31.78125 66.40625 
Q 24.171875 66.40625 20.328125 58.90625 
Q 16.5 51.421875 16.5 36.375 
Q 16.5 21.390625 20.328125 13.890625 
Q 24.171875 6.390625 31.78125 6.390625 
Q 39.453125 6.390625 43.28125 13.890625 
Q 47.125 21.390625 47.125 36.375 
Q 47.125 51.421875 43.28125 58.90625 
Q 39.453125 66.40625 31.78125 66.40625 
z
M 31.78125 74.21875 
Q 44.046875 74.21875 50.515625 64.515625 
Q 56.984375 54.828125 56.984375 36.375 
Q 56.984375 17.96875 50.515625 8.265625 
Q 44.046875 -1.421875 31.78125 -1.421875 
Q 19.53125 -1.421875 13.0625 8.265625 
Q 6.59375 17.96875 6.59375 36.375 
Q 6.59375 54.828125 13.0625 64.515625 
Q 19.53125 74.21875 31.78125 74.21875 
z
" id="DejaVuSans-48"/>
       <path d="M 4.890625 31.390625 
L 31.203125 31.390625 
L 31.203125 23.390625 
L 4.890625 23.390625 
z
" id="DejaVuSans-45"/>
       <path d="M 40.578125 39.3125 
Q 47.65625 37.796875 51.625 33 
Q 55.609375 28.21875 55.609375 21.1875 
Q 55.609375 10.40625 48.1875 4.484375 
Q 40.765625 -1.421875 27.09375 -1.421875 
Q 22.515625 -1.421875 17.65625 -0.515625 
Q 12.796875 0.390625 7.625 2.203125 
L 7.625 11.71875 
Q 11.71875 9.328125 16.59375 8.109375 
Q 21.484375 6.890625 26.8125 6.890625 
Q 36.078125 6.890625 40.9375 10.546875 
Q 45.796875 14.203125 45.796875 21.1875 
Q 45.796875 27.640625 41.28125 31.265625 
Q 36.765625 34.90625 28.71875 34.90625 
L 20.21875 34.90625 
L 20.21875 43.015625 
L 29.109375 43.015625 
Q 36.375 43.015625 40.234375 45.921875 
Q 44.09375 48.828125 44.09375 54.296875 
Q 44.09375 59.90625 40.109375 62.90625 
Q 36.140625 65.921875 28.71875 65.921875 
Q 24.65625 65.921875 20.015625 65.03125 
Q 15.375 64.15625 9.8125 62.3125 
L 9.8125 71.09375 
Q 15.4375 72.65625 20.34375 73.4375 
Q 25.25 74.21875 29.59375 74.21875 
Q 40.828125 74.21875 47.359375 69.109375 
Q 53.90625 64.015625 53.90625 55.328125 
Q 53.90625 49.265625 50.4375 45.09375 
Q 46.96875 40.921875 40.578125 39.3125 
z
" id="DejaVuSans-51"/>
       <path d="M 12.40625 8.296875 
L 28.515625 8.296875 
L 28.515625 63.921875 
L 10.984375 60.40625 
L 10.984375 69.390625 
L 28.421875 72.90625 
L 38.28125 72.90625 
L 38.28125 8.296875 
L 54.390625 8.296875 
L 54.390625 0 
L 12.40625 0 
z
" id="DejaVuSans-49"/>
      </defs>
      <g transform="translate(72.255303 333.329439)rotate(-45)scale(0.1 -0.1)">
       <use xlink:href="#DejaVuSans-50"/>
       <use x="63.623047" xlink:href="#DejaVuSans-48"/>
       <use x="127.246094" xlink:href="#DejaVuSans-50"/>
       <use x="190.869141" xlink:href="#DejaVuSans-48"/>
       <use x="254.492188" xlink:href="#DejaVuSans-45"/>
       <use x="290.576172" xlink:href="#DejaVuSans-48"/>
       <use x="354.199219" xlink:href="#DejaVuSans-51"/>
       <use x="417.822266" xlink:href="#DejaVuSans-45"/>
       <use x="453.90625" xlink:href="#DejaVuSans-48"/>
       <use x="517.529297" xlink:href="#DejaVuSans-49"/>
      </g>
     </g>
    </g>
    <g id="xtick_2">
     <g id="line2d_2">
      <g>
       <use style="stroke:#000000;stroke-width:0.8;" x="150.574168" xlink:href="#m136e7c939f" y="279.86258"/>
      </g>
     </g>
     <g id="text_2">
      <!-- 2020-03-15 -->
      <defs>
       <path d="M 10.796875 72.90625 
L 49.515625 72.90625 
L 49.515625 64.59375 
L 19.828125 64.59375 
L 19.828125 46.734375 
Q 21.96875 47.46875 24.109375 47.828125 
Q 26.265625 48.1875 28.421875 48.1875 
Q 40.625 48.1875 47.75 41.5 
Q 54.890625 34.8125 54.890625 23.390625 
Q 54.890625 11.625 47.5625 5.09375 
Q 40.234375 -1.421875 26.90625 -1.421875 
Q 22.3125 -1.421875 17.546875 -0.640625 
Q 12.796875 0.140625 7.71875 1.703125 
L 7.71875 11.625 
Q 12.109375 9.234375 16.796875 8.0625 
Q 21.484375 6.890625 26.703125 6.890625 
Q 35.15625 6.890625 40.078125 11.328125 
Q 45.015625 15.765625 45.015625 23.390625 
Q 45.015625 31 40.078125 35.4375 
Q 35.15625 39.890625 26.703125 39.890625 
Q 22.75 39.890625 18.8125 39.015625 
Q 14.890625 38.140625 10.796875 36.28125 
z
" id="DejaVuSans-53"/>
      </defs>
      <g transform="translate(131.978364 333.329439)rotate(-45)scale(0.1 -0.1)">
       <use xlink:href="#DejaVuSans-50"/>
       <use x="63.623047" xlink:href="#DejaVuSans-48"/>
       <use x="127.246094" xlink:href="#DejaVuSans-50"/>
       <use x="190.869141" xlink:href="#DejaVuSans-48"/>
       <use x="254.492188" xlink:href="#DejaVuSans-45"/>
       <use x="290.576172" xlink:href="#DejaVuSans-48"/>
       <use x="354.199219" xlink:href="#DejaVuSans-51"/>
       <use x="417.822266" xlink:href="#DejaVuSans-45"/>
       <use x="453.90625" xlink:href="#DejaVuSans-49"/>
       <use x="517.529297" xlink:href="#DejaVuSans-53"/>
      </g>
     </g>
    </g>
    <g id="xtick_3">
     <g id="line2d_3">
      <g>
       <use style="stroke:#000000;stroke-width:0.8;" x="223.095027" xlink:href="#m136e7c939f" y="279.86258"/>
      </g>
     </g>
     <g id="text_3">
      <!-- 2020-04-01 -->
      <defs>
       <path d="M 37.796875 64.3125 
L 12.890625 25.390625 
L 37.796875 25.390625 
z
M 35.203125 72.90625 
L 47.609375 72.90625 
L 47.609375 25.390625 
L 58.015625 25.390625 
L 58.015625 17.1875 
L 47.609375 17.1875 
L 47.609375 0 
L 37.796875 0 
L 37.796875 17.1875 
L 4.890625 17.1875 
L 4.890625 26.703125 
z
" id="DejaVuSans-52"/>
      </defs>
      <g transform="translate(204.499224 333.329439)rotate(-45)scale(0.1 -0.1)">
       <use xlink:href="#DejaVuSans-50"/>
       <use x="63.623047" xlink:href="#DejaVuSans-48"/>
       <use x="127.246094" xlink:href="#DejaVuSans-50"/>
       <use x="190.869141" xlink:href="#DejaVuSans-48"/>
       <use x="254.492188" xlink:href="#DejaVuSans-45"/>
       <use x="290.576172" xlink:href="#DejaVuSans-48"/>
       <use x="354.199219" xlink:href="#DejaVuSans-52"/>
       <use x="417.822266" xlink:href="#DejaVuSans-45"/>
       <use x="453.90625" xlink:href="#DejaVuSans-48"/>
       <use x="517.529297" xlink:href="#DejaVuSans-49"/>
      </g>
     </g>
    </g>
    <g id="xtick_4">
     <g id="line2d_4">
      <g>
       <use style="stroke:#000000;stroke-width:0.8;" x="282.818088" xlink:href="#m136e7c939f" y="279.86258"/>
      </g>
     </g>
     <g id="text_4">
      <!-- 2020-04-15 -->
      <g transform="translate(264.222285 333.329439)rotate(-45)scale(0.1 -0.1)">
       <use xlink:href="#DejaVuSans-50"/>
       <use x="63.623047" xlink:href="#DejaVuSans-48"/>
       <use x="127.246094" xlink:href="#DejaVuSans-50"/>
       <use x="190.869141" xlink:href="#DejaVuSans-48"/>
       <use x="254.492188" xlink:href="#DejaVuSans-45"/>
       <use x="290.576172" xlink:href="#DejaVuSans-48"/>
       <use x="354.199219" xlink:href="#DejaVuSans-52"/>
       <use x="417.822266" xlink:href="#DejaVuSans-45"/>
       <use x="453.90625" xlink:href="#DejaVuSans-49"/>
       <use x="517.529297" xlink:href="#DejaVuSans-53"/>
      </g>
     </g>
    </g>
    <g id="xtick_5">
     <g id="line2d_5">
      <g>
       <use style="stroke:#000000;stroke-width:0.8;" x="351.073015" xlink:href="#m136e7c939f" y="279.86258"/>
      </g>
     </g>
     <g id="text_5">
      <!-- 2020-05-01 -->
      <g transform="translate(332.477212 333.329439)rotate(-45)scale(0.1 -0.1)">
       <use xlink:href="#DejaVuSans-50"/>
       <use x="63.623047" xlink:href="#DejaVuSans-48"/>
       <use x="127.246094" xlink:href="#DejaVuSans-50"/>
       <use x="190.869141" xlink:href="#DejaVuSans-48"/>
       <use x="254.492188" xlink:href="#DejaVuSans-45"/>
       <use x="290.576172" xlink:href="#DejaVuSans-48"/>
       <use x="354.199219" xlink:href="#DejaVuSans-53"/>
       <use x="417.822266" xlink:href="#DejaVuSans-45"/>
       <use x="453.90625" xlink:href="#DejaVuSans-48"/>
       <use x="517.529297" xlink:href="#DejaVuSans-49"/>
      </g>
     </g>
    </g>
    <g id="xtick_6">
     <g id="line2d_6">
      <g>
       <use style="stroke:#000000;stroke-width:0.8;" x="410.796076" xlink:href="#m136e7c939f" y="279.86258"/>
      </g>
     </g>
     <g id="text_6">
      <!-- 2020-05-15 -->
      <g transform="translate(392.200273 333.329439)rotate(-45)scale(0.1 -0.1)">
       <use xlink:href="#DejaVuSans-50"/>
       <use x="63.623047" xlink:href="#DejaVuSans-48"/>
       <use x="127.246094" xlink:href="#DejaVuSans-50"/>
       <use x="190.869141" xlink:href="#DejaVuSans-48"/>
       <use x="254.492188" xlink:href="#DejaVuSans-45"/>
       <use x="290.576172" xlink:href="#DejaVuSans-48"/>
       <use x="354.199219" xlink:href="#DejaVuSans-53"/>
       <use x="417.822266" xlink:href="#DejaVuSans-45"/>
       <use x="453.90625" xlink:href="#DejaVuSans-49"/>
       <use x="517.529297" xlink:href="#DejaVuSans-53"/>
      </g>
     </g>
    </g>
   </g>
   <g id="matplotlib.axis_2">
    <g id="ytick_1">
     <g id="line2d_7">
      <defs>
       <path d="M 0 0 
L -3.5 0 
" id="m80f6c8c60c" style="stroke:#000000;stroke-width:0.8;"/>
      </defs>
      <g>
       <use style="stroke:#000000;stroke-width:0.8;" x="47.38125" xlink:href="#m80f6c8c60c" y="279.86258"/>
      </g>
     </g>
     <g id="text_7">
      <!-- 0.0 -->
      <defs>
       <path d="M 10.6875 12.40625 
L 21 12.40625 
L 21 0 
L 10.6875 0 
z
" id="DejaVuSans-46"/>
      </defs>
      <g transform="translate(24.478125 283.661798)scale(0.1 -0.1)">
       <use xlink:href="#DejaVuSans-48"/>
       <use x="63.623047" xlink:href="#DejaVuSans-46"/>
       <use x="95.410156" xlink:href="#DejaVuSans-48"/>
      </g>
     </g>
    </g>
    <g id="ytick_2">
     <g id="line2d_8">
      <g>
       <use style="stroke:#000000;stroke-width:0.8;" x="47.38125" xlink:href="#m80f6c8c60c" y="235.65202"/>
      </g>
     </g>
     <g id="text_8">
      <!-- 0.5 -->
      <g transform="translate(24.478125 239.451238)scale(0.1 -0.1)">
       <use xlink:href="#DejaVuSans-48"/>
       <use x="63.623047" xlink:href="#DejaVuSans-46"/>
       <use x="95.410156" xlink:href="#DejaVuSans-53"/>
      </g>
     </g>
    </g>
    <g id="ytick_3">
     <g id="line2d_9">
      <g>
       <use style="stroke:#000000;stroke-width:0.8;" x="47.38125" xlink:href="#m80f6c8c60c" y="191.441459"/>
      </g>
     </g>
     <g id="text_9">
      <!-- 1.0 -->
      <g transform="translate(24.478125 195.240678)scale(0.1 -0.1)">
       <use xlink:href="#DejaVuSans-49"/>
       <use x="63.623047" xlink:href="#DejaVuSans-46"/>
       <use x="95.410156" xlink:href="#DejaVuSans-48"/>
      </g>
     </g>
    </g>
    <g id="ytick_4">
     <g id="line2d_10">
      <g>
       <use style="stroke:#000000;stroke-width:0.8;" x="47.38125" xlink:href="#m80f6c8c60c" y="147.230899"/>
      </g>
     </g>
     <g id="text_10">
      <!-- 1.5 -->
      <g transform="translate(24.478125 151.030118)scale(0.1 -0.1)">
       <use xlink:href="#DejaVuSans-49"/>
       <use x="63.623047" xlink:href="#DejaVuSans-46"/>
       <use x="95.410156" xlink:href="#DejaVuSans-53"/>
      </g>
     </g>
    </g>
    <g id="ytick_5">
     <g id="line2d_11">
      <g>
       <use style="stroke:#000000;stroke-width:0.8;" x="47.38125" xlink:href="#m80f6c8c60c" y="103.020339"/>
      </g>
     </g>
     <g id="text_11">
      <!-- 2.0 -->
      <g transform="translate(24.478125 106.819558)scale(0.1 -0.1)">
       <use xlink:href="#DejaVuSans-50"/>
       <use x="63.623047" xlink:href="#DejaVuSans-46"/>
       <use x="95.410156" xlink:href="#DejaVuSans-48"/>
      </g>
     </g>
    </g>
    <g id="ytick_6">
     <g id="line2d_12">
      <g>
       <use style="stroke:#000000;stroke-width:0.8;" x="47.38125" xlink:href="#m80f6c8c60c" y="58.809779"/>
      </g>
     </g>
     <g id="text_12">
      <!-- 2.5 -->
      <g transform="translate(24.478125 62.608998)scale(0.1 -0.1)">
       <use xlink:href="#DejaVuSans-50"/>
       <use x="63.623047" xlink:href="#DejaVuSans-46"/>
       <use x="95.410156" xlink:href="#DejaVuSans-53"/>
      </g>
     </g>
    </g>
    <g id="ytick_7">
     <g id="line2d_13">
      <g>
       <use style="stroke:#000000;stroke-width:0.8;" x="47.38125" xlink:href="#m80f6c8c60c" y="14.599219"/>
      </g>
     </g>
     <g id="text_13">
      <!-- 3.0 -->
      <g transform="translate(24.478125 18.398438)scale(0.1 -0.1)">
       <use xlink:href="#DejaVuSans-51"/>
       <use x="63.623047" xlink:href="#DejaVuSans-46"/>
       <use x="95.410156" xlink:href="#DejaVuSans-48"/>
      </g>
     </g>
    </g>
    <g id="text_14">
     <!-- RI r medio semanal -->
     <defs>
      <path d="M 44.390625 34.1875 
Q 47.5625 33.109375 50.5625 29.59375 
Q 53.5625 26.078125 56.59375 19.921875 
L 66.609375 0 
L 56 0 
L 46.6875 18.703125 
Q 43.0625 26.03125 39.671875 28.421875 
Q 36.28125 30.8125 30.421875 30.8125 
L 19.671875 30.8125 
L 19.671875 0 
L 9.8125 0 
L 9.8125 72.90625 
L 32.078125 72.90625 
Q 44.578125 72.90625 50.734375 67.671875 
Q 56.890625 62.453125 56.890625 51.90625 
Q 56.890625 45.015625 53.6875 40.46875 
Q 50.484375 35.9375 44.390625 34.1875 
z
M 19.671875 64.796875 
L 19.671875 38.921875 
L 32.078125 38.921875 
Q 39.203125 38.921875 42.84375 42.21875 
Q 46.484375 45.515625 46.484375 51.90625 
Q 46.484375 58.296875 42.84375 61.546875 
Q 39.203125 64.796875 32.078125 64.796875 
z
" id="DejaVuSans-82"/>
      <path d="M 9.8125 72.90625 
L 19.671875 72.90625 
L 19.671875 0 
L 9.8125 0 
z
" id="DejaVuSans-73"/>
      <path id="DejaVuSans-32"/>
      <path d="M 41.109375 46.296875 
Q 39.59375 47.171875 37.8125 47.578125 
Q 36.03125 48 33.890625 48 
Q 26.265625 48 22.1875 43.046875 
Q 18.109375 38.09375 18.109375 28.8125 
L 18.109375 0 
L 9.078125 0 
L 9.078125 54.6875 
L 18.109375 54.6875 
L 18.109375 46.1875 
Q 20.953125 51.171875 25.484375 53.578125 
Q 30.03125 56 36.53125 56 
Q 37.453125 56 38.578125 55.875 
Q 39.703125 55.765625 41.0625 55.515625 
z
" id="DejaVuSans-114"/>
      <path d="M 52 44.1875 
Q 55.375 50.25 60.0625 53.125 
Q 64.75 56 71.09375 56 
Q 79.640625 56 84.28125 50.015625 
Q 88.921875 44.046875 88.921875 33.015625 
L 88.921875 0 
L 79.890625 0 
L 79.890625 32.71875 
Q 79.890625 40.578125 77.09375 44.375 
Q 74.3125 48.1875 68.609375 48.1875 
Q 61.625 48.1875 57.5625 43.546875 
Q 53.515625 38.921875 53.515625 30.90625 
L 53.515625 0 
L 44.484375 0 
L 44.484375 32.71875 
Q 44.484375 40.625 41.703125 44.40625 
Q 38.921875 48.1875 33.109375 48.1875 
Q 26.21875 48.1875 22.15625 43.53125 
Q 18.109375 38.875 18.109375 30.90625 
L 18.109375 0 
L 9.078125 0 
L 9.078125 54.6875 
L 18.109375 54.6875 
L 18.109375 46.1875 
Q 21.1875 51.21875 25.484375 53.609375 
Q 29.78125 56 35.6875 56 
Q 41.65625 56 45.828125 52.96875 
Q 50 49.953125 52 44.1875 
z
" id="DejaVuSans-109"/>
      <path d="M 56.203125 29.59375 
L 56.203125 25.203125 
L 14.890625 25.203125 
Q 15.484375 15.921875 20.484375 11.0625 
Q 25.484375 6.203125 34.421875 6.203125 
Q 39.59375 6.203125 44.453125 7.46875 
Q 49.3125 8.734375 54.109375 11.28125 
L 54.109375 2.78125 
Q 49.265625 0.734375 44.1875 -0.34375 
Q 39.109375 -1.421875 33.890625 -1.421875 
Q 20.796875 -1.421875 13.15625 6.1875 
Q 5.515625 13.8125 5.515625 26.8125 
Q 5.515625 40.234375 12.765625 48.109375 
Q 20.015625 56 32.328125 56 
Q 43.359375 56 49.78125 48.890625 
Q 56.203125 41.796875 56.203125 29.59375 
z
M 47.21875 32.234375 
Q 47.125 39.59375 43.09375 43.984375 
Q 39.0625 48.390625 32.421875 48.390625 
Q 24.90625 48.390625 20.390625 44.140625 
Q 15.875 39.890625 15.1875 32.171875 
z
" id="DejaVuSans-101"/>
      <path d="M 45.40625 46.390625 
L 45.40625 75.984375 
L 54.390625 75.984375 
L 54.390625 0 
L 45.40625 0 
L 45.40625 8.203125 
Q 42.578125 3.328125 38.25 0.953125 
Q 33.9375 -1.421875 27.875 -1.421875 
Q 17.96875 -1.421875 11.734375 6.484375 
Q 5.515625 14.40625 5.515625 27.296875 
Q 5.515625 40.1875 11.734375 48.09375 
Q 17.96875 56 27.875 56 
Q 33.9375 56 38.25 53.625 
Q 42.578125 51.265625 45.40625 46.390625 
z
M 14.796875 27.296875 
Q 14.796875 17.390625 18.875 11.75 
Q 22.953125 6.109375 30.078125 6.109375 
Q 37.203125 6.109375 41.296875 11.75 
Q 45.40625 17.390625 45.40625 27.296875 
Q 45.40625 37.203125 41.296875 42.84375 
Q 37.203125 48.484375 30.078125 48.484375 
Q 22.953125 48.484375 18.875 42.84375 
Q 14.796875 37.203125 14.796875 27.296875 
z
" id="DejaVuSans-100"/>
      <path d="M 9.421875 54.6875 
L 18.40625 54.6875 
L 18.40625 0 
L 9.421875 0 
z
M 9.421875 75.984375 
L 18.40625 75.984375 
L 18.40625 64.59375 
L 9.421875 64.59375 
z
" id="DejaVuSans-105"/>
      <path d="M 30.609375 48.390625 
Q 23.390625 48.390625 19.1875 42.75 
Q 14.984375 37.109375 14.984375 27.296875 
Q 14.984375 17.484375 19.15625 11.84375 
Q 23.34375 6.203125 30.609375 6.203125 
Q 37.796875 6.203125 41.984375 11.859375 
Q 46.1875 17.53125 46.1875 27.296875 
Q 46.1875 37.015625 41.984375 42.703125 
Q 37.796875 48.390625 30.609375 48.390625 
z
M 30.609375 56 
Q 42.328125 56 49.015625 48.375 
Q 55.71875 40.765625 55.71875 27.296875 
Q 55.71875 13.875 49.015625 6.21875 
Q 42.328125 -1.421875 30.609375 -1.421875 
Q 18.84375 -1.421875 12.171875 6.21875 
Q 5.515625 13.875 5.515625 27.296875 
Q 5.515625 40.765625 12.171875 48.375 
Q 18.84375 56 30.609375 56 
z
" id="DejaVuSans-111"/>
      <path d="M 44.28125 53.078125 
L 44.28125 44.578125 
Q 40.484375 46.53125 36.375 47.5 
Q 32.28125 48.484375 27.875 48.484375 
Q 21.1875 48.484375 17.84375 46.4375 
Q 14.5 44.390625 14.5 40.28125 
Q 14.5 37.15625 16.890625 35.375 
Q 19.28125 33.59375 26.515625 31.984375 
L 29.59375 31.296875 
Q 39.15625 29.25 43.1875 25.515625 
Q 47.21875 21.78125 47.21875 15.09375 
Q 47.21875 7.46875 41.1875 3.015625 
Q 35.15625 -1.421875 24.609375 -1.421875 
Q 20.21875 -1.421875 15.453125 -0.5625 
Q 10.6875 0.296875 5.421875 2 
L 5.421875 11.28125 
Q 10.40625 8.6875 15.234375 7.390625 
Q 20.0625 6.109375 24.8125 6.109375 
Q 31.15625 6.109375 34.5625 8.28125 
Q 37.984375 10.453125 37.984375 14.40625 
Q 37.984375 18.0625 35.515625 20.015625 
Q 33.0625 21.96875 24.703125 23.78125 
L 21.578125 24.515625 
Q 13.234375 26.265625 9.515625 29.90625 
Q 5.8125 33.546875 5.8125 39.890625 
Q 5.8125 47.609375 11.28125 51.796875 
Q 16.75 56 26.8125 56 
Q 31.78125 56 36.171875 55.265625 
Q 40.578125 54.546875 44.28125 53.078125 
z
" id="DejaVuSans-115"/>
      <path d="M 34.28125 27.484375 
Q 23.390625 27.484375 19.1875 25 
Q 14.984375 22.515625 14.984375 16.5 
Q 14.984375 11.71875 18.140625 8.90625 
Q 21.296875 6.109375 26.703125 6.109375 
Q 34.1875 6.109375 38.703125 11.40625 
Q 43.21875 16.703125 43.21875 25.484375 
L 43.21875 27.484375 
z
M 52.203125 31.203125 
L 52.203125 0 
L 43.21875 0 
L 43.21875 8.296875 
Q 40.140625 3.328125 35.546875 0.953125 
Q 30.953125 -1.421875 24.3125 -1.421875 
Q 15.921875 -1.421875 10.953125 3.296875 
Q 6 8.015625 6 15.921875 
Q 6 25.140625 12.171875 29.828125 
Q 18.359375 34.515625 30.609375 34.515625 
L 43.21875 34.515625 
L 43.21875 35.40625 
Q 43.21875 41.609375 39.140625 45 
Q 35.0625 48.390625 27.6875 48.390625 
Q 23 48.390625 18.546875 47.265625 
Q 14.109375 46.140625 10.015625 43.890625 
L 10.015625 52.203125 
Q 14.9375 54.109375 19.578125 55.046875 
Q 24.21875 56 28.609375 56 
Q 40.484375 56 46.34375 49.84375 
Q 52.203125 43.703125 52.203125 31.203125 
z
" id="DejaVuSans-97"/>
      <path d="M 54.890625 33.015625 
L 54.890625 0 
L 45.90625 0 
L 45.90625 32.71875 
Q 45.90625 40.484375 42.875 44.328125 
Q 39.84375 48.1875 33.796875 48.1875 
Q 26.515625 48.1875 22.3125 43.546875 
Q 18.109375 38.921875 18.109375 30.90625 
L 18.109375 0 
L 9.078125 0 
L 9.078125 54.6875 
L 18.109375 54.6875 
L 18.109375 46.1875 
Q 21.34375 51.125 25.703125 53.5625 
Q 30.078125 56 35.796875 56 
Q 45.21875 56 50.046875 50.171875 
Q 54.890625 44.34375 54.890625 33.015625 
z
" id="DejaVuSans-110"/>
      <path d="M 9.421875 75.984375 
L 18.40625 75.984375 
L 18.40625 0 
L 9.421875 0 
z
" id="DejaVuSans-108"/>
     </defs>
     <g transform="translate(18.398438 195.809805)rotate(-90)scale(0.1 -0.1)">
      <use xlink:href="#DejaVuSans-82"/>
      <use x="69.482422" xlink:href="#DejaVuSans-73"/>
      <use x="98.974609" xlink:href="#DejaVuSans-32"/>
      <use x="130.761719" xlink:href="#DejaVuSans-114"/>
      <use x="171.875" xlink:href="#DejaVuSans-32"/>
      <use x="203.662109" xlink:href="#DejaVuSans-109"/>
      <use x="301.074219" xlink:href="#DejaVuSans-101"/>
      <use x="362.597656" xlink:href="#DejaVuSans-100"/>
      <use x="426.074219" xlink:href="#DejaVuSans-105"/>
      <use x="453.857422" xlink:href="#DejaVuSans-111"/>
      <use x="515.039062" xlink:href="#DejaVuSans-32"/>
      <use x="546.826172" xlink:href="#DejaVuSans-115"/>
      <use x="598.925781" xlink:href="#DejaVuSans-101"/>
      <use x="660.449219" xlink:href="#DejaVuSans-109"/>
      <use x="757.861328" xlink:href="#DejaVuSans-97"/>
      <use x="819.140625" xlink:href="#DejaVuSans-110"/>
      <use x="882.519531" xlink:href="#DejaVuSans-97"/>
      <use x="943.798828" xlink:href="#DejaVuSans-108"/>
     </g>
    </g>
   </g>
   <g id="LineCollection_1">
    <path clip-path="url(#p1f9100717e)" d="M 65.682102 191.441459 
L 431.699148 191.441459 
" style="fill:none;stroke:#000000;stroke-width:1.5;"/>
   </g>
   <g id="line2d_14">
    <path clip-path="url(#p1f9100717e)" d="M 137.311729 -1 
L 137.776369 8.43994 
L 142.042302 79.930124 
L 146.308235 138.792298 
L 150.574168 173.840418 
L 154.840101 192.209109 
L 159.106033 186.983962 
L 163.371966 184.885037 
L 167.637899 186.202069 
L 171.903832 167.977646 
L 176.169765 135.367207 
L 180.435698 111.878205 
L 184.701631 114.99592 
L 188.967564 103.65544 
L 193.233497 121.640326 
L 197.49943 95.688134 
L 201.765363 92.379356 
L 206.031296 91.329854 
L 210.297229 107.855531 
L 214.563162 130.058708 
L 218.829094 153.856598 
L 223.095027 166.596148 
L 227.36096 186.368242 
L 231.626893 192.403585 
L 235.892826 195.470617 
L 240.158759 195.589431 
L 244.424692 191.235616 
L 248.690625 192.665539 
L 252.956558 194.828667 
L 257.222491 202.794675 
L 261.488424 207.039202 
L 265.754357 219.125096 
L 270.02029 222.022052 
L 274.286223 225.045835 
L 278.552156 227.995274 
L 282.818088 222.314748 
L 287.084021 221.095186 
L 291.349954 229.921799 
L 295.615887 225.014279 
L 299.88182 228.876338 
L 304.147753 232.738 
L 308.413686 230.783099 
L 312.679619 234.11741 
L 316.945552 217.926495 
L 321.211485 211.296202 
L 325.477418 206.614041 
L 329.743351 196.852355 
L 334.009284 197.9894 
L 338.275217 201.230477 
L 342.541149 212.267204 
L 346.807082 223.102622 
L 351.073015 229.482984 
L 355.338948 241.752229 
L 359.604881 248.583544 
L 363.870814 243.974239 
L 368.136747 237.747297 
L 372.40268 229.899281 
L 376.668613 227.60321 
L 380.934546 219.676806 
L 385.200479 210.066585 
L 389.466412 218.495884 
L 393.732345 222.407155 
L 397.998278 234.957495 
L 402.264211 233.719734 
L 406.530143 237.648375 
L 410.796076 240.313258 
L 415.062009 241.89516 
" style="fill:none;stroke:#1f77b4;stroke-linecap:square;stroke-width:1.5;"/>
    <defs>
     <path d="M 0 1.5 
C 0.397805 1.5 0.77937 1.341951 1.06066 1.06066 
C 1.341951 0.77937 1.5 0.397805 1.5 0 
C 1.5 -0.397805 1.341951 -0.77937 1.06066 -1.06066 
C 0.77937 -1.341951 0.397805 -1.5 0 -1.5 
C -0.397805 -1.5 -0.77937 -1.341951 -1.06066 -1.06066 
C -1.341951 -0.77937 -1.5 -0.397805 -1.5 0 
C -1.5 0.397805 -1.341951 0.77937 -1.06066 1.06066 
C -0.77937 1.341951 -0.397805 1.5 0 1.5 
z
" id="mbe23e09504" style="stroke:#1f77b4;"/>
    </defs>
    <g clip-path="url(#p1f9100717e)">
     <use style="fill:#1f77b4;stroke:#1f77b4;" x="137.311729" xlink:href="#mbe23e09504" y="-1"/>
     <use style="fill:#1f77b4;stroke:#1f77b4;" x="137.776369" xlink:href="#mbe23e09504" y="8.43994"/>
     <use style="fill:#1f77b4;stroke:#1f77b4;" x="142.042302" xlink:href="#mbe23e09504" y="79.930124"/>
     <use style="fill:#1f77b4;stroke:#1f77b4;" x="146.308235" xlink:href="#mbe23e09504" y="138.792298"/>
     <use style="fill:#1f77b4;stroke:#1f77b4;" x="150.574168" xlink:href="#mbe23e09504" y="173.840418"/>
     <use style="fill:#1f77b4;stroke:#1f77b4;" x="154.840101" xlink:href="#mbe23e09504" y="192.209109"/>
     <use style="fill:#1f77b4;stroke:#1f77b4;" x="159.106033" xlink:href="#mbe23e09504" y="186.983962"/>
     <use style="fill:#1f77b4;stroke:#1f77b4;" x="163.371966" xlink:href="#mbe23e09504" y="184.885037"/>
     <use style="fill:#1f77b4;stroke:#1f77b4;" x="167.637899" xlink:href="#mbe23e09504" y="186.202069"/>
     <use style="fill:#1f77b4;stroke:#1f77b4;" x="171.903832" xlink:href="#mbe23e09504" y="167.977646"/>
     <use style="fill:#1f77b4;stroke:#1f77b4;" x="176.169765" xlink:href="#mbe23e09504" y="135.367207"/>
     <use style="fill:#1f77b4;stroke:#1f77b4;" x="180.435698" xlink:href="#mbe23e09504" y="111.878205"/>
     <use style="fill:#1f77b4;stroke:#1f77b4;" x="184.701631" xlink:href="#mbe23e09504" y="114.99592"/>
     <use style="fill:#1f77b4;stroke:#1f77b4;" x="188.967564" xlink:href="#mbe23e09504" y="103.65544"/>
     <use style="fill:#1f77b4;stroke:#1f77b4;" x="193.233497" xlink:href="#mbe23e09504" y="121.640326"/>
     <use style="fill:#1f77b4;stroke:#1f77b4;" x="197.49943" xlink:href="#mbe23e09504" y="95.688134"/>
     <use style="fill:#1f77b4;stroke:#1f77b4;" x="201.765363" xlink:href="#mbe23e09504" y="92.379356"/>
     <use style="fill:#1f77b4;stroke:#1f77b4;" x="206.031296" xlink:href="#mbe23e09504" y="91.329854"/>
     <use style="fill:#1f77b4;stroke:#1f77b4;" x="210.297229" xlink:href="#mbe23e09504" y="107.855531"/>
     <use style="fill:#1f77b4;stroke:#1f77b4;" x="214.563162" xlink:href="#mbe23e09504" y="130.058708"/>
     <use style="fill:#1f77b4;stroke:#1f77b4;" x="218.829094" xlink:href="#mbe23e09504" y="153.856598"/>
     <use style="fill:#1f77b4;stroke:#1f77b4;" x="223.095027" xlink:href="#mbe23e09504" y="166.596148"/>
     <use style="fill:#1f77b4;stroke:#1f77b4;" x="227.36096" xlink:href="#mbe23e09504" y="186.368242"/>
     <use style="fill:#1f77b4;stroke:#1f77b4;" x="231.626893" xlink:href="#mbe23e09504" y="192.403585"/>
     <use style="fill:#1f77b4;stroke:#1f77b4;" x="235.892826" xlink:href="#mbe23e09504" y="195.470617"/>
     <use style="fill:#1f77b4;stroke:#1f77b4;" x="240.158759" xlink:href="#mbe23e09504" y="195.589431"/>
     <use style="fill:#1f77b4;stroke:#1f77b4;" x="244.424692" xlink:href="#mbe23e09504" y="191.235616"/>
     <use style="fill:#1f77b4;stroke:#1f77b4;" x="248.690625" xlink:href="#mbe23e09504" y="192.665539"/>
     <use style="fill:#1f77b4;stroke:#1f77b4;" x="252.956558" xlink:href="#mbe23e09504" y="194.828667"/>
     <use style="fill:#1f77b4;stroke:#1f77b4;" x="257.222491" xlink:href="#mbe23e09504" y="202.794675"/>
     <use style="fill:#1f77b4;stroke:#1f77b4;" x="261.488424" xlink:href="#mbe23e09504" y="207.039202"/>
     <use style="fill:#1f77b4;stroke:#1f77b4;" x="265.754357" xlink:href="#mbe23e09504" y="219.125096"/>
     <use style="fill:#1f77b4;stroke:#1f77b4;" x="270.02029" xlink:href="#mbe23e09504" y="222.022052"/>
     <use style="fill:#1f77b4;stroke:#1f77b4;" x="274.286223" xlink:href="#mbe23e09504" y="225.045835"/>
     <use style="fill:#1f77b4;stroke:#1f77b4;" x="278.552156" xlink:href="#mbe23e09504" y="227.995274"/>
     <use style="fill:#1f77b4;stroke:#1f77b4;" x="282.818088" xlink:href="#mbe23e09504" y="222.314748"/>
     <use style="fill:#1f77b4;stroke:#1f77b4;" x="287.084021" xlink:href="#mbe23e09504" y="221.095186"/>
     <use style="fill:#1f77b4;stroke:#1f77b4;" x="291.349954" xlink:href="#mbe23e09504" y="229.921799"/>
     <use style="fill:#1f77b4;stroke:#1f77b4;" x="295.615887" xlink:href="#mbe23e09504" y="225.014279"/>
     <use style="fill:#1f77b4;stroke:#1f77b4;" x="299.88182" xlink:href="#mbe23e09504" y="228.876338"/>
     <use style="fill:#1f77b4;stroke:#1f77b4;" x="304.147753" xlink:href="#mbe23e09504" y="232.738"/>
     <use style="fill:#1f77b4;stroke:#1f77b4;" x="308.413686" xlink:href="#mbe23e09504" y="230.783099"/>
     <use style="fill:#1f77b4;stroke:#1f77b4;" x="312.679619" xlink:href="#mbe23e09504" y="234.11741"/>
     <use style="fill:#1f77b4;stroke:#1f77b4;" x="316.945552" xlink:href="#mbe23e09504" y="217.926495"/>
     <use style="fill:#1f77b4;stroke:#1f77b4;" x="321.211485" xlink:href="#mbe23e09504" y="211.296202"/>
     <use style="fill:#1f77b4;stroke:#1f77b4;" x="325.477418" xlink:href="#mbe23e09504" y="206.614041"/>
     <use style="fill:#1f77b4;stroke:#1f77b4;" x="329.743351" xlink:href="#mbe23e09504" y="196.852355"/>
     <use style="fill:#1f77b4;stroke:#1f77b4;" x="334.009284" xlink:href="#mbe23e09504" y="197.9894"/>
     <use style="fill:#1f77b4;stroke:#1f77b4;" x="338.275217" xlink:href="#mbe23e09504" y="201.230477"/>
     <use style="fill:#1f77b4;stroke:#1f77b4;" x="342.541149" xlink:href="#mbe23e09504" y="212.267204"/>
     <use style="fill:#1f77b4;stroke:#1f77b4;" x="346.807082" xlink:href="#mbe23e09504" y="223.102622"/>
     <use style="fill:#1f77b4;stroke:#1f77b4;" x="351.073015" xlink:href="#mbe23e09504" y="229.482984"/>
     <use style="fill:#1f77b4;stroke:#1f77b4;" x="355.338948" xlink:href="#mbe23e09504" y="241.752229"/>
     <use style="fill:#1f77b4;stroke:#1f77b4;" x="359.604881" xlink:href="#mbe23e09504" y="248.583544"/>
     <use style="fill:#1f77b4;stroke:#1f77b4;" x="363.870814" xlink:href="#mbe23e09504" y="243.974239"/>
     <use style="fill:#1f77b4;stroke:#1f77b4;" x="368.136747" xlink:href="#mbe23e09504" y="237.747297"/>
     <use style="fill:#1f77b4;stroke:#1f77b4;" x="372.40268" xlink:href="#mbe23e09504" y="229.899281"/>
     <use style="fill:#1f77b4;stroke:#1f77b4;" x="376.668613" xlink:href="#mbe23e09504" y="227.60321"/>
     <use style="fill:#1f77b4;stroke:#1f77b4;" x="380.934546" xlink:href="#mbe23e09504" y="219.676806"/>
     <use style="fill:#1f77b4;stroke:#1f77b4;" x="385.200479" xlink:href="#mbe23e09504" y="210.066585"/>
     <use style="fill:#1f77b4;stroke:#1f77b4;" x="389.466412" xlink:href="#mbe23e09504" y="218.495884"/>
     <use style="fill:#1f77b4;stroke:#1f77b4;" x="393.732345" xlink:href="#mbe23e09504" y="222.407155"/>
     <use style="fill:#1f77b4;stroke:#1f77b4;" x="397.998278" xlink:href="#mbe23e09504" y="234.957495"/>
     <use style="fill:#1f77b4;stroke:#1f77b4;" x="402.264211" xlink:href="#mbe23e09504" y="233.719734"/>
     <use style="fill:#1f77b4;stroke:#1f77b4;" x="406.530143" xlink:href="#mbe23e09504" y="237.648375"/>
     <use style="fill:#1f77b4;stroke:#1f77b4;" x="410.796076" xlink:href="#mbe23e09504" y="240.313258"/>
     <use style="fill:#1f77b4;stroke:#1f77b4;" x="415.062009" xlink:href="#mbe23e09504" y="241.89516"/>
    </g>
   </g>
   <g id="patch_3">
    <path d="M 47.38125 279.86258 
L 47.38125 14.599219 
" style="fill:none;stroke:#000000;stroke-linecap:square;stroke-linejoin:miter;stroke-width:0.8;"/>
   </g>
   <g id="patch_4">
    <path d="M 450 279.86258 
L 450 14.599219 
" style="fill:none;stroke:#000000;stroke-linecap:square;stroke-linejoin:miter;stroke-width:0.8;"/>
   </g>
   <g id="patch_5">
    <path d="M 47.38125 279.86258 
L 450 279.86258 
" style="fill:none;stroke:#000000;stroke-linecap:square;stroke-linejoin:miter;stroke-width:0.8;"/>
   </g>
   <g id="patch_6">
    <path d="M 47.38125 14.599219 
L 450 14.599219 
" style="fill:none;stroke:#000000;stroke-linecap:square;stroke-linejoin:miter;stroke-width:0.8;"/>
   </g>
  </g>
 </g>
 <defs>
  <clipPath id="p1f9100717e">
   <rect height="265.263361" width="402.61875" x="47.38125" y="14.599219"/>
  </clipPath>
 </defs>
</svg>
