<?xml version="1.0" encoding="utf-8" standalone="no"?>
<!DOCTYPE svg PUBLIC "-//W3C//DTD SVG 1.1//EN"
  "http://www.w3.org/Graphics/SVG/1.1/DTD/svg11.dtd">
<!-- Created with matplotlib (https://matplotlib.org/) -->
<svg height="345.6pt" version="1.1" viewBox="0 0 460.8 345.6" width="460.8pt" xmlns="http://www.w3.org/2000/svg" xmlns:xlink="http://www.w3.org/1999/xlink">
 <defs>
  <style type="text/css">
*{stroke-linecap:butt;stroke-linejoin:round;}
  </style>
 </defs>
 <g id="figure_1">
  <g id="patch_1">
   <path d="M 0 345.6 
L 460.8 345.6 
L 460.8 0 
L 0 0 
z
" style="fill:#ffffff;"/>
  </g>
  <g id="axes_1">
   <g id="patch_2">
    <path d="M 47.38125 279.86258 
L 450 279.86258 
L 450 14.599219 
L 47.38125 14.599219 
z
" style="fill:#ffffff;"/>
   </g>
   <g id="matplotlib.axis_1">
    <g id="xtick_1">
     <g id="line2d_1">
      <defs>
       <path d="M 0 0 
L 0 3.5 
" id="m70de676d88" style="stroke:#000000;stroke-width:0.8;"/>
      </defs>
      <g>
       <use style="stroke:#000000;stroke-width:0.8;" x="90.851107" xlink:href="#m70de676d88" y="279.86258"/>
      </g>
     </g>
     <g id="text_1">
      <!-- 2020-03-01 -->
      <defs>
       <path d="M 19.1875 8.296875 
L 53.609375 8.296875 
L 53.609375 0 
L 7.328125 0 
L 7.328125 8.296875 
Q 12.9375 14.109375 22.625 23.890625 
Q 32.328125 33.6875 34.8125 36.53125 
Q 39.546875 41.84375 41.421875 45.53125 
Q 43.3125 49.21875 43.3125 52.78125 
Q 43.3125 58.59375 39.234375 62.25 
Q 35.15625 65.921875 28.609375 65.921875 
Q 23.96875 65.921875 18.8125 64.3125 
Q 13.671875 62.703125 7.8125 59.421875 
L 7.8125 69.390625 
Q 13.765625 71.78125 18.9375 73 
Q 24.125 74.21875 28.421875 74.21875 
Q 39.75 74.21875 46.484375 68.546875 
Q 53.21875 62.890625 53.21875 53.421875 
Q 53.21875 48.921875 51.53125 44.890625 
Q 49.859375 40.875 45.40625 35.40625 
Q 44.1875 33.984375 37.640625 27.21875 
Q 31.109375 20.453125 19.1875 8.296875 
z
" id="DejaVuSans-50"/>
       <path d="M 31.78125 66.40625 
Q 24.171875 66.40625 20.328125 58.90625 
Q 16.5 51.421875 16.5 36.375 
Q 16.5 21.390625 20.328125 13.890625 
Q 24.171875 6.390625 31.78125 6.390625 
Q 39.453125 6.390625 43.28125 13.890625 
Q 47.125 21.390625 47.125 36.375 
Q 47.125 51.421875 43.28125 58.90625 
Q 39.453125 66.40625 31.78125 66.40625 
z
M 31.78125 74.21875 
Q 44.046875 74.21875 50.515625 64.515625 
Q 56.984375 54.828125 56.984375 36.375 
Q 56.984375 17.96875 50.515625 8.265625 
Q 44.046875 -1.421875 31.78125 -1.421875 
Q 19.53125 -1.421875 13.0625 8.265625 
Q 6.59375 17.96875 6.59375 36.375 
Q 6.59375 54.828125 13.0625 64.515625 
Q 19.53125 74.21875 31.78125 74.21875 
z
" id="DejaVuSans-48"/>
       <path d="M 4.890625 31.390625 
L 31.203125 31.390625 
L 31.203125 23.390625 
L 4.890625 23.390625 
z
" id="DejaVuSans-45"/>
       <path d="M 40.578125 39.3125 
Q 47.65625 37.796875 51.625 33 
Q 55.609375 28.21875 55.609375 21.1875 
Q 55.609375 10.40625 48.1875 4.484375 
Q 40.765625 -1.421875 27.09375 -1.421875 
Q 22.515625 -1.421875 17.65625 -0.515625 
Q 12.796875 0.390625 7.625 2.203125 
L 7.625 11.71875 
Q 11.71875 9.328125 16.59375 8.109375 
Q 21.484375 6.890625 26.8125 6.890625 
Q 36.078125 6.890625 40.9375 10.546875 
Q 45.796875 14.203125 45.796875 21.1875 
Q 45.796875 27.640625 41.28125 31.265625 
Q 36.765625 34.90625 28.71875 34.90625 
L 20.21875 34.90625 
L 20.21875 43.015625 
L 29.109375 43.015625 
Q 36.375 43.015625 40.234375 45.921875 
Q 44.09375 48.828125 44.09375 54.296875 
Q 44.09375 59.90625 40.109375 62.90625 
Q 36.140625 65.921875 28.71875 65.921875 
Q 24.65625 65.921875 20.015625 65.03125 
Q 15.375 64.15625 9.8125 62.3125 
L 9.8125 71.09375 
Q 15.4375 72.65625 20.34375 73.4375 
Q 25.25 74.21875 29.59375 74.21875 
Q 40.828125 74.21875 47.359375 69.109375 
Q 53.90625 64.015625 53.90625 55.328125 
Q 53.90625 49.265625 50.4375 45.09375 
Q 46.96875 40.921875 40.578125 39.3125 
z
" id="DejaVuSans-51"/>
       <path d="M 12.40625 8.296875 
L 28.515625 8.296875 
L 28.515625 63.921875 
L 10.984375 60.40625 
L 10.984375 69.390625 
L 28.421875 72.90625 
L 38.28125 72.90625 
L 38.28125 8.296875 
L 54.390625 8.296875 
L 54.390625 0 
L 12.40625 0 
z
" id="DejaVuSans-49"/>
      </defs>
      <g transform="translate(72.255303 333.329439)rotate(-45)scale(0.1 -0.1)">
       <use xlink:href="#DejaVuSans-50"/>
       <use x="63.623047" xlink:href="#DejaVuSans-48"/>
       <use x="127.246094" xlink:href="#DejaVuSans-50"/>
       <use x="190.869141" xlink:href="#DejaVuSans-48"/>
       <use x="254.492188" xlink:href="#DejaVuSans-45"/>
       <use x="290.576172" xlink:href="#DejaVuSans-48"/>
       <use x="354.199219" xlink:href="#DejaVuSans-51"/>
       <use x="417.822266" xlink:href="#DejaVuSans-45"/>
       <use x="453.90625" xlink:href="#DejaVuSans-48"/>
       <use x="517.529297" xlink:href="#DejaVuSans-49"/>
      </g>
     </g>
    </g>
    <g id="xtick_2">
     <g id="line2d_2">
      <g>
       <use style="stroke:#000000;stroke-width:0.8;" x="150.574168" xlink:href="#m70de676d88" y="279.86258"/>
      </g>
     </g>
     <g id="text_2">
      <!-- 2020-03-15 -->
      <defs>
       <path d="M 10.796875 72.90625 
L 49.515625 72.90625 
L 49.515625 64.59375 
L 19.828125 64.59375 
L 19.828125 46.734375 
Q 21.96875 47.46875 24.109375 47.828125 
Q 26.265625 48.1875 28.421875 48.1875 
Q 40.625 48.1875 47.75 41.5 
Q 54.890625 34.8125 54.890625 23.390625 
Q 54.890625 11.625 47.5625 5.09375 
Q 40.234375 -1.421875 26.90625 -1.421875 
Q 22.3125 -1.421875 17.546875 -0.640625 
Q 12.796875 0.140625 7.71875 1.703125 
L 7.71875 11.625 
Q 12.109375 9.234375 16.796875 8.0625 
Q 21.484375 6.890625 26.703125 6.890625 
Q 35.15625 6.890625 40.078125 11.328125 
Q 45.015625 15.765625 45.015625 23.390625 
Q 45.015625 31 40.078125 35.4375 
Q 35.15625 39.890625 26.703125 39.890625 
Q 22.75 39.890625 18.8125 39.015625 
Q 14.890625 38.140625 10.796875 36.28125 
z
" id="DejaVuSans-53"/>
      </defs>
      <g transform="translate(131.978364 333.329439)rotate(-45)scale(0.1 -0.1)">
       <use xlink:href="#DejaVuSans-50"/>
       <use x="63.623047" xlink:href="#DejaVuSans-48"/>
       <use x="127.246094" xlink:href="#DejaVuSans-50"/>
       <use x="190.869141" xlink:href="#DejaVuSans-48"/>
       <use x="254.492188" xlink:href="#DejaVuSans-45"/>
       <use x="290.576172" xlink:href="#DejaVuSans-48"/>
       <use x="354.199219" xlink:href="#DejaVuSans-51"/>
       <use x="417.822266" xlink:href="#DejaVuSans-45"/>
       <use x="453.90625" xlink:href="#DejaVuSans-49"/>
       <use x="517.529297" xlink:href="#DejaVuSans-53"/>
      </g>
     </g>
    </g>
    <g id="xtick_3">
     <g id="line2d_3">
      <g>
       <use style="stroke:#000000;stroke-width:0.8;" x="223.095027" xlink:href="#m70de676d88" y="279.86258"/>
      </g>
     </g>
     <g id="text_3">
      <!-- 2020-04-01 -->
      <defs>
       <path d="M 37.796875 64.3125 
L 12.890625 25.390625 
L 37.796875 25.390625 
z
M 35.203125 72.90625 
L 47.609375 72.90625 
L 47.609375 25.390625 
L 58.015625 25.390625 
L 58.015625 17.1875 
L 47.609375 17.1875 
L 47.609375 0 
L 37.796875 0 
L 37.796875 17.1875 
L 4.890625 17.1875 
L 4.890625 26.703125 
z
" id="DejaVuSans-52"/>
      </defs>
      <g transform="translate(204.499224 333.329439)rotate(-45)scale(0.1 -0.1)">
       <use xlink:href="#DejaVuSans-50"/>
       <use x="63.623047" xlink:href="#DejaVuSans-48"/>
       <use x="127.246094" xlink:href="#DejaVuSans-50"/>
       <use x="190.869141" xlink:href="#DejaVuSans-48"/>
       <use x="254.492188" xlink:href="#DejaVuSans-45"/>
       <use x="290.576172" xlink:href="#DejaVuSans-48"/>
       <use x="354.199219" xlink:href="#DejaVuSans-52"/>
       <use x="417.822266" xlink:href="#DejaVuSans-45"/>
       <use x="453.90625" xlink:href="#DejaVuSans-48"/>
       <use x="517.529297" xlink:href="#DejaVuSans-49"/>
      </g>
     </g>
    </g>
    <g id="xtick_4">
     <g id="line2d_4">
      <g>
       <use style="stroke:#000000;stroke-width:0.8;" x="282.818088" xlink:href="#m70de676d88" y="279.86258"/>
      </g>
     </g>
     <g id="text_4">
      <!-- 2020-04-15 -->
      <g transform="translate(264.222285 333.329439)rotate(-45)scale(0.1 -0.1)">
       <use xlink:href="#DejaVuSans-50"/>
       <use x="63.623047" xlink:href="#DejaVuSans-48"/>
       <use x="127.246094" xlink:href="#DejaVuSans-50"/>
       <use x="190.869141" xlink:href="#DejaVuSans-48"/>
       <use x="254.492188" xlink:href="#DejaVuSans-45"/>
       <use x="290.576172" xlink:href="#DejaVuSans-48"/>
       <use x="354.199219" xlink:href="#DejaVuSans-52"/>
       <use x="417.822266" xlink:href="#DejaVuSans-45"/>
       <use x="453.90625" xlink:href="#DejaVuSans-49"/>
       <use x="517.529297" xlink:href="#DejaVuSans-53"/>
      </g>
     </g>
    </g>
    <g id="xtick_5">
     <g id="line2d_5">
      <g>
       <use style="stroke:#000000;stroke-width:0.8;" x="351.073015" xlink:href="#m70de676d88" y="279.86258"/>
      </g>
     </g>
     <g id="text_5">
      <!-- 2020-05-01 -->
      <g transform="translate(332.477212 333.329439)rotate(-45)scale(0.1 -0.1)">
       <use xlink:href="#DejaVuSans-50"/>
       <use x="63.623047" xlink:href="#DejaVuSans-48"/>
       <use x="127.246094" xlink:href="#DejaVuSans-50"/>
       <use x="190.869141" xlink:href="#DejaVuSans-48"/>
       <use x="254.492188" xlink:href="#DejaVuSans-45"/>
       <use x="290.576172" xlink:href="#DejaVuSans-48"/>
       <use x="354.199219" xlink:href="#DejaVuSans-53"/>
       <use x="417.822266" xlink:href="#DejaVuSans-45"/>
       <use x="453.90625" xlink:href="#DejaVuSans-48"/>
       <use x="517.529297" xlink:href="#DejaVuSans-49"/>
      </g>
     </g>
    </g>
    <g id="xtick_6">
     <g id="line2d_6">
      <g>
       <use style="stroke:#000000;stroke-width:0.8;" x="410.796076" xlink:href="#m70de676d88" y="279.86258"/>
      </g>
     </g>
     <g id="text_6">
      <!-- 2020-05-15 -->
      <g transform="translate(392.200273 333.329439)rotate(-45)scale(0.1 -0.1)">
       <use xlink:href="#DejaVuSans-50"/>
       <use x="63.623047" xlink:href="#DejaVuSans-48"/>
       <use x="127.246094" xlink:href="#DejaVuSans-50"/>
       <use x="190.869141" xlink:href="#DejaVuSans-48"/>
       <use x="254.492188" xlink:href="#DejaVuSans-45"/>
       <use x="290.576172" xlink:href="#DejaVuSans-48"/>
       <use x="354.199219" xlink:href="#DejaVuSans-53"/>
       <use x="417.822266" xlink:href="#DejaVuSans-45"/>
       <use x="453.90625" xlink:href="#DejaVuSans-49"/>
       <use x="517.529297" xlink:href="#DejaVuSans-53"/>
      </g>
     </g>
    </g>
   </g>
   <g id="matplotlib.axis_2">
    <g id="ytick_1">
     <g id="line2d_7">
      <defs>
       <path d="M 0 0 
L -3.5 0 
" id="m858acb897c" style="stroke:#000000;stroke-width:0.8;"/>
      </defs>
      <g>
       <use style="stroke:#000000;stroke-width:0.8;" x="47.38125" xlink:href="#m858acb897c" y="279.86258"/>
      </g>
     </g>
     <g id="text_7">
      <!-- 0.0 -->
      <defs>
       <path d="M 10.6875 12.40625 
L 21 12.40625 
L 21 0 
L 10.6875 0 
z
" id="DejaVuSans-46"/>
      </defs>
      <g transform="translate(24.478125 283.661798)scale(0.1 -0.1)">
       <use xlink:href="#DejaVuSans-48"/>
       <use x="63.623047" xlink:href="#DejaVuSans-46"/>
       <use x="95.410156" xlink:href="#DejaVuSans-48"/>
      </g>
     </g>
    </g>
    <g id="ytick_2">
     <g id="line2d_8">
      <g>
       <use style="stroke:#000000;stroke-width:0.8;" x="47.38125" xlink:href="#m858acb897c" y="235.65202"/>
      </g>
     </g>
     <g id="text_8">
      <!-- 0.5 -->
      <g transform="translate(24.478125 239.451238)scale(0.1 -0.1)">
       <use xlink:href="#DejaVuSans-48"/>
       <use x="63.623047" xlink:href="#DejaVuSans-46"/>
       <use x="95.410156" xlink:href="#DejaVuSans-53"/>
      </g>
     </g>
    </g>
    <g id="ytick_3">
     <g id="line2d_9">
      <g>
       <use style="stroke:#000000;stroke-width:0.8;" x="47.38125" xlink:href="#m858acb897c" y="191.441459"/>
      </g>
     </g>
     <g id="text_9">
      <!-- 1.0 -->
      <g transform="translate(24.478125 195.240678)scale(0.1 -0.1)">
       <use xlink:href="#DejaVuSans-49"/>
       <use x="63.623047" xlink:href="#DejaVuSans-46"/>
       <use x="95.410156" xlink:href="#DejaVuSans-48"/>
      </g>
     </g>
    </g>
    <g id="ytick_4">
     <g id="line2d_10">
      <g>
       <use style="stroke:#000000;stroke-width:0.8;" x="47.38125" xlink:href="#m858acb897c" y="147.230899"/>
      </g>
     </g>
     <g id="text_10">
      <!-- 1.5 -->
      <g transform="translate(24.478125 151.030118)scale(0.1 -0.1)">
       <use xlink:href="#DejaVuSans-49"/>
       <use x="63.623047" xlink:href="#DejaVuSans-46"/>
       <use x="95.410156" xlink:href="#DejaVuSans-53"/>
      </g>
     </g>
    </g>
    <g id="ytick_5">
     <g id="line2d_11">
      <g>
       <use style="stroke:#000000;stroke-width:0.8;" x="47.38125" xlink:href="#m858acb897c" y="103.020339"/>
      </g>
     </g>
     <g id="text_11">
      <!-- 2.0 -->
      <g transform="translate(24.478125 106.819558)scale(0.1 -0.1)">
       <use xlink:href="#DejaVuSans-50"/>
       <use x="63.623047" xlink:href="#DejaVuSans-46"/>
       <use x="95.410156" xlink:href="#DejaVuSans-48"/>
      </g>
     </g>
    </g>
    <g id="ytick_6">
     <g id="line2d_12">
      <g>
       <use style="stroke:#000000;stroke-width:0.8;" x="47.38125" xlink:href="#m858acb897c" y="58.809779"/>
      </g>
     </g>
     <g id="text_12">
      <!-- 2.5 -->
      <g transform="translate(24.478125 62.608998)scale(0.1 -0.1)">
       <use xlink:href="#DejaVuSans-50"/>
       <use x="63.623047" xlink:href="#DejaVuSans-46"/>
       <use x="95.410156" xlink:href="#DejaVuSans-53"/>
      </g>
     </g>
    </g>
    <g id="ytick_7">
     <g id="line2d_13">
      <g>
       <use style="stroke:#000000;stroke-width:0.8;" x="47.38125" xlink:href="#m858acb897c" y="14.599219"/>
      </g>
     </g>
     <g id="text_13">
      <!-- 3.0 -->
      <g transform="translate(24.478125 18.398438)scale(0.1 -0.1)">
       <use xlink:href="#DejaVuSans-51"/>
       <use x="63.623047" xlink:href="#DejaVuSans-46"/>
       <use x="95.410156" xlink:href="#DejaVuSans-48"/>
      </g>
     </g>
    </g>
    <g id="text_14">
     <!-- VC r medio semanal -->
     <defs>
      <path d="M 28.609375 0 
L 0.78125 72.90625 
L 11.078125 72.90625 
L 34.1875 11.53125 
L 57.328125 72.90625 
L 67.578125 72.90625 
L 39.796875 0 
z
" id="DejaVuSans-86"/>
      <path d="M 64.40625 67.28125 
L 64.40625 56.890625 
Q 59.421875 61.53125 53.78125 63.8125 
Q 48.140625 66.109375 41.796875 66.109375 
Q 29.296875 66.109375 22.65625 58.46875 
Q 16.015625 50.828125 16.015625 36.375 
Q 16.015625 21.96875 22.65625 14.328125 
Q 29.296875 6.6875 41.796875 6.6875 
Q 48.140625 6.6875 53.78125 8.984375 
Q 59.421875 11.28125 64.40625 15.921875 
L 64.40625 5.609375 
Q 59.234375 2.09375 53.4375 0.328125 
Q 47.65625 -1.421875 41.21875 -1.421875 
Q 24.65625 -1.421875 15.125 8.703125 
Q 5.609375 18.84375 5.609375 36.375 
Q 5.609375 53.953125 15.125 64.078125 
Q 24.65625 74.21875 41.21875 74.21875 
Q 47.75 74.21875 53.53125 72.484375 
Q 59.328125 70.75 64.40625 67.28125 
z
" id="DejaVuSans-67"/>
      <path id="DejaVuSans-32"/>
      <path d="M 41.109375 46.296875 
Q 39.59375 47.171875 37.8125 47.578125 
Q 36.03125 48 33.890625 48 
Q 26.265625 48 22.1875 43.046875 
Q 18.109375 38.09375 18.109375 28.8125 
L 18.109375 0 
L 9.078125 0 
L 9.078125 54.6875 
L 18.109375 54.6875 
L 18.109375 46.1875 
Q 20.953125 51.171875 25.484375 53.578125 
Q 30.03125 56 36.53125 56 
Q 37.453125 56 38.578125 55.875 
Q 39.703125 55.765625 41.0625 55.515625 
z
" id="DejaVuSans-114"/>
      <path d="M 52 44.1875 
Q 55.375 50.25 60.0625 53.125 
Q 64.75 56 71.09375 56 
Q 79.640625 56 84.28125 50.015625 
Q 88.921875 44.046875 88.921875 33.015625 
L 88.921875 0 
L 79.890625 0 
L 79.890625 32.71875 
Q 79.890625 40.578125 77.09375 44.375 
Q 74.3125 48.1875 68.609375 48.1875 
Q 61.625 48.1875 57.5625 43.546875 
Q 53.515625 38.921875 53.515625 30.90625 
L 53.515625 0 
L 44.484375 0 
L 44.484375 32.71875 
Q 44.484375 40.625 41.703125 44.40625 
Q 38.921875 48.1875 33.109375 48.1875 
Q 26.21875 48.1875 22.15625 43.53125 
Q 18.109375 38.875 18.109375 30.90625 
L 18.109375 0 
L 9.078125 0 
L 9.078125 54.6875 
L 18.109375 54.6875 
L 18.109375 46.1875 
Q 21.1875 51.21875 25.484375 53.609375 
Q 29.78125 56 35.6875 56 
Q 41.65625 56 45.828125 52.96875 
Q 50 49.953125 52 44.1875 
z
" id="DejaVuSans-109"/>
      <path d="M 56.203125 29.59375 
L 56.203125 25.203125 
L 14.890625 25.203125 
Q 15.484375 15.921875 20.484375 11.0625 
Q 25.484375 6.203125 34.421875 6.203125 
Q 39.59375 6.203125 44.453125 7.46875 
Q 49.3125 8.734375 54.109375 11.28125 
L 54.109375 2.78125 
Q 49.265625 0.734375 44.1875 -0.34375 
Q 39.109375 -1.421875 33.890625 -1.421875 
Q 20.796875 -1.421875 13.15625 6.1875 
Q 5.515625 13.8125 5.515625 26.8125 
Q 5.515625 40.234375 12.765625 48.109375 
Q 20.015625 56 32.328125 56 
Q 43.359375 56 49.78125 48.890625 
Q 56.203125 41.796875 56.203125 29.59375 
z
M 47.21875 32.234375 
Q 47.125 39.59375 43.09375 43.984375 
Q 39.0625 48.390625 32.421875 48.390625 
Q 24.90625 48.390625 20.390625 44.140625 
Q 15.875 39.890625 15.1875 32.171875 
z
" id="DejaVuSans-101"/>
      <path d="M 45.40625 46.390625 
L 45.40625 75.984375 
L 54.390625 75.984375 
L 54.390625 0 
L 45.40625 0 
L 45.40625 8.203125 
Q 42.578125 3.328125 38.25 0.953125 
Q 33.9375 -1.421875 27.875 -1.421875 
Q 17.96875 -1.421875 11.734375 6.484375 
Q 5.515625 14.40625 5.515625 27.296875 
Q 5.515625 40.1875 11.734375 48.09375 
Q 17.96875 56 27.875 56 
Q 33.9375 56 38.25 53.625 
Q 42.578125 51.265625 45.40625 46.390625 
z
M 14.796875 27.296875 
Q 14.796875 17.390625 18.875 11.75 
Q 22.953125 6.109375 30.078125 6.109375 
Q 37.203125 6.109375 41.296875 11.75 
Q 45.40625 17.390625 45.40625 27.296875 
Q 45.40625 37.203125 41.296875 42.84375 
Q 37.203125 48.484375 30.078125 48.484375 
Q 22.953125 48.484375 18.875 42.84375 
Q 14.796875 37.203125 14.796875 27.296875 
z
" id="DejaVuSans-100"/>
      <path d="M 9.421875 54.6875 
L 18.40625 54.6875 
L 18.40625 0 
L 9.421875 0 
z
M 9.421875 75.984375 
L 18.40625 75.984375 
L 18.40625 64.59375 
L 9.421875 64.59375 
z
" id="DejaVuSans-105"/>
      <path d="M 30.609375 48.390625 
Q 23.390625 48.390625 19.1875 42.75 
Q 14.984375 37.109375 14.984375 27.296875 
Q 14.984375 17.484375 19.15625 11.84375 
Q 23.34375 6.203125 30.609375 6.203125 
Q 37.796875 6.203125 41.984375 11.859375 
Q 46.1875 17.53125 46.1875 27.296875 
Q 46.1875 37.015625 41.984375 42.703125 
Q 37.796875 48.390625 30.609375 48.390625 
z
M 30.609375 56 
Q 42.328125 56 49.015625 48.375 
Q 55.71875 40.765625 55.71875 27.296875 
Q 55.71875 13.875 49.015625 6.21875 
Q 42.328125 -1.421875 30.609375 -1.421875 
Q 18.84375 -1.421875 12.171875 6.21875 
Q 5.515625 13.875 5.515625 27.296875 
Q 5.515625 40.765625 12.171875 48.375 
Q 18.84375 56 30.609375 56 
z
" id="DejaVuSans-111"/>
      <path d="M 44.28125 53.078125 
L 44.28125 44.578125 
Q 40.484375 46.53125 36.375 47.5 
Q 32.28125 48.484375 27.875 48.484375 
Q 21.1875 48.484375 17.84375 46.4375 
Q 14.5 44.390625 14.5 40.28125 
Q 14.5 37.15625 16.890625 35.375 
Q 19.28125 33.59375 26.515625 31.984375 
L 29.59375 31.296875 
Q 39.15625 29.25 43.1875 25.515625 
Q 47.21875 21.78125 47.21875 15.09375 
Q 47.21875 7.46875 41.1875 3.015625 
Q 35.15625 -1.421875 24.609375 -1.421875 
Q 20.21875 -1.421875 15.453125 -0.5625 
Q 10.6875 0.296875 5.421875 2 
L 5.421875 11.28125 
Q 10.40625 8.6875 15.234375 7.390625 
Q 20.0625 6.109375 24.8125 6.109375 
Q 31.15625 6.109375 34.5625 8.28125 
Q 37.984375 10.453125 37.984375 14.40625 
Q 37.984375 18.0625 35.515625 20.015625 
Q 33.0625 21.96875 24.703125 23.78125 
L 21.578125 24.515625 
Q 13.234375 26.265625 9.515625 29.90625 
Q 5.8125 33.546875 5.8125 39.890625 
Q 5.8125 47.609375 11.28125 51.796875 
Q 16.75 56 26.8125 56 
Q 31.78125 56 36.171875 55.265625 
Q 40.578125 54.546875 44.28125 53.078125 
z
" id="DejaVuSans-115"/>
      <path d="M 34.28125 27.484375 
Q 23.390625 27.484375 19.1875 25 
Q 14.984375 22.515625 14.984375 16.5 
Q 14.984375 11.71875 18.140625 8.90625 
Q 21.296875 6.109375 26.703125 6.109375 
Q 34.1875 6.109375 38.703125 11.40625 
Q 43.21875 16.703125 43.21875 25.484375 
L 43.21875 27.484375 
z
M 52.203125 31.203125 
L 52.203125 0 
L 43.21875 0 
L 43.21875 8.296875 
Q 40.140625 3.328125 35.546875 0.953125 
Q 30.953125 -1.421875 24.3125 -1.421875 
Q 15.921875 -1.421875 10.953125 3.296875 
Q 6 8.015625 6 15.921875 
Q 6 25.140625 12.171875 29.828125 
Q 18.359375 34.515625 30.609375 34.515625 
L 43.21875 34.515625 
L 43.21875 35.40625 
Q 43.21875 41.609375 39.140625 45 
Q 35.0625 48.390625 27.6875 48.390625 
Q 23 48.390625 18.546875 47.265625 
Q 14.109375 46.140625 10.015625 43.890625 
L 10.015625 52.203125 
Q 14.9375 54.109375 19.578125 55.046875 
Q 24.21875 56 28.609375 56 
Q 40.484375 56 46.34375 49.84375 
Q 52.203125 43.703125 52.203125 31.203125 
z
" id="DejaVuSans-97"/>
      <path d="M 54.890625 33.015625 
L 54.890625 0 
L 45.90625 0 
L 45.90625 32.71875 
Q 45.90625 40.484375 42.875 44.328125 
Q 39.84375 48.1875 33.796875 48.1875 
Q 26.515625 48.1875 22.3125 43.546875 
Q 18.109375 38.921875 18.109375 30.90625 
L 18.109375 0 
L 9.078125 0 
L 9.078125 54.6875 
L 18.109375 54.6875 
L 18.109375 46.1875 
Q 21.34375 51.125 25.703125 53.5625 
Q 30.078125 56 35.796875 56 
Q 45.21875 56 50.046875 50.171875 
Q 54.890625 44.34375 54.890625 33.015625 
z
" id="DejaVuSans-110"/>
      <path d="M 9.421875 75.984375 
L 18.40625 75.984375 
L 18.40625 0 
L 9.421875 0 
z
" id="DejaVuSans-108"/>
     </defs>
     <g transform="translate(18.398438 197.772305)rotate(-90)scale(0.1 -0.1)">
      <use xlink:href="#DejaVuSans-86"/>
      <use x="68.408203" xlink:href="#DejaVuSans-67"/>
      <use x="138.232422" xlink:href="#DejaVuSans-32"/>
      <use x="170.019531" xlink:href="#DejaVuSans-114"/>
      <use x="211.132812" xlink:href="#DejaVuSans-32"/>
      <use x="242.919922" xlink:href="#DejaVuSans-109"/>
      <use x="340.332031" xlink:href="#DejaVuSans-101"/>
      <use x="401.855469" xlink:href="#DejaVuSans-100"/>
      <use x="465.332031" xlink:href="#DejaVuSans-105"/>
      <use x="493.115234" xlink:href="#DejaVuSans-111"/>
      <use x="554.296875" xlink:href="#DejaVuSans-32"/>
      <use x="586.083984" xlink:href="#DejaVuSans-115"/>
      <use x="638.183594" xlink:href="#DejaVuSans-101"/>
      <use x="699.707031" xlink:href="#DejaVuSans-109"/>
      <use x="797.119141" xlink:href="#DejaVuSans-97"/>
      <use x="858.398438" xlink:href="#DejaVuSans-110"/>
      <use x="921.777344" xlink:href="#DejaVuSans-97"/>
      <use x="983.056641" xlink:href="#DejaVuSans-108"/>
     </g>
    </g>
   </g>
   <g id="LineCollection_1">
    <path clip-path="url(#p01eccc7940)" d="M 65.682102 191.441459 
L 431.699148 191.441459 
" style="fill:none;stroke:#000000;stroke-width:1.5;"/>
   </g>
   <g id="line2d_14">
    <path clip-path="url(#p01eccc7940)" d="M 97.678635 -1 
L 99.382972 49.743801 
L 103.648905 132.073545 
L 107.914838 128.81637 
L 112.180771 155.38235 
L 116.446704 153.289657 
L 120.712637 162.062893 
L 124.97857 110.582574 
L 129.244503 74.217094 
L 133.510436 36.523626 
L 137.776369 24.36243 
L 139.235453 -1 
M 170.771933 -1 
L 171.903832 6.670196 
L 176.169765 76.465562 
L 180.435698 83.563413 
L 184.701631 109.351131 
L 188.967564 115.377779 
L 193.233497 105.438074 
L 197.49943 113.808697 
L 201.765363 118.601706 
L 206.031296 111.852936 
L 210.297229 133.262709 
L 214.563162 145.828952 
L 218.829094 160.94747 
L 223.095027 179.992943 
L 227.36096 189.422243 
L 231.626893 200.511674 
L 235.892826 214.887803 
L 240.158759 219.069109 
L 244.424692 225.477472 
L 248.690625 228.922805 
L 252.956558 226.980278 
L 257.222491 218.985048 
L 261.488424 212.711586 
L 265.754357 205.478376 
L 270.02029 194.932395 
L 274.286223 188.615394 
L 278.552156 187.330507 
L 282.818088 192.97222 
L 287.084021 212.662412 
L 291.349954 221.544603 
L 295.615887 231.896406 
L 299.88182 239.467358 
L 304.147753 241.885493 
L 308.413686 244.839566 
L 312.679619 250.015561 
L 316.945552 237.898854 
L 321.211485 226.493539 
L 325.477418 212.55559 
L 329.743351 202.081541 
L 334.009284 193.408248 
L 338.275217 200.352667 
L 342.541149 193.799308 
L 346.807082 204.880291 
L 351.073015 214.836766 
L 355.338948 225.461871 
L 359.604881 228.167984 
L 363.870814 218.659343 
L 368.136747 212.318644 
L 372.40268 212.380275 
L 376.668613 198.93061 
L 380.934546 201.33054 
L 385.200479 194.099509 
L 389.466412 188.364291 
L 393.732345 202.211041 
L 397.998278 205.509073 
L 402.264211 215.786528 
L 406.530143 216.734663 
L 410.796076 217.113578 
L 415.062009 214.955601 
" style="fill:none;stroke:#1f77b4;stroke-linecap:square;stroke-width:1.5;"/>
    <defs>
     <path d="M 0 1.5 
C 0.397805 1.5 0.77937 1.341951 1.06066 1.06066 
C 1.341951 0.77937 1.5 0.397805 1.5 0 
C 1.5 -0.397805 1.341951 -0.77937 1.06066 -1.06066 
C 0.77937 -1.341951 0.397805 -1.5 0 -1.5 
C -0.397805 -1.5 -0.77937 -1.341951 -1.06066 -1.06066 
C -1.341951 -0.77937 -1.5 -0.397805 -1.5 0 
C -1.5 0.397805 -1.341951 0.77937 -1.06066 1.06066 
C -0.77937 1.341951 -0.397805 1.5 0 1.5 
z
" id="m5f63645059" style="stroke:#1f77b4;"/>
    </defs>
    <g clip-path="url(#p01eccc7940)">
     <use style="fill:#1f77b4;stroke:#1f77b4;" x="97.678635" xlink:href="#m5f63645059" y="-1"/>
     <use style="fill:#1f77b4;stroke:#1f77b4;" x="99.382972" xlink:href="#m5f63645059" y="49.743801"/>
     <use style="fill:#1f77b4;stroke:#1f77b4;" x="103.648905" xlink:href="#m5f63645059" y="132.073545"/>
     <use style="fill:#1f77b4;stroke:#1f77b4;" x="107.914838" xlink:href="#m5f63645059" y="128.81637"/>
     <use style="fill:#1f77b4;stroke:#1f77b4;" x="112.180771" xlink:href="#m5f63645059" y="155.38235"/>
     <use style="fill:#1f77b4;stroke:#1f77b4;" x="116.446704" xlink:href="#m5f63645059" y="153.289657"/>
     <use style="fill:#1f77b4;stroke:#1f77b4;" x="120.712637" xlink:href="#m5f63645059" y="162.062893"/>
     <use style="fill:#1f77b4;stroke:#1f77b4;" x="124.97857" xlink:href="#m5f63645059" y="110.582574"/>
     <use style="fill:#1f77b4;stroke:#1f77b4;" x="129.244503" xlink:href="#m5f63645059" y="74.217094"/>
     <use style="fill:#1f77b4;stroke:#1f77b4;" x="133.510436" xlink:href="#m5f63645059" y="36.523626"/>
     <use style="fill:#1f77b4;stroke:#1f77b4;" x="137.776369" xlink:href="#m5f63645059" y="24.36243"/>
     <use style="fill:#1f77b4;stroke:#1f77b4;" x="139.235453" xlink:href="#m5f63645059" y="-1"/>
     <use style="fill:#1f77b4;stroke:#1f77b4;" x="170.771933" xlink:href="#m5f63645059" y="-1"/>
     <use style="fill:#1f77b4;stroke:#1f77b4;" x="171.903832" xlink:href="#m5f63645059" y="6.670196"/>
     <use style="fill:#1f77b4;stroke:#1f77b4;" x="176.169765" xlink:href="#m5f63645059" y="76.465562"/>
     <use style="fill:#1f77b4;stroke:#1f77b4;" x="180.435698" xlink:href="#m5f63645059" y="83.563413"/>
     <use style="fill:#1f77b4;stroke:#1f77b4;" x="184.701631" xlink:href="#m5f63645059" y="109.351131"/>
     <use style="fill:#1f77b4;stroke:#1f77b4;" x="188.967564" xlink:href="#m5f63645059" y="115.377779"/>
     <use style="fill:#1f77b4;stroke:#1f77b4;" x="193.233497" xlink:href="#m5f63645059" y="105.438074"/>
     <use style="fill:#1f77b4;stroke:#1f77b4;" x="197.49943" xlink:href="#m5f63645059" y="113.808697"/>
     <use style="fill:#1f77b4;stroke:#1f77b4;" x="201.765363" xlink:href="#m5f63645059" y="118.601706"/>
     <use style="fill:#1f77b4;stroke:#1f77b4;" x="206.031296" xlink:href="#m5f63645059" y="111.852936"/>
     <use style="fill:#1f77b4;stroke:#1f77b4;" x="210.297229" xlink:href="#m5f63645059" y="133.262709"/>
     <use style="fill:#1f77b4;stroke:#1f77b4;" x="214.563162" xlink:href="#m5f63645059" y="145.828952"/>
     <use style="fill:#1f77b4;stroke:#1f77b4;" x="218.829094" xlink:href="#m5f63645059" y="160.94747"/>
     <use style="fill:#1f77b4;stroke:#1f77b4;" x="223.095027" xlink:href="#m5f63645059" y="179.992943"/>
     <use style="fill:#1f77b4;stroke:#1f77b4;" x="227.36096" xlink:href="#m5f63645059" y="189.422243"/>
     <use style="fill:#1f77b4;stroke:#1f77b4;" x="231.626893" xlink:href="#m5f63645059" y="200.511674"/>
     <use style="fill:#1f77b4;stroke:#1f77b4;" x="235.892826" xlink:href="#m5f63645059" y="214.887803"/>
     <use style="fill:#1f77b4;stroke:#1f77b4;" x="240.158759" xlink:href="#m5f63645059" y="219.069109"/>
     <use style="fill:#1f77b4;stroke:#1f77b4;" x="244.424692" xlink:href="#m5f63645059" y="225.477472"/>
     <use style="fill:#1f77b4;stroke:#1f77b4;" x="248.690625" xlink:href="#m5f63645059" y="228.922805"/>
     <use style="fill:#1f77b4;stroke:#1f77b4;" x="252.956558" xlink:href="#m5f63645059" y="226.980278"/>
     <use style="fill:#1f77b4;stroke:#1f77b4;" x="257.222491" xlink:href="#m5f63645059" y="218.985048"/>
     <use style="fill:#1f77b4;stroke:#1f77b4;" x="261.488424" xlink:href="#m5f63645059" y="212.711586"/>
     <use style="fill:#1f77b4;stroke:#1f77b4;" x="265.754357" xlink:href="#m5f63645059" y="205.478376"/>
     <use style="fill:#1f77b4;stroke:#1f77b4;" x="270.02029" xlink:href="#m5f63645059" y="194.932395"/>
     <use style="fill:#1f77b4;stroke:#1f77b4;" x="274.286223" xlink:href="#m5f63645059" y="188.615394"/>
     <use style="fill:#1f77b4;stroke:#1f77b4;" x="278.552156" xlink:href="#m5f63645059" y="187.330507"/>
     <use style="fill:#1f77b4;stroke:#1f77b4;" x="282.818088" xlink:href="#m5f63645059" y="192.97222"/>
     <use style="fill:#1f77b4;stroke:#1f77b4;" x="287.084021" xlink:href="#m5f63645059" y="212.662412"/>
     <use style="fill:#1f77b4;stroke:#1f77b4;" x="291.349954" xlink:href="#m5f63645059" y="221.544603"/>
     <use style="fill:#1f77b4;stroke:#1f77b4;" x="295.615887" xlink:href="#m5f63645059" y="231.896406"/>
     <use style="fill:#1f77b4;stroke:#1f77b4;" x="299.88182" xlink:href="#m5f63645059" y="239.467358"/>
     <use style="fill:#1f77b4;stroke:#1f77b4;" x="304.147753" xlink:href="#m5f63645059" y="241.885493"/>
     <use style="fill:#1f77b4;stroke:#1f77b4;" x="308.413686" xlink:href="#m5f63645059" y="244.839566"/>
     <use style="fill:#1f77b4;stroke:#1f77b4;" x="312.679619" xlink:href="#m5f63645059" y="250.015561"/>
     <use style="fill:#1f77b4;stroke:#1f77b4;" x="316.945552" xlink:href="#m5f63645059" y="237.898854"/>
     <use style="fill:#1f77b4;stroke:#1f77b4;" x="321.211485" xlink:href="#m5f63645059" y="226.493539"/>
     <use style="fill:#1f77b4;stroke:#1f77b4;" x="325.477418" xlink:href="#m5f63645059" y="212.55559"/>
     <use style="fill:#1f77b4;stroke:#1f77b4;" x="329.743351" xlink:href="#m5f63645059" y="202.081541"/>
     <use style="fill:#1f77b4;stroke:#1f77b4;" x="334.009284" xlink:href="#m5f63645059" y="193.408248"/>
     <use style="fill:#1f77b4;stroke:#1f77b4;" x="338.275217" xlink:href="#m5f63645059" y="200.352667"/>
     <use style="fill:#1f77b4;stroke:#1f77b4;" x="342.541149" xlink:href="#m5f63645059" y="193.799308"/>
     <use style="fill:#1f77b4;stroke:#1f77b4;" x="346.807082" xlink:href="#m5f63645059" y="204.880291"/>
     <use style="fill:#1f77b4;stroke:#1f77b4;" x="351.073015" xlink:href="#m5f63645059" y="214.836766"/>
     <use style="fill:#1f77b4;stroke:#1f77b4;" x="355.338948" xlink:href="#m5f63645059" y="225.461871"/>
     <use style="fill:#1f77b4;stroke:#1f77b4;" x="359.604881" xlink:href="#m5f63645059" y="228.167984"/>
     <use style="fill:#1f77b4;stroke:#1f77b4;" x="363.870814" xlink:href="#m5f63645059" y="218.659343"/>
     <use style="fill:#1f77b4;stroke:#1f77b4;" x="368.136747" xlink:href="#m5f63645059" y="212.318644"/>
     <use style="fill:#1f77b4;stroke:#1f77b4;" x="372.40268" xlink:href="#m5f63645059" y="212.380275"/>
     <use style="fill:#1f77b4;stroke:#1f77b4;" x="376.668613" xlink:href="#m5f63645059" y="198.93061"/>
     <use style="fill:#1f77b4;stroke:#1f77b4;" x="380.934546" xlink:href="#m5f63645059" y="201.33054"/>
     <use style="fill:#1f77b4;stroke:#1f77b4;" x="385.200479" xlink:href="#m5f63645059" y="194.099509"/>
     <use style="fill:#1f77b4;stroke:#1f77b4;" x="389.466412" xlink:href="#m5f63645059" y="188.364291"/>
     <use style="fill:#1f77b4;stroke:#1f77b4;" x="393.732345" xlink:href="#m5f63645059" y="202.211041"/>
     <use style="fill:#1f77b4;stroke:#1f77b4;" x="397.998278" xlink:href="#m5f63645059" y="205.509073"/>
     <use style="fill:#1f77b4;stroke:#1f77b4;" x="402.264211" xlink:href="#m5f63645059" y="215.786528"/>
     <use style="fill:#1f77b4;stroke:#1f77b4;" x="406.530143" xlink:href="#m5f63645059" y="216.734663"/>
     <use style="fill:#1f77b4;stroke:#1f77b4;" x="410.796076" xlink:href="#m5f63645059" y="217.113578"/>
     <use style="fill:#1f77b4;stroke:#1f77b4;" x="415.062009" xlink:href="#m5f63645059" y="214.955601"/>
    </g>
   </g>
   <g id="patch_3">
    <path d="M 47.38125 279.86258 
L 47.38125 14.599219 
" style="fill:none;stroke:#000000;stroke-linecap:square;stroke-linejoin:miter;stroke-width:0.8;"/>
   </g>
   <g id="patch_4">
    <path d="M 450 279.86258 
L 450 14.599219 
" style="fill:none;stroke:#000000;stroke-linecap:square;stroke-linejoin:miter;stroke-width:0.8;"/>
   </g>
   <g id="patch_5">
    <path d="M 47.38125 279.86258 
L 450 279.86258 
" style="fill:none;stroke:#000000;stroke-linecap:square;stroke-linejoin:miter;stroke-width:0.8;"/>
   </g>
   <g id="patch_6">
    <path d="M 47.38125 14.599219 
L 450 14.599219 
" style="fill:none;stroke:#000000;stroke-linecap:square;stroke-linejoin:miter;stroke-width:0.8;"/>
   </g>
  </g>
 </g>
 <defs>
  <clipPath id="p01eccc7940">
   <rect height="265.263361" width="402.61875" x="47.38125" y="14.599219"/>
  </clipPath>
 </defs>
</svg>
