<?xml version="1.0" encoding="utf-8" standalone="no"?>
<!DOCTYPE svg PUBLIC "-//W3C//DTD SVG 1.1//EN"
  "http://www.w3.org/Graphics/SVG/1.1/DTD/svg11.dtd">
<!-- Created with matplotlib (https://matplotlib.org/) -->
<svg height="345.6pt" version="1.1" viewBox="0 0 460.8 345.6" width="460.8pt" xmlns="http://www.w3.org/2000/svg" xmlns:xlink="http://www.w3.org/1999/xlink">
 <defs>
  <style type="text/css">
*{stroke-linecap:butt;stroke-linejoin:round;}
  </style>
 </defs>
 <g id="figure_1">
  <g id="patch_1">
   <path d="M 0 345.6 
L 460.8 345.6 
L 460.8 0 
L 0 0 
z
" style="fill:#ffffff;"/>
  </g>
  <g id="axes_1">
   <g id="patch_2">
    <path d="M 50.565625 279.86258 
L 426.03129 279.86258 
L 426.03129 10.8 
L 50.565625 10.8 
z
" style="fill:#ffffff;"/>
   </g>
   <g id="matplotlib.axis_1">
    <g id="xtick_1">
     <g id="line2d_1">
      <defs>
       <path d="M 0 0 
L 0 3.5 
" id="m9fc3d983f1" style="stroke:#000000;stroke-width:0.8;"/>
      </defs>
      <g>
       <use style="stroke:#000000;stroke-width:0.8;" x="106.032144" xlink:href="#m9fc3d983f1" y="279.86258"/>
      </g>
     </g>
     <g id="text_1">
      <!-- 2020-03-01 -->
      <defs>
       <path d="M 19.1875 8.296875 
L 53.609375 8.296875 
L 53.609375 0 
L 7.328125 0 
L 7.328125 8.296875 
Q 12.9375 14.109375 22.625 23.890625 
Q 32.328125 33.6875 34.8125 36.53125 
Q 39.546875 41.84375 41.421875 45.53125 
Q 43.3125 49.21875 43.3125 52.78125 
Q 43.3125 58.59375 39.234375 62.25 
Q 35.15625 65.921875 28.609375 65.921875 
Q 23.96875 65.921875 18.8125 64.3125 
Q 13.671875 62.703125 7.8125 59.421875 
L 7.8125 69.390625 
Q 13.765625 71.78125 18.9375 73 
Q 24.125 74.21875 28.421875 74.21875 
Q 39.75 74.21875 46.484375 68.546875 
Q 53.21875 62.890625 53.21875 53.421875 
Q 53.21875 48.921875 51.53125 44.890625 
Q 49.859375 40.875 45.40625 35.40625 
Q 44.1875 33.984375 37.640625 27.21875 
Q 31.109375 20.453125 19.1875 8.296875 
z
" id="DejaVuSans-50"/>
       <path d="M 31.78125 66.40625 
Q 24.171875 66.40625 20.328125 58.90625 
Q 16.5 51.421875 16.5 36.375 
Q 16.5 21.390625 20.328125 13.890625 
Q 24.171875 6.390625 31.78125 6.390625 
Q 39.453125 6.390625 43.28125 13.890625 
Q 47.125 21.390625 47.125 36.375 
Q 47.125 51.421875 43.28125 58.90625 
Q 39.453125 66.40625 31.78125 66.40625 
z
M 31.78125 74.21875 
Q 44.046875 74.21875 50.515625 64.515625 
Q 56.984375 54.828125 56.984375 36.375 
Q 56.984375 17.96875 50.515625 8.265625 
Q 44.046875 -1.421875 31.78125 -1.421875 
Q 19.53125 -1.421875 13.0625 8.265625 
Q 6.59375 17.96875 6.59375 36.375 
Q 6.59375 54.828125 13.0625 64.515625 
Q 19.53125 74.21875 31.78125 74.21875 
z
" id="DejaVuSans-48"/>
       <path d="M 4.890625 31.390625 
L 31.203125 31.390625 
L 31.203125 23.390625 
L 4.890625 23.390625 
z
" id="DejaVuSans-45"/>
       <path d="M 40.578125 39.3125 
Q 47.65625 37.796875 51.625 33 
Q 55.609375 28.21875 55.609375 21.1875 
Q 55.609375 10.40625 48.1875 4.484375 
Q 40.765625 -1.421875 27.09375 -1.421875 
Q 22.515625 -1.421875 17.65625 -0.515625 
Q 12.796875 0.390625 7.625 2.203125 
L 7.625 11.71875 
Q 11.71875 9.328125 16.59375 8.109375 
Q 21.484375 6.890625 26.8125 6.890625 
Q 36.078125 6.890625 40.9375 10.546875 
Q 45.796875 14.203125 45.796875 21.1875 
Q 45.796875 27.640625 41.28125 31.265625 
Q 36.765625 34.90625 28.71875 34.90625 
L 20.21875 34.90625 
L 20.21875 43.015625 
L 29.109375 43.015625 
Q 36.375 43.015625 40.234375 45.921875 
Q 44.09375 48.828125 44.09375 54.296875 
Q 44.09375 59.90625 40.109375 62.90625 
Q 36.140625 65.921875 28.71875 65.921875 
Q 24.65625 65.921875 20.015625 65.03125 
Q 15.375 64.15625 9.8125 62.3125 
L 9.8125 71.09375 
Q 15.4375 72.65625 20.34375 73.4375 
Q 25.25 74.21875 29.59375 74.21875 
Q 40.828125 74.21875 47.359375 69.109375 
Q 53.90625 64.015625 53.90625 55.328125 
Q 53.90625 49.265625 50.4375 45.09375 
Q 46.96875 40.921875 40.578125 39.3125 
z
" id="DejaVuSans-51"/>
       <path d="M 12.40625 8.296875 
L 28.515625 8.296875 
L 28.515625 63.921875 
L 10.984375 60.40625 
L 10.984375 69.390625 
L 28.421875 72.90625 
L 38.28125 72.90625 
L 38.28125 8.296875 
L 54.390625 8.296875 
L 54.390625 0 
L 12.40625 0 
z
" id="DejaVuSans-49"/>
      </defs>
      <g transform="translate(87.43634 333.329439)rotate(-45)scale(0.1 -0.1)">
       <use xlink:href="#DejaVuSans-50"/>
       <use x="63.623047" xlink:href="#DejaVuSans-48"/>
       <use x="127.246094" xlink:href="#DejaVuSans-50"/>
       <use x="190.869141" xlink:href="#DejaVuSans-48"/>
       <use x="254.492188" xlink:href="#DejaVuSans-45"/>
       <use x="290.576172" xlink:href="#DejaVuSans-48"/>
       <use x="354.199219" xlink:href="#DejaVuSans-51"/>
       <use x="417.822266" xlink:href="#DejaVuSans-45"/>
       <use x="453.90625" xlink:href="#DejaVuSans-48"/>
       <use x="517.529297" xlink:href="#DejaVuSans-49"/>
      </g>
     </g>
    </g>
    <g id="xtick_2">
     <g id="line2d_2">
      <g>
       <use style="stroke:#000000;stroke-width:0.8;" x="165.765318" xlink:href="#m9fc3d983f1" y="279.86258"/>
      </g>
     </g>
     <g id="text_2">
      <!-- 2020-03-15 -->
      <defs>
       <path d="M 10.796875 72.90625 
L 49.515625 72.90625 
L 49.515625 64.59375 
L 19.828125 64.59375 
L 19.828125 46.734375 
Q 21.96875 47.46875 24.109375 47.828125 
Q 26.265625 48.1875 28.421875 48.1875 
Q 40.625 48.1875 47.75 41.5 
Q 54.890625 34.8125 54.890625 23.390625 
Q 54.890625 11.625 47.5625 5.09375 
Q 40.234375 -1.421875 26.90625 -1.421875 
Q 22.3125 -1.421875 17.546875 -0.640625 
Q 12.796875 0.140625 7.71875 1.703125 
L 7.71875 11.625 
Q 12.109375 9.234375 16.796875 8.0625 
Q 21.484375 6.890625 26.703125 6.890625 
Q 35.15625 6.890625 40.078125 11.328125 
Q 45.015625 15.765625 45.015625 23.390625 
Q 45.015625 31 40.078125 35.4375 
Q 35.15625 39.890625 26.703125 39.890625 
Q 22.75 39.890625 18.8125 39.015625 
Q 14.890625 38.140625 10.796875 36.28125 
z
" id="DejaVuSans-53"/>
      </defs>
      <g transform="translate(147.169514 333.329439)rotate(-45)scale(0.1 -0.1)">
       <use xlink:href="#DejaVuSans-50"/>
       <use x="63.623047" xlink:href="#DejaVuSans-48"/>
       <use x="127.246094" xlink:href="#DejaVuSans-50"/>
       <use x="190.869141" xlink:href="#DejaVuSans-48"/>
       <use x="254.492188" xlink:href="#DejaVuSans-45"/>
       <use x="290.576172" xlink:href="#DejaVuSans-48"/>
       <use x="354.199219" xlink:href="#DejaVuSans-51"/>
       <use x="417.822266" xlink:href="#DejaVuSans-45"/>
       <use x="453.90625" xlink:href="#DejaVuSans-49"/>
       <use x="517.529297" xlink:href="#DejaVuSans-53"/>
      </g>
     </g>
    </g>
    <g id="xtick_3">
     <g id="line2d_3">
      <g>
       <use style="stroke:#000000;stroke-width:0.8;" x="238.298457" xlink:href="#m9fc3d983f1" y="279.86258"/>
      </g>
     </g>
     <g id="text_3">
      <!-- 2020-04-01 -->
      <defs>
       <path d="M 37.796875 64.3125 
L 12.890625 25.390625 
L 37.796875 25.390625 
z
M 35.203125 72.90625 
L 47.609375 72.90625 
L 47.609375 25.390625 
L 58.015625 25.390625 
L 58.015625 17.1875 
L 47.609375 17.1875 
L 47.609375 0 
L 37.796875 0 
L 37.796875 17.1875 
L 4.890625 17.1875 
L 4.890625 26.703125 
z
" id="DejaVuSans-52"/>
      </defs>
      <g transform="translate(219.702654 333.329439)rotate(-45)scale(0.1 -0.1)">
       <use xlink:href="#DejaVuSans-50"/>
       <use x="63.623047" xlink:href="#DejaVuSans-48"/>
       <use x="127.246094" xlink:href="#DejaVuSans-50"/>
       <use x="190.869141" xlink:href="#DejaVuSans-48"/>
       <use x="254.492188" xlink:href="#DejaVuSans-45"/>
       <use x="290.576172" xlink:href="#DejaVuSans-48"/>
       <use x="354.199219" xlink:href="#DejaVuSans-52"/>
       <use x="417.822266" xlink:href="#DejaVuSans-45"/>
       <use x="453.90625" xlink:href="#DejaVuSans-48"/>
       <use x="517.529297" xlink:href="#DejaVuSans-49"/>
      </g>
     </g>
    </g>
    <g id="xtick_4">
     <g id="line2d_4">
      <g>
       <use style="stroke:#000000;stroke-width:0.8;" x="298.031631" xlink:href="#m9fc3d983f1" y="279.86258"/>
      </g>
     </g>
     <g id="text_4">
      <!-- 2020-04-15 -->
      <g transform="translate(279.435828 333.329439)rotate(-45)scale(0.1 -0.1)">
       <use xlink:href="#DejaVuSans-50"/>
       <use x="63.623047" xlink:href="#DejaVuSans-48"/>
       <use x="127.246094" xlink:href="#DejaVuSans-50"/>
       <use x="190.869141" xlink:href="#DejaVuSans-48"/>
       <use x="254.492188" xlink:href="#DejaVuSans-45"/>
       <use x="290.576172" xlink:href="#DejaVuSans-48"/>
       <use x="354.199219" xlink:href="#DejaVuSans-52"/>
       <use x="417.822266" xlink:href="#DejaVuSans-45"/>
       <use x="453.90625" xlink:href="#DejaVuSans-49"/>
       <use x="517.529297" xlink:href="#DejaVuSans-53"/>
      </g>
     </g>
    </g>
    <g id="xtick_5">
     <g id="line2d_5">
      <g>
       <use style="stroke:#000000;stroke-width:0.8;" x="366.298116" xlink:href="#m9fc3d983f1" y="279.86258"/>
      </g>
     </g>
     <g id="text_5">
      <!-- 2020-05-01 -->
      <g transform="translate(347.702312 333.329439)rotate(-45)scale(0.1 -0.1)">
       <use xlink:href="#DejaVuSans-50"/>
       <use x="63.623047" xlink:href="#DejaVuSans-48"/>
       <use x="127.246094" xlink:href="#DejaVuSans-50"/>
       <use x="190.869141" xlink:href="#DejaVuSans-48"/>
       <use x="254.492188" xlink:href="#DejaVuSans-45"/>
       <use x="290.576172" xlink:href="#DejaVuSans-48"/>
       <use x="354.199219" xlink:href="#DejaVuSans-53"/>
       <use x="417.822266" xlink:href="#DejaVuSans-45"/>
       <use x="453.90625" xlink:href="#DejaVuSans-48"/>
       <use x="517.529297" xlink:href="#DejaVuSans-49"/>
      </g>
     </g>
    </g>
    <g id="xtick_6">
     <g id="line2d_6">
      <g>
       <use style="stroke:#000000;stroke-width:0.8;" x="426.03129" xlink:href="#m9fc3d983f1" y="279.86258"/>
      </g>
     </g>
     <g id="text_6">
      <!-- 2020-05-15 -->
      <g transform="translate(407.435486 333.329439)rotate(-45)scale(0.1 -0.1)">
       <use xlink:href="#DejaVuSans-50"/>
       <use x="63.623047" xlink:href="#DejaVuSans-48"/>
       <use x="127.246094" xlink:href="#DejaVuSans-50"/>
       <use x="190.869141" xlink:href="#DejaVuSans-48"/>
       <use x="254.492188" xlink:href="#DejaVuSans-45"/>
       <use x="290.576172" xlink:href="#DejaVuSans-48"/>
       <use x="354.199219" xlink:href="#DejaVuSans-53"/>
       <use x="417.822266" xlink:href="#DejaVuSans-45"/>
       <use x="453.90625" xlink:href="#DejaVuSans-49"/>
       <use x="517.529297" xlink:href="#DejaVuSans-53"/>
      </g>
     </g>
    </g>
   </g>
   <g id="matplotlib.axis_2">
    <g id="ytick_1">
     <g id="line2d_7">
      <defs>
       <path d="M 0 0 
L -3.5 0 
" id="m04128780c8" style="stroke:#000000;stroke-width:0.8;"/>
      </defs>
      <g>
       <use style="stroke:#000000;stroke-width:0.8;" x="50.565625" xlink:href="#m04128780c8" y="279.86258"/>
      </g>
     </g>
     <g id="text_7">
      <!-- 0 -->
      <g transform="translate(37.203125 283.661798)scale(0.1 -0.1)">
       <use xlink:href="#DejaVuSans-48"/>
      </g>
     </g>
    </g>
    <g id="ytick_2">
     <g id="line2d_8">
      <g>
       <use style="stroke:#000000;stroke-width:0.8;" x="50.565625" xlink:href="#m04128780c8" y="234.095854"/>
      </g>
     </g>
     <g id="text_8">
      <!-- 50 -->
      <g transform="translate(30.840625 237.895073)scale(0.1 -0.1)">
       <use xlink:href="#DejaVuSans-53"/>
       <use x="63.623047" xlink:href="#DejaVuSans-48"/>
      </g>
     </g>
    </g>
    <g id="ytick_3">
     <g id="line2d_9">
      <g>
       <use style="stroke:#000000;stroke-width:0.8;" x="50.565625" xlink:href="#m04128780c8" y="188.329129"/>
      </g>
     </g>
     <g id="text_9">
      <!-- 100 -->
      <g transform="translate(24.478125 192.128347)scale(0.1 -0.1)">
       <use xlink:href="#DejaVuSans-49"/>
       <use x="63.623047" xlink:href="#DejaVuSans-48"/>
       <use x="127.246094" xlink:href="#DejaVuSans-48"/>
      </g>
     </g>
    </g>
    <g id="ytick_4">
     <g id="line2d_10">
      <g>
       <use style="stroke:#000000;stroke-width:0.8;" x="50.565625" xlink:href="#m04128780c8" y="142.562403"/>
      </g>
     </g>
     <g id="text_10">
      <!-- 150 -->
      <g transform="translate(24.478125 146.361622)scale(0.1 -0.1)">
       <use xlink:href="#DejaVuSans-49"/>
       <use x="63.623047" xlink:href="#DejaVuSans-53"/>
       <use x="127.246094" xlink:href="#DejaVuSans-48"/>
      </g>
     </g>
    </g>
    <g id="ytick_5">
     <g id="line2d_11">
      <g>
       <use style="stroke:#000000;stroke-width:0.8;" x="50.565625" xlink:href="#m04128780c8" y="96.795677"/>
      </g>
     </g>
     <g id="text_11">
      <!-- 200 -->
      <g transform="translate(24.478125 100.594896)scale(0.1 -0.1)">
       <use xlink:href="#DejaVuSans-50"/>
       <use x="63.623047" xlink:href="#DejaVuSans-48"/>
       <use x="127.246094" xlink:href="#DejaVuSans-48"/>
      </g>
     </g>
    </g>
    <g id="ytick_6">
     <g id="line2d_12">
      <g>
       <use style="stroke:#000000;stroke-width:0.8;" x="50.565625" xlink:href="#m04128780c8" y="51.028952"/>
      </g>
     </g>
     <g id="text_12">
      <!-- 250 -->
      <g transform="translate(24.478125 54.828171)scale(0.1 -0.1)">
       <use xlink:href="#DejaVuSans-50"/>
       <use x="63.623047" xlink:href="#DejaVuSans-53"/>
       <use x="127.246094" xlink:href="#DejaVuSans-48"/>
      </g>
     </g>
    </g>
    <g id="text_13">
     <!-- VC hospitalizados diarios -->
     <defs>
      <path d="M 28.609375 0 
L 0.78125 72.90625 
L 11.078125 72.90625 
L 34.1875 11.53125 
L 57.328125 72.90625 
L 67.578125 72.90625 
L 39.796875 0 
z
" id="DejaVuSans-86"/>
      <path d="M 64.40625 67.28125 
L 64.40625 56.890625 
Q 59.421875 61.53125 53.78125 63.8125 
Q 48.140625 66.109375 41.796875 66.109375 
Q 29.296875 66.109375 22.65625 58.46875 
Q 16.015625 50.828125 16.015625 36.375 
Q 16.015625 21.96875 22.65625 14.328125 
Q 29.296875 6.6875 41.796875 6.6875 
Q 48.140625 6.6875 53.78125 8.984375 
Q 59.421875 11.28125 64.40625 15.921875 
L 64.40625 5.609375 
Q 59.234375 2.09375 53.4375 0.328125 
Q 47.65625 -1.421875 41.21875 -1.421875 
Q 24.65625 -1.421875 15.125 8.703125 
Q 5.609375 18.84375 5.609375 36.375 
Q 5.609375 53.953125 15.125 64.078125 
Q 24.65625 74.21875 41.21875 74.21875 
Q 47.75 74.21875 53.53125 72.484375 
Q 59.328125 70.75 64.40625 67.28125 
z
" id="DejaVuSans-67"/>
      <path id="DejaVuSans-32"/>
      <path d="M 54.890625 33.015625 
L 54.890625 0 
L 45.90625 0 
L 45.90625 32.71875 
Q 45.90625 40.484375 42.875 44.328125 
Q 39.84375 48.1875 33.796875 48.1875 
Q 26.515625 48.1875 22.3125 43.546875 
Q 18.109375 38.921875 18.109375 30.90625 
L 18.109375 0 
L 9.078125 0 
L 9.078125 75.984375 
L 18.109375 75.984375 
L 18.109375 46.1875 
Q 21.34375 51.125 25.703125 53.5625 
Q 30.078125 56 35.796875 56 
Q 45.21875 56 50.046875 50.171875 
Q 54.890625 44.34375 54.890625 33.015625 
z
" id="DejaVuSans-104"/>
      <path d="M 30.609375 48.390625 
Q 23.390625 48.390625 19.1875 42.75 
Q 14.984375 37.109375 14.984375 27.296875 
Q 14.984375 17.484375 19.15625 11.84375 
Q 23.34375 6.203125 30.609375 6.203125 
Q 37.796875 6.203125 41.984375 11.859375 
Q 46.1875 17.53125 46.1875 27.296875 
Q 46.1875 37.015625 41.984375 42.703125 
Q 37.796875 48.390625 30.609375 48.390625 
z
M 30.609375 56 
Q 42.328125 56 49.015625 48.375 
Q 55.71875 40.765625 55.71875 27.296875 
Q 55.71875 13.875 49.015625 6.21875 
Q 42.328125 -1.421875 30.609375 -1.421875 
Q 18.84375 -1.421875 12.171875 6.21875 
Q 5.515625 13.875 5.515625 27.296875 
Q 5.515625 40.765625 12.171875 48.375 
Q 18.84375 56 30.609375 56 
z
" id="DejaVuSans-111"/>
      <path d="M 44.28125 53.078125 
L 44.28125 44.578125 
Q 40.484375 46.53125 36.375 47.5 
Q 32.28125 48.484375 27.875 48.484375 
Q 21.1875 48.484375 17.84375 46.4375 
Q 14.5 44.390625 14.5 40.28125 
Q 14.5 37.15625 16.890625 35.375 
Q 19.28125 33.59375 26.515625 31.984375 
L 29.59375 31.296875 
Q 39.15625 29.25 43.1875 25.515625 
Q 47.21875 21.78125 47.21875 15.09375 
Q 47.21875 7.46875 41.1875 3.015625 
Q 35.15625 -1.421875 24.609375 -1.421875 
Q 20.21875 -1.421875 15.453125 -0.5625 
Q 10.6875 0.296875 5.421875 2 
L 5.421875 11.28125 
Q 10.40625 8.6875 15.234375 7.390625 
Q 20.0625 6.109375 24.8125 6.109375 
Q 31.15625 6.109375 34.5625 8.28125 
Q 37.984375 10.453125 37.984375 14.40625 
Q 37.984375 18.0625 35.515625 20.015625 
Q 33.0625 21.96875 24.703125 23.78125 
L 21.578125 24.515625 
Q 13.234375 26.265625 9.515625 29.90625 
Q 5.8125 33.546875 5.8125 39.890625 
Q 5.8125 47.609375 11.28125 51.796875 
Q 16.75 56 26.8125 56 
Q 31.78125 56 36.171875 55.265625 
Q 40.578125 54.546875 44.28125 53.078125 
z
" id="DejaVuSans-115"/>
      <path d="M 18.109375 8.203125 
L 18.109375 -20.796875 
L 9.078125 -20.796875 
L 9.078125 54.6875 
L 18.109375 54.6875 
L 18.109375 46.390625 
Q 20.953125 51.265625 25.265625 53.625 
Q 29.59375 56 35.59375 56 
Q 45.5625 56 51.78125 48.09375 
Q 58.015625 40.1875 58.015625 27.296875 
Q 58.015625 14.40625 51.78125 6.484375 
Q 45.5625 -1.421875 35.59375 -1.421875 
Q 29.59375 -1.421875 25.265625 0.953125 
Q 20.953125 3.328125 18.109375 8.203125 
z
M 48.6875 27.296875 
Q 48.6875 37.203125 44.609375 42.84375 
Q 40.53125 48.484375 33.40625 48.484375 
Q 26.265625 48.484375 22.1875 42.84375 
Q 18.109375 37.203125 18.109375 27.296875 
Q 18.109375 17.390625 22.1875 11.75 
Q 26.265625 6.109375 33.40625 6.109375 
Q 40.53125 6.109375 44.609375 11.75 
Q 48.6875 17.390625 48.6875 27.296875 
z
" id="DejaVuSans-112"/>
      <path d="M 9.421875 54.6875 
L 18.40625 54.6875 
L 18.40625 0 
L 9.421875 0 
z
M 9.421875 75.984375 
L 18.40625 75.984375 
L 18.40625 64.59375 
L 9.421875 64.59375 
z
" id="DejaVuSans-105"/>
      <path d="M 18.3125 70.21875 
L 18.3125 54.6875 
L 36.8125 54.6875 
L 36.8125 47.703125 
L 18.3125 47.703125 
L 18.3125 18.015625 
Q 18.3125 11.328125 20.140625 9.421875 
Q 21.96875 7.515625 27.59375 7.515625 
L 36.8125 7.515625 
L 36.8125 0 
L 27.59375 0 
Q 17.1875 0 13.234375 3.875 
Q 9.28125 7.765625 9.28125 18.015625 
L 9.28125 47.703125 
L 2.6875 47.703125 
L 2.6875 54.6875 
L 9.28125 54.6875 
L 9.28125 70.21875 
z
" id="DejaVuSans-116"/>
      <path d="M 34.28125 27.484375 
Q 23.390625 27.484375 19.1875 25 
Q 14.984375 22.515625 14.984375 16.5 
Q 14.984375 11.71875 18.140625 8.90625 
Q 21.296875 6.109375 26.703125 6.109375 
Q 34.1875 6.109375 38.703125 11.40625 
Q 43.21875 16.703125 43.21875 25.484375 
L 43.21875 27.484375 
z
M 52.203125 31.203125 
L 52.203125 0 
L 43.21875 0 
L 43.21875 8.296875 
Q 40.140625 3.328125 35.546875 0.953125 
Q 30.953125 -1.421875 24.3125 -1.421875 
Q 15.921875 -1.421875 10.953125 3.296875 
Q 6 8.015625 6 15.921875 
Q 6 25.140625 12.171875 29.828125 
Q 18.359375 34.515625 30.609375 34.515625 
L 43.21875 34.515625 
L 43.21875 35.40625 
Q 43.21875 41.609375 39.140625 45 
Q 35.0625 48.390625 27.6875 48.390625 
Q 23 48.390625 18.546875 47.265625 
Q 14.109375 46.140625 10.015625 43.890625 
L 10.015625 52.203125 
Q 14.9375 54.109375 19.578125 55.046875 
Q 24.21875 56 28.609375 56 
Q 40.484375 56 46.34375 49.84375 
Q 52.203125 43.703125 52.203125 31.203125 
z
" id="DejaVuSans-97"/>
      <path d="M 9.421875 75.984375 
L 18.40625 75.984375 
L 18.40625 0 
L 9.421875 0 
z
" id="DejaVuSans-108"/>
      <path d="M 5.515625 54.6875 
L 48.1875 54.6875 
L 48.1875 46.484375 
L 14.40625 7.171875 
L 48.1875 7.171875 
L 48.1875 0 
L 4.296875 0 
L 4.296875 8.203125 
L 38.09375 47.515625 
L 5.515625 47.515625 
z
" id="DejaVuSans-122"/>
      <path d="M 45.40625 46.390625 
L 45.40625 75.984375 
L 54.390625 75.984375 
L 54.390625 0 
L 45.40625 0 
L 45.40625 8.203125 
Q 42.578125 3.328125 38.25 0.953125 
Q 33.9375 -1.421875 27.875 -1.421875 
Q 17.96875 -1.421875 11.734375 6.484375 
Q 5.515625 14.40625 5.515625 27.296875 
Q 5.515625 40.1875 11.734375 48.09375 
Q 17.96875 56 27.875 56 
Q 33.9375 56 38.25 53.625 
Q 42.578125 51.265625 45.40625 46.390625 
z
M 14.796875 27.296875 
Q 14.796875 17.390625 18.875 11.75 
Q 22.953125 6.109375 30.078125 6.109375 
Q 37.203125 6.109375 41.296875 11.75 
Q 45.40625 17.390625 45.40625 27.296875 
Q 45.40625 37.203125 41.296875 42.84375 
Q 37.203125 48.484375 30.078125 48.484375 
Q 22.953125 48.484375 18.875 42.84375 
Q 14.796875 37.203125 14.796875 27.296875 
z
" id="DejaVuSans-100"/>
      <path d="M 41.109375 46.296875 
Q 39.59375 47.171875 37.8125 47.578125 
Q 36.03125 48 33.890625 48 
Q 26.265625 48 22.1875 43.046875 
Q 18.109375 38.09375 18.109375 28.8125 
L 18.109375 0 
L 9.078125 0 
L 9.078125 54.6875 
L 18.109375 54.6875 
L 18.109375 46.1875 
Q 20.953125 51.171875 25.484375 53.578125 
Q 30.03125 56 36.53125 56 
Q 37.453125 56 38.578125 55.875 
Q 39.703125 55.765625 41.0625 55.515625 
z
" id="DejaVuSans-114"/>
     </defs>
     <g transform="translate(18.398438 207.882071)rotate(-90)scale(0.1 -0.1)">
      <use xlink:href="#DejaVuSans-86"/>
      <use x="68.408203" xlink:href="#DejaVuSans-67"/>
      <use x="138.232422" xlink:href="#DejaVuSans-32"/>
      <use x="170.019531" xlink:href="#DejaVuSans-104"/>
      <use x="233.398438" xlink:href="#DejaVuSans-111"/>
      <use x="294.580078" xlink:href="#DejaVuSans-115"/>
      <use x="346.679688" xlink:href="#DejaVuSans-112"/>
      <use x="410.15625" xlink:href="#DejaVuSans-105"/>
      <use x="437.939453" xlink:href="#DejaVuSans-116"/>
      <use x="477.148438" xlink:href="#DejaVuSans-97"/>
      <use x="538.427734" xlink:href="#DejaVuSans-108"/>
      <use x="566.210938" xlink:href="#DejaVuSans-105"/>
      <use x="593.994141" xlink:href="#DejaVuSans-122"/>
      <use x="646.484375" xlink:href="#DejaVuSans-97"/>
      <use x="707.763672" xlink:href="#DejaVuSans-100"/>
      <use x="771.240234" xlink:href="#DejaVuSans-111"/>
      <use x="832.421875" xlink:href="#DejaVuSans-115"/>
      <use x="884.521484" xlink:href="#DejaVuSans-32"/>
      <use x="916.308594" xlink:href="#DejaVuSans-100"/>
      <use x="979.785156" xlink:href="#DejaVuSans-105"/>
      <use x="1007.568359" xlink:href="#DejaVuSans-97"/>
      <use x="1068.847656" xlink:href="#DejaVuSans-114"/>
      <use x="1109.960938" xlink:href="#DejaVuSans-105"/>
      <use x="1137.744141" xlink:href="#DejaVuSans-111"/>
      <use x="1198.925781" xlink:href="#DejaVuSans-115"/>
     </g>
    </g>
   </g>
   <g id="line2d_13">
    <path clip-path="url(#p46115d2c33)" d="M 67.632246 276.201242 
L 71.898901 277.116576 
L 76.165557 275.285907 
L 80.432212 269.7939 
L 84.698867 271.624569 
L 88.965523 275.285907 
L 93.232178 270.709235 
L 97.498833 275.285907 
L 101.765488 273.455238 
L 106.032144 277.116576 
L 110.298799 275.285907 
L 114.565454 268.878566 
L 118.83211 268.878566 
L 123.098765 267.963231 
L 127.36542 272.539904 
L 131.632075 272.539904 
L 135.898731 273.455238 
L 140.165386 263.386558 
L 144.432041 253.317879 
L 148.698696 250.571875 
L 152.965352 244.164534 
L 157.232007 246.910537 
L 161.498662 250.571875 
L 165.765318 233.18052 
L 170.031973 219.450502 
L 174.298628 212.127826 
L 178.565283 172.768442 
L 182.831939 160.869093 
L 187.098594 124.255713 
L 191.365249 106.864357 
L 195.631905 119.67904 
L 199.89856 50.113617 
L 204.165215 23.568916 
L 208.43187 46.452279 
L 212.698526 41.875607 
L 216.965181 51.944286 
L 221.231836 127.001716 
L 225.498492 150.800414 
L 229.765147 99.541681 
L 234.031802 149.885079 
L 238.298457 155.377086 
L 242.565113 185.583125 
L 246.831768 217.619833 
L 251.098423 224.942509 
L 255.365079 235.926523 
L 259.631734 252.402544 
L 263.898389 266.132562 
L 268.165044 186.498459 
L 272.4317 122.425044 
L 276.698355 147.139075 
L 280.96501 264.301893 
L 285.231666 170.022438 
L 289.498321 162.699762 
L 293.764976 217.619833 
L 298.031631 225.857843 
L 302.298287 205.720484 
L 306.564942 185.583125 
L 310.831597 213.04316 
L 315.098252 237.757192 
L 319.364908 244.164534 
L 323.631563 252.402544 
L 327.898218 260.640555 
L 332.164874 254.233213 
L 336.431529 249.656541 
L 340.698184 247.825872 
L 344.964839 262.471224 
L 349.231495 267.047896 
L 353.49815 256.063882 
L 357.764805 257.894551 
L 362.031461 252.402544 
L 366.298116 255.148548 
L 370.564771 254.233213 
L 374.831426 258.809886 
L 379.098082 270.709235 
L 383.364737 269.7939 
L 387.631392 255.148548 
L 391.898048 247.825872 
L 396.164703 252.402544 
L 400.431358 245.995203 
L 404.698013 278.947245 
L 408.964669 275.285907 
" style="fill:none;stroke:#1f77b4;stroke-linecap:square;stroke-width:1.5;"/>
    <defs>
     <path d="M 0 1.5 
C 0.397805 1.5 0.77937 1.341951 1.06066 1.06066 
C 1.341951 0.77937 1.5 0.397805 1.5 0 
C 1.5 -0.397805 1.341951 -0.77937 1.06066 -1.06066 
C 0.77937 -1.341951 0.397805 -1.5 0 -1.5 
C -0.397805 -1.5 -0.77937 -1.341951 -1.06066 -1.06066 
C -1.341951 -0.77937 -1.5 -0.397805 -1.5 0 
C -1.5 0.397805 -1.341951 0.77937 -1.06066 1.06066 
C -0.77937 1.341951 -0.397805 1.5 0 1.5 
z
" id="me14a701fd3" style="stroke:#1f77b4;"/>
    </defs>
    <g clip-path="url(#p46115d2c33)">
     <use style="fill:#1f77b4;stroke:#1f77b4;" x="67.632246" xlink:href="#me14a701fd3" y="276.201242"/>
     <use style="fill:#1f77b4;stroke:#1f77b4;" x="71.898901" xlink:href="#me14a701fd3" y="277.116576"/>
     <use style="fill:#1f77b4;stroke:#1f77b4;" x="76.165557" xlink:href="#me14a701fd3" y="275.285907"/>
     <use style="fill:#1f77b4;stroke:#1f77b4;" x="80.432212" xlink:href="#me14a701fd3" y="269.7939"/>
     <use style="fill:#1f77b4;stroke:#1f77b4;" x="84.698867" xlink:href="#me14a701fd3" y="271.624569"/>
     <use style="fill:#1f77b4;stroke:#1f77b4;" x="88.965523" xlink:href="#me14a701fd3" y="275.285907"/>
     <use style="fill:#1f77b4;stroke:#1f77b4;" x="93.232178" xlink:href="#me14a701fd3" y="270.709235"/>
     <use style="fill:#1f77b4;stroke:#1f77b4;" x="97.498833" xlink:href="#me14a701fd3" y="275.285907"/>
     <use style="fill:#1f77b4;stroke:#1f77b4;" x="101.765488" xlink:href="#me14a701fd3" y="273.455238"/>
     <use style="fill:#1f77b4;stroke:#1f77b4;" x="106.032144" xlink:href="#me14a701fd3" y="277.116576"/>
     <use style="fill:#1f77b4;stroke:#1f77b4;" x="110.298799" xlink:href="#me14a701fd3" y="275.285907"/>
     <use style="fill:#1f77b4;stroke:#1f77b4;" x="114.565454" xlink:href="#me14a701fd3" y="268.878566"/>
     <use style="fill:#1f77b4;stroke:#1f77b4;" x="118.83211" xlink:href="#me14a701fd3" y="268.878566"/>
     <use style="fill:#1f77b4;stroke:#1f77b4;" x="123.098765" xlink:href="#me14a701fd3" y="267.963231"/>
     <use style="fill:#1f77b4;stroke:#1f77b4;" x="127.36542" xlink:href="#me14a701fd3" y="272.539904"/>
     <use style="fill:#1f77b4;stroke:#1f77b4;" x="131.632075" xlink:href="#me14a701fd3" y="272.539904"/>
     <use style="fill:#1f77b4;stroke:#1f77b4;" x="135.898731" xlink:href="#me14a701fd3" y="273.455238"/>
     <use style="fill:#1f77b4;stroke:#1f77b4;" x="140.165386" xlink:href="#me14a701fd3" y="263.386558"/>
     <use style="fill:#1f77b4;stroke:#1f77b4;" x="144.432041" xlink:href="#me14a701fd3" y="253.317879"/>
     <use style="fill:#1f77b4;stroke:#1f77b4;" x="148.698696" xlink:href="#me14a701fd3" y="250.571875"/>
     <use style="fill:#1f77b4;stroke:#1f77b4;" x="152.965352" xlink:href="#me14a701fd3" y="244.164534"/>
     <use style="fill:#1f77b4;stroke:#1f77b4;" x="157.232007" xlink:href="#me14a701fd3" y="246.910537"/>
     <use style="fill:#1f77b4;stroke:#1f77b4;" x="161.498662" xlink:href="#me14a701fd3" y="250.571875"/>
     <use style="fill:#1f77b4;stroke:#1f77b4;" x="165.765318" xlink:href="#me14a701fd3" y="233.18052"/>
     <use style="fill:#1f77b4;stroke:#1f77b4;" x="170.031973" xlink:href="#me14a701fd3" y="219.450502"/>
     <use style="fill:#1f77b4;stroke:#1f77b4;" x="174.298628" xlink:href="#me14a701fd3" y="212.127826"/>
     <use style="fill:#1f77b4;stroke:#1f77b4;" x="178.565283" xlink:href="#me14a701fd3" y="172.768442"/>
     <use style="fill:#1f77b4;stroke:#1f77b4;" x="182.831939" xlink:href="#me14a701fd3" y="160.869093"/>
     <use style="fill:#1f77b4;stroke:#1f77b4;" x="187.098594" xlink:href="#me14a701fd3" y="124.255713"/>
     <use style="fill:#1f77b4;stroke:#1f77b4;" x="191.365249" xlink:href="#me14a701fd3" y="106.864357"/>
     <use style="fill:#1f77b4;stroke:#1f77b4;" x="195.631905" xlink:href="#me14a701fd3" y="119.67904"/>
     <use style="fill:#1f77b4;stroke:#1f77b4;" x="199.89856" xlink:href="#me14a701fd3" y="50.113617"/>
     <use style="fill:#1f77b4;stroke:#1f77b4;" x="204.165215" xlink:href="#me14a701fd3" y="23.568916"/>
     <use style="fill:#1f77b4;stroke:#1f77b4;" x="208.43187" xlink:href="#me14a701fd3" y="46.452279"/>
     <use style="fill:#1f77b4;stroke:#1f77b4;" x="212.698526" xlink:href="#me14a701fd3" y="41.875607"/>
     <use style="fill:#1f77b4;stroke:#1f77b4;" x="216.965181" xlink:href="#me14a701fd3" y="51.944286"/>
     <use style="fill:#1f77b4;stroke:#1f77b4;" x="221.231836" xlink:href="#me14a701fd3" y="127.001716"/>
     <use style="fill:#1f77b4;stroke:#1f77b4;" x="225.498492" xlink:href="#me14a701fd3" y="150.800414"/>
     <use style="fill:#1f77b4;stroke:#1f77b4;" x="229.765147" xlink:href="#me14a701fd3" y="99.541681"/>
     <use style="fill:#1f77b4;stroke:#1f77b4;" x="234.031802" xlink:href="#me14a701fd3" y="149.885079"/>
     <use style="fill:#1f77b4;stroke:#1f77b4;" x="238.298457" xlink:href="#me14a701fd3" y="155.377086"/>
     <use style="fill:#1f77b4;stroke:#1f77b4;" x="242.565113" xlink:href="#me14a701fd3" y="185.583125"/>
     <use style="fill:#1f77b4;stroke:#1f77b4;" x="246.831768" xlink:href="#me14a701fd3" y="217.619833"/>
     <use style="fill:#1f77b4;stroke:#1f77b4;" x="251.098423" xlink:href="#me14a701fd3" y="224.942509"/>
     <use style="fill:#1f77b4;stroke:#1f77b4;" x="255.365079" xlink:href="#me14a701fd3" y="235.926523"/>
     <use style="fill:#1f77b4;stroke:#1f77b4;" x="259.631734" xlink:href="#me14a701fd3" y="252.402544"/>
     <use style="fill:#1f77b4;stroke:#1f77b4;" x="263.898389" xlink:href="#me14a701fd3" y="266.132562"/>
     <use style="fill:#1f77b4;stroke:#1f77b4;" x="268.165044" xlink:href="#me14a701fd3" y="186.498459"/>
     <use style="fill:#1f77b4;stroke:#1f77b4;" x="272.4317" xlink:href="#me14a701fd3" y="122.425044"/>
     <use style="fill:#1f77b4;stroke:#1f77b4;" x="276.698355" xlink:href="#me14a701fd3" y="147.139075"/>
     <use style="fill:#1f77b4;stroke:#1f77b4;" x="280.96501" xlink:href="#me14a701fd3" y="264.301893"/>
     <use style="fill:#1f77b4;stroke:#1f77b4;" x="285.231666" xlink:href="#me14a701fd3" y="170.022438"/>
     <use style="fill:#1f77b4;stroke:#1f77b4;" x="289.498321" xlink:href="#me14a701fd3" y="162.699762"/>
     <use style="fill:#1f77b4;stroke:#1f77b4;" x="293.764976" xlink:href="#me14a701fd3" y="217.619833"/>
     <use style="fill:#1f77b4;stroke:#1f77b4;" x="298.031631" xlink:href="#me14a701fd3" y="225.857843"/>
     <use style="fill:#1f77b4;stroke:#1f77b4;" x="302.298287" xlink:href="#me14a701fd3" y="205.720484"/>
     <use style="fill:#1f77b4;stroke:#1f77b4;" x="306.564942" xlink:href="#me14a701fd3" y="185.583125"/>
     <use style="fill:#1f77b4;stroke:#1f77b4;" x="310.831597" xlink:href="#me14a701fd3" y="213.04316"/>
     <use style="fill:#1f77b4;stroke:#1f77b4;" x="315.098252" xlink:href="#me14a701fd3" y="237.757192"/>
     <use style="fill:#1f77b4;stroke:#1f77b4;" x="319.364908" xlink:href="#me14a701fd3" y="244.164534"/>
     <use style="fill:#1f77b4;stroke:#1f77b4;" x="323.631563" xlink:href="#me14a701fd3" y="252.402544"/>
     <use style="fill:#1f77b4;stroke:#1f77b4;" x="327.898218" xlink:href="#me14a701fd3" y="260.640555"/>
     <use style="fill:#1f77b4;stroke:#1f77b4;" x="332.164874" xlink:href="#me14a701fd3" y="254.233213"/>
     <use style="fill:#1f77b4;stroke:#1f77b4;" x="336.431529" xlink:href="#me14a701fd3" y="249.656541"/>
     <use style="fill:#1f77b4;stroke:#1f77b4;" x="340.698184" xlink:href="#me14a701fd3" y="247.825872"/>
     <use style="fill:#1f77b4;stroke:#1f77b4;" x="344.964839" xlink:href="#me14a701fd3" y="262.471224"/>
     <use style="fill:#1f77b4;stroke:#1f77b4;" x="349.231495" xlink:href="#me14a701fd3" y="267.047896"/>
     <use style="fill:#1f77b4;stroke:#1f77b4;" x="353.49815" xlink:href="#me14a701fd3" y="256.063882"/>
     <use style="fill:#1f77b4;stroke:#1f77b4;" x="357.764805" xlink:href="#me14a701fd3" y="257.894551"/>
     <use style="fill:#1f77b4;stroke:#1f77b4;" x="362.031461" xlink:href="#me14a701fd3" y="252.402544"/>
     <use style="fill:#1f77b4;stroke:#1f77b4;" x="366.298116" xlink:href="#me14a701fd3" y="255.148548"/>
     <use style="fill:#1f77b4;stroke:#1f77b4;" x="370.564771" xlink:href="#me14a701fd3" y="254.233213"/>
     <use style="fill:#1f77b4;stroke:#1f77b4;" x="374.831426" xlink:href="#me14a701fd3" y="258.809886"/>
     <use style="fill:#1f77b4;stroke:#1f77b4;" x="379.098082" xlink:href="#me14a701fd3" y="270.709235"/>
     <use style="fill:#1f77b4;stroke:#1f77b4;" x="383.364737" xlink:href="#me14a701fd3" y="269.7939"/>
     <use style="fill:#1f77b4;stroke:#1f77b4;" x="387.631392" xlink:href="#me14a701fd3" y="255.148548"/>
     <use style="fill:#1f77b4;stroke:#1f77b4;" x="391.898048" xlink:href="#me14a701fd3" y="247.825872"/>
     <use style="fill:#1f77b4;stroke:#1f77b4;" x="396.164703" xlink:href="#me14a701fd3" y="252.402544"/>
     <use style="fill:#1f77b4;stroke:#1f77b4;" x="400.431358" xlink:href="#me14a701fd3" y="245.995203"/>
     <use style="fill:#1f77b4;stroke:#1f77b4;" x="404.698013" xlink:href="#me14a701fd3" y="278.947245"/>
     <use style="fill:#1f77b4;stroke:#1f77b4;" x="408.964669" xlink:href="#me14a701fd3" y="275.285907"/>
    </g>
   </g>
   <g id="patch_3">
    <path d="M 50.565625 279.86258 
L 50.565625 10.8 
" style="fill:none;stroke:#000000;stroke-linecap:square;stroke-linejoin:miter;stroke-width:0.8;"/>
   </g>
   <g id="patch_4">
    <path d="M 426.03129 279.86258 
L 426.03129 10.8 
" style="fill:none;stroke:#000000;stroke-linecap:square;stroke-linejoin:miter;stroke-width:0.8;"/>
   </g>
   <g id="patch_5">
    <path d="M 50.565625 279.86258 
L 426.03129 279.86258 
" style="fill:none;stroke:#000000;stroke-linecap:square;stroke-linejoin:miter;stroke-width:0.8;"/>
   </g>
   <g id="patch_6">
    <path d="M 50.565625 10.8 
L 426.03129 10.8 
" style="fill:none;stroke:#000000;stroke-linecap:square;stroke-linejoin:miter;stroke-width:0.8;"/>
   </g>
  </g>
 </g>
 <defs>
  <clipPath id="p46115d2c33">
   <rect height="269.06258" width="375.465665" x="50.565625" y="10.8"/>
  </clipPath>
 </defs>
</svg>
