<?xml version="1.0" encoding="utf-8" standalone="no"?>
<!DOCTYPE svg PUBLIC "-//W3C//DTD SVG 1.1//EN"
  "http://www.w3.org/Graphics/SVG/1.1/DTD/svg11.dtd">
<!-- Created with matplotlib (https://matplotlib.org/) -->
<svg height="345.6pt" version="1.1" viewBox="0 0 460.8 345.6" width="460.8pt" xmlns="http://www.w3.org/2000/svg" xmlns:xlink="http://www.w3.org/1999/xlink">
 <defs>
  <style type="text/css">
*{stroke-linecap:butt;stroke-linejoin:round;}
  </style>
 </defs>
 <g id="figure_1">
  <g id="patch_1">
   <path d="M 0 345.6 
L 460.8 345.6 
L 460.8 0 
L 0 0 
z
" style="fill:#ffffff;"/>
  </g>
  <g id="axes_1">
   <g id="patch_2">
    <path d="M 44.203125 279.86258 
L 446.175518 279.86258 
L 446.175518 10.8 
L 44.203125 10.8 
z
" style="fill:#ffffff;"/>
   </g>
   <g id="matplotlib.axis_1">
    <g id="xtick_1">
     <g id="line2d_1">
      <defs>
       <path d="M 0 0 
L 0 3.5 
" id="me945333974" style="stroke:#000000;stroke-width:0.8;"/>
      </defs>
      <g>
       <use style="stroke:#000000;stroke-width:0.8;" x="93.293948" xlink:href="#me945333974" y="279.86258"/>
      </g>
     </g>
     <g id="text_1">
      <!-- 2020-03-01 -->
      <defs>
       <path d="M 19.1875 8.296875 
L 53.609375 8.296875 
L 53.609375 0 
L 7.328125 0 
L 7.328125 8.296875 
Q 12.9375 14.109375 22.625 23.890625 
Q 32.328125 33.6875 34.8125 36.53125 
Q 39.546875 41.84375 41.421875 45.53125 
Q 43.3125 49.21875 43.3125 52.78125 
Q 43.3125 58.59375 39.234375 62.25 
Q 35.15625 65.921875 28.609375 65.921875 
Q 23.96875 65.921875 18.8125 64.3125 
Q 13.671875 62.703125 7.8125 59.421875 
L 7.8125 69.390625 
Q 13.765625 71.78125 18.9375 73 
Q 24.125 74.21875 28.421875 74.21875 
Q 39.75 74.21875 46.484375 68.546875 
Q 53.21875 62.890625 53.21875 53.421875 
Q 53.21875 48.921875 51.53125 44.890625 
Q 49.859375 40.875 45.40625 35.40625 
Q 44.1875 33.984375 37.640625 27.21875 
Q 31.109375 20.453125 19.1875 8.296875 
z
" id="DejaVuSans-50"/>
       <path d="M 31.78125 66.40625 
Q 24.171875 66.40625 20.328125 58.90625 
Q 16.5 51.421875 16.5 36.375 
Q 16.5 21.390625 20.328125 13.890625 
Q 24.171875 6.390625 31.78125 6.390625 
Q 39.453125 6.390625 43.28125 13.890625 
Q 47.125 21.390625 47.125 36.375 
Q 47.125 51.421875 43.28125 58.90625 
Q 39.453125 66.40625 31.78125 66.40625 
z
M 31.78125 74.21875 
Q 44.046875 74.21875 50.515625 64.515625 
Q 56.984375 54.828125 56.984375 36.375 
Q 56.984375 17.96875 50.515625 8.265625 
Q 44.046875 -1.421875 31.78125 -1.421875 
Q 19.53125 -1.421875 13.0625 8.265625 
Q 6.59375 17.96875 6.59375 36.375 
Q 6.59375 54.828125 13.0625 64.515625 
Q 19.53125 74.21875 31.78125 74.21875 
z
" id="DejaVuSans-48"/>
       <path d="M 4.890625 31.390625 
L 31.203125 31.390625 
L 31.203125 23.390625 
L 4.890625 23.390625 
z
" id="DejaVuSans-45"/>
       <path d="M 40.578125 39.3125 
Q 47.65625 37.796875 51.625 33 
Q 55.609375 28.21875 55.609375 21.1875 
Q 55.609375 10.40625 48.1875 4.484375 
Q 40.765625 -1.421875 27.09375 -1.421875 
Q 22.515625 -1.421875 17.65625 -0.515625 
Q 12.796875 0.390625 7.625 2.203125 
L 7.625 11.71875 
Q 11.71875 9.328125 16.59375 8.109375 
Q 21.484375 6.890625 26.8125 6.890625 
Q 36.078125 6.890625 40.9375 10.546875 
Q 45.796875 14.203125 45.796875 21.1875 
Q 45.796875 27.640625 41.28125 31.265625 
Q 36.765625 34.90625 28.71875 34.90625 
L 20.21875 34.90625 
L 20.21875 43.015625 
L 29.109375 43.015625 
Q 36.375 43.015625 40.234375 45.921875 
Q 44.09375 48.828125 44.09375 54.296875 
Q 44.09375 59.90625 40.109375 62.90625 
Q 36.140625 65.921875 28.71875 65.921875 
Q 24.65625 65.921875 20.015625 65.03125 
Q 15.375 64.15625 9.8125 62.3125 
L 9.8125 71.09375 
Q 15.4375 72.65625 20.34375 73.4375 
Q 25.25 74.21875 29.59375 74.21875 
Q 40.828125 74.21875 47.359375 69.109375 
Q 53.90625 64.015625 53.90625 55.328125 
Q 53.90625 49.265625 50.4375 45.09375 
Q 46.96875 40.921875 40.578125 39.3125 
z
" id="DejaVuSans-51"/>
       <path d="M 12.40625 8.296875 
L 28.515625 8.296875 
L 28.515625 63.921875 
L 10.984375 60.40625 
L 10.984375 69.390625 
L 28.421875 72.90625 
L 38.28125 72.90625 
L 38.28125 8.296875 
L 54.390625 8.296875 
L 54.390625 0 
L 12.40625 0 
z
" id="DejaVuSans-49"/>
      </defs>
      <g transform="translate(74.698145 333.329439)rotate(-45)scale(0.1 -0.1)">
       <use xlink:href="#DejaVuSans-50"/>
       <use x="63.623047" xlink:href="#DejaVuSans-48"/>
       <use x="127.246094" xlink:href="#DejaVuSans-50"/>
       <use x="190.869141" xlink:href="#DejaVuSans-48"/>
       <use x="254.492188" xlink:href="#DejaVuSans-45"/>
       <use x="290.576172" xlink:href="#DejaVuSans-48"/>
       <use x="354.199219" xlink:href="#DejaVuSans-51"/>
       <use x="417.822266" xlink:href="#DejaVuSans-45"/>
       <use x="453.90625" xlink:href="#DejaVuSans-48"/>
       <use x="517.529297" xlink:href="#DejaVuSans-49"/>
      </g>
     </g>
    </g>
    <g id="xtick_2">
     <g id="line2d_2">
      <g>
       <use style="stroke:#000000;stroke-width:0.8;" x="154.93265" xlink:href="#me945333974" y="279.86258"/>
      </g>
     </g>
     <g id="text_2">
      <!-- 2020-03-15 -->
      <defs>
       <path d="M 10.796875 72.90625 
L 49.515625 72.90625 
L 49.515625 64.59375 
L 19.828125 64.59375 
L 19.828125 46.734375 
Q 21.96875 47.46875 24.109375 47.828125 
Q 26.265625 48.1875 28.421875 48.1875 
Q 40.625 48.1875 47.75 41.5 
Q 54.890625 34.8125 54.890625 23.390625 
Q 54.890625 11.625 47.5625 5.09375 
Q 40.234375 -1.421875 26.90625 -1.421875 
Q 22.3125 -1.421875 17.546875 -0.640625 
Q 12.796875 0.140625 7.71875 1.703125 
L 7.71875 11.625 
Q 12.109375 9.234375 16.796875 8.0625 
Q 21.484375 6.890625 26.703125 6.890625 
Q 35.15625 6.890625 40.078125 11.328125 
Q 45.015625 15.765625 45.015625 23.390625 
Q 45.015625 31 40.078125 35.4375 
Q 35.15625 39.890625 26.703125 39.890625 
Q 22.75 39.890625 18.8125 39.015625 
Q 14.890625 38.140625 10.796875 36.28125 
z
" id="DejaVuSans-53"/>
      </defs>
      <g transform="translate(136.336847 333.329439)rotate(-45)scale(0.1 -0.1)">
       <use xlink:href="#DejaVuSans-50"/>
       <use x="63.623047" xlink:href="#DejaVuSans-48"/>
       <use x="127.246094" xlink:href="#DejaVuSans-50"/>
       <use x="190.869141" xlink:href="#DejaVuSans-48"/>
       <use x="254.492188" xlink:href="#DejaVuSans-45"/>
       <use x="290.576172" xlink:href="#DejaVuSans-48"/>
       <use x="354.199219" xlink:href="#DejaVuSans-51"/>
       <use x="417.822266" xlink:href="#DejaVuSans-45"/>
       <use x="453.90625" xlink:href="#DejaVuSans-49"/>
       <use x="517.529297" xlink:href="#DejaVuSans-53"/>
      </g>
     </g>
    </g>
    <g id="xtick_3">
     <g id="line2d_3">
      <g>
       <use style="stroke:#000000;stroke-width:0.8;" x="229.779646" xlink:href="#me945333974" y="279.86258"/>
      </g>
     </g>
     <g id="text_3">
      <!-- 2020-04-01 -->
      <defs>
       <path d="M 37.796875 64.3125 
L 12.890625 25.390625 
L 37.796875 25.390625 
z
M 35.203125 72.90625 
L 47.609375 72.90625 
L 47.609375 25.390625 
L 58.015625 25.390625 
L 58.015625 17.1875 
L 47.609375 17.1875 
L 47.609375 0 
L 37.796875 0 
L 37.796875 17.1875 
L 4.890625 17.1875 
L 4.890625 26.703125 
z
" id="DejaVuSans-52"/>
      </defs>
      <g transform="translate(211.183842 333.329439)rotate(-45)scale(0.1 -0.1)">
       <use xlink:href="#DejaVuSans-50"/>
       <use x="63.623047" xlink:href="#DejaVuSans-48"/>
       <use x="127.246094" xlink:href="#DejaVuSans-50"/>
       <use x="190.869141" xlink:href="#DejaVuSans-48"/>
       <use x="254.492188" xlink:href="#DejaVuSans-45"/>
       <use x="290.576172" xlink:href="#DejaVuSans-48"/>
       <use x="354.199219" xlink:href="#DejaVuSans-52"/>
       <use x="417.822266" xlink:href="#DejaVuSans-45"/>
       <use x="453.90625" xlink:href="#DejaVuSans-48"/>
       <use x="517.529297" xlink:href="#DejaVuSans-49"/>
      </g>
     </g>
    </g>
    <g id="xtick_4">
     <g id="line2d_4">
      <g>
       <use style="stroke:#000000;stroke-width:0.8;" x="291.418348" xlink:href="#me945333974" y="279.86258"/>
      </g>
     </g>
     <g id="text_4">
      <!-- 2020-04-15 -->
      <g transform="translate(272.822544 333.329439)rotate(-45)scale(0.1 -0.1)">
       <use xlink:href="#DejaVuSans-50"/>
       <use x="63.623047" xlink:href="#DejaVuSans-48"/>
       <use x="127.246094" xlink:href="#DejaVuSans-50"/>
       <use x="190.869141" xlink:href="#DejaVuSans-48"/>
       <use x="254.492188" xlink:href="#DejaVuSans-45"/>
       <use x="290.576172" xlink:href="#DejaVuSans-48"/>
       <use x="354.199219" xlink:href="#DejaVuSans-52"/>
       <use x="417.822266" xlink:href="#DejaVuSans-45"/>
       <use x="453.90625" xlink:href="#DejaVuSans-49"/>
       <use x="517.529297" xlink:href="#DejaVuSans-53"/>
      </g>
     </g>
    </g>
    <g id="xtick_5">
     <g id="line2d_5">
      <g>
       <use style="stroke:#000000;stroke-width:0.8;" x="361.862579" xlink:href="#me945333974" y="279.86258"/>
      </g>
     </g>
     <g id="text_5">
      <!-- 2020-05-01 -->
      <g transform="translate(343.266775 333.329439)rotate(-45)scale(0.1 -0.1)">
       <use xlink:href="#DejaVuSans-50"/>
       <use x="63.623047" xlink:href="#DejaVuSans-48"/>
       <use x="127.246094" xlink:href="#DejaVuSans-50"/>
       <use x="190.869141" xlink:href="#DejaVuSans-48"/>
       <use x="254.492188" xlink:href="#DejaVuSans-45"/>
       <use x="290.576172" xlink:href="#DejaVuSans-48"/>
       <use x="354.199219" xlink:href="#DejaVuSans-53"/>
       <use x="417.822266" xlink:href="#DejaVuSans-45"/>
       <use x="453.90625" xlink:href="#DejaVuSans-48"/>
       <use x="517.529297" xlink:href="#DejaVuSans-49"/>
      </g>
     </g>
    </g>
    <g id="xtick_6">
     <g id="line2d_6">
      <g>
       <use style="stroke:#000000;stroke-width:0.8;" x="423.501281" xlink:href="#me945333974" y="279.86258"/>
      </g>
     </g>
     <g id="text_6">
      <!-- 2020-05-15 -->
      <g transform="translate(404.905477 333.329439)rotate(-45)scale(0.1 -0.1)">
       <use xlink:href="#DejaVuSans-50"/>
       <use x="63.623047" xlink:href="#DejaVuSans-48"/>
       <use x="127.246094" xlink:href="#DejaVuSans-50"/>
       <use x="190.869141" xlink:href="#DejaVuSans-48"/>
       <use x="254.492188" xlink:href="#DejaVuSans-45"/>
       <use x="290.576172" xlink:href="#DejaVuSans-48"/>
       <use x="354.199219" xlink:href="#DejaVuSans-53"/>
       <use x="417.822266" xlink:href="#DejaVuSans-45"/>
       <use x="453.90625" xlink:href="#DejaVuSans-49"/>
       <use x="517.529297" xlink:href="#DejaVuSans-53"/>
      </g>
     </g>
    </g>
   </g>
   <g id="matplotlib.axis_2">
    <g id="ytick_1">
     <g id="line2d_7">
      <defs>
       <path d="M 0 0 
L -3.5 0 
" id="m73b2371112" style="stroke:#000000;stroke-width:0.8;"/>
      </defs>
      <g>
       <use style="stroke:#000000;stroke-width:0.8;" x="44.203125" xlink:href="#m73b2371112" y="279.86258"/>
      </g>
     </g>
     <g id="text_7">
      <!-- 0 -->
      <g transform="translate(30.840625 283.661798)scale(0.1 -0.1)">
       <use xlink:href="#DejaVuSans-48"/>
      </g>
     </g>
    </g>
    <g id="ytick_2">
     <g id="line2d_8">
      <g>
       <use style="stroke:#000000;stroke-width:0.8;" x="44.203125" xlink:href="#m73b2371112" y="244.272291"/>
      </g>
     </g>
     <g id="text_8">
      <!-- 5 -->
      <g transform="translate(30.840625 248.07151)scale(0.1 -0.1)">
       <use xlink:href="#DejaVuSans-53"/>
      </g>
     </g>
    </g>
    <g id="ytick_3">
     <g id="line2d_9">
      <g>
       <use style="stroke:#000000;stroke-width:0.8;" x="44.203125" xlink:href="#m73b2371112" y="208.682003"/>
      </g>
     </g>
     <g id="text_9">
      <!-- 10 -->
      <g transform="translate(24.478125 212.481222)scale(0.1 -0.1)">
       <use xlink:href="#DejaVuSans-49"/>
       <use x="63.623047" xlink:href="#DejaVuSans-48"/>
      </g>
     </g>
    </g>
    <g id="ytick_4">
     <g id="line2d_10">
      <g>
       <use style="stroke:#000000;stroke-width:0.8;" x="44.203125" xlink:href="#m73b2371112" y="173.091715"/>
      </g>
     </g>
     <g id="text_10">
      <!-- 15 -->
      <g transform="translate(24.478125 176.890933)scale(0.1 -0.1)">
       <use xlink:href="#DejaVuSans-49"/>
       <use x="63.623047" xlink:href="#DejaVuSans-53"/>
      </g>
     </g>
    </g>
    <g id="ytick_5">
     <g id="line2d_11">
      <g>
       <use style="stroke:#000000;stroke-width:0.8;" x="44.203125" xlink:href="#m73b2371112" y="137.501426"/>
      </g>
     </g>
     <g id="text_11">
      <!-- 20 -->
      <g transform="translate(24.478125 141.300645)scale(0.1 -0.1)">
       <use xlink:href="#DejaVuSans-50"/>
       <use x="63.623047" xlink:href="#DejaVuSans-48"/>
      </g>
     </g>
    </g>
    <g id="ytick_6">
     <g id="line2d_12">
      <g>
       <use style="stroke:#000000;stroke-width:0.8;" x="44.203125" xlink:href="#m73b2371112" y="101.911138"/>
      </g>
     </g>
     <g id="text_12">
      <!-- 25 -->
      <g transform="translate(24.478125 105.710357)scale(0.1 -0.1)">
       <use xlink:href="#DejaVuSans-50"/>
       <use x="63.623047" xlink:href="#DejaVuSans-53"/>
      </g>
     </g>
    </g>
    <g id="ytick_7">
     <g id="line2d_13">
      <g>
       <use style="stroke:#000000;stroke-width:0.8;" x="44.203125" xlink:href="#m73b2371112" y="66.32085"/>
      </g>
     </g>
     <g id="text_13">
      <!-- 30 -->
      <g transform="translate(24.478125 70.120069)scale(0.1 -0.1)">
       <use xlink:href="#DejaVuSans-51"/>
       <use x="63.623047" xlink:href="#DejaVuSans-48"/>
      </g>
     </g>
    </g>
    <g id="ytick_8">
     <g id="line2d_14">
      <g>
       <use style="stroke:#000000;stroke-width:0.8;" x="44.203125" xlink:href="#m73b2371112" y="30.730561"/>
      </g>
     </g>
     <g id="text_14">
      <!-- 35 -->
      <g transform="translate(24.478125 34.52978)scale(0.1 -0.1)">
       <use xlink:href="#DejaVuSans-51"/>
       <use x="63.623047" xlink:href="#DejaVuSans-53"/>
      </g>
     </g>
    </g>
    <g id="text_15">
     <!-- VC uci (Media 3 días) -->
     <defs>
      <path d="M 28.609375 0 
L 0.78125 72.90625 
L 11.078125 72.90625 
L 34.1875 11.53125 
L 57.328125 72.90625 
L 67.578125 72.90625 
L 39.796875 0 
z
" id="DejaVuSans-86"/>
      <path d="M 64.40625 67.28125 
L 64.40625 56.890625 
Q 59.421875 61.53125 53.78125 63.8125 
Q 48.140625 66.109375 41.796875 66.109375 
Q 29.296875 66.109375 22.65625 58.46875 
Q 16.015625 50.828125 16.015625 36.375 
Q 16.015625 21.96875 22.65625 14.328125 
Q 29.296875 6.6875 41.796875 6.6875 
Q 48.140625 6.6875 53.78125 8.984375 
Q 59.421875 11.28125 64.40625 15.921875 
L 64.40625 5.609375 
Q 59.234375 2.09375 53.4375 0.328125 
Q 47.65625 -1.421875 41.21875 -1.421875 
Q 24.65625 -1.421875 15.125 8.703125 
Q 5.609375 18.84375 5.609375 36.375 
Q 5.609375 53.953125 15.125 64.078125 
Q 24.65625 74.21875 41.21875 74.21875 
Q 47.75 74.21875 53.53125 72.484375 
Q 59.328125 70.75 64.40625 67.28125 
z
" id="DejaVuSans-67"/>
      <path id="DejaVuSans-32"/>
      <path d="M 8.5 21.578125 
L 8.5 54.6875 
L 17.484375 54.6875 
L 17.484375 21.921875 
Q 17.484375 14.15625 20.5 10.265625 
Q 23.53125 6.390625 29.59375 6.390625 
Q 36.859375 6.390625 41.078125 11.03125 
Q 45.3125 15.671875 45.3125 23.6875 
L 45.3125 54.6875 
L 54.296875 54.6875 
L 54.296875 0 
L 45.3125 0 
L 45.3125 8.40625 
Q 42.046875 3.421875 37.71875 1 
Q 33.40625 -1.421875 27.6875 -1.421875 
Q 18.265625 -1.421875 13.375 4.4375 
Q 8.5 10.296875 8.5 21.578125 
z
M 31.109375 56 
z
" id="DejaVuSans-117"/>
      <path d="M 48.78125 52.59375 
L 48.78125 44.1875 
Q 44.96875 46.296875 41.140625 47.34375 
Q 37.3125 48.390625 33.40625 48.390625 
Q 24.65625 48.390625 19.8125 42.84375 
Q 14.984375 37.3125 14.984375 27.296875 
Q 14.984375 17.28125 19.8125 11.734375 
Q 24.65625 6.203125 33.40625 6.203125 
Q 37.3125 6.203125 41.140625 7.25 
Q 44.96875 8.296875 48.78125 10.40625 
L 48.78125 2.09375 
Q 45.015625 0.34375 40.984375 -0.53125 
Q 36.96875 -1.421875 32.421875 -1.421875 
Q 20.0625 -1.421875 12.78125 6.34375 
Q 5.515625 14.109375 5.515625 27.296875 
Q 5.515625 40.671875 12.859375 48.328125 
Q 20.21875 56 33.015625 56 
Q 37.15625 56 41.109375 55.140625 
Q 45.0625 54.296875 48.78125 52.59375 
z
" id="DejaVuSans-99"/>
      <path d="M 9.421875 54.6875 
L 18.40625 54.6875 
L 18.40625 0 
L 9.421875 0 
z
M 9.421875 75.984375 
L 18.40625 75.984375 
L 18.40625 64.59375 
L 9.421875 64.59375 
z
" id="DejaVuSans-105"/>
      <path d="M 31 75.875 
Q 24.46875 64.65625 21.28125 53.65625 
Q 18.109375 42.671875 18.109375 31.390625 
Q 18.109375 20.125 21.3125 9.0625 
Q 24.515625 -2 31 -13.1875 
L 23.1875 -13.1875 
Q 15.875 -1.703125 12.234375 9.375 
Q 8.59375 20.453125 8.59375 31.390625 
Q 8.59375 42.28125 12.203125 53.3125 
Q 15.828125 64.359375 23.1875 75.875 
z
" id="DejaVuSans-40"/>
      <path d="M 9.8125 72.90625 
L 24.515625 72.90625 
L 43.109375 23.296875 
L 61.8125 72.90625 
L 76.515625 72.90625 
L 76.515625 0 
L 66.890625 0 
L 66.890625 64.015625 
L 48.09375 14.015625 
L 38.1875 14.015625 
L 19.390625 64.015625 
L 19.390625 0 
L 9.8125 0 
z
" id="DejaVuSans-77"/>
      <path d="M 56.203125 29.59375 
L 56.203125 25.203125 
L 14.890625 25.203125 
Q 15.484375 15.921875 20.484375 11.0625 
Q 25.484375 6.203125 34.421875 6.203125 
Q 39.59375 6.203125 44.453125 7.46875 
Q 49.3125 8.734375 54.109375 11.28125 
L 54.109375 2.78125 
Q 49.265625 0.734375 44.1875 -0.34375 
Q 39.109375 -1.421875 33.890625 -1.421875 
Q 20.796875 -1.421875 13.15625 6.1875 
Q 5.515625 13.8125 5.515625 26.8125 
Q 5.515625 40.234375 12.765625 48.109375 
Q 20.015625 56 32.328125 56 
Q 43.359375 56 49.78125 48.890625 
Q 56.203125 41.796875 56.203125 29.59375 
z
M 47.21875 32.234375 
Q 47.125 39.59375 43.09375 43.984375 
Q 39.0625 48.390625 32.421875 48.390625 
Q 24.90625 48.390625 20.390625 44.140625 
Q 15.875 39.890625 15.1875 32.171875 
z
" id="DejaVuSans-101"/>
      <path d="M 45.40625 46.390625 
L 45.40625 75.984375 
L 54.390625 75.984375 
L 54.390625 0 
L 45.40625 0 
L 45.40625 8.203125 
Q 42.578125 3.328125 38.25 0.953125 
Q 33.9375 -1.421875 27.875 -1.421875 
Q 17.96875 -1.421875 11.734375 6.484375 
Q 5.515625 14.40625 5.515625 27.296875 
Q 5.515625 40.1875 11.734375 48.09375 
Q 17.96875 56 27.875 56 
Q 33.9375 56 38.25 53.625 
Q 42.578125 51.265625 45.40625 46.390625 
z
M 14.796875 27.296875 
Q 14.796875 17.390625 18.875 11.75 
Q 22.953125 6.109375 30.078125 6.109375 
Q 37.203125 6.109375 41.296875 11.75 
Q 45.40625 17.390625 45.40625 27.296875 
Q 45.40625 37.203125 41.296875 42.84375 
Q 37.203125 48.484375 30.078125 48.484375 
Q 22.953125 48.484375 18.875 42.84375 
Q 14.796875 37.203125 14.796875 27.296875 
z
" id="DejaVuSans-100"/>
      <path d="M 34.28125 27.484375 
Q 23.390625 27.484375 19.1875 25 
Q 14.984375 22.515625 14.984375 16.5 
Q 14.984375 11.71875 18.140625 8.90625 
Q 21.296875 6.109375 26.703125 6.109375 
Q 34.1875 6.109375 38.703125 11.40625 
Q 43.21875 16.703125 43.21875 25.484375 
L 43.21875 27.484375 
z
M 52.203125 31.203125 
L 52.203125 0 
L 43.21875 0 
L 43.21875 8.296875 
Q 40.140625 3.328125 35.546875 0.953125 
Q 30.953125 -1.421875 24.3125 -1.421875 
Q 15.921875 -1.421875 10.953125 3.296875 
Q 6 8.015625 6 15.921875 
Q 6 25.140625 12.171875 29.828125 
Q 18.359375 34.515625 30.609375 34.515625 
L 43.21875 34.515625 
L 43.21875 35.40625 
Q 43.21875 41.609375 39.140625 45 
Q 35.0625 48.390625 27.6875 48.390625 
Q 23 48.390625 18.546875 47.265625 
Q 14.109375 46.140625 10.015625 43.890625 
L 10.015625 52.203125 
Q 14.9375 54.109375 19.578125 55.046875 
Q 24.21875 56 28.609375 56 
Q 40.484375 56 46.34375 49.84375 
Q 52.203125 43.703125 52.203125 31.203125 
z
" id="DejaVuSans-97"/>
      <path d="M 20.65625 79.984375 
L 30.375 79.984375 
L 14.46875 61.625 
L 6.984375 61.625 
z
M 9.421875 54.6875 
L 18.40625 54.6875 
L 18.40625 0 
L 9.421875 0 
z
M 13.921875 56 
z
" id="DejaVuSans-237"/>
      <path d="M 44.28125 53.078125 
L 44.28125 44.578125 
Q 40.484375 46.53125 36.375 47.5 
Q 32.28125 48.484375 27.875 48.484375 
Q 21.1875 48.484375 17.84375 46.4375 
Q 14.5 44.390625 14.5 40.28125 
Q 14.5 37.15625 16.890625 35.375 
Q 19.28125 33.59375 26.515625 31.984375 
L 29.59375 31.296875 
Q 39.15625 29.25 43.1875 25.515625 
Q 47.21875 21.78125 47.21875 15.09375 
Q 47.21875 7.46875 41.1875 3.015625 
Q 35.15625 -1.421875 24.609375 -1.421875 
Q 20.21875 -1.421875 15.453125 -0.5625 
Q 10.6875 0.296875 5.421875 2 
L 5.421875 11.28125 
Q 10.40625 8.6875 15.234375 7.390625 
Q 20.0625 6.109375 24.8125 6.109375 
Q 31.15625 6.109375 34.5625 8.28125 
Q 37.984375 10.453125 37.984375 14.40625 
Q 37.984375 18.0625 35.515625 20.015625 
Q 33.0625 21.96875 24.703125 23.78125 
L 21.578125 24.515625 
Q 13.234375 26.265625 9.515625 29.90625 
Q 5.8125 33.546875 5.8125 39.890625 
Q 5.8125 47.609375 11.28125 51.796875 
Q 16.75 56 26.8125 56 
Q 31.78125 56 36.171875 55.265625 
Q 40.578125 54.546875 44.28125 53.078125 
z
" id="DejaVuSans-115"/>
      <path d="M 8.015625 75.875 
L 15.828125 75.875 
Q 23.140625 64.359375 26.78125 53.3125 
Q 30.421875 42.28125 30.421875 31.390625 
Q 30.421875 20.453125 26.78125 9.375 
Q 23.140625 -1.703125 15.828125 -13.1875 
L 8.015625 -13.1875 
Q 14.5 -2 17.703125 9.0625 
Q 20.90625 20.125 20.90625 31.390625 
Q 20.90625 42.671875 17.703125 53.65625 
Q 14.5 64.65625 8.015625 75.875 
z
" id="DejaVuSans-41"/>
     </defs>
     <g transform="translate(18.398438 198.239102)rotate(-90)scale(0.1 -0.1)">
      <use xlink:href="#DejaVuSans-86"/>
      <use x="68.408203" xlink:href="#DejaVuSans-67"/>
      <use x="138.232422" xlink:href="#DejaVuSans-32"/>
      <use x="170.019531" xlink:href="#DejaVuSans-117"/>
      <use x="233.398438" xlink:href="#DejaVuSans-99"/>
      <use x="288.378906" xlink:href="#DejaVuSans-105"/>
      <use x="316.162109" xlink:href="#DejaVuSans-32"/>
      <use x="347.949219" xlink:href="#DejaVuSans-40"/>
      <use x="386.962891" xlink:href="#DejaVuSans-77"/>
      <use x="473.242188" xlink:href="#DejaVuSans-101"/>
      <use x="534.765625" xlink:href="#DejaVuSans-100"/>
      <use x="598.242188" xlink:href="#DejaVuSans-105"/>
      <use x="626.025391" xlink:href="#DejaVuSans-97"/>
      <use x="687.304688" xlink:href="#DejaVuSans-32"/>
      <use x="719.091797" xlink:href="#DejaVuSans-51"/>
      <use x="782.714844" xlink:href="#DejaVuSans-32"/>
      <use x="814.501953" xlink:href="#DejaVuSans-100"/>
      <use x="877.978516" xlink:href="#DejaVuSans-237"/>
      <use x="905.761719" xlink:href="#DejaVuSans-97"/>
      <use x="967.041016" xlink:href="#DejaVuSans-115"/>
      <use x="1019.140625" xlink:href="#DejaVuSans-41"/>
     </g>
    </g>
   </g>
   <g id="line2d_15">
    <path clip-path="url(#pf28262c70a)" d="M 62.474597 275.117208 
L 66.877362 277.489894 
L 71.280126 277.489894 
L 75.682891 277.489894 
L 80.085655 277.489894 
L 84.48842 277.489894 
L 88.891184 279.86258 
L 93.293948 279.86258 
L 97.696713 279.86258 
L 102.099477 275.117208 
L 106.502242 272.744522 
L 110.905006 267.99915 
L 115.307771 272.744522 
L 119.710535 272.744522 
L 124.113299 277.489894 
L 128.516064 275.117208 
L 132.918828 272.744522 
L 137.321593 265.626464 
L 141.724357 251.390349 
L 146.127122 239.52692 
L 150.529886 227.66349 
L 154.93265 220.545432 
L 159.335415 225.290804 
L 163.738179 213.427375 
L 168.140944 189.700516 
L 172.543708 163.600971 
L 176.946473 128.010683 
L 181.349237 120.892625 
L 185.752001 90.047709 
L 190.154766 59.202792 
L 194.55753 35.475933 
L 198.960295 23.612504 
L 203.363059 35.475933 
L 207.765824 59.202792 
L 212.168588 75.811593 
L 216.571353 118.519939 
L 220.974117 118.519939 
L 225.376881 139.874112 
L 229.779646 146.99217 
L 234.18241 175.464401 
L 238.585175 194.445888 
L 242.987939 211.054689 
L 247.390704 215.800061 
L 251.793468 227.66349 
L 256.196232 237.154234 
L 260.598997 151.737542 
L 265.001761 116.147253 
L 269.404526 116.147253 
L 273.80729 218.172747 
L 278.210055 244.272291 
L 282.612819 241.899605 
L 287.015583 230.036176 
L 291.418348 163.600971 
L 295.821112 158.855599 
L 300.223877 165.973657 
L 304.626641 237.154234 
L 309.029406 246.644977 
L 313.43217 251.390349 
L 317.834934 265.626464 
L 322.237699 270.371836 
L 326.640463 272.744522 
L 331.043228 270.371836 
L 335.445992 270.371836 
L 339.848757 267.99915 
L 344.251521 265.626464 
L 348.654285 260.881093 
L 353.05705 263.253778 
L 357.459814 196.818574 
L 361.862579 201.563945 
L 366.265343 196.818574 
L 370.668108 265.626464 
L 375.070872 265.626464 
L 379.473637 272.744522 
L 383.876401 270.371836 
L 388.279165 267.99915 
L 392.68193 260.881093 
L 397.084694 251.390349 
L 401.487459 256.135721 
L 405.890223 260.881093 
L 410.292988 277.489894 
L 414.695752 277.489894 
L 419.098516 270.371836 
L 423.501281 267.99915 
L 427.904045 265.626464 
" style="fill:none;stroke:#1f77b4;stroke-linecap:square;stroke-width:1.5;"/>
    <defs>
     <path d="M 0 1.5 
C 0.397805 1.5 0.77937 1.341951 1.06066 1.06066 
C 1.341951 0.77937 1.5 0.397805 1.5 0 
C 1.5 -0.397805 1.341951 -0.77937 1.06066 -1.06066 
C 0.77937 -1.341951 0.397805 -1.5 0 -1.5 
C -0.397805 -1.5 -0.77937 -1.341951 -1.06066 -1.06066 
C -1.341951 -0.77937 -1.5 -0.397805 -1.5 0 
C -1.5 0.397805 -1.341951 0.77937 -1.06066 1.06066 
C -0.77937 1.341951 -0.397805 1.5 0 1.5 
z
" id="mef4428fe0c" style="stroke:#1f77b4;"/>
    </defs>
    <g clip-path="url(#pf28262c70a)">
     <use style="fill:#1f77b4;stroke:#1f77b4;" x="62.474597" xlink:href="#mef4428fe0c" y="275.117208"/>
     <use style="fill:#1f77b4;stroke:#1f77b4;" x="66.877362" xlink:href="#mef4428fe0c" y="277.489894"/>
     <use style="fill:#1f77b4;stroke:#1f77b4;" x="71.280126" xlink:href="#mef4428fe0c" y="277.489894"/>
     <use style="fill:#1f77b4;stroke:#1f77b4;" x="75.682891" xlink:href="#mef4428fe0c" y="277.489894"/>
     <use style="fill:#1f77b4;stroke:#1f77b4;" x="80.085655" xlink:href="#mef4428fe0c" y="277.489894"/>
     <use style="fill:#1f77b4;stroke:#1f77b4;" x="84.48842" xlink:href="#mef4428fe0c" y="277.489894"/>
     <use style="fill:#1f77b4;stroke:#1f77b4;" x="88.891184" xlink:href="#mef4428fe0c" y="279.86258"/>
     <use style="fill:#1f77b4;stroke:#1f77b4;" x="93.293948" xlink:href="#mef4428fe0c" y="279.86258"/>
     <use style="fill:#1f77b4;stroke:#1f77b4;" x="97.696713" xlink:href="#mef4428fe0c" y="279.86258"/>
     <use style="fill:#1f77b4;stroke:#1f77b4;" x="102.099477" xlink:href="#mef4428fe0c" y="275.117208"/>
     <use style="fill:#1f77b4;stroke:#1f77b4;" x="106.502242" xlink:href="#mef4428fe0c" y="272.744522"/>
     <use style="fill:#1f77b4;stroke:#1f77b4;" x="110.905006" xlink:href="#mef4428fe0c" y="267.99915"/>
     <use style="fill:#1f77b4;stroke:#1f77b4;" x="115.307771" xlink:href="#mef4428fe0c" y="272.744522"/>
     <use style="fill:#1f77b4;stroke:#1f77b4;" x="119.710535" xlink:href="#mef4428fe0c" y="272.744522"/>
     <use style="fill:#1f77b4;stroke:#1f77b4;" x="124.113299" xlink:href="#mef4428fe0c" y="277.489894"/>
     <use style="fill:#1f77b4;stroke:#1f77b4;" x="128.516064" xlink:href="#mef4428fe0c" y="275.117208"/>
     <use style="fill:#1f77b4;stroke:#1f77b4;" x="132.918828" xlink:href="#mef4428fe0c" y="272.744522"/>
     <use style="fill:#1f77b4;stroke:#1f77b4;" x="137.321593" xlink:href="#mef4428fe0c" y="265.626464"/>
     <use style="fill:#1f77b4;stroke:#1f77b4;" x="141.724357" xlink:href="#mef4428fe0c" y="251.390349"/>
     <use style="fill:#1f77b4;stroke:#1f77b4;" x="146.127122" xlink:href="#mef4428fe0c" y="239.52692"/>
     <use style="fill:#1f77b4;stroke:#1f77b4;" x="150.529886" xlink:href="#mef4428fe0c" y="227.66349"/>
     <use style="fill:#1f77b4;stroke:#1f77b4;" x="154.93265" xlink:href="#mef4428fe0c" y="220.545432"/>
     <use style="fill:#1f77b4;stroke:#1f77b4;" x="159.335415" xlink:href="#mef4428fe0c" y="225.290804"/>
     <use style="fill:#1f77b4;stroke:#1f77b4;" x="163.738179" xlink:href="#mef4428fe0c" y="213.427375"/>
     <use style="fill:#1f77b4;stroke:#1f77b4;" x="168.140944" xlink:href="#mef4428fe0c" y="189.700516"/>
     <use style="fill:#1f77b4;stroke:#1f77b4;" x="172.543708" xlink:href="#mef4428fe0c" y="163.600971"/>
     <use style="fill:#1f77b4;stroke:#1f77b4;" x="176.946473" xlink:href="#mef4428fe0c" y="128.010683"/>
     <use style="fill:#1f77b4;stroke:#1f77b4;" x="181.349237" xlink:href="#mef4428fe0c" y="120.892625"/>
     <use style="fill:#1f77b4;stroke:#1f77b4;" x="185.752001" xlink:href="#mef4428fe0c" y="90.047709"/>
     <use style="fill:#1f77b4;stroke:#1f77b4;" x="190.154766" xlink:href="#mef4428fe0c" y="59.202792"/>
     <use style="fill:#1f77b4;stroke:#1f77b4;" x="194.55753" xlink:href="#mef4428fe0c" y="35.475933"/>
     <use style="fill:#1f77b4;stroke:#1f77b4;" x="198.960295" xlink:href="#mef4428fe0c" y="23.612504"/>
     <use style="fill:#1f77b4;stroke:#1f77b4;" x="203.363059" xlink:href="#mef4428fe0c" y="35.475933"/>
     <use style="fill:#1f77b4;stroke:#1f77b4;" x="207.765824" xlink:href="#mef4428fe0c" y="59.202792"/>
     <use style="fill:#1f77b4;stroke:#1f77b4;" x="212.168588" xlink:href="#mef4428fe0c" y="75.811593"/>
     <use style="fill:#1f77b4;stroke:#1f77b4;" x="216.571353" xlink:href="#mef4428fe0c" y="118.519939"/>
     <use style="fill:#1f77b4;stroke:#1f77b4;" x="220.974117" xlink:href="#mef4428fe0c" y="118.519939"/>
     <use style="fill:#1f77b4;stroke:#1f77b4;" x="225.376881" xlink:href="#mef4428fe0c" y="139.874112"/>
     <use style="fill:#1f77b4;stroke:#1f77b4;" x="229.779646" xlink:href="#mef4428fe0c" y="146.99217"/>
     <use style="fill:#1f77b4;stroke:#1f77b4;" x="234.18241" xlink:href="#mef4428fe0c" y="175.464401"/>
     <use style="fill:#1f77b4;stroke:#1f77b4;" x="238.585175" xlink:href="#mef4428fe0c" y="194.445888"/>
     <use style="fill:#1f77b4;stroke:#1f77b4;" x="242.987939" xlink:href="#mef4428fe0c" y="211.054689"/>
     <use style="fill:#1f77b4;stroke:#1f77b4;" x="247.390704" xlink:href="#mef4428fe0c" y="215.800061"/>
     <use style="fill:#1f77b4;stroke:#1f77b4;" x="251.793468" xlink:href="#mef4428fe0c" y="227.66349"/>
     <use style="fill:#1f77b4;stroke:#1f77b4;" x="256.196232" xlink:href="#mef4428fe0c" y="237.154234"/>
     <use style="fill:#1f77b4;stroke:#1f77b4;" x="260.598997" xlink:href="#mef4428fe0c" y="151.737542"/>
     <use style="fill:#1f77b4;stroke:#1f77b4;" x="265.001761" xlink:href="#mef4428fe0c" y="116.147253"/>
     <use style="fill:#1f77b4;stroke:#1f77b4;" x="269.404526" xlink:href="#mef4428fe0c" y="116.147253"/>
     <use style="fill:#1f77b4;stroke:#1f77b4;" x="273.80729" xlink:href="#mef4428fe0c" y="218.172747"/>
     <use style="fill:#1f77b4;stroke:#1f77b4;" x="278.210055" xlink:href="#mef4428fe0c" y="244.272291"/>
     <use style="fill:#1f77b4;stroke:#1f77b4;" x="282.612819" xlink:href="#mef4428fe0c" y="241.899605"/>
     <use style="fill:#1f77b4;stroke:#1f77b4;" x="287.015583" xlink:href="#mef4428fe0c" y="230.036176"/>
     <use style="fill:#1f77b4;stroke:#1f77b4;" x="291.418348" xlink:href="#mef4428fe0c" y="163.600971"/>
     <use style="fill:#1f77b4;stroke:#1f77b4;" x="295.821112" xlink:href="#mef4428fe0c" y="158.855599"/>
     <use style="fill:#1f77b4;stroke:#1f77b4;" x="300.223877" xlink:href="#mef4428fe0c" y="165.973657"/>
     <use style="fill:#1f77b4;stroke:#1f77b4;" x="304.626641" xlink:href="#mef4428fe0c" y="237.154234"/>
     <use style="fill:#1f77b4;stroke:#1f77b4;" x="309.029406" xlink:href="#mef4428fe0c" y="246.644977"/>
     <use style="fill:#1f77b4;stroke:#1f77b4;" x="313.43217" xlink:href="#mef4428fe0c" y="251.390349"/>
     <use style="fill:#1f77b4;stroke:#1f77b4;" x="317.834934" xlink:href="#mef4428fe0c" y="265.626464"/>
     <use style="fill:#1f77b4;stroke:#1f77b4;" x="322.237699" xlink:href="#mef4428fe0c" y="270.371836"/>
     <use style="fill:#1f77b4;stroke:#1f77b4;" x="326.640463" xlink:href="#mef4428fe0c" y="272.744522"/>
     <use style="fill:#1f77b4;stroke:#1f77b4;" x="331.043228" xlink:href="#mef4428fe0c" y="270.371836"/>
     <use style="fill:#1f77b4;stroke:#1f77b4;" x="335.445992" xlink:href="#mef4428fe0c" y="270.371836"/>
     <use style="fill:#1f77b4;stroke:#1f77b4;" x="339.848757" xlink:href="#mef4428fe0c" y="267.99915"/>
     <use style="fill:#1f77b4;stroke:#1f77b4;" x="344.251521" xlink:href="#mef4428fe0c" y="265.626464"/>
     <use style="fill:#1f77b4;stroke:#1f77b4;" x="348.654285" xlink:href="#mef4428fe0c" y="260.881093"/>
     <use style="fill:#1f77b4;stroke:#1f77b4;" x="353.05705" xlink:href="#mef4428fe0c" y="263.253778"/>
     <use style="fill:#1f77b4;stroke:#1f77b4;" x="357.459814" xlink:href="#mef4428fe0c" y="196.818574"/>
     <use style="fill:#1f77b4;stroke:#1f77b4;" x="361.862579" xlink:href="#mef4428fe0c" y="201.563945"/>
     <use style="fill:#1f77b4;stroke:#1f77b4;" x="366.265343" xlink:href="#mef4428fe0c" y="196.818574"/>
     <use style="fill:#1f77b4;stroke:#1f77b4;" x="370.668108" xlink:href="#mef4428fe0c" y="265.626464"/>
     <use style="fill:#1f77b4;stroke:#1f77b4;" x="375.070872" xlink:href="#mef4428fe0c" y="265.626464"/>
     <use style="fill:#1f77b4;stroke:#1f77b4;" x="379.473637" xlink:href="#mef4428fe0c" y="272.744522"/>
     <use style="fill:#1f77b4;stroke:#1f77b4;" x="383.876401" xlink:href="#mef4428fe0c" y="270.371836"/>
     <use style="fill:#1f77b4;stroke:#1f77b4;" x="388.279165" xlink:href="#mef4428fe0c" y="267.99915"/>
     <use style="fill:#1f77b4;stroke:#1f77b4;" x="392.68193" xlink:href="#mef4428fe0c" y="260.881093"/>
     <use style="fill:#1f77b4;stroke:#1f77b4;" x="397.084694" xlink:href="#mef4428fe0c" y="251.390349"/>
     <use style="fill:#1f77b4;stroke:#1f77b4;" x="401.487459" xlink:href="#mef4428fe0c" y="256.135721"/>
     <use style="fill:#1f77b4;stroke:#1f77b4;" x="405.890223" xlink:href="#mef4428fe0c" y="260.881093"/>
     <use style="fill:#1f77b4;stroke:#1f77b4;" x="410.292988" xlink:href="#mef4428fe0c" y="277.489894"/>
     <use style="fill:#1f77b4;stroke:#1f77b4;" x="414.695752" xlink:href="#mef4428fe0c" y="277.489894"/>
     <use style="fill:#1f77b4;stroke:#1f77b4;" x="419.098516" xlink:href="#mef4428fe0c" y="270.371836"/>
     <use style="fill:#1f77b4;stroke:#1f77b4;" x="423.501281" xlink:href="#mef4428fe0c" y="267.99915"/>
     <use style="fill:#1f77b4;stroke:#1f77b4;" x="427.904045" xlink:href="#mef4428fe0c" y="265.626464"/>
    </g>
   </g>
   <g id="patch_3">
    <path d="M 44.203125 279.86258 
L 44.203125 10.8 
" style="fill:none;stroke:#000000;stroke-linecap:square;stroke-linejoin:miter;stroke-width:0.8;"/>
   </g>
   <g id="patch_4">
    <path d="M 446.175518 279.86258 
L 446.175518 10.8 
" style="fill:none;stroke:#000000;stroke-linecap:square;stroke-linejoin:miter;stroke-width:0.8;"/>
   </g>
   <g id="patch_5">
    <path d="M 44.203125 279.86258 
L 446.175518 279.86258 
" style="fill:none;stroke:#000000;stroke-linecap:square;stroke-linejoin:miter;stroke-width:0.8;"/>
   </g>
   <g id="patch_6">
    <path d="M 44.203125 10.8 
L 446.175518 10.8 
" style="fill:none;stroke:#000000;stroke-linecap:square;stroke-linejoin:miter;stroke-width:0.8;"/>
   </g>
  </g>
 </g>
 <defs>
  <clipPath id="pf28262c70a">
   <rect height="269.06258" width="401.972393" x="44.203125" y="10.8"/>
  </clipPath>
 </defs>
</svg>
