<?xml version="1.0" encoding="utf-8" standalone="no"?>
<!DOCTYPE svg PUBLIC "-//W3C//DTD SVG 1.1//EN"
  "http://www.w3.org/Graphics/SVG/1.1/DTD/svg11.dtd">
<!-- Created with matplotlib (https://matplotlib.org/) -->
<svg height="345.6pt" version="1.1" viewBox="0 0 460.8 345.6" width="460.8pt" xmlns="http://www.w3.org/2000/svg" xmlns:xlink="http://www.w3.org/1999/xlink">
 <defs>
  <style type="text/css">
*{stroke-linecap:butt;stroke-linejoin:round;}
  </style>
 </defs>
 <g id="figure_1">
  <g id="patch_1">
   <path d="M 0 345.6 
L 460.8 345.6 
L 460.8 0 
L 0 0 
z
" style="fill:#ffffff;"/>
  </g>
  <g id="axes_1">
   <g id="patch_2">
    <path d="M 37.840625 279.86258 
L 426.03129 279.86258 
L 426.03129 10.8 
L 37.840625 10.8 
z
" style="fill:#ffffff;"/>
   </g>
   <g id="matplotlib.axis_1">
    <g id="xtick_1">
     <g id="line2d_1">
      <defs>
       <path d="M 0 0 
L 0 3.5 
" id="m5b385f0dfe" style="stroke:#000000;stroke-width:0.8;"/>
      </defs>
      <g>
       <use style="stroke:#000000;stroke-width:0.8;" x="95.186973" xlink:href="#m5b385f0dfe" y="279.86258"/>
      </g>
     </g>
     <g id="text_1">
      <!-- 2020-03-01 -->
      <defs>
       <path d="M 19.1875 8.296875 
L 53.609375 8.296875 
L 53.609375 0 
L 7.328125 0 
L 7.328125 8.296875 
Q 12.9375 14.109375 22.625 23.890625 
Q 32.328125 33.6875 34.8125 36.53125 
Q 39.546875 41.84375 41.421875 45.53125 
Q 43.3125 49.21875 43.3125 52.78125 
Q 43.3125 58.59375 39.234375 62.25 
Q 35.15625 65.921875 28.609375 65.921875 
Q 23.96875 65.921875 18.8125 64.3125 
Q 13.671875 62.703125 7.8125 59.421875 
L 7.8125 69.390625 
Q 13.765625 71.78125 18.9375 73 
Q 24.125 74.21875 28.421875 74.21875 
Q 39.75 74.21875 46.484375 68.546875 
Q 53.21875 62.890625 53.21875 53.421875 
Q 53.21875 48.921875 51.53125 44.890625 
Q 49.859375 40.875 45.40625 35.40625 
Q 44.1875 33.984375 37.640625 27.21875 
Q 31.109375 20.453125 19.1875 8.296875 
z
" id="DejaVuSans-50"/>
       <path d="M 31.78125 66.40625 
Q 24.171875 66.40625 20.328125 58.90625 
Q 16.5 51.421875 16.5 36.375 
Q 16.5 21.390625 20.328125 13.890625 
Q 24.171875 6.390625 31.78125 6.390625 
Q 39.453125 6.390625 43.28125 13.890625 
Q 47.125 21.390625 47.125 36.375 
Q 47.125 51.421875 43.28125 58.90625 
Q 39.453125 66.40625 31.78125 66.40625 
z
M 31.78125 74.21875 
Q 44.046875 74.21875 50.515625 64.515625 
Q 56.984375 54.828125 56.984375 36.375 
Q 56.984375 17.96875 50.515625 8.265625 
Q 44.046875 -1.421875 31.78125 -1.421875 
Q 19.53125 -1.421875 13.0625 8.265625 
Q 6.59375 17.96875 6.59375 36.375 
Q 6.59375 54.828125 13.0625 64.515625 
Q 19.53125 74.21875 31.78125 74.21875 
z
" id="DejaVuSans-48"/>
       <path d="M 4.890625 31.390625 
L 31.203125 31.390625 
L 31.203125 23.390625 
L 4.890625 23.390625 
z
" id="DejaVuSans-45"/>
       <path d="M 40.578125 39.3125 
Q 47.65625 37.796875 51.625 33 
Q 55.609375 28.21875 55.609375 21.1875 
Q 55.609375 10.40625 48.1875 4.484375 
Q 40.765625 -1.421875 27.09375 -1.421875 
Q 22.515625 -1.421875 17.65625 -0.515625 
Q 12.796875 0.390625 7.625 2.203125 
L 7.625 11.71875 
Q 11.71875 9.328125 16.59375 8.109375 
Q 21.484375 6.890625 26.8125 6.890625 
Q 36.078125 6.890625 40.9375 10.546875 
Q 45.796875 14.203125 45.796875 21.1875 
Q 45.796875 27.640625 41.28125 31.265625 
Q 36.765625 34.90625 28.71875 34.90625 
L 20.21875 34.90625 
L 20.21875 43.015625 
L 29.109375 43.015625 
Q 36.375 43.015625 40.234375 45.921875 
Q 44.09375 48.828125 44.09375 54.296875 
Q 44.09375 59.90625 40.109375 62.90625 
Q 36.140625 65.921875 28.71875 65.921875 
Q 24.65625 65.921875 20.015625 65.03125 
Q 15.375 64.15625 9.8125 62.3125 
L 9.8125 71.09375 
Q 15.4375 72.65625 20.34375 73.4375 
Q 25.25 74.21875 29.59375 74.21875 
Q 40.828125 74.21875 47.359375 69.109375 
Q 53.90625 64.015625 53.90625 55.328125 
Q 53.90625 49.265625 50.4375 45.09375 
Q 46.96875 40.921875 40.578125 39.3125 
z
" id="DejaVuSans-51"/>
       <path d="M 12.40625 8.296875 
L 28.515625 8.296875 
L 28.515625 63.921875 
L 10.984375 60.40625 
L 10.984375 69.390625 
L 28.421875 72.90625 
L 38.28125 72.90625 
L 38.28125 8.296875 
L 54.390625 8.296875 
L 54.390625 0 
L 12.40625 0 
z
" id="DejaVuSans-49"/>
      </defs>
      <g transform="translate(76.59117 333.329439)rotate(-45)scale(0.1 -0.1)">
       <use xlink:href="#DejaVuSans-50"/>
       <use x="63.623047" xlink:href="#DejaVuSans-48"/>
       <use x="127.246094" xlink:href="#DejaVuSans-50"/>
       <use x="190.869141" xlink:href="#DejaVuSans-48"/>
       <use x="254.492188" xlink:href="#DejaVuSans-45"/>
       <use x="290.576172" xlink:href="#DejaVuSans-48"/>
       <use x="354.199219" xlink:href="#DejaVuSans-51"/>
       <use x="417.822266" xlink:href="#DejaVuSans-45"/>
       <use x="453.90625" xlink:href="#DejaVuSans-48"/>
       <use x="517.529297" xlink:href="#DejaVuSans-49"/>
      </g>
     </g>
    </g>
    <g id="xtick_2">
     <g id="line2d_2">
      <g>
       <use style="stroke:#000000;stroke-width:0.8;" x="156.944579" xlink:href="#m5b385f0dfe" y="279.86258"/>
      </g>
     </g>
     <g id="text_2">
      <!-- 2020-03-15 -->
      <defs>
       <path d="M 10.796875 72.90625 
L 49.515625 72.90625 
L 49.515625 64.59375 
L 19.828125 64.59375 
L 19.828125 46.734375 
Q 21.96875 47.46875 24.109375 47.828125 
Q 26.265625 48.1875 28.421875 48.1875 
Q 40.625 48.1875 47.75 41.5 
Q 54.890625 34.8125 54.890625 23.390625 
Q 54.890625 11.625 47.5625 5.09375 
Q 40.234375 -1.421875 26.90625 -1.421875 
Q 22.3125 -1.421875 17.546875 -0.640625 
Q 12.796875 0.140625 7.71875 1.703125 
L 7.71875 11.625 
Q 12.109375 9.234375 16.796875 8.0625 
Q 21.484375 6.890625 26.703125 6.890625 
Q 35.15625 6.890625 40.078125 11.328125 
Q 45.015625 15.765625 45.015625 23.390625 
Q 45.015625 31 40.078125 35.4375 
Q 35.15625 39.890625 26.703125 39.890625 
Q 22.75 39.890625 18.8125 39.015625 
Q 14.890625 38.140625 10.796875 36.28125 
z
" id="DejaVuSans-53"/>
      </defs>
      <g transform="translate(138.348775 333.329439)rotate(-45)scale(0.1 -0.1)">
       <use xlink:href="#DejaVuSans-50"/>
       <use x="63.623047" xlink:href="#DejaVuSans-48"/>
       <use x="127.246094" xlink:href="#DejaVuSans-50"/>
       <use x="190.869141" xlink:href="#DejaVuSans-48"/>
       <use x="254.492188" xlink:href="#DejaVuSans-45"/>
       <use x="290.576172" xlink:href="#DejaVuSans-48"/>
       <use x="354.199219" xlink:href="#DejaVuSans-51"/>
       <use x="417.822266" xlink:href="#DejaVuSans-45"/>
       <use x="453.90625" xlink:href="#DejaVuSans-49"/>
       <use x="517.529297" xlink:href="#DejaVuSans-53"/>
      </g>
     </g>
    </g>
    <g id="xtick_3">
     <g id="line2d_3">
      <g>
       <use style="stroke:#000000;stroke-width:0.8;" x="231.935957" xlink:href="#m5b385f0dfe" y="279.86258"/>
      </g>
     </g>
     <g id="text_3">
      <!-- 2020-04-01 -->
      <defs>
       <path d="M 37.796875 64.3125 
L 12.890625 25.390625 
L 37.796875 25.390625 
z
M 35.203125 72.90625 
L 47.609375 72.90625 
L 47.609375 25.390625 
L 58.015625 25.390625 
L 58.015625 17.1875 
L 47.609375 17.1875 
L 47.609375 0 
L 37.796875 0 
L 37.796875 17.1875 
L 4.890625 17.1875 
L 4.890625 26.703125 
z
" id="DejaVuSans-52"/>
      </defs>
      <g transform="translate(213.340154 333.329439)rotate(-45)scale(0.1 -0.1)">
       <use xlink:href="#DejaVuSans-50"/>
       <use x="63.623047" xlink:href="#DejaVuSans-48"/>
       <use x="127.246094" xlink:href="#DejaVuSans-50"/>
       <use x="190.869141" xlink:href="#DejaVuSans-48"/>
       <use x="254.492188" xlink:href="#DejaVuSans-45"/>
       <use x="290.576172" xlink:href="#DejaVuSans-48"/>
       <use x="354.199219" xlink:href="#DejaVuSans-52"/>
       <use x="417.822266" xlink:href="#DejaVuSans-45"/>
       <use x="453.90625" xlink:href="#DejaVuSans-48"/>
       <use x="517.529297" xlink:href="#DejaVuSans-49"/>
      </g>
     </g>
    </g>
    <g id="xtick_4">
     <g id="line2d_4">
      <g>
       <use style="stroke:#000000;stroke-width:0.8;" x="293.693563" xlink:href="#m5b385f0dfe" y="279.86258"/>
      </g>
     </g>
     <g id="text_4">
      <!-- 2020-04-15 -->
      <g transform="translate(275.09776 333.329439)rotate(-45)scale(0.1 -0.1)">
       <use xlink:href="#DejaVuSans-50"/>
       <use x="63.623047" xlink:href="#DejaVuSans-48"/>
       <use x="127.246094" xlink:href="#DejaVuSans-50"/>
       <use x="190.869141" xlink:href="#DejaVuSans-48"/>
       <use x="254.492188" xlink:href="#DejaVuSans-45"/>
       <use x="290.576172" xlink:href="#DejaVuSans-48"/>
       <use x="354.199219" xlink:href="#DejaVuSans-52"/>
       <use x="417.822266" xlink:href="#DejaVuSans-45"/>
       <use x="453.90625" xlink:href="#DejaVuSans-49"/>
       <use x="517.529297" xlink:href="#DejaVuSans-53"/>
      </g>
     </g>
    </g>
    <g id="xtick_5">
     <g id="line2d_5">
      <g>
       <use style="stroke:#000000;stroke-width:0.8;" x="364.273684" xlink:href="#m5b385f0dfe" y="279.86258"/>
      </g>
     </g>
     <g id="text_5">
      <!-- 2020-05-01 -->
      <g transform="translate(345.677881 333.329439)rotate(-45)scale(0.1 -0.1)">
       <use xlink:href="#DejaVuSans-50"/>
       <use x="63.623047" xlink:href="#DejaVuSans-48"/>
       <use x="127.246094" xlink:href="#DejaVuSans-50"/>
       <use x="190.869141" xlink:href="#DejaVuSans-48"/>
       <use x="254.492188" xlink:href="#DejaVuSans-45"/>
       <use x="290.576172" xlink:href="#DejaVuSans-48"/>
       <use x="354.199219" xlink:href="#DejaVuSans-53"/>
       <use x="417.822266" xlink:href="#DejaVuSans-45"/>
       <use x="453.90625" xlink:href="#DejaVuSans-48"/>
       <use x="517.529297" xlink:href="#DejaVuSans-49"/>
      </g>
     </g>
    </g>
    <g id="xtick_6">
     <g id="line2d_6">
      <g>
       <use style="stroke:#000000;stroke-width:0.8;" x="426.03129" xlink:href="#m5b385f0dfe" y="279.86258"/>
      </g>
     </g>
     <g id="text_6">
      <!-- 2020-05-15 -->
      <g transform="translate(407.435486 333.329439)rotate(-45)scale(0.1 -0.1)">
       <use xlink:href="#DejaVuSans-50"/>
       <use x="63.623047" xlink:href="#DejaVuSans-48"/>
       <use x="127.246094" xlink:href="#DejaVuSans-50"/>
       <use x="190.869141" xlink:href="#DejaVuSans-48"/>
       <use x="254.492188" xlink:href="#DejaVuSans-45"/>
       <use x="290.576172" xlink:href="#DejaVuSans-48"/>
       <use x="354.199219" xlink:href="#DejaVuSans-53"/>
       <use x="417.822266" xlink:href="#DejaVuSans-45"/>
       <use x="453.90625" xlink:href="#DejaVuSans-49"/>
       <use x="517.529297" xlink:href="#DejaVuSans-53"/>
      </g>
     </g>
    </g>
   </g>
   <g id="matplotlib.axis_2">
    <g id="ytick_1">
     <g id="line2d_7">
      <defs>
       <path d="M 0 0 
L -3.5 0 
" id="mcd9e475b4a" style="stroke:#000000;stroke-width:0.8;"/>
      </defs>
      <g>
       <use style="stroke:#000000;stroke-width:0.8;" x="37.840625" xlink:href="#mcd9e475b4a" y="279.86258"/>
      </g>
     </g>
     <g id="text_7">
      <!-- 0 -->
      <g transform="translate(24.478125 283.661798)scale(0.1 -0.1)">
       <use xlink:href="#DejaVuSans-48"/>
      </g>
     </g>
    </g>
    <g id="ytick_2">
     <g id="line2d_8">
      <g>
       <use style="stroke:#000000;stroke-width:0.8;" x="37.840625" xlink:href="#mcd9e475b4a" y="249.943497"/>
      </g>
     </g>
     <g id="text_8">
      <!-- 1 -->
      <g transform="translate(24.478125 253.742716)scale(0.1 -0.1)">
       <use xlink:href="#DejaVuSans-49"/>
      </g>
     </g>
    </g>
    <g id="ytick_3">
     <g id="line2d_9">
      <g>
       <use style="stroke:#000000;stroke-width:0.8;" x="37.840625" xlink:href="#mcd9e475b4a" y="220.024415"/>
      </g>
     </g>
     <g id="text_9">
      <!-- 2 -->
      <g transform="translate(24.478125 223.823634)scale(0.1 -0.1)">
       <use xlink:href="#DejaVuSans-50"/>
      </g>
     </g>
    </g>
    <g id="ytick_4">
     <g id="line2d_10">
      <g>
       <use style="stroke:#000000;stroke-width:0.8;" x="37.840625" xlink:href="#mcd9e475b4a" y="190.105333"/>
      </g>
     </g>
     <g id="text_10">
      <!-- 3 -->
      <g transform="translate(24.478125 193.904551)scale(0.1 -0.1)">
       <use xlink:href="#DejaVuSans-51"/>
      </g>
     </g>
    </g>
    <g id="ytick_5">
     <g id="line2d_11">
      <g>
       <use style="stroke:#000000;stroke-width:0.8;" x="37.840625" xlink:href="#mcd9e475b4a" y="160.18625"/>
      </g>
     </g>
     <g id="text_11">
      <!-- 4 -->
      <g transform="translate(24.478125 163.985469)scale(0.1 -0.1)">
       <use xlink:href="#DejaVuSans-52"/>
      </g>
     </g>
    </g>
    <g id="ytick_6">
     <g id="line2d_12">
      <g>
       <use style="stroke:#000000;stroke-width:0.8;" x="37.840625" xlink:href="#mcd9e475b4a" y="130.267168"/>
      </g>
     </g>
     <g id="text_12">
      <!-- 5 -->
      <g transform="translate(24.478125 134.066387)scale(0.1 -0.1)">
       <use xlink:href="#DejaVuSans-53"/>
      </g>
     </g>
    </g>
    <g id="ytick_7">
     <g id="line2d_13">
      <g>
       <use style="stroke:#000000;stroke-width:0.8;" x="37.840625" xlink:href="#mcd9e475b4a" y="100.348086"/>
      </g>
     </g>
     <g id="text_13">
      <!-- 6 -->
      <defs>
       <path d="M 33.015625 40.375 
Q 26.375 40.375 22.484375 35.828125 
Q 18.609375 31.296875 18.609375 23.390625 
Q 18.609375 15.53125 22.484375 10.953125 
Q 26.375 6.390625 33.015625 6.390625 
Q 39.65625 6.390625 43.53125 10.953125 
Q 47.40625 15.53125 47.40625 23.390625 
Q 47.40625 31.296875 43.53125 35.828125 
Q 39.65625 40.375 33.015625 40.375 
z
M 52.59375 71.296875 
L 52.59375 62.3125 
Q 48.875 64.0625 45.09375 64.984375 
Q 41.3125 65.921875 37.59375 65.921875 
Q 27.828125 65.921875 22.671875 59.328125 
Q 17.53125 52.734375 16.796875 39.40625 
Q 19.671875 43.65625 24.015625 45.921875 
Q 28.375 48.1875 33.59375 48.1875 
Q 44.578125 48.1875 50.953125 41.515625 
Q 57.328125 34.859375 57.328125 23.390625 
Q 57.328125 12.15625 50.6875 5.359375 
Q 44.046875 -1.421875 33.015625 -1.421875 
Q 20.359375 -1.421875 13.671875 8.265625 
Q 6.984375 17.96875 6.984375 36.375 
Q 6.984375 53.65625 15.1875 63.9375 
Q 23.390625 74.21875 37.203125 74.21875 
Q 40.921875 74.21875 44.703125 73.484375 
Q 48.484375 72.75 52.59375 71.296875 
z
" id="DejaVuSans-54"/>
      </defs>
      <g transform="translate(24.478125 104.147305)scale(0.1 -0.1)">
       <use xlink:href="#DejaVuSans-54"/>
      </g>
     </g>
    </g>
    <g id="ytick_8">
     <g id="line2d_14">
      <g>
       <use style="stroke:#000000;stroke-width:0.8;" x="37.840625" xlink:href="#mcd9e475b4a" y="70.429004"/>
      </g>
     </g>
     <g id="text_14">
      <!-- 7 -->
      <defs>
       <path d="M 8.203125 72.90625 
L 55.078125 72.90625 
L 55.078125 68.703125 
L 28.609375 0 
L 18.3125 0 
L 43.21875 64.59375 
L 8.203125 64.59375 
z
" id="DejaVuSans-55"/>
      </defs>
      <g transform="translate(24.478125 74.228222)scale(0.1 -0.1)">
       <use xlink:href="#DejaVuSans-55"/>
      </g>
     </g>
    </g>
    <g id="ytick_9">
     <g id="line2d_15">
      <g>
       <use style="stroke:#000000;stroke-width:0.8;" x="37.840625" xlink:href="#mcd9e475b4a" y="40.509921"/>
      </g>
     </g>
     <g id="text_15">
      <!-- 8 -->
      <defs>
       <path d="M 31.78125 34.625 
Q 24.75 34.625 20.71875 30.859375 
Q 16.703125 27.09375 16.703125 20.515625 
Q 16.703125 13.921875 20.71875 10.15625 
Q 24.75 6.390625 31.78125 6.390625 
Q 38.8125 6.390625 42.859375 10.171875 
Q 46.921875 13.96875 46.921875 20.515625 
Q 46.921875 27.09375 42.890625 30.859375 
Q 38.875 34.625 31.78125 34.625 
z
M 21.921875 38.8125 
Q 15.578125 40.375 12.03125 44.71875 
Q 8.5 49.078125 8.5 55.328125 
Q 8.5 64.0625 14.71875 69.140625 
Q 20.953125 74.21875 31.78125 74.21875 
Q 42.671875 74.21875 48.875 69.140625 
Q 55.078125 64.0625 55.078125 55.328125 
Q 55.078125 49.078125 51.53125 44.71875 
Q 48 40.375 41.703125 38.8125 
Q 48.828125 37.15625 52.796875 32.3125 
Q 56.78125 27.484375 56.78125 20.515625 
Q 56.78125 9.90625 50.3125 4.234375 
Q 43.84375 -1.421875 31.78125 -1.421875 
Q 19.734375 -1.421875 13.25 4.234375 
Q 6.78125 9.90625 6.78125 20.515625 
Q 6.78125 27.484375 10.78125 32.3125 
Q 14.796875 37.15625 21.921875 38.8125 
z
M 18.3125 54.390625 
Q 18.3125 48.734375 21.84375 45.5625 
Q 25.390625 42.390625 31.78125 42.390625 
Q 38.140625 42.390625 41.71875 45.5625 
Q 45.3125 48.734375 45.3125 54.390625 
Q 45.3125 60.0625 41.71875 63.234375 
Q 38.140625 66.40625 31.78125 66.40625 
Q 25.390625 66.40625 21.84375 63.234375 
Q 18.3125 60.0625 18.3125 54.390625 
z
" id="DejaVuSans-56"/>
      </defs>
      <g transform="translate(24.478125 44.30914)scale(0.1 -0.1)">
       <use xlink:href="#DejaVuSans-56"/>
      </g>
     </g>
    </g>
    <g id="text_16">
     <!-- AN pcr (por 100000 hab.) diarios -->
     <defs>
      <path d="M 34.1875 63.1875 
L 20.796875 26.90625 
L 47.609375 26.90625 
z
M 28.609375 72.90625 
L 39.796875 72.90625 
L 67.578125 0 
L 57.328125 0 
L 50.6875 18.703125 
L 17.828125 18.703125 
L 11.1875 0 
L 0.78125 0 
z
" id="DejaVuSans-65"/>
      <path d="M 9.8125 72.90625 
L 23.09375 72.90625 
L 55.421875 11.921875 
L 55.421875 72.90625 
L 64.984375 72.90625 
L 64.984375 0 
L 51.703125 0 
L 19.390625 60.984375 
L 19.390625 0 
L 9.8125 0 
z
" id="DejaVuSans-78"/>
      <path id="DejaVuSans-32"/>
      <path d="M 18.109375 8.203125 
L 18.109375 -20.796875 
L 9.078125 -20.796875 
L 9.078125 54.6875 
L 18.109375 54.6875 
L 18.109375 46.390625 
Q 20.953125 51.265625 25.265625 53.625 
Q 29.59375 56 35.59375 56 
Q 45.5625 56 51.78125 48.09375 
Q 58.015625 40.1875 58.015625 27.296875 
Q 58.015625 14.40625 51.78125 6.484375 
Q 45.5625 -1.421875 35.59375 -1.421875 
Q 29.59375 -1.421875 25.265625 0.953125 
Q 20.953125 3.328125 18.109375 8.203125 
z
M 48.6875 27.296875 
Q 48.6875 37.203125 44.609375 42.84375 
Q 40.53125 48.484375 33.40625 48.484375 
Q 26.265625 48.484375 22.1875 42.84375 
Q 18.109375 37.203125 18.109375 27.296875 
Q 18.109375 17.390625 22.1875 11.75 
Q 26.265625 6.109375 33.40625 6.109375 
Q 40.53125 6.109375 44.609375 11.75 
Q 48.6875 17.390625 48.6875 27.296875 
z
" id="DejaVuSans-112"/>
      <path d="M 48.78125 52.59375 
L 48.78125 44.1875 
Q 44.96875 46.296875 41.140625 47.34375 
Q 37.3125 48.390625 33.40625 48.390625 
Q 24.65625 48.390625 19.8125 42.84375 
Q 14.984375 37.3125 14.984375 27.296875 
Q 14.984375 17.28125 19.8125 11.734375 
Q 24.65625 6.203125 33.40625 6.203125 
Q 37.3125 6.203125 41.140625 7.25 
Q 44.96875 8.296875 48.78125 10.40625 
L 48.78125 2.09375 
Q 45.015625 0.34375 40.984375 -0.53125 
Q 36.96875 -1.421875 32.421875 -1.421875 
Q 20.0625 -1.421875 12.78125 6.34375 
Q 5.515625 14.109375 5.515625 27.296875 
Q 5.515625 40.671875 12.859375 48.328125 
Q 20.21875 56 33.015625 56 
Q 37.15625 56 41.109375 55.140625 
Q 45.0625 54.296875 48.78125 52.59375 
z
" id="DejaVuSans-99"/>
      <path d="M 41.109375 46.296875 
Q 39.59375 47.171875 37.8125 47.578125 
Q 36.03125 48 33.890625 48 
Q 26.265625 48 22.1875 43.046875 
Q 18.109375 38.09375 18.109375 28.8125 
L 18.109375 0 
L 9.078125 0 
L 9.078125 54.6875 
L 18.109375 54.6875 
L 18.109375 46.1875 
Q 20.953125 51.171875 25.484375 53.578125 
Q 30.03125 56 36.53125 56 
Q 37.453125 56 38.578125 55.875 
Q 39.703125 55.765625 41.0625 55.515625 
z
" id="DejaVuSans-114"/>
      <path d="M 31 75.875 
Q 24.46875 64.65625 21.28125 53.65625 
Q 18.109375 42.671875 18.109375 31.390625 
Q 18.109375 20.125 21.3125 9.0625 
Q 24.515625 -2 31 -13.1875 
L 23.1875 -13.1875 
Q 15.875 -1.703125 12.234375 9.375 
Q 8.59375 20.453125 8.59375 31.390625 
Q 8.59375 42.28125 12.203125 53.3125 
Q 15.828125 64.359375 23.1875 75.875 
z
" id="DejaVuSans-40"/>
      <path d="M 30.609375 48.390625 
Q 23.390625 48.390625 19.1875 42.75 
Q 14.984375 37.109375 14.984375 27.296875 
Q 14.984375 17.484375 19.15625 11.84375 
Q 23.34375 6.203125 30.609375 6.203125 
Q 37.796875 6.203125 41.984375 11.859375 
Q 46.1875 17.53125 46.1875 27.296875 
Q 46.1875 37.015625 41.984375 42.703125 
Q 37.796875 48.390625 30.609375 48.390625 
z
M 30.609375 56 
Q 42.328125 56 49.015625 48.375 
Q 55.71875 40.765625 55.71875 27.296875 
Q 55.71875 13.875 49.015625 6.21875 
Q 42.328125 -1.421875 30.609375 -1.421875 
Q 18.84375 -1.421875 12.171875 6.21875 
Q 5.515625 13.875 5.515625 27.296875 
Q 5.515625 40.765625 12.171875 48.375 
Q 18.84375 56 30.609375 56 
z
" id="DejaVuSans-111"/>
      <path d="M 54.890625 33.015625 
L 54.890625 0 
L 45.90625 0 
L 45.90625 32.71875 
Q 45.90625 40.484375 42.875 44.328125 
Q 39.84375 48.1875 33.796875 48.1875 
Q 26.515625 48.1875 22.3125 43.546875 
Q 18.109375 38.921875 18.109375 30.90625 
L 18.109375 0 
L 9.078125 0 
L 9.078125 75.984375 
L 18.109375 75.984375 
L 18.109375 46.1875 
Q 21.34375 51.125 25.703125 53.5625 
Q 30.078125 56 35.796875 56 
Q 45.21875 56 50.046875 50.171875 
Q 54.890625 44.34375 54.890625 33.015625 
z
" id="DejaVuSans-104"/>
      <path d="M 34.28125 27.484375 
Q 23.390625 27.484375 19.1875 25 
Q 14.984375 22.515625 14.984375 16.5 
Q 14.984375 11.71875 18.140625 8.90625 
Q 21.296875 6.109375 26.703125 6.109375 
Q 34.1875 6.109375 38.703125 11.40625 
Q 43.21875 16.703125 43.21875 25.484375 
L 43.21875 27.484375 
z
M 52.203125 31.203125 
L 52.203125 0 
L 43.21875 0 
L 43.21875 8.296875 
Q 40.140625 3.328125 35.546875 0.953125 
Q 30.953125 -1.421875 24.3125 -1.421875 
Q 15.921875 -1.421875 10.953125 3.296875 
Q 6 8.015625 6 15.921875 
Q 6 25.140625 12.171875 29.828125 
Q 18.359375 34.515625 30.609375 34.515625 
L 43.21875 34.515625 
L 43.21875 35.40625 
Q 43.21875 41.609375 39.140625 45 
Q 35.0625 48.390625 27.6875 48.390625 
Q 23 48.390625 18.546875 47.265625 
Q 14.109375 46.140625 10.015625 43.890625 
L 10.015625 52.203125 
Q 14.9375 54.109375 19.578125 55.046875 
Q 24.21875 56 28.609375 56 
Q 40.484375 56 46.34375 49.84375 
Q 52.203125 43.703125 52.203125 31.203125 
z
" id="DejaVuSans-97"/>
      <path d="M 48.6875 27.296875 
Q 48.6875 37.203125 44.609375 42.84375 
Q 40.53125 48.484375 33.40625 48.484375 
Q 26.265625 48.484375 22.1875 42.84375 
Q 18.109375 37.203125 18.109375 27.296875 
Q 18.109375 17.390625 22.1875 11.75 
Q 26.265625 6.109375 33.40625 6.109375 
Q 40.53125 6.109375 44.609375 11.75 
Q 48.6875 17.390625 48.6875 27.296875 
z
M 18.109375 46.390625 
Q 20.953125 51.265625 25.265625 53.625 
Q 29.59375 56 35.59375 56 
Q 45.5625 56 51.78125 48.09375 
Q 58.015625 40.1875 58.015625 27.296875 
Q 58.015625 14.40625 51.78125 6.484375 
Q 45.5625 -1.421875 35.59375 -1.421875 
Q 29.59375 -1.421875 25.265625 0.953125 
Q 20.953125 3.328125 18.109375 8.203125 
L 18.109375 0 
L 9.078125 0 
L 9.078125 75.984375 
L 18.109375 75.984375 
z
" id="DejaVuSans-98"/>
      <path d="M 10.6875 12.40625 
L 21 12.40625 
L 21 0 
L 10.6875 0 
z
" id="DejaVuSans-46"/>
      <path d="M 8.015625 75.875 
L 15.828125 75.875 
Q 23.140625 64.359375 26.78125 53.3125 
Q 30.421875 42.28125 30.421875 31.390625 
Q 30.421875 20.453125 26.78125 9.375 
Q 23.140625 -1.703125 15.828125 -13.1875 
L 8.015625 -13.1875 
Q 14.5 -2 17.703125 9.0625 
Q 20.90625 20.125 20.90625 31.390625 
Q 20.90625 42.671875 17.703125 53.65625 
Q 14.5 64.65625 8.015625 75.875 
z
" id="DejaVuSans-41"/>
      <path d="M 45.40625 46.390625 
L 45.40625 75.984375 
L 54.390625 75.984375 
L 54.390625 0 
L 45.40625 0 
L 45.40625 8.203125 
Q 42.578125 3.328125 38.25 0.953125 
Q 33.9375 -1.421875 27.875 -1.421875 
Q 17.96875 -1.421875 11.734375 6.484375 
Q 5.515625 14.40625 5.515625 27.296875 
Q 5.515625 40.1875 11.734375 48.09375 
Q 17.96875 56 27.875 56 
Q 33.9375 56 38.25 53.625 
Q 42.578125 51.265625 45.40625 46.390625 
z
M 14.796875 27.296875 
Q 14.796875 17.390625 18.875 11.75 
Q 22.953125 6.109375 30.078125 6.109375 
Q 37.203125 6.109375 41.296875 11.75 
Q 45.40625 17.390625 45.40625 27.296875 
Q 45.40625 37.203125 41.296875 42.84375 
Q 37.203125 48.484375 30.078125 48.484375 
Q 22.953125 48.484375 18.875 42.84375 
Q 14.796875 37.203125 14.796875 27.296875 
z
" id="DejaVuSans-100"/>
      <path d="M 9.421875 54.6875 
L 18.40625 54.6875 
L 18.40625 0 
L 9.421875 0 
z
M 9.421875 75.984375 
L 18.40625 75.984375 
L 18.40625 64.59375 
L 9.421875 64.59375 
z
" id="DejaVuSans-105"/>
      <path d="M 44.28125 53.078125 
L 44.28125 44.578125 
Q 40.484375 46.53125 36.375 47.5 
Q 32.28125 48.484375 27.875 48.484375 
Q 21.1875 48.484375 17.84375 46.4375 
Q 14.5 44.390625 14.5 40.28125 
Q 14.5 37.15625 16.890625 35.375 
Q 19.28125 33.59375 26.515625 31.984375 
L 29.59375 31.296875 
Q 39.15625 29.25 43.1875 25.515625 
Q 47.21875 21.78125 47.21875 15.09375 
Q 47.21875 7.46875 41.1875 3.015625 
Q 35.15625 -1.421875 24.609375 -1.421875 
Q 20.21875 -1.421875 15.453125 -0.5625 
Q 10.6875 0.296875 5.421875 2 
L 5.421875 11.28125 
Q 10.40625 8.6875 15.234375 7.390625 
Q 20.0625 6.109375 24.8125 6.109375 
Q 31.15625 6.109375 34.5625 8.28125 
Q 37.984375 10.453125 37.984375 14.40625 
Q 37.984375 18.0625 35.515625 20.015625 
Q 33.0625 21.96875 24.703125 23.78125 
L 21.578125 24.515625 
Q 13.234375 26.265625 9.515625 29.90625 
Q 5.8125 33.546875 5.8125 39.890625 
Q 5.8125 47.609375 11.28125 51.796875 
Q 16.75 56 26.8125 56 
Q 31.78125 56 36.171875 55.265625 
Q 40.578125 54.546875 44.28125 53.078125 
z
" id="DejaVuSans-115"/>
     </defs>
     <g transform="translate(18.398438 227.426602)rotate(-90)scale(0.1 -0.1)">
      <use xlink:href="#DejaVuSans-65"/>
      <use x="68.408203" xlink:href="#DejaVuSans-78"/>
      <use x="143.212891" xlink:href="#DejaVuSans-32"/>
      <use x="175" xlink:href="#DejaVuSans-112"/>
      <use x="238.476562" xlink:href="#DejaVuSans-99"/>
      <use x="293.457031" xlink:href="#DejaVuSans-114"/>
      <use x="334.570312" xlink:href="#DejaVuSans-32"/>
      <use x="366.357422" xlink:href="#DejaVuSans-40"/>
      <use x="405.371094" xlink:href="#DejaVuSans-112"/>
      <use x="468.847656" xlink:href="#DejaVuSans-111"/>
      <use x="530.029297" xlink:href="#DejaVuSans-114"/>
      <use x="571.142578" xlink:href="#DejaVuSans-32"/>
      <use x="602.929688" xlink:href="#DejaVuSans-49"/>
      <use x="666.552734" xlink:href="#DejaVuSans-48"/>
      <use x="730.175781" xlink:href="#DejaVuSans-48"/>
      <use x="793.798828" xlink:href="#DejaVuSans-48"/>
      <use x="857.421875" xlink:href="#DejaVuSans-48"/>
      <use x="921.044922" xlink:href="#DejaVuSans-48"/>
      <use x="984.667969" xlink:href="#DejaVuSans-32"/>
      <use x="1016.455078" xlink:href="#DejaVuSans-104"/>
      <use x="1079.833984" xlink:href="#DejaVuSans-97"/>
      <use x="1141.113281" xlink:href="#DejaVuSans-98"/>
      <use x="1204.589844" xlink:href="#DejaVuSans-46"/>
      <use x="1236.376953" xlink:href="#DejaVuSans-41"/>
      <use x="1275.390625" xlink:href="#DejaVuSans-32"/>
      <use x="1307.177734" xlink:href="#DejaVuSans-100"/>
      <use x="1370.654297" xlink:href="#DejaVuSans-105"/>
      <use x="1398.4375" xlink:href="#DejaVuSans-97"/>
      <use x="1459.716797" xlink:href="#DejaVuSans-114"/>
      <use x="1500.830078" xlink:href="#DejaVuSans-105"/>
      <use x="1528.613281" xlink:href="#DejaVuSans-111"/>
      <use x="1589.794922" xlink:href="#DejaVuSans-115"/>
     </g>
    </g>
   </g>
   <g id="line2d_16">
    <path clip-path="url(#p5e59187064)" d="M 55.485655 279.86258 
L 59.896913 279.86258 
L 64.30817 279.86258 
L 68.719428 279.86258 
L 73.130685 279.86258 
L 77.541943 279.508364 
L 81.953201 278.091499 
L 86.364458 279.154147 
L 90.775716 278.445715 
L 95.186973 279.86258 
L 99.598231 279.86258 
L 104.009488 279.86258 
L 108.420746 279.86258 
L 112.832003 276.674634 
L 117.243261 277.737283 
L 121.654519 277.383067 
L 126.065776 272.778257 
L 130.477034 273.840905 
L 134.888291 273.132473 
L 139.299549 271.007176 
L 143.710806 243.024101 
L 148.122064 262.151773 
L 152.533321 220.354268 
L 156.944579 238.419291 
L 161.355837 234.168698 
L 165.767094 217.520539 
L 170.178352 227.084375 
L 174.589609 181.036277 
L 179.000867 199.1013 
L 183.412124 205.47719 
L 187.823382 196.267571 
L 192.234639 99.566565 
L 196.645897 89.294297 
L 201.057155 139.592988 
L 205.468412 143.13515 
L 209.87967 109.484616 
L 214.290927 136.405043 
L 218.702185 24.118527 
L 223.113442 134.279746 
L 227.5247 77.95938 
L 231.935957 75.125651 
L 236.347215 139.592988 
L 240.758473 104.879807 
L 245.16973 126.841207 
L 249.580988 180.682061 
L 253.992245 214.68681 
L 258.403503 198.392868 
L 262.81476 187.412167 
L 267.226018 192.016977 
L 271.637275 209.019352 
L 276.048533 175.723035 
L 280.459791 249.045776 
L 284.871048 241.607237 
L 289.282306 200.872381 
L 293.693563 221.416917 
L 298.104821 251.879505 
L 302.516078 244.440966 
L 306.927336 221.771133 
L 311.338593 246.566263 
L 315.749851 241.607237 
L 320.161109 233.460265 
L 324.572366 232.751833 
L 328.983624 233.106049 
L 333.394881 222.125349 
L 337.806139 255.775882 
L 342.217396 252.942153 
L 346.628654 261.44334 
L 351.039911 250.816856 
L 355.451169 265.693934 
L 359.862427 239.836156 
L 364.273684 263.568637 
L 368.684942 267.465015 
L 373.096199 273.132473 
L 377.507457 274.195121 
L 381.918714 270.65296 
L 386.329972 268.527663 
L 390.741229 273.132473 
L 395.152487 275.966202 
L 399.563744 273.840905 
L 403.975002 290.489064 
L 408.38626 277.028851 
" style="fill:none;stroke:#1f77b4;stroke-linecap:square;stroke-width:1.5;"/>
    <defs>
     <path d="M 0 1.5 
C 0.397805 1.5 0.77937 1.341951 1.06066 1.06066 
C 1.341951 0.77937 1.5 0.397805 1.5 0 
C 1.5 -0.397805 1.341951 -0.77937 1.06066 -1.06066 
C 0.77937 -1.341951 0.397805 -1.5 0 -1.5 
C -0.397805 -1.5 -0.77937 -1.341951 -1.06066 -1.06066 
C -1.341951 -0.77937 -1.5 -0.397805 -1.5 0 
C -1.5 0.397805 -1.341951 0.77937 -1.06066 1.06066 
C -0.77937 1.341951 -0.397805 1.5 0 1.5 
z
" id="m7f988dc4cb" style="stroke:#1f77b4;"/>
    </defs>
    <g clip-path="url(#p5e59187064)">
     <use style="fill:#1f77b4;stroke:#1f77b4;" x="55.485655" xlink:href="#m7f988dc4cb" y="279.86258"/>
     <use style="fill:#1f77b4;stroke:#1f77b4;" x="59.896913" xlink:href="#m7f988dc4cb" y="279.86258"/>
     <use style="fill:#1f77b4;stroke:#1f77b4;" x="64.30817" xlink:href="#m7f988dc4cb" y="279.86258"/>
     <use style="fill:#1f77b4;stroke:#1f77b4;" x="68.719428" xlink:href="#m7f988dc4cb" y="279.86258"/>
     <use style="fill:#1f77b4;stroke:#1f77b4;" x="73.130685" xlink:href="#m7f988dc4cb" y="279.86258"/>
     <use style="fill:#1f77b4;stroke:#1f77b4;" x="77.541943" xlink:href="#m7f988dc4cb" y="279.508364"/>
     <use style="fill:#1f77b4;stroke:#1f77b4;" x="81.953201" xlink:href="#m7f988dc4cb" y="278.091499"/>
     <use style="fill:#1f77b4;stroke:#1f77b4;" x="86.364458" xlink:href="#m7f988dc4cb" y="279.154147"/>
     <use style="fill:#1f77b4;stroke:#1f77b4;" x="90.775716" xlink:href="#m7f988dc4cb" y="278.445715"/>
     <use style="fill:#1f77b4;stroke:#1f77b4;" x="95.186973" xlink:href="#m7f988dc4cb" y="279.86258"/>
     <use style="fill:#1f77b4;stroke:#1f77b4;" x="99.598231" xlink:href="#m7f988dc4cb" y="279.86258"/>
     <use style="fill:#1f77b4;stroke:#1f77b4;" x="104.009488" xlink:href="#m7f988dc4cb" y="279.86258"/>
     <use style="fill:#1f77b4;stroke:#1f77b4;" x="108.420746" xlink:href="#m7f988dc4cb" y="279.86258"/>
     <use style="fill:#1f77b4;stroke:#1f77b4;" x="112.832003" xlink:href="#m7f988dc4cb" y="276.674634"/>
     <use style="fill:#1f77b4;stroke:#1f77b4;" x="117.243261" xlink:href="#m7f988dc4cb" y="277.737283"/>
     <use style="fill:#1f77b4;stroke:#1f77b4;" x="121.654519" xlink:href="#m7f988dc4cb" y="277.383067"/>
     <use style="fill:#1f77b4;stroke:#1f77b4;" x="126.065776" xlink:href="#m7f988dc4cb" y="272.778257"/>
     <use style="fill:#1f77b4;stroke:#1f77b4;" x="130.477034" xlink:href="#m7f988dc4cb" y="273.840905"/>
     <use style="fill:#1f77b4;stroke:#1f77b4;" x="134.888291" xlink:href="#m7f988dc4cb" y="273.132473"/>
     <use style="fill:#1f77b4;stroke:#1f77b4;" x="139.299549" xlink:href="#m7f988dc4cb" y="271.007176"/>
     <use style="fill:#1f77b4;stroke:#1f77b4;" x="143.710806" xlink:href="#m7f988dc4cb" y="243.024101"/>
     <use style="fill:#1f77b4;stroke:#1f77b4;" x="148.122064" xlink:href="#m7f988dc4cb" y="262.151773"/>
     <use style="fill:#1f77b4;stroke:#1f77b4;" x="152.533321" xlink:href="#m7f988dc4cb" y="220.354268"/>
     <use style="fill:#1f77b4;stroke:#1f77b4;" x="156.944579" xlink:href="#m7f988dc4cb" y="238.419291"/>
     <use style="fill:#1f77b4;stroke:#1f77b4;" x="161.355837" xlink:href="#m7f988dc4cb" y="234.168698"/>
     <use style="fill:#1f77b4;stroke:#1f77b4;" x="165.767094" xlink:href="#m7f988dc4cb" y="217.520539"/>
     <use style="fill:#1f77b4;stroke:#1f77b4;" x="170.178352" xlink:href="#m7f988dc4cb" y="227.084375"/>
     <use style="fill:#1f77b4;stroke:#1f77b4;" x="174.589609" xlink:href="#m7f988dc4cb" y="181.036277"/>
     <use style="fill:#1f77b4;stroke:#1f77b4;" x="179.000867" xlink:href="#m7f988dc4cb" y="199.1013"/>
     <use style="fill:#1f77b4;stroke:#1f77b4;" x="183.412124" xlink:href="#m7f988dc4cb" y="205.47719"/>
     <use style="fill:#1f77b4;stroke:#1f77b4;" x="187.823382" xlink:href="#m7f988dc4cb" y="196.267571"/>
     <use style="fill:#1f77b4;stroke:#1f77b4;" x="192.234639" xlink:href="#m7f988dc4cb" y="99.566565"/>
     <use style="fill:#1f77b4;stroke:#1f77b4;" x="196.645897" xlink:href="#m7f988dc4cb" y="89.294297"/>
     <use style="fill:#1f77b4;stroke:#1f77b4;" x="201.057155" xlink:href="#m7f988dc4cb" y="139.592988"/>
     <use style="fill:#1f77b4;stroke:#1f77b4;" x="205.468412" xlink:href="#m7f988dc4cb" y="143.13515"/>
     <use style="fill:#1f77b4;stroke:#1f77b4;" x="209.87967" xlink:href="#m7f988dc4cb" y="109.484616"/>
     <use style="fill:#1f77b4;stroke:#1f77b4;" x="214.290927" xlink:href="#m7f988dc4cb" y="136.405043"/>
     <use style="fill:#1f77b4;stroke:#1f77b4;" x="218.702185" xlink:href="#m7f988dc4cb" y="24.118527"/>
     <use style="fill:#1f77b4;stroke:#1f77b4;" x="223.113442" xlink:href="#m7f988dc4cb" y="134.279746"/>
     <use style="fill:#1f77b4;stroke:#1f77b4;" x="227.5247" xlink:href="#m7f988dc4cb" y="77.95938"/>
     <use style="fill:#1f77b4;stroke:#1f77b4;" x="231.935957" xlink:href="#m7f988dc4cb" y="75.125651"/>
     <use style="fill:#1f77b4;stroke:#1f77b4;" x="236.347215" xlink:href="#m7f988dc4cb" y="139.592988"/>
     <use style="fill:#1f77b4;stroke:#1f77b4;" x="240.758473" xlink:href="#m7f988dc4cb" y="104.879807"/>
     <use style="fill:#1f77b4;stroke:#1f77b4;" x="245.16973" xlink:href="#m7f988dc4cb" y="126.841207"/>
     <use style="fill:#1f77b4;stroke:#1f77b4;" x="249.580988" xlink:href="#m7f988dc4cb" y="180.682061"/>
     <use style="fill:#1f77b4;stroke:#1f77b4;" x="253.992245" xlink:href="#m7f988dc4cb" y="214.68681"/>
     <use style="fill:#1f77b4;stroke:#1f77b4;" x="258.403503" xlink:href="#m7f988dc4cb" y="198.392868"/>
     <use style="fill:#1f77b4;stroke:#1f77b4;" x="262.81476" xlink:href="#m7f988dc4cb" y="187.412167"/>
     <use style="fill:#1f77b4;stroke:#1f77b4;" x="267.226018" xlink:href="#m7f988dc4cb" y="192.016977"/>
     <use style="fill:#1f77b4;stroke:#1f77b4;" x="271.637275" xlink:href="#m7f988dc4cb" y="209.019352"/>
     <use style="fill:#1f77b4;stroke:#1f77b4;" x="276.048533" xlink:href="#m7f988dc4cb" y="175.723035"/>
     <use style="fill:#1f77b4;stroke:#1f77b4;" x="280.459791" xlink:href="#m7f988dc4cb" y="249.045776"/>
     <use style="fill:#1f77b4;stroke:#1f77b4;" x="284.871048" xlink:href="#m7f988dc4cb" y="241.607237"/>
     <use style="fill:#1f77b4;stroke:#1f77b4;" x="289.282306" xlink:href="#m7f988dc4cb" y="200.872381"/>
     <use style="fill:#1f77b4;stroke:#1f77b4;" x="293.693563" xlink:href="#m7f988dc4cb" y="221.416917"/>
     <use style="fill:#1f77b4;stroke:#1f77b4;" x="298.104821" xlink:href="#m7f988dc4cb" y="251.879505"/>
     <use style="fill:#1f77b4;stroke:#1f77b4;" x="302.516078" xlink:href="#m7f988dc4cb" y="244.440966"/>
     <use style="fill:#1f77b4;stroke:#1f77b4;" x="306.927336" xlink:href="#m7f988dc4cb" y="221.771133"/>
     <use style="fill:#1f77b4;stroke:#1f77b4;" x="311.338593" xlink:href="#m7f988dc4cb" y="246.566263"/>
     <use style="fill:#1f77b4;stroke:#1f77b4;" x="315.749851" xlink:href="#m7f988dc4cb" y="241.607237"/>
     <use style="fill:#1f77b4;stroke:#1f77b4;" x="320.161109" xlink:href="#m7f988dc4cb" y="233.460265"/>
     <use style="fill:#1f77b4;stroke:#1f77b4;" x="324.572366" xlink:href="#m7f988dc4cb" y="232.751833"/>
     <use style="fill:#1f77b4;stroke:#1f77b4;" x="328.983624" xlink:href="#m7f988dc4cb" y="233.106049"/>
     <use style="fill:#1f77b4;stroke:#1f77b4;" x="333.394881" xlink:href="#m7f988dc4cb" y="222.125349"/>
     <use style="fill:#1f77b4;stroke:#1f77b4;" x="337.806139" xlink:href="#m7f988dc4cb" y="255.775882"/>
     <use style="fill:#1f77b4;stroke:#1f77b4;" x="342.217396" xlink:href="#m7f988dc4cb" y="252.942153"/>
     <use style="fill:#1f77b4;stroke:#1f77b4;" x="346.628654" xlink:href="#m7f988dc4cb" y="261.44334"/>
     <use style="fill:#1f77b4;stroke:#1f77b4;" x="351.039911" xlink:href="#m7f988dc4cb" y="250.816856"/>
     <use style="fill:#1f77b4;stroke:#1f77b4;" x="355.451169" xlink:href="#m7f988dc4cb" y="265.693934"/>
     <use style="fill:#1f77b4;stroke:#1f77b4;" x="359.862427" xlink:href="#m7f988dc4cb" y="239.836156"/>
     <use style="fill:#1f77b4;stroke:#1f77b4;" x="364.273684" xlink:href="#m7f988dc4cb" y="263.568637"/>
     <use style="fill:#1f77b4;stroke:#1f77b4;" x="368.684942" xlink:href="#m7f988dc4cb" y="267.465015"/>
     <use style="fill:#1f77b4;stroke:#1f77b4;" x="373.096199" xlink:href="#m7f988dc4cb" y="273.132473"/>
     <use style="fill:#1f77b4;stroke:#1f77b4;" x="377.507457" xlink:href="#m7f988dc4cb" y="274.195121"/>
     <use style="fill:#1f77b4;stroke:#1f77b4;" x="381.918714" xlink:href="#m7f988dc4cb" y="270.65296"/>
     <use style="fill:#1f77b4;stroke:#1f77b4;" x="386.329972" xlink:href="#m7f988dc4cb" y="268.527663"/>
     <use style="fill:#1f77b4;stroke:#1f77b4;" x="390.741229" xlink:href="#m7f988dc4cb" y="273.132473"/>
     <use style="fill:#1f77b4;stroke:#1f77b4;" x="395.152487" xlink:href="#m7f988dc4cb" y="275.966202"/>
     <use style="fill:#1f77b4;stroke:#1f77b4;" x="399.563744" xlink:href="#m7f988dc4cb" y="273.840905"/>
     <use style="fill:#1f77b4;stroke:#1f77b4;" x="403.975002" xlink:href="#m7f988dc4cb" y="290.489064"/>
     <use style="fill:#1f77b4;stroke:#1f77b4;" x="408.38626" xlink:href="#m7f988dc4cb" y="277.028851"/>
    </g>
   </g>
   <g id="patch_3">
    <path d="M 37.840625 279.86258 
L 37.840625 10.8 
" style="fill:none;stroke:#000000;stroke-linecap:square;stroke-linejoin:miter;stroke-width:0.8;"/>
   </g>
   <g id="patch_4">
    <path d="M 426.03129 279.86258 
L 426.03129 10.8 
" style="fill:none;stroke:#000000;stroke-linecap:square;stroke-linejoin:miter;stroke-width:0.8;"/>
   </g>
   <g id="patch_5">
    <path d="M 37.840625 279.86258 
L 426.03129 279.86258 
" style="fill:none;stroke:#000000;stroke-linecap:square;stroke-linejoin:miter;stroke-width:0.8;"/>
   </g>
   <g id="patch_6">
    <path d="M 37.840625 10.8 
L 426.03129 10.8 
" style="fill:none;stroke:#000000;stroke-linecap:square;stroke-linejoin:miter;stroke-width:0.8;"/>
   </g>
  </g>
 </g>
 <defs>
  <clipPath id="p5e59187064">
   <rect height="269.06258" width="388.190665" x="37.840625" y="10.8"/>
  </clipPath>
 </defs>
</svg>
