<?xml version="1.0" encoding="utf-8" standalone="no"?>
<!DOCTYPE svg PUBLIC "-//W3C//DTD SVG 1.1//EN"
  "http://www.w3.org/Graphics/SVG/1.1/DTD/svg11.dtd">
<!-- Created with matplotlib (https://matplotlib.org/) -->
<svg height="345.6pt" version="1.1" viewBox="0 0 460.8 345.6" width="460.8pt" xmlns="http://www.w3.org/2000/svg" xmlns:xlink="http://www.w3.org/1999/xlink">
 <defs>
  <style type="text/css">
*{stroke-linecap:butt;stroke-linejoin:round;}
  </style>
 </defs>
 <g id="figure_1">
  <g id="patch_1">
   <path d="M 0 345.6 
L 460.8 345.6 
L 460.8 0 
L 0 0 
z
" style="fill:#ffffff;"/>
  </g>
  <g id="axes_1">
   <g id="patch_2">
    <path d="M 53.74375 279.86258 
L 434.345614 279.86258 
L 434.345614 10.8 
L 53.74375 10.8 
z
" style="fill:#ffffff;"/>
   </g>
   <g id="matplotlib.axis_1">
    <g id="xtick_1">
     <g id="line2d_1">
      <defs>
       <path d="M 0 0 
L 0 3.5 
" id="mdf550dfe20" style="stroke:#000000;stroke-width:0.8;"/>
      </defs>
      <g>
       <use style="stroke:#000000;stroke-width:0.8;" x="109.01963" xlink:href="#mdf550dfe20" y="279.86258"/>
      </g>
     </g>
     <g id="text_1">
      <!-- 2020-03-01 -->
      <defs>
       <path d="M 19.1875 8.296875 
L 53.609375 8.296875 
L 53.609375 0 
L 7.328125 0 
L 7.328125 8.296875 
Q 12.9375 14.109375 22.625 23.890625 
Q 32.328125 33.6875 34.8125 36.53125 
Q 39.546875 41.84375 41.421875 45.53125 
Q 43.3125 49.21875 43.3125 52.78125 
Q 43.3125 58.59375 39.234375 62.25 
Q 35.15625 65.921875 28.609375 65.921875 
Q 23.96875 65.921875 18.8125 64.3125 
Q 13.671875 62.703125 7.8125 59.421875 
L 7.8125 69.390625 
Q 13.765625 71.78125 18.9375 73 
Q 24.125 74.21875 28.421875 74.21875 
Q 39.75 74.21875 46.484375 68.546875 
Q 53.21875 62.890625 53.21875 53.421875 
Q 53.21875 48.921875 51.53125 44.890625 
Q 49.859375 40.875 45.40625 35.40625 
Q 44.1875 33.984375 37.640625 27.21875 
Q 31.109375 20.453125 19.1875 8.296875 
z
" id="DejaVuSans-50"/>
       <path d="M 31.78125 66.40625 
Q 24.171875 66.40625 20.328125 58.90625 
Q 16.5 51.421875 16.5 36.375 
Q 16.5 21.390625 20.328125 13.890625 
Q 24.171875 6.390625 31.78125 6.390625 
Q 39.453125 6.390625 43.28125 13.890625 
Q 47.125 21.390625 47.125 36.375 
Q 47.125 51.421875 43.28125 58.90625 
Q 39.453125 66.40625 31.78125 66.40625 
z
M 31.78125 74.21875 
Q 44.046875 74.21875 50.515625 64.515625 
Q 56.984375 54.828125 56.984375 36.375 
Q 56.984375 17.96875 50.515625 8.265625 
Q 44.046875 -1.421875 31.78125 -1.421875 
Q 19.53125 -1.421875 13.0625 8.265625 
Q 6.59375 17.96875 6.59375 36.375 
Q 6.59375 54.828125 13.0625 64.515625 
Q 19.53125 74.21875 31.78125 74.21875 
z
" id="DejaVuSans-48"/>
       <path d="M 4.890625 31.390625 
L 31.203125 31.390625 
L 31.203125 23.390625 
L 4.890625 23.390625 
z
" id="DejaVuSans-45"/>
       <path d="M 40.578125 39.3125 
Q 47.65625 37.796875 51.625 33 
Q 55.609375 28.21875 55.609375 21.1875 
Q 55.609375 10.40625 48.1875 4.484375 
Q 40.765625 -1.421875 27.09375 -1.421875 
Q 22.515625 -1.421875 17.65625 -0.515625 
Q 12.796875 0.390625 7.625 2.203125 
L 7.625 11.71875 
Q 11.71875 9.328125 16.59375 8.109375 
Q 21.484375 6.890625 26.8125 6.890625 
Q 36.078125 6.890625 40.9375 10.546875 
Q 45.796875 14.203125 45.796875 21.1875 
Q 45.796875 27.640625 41.28125 31.265625 
Q 36.765625 34.90625 28.71875 34.90625 
L 20.21875 34.90625 
L 20.21875 43.015625 
L 29.109375 43.015625 
Q 36.375 43.015625 40.234375 45.921875 
Q 44.09375 48.828125 44.09375 54.296875 
Q 44.09375 59.90625 40.109375 62.90625 
Q 36.140625 65.921875 28.71875 65.921875 
Q 24.65625 65.921875 20.015625 65.03125 
Q 15.375 64.15625 9.8125 62.3125 
L 9.8125 71.09375 
Q 15.4375 72.65625 20.34375 73.4375 
Q 25.25 74.21875 29.59375 74.21875 
Q 40.828125 74.21875 47.359375 69.109375 
Q 53.90625 64.015625 53.90625 55.328125 
Q 53.90625 49.265625 50.4375 45.09375 
Q 46.96875 40.921875 40.578125 39.3125 
z
" id="DejaVuSans-51"/>
       <path d="M 12.40625 8.296875 
L 28.515625 8.296875 
L 28.515625 63.921875 
L 10.984375 60.40625 
L 10.984375 69.390625 
L 28.421875 72.90625 
L 38.28125 72.90625 
L 38.28125 8.296875 
L 54.390625 8.296875 
L 54.390625 0 
L 12.40625 0 
z
" id="DejaVuSans-49"/>
      </defs>
      <g transform="translate(90.423827 333.329439)rotate(-45)scale(0.1 -0.1)">
       <use xlink:href="#DejaVuSans-50"/>
       <use x="63.623047" xlink:href="#DejaVuSans-48"/>
       <use x="127.246094" xlink:href="#DejaVuSans-50"/>
       <use x="190.869141" xlink:href="#DejaVuSans-48"/>
       <use x="254.492188" xlink:href="#DejaVuSans-45"/>
       <use x="290.576172" xlink:href="#DejaVuSans-48"/>
       <use x="354.199219" xlink:href="#DejaVuSans-51"/>
       <use x="417.822266" xlink:href="#DejaVuSans-45"/>
       <use x="453.90625" xlink:href="#DejaVuSans-48"/>
       <use x="517.529297" xlink:href="#DejaVuSans-49"/>
      </g>
     </g>
    </g>
    <g id="xtick_2">
     <g id="line2d_2">
      <g>
       <use style="stroke:#000000;stroke-width:0.8;" x="168.09309" xlink:href="#mdf550dfe20" y="279.86258"/>
      </g>
     </g>
     <g id="text_2">
      <!-- 2020-03-15 -->
      <defs>
       <path d="M 10.796875 72.90625 
L 49.515625 72.90625 
L 49.515625 64.59375 
L 19.828125 64.59375 
L 19.828125 46.734375 
Q 21.96875 47.46875 24.109375 47.828125 
Q 26.265625 48.1875 28.421875 48.1875 
Q 40.625 48.1875 47.75 41.5 
Q 54.890625 34.8125 54.890625 23.390625 
Q 54.890625 11.625 47.5625 5.09375 
Q 40.234375 -1.421875 26.90625 -1.421875 
Q 22.3125 -1.421875 17.546875 -0.640625 
Q 12.796875 0.140625 7.71875 1.703125 
L 7.71875 11.625 
Q 12.109375 9.234375 16.796875 8.0625 
Q 21.484375 6.890625 26.703125 6.890625 
Q 35.15625 6.890625 40.078125 11.328125 
Q 45.015625 15.765625 45.015625 23.390625 
Q 45.015625 31 40.078125 35.4375 
Q 35.15625 39.890625 26.703125 39.890625 
Q 22.75 39.890625 18.8125 39.015625 
Q 14.890625 38.140625 10.796875 36.28125 
z
" id="DejaVuSans-53"/>
      </defs>
      <g transform="translate(149.497287 333.329439)rotate(-45)scale(0.1 -0.1)">
       <use xlink:href="#DejaVuSans-50"/>
       <use x="63.623047" xlink:href="#DejaVuSans-48"/>
       <use x="127.246094" xlink:href="#DejaVuSans-50"/>
       <use x="190.869141" xlink:href="#DejaVuSans-48"/>
       <use x="254.492188" xlink:href="#DejaVuSans-45"/>
       <use x="290.576172" xlink:href="#DejaVuSans-48"/>
       <use x="354.199219" xlink:href="#DejaVuSans-51"/>
       <use x="417.822266" xlink:href="#DejaVuSans-45"/>
       <use x="453.90625" xlink:href="#DejaVuSans-49"/>
       <use x="517.529297" xlink:href="#DejaVuSans-53"/>
      </g>
     </g>
    </g>
    <g id="xtick_3">
     <g id="line2d_3">
      <g>
       <use style="stroke:#000000;stroke-width:0.8;" x="239.825149" xlink:href="#mdf550dfe20" y="279.86258"/>
      </g>
     </g>
     <g id="text_3">
      <!-- 2020-04-01 -->
      <defs>
       <path d="M 37.796875 64.3125 
L 12.890625 25.390625 
L 37.796875 25.390625 
z
M 35.203125 72.90625 
L 47.609375 72.90625 
L 47.609375 25.390625 
L 58.015625 25.390625 
L 58.015625 17.1875 
L 47.609375 17.1875 
L 47.609375 0 
L 37.796875 0 
L 37.796875 17.1875 
L 4.890625 17.1875 
L 4.890625 26.703125 
z
" id="DejaVuSans-52"/>
      </defs>
      <g transform="translate(221.229345 333.329439)rotate(-45)scale(0.1 -0.1)">
       <use xlink:href="#DejaVuSans-50"/>
       <use x="63.623047" xlink:href="#DejaVuSans-48"/>
       <use x="127.246094" xlink:href="#DejaVuSans-50"/>
       <use x="190.869141" xlink:href="#DejaVuSans-48"/>
       <use x="254.492188" xlink:href="#DejaVuSans-45"/>
       <use x="290.576172" xlink:href="#DejaVuSans-48"/>
       <use x="354.199219" xlink:href="#DejaVuSans-52"/>
       <use x="417.822266" xlink:href="#DejaVuSans-45"/>
       <use x="453.90625" xlink:href="#DejaVuSans-48"/>
       <use x="517.529297" xlink:href="#DejaVuSans-49"/>
      </g>
     </g>
    </g>
    <g id="xtick_4">
     <g id="line2d_4">
      <g>
       <use style="stroke:#000000;stroke-width:0.8;" x="298.898609" xlink:href="#mdf550dfe20" y="279.86258"/>
      </g>
     </g>
     <g id="text_4">
      <!-- 2020-04-15 -->
      <g transform="translate(280.302805 333.329439)rotate(-45)scale(0.1 -0.1)">
       <use xlink:href="#DejaVuSans-50"/>
       <use x="63.623047" xlink:href="#DejaVuSans-48"/>
       <use x="127.246094" xlink:href="#DejaVuSans-50"/>
       <use x="190.869141" xlink:href="#DejaVuSans-48"/>
       <use x="254.492188" xlink:href="#DejaVuSans-45"/>
       <use x="290.576172" xlink:href="#DejaVuSans-48"/>
       <use x="354.199219" xlink:href="#DejaVuSans-52"/>
       <use x="417.822266" xlink:href="#DejaVuSans-45"/>
       <use x="453.90625" xlink:href="#DejaVuSans-49"/>
       <use x="517.529297" xlink:href="#DejaVuSans-53"/>
      </g>
     </g>
    </g>
    <g id="xtick_5">
     <g id="line2d_5">
      <g>
       <use style="stroke:#000000;stroke-width:0.8;" x="366.411135" xlink:href="#mdf550dfe20" y="279.86258"/>
      </g>
     </g>
     <g id="text_5">
      <!-- 2020-05-01 -->
      <g transform="translate(347.815331 333.329439)rotate(-45)scale(0.1 -0.1)">
       <use xlink:href="#DejaVuSans-50"/>
       <use x="63.623047" xlink:href="#DejaVuSans-48"/>
       <use x="127.246094" xlink:href="#DejaVuSans-50"/>
       <use x="190.869141" xlink:href="#DejaVuSans-48"/>
       <use x="254.492188" xlink:href="#DejaVuSans-45"/>
       <use x="290.576172" xlink:href="#DejaVuSans-48"/>
       <use x="354.199219" xlink:href="#DejaVuSans-53"/>
       <use x="417.822266" xlink:href="#DejaVuSans-45"/>
       <use x="453.90625" xlink:href="#DejaVuSans-48"/>
       <use x="517.529297" xlink:href="#DejaVuSans-49"/>
      </g>
     </g>
    </g>
    <g id="xtick_6">
     <g id="line2d_6">
      <g>
       <use style="stroke:#000000;stroke-width:0.8;" x="425.484595" xlink:href="#mdf550dfe20" y="279.86258"/>
      </g>
     </g>
     <g id="text_6">
      <!-- 2020-05-15 -->
      <g transform="translate(406.888791 333.329439)rotate(-45)scale(0.1 -0.1)">
       <use xlink:href="#DejaVuSans-50"/>
       <use x="63.623047" xlink:href="#DejaVuSans-48"/>
       <use x="127.246094" xlink:href="#DejaVuSans-50"/>
       <use x="190.869141" xlink:href="#DejaVuSans-48"/>
       <use x="254.492188" xlink:href="#DejaVuSans-45"/>
       <use x="290.576172" xlink:href="#DejaVuSans-48"/>
       <use x="354.199219" xlink:href="#DejaVuSans-53"/>
       <use x="417.822266" xlink:href="#DejaVuSans-45"/>
       <use x="453.90625" xlink:href="#DejaVuSans-49"/>
       <use x="517.529297" xlink:href="#DejaVuSans-53"/>
      </g>
     </g>
    </g>
   </g>
   <g id="matplotlib.axis_2">
    <g id="ytick_1">
     <g id="line2d_7">
      <defs>
       <path d="M 0 0 
L -3.5 0 
" id="mbab65ce614" style="stroke:#000000;stroke-width:0.8;"/>
      </defs>
      <g>
       <use style="stroke:#000000;stroke-width:0.8;" x="53.74375" xlink:href="#mbab65ce614" y="279.86258"/>
      </g>
     </g>
     <g id="text_7">
      <!-- 0.0 -->
      <defs>
       <path d="M 10.6875 12.40625 
L 21 12.40625 
L 21 0 
L 10.6875 0 
z
" id="DejaVuSans-46"/>
      </defs>
      <g transform="translate(30.840625 283.661798)scale(0.1 -0.1)">
       <use xlink:href="#DejaVuSans-48"/>
       <use x="63.623047" xlink:href="#DejaVuSans-46"/>
       <use x="95.410156" xlink:href="#DejaVuSans-48"/>
      </g>
     </g>
    </g>
    <g id="ytick_2">
     <g id="line2d_8">
      <g>
       <use style="stroke:#000000;stroke-width:0.8;" x="53.74375" xlink:href="#mbab65ce614" y="247.966261"/>
      </g>
     </g>
     <g id="text_8">
      <!-- 2.5 -->
      <g transform="translate(30.840625 251.76548)scale(0.1 -0.1)">
       <use xlink:href="#DejaVuSans-50"/>
       <use x="63.623047" xlink:href="#DejaVuSans-46"/>
       <use x="95.410156" xlink:href="#DejaVuSans-53"/>
      </g>
     </g>
    </g>
    <g id="ytick_3">
     <g id="line2d_9">
      <g>
       <use style="stroke:#000000;stroke-width:0.8;" x="53.74375" xlink:href="#mbab65ce614" y="216.069942"/>
      </g>
     </g>
     <g id="text_9">
      <!-- 5.0 -->
      <g transform="translate(30.840625 219.869161)scale(0.1 -0.1)">
       <use xlink:href="#DejaVuSans-53"/>
       <use x="63.623047" xlink:href="#DejaVuSans-46"/>
       <use x="95.410156" xlink:href="#DejaVuSans-48"/>
      </g>
     </g>
    </g>
    <g id="ytick_4">
     <g id="line2d_10">
      <g>
       <use style="stroke:#000000;stroke-width:0.8;" x="53.74375" xlink:href="#mbab65ce614" y="184.173623"/>
      </g>
     </g>
     <g id="text_10">
      <!-- 7.5 -->
      <defs>
       <path d="M 8.203125 72.90625 
L 55.078125 72.90625 
L 55.078125 68.703125 
L 28.609375 0 
L 18.3125 0 
L 43.21875 64.59375 
L 8.203125 64.59375 
z
" id="DejaVuSans-55"/>
      </defs>
      <g transform="translate(30.840625 187.972842)scale(0.1 -0.1)">
       <use xlink:href="#DejaVuSans-55"/>
       <use x="63.623047" xlink:href="#DejaVuSans-46"/>
       <use x="95.410156" xlink:href="#DejaVuSans-53"/>
      </g>
     </g>
    </g>
    <g id="ytick_5">
     <g id="line2d_11">
      <g>
       <use style="stroke:#000000;stroke-width:0.8;" x="53.74375" xlink:href="#mbab65ce614" y="152.277305"/>
      </g>
     </g>
     <g id="text_11">
      <!-- 10.0 -->
      <g transform="translate(24.478125 156.076523)scale(0.1 -0.1)">
       <use xlink:href="#DejaVuSans-49"/>
       <use x="63.623047" xlink:href="#DejaVuSans-48"/>
       <use x="127.246094" xlink:href="#DejaVuSans-46"/>
       <use x="159.033203" xlink:href="#DejaVuSans-48"/>
      </g>
     </g>
    </g>
    <g id="ytick_6">
     <g id="line2d_12">
      <g>
       <use style="stroke:#000000;stroke-width:0.8;" x="53.74375" xlink:href="#mbab65ce614" y="120.380986"/>
      </g>
     </g>
     <g id="text_12">
      <!-- 12.5 -->
      <g transform="translate(24.478125 124.180205)scale(0.1 -0.1)">
       <use xlink:href="#DejaVuSans-49"/>
       <use x="63.623047" xlink:href="#DejaVuSans-50"/>
       <use x="127.246094" xlink:href="#DejaVuSans-46"/>
       <use x="159.033203" xlink:href="#DejaVuSans-53"/>
      </g>
     </g>
    </g>
    <g id="ytick_7">
     <g id="line2d_13">
      <g>
       <use style="stroke:#000000;stroke-width:0.8;" x="53.74375" xlink:href="#mbab65ce614" y="88.484667"/>
      </g>
     </g>
     <g id="text_13">
      <!-- 15.0 -->
      <g transform="translate(24.478125 92.283886)scale(0.1 -0.1)">
       <use xlink:href="#DejaVuSans-49"/>
       <use x="63.623047" xlink:href="#DejaVuSans-53"/>
       <use x="127.246094" xlink:href="#DejaVuSans-46"/>
       <use x="159.033203" xlink:href="#DejaVuSans-48"/>
      </g>
     </g>
    </g>
    <g id="ytick_8">
     <g id="line2d_14">
      <g>
       <use style="stroke:#000000;stroke-width:0.8;" x="53.74375" xlink:href="#mbab65ce614" y="56.588348"/>
      </g>
     </g>
     <g id="text_14">
      <!-- 17.5 -->
      <g transform="translate(24.478125 60.387567)scale(0.1 -0.1)">
       <use xlink:href="#DejaVuSans-49"/>
       <use x="63.623047" xlink:href="#DejaVuSans-55"/>
       <use x="127.246094" xlink:href="#DejaVuSans-46"/>
       <use x="159.033203" xlink:href="#DejaVuSans-53"/>
      </g>
     </g>
    </g>
    <g id="ytick_9">
     <g id="line2d_15">
      <g>
       <use style="stroke:#000000;stroke-width:0.8;" x="53.74375" xlink:href="#mbab65ce614" y="24.692029"/>
      </g>
     </g>
     <g id="text_15">
      <!-- 20.0 -->
      <g transform="translate(24.478125 28.491248)scale(0.1 -0.1)">
       <use xlink:href="#DejaVuSans-50"/>
       <use x="63.623047" xlink:href="#DejaVuSans-48"/>
       <use x="127.246094" xlink:href="#DejaVuSans-46"/>
       <use x="159.033203" xlink:href="#DejaVuSans-48"/>
      </g>
     </g>
    </g>
    <g id="text_16">
     <!-- AR pcr (por 100000 hab.) diarios -->
     <defs>
      <path d="M 34.1875 63.1875 
L 20.796875 26.90625 
L 47.609375 26.90625 
z
M 28.609375 72.90625 
L 39.796875 72.90625 
L 67.578125 0 
L 57.328125 0 
L 50.6875 18.703125 
L 17.828125 18.703125 
L 11.1875 0 
L 0.78125 0 
z
" id="DejaVuSans-65"/>
      <path d="M 44.390625 34.1875 
Q 47.5625 33.109375 50.5625 29.59375 
Q 53.5625 26.078125 56.59375 19.921875 
L 66.609375 0 
L 56 0 
L 46.6875 18.703125 
Q 43.0625 26.03125 39.671875 28.421875 
Q 36.28125 30.8125 30.421875 30.8125 
L 19.671875 30.8125 
L 19.671875 0 
L 9.8125 0 
L 9.8125 72.90625 
L 32.078125 72.90625 
Q 44.578125 72.90625 50.734375 67.671875 
Q 56.890625 62.453125 56.890625 51.90625 
Q 56.890625 45.015625 53.6875 40.46875 
Q 50.484375 35.9375 44.390625 34.1875 
z
M 19.671875 64.796875 
L 19.671875 38.921875 
L 32.078125 38.921875 
Q 39.203125 38.921875 42.84375 42.21875 
Q 46.484375 45.515625 46.484375 51.90625 
Q 46.484375 58.296875 42.84375 61.546875 
Q 39.203125 64.796875 32.078125 64.796875 
z
" id="DejaVuSans-82"/>
      <path id="DejaVuSans-32"/>
      <path d="M 18.109375 8.203125 
L 18.109375 -20.796875 
L 9.078125 -20.796875 
L 9.078125 54.6875 
L 18.109375 54.6875 
L 18.109375 46.390625 
Q 20.953125 51.265625 25.265625 53.625 
Q 29.59375 56 35.59375 56 
Q 45.5625 56 51.78125 48.09375 
Q 58.015625 40.1875 58.015625 27.296875 
Q 58.015625 14.40625 51.78125 6.484375 
Q 45.5625 -1.421875 35.59375 -1.421875 
Q 29.59375 -1.421875 25.265625 0.953125 
Q 20.953125 3.328125 18.109375 8.203125 
z
M 48.6875 27.296875 
Q 48.6875 37.203125 44.609375 42.84375 
Q 40.53125 48.484375 33.40625 48.484375 
Q 26.265625 48.484375 22.1875 42.84375 
Q 18.109375 37.203125 18.109375 27.296875 
Q 18.109375 17.390625 22.1875 11.75 
Q 26.265625 6.109375 33.40625 6.109375 
Q 40.53125 6.109375 44.609375 11.75 
Q 48.6875 17.390625 48.6875 27.296875 
z
" id="DejaVuSans-112"/>
      <path d="M 48.78125 52.59375 
L 48.78125 44.1875 
Q 44.96875 46.296875 41.140625 47.34375 
Q 37.3125 48.390625 33.40625 48.390625 
Q 24.65625 48.390625 19.8125 42.84375 
Q 14.984375 37.3125 14.984375 27.296875 
Q 14.984375 17.28125 19.8125 11.734375 
Q 24.65625 6.203125 33.40625 6.203125 
Q 37.3125 6.203125 41.140625 7.25 
Q 44.96875 8.296875 48.78125 10.40625 
L 48.78125 2.09375 
Q 45.015625 0.34375 40.984375 -0.53125 
Q 36.96875 -1.421875 32.421875 -1.421875 
Q 20.0625 -1.421875 12.78125 6.34375 
Q 5.515625 14.109375 5.515625 27.296875 
Q 5.515625 40.671875 12.859375 48.328125 
Q 20.21875 56 33.015625 56 
Q 37.15625 56 41.109375 55.140625 
Q 45.0625 54.296875 48.78125 52.59375 
z
" id="DejaVuSans-99"/>
      <path d="M 41.109375 46.296875 
Q 39.59375 47.171875 37.8125 47.578125 
Q 36.03125 48 33.890625 48 
Q 26.265625 48 22.1875 43.046875 
Q 18.109375 38.09375 18.109375 28.8125 
L 18.109375 0 
L 9.078125 0 
L 9.078125 54.6875 
L 18.109375 54.6875 
L 18.109375 46.1875 
Q 20.953125 51.171875 25.484375 53.578125 
Q 30.03125 56 36.53125 56 
Q 37.453125 56 38.578125 55.875 
Q 39.703125 55.765625 41.0625 55.515625 
z
" id="DejaVuSans-114"/>
      <path d="M 31 75.875 
Q 24.46875 64.65625 21.28125 53.65625 
Q 18.109375 42.671875 18.109375 31.390625 
Q 18.109375 20.125 21.3125 9.0625 
Q 24.515625 -2 31 -13.1875 
L 23.1875 -13.1875 
Q 15.875 -1.703125 12.234375 9.375 
Q 8.59375 20.453125 8.59375 31.390625 
Q 8.59375 42.28125 12.203125 53.3125 
Q 15.828125 64.359375 23.1875 75.875 
z
" id="DejaVuSans-40"/>
      <path d="M 30.609375 48.390625 
Q 23.390625 48.390625 19.1875 42.75 
Q 14.984375 37.109375 14.984375 27.296875 
Q 14.984375 17.484375 19.15625 11.84375 
Q 23.34375 6.203125 30.609375 6.203125 
Q 37.796875 6.203125 41.984375 11.859375 
Q 46.1875 17.53125 46.1875 27.296875 
Q 46.1875 37.015625 41.984375 42.703125 
Q 37.796875 48.390625 30.609375 48.390625 
z
M 30.609375 56 
Q 42.328125 56 49.015625 48.375 
Q 55.71875 40.765625 55.71875 27.296875 
Q 55.71875 13.875 49.015625 6.21875 
Q 42.328125 -1.421875 30.609375 -1.421875 
Q 18.84375 -1.421875 12.171875 6.21875 
Q 5.515625 13.875 5.515625 27.296875 
Q 5.515625 40.765625 12.171875 48.375 
Q 18.84375 56 30.609375 56 
z
" id="DejaVuSans-111"/>
      <path d="M 54.890625 33.015625 
L 54.890625 0 
L 45.90625 0 
L 45.90625 32.71875 
Q 45.90625 40.484375 42.875 44.328125 
Q 39.84375 48.1875 33.796875 48.1875 
Q 26.515625 48.1875 22.3125 43.546875 
Q 18.109375 38.921875 18.109375 30.90625 
L 18.109375 0 
L 9.078125 0 
L 9.078125 75.984375 
L 18.109375 75.984375 
L 18.109375 46.1875 
Q 21.34375 51.125 25.703125 53.5625 
Q 30.078125 56 35.796875 56 
Q 45.21875 56 50.046875 50.171875 
Q 54.890625 44.34375 54.890625 33.015625 
z
" id="DejaVuSans-104"/>
      <path d="M 34.28125 27.484375 
Q 23.390625 27.484375 19.1875 25 
Q 14.984375 22.515625 14.984375 16.5 
Q 14.984375 11.71875 18.140625 8.90625 
Q 21.296875 6.109375 26.703125 6.109375 
Q 34.1875 6.109375 38.703125 11.40625 
Q 43.21875 16.703125 43.21875 25.484375 
L 43.21875 27.484375 
z
M 52.203125 31.203125 
L 52.203125 0 
L 43.21875 0 
L 43.21875 8.296875 
Q 40.140625 3.328125 35.546875 0.953125 
Q 30.953125 -1.421875 24.3125 -1.421875 
Q 15.921875 -1.421875 10.953125 3.296875 
Q 6 8.015625 6 15.921875 
Q 6 25.140625 12.171875 29.828125 
Q 18.359375 34.515625 30.609375 34.515625 
L 43.21875 34.515625 
L 43.21875 35.40625 
Q 43.21875 41.609375 39.140625 45 
Q 35.0625 48.390625 27.6875 48.390625 
Q 23 48.390625 18.546875 47.265625 
Q 14.109375 46.140625 10.015625 43.890625 
L 10.015625 52.203125 
Q 14.9375 54.109375 19.578125 55.046875 
Q 24.21875 56 28.609375 56 
Q 40.484375 56 46.34375 49.84375 
Q 52.203125 43.703125 52.203125 31.203125 
z
" id="DejaVuSans-97"/>
      <path d="M 48.6875 27.296875 
Q 48.6875 37.203125 44.609375 42.84375 
Q 40.53125 48.484375 33.40625 48.484375 
Q 26.265625 48.484375 22.1875 42.84375 
Q 18.109375 37.203125 18.109375 27.296875 
Q 18.109375 17.390625 22.1875 11.75 
Q 26.265625 6.109375 33.40625 6.109375 
Q 40.53125 6.109375 44.609375 11.75 
Q 48.6875 17.390625 48.6875 27.296875 
z
M 18.109375 46.390625 
Q 20.953125 51.265625 25.265625 53.625 
Q 29.59375 56 35.59375 56 
Q 45.5625 56 51.78125 48.09375 
Q 58.015625 40.1875 58.015625 27.296875 
Q 58.015625 14.40625 51.78125 6.484375 
Q 45.5625 -1.421875 35.59375 -1.421875 
Q 29.59375 -1.421875 25.265625 0.953125 
Q 20.953125 3.328125 18.109375 8.203125 
L 18.109375 0 
L 9.078125 0 
L 9.078125 75.984375 
L 18.109375 75.984375 
z
" id="DejaVuSans-98"/>
      <path d="M 8.015625 75.875 
L 15.828125 75.875 
Q 23.140625 64.359375 26.78125 53.3125 
Q 30.421875 42.28125 30.421875 31.390625 
Q 30.421875 20.453125 26.78125 9.375 
Q 23.140625 -1.703125 15.828125 -13.1875 
L 8.015625 -13.1875 
Q 14.5 -2 17.703125 9.0625 
Q 20.90625 20.125 20.90625 31.390625 
Q 20.90625 42.671875 17.703125 53.65625 
Q 14.5 64.65625 8.015625 75.875 
z
" id="DejaVuSans-41"/>
      <path d="M 45.40625 46.390625 
L 45.40625 75.984375 
L 54.390625 75.984375 
L 54.390625 0 
L 45.40625 0 
L 45.40625 8.203125 
Q 42.578125 3.328125 38.25 0.953125 
Q 33.9375 -1.421875 27.875 -1.421875 
Q 17.96875 -1.421875 11.734375 6.484375 
Q 5.515625 14.40625 5.515625 27.296875 
Q 5.515625 40.1875 11.734375 48.09375 
Q 17.96875 56 27.875 56 
Q 33.9375 56 38.25 53.625 
Q 42.578125 51.265625 45.40625 46.390625 
z
M 14.796875 27.296875 
Q 14.796875 17.390625 18.875 11.75 
Q 22.953125 6.109375 30.078125 6.109375 
Q 37.203125 6.109375 41.296875 11.75 
Q 45.40625 17.390625 45.40625 27.296875 
Q 45.40625 37.203125 41.296875 42.84375 
Q 37.203125 48.484375 30.078125 48.484375 
Q 22.953125 48.484375 18.875 42.84375 
Q 14.796875 37.203125 14.796875 27.296875 
z
" id="DejaVuSans-100"/>
      <path d="M 9.421875 54.6875 
L 18.40625 54.6875 
L 18.40625 0 
L 9.421875 0 
z
M 9.421875 75.984375 
L 18.40625 75.984375 
L 18.40625 64.59375 
L 9.421875 64.59375 
z
" id="DejaVuSans-105"/>
      <path d="M 44.28125 53.078125 
L 44.28125 44.578125 
Q 40.484375 46.53125 36.375 47.5 
Q 32.28125 48.484375 27.875 48.484375 
Q 21.1875 48.484375 17.84375 46.4375 
Q 14.5 44.390625 14.5 40.28125 
Q 14.5 37.15625 16.890625 35.375 
Q 19.28125 33.59375 26.515625 31.984375 
L 29.59375 31.296875 
Q 39.15625 29.25 43.1875 25.515625 
Q 47.21875 21.78125 47.21875 15.09375 
Q 47.21875 7.46875 41.1875 3.015625 
Q 35.15625 -1.421875 24.609375 -1.421875 
Q 20.21875 -1.421875 15.453125 -0.5625 
Q 10.6875 0.296875 5.421875 2 
L 5.421875 11.28125 
Q 10.40625 8.6875 15.234375 7.390625 
Q 20.0625 6.109375 24.8125 6.109375 
Q 31.15625 6.109375 34.5625 8.28125 
Q 37.984375 10.453125 37.984375 14.40625 
Q 37.984375 18.0625 35.515625 20.015625 
Q 33.0625 21.96875 24.703125 23.78125 
L 21.578125 24.515625 
Q 13.234375 26.265625 9.515625 29.90625 
Q 5.8125 33.546875 5.8125 39.890625 
Q 5.8125 47.609375 11.28125 51.796875 
Q 16.75 56 26.8125 56 
Q 31.78125 56 36.171875 55.265625 
Q 40.578125 54.546875 44.28125 53.078125 
z
" id="DejaVuSans-115"/>
     </defs>
     <g transform="translate(18.398438 227.160196)rotate(-90)scale(0.1 -0.1)">
      <use xlink:href="#DejaVuSans-65"/>
      <use x="68.408203" xlink:href="#DejaVuSans-82"/>
      <use x="137.890625" xlink:href="#DejaVuSans-32"/>
      <use x="169.677734" xlink:href="#DejaVuSans-112"/>
      <use x="233.154297" xlink:href="#DejaVuSans-99"/>
      <use x="288.134766" xlink:href="#DejaVuSans-114"/>
      <use x="329.248047" xlink:href="#DejaVuSans-32"/>
      <use x="361.035156" xlink:href="#DejaVuSans-40"/>
      <use x="400.048828" xlink:href="#DejaVuSans-112"/>
      <use x="463.525391" xlink:href="#DejaVuSans-111"/>
      <use x="524.707031" xlink:href="#DejaVuSans-114"/>
      <use x="565.820312" xlink:href="#DejaVuSans-32"/>
      <use x="597.607422" xlink:href="#DejaVuSans-49"/>
      <use x="661.230469" xlink:href="#DejaVuSans-48"/>
      <use x="724.853516" xlink:href="#DejaVuSans-48"/>
      <use x="788.476562" xlink:href="#DejaVuSans-48"/>
      <use x="852.099609" xlink:href="#DejaVuSans-48"/>
      <use x="915.722656" xlink:href="#DejaVuSans-48"/>
      <use x="979.345703" xlink:href="#DejaVuSans-32"/>
      <use x="1011.132812" xlink:href="#DejaVuSans-104"/>
      <use x="1074.511719" xlink:href="#DejaVuSans-97"/>
      <use x="1135.791016" xlink:href="#DejaVuSans-98"/>
      <use x="1199.267578" xlink:href="#DejaVuSans-46"/>
      <use x="1231.054688" xlink:href="#DejaVuSans-41"/>
      <use x="1270.068359" xlink:href="#DejaVuSans-32"/>
      <use x="1301.855469" xlink:href="#DejaVuSans-100"/>
      <use x="1365.332031" xlink:href="#DejaVuSans-105"/>
      <use x="1393.115234" xlink:href="#DejaVuSans-97"/>
      <use x="1454.394531" xlink:href="#DejaVuSans-114"/>
      <use x="1495.507812" xlink:href="#DejaVuSans-105"/>
      <use x="1523.291016" xlink:href="#DejaVuSans-111"/>
      <use x="1584.472656" xlink:href="#DejaVuSans-115"/>
     </g>
    </g>
   </g>
   <g id="line2d_16">
    <path clip-path="url(#p8bab9cb711)" d="M 71.043835 279.86258 
L 75.263368 279.86258 
L 79.4829 279.86258 
L 83.702433 279.86258 
L 87.921966 279.86258 
L 92.141499 279.86258 
L 96.361032 279.86258 
L 100.580565 279.86258 
L 104.800098 279.86258 
L 109.01963 279.86258 
L 113.239163 279.86258 
L 117.458696 279.86258 
L 121.678229 278.899234 
L 125.897762 279.86258 
L 130.117295 276.009195 
L 134.336828 279.86258 
L 138.55636 277.935887 
L 142.775893 257.705618 
L 146.995426 272.15581 
L 151.214959 273.119157 
L 155.434492 261.559003 
L 159.654025 264.449041 
L 163.873558 240.365388 
L 168.09309 254.81558 
L 172.312623 222.061811 
L 176.532156 261.559003 
L 180.751689 226.878541 
L 184.971222 203.758234 
L 189.190755 218.208426 
L 193.410288 175.821195 
L 197.62982 177.747888 
L 201.849353 164.261042 
L 206.068886 136.324003 
L 210.288419 78.523234 
L 214.507952 65.999734 
L 218.727485 35.172658 
L 222.947017 23.612504 
L 227.16655 67.926427 
L 231.386083 92.973427 
L 235.605616 68.889773 
L 239.825149 78.523234 
L 244.044682 97.790157 
L 248.264215 97.790157 
L 252.483747 131.507273 
L 256.70328 169.077772 
L 260.922813 181.601272 
L 265.142346 183.527965 
L 269.361879 148.847503 
L 273.581412 139.214042 
L 277.800945 146.920811 
L 282.020477 182.564619 
L 286.24001 167.15108 
L 290.459543 223.988503 
L 294.679076 190.271388 
L 298.898609 209.538311 
L 303.118142 204.72158 
L 307.337675 220.135118 
L 311.557207 224.951849 
L 315.77674 235.548657 
L 319.996273 250.962195 
L 324.215806 205.684926 
L 328.435339 210.501657 
L 332.654872 247.108811 
L 336.874405 226.878541 
L 341.093937 248.072157 
L 345.31347 250.962195 
L 349.533003 261.559003 
L 353.752536 243.255426 
L 357.972069 232.658618 
L 362.191602 255.778926 
L 366.411135 260.595657 
L 370.630667 252.888887 
L 374.8502 256.742272 
L 379.069733 261.559003 
L 383.289266 256.742272 
L 387.508799 253.852234 
L 391.728332 264.449041 
L 395.947865 263.485695 
L 400.167397 255.778926 
L 404.38693 260.595657 
L 408.606463 257.705618 
L 412.825996 267.33908 
L 417.045529 263.485695 
" style="fill:none;stroke:#1f77b4;stroke-linecap:square;stroke-width:1.5;"/>
    <defs>
     <path d="M 0 1.5 
C 0.397805 1.5 0.77937 1.341951 1.06066 1.06066 
C 1.341951 0.77937 1.5 0.397805 1.5 0 
C 1.5 -0.397805 1.341951 -0.77937 1.06066 -1.06066 
C 0.77937 -1.341951 0.397805 -1.5 0 -1.5 
C -0.397805 -1.5 -0.77937 -1.341951 -1.06066 -1.06066 
C -1.341951 -0.77937 -1.5 -0.397805 -1.5 0 
C -1.5 0.397805 -1.341951 0.77937 -1.06066 1.06066 
C -0.77937 1.341951 -0.397805 1.5 0 1.5 
z
" id="m5755937351" style="stroke:#1f77b4;"/>
    </defs>
    <g clip-path="url(#p8bab9cb711)">
     <use style="fill:#1f77b4;stroke:#1f77b4;" x="71.043835" xlink:href="#m5755937351" y="279.86258"/>
     <use style="fill:#1f77b4;stroke:#1f77b4;" x="75.263368" xlink:href="#m5755937351" y="279.86258"/>
     <use style="fill:#1f77b4;stroke:#1f77b4;" x="79.4829" xlink:href="#m5755937351" y="279.86258"/>
     <use style="fill:#1f77b4;stroke:#1f77b4;" x="83.702433" xlink:href="#m5755937351" y="279.86258"/>
     <use style="fill:#1f77b4;stroke:#1f77b4;" x="87.921966" xlink:href="#m5755937351" y="279.86258"/>
     <use style="fill:#1f77b4;stroke:#1f77b4;" x="92.141499" xlink:href="#m5755937351" y="279.86258"/>
     <use style="fill:#1f77b4;stroke:#1f77b4;" x="96.361032" xlink:href="#m5755937351" y="279.86258"/>
     <use style="fill:#1f77b4;stroke:#1f77b4;" x="100.580565" xlink:href="#m5755937351" y="279.86258"/>
     <use style="fill:#1f77b4;stroke:#1f77b4;" x="104.800098" xlink:href="#m5755937351" y="279.86258"/>
     <use style="fill:#1f77b4;stroke:#1f77b4;" x="109.01963" xlink:href="#m5755937351" y="279.86258"/>
     <use style="fill:#1f77b4;stroke:#1f77b4;" x="113.239163" xlink:href="#m5755937351" y="279.86258"/>
     <use style="fill:#1f77b4;stroke:#1f77b4;" x="117.458696" xlink:href="#m5755937351" y="279.86258"/>
     <use style="fill:#1f77b4;stroke:#1f77b4;" x="121.678229" xlink:href="#m5755937351" y="278.899234"/>
     <use style="fill:#1f77b4;stroke:#1f77b4;" x="125.897762" xlink:href="#m5755937351" y="279.86258"/>
     <use style="fill:#1f77b4;stroke:#1f77b4;" x="130.117295" xlink:href="#m5755937351" y="276.009195"/>
     <use style="fill:#1f77b4;stroke:#1f77b4;" x="134.336828" xlink:href="#m5755937351" y="279.86258"/>
     <use style="fill:#1f77b4;stroke:#1f77b4;" x="138.55636" xlink:href="#m5755937351" y="277.935887"/>
     <use style="fill:#1f77b4;stroke:#1f77b4;" x="142.775893" xlink:href="#m5755937351" y="257.705618"/>
     <use style="fill:#1f77b4;stroke:#1f77b4;" x="146.995426" xlink:href="#m5755937351" y="272.15581"/>
     <use style="fill:#1f77b4;stroke:#1f77b4;" x="151.214959" xlink:href="#m5755937351" y="273.119157"/>
     <use style="fill:#1f77b4;stroke:#1f77b4;" x="155.434492" xlink:href="#m5755937351" y="261.559003"/>
     <use style="fill:#1f77b4;stroke:#1f77b4;" x="159.654025" xlink:href="#m5755937351" y="264.449041"/>
     <use style="fill:#1f77b4;stroke:#1f77b4;" x="163.873558" xlink:href="#m5755937351" y="240.365388"/>
     <use style="fill:#1f77b4;stroke:#1f77b4;" x="168.09309" xlink:href="#m5755937351" y="254.81558"/>
     <use style="fill:#1f77b4;stroke:#1f77b4;" x="172.312623" xlink:href="#m5755937351" y="222.061811"/>
     <use style="fill:#1f77b4;stroke:#1f77b4;" x="176.532156" xlink:href="#m5755937351" y="261.559003"/>
     <use style="fill:#1f77b4;stroke:#1f77b4;" x="180.751689" xlink:href="#m5755937351" y="226.878541"/>
     <use style="fill:#1f77b4;stroke:#1f77b4;" x="184.971222" xlink:href="#m5755937351" y="203.758234"/>
     <use style="fill:#1f77b4;stroke:#1f77b4;" x="189.190755" xlink:href="#m5755937351" y="218.208426"/>
     <use style="fill:#1f77b4;stroke:#1f77b4;" x="193.410288" xlink:href="#m5755937351" y="175.821195"/>
     <use style="fill:#1f77b4;stroke:#1f77b4;" x="197.62982" xlink:href="#m5755937351" y="177.747888"/>
     <use style="fill:#1f77b4;stroke:#1f77b4;" x="201.849353" xlink:href="#m5755937351" y="164.261042"/>
     <use style="fill:#1f77b4;stroke:#1f77b4;" x="206.068886" xlink:href="#m5755937351" y="136.324003"/>
     <use style="fill:#1f77b4;stroke:#1f77b4;" x="210.288419" xlink:href="#m5755937351" y="78.523234"/>
     <use style="fill:#1f77b4;stroke:#1f77b4;" x="214.507952" xlink:href="#m5755937351" y="65.999734"/>
     <use style="fill:#1f77b4;stroke:#1f77b4;" x="218.727485" xlink:href="#m5755937351" y="35.172658"/>
     <use style="fill:#1f77b4;stroke:#1f77b4;" x="222.947017" xlink:href="#m5755937351" y="23.612504"/>
     <use style="fill:#1f77b4;stroke:#1f77b4;" x="227.16655" xlink:href="#m5755937351" y="67.926427"/>
     <use style="fill:#1f77b4;stroke:#1f77b4;" x="231.386083" xlink:href="#m5755937351" y="92.973427"/>
     <use style="fill:#1f77b4;stroke:#1f77b4;" x="235.605616" xlink:href="#m5755937351" y="68.889773"/>
     <use style="fill:#1f77b4;stroke:#1f77b4;" x="239.825149" xlink:href="#m5755937351" y="78.523234"/>
     <use style="fill:#1f77b4;stroke:#1f77b4;" x="244.044682" xlink:href="#m5755937351" y="97.790157"/>
     <use style="fill:#1f77b4;stroke:#1f77b4;" x="248.264215" xlink:href="#m5755937351" y="97.790157"/>
     <use style="fill:#1f77b4;stroke:#1f77b4;" x="252.483747" xlink:href="#m5755937351" y="131.507273"/>
     <use style="fill:#1f77b4;stroke:#1f77b4;" x="256.70328" xlink:href="#m5755937351" y="169.077772"/>
     <use style="fill:#1f77b4;stroke:#1f77b4;" x="260.922813" xlink:href="#m5755937351" y="181.601272"/>
     <use style="fill:#1f77b4;stroke:#1f77b4;" x="265.142346" xlink:href="#m5755937351" y="183.527965"/>
     <use style="fill:#1f77b4;stroke:#1f77b4;" x="269.361879" xlink:href="#m5755937351" y="148.847503"/>
     <use style="fill:#1f77b4;stroke:#1f77b4;" x="273.581412" xlink:href="#m5755937351" y="139.214042"/>
     <use style="fill:#1f77b4;stroke:#1f77b4;" x="277.800945" xlink:href="#m5755937351" y="146.920811"/>
     <use style="fill:#1f77b4;stroke:#1f77b4;" x="282.020477" xlink:href="#m5755937351" y="182.564619"/>
     <use style="fill:#1f77b4;stroke:#1f77b4;" x="286.24001" xlink:href="#m5755937351" y="167.15108"/>
     <use style="fill:#1f77b4;stroke:#1f77b4;" x="290.459543" xlink:href="#m5755937351" y="223.988503"/>
     <use style="fill:#1f77b4;stroke:#1f77b4;" x="294.679076" xlink:href="#m5755937351" y="190.271388"/>
     <use style="fill:#1f77b4;stroke:#1f77b4;" x="298.898609" xlink:href="#m5755937351" y="209.538311"/>
     <use style="fill:#1f77b4;stroke:#1f77b4;" x="303.118142" xlink:href="#m5755937351" y="204.72158"/>
     <use style="fill:#1f77b4;stroke:#1f77b4;" x="307.337675" xlink:href="#m5755937351" y="220.135118"/>
     <use style="fill:#1f77b4;stroke:#1f77b4;" x="311.557207" xlink:href="#m5755937351" y="224.951849"/>
     <use style="fill:#1f77b4;stroke:#1f77b4;" x="315.77674" xlink:href="#m5755937351" y="235.548657"/>
     <use style="fill:#1f77b4;stroke:#1f77b4;" x="319.996273" xlink:href="#m5755937351" y="250.962195"/>
     <use style="fill:#1f77b4;stroke:#1f77b4;" x="324.215806" xlink:href="#m5755937351" y="205.684926"/>
     <use style="fill:#1f77b4;stroke:#1f77b4;" x="328.435339" xlink:href="#m5755937351" y="210.501657"/>
     <use style="fill:#1f77b4;stroke:#1f77b4;" x="332.654872" xlink:href="#m5755937351" y="247.108811"/>
     <use style="fill:#1f77b4;stroke:#1f77b4;" x="336.874405" xlink:href="#m5755937351" y="226.878541"/>
     <use style="fill:#1f77b4;stroke:#1f77b4;" x="341.093937" xlink:href="#m5755937351" y="248.072157"/>
     <use style="fill:#1f77b4;stroke:#1f77b4;" x="345.31347" xlink:href="#m5755937351" y="250.962195"/>
     <use style="fill:#1f77b4;stroke:#1f77b4;" x="349.533003" xlink:href="#m5755937351" y="261.559003"/>
     <use style="fill:#1f77b4;stroke:#1f77b4;" x="353.752536" xlink:href="#m5755937351" y="243.255426"/>
     <use style="fill:#1f77b4;stroke:#1f77b4;" x="357.972069" xlink:href="#m5755937351" y="232.658618"/>
     <use style="fill:#1f77b4;stroke:#1f77b4;" x="362.191602" xlink:href="#m5755937351" y="255.778926"/>
     <use style="fill:#1f77b4;stroke:#1f77b4;" x="366.411135" xlink:href="#m5755937351" y="260.595657"/>
     <use style="fill:#1f77b4;stroke:#1f77b4;" x="370.630667" xlink:href="#m5755937351" y="252.888887"/>
     <use style="fill:#1f77b4;stroke:#1f77b4;" x="374.8502" xlink:href="#m5755937351" y="256.742272"/>
     <use style="fill:#1f77b4;stroke:#1f77b4;" x="379.069733" xlink:href="#m5755937351" y="261.559003"/>
     <use style="fill:#1f77b4;stroke:#1f77b4;" x="383.289266" xlink:href="#m5755937351" y="256.742272"/>
     <use style="fill:#1f77b4;stroke:#1f77b4;" x="387.508799" xlink:href="#m5755937351" y="253.852234"/>
     <use style="fill:#1f77b4;stroke:#1f77b4;" x="391.728332" xlink:href="#m5755937351" y="264.449041"/>
     <use style="fill:#1f77b4;stroke:#1f77b4;" x="395.947865" xlink:href="#m5755937351" y="263.485695"/>
     <use style="fill:#1f77b4;stroke:#1f77b4;" x="400.167397" xlink:href="#m5755937351" y="255.778926"/>
     <use style="fill:#1f77b4;stroke:#1f77b4;" x="404.38693" xlink:href="#m5755937351" y="260.595657"/>
     <use style="fill:#1f77b4;stroke:#1f77b4;" x="408.606463" xlink:href="#m5755937351" y="257.705618"/>
     <use style="fill:#1f77b4;stroke:#1f77b4;" x="412.825996" xlink:href="#m5755937351" y="267.33908"/>
     <use style="fill:#1f77b4;stroke:#1f77b4;" x="417.045529" xlink:href="#m5755937351" y="263.485695"/>
    </g>
   </g>
   <g id="patch_3">
    <path d="M 53.74375 279.86258 
L 53.74375 10.8 
" style="fill:none;stroke:#000000;stroke-linecap:square;stroke-linejoin:miter;stroke-width:0.8;"/>
   </g>
   <g id="patch_4">
    <path d="M 434.345614 279.86258 
L 434.345614 10.8 
" style="fill:none;stroke:#000000;stroke-linecap:square;stroke-linejoin:miter;stroke-width:0.8;"/>
   </g>
   <g id="patch_5">
    <path d="M 53.74375 279.86258 
L 434.345614 279.86258 
" style="fill:none;stroke:#000000;stroke-linecap:square;stroke-linejoin:miter;stroke-width:0.8;"/>
   </g>
   <g id="patch_6">
    <path d="M 53.74375 10.8 
L 434.345614 10.8 
" style="fill:none;stroke:#000000;stroke-linecap:square;stroke-linejoin:miter;stroke-width:0.8;"/>
   </g>
  </g>
 </g>
 <defs>
  <clipPath id="p8bab9cb711">
   <rect height="269.06258" width="380.601864" x="53.74375" y="10.8"/>
  </clipPath>
 </defs>
</svg>
