<?xml version="1.0" encoding="utf-8" standalone="no"?>
<!DOCTYPE svg PUBLIC "-//W3C//DTD SVG 1.1//EN"
  "http://www.w3.org/Graphics/SVG/1.1/DTD/svg11.dtd">
<!-- Created with matplotlib (https://matplotlib.org/) -->
<svg height="345.6pt" version="1.1" viewBox="0 0 460.8 345.6" width="460.8pt" xmlns="http://www.w3.org/2000/svg" xmlns:xlink="http://www.w3.org/1999/xlink">
 <defs>
  <style type="text/css">
*{stroke-linecap:butt;stroke-linejoin:round;}
  </style>
 </defs>
 <g id="figure_1">
  <g id="patch_1">
   <path d="M 0 345.6 
L 460.8 345.6 
L 460.8 0 
L 0 0 
z
" style="fill:#ffffff;"/>
  </g>
  <g id="axes_1">
   <g id="patch_2">
    <path d="M 53.74375 279.86258 
L 446.083482 279.86258 
L 446.083482 10.8 
L 53.74375 10.8 
z
" style="fill:#ffffff;"/>
   </g>
   <g id="matplotlib.axis_1">
    <g id="xtick_1">
     <g id="line2d_1">
      <defs>
       <path d="M 0 0 
L 0 3.5 
" id="m3967d655b3" style="stroke:#000000;stroke-width:0.8;"/>
      </defs>
      <g>
       <use style="stroke:#000000;stroke-width:0.8;" x="109.342696" xlink:href="#m3967d655b3" y="279.86258"/>
      </g>
     </g>
     <g id="text_1">
      <!-- 2020-03-01 -->
      <defs>
       <path d="M 19.1875 8.296875 
L 53.609375 8.296875 
L 53.609375 0 
L 7.328125 0 
L 7.328125 8.296875 
Q 12.9375 14.109375 22.625 23.890625 
Q 32.328125 33.6875 34.8125 36.53125 
Q 39.546875 41.84375 41.421875 45.53125 
Q 43.3125 49.21875 43.3125 52.78125 
Q 43.3125 58.59375 39.234375 62.25 
Q 35.15625 65.921875 28.609375 65.921875 
Q 23.96875 65.921875 18.8125 64.3125 
Q 13.671875 62.703125 7.8125 59.421875 
L 7.8125 69.390625 
Q 13.765625 71.78125 18.9375 73 
Q 24.125 74.21875 28.421875 74.21875 
Q 39.75 74.21875 46.484375 68.546875 
Q 53.21875 62.890625 53.21875 53.421875 
Q 53.21875 48.921875 51.53125 44.890625 
Q 49.859375 40.875 45.40625 35.40625 
Q 44.1875 33.984375 37.640625 27.21875 
Q 31.109375 20.453125 19.1875 8.296875 
z
" id="DejaVuSans-50"/>
       <path d="M 31.78125 66.40625 
Q 24.171875 66.40625 20.328125 58.90625 
Q 16.5 51.421875 16.5 36.375 
Q 16.5 21.390625 20.328125 13.890625 
Q 24.171875 6.390625 31.78125 6.390625 
Q 39.453125 6.390625 43.28125 13.890625 
Q 47.125 21.390625 47.125 36.375 
Q 47.125 51.421875 43.28125 58.90625 
Q 39.453125 66.40625 31.78125 66.40625 
z
M 31.78125 74.21875 
Q 44.046875 74.21875 50.515625 64.515625 
Q 56.984375 54.828125 56.984375 36.375 
Q 56.984375 17.96875 50.515625 8.265625 
Q 44.046875 -1.421875 31.78125 -1.421875 
Q 19.53125 -1.421875 13.0625 8.265625 
Q 6.59375 17.96875 6.59375 36.375 
Q 6.59375 54.828125 13.0625 64.515625 
Q 19.53125 74.21875 31.78125 74.21875 
z
" id="DejaVuSans-48"/>
       <path d="M 4.890625 31.390625 
L 31.203125 31.390625 
L 31.203125 23.390625 
L 4.890625 23.390625 
z
" id="DejaVuSans-45"/>
       <path d="M 40.578125 39.3125 
Q 47.65625 37.796875 51.625 33 
Q 55.609375 28.21875 55.609375 21.1875 
Q 55.609375 10.40625 48.1875 4.484375 
Q 40.765625 -1.421875 27.09375 -1.421875 
Q 22.515625 -1.421875 17.65625 -0.515625 
Q 12.796875 0.390625 7.625 2.203125 
L 7.625 11.71875 
Q 11.71875 9.328125 16.59375 8.109375 
Q 21.484375 6.890625 26.8125 6.890625 
Q 36.078125 6.890625 40.9375 10.546875 
Q 45.796875 14.203125 45.796875 21.1875 
Q 45.796875 27.640625 41.28125 31.265625 
Q 36.765625 34.90625 28.71875 34.90625 
L 20.21875 34.90625 
L 20.21875 43.015625 
L 29.109375 43.015625 
Q 36.375 43.015625 40.234375 45.921875 
Q 44.09375 48.828125 44.09375 54.296875 
Q 44.09375 59.90625 40.109375 62.90625 
Q 36.140625 65.921875 28.71875 65.921875 
Q 24.65625 65.921875 20.015625 65.03125 
Q 15.375 64.15625 9.8125 62.3125 
L 9.8125 71.09375 
Q 15.4375 72.65625 20.34375 73.4375 
Q 25.25 74.21875 29.59375 74.21875 
Q 40.828125 74.21875 47.359375 69.109375 
Q 53.90625 64.015625 53.90625 55.328125 
Q 53.90625 49.265625 50.4375 45.09375 
Q 46.96875 40.921875 40.578125 39.3125 
z
" id="DejaVuSans-51"/>
       <path d="M 12.40625 8.296875 
L 28.515625 8.296875 
L 28.515625 63.921875 
L 10.984375 60.40625 
L 10.984375 69.390625 
L 28.421875 72.90625 
L 38.28125 72.90625 
L 38.28125 8.296875 
L 54.390625 8.296875 
L 54.390625 0 
L 12.40625 0 
z
" id="DejaVuSans-49"/>
      </defs>
      <g transform="translate(90.746893 333.329439)rotate(-45)scale(0.1 -0.1)">
       <use xlink:href="#DejaVuSans-50"/>
       <use x="63.623047" xlink:href="#DejaVuSans-48"/>
       <use x="127.246094" xlink:href="#DejaVuSans-50"/>
       <use x="190.869141" xlink:href="#DejaVuSans-48"/>
       <use x="254.492188" xlink:href="#DejaVuSans-45"/>
       <use x="290.576172" xlink:href="#DejaVuSans-48"/>
       <use x="354.199219" xlink:href="#DejaVuSans-51"/>
       <use x="417.822266" xlink:href="#DejaVuSans-45"/>
       <use x="453.90625" xlink:href="#DejaVuSans-48"/>
       <use x="517.529297" xlink:href="#DejaVuSans-49"/>
      </g>
     </g>
    </g>
    <g id="xtick_2">
     <g id="line2d_2">
      <g>
       <use style="stroke:#000000;stroke-width:0.8;" x="168.088752" xlink:href="#m3967d655b3" y="279.86258"/>
      </g>
     </g>
     <g id="text_2">
      <!-- 2020-03-15 -->
      <defs>
       <path d="M 10.796875 72.90625 
L 49.515625 72.90625 
L 49.515625 64.59375 
L 19.828125 64.59375 
L 19.828125 46.734375 
Q 21.96875 47.46875 24.109375 47.828125 
Q 26.265625 48.1875 28.421875 48.1875 
Q 40.625 48.1875 47.75 41.5 
Q 54.890625 34.8125 54.890625 23.390625 
Q 54.890625 11.625 47.5625 5.09375 
Q 40.234375 -1.421875 26.90625 -1.421875 
Q 22.3125 -1.421875 17.546875 -0.640625 
Q 12.796875 0.140625 7.71875 1.703125 
L 7.71875 11.625 
Q 12.109375 9.234375 16.796875 8.0625 
Q 21.484375 6.890625 26.703125 6.890625 
Q 35.15625 6.890625 40.078125 11.328125 
Q 45.015625 15.765625 45.015625 23.390625 
Q 45.015625 31 40.078125 35.4375 
Q 35.15625 39.890625 26.703125 39.890625 
Q 22.75 39.890625 18.8125 39.015625 
Q 14.890625 38.140625 10.796875 36.28125 
z
" id="DejaVuSans-53"/>
      </defs>
      <g transform="translate(149.492949 333.329439)rotate(-45)scale(0.1 -0.1)">
       <use xlink:href="#DejaVuSans-50"/>
       <use x="63.623047" xlink:href="#DejaVuSans-48"/>
       <use x="127.246094" xlink:href="#DejaVuSans-50"/>
       <use x="190.869141" xlink:href="#DejaVuSans-48"/>
       <use x="254.492188" xlink:href="#DejaVuSans-45"/>
       <use x="290.576172" xlink:href="#DejaVuSans-48"/>
       <use x="354.199219" xlink:href="#DejaVuSans-51"/>
       <use x="417.822266" xlink:href="#DejaVuSans-45"/>
       <use x="453.90625" xlink:href="#DejaVuSans-49"/>
       <use x="517.529297" xlink:href="#DejaVuSans-53"/>
      </g>
     </g>
    </g>
    <g id="xtick_3">
     <g id="line2d_3">
      <g>
       <use style="stroke:#000000;stroke-width:0.8;" x="239.423249" xlink:href="#m3967d655b3" y="279.86258"/>
      </g>
     </g>
     <g id="text_3">
      <!-- 2020-04-01 -->
      <defs>
       <path d="M 37.796875 64.3125 
L 12.890625 25.390625 
L 37.796875 25.390625 
z
M 35.203125 72.90625 
L 47.609375 72.90625 
L 47.609375 25.390625 
L 58.015625 25.390625 
L 58.015625 17.1875 
L 47.609375 17.1875 
L 47.609375 0 
L 37.796875 0 
L 37.796875 17.1875 
L 4.890625 17.1875 
L 4.890625 26.703125 
z
" id="DejaVuSans-52"/>
      </defs>
      <g transform="translate(220.827446 333.329439)rotate(-45)scale(0.1 -0.1)">
       <use xlink:href="#DejaVuSans-50"/>
       <use x="63.623047" xlink:href="#DejaVuSans-48"/>
       <use x="127.246094" xlink:href="#DejaVuSans-50"/>
       <use x="190.869141" xlink:href="#DejaVuSans-48"/>
       <use x="254.492188" xlink:href="#DejaVuSans-45"/>
       <use x="290.576172" xlink:href="#DejaVuSans-48"/>
       <use x="354.199219" xlink:href="#DejaVuSans-52"/>
       <use x="417.822266" xlink:href="#DejaVuSans-45"/>
       <use x="453.90625" xlink:href="#DejaVuSans-48"/>
       <use x="517.529297" xlink:href="#DejaVuSans-49"/>
      </g>
     </g>
    </g>
    <g id="xtick_4">
     <g id="line2d_4">
      <g>
       <use style="stroke:#000000;stroke-width:0.8;" x="298.169305" xlink:href="#m3967d655b3" y="279.86258"/>
      </g>
     </g>
     <g id="text_4">
      <!-- 2020-04-15 -->
      <g transform="translate(279.573502 333.329439)rotate(-45)scale(0.1 -0.1)">
       <use xlink:href="#DejaVuSans-50"/>
       <use x="63.623047" xlink:href="#DejaVuSans-48"/>
       <use x="127.246094" xlink:href="#DejaVuSans-50"/>
       <use x="190.869141" xlink:href="#DejaVuSans-48"/>
       <use x="254.492188" xlink:href="#DejaVuSans-45"/>
       <use x="290.576172" xlink:href="#DejaVuSans-48"/>
       <use x="354.199219" xlink:href="#DejaVuSans-52"/>
       <use x="417.822266" xlink:href="#DejaVuSans-45"/>
       <use x="453.90625" xlink:href="#DejaVuSans-49"/>
       <use x="517.529297" xlink:href="#DejaVuSans-53"/>
      </g>
     </g>
    </g>
    <g id="xtick_5">
     <g id="line2d_5">
      <g>
       <use style="stroke:#000000;stroke-width:0.8;" x="365.307655" xlink:href="#m3967d655b3" y="279.86258"/>
      </g>
     </g>
     <g id="text_5">
      <!-- 2020-05-01 -->
      <g transform="translate(346.711852 333.329439)rotate(-45)scale(0.1 -0.1)">
       <use xlink:href="#DejaVuSans-50"/>
       <use x="63.623047" xlink:href="#DejaVuSans-48"/>
       <use x="127.246094" xlink:href="#DejaVuSans-50"/>
       <use x="190.869141" xlink:href="#DejaVuSans-48"/>
       <use x="254.492188" xlink:href="#DejaVuSans-45"/>
       <use x="290.576172" xlink:href="#DejaVuSans-48"/>
       <use x="354.199219" xlink:href="#DejaVuSans-53"/>
       <use x="417.822266" xlink:href="#DejaVuSans-45"/>
       <use x="453.90625" xlink:href="#DejaVuSans-48"/>
       <use x="517.529297" xlink:href="#DejaVuSans-49"/>
      </g>
     </g>
    </g>
    <g id="xtick_6">
     <g id="line2d_6">
      <g>
       <use style="stroke:#000000;stroke-width:0.8;" x="424.053711" xlink:href="#m3967d655b3" y="279.86258"/>
      </g>
     </g>
     <g id="text_6">
      <!-- 2020-05-15 -->
      <g transform="translate(405.457908 333.329439)rotate(-45)scale(0.1 -0.1)">
       <use xlink:href="#DejaVuSans-50"/>
       <use x="63.623047" xlink:href="#DejaVuSans-48"/>
       <use x="127.246094" xlink:href="#DejaVuSans-50"/>
       <use x="190.869141" xlink:href="#DejaVuSans-48"/>
       <use x="254.492188" xlink:href="#DejaVuSans-45"/>
       <use x="290.576172" xlink:href="#DejaVuSans-48"/>
       <use x="354.199219" xlink:href="#DejaVuSans-53"/>
       <use x="417.822266" xlink:href="#DejaVuSans-45"/>
       <use x="453.90625" xlink:href="#DejaVuSans-49"/>
       <use x="517.529297" xlink:href="#DejaVuSans-53"/>
      </g>
     </g>
    </g>
   </g>
   <g id="matplotlib.axis_2">
    <g id="ytick_1">
     <g id="line2d_7">
      <defs>
       <path d="M 0 0 
L -3.5 0 
" id="mf24c88aa32" style="stroke:#000000;stroke-width:0.8;"/>
      </defs>
      <g>
       <use style="stroke:#000000;stroke-width:0.8;" x="53.74375" xlink:href="#mf24c88aa32" y="279.86258"/>
      </g>
     </g>
     <g id="text_7">
      <!-- 0.0 -->
      <defs>
       <path d="M 10.6875 12.40625 
L 21 12.40625 
L 21 0 
L 10.6875 0 
z
" id="DejaVuSans-46"/>
      </defs>
      <g transform="translate(30.840625 283.661798)scale(0.1 -0.1)">
       <use xlink:href="#DejaVuSans-48"/>
       <use x="63.623047" xlink:href="#DejaVuSans-46"/>
       <use x="95.410156" xlink:href="#DejaVuSans-48"/>
      </g>
     </g>
    </g>
    <g id="ytick_2">
     <g id="line2d_8">
      <g>
       <use style="stroke:#000000;stroke-width:0.8;" x="53.74375" xlink:href="#mf24c88aa32" y="247.966261"/>
      </g>
     </g>
     <g id="text_8">
      <!-- 2.5 -->
      <g transform="translate(30.840625 251.76548)scale(0.1 -0.1)">
       <use xlink:href="#DejaVuSans-50"/>
       <use x="63.623047" xlink:href="#DejaVuSans-46"/>
       <use x="95.410156" xlink:href="#DejaVuSans-53"/>
      </g>
     </g>
    </g>
    <g id="ytick_3">
     <g id="line2d_9">
      <g>
       <use style="stroke:#000000;stroke-width:0.8;" x="53.74375" xlink:href="#mf24c88aa32" y="216.069942"/>
      </g>
     </g>
     <g id="text_9">
      <!-- 5.0 -->
      <g transform="translate(30.840625 219.869161)scale(0.1 -0.1)">
       <use xlink:href="#DejaVuSans-53"/>
       <use x="63.623047" xlink:href="#DejaVuSans-46"/>
       <use x="95.410156" xlink:href="#DejaVuSans-48"/>
      </g>
     </g>
    </g>
    <g id="ytick_4">
     <g id="line2d_10">
      <g>
       <use style="stroke:#000000;stroke-width:0.8;" x="53.74375" xlink:href="#mf24c88aa32" y="184.173623"/>
      </g>
     </g>
     <g id="text_10">
      <!-- 7.5 -->
      <defs>
       <path d="M 8.203125 72.90625 
L 55.078125 72.90625 
L 55.078125 68.703125 
L 28.609375 0 
L 18.3125 0 
L 43.21875 64.59375 
L 8.203125 64.59375 
z
" id="DejaVuSans-55"/>
      </defs>
      <g transform="translate(30.840625 187.972842)scale(0.1 -0.1)">
       <use xlink:href="#DejaVuSans-55"/>
       <use x="63.623047" xlink:href="#DejaVuSans-46"/>
       <use x="95.410156" xlink:href="#DejaVuSans-53"/>
      </g>
     </g>
    </g>
    <g id="ytick_5">
     <g id="line2d_11">
      <g>
       <use style="stroke:#000000;stroke-width:0.8;" x="53.74375" xlink:href="#mf24c88aa32" y="152.277305"/>
      </g>
     </g>
     <g id="text_11">
      <!-- 10.0 -->
      <g transform="translate(24.478125 156.076523)scale(0.1 -0.1)">
       <use xlink:href="#DejaVuSans-49"/>
       <use x="63.623047" xlink:href="#DejaVuSans-48"/>
       <use x="127.246094" xlink:href="#DejaVuSans-46"/>
       <use x="159.033203" xlink:href="#DejaVuSans-48"/>
      </g>
     </g>
    </g>
    <g id="ytick_6">
     <g id="line2d_12">
      <g>
       <use style="stroke:#000000;stroke-width:0.8;" x="53.74375" xlink:href="#mf24c88aa32" y="120.380986"/>
      </g>
     </g>
     <g id="text_12">
      <!-- 12.5 -->
      <g transform="translate(24.478125 124.180205)scale(0.1 -0.1)">
       <use xlink:href="#DejaVuSans-49"/>
       <use x="63.623047" xlink:href="#DejaVuSans-50"/>
       <use x="127.246094" xlink:href="#DejaVuSans-46"/>
       <use x="159.033203" xlink:href="#DejaVuSans-53"/>
      </g>
     </g>
    </g>
    <g id="ytick_7">
     <g id="line2d_13">
      <g>
       <use style="stroke:#000000;stroke-width:0.8;" x="53.74375" xlink:href="#mf24c88aa32" y="88.484667"/>
      </g>
     </g>
     <g id="text_13">
      <!-- 15.0 -->
      <g transform="translate(24.478125 92.283886)scale(0.1 -0.1)">
       <use xlink:href="#DejaVuSans-49"/>
       <use x="63.623047" xlink:href="#DejaVuSans-53"/>
       <use x="127.246094" xlink:href="#DejaVuSans-46"/>
       <use x="159.033203" xlink:href="#DejaVuSans-48"/>
      </g>
     </g>
    </g>
    <g id="ytick_8">
     <g id="line2d_14">
      <g>
       <use style="stroke:#000000;stroke-width:0.8;" x="53.74375" xlink:href="#mf24c88aa32" y="56.588348"/>
      </g>
     </g>
     <g id="text_14">
      <!-- 17.5 -->
      <g transform="translate(24.478125 60.387567)scale(0.1 -0.1)">
       <use xlink:href="#DejaVuSans-49"/>
       <use x="63.623047" xlink:href="#DejaVuSans-55"/>
       <use x="127.246094" xlink:href="#DejaVuSans-46"/>
       <use x="159.033203" xlink:href="#DejaVuSans-53"/>
      </g>
     </g>
    </g>
    <g id="ytick_9">
     <g id="line2d_15">
      <g>
       <use style="stroke:#000000;stroke-width:0.8;" x="53.74375" xlink:href="#mf24c88aa32" y="24.692029"/>
      </g>
     </g>
     <g id="text_15">
      <!-- 20.0 -->
      <g transform="translate(24.478125 28.491248)scale(0.1 -0.1)">
       <use xlink:href="#DejaVuSans-50"/>
       <use x="63.623047" xlink:href="#DejaVuSans-48"/>
       <use x="127.246094" xlink:href="#DejaVuSans-46"/>
       <use x="159.033203" xlink:href="#DejaVuSans-48"/>
      </g>
     </g>
    </g>
    <g id="text_16">
     <!-- AR pcr (por 100000 hab.) diarios -->
     <defs>
      <path d="M 34.1875 63.1875 
L 20.796875 26.90625 
L 47.609375 26.90625 
z
M 28.609375 72.90625 
L 39.796875 72.90625 
L 67.578125 0 
L 57.328125 0 
L 50.6875 18.703125 
L 17.828125 18.703125 
L 11.1875 0 
L 0.78125 0 
z
" id="DejaVuSans-65"/>
      <path d="M 44.390625 34.1875 
Q 47.5625 33.109375 50.5625 29.59375 
Q 53.5625 26.078125 56.59375 19.921875 
L 66.609375 0 
L 56 0 
L 46.6875 18.703125 
Q 43.0625 26.03125 39.671875 28.421875 
Q 36.28125 30.8125 30.421875 30.8125 
L 19.671875 30.8125 
L 19.671875 0 
L 9.8125 0 
L 9.8125 72.90625 
L 32.078125 72.90625 
Q 44.578125 72.90625 50.734375 67.671875 
Q 56.890625 62.453125 56.890625 51.90625 
Q 56.890625 45.015625 53.6875 40.46875 
Q 50.484375 35.9375 44.390625 34.1875 
z
M 19.671875 64.796875 
L 19.671875 38.921875 
L 32.078125 38.921875 
Q 39.203125 38.921875 42.84375 42.21875 
Q 46.484375 45.515625 46.484375 51.90625 
Q 46.484375 58.296875 42.84375 61.546875 
Q 39.203125 64.796875 32.078125 64.796875 
z
" id="DejaVuSans-82"/>
      <path id="DejaVuSans-32"/>
      <path d="M 18.109375 8.203125 
L 18.109375 -20.796875 
L 9.078125 -20.796875 
L 9.078125 54.6875 
L 18.109375 54.6875 
L 18.109375 46.390625 
Q 20.953125 51.265625 25.265625 53.625 
Q 29.59375 56 35.59375 56 
Q 45.5625 56 51.78125 48.09375 
Q 58.015625 40.1875 58.015625 27.296875 
Q 58.015625 14.40625 51.78125 6.484375 
Q 45.5625 -1.421875 35.59375 -1.421875 
Q 29.59375 -1.421875 25.265625 0.953125 
Q 20.953125 3.328125 18.109375 8.203125 
z
M 48.6875 27.296875 
Q 48.6875 37.203125 44.609375 42.84375 
Q 40.53125 48.484375 33.40625 48.484375 
Q 26.265625 48.484375 22.1875 42.84375 
Q 18.109375 37.203125 18.109375 27.296875 
Q 18.109375 17.390625 22.1875 11.75 
Q 26.265625 6.109375 33.40625 6.109375 
Q 40.53125 6.109375 44.609375 11.75 
Q 48.6875 17.390625 48.6875 27.296875 
z
" id="DejaVuSans-112"/>
      <path d="M 48.78125 52.59375 
L 48.78125 44.1875 
Q 44.96875 46.296875 41.140625 47.34375 
Q 37.3125 48.390625 33.40625 48.390625 
Q 24.65625 48.390625 19.8125 42.84375 
Q 14.984375 37.3125 14.984375 27.296875 
Q 14.984375 17.28125 19.8125 11.734375 
Q 24.65625 6.203125 33.40625 6.203125 
Q 37.3125 6.203125 41.140625 7.25 
Q 44.96875 8.296875 48.78125 10.40625 
L 48.78125 2.09375 
Q 45.015625 0.34375 40.984375 -0.53125 
Q 36.96875 -1.421875 32.421875 -1.421875 
Q 20.0625 -1.421875 12.78125 6.34375 
Q 5.515625 14.109375 5.515625 27.296875 
Q 5.515625 40.671875 12.859375 48.328125 
Q 20.21875 56 33.015625 56 
Q 37.15625 56 41.109375 55.140625 
Q 45.0625 54.296875 48.78125 52.59375 
z
" id="DejaVuSans-99"/>
      <path d="M 41.109375 46.296875 
Q 39.59375 47.171875 37.8125 47.578125 
Q 36.03125 48 33.890625 48 
Q 26.265625 48 22.1875 43.046875 
Q 18.109375 38.09375 18.109375 28.8125 
L 18.109375 0 
L 9.078125 0 
L 9.078125 54.6875 
L 18.109375 54.6875 
L 18.109375 46.1875 
Q 20.953125 51.171875 25.484375 53.578125 
Q 30.03125 56 36.53125 56 
Q 37.453125 56 38.578125 55.875 
Q 39.703125 55.765625 41.0625 55.515625 
z
" id="DejaVuSans-114"/>
      <path d="M 31 75.875 
Q 24.46875 64.65625 21.28125 53.65625 
Q 18.109375 42.671875 18.109375 31.390625 
Q 18.109375 20.125 21.3125 9.0625 
Q 24.515625 -2 31 -13.1875 
L 23.1875 -13.1875 
Q 15.875 -1.703125 12.234375 9.375 
Q 8.59375 20.453125 8.59375 31.390625 
Q 8.59375 42.28125 12.203125 53.3125 
Q 15.828125 64.359375 23.1875 75.875 
z
" id="DejaVuSans-40"/>
      <path d="M 30.609375 48.390625 
Q 23.390625 48.390625 19.1875 42.75 
Q 14.984375 37.109375 14.984375 27.296875 
Q 14.984375 17.484375 19.15625 11.84375 
Q 23.34375 6.203125 30.609375 6.203125 
Q 37.796875 6.203125 41.984375 11.859375 
Q 46.1875 17.53125 46.1875 27.296875 
Q 46.1875 37.015625 41.984375 42.703125 
Q 37.796875 48.390625 30.609375 48.390625 
z
M 30.609375 56 
Q 42.328125 56 49.015625 48.375 
Q 55.71875 40.765625 55.71875 27.296875 
Q 55.71875 13.875 49.015625 6.21875 
Q 42.328125 -1.421875 30.609375 -1.421875 
Q 18.84375 -1.421875 12.171875 6.21875 
Q 5.515625 13.875 5.515625 27.296875 
Q 5.515625 40.765625 12.171875 48.375 
Q 18.84375 56 30.609375 56 
z
" id="DejaVuSans-111"/>
      <path d="M 54.890625 33.015625 
L 54.890625 0 
L 45.90625 0 
L 45.90625 32.71875 
Q 45.90625 40.484375 42.875 44.328125 
Q 39.84375 48.1875 33.796875 48.1875 
Q 26.515625 48.1875 22.3125 43.546875 
Q 18.109375 38.921875 18.109375 30.90625 
L 18.109375 0 
L 9.078125 0 
L 9.078125 75.984375 
L 18.109375 75.984375 
L 18.109375 46.1875 
Q 21.34375 51.125 25.703125 53.5625 
Q 30.078125 56 35.796875 56 
Q 45.21875 56 50.046875 50.171875 
Q 54.890625 44.34375 54.890625 33.015625 
z
" id="DejaVuSans-104"/>
      <path d="M 34.28125 27.484375 
Q 23.390625 27.484375 19.1875 25 
Q 14.984375 22.515625 14.984375 16.5 
Q 14.984375 11.71875 18.140625 8.90625 
Q 21.296875 6.109375 26.703125 6.109375 
Q 34.1875 6.109375 38.703125 11.40625 
Q 43.21875 16.703125 43.21875 25.484375 
L 43.21875 27.484375 
z
M 52.203125 31.203125 
L 52.203125 0 
L 43.21875 0 
L 43.21875 8.296875 
Q 40.140625 3.328125 35.546875 0.953125 
Q 30.953125 -1.421875 24.3125 -1.421875 
Q 15.921875 -1.421875 10.953125 3.296875 
Q 6 8.015625 6 15.921875 
Q 6 25.140625 12.171875 29.828125 
Q 18.359375 34.515625 30.609375 34.515625 
L 43.21875 34.515625 
L 43.21875 35.40625 
Q 43.21875 41.609375 39.140625 45 
Q 35.0625 48.390625 27.6875 48.390625 
Q 23 48.390625 18.546875 47.265625 
Q 14.109375 46.140625 10.015625 43.890625 
L 10.015625 52.203125 
Q 14.9375 54.109375 19.578125 55.046875 
Q 24.21875 56 28.609375 56 
Q 40.484375 56 46.34375 49.84375 
Q 52.203125 43.703125 52.203125 31.203125 
z
" id="DejaVuSans-97"/>
      <path d="M 48.6875 27.296875 
Q 48.6875 37.203125 44.609375 42.84375 
Q 40.53125 48.484375 33.40625 48.484375 
Q 26.265625 48.484375 22.1875 42.84375 
Q 18.109375 37.203125 18.109375 27.296875 
Q 18.109375 17.390625 22.1875 11.75 
Q 26.265625 6.109375 33.40625 6.109375 
Q 40.53125 6.109375 44.609375 11.75 
Q 48.6875 17.390625 48.6875 27.296875 
z
M 18.109375 46.390625 
Q 20.953125 51.265625 25.265625 53.625 
Q 29.59375 56 35.59375 56 
Q 45.5625 56 51.78125 48.09375 
Q 58.015625 40.1875 58.015625 27.296875 
Q 58.015625 14.40625 51.78125 6.484375 
Q 45.5625 -1.421875 35.59375 -1.421875 
Q 29.59375 -1.421875 25.265625 0.953125 
Q 20.953125 3.328125 18.109375 8.203125 
L 18.109375 0 
L 9.078125 0 
L 9.078125 75.984375 
L 18.109375 75.984375 
z
" id="DejaVuSans-98"/>
      <path d="M 8.015625 75.875 
L 15.828125 75.875 
Q 23.140625 64.359375 26.78125 53.3125 
Q 30.421875 42.28125 30.421875 31.390625 
Q 30.421875 20.453125 26.78125 9.375 
Q 23.140625 -1.703125 15.828125 -13.1875 
L 8.015625 -13.1875 
Q 14.5 -2 17.703125 9.0625 
Q 20.90625 20.125 20.90625 31.390625 
Q 20.90625 42.671875 17.703125 53.65625 
Q 14.5 64.65625 8.015625 75.875 
z
" id="DejaVuSans-41"/>
      <path d="M 45.40625 46.390625 
L 45.40625 75.984375 
L 54.390625 75.984375 
L 54.390625 0 
L 45.40625 0 
L 45.40625 8.203125 
Q 42.578125 3.328125 38.25 0.953125 
Q 33.9375 -1.421875 27.875 -1.421875 
Q 17.96875 -1.421875 11.734375 6.484375 
Q 5.515625 14.40625 5.515625 27.296875 
Q 5.515625 40.1875 11.734375 48.09375 
Q 17.96875 56 27.875 56 
Q 33.9375 56 38.25 53.625 
Q 42.578125 51.265625 45.40625 46.390625 
z
M 14.796875 27.296875 
Q 14.796875 17.390625 18.875 11.75 
Q 22.953125 6.109375 30.078125 6.109375 
Q 37.203125 6.109375 41.296875 11.75 
Q 45.40625 17.390625 45.40625 27.296875 
Q 45.40625 37.203125 41.296875 42.84375 
Q 37.203125 48.484375 30.078125 48.484375 
Q 22.953125 48.484375 18.875 42.84375 
Q 14.796875 37.203125 14.796875 27.296875 
z
" id="DejaVuSans-100"/>
      <path d="M 9.421875 54.6875 
L 18.40625 54.6875 
L 18.40625 0 
L 9.421875 0 
z
M 9.421875 75.984375 
L 18.40625 75.984375 
L 18.40625 64.59375 
L 9.421875 64.59375 
z
" id="DejaVuSans-105"/>
      <path d="M 44.28125 53.078125 
L 44.28125 44.578125 
Q 40.484375 46.53125 36.375 47.5 
Q 32.28125 48.484375 27.875 48.484375 
Q 21.1875 48.484375 17.84375 46.4375 
Q 14.5 44.390625 14.5 40.28125 
Q 14.5 37.15625 16.890625 35.375 
Q 19.28125 33.59375 26.515625 31.984375 
L 29.59375 31.296875 
Q 39.15625 29.25 43.1875 25.515625 
Q 47.21875 21.78125 47.21875 15.09375 
Q 47.21875 7.46875 41.1875 3.015625 
Q 35.15625 -1.421875 24.609375 -1.421875 
Q 20.21875 -1.421875 15.453125 -0.5625 
Q 10.6875 0.296875 5.421875 2 
L 5.421875 11.28125 
Q 10.40625 8.6875 15.234375 7.390625 
Q 20.0625 6.109375 24.8125 6.109375 
Q 31.15625 6.109375 34.5625 8.28125 
Q 37.984375 10.453125 37.984375 14.40625 
Q 37.984375 18.0625 35.515625 20.015625 
Q 33.0625 21.96875 24.703125 23.78125 
L 21.578125 24.515625 
Q 13.234375 26.265625 9.515625 29.90625 
Q 5.8125 33.546875 5.8125 39.890625 
Q 5.8125 47.609375 11.28125 51.796875 
Q 16.75 56 26.8125 56 
Q 31.78125 56 36.171875 55.265625 
Q 40.578125 54.546875 44.28125 53.078125 
z
" id="DejaVuSans-115"/>
     </defs>
     <g transform="translate(18.398438 227.160196)rotate(-90)scale(0.1 -0.1)">
      <use xlink:href="#DejaVuSans-65"/>
      <use x="68.408203" xlink:href="#DejaVuSans-82"/>
      <use x="137.890625" xlink:href="#DejaVuSans-32"/>
      <use x="169.677734" xlink:href="#DejaVuSans-112"/>
      <use x="233.154297" xlink:href="#DejaVuSans-99"/>
      <use x="288.134766" xlink:href="#DejaVuSans-114"/>
      <use x="329.248047" xlink:href="#DejaVuSans-32"/>
      <use x="361.035156" xlink:href="#DejaVuSans-40"/>
      <use x="400.048828" xlink:href="#DejaVuSans-112"/>
      <use x="463.525391" xlink:href="#DejaVuSans-111"/>
      <use x="524.707031" xlink:href="#DejaVuSans-114"/>
      <use x="565.820312" xlink:href="#DejaVuSans-32"/>
      <use x="597.607422" xlink:href="#DejaVuSans-49"/>
      <use x="661.230469" xlink:href="#DejaVuSans-48"/>
      <use x="724.853516" xlink:href="#DejaVuSans-48"/>
      <use x="788.476562" xlink:href="#DejaVuSans-48"/>
      <use x="852.099609" xlink:href="#DejaVuSans-48"/>
      <use x="915.722656" xlink:href="#DejaVuSans-48"/>
      <use x="979.345703" xlink:href="#DejaVuSans-32"/>
      <use x="1011.132812" xlink:href="#DejaVuSans-104"/>
      <use x="1074.511719" xlink:href="#DejaVuSans-97"/>
      <use x="1135.791016" xlink:href="#DejaVuSans-98"/>
      <use x="1199.267578" xlink:href="#DejaVuSans-46"/>
      <use x="1231.054688" xlink:href="#DejaVuSans-41"/>
      <use x="1270.068359" xlink:href="#DejaVuSans-32"/>
      <use x="1301.855469" xlink:href="#DejaVuSans-100"/>
      <use x="1365.332031" xlink:href="#DejaVuSans-105"/>
      <use x="1393.115234" xlink:href="#DejaVuSans-97"/>
      <use x="1454.394531" xlink:href="#DejaVuSans-114"/>
      <use x="1495.507812" xlink:href="#DejaVuSans-105"/>
      <use x="1523.291016" xlink:href="#DejaVuSans-111"/>
      <use x="1584.472656" xlink:href="#DejaVuSans-115"/>
     </g>
    </g>
   </g>
   <g id="line2d_16">
    <path clip-path="url(#p061be86b25)" d="M 71.577374 279.86258 
L 75.773521 279.86258 
L 79.969668 279.86258 
L 84.165815 279.86258 
L 88.361962 279.86258 
L 92.558109 279.86258 
L 96.754255 279.86258 
L 100.950402 279.86258 
L 105.146549 279.86258 
L 109.342696 279.86258 
L 113.538843 279.86258 
L 117.73499 279.86258 
L 121.931137 278.899234 
L 126.127284 279.86258 
L 130.32343 276.009195 
L 134.519577 279.86258 
L 138.715724 277.935887 
L 142.911871 257.705618 
L 147.108018 272.15581 
L 151.304165 273.119157 
L 155.500312 261.559003 
L 159.696458 264.449041 
L 163.892605 240.365388 
L 168.088752 254.81558 
L 172.284899 222.061811 
L 176.481046 261.559003 
L 180.677193 226.878541 
L 184.87334 203.758234 
L 189.069487 218.208426 
L 193.265633 175.821195 
L 197.46178 177.747888 
L 201.657927 164.261042 
L 205.854074 136.324003 
L 210.050221 78.523234 
L 214.246368 65.999734 
L 218.442515 35.172658 
L 222.638662 23.612504 
L 226.834808 67.926427 
L 231.030955 92.973427 
L 235.227102 68.889773 
L 239.423249 78.523234 
L 243.619396 97.790157 
L 247.815543 97.790157 
L 252.01169 131.507273 
L 256.207836 169.077772 
L 260.403983 181.601272 
L 264.60013 183.527965 
L 268.796277 148.847503 
L 272.992424 139.214042 
L 277.188571 146.920811 
L 281.384718 182.564619 
L 285.580865 167.15108 
L 289.777011 223.988503 
L 293.973158 190.271388 
L 298.169305 209.538311 
L 302.365452 204.72158 
L 306.561599 220.135118 
L 310.757746 224.951849 
L 314.953893 235.548657 
L 319.15004 250.962195 
L 323.346186 205.684926 
L 327.542333 210.501657 
L 331.73848 247.108811 
L 335.934627 226.878541 
L 340.130774 248.072157 
L 344.326921 250.962195 
L 348.523068 261.559003 
L 352.719214 243.255426 
L 356.915361 232.658618 
L 361.111508 255.778926 
L 365.307655 260.595657 
L 369.503802 252.888887 
L 373.699949 256.742272 
L 377.896096 261.559003 
L 382.092243 256.742272 
L 386.288389 253.852234 
L 390.484536 264.449041 
L 394.680683 263.485695 
L 398.87683 255.778926 
L 403.072977 260.595657 
L 407.269124 257.705618 
L 411.465271 267.33908 
L 415.661418 263.485695 
L 419.857564 238.438695 
L 424.053711 256.742272 
L 428.249858 258.668964 
" style="fill:none;stroke:#1f77b4;stroke-linecap:square;stroke-width:1.5;"/>
    <defs>
     <path d="M 0 1.5 
C 0.397805 1.5 0.77937 1.341951 1.06066 1.06066 
C 1.341951 0.77937 1.5 0.397805 1.5 0 
C 1.5 -0.397805 1.341951 -0.77937 1.06066 -1.06066 
C 0.77937 -1.341951 0.397805 -1.5 0 -1.5 
C -0.397805 -1.5 -0.77937 -1.341951 -1.06066 -1.06066 
C -1.341951 -0.77937 -1.5 -0.397805 -1.5 0 
C -1.5 0.397805 -1.341951 0.77937 -1.06066 1.06066 
C -0.77937 1.341951 -0.397805 1.5 0 1.5 
z
" id="mce9a87aa57" style="stroke:#1f77b4;"/>
    </defs>
    <g clip-path="url(#p061be86b25)">
     <use style="fill:#1f77b4;stroke:#1f77b4;" x="71.577374" xlink:href="#mce9a87aa57" y="279.86258"/>
     <use style="fill:#1f77b4;stroke:#1f77b4;" x="75.773521" xlink:href="#mce9a87aa57" y="279.86258"/>
     <use style="fill:#1f77b4;stroke:#1f77b4;" x="79.969668" xlink:href="#mce9a87aa57" y="279.86258"/>
     <use style="fill:#1f77b4;stroke:#1f77b4;" x="84.165815" xlink:href="#mce9a87aa57" y="279.86258"/>
     <use style="fill:#1f77b4;stroke:#1f77b4;" x="88.361962" xlink:href="#mce9a87aa57" y="279.86258"/>
     <use style="fill:#1f77b4;stroke:#1f77b4;" x="92.558109" xlink:href="#mce9a87aa57" y="279.86258"/>
     <use style="fill:#1f77b4;stroke:#1f77b4;" x="96.754255" xlink:href="#mce9a87aa57" y="279.86258"/>
     <use style="fill:#1f77b4;stroke:#1f77b4;" x="100.950402" xlink:href="#mce9a87aa57" y="279.86258"/>
     <use style="fill:#1f77b4;stroke:#1f77b4;" x="105.146549" xlink:href="#mce9a87aa57" y="279.86258"/>
     <use style="fill:#1f77b4;stroke:#1f77b4;" x="109.342696" xlink:href="#mce9a87aa57" y="279.86258"/>
     <use style="fill:#1f77b4;stroke:#1f77b4;" x="113.538843" xlink:href="#mce9a87aa57" y="279.86258"/>
     <use style="fill:#1f77b4;stroke:#1f77b4;" x="117.73499" xlink:href="#mce9a87aa57" y="279.86258"/>
     <use style="fill:#1f77b4;stroke:#1f77b4;" x="121.931137" xlink:href="#mce9a87aa57" y="278.899234"/>
     <use style="fill:#1f77b4;stroke:#1f77b4;" x="126.127284" xlink:href="#mce9a87aa57" y="279.86258"/>
     <use style="fill:#1f77b4;stroke:#1f77b4;" x="130.32343" xlink:href="#mce9a87aa57" y="276.009195"/>
     <use style="fill:#1f77b4;stroke:#1f77b4;" x="134.519577" xlink:href="#mce9a87aa57" y="279.86258"/>
     <use style="fill:#1f77b4;stroke:#1f77b4;" x="138.715724" xlink:href="#mce9a87aa57" y="277.935887"/>
     <use style="fill:#1f77b4;stroke:#1f77b4;" x="142.911871" xlink:href="#mce9a87aa57" y="257.705618"/>
     <use style="fill:#1f77b4;stroke:#1f77b4;" x="147.108018" xlink:href="#mce9a87aa57" y="272.15581"/>
     <use style="fill:#1f77b4;stroke:#1f77b4;" x="151.304165" xlink:href="#mce9a87aa57" y="273.119157"/>
     <use style="fill:#1f77b4;stroke:#1f77b4;" x="155.500312" xlink:href="#mce9a87aa57" y="261.559003"/>
     <use style="fill:#1f77b4;stroke:#1f77b4;" x="159.696458" xlink:href="#mce9a87aa57" y="264.449041"/>
     <use style="fill:#1f77b4;stroke:#1f77b4;" x="163.892605" xlink:href="#mce9a87aa57" y="240.365388"/>
     <use style="fill:#1f77b4;stroke:#1f77b4;" x="168.088752" xlink:href="#mce9a87aa57" y="254.81558"/>
     <use style="fill:#1f77b4;stroke:#1f77b4;" x="172.284899" xlink:href="#mce9a87aa57" y="222.061811"/>
     <use style="fill:#1f77b4;stroke:#1f77b4;" x="176.481046" xlink:href="#mce9a87aa57" y="261.559003"/>
     <use style="fill:#1f77b4;stroke:#1f77b4;" x="180.677193" xlink:href="#mce9a87aa57" y="226.878541"/>
     <use style="fill:#1f77b4;stroke:#1f77b4;" x="184.87334" xlink:href="#mce9a87aa57" y="203.758234"/>
     <use style="fill:#1f77b4;stroke:#1f77b4;" x="189.069487" xlink:href="#mce9a87aa57" y="218.208426"/>
     <use style="fill:#1f77b4;stroke:#1f77b4;" x="193.265633" xlink:href="#mce9a87aa57" y="175.821195"/>
     <use style="fill:#1f77b4;stroke:#1f77b4;" x="197.46178" xlink:href="#mce9a87aa57" y="177.747888"/>
     <use style="fill:#1f77b4;stroke:#1f77b4;" x="201.657927" xlink:href="#mce9a87aa57" y="164.261042"/>
     <use style="fill:#1f77b4;stroke:#1f77b4;" x="205.854074" xlink:href="#mce9a87aa57" y="136.324003"/>
     <use style="fill:#1f77b4;stroke:#1f77b4;" x="210.050221" xlink:href="#mce9a87aa57" y="78.523234"/>
     <use style="fill:#1f77b4;stroke:#1f77b4;" x="214.246368" xlink:href="#mce9a87aa57" y="65.999734"/>
     <use style="fill:#1f77b4;stroke:#1f77b4;" x="218.442515" xlink:href="#mce9a87aa57" y="35.172658"/>
     <use style="fill:#1f77b4;stroke:#1f77b4;" x="222.638662" xlink:href="#mce9a87aa57" y="23.612504"/>
     <use style="fill:#1f77b4;stroke:#1f77b4;" x="226.834808" xlink:href="#mce9a87aa57" y="67.926427"/>
     <use style="fill:#1f77b4;stroke:#1f77b4;" x="231.030955" xlink:href="#mce9a87aa57" y="92.973427"/>
     <use style="fill:#1f77b4;stroke:#1f77b4;" x="235.227102" xlink:href="#mce9a87aa57" y="68.889773"/>
     <use style="fill:#1f77b4;stroke:#1f77b4;" x="239.423249" xlink:href="#mce9a87aa57" y="78.523234"/>
     <use style="fill:#1f77b4;stroke:#1f77b4;" x="243.619396" xlink:href="#mce9a87aa57" y="97.790157"/>
     <use style="fill:#1f77b4;stroke:#1f77b4;" x="247.815543" xlink:href="#mce9a87aa57" y="97.790157"/>
     <use style="fill:#1f77b4;stroke:#1f77b4;" x="252.01169" xlink:href="#mce9a87aa57" y="131.507273"/>
     <use style="fill:#1f77b4;stroke:#1f77b4;" x="256.207836" xlink:href="#mce9a87aa57" y="169.077772"/>
     <use style="fill:#1f77b4;stroke:#1f77b4;" x="260.403983" xlink:href="#mce9a87aa57" y="181.601272"/>
     <use style="fill:#1f77b4;stroke:#1f77b4;" x="264.60013" xlink:href="#mce9a87aa57" y="183.527965"/>
     <use style="fill:#1f77b4;stroke:#1f77b4;" x="268.796277" xlink:href="#mce9a87aa57" y="148.847503"/>
     <use style="fill:#1f77b4;stroke:#1f77b4;" x="272.992424" xlink:href="#mce9a87aa57" y="139.214042"/>
     <use style="fill:#1f77b4;stroke:#1f77b4;" x="277.188571" xlink:href="#mce9a87aa57" y="146.920811"/>
     <use style="fill:#1f77b4;stroke:#1f77b4;" x="281.384718" xlink:href="#mce9a87aa57" y="182.564619"/>
     <use style="fill:#1f77b4;stroke:#1f77b4;" x="285.580865" xlink:href="#mce9a87aa57" y="167.15108"/>
     <use style="fill:#1f77b4;stroke:#1f77b4;" x="289.777011" xlink:href="#mce9a87aa57" y="223.988503"/>
     <use style="fill:#1f77b4;stroke:#1f77b4;" x="293.973158" xlink:href="#mce9a87aa57" y="190.271388"/>
     <use style="fill:#1f77b4;stroke:#1f77b4;" x="298.169305" xlink:href="#mce9a87aa57" y="209.538311"/>
     <use style="fill:#1f77b4;stroke:#1f77b4;" x="302.365452" xlink:href="#mce9a87aa57" y="204.72158"/>
     <use style="fill:#1f77b4;stroke:#1f77b4;" x="306.561599" xlink:href="#mce9a87aa57" y="220.135118"/>
     <use style="fill:#1f77b4;stroke:#1f77b4;" x="310.757746" xlink:href="#mce9a87aa57" y="224.951849"/>
     <use style="fill:#1f77b4;stroke:#1f77b4;" x="314.953893" xlink:href="#mce9a87aa57" y="235.548657"/>
     <use style="fill:#1f77b4;stroke:#1f77b4;" x="319.15004" xlink:href="#mce9a87aa57" y="250.962195"/>
     <use style="fill:#1f77b4;stroke:#1f77b4;" x="323.346186" xlink:href="#mce9a87aa57" y="205.684926"/>
     <use style="fill:#1f77b4;stroke:#1f77b4;" x="327.542333" xlink:href="#mce9a87aa57" y="210.501657"/>
     <use style="fill:#1f77b4;stroke:#1f77b4;" x="331.73848" xlink:href="#mce9a87aa57" y="247.108811"/>
     <use style="fill:#1f77b4;stroke:#1f77b4;" x="335.934627" xlink:href="#mce9a87aa57" y="226.878541"/>
     <use style="fill:#1f77b4;stroke:#1f77b4;" x="340.130774" xlink:href="#mce9a87aa57" y="248.072157"/>
     <use style="fill:#1f77b4;stroke:#1f77b4;" x="344.326921" xlink:href="#mce9a87aa57" y="250.962195"/>
     <use style="fill:#1f77b4;stroke:#1f77b4;" x="348.523068" xlink:href="#mce9a87aa57" y="261.559003"/>
     <use style="fill:#1f77b4;stroke:#1f77b4;" x="352.719214" xlink:href="#mce9a87aa57" y="243.255426"/>
     <use style="fill:#1f77b4;stroke:#1f77b4;" x="356.915361" xlink:href="#mce9a87aa57" y="232.658618"/>
     <use style="fill:#1f77b4;stroke:#1f77b4;" x="361.111508" xlink:href="#mce9a87aa57" y="255.778926"/>
     <use style="fill:#1f77b4;stroke:#1f77b4;" x="365.307655" xlink:href="#mce9a87aa57" y="260.595657"/>
     <use style="fill:#1f77b4;stroke:#1f77b4;" x="369.503802" xlink:href="#mce9a87aa57" y="252.888887"/>
     <use style="fill:#1f77b4;stroke:#1f77b4;" x="373.699949" xlink:href="#mce9a87aa57" y="256.742272"/>
     <use style="fill:#1f77b4;stroke:#1f77b4;" x="377.896096" xlink:href="#mce9a87aa57" y="261.559003"/>
     <use style="fill:#1f77b4;stroke:#1f77b4;" x="382.092243" xlink:href="#mce9a87aa57" y="256.742272"/>
     <use style="fill:#1f77b4;stroke:#1f77b4;" x="386.288389" xlink:href="#mce9a87aa57" y="253.852234"/>
     <use style="fill:#1f77b4;stroke:#1f77b4;" x="390.484536" xlink:href="#mce9a87aa57" y="264.449041"/>
     <use style="fill:#1f77b4;stroke:#1f77b4;" x="394.680683" xlink:href="#mce9a87aa57" y="263.485695"/>
     <use style="fill:#1f77b4;stroke:#1f77b4;" x="398.87683" xlink:href="#mce9a87aa57" y="255.778926"/>
     <use style="fill:#1f77b4;stroke:#1f77b4;" x="403.072977" xlink:href="#mce9a87aa57" y="260.595657"/>
     <use style="fill:#1f77b4;stroke:#1f77b4;" x="407.269124" xlink:href="#mce9a87aa57" y="257.705618"/>
     <use style="fill:#1f77b4;stroke:#1f77b4;" x="411.465271" xlink:href="#mce9a87aa57" y="267.33908"/>
     <use style="fill:#1f77b4;stroke:#1f77b4;" x="415.661418" xlink:href="#mce9a87aa57" y="263.485695"/>
     <use style="fill:#1f77b4;stroke:#1f77b4;" x="419.857564" xlink:href="#mce9a87aa57" y="238.438695"/>
     <use style="fill:#1f77b4;stroke:#1f77b4;" x="424.053711" xlink:href="#mce9a87aa57" y="256.742272"/>
     <use style="fill:#1f77b4;stroke:#1f77b4;" x="428.249858" xlink:href="#mce9a87aa57" y="258.668964"/>
    </g>
   </g>
   <g id="patch_3">
    <path d="M 53.74375 279.86258 
L 53.74375 10.8 
" style="fill:none;stroke:#000000;stroke-linecap:square;stroke-linejoin:miter;stroke-width:0.8;"/>
   </g>
   <g id="patch_4">
    <path d="M 446.083482 279.86258 
L 446.083482 10.8 
" style="fill:none;stroke:#000000;stroke-linecap:square;stroke-linejoin:miter;stroke-width:0.8;"/>
   </g>
   <g id="patch_5">
    <path d="M 53.74375 279.86258 
L 446.083482 279.86258 
" style="fill:none;stroke:#000000;stroke-linecap:square;stroke-linejoin:miter;stroke-width:0.8;"/>
   </g>
   <g id="patch_6">
    <path d="M 53.74375 10.8 
L 446.083482 10.8 
" style="fill:none;stroke:#000000;stroke-linecap:square;stroke-linejoin:miter;stroke-width:0.8;"/>
   </g>
  </g>
 </g>
 <defs>
  <clipPath id="p061be86b25">
   <rect height="269.06258" width="392.339732" x="53.74375" y="10.8"/>
  </clipPath>
 </defs>
</svg>
