<?xml version="1.0" encoding="utf-8" standalone="no"?>
<!DOCTYPE svg PUBLIC "-//W3C//DTD SVG 1.1//EN"
  "http://www.w3.org/Graphics/SVG/1.1/DTD/svg11.dtd">
<!-- Created with matplotlib (https://matplotlib.org/) -->
<svg height="345.6pt" version="1.1" viewBox="0 0 460.8 345.6" width="460.8pt" xmlns="http://www.w3.org/2000/svg" xmlns:xlink="http://www.w3.org/1999/xlink">
 <defs>
  <style type="text/css">
*{stroke-linecap:butt;stroke-linejoin:round;}
  </style>
 </defs>
 <g id="figure_1">
  <g id="patch_1">
   <path d="M 0 345.6 
L 460.8 345.6 
L 460.8 0 
L 0 0 
z
" style="fill:#ffffff;"/>
  </g>
  <g id="axes_1">
   <g id="patch_2">
    <path d="M 44.203125 279.86258 
L 426.03129 279.86258 
L 426.03129 10.8 
L 44.203125 10.8 
z
" style="fill:#ffffff;"/>
   </g>
   <g id="matplotlib.axis_1">
    <g id="xtick_1">
     <g id="line2d_1">
      <defs>
       <path d="M 0 0 
L 0 3.5 
" id="m41731d4e7b" style="stroke:#000000;stroke-width:0.8;"/>
      </defs>
      <g>
       <use style="stroke:#000000;stroke-width:0.8;" x="100.609558" xlink:href="#m41731d4e7b" y="279.86258"/>
      </g>
     </g>
     <g id="text_1">
      <!-- 2020-03-01 -->
      <defs>
       <path d="M 19.1875 8.296875 
L 53.609375 8.296875 
L 53.609375 0 
L 7.328125 0 
L 7.328125 8.296875 
Q 12.9375 14.109375 22.625 23.890625 
Q 32.328125 33.6875 34.8125 36.53125 
Q 39.546875 41.84375 41.421875 45.53125 
Q 43.3125 49.21875 43.3125 52.78125 
Q 43.3125 58.59375 39.234375 62.25 
Q 35.15625 65.921875 28.609375 65.921875 
Q 23.96875 65.921875 18.8125 64.3125 
Q 13.671875 62.703125 7.8125 59.421875 
L 7.8125 69.390625 
Q 13.765625 71.78125 18.9375 73 
Q 24.125 74.21875 28.421875 74.21875 
Q 39.75 74.21875 46.484375 68.546875 
Q 53.21875 62.890625 53.21875 53.421875 
Q 53.21875 48.921875 51.53125 44.890625 
Q 49.859375 40.875 45.40625 35.40625 
Q 44.1875 33.984375 37.640625 27.21875 
Q 31.109375 20.453125 19.1875 8.296875 
z
" id="DejaVuSans-50"/>
       <path d="M 31.78125 66.40625 
Q 24.171875 66.40625 20.328125 58.90625 
Q 16.5 51.421875 16.5 36.375 
Q 16.5 21.390625 20.328125 13.890625 
Q 24.171875 6.390625 31.78125 6.390625 
Q 39.453125 6.390625 43.28125 13.890625 
Q 47.125 21.390625 47.125 36.375 
Q 47.125 51.421875 43.28125 58.90625 
Q 39.453125 66.40625 31.78125 66.40625 
z
M 31.78125 74.21875 
Q 44.046875 74.21875 50.515625 64.515625 
Q 56.984375 54.828125 56.984375 36.375 
Q 56.984375 17.96875 50.515625 8.265625 
Q 44.046875 -1.421875 31.78125 -1.421875 
Q 19.53125 -1.421875 13.0625 8.265625 
Q 6.59375 17.96875 6.59375 36.375 
Q 6.59375 54.828125 13.0625 64.515625 
Q 19.53125 74.21875 31.78125 74.21875 
z
" id="DejaVuSans-48"/>
       <path d="M 4.890625 31.390625 
L 31.203125 31.390625 
L 31.203125 23.390625 
L 4.890625 23.390625 
z
" id="DejaVuSans-45"/>
       <path d="M 40.578125 39.3125 
Q 47.65625 37.796875 51.625 33 
Q 55.609375 28.21875 55.609375 21.1875 
Q 55.609375 10.40625 48.1875 4.484375 
Q 40.765625 -1.421875 27.09375 -1.421875 
Q 22.515625 -1.421875 17.65625 -0.515625 
Q 12.796875 0.390625 7.625 2.203125 
L 7.625 11.71875 
Q 11.71875 9.328125 16.59375 8.109375 
Q 21.484375 6.890625 26.8125 6.890625 
Q 36.078125 6.890625 40.9375 10.546875 
Q 45.796875 14.203125 45.796875 21.1875 
Q 45.796875 27.640625 41.28125 31.265625 
Q 36.765625 34.90625 28.71875 34.90625 
L 20.21875 34.90625 
L 20.21875 43.015625 
L 29.109375 43.015625 
Q 36.375 43.015625 40.234375 45.921875 
Q 44.09375 48.828125 44.09375 54.296875 
Q 44.09375 59.90625 40.109375 62.90625 
Q 36.140625 65.921875 28.71875 65.921875 
Q 24.65625 65.921875 20.015625 65.03125 
Q 15.375 64.15625 9.8125 62.3125 
L 9.8125 71.09375 
Q 15.4375 72.65625 20.34375 73.4375 
Q 25.25 74.21875 29.59375 74.21875 
Q 40.828125 74.21875 47.359375 69.109375 
Q 53.90625 64.015625 53.90625 55.328125 
Q 53.90625 49.265625 50.4375 45.09375 
Q 46.96875 40.921875 40.578125 39.3125 
z
" id="DejaVuSans-51"/>
       <path d="M 12.40625 8.296875 
L 28.515625 8.296875 
L 28.515625 63.921875 
L 10.984375 60.40625 
L 10.984375 69.390625 
L 28.421875 72.90625 
L 38.28125 72.90625 
L 38.28125 8.296875 
L 54.390625 8.296875 
L 54.390625 0 
L 12.40625 0 
z
" id="DejaVuSans-49"/>
      </defs>
      <g transform="translate(82.013755 333.329439)rotate(-45)scale(0.1 -0.1)">
       <use xlink:href="#DejaVuSans-50"/>
       <use x="63.623047" xlink:href="#DejaVuSans-48"/>
       <use x="127.246094" xlink:href="#DejaVuSans-50"/>
       <use x="190.869141" xlink:href="#DejaVuSans-48"/>
       <use x="254.492188" xlink:href="#DejaVuSans-45"/>
       <use x="290.576172" xlink:href="#DejaVuSans-48"/>
       <use x="354.199219" xlink:href="#DejaVuSans-51"/>
       <use x="417.822266" xlink:href="#DejaVuSans-45"/>
       <use x="453.90625" xlink:href="#DejaVuSans-48"/>
       <use x="517.529297" xlink:href="#DejaVuSans-49"/>
      </g>
     </g>
    </g>
    <g id="xtick_2">
     <g id="line2d_2">
      <g>
       <use style="stroke:#000000;stroke-width:0.8;" x="161.354948" xlink:href="#m41731d4e7b" y="279.86258"/>
      </g>
     </g>
     <g id="text_2">
      <!-- 2020-03-15 -->
      <defs>
       <path d="M 10.796875 72.90625 
L 49.515625 72.90625 
L 49.515625 64.59375 
L 19.828125 64.59375 
L 19.828125 46.734375 
Q 21.96875 47.46875 24.109375 47.828125 
Q 26.265625 48.1875 28.421875 48.1875 
Q 40.625 48.1875 47.75 41.5 
Q 54.890625 34.8125 54.890625 23.390625 
Q 54.890625 11.625 47.5625 5.09375 
Q 40.234375 -1.421875 26.90625 -1.421875 
Q 22.3125 -1.421875 17.546875 -0.640625 
Q 12.796875 0.140625 7.71875 1.703125 
L 7.71875 11.625 
Q 12.109375 9.234375 16.796875 8.0625 
Q 21.484375 6.890625 26.703125 6.890625 
Q 35.15625 6.890625 40.078125 11.328125 
Q 45.015625 15.765625 45.015625 23.390625 
Q 45.015625 31 40.078125 35.4375 
Q 35.15625 39.890625 26.703125 39.890625 
Q 22.75 39.890625 18.8125 39.015625 
Q 14.890625 38.140625 10.796875 36.28125 
z
" id="DejaVuSans-53"/>
      </defs>
      <g transform="translate(142.759145 333.329439)rotate(-45)scale(0.1 -0.1)">
       <use xlink:href="#DejaVuSans-50"/>
       <use x="63.623047" xlink:href="#DejaVuSans-48"/>
       <use x="127.246094" xlink:href="#DejaVuSans-50"/>
       <use x="190.869141" xlink:href="#DejaVuSans-48"/>
       <use x="254.492188" xlink:href="#DejaVuSans-45"/>
       <use x="290.576172" xlink:href="#DejaVuSans-48"/>
       <use x="354.199219" xlink:href="#DejaVuSans-51"/>
       <use x="417.822266" xlink:href="#DejaVuSans-45"/>
       <use x="453.90625" xlink:href="#DejaVuSans-49"/>
       <use x="517.529297" xlink:href="#DejaVuSans-53"/>
      </g>
     </g>
    </g>
    <g id="xtick_3">
     <g id="line2d_3">
      <g>
       <use style="stroke:#000000;stroke-width:0.8;" x="235.117207" xlink:href="#m41731d4e7b" y="279.86258"/>
      </g>
     </g>
     <g id="text_3">
      <!-- 2020-04-01 -->
      <defs>
       <path d="M 37.796875 64.3125 
L 12.890625 25.390625 
L 37.796875 25.390625 
z
M 35.203125 72.90625 
L 47.609375 72.90625 
L 47.609375 25.390625 
L 58.015625 25.390625 
L 58.015625 17.1875 
L 47.609375 17.1875 
L 47.609375 0 
L 37.796875 0 
L 37.796875 17.1875 
L 4.890625 17.1875 
L 4.890625 26.703125 
z
" id="DejaVuSans-52"/>
      </defs>
      <g transform="translate(216.521404 333.329439)rotate(-45)scale(0.1 -0.1)">
       <use xlink:href="#DejaVuSans-50"/>
       <use x="63.623047" xlink:href="#DejaVuSans-48"/>
       <use x="127.246094" xlink:href="#DejaVuSans-50"/>
       <use x="190.869141" xlink:href="#DejaVuSans-48"/>
       <use x="254.492188" xlink:href="#DejaVuSans-45"/>
       <use x="290.576172" xlink:href="#DejaVuSans-48"/>
       <use x="354.199219" xlink:href="#DejaVuSans-52"/>
       <use x="417.822266" xlink:href="#DejaVuSans-45"/>
       <use x="453.90625" xlink:href="#DejaVuSans-48"/>
       <use x="517.529297" xlink:href="#DejaVuSans-49"/>
      </g>
     </g>
    </g>
    <g id="xtick_4">
     <g id="line2d_4">
      <g>
       <use style="stroke:#000000;stroke-width:0.8;" x="295.862597" xlink:href="#m41731d4e7b" y="279.86258"/>
      </g>
     </g>
     <g id="text_4">
      <!-- 2020-04-15 -->
      <g transform="translate(277.266794 333.329439)rotate(-45)scale(0.1 -0.1)">
       <use xlink:href="#DejaVuSans-50"/>
       <use x="63.623047" xlink:href="#DejaVuSans-48"/>
       <use x="127.246094" xlink:href="#DejaVuSans-50"/>
       <use x="190.869141" xlink:href="#DejaVuSans-48"/>
       <use x="254.492188" xlink:href="#DejaVuSans-45"/>
       <use x="290.576172" xlink:href="#DejaVuSans-48"/>
       <use x="354.199219" xlink:href="#DejaVuSans-52"/>
       <use x="417.822266" xlink:href="#DejaVuSans-45"/>
       <use x="453.90625" xlink:href="#DejaVuSans-49"/>
       <use x="517.529297" xlink:href="#DejaVuSans-53"/>
      </g>
     </g>
    </g>
    <g id="xtick_5">
     <g id="line2d_5">
      <g>
       <use style="stroke:#000000;stroke-width:0.8;" x="365.2859" xlink:href="#m41731d4e7b" y="279.86258"/>
      </g>
     </g>
     <g id="text_5">
      <!-- 2020-05-01 -->
      <g transform="translate(346.690096 333.329439)rotate(-45)scale(0.1 -0.1)">
       <use xlink:href="#DejaVuSans-50"/>
       <use x="63.623047" xlink:href="#DejaVuSans-48"/>
       <use x="127.246094" xlink:href="#DejaVuSans-50"/>
       <use x="190.869141" xlink:href="#DejaVuSans-48"/>
       <use x="254.492188" xlink:href="#DejaVuSans-45"/>
       <use x="290.576172" xlink:href="#DejaVuSans-48"/>
       <use x="354.199219" xlink:href="#DejaVuSans-53"/>
       <use x="417.822266" xlink:href="#DejaVuSans-45"/>
       <use x="453.90625" xlink:href="#DejaVuSans-48"/>
       <use x="517.529297" xlink:href="#DejaVuSans-49"/>
      </g>
     </g>
    </g>
    <g id="xtick_6">
     <g id="line2d_6">
      <g>
       <use style="stroke:#000000;stroke-width:0.8;" x="426.03129" xlink:href="#m41731d4e7b" y="279.86258"/>
      </g>
     </g>
     <g id="text_6">
      <!-- 2020-05-15 -->
      <g transform="translate(407.435486 333.329439)rotate(-45)scale(0.1 -0.1)">
       <use xlink:href="#DejaVuSans-50"/>
       <use x="63.623047" xlink:href="#DejaVuSans-48"/>
       <use x="127.246094" xlink:href="#DejaVuSans-50"/>
       <use x="190.869141" xlink:href="#DejaVuSans-48"/>
       <use x="254.492188" xlink:href="#DejaVuSans-45"/>
       <use x="290.576172" xlink:href="#DejaVuSans-48"/>
       <use x="354.199219" xlink:href="#DejaVuSans-53"/>
       <use x="417.822266" xlink:href="#DejaVuSans-45"/>
       <use x="453.90625" xlink:href="#DejaVuSans-49"/>
       <use x="517.529297" xlink:href="#DejaVuSans-53"/>
      </g>
     </g>
    </g>
   </g>
   <g id="matplotlib.axis_2">
    <g id="ytick_1">
     <g id="line2d_7">
      <defs>
       <path d="M 0 0 
L -3.5 0 
" id="mfdcd1fb73b" style="stroke:#000000;stroke-width:0.8;"/>
      </defs>
      <g>
       <use style="stroke:#000000;stroke-width:0.8;" x="44.203125" xlink:href="#mfdcd1fb73b" y="267.632462"/>
      </g>
     </g>
     <g id="text_7">
      <!-- 0 -->
      <g transform="translate(30.840625 271.431681)scale(0.1 -0.1)">
       <use xlink:href="#DejaVuSans-48"/>
      </g>
     </g>
    </g>
    <g id="ytick_2">
     <g id="line2d_8">
      <g>
       <use style="stroke:#000000;stroke-width:0.8;" x="44.203125" xlink:href="#mfdcd1fb73b" y="230.114766"/>
      </g>
     </g>
     <g id="text_8">
      <!-- 2 -->
      <g transform="translate(30.840625 233.913985)scale(0.1 -0.1)">
       <use xlink:href="#DejaVuSans-50"/>
      </g>
     </g>
    </g>
    <g id="ytick_3">
     <g id="line2d_9">
      <g>
       <use style="stroke:#000000;stroke-width:0.8;" x="44.203125" xlink:href="#mfdcd1fb73b" y="192.59707"/>
      </g>
     </g>
     <g id="text_9">
      <!-- 4 -->
      <g transform="translate(30.840625 196.396289)scale(0.1 -0.1)">
       <use xlink:href="#DejaVuSans-52"/>
      </g>
     </g>
    </g>
    <g id="ytick_4">
     <g id="line2d_10">
      <g>
       <use style="stroke:#000000;stroke-width:0.8;" x="44.203125" xlink:href="#mfdcd1fb73b" y="155.079374"/>
      </g>
     </g>
     <g id="text_10">
      <!-- 6 -->
      <defs>
       <path d="M 33.015625 40.375 
Q 26.375 40.375 22.484375 35.828125 
Q 18.609375 31.296875 18.609375 23.390625 
Q 18.609375 15.53125 22.484375 10.953125 
Q 26.375 6.390625 33.015625 6.390625 
Q 39.65625 6.390625 43.53125 10.953125 
Q 47.40625 15.53125 47.40625 23.390625 
Q 47.40625 31.296875 43.53125 35.828125 
Q 39.65625 40.375 33.015625 40.375 
z
M 52.59375 71.296875 
L 52.59375 62.3125 
Q 48.875 64.0625 45.09375 64.984375 
Q 41.3125 65.921875 37.59375 65.921875 
Q 27.828125 65.921875 22.671875 59.328125 
Q 17.53125 52.734375 16.796875 39.40625 
Q 19.671875 43.65625 24.015625 45.921875 
Q 28.375 48.1875 33.59375 48.1875 
Q 44.578125 48.1875 50.953125 41.515625 
Q 57.328125 34.859375 57.328125 23.390625 
Q 57.328125 12.15625 50.6875 5.359375 
Q 44.046875 -1.421875 33.015625 -1.421875 
Q 20.359375 -1.421875 13.671875 8.265625 
Q 6.984375 17.96875 6.984375 36.375 
Q 6.984375 53.65625 15.1875 63.9375 
Q 23.390625 74.21875 37.203125 74.21875 
Q 40.921875 74.21875 44.703125 73.484375 
Q 48.484375 72.75 52.59375 71.296875 
z
" id="DejaVuSans-54"/>
      </defs>
      <g transform="translate(30.840625 158.878593)scale(0.1 -0.1)">
       <use xlink:href="#DejaVuSans-54"/>
      </g>
     </g>
    </g>
    <g id="ytick_5">
     <g id="line2d_11">
      <g>
       <use style="stroke:#000000;stroke-width:0.8;" x="44.203125" xlink:href="#mfdcd1fb73b" y="117.561678"/>
      </g>
     </g>
     <g id="text_11">
      <!-- 8 -->
      <defs>
       <path d="M 31.78125 34.625 
Q 24.75 34.625 20.71875 30.859375 
Q 16.703125 27.09375 16.703125 20.515625 
Q 16.703125 13.921875 20.71875 10.15625 
Q 24.75 6.390625 31.78125 6.390625 
Q 38.8125 6.390625 42.859375 10.171875 
Q 46.921875 13.96875 46.921875 20.515625 
Q 46.921875 27.09375 42.890625 30.859375 
Q 38.875 34.625 31.78125 34.625 
z
M 21.921875 38.8125 
Q 15.578125 40.375 12.03125 44.71875 
Q 8.5 49.078125 8.5 55.328125 
Q 8.5 64.0625 14.71875 69.140625 
Q 20.953125 74.21875 31.78125 74.21875 
Q 42.671875 74.21875 48.875 69.140625 
Q 55.078125 64.0625 55.078125 55.328125 
Q 55.078125 49.078125 51.53125 44.71875 
Q 48 40.375 41.703125 38.8125 
Q 48.828125 37.15625 52.796875 32.3125 
Q 56.78125 27.484375 56.78125 20.515625 
Q 56.78125 9.90625 50.3125 4.234375 
Q 43.84375 -1.421875 31.78125 -1.421875 
Q 19.734375 -1.421875 13.25 4.234375 
Q 6.78125 9.90625 6.78125 20.515625 
Q 6.78125 27.484375 10.78125 32.3125 
Q 14.796875 37.15625 21.921875 38.8125 
z
M 18.3125 54.390625 
Q 18.3125 48.734375 21.84375 45.5625 
Q 25.390625 42.390625 31.78125 42.390625 
Q 38.140625 42.390625 41.71875 45.5625 
Q 45.3125 48.734375 45.3125 54.390625 
Q 45.3125 60.0625 41.71875 63.234375 
Q 38.140625 66.40625 31.78125 66.40625 
Q 25.390625 66.40625 21.84375 63.234375 
Q 18.3125 60.0625 18.3125 54.390625 
z
" id="DejaVuSans-56"/>
      </defs>
      <g transform="translate(30.840625 121.360896)scale(0.1 -0.1)">
       <use xlink:href="#DejaVuSans-56"/>
      </g>
     </g>
    </g>
    <g id="ytick_6">
     <g id="line2d_12">
      <g>
       <use style="stroke:#000000;stroke-width:0.8;" x="44.203125" xlink:href="#mfdcd1fb73b" y="80.043981"/>
      </g>
     </g>
     <g id="text_12">
      <!-- 10 -->
      <g transform="translate(24.478125 83.8432)scale(0.1 -0.1)">
       <use xlink:href="#DejaVuSans-49"/>
       <use x="63.623047" xlink:href="#DejaVuSans-48"/>
      </g>
     </g>
    </g>
    <g id="ytick_7">
     <g id="line2d_13">
      <g>
       <use style="stroke:#000000;stroke-width:0.8;" x="44.203125" xlink:href="#mfdcd1fb73b" y="42.526285"/>
      </g>
     </g>
     <g id="text_13">
      <!-- 12 -->
      <g transform="translate(24.478125 46.325504)scale(0.1 -0.1)">
       <use xlink:href="#DejaVuSans-49"/>
       <use x="63.623047" xlink:href="#DejaVuSans-50"/>
      </g>
     </g>
    </g>
    <g id="text_14">
     <!-- AS pcr (por 100000 hab.) diarios -->
     <defs>
      <path d="M 34.1875 63.1875 
L 20.796875 26.90625 
L 47.609375 26.90625 
z
M 28.609375 72.90625 
L 39.796875 72.90625 
L 67.578125 0 
L 57.328125 0 
L 50.6875 18.703125 
L 17.828125 18.703125 
L 11.1875 0 
L 0.78125 0 
z
" id="DejaVuSans-65"/>
      <path d="M 53.515625 70.515625 
L 53.515625 60.890625 
Q 47.90625 63.578125 42.921875 64.890625 
Q 37.9375 66.21875 33.296875 66.21875 
Q 25.25 66.21875 20.875 63.09375 
Q 16.5 59.96875 16.5 54.203125 
Q 16.5 49.359375 19.40625 46.890625 
Q 22.3125 44.4375 30.421875 42.921875 
L 36.375 41.703125 
Q 47.40625 39.59375 52.65625 34.296875 
Q 57.90625 29 57.90625 20.125 
Q 57.90625 9.515625 50.796875 4.046875 
Q 43.703125 -1.421875 29.984375 -1.421875 
Q 24.8125 -1.421875 18.96875 -0.25 
Q 13.140625 0.921875 6.890625 3.21875 
L 6.890625 13.375 
Q 12.890625 10.015625 18.65625 8.296875 
Q 24.421875 6.59375 29.984375 6.59375 
Q 38.421875 6.59375 43.015625 9.90625 
Q 47.609375 13.234375 47.609375 19.390625 
Q 47.609375 24.75 44.3125 27.78125 
Q 41.015625 30.8125 33.5 32.328125 
L 27.484375 33.5 
Q 16.453125 35.6875 11.515625 40.375 
Q 6.59375 45.0625 6.59375 53.421875 
Q 6.59375 63.09375 13.40625 68.65625 
Q 20.21875 74.21875 32.171875 74.21875 
Q 37.3125 74.21875 42.625 73.28125 
Q 47.953125 72.359375 53.515625 70.515625 
z
" id="DejaVuSans-83"/>
      <path id="DejaVuSans-32"/>
      <path d="M 18.109375 8.203125 
L 18.109375 -20.796875 
L 9.078125 -20.796875 
L 9.078125 54.6875 
L 18.109375 54.6875 
L 18.109375 46.390625 
Q 20.953125 51.265625 25.265625 53.625 
Q 29.59375 56 35.59375 56 
Q 45.5625 56 51.78125 48.09375 
Q 58.015625 40.1875 58.015625 27.296875 
Q 58.015625 14.40625 51.78125 6.484375 
Q 45.5625 -1.421875 35.59375 -1.421875 
Q 29.59375 -1.421875 25.265625 0.953125 
Q 20.953125 3.328125 18.109375 8.203125 
z
M 48.6875 27.296875 
Q 48.6875 37.203125 44.609375 42.84375 
Q 40.53125 48.484375 33.40625 48.484375 
Q 26.265625 48.484375 22.1875 42.84375 
Q 18.109375 37.203125 18.109375 27.296875 
Q 18.109375 17.390625 22.1875 11.75 
Q 26.265625 6.109375 33.40625 6.109375 
Q 40.53125 6.109375 44.609375 11.75 
Q 48.6875 17.390625 48.6875 27.296875 
z
" id="DejaVuSans-112"/>
      <path d="M 48.78125 52.59375 
L 48.78125 44.1875 
Q 44.96875 46.296875 41.140625 47.34375 
Q 37.3125 48.390625 33.40625 48.390625 
Q 24.65625 48.390625 19.8125 42.84375 
Q 14.984375 37.3125 14.984375 27.296875 
Q 14.984375 17.28125 19.8125 11.734375 
Q 24.65625 6.203125 33.40625 6.203125 
Q 37.3125 6.203125 41.140625 7.25 
Q 44.96875 8.296875 48.78125 10.40625 
L 48.78125 2.09375 
Q 45.015625 0.34375 40.984375 -0.53125 
Q 36.96875 -1.421875 32.421875 -1.421875 
Q 20.0625 -1.421875 12.78125 6.34375 
Q 5.515625 14.109375 5.515625 27.296875 
Q 5.515625 40.671875 12.859375 48.328125 
Q 20.21875 56 33.015625 56 
Q 37.15625 56 41.109375 55.140625 
Q 45.0625 54.296875 48.78125 52.59375 
z
" id="DejaVuSans-99"/>
      <path d="M 41.109375 46.296875 
Q 39.59375 47.171875 37.8125 47.578125 
Q 36.03125 48 33.890625 48 
Q 26.265625 48 22.1875 43.046875 
Q 18.109375 38.09375 18.109375 28.8125 
L 18.109375 0 
L 9.078125 0 
L 9.078125 54.6875 
L 18.109375 54.6875 
L 18.109375 46.1875 
Q 20.953125 51.171875 25.484375 53.578125 
Q 30.03125 56 36.53125 56 
Q 37.453125 56 38.578125 55.875 
Q 39.703125 55.765625 41.0625 55.515625 
z
" id="DejaVuSans-114"/>
      <path d="M 31 75.875 
Q 24.46875 64.65625 21.28125 53.65625 
Q 18.109375 42.671875 18.109375 31.390625 
Q 18.109375 20.125 21.3125 9.0625 
Q 24.515625 -2 31 -13.1875 
L 23.1875 -13.1875 
Q 15.875 -1.703125 12.234375 9.375 
Q 8.59375 20.453125 8.59375 31.390625 
Q 8.59375 42.28125 12.203125 53.3125 
Q 15.828125 64.359375 23.1875 75.875 
z
" id="DejaVuSans-40"/>
      <path d="M 30.609375 48.390625 
Q 23.390625 48.390625 19.1875 42.75 
Q 14.984375 37.109375 14.984375 27.296875 
Q 14.984375 17.484375 19.15625 11.84375 
Q 23.34375 6.203125 30.609375 6.203125 
Q 37.796875 6.203125 41.984375 11.859375 
Q 46.1875 17.53125 46.1875 27.296875 
Q 46.1875 37.015625 41.984375 42.703125 
Q 37.796875 48.390625 30.609375 48.390625 
z
M 30.609375 56 
Q 42.328125 56 49.015625 48.375 
Q 55.71875 40.765625 55.71875 27.296875 
Q 55.71875 13.875 49.015625 6.21875 
Q 42.328125 -1.421875 30.609375 -1.421875 
Q 18.84375 -1.421875 12.171875 6.21875 
Q 5.515625 13.875 5.515625 27.296875 
Q 5.515625 40.765625 12.171875 48.375 
Q 18.84375 56 30.609375 56 
z
" id="DejaVuSans-111"/>
      <path d="M 54.890625 33.015625 
L 54.890625 0 
L 45.90625 0 
L 45.90625 32.71875 
Q 45.90625 40.484375 42.875 44.328125 
Q 39.84375 48.1875 33.796875 48.1875 
Q 26.515625 48.1875 22.3125 43.546875 
Q 18.109375 38.921875 18.109375 30.90625 
L 18.109375 0 
L 9.078125 0 
L 9.078125 75.984375 
L 18.109375 75.984375 
L 18.109375 46.1875 
Q 21.34375 51.125 25.703125 53.5625 
Q 30.078125 56 35.796875 56 
Q 45.21875 56 50.046875 50.171875 
Q 54.890625 44.34375 54.890625 33.015625 
z
" id="DejaVuSans-104"/>
      <path d="M 34.28125 27.484375 
Q 23.390625 27.484375 19.1875 25 
Q 14.984375 22.515625 14.984375 16.5 
Q 14.984375 11.71875 18.140625 8.90625 
Q 21.296875 6.109375 26.703125 6.109375 
Q 34.1875 6.109375 38.703125 11.40625 
Q 43.21875 16.703125 43.21875 25.484375 
L 43.21875 27.484375 
z
M 52.203125 31.203125 
L 52.203125 0 
L 43.21875 0 
L 43.21875 8.296875 
Q 40.140625 3.328125 35.546875 0.953125 
Q 30.953125 -1.421875 24.3125 -1.421875 
Q 15.921875 -1.421875 10.953125 3.296875 
Q 6 8.015625 6 15.921875 
Q 6 25.140625 12.171875 29.828125 
Q 18.359375 34.515625 30.609375 34.515625 
L 43.21875 34.515625 
L 43.21875 35.40625 
Q 43.21875 41.609375 39.140625 45 
Q 35.0625 48.390625 27.6875 48.390625 
Q 23 48.390625 18.546875 47.265625 
Q 14.109375 46.140625 10.015625 43.890625 
L 10.015625 52.203125 
Q 14.9375 54.109375 19.578125 55.046875 
Q 24.21875 56 28.609375 56 
Q 40.484375 56 46.34375 49.84375 
Q 52.203125 43.703125 52.203125 31.203125 
z
" id="DejaVuSans-97"/>
      <path d="M 48.6875 27.296875 
Q 48.6875 37.203125 44.609375 42.84375 
Q 40.53125 48.484375 33.40625 48.484375 
Q 26.265625 48.484375 22.1875 42.84375 
Q 18.109375 37.203125 18.109375 27.296875 
Q 18.109375 17.390625 22.1875 11.75 
Q 26.265625 6.109375 33.40625 6.109375 
Q 40.53125 6.109375 44.609375 11.75 
Q 48.6875 17.390625 48.6875 27.296875 
z
M 18.109375 46.390625 
Q 20.953125 51.265625 25.265625 53.625 
Q 29.59375 56 35.59375 56 
Q 45.5625 56 51.78125 48.09375 
Q 58.015625 40.1875 58.015625 27.296875 
Q 58.015625 14.40625 51.78125 6.484375 
Q 45.5625 -1.421875 35.59375 -1.421875 
Q 29.59375 -1.421875 25.265625 0.953125 
Q 20.953125 3.328125 18.109375 8.203125 
L 18.109375 0 
L 9.078125 0 
L 9.078125 75.984375 
L 18.109375 75.984375 
z
" id="DejaVuSans-98"/>
      <path d="M 10.6875 12.40625 
L 21 12.40625 
L 21 0 
L 10.6875 0 
z
" id="DejaVuSans-46"/>
      <path d="M 8.015625 75.875 
L 15.828125 75.875 
Q 23.140625 64.359375 26.78125 53.3125 
Q 30.421875 42.28125 30.421875 31.390625 
Q 30.421875 20.453125 26.78125 9.375 
Q 23.140625 -1.703125 15.828125 -13.1875 
L 8.015625 -13.1875 
Q 14.5 -2 17.703125 9.0625 
Q 20.90625 20.125 20.90625 31.390625 
Q 20.90625 42.671875 17.703125 53.65625 
Q 14.5 64.65625 8.015625 75.875 
z
" id="DejaVuSans-41"/>
      <path d="M 45.40625 46.390625 
L 45.40625 75.984375 
L 54.390625 75.984375 
L 54.390625 0 
L 45.40625 0 
L 45.40625 8.203125 
Q 42.578125 3.328125 38.25 0.953125 
Q 33.9375 -1.421875 27.875 -1.421875 
Q 17.96875 -1.421875 11.734375 6.484375 
Q 5.515625 14.40625 5.515625 27.296875 
Q 5.515625 40.1875 11.734375 48.09375 
Q 17.96875 56 27.875 56 
Q 33.9375 56 38.25 53.625 
Q 42.578125 51.265625 45.40625 46.390625 
z
M 14.796875 27.296875 
Q 14.796875 17.390625 18.875 11.75 
Q 22.953125 6.109375 30.078125 6.109375 
Q 37.203125 6.109375 41.296875 11.75 
Q 45.40625 17.390625 45.40625 27.296875 
Q 45.40625 37.203125 41.296875 42.84375 
Q 37.203125 48.484375 30.078125 48.484375 
Q 22.953125 48.484375 18.875 42.84375 
Q 14.796875 37.203125 14.796875 27.296875 
z
" id="DejaVuSans-100"/>
      <path d="M 9.421875 54.6875 
L 18.40625 54.6875 
L 18.40625 0 
L 9.421875 0 
z
M 9.421875 75.984375 
L 18.40625 75.984375 
L 18.40625 64.59375 
L 9.421875 64.59375 
z
" id="DejaVuSans-105"/>
      <path d="M 44.28125 53.078125 
L 44.28125 44.578125 
Q 40.484375 46.53125 36.375 47.5 
Q 32.28125 48.484375 27.875 48.484375 
Q 21.1875 48.484375 17.84375 46.4375 
Q 14.5 44.390625 14.5 40.28125 
Q 14.5 37.15625 16.890625 35.375 
Q 19.28125 33.59375 26.515625 31.984375 
L 29.59375 31.296875 
Q 39.15625 29.25 43.1875 25.515625 
Q 47.21875 21.78125 47.21875 15.09375 
Q 47.21875 7.46875 41.1875 3.015625 
Q 35.15625 -1.421875 24.609375 -1.421875 
Q 20.21875 -1.421875 15.453125 -0.5625 
Q 10.6875 0.296875 5.421875 2 
L 5.421875 11.28125 
Q 10.40625 8.6875 15.234375 7.390625 
Q 20.0625 6.109375 24.8125 6.109375 
Q 31.15625 6.109375 34.5625 8.28125 
Q 37.984375 10.453125 37.984375 14.40625 
Q 37.984375 18.0625 35.515625 20.015625 
Q 33.0625 21.96875 24.703125 23.78125 
L 21.578125 24.515625 
Q 13.234375 26.265625 9.515625 29.90625 
Q 5.8125 33.546875 5.8125 39.890625 
Q 5.8125 47.609375 11.28125 51.796875 
Q 16.75 56 26.8125 56 
Q 31.78125 56 36.171875 55.265625 
Q 40.578125 54.546875 44.28125 53.078125 
z
" id="DejaVuSans-115"/>
     </defs>
     <g transform="translate(18.398438 226.860196)rotate(-90)scale(0.1 -0.1)">
      <use xlink:href="#DejaVuSans-65"/>
      <use x="68.408203" xlink:href="#DejaVuSans-83"/>
      <use x="131.884766" xlink:href="#DejaVuSans-32"/>
      <use x="163.671875" xlink:href="#DejaVuSans-112"/>
      <use x="227.148438" xlink:href="#DejaVuSans-99"/>
      <use x="282.128906" xlink:href="#DejaVuSans-114"/>
      <use x="323.242188" xlink:href="#DejaVuSans-32"/>
      <use x="355.029297" xlink:href="#DejaVuSans-40"/>
      <use x="394.042969" xlink:href="#DejaVuSans-112"/>
      <use x="457.519531" xlink:href="#DejaVuSans-111"/>
      <use x="518.701172" xlink:href="#DejaVuSans-114"/>
      <use x="559.814453" xlink:href="#DejaVuSans-32"/>
      <use x="591.601562" xlink:href="#DejaVuSans-49"/>
      <use x="655.224609" xlink:href="#DejaVuSans-48"/>
      <use x="718.847656" xlink:href="#DejaVuSans-48"/>
      <use x="782.470703" xlink:href="#DejaVuSans-48"/>
      <use x="846.09375" xlink:href="#DejaVuSans-48"/>
      <use x="909.716797" xlink:href="#DejaVuSans-48"/>
      <use x="973.339844" xlink:href="#DejaVuSans-32"/>
      <use x="1005.126953" xlink:href="#DejaVuSans-104"/>
      <use x="1068.505859" xlink:href="#DejaVuSans-97"/>
      <use x="1129.785156" xlink:href="#DejaVuSans-98"/>
      <use x="1193.261719" xlink:href="#DejaVuSans-46"/>
      <use x="1225.048828" xlink:href="#DejaVuSans-41"/>
      <use x="1264.0625" xlink:href="#DejaVuSans-32"/>
      <use x="1295.849609" xlink:href="#DejaVuSans-100"/>
      <use x="1359.326172" xlink:href="#DejaVuSans-105"/>
      <use x="1387.109375" xlink:href="#DejaVuSans-97"/>
      <use x="1448.388672" xlink:href="#DejaVuSans-114"/>
      <use x="1489.501953" xlink:href="#DejaVuSans-105"/>
      <use x="1517.285156" xlink:href="#DejaVuSans-111"/>
      <use x="1578.466797" xlink:href="#DejaVuSans-115"/>
     </g>
    </g>
   </g>
   <g id="line2d_14">
    <path clip-path="url(#pce4cee4565)" d="M 61.558951 267.632462 
L 65.897907 267.632462 
L 70.236864 267.632462 
L 74.57582 267.632462 
L 78.914776 267.632462 
L 83.253733 267.632462 
L 87.592689 267.632462 
L 91.931646 267.632462 
L 96.270602 265.793347 
L 100.609558 267.632462 
L 104.948515 267.632462 
L 109.287471 263.954232 
L 113.626428 265.793347 
L 117.965384 265.793347 
L 122.304341 263.954232 
L 126.643297 265.793347 
L 130.982253 263.954232 
L 135.32121 247.402193 
L 139.660166 238.206616 
L 143.999123 252.919539 
L 148.338079 236.367501 
L 152.677035 197.746078 
L 157.015992 184.87227 
L 161.354948 184.87227 
L 165.693905 183.033155 
L 170.032861 186.711386 
L 174.371818 164.642001 
L 178.710774 23.030117 
L 183.04973 127.859694 
L 187.388687 186.711386 
L 191.727643 142.572617 
L 196.0666 70.847117 
L 200.405556 111.307655 
L 204.744512 148.089963 
L 209.083469 118.664117 
L 213.422425 116.825001 
L 217.761382 92.916502 
L 222.100338 122.342348 
L 226.439295 122.342348 
L 230.778251 153.607309 
L 235.117207 118.664117 
L 239.456164 157.28554 
L 243.79512 153.607309 
L 248.134077 190.389617 
L 252.473033 170.159347 
L 256.81199 223.493693 
L 261.150946 192.228732 
L 265.489902 177.515809 
L 269.828859 194.067847 
L 274.167815 171.998463 
L 278.506772 118.664117 
L 282.845728 216.137232 
L 287.184684 184.87227 
L 291.523641 170.159347 
L 295.862597 179.354924 
L 300.201554 230.850155 
L 304.54051 227.171924 
L 308.879467 245.563078 
L 313.218423 251.080424 
L 317.557379 249.241309 
L 321.896336 241.884847 
L 326.235292 258.436886 
L 330.574249 260.276001 
L 334.913205 243.723962 
L 339.252161 263.954232 
L 343.591118 263.954232 
L 347.930074 252.919539 
L 352.269031 236.367501 
L 356.607987 236.367501 
L 360.946944 258.436886 
L 365.2859 267.632462 
L 369.624856 265.793347 
L 373.963813 263.954232 
L 378.302769 265.793347 
L 382.641726 247.402193 
L 386.980682 267.632462 
L 391.319638 249.241309 
L 395.658595 256.59777 
L 399.997551 265.793347 
L 404.336508 262.115116 
L 408.675464 258.436886 
" style="fill:none;stroke:#1f77b4;stroke-linecap:square;stroke-width:1.5;"/>
    <defs>
     <path d="M 0 1.5 
C 0.397805 1.5 0.77937 1.341951 1.06066 1.06066 
C 1.341951 0.77937 1.5 0.397805 1.5 0 
C 1.5 -0.397805 1.341951 -0.77937 1.06066 -1.06066 
C 0.77937 -1.341951 0.397805 -1.5 0 -1.5 
C -0.397805 -1.5 -0.77937 -1.341951 -1.06066 -1.06066 
C -1.341951 -0.77937 -1.5 -0.397805 -1.5 0 
C -1.5 0.397805 -1.341951 0.77937 -1.06066 1.06066 
C -0.77937 1.341951 -0.397805 1.5 0 1.5 
z
" id="mdaef0c8d7e" style="stroke:#1f77b4;"/>
    </defs>
    <g clip-path="url(#pce4cee4565)">
     <use style="fill:#1f77b4;stroke:#1f77b4;" x="61.558951" xlink:href="#mdaef0c8d7e" y="267.632462"/>
     <use style="fill:#1f77b4;stroke:#1f77b4;" x="65.897907" xlink:href="#mdaef0c8d7e" y="267.632462"/>
     <use style="fill:#1f77b4;stroke:#1f77b4;" x="70.236864" xlink:href="#mdaef0c8d7e" y="267.632462"/>
     <use style="fill:#1f77b4;stroke:#1f77b4;" x="74.57582" xlink:href="#mdaef0c8d7e" y="267.632462"/>
     <use style="fill:#1f77b4;stroke:#1f77b4;" x="78.914776" xlink:href="#mdaef0c8d7e" y="267.632462"/>
     <use style="fill:#1f77b4;stroke:#1f77b4;" x="83.253733" xlink:href="#mdaef0c8d7e" y="267.632462"/>
     <use style="fill:#1f77b4;stroke:#1f77b4;" x="87.592689" xlink:href="#mdaef0c8d7e" y="267.632462"/>
     <use style="fill:#1f77b4;stroke:#1f77b4;" x="91.931646" xlink:href="#mdaef0c8d7e" y="267.632462"/>
     <use style="fill:#1f77b4;stroke:#1f77b4;" x="96.270602" xlink:href="#mdaef0c8d7e" y="265.793347"/>
     <use style="fill:#1f77b4;stroke:#1f77b4;" x="100.609558" xlink:href="#mdaef0c8d7e" y="267.632462"/>
     <use style="fill:#1f77b4;stroke:#1f77b4;" x="104.948515" xlink:href="#mdaef0c8d7e" y="267.632462"/>
     <use style="fill:#1f77b4;stroke:#1f77b4;" x="109.287471" xlink:href="#mdaef0c8d7e" y="263.954232"/>
     <use style="fill:#1f77b4;stroke:#1f77b4;" x="113.626428" xlink:href="#mdaef0c8d7e" y="265.793347"/>
     <use style="fill:#1f77b4;stroke:#1f77b4;" x="117.965384" xlink:href="#mdaef0c8d7e" y="265.793347"/>
     <use style="fill:#1f77b4;stroke:#1f77b4;" x="122.304341" xlink:href="#mdaef0c8d7e" y="263.954232"/>
     <use style="fill:#1f77b4;stroke:#1f77b4;" x="126.643297" xlink:href="#mdaef0c8d7e" y="265.793347"/>
     <use style="fill:#1f77b4;stroke:#1f77b4;" x="130.982253" xlink:href="#mdaef0c8d7e" y="263.954232"/>
     <use style="fill:#1f77b4;stroke:#1f77b4;" x="135.32121" xlink:href="#mdaef0c8d7e" y="247.402193"/>
     <use style="fill:#1f77b4;stroke:#1f77b4;" x="139.660166" xlink:href="#mdaef0c8d7e" y="238.206616"/>
     <use style="fill:#1f77b4;stroke:#1f77b4;" x="143.999123" xlink:href="#mdaef0c8d7e" y="252.919539"/>
     <use style="fill:#1f77b4;stroke:#1f77b4;" x="148.338079" xlink:href="#mdaef0c8d7e" y="236.367501"/>
     <use style="fill:#1f77b4;stroke:#1f77b4;" x="152.677035" xlink:href="#mdaef0c8d7e" y="197.746078"/>
     <use style="fill:#1f77b4;stroke:#1f77b4;" x="157.015992" xlink:href="#mdaef0c8d7e" y="184.87227"/>
     <use style="fill:#1f77b4;stroke:#1f77b4;" x="161.354948" xlink:href="#mdaef0c8d7e" y="184.87227"/>
     <use style="fill:#1f77b4;stroke:#1f77b4;" x="165.693905" xlink:href="#mdaef0c8d7e" y="183.033155"/>
     <use style="fill:#1f77b4;stroke:#1f77b4;" x="170.032861" xlink:href="#mdaef0c8d7e" y="186.711386"/>
     <use style="fill:#1f77b4;stroke:#1f77b4;" x="174.371818" xlink:href="#mdaef0c8d7e" y="164.642001"/>
     <use style="fill:#1f77b4;stroke:#1f77b4;" x="178.710774" xlink:href="#mdaef0c8d7e" y="23.030117"/>
     <use style="fill:#1f77b4;stroke:#1f77b4;" x="183.04973" xlink:href="#mdaef0c8d7e" y="127.859694"/>
     <use style="fill:#1f77b4;stroke:#1f77b4;" x="187.388687" xlink:href="#mdaef0c8d7e" y="186.711386"/>
     <use style="fill:#1f77b4;stroke:#1f77b4;" x="191.727643" xlink:href="#mdaef0c8d7e" y="142.572617"/>
     <use style="fill:#1f77b4;stroke:#1f77b4;" x="196.0666" xlink:href="#mdaef0c8d7e" y="70.847117"/>
     <use style="fill:#1f77b4;stroke:#1f77b4;" x="200.405556" xlink:href="#mdaef0c8d7e" y="111.307655"/>
     <use style="fill:#1f77b4;stroke:#1f77b4;" x="204.744512" xlink:href="#mdaef0c8d7e" y="148.089963"/>
     <use style="fill:#1f77b4;stroke:#1f77b4;" x="209.083469" xlink:href="#mdaef0c8d7e" y="118.664117"/>
     <use style="fill:#1f77b4;stroke:#1f77b4;" x="213.422425" xlink:href="#mdaef0c8d7e" y="116.825001"/>
     <use style="fill:#1f77b4;stroke:#1f77b4;" x="217.761382" xlink:href="#mdaef0c8d7e" y="92.916502"/>
     <use style="fill:#1f77b4;stroke:#1f77b4;" x="222.100338" xlink:href="#mdaef0c8d7e" y="122.342348"/>
     <use style="fill:#1f77b4;stroke:#1f77b4;" x="226.439295" xlink:href="#mdaef0c8d7e" y="122.342348"/>
     <use style="fill:#1f77b4;stroke:#1f77b4;" x="230.778251" xlink:href="#mdaef0c8d7e" y="153.607309"/>
     <use style="fill:#1f77b4;stroke:#1f77b4;" x="235.117207" xlink:href="#mdaef0c8d7e" y="118.664117"/>
     <use style="fill:#1f77b4;stroke:#1f77b4;" x="239.456164" xlink:href="#mdaef0c8d7e" y="157.28554"/>
     <use style="fill:#1f77b4;stroke:#1f77b4;" x="243.79512" xlink:href="#mdaef0c8d7e" y="153.607309"/>
     <use style="fill:#1f77b4;stroke:#1f77b4;" x="248.134077" xlink:href="#mdaef0c8d7e" y="190.389617"/>
     <use style="fill:#1f77b4;stroke:#1f77b4;" x="252.473033" xlink:href="#mdaef0c8d7e" y="170.159347"/>
     <use style="fill:#1f77b4;stroke:#1f77b4;" x="256.81199" xlink:href="#mdaef0c8d7e" y="223.493693"/>
     <use style="fill:#1f77b4;stroke:#1f77b4;" x="261.150946" xlink:href="#mdaef0c8d7e" y="192.228732"/>
     <use style="fill:#1f77b4;stroke:#1f77b4;" x="265.489902" xlink:href="#mdaef0c8d7e" y="177.515809"/>
     <use style="fill:#1f77b4;stroke:#1f77b4;" x="269.828859" xlink:href="#mdaef0c8d7e" y="194.067847"/>
     <use style="fill:#1f77b4;stroke:#1f77b4;" x="274.167815" xlink:href="#mdaef0c8d7e" y="171.998463"/>
     <use style="fill:#1f77b4;stroke:#1f77b4;" x="278.506772" xlink:href="#mdaef0c8d7e" y="118.664117"/>
     <use style="fill:#1f77b4;stroke:#1f77b4;" x="282.845728" xlink:href="#mdaef0c8d7e" y="216.137232"/>
     <use style="fill:#1f77b4;stroke:#1f77b4;" x="287.184684" xlink:href="#mdaef0c8d7e" y="184.87227"/>
     <use style="fill:#1f77b4;stroke:#1f77b4;" x="291.523641" xlink:href="#mdaef0c8d7e" y="170.159347"/>
     <use style="fill:#1f77b4;stroke:#1f77b4;" x="295.862597" xlink:href="#mdaef0c8d7e" y="179.354924"/>
     <use style="fill:#1f77b4;stroke:#1f77b4;" x="300.201554" xlink:href="#mdaef0c8d7e" y="230.850155"/>
     <use style="fill:#1f77b4;stroke:#1f77b4;" x="304.54051" xlink:href="#mdaef0c8d7e" y="227.171924"/>
     <use style="fill:#1f77b4;stroke:#1f77b4;" x="308.879467" xlink:href="#mdaef0c8d7e" y="245.563078"/>
     <use style="fill:#1f77b4;stroke:#1f77b4;" x="313.218423" xlink:href="#mdaef0c8d7e" y="251.080424"/>
     <use style="fill:#1f77b4;stroke:#1f77b4;" x="317.557379" xlink:href="#mdaef0c8d7e" y="249.241309"/>
     <use style="fill:#1f77b4;stroke:#1f77b4;" x="321.896336" xlink:href="#mdaef0c8d7e" y="241.884847"/>
     <use style="fill:#1f77b4;stroke:#1f77b4;" x="326.235292" xlink:href="#mdaef0c8d7e" y="258.436886"/>
     <use style="fill:#1f77b4;stroke:#1f77b4;" x="330.574249" xlink:href="#mdaef0c8d7e" y="260.276001"/>
     <use style="fill:#1f77b4;stroke:#1f77b4;" x="334.913205" xlink:href="#mdaef0c8d7e" y="243.723962"/>
     <use style="fill:#1f77b4;stroke:#1f77b4;" x="339.252161" xlink:href="#mdaef0c8d7e" y="263.954232"/>
     <use style="fill:#1f77b4;stroke:#1f77b4;" x="343.591118" xlink:href="#mdaef0c8d7e" y="263.954232"/>
     <use style="fill:#1f77b4;stroke:#1f77b4;" x="347.930074" xlink:href="#mdaef0c8d7e" y="252.919539"/>
     <use style="fill:#1f77b4;stroke:#1f77b4;" x="352.269031" xlink:href="#mdaef0c8d7e" y="236.367501"/>
     <use style="fill:#1f77b4;stroke:#1f77b4;" x="356.607987" xlink:href="#mdaef0c8d7e" y="236.367501"/>
     <use style="fill:#1f77b4;stroke:#1f77b4;" x="360.946944" xlink:href="#mdaef0c8d7e" y="258.436886"/>
     <use style="fill:#1f77b4;stroke:#1f77b4;" x="365.2859" xlink:href="#mdaef0c8d7e" y="267.632462"/>
     <use style="fill:#1f77b4;stroke:#1f77b4;" x="369.624856" xlink:href="#mdaef0c8d7e" y="265.793347"/>
     <use style="fill:#1f77b4;stroke:#1f77b4;" x="373.963813" xlink:href="#mdaef0c8d7e" y="263.954232"/>
     <use style="fill:#1f77b4;stroke:#1f77b4;" x="378.302769" xlink:href="#mdaef0c8d7e" y="265.793347"/>
     <use style="fill:#1f77b4;stroke:#1f77b4;" x="382.641726" xlink:href="#mdaef0c8d7e" y="247.402193"/>
     <use style="fill:#1f77b4;stroke:#1f77b4;" x="386.980682" xlink:href="#mdaef0c8d7e" y="267.632462"/>
     <use style="fill:#1f77b4;stroke:#1f77b4;" x="391.319638" xlink:href="#mdaef0c8d7e" y="249.241309"/>
     <use style="fill:#1f77b4;stroke:#1f77b4;" x="395.658595" xlink:href="#mdaef0c8d7e" y="256.59777"/>
     <use style="fill:#1f77b4;stroke:#1f77b4;" x="399.997551" xlink:href="#mdaef0c8d7e" y="265.793347"/>
     <use style="fill:#1f77b4;stroke:#1f77b4;" x="404.336508" xlink:href="#mdaef0c8d7e" y="262.115116"/>
     <use style="fill:#1f77b4;stroke:#1f77b4;" x="408.675464" xlink:href="#mdaef0c8d7e" y="258.436886"/>
    </g>
   </g>
   <g id="patch_3">
    <path d="M 44.203125 279.86258 
L 44.203125 10.8 
" style="fill:none;stroke:#000000;stroke-linecap:square;stroke-linejoin:miter;stroke-width:0.8;"/>
   </g>
   <g id="patch_4">
    <path d="M 426.03129 279.86258 
L 426.03129 10.8 
" style="fill:none;stroke:#000000;stroke-linecap:square;stroke-linejoin:miter;stroke-width:0.8;"/>
   </g>
   <g id="patch_5">
    <path d="M 44.203125 279.86258 
L 426.03129 279.86258 
" style="fill:none;stroke:#000000;stroke-linecap:square;stroke-linejoin:miter;stroke-width:0.8;"/>
   </g>
   <g id="patch_6">
    <path d="M 44.203125 10.8 
L 426.03129 10.8 
" style="fill:none;stroke:#000000;stroke-linecap:square;stroke-linejoin:miter;stroke-width:0.8;"/>
   </g>
  </g>
 </g>
 <defs>
  <clipPath id="pce4cee4565">
   <rect height="269.06258" width="381.828165" x="44.203125" y="10.8"/>
  </clipPath>
 </defs>
</svg>
