<?xml version="1.0" encoding="utf-8" standalone="no"?>
<!DOCTYPE svg PUBLIC "-//W3C//DTD SVG 1.1//EN"
  "http://www.w3.org/Graphics/SVG/1.1/DTD/svg11.dtd">
<!-- Created with matplotlib (https://matplotlib.org/) -->
<svg height="345.6pt" version="1.1" viewBox="0 0 460.8 345.6" width="460.8pt" xmlns="http://www.w3.org/2000/svg" xmlns:xlink="http://www.w3.org/1999/xlink">
 <defs>
  <style type="text/css">
*{stroke-linecap:butt;stroke-linejoin:round;}
  </style>
 </defs>
 <g id="figure_1">
  <g id="patch_1">
   <path d="M 0 345.6 
L 460.8 345.6 
L 460.8 0 
L 0 0 
z
" style="fill:#ffffff;"/>
  </g>
  <g id="axes_1">
   <g id="patch_2">
    <path d="M 44.203125 279.86258 
L 426.03129 279.86258 
L 426.03129 10.8 
L 44.203125 10.8 
z
" style="fill:#ffffff;"/>
   </g>
   <g id="matplotlib.axis_1">
    <g id="xtick_1">
     <g id="line2d_1">
      <defs>
       <path d="M 0 0 
L 0 3.5 
" id="mf6ffe09e78" style="stroke:#000000;stroke-width:0.8;"/>
      </defs>
      <g>
       <use style="stroke:#000000;stroke-width:0.8;" x="100.609558" xlink:href="#mf6ffe09e78" y="279.86258"/>
      </g>
     </g>
     <g id="text_1">
      <!-- 2020-03-01 -->
      <defs>
       <path d="M 19.1875 8.296875 
L 53.609375 8.296875 
L 53.609375 0 
L 7.328125 0 
L 7.328125 8.296875 
Q 12.9375 14.109375 22.625 23.890625 
Q 32.328125 33.6875 34.8125 36.53125 
Q 39.546875 41.84375 41.421875 45.53125 
Q 43.3125 49.21875 43.3125 52.78125 
Q 43.3125 58.59375 39.234375 62.25 
Q 35.15625 65.921875 28.609375 65.921875 
Q 23.96875 65.921875 18.8125 64.3125 
Q 13.671875 62.703125 7.8125 59.421875 
L 7.8125 69.390625 
Q 13.765625 71.78125 18.9375 73 
Q 24.125 74.21875 28.421875 74.21875 
Q 39.75 74.21875 46.484375 68.546875 
Q 53.21875 62.890625 53.21875 53.421875 
Q 53.21875 48.921875 51.53125 44.890625 
Q 49.859375 40.875 45.40625 35.40625 
Q 44.1875 33.984375 37.640625 27.21875 
Q 31.109375 20.453125 19.1875 8.296875 
z
" id="DejaVuSans-50"/>
       <path d="M 31.78125 66.40625 
Q 24.171875 66.40625 20.328125 58.90625 
Q 16.5 51.421875 16.5 36.375 
Q 16.5 21.390625 20.328125 13.890625 
Q 24.171875 6.390625 31.78125 6.390625 
Q 39.453125 6.390625 43.28125 13.890625 
Q 47.125 21.390625 47.125 36.375 
Q 47.125 51.421875 43.28125 58.90625 
Q 39.453125 66.40625 31.78125 66.40625 
z
M 31.78125 74.21875 
Q 44.046875 74.21875 50.515625 64.515625 
Q 56.984375 54.828125 56.984375 36.375 
Q 56.984375 17.96875 50.515625 8.265625 
Q 44.046875 -1.421875 31.78125 -1.421875 
Q 19.53125 -1.421875 13.0625 8.265625 
Q 6.59375 17.96875 6.59375 36.375 
Q 6.59375 54.828125 13.0625 64.515625 
Q 19.53125 74.21875 31.78125 74.21875 
z
" id="DejaVuSans-48"/>
       <path d="M 4.890625 31.390625 
L 31.203125 31.390625 
L 31.203125 23.390625 
L 4.890625 23.390625 
z
" id="DejaVuSans-45"/>
       <path d="M 40.578125 39.3125 
Q 47.65625 37.796875 51.625 33 
Q 55.609375 28.21875 55.609375 21.1875 
Q 55.609375 10.40625 48.1875 4.484375 
Q 40.765625 -1.421875 27.09375 -1.421875 
Q 22.515625 -1.421875 17.65625 -0.515625 
Q 12.796875 0.390625 7.625 2.203125 
L 7.625 11.71875 
Q 11.71875 9.328125 16.59375 8.109375 
Q 21.484375 6.890625 26.8125 6.890625 
Q 36.078125 6.890625 40.9375 10.546875 
Q 45.796875 14.203125 45.796875 21.1875 
Q 45.796875 27.640625 41.28125 31.265625 
Q 36.765625 34.90625 28.71875 34.90625 
L 20.21875 34.90625 
L 20.21875 43.015625 
L 29.109375 43.015625 
Q 36.375 43.015625 40.234375 45.921875 
Q 44.09375 48.828125 44.09375 54.296875 
Q 44.09375 59.90625 40.109375 62.90625 
Q 36.140625 65.921875 28.71875 65.921875 
Q 24.65625 65.921875 20.015625 65.03125 
Q 15.375 64.15625 9.8125 62.3125 
L 9.8125 71.09375 
Q 15.4375 72.65625 20.34375 73.4375 
Q 25.25 74.21875 29.59375 74.21875 
Q 40.828125 74.21875 47.359375 69.109375 
Q 53.90625 64.015625 53.90625 55.328125 
Q 53.90625 49.265625 50.4375 45.09375 
Q 46.96875 40.921875 40.578125 39.3125 
z
" id="DejaVuSans-51"/>
       <path d="M 12.40625 8.296875 
L 28.515625 8.296875 
L 28.515625 63.921875 
L 10.984375 60.40625 
L 10.984375 69.390625 
L 28.421875 72.90625 
L 38.28125 72.90625 
L 38.28125 8.296875 
L 54.390625 8.296875 
L 54.390625 0 
L 12.40625 0 
z
" id="DejaVuSans-49"/>
      </defs>
      <g transform="translate(82.013755 333.329439)rotate(-45)scale(0.1 -0.1)">
       <use xlink:href="#DejaVuSans-50"/>
       <use x="63.623047" xlink:href="#DejaVuSans-48"/>
       <use x="127.246094" xlink:href="#DejaVuSans-50"/>
       <use x="190.869141" xlink:href="#DejaVuSans-48"/>
       <use x="254.492188" xlink:href="#DejaVuSans-45"/>
       <use x="290.576172" xlink:href="#DejaVuSans-48"/>
       <use x="354.199219" xlink:href="#DejaVuSans-51"/>
       <use x="417.822266" xlink:href="#DejaVuSans-45"/>
       <use x="453.90625" xlink:href="#DejaVuSans-48"/>
       <use x="517.529297" xlink:href="#DejaVuSans-49"/>
      </g>
     </g>
    </g>
    <g id="xtick_2">
     <g id="line2d_2">
      <g>
       <use style="stroke:#000000;stroke-width:0.8;" x="161.354948" xlink:href="#mf6ffe09e78" y="279.86258"/>
      </g>
     </g>
     <g id="text_2">
      <!-- 2020-03-15 -->
      <defs>
       <path d="M 10.796875 72.90625 
L 49.515625 72.90625 
L 49.515625 64.59375 
L 19.828125 64.59375 
L 19.828125 46.734375 
Q 21.96875 47.46875 24.109375 47.828125 
Q 26.265625 48.1875 28.421875 48.1875 
Q 40.625 48.1875 47.75 41.5 
Q 54.890625 34.8125 54.890625 23.390625 
Q 54.890625 11.625 47.5625 5.09375 
Q 40.234375 -1.421875 26.90625 -1.421875 
Q 22.3125 -1.421875 17.546875 -0.640625 
Q 12.796875 0.140625 7.71875 1.703125 
L 7.71875 11.625 
Q 12.109375 9.234375 16.796875 8.0625 
Q 21.484375 6.890625 26.703125 6.890625 
Q 35.15625 6.890625 40.078125 11.328125 
Q 45.015625 15.765625 45.015625 23.390625 
Q 45.015625 31 40.078125 35.4375 
Q 35.15625 39.890625 26.703125 39.890625 
Q 22.75 39.890625 18.8125 39.015625 
Q 14.890625 38.140625 10.796875 36.28125 
z
" id="DejaVuSans-53"/>
      </defs>
      <g transform="translate(142.759145 333.329439)rotate(-45)scale(0.1 -0.1)">
       <use xlink:href="#DejaVuSans-50"/>
       <use x="63.623047" xlink:href="#DejaVuSans-48"/>
       <use x="127.246094" xlink:href="#DejaVuSans-50"/>
       <use x="190.869141" xlink:href="#DejaVuSans-48"/>
       <use x="254.492188" xlink:href="#DejaVuSans-45"/>
       <use x="290.576172" xlink:href="#DejaVuSans-48"/>
       <use x="354.199219" xlink:href="#DejaVuSans-51"/>
       <use x="417.822266" xlink:href="#DejaVuSans-45"/>
       <use x="453.90625" xlink:href="#DejaVuSans-49"/>
       <use x="517.529297" xlink:href="#DejaVuSans-53"/>
      </g>
     </g>
    </g>
    <g id="xtick_3">
     <g id="line2d_3">
      <g>
       <use style="stroke:#000000;stroke-width:0.8;" x="235.117207" xlink:href="#mf6ffe09e78" y="279.86258"/>
      </g>
     </g>
     <g id="text_3">
      <!-- 2020-04-01 -->
      <defs>
       <path d="M 37.796875 64.3125 
L 12.890625 25.390625 
L 37.796875 25.390625 
z
M 35.203125 72.90625 
L 47.609375 72.90625 
L 47.609375 25.390625 
L 58.015625 25.390625 
L 58.015625 17.1875 
L 47.609375 17.1875 
L 47.609375 0 
L 37.796875 0 
L 37.796875 17.1875 
L 4.890625 17.1875 
L 4.890625 26.703125 
z
" id="DejaVuSans-52"/>
      </defs>
      <g transform="translate(216.521404 333.329439)rotate(-45)scale(0.1 -0.1)">
       <use xlink:href="#DejaVuSans-50"/>
       <use x="63.623047" xlink:href="#DejaVuSans-48"/>
       <use x="127.246094" xlink:href="#DejaVuSans-50"/>
       <use x="190.869141" xlink:href="#DejaVuSans-48"/>
       <use x="254.492188" xlink:href="#DejaVuSans-45"/>
       <use x="290.576172" xlink:href="#DejaVuSans-48"/>
       <use x="354.199219" xlink:href="#DejaVuSans-52"/>
       <use x="417.822266" xlink:href="#DejaVuSans-45"/>
       <use x="453.90625" xlink:href="#DejaVuSans-48"/>
       <use x="517.529297" xlink:href="#DejaVuSans-49"/>
      </g>
     </g>
    </g>
    <g id="xtick_4">
     <g id="line2d_4">
      <g>
       <use style="stroke:#000000;stroke-width:0.8;" x="295.862597" xlink:href="#mf6ffe09e78" y="279.86258"/>
      </g>
     </g>
     <g id="text_4">
      <!-- 2020-04-15 -->
      <g transform="translate(277.266794 333.329439)rotate(-45)scale(0.1 -0.1)">
       <use xlink:href="#DejaVuSans-50"/>
       <use x="63.623047" xlink:href="#DejaVuSans-48"/>
       <use x="127.246094" xlink:href="#DejaVuSans-50"/>
       <use x="190.869141" xlink:href="#DejaVuSans-48"/>
       <use x="254.492188" xlink:href="#DejaVuSans-45"/>
       <use x="290.576172" xlink:href="#DejaVuSans-48"/>
       <use x="354.199219" xlink:href="#DejaVuSans-52"/>
       <use x="417.822266" xlink:href="#DejaVuSans-45"/>
       <use x="453.90625" xlink:href="#DejaVuSans-49"/>
       <use x="517.529297" xlink:href="#DejaVuSans-53"/>
      </g>
     </g>
    </g>
    <g id="xtick_5">
     <g id="line2d_5">
      <g>
       <use style="stroke:#000000;stroke-width:0.8;" x="365.2859" xlink:href="#mf6ffe09e78" y="279.86258"/>
      </g>
     </g>
     <g id="text_5">
      <!-- 2020-05-01 -->
      <g transform="translate(346.690096 333.329439)rotate(-45)scale(0.1 -0.1)">
       <use xlink:href="#DejaVuSans-50"/>
       <use x="63.623047" xlink:href="#DejaVuSans-48"/>
       <use x="127.246094" xlink:href="#DejaVuSans-50"/>
       <use x="190.869141" xlink:href="#DejaVuSans-48"/>
       <use x="254.492188" xlink:href="#DejaVuSans-45"/>
       <use x="290.576172" xlink:href="#DejaVuSans-48"/>
       <use x="354.199219" xlink:href="#DejaVuSans-53"/>
       <use x="417.822266" xlink:href="#DejaVuSans-45"/>
       <use x="453.90625" xlink:href="#DejaVuSans-48"/>
       <use x="517.529297" xlink:href="#DejaVuSans-49"/>
      </g>
     </g>
    </g>
    <g id="xtick_6">
     <g id="line2d_6">
      <g>
       <use style="stroke:#000000;stroke-width:0.8;" x="426.03129" xlink:href="#mf6ffe09e78" y="279.86258"/>
      </g>
     </g>
     <g id="text_6">
      <!-- 2020-05-15 -->
      <g transform="translate(407.435486 333.329439)rotate(-45)scale(0.1 -0.1)">
       <use xlink:href="#DejaVuSans-50"/>
       <use x="63.623047" xlink:href="#DejaVuSans-48"/>
       <use x="127.246094" xlink:href="#DejaVuSans-50"/>
       <use x="190.869141" xlink:href="#DejaVuSans-48"/>
       <use x="254.492188" xlink:href="#DejaVuSans-45"/>
       <use x="290.576172" xlink:href="#DejaVuSans-48"/>
       <use x="354.199219" xlink:href="#DejaVuSans-53"/>
       <use x="417.822266" xlink:href="#DejaVuSans-45"/>
       <use x="453.90625" xlink:href="#DejaVuSans-49"/>
       <use x="517.529297" xlink:href="#DejaVuSans-53"/>
      </g>
     </g>
    </g>
   </g>
   <g id="matplotlib.axis_2">
    <g id="ytick_1">
     <g id="line2d_7">
      <defs>
       <path d="M 0 0 
L -3.5 0 
" id="m11be4617c7" style="stroke:#000000;stroke-width:0.8;"/>
      </defs>
      <g>
       <use style="stroke:#000000;stroke-width:0.8;" x="44.203125" xlink:href="#m11be4617c7" y="279.86258"/>
      </g>
     </g>
     <g id="text_7">
      <!-- 0 -->
      <g transform="translate(30.840625 283.661798)scale(0.1 -0.1)">
       <use xlink:href="#DejaVuSans-48"/>
      </g>
     </g>
    </g>
    <g id="ytick_2">
     <g id="line2d_8">
      <g>
       <use style="stroke:#000000;stroke-width:0.8;" x="44.203125" xlink:href="#m11be4617c7" y="234.105508"/>
      </g>
     </g>
     <g id="text_8">
      <!-- 5 -->
      <g transform="translate(30.840625 237.904727)scale(0.1 -0.1)">
       <use xlink:href="#DejaVuSans-53"/>
      </g>
     </g>
    </g>
    <g id="ytick_3">
     <g id="line2d_9">
      <g>
       <use style="stroke:#000000;stroke-width:0.8;" x="44.203125" xlink:href="#m11be4617c7" y="188.348436"/>
      </g>
     </g>
     <g id="text_9">
      <!-- 10 -->
      <g transform="translate(24.478125 192.147655)scale(0.1 -0.1)">
       <use xlink:href="#DejaVuSans-49"/>
       <use x="63.623047" xlink:href="#DejaVuSans-48"/>
      </g>
     </g>
    </g>
    <g id="ytick_4">
     <g id="line2d_10">
      <g>
       <use style="stroke:#000000;stroke-width:0.8;" x="44.203125" xlink:href="#m11be4617c7" y="142.591365"/>
      </g>
     </g>
     <g id="text_10">
      <!-- 15 -->
      <g transform="translate(24.478125 146.390583)scale(0.1 -0.1)">
       <use xlink:href="#DejaVuSans-49"/>
       <use x="63.623047" xlink:href="#DejaVuSans-53"/>
      </g>
     </g>
    </g>
    <g id="ytick_5">
     <g id="line2d_11">
      <g>
       <use style="stroke:#000000;stroke-width:0.8;" x="44.203125" xlink:href="#m11be4617c7" y="96.834293"/>
      </g>
     </g>
     <g id="text_11">
      <!-- 20 -->
      <g transform="translate(24.478125 100.633512)scale(0.1 -0.1)">
       <use xlink:href="#DejaVuSans-50"/>
       <use x="63.623047" xlink:href="#DejaVuSans-48"/>
      </g>
     </g>
    </g>
    <g id="ytick_6">
     <g id="line2d_12">
      <g>
       <use style="stroke:#000000;stroke-width:0.8;" x="44.203125" xlink:href="#m11be4617c7" y="51.077221"/>
      </g>
     </g>
     <g id="text_12">
      <!-- 25 -->
      <g transform="translate(24.478125 54.87644)scale(0.1 -0.1)">
       <use xlink:href="#DejaVuSans-50"/>
       <use x="63.623047" xlink:href="#DejaVuSans-53"/>
      </g>
     </g>
    </g>
    <g id="text_13">
     <!-- CB pcr (por 100000 hab.) diarios -->
     <defs>
      <path d="M 64.40625 67.28125 
L 64.40625 56.890625 
Q 59.421875 61.53125 53.78125 63.8125 
Q 48.140625 66.109375 41.796875 66.109375 
Q 29.296875 66.109375 22.65625 58.46875 
Q 16.015625 50.828125 16.015625 36.375 
Q 16.015625 21.96875 22.65625 14.328125 
Q 29.296875 6.6875 41.796875 6.6875 
Q 48.140625 6.6875 53.78125 8.984375 
Q 59.421875 11.28125 64.40625 15.921875 
L 64.40625 5.609375 
Q 59.234375 2.09375 53.4375 0.328125 
Q 47.65625 -1.421875 41.21875 -1.421875 
Q 24.65625 -1.421875 15.125 8.703125 
Q 5.609375 18.84375 5.609375 36.375 
Q 5.609375 53.953125 15.125 64.078125 
Q 24.65625 74.21875 41.21875 74.21875 
Q 47.75 74.21875 53.53125 72.484375 
Q 59.328125 70.75 64.40625 67.28125 
z
" id="DejaVuSans-67"/>
      <path d="M 19.671875 34.8125 
L 19.671875 8.109375 
L 35.5 8.109375 
Q 43.453125 8.109375 47.28125 11.40625 
Q 51.125 14.703125 51.125 21.484375 
Q 51.125 28.328125 47.28125 31.5625 
Q 43.453125 34.8125 35.5 34.8125 
z
M 19.671875 64.796875 
L 19.671875 42.828125 
L 34.28125 42.828125 
Q 41.5 42.828125 45.03125 45.53125 
Q 48.578125 48.25 48.578125 53.8125 
Q 48.578125 59.328125 45.03125 62.0625 
Q 41.5 64.796875 34.28125 64.796875 
z
M 9.8125 72.90625 
L 35.015625 72.90625 
Q 46.296875 72.90625 52.390625 68.21875 
Q 58.5 63.53125 58.5 54.890625 
Q 58.5 48.1875 55.375 44.234375 
Q 52.25 40.28125 46.1875 39.3125 
Q 53.46875 37.75 57.5 32.78125 
Q 61.53125 27.828125 61.53125 20.40625 
Q 61.53125 10.640625 54.890625 5.3125 
Q 48.25 0 35.984375 0 
L 9.8125 0 
z
" id="DejaVuSans-66"/>
      <path id="DejaVuSans-32"/>
      <path d="M 18.109375 8.203125 
L 18.109375 -20.796875 
L 9.078125 -20.796875 
L 9.078125 54.6875 
L 18.109375 54.6875 
L 18.109375 46.390625 
Q 20.953125 51.265625 25.265625 53.625 
Q 29.59375 56 35.59375 56 
Q 45.5625 56 51.78125 48.09375 
Q 58.015625 40.1875 58.015625 27.296875 
Q 58.015625 14.40625 51.78125 6.484375 
Q 45.5625 -1.421875 35.59375 -1.421875 
Q 29.59375 -1.421875 25.265625 0.953125 
Q 20.953125 3.328125 18.109375 8.203125 
z
M 48.6875 27.296875 
Q 48.6875 37.203125 44.609375 42.84375 
Q 40.53125 48.484375 33.40625 48.484375 
Q 26.265625 48.484375 22.1875 42.84375 
Q 18.109375 37.203125 18.109375 27.296875 
Q 18.109375 17.390625 22.1875 11.75 
Q 26.265625 6.109375 33.40625 6.109375 
Q 40.53125 6.109375 44.609375 11.75 
Q 48.6875 17.390625 48.6875 27.296875 
z
" id="DejaVuSans-112"/>
      <path d="M 48.78125 52.59375 
L 48.78125 44.1875 
Q 44.96875 46.296875 41.140625 47.34375 
Q 37.3125 48.390625 33.40625 48.390625 
Q 24.65625 48.390625 19.8125 42.84375 
Q 14.984375 37.3125 14.984375 27.296875 
Q 14.984375 17.28125 19.8125 11.734375 
Q 24.65625 6.203125 33.40625 6.203125 
Q 37.3125 6.203125 41.140625 7.25 
Q 44.96875 8.296875 48.78125 10.40625 
L 48.78125 2.09375 
Q 45.015625 0.34375 40.984375 -0.53125 
Q 36.96875 -1.421875 32.421875 -1.421875 
Q 20.0625 -1.421875 12.78125 6.34375 
Q 5.515625 14.109375 5.515625 27.296875 
Q 5.515625 40.671875 12.859375 48.328125 
Q 20.21875 56 33.015625 56 
Q 37.15625 56 41.109375 55.140625 
Q 45.0625 54.296875 48.78125 52.59375 
z
" id="DejaVuSans-99"/>
      <path d="M 41.109375 46.296875 
Q 39.59375 47.171875 37.8125 47.578125 
Q 36.03125 48 33.890625 48 
Q 26.265625 48 22.1875 43.046875 
Q 18.109375 38.09375 18.109375 28.8125 
L 18.109375 0 
L 9.078125 0 
L 9.078125 54.6875 
L 18.109375 54.6875 
L 18.109375 46.1875 
Q 20.953125 51.171875 25.484375 53.578125 
Q 30.03125 56 36.53125 56 
Q 37.453125 56 38.578125 55.875 
Q 39.703125 55.765625 41.0625 55.515625 
z
" id="DejaVuSans-114"/>
      <path d="M 31 75.875 
Q 24.46875 64.65625 21.28125 53.65625 
Q 18.109375 42.671875 18.109375 31.390625 
Q 18.109375 20.125 21.3125 9.0625 
Q 24.515625 -2 31 -13.1875 
L 23.1875 -13.1875 
Q 15.875 -1.703125 12.234375 9.375 
Q 8.59375 20.453125 8.59375 31.390625 
Q 8.59375 42.28125 12.203125 53.3125 
Q 15.828125 64.359375 23.1875 75.875 
z
" id="DejaVuSans-40"/>
      <path d="M 30.609375 48.390625 
Q 23.390625 48.390625 19.1875 42.75 
Q 14.984375 37.109375 14.984375 27.296875 
Q 14.984375 17.484375 19.15625 11.84375 
Q 23.34375 6.203125 30.609375 6.203125 
Q 37.796875 6.203125 41.984375 11.859375 
Q 46.1875 17.53125 46.1875 27.296875 
Q 46.1875 37.015625 41.984375 42.703125 
Q 37.796875 48.390625 30.609375 48.390625 
z
M 30.609375 56 
Q 42.328125 56 49.015625 48.375 
Q 55.71875 40.765625 55.71875 27.296875 
Q 55.71875 13.875 49.015625 6.21875 
Q 42.328125 -1.421875 30.609375 -1.421875 
Q 18.84375 -1.421875 12.171875 6.21875 
Q 5.515625 13.875 5.515625 27.296875 
Q 5.515625 40.765625 12.171875 48.375 
Q 18.84375 56 30.609375 56 
z
" id="DejaVuSans-111"/>
      <path d="M 54.890625 33.015625 
L 54.890625 0 
L 45.90625 0 
L 45.90625 32.71875 
Q 45.90625 40.484375 42.875 44.328125 
Q 39.84375 48.1875 33.796875 48.1875 
Q 26.515625 48.1875 22.3125 43.546875 
Q 18.109375 38.921875 18.109375 30.90625 
L 18.109375 0 
L 9.078125 0 
L 9.078125 75.984375 
L 18.109375 75.984375 
L 18.109375 46.1875 
Q 21.34375 51.125 25.703125 53.5625 
Q 30.078125 56 35.796875 56 
Q 45.21875 56 50.046875 50.171875 
Q 54.890625 44.34375 54.890625 33.015625 
z
" id="DejaVuSans-104"/>
      <path d="M 34.28125 27.484375 
Q 23.390625 27.484375 19.1875 25 
Q 14.984375 22.515625 14.984375 16.5 
Q 14.984375 11.71875 18.140625 8.90625 
Q 21.296875 6.109375 26.703125 6.109375 
Q 34.1875 6.109375 38.703125 11.40625 
Q 43.21875 16.703125 43.21875 25.484375 
L 43.21875 27.484375 
z
M 52.203125 31.203125 
L 52.203125 0 
L 43.21875 0 
L 43.21875 8.296875 
Q 40.140625 3.328125 35.546875 0.953125 
Q 30.953125 -1.421875 24.3125 -1.421875 
Q 15.921875 -1.421875 10.953125 3.296875 
Q 6 8.015625 6 15.921875 
Q 6 25.140625 12.171875 29.828125 
Q 18.359375 34.515625 30.609375 34.515625 
L 43.21875 34.515625 
L 43.21875 35.40625 
Q 43.21875 41.609375 39.140625 45 
Q 35.0625 48.390625 27.6875 48.390625 
Q 23 48.390625 18.546875 47.265625 
Q 14.109375 46.140625 10.015625 43.890625 
L 10.015625 52.203125 
Q 14.9375 54.109375 19.578125 55.046875 
Q 24.21875 56 28.609375 56 
Q 40.484375 56 46.34375 49.84375 
Q 52.203125 43.703125 52.203125 31.203125 
z
" id="DejaVuSans-97"/>
      <path d="M 48.6875 27.296875 
Q 48.6875 37.203125 44.609375 42.84375 
Q 40.53125 48.484375 33.40625 48.484375 
Q 26.265625 48.484375 22.1875 42.84375 
Q 18.109375 37.203125 18.109375 27.296875 
Q 18.109375 17.390625 22.1875 11.75 
Q 26.265625 6.109375 33.40625 6.109375 
Q 40.53125 6.109375 44.609375 11.75 
Q 48.6875 17.390625 48.6875 27.296875 
z
M 18.109375 46.390625 
Q 20.953125 51.265625 25.265625 53.625 
Q 29.59375 56 35.59375 56 
Q 45.5625 56 51.78125 48.09375 
Q 58.015625 40.1875 58.015625 27.296875 
Q 58.015625 14.40625 51.78125 6.484375 
Q 45.5625 -1.421875 35.59375 -1.421875 
Q 29.59375 -1.421875 25.265625 0.953125 
Q 20.953125 3.328125 18.109375 8.203125 
L 18.109375 0 
L 9.078125 0 
L 9.078125 75.984375 
L 18.109375 75.984375 
z
" id="DejaVuSans-98"/>
      <path d="M 10.6875 12.40625 
L 21 12.40625 
L 21 0 
L 10.6875 0 
z
" id="DejaVuSans-46"/>
      <path d="M 8.015625 75.875 
L 15.828125 75.875 
Q 23.140625 64.359375 26.78125 53.3125 
Q 30.421875 42.28125 30.421875 31.390625 
Q 30.421875 20.453125 26.78125 9.375 
Q 23.140625 -1.703125 15.828125 -13.1875 
L 8.015625 -13.1875 
Q 14.5 -2 17.703125 9.0625 
Q 20.90625 20.125 20.90625 31.390625 
Q 20.90625 42.671875 17.703125 53.65625 
Q 14.5 64.65625 8.015625 75.875 
z
" id="DejaVuSans-41"/>
      <path d="M 45.40625 46.390625 
L 45.40625 75.984375 
L 54.390625 75.984375 
L 54.390625 0 
L 45.40625 0 
L 45.40625 8.203125 
Q 42.578125 3.328125 38.25 0.953125 
Q 33.9375 -1.421875 27.875 -1.421875 
Q 17.96875 -1.421875 11.734375 6.484375 
Q 5.515625 14.40625 5.515625 27.296875 
Q 5.515625 40.1875 11.734375 48.09375 
Q 17.96875 56 27.875 56 
Q 33.9375 56 38.25 53.625 
Q 42.578125 51.265625 45.40625 46.390625 
z
M 14.796875 27.296875 
Q 14.796875 17.390625 18.875 11.75 
Q 22.953125 6.109375 30.078125 6.109375 
Q 37.203125 6.109375 41.296875 11.75 
Q 45.40625 17.390625 45.40625 27.296875 
Q 45.40625 37.203125 41.296875 42.84375 
Q 37.203125 48.484375 30.078125 48.484375 
Q 22.953125 48.484375 18.875 42.84375 
Q 14.796875 37.203125 14.796875 27.296875 
z
" id="DejaVuSans-100"/>
      <path d="M 9.421875 54.6875 
L 18.40625 54.6875 
L 18.40625 0 
L 9.421875 0 
z
M 9.421875 75.984375 
L 18.40625 75.984375 
L 18.40625 64.59375 
L 9.421875 64.59375 
z
" id="DejaVuSans-105"/>
      <path d="M 44.28125 53.078125 
L 44.28125 44.578125 
Q 40.484375 46.53125 36.375 47.5 
Q 32.28125 48.484375 27.875 48.484375 
Q 21.1875 48.484375 17.84375 46.4375 
Q 14.5 44.390625 14.5 40.28125 
Q 14.5 37.15625 16.890625 35.375 
Q 19.28125 33.59375 26.515625 31.984375 
L 29.59375 31.296875 
Q 39.15625 29.25 43.1875 25.515625 
Q 47.21875 21.78125 47.21875 15.09375 
Q 47.21875 7.46875 41.1875 3.015625 
Q 35.15625 -1.421875 24.609375 -1.421875 
Q 20.21875 -1.421875 15.453125 -0.5625 
Q 10.6875 0.296875 5.421875 2 
L 5.421875 11.28125 
Q 10.40625 8.6875 15.234375 7.390625 
Q 20.0625 6.109375 24.8125 6.109375 
Q 31.15625 6.109375 34.5625 8.28125 
Q 37.984375 10.453125 37.984375 14.40625 
Q 37.984375 18.0625 35.515625 20.015625 
Q 33.0625 21.96875 24.703125 23.78125 
L 21.578125 24.515625 
Q 13.234375 26.265625 9.515625 29.90625 
Q 5.8125 33.546875 5.8125 39.890625 
Q 5.8125 47.609375 11.28125 51.796875 
Q 16.75 56 26.8125 56 
Q 31.78125 56 36.171875 55.265625 
Q 40.578125 54.546875 44.28125 53.078125 
z
" id="DejaVuSans-115"/>
     </defs>
     <g transform="translate(18.398438 227.18754)rotate(-90)scale(0.1 -0.1)">
      <use xlink:href="#DejaVuSans-67"/>
      <use x="69.824219" xlink:href="#DejaVuSans-66"/>
      <use x="138.427734" xlink:href="#DejaVuSans-32"/>
      <use x="170.214844" xlink:href="#DejaVuSans-112"/>
      <use x="233.691406" xlink:href="#DejaVuSans-99"/>
      <use x="288.671875" xlink:href="#DejaVuSans-114"/>
      <use x="329.785156" xlink:href="#DejaVuSans-32"/>
      <use x="361.572266" xlink:href="#DejaVuSans-40"/>
      <use x="400.585938" xlink:href="#DejaVuSans-112"/>
      <use x="464.0625" xlink:href="#DejaVuSans-111"/>
      <use x="525.244141" xlink:href="#DejaVuSans-114"/>
      <use x="566.357422" xlink:href="#DejaVuSans-32"/>
      <use x="598.144531" xlink:href="#DejaVuSans-49"/>
      <use x="661.767578" xlink:href="#DejaVuSans-48"/>
      <use x="725.390625" xlink:href="#DejaVuSans-48"/>
      <use x="789.013672" xlink:href="#DejaVuSans-48"/>
      <use x="852.636719" xlink:href="#DejaVuSans-48"/>
      <use x="916.259766" xlink:href="#DejaVuSans-48"/>
      <use x="979.882812" xlink:href="#DejaVuSans-32"/>
      <use x="1011.669922" xlink:href="#DejaVuSans-104"/>
      <use x="1075.048828" xlink:href="#DejaVuSans-97"/>
      <use x="1136.328125" xlink:href="#DejaVuSans-98"/>
      <use x="1199.804688" xlink:href="#DejaVuSans-46"/>
      <use x="1231.591797" xlink:href="#DejaVuSans-41"/>
      <use x="1270.605469" xlink:href="#DejaVuSans-32"/>
      <use x="1302.392578" xlink:href="#DejaVuSans-100"/>
      <use x="1365.869141" xlink:href="#DejaVuSans-105"/>
      <use x="1393.652344" xlink:href="#DejaVuSans-97"/>
      <use x="1454.931641" xlink:href="#DejaVuSans-114"/>
      <use x="1496.044922" xlink:href="#DejaVuSans-105"/>
      <use x="1523.828125" xlink:href="#DejaVuSans-111"/>
      <use x="1585.009766" xlink:href="#DejaVuSans-115"/>
     </g>
    </g>
   </g>
   <g id="line2d_13">
    <path clip-path="url(#p74c85e331c)" d="M 61.558951 279.86258 
L 65.897907 279.86258 
L 70.236864 279.86258 
L 74.57582 279.86258 
L 78.914776 279.86258 
L 83.253733 279.86258 
L 87.592689 279.86258 
L 91.931646 279.86258 
L 96.270602 278.290034 
L 100.609558 265.709668 
L 104.948515 279.86258 
L 109.287471 279.86258 
L 113.626428 279.86258 
L 117.965384 279.86258 
L 122.304341 279.86258 
L 126.643297 276.717488 
L 130.982253 279.86258 
L 135.32121 279.86258 
L 139.660166 279.86258 
L 143.999123 273.572397 
L 148.338079 259.419485 
L 152.677035 276.717488 
L 157.015992 248.411664 
L 161.354948 268.854759 
L 165.693905 279.86258 
L 170.032861 264.137122 
L 174.371818 256.274393 
L 178.710774 183.937288 
L 183.04973 168.211831 
L 187.388687 174.502014 
L 191.727643 177.647105 
L 196.0666 157.20401 
L 200.405556 146.19619 
L 204.744512 26.682712 
L 209.083469 61.278719 
L 213.422425 80.149268 
L 217.761382 144.623644 
L 222.100338 158.776556 
L 226.439295 168.211831 
L 230.778251 213.815658 
L 235.117207 193.372563 
L 239.456164 196.517654 
L 243.79512 180.792197 
L 248.134077 190.227471 
L 252.473033 213.815658 
L 256.81199 251.556756 
L 261.150946 168.211831 
L 265.489902 205.952929 
L 269.828859 216.960749 
L 274.167815 185.509834 
L 278.506772 227.96857 
L 282.845728 240.548936 
L 287.184684 249.98421 
L 291.523641 237.403844 
L 295.862597 245.266573 
L 300.201554 218.533295 
L 304.54051 113.172729 
L 308.879467 344.336956 
L 313.218423 242.121481 
L 317.557379 240.548936 
L 321.896336 257.846939 
L 326.235292 262.564576 
L 330.574249 229.541115 
L 334.913205 254.701847 
L 339.252161 260.992031 
L 343.591118 246.839119 
L 347.930074 262.564576 
L 352.269031 231.113661 
L 356.607987 237.403844 
L 360.946944 262.564576 
L 365.2859 253.129302 
L 369.624856 273.572397 
L 373.963813 278.290034 
L 378.302769 278.290034 
L 382.641726 270.427305 
L 386.980682 268.854759 
L 391.319638 260.992031 
L 395.658595 265.709668 
L 399.997551 275.144942 
L 404.336508 278.290034 
L 408.675464 278.290034 
" style="fill:none;stroke:#1f77b4;stroke-linecap:square;stroke-width:1.5;"/>
    <defs>
     <path d="M 0 1.5 
C 0.397805 1.5 0.77937 1.341951 1.06066 1.06066 
C 1.341951 0.77937 1.5 0.397805 1.5 0 
C 1.5 -0.397805 1.341951 -0.77937 1.06066 -1.06066 
C 0.77937 -1.341951 0.397805 -1.5 0 -1.5 
C -0.397805 -1.5 -0.77937 -1.341951 -1.06066 -1.06066 
C -1.341951 -0.77937 -1.5 -0.397805 -1.5 0 
C -1.5 0.397805 -1.341951 0.77937 -1.06066 1.06066 
C -0.77937 1.341951 -0.397805 1.5 0 1.5 
z
" id="ma5e895816f" style="stroke:#1f77b4;"/>
    </defs>
    <g clip-path="url(#p74c85e331c)">
     <use style="fill:#1f77b4;stroke:#1f77b4;" x="61.558951" xlink:href="#ma5e895816f" y="279.86258"/>
     <use style="fill:#1f77b4;stroke:#1f77b4;" x="65.897907" xlink:href="#ma5e895816f" y="279.86258"/>
     <use style="fill:#1f77b4;stroke:#1f77b4;" x="70.236864" xlink:href="#ma5e895816f" y="279.86258"/>
     <use style="fill:#1f77b4;stroke:#1f77b4;" x="74.57582" xlink:href="#ma5e895816f" y="279.86258"/>
     <use style="fill:#1f77b4;stroke:#1f77b4;" x="78.914776" xlink:href="#ma5e895816f" y="279.86258"/>
     <use style="fill:#1f77b4;stroke:#1f77b4;" x="83.253733" xlink:href="#ma5e895816f" y="279.86258"/>
     <use style="fill:#1f77b4;stroke:#1f77b4;" x="87.592689" xlink:href="#ma5e895816f" y="279.86258"/>
     <use style="fill:#1f77b4;stroke:#1f77b4;" x="91.931646" xlink:href="#ma5e895816f" y="279.86258"/>
     <use style="fill:#1f77b4;stroke:#1f77b4;" x="96.270602" xlink:href="#ma5e895816f" y="278.290034"/>
     <use style="fill:#1f77b4;stroke:#1f77b4;" x="100.609558" xlink:href="#ma5e895816f" y="265.709668"/>
     <use style="fill:#1f77b4;stroke:#1f77b4;" x="104.948515" xlink:href="#ma5e895816f" y="279.86258"/>
     <use style="fill:#1f77b4;stroke:#1f77b4;" x="109.287471" xlink:href="#ma5e895816f" y="279.86258"/>
     <use style="fill:#1f77b4;stroke:#1f77b4;" x="113.626428" xlink:href="#ma5e895816f" y="279.86258"/>
     <use style="fill:#1f77b4;stroke:#1f77b4;" x="117.965384" xlink:href="#ma5e895816f" y="279.86258"/>
     <use style="fill:#1f77b4;stroke:#1f77b4;" x="122.304341" xlink:href="#ma5e895816f" y="279.86258"/>
     <use style="fill:#1f77b4;stroke:#1f77b4;" x="126.643297" xlink:href="#ma5e895816f" y="276.717488"/>
     <use style="fill:#1f77b4;stroke:#1f77b4;" x="130.982253" xlink:href="#ma5e895816f" y="279.86258"/>
     <use style="fill:#1f77b4;stroke:#1f77b4;" x="135.32121" xlink:href="#ma5e895816f" y="279.86258"/>
     <use style="fill:#1f77b4;stroke:#1f77b4;" x="139.660166" xlink:href="#ma5e895816f" y="279.86258"/>
     <use style="fill:#1f77b4;stroke:#1f77b4;" x="143.999123" xlink:href="#ma5e895816f" y="273.572397"/>
     <use style="fill:#1f77b4;stroke:#1f77b4;" x="148.338079" xlink:href="#ma5e895816f" y="259.419485"/>
     <use style="fill:#1f77b4;stroke:#1f77b4;" x="152.677035" xlink:href="#ma5e895816f" y="276.717488"/>
     <use style="fill:#1f77b4;stroke:#1f77b4;" x="157.015992" xlink:href="#ma5e895816f" y="248.411664"/>
     <use style="fill:#1f77b4;stroke:#1f77b4;" x="161.354948" xlink:href="#ma5e895816f" y="268.854759"/>
     <use style="fill:#1f77b4;stroke:#1f77b4;" x="165.693905" xlink:href="#ma5e895816f" y="279.86258"/>
     <use style="fill:#1f77b4;stroke:#1f77b4;" x="170.032861" xlink:href="#ma5e895816f" y="264.137122"/>
     <use style="fill:#1f77b4;stroke:#1f77b4;" x="174.371818" xlink:href="#ma5e895816f" y="256.274393"/>
     <use style="fill:#1f77b4;stroke:#1f77b4;" x="178.710774" xlink:href="#ma5e895816f" y="183.937288"/>
     <use style="fill:#1f77b4;stroke:#1f77b4;" x="183.04973" xlink:href="#ma5e895816f" y="168.211831"/>
     <use style="fill:#1f77b4;stroke:#1f77b4;" x="187.388687" xlink:href="#ma5e895816f" y="174.502014"/>
     <use style="fill:#1f77b4;stroke:#1f77b4;" x="191.727643" xlink:href="#ma5e895816f" y="177.647105"/>
     <use style="fill:#1f77b4;stroke:#1f77b4;" x="196.0666" xlink:href="#ma5e895816f" y="157.20401"/>
     <use style="fill:#1f77b4;stroke:#1f77b4;" x="200.405556" xlink:href="#ma5e895816f" y="146.19619"/>
     <use style="fill:#1f77b4;stroke:#1f77b4;" x="204.744512" xlink:href="#ma5e895816f" y="26.682712"/>
     <use style="fill:#1f77b4;stroke:#1f77b4;" x="209.083469" xlink:href="#ma5e895816f" y="61.278719"/>
     <use style="fill:#1f77b4;stroke:#1f77b4;" x="213.422425" xlink:href="#ma5e895816f" y="80.149268"/>
     <use style="fill:#1f77b4;stroke:#1f77b4;" x="217.761382" xlink:href="#ma5e895816f" y="144.623644"/>
     <use style="fill:#1f77b4;stroke:#1f77b4;" x="222.100338" xlink:href="#ma5e895816f" y="158.776556"/>
     <use style="fill:#1f77b4;stroke:#1f77b4;" x="226.439295" xlink:href="#ma5e895816f" y="168.211831"/>
     <use style="fill:#1f77b4;stroke:#1f77b4;" x="230.778251" xlink:href="#ma5e895816f" y="213.815658"/>
     <use style="fill:#1f77b4;stroke:#1f77b4;" x="235.117207" xlink:href="#ma5e895816f" y="193.372563"/>
     <use style="fill:#1f77b4;stroke:#1f77b4;" x="239.456164" xlink:href="#ma5e895816f" y="196.517654"/>
     <use style="fill:#1f77b4;stroke:#1f77b4;" x="243.79512" xlink:href="#ma5e895816f" y="180.792197"/>
     <use style="fill:#1f77b4;stroke:#1f77b4;" x="248.134077" xlink:href="#ma5e895816f" y="190.227471"/>
     <use style="fill:#1f77b4;stroke:#1f77b4;" x="252.473033" xlink:href="#ma5e895816f" y="213.815658"/>
     <use style="fill:#1f77b4;stroke:#1f77b4;" x="256.81199" xlink:href="#ma5e895816f" y="251.556756"/>
     <use style="fill:#1f77b4;stroke:#1f77b4;" x="261.150946" xlink:href="#ma5e895816f" y="168.211831"/>
     <use style="fill:#1f77b4;stroke:#1f77b4;" x="265.489902" xlink:href="#ma5e895816f" y="205.952929"/>
     <use style="fill:#1f77b4;stroke:#1f77b4;" x="269.828859" xlink:href="#ma5e895816f" y="216.960749"/>
     <use style="fill:#1f77b4;stroke:#1f77b4;" x="274.167815" xlink:href="#ma5e895816f" y="185.509834"/>
     <use style="fill:#1f77b4;stroke:#1f77b4;" x="278.506772" xlink:href="#ma5e895816f" y="227.96857"/>
     <use style="fill:#1f77b4;stroke:#1f77b4;" x="282.845728" xlink:href="#ma5e895816f" y="240.548936"/>
     <use style="fill:#1f77b4;stroke:#1f77b4;" x="287.184684" xlink:href="#ma5e895816f" y="249.98421"/>
     <use style="fill:#1f77b4;stroke:#1f77b4;" x="291.523641" xlink:href="#ma5e895816f" y="237.403844"/>
     <use style="fill:#1f77b4;stroke:#1f77b4;" x="295.862597" xlink:href="#ma5e895816f" y="245.266573"/>
     <use style="fill:#1f77b4;stroke:#1f77b4;" x="300.201554" xlink:href="#ma5e895816f" y="218.533295"/>
     <use style="fill:#1f77b4;stroke:#1f77b4;" x="304.54051" xlink:href="#ma5e895816f" y="113.172729"/>
     <use style="fill:#1f77b4;stroke:#1f77b4;" x="308.879467" xlink:href="#ma5e895816f" y="344.336956"/>
     <use style="fill:#1f77b4;stroke:#1f77b4;" x="313.218423" xlink:href="#ma5e895816f" y="242.121481"/>
     <use style="fill:#1f77b4;stroke:#1f77b4;" x="317.557379" xlink:href="#ma5e895816f" y="240.548936"/>
     <use style="fill:#1f77b4;stroke:#1f77b4;" x="321.896336" xlink:href="#ma5e895816f" y="257.846939"/>
     <use style="fill:#1f77b4;stroke:#1f77b4;" x="326.235292" xlink:href="#ma5e895816f" y="262.564576"/>
     <use style="fill:#1f77b4;stroke:#1f77b4;" x="330.574249" xlink:href="#ma5e895816f" y="229.541115"/>
     <use style="fill:#1f77b4;stroke:#1f77b4;" x="334.913205" xlink:href="#ma5e895816f" y="254.701847"/>
     <use style="fill:#1f77b4;stroke:#1f77b4;" x="339.252161" xlink:href="#ma5e895816f" y="260.992031"/>
     <use style="fill:#1f77b4;stroke:#1f77b4;" x="343.591118" xlink:href="#ma5e895816f" y="246.839119"/>
     <use style="fill:#1f77b4;stroke:#1f77b4;" x="347.930074" xlink:href="#ma5e895816f" y="262.564576"/>
     <use style="fill:#1f77b4;stroke:#1f77b4;" x="352.269031" xlink:href="#ma5e895816f" y="231.113661"/>
     <use style="fill:#1f77b4;stroke:#1f77b4;" x="356.607987" xlink:href="#ma5e895816f" y="237.403844"/>
     <use style="fill:#1f77b4;stroke:#1f77b4;" x="360.946944" xlink:href="#ma5e895816f" y="262.564576"/>
     <use style="fill:#1f77b4;stroke:#1f77b4;" x="365.2859" xlink:href="#ma5e895816f" y="253.129302"/>
     <use style="fill:#1f77b4;stroke:#1f77b4;" x="369.624856" xlink:href="#ma5e895816f" y="273.572397"/>
     <use style="fill:#1f77b4;stroke:#1f77b4;" x="373.963813" xlink:href="#ma5e895816f" y="278.290034"/>
     <use style="fill:#1f77b4;stroke:#1f77b4;" x="378.302769" xlink:href="#ma5e895816f" y="278.290034"/>
     <use style="fill:#1f77b4;stroke:#1f77b4;" x="382.641726" xlink:href="#ma5e895816f" y="270.427305"/>
     <use style="fill:#1f77b4;stroke:#1f77b4;" x="386.980682" xlink:href="#ma5e895816f" y="268.854759"/>
     <use style="fill:#1f77b4;stroke:#1f77b4;" x="391.319638" xlink:href="#ma5e895816f" y="260.992031"/>
     <use style="fill:#1f77b4;stroke:#1f77b4;" x="395.658595" xlink:href="#ma5e895816f" y="265.709668"/>
     <use style="fill:#1f77b4;stroke:#1f77b4;" x="399.997551" xlink:href="#ma5e895816f" y="275.144942"/>
     <use style="fill:#1f77b4;stroke:#1f77b4;" x="404.336508" xlink:href="#ma5e895816f" y="278.290034"/>
     <use style="fill:#1f77b4;stroke:#1f77b4;" x="408.675464" xlink:href="#ma5e895816f" y="278.290034"/>
    </g>
   </g>
   <g id="patch_3">
    <path d="M 44.203125 279.86258 
L 44.203125 10.8 
" style="fill:none;stroke:#000000;stroke-linecap:square;stroke-linejoin:miter;stroke-width:0.8;"/>
   </g>
   <g id="patch_4">
    <path d="M 426.03129 279.86258 
L 426.03129 10.8 
" style="fill:none;stroke:#000000;stroke-linecap:square;stroke-linejoin:miter;stroke-width:0.8;"/>
   </g>
   <g id="patch_5">
    <path d="M 44.203125 279.86258 
L 426.03129 279.86258 
" style="fill:none;stroke:#000000;stroke-linecap:square;stroke-linejoin:miter;stroke-width:0.8;"/>
   </g>
   <g id="patch_6">
    <path d="M 44.203125 10.8 
L 426.03129 10.8 
" style="fill:none;stroke:#000000;stroke-linecap:square;stroke-linejoin:miter;stroke-width:0.8;"/>
   </g>
  </g>
 </g>
 <defs>
  <clipPath id="p74c85e331c">
   <rect height="269.06258" width="381.828165" x="44.203125" y="10.8"/>
  </clipPath>
 </defs>
</svg>
