<?xml version="1.0" encoding="utf-8" standalone="no"?>
<!DOCTYPE svg PUBLIC "-//W3C//DTD SVG 1.1//EN"
  "http://www.w3.org/Graphics/SVG/1.1/DTD/svg11.dtd">
<!-- Created with matplotlib (https://matplotlib.org/) -->
<svg height="345.6pt" version="1.1" viewBox="0 0 460.8 345.6" width="460.8pt" xmlns="http://www.w3.org/2000/svg" xmlns:xlink="http://www.w3.org/1999/xlink">
 <defs>
  <style type="text/css">
*{stroke-linecap:butt;stroke-linejoin:round;}
  </style>
 </defs>
 <g id="figure_1">
  <g id="patch_1">
   <path d="M 0 345.6 
L 460.8 345.6 
L 460.8 0 
L 0 0 
z
" style="fill:#ffffff;"/>
  </g>
  <g id="axes_1">
   <g id="patch_2">
    <path d="M 44.203125 279.86258 
L 434.345614 279.86258 
L 434.345614 10.8 
L 44.203125 10.8 
z
" style="fill:#ffffff;"/>
   </g>
   <g id="matplotlib.axis_1">
    <g id="xtick_1">
     <g id="line2d_1">
      <defs>
       <path d="M 0 0 
L 0 3.5 
" id="m98f63a92a5" style="stroke:#000000;stroke-width:0.8;"/>
      </defs>
      <g>
       <use style="stroke:#000000;stroke-width:0.8;" x="100.864617" xlink:href="#m98f63a92a5" y="279.86258"/>
      </g>
     </g>
     <g id="text_1">
      <!-- 2020-03-01 -->
      <defs>
       <path d="M 19.1875 8.296875 
L 53.609375 8.296875 
L 53.609375 0 
L 7.328125 0 
L 7.328125 8.296875 
Q 12.9375 14.109375 22.625 23.890625 
Q 32.328125 33.6875 34.8125 36.53125 
Q 39.546875 41.84375 41.421875 45.53125 
Q 43.3125 49.21875 43.3125 52.78125 
Q 43.3125 58.59375 39.234375 62.25 
Q 35.15625 65.921875 28.609375 65.921875 
Q 23.96875 65.921875 18.8125 64.3125 
Q 13.671875 62.703125 7.8125 59.421875 
L 7.8125 69.390625 
Q 13.765625 71.78125 18.9375 73 
Q 24.125 74.21875 28.421875 74.21875 
Q 39.75 74.21875 46.484375 68.546875 
Q 53.21875 62.890625 53.21875 53.421875 
Q 53.21875 48.921875 51.53125 44.890625 
Q 49.859375 40.875 45.40625 35.40625 
Q 44.1875 33.984375 37.640625 27.21875 
Q 31.109375 20.453125 19.1875 8.296875 
z
" id="DejaVuSans-50"/>
       <path d="M 31.78125 66.40625 
Q 24.171875 66.40625 20.328125 58.90625 
Q 16.5 51.421875 16.5 36.375 
Q 16.5 21.390625 20.328125 13.890625 
Q 24.171875 6.390625 31.78125 6.390625 
Q 39.453125 6.390625 43.28125 13.890625 
Q 47.125 21.390625 47.125 36.375 
Q 47.125 51.421875 43.28125 58.90625 
Q 39.453125 66.40625 31.78125 66.40625 
z
M 31.78125 74.21875 
Q 44.046875 74.21875 50.515625 64.515625 
Q 56.984375 54.828125 56.984375 36.375 
Q 56.984375 17.96875 50.515625 8.265625 
Q 44.046875 -1.421875 31.78125 -1.421875 
Q 19.53125 -1.421875 13.0625 8.265625 
Q 6.59375 17.96875 6.59375 36.375 
Q 6.59375 54.828125 13.0625 64.515625 
Q 19.53125 74.21875 31.78125 74.21875 
z
" id="DejaVuSans-48"/>
       <path d="M 4.890625 31.390625 
L 31.203125 31.390625 
L 31.203125 23.390625 
L 4.890625 23.390625 
z
" id="DejaVuSans-45"/>
       <path d="M 40.578125 39.3125 
Q 47.65625 37.796875 51.625 33 
Q 55.609375 28.21875 55.609375 21.1875 
Q 55.609375 10.40625 48.1875 4.484375 
Q 40.765625 -1.421875 27.09375 -1.421875 
Q 22.515625 -1.421875 17.65625 -0.515625 
Q 12.796875 0.390625 7.625 2.203125 
L 7.625 11.71875 
Q 11.71875 9.328125 16.59375 8.109375 
Q 21.484375 6.890625 26.8125 6.890625 
Q 36.078125 6.890625 40.9375 10.546875 
Q 45.796875 14.203125 45.796875 21.1875 
Q 45.796875 27.640625 41.28125 31.265625 
Q 36.765625 34.90625 28.71875 34.90625 
L 20.21875 34.90625 
L 20.21875 43.015625 
L 29.109375 43.015625 
Q 36.375 43.015625 40.234375 45.921875 
Q 44.09375 48.828125 44.09375 54.296875 
Q 44.09375 59.90625 40.109375 62.90625 
Q 36.140625 65.921875 28.71875 65.921875 
Q 24.65625 65.921875 20.015625 65.03125 
Q 15.375 64.15625 9.8125 62.3125 
L 9.8125 71.09375 
Q 15.4375 72.65625 20.34375 73.4375 
Q 25.25 74.21875 29.59375 74.21875 
Q 40.828125 74.21875 47.359375 69.109375 
Q 53.90625 64.015625 53.90625 55.328125 
Q 53.90625 49.265625 50.4375 45.09375 
Q 46.96875 40.921875 40.578125 39.3125 
z
" id="DejaVuSans-51"/>
       <path d="M 12.40625 8.296875 
L 28.515625 8.296875 
L 28.515625 63.921875 
L 10.984375 60.40625 
L 10.984375 69.390625 
L 28.421875 72.90625 
L 38.28125 72.90625 
L 38.28125 8.296875 
L 54.390625 8.296875 
L 54.390625 0 
L 12.40625 0 
z
" id="DejaVuSans-49"/>
      </defs>
      <g transform="translate(82.268814 333.329439)rotate(-45)scale(0.1 -0.1)">
       <use xlink:href="#DejaVuSans-50"/>
       <use x="63.623047" xlink:href="#DejaVuSans-48"/>
       <use x="127.246094" xlink:href="#DejaVuSans-50"/>
       <use x="190.869141" xlink:href="#DejaVuSans-48"/>
       <use x="254.492188" xlink:href="#DejaVuSans-45"/>
       <use x="290.576172" xlink:href="#DejaVuSans-48"/>
       <use x="354.199219" xlink:href="#DejaVuSans-51"/>
       <use x="417.822266" xlink:href="#DejaVuSans-45"/>
       <use x="453.90625" xlink:href="#DejaVuSans-48"/>
       <use x="517.529297" xlink:href="#DejaVuSans-49"/>
      </g>
     </g>
    </g>
    <g id="xtick_2">
     <g id="line2d_2">
      <g>
       <use style="stroke:#000000;stroke-width:0.8;" x="161.418884" xlink:href="#m98f63a92a5" y="279.86258"/>
      </g>
     </g>
     <g id="text_2">
      <!-- 2020-03-15 -->
      <defs>
       <path d="M 10.796875 72.90625 
L 49.515625 72.90625 
L 49.515625 64.59375 
L 19.828125 64.59375 
L 19.828125 46.734375 
Q 21.96875 47.46875 24.109375 47.828125 
Q 26.265625 48.1875 28.421875 48.1875 
Q 40.625 48.1875 47.75 41.5 
Q 54.890625 34.8125 54.890625 23.390625 
Q 54.890625 11.625 47.5625 5.09375 
Q 40.234375 -1.421875 26.90625 -1.421875 
Q 22.3125 -1.421875 17.546875 -0.640625 
Q 12.796875 0.140625 7.71875 1.703125 
L 7.71875 11.625 
Q 12.109375 9.234375 16.796875 8.0625 
Q 21.484375 6.890625 26.703125 6.890625 
Q 35.15625 6.890625 40.078125 11.328125 
Q 45.015625 15.765625 45.015625 23.390625 
Q 45.015625 31 40.078125 35.4375 
Q 35.15625 39.890625 26.703125 39.890625 
Q 22.75 39.890625 18.8125 39.015625 
Q 14.890625 38.140625 10.796875 36.28125 
z
" id="DejaVuSans-53"/>
      </defs>
      <g transform="translate(142.82308 333.329439)rotate(-45)scale(0.1 -0.1)">
       <use xlink:href="#DejaVuSans-50"/>
       <use x="63.623047" xlink:href="#DejaVuSans-48"/>
       <use x="127.246094" xlink:href="#DejaVuSans-50"/>
       <use x="190.869141" xlink:href="#DejaVuSans-48"/>
       <use x="254.492188" xlink:href="#DejaVuSans-45"/>
       <use x="290.576172" xlink:href="#DejaVuSans-48"/>
       <use x="354.199219" xlink:href="#DejaVuSans-51"/>
       <use x="417.822266" xlink:href="#DejaVuSans-45"/>
       <use x="453.90625" xlink:href="#DejaVuSans-49"/>
       <use x="517.529297" xlink:href="#DejaVuSans-53"/>
      </g>
     </g>
    </g>
    <g id="xtick_3">
     <g id="line2d_3">
      <g>
       <use style="stroke:#000000;stroke-width:0.8;" x="234.949065" xlink:href="#m98f63a92a5" y="279.86258"/>
      </g>
     </g>
     <g id="text_3">
      <!-- 2020-04-01 -->
      <defs>
       <path d="M 37.796875 64.3125 
L 12.890625 25.390625 
L 37.796875 25.390625 
z
M 35.203125 72.90625 
L 47.609375 72.90625 
L 47.609375 25.390625 
L 58.015625 25.390625 
L 58.015625 17.1875 
L 47.609375 17.1875 
L 47.609375 0 
L 37.796875 0 
L 37.796875 17.1875 
L 4.890625 17.1875 
L 4.890625 26.703125 
z
" id="DejaVuSans-52"/>
      </defs>
      <g transform="translate(216.353261 333.329439)rotate(-45)scale(0.1 -0.1)">
       <use xlink:href="#DejaVuSans-50"/>
       <use x="63.623047" xlink:href="#DejaVuSans-48"/>
       <use x="127.246094" xlink:href="#DejaVuSans-50"/>
       <use x="190.869141" xlink:href="#DejaVuSans-48"/>
       <use x="254.492188" xlink:href="#DejaVuSans-45"/>
       <use x="290.576172" xlink:href="#DejaVuSans-48"/>
       <use x="354.199219" xlink:href="#DejaVuSans-52"/>
       <use x="417.822266" xlink:href="#DejaVuSans-45"/>
       <use x="453.90625" xlink:href="#DejaVuSans-48"/>
       <use x="517.529297" xlink:href="#DejaVuSans-49"/>
      </g>
     </g>
    </g>
    <g id="xtick_4">
     <g id="line2d_4">
      <g>
       <use style="stroke:#000000;stroke-width:0.8;" x="295.503331" xlink:href="#m98f63a92a5" y="279.86258"/>
      </g>
     </g>
     <g id="text_4">
      <!-- 2020-04-15 -->
      <g transform="translate(276.907528 333.329439)rotate(-45)scale(0.1 -0.1)">
       <use xlink:href="#DejaVuSans-50"/>
       <use x="63.623047" xlink:href="#DejaVuSans-48"/>
       <use x="127.246094" xlink:href="#DejaVuSans-50"/>
       <use x="190.869141" xlink:href="#DejaVuSans-48"/>
       <use x="254.492188" xlink:href="#DejaVuSans-45"/>
       <use x="290.576172" xlink:href="#DejaVuSans-48"/>
       <use x="354.199219" xlink:href="#DejaVuSans-52"/>
       <use x="417.822266" xlink:href="#DejaVuSans-45"/>
       <use x="453.90625" xlink:href="#DejaVuSans-49"/>
       <use x="517.529297" xlink:href="#DejaVuSans-53"/>
      </g>
     </g>
    </g>
    <g id="xtick_5">
     <g id="line2d_5">
      <g>
       <use style="stroke:#000000;stroke-width:0.8;" x="364.708207" xlink:href="#m98f63a92a5" y="279.86258"/>
      </g>
     </g>
     <g id="text_5">
      <!-- 2020-05-01 -->
      <g transform="translate(346.112404 333.329439)rotate(-45)scale(0.1 -0.1)">
       <use xlink:href="#DejaVuSans-50"/>
       <use x="63.623047" xlink:href="#DejaVuSans-48"/>
       <use x="127.246094" xlink:href="#DejaVuSans-50"/>
       <use x="190.869141" xlink:href="#DejaVuSans-48"/>
       <use x="254.492188" xlink:href="#DejaVuSans-45"/>
       <use x="290.576172" xlink:href="#DejaVuSans-48"/>
       <use x="354.199219" xlink:href="#DejaVuSans-53"/>
       <use x="417.822266" xlink:href="#DejaVuSans-45"/>
       <use x="453.90625" xlink:href="#DejaVuSans-48"/>
       <use x="517.529297" xlink:href="#DejaVuSans-49"/>
      </g>
     </g>
    </g>
    <g id="xtick_6">
     <g id="line2d_6">
      <g>
       <use style="stroke:#000000;stroke-width:0.8;" x="425.262474" xlink:href="#m98f63a92a5" y="279.86258"/>
      </g>
     </g>
     <g id="text_6">
      <!-- 2020-05-15 -->
      <g transform="translate(406.66667 333.329439)rotate(-45)scale(0.1 -0.1)">
       <use xlink:href="#DejaVuSans-50"/>
       <use x="63.623047" xlink:href="#DejaVuSans-48"/>
       <use x="127.246094" xlink:href="#DejaVuSans-50"/>
       <use x="190.869141" xlink:href="#DejaVuSans-48"/>
       <use x="254.492188" xlink:href="#DejaVuSans-45"/>
       <use x="290.576172" xlink:href="#DejaVuSans-48"/>
       <use x="354.199219" xlink:href="#DejaVuSans-53"/>
       <use x="417.822266" xlink:href="#DejaVuSans-45"/>
       <use x="453.90625" xlink:href="#DejaVuSans-49"/>
       <use x="517.529297" xlink:href="#DejaVuSans-53"/>
      </g>
     </g>
    </g>
   </g>
   <g id="matplotlib.axis_2">
    <g id="ytick_1">
     <g id="line2d_7">
      <defs>
       <path d="M 0 0 
L -3.5 0 
" id="m318d76d6b0" style="stroke:#000000;stroke-width:0.8;"/>
      </defs>
      <g>
       <use style="stroke:#000000;stroke-width:0.8;" x="44.203125" xlink:href="#m318d76d6b0" y="279.86258"/>
      </g>
     </g>
     <g id="text_7">
      <!-- 0 -->
      <g transform="translate(30.840625 283.661798)scale(0.1 -0.1)">
       <use xlink:href="#DejaVuSans-48"/>
      </g>
     </g>
    </g>
    <g id="ytick_2">
     <g id="line2d_8">
      <g>
       <use style="stroke:#000000;stroke-width:0.8;" x="44.203125" xlink:href="#m318d76d6b0" y="236.737961"/>
      </g>
     </g>
     <g id="text_8">
      <!-- 5 -->
      <g transform="translate(30.840625 240.53718)scale(0.1 -0.1)">
       <use xlink:href="#DejaVuSans-53"/>
      </g>
     </g>
    </g>
    <g id="ytick_3">
     <g id="line2d_9">
      <g>
       <use style="stroke:#000000;stroke-width:0.8;" x="44.203125" xlink:href="#m318d76d6b0" y="193.613342"/>
      </g>
     </g>
     <g id="text_9">
      <!-- 10 -->
      <g transform="translate(24.478125 197.412561)scale(0.1 -0.1)">
       <use xlink:href="#DejaVuSans-49"/>
       <use x="63.623047" xlink:href="#DejaVuSans-48"/>
      </g>
     </g>
    </g>
    <g id="ytick_4">
     <g id="line2d_10">
      <g>
       <use style="stroke:#000000;stroke-width:0.8;" x="44.203125" xlink:href="#m318d76d6b0" y="150.488723"/>
      </g>
     </g>
     <g id="text_10">
      <!-- 15 -->
      <g transform="translate(24.478125 154.287942)scale(0.1 -0.1)">
       <use xlink:href="#DejaVuSans-49"/>
       <use x="63.623047" xlink:href="#DejaVuSans-53"/>
      </g>
     </g>
    </g>
    <g id="ytick_5">
     <g id="line2d_11">
      <g>
       <use style="stroke:#000000;stroke-width:0.8;" x="44.203125" xlink:href="#m318d76d6b0" y="107.364105"/>
      </g>
     </g>
     <g id="text_11">
      <!-- 20 -->
      <g transform="translate(24.478125 111.163323)scale(0.1 -0.1)">
       <use xlink:href="#DejaVuSans-50"/>
       <use x="63.623047" xlink:href="#DejaVuSans-48"/>
      </g>
     </g>
    </g>
    <g id="ytick_6">
     <g id="line2d_12">
      <g>
       <use style="stroke:#000000;stroke-width:0.8;" x="44.203125" xlink:href="#m318d76d6b0" y="64.239486"/>
      </g>
     </g>
     <g id="text_12">
      <!-- 25 -->
      <g transform="translate(24.478125 68.038705)scale(0.1 -0.1)">
       <use xlink:href="#DejaVuSans-50"/>
       <use x="63.623047" xlink:href="#DejaVuSans-53"/>
      </g>
     </g>
    </g>
    <g id="ytick_7">
     <g id="line2d_13">
      <g>
       <use style="stroke:#000000;stroke-width:0.8;" x="44.203125" xlink:href="#m318d76d6b0" y="21.114867"/>
      </g>
     </g>
     <g id="text_13">
      <!-- 30 -->
      <g transform="translate(24.478125 24.914086)scale(0.1 -0.1)">
       <use xlink:href="#DejaVuSans-51"/>
       <use x="63.623047" xlink:href="#DejaVuSans-48"/>
      </g>
     </g>
    </g>
    <g id="text_14">
     <!-- CL pcr (por 100000 hab.) diarios -->
     <defs>
      <path d="M 64.40625 67.28125 
L 64.40625 56.890625 
Q 59.421875 61.53125 53.78125 63.8125 
Q 48.140625 66.109375 41.796875 66.109375 
Q 29.296875 66.109375 22.65625 58.46875 
Q 16.015625 50.828125 16.015625 36.375 
Q 16.015625 21.96875 22.65625 14.328125 
Q 29.296875 6.6875 41.796875 6.6875 
Q 48.140625 6.6875 53.78125 8.984375 
Q 59.421875 11.28125 64.40625 15.921875 
L 64.40625 5.609375 
Q 59.234375 2.09375 53.4375 0.328125 
Q 47.65625 -1.421875 41.21875 -1.421875 
Q 24.65625 -1.421875 15.125 8.703125 
Q 5.609375 18.84375 5.609375 36.375 
Q 5.609375 53.953125 15.125 64.078125 
Q 24.65625 74.21875 41.21875 74.21875 
Q 47.75 74.21875 53.53125 72.484375 
Q 59.328125 70.75 64.40625 67.28125 
z
" id="DejaVuSans-67"/>
      <path d="M 9.8125 72.90625 
L 19.671875 72.90625 
L 19.671875 8.296875 
L 55.171875 8.296875 
L 55.171875 0 
L 9.8125 0 
z
" id="DejaVuSans-76"/>
      <path id="DejaVuSans-32"/>
      <path d="M 18.109375 8.203125 
L 18.109375 -20.796875 
L 9.078125 -20.796875 
L 9.078125 54.6875 
L 18.109375 54.6875 
L 18.109375 46.390625 
Q 20.953125 51.265625 25.265625 53.625 
Q 29.59375 56 35.59375 56 
Q 45.5625 56 51.78125 48.09375 
Q 58.015625 40.1875 58.015625 27.296875 
Q 58.015625 14.40625 51.78125 6.484375 
Q 45.5625 -1.421875 35.59375 -1.421875 
Q 29.59375 -1.421875 25.265625 0.953125 
Q 20.953125 3.328125 18.109375 8.203125 
z
M 48.6875 27.296875 
Q 48.6875 37.203125 44.609375 42.84375 
Q 40.53125 48.484375 33.40625 48.484375 
Q 26.265625 48.484375 22.1875 42.84375 
Q 18.109375 37.203125 18.109375 27.296875 
Q 18.109375 17.390625 22.1875 11.75 
Q 26.265625 6.109375 33.40625 6.109375 
Q 40.53125 6.109375 44.609375 11.75 
Q 48.6875 17.390625 48.6875 27.296875 
z
" id="DejaVuSans-112"/>
      <path d="M 48.78125 52.59375 
L 48.78125 44.1875 
Q 44.96875 46.296875 41.140625 47.34375 
Q 37.3125 48.390625 33.40625 48.390625 
Q 24.65625 48.390625 19.8125 42.84375 
Q 14.984375 37.3125 14.984375 27.296875 
Q 14.984375 17.28125 19.8125 11.734375 
Q 24.65625 6.203125 33.40625 6.203125 
Q 37.3125 6.203125 41.140625 7.25 
Q 44.96875 8.296875 48.78125 10.40625 
L 48.78125 2.09375 
Q 45.015625 0.34375 40.984375 -0.53125 
Q 36.96875 -1.421875 32.421875 -1.421875 
Q 20.0625 -1.421875 12.78125 6.34375 
Q 5.515625 14.109375 5.515625 27.296875 
Q 5.515625 40.671875 12.859375 48.328125 
Q 20.21875 56 33.015625 56 
Q 37.15625 56 41.109375 55.140625 
Q 45.0625 54.296875 48.78125 52.59375 
z
" id="DejaVuSans-99"/>
      <path d="M 41.109375 46.296875 
Q 39.59375 47.171875 37.8125 47.578125 
Q 36.03125 48 33.890625 48 
Q 26.265625 48 22.1875 43.046875 
Q 18.109375 38.09375 18.109375 28.8125 
L 18.109375 0 
L 9.078125 0 
L 9.078125 54.6875 
L 18.109375 54.6875 
L 18.109375 46.1875 
Q 20.953125 51.171875 25.484375 53.578125 
Q 30.03125 56 36.53125 56 
Q 37.453125 56 38.578125 55.875 
Q 39.703125 55.765625 41.0625 55.515625 
z
" id="DejaVuSans-114"/>
      <path d="M 31 75.875 
Q 24.46875 64.65625 21.28125 53.65625 
Q 18.109375 42.671875 18.109375 31.390625 
Q 18.109375 20.125 21.3125 9.0625 
Q 24.515625 -2 31 -13.1875 
L 23.1875 -13.1875 
Q 15.875 -1.703125 12.234375 9.375 
Q 8.59375 20.453125 8.59375 31.390625 
Q 8.59375 42.28125 12.203125 53.3125 
Q 15.828125 64.359375 23.1875 75.875 
z
" id="DejaVuSans-40"/>
      <path d="M 30.609375 48.390625 
Q 23.390625 48.390625 19.1875 42.75 
Q 14.984375 37.109375 14.984375 27.296875 
Q 14.984375 17.484375 19.15625 11.84375 
Q 23.34375 6.203125 30.609375 6.203125 
Q 37.796875 6.203125 41.984375 11.859375 
Q 46.1875 17.53125 46.1875 27.296875 
Q 46.1875 37.015625 41.984375 42.703125 
Q 37.796875 48.390625 30.609375 48.390625 
z
M 30.609375 56 
Q 42.328125 56 49.015625 48.375 
Q 55.71875 40.765625 55.71875 27.296875 
Q 55.71875 13.875 49.015625 6.21875 
Q 42.328125 -1.421875 30.609375 -1.421875 
Q 18.84375 -1.421875 12.171875 6.21875 
Q 5.515625 13.875 5.515625 27.296875 
Q 5.515625 40.765625 12.171875 48.375 
Q 18.84375 56 30.609375 56 
z
" id="DejaVuSans-111"/>
      <path d="M 54.890625 33.015625 
L 54.890625 0 
L 45.90625 0 
L 45.90625 32.71875 
Q 45.90625 40.484375 42.875 44.328125 
Q 39.84375 48.1875 33.796875 48.1875 
Q 26.515625 48.1875 22.3125 43.546875 
Q 18.109375 38.921875 18.109375 30.90625 
L 18.109375 0 
L 9.078125 0 
L 9.078125 75.984375 
L 18.109375 75.984375 
L 18.109375 46.1875 
Q 21.34375 51.125 25.703125 53.5625 
Q 30.078125 56 35.796875 56 
Q 45.21875 56 50.046875 50.171875 
Q 54.890625 44.34375 54.890625 33.015625 
z
" id="DejaVuSans-104"/>
      <path d="M 34.28125 27.484375 
Q 23.390625 27.484375 19.1875 25 
Q 14.984375 22.515625 14.984375 16.5 
Q 14.984375 11.71875 18.140625 8.90625 
Q 21.296875 6.109375 26.703125 6.109375 
Q 34.1875 6.109375 38.703125 11.40625 
Q 43.21875 16.703125 43.21875 25.484375 
L 43.21875 27.484375 
z
M 52.203125 31.203125 
L 52.203125 0 
L 43.21875 0 
L 43.21875 8.296875 
Q 40.140625 3.328125 35.546875 0.953125 
Q 30.953125 -1.421875 24.3125 -1.421875 
Q 15.921875 -1.421875 10.953125 3.296875 
Q 6 8.015625 6 15.921875 
Q 6 25.140625 12.171875 29.828125 
Q 18.359375 34.515625 30.609375 34.515625 
L 43.21875 34.515625 
L 43.21875 35.40625 
Q 43.21875 41.609375 39.140625 45 
Q 35.0625 48.390625 27.6875 48.390625 
Q 23 48.390625 18.546875 47.265625 
Q 14.109375 46.140625 10.015625 43.890625 
L 10.015625 52.203125 
Q 14.9375 54.109375 19.578125 55.046875 
Q 24.21875 56 28.609375 56 
Q 40.484375 56 46.34375 49.84375 
Q 52.203125 43.703125 52.203125 31.203125 
z
" id="DejaVuSans-97"/>
      <path d="M 48.6875 27.296875 
Q 48.6875 37.203125 44.609375 42.84375 
Q 40.53125 48.484375 33.40625 48.484375 
Q 26.265625 48.484375 22.1875 42.84375 
Q 18.109375 37.203125 18.109375 27.296875 
Q 18.109375 17.390625 22.1875 11.75 
Q 26.265625 6.109375 33.40625 6.109375 
Q 40.53125 6.109375 44.609375 11.75 
Q 48.6875 17.390625 48.6875 27.296875 
z
M 18.109375 46.390625 
Q 20.953125 51.265625 25.265625 53.625 
Q 29.59375 56 35.59375 56 
Q 45.5625 56 51.78125 48.09375 
Q 58.015625 40.1875 58.015625 27.296875 
Q 58.015625 14.40625 51.78125 6.484375 
Q 45.5625 -1.421875 35.59375 -1.421875 
Q 29.59375 -1.421875 25.265625 0.953125 
Q 20.953125 3.328125 18.109375 8.203125 
L 18.109375 0 
L 9.078125 0 
L 9.078125 75.984375 
L 18.109375 75.984375 
z
" id="DejaVuSans-98"/>
      <path d="M 10.6875 12.40625 
L 21 12.40625 
L 21 0 
L 10.6875 0 
z
" id="DejaVuSans-46"/>
      <path d="M 8.015625 75.875 
L 15.828125 75.875 
Q 23.140625 64.359375 26.78125 53.3125 
Q 30.421875 42.28125 30.421875 31.390625 
Q 30.421875 20.453125 26.78125 9.375 
Q 23.140625 -1.703125 15.828125 -13.1875 
L 8.015625 -13.1875 
Q 14.5 -2 17.703125 9.0625 
Q 20.90625 20.125 20.90625 31.390625 
Q 20.90625 42.671875 17.703125 53.65625 
Q 14.5 64.65625 8.015625 75.875 
z
" id="DejaVuSans-41"/>
      <path d="M 45.40625 46.390625 
L 45.40625 75.984375 
L 54.390625 75.984375 
L 54.390625 0 
L 45.40625 0 
L 45.40625 8.203125 
Q 42.578125 3.328125 38.25 0.953125 
Q 33.9375 -1.421875 27.875 -1.421875 
Q 17.96875 -1.421875 11.734375 6.484375 
Q 5.515625 14.40625 5.515625 27.296875 
Q 5.515625 40.1875 11.734375 48.09375 
Q 17.96875 56 27.875 56 
Q 33.9375 56 38.25 53.625 
Q 42.578125 51.265625 45.40625 46.390625 
z
M 14.796875 27.296875 
Q 14.796875 17.390625 18.875 11.75 
Q 22.953125 6.109375 30.078125 6.109375 
Q 37.203125 6.109375 41.296875 11.75 
Q 45.40625 17.390625 45.40625 27.296875 
Q 45.40625 37.203125 41.296875 42.84375 
Q 37.203125 48.484375 30.078125 48.484375 
Q 22.953125 48.484375 18.875 42.84375 
Q 14.796875 37.203125 14.796875 27.296875 
z
" id="DejaVuSans-100"/>
      <path d="M 9.421875 54.6875 
L 18.40625 54.6875 
L 18.40625 0 
L 9.421875 0 
z
M 9.421875 75.984375 
L 18.40625 75.984375 
L 18.40625 64.59375 
L 9.421875 64.59375 
z
" id="DejaVuSans-105"/>
      <path d="M 44.28125 53.078125 
L 44.28125 44.578125 
Q 40.484375 46.53125 36.375 47.5 
Q 32.28125 48.484375 27.875 48.484375 
Q 21.1875 48.484375 17.84375 46.4375 
Q 14.5 44.390625 14.5 40.28125 
Q 14.5 37.15625 16.890625 35.375 
Q 19.28125 33.59375 26.515625 31.984375 
L 29.59375 31.296875 
Q 39.15625 29.25 43.1875 25.515625 
Q 47.21875 21.78125 47.21875 15.09375 
Q 47.21875 7.46875 41.1875 3.015625 
Q 35.15625 -1.421875 24.609375 -1.421875 
Q 20.21875 -1.421875 15.453125 -0.5625 
Q 10.6875 0.296875 5.421875 2 
L 5.421875 11.28125 
Q 10.40625 8.6875 15.234375 7.390625 
Q 20.0625 6.109375 24.8125 6.109375 
Q 31.15625 6.109375 34.5625 8.28125 
Q 37.984375 10.453125 37.984375 14.40625 
Q 37.984375 18.0625 35.515625 20.015625 
Q 33.0625 21.96875 24.703125 23.78125 
L 21.578125 24.515625 
Q 13.234375 26.265625 9.515625 29.90625 
Q 5.8125 33.546875 5.8125 39.890625 
Q 5.8125 47.609375 11.28125 51.796875 
Q 16.75 56 26.8125 56 
Q 31.78125 56 36.171875 55.265625 
Q 40.578125 54.546875 44.28125 53.078125 
z
" id="DejaVuSans-115"/>
     </defs>
     <g transform="translate(18.398438 226.543009)rotate(-90)scale(0.1 -0.1)">
      <use xlink:href="#DejaVuSans-67"/>
      <use x="69.824219" xlink:href="#DejaVuSans-76"/>
      <use x="125.537109" xlink:href="#DejaVuSans-32"/>
      <use x="157.324219" xlink:href="#DejaVuSans-112"/>
      <use x="220.800781" xlink:href="#DejaVuSans-99"/>
      <use x="275.78125" xlink:href="#DejaVuSans-114"/>
      <use x="316.894531" xlink:href="#DejaVuSans-32"/>
      <use x="348.681641" xlink:href="#DejaVuSans-40"/>
      <use x="387.695312" xlink:href="#DejaVuSans-112"/>
      <use x="451.171875" xlink:href="#DejaVuSans-111"/>
      <use x="512.353516" xlink:href="#DejaVuSans-114"/>
      <use x="553.466797" xlink:href="#DejaVuSans-32"/>
      <use x="585.253906" xlink:href="#DejaVuSans-49"/>
      <use x="648.876953" xlink:href="#DejaVuSans-48"/>
      <use x="712.5" xlink:href="#DejaVuSans-48"/>
      <use x="776.123047" xlink:href="#DejaVuSans-48"/>
      <use x="839.746094" xlink:href="#DejaVuSans-48"/>
      <use x="903.369141" xlink:href="#DejaVuSans-48"/>
      <use x="966.992188" xlink:href="#DejaVuSans-32"/>
      <use x="998.779297" xlink:href="#DejaVuSans-104"/>
      <use x="1062.158203" xlink:href="#DejaVuSans-97"/>
      <use x="1123.4375" xlink:href="#DejaVuSans-98"/>
      <use x="1186.914062" xlink:href="#DejaVuSans-46"/>
      <use x="1218.701172" xlink:href="#DejaVuSans-41"/>
      <use x="1257.714844" xlink:href="#DejaVuSans-32"/>
      <use x="1289.501953" xlink:href="#DejaVuSans-100"/>
      <use x="1352.978516" xlink:href="#DejaVuSans-105"/>
      <use x="1380.761719" xlink:href="#DejaVuSans-97"/>
      <use x="1442.041016" xlink:href="#DejaVuSans-114"/>
      <use x="1483.154297" xlink:href="#DejaVuSans-105"/>
      <use x="1510.9375" xlink:href="#DejaVuSans-111"/>
      <use x="1572.119141" xlink:href="#DejaVuSans-115"/>
     </g>
    </g>
   </g>
   <g id="line2d_14">
    <path clip-path="url(#p42c41ee3c0)" d="M 61.936874 279.86258 
L 66.262179 279.86258 
L 70.587484 279.86258 
L 74.912789 279.86258 
L 79.238093 279.86258 
L 83.563398 279.86258 
L 87.888703 279.144697 
L 92.214008 279.86258 
L 96.539312 279.503638 
L 100.864617 279.86258 
L 105.189922 278.067872 
L 109.515227 278.785755 
L 113.840531 279.86258 
L 118.165836 278.785755 
L 122.491141 279.86258 
L 126.816446 276.991047 
L 131.14175 279.503638 
L 135.467055 268.017509 
L 139.79236 274.478457 
L 144.117665 272.324807 
L 148.44297 252.224081 
L 152.768274 260.479736 
L 157.093579 255.095613 
L 161.418884 264.787035 
L 165.744189 245.04525 
L 170.069493 194.793434 
L 174.394798 208.074271 
L 178.720103 179.71789 
L 183.045408 165.360228 
L 187.370712 180.076831 
L 191.696017 168.23176 
L 196.021322 134.491255 
L 200.346627 107.57064 
L 204.671931 83.162615 
L 208.997236 48.704227 
L 213.322541 43.320104 
L 217.647846 56.241999 
L 221.97315 140.952203 
L 226.298455 132.696548 
L 230.62376 51.575759 
L 234.949065 97.520276 
L 239.274369 93.212978 
L 243.599674 115.826295 
L 247.924979 130.183957 
L 252.250284 148.131034 
L 256.575588 112.954763 
L 260.900893 108.647464 
L 265.226198 114.74947 
L 269.551503 70.240719 
L 273.876807 121.56936 
L 278.202112 73.471193 
L 282.527417 96.802393 
L 286.852722 81.726849 
L 291.178026 94.289803 
L 295.503331 34.705507 
L 299.828636 92.136153 
L 304.153941 139.875378 
L 306.551501 346.6 
M 311.027497 346.6 
L 312.80455 230.687588 
L 317.129855 218.842518 
L 321.45516 211.663687 
L 325.780464 147.413151 
L 330.105769 214.535219 
L 334.431074 172.898 
L 338.756379 196.588142 
L 343.081683 214.535219 
L 347.406988 213.458394 
L 351.732293 243.609484 
L 356.057598 209.868979 
L 360.382902 241.096893 
L 364.708207 218.124634 
L 369.033512 237.507478 
L 373.358817 261.556561 
L 377.684121 245.763133 
L 382.009426 247.198899 
L 386.334731 242.173718 
L 390.660036 247.198899 
L 394.98534 247.198899 
L 399.310645 240.37901 
L 403.63595 251.865139 
L 407.961255 260.838678 
L 412.286559 259.402912 
L 416.611864 255.454555 
" style="fill:none;stroke:#1f77b4;stroke-linecap:square;stroke-width:1.5;"/>
    <defs>
     <path d="M 0 1.5 
C 0.397805 1.5 0.77937 1.341951 1.06066 1.06066 
C 1.341951 0.77937 1.5 0.397805 1.5 0 
C 1.5 -0.397805 1.341951 -0.77937 1.06066 -1.06066 
C 0.77937 -1.341951 0.397805 -1.5 0 -1.5 
C -0.397805 -1.5 -0.77937 -1.341951 -1.06066 -1.06066 
C -1.341951 -0.77937 -1.5 -0.397805 -1.5 0 
C -1.5 0.397805 -1.341951 0.77937 -1.06066 1.06066 
C -0.77937 1.341951 -0.397805 1.5 0 1.5 
z
" id="m04ef733bfb" style="stroke:#1f77b4;"/>
    </defs>
    <g clip-path="url(#p42c41ee3c0)">
     <use style="fill:#1f77b4;stroke:#1f77b4;" x="61.936874" xlink:href="#m04ef733bfb" y="279.86258"/>
     <use style="fill:#1f77b4;stroke:#1f77b4;" x="66.262179" xlink:href="#m04ef733bfb" y="279.86258"/>
     <use style="fill:#1f77b4;stroke:#1f77b4;" x="70.587484" xlink:href="#m04ef733bfb" y="279.86258"/>
     <use style="fill:#1f77b4;stroke:#1f77b4;" x="74.912789" xlink:href="#m04ef733bfb" y="279.86258"/>
     <use style="fill:#1f77b4;stroke:#1f77b4;" x="79.238093" xlink:href="#m04ef733bfb" y="279.86258"/>
     <use style="fill:#1f77b4;stroke:#1f77b4;" x="83.563398" xlink:href="#m04ef733bfb" y="279.86258"/>
     <use style="fill:#1f77b4;stroke:#1f77b4;" x="87.888703" xlink:href="#m04ef733bfb" y="279.144697"/>
     <use style="fill:#1f77b4;stroke:#1f77b4;" x="92.214008" xlink:href="#m04ef733bfb" y="279.86258"/>
     <use style="fill:#1f77b4;stroke:#1f77b4;" x="96.539312" xlink:href="#m04ef733bfb" y="279.503638"/>
     <use style="fill:#1f77b4;stroke:#1f77b4;" x="100.864617" xlink:href="#m04ef733bfb" y="279.86258"/>
     <use style="fill:#1f77b4;stroke:#1f77b4;" x="105.189922" xlink:href="#m04ef733bfb" y="278.067872"/>
     <use style="fill:#1f77b4;stroke:#1f77b4;" x="109.515227" xlink:href="#m04ef733bfb" y="278.785755"/>
     <use style="fill:#1f77b4;stroke:#1f77b4;" x="113.840531" xlink:href="#m04ef733bfb" y="279.86258"/>
     <use style="fill:#1f77b4;stroke:#1f77b4;" x="118.165836" xlink:href="#m04ef733bfb" y="278.785755"/>
     <use style="fill:#1f77b4;stroke:#1f77b4;" x="122.491141" xlink:href="#m04ef733bfb" y="279.86258"/>
     <use style="fill:#1f77b4;stroke:#1f77b4;" x="126.816446" xlink:href="#m04ef733bfb" y="276.991047"/>
     <use style="fill:#1f77b4;stroke:#1f77b4;" x="131.14175" xlink:href="#m04ef733bfb" y="279.503638"/>
     <use style="fill:#1f77b4;stroke:#1f77b4;" x="135.467055" xlink:href="#m04ef733bfb" y="268.017509"/>
     <use style="fill:#1f77b4;stroke:#1f77b4;" x="139.79236" xlink:href="#m04ef733bfb" y="274.478457"/>
     <use style="fill:#1f77b4;stroke:#1f77b4;" x="144.117665" xlink:href="#m04ef733bfb" y="272.324807"/>
     <use style="fill:#1f77b4;stroke:#1f77b4;" x="148.44297" xlink:href="#m04ef733bfb" y="252.224081"/>
     <use style="fill:#1f77b4;stroke:#1f77b4;" x="152.768274" xlink:href="#m04ef733bfb" y="260.479736"/>
     <use style="fill:#1f77b4;stroke:#1f77b4;" x="157.093579" xlink:href="#m04ef733bfb" y="255.095613"/>
     <use style="fill:#1f77b4;stroke:#1f77b4;" x="161.418884" xlink:href="#m04ef733bfb" y="264.787035"/>
     <use style="fill:#1f77b4;stroke:#1f77b4;" x="165.744189" xlink:href="#m04ef733bfb" y="245.04525"/>
     <use style="fill:#1f77b4;stroke:#1f77b4;" x="170.069493" xlink:href="#m04ef733bfb" y="194.793434"/>
     <use style="fill:#1f77b4;stroke:#1f77b4;" x="174.394798" xlink:href="#m04ef733bfb" y="208.074271"/>
     <use style="fill:#1f77b4;stroke:#1f77b4;" x="178.720103" xlink:href="#m04ef733bfb" y="179.71789"/>
     <use style="fill:#1f77b4;stroke:#1f77b4;" x="183.045408" xlink:href="#m04ef733bfb" y="165.360228"/>
     <use style="fill:#1f77b4;stroke:#1f77b4;" x="187.370712" xlink:href="#m04ef733bfb" y="180.076831"/>
     <use style="fill:#1f77b4;stroke:#1f77b4;" x="191.696017" xlink:href="#m04ef733bfb" y="168.23176"/>
     <use style="fill:#1f77b4;stroke:#1f77b4;" x="196.021322" xlink:href="#m04ef733bfb" y="134.491255"/>
     <use style="fill:#1f77b4;stroke:#1f77b4;" x="200.346627" xlink:href="#m04ef733bfb" y="107.57064"/>
     <use style="fill:#1f77b4;stroke:#1f77b4;" x="204.671931" xlink:href="#m04ef733bfb" y="83.162615"/>
     <use style="fill:#1f77b4;stroke:#1f77b4;" x="208.997236" xlink:href="#m04ef733bfb" y="48.704227"/>
     <use style="fill:#1f77b4;stroke:#1f77b4;" x="213.322541" xlink:href="#m04ef733bfb" y="43.320104"/>
     <use style="fill:#1f77b4;stroke:#1f77b4;" x="217.647846" xlink:href="#m04ef733bfb" y="56.241999"/>
     <use style="fill:#1f77b4;stroke:#1f77b4;" x="221.97315" xlink:href="#m04ef733bfb" y="140.952203"/>
     <use style="fill:#1f77b4;stroke:#1f77b4;" x="226.298455" xlink:href="#m04ef733bfb" y="132.696548"/>
     <use style="fill:#1f77b4;stroke:#1f77b4;" x="230.62376" xlink:href="#m04ef733bfb" y="51.575759"/>
     <use style="fill:#1f77b4;stroke:#1f77b4;" x="234.949065" xlink:href="#m04ef733bfb" y="97.520276"/>
     <use style="fill:#1f77b4;stroke:#1f77b4;" x="239.274369" xlink:href="#m04ef733bfb" y="93.212978"/>
     <use style="fill:#1f77b4;stroke:#1f77b4;" x="243.599674" xlink:href="#m04ef733bfb" y="115.826295"/>
     <use style="fill:#1f77b4;stroke:#1f77b4;" x="247.924979" xlink:href="#m04ef733bfb" y="130.183957"/>
     <use style="fill:#1f77b4;stroke:#1f77b4;" x="252.250284" xlink:href="#m04ef733bfb" y="148.131034"/>
     <use style="fill:#1f77b4;stroke:#1f77b4;" x="256.575588" xlink:href="#m04ef733bfb" y="112.954763"/>
     <use style="fill:#1f77b4;stroke:#1f77b4;" x="260.900893" xlink:href="#m04ef733bfb" y="108.647464"/>
     <use style="fill:#1f77b4;stroke:#1f77b4;" x="265.226198" xlink:href="#m04ef733bfb" y="114.74947"/>
     <use style="fill:#1f77b4;stroke:#1f77b4;" x="269.551503" xlink:href="#m04ef733bfb" y="70.240719"/>
     <use style="fill:#1f77b4;stroke:#1f77b4;" x="273.876807" xlink:href="#m04ef733bfb" y="121.56936"/>
     <use style="fill:#1f77b4;stroke:#1f77b4;" x="278.202112" xlink:href="#m04ef733bfb" y="73.471193"/>
     <use style="fill:#1f77b4;stroke:#1f77b4;" x="282.527417" xlink:href="#m04ef733bfb" y="96.802393"/>
     <use style="fill:#1f77b4;stroke:#1f77b4;" x="286.852722" xlink:href="#m04ef733bfb" y="81.726849"/>
     <use style="fill:#1f77b4;stroke:#1f77b4;" x="291.178026" xlink:href="#m04ef733bfb" y="94.289803"/>
     <use style="fill:#1f77b4;stroke:#1f77b4;" x="295.503331" xlink:href="#m04ef733bfb" y="34.705507"/>
     <use style="fill:#1f77b4;stroke:#1f77b4;" x="299.828636" xlink:href="#m04ef733bfb" y="92.136153"/>
     <use style="fill:#1f77b4;stroke:#1f77b4;" x="304.153941" xlink:href="#m04ef733bfb" y="139.875378"/>
     <use style="fill:#1f77b4;stroke:#1f77b4;" x="308.479245" xlink:href="#m04ef733bfb" y="512.81564"/>
     <use style="fill:#1f77b4;stroke:#1f77b4;" x="312.80455" xlink:href="#m04ef733bfb" y="230.687588"/>
     <use style="fill:#1f77b4;stroke:#1f77b4;" x="317.129855" xlink:href="#m04ef733bfb" y="218.842518"/>
     <use style="fill:#1f77b4;stroke:#1f77b4;" x="321.45516" xlink:href="#m04ef733bfb" y="211.663687"/>
     <use style="fill:#1f77b4;stroke:#1f77b4;" x="325.780464" xlink:href="#m04ef733bfb" y="147.413151"/>
     <use style="fill:#1f77b4;stroke:#1f77b4;" x="330.105769" xlink:href="#m04ef733bfb" y="214.535219"/>
     <use style="fill:#1f77b4;stroke:#1f77b4;" x="334.431074" xlink:href="#m04ef733bfb" y="172.898"/>
     <use style="fill:#1f77b4;stroke:#1f77b4;" x="338.756379" xlink:href="#m04ef733bfb" y="196.588142"/>
     <use style="fill:#1f77b4;stroke:#1f77b4;" x="343.081683" xlink:href="#m04ef733bfb" y="214.535219"/>
     <use style="fill:#1f77b4;stroke:#1f77b4;" x="347.406988" xlink:href="#m04ef733bfb" y="213.458394"/>
     <use style="fill:#1f77b4;stroke:#1f77b4;" x="351.732293" xlink:href="#m04ef733bfb" y="243.609484"/>
     <use style="fill:#1f77b4;stroke:#1f77b4;" x="356.057598" xlink:href="#m04ef733bfb" y="209.868979"/>
     <use style="fill:#1f77b4;stroke:#1f77b4;" x="360.382902" xlink:href="#m04ef733bfb" y="241.096893"/>
     <use style="fill:#1f77b4;stroke:#1f77b4;" x="364.708207" xlink:href="#m04ef733bfb" y="218.124634"/>
     <use style="fill:#1f77b4;stroke:#1f77b4;" x="369.033512" xlink:href="#m04ef733bfb" y="237.507478"/>
     <use style="fill:#1f77b4;stroke:#1f77b4;" x="373.358817" xlink:href="#m04ef733bfb" y="261.556561"/>
     <use style="fill:#1f77b4;stroke:#1f77b4;" x="377.684121" xlink:href="#m04ef733bfb" y="245.763133"/>
     <use style="fill:#1f77b4;stroke:#1f77b4;" x="382.009426" xlink:href="#m04ef733bfb" y="247.198899"/>
     <use style="fill:#1f77b4;stroke:#1f77b4;" x="386.334731" xlink:href="#m04ef733bfb" y="242.173718"/>
     <use style="fill:#1f77b4;stroke:#1f77b4;" x="390.660036" xlink:href="#m04ef733bfb" y="247.198899"/>
     <use style="fill:#1f77b4;stroke:#1f77b4;" x="394.98534" xlink:href="#m04ef733bfb" y="247.198899"/>
     <use style="fill:#1f77b4;stroke:#1f77b4;" x="399.310645" xlink:href="#m04ef733bfb" y="240.37901"/>
     <use style="fill:#1f77b4;stroke:#1f77b4;" x="403.63595" xlink:href="#m04ef733bfb" y="251.865139"/>
     <use style="fill:#1f77b4;stroke:#1f77b4;" x="407.961255" xlink:href="#m04ef733bfb" y="260.838678"/>
     <use style="fill:#1f77b4;stroke:#1f77b4;" x="412.286559" xlink:href="#m04ef733bfb" y="259.402912"/>
     <use style="fill:#1f77b4;stroke:#1f77b4;" x="416.611864" xlink:href="#m04ef733bfb" y="255.454555"/>
    </g>
   </g>
   <g id="patch_3">
    <path d="M 44.203125 279.86258 
L 44.203125 10.8 
" style="fill:none;stroke:#000000;stroke-linecap:square;stroke-linejoin:miter;stroke-width:0.8;"/>
   </g>
   <g id="patch_4">
    <path d="M 434.345614 279.86258 
L 434.345614 10.8 
" style="fill:none;stroke:#000000;stroke-linecap:square;stroke-linejoin:miter;stroke-width:0.8;"/>
   </g>
   <g id="patch_5">
    <path d="M 44.203125 279.86258 
L 434.345614 279.86258 
" style="fill:none;stroke:#000000;stroke-linecap:square;stroke-linejoin:miter;stroke-width:0.8;"/>
   </g>
   <g id="patch_6">
    <path d="M 44.203125 10.8 
L 434.345614 10.8 
" style="fill:none;stroke:#000000;stroke-linecap:square;stroke-linejoin:miter;stroke-width:0.8;"/>
   </g>
  </g>
 </g>
 <defs>
  <clipPath id="p42c41ee3c0">
   <rect height="269.06258" width="390.142489" x="44.203125" y="10.8"/>
  </clipPath>
 </defs>
</svg>
