<?xml version="1.0" encoding="utf-8" standalone="no"?>
<!DOCTYPE svg PUBLIC "-//W3C//DTD SVG 1.1//EN"
  "http://www.w3.org/Graphics/SVG/1.1/DTD/svg11.dtd">
<!-- Created with matplotlib (https://matplotlib.org/) -->
<svg height="345.6pt" version="1.1" viewBox="0 0 460.8 345.6" width="460.8pt" xmlns="http://www.w3.org/2000/svg" xmlns:xlink="http://www.w3.org/1999/xlink">
 <defs>
  <style type="text/css">
*{stroke-linecap:butt;stroke-linejoin:round;}
  </style>
 </defs>
 <g id="figure_1">
  <g id="patch_1">
   <path d="M 0 345.6 
L 460.8 345.6 
L 460.8 0 
L 0 0 
z
" style="fill:#ffffff;"/>
  </g>
  <g id="axes_1">
   <g id="patch_2">
    <path d="M 52.582813 279.86258 
L 450 279.86258 
L 450 10.8 
L 52.582813 10.8 
z
" style="fill:#ffffff;"/>
   </g>
   <g id="matplotlib.axis_1">
    <g id="xtick_1">
     <g id="line2d_1">
      <defs>
       <path d="M 0 0 
L 0 3.5 
" id="mac6abb23ba" style="stroke:#000000;stroke-width:0.8;"/>
      </defs>
      <g>
       <use style="stroke:#000000;stroke-width:0.8;" x="111.806663" xlink:href="#mac6abb23ba" y="279.86258"/>
      </g>
     </g>
     <g id="text_1">
      <!-- 2020-03-01 -->
      <defs>
       <path d="M 19.1875 8.296875 
L 53.609375 8.296875 
L 53.609375 0 
L 7.328125 0 
L 7.328125 8.296875 
Q 12.9375 14.109375 22.625 23.890625 
Q 32.328125 33.6875 34.8125 36.53125 
Q 39.546875 41.84375 41.421875 45.53125 
Q 43.3125 49.21875 43.3125 52.78125 
Q 43.3125 58.59375 39.234375 62.25 
Q 35.15625 65.921875 28.609375 65.921875 
Q 23.96875 65.921875 18.8125 64.3125 
Q 13.671875 62.703125 7.8125 59.421875 
L 7.8125 69.390625 
Q 13.765625 71.78125 18.9375 73 
Q 24.125 74.21875 28.421875 74.21875 
Q 39.75 74.21875 46.484375 68.546875 
Q 53.21875 62.890625 53.21875 53.421875 
Q 53.21875 48.921875 51.53125 44.890625 
Q 49.859375 40.875 45.40625 35.40625 
Q 44.1875 33.984375 37.640625 27.21875 
Q 31.109375 20.453125 19.1875 8.296875 
z
" id="DejaVuSans-50"/>
       <path d="M 31.78125 66.40625 
Q 24.171875 66.40625 20.328125 58.90625 
Q 16.5 51.421875 16.5 36.375 
Q 16.5 21.390625 20.328125 13.890625 
Q 24.171875 6.390625 31.78125 6.390625 
Q 39.453125 6.390625 43.28125 13.890625 
Q 47.125 21.390625 47.125 36.375 
Q 47.125 51.421875 43.28125 58.90625 
Q 39.453125 66.40625 31.78125 66.40625 
z
M 31.78125 74.21875 
Q 44.046875 74.21875 50.515625 64.515625 
Q 56.984375 54.828125 56.984375 36.375 
Q 56.984375 17.96875 50.515625 8.265625 
Q 44.046875 -1.421875 31.78125 -1.421875 
Q 19.53125 -1.421875 13.0625 8.265625 
Q 6.59375 17.96875 6.59375 36.375 
Q 6.59375 54.828125 13.0625 64.515625 
Q 19.53125 74.21875 31.78125 74.21875 
z
" id="DejaVuSans-48"/>
       <path d="M 4.890625 31.390625 
L 31.203125 31.390625 
L 31.203125 23.390625 
L 4.890625 23.390625 
z
" id="DejaVuSans-45"/>
       <path d="M 40.578125 39.3125 
Q 47.65625 37.796875 51.625 33 
Q 55.609375 28.21875 55.609375 21.1875 
Q 55.609375 10.40625 48.1875 4.484375 
Q 40.765625 -1.421875 27.09375 -1.421875 
Q 22.515625 -1.421875 17.65625 -0.515625 
Q 12.796875 0.390625 7.625 2.203125 
L 7.625 11.71875 
Q 11.71875 9.328125 16.59375 8.109375 
Q 21.484375 6.890625 26.8125 6.890625 
Q 36.078125 6.890625 40.9375 10.546875 
Q 45.796875 14.203125 45.796875 21.1875 
Q 45.796875 27.640625 41.28125 31.265625 
Q 36.765625 34.90625 28.71875 34.90625 
L 20.21875 34.90625 
L 20.21875 43.015625 
L 29.109375 43.015625 
Q 36.375 43.015625 40.234375 45.921875 
Q 44.09375 48.828125 44.09375 54.296875 
Q 44.09375 59.90625 40.109375 62.90625 
Q 36.140625 65.921875 28.71875 65.921875 
Q 24.65625 65.921875 20.015625 65.03125 
Q 15.375 64.15625 9.8125 62.3125 
L 9.8125 71.09375 
Q 15.4375 72.65625 20.34375 73.4375 
Q 25.25 74.21875 29.59375 74.21875 
Q 40.828125 74.21875 47.359375 69.109375 
Q 53.90625 64.015625 53.90625 55.328125 
Q 53.90625 49.265625 50.4375 45.09375 
Q 46.96875 40.921875 40.578125 39.3125 
z
" id="DejaVuSans-51"/>
       <path d="M 12.40625 8.296875 
L 28.515625 8.296875 
L 28.515625 63.921875 
L 10.984375 60.40625 
L 10.984375 69.390625 
L 28.421875 72.90625 
L 38.28125 72.90625 
L 38.28125 8.296875 
L 54.390625 8.296875 
L 54.390625 0 
L 12.40625 0 
z
" id="DejaVuSans-49"/>
      </defs>
      <g transform="translate(93.210859 333.329439)rotate(-45)scale(0.1 -0.1)">
       <use xlink:href="#DejaVuSans-50"/>
       <use x="63.623047" xlink:href="#DejaVuSans-48"/>
       <use x="127.246094" xlink:href="#DejaVuSans-50"/>
       <use x="190.869141" xlink:href="#DejaVuSans-48"/>
       <use x="254.492188" xlink:href="#DejaVuSans-45"/>
       <use x="290.576172" xlink:href="#DejaVuSans-48"/>
       <use x="354.199219" xlink:href="#DejaVuSans-51"/>
       <use x="417.822266" xlink:href="#DejaVuSans-45"/>
       <use x="453.90625" xlink:href="#DejaVuSans-48"/>
       <use x="517.529297" xlink:href="#DejaVuSans-49"/>
      </g>
     </g>
    </g>
    <g id="xtick_2">
     <g id="line2d_2">
      <g>
       <use style="stroke:#000000;stroke-width:0.8;" x="175.832447" xlink:href="#mac6abb23ba" y="279.86258"/>
      </g>
     </g>
     <g id="text_2">
      <!-- 2020-03-15 -->
      <defs>
       <path d="M 10.796875 72.90625 
L 49.515625 72.90625 
L 49.515625 64.59375 
L 19.828125 64.59375 
L 19.828125 46.734375 
Q 21.96875 47.46875 24.109375 47.828125 
Q 26.265625 48.1875 28.421875 48.1875 
Q 40.625 48.1875 47.75 41.5 
Q 54.890625 34.8125 54.890625 23.390625 
Q 54.890625 11.625 47.5625 5.09375 
Q 40.234375 -1.421875 26.90625 -1.421875 
Q 22.3125 -1.421875 17.546875 -0.640625 
Q 12.796875 0.140625 7.71875 1.703125 
L 7.71875 11.625 
Q 12.109375 9.234375 16.796875 8.0625 
Q 21.484375 6.890625 26.703125 6.890625 
Q 35.15625 6.890625 40.078125 11.328125 
Q 45.015625 15.765625 45.015625 23.390625 
Q 45.015625 31 40.078125 35.4375 
Q 35.15625 39.890625 26.703125 39.890625 
Q 22.75 39.890625 18.8125 39.015625 
Q 14.890625 38.140625 10.796875 36.28125 
z
" id="DejaVuSans-53"/>
      </defs>
      <g transform="translate(157.236643 333.329439)rotate(-45)scale(0.1 -0.1)">
       <use xlink:href="#DejaVuSans-50"/>
       <use x="63.623047" xlink:href="#DejaVuSans-48"/>
       <use x="127.246094" xlink:href="#DejaVuSans-50"/>
       <use x="190.869141" xlink:href="#DejaVuSans-48"/>
       <use x="254.492188" xlink:href="#DejaVuSans-45"/>
       <use x="290.576172" xlink:href="#DejaVuSans-48"/>
       <use x="354.199219" xlink:href="#DejaVuSans-51"/>
       <use x="417.822266" xlink:href="#DejaVuSans-45"/>
       <use x="453.90625" xlink:href="#DejaVuSans-49"/>
       <use x="517.529297" xlink:href="#DejaVuSans-53"/>
      </g>
     </g>
    </g>
    <g id="xtick_3">
     <g id="line2d_3">
      <g>
       <use style="stroke:#000000;stroke-width:0.8;" x="253.578041" xlink:href="#mac6abb23ba" y="279.86258"/>
      </g>
     </g>
     <g id="text_3">
      <!-- 2020-04-01 -->
      <defs>
       <path d="M 37.796875 64.3125 
L 12.890625 25.390625 
L 37.796875 25.390625 
z
M 35.203125 72.90625 
L 47.609375 72.90625 
L 47.609375 25.390625 
L 58.015625 25.390625 
L 58.015625 17.1875 
L 47.609375 17.1875 
L 47.609375 0 
L 37.796875 0 
L 37.796875 17.1875 
L 4.890625 17.1875 
L 4.890625 26.703125 
z
" id="DejaVuSans-52"/>
      </defs>
      <g transform="translate(234.982238 333.329439)rotate(-45)scale(0.1 -0.1)">
       <use xlink:href="#DejaVuSans-50"/>
       <use x="63.623047" xlink:href="#DejaVuSans-48"/>
       <use x="127.246094" xlink:href="#DejaVuSans-50"/>
       <use x="190.869141" xlink:href="#DejaVuSans-48"/>
       <use x="254.492188" xlink:href="#DejaVuSans-45"/>
       <use x="290.576172" xlink:href="#DejaVuSans-48"/>
       <use x="354.199219" xlink:href="#DejaVuSans-52"/>
       <use x="417.822266" xlink:href="#DejaVuSans-45"/>
       <use x="453.90625" xlink:href="#DejaVuSans-48"/>
       <use x="517.529297" xlink:href="#DejaVuSans-49"/>
      </g>
     </g>
    </g>
    <g id="xtick_4">
     <g id="line2d_4">
      <g>
       <use style="stroke:#000000;stroke-width:0.8;" x="317.603825" xlink:href="#mac6abb23ba" y="279.86258"/>
      </g>
     </g>
     <g id="text_4">
      <!-- 2020-04-15 -->
      <g transform="translate(299.008022 333.329439)rotate(-45)scale(0.1 -0.1)">
       <use xlink:href="#DejaVuSans-50"/>
       <use x="63.623047" xlink:href="#DejaVuSans-48"/>
       <use x="127.246094" xlink:href="#DejaVuSans-50"/>
       <use x="190.869141" xlink:href="#DejaVuSans-48"/>
       <use x="254.492188" xlink:href="#DejaVuSans-45"/>
       <use x="290.576172" xlink:href="#DejaVuSans-48"/>
       <use x="354.199219" xlink:href="#DejaVuSans-52"/>
       <use x="417.822266" xlink:href="#DejaVuSans-45"/>
       <use x="453.90625" xlink:href="#DejaVuSans-49"/>
       <use x="517.529297" xlink:href="#DejaVuSans-53"/>
      </g>
     </g>
    </g>
    <g id="xtick_5">
     <g id="line2d_5">
      <g>
       <use style="stroke:#000000;stroke-width:0.8;" x="390.77615" xlink:href="#mac6abb23ba" y="279.86258"/>
      </g>
     </g>
     <g id="text_5">
      <!-- 2020-05-01 -->
      <g transform="translate(372.180346 333.329439)rotate(-45)scale(0.1 -0.1)">
       <use xlink:href="#DejaVuSans-50"/>
       <use x="63.623047" xlink:href="#DejaVuSans-48"/>
       <use x="127.246094" xlink:href="#DejaVuSans-50"/>
       <use x="190.869141" xlink:href="#DejaVuSans-48"/>
       <use x="254.492188" xlink:href="#DejaVuSans-45"/>
       <use x="290.576172" xlink:href="#DejaVuSans-48"/>
       <use x="354.199219" xlink:href="#DejaVuSans-53"/>
       <use x="417.822266" xlink:href="#DejaVuSans-45"/>
       <use x="453.90625" xlink:href="#DejaVuSans-48"/>
       <use x="517.529297" xlink:href="#DejaVuSans-49"/>
      </g>
     </g>
    </g>
   </g>
   <g id="matplotlib.axis_2">
    <g id="ytick_1">
     <g id="line2d_6">
      <defs>
       <path d="M 0 0 
L -3.5 0 
" id="mb489eeefdd" style="stroke:#000000;stroke-width:0.8;"/>
      </defs>
      <g>
       <use style="stroke:#000000;stroke-width:0.8;" x="52.582813" xlink:href="#mb489eeefdd" y="255.411915"/>
      </g>
     </g>
     <g id="text_6">
      <!-- −80 -->
      <defs>
       <path d="M 10.59375 35.5 
L 73.1875 35.5 
L 73.1875 27.203125 
L 10.59375 27.203125 
z
" id="DejaVuSans-8722"/>
       <path d="M 31.78125 34.625 
Q 24.75 34.625 20.71875 30.859375 
Q 16.703125 27.09375 16.703125 20.515625 
Q 16.703125 13.921875 20.71875 10.15625 
Q 24.75 6.390625 31.78125 6.390625 
Q 38.8125 6.390625 42.859375 10.171875 
Q 46.921875 13.96875 46.921875 20.515625 
Q 46.921875 27.09375 42.890625 30.859375 
Q 38.875 34.625 31.78125 34.625 
z
M 21.921875 38.8125 
Q 15.578125 40.375 12.03125 44.71875 
Q 8.5 49.078125 8.5 55.328125 
Q 8.5 64.0625 14.71875 69.140625 
Q 20.953125 74.21875 31.78125 74.21875 
Q 42.671875 74.21875 48.875 69.140625 
Q 55.078125 64.0625 55.078125 55.328125 
Q 55.078125 49.078125 51.53125 44.71875 
Q 48 40.375 41.703125 38.8125 
Q 48.828125 37.15625 52.796875 32.3125 
Q 56.78125 27.484375 56.78125 20.515625 
Q 56.78125 9.90625 50.3125 4.234375 
Q 43.84375 -1.421875 31.78125 -1.421875 
Q 19.734375 -1.421875 13.25 4.234375 
Q 6.78125 9.90625 6.78125 20.515625 
Q 6.78125 27.484375 10.78125 32.3125 
Q 14.796875 37.15625 21.921875 38.8125 
z
M 18.3125 54.390625 
Q 18.3125 48.734375 21.84375 45.5625 
Q 25.390625 42.390625 31.78125 42.390625 
Q 38.140625 42.390625 41.71875 45.5625 
Q 45.3125 48.734375 45.3125 54.390625 
Q 45.3125 60.0625 41.71875 63.234375 
Q 38.140625 66.40625 31.78125 66.40625 
Q 25.390625 66.40625 21.84375 63.234375 
Q 18.3125 60.0625 18.3125 54.390625 
z
" id="DejaVuSans-56"/>
      </defs>
      <g transform="translate(24.478125 259.211134)scale(0.1 -0.1)">
       <use xlink:href="#DejaVuSans-8722"/>
       <use x="83.789062" xlink:href="#DejaVuSans-56"/>
       <use x="147.412109" xlink:href="#DejaVuSans-48"/>
      </g>
     </g>
    </g>
    <g id="ytick_2">
     <g id="line2d_7">
      <g>
       <use style="stroke:#000000;stroke-width:0.8;" x="52.582813" xlink:href="#mb489eeefdd" y="217.1605"/>
      </g>
     </g>
     <g id="text_7">
      <!-- −60 -->
      <defs>
       <path d="M 33.015625 40.375 
Q 26.375 40.375 22.484375 35.828125 
Q 18.609375 31.296875 18.609375 23.390625 
Q 18.609375 15.53125 22.484375 10.953125 
Q 26.375 6.390625 33.015625 6.390625 
Q 39.65625 6.390625 43.53125 10.953125 
Q 47.40625 15.53125 47.40625 23.390625 
Q 47.40625 31.296875 43.53125 35.828125 
Q 39.65625 40.375 33.015625 40.375 
z
M 52.59375 71.296875 
L 52.59375 62.3125 
Q 48.875 64.0625 45.09375 64.984375 
Q 41.3125 65.921875 37.59375 65.921875 
Q 27.828125 65.921875 22.671875 59.328125 
Q 17.53125 52.734375 16.796875 39.40625 
Q 19.671875 43.65625 24.015625 45.921875 
Q 28.375 48.1875 33.59375 48.1875 
Q 44.578125 48.1875 50.953125 41.515625 
Q 57.328125 34.859375 57.328125 23.390625 
Q 57.328125 12.15625 50.6875 5.359375 
Q 44.046875 -1.421875 33.015625 -1.421875 
Q 20.359375 -1.421875 13.671875 8.265625 
Q 6.984375 17.96875 6.984375 36.375 
Q 6.984375 53.65625 15.1875 63.9375 
Q 23.390625 74.21875 37.203125 74.21875 
Q 40.921875 74.21875 44.703125 73.484375 
Q 48.484375 72.75 52.59375 71.296875 
z
" id="DejaVuSans-54"/>
      </defs>
      <g transform="translate(24.478125 220.959718)scale(0.1 -0.1)">
       <use xlink:href="#DejaVuSans-8722"/>
       <use x="83.789062" xlink:href="#DejaVuSans-54"/>
       <use x="147.412109" xlink:href="#DejaVuSans-48"/>
      </g>
     </g>
    </g>
    <g id="ytick_3">
     <g id="line2d_8">
      <g>
       <use style="stroke:#000000;stroke-width:0.8;" x="52.582813" xlink:href="#mb489eeefdd" y="178.909084"/>
      </g>
     </g>
     <g id="text_8">
      <!-- −40 -->
      <g transform="translate(24.478125 182.708303)scale(0.1 -0.1)">
       <use xlink:href="#DejaVuSans-8722"/>
       <use x="83.789062" xlink:href="#DejaVuSans-52"/>
       <use x="147.412109" xlink:href="#DejaVuSans-48"/>
      </g>
     </g>
    </g>
    <g id="ytick_4">
     <g id="line2d_9">
      <g>
       <use style="stroke:#000000;stroke-width:0.8;" x="52.582813" xlink:href="#mb489eeefdd" y="140.657668"/>
      </g>
     </g>
     <g id="text_9">
      <!-- −20 -->
      <g transform="translate(24.478125 144.456887)scale(0.1 -0.1)">
       <use xlink:href="#DejaVuSans-8722"/>
       <use x="83.789062" xlink:href="#DejaVuSans-50"/>
       <use x="147.412109" xlink:href="#DejaVuSans-48"/>
      </g>
     </g>
    </g>
    <g id="ytick_5">
     <g id="line2d_10">
      <g>
       <use style="stroke:#000000;stroke-width:0.8;" x="52.582813" xlink:href="#mb489eeefdd" y="102.406252"/>
      </g>
     </g>
     <g id="text_10">
      <!-- 0 -->
      <g transform="translate(39.220313 106.205471)scale(0.1 -0.1)">
       <use xlink:href="#DejaVuSans-48"/>
      </g>
     </g>
    </g>
    <g id="ytick_6">
     <g id="line2d_11">
      <g>
       <use style="stroke:#000000;stroke-width:0.8;" x="52.582813" xlink:href="#mb489eeefdd" y="64.154837"/>
      </g>
     </g>
     <g id="text_11">
      <!-- 20 -->
      <g transform="translate(32.857813 67.954055)scale(0.1 -0.1)">
       <use xlink:href="#DejaVuSans-50"/>
       <use x="63.623047" xlink:href="#DejaVuSans-48"/>
      </g>
     </g>
    </g>
    <g id="ytick_7">
     <g id="line2d_12">
      <g>
       <use style="stroke:#000000;stroke-width:0.8;" x="52.582813" xlink:href="#mb489eeefdd" y="25.903421"/>
      </g>
     </g>
     <g id="text_12">
      <!-- 40 -->
      <g transform="translate(32.857813 29.70264)scale(0.1 -0.1)">
       <use xlink:href="#DejaVuSans-52"/>
       <use x="63.623047" xlink:href="#DejaVuSans-48"/>
      </g>
     </g>
    </g>
    <g id="text_13">
     <!-- CM pcr (por 100000 hab.) diarios -->
     <defs>
      <path d="M 64.40625 67.28125 
L 64.40625 56.890625 
Q 59.421875 61.53125 53.78125 63.8125 
Q 48.140625 66.109375 41.796875 66.109375 
Q 29.296875 66.109375 22.65625 58.46875 
Q 16.015625 50.828125 16.015625 36.375 
Q 16.015625 21.96875 22.65625 14.328125 
Q 29.296875 6.6875 41.796875 6.6875 
Q 48.140625 6.6875 53.78125 8.984375 
Q 59.421875 11.28125 64.40625 15.921875 
L 64.40625 5.609375 
Q 59.234375 2.09375 53.4375 0.328125 
Q 47.65625 -1.421875 41.21875 -1.421875 
Q 24.65625 -1.421875 15.125 8.703125 
Q 5.609375 18.84375 5.609375 36.375 
Q 5.609375 53.953125 15.125 64.078125 
Q 24.65625 74.21875 41.21875 74.21875 
Q 47.75 74.21875 53.53125 72.484375 
Q 59.328125 70.75 64.40625 67.28125 
z
" id="DejaVuSans-67"/>
      <path d="M 9.8125 72.90625 
L 24.515625 72.90625 
L 43.109375 23.296875 
L 61.8125 72.90625 
L 76.515625 72.90625 
L 76.515625 0 
L 66.890625 0 
L 66.890625 64.015625 
L 48.09375 14.015625 
L 38.1875 14.015625 
L 19.390625 64.015625 
L 19.390625 0 
L 9.8125 0 
z
" id="DejaVuSans-77"/>
      <path id="DejaVuSans-32"/>
      <path d="M 18.109375 8.203125 
L 18.109375 -20.796875 
L 9.078125 -20.796875 
L 9.078125 54.6875 
L 18.109375 54.6875 
L 18.109375 46.390625 
Q 20.953125 51.265625 25.265625 53.625 
Q 29.59375 56 35.59375 56 
Q 45.5625 56 51.78125 48.09375 
Q 58.015625 40.1875 58.015625 27.296875 
Q 58.015625 14.40625 51.78125 6.484375 
Q 45.5625 -1.421875 35.59375 -1.421875 
Q 29.59375 -1.421875 25.265625 0.953125 
Q 20.953125 3.328125 18.109375 8.203125 
z
M 48.6875 27.296875 
Q 48.6875 37.203125 44.609375 42.84375 
Q 40.53125 48.484375 33.40625 48.484375 
Q 26.265625 48.484375 22.1875 42.84375 
Q 18.109375 37.203125 18.109375 27.296875 
Q 18.109375 17.390625 22.1875 11.75 
Q 26.265625 6.109375 33.40625 6.109375 
Q 40.53125 6.109375 44.609375 11.75 
Q 48.6875 17.390625 48.6875 27.296875 
z
" id="DejaVuSans-112"/>
      <path d="M 48.78125 52.59375 
L 48.78125 44.1875 
Q 44.96875 46.296875 41.140625 47.34375 
Q 37.3125 48.390625 33.40625 48.390625 
Q 24.65625 48.390625 19.8125 42.84375 
Q 14.984375 37.3125 14.984375 27.296875 
Q 14.984375 17.28125 19.8125 11.734375 
Q 24.65625 6.203125 33.40625 6.203125 
Q 37.3125 6.203125 41.140625 7.25 
Q 44.96875 8.296875 48.78125 10.40625 
L 48.78125 2.09375 
Q 45.015625 0.34375 40.984375 -0.53125 
Q 36.96875 -1.421875 32.421875 -1.421875 
Q 20.0625 -1.421875 12.78125 6.34375 
Q 5.515625 14.109375 5.515625 27.296875 
Q 5.515625 40.671875 12.859375 48.328125 
Q 20.21875 56 33.015625 56 
Q 37.15625 56 41.109375 55.140625 
Q 45.0625 54.296875 48.78125 52.59375 
z
" id="DejaVuSans-99"/>
      <path d="M 41.109375 46.296875 
Q 39.59375 47.171875 37.8125 47.578125 
Q 36.03125 48 33.890625 48 
Q 26.265625 48 22.1875 43.046875 
Q 18.109375 38.09375 18.109375 28.8125 
L 18.109375 0 
L 9.078125 0 
L 9.078125 54.6875 
L 18.109375 54.6875 
L 18.109375 46.1875 
Q 20.953125 51.171875 25.484375 53.578125 
Q 30.03125 56 36.53125 56 
Q 37.453125 56 38.578125 55.875 
Q 39.703125 55.765625 41.0625 55.515625 
z
" id="DejaVuSans-114"/>
      <path d="M 31 75.875 
Q 24.46875 64.65625 21.28125 53.65625 
Q 18.109375 42.671875 18.109375 31.390625 
Q 18.109375 20.125 21.3125 9.0625 
Q 24.515625 -2 31 -13.1875 
L 23.1875 -13.1875 
Q 15.875 -1.703125 12.234375 9.375 
Q 8.59375 20.453125 8.59375 31.390625 
Q 8.59375 42.28125 12.203125 53.3125 
Q 15.828125 64.359375 23.1875 75.875 
z
" id="DejaVuSans-40"/>
      <path d="M 30.609375 48.390625 
Q 23.390625 48.390625 19.1875 42.75 
Q 14.984375 37.109375 14.984375 27.296875 
Q 14.984375 17.484375 19.15625 11.84375 
Q 23.34375 6.203125 30.609375 6.203125 
Q 37.796875 6.203125 41.984375 11.859375 
Q 46.1875 17.53125 46.1875 27.296875 
Q 46.1875 37.015625 41.984375 42.703125 
Q 37.796875 48.390625 30.609375 48.390625 
z
M 30.609375 56 
Q 42.328125 56 49.015625 48.375 
Q 55.71875 40.765625 55.71875 27.296875 
Q 55.71875 13.875 49.015625 6.21875 
Q 42.328125 -1.421875 30.609375 -1.421875 
Q 18.84375 -1.421875 12.171875 6.21875 
Q 5.515625 13.875 5.515625 27.296875 
Q 5.515625 40.765625 12.171875 48.375 
Q 18.84375 56 30.609375 56 
z
" id="DejaVuSans-111"/>
      <path d="M 54.890625 33.015625 
L 54.890625 0 
L 45.90625 0 
L 45.90625 32.71875 
Q 45.90625 40.484375 42.875 44.328125 
Q 39.84375 48.1875 33.796875 48.1875 
Q 26.515625 48.1875 22.3125 43.546875 
Q 18.109375 38.921875 18.109375 30.90625 
L 18.109375 0 
L 9.078125 0 
L 9.078125 75.984375 
L 18.109375 75.984375 
L 18.109375 46.1875 
Q 21.34375 51.125 25.703125 53.5625 
Q 30.078125 56 35.796875 56 
Q 45.21875 56 50.046875 50.171875 
Q 54.890625 44.34375 54.890625 33.015625 
z
" id="DejaVuSans-104"/>
      <path d="M 34.28125 27.484375 
Q 23.390625 27.484375 19.1875 25 
Q 14.984375 22.515625 14.984375 16.5 
Q 14.984375 11.71875 18.140625 8.90625 
Q 21.296875 6.109375 26.703125 6.109375 
Q 34.1875 6.109375 38.703125 11.40625 
Q 43.21875 16.703125 43.21875 25.484375 
L 43.21875 27.484375 
z
M 52.203125 31.203125 
L 52.203125 0 
L 43.21875 0 
L 43.21875 8.296875 
Q 40.140625 3.328125 35.546875 0.953125 
Q 30.953125 -1.421875 24.3125 -1.421875 
Q 15.921875 -1.421875 10.953125 3.296875 
Q 6 8.015625 6 15.921875 
Q 6 25.140625 12.171875 29.828125 
Q 18.359375 34.515625 30.609375 34.515625 
L 43.21875 34.515625 
L 43.21875 35.40625 
Q 43.21875 41.609375 39.140625 45 
Q 35.0625 48.390625 27.6875 48.390625 
Q 23 48.390625 18.546875 47.265625 
Q 14.109375 46.140625 10.015625 43.890625 
L 10.015625 52.203125 
Q 14.9375 54.109375 19.578125 55.046875 
Q 24.21875 56 28.609375 56 
Q 40.484375 56 46.34375 49.84375 
Q 52.203125 43.703125 52.203125 31.203125 
z
" id="DejaVuSans-97"/>
      <path d="M 48.6875 27.296875 
Q 48.6875 37.203125 44.609375 42.84375 
Q 40.53125 48.484375 33.40625 48.484375 
Q 26.265625 48.484375 22.1875 42.84375 
Q 18.109375 37.203125 18.109375 27.296875 
Q 18.109375 17.390625 22.1875 11.75 
Q 26.265625 6.109375 33.40625 6.109375 
Q 40.53125 6.109375 44.609375 11.75 
Q 48.6875 17.390625 48.6875 27.296875 
z
M 18.109375 46.390625 
Q 20.953125 51.265625 25.265625 53.625 
Q 29.59375 56 35.59375 56 
Q 45.5625 56 51.78125 48.09375 
Q 58.015625 40.1875 58.015625 27.296875 
Q 58.015625 14.40625 51.78125 6.484375 
Q 45.5625 -1.421875 35.59375 -1.421875 
Q 29.59375 -1.421875 25.265625 0.953125 
Q 20.953125 3.328125 18.109375 8.203125 
L 18.109375 0 
L 9.078125 0 
L 9.078125 75.984375 
L 18.109375 75.984375 
z
" id="DejaVuSans-98"/>
      <path d="M 10.6875 12.40625 
L 21 12.40625 
L 21 0 
L 10.6875 0 
z
" id="DejaVuSans-46"/>
      <path d="M 8.015625 75.875 
L 15.828125 75.875 
Q 23.140625 64.359375 26.78125 53.3125 
Q 30.421875 42.28125 30.421875 31.390625 
Q 30.421875 20.453125 26.78125 9.375 
Q 23.140625 -1.703125 15.828125 -13.1875 
L 8.015625 -13.1875 
Q 14.5 -2 17.703125 9.0625 
Q 20.90625 20.125 20.90625 31.390625 
Q 20.90625 42.671875 17.703125 53.65625 
Q 14.5 64.65625 8.015625 75.875 
z
" id="DejaVuSans-41"/>
      <path d="M 45.40625 46.390625 
L 45.40625 75.984375 
L 54.390625 75.984375 
L 54.390625 0 
L 45.40625 0 
L 45.40625 8.203125 
Q 42.578125 3.328125 38.25 0.953125 
Q 33.9375 -1.421875 27.875 -1.421875 
Q 17.96875 -1.421875 11.734375 6.484375 
Q 5.515625 14.40625 5.515625 27.296875 
Q 5.515625 40.1875 11.734375 48.09375 
Q 17.96875 56 27.875 56 
Q 33.9375 56 38.25 53.625 
Q 42.578125 51.265625 45.40625 46.390625 
z
M 14.796875 27.296875 
Q 14.796875 17.390625 18.875 11.75 
Q 22.953125 6.109375 30.078125 6.109375 
Q 37.203125 6.109375 41.296875 11.75 
Q 45.40625 17.390625 45.40625 27.296875 
Q 45.40625 37.203125 41.296875 42.84375 
Q 37.203125 48.484375 30.078125 48.484375 
Q 22.953125 48.484375 18.875 42.84375 
Q 14.796875 37.203125 14.796875 27.296875 
z
" id="DejaVuSans-100"/>
      <path d="M 9.421875 54.6875 
L 18.40625 54.6875 
L 18.40625 0 
L 9.421875 0 
z
M 9.421875 75.984375 
L 18.40625 75.984375 
L 18.40625 64.59375 
L 9.421875 64.59375 
z
" id="DejaVuSans-105"/>
      <path d="M 44.28125 53.078125 
L 44.28125 44.578125 
Q 40.484375 46.53125 36.375 47.5 
Q 32.28125 48.484375 27.875 48.484375 
Q 21.1875 48.484375 17.84375 46.4375 
Q 14.5 44.390625 14.5 40.28125 
Q 14.5 37.15625 16.890625 35.375 
Q 19.28125 33.59375 26.515625 31.984375 
L 29.59375 31.296875 
Q 39.15625 29.25 43.1875 25.515625 
Q 47.21875 21.78125 47.21875 15.09375 
Q 47.21875 7.46875 41.1875 3.015625 
Q 35.15625 -1.421875 24.609375 -1.421875 
Q 20.21875 -1.421875 15.453125 -0.5625 
Q 10.6875 0.296875 5.421875 2 
L 5.421875 11.28125 
Q 10.40625 8.6875 15.234375 7.390625 
Q 20.0625 6.109375 24.8125 6.109375 
Q 31.15625 6.109375 34.5625 8.28125 
Q 37.984375 10.453125 37.984375 14.40625 
Q 37.984375 18.0625 35.515625 20.015625 
Q 33.0625 21.96875 24.703125 23.78125 
L 21.578125 24.515625 
Q 13.234375 26.265625 9.515625 29.90625 
Q 5.8125 33.546875 5.8125 39.890625 
Q 5.8125 47.609375 11.28125 51.796875 
Q 16.75 56 26.8125 56 
Q 31.78125 56 36.171875 55.265625 
Q 40.578125 54.546875 44.28125 53.078125 
z
" id="DejaVuSans-115"/>
     </defs>
     <g transform="translate(18.398438 228.071134)rotate(-90)scale(0.1 -0.1)">
      <use xlink:href="#DejaVuSans-67"/>
      <use x="69.824219" xlink:href="#DejaVuSans-77"/>
      <use x="156.103516" xlink:href="#DejaVuSans-32"/>
      <use x="187.890625" xlink:href="#DejaVuSans-112"/>
      <use x="251.367188" xlink:href="#DejaVuSans-99"/>
      <use x="306.347656" xlink:href="#DejaVuSans-114"/>
      <use x="347.460938" xlink:href="#DejaVuSans-32"/>
      <use x="379.248047" xlink:href="#DejaVuSans-40"/>
      <use x="418.261719" xlink:href="#DejaVuSans-112"/>
      <use x="481.738281" xlink:href="#DejaVuSans-111"/>
      <use x="542.919922" xlink:href="#DejaVuSans-114"/>
      <use x="584.033203" xlink:href="#DejaVuSans-32"/>
      <use x="615.820312" xlink:href="#DejaVuSans-49"/>
      <use x="679.443359" xlink:href="#DejaVuSans-48"/>
      <use x="743.066406" xlink:href="#DejaVuSans-48"/>
      <use x="806.689453" xlink:href="#DejaVuSans-48"/>
      <use x="870.3125" xlink:href="#DejaVuSans-48"/>
      <use x="933.935547" xlink:href="#DejaVuSans-48"/>
      <use x="997.558594" xlink:href="#DejaVuSans-32"/>
      <use x="1029.345703" xlink:href="#DejaVuSans-104"/>
      <use x="1092.724609" xlink:href="#DejaVuSans-97"/>
      <use x="1154.003906" xlink:href="#DejaVuSans-98"/>
      <use x="1217.480469" xlink:href="#DejaVuSans-46"/>
      <use x="1249.267578" xlink:href="#DejaVuSans-41"/>
      <use x="1288.28125" xlink:href="#DejaVuSans-32"/>
      <use x="1320.068359" xlink:href="#DejaVuSans-100"/>
      <use x="1383.544922" xlink:href="#DejaVuSans-105"/>
      <use x="1411.328125" xlink:href="#DejaVuSans-97"/>
      <use x="1472.607422" xlink:href="#DejaVuSans-114"/>
      <use x="1513.720703" xlink:href="#DejaVuSans-105"/>
      <use x="1541.503906" xlink:href="#DejaVuSans-111"/>
      <use x="1602.685547" xlink:href="#DejaVuSans-115"/>
     </g>
    </g>
   </g>
   <g id="line2d_13">
    <path clip-path="url(#p1cf5191f04)" d="M 70.64723 102.406252 
L 75.2205 102.406252 
L 79.793771 102.406252 
L 84.367041 102.406252 
L 88.940311 102.406252 
L 93.513582 102.406252 
L 98.086852 102.406252 
L 102.660122 102.406252 
L 107.233392 102.312427 
L 111.806663 102.218602 
L 116.379933 102.030951 
L 120.953203 101.937126 
L 125.526473 102.312427 
L 130.099744 102.218602 
L 134.673014 102.406252 
L 139.246284 102.406252 
L 143.819555 101.374175 
L 148.392825 101.186524 
L 152.966095 99.403845 
L 157.539365 98.277943 
L 162.112636 94.99406 
L 166.685906 93.492856 
L 171.259176 91.897828 
L 175.832447 86.831266 
L 180.405717 102.406252 
L 184.978987 92.273129 
L 189.552257 90.584275 
L 194.125528 79.606724 
L 198.698798 66.846494 
L 203.272068 65.251466 
L 207.845339 78.105521 
L 212.418609 66.095893 
L 216.991879 72.851308 
L 221.565149 45.829645 
L 226.13842 50.708557 
L 230.71169 48.175276 
L 235.28496 33.538542 
L 239.858231 44.985218 
L 244.431501 49.301178 
L 249.004771 43.953141 
L 253.578041 42.827238 
L 258.151312 23.499243 
L 262.724582 27.252252 
L 267.297852 36.071823 
L 271.871123 48.832052 
L 276.444393 57.839273 
L 281.017663 35.696522 
L 285.590933 36.634774 
L 290.164204 48.550577 
L 294.737474 65.532941 
L 299.310744 79.700549 
L 303.884014 69.004474 
L 308.457285 76.604317 
L 313.030555 69.473601 
L 317.603825 58.214574 
L 322.177096 23.030117 
L 326.750366 69.379775 
L 331.323636 267.632462 
L 335.896906 89.552197 
L 340.470177 82.609131 
L 345.043447 91.428702 
L 349.616717 95.369361 
L 354.189988 80.169675 
L 358.763258 88.895421 
L 363.336528 93.02373 
L 367.909798 97.245865 
L 372.483069 98.465593 
L 377.056339 94.99406 
L 381.629609 97.996467 
L 386.20288 95.087885 
L 390.77615 97.058215 
L 395.34942 97.714991 
L 399.92269 99.31002 
L 404.495961 99.591496 
L 409.069231 96.401438 
L 413.642501 98.653244 
L 418.215772 97.433516 
L 422.789042 98.559418 
L 427.362312 96.307613 
L 431.935582 98.277943 
" style="fill:none;stroke:#1f77b4;stroke-linecap:square;stroke-width:1.5;"/>
    <defs>
     <path d="M 0 1.5 
C 0.397805 1.5 0.77937 1.341951 1.06066 1.06066 
C 1.341951 0.77937 1.5 0.397805 1.5 0 
C 1.5 -0.397805 1.341951 -0.77937 1.06066 -1.06066 
C 0.77937 -1.341951 0.397805 -1.5 0 -1.5 
C -0.397805 -1.5 -0.77937 -1.341951 -1.06066 -1.06066 
C -1.341951 -0.77937 -1.5 -0.397805 -1.5 0 
C -1.5 0.397805 -1.341951 0.77937 -1.06066 1.06066 
C -0.77937 1.341951 -0.397805 1.5 0 1.5 
z
" id="m49ef1dd75a" style="stroke:#1f77b4;"/>
    </defs>
    <g clip-path="url(#p1cf5191f04)">
     <use style="fill:#1f77b4;stroke:#1f77b4;" x="70.64723" xlink:href="#m49ef1dd75a" y="102.406252"/>
     <use style="fill:#1f77b4;stroke:#1f77b4;" x="75.2205" xlink:href="#m49ef1dd75a" y="102.406252"/>
     <use style="fill:#1f77b4;stroke:#1f77b4;" x="79.793771" xlink:href="#m49ef1dd75a" y="102.406252"/>
     <use style="fill:#1f77b4;stroke:#1f77b4;" x="84.367041" xlink:href="#m49ef1dd75a" y="102.406252"/>
     <use style="fill:#1f77b4;stroke:#1f77b4;" x="88.940311" xlink:href="#m49ef1dd75a" y="102.406252"/>
     <use style="fill:#1f77b4;stroke:#1f77b4;" x="93.513582" xlink:href="#m49ef1dd75a" y="102.406252"/>
     <use style="fill:#1f77b4;stroke:#1f77b4;" x="98.086852" xlink:href="#m49ef1dd75a" y="102.406252"/>
     <use style="fill:#1f77b4;stroke:#1f77b4;" x="102.660122" xlink:href="#m49ef1dd75a" y="102.406252"/>
     <use style="fill:#1f77b4;stroke:#1f77b4;" x="107.233392" xlink:href="#m49ef1dd75a" y="102.312427"/>
     <use style="fill:#1f77b4;stroke:#1f77b4;" x="111.806663" xlink:href="#m49ef1dd75a" y="102.218602"/>
     <use style="fill:#1f77b4;stroke:#1f77b4;" x="116.379933" xlink:href="#m49ef1dd75a" y="102.030951"/>
     <use style="fill:#1f77b4;stroke:#1f77b4;" x="120.953203" xlink:href="#m49ef1dd75a" y="101.937126"/>
     <use style="fill:#1f77b4;stroke:#1f77b4;" x="125.526473" xlink:href="#m49ef1dd75a" y="102.312427"/>
     <use style="fill:#1f77b4;stroke:#1f77b4;" x="130.099744" xlink:href="#m49ef1dd75a" y="102.218602"/>
     <use style="fill:#1f77b4;stroke:#1f77b4;" x="134.673014" xlink:href="#m49ef1dd75a" y="102.406252"/>
     <use style="fill:#1f77b4;stroke:#1f77b4;" x="139.246284" xlink:href="#m49ef1dd75a" y="102.406252"/>
     <use style="fill:#1f77b4;stroke:#1f77b4;" x="143.819555" xlink:href="#m49ef1dd75a" y="101.374175"/>
     <use style="fill:#1f77b4;stroke:#1f77b4;" x="148.392825" xlink:href="#m49ef1dd75a" y="101.186524"/>
     <use style="fill:#1f77b4;stroke:#1f77b4;" x="152.966095" xlink:href="#m49ef1dd75a" y="99.403845"/>
     <use style="fill:#1f77b4;stroke:#1f77b4;" x="157.539365" xlink:href="#m49ef1dd75a" y="98.277943"/>
     <use style="fill:#1f77b4;stroke:#1f77b4;" x="162.112636" xlink:href="#m49ef1dd75a" y="94.99406"/>
     <use style="fill:#1f77b4;stroke:#1f77b4;" x="166.685906" xlink:href="#m49ef1dd75a" y="93.492856"/>
     <use style="fill:#1f77b4;stroke:#1f77b4;" x="171.259176" xlink:href="#m49ef1dd75a" y="91.897828"/>
     <use style="fill:#1f77b4;stroke:#1f77b4;" x="175.832447" xlink:href="#m49ef1dd75a" y="86.831266"/>
     <use style="fill:#1f77b4;stroke:#1f77b4;" x="180.405717" xlink:href="#m49ef1dd75a" y="102.406252"/>
     <use style="fill:#1f77b4;stroke:#1f77b4;" x="184.978987" xlink:href="#m49ef1dd75a" y="92.273129"/>
     <use style="fill:#1f77b4;stroke:#1f77b4;" x="189.552257" xlink:href="#m49ef1dd75a" y="90.584275"/>
     <use style="fill:#1f77b4;stroke:#1f77b4;" x="194.125528" xlink:href="#m49ef1dd75a" y="79.606724"/>
     <use style="fill:#1f77b4;stroke:#1f77b4;" x="198.698798" xlink:href="#m49ef1dd75a" y="66.846494"/>
     <use style="fill:#1f77b4;stroke:#1f77b4;" x="203.272068" xlink:href="#m49ef1dd75a" y="65.251466"/>
     <use style="fill:#1f77b4;stroke:#1f77b4;" x="207.845339" xlink:href="#m49ef1dd75a" y="78.105521"/>
     <use style="fill:#1f77b4;stroke:#1f77b4;" x="212.418609" xlink:href="#m49ef1dd75a" y="66.095893"/>
     <use style="fill:#1f77b4;stroke:#1f77b4;" x="216.991879" xlink:href="#m49ef1dd75a" y="72.851308"/>
     <use style="fill:#1f77b4;stroke:#1f77b4;" x="221.565149" xlink:href="#m49ef1dd75a" y="45.829645"/>
     <use style="fill:#1f77b4;stroke:#1f77b4;" x="226.13842" xlink:href="#m49ef1dd75a" y="50.708557"/>
     <use style="fill:#1f77b4;stroke:#1f77b4;" x="230.71169" xlink:href="#m49ef1dd75a" y="48.175276"/>
     <use style="fill:#1f77b4;stroke:#1f77b4;" x="235.28496" xlink:href="#m49ef1dd75a" y="33.538542"/>
     <use style="fill:#1f77b4;stroke:#1f77b4;" x="239.858231" xlink:href="#m49ef1dd75a" y="44.985218"/>
     <use style="fill:#1f77b4;stroke:#1f77b4;" x="244.431501" xlink:href="#m49ef1dd75a" y="49.301178"/>
     <use style="fill:#1f77b4;stroke:#1f77b4;" x="249.004771" xlink:href="#m49ef1dd75a" y="43.953141"/>
     <use style="fill:#1f77b4;stroke:#1f77b4;" x="253.578041" xlink:href="#m49ef1dd75a" y="42.827238"/>
     <use style="fill:#1f77b4;stroke:#1f77b4;" x="258.151312" xlink:href="#m49ef1dd75a" y="23.499243"/>
     <use style="fill:#1f77b4;stroke:#1f77b4;" x="262.724582" xlink:href="#m49ef1dd75a" y="27.252252"/>
     <use style="fill:#1f77b4;stroke:#1f77b4;" x="267.297852" xlink:href="#m49ef1dd75a" y="36.071823"/>
     <use style="fill:#1f77b4;stroke:#1f77b4;" x="271.871123" xlink:href="#m49ef1dd75a" y="48.832052"/>
     <use style="fill:#1f77b4;stroke:#1f77b4;" x="276.444393" xlink:href="#m49ef1dd75a" y="57.839273"/>
     <use style="fill:#1f77b4;stroke:#1f77b4;" x="281.017663" xlink:href="#m49ef1dd75a" y="35.696522"/>
     <use style="fill:#1f77b4;stroke:#1f77b4;" x="285.590933" xlink:href="#m49ef1dd75a" y="36.634774"/>
     <use style="fill:#1f77b4;stroke:#1f77b4;" x="290.164204" xlink:href="#m49ef1dd75a" y="48.550577"/>
     <use style="fill:#1f77b4;stroke:#1f77b4;" x="294.737474" xlink:href="#m49ef1dd75a" y="65.532941"/>
     <use style="fill:#1f77b4;stroke:#1f77b4;" x="299.310744" xlink:href="#m49ef1dd75a" y="79.700549"/>
     <use style="fill:#1f77b4;stroke:#1f77b4;" x="303.884014" xlink:href="#m49ef1dd75a" y="69.004474"/>
     <use style="fill:#1f77b4;stroke:#1f77b4;" x="308.457285" xlink:href="#m49ef1dd75a" y="76.604317"/>
     <use style="fill:#1f77b4;stroke:#1f77b4;" x="313.030555" xlink:href="#m49ef1dd75a" y="69.473601"/>
     <use style="fill:#1f77b4;stroke:#1f77b4;" x="317.603825" xlink:href="#m49ef1dd75a" y="58.214574"/>
     <use style="fill:#1f77b4;stroke:#1f77b4;" x="322.177096" xlink:href="#m49ef1dd75a" y="23.030117"/>
     <use style="fill:#1f77b4;stroke:#1f77b4;" x="326.750366" xlink:href="#m49ef1dd75a" y="69.379775"/>
     <use style="fill:#1f77b4;stroke:#1f77b4;" x="331.323636" xlink:href="#m49ef1dd75a" y="267.632462"/>
     <use style="fill:#1f77b4;stroke:#1f77b4;" x="335.896906" xlink:href="#m49ef1dd75a" y="89.552197"/>
     <use style="fill:#1f77b4;stroke:#1f77b4;" x="340.470177" xlink:href="#m49ef1dd75a" y="82.609131"/>
     <use style="fill:#1f77b4;stroke:#1f77b4;" x="345.043447" xlink:href="#m49ef1dd75a" y="91.428702"/>
     <use style="fill:#1f77b4;stroke:#1f77b4;" x="349.616717" xlink:href="#m49ef1dd75a" y="95.369361"/>
     <use style="fill:#1f77b4;stroke:#1f77b4;" x="354.189988" xlink:href="#m49ef1dd75a" y="80.169675"/>
     <use style="fill:#1f77b4;stroke:#1f77b4;" x="358.763258" xlink:href="#m49ef1dd75a" y="88.895421"/>
     <use style="fill:#1f77b4;stroke:#1f77b4;" x="363.336528" xlink:href="#m49ef1dd75a" y="93.02373"/>
     <use style="fill:#1f77b4;stroke:#1f77b4;" x="367.909798" xlink:href="#m49ef1dd75a" y="97.245865"/>
     <use style="fill:#1f77b4;stroke:#1f77b4;" x="372.483069" xlink:href="#m49ef1dd75a" y="98.465593"/>
     <use style="fill:#1f77b4;stroke:#1f77b4;" x="377.056339" xlink:href="#m49ef1dd75a" y="94.99406"/>
     <use style="fill:#1f77b4;stroke:#1f77b4;" x="381.629609" xlink:href="#m49ef1dd75a" y="97.996467"/>
     <use style="fill:#1f77b4;stroke:#1f77b4;" x="386.20288" xlink:href="#m49ef1dd75a" y="95.087885"/>
     <use style="fill:#1f77b4;stroke:#1f77b4;" x="390.77615" xlink:href="#m49ef1dd75a" y="97.058215"/>
     <use style="fill:#1f77b4;stroke:#1f77b4;" x="395.34942" xlink:href="#m49ef1dd75a" y="97.714991"/>
     <use style="fill:#1f77b4;stroke:#1f77b4;" x="399.92269" xlink:href="#m49ef1dd75a" y="99.31002"/>
     <use style="fill:#1f77b4;stroke:#1f77b4;" x="404.495961" xlink:href="#m49ef1dd75a" y="99.591496"/>
     <use style="fill:#1f77b4;stroke:#1f77b4;" x="409.069231" xlink:href="#m49ef1dd75a" y="96.401438"/>
     <use style="fill:#1f77b4;stroke:#1f77b4;" x="413.642501" xlink:href="#m49ef1dd75a" y="98.653244"/>
     <use style="fill:#1f77b4;stroke:#1f77b4;" x="418.215772" xlink:href="#m49ef1dd75a" y="97.433516"/>
     <use style="fill:#1f77b4;stroke:#1f77b4;" x="422.789042" xlink:href="#m49ef1dd75a" y="98.559418"/>
     <use style="fill:#1f77b4;stroke:#1f77b4;" x="427.362312" xlink:href="#m49ef1dd75a" y="96.307613"/>
     <use style="fill:#1f77b4;stroke:#1f77b4;" x="431.935582" xlink:href="#m49ef1dd75a" y="98.277943"/>
    </g>
   </g>
   <g id="patch_3">
    <path d="M 52.582813 279.86258 
L 52.582813 10.8 
" style="fill:none;stroke:#000000;stroke-linecap:square;stroke-linejoin:miter;stroke-width:0.8;"/>
   </g>
   <g id="patch_4">
    <path d="M 450 279.86258 
L 450 10.8 
" style="fill:none;stroke:#000000;stroke-linecap:square;stroke-linejoin:miter;stroke-width:0.8;"/>
   </g>
   <g id="patch_5">
    <path d="M 52.582813 279.86258 
L 450 279.86258 
" style="fill:none;stroke:#000000;stroke-linecap:square;stroke-linejoin:miter;stroke-width:0.8;"/>
   </g>
   <g id="patch_6">
    <path d="M 52.582813 10.8 
L 450 10.8 
" style="fill:none;stroke:#000000;stroke-linecap:square;stroke-linejoin:miter;stroke-width:0.8;"/>
   </g>
  </g>
 </g>
 <defs>
  <clipPath id="p1cf5191f04">
   <rect height="269.06258" width="397.417187" x="52.582813" y="10.8"/>
  </clipPath>
 </defs>
</svg>
