<?xml version="1.0" encoding="utf-8" standalone="no"?>
<!DOCTYPE svg PUBLIC "-//W3C//DTD SVG 1.1//EN"
  "http://www.w3.org/Graphics/SVG/1.1/DTD/svg11.dtd">
<!-- Created with matplotlib (https://matplotlib.org/) -->
<svg height="345.6pt" version="1.1" viewBox="0 0 460.8 345.6" width="460.8pt" xmlns="http://www.w3.org/2000/svg" xmlns:xlink="http://www.w3.org/1999/xlink">
 <defs>
  <style type="text/css">
*{stroke-linecap:butt;stroke-linejoin:round;}
  </style>
 </defs>
 <g id="figure_1">
  <g id="patch_1">
   <path d="M 0 345.6 
L 460.8 345.6 
L 460.8 0 
L 0 0 
z
" style="fill:#ffffff;"/>
  </g>
  <g id="axes_1">
   <g id="patch_2">
    <path d="M 44.203125 279.86258 
L 430.239775 279.86258 
L 430.239775 10.8 
L 44.203125 10.8 
z
" style="fill:#ffffff;"/>
   </g>
   <g id="matplotlib.axis_1">
    <g id="xtick_1">
     <g id="line2d_1">
      <defs>
       <path d="M 0 0 
L 0 3.5 
" id="mdb95ebc601" style="stroke:#000000;stroke-width:0.8;"/>
      </defs>
      <g>
       <use style="stroke:#000000;stroke-width:0.8;" x="100.743846" xlink:href="#mdb95ebc601" y="279.86258"/>
      </g>
     </g>
     <g id="text_1">
      <!-- 2020-03-01 -->
      <defs>
       <path d="M 19.1875 8.296875 
L 53.609375 8.296875 
L 53.609375 0 
L 7.328125 0 
L 7.328125 8.296875 
Q 12.9375 14.109375 22.625 23.890625 
Q 32.328125 33.6875 34.8125 36.53125 
Q 39.546875 41.84375 41.421875 45.53125 
Q 43.3125 49.21875 43.3125 52.78125 
Q 43.3125 58.59375 39.234375 62.25 
Q 35.15625 65.921875 28.609375 65.921875 
Q 23.96875 65.921875 18.8125 64.3125 
Q 13.671875 62.703125 7.8125 59.421875 
L 7.8125 69.390625 
Q 13.765625 71.78125 18.9375 73 
Q 24.125 74.21875 28.421875 74.21875 
Q 39.75 74.21875 46.484375 68.546875 
Q 53.21875 62.890625 53.21875 53.421875 
Q 53.21875 48.921875 51.53125 44.890625 
Q 49.859375 40.875 45.40625 35.40625 
Q 44.1875 33.984375 37.640625 27.21875 
Q 31.109375 20.453125 19.1875 8.296875 
z
" id="DejaVuSans-50"/>
       <path d="M 31.78125 66.40625 
Q 24.171875 66.40625 20.328125 58.90625 
Q 16.5 51.421875 16.5 36.375 
Q 16.5 21.390625 20.328125 13.890625 
Q 24.171875 6.390625 31.78125 6.390625 
Q 39.453125 6.390625 43.28125 13.890625 
Q 47.125 21.390625 47.125 36.375 
Q 47.125 51.421875 43.28125 58.90625 
Q 39.453125 66.40625 31.78125 66.40625 
z
M 31.78125 74.21875 
Q 44.046875 74.21875 50.515625 64.515625 
Q 56.984375 54.828125 56.984375 36.375 
Q 56.984375 17.96875 50.515625 8.265625 
Q 44.046875 -1.421875 31.78125 -1.421875 
Q 19.53125 -1.421875 13.0625 8.265625 
Q 6.59375 17.96875 6.59375 36.375 
Q 6.59375 54.828125 13.0625 64.515625 
Q 19.53125 74.21875 31.78125 74.21875 
z
" id="DejaVuSans-48"/>
       <path d="M 4.890625 31.390625 
L 31.203125 31.390625 
L 31.203125 23.390625 
L 4.890625 23.390625 
z
" id="DejaVuSans-45"/>
       <path d="M 40.578125 39.3125 
Q 47.65625 37.796875 51.625 33 
Q 55.609375 28.21875 55.609375 21.1875 
Q 55.609375 10.40625 48.1875 4.484375 
Q 40.765625 -1.421875 27.09375 -1.421875 
Q 22.515625 -1.421875 17.65625 -0.515625 
Q 12.796875 0.390625 7.625 2.203125 
L 7.625 11.71875 
Q 11.71875 9.328125 16.59375 8.109375 
Q 21.484375 6.890625 26.8125 6.890625 
Q 36.078125 6.890625 40.9375 10.546875 
Q 45.796875 14.203125 45.796875 21.1875 
Q 45.796875 27.640625 41.28125 31.265625 
Q 36.765625 34.90625 28.71875 34.90625 
L 20.21875 34.90625 
L 20.21875 43.015625 
L 29.109375 43.015625 
Q 36.375 43.015625 40.234375 45.921875 
Q 44.09375 48.828125 44.09375 54.296875 
Q 44.09375 59.90625 40.109375 62.90625 
Q 36.140625 65.921875 28.71875 65.921875 
Q 24.65625 65.921875 20.015625 65.03125 
Q 15.375 64.15625 9.8125 62.3125 
L 9.8125 71.09375 
Q 15.4375 72.65625 20.34375 73.4375 
Q 25.25 74.21875 29.59375 74.21875 
Q 40.828125 74.21875 47.359375 69.109375 
Q 53.90625 64.015625 53.90625 55.328125 
Q 53.90625 49.265625 50.4375 45.09375 
Q 46.96875 40.921875 40.578125 39.3125 
z
" id="DejaVuSans-51"/>
       <path d="M 12.40625 8.296875 
L 28.515625 8.296875 
L 28.515625 63.921875 
L 10.984375 60.40625 
L 10.984375 69.390625 
L 28.421875 72.90625 
L 38.28125 72.90625 
L 38.28125 8.296875 
L 54.390625 8.296875 
L 54.390625 0 
L 12.40625 0 
z
" id="DejaVuSans-49"/>
      </defs>
      <g transform="translate(82.148043 333.329439)rotate(-45)scale(0.1 -0.1)">
       <use xlink:href="#DejaVuSans-50"/>
       <use x="63.623047" xlink:href="#DejaVuSans-48"/>
       <use x="127.246094" xlink:href="#DejaVuSans-50"/>
       <use x="190.869141" xlink:href="#DejaVuSans-48"/>
       <use x="254.492188" xlink:href="#DejaVuSans-45"/>
       <use x="290.576172" xlink:href="#DejaVuSans-48"/>
       <use x="354.199219" xlink:href="#DejaVuSans-51"/>
       <use x="417.822266" xlink:href="#DejaVuSans-45"/>
       <use x="453.90625" xlink:href="#DejaVuSans-48"/>
       <use x="517.529297" xlink:href="#DejaVuSans-49"/>
      </g>
     </g>
    </g>
    <g id="xtick_2">
     <g id="line2d_2">
      <g>
       <use style="stroke:#000000;stroke-width:0.8;" x="161.400559" xlink:href="#mdb95ebc601" y="279.86258"/>
      </g>
     </g>
     <g id="text_2">
      <!-- 2020-03-15 -->
      <defs>
       <path d="M 10.796875 72.90625 
L 49.515625 72.90625 
L 49.515625 64.59375 
L 19.828125 64.59375 
L 19.828125 46.734375 
Q 21.96875 47.46875 24.109375 47.828125 
Q 26.265625 48.1875 28.421875 48.1875 
Q 40.625 48.1875 47.75 41.5 
Q 54.890625 34.8125 54.890625 23.390625 
Q 54.890625 11.625 47.5625 5.09375 
Q 40.234375 -1.421875 26.90625 -1.421875 
Q 22.3125 -1.421875 17.546875 -0.640625 
Q 12.796875 0.140625 7.71875 1.703125 
L 7.71875 11.625 
Q 12.109375 9.234375 16.796875 8.0625 
Q 21.484375 6.890625 26.703125 6.890625 
Q 35.15625 6.890625 40.078125 11.328125 
Q 45.015625 15.765625 45.015625 23.390625 
Q 45.015625 31 40.078125 35.4375 
Q 35.15625 39.890625 26.703125 39.890625 
Q 22.75 39.890625 18.8125 39.015625 
Q 14.890625 38.140625 10.796875 36.28125 
z
" id="DejaVuSans-53"/>
      </defs>
      <g transform="translate(142.804756 333.329439)rotate(-45)scale(0.1 -0.1)">
       <use xlink:href="#DejaVuSans-50"/>
       <use x="63.623047" xlink:href="#DejaVuSans-48"/>
       <use x="127.246094" xlink:href="#DejaVuSans-50"/>
       <use x="190.869141" xlink:href="#DejaVuSans-48"/>
       <use x="254.492188" xlink:href="#DejaVuSans-45"/>
       <use x="290.576172" xlink:href="#DejaVuSans-48"/>
       <use x="354.199219" xlink:href="#DejaVuSans-51"/>
       <use x="417.822266" xlink:href="#DejaVuSans-45"/>
       <use x="453.90625" xlink:href="#DejaVuSans-49"/>
       <use x="517.529297" xlink:href="#DejaVuSans-53"/>
      </g>
     </g>
    </g>
    <g id="xtick_3">
     <g id="line2d_3">
      <g>
       <use style="stroke:#000000;stroke-width:0.8;" x="235.055139" xlink:href="#mdb95ebc601" y="279.86258"/>
      </g>
     </g>
     <g id="text_3">
      <!-- 2020-04-01 -->
      <defs>
       <path d="M 37.796875 64.3125 
L 12.890625 25.390625 
L 37.796875 25.390625 
z
M 35.203125 72.90625 
L 47.609375 72.90625 
L 47.609375 25.390625 
L 58.015625 25.390625 
L 58.015625 17.1875 
L 47.609375 17.1875 
L 47.609375 0 
L 37.796875 0 
L 37.796875 17.1875 
L 4.890625 17.1875 
L 4.890625 26.703125 
z
" id="DejaVuSans-52"/>
      </defs>
      <g transform="translate(216.459335 333.329439)rotate(-45)scale(0.1 -0.1)">
       <use xlink:href="#DejaVuSans-50"/>
       <use x="63.623047" xlink:href="#DejaVuSans-48"/>
       <use x="127.246094" xlink:href="#DejaVuSans-50"/>
       <use x="190.869141" xlink:href="#DejaVuSans-48"/>
       <use x="254.492188" xlink:href="#DejaVuSans-45"/>
       <use x="290.576172" xlink:href="#DejaVuSans-48"/>
       <use x="354.199219" xlink:href="#DejaVuSans-52"/>
       <use x="417.822266" xlink:href="#DejaVuSans-45"/>
       <use x="453.90625" xlink:href="#DejaVuSans-48"/>
       <use x="517.529297" xlink:href="#DejaVuSans-49"/>
      </g>
     </g>
    </g>
    <g id="xtick_4">
     <g id="line2d_4">
      <g>
       <use style="stroke:#000000;stroke-width:0.8;" x="295.711851" xlink:href="#mdb95ebc601" y="279.86258"/>
      </g>
     </g>
     <g id="text_4">
      <!-- 2020-04-15 -->
      <g transform="translate(277.116048 333.329439)rotate(-45)scale(0.1 -0.1)">
       <use xlink:href="#DejaVuSans-50"/>
       <use x="63.623047" xlink:href="#DejaVuSans-48"/>
       <use x="127.246094" xlink:href="#DejaVuSans-50"/>
       <use x="190.869141" xlink:href="#DejaVuSans-48"/>
       <use x="254.492188" xlink:href="#DejaVuSans-45"/>
       <use x="290.576172" xlink:href="#DejaVuSans-48"/>
       <use x="354.199219" xlink:href="#DejaVuSans-52"/>
       <use x="417.822266" xlink:href="#DejaVuSans-45"/>
       <use x="453.90625" xlink:href="#DejaVuSans-49"/>
       <use x="517.529297" xlink:href="#DejaVuSans-53"/>
      </g>
     </g>
    </g>
    <g id="xtick_5">
     <g id="line2d_5">
      <g>
       <use style="stroke:#000000;stroke-width:0.8;" x="365.033809" xlink:href="#mdb95ebc601" y="279.86258"/>
      </g>
     </g>
     <g id="text_5">
      <!-- 2020-05-01 -->
      <g transform="translate(346.438005 333.329439)rotate(-45)scale(0.1 -0.1)">
       <use xlink:href="#DejaVuSans-50"/>
       <use x="63.623047" xlink:href="#DejaVuSans-48"/>
       <use x="127.246094" xlink:href="#DejaVuSans-50"/>
       <use x="190.869141" xlink:href="#DejaVuSans-48"/>
       <use x="254.492188" xlink:href="#DejaVuSans-45"/>
       <use x="290.576172" xlink:href="#DejaVuSans-48"/>
       <use x="354.199219" xlink:href="#DejaVuSans-53"/>
       <use x="417.822266" xlink:href="#DejaVuSans-45"/>
       <use x="453.90625" xlink:href="#DejaVuSans-48"/>
       <use x="517.529297" xlink:href="#DejaVuSans-49"/>
      </g>
     </g>
    </g>
    <g id="xtick_6">
     <g id="line2d_6">
      <g>
       <use style="stroke:#000000;stroke-width:0.8;" x="425.690521" xlink:href="#mdb95ebc601" y="279.86258"/>
      </g>
     </g>
     <g id="text_6">
      <!-- 2020-05-15 -->
      <g transform="translate(407.094718 333.329439)rotate(-45)scale(0.1 -0.1)">
       <use xlink:href="#DejaVuSans-50"/>
       <use x="63.623047" xlink:href="#DejaVuSans-48"/>
       <use x="127.246094" xlink:href="#DejaVuSans-50"/>
       <use x="190.869141" xlink:href="#DejaVuSans-48"/>
       <use x="254.492188" xlink:href="#DejaVuSans-45"/>
       <use x="290.576172" xlink:href="#DejaVuSans-48"/>
       <use x="354.199219" xlink:href="#DejaVuSans-53"/>
       <use x="417.822266" xlink:href="#DejaVuSans-45"/>
       <use x="453.90625" xlink:href="#DejaVuSans-49"/>
       <use x="517.529297" xlink:href="#DejaVuSans-53"/>
      </g>
     </g>
    </g>
   </g>
   <g id="matplotlib.axis_2">
    <g id="ytick_1">
     <g id="line2d_7">
      <defs>
       <path d="M 0 0 
L -3.5 0 
" id="mf85011a6e6" style="stroke:#000000;stroke-width:0.8;"/>
      </defs>
      <g>
       <use style="stroke:#000000;stroke-width:0.8;" x="44.203125" xlink:href="#mf85011a6e6" y="279.86258"/>
      </g>
     </g>
     <g id="text_7">
      <!-- 0 -->
      <g transform="translate(30.840625 283.661798)scale(0.1 -0.1)">
       <use xlink:href="#DejaVuSans-48"/>
      </g>
     </g>
    </g>
    <g id="ytick_2">
     <g id="line2d_8">
      <g>
       <use style="stroke:#000000;stroke-width:0.8;" x="44.203125" xlink:href="#mf85011a6e6" y="223.647018"/>
      </g>
     </g>
     <g id="text_8">
      <!-- 5 -->
      <g transform="translate(30.840625 227.446237)scale(0.1 -0.1)">
       <use xlink:href="#DejaVuSans-53"/>
      </g>
     </g>
    </g>
    <g id="ytick_3">
     <g id="line2d_9">
      <g>
       <use style="stroke:#000000;stroke-width:0.8;" x="44.203125" xlink:href="#mf85011a6e6" y="167.431457"/>
      </g>
     </g>
     <g id="text_9">
      <!-- 10 -->
      <g transform="translate(24.478125 171.230676)scale(0.1 -0.1)">
       <use xlink:href="#DejaVuSans-49"/>
       <use x="63.623047" xlink:href="#DejaVuSans-48"/>
      </g>
     </g>
    </g>
    <g id="ytick_4">
     <g id="line2d_10">
      <g>
       <use style="stroke:#000000;stroke-width:0.8;" x="44.203125" xlink:href="#mf85011a6e6" y="111.215896"/>
      </g>
     </g>
     <g id="text_10">
      <!-- 15 -->
      <g transform="translate(24.478125 115.015115)scale(0.1 -0.1)">
       <use xlink:href="#DejaVuSans-49"/>
       <use x="63.623047" xlink:href="#DejaVuSans-53"/>
      </g>
     </g>
    </g>
    <g id="ytick_5">
     <g id="line2d_11">
      <g>
       <use style="stroke:#000000;stroke-width:0.8;" x="44.203125" xlink:href="#mf85011a6e6" y="55.000335"/>
      </g>
     </g>
     <g id="text_11">
      <!-- 20 -->
      <g transform="translate(24.478125 58.799554)scale(0.1 -0.1)">
       <use xlink:href="#DejaVuSans-50"/>
       <use x="63.623047" xlink:href="#DejaVuSans-48"/>
      </g>
     </g>
    </g>
    <g id="text_12">
     <!-- GA pcr (por 100000 hab.) diarios -->
     <defs>
      <path d="M 59.515625 10.40625 
L 59.515625 29.984375 
L 43.40625 29.984375 
L 43.40625 38.09375 
L 69.28125 38.09375 
L 69.28125 6.78125 
Q 63.578125 2.734375 56.6875 0.65625 
Q 49.8125 -1.421875 42 -1.421875 
Q 24.90625 -1.421875 15.25 8.5625 
Q 5.609375 18.5625 5.609375 36.375 
Q 5.609375 54.25 15.25 64.234375 
Q 24.90625 74.21875 42 74.21875 
Q 49.125 74.21875 55.546875 72.453125 
Q 61.96875 70.703125 67.390625 67.28125 
L 67.390625 56.78125 
Q 61.921875 61.421875 55.765625 63.765625 
Q 49.609375 66.109375 42.828125 66.109375 
Q 29.4375 66.109375 22.71875 58.640625 
Q 16.015625 51.171875 16.015625 36.375 
Q 16.015625 21.625 22.71875 14.15625 
Q 29.4375 6.6875 42.828125 6.6875 
Q 48.046875 6.6875 52.140625 7.59375 
Q 56.25 8.5 59.515625 10.40625 
z
" id="DejaVuSans-71"/>
      <path d="M 34.1875 63.1875 
L 20.796875 26.90625 
L 47.609375 26.90625 
z
M 28.609375 72.90625 
L 39.796875 72.90625 
L 67.578125 0 
L 57.328125 0 
L 50.6875 18.703125 
L 17.828125 18.703125 
L 11.1875 0 
L 0.78125 0 
z
" id="DejaVuSans-65"/>
      <path id="DejaVuSans-32"/>
      <path d="M 18.109375 8.203125 
L 18.109375 -20.796875 
L 9.078125 -20.796875 
L 9.078125 54.6875 
L 18.109375 54.6875 
L 18.109375 46.390625 
Q 20.953125 51.265625 25.265625 53.625 
Q 29.59375 56 35.59375 56 
Q 45.5625 56 51.78125 48.09375 
Q 58.015625 40.1875 58.015625 27.296875 
Q 58.015625 14.40625 51.78125 6.484375 
Q 45.5625 -1.421875 35.59375 -1.421875 
Q 29.59375 -1.421875 25.265625 0.953125 
Q 20.953125 3.328125 18.109375 8.203125 
z
M 48.6875 27.296875 
Q 48.6875 37.203125 44.609375 42.84375 
Q 40.53125 48.484375 33.40625 48.484375 
Q 26.265625 48.484375 22.1875 42.84375 
Q 18.109375 37.203125 18.109375 27.296875 
Q 18.109375 17.390625 22.1875 11.75 
Q 26.265625 6.109375 33.40625 6.109375 
Q 40.53125 6.109375 44.609375 11.75 
Q 48.6875 17.390625 48.6875 27.296875 
z
" id="DejaVuSans-112"/>
      <path d="M 48.78125 52.59375 
L 48.78125 44.1875 
Q 44.96875 46.296875 41.140625 47.34375 
Q 37.3125 48.390625 33.40625 48.390625 
Q 24.65625 48.390625 19.8125 42.84375 
Q 14.984375 37.3125 14.984375 27.296875 
Q 14.984375 17.28125 19.8125 11.734375 
Q 24.65625 6.203125 33.40625 6.203125 
Q 37.3125 6.203125 41.140625 7.25 
Q 44.96875 8.296875 48.78125 10.40625 
L 48.78125 2.09375 
Q 45.015625 0.34375 40.984375 -0.53125 
Q 36.96875 -1.421875 32.421875 -1.421875 
Q 20.0625 -1.421875 12.78125 6.34375 
Q 5.515625 14.109375 5.515625 27.296875 
Q 5.515625 40.671875 12.859375 48.328125 
Q 20.21875 56 33.015625 56 
Q 37.15625 56 41.109375 55.140625 
Q 45.0625 54.296875 48.78125 52.59375 
z
" id="DejaVuSans-99"/>
      <path d="M 41.109375 46.296875 
Q 39.59375 47.171875 37.8125 47.578125 
Q 36.03125 48 33.890625 48 
Q 26.265625 48 22.1875 43.046875 
Q 18.109375 38.09375 18.109375 28.8125 
L 18.109375 0 
L 9.078125 0 
L 9.078125 54.6875 
L 18.109375 54.6875 
L 18.109375 46.1875 
Q 20.953125 51.171875 25.484375 53.578125 
Q 30.03125 56 36.53125 56 
Q 37.453125 56 38.578125 55.875 
Q 39.703125 55.765625 41.0625 55.515625 
z
" id="DejaVuSans-114"/>
      <path d="M 31 75.875 
Q 24.46875 64.65625 21.28125 53.65625 
Q 18.109375 42.671875 18.109375 31.390625 
Q 18.109375 20.125 21.3125 9.0625 
Q 24.515625 -2 31 -13.1875 
L 23.1875 -13.1875 
Q 15.875 -1.703125 12.234375 9.375 
Q 8.59375 20.453125 8.59375 31.390625 
Q 8.59375 42.28125 12.203125 53.3125 
Q 15.828125 64.359375 23.1875 75.875 
z
" id="DejaVuSans-40"/>
      <path d="M 30.609375 48.390625 
Q 23.390625 48.390625 19.1875 42.75 
Q 14.984375 37.109375 14.984375 27.296875 
Q 14.984375 17.484375 19.15625 11.84375 
Q 23.34375 6.203125 30.609375 6.203125 
Q 37.796875 6.203125 41.984375 11.859375 
Q 46.1875 17.53125 46.1875 27.296875 
Q 46.1875 37.015625 41.984375 42.703125 
Q 37.796875 48.390625 30.609375 48.390625 
z
M 30.609375 56 
Q 42.328125 56 49.015625 48.375 
Q 55.71875 40.765625 55.71875 27.296875 
Q 55.71875 13.875 49.015625 6.21875 
Q 42.328125 -1.421875 30.609375 -1.421875 
Q 18.84375 -1.421875 12.171875 6.21875 
Q 5.515625 13.875 5.515625 27.296875 
Q 5.515625 40.765625 12.171875 48.375 
Q 18.84375 56 30.609375 56 
z
" id="DejaVuSans-111"/>
      <path d="M 54.890625 33.015625 
L 54.890625 0 
L 45.90625 0 
L 45.90625 32.71875 
Q 45.90625 40.484375 42.875 44.328125 
Q 39.84375 48.1875 33.796875 48.1875 
Q 26.515625 48.1875 22.3125 43.546875 
Q 18.109375 38.921875 18.109375 30.90625 
L 18.109375 0 
L 9.078125 0 
L 9.078125 75.984375 
L 18.109375 75.984375 
L 18.109375 46.1875 
Q 21.34375 51.125 25.703125 53.5625 
Q 30.078125 56 35.796875 56 
Q 45.21875 56 50.046875 50.171875 
Q 54.890625 44.34375 54.890625 33.015625 
z
" id="DejaVuSans-104"/>
      <path d="M 34.28125 27.484375 
Q 23.390625 27.484375 19.1875 25 
Q 14.984375 22.515625 14.984375 16.5 
Q 14.984375 11.71875 18.140625 8.90625 
Q 21.296875 6.109375 26.703125 6.109375 
Q 34.1875 6.109375 38.703125 11.40625 
Q 43.21875 16.703125 43.21875 25.484375 
L 43.21875 27.484375 
z
M 52.203125 31.203125 
L 52.203125 0 
L 43.21875 0 
L 43.21875 8.296875 
Q 40.140625 3.328125 35.546875 0.953125 
Q 30.953125 -1.421875 24.3125 -1.421875 
Q 15.921875 -1.421875 10.953125 3.296875 
Q 6 8.015625 6 15.921875 
Q 6 25.140625 12.171875 29.828125 
Q 18.359375 34.515625 30.609375 34.515625 
L 43.21875 34.515625 
L 43.21875 35.40625 
Q 43.21875 41.609375 39.140625 45 
Q 35.0625 48.390625 27.6875 48.390625 
Q 23 48.390625 18.546875 47.265625 
Q 14.109375 46.140625 10.015625 43.890625 
L 10.015625 52.203125 
Q 14.9375 54.109375 19.578125 55.046875 
Q 24.21875 56 28.609375 56 
Q 40.484375 56 46.34375 49.84375 
Q 52.203125 43.703125 52.203125 31.203125 
z
" id="DejaVuSans-97"/>
      <path d="M 48.6875 27.296875 
Q 48.6875 37.203125 44.609375 42.84375 
Q 40.53125 48.484375 33.40625 48.484375 
Q 26.265625 48.484375 22.1875 42.84375 
Q 18.109375 37.203125 18.109375 27.296875 
Q 18.109375 17.390625 22.1875 11.75 
Q 26.265625 6.109375 33.40625 6.109375 
Q 40.53125 6.109375 44.609375 11.75 
Q 48.6875 17.390625 48.6875 27.296875 
z
M 18.109375 46.390625 
Q 20.953125 51.265625 25.265625 53.625 
Q 29.59375 56 35.59375 56 
Q 45.5625 56 51.78125 48.09375 
Q 58.015625 40.1875 58.015625 27.296875 
Q 58.015625 14.40625 51.78125 6.484375 
Q 45.5625 -1.421875 35.59375 -1.421875 
Q 29.59375 -1.421875 25.265625 0.953125 
Q 20.953125 3.328125 18.109375 8.203125 
L 18.109375 0 
L 9.078125 0 
L 9.078125 75.984375 
L 18.109375 75.984375 
z
" id="DejaVuSans-98"/>
      <path d="M 10.6875 12.40625 
L 21 12.40625 
L 21 0 
L 10.6875 0 
z
" id="DejaVuSans-46"/>
      <path d="M 8.015625 75.875 
L 15.828125 75.875 
Q 23.140625 64.359375 26.78125 53.3125 
Q 30.421875 42.28125 30.421875 31.390625 
Q 30.421875 20.453125 26.78125 9.375 
Q 23.140625 -1.703125 15.828125 -13.1875 
L 8.015625 -13.1875 
Q 14.5 -2 17.703125 9.0625 
Q 20.90625 20.125 20.90625 31.390625 
Q 20.90625 42.671875 17.703125 53.65625 
Q 14.5 64.65625 8.015625 75.875 
z
" id="DejaVuSans-41"/>
      <path d="M 45.40625 46.390625 
L 45.40625 75.984375 
L 54.390625 75.984375 
L 54.390625 0 
L 45.40625 0 
L 45.40625 8.203125 
Q 42.578125 3.328125 38.25 0.953125 
Q 33.9375 -1.421875 27.875 -1.421875 
Q 17.96875 -1.421875 11.734375 6.484375 
Q 5.515625 14.40625 5.515625 27.296875 
Q 5.515625 40.1875 11.734375 48.09375 
Q 17.96875 56 27.875 56 
Q 33.9375 56 38.25 53.625 
Q 42.578125 51.265625 45.40625 46.390625 
z
M 14.796875 27.296875 
Q 14.796875 17.390625 18.875 11.75 
Q 22.953125 6.109375 30.078125 6.109375 
Q 37.203125 6.109375 41.296875 11.75 
Q 45.40625 17.390625 45.40625 27.296875 
Q 45.40625 37.203125 41.296875 42.84375 
Q 37.203125 48.484375 30.078125 48.484375 
Q 22.953125 48.484375 18.875 42.84375 
Q 14.796875 37.203125 14.796875 27.296875 
z
" id="DejaVuSans-100"/>
      <path d="M 9.421875 54.6875 
L 18.40625 54.6875 
L 18.40625 0 
L 9.421875 0 
z
M 9.421875 75.984375 
L 18.40625 75.984375 
L 18.40625 64.59375 
L 9.421875 64.59375 
z
" id="DejaVuSans-105"/>
      <path d="M 44.28125 53.078125 
L 44.28125 44.578125 
Q 40.484375 46.53125 36.375 47.5 
Q 32.28125 48.484375 27.875 48.484375 
Q 21.1875 48.484375 17.84375 46.4375 
Q 14.5 44.390625 14.5 40.28125 
Q 14.5 37.15625 16.890625 35.375 
Q 19.28125 33.59375 26.515625 31.984375 
L 29.59375 31.296875 
Q 39.15625 29.25 43.1875 25.515625 
Q 47.21875 21.78125 47.21875 15.09375 
Q 47.21875 7.46875 41.1875 3.015625 
Q 35.15625 -1.421875 24.609375 -1.421875 
Q 20.21875 -1.421875 15.453125 -0.5625 
Q 10.6875 0.296875 5.421875 2 
L 5.421875 11.28125 
Q 10.40625 8.6875 15.234375 7.390625 
Q 20.0625 6.109375 24.8125 6.109375 
Q 31.15625 6.109375 34.5625 8.28125 
Q 37.984375 10.453125 37.984375 14.40625 
Q 37.984375 18.0625 35.515625 20.015625 
Q 33.0625 21.96875 24.703125 23.78125 
L 21.578125 24.515625 
Q 13.234375 26.265625 9.515625 29.90625 
Q 5.8125 33.546875 5.8125 39.890625 
Q 5.8125 47.609375 11.28125 51.796875 
Q 16.75 56 26.8125 56 
Q 31.78125 56 36.171875 55.265625 
Q 40.578125 54.546875 44.28125 53.078125 
z
" id="DejaVuSans-115"/>
     </defs>
     <g transform="translate(18.398438 227.560196)rotate(-90)scale(0.1 -0.1)">
      <use xlink:href="#DejaVuSans-71"/>
      <use x="77.490234" xlink:href="#DejaVuSans-65"/>
      <use x="145.898438" xlink:href="#DejaVuSans-32"/>
      <use x="177.685547" xlink:href="#DejaVuSans-112"/>
      <use x="241.162109" xlink:href="#DejaVuSans-99"/>
      <use x="296.142578" xlink:href="#DejaVuSans-114"/>
      <use x="337.255859" xlink:href="#DejaVuSans-32"/>
      <use x="369.042969" xlink:href="#DejaVuSans-40"/>
      <use x="408.056641" xlink:href="#DejaVuSans-112"/>
      <use x="471.533203" xlink:href="#DejaVuSans-111"/>
      <use x="532.714844" xlink:href="#DejaVuSans-114"/>
      <use x="573.828125" xlink:href="#DejaVuSans-32"/>
      <use x="605.615234" xlink:href="#DejaVuSans-49"/>
      <use x="669.238281" xlink:href="#DejaVuSans-48"/>
      <use x="732.861328" xlink:href="#DejaVuSans-48"/>
      <use x="796.484375" xlink:href="#DejaVuSans-48"/>
      <use x="860.107422" xlink:href="#DejaVuSans-48"/>
      <use x="923.730469" xlink:href="#DejaVuSans-48"/>
      <use x="987.353516" xlink:href="#DejaVuSans-32"/>
      <use x="1019.140625" xlink:href="#DejaVuSans-104"/>
      <use x="1082.519531" xlink:href="#DejaVuSans-97"/>
      <use x="1143.798828" xlink:href="#DejaVuSans-98"/>
      <use x="1207.275391" xlink:href="#DejaVuSans-46"/>
      <use x="1239.0625" xlink:href="#DejaVuSans-41"/>
      <use x="1278.076172" xlink:href="#DejaVuSans-32"/>
      <use x="1309.863281" xlink:href="#DejaVuSans-100"/>
      <use x="1373.339844" xlink:href="#DejaVuSans-105"/>
      <use x="1401.123047" xlink:href="#DejaVuSans-97"/>
      <use x="1462.402344" xlink:href="#DejaVuSans-114"/>
      <use x="1503.515625" xlink:href="#DejaVuSans-105"/>
      <use x="1531.298828" xlink:href="#DejaVuSans-111"/>
      <use x="1592.480469" xlink:href="#DejaVuSans-115"/>
     </g>
    </g>
   </g>
   <g id="line2d_12">
    <path clip-path="url(#p879e33acde)" d="M 61.750245 279.86258 
L 66.082868 279.86258 
L 70.41549 279.86258 
L 74.748112 279.86258 
L 79.080735 279.86258 
L 83.413357 279.86258 
L 87.745979 279.86258 
L 92.078602 279.86258 
L 96.411224 279.86258 
L 100.743846 279.86258 
L 105.076469 279.86258 
L 109.409091 279.445977 
L 113.741713 279.86258 
L 118.074336 279.029375 
L 122.406958 279.86258 
L 126.73958 279.029375 
L 131.072203 279.445977 
L 135.404825 273.196943 
L 139.737447 274.44675 
L 144.07007 279.86258 
L 148.402692 259.032466 
L 152.735314 267.364511 
L 157.067937 246.534398 
L 161.400559 259.032466 
L 165.733181 260.282273 
L 170.065804 259.449068 
L 174.398426 233.203125 
L 178.731048 227.787295 
L 183.063671 212.789613 
L 187.396293 206.540579 
L 191.728915 157.798113 
L 196.061538 193.625909 
L 200.39416 180.711238 
L 204.726782 170.712783 
L 209.059405 110.305454 
L 213.392027 92.391556 
L 217.724649 126.969545 
L 222.057272 36.566851 
L 226.389894 148.216261 
L 230.722516 116.137885 
L 235.055139 109.055647 
L 239.387761 122.803522 
L 243.720383 110.722056 
L 248.053006 146.966454 
L 252.385628 193.625909 
L 256.71825 204.87417 
L 261.050873 193.625909 
L 265.383495 188.210079 
L 269.716117 201.541352 
L 274.04874 184.044056 
L 278.381362 213.206216 
L 282.713984 214.03942 
L 287.046607 236.952545 
L 291.379229 233.619727 
L 295.711851 211.123204 
L 300.044474 221.538261 
L 304.377096 250.283818 
L 308.709718 237.78575 
L 313.042341 232.36992 
L 317.374963 209.456795 
L 321.707585 210.706602 
L 326.040208 208.623591 
L 330.37283 226.954091 
L 334.705452 203.207761 
L 339.038075 254.866443 
L 343.370697 254.033239 
L 347.703319 242.368375 
L 349.162268 346.6 
M 355.199112 346.6 
L 356.368564 270.69733 
L 360.701186 216.955636 
L 365.033809 257.366057 
L 369.366431 252.783432 
L 373.699053 261.53208 
L 378.031676 263.198489 
L 382.364298 260.698875 
L 386.69692 264.448295 
L 391.029543 259.032466 
L 395.362165 266.531307 
L 399.694787 264.448295 
L 404.02741 268.614318 
L 408.360032 275.279955 
L 412.692654 275.696557 
" style="fill:none;stroke:#1f77b4;stroke-linecap:square;stroke-width:1.5;"/>
    <defs>
     <path d="M 0 1.5 
C 0.397805 1.5 0.77937 1.341951 1.06066 1.06066 
C 1.341951 0.77937 1.5 0.397805 1.5 0 
C 1.5 -0.397805 1.341951 -0.77937 1.06066 -1.06066 
C 0.77937 -1.341951 0.397805 -1.5 0 -1.5 
C -0.397805 -1.5 -0.77937 -1.341951 -1.06066 -1.06066 
C -1.341951 -0.77937 -1.5 -0.397805 -1.5 0 
C -1.5 0.397805 -1.341951 0.77937 -1.06066 1.06066 
C -0.77937 1.341951 -0.397805 1.5 0 1.5 
z
" id="ma877a499ce" style="stroke:#1f77b4;"/>
    </defs>
    <g clip-path="url(#p879e33acde)">
     <use style="fill:#1f77b4;stroke:#1f77b4;" x="61.750245" xlink:href="#ma877a499ce" y="279.86258"/>
     <use style="fill:#1f77b4;stroke:#1f77b4;" x="66.082868" xlink:href="#ma877a499ce" y="279.86258"/>
     <use style="fill:#1f77b4;stroke:#1f77b4;" x="70.41549" xlink:href="#ma877a499ce" y="279.86258"/>
     <use style="fill:#1f77b4;stroke:#1f77b4;" x="74.748112" xlink:href="#ma877a499ce" y="279.86258"/>
     <use style="fill:#1f77b4;stroke:#1f77b4;" x="79.080735" xlink:href="#ma877a499ce" y="279.86258"/>
     <use style="fill:#1f77b4;stroke:#1f77b4;" x="83.413357" xlink:href="#ma877a499ce" y="279.86258"/>
     <use style="fill:#1f77b4;stroke:#1f77b4;" x="87.745979" xlink:href="#ma877a499ce" y="279.86258"/>
     <use style="fill:#1f77b4;stroke:#1f77b4;" x="92.078602" xlink:href="#ma877a499ce" y="279.86258"/>
     <use style="fill:#1f77b4;stroke:#1f77b4;" x="96.411224" xlink:href="#ma877a499ce" y="279.86258"/>
     <use style="fill:#1f77b4;stroke:#1f77b4;" x="100.743846" xlink:href="#ma877a499ce" y="279.86258"/>
     <use style="fill:#1f77b4;stroke:#1f77b4;" x="105.076469" xlink:href="#ma877a499ce" y="279.86258"/>
     <use style="fill:#1f77b4;stroke:#1f77b4;" x="109.409091" xlink:href="#ma877a499ce" y="279.445977"/>
     <use style="fill:#1f77b4;stroke:#1f77b4;" x="113.741713" xlink:href="#ma877a499ce" y="279.86258"/>
     <use style="fill:#1f77b4;stroke:#1f77b4;" x="118.074336" xlink:href="#ma877a499ce" y="279.029375"/>
     <use style="fill:#1f77b4;stroke:#1f77b4;" x="122.406958" xlink:href="#ma877a499ce" y="279.86258"/>
     <use style="fill:#1f77b4;stroke:#1f77b4;" x="126.73958" xlink:href="#ma877a499ce" y="279.029375"/>
     <use style="fill:#1f77b4;stroke:#1f77b4;" x="131.072203" xlink:href="#ma877a499ce" y="279.445977"/>
     <use style="fill:#1f77b4;stroke:#1f77b4;" x="135.404825" xlink:href="#ma877a499ce" y="273.196943"/>
     <use style="fill:#1f77b4;stroke:#1f77b4;" x="139.737447" xlink:href="#ma877a499ce" y="274.44675"/>
     <use style="fill:#1f77b4;stroke:#1f77b4;" x="144.07007" xlink:href="#ma877a499ce" y="279.86258"/>
     <use style="fill:#1f77b4;stroke:#1f77b4;" x="148.402692" xlink:href="#ma877a499ce" y="259.032466"/>
     <use style="fill:#1f77b4;stroke:#1f77b4;" x="152.735314" xlink:href="#ma877a499ce" y="267.364511"/>
     <use style="fill:#1f77b4;stroke:#1f77b4;" x="157.067937" xlink:href="#ma877a499ce" y="246.534398"/>
     <use style="fill:#1f77b4;stroke:#1f77b4;" x="161.400559" xlink:href="#ma877a499ce" y="259.032466"/>
     <use style="fill:#1f77b4;stroke:#1f77b4;" x="165.733181" xlink:href="#ma877a499ce" y="260.282273"/>
     <use style="fill:#1f77b4;stroke:#1f77b4;" x="170.065804" xlink:href="#ma877a499ce" y="259.449068"/>
     <use style="fill:#1f77b4;stroke:#1f77b4;" x="174.398426" xlink:href="#ma877a499ce" y="233.203125"/>
     <use style="fill:#1f77b4;stroke:#1f77b4;" x="178.731048" xlink:href="#ma877a499ce" y="227.787295"/>
     <use style="fill:#1f77b4;stroke:#1f77b4;" x="183.063671" xlink:href="#ma877a499ce" y="212.789613"/>
     <use style="fill:#1f77b4;stroke:#1f77b4;" x="187.396293" xlink:href="#ma877a499ce" y="206.540579"/>
     <use style="fill:#1f77b4;stroke:#1f77b4;" x="191.728915" xlink:href="#ma877a499ce" y="157.798113"/>
     <use style="fill:#1f77b4;stroke:#1f77b4;" x="196.061538" xlink:href="#ma877a499ce" y="193.625909"/>
     <use style="fill:#1f77b4;stroke:#1f77b4;" x="200.39416" xlink:href="#ma877a499ce" y="180.711238"/>
     <use style="fill:#1f77b4;stroke:#1f77b4;" x="204.726782" xlink:href="#ma877a499ce" y="170.712783"/>
     <use style="fill:#1f77b4;stroke:#1f77b4;" x="209.059405" xlink:href="#ma877a499ce" y="110.305454"/>
     <use style="fill:#1f77b4;stroke:#1f77b4;" x="213.392027" xlink:href="#ma877a499ce" y="92.391556"/>
     <use style="fill:#1f77b4;stroke:#1f77b4;" x="217.724649" xlink:href="#ma877a499ce" y="126.969545"/>
     <use style="fill:#1f77b4;stroke:#1f77b4;" x="222.057272" xlink:href="#ma877a499ce" y="36.566851"/>
     <use style="fill:#1f77b4;stroke:#1f77b4;" x="226.389894" xlink:href="#ma877a499ce" y="148.216261"/>
     <use style="fill:#1f77b4;stroke:#1f77b4;" x="230.722516" xlink:href="#ma877a499ce" y="116.137885"/>
     <use style="fill:#1f77b4;stroke:#1f77b4;" x="235.055139" xlink:href="#ma877a499ce" y="109.055647"/>
     <use style="fill:#1f77b4;stroke:#1f77b4;" x="239.387761" xlink:href="#ma877a499ce" y="122.803522"/>
     <use style="fill:#1f77b4;stroke:#1f77b4;" x="243.720383" xlink:href="#ma877a499ce" y="110.722056"/>
     <use style="fill:#1f77b4;stroke:#1f77b4;" x="248.053006" xlink:href="#ma877a499ce" y="146.966454"/>
     <use style="fill:#1f77b4;stroke:#1f77b4;" x="252.385628" xlink:href="#ma877a499ce" y="193.625909"/>
     <use style="fill:#1f77b4;stroke:#1f77b4;" x="256.71825" xlink:href="#ma877a499ce" y="204.87417"/>
     <use style="fill:#1f77b4;stroke:#1f77b4;" x="261.050873" xlink:href="#ma877a499ce" y="193.625909"/>
     <use style="fill:#1f77b4;stroke:#1f77b4;" x="265.383495" xlink:href="#ma877a499ce" y="188.210079"/>
     <use style="fill:#1f77b4;stroke:#1f77b4;" x="269.716117" xlink:href="#ma877a499ce" y="201.541352"/>
     <use style="fill:#1f77b4;stroke:#1f77b4;" x="274.04874" xlink:href="#ma877a499ce" y="184.044056"/>
     <use style="fill:#1f77b4;stroke:#1f77b4;" x="278.381362" xlink:href="#ma877a499ce" y="213.206216"/>
     <use style="fill:#1f77b4;stroke:#1f77b4;" x="282.713984" xlink:href="#ma877a499ce" y="214.03942"/>
     <use style="fill:#1f77b4;stroke:#1f77b4;" x="287.046607" xlink:href="#ma877a499ce" y="236.952545"/>
     <use style="fill:#1f77b4;stroke:#1f77b4;" x="291.379229" xlink:href="#ma877a499ce" y="233.619727"/>
     <use style="fill:#1f77b4;stroke:#1f77b4;" x="295.711851" xlink:href="#ma877a499ce" y="211.123204"/>
     <use style="fill:#1f77b4;stroke:#1f77b4;" x="300.044474" xlink:href="#ma877a499ce" y="221.538261"/>
     <use style="fill:#1f77b4;stroke:#1f77b4;" x="304.377096" xlink:href="#ma877a499ce" y="250.283818"/>
     <use style="fill:#1f77b4;stroke:#1f77b4;" x="308.709718" xlink:href="#ma877a499ce" y="237.78575"/>
     <use style="fill:#1f77b4;stroke:#1f77b4;" x="313.042341" xlink:href="#ma877a499ce" y="232.36992"/>
     <use style="fill:#1f77b4;stroke:#1f77b4;" x="317.374963" xlink:href="#ma877a499ce" y="209.456795"/>
     <use style="fill:#1f77b4;stroke:#1f77b4;" x="321.707585" xlink:href="#ma877a499ce" y="210.706602"/>
     <use style="fill:#1f77b4;stroke:#1f77b4;" x="326.040208" xlink:href="#ma877a499ce" y="208.623591"/>
     <use style="fill:#1f77b4;stroke:#1f77b4;" x="330.37283" xlink:href="#ma877a499ce" y="226.954091"/>
     <use style="fill:#1f77b4;stroke:#1f77b4;" x="334.705452" xlink:href="#ma877a499ce" y="203.207761"/>
     <use style="fill:#1f77b4;stroke:#1f77b4;" x="339.038075" xlink:href="#ma877a499ce" y="254.866443"/>
     <use style="fill:#1f77b4;stroke:#1f77b4;" x="343.370697" xlink:href="#ma877a499ce" y="254.033239"/>
     <use style="fill:#1f77b4;stroke:#1f77b4;" x="347.703319" xlink:href="#ma877a499ce" y="242.368375"/>
     <use style="fill:#1f77b4;stroke:#1f77b4;" x="352.035942" xlink:href="#ma877a499ce" y="551.903866"/>
     <use style="fill:#1f77b4;stroke:#1f77b4;" x="356.368564" xlink:href="#ma877a499ce" y="270.69733"/>
     <use style="fill:#1f77b4;stroke:#1f77b4;" x="360.701186" xlink:href="#ma877a499ce" y="216.955636"/>
     <use style="fill:#1f77b4;stroke:#1f77b4;" x="365.033809" xlink:href="#ma877a499ce" y="257.366057"/>
     <use style="fill:#1f77b4;stroke:#1f77b4;" x="369.366431" xlink:href="#ma877a499ce" y="252.783432"/>
     <use style="fill:#1f77b4;stroke:#1f77b4;" x="373.699053" xlink:href="#ma877a499ce" y="261.53208"/>
     <use style="fill:#1f77b4;stroke:#1f77b4;" x="378.031676" xlink:href="#ma877a499ce" y="263.198489"/>
     <use style="fill:#1f77b4;stroke:#1f77b4;" x="382.364298" xlink:href="#ma877a499ce" y="260.698875"/>
     <use style="fill:#1f77b4;stroke:#1f77b4;" x="386.69692" xlink:href="#ma877a499ce" y="264.448295"/>
     <use style="fill:#1f77b4;stroke:#1f77b4;" x="391.029543" xlink:href="#ma877a499ce" y="259.032466"/>
     <use style="fill:#1f77b4;stroke:#1f77b4;" x="395.362165" xlink:href="#ma877a499ce" y="266.531307"/>
     <use style="fill:#1f77b4;stroke:#1f77b4;" x="399.694787" xlink:href="#ma877a499ce" y="264.448295"/>
     <use style="fill:#1f77b4;stroke:#1f77b4;" x="404.02741" xlink:href="#ma877a499ce" y="268.614318"/>
     <use style="fill:#1f77b4;stroke:#1f77b4;" x="408.360032" xlink:href="#ma877a499ce" y="275.279955"/>
     <use style="fill:#1f77b4;stroke:#1f77b4;" x="412.692654" xlink:href="#ma877a499ce" y="275.696557"/>
    </g>
   </g>
   <g id="patch_3">
    <path d="M 44.203125 279.86258 
L 44.203125 10.8 
" style="fill:none;stroke:#000000;stroke-linecap:square;stroke-linejoin:miter;stroke-width:0.8;"/>
   </g>
   <g id="patch_4">
    <path d="M 430.239775 279.86258 
L 430.239775 10.8 
" style="fill:none;stroke:#000000;stroke-linecap:square;stroke-linejoin:miter;stroke-width:0.8;"/>
   </g>
   <g id="patch_5">
    <path d="M 44.203125 279.86258 
L 430.239775 279.86258 
" style="fill:none;stroke:#000000;stroke-linecap:square;stroke-linejoin:miter;stroke-width:0.8;"/>
   </g>
   <g id="patch_6">
    <path d="M 44.203125 10.8 
L 430.239775 10.8 
" style="fill:none;stroke:#000000;stroke-linecap:square;stroke-linejoin:miter;stroke-width:0.8;"/>
   </g>
  </g>
 </g>
 <defs>
  <clipPath id="p879e33acde">
   <rect height="269.06258" width="386.03665" x="44.203125" y="10.8"/>
  </clipPath>
 </defs>
</svg>
