<?xml version="1.0" encoding="utf-8" standalone="no"?>
<!DOCTYPE svg PUBLIC "-//W3C//DTD SVG 1.1//EN"
  "http://www.w3.org/Graphics/SVG/1.1/DTD/svg11.dtd">
<!-- Created with matplotlib (https://matplotlib.org/) -->
<svg height="345.6pt" version="1.1" viewBox="0 0 460.8 345.6" width="460.8pt" xmlns="http://www.w3.org/2000/svg" xmlns:xlink="http://www.w3.org/1999/xlink">
 <defs>
  <style type="text/css">
*{stroke-linecap:butt;stroke-linejoin:round;}
  </style>
 </defs>
 <g id="figure_1">
  <g id="patch_1">
   <path d="M 0 345.6 
L 460.8 345.6 
L 460.8 0 
L 0 0 
z
" style="fill:#ffffff;"/>
  </g>
  <g id="axes_1">
   <g id="patch_2">
    <path d="M 52.582813 279.86258 
L 450 279.86258 
L 450 10.8 
L 52.582813 10.8 
z
" style="fill:#ffffff;"/>
   </g>
   <g id="matplotlib.axis_1">
    <g id="xtick_1">
     <g id="line2d_1">
      <defs>
       <path d="M 0 0 
L 0 3.5 
" id="meee146b801" style="stroke:#000000;stroke-width:0.8;"/>
      </defs>
      <g>
       <use style="stroke:#000000;stroke-width:0.8;" x="111.806663" xlink:href="#meee146b801" y="279.86258"/>
      </g>
     </g>
     <g id="text_1">
      <!-- 2020-03-01 -->
      <defs>
       <path d="M 19.1875 8.296875 
L 53.609375 8.296875 
L 53.609375 0 
L 7.328125 0 
L 7.328125 8.296875 
Q 12.9375 14.109375 22.625 23.890625 
Q 32.328125 33.6875 34.8125 36.53125 
Q 39.546875 41.84375 41.421875 45.53125 
Q 43.3125 49.21875 43.3125 52.78125 
Q 43.3125 58.59375 39.234375 62.25 
Q 35.15625 65.921875 28.609375 65.921875 
Q 23.96875 65.921875 18.8125 64.3125 
Q 13.671875 62.703125 7.8125 59.421875 
L 7.8125 69.390625 
Q 13.765625 71.78125 18.9375 73 
Q 24.125 74.21875 28.421875 74.21875 
Q 39.75 74.21875 46.484375 68.546875 
Q 53.21875 62.890625 53.21875 53.421875 
Q 53.21875 48.921875 51.53125 44.890625 
Q 49.859375 40.875 45.40625 35.40625 
Q 44.1875 33.984375 37.640625 27.21875 
Q 31.109375 20.453125 19.1875 8.296875 
z
" id="DejaVuSans-50"/>
       <path d="M 31.78125 66.40625 
Q 24.171875 66.40625 20.328125 58.90625 
Q 16.5 51.421875 16.5 36.375 
Q 16.5 21.390625 20.328125 13.890625 
Q 24.171875 6.390625 31.78125 6.390625 
Q 39.453125 6.390625 43.28125 13.890625 
Q 47.125 21.390625 47.125 36.375 
Q 47.125 51.421875 43.28125 58.90625 
Q 39.453125 66.40625 31.78125 66.40625 
z
M 31.78125 74.21875 
Q 44.046875 74.21875 50.515625 64.515625 
Q 56.984375 54.828125 56.984375 36.375 
Q 56.984375 17.96875 50.515625 8.265625 
Q 44.046875 -1.421875 31.78125 -1.421875 
Q 19.53125 -1.421875 13.0625 8.265625 
Q 6.59375 17.96875 6.59375 36.375 
Q 6.59375 54.828125 13.0625 64.515625 
Q 19.53125 74.21875 31.78125 74.21875 
z
" id="DejaVuSans-48"/>
       <path d="M 4.890625 31.390625 
L 31.203125 31.390625 
L 31.203125 23.390625 
L 4.890625 23.390625 
z
" id="DejaVuSans-45"/>
       <path d="M 40.578125 39.3125 
Q 47.65625 37.796875 51.625 33 
Q 55.609375 28.21875 55.609375 21.1875 
Q 55.609375 10.40625 48.1875 4.484375 
Q 40.765625 -1.421875 27.09375 -1.421875 
Q 22.515625 -1.421875 17.65625 -0.515625 
Q 12.796875 0.390625 7.625 2.203125 
L 7.625 11.71875 
Q 11.71875 9.328125 16.59375 8.109375 
Q 21.484375 6.890625 26.8125 6.890625 
Q 36.078125 6.890625 40.9375 10.546875 
Q 45.796875 14.203125 45.796875 21.1875 
Q 45.796875 27.640625 41.28125 31.265625 
Q 36.765625 34.90625 28.71875 34.90625 
L 20.21875 34.90625 
L 20.21875 43.015625 
L 29.109375 43.015625 
Q 36.375 43.015625 40.234375 45.921875 
Q 44.09375 48.828125 44.09375 54.296875 
Q 44.09375 59.90625 40.109375 62.90625 
Q 36.140625 65.921875 28.71875 65.921875 
Q 24.65625 65.921875 20.015625 65.03125 
Q 15.375 64.15625 9.8125 62.3125 
L 9.8125 71.09375 
Q 15.4375 72.65625 20.34375 73.4375 
Q 25.25 74.21875 29.59375 74.21875 
Q 40.828125 74.21875 47.359375 69.109375 
Q 53.90625 64.015625 53.90625 55.328125 
Q 53.90625 49.265625 50.4375 45.09375 
Q 46.96875 40.921875 40.578125 39.3125 
z
" id="DejaVuSans-51"/>
       <path d="M 12.40625 8.296875 
L 28.515625 8.296875 
L 28.515625 63.921875 
L 10.984375 60.40625 
L 10.984375 69.390625 
L 28.421875 72.90625 
L 38.28125 72.90625 
L 38.28125 8.296875 
L 54.390625 8.296875 
L 54.390625 0 
L 12.40625 0 
z
" id="DejaVuSans-49"/>
      </defs>
      <g transform="translate(93.210859 333.329439)rotate(-45)scale(0.1 -0.1)">
       <use xlink:href="#DejaVuSans-50"/>
       <use x="63.623047" xlink:href="#DejaVuSans-48"/>
       <use x="127.246094" xlink:href="#DejaVuSans-50"/>
       <use x="190.869141" xlink:href="#DejaVuSans-48"/>
       <use x="254.492188" xlink:href="#DejaVuSans-45"/>
       <use x="290.576172" xlink:href="#DejaVuSans-48"/>
       <use x="354.199219" xlink:href="#DejaVuSans-51"/>
       <use x="417.822266" xlink:href="#DejaVuSans-45"/>
       <use x="453.90625" xlink:href="#DejaVuSans-48"/>
       <use x="517.529297" xlink:href="#DejaVuSans-49"/>
      </g>
     </g>
    </g>
    <g id="xtick_2">
     <g id="line2d_2">
      <g>
       <use style="stroke:#000000;stroke-width:0.8;" x="175.832447" xlink:href="#meee146b801" y="279.86258"/>
      </g>
     </g>
     <g id="text_2">
      <!-- 2020-03-15 -->
      <defs>
       <path d="M 10.796875 72.90625 
L 49.515625 72.90625 
L 49.515625 64.59375 
L 19.828125 64.59375 
L 19.828125 46.734375 
Q 21.96875 47.46875 24.109375 47.828125 
Q 26.265625 48.1875 28.421875 48.1875 
Q 40.625 48.1875 47.75 41.5 
Q 54.890625 34.8125 54.890625 23.390625 
Q 54.890625 11.625 47.5625 5.09375 
Q 40.234375 -1.421875 26.90625 -1.421875 
Q 22.3125 -1.421875 17.546875 -0.640625 
Q 12.796875 0.140625 7.71875 1.703125 
L 7.71875 11.625 
Q 12.109375 9.234375 16.796875 8.0625 
Q 21.484375 6.890625 26.703125 6.890625 
Q 35.15625 6.890625 40.078125 11.328125 
Q 45.015625 15.765625 45.015625 23.390625 
Q 45.015625 31 40.078125 35.4375 
Q 35.15625 39.890625 26.703125 39.890625 
Q 22.75 39.890625 18.8125 39.015625 
Q 14.890625 38.140625 10.796875 36.28125 
z
" id="DejaVuSans-53"/>
      </defs>
      <g transform="translate(157.236643 333.329439)rotate(-45)scale(0.1 -0.1)">
       <use xlink:href="#DejaVuSans-50"/>
       <use x="63.623047" xlink:href="#DejaVuSans-48"/>
       <use x="127.246094" xlink:href="#DejaVuSans-50"/>
       <use x="190.869141" xlink:href="#DejaVuSans-48"/>
       <use x="254.492188" xlink:href="#DejaVuSans-45"/>
       <use x="290.576172" xlink:href="#DejaVuSans-48"/>
       <use x="354.199219" xlink:href="#DejaVuSans-51"/>
       <use x="417.822266" xlink:href="#DejaVuSans-45"/>
       <use x="453.90625" xlink:href="#DejaVuSans-49"/>
       <use x="517.529297" xlink:href="#DejaVuSans-53"/>
      </g>
     </g>
    </g>
    <g id="xtick_3">
     <g id="line2d_3">
      <g>
       <use style="stroke:#000000;stroke-width:0.8;" x="253.578041" xlink:href="#meee146b801" y="279.86258"/>
      </g>
     </g>
     <g id="text_3">
      <!-- 2020-04-01 -->
      <defs>
       <path d="M 37.796875 64.3125 
L 12.890625 25.390625 
L 37.796875 25.390625 
z
M 35.203125 72.90625 
L 47.609375 72.90625 
L 47.609375 25.390625 
L 58.015625 25.390625 
L 58.015625 17.1875 
L 47.609375 17.1875 
L 47.609375 0 
L 37.796875 0 
L 37.796875 17.1875 
L 4.890625 17.1875 
L 4.890625 26.703125 
z
" id="DejaVuSans-52"/>
      </defs>
      <g transform="translate(234.982238 333.329439)rotate(-45)scale(0.1 -0.1)">
       <use xlink:href="#DejaVuSans-50"/>
       <use x="63.623047" xlink:href="#DejaVuSans-48"/>
       <use x="127.246094" xlink:href="#DejaVuSans-50"/>
       <use x="190.869141" xlink:href="#DejaVuSans-48"/>
       <use x="254.492188" xlink:href="#DejaVuSans-45"/>
       <use x="290.576172" xlink:href="#DejaVuSans-48"/>
       <use x="354.199219" xlink:href="#DejaVuSans-52"/>
       <use x="417.822266" xlink:href="#DejaVuSans-45"/>
       <use x="453.90625" xlink:href="#DejaVuSans-48"/>
       <use x="517.529297" xlink:href="#DejaVuSans-49"/>
      </g>
     </g>
    </g>
    <g id="xtick_4">
     <g id="line2d_4">
      <g>
       <use style="stroke:#000000;stroke-width:0.8;" x="317.603825" xlink:href="#meee146b801" y="279.86258"/>
      </g>
     </g>
     <g id="text_4">
      <!-- 2020-04-15 -->
      <g transform="translate(299.008022 333.329439)rotate(-45)scale(0.1 -0.1)">
       <use xlink:href="#DejaVuSans-50"/>
       <use x="63.623047" xlink:href="#DejaVuSans-48"/>
       <use x="127.246094" xlink:href="#DejaVuSans-50"/>
       <use x="190.869141" xlink:href="#DejaVuSans-48"/>
       <use x="254.492188" xlink:href="#DejaVuSans-45"/>
       <use x="290.576172" xlink:href="#DejaVuSans-48"/>
       <use x="354.199219" xlink:href="#DejaVuSans-52"/>
       <use x="417.822266" xlink:href="#DejaVuSans-45"/>
       <use x="453.90625" xlink:href="#DejaVuSans-49"/>
       <use x="517.529297" xlink:href="#DejaVuSans-53"/>
      </g>
     </g>
    </g>
    <g id="xtick_5">
     <g id="line2d_5">
      <g>
       <use style="stroke:#000000;stroke-width:0.8;" x="390.77615" xlink:href="#meee146b801" y="279.86258"/>
      </g>
     </g>
     <g id="text_5">
      <!-- 2020-05-01 -->
      <g transform="translate(372.180346 333.329439)rotate(-45)scale(0.1 -0.1)">
       <use xlink:href="#DejaVuSans-50"/>
       <use x="63.623047" xlink:href="#DejaVuSans-48"/>
       <use x="127.246094" xlink:href="#DejaVuSans-50"/>
       <use x="190.869141" xlink:href="#DejaVuSans-48"/>
       <use x="254.492188" xlink:href="#DejaVuSans-45"/>
       <use x="290.576172" xlink:href="#DejaVuSans-48"/>
       <use x="354.199219" xlink:href="#DejaVuSans-53"/>
       <use x="417.822266" xlink:href="#DejaVuSans-45"/>
       <use x="453.90625" xlink:href="#DejaVuSans-48"/>
       <use x="517.529297" xlink:href="#DejaVuSans-49"/>
      </g>
     </g>
    </g>
   </g>
   <g id="matplotlib.axis_2">
    <g id="ytick_1">
     <g id="line2d_6">
      <defs>
       <path d="M 0 0 
L -3.5 0 
" id="m4904b96574" style="stroke:#000000;stroke-width:0.8;"/>
      </defs>
      <g>
       <use style="stroke:#000000;stroke-width:0.8;" x="52.582813" xlink:href="#m4904b96574" y="245.239147"/>
      </g>
     </g>
     <g id="text_6">
      <!-- −20 -->
      <defs>
       <path d="M 10.59375 35.5 
L 73.1875 35.5 
L 73.1875 27.203125 
L 10.59375 27.203125 
z
" id="DejaVuSans-8722"/>
      </defs>
      <g transform="translate(24.478125 249.038366)scale(0.1 -0.1)">
       <use xlink:href="#DejaVuSans-8722"/>
       <use x="83.789062" xlink:href="#DejaVuSans-50"/>
       <use x="147.412109" xlink:href="#DejaVuSans-48"/>
      </g>
     </g>
    </g>
    <g id="ytick_2">
     <g id="line2d_7">
      <g>
       <use style="stroke:#000000;stroke-width:0.8;" x="52.582813" xlink:href="#m4904b96574" y="191.874232"/>
      </g>
     </g>
     <g id="text_7">
      <!-- −10 -->
      <g transform="translate(24.478125 195.673451)scale(0.1 -0.1)">
       <use xlink:href="#DejaVuSans-8722"/>
       <use x="83.789062" xlink:href="#DejaVuSans-49"/>
       <use x="147.412109" xlink:href="#DejaVuSans-48"/>
      </g>
     </g>
    </g>
    <g id="ytick_3">
     <g id="line2d_8">
      <g>
       <use style="stroke:#000000;stroke-width:0.8;" x="52.582813" xlink:href="#m4904b96574" y="138.509317"/>
      </g>
     </g>
     <g id="text_8">
      <!-- 0 -->
      <g transform="translate(39.220313 142.308535)scale(0.1 -0.1)">
       <use xlink:href="#DejaVuSans-48"/>
      </g>
     </g>
    </g>
    <g id="ytick_4">
     <g id="line2d_9">
      <g>
       <use style="stroke:#000000;stroke-width:0.8;" x="52.582813" xlink:href="#m4904b96574" y="85.144401"/>
      </g>
     </g>
     <g id="text_9">
      <!-- 10 -->
      <g transform="translate(32.857813 88.94362)scale(0.1 -0.1)">
       <use xlink:href="#DejaVuSans-49"/>
       <use x="63.623047" xlink:href="#DejaVuSans-48"/>
      </g>
     </g>
    </g>
    <g id="ytick_5">
     <g id="line2d_10">
      <g>
       <use style="stroke:#000000;stroke-width:0.8;" x="52.582813" xlink:href="#m4904b96574" y="31.779486"/>
      </g>
     </g>
     <g id="text_10">
      <!-- 20 -->
      <g transform="translate(32.857813 35.578705)scale(0.1 -0.1)">
       <use xlink:href="#DejaVuSans-50"/>
       <use x="63.623047" xlink:href="#DejaVuSans-48"/>
      </g>
     </g>
    </g>
    <g id="text_11">
     <!-- GA pcr (por 100000 hab.) diarios -->
     <defs>
      <path d="M 59.515625 10.40625 
L 59.515625 29.984375 
L 43.40625 29.984375 
L 43.40625 38.09375 
L 69.28125 38.09375 
L 69.28125 6.78125 
Q 63.578125 2.734375 56.6875 0.65625 
Q 49.8125 -1.421875 42 -1.421875 
Q 24.90625 -1.421875 15.25 8.5625 
Q 5.609375 18.5625 5.609375 36.375 
Q 5.609375 54.25 15.25 64.234375 
Q 24.90625 74.21875 42 74.21875 
Q 49.125 74.21875 55.546875 72.453125 
Q 61.96875 70.703125 67.390625 67.28125 
L 67.390625 56.78125 
Q 61.921875 61.421875 55.765625 63.765625 
Q 49.609375 66.109375 42.828125 66.109375 
Q 29.4375 66.109375 22.71875 58.640625 
Q 16.015625 51.171875 16.015625 36.375 
Q 16.015625 21.625 22.71875 14.15625 
Q 29.4375 6.6875 42.828125 6.6875 
Q 48.046875 6.6875 52.140625 7.59375 
Q 56.25 8.5 59.515625 10.40625 
z
" id="DejaVuSans-71"/>
      <path d="M 34.1875 63.1875 
L 20.796875 26.90625 
L 47.609375 26.90625 
z
M 28.609375 72.90625 
L 39.796875 72.90625 
L 67.578125 0 
L 57.328125 0 
L 50.6875 18.703125 
L 17.828125 18.703125 
L 11.1875 0 
L 0.78125 0 
z
" id="DejaVuSans-65"/>
      <path id="DejaVuSans-32"/>
      <path d="M 18.109375 8.203125 
L 18.109375 -20.796875 
L 9.078125 -20.796875 
L 9.078125 54.6875 
L 18.109375 54.6875 
L 18.109375 46.390625 
Q 20.953125 51.265625 25.265625 53.625 
Q 29.59375 56 35.59375 56 
Q 45.5625 56 51.78125 48.09375 
Q 58.015625 40.1875 58.015625 27.296875 
Q 58.015625 14.40625 51.78125 6.484375 
Q 45.5625 -1.421875 35.59375 -1.421875 
Q 29.59375 -1.421875 25.265625 0.953125 
Q 20.953125 3.328125 18.109375 8.203125 
z
M 48.6875 27.296875 
Q 48.6875 37.203125 44.609375 42.84375 
Q 40.53125 48.484375 33.40625 48.484375 
Q 26.265625 48.484375 22.1875 42.84375 
Q 18.109375 37.203125 18.109375 27.296875 
Q 18.109375 17.390625 22.1875 11.75 
Q 26.265625 6.109375 33.40625 6.109375 
Q 40.53125 6.109375 44.609375 11.75 
Q 48.6875 17.390625 48.6875 27.296875 
z
" id="DejaVuSans-112"/>
      <path d="M 48.78125 52.59375 
L 48.78125 44.1875 
Q 44.96875 46.296875 41.140625 47.34375 
Q 37.3125 48.390625 33.40625 48.390625 
Q 24.65625 48.390625 19.8125 42.84375 
Q 14.984375 37.3125 14.984375 27.296875 
Q 14.984375 17.28125 19.8125 11.734375 
Q 24.65625 6.203125 33.40625 6.203125 
Q 37.3125 6.203125 41.140625 7.25 
Q 44.96875 8.296875 48.78125 10.40625 
L 48.78125 2.09375 
Q 45.015625 0.34375 40.984375 -0.53125 
Q 36.96875 -1.421875 32.421875 -1.421875 
Q 20.0625 -1.421875 12.78125 6.34375 
Q 5.515625 14.109375 5.515625 27.296875 
Q 5.515625 40.671875 12.859375 48.328125 
Q 20.21875 56 33.015625 56 
Q 37.15625 56 41.109375 55.140625 
Q 45.0625 54.296875 48.78125 52.59375 
z
" id="DejaVuSans-99"/>
      <path d="M 41.109375 46.296875 
Q 39.59375 47.171875 37.8125 47.578125 
Q 36.03125 48 33.890625 48 
Q 26.265625 48 22.1875 43.046875 
Q 18.109375 38.09375 18.109375 28.8125 
L 18.109375 0 
L 9.078125 0 
L 9.078125 54.6875 
L 18.109375 54.6875 
L 18.109375 46.1875 
Q 20.953125 51.171875 25.484375 53.578125 
Q 30.03125 56 36.53125 56 
Q 37.453125 56 38.578125 55.875 
Q 39.703125 55.765625 41.0625 55.515625 
z
" id="DejaVuSans-114"/>
      <path d="M 31 75.875 
Q 24.46875 64.65625 21.28125 53.65625 
Q 18.109375 42.671875 18.109375 31.390625 
Q 18.109375 20.125 21.3125 9.0625 
Q 24.515625 -2 31 -13.1875 
L 23.1875 -13.1875 
Q 15.875 -1.703125 12.234375 9.375 
Q 8.59375 20.453125 8.59375 31.390625 
Q 8.59375 42.28125 12.203125 53.3125 
Q 15.828125 64.359375 23.1875 75.875 
z
" id="DejaVuSans-40"/>
      <path d="M 30.609375 48.390625 
Q 23.390625 48.390625 19.1875 42.75 
Q 14.984375 37.109375 14.984375 27.296875 
Q 14.984375 17.484375 19.15625 11.84375 
Q 23.34375 6.203125 30.609375 6.203125 
Q 37.796875 6.203125 41.984375 11.859375 
Q 46.1875 17.53125 46.1875 27.296875 
Q 46.1875 37.015625 41.984375 42.703125 
Q 37.796875 48.390625 30.609375 48.390625 
z
M 30.609375 56 
Q 42.328125 56 49.015625 48.375 
Q 55.71875 40.765625 55.71875 27.296875 
Q 55.71875 13.875 49.015625 6.21875 
Q 42.328125 -1.421875 30.609375 -1.421875 
Q 18.84375 -1.421875 12.171875 6.21875 
Q 5.515625 13.875 5.515625 27.296875 
Q 5.515625 40.765625 12.171875 48.375 
Q 18.84375 56 30.609375 56 
z
" id="DejaVuSans-111"/>
      <path d="M 54.890625 33.015625 
L 54.890625 0 
L 45.90625 0 
L 45.90625 32.71875 
Q 45.90625 40.484375 42.875 44.328125 
Q 39.84375 48.1875 33.796875 48.1875 
Q 26.515625 48.1875 22.3125 43.546875 
Q 18.109375 38.921875 18.109375 30.90625 
L 18.109375 0 
L 9.078125 0 
L 9.078125 75.984375 
L 18.109375 75.984375 
L 18.109375 46.1875 
Q 21.34375 51.125 25.703125 53.5625 
Q 30.078125 56 35.796875 56 
Q 45.21875 56 50.046875 50.171875 
Q 54.890625 44.34375 54.890625 33.015625 
z
" id="DejaVuSans-104"/>
      <path d="M 34.28125 27.484375 
Q 23.390625 27.484375 19.1875 25 
Q 14.984375 22.515625 14.984375 16.5 
Q 14.984375 11.71875 18.140625 8.90625 
Q 21.296875 6.109375 26.703125 6.109375 
Q 34.1875 6.109375 38.703125 11.40625 
Q 43.21875 16.703125 43.21875 25.484375 
L 43.21875 27.484375 
z
M 52.203125 31.203125 
L 52.203125 0 
L 43.21875 0 
L 43.21875 8.296875 
Q 40.140625 3.328125 35.546875 0.953125 
Q 30.953125 -1.421875 24.3125 -1.421875 
Q 15.921875 -1.421875 10.953125 3.296875 
Q 6 8.015625 6 15.921875 
Q 6 25.140625 12.171875 29.828125 
Q 18.359375 34.515625 30.609375 34.515625 
L 43.21875 34.515625 
L 43.21875 35.40625 
Q 43.21875 41.609375 39.140625 45 
Q 35.0625 48.390625 27.6875 48.390625 
Q 23 48.390625 18.546875 47.265625 
Q 14.109375 46.140625 10.015625 43.890625 
L 10.015625 52.203125 
Q 14.9375 54.109375 19.578125 55.046875 
Q 24.21875 56 28.609375 56 
Q 40.484375 56 46.34375 49.84375 
Q 52.203125 43.703125 52.203125 31.203125 
z
" id="DejaVuSans-97"/>
      <path d="M 48.6875 27.296875 
Q 48.6875 37.203125 44.609375 42.84375 
Q 40.53125 48.484375 33.40625 48.484375 
Q 26.265625 48.484375 22.1875 42.84375 
Q 18.109375 37.203125 18.109375 27.296875 
Q 18.109375 17.390625 22.1875 11.75 
Q 26.265625 6.109375 33.40625 6.109375 
Q 40.53125 6.109375 44.609375 11.75 
Q 48.6875 17.390625 48.6875 27.296875 
z
M 18.109375 46.390625 
Q 20.953125 51.265625 25.265625 53.625 
Q 29.59375 56 35.59375 56 
Q 45.5625 56 51.78125 48.09375 
Q 58.015625 40.1875 58.015625 27.296875 
Q 58.015625 14.40625 51.78125 6.484375 
Q 45.5625 -1.421875 35.59375 -1.421875 
Q 29.59375 -1.421875 25.265625 0.953125 
Q 20.953125 3.328125 18.109375 8.203125 
L 18.109375 0 
L 9.078125 0 
L 9.078125 75.984375 
L 18.109375 75.984375 
z
" id="DejaVuSans-98"/>
      <path d="M 10.6875 12.40625 
L 21 12.40625 
L 21 0 
L 10.6875 0 
z
" id="DejaVuSans-46"/>
      <path d="M 8.015625 75.875 
L 15.828125 75.875 
Q 23.140625 64.359375 26.78125 53.3125 
Q 30.421875 42.28125 30.421875 31.390625 
Q 30.421875 20.453125 26.78125 9.375 
Q 23.140625 -1.703125 15.828125 -13.1875 
L 8.015625 -13.1875 
Q 14.5 -2 17.703125 9.0625 
Q 20.90625 20.125 20.90625 31.390625 
Q 20.90625 42.671875 17.703125 53.65625 
Q 14.5 64.65625 8.015625 75.875 
z
" id="DejaVuSans-41"/>
      <path d="M 45.40625 46.390625 
L 45.40625 75.984375 
L 54.390625 75.984375 
L 54.390625 0 
L 45.40625 0 
L 45.40625 8.203125 
Q 42.578125 3.328125 38.25 0.953125 
Q 33.9375 -1.421875 27.875 -1.421875 
Q 17.96875 -1.421875 11.734375 6.484375 
Q 5.515625 14.40625 5.515625 27.296875 
Q 5.515625 40.1875 11.734375 48.09375 
Q 17.96875 56 27.875 56 
Q 33.9375 56 38.25 53.625 
Q 42.578125 51.265625 45.40625 46.390625 
z
M 14.796875 27.296875 
Q 14.796875 17.390625 18.875 11.75 
Q 22.953125 6.109375 30.078125 6.109375 
Q 37.203125 6.109375 41.296875 11.75 
Q 45.40625 17.390625 45.40625 27.296875 
Q 45.40625 37.203125 41.296875 42.84375 
Q 37.203125 48.484375 30.078125 48.484375 
Q 22.953125 48.484375 18.875 42.84375 
Q 14.796875 37.203125 14.796875 27.296875 
z
" id="DejaVuSans-100"/>
      <path d="M 9.421875 54.6875 
L 18.40625 54.6875 
L 18.40625 0 
L 9.421875 0 
z
M 9.421875 75.984375 
L 18.40625 75.984375 
L 18.40625 64.59375 
L 9.421875 64.59375 
z
" id="DejaVuSans-105"/>
      <path d="M 44.28125 53.078125 
L 44.28125 44.578125 
Q 40.484375 46.53125 36.375 47.5 
Q 32.28125 48.484375 27.875 48.484375 
Q 21.1875 48.484375 17.84375 46.4375 
Q 14.5 44.390625 14.5 40.28125 
Q 14.5 37.15625 16.890625 35.375 
Q 19.28125 33.59375 26.515625 31.984375 
L 29.59375 31.296875 
Q 39.15625 29.25 43.1875 25.515625 
Q 47.21875 21.78125 47.21875 15.09375 
Q 47.21875 7.46875 41.1875 3.015625 
Q 35.15625 -1.421875 24.609375 -1.421875 
Q 20.21875 -1.421875 15.453125 -0.5625 
Q 10.6875 0.296875 5.421875 2 
L 5.421875 11.28125 
Q 10.40625 8.6875 15.234375 7.390625 
Q 20.0625 6.109375 24.8125 6.109375 
Q 31.15625 6.109375 34.5625 8.28125 
Q 37.984375 10.453125 37.984375 14.40625 
Q 37.984375 18.0625 35.515625 20.015625 
Q 33.0625 21.96875 24.703125 23.78125 
L 21.578125 24.515625 
Q 13.234375 26.265625 9.515625 29.90625 
Q 5.8125 33.546875 5.8125 39.890625 
Q 5.8125 47.609375 11.28125 51.796875 
Q 16.75 56 26.8125 56 
Q 31.78125 56 36.171875 55.265625 
Q 40.578125 54.546875 44.28125 53.078125 
z
" id="DejaVuSans-115"/>
     </defs>
     <g transform="translate(18.398438 227.560196)rotate(-90)scale(0.1 -0.1)">
      <use xlink:href="#DejaVuSans-71"/>
      <use x="77.490234" xlink:href="#DejaVuSans-65"/>
      <use x="145.898438" xlink:href="#DejaVuSans-32"/>
      <use x="177.685547" xlink:href="#DejaVuSans-112"/>
      <use x="241.162109" xlink:href="#DejaVuSans-99"/>
      <use x="296.142578" xlink:href="#DejaVuSans-114"/>
      <use x="337.255859" xlink:href="#DejaVuSans-32"/>
      <use x="369.042969" xlink:href="#DejaVuSans-40"/>
      <use x="408.056641" xlink:href="#DejaVuSans-112"/>
      <use x="471.533203" xlink:href="#DejaVuSans-111"/>
      <use x="532.714844" xlink:href="#DejaVuSans-114"/>
      <use x="573.828125" xlink:href="#DejaVuSans-32"/>
      <use x="605.615234" xlink:href="#DejaVuSans-49"/>
      <use x="669.238281" xlink:href="#DejaVuSans-48"/>
      <use x="732.861328" xlink:href="#DejaVuSans-48"/>
      <use x="796.484375" xlink:href="#DejaVuSans-48"/>
      <use x="860.107422" xlink:href="#DejaVuSans-48"/>
      <use x="923.730469" xlink:href="#DejaVuSans-48"/>
      <use x="987.353516" xlink:href="#DejaVuSans-32"/>
      <use x="1019.140625" xlink:href="#DejaVuSans-104"/>
      <use x="1082.519531" xlink:href="#DejaVuSans-97"/>
      <use x="1143.798828" xlink:href="#DejaVuSans-98"/>
      <use x="1207.275391" xlink:href="#DejaVuSans-46"/>
      <use x="1239.0625" xlink:href="#DejaVuSans-41"/>
      <use x="1278.076172" xlink:href="#DejaVuSans-32"/>
      <use x="1309.863281" xlink:href="#DejaVuSans-100"/>
      <use x="1373.339844" xlink:href="#DejaVuSans-105"/>
      <use x="1401.123047" xlink:href="#DejaVuSans-97"/>
      <use x="1462.402344" xlink:href="#DejaVuSans-114"/>
      <use x="1503.515625" xlink:href="#DejaVuSans-105"/>
      <use x="1531.298828" xlink:href="#DejaVuSans-111"/>
      <use x="1592.480469" xlink:href="#DejaVuSans-115"/>
     </g>
    </g>
   </g>
   <g id="line2d_11">
    <path clip-path="url(#pc63ade560a)" d="M 70.64723 138.509317 
L 75.2205 138.509317 
L 79.793771 138.509317 
L 84.367041 138.509317 
L 88.940311 138.509317 
L 93.513582 138.509317 
L 98.086852 138.509317 
L 102.660122 138.509317 
L 107.233392 138.509317 
L 111.806663 138.509317 
L 116.379933 138.509317 
L 120.953203 138.311578 
L 125.526473 138.509317 
L 130.099744 138.11384 
L 134.673014 138.509317 
L 139.246284 138.11384 
L 143.819555 138.311578 
L 148.392825 135.345503 
L 152.966095 135.938718 
L 157.539365 138.509317 
L 162.112636 128.622399 
L 166.685906 132.577166 
L 171.259176 122.690248 
L 175.832447 128.622399 
L 180.405717 129.215614 
L 184.978987 128.820137 
L 189.552257 116.362621 
L 194.125528 113.792022 
L 198.698798 106.673441 
L 203.272068 103.707366 
L 207.845339 80.571979 
L 212.418609 97.577477 
L 216.991879 91.447588 
L 221.565149 86.701868 
L 226.13842 58.029806 
L 230.71169 49.527057 
L 235.28496 65.93934 
L 239.858231 23.030117 
L 244.431501 76.023996 
L 249.004771 60.798143 
L 253.578041 57.436591 
L 258.151312 63.961957 
L 262.724582 58.227544 
L 267.297852 75.430781 
L 271.871123 97.577477 
L 276.444393 102.916413 
L 281.017663 97.577477 
L 285.590933 95.006878 
L 290.164204 101.334506 
L 294.737474 93.029495 
L 299.310744 106.87118 
L 303.884014 107.266656 
L 308.457285 118.142266 
L 313.030555 116.560359 
L 317.603825 105.882488 
L 322.177096 110.825947 
L 326.750366 124.469893 
L 331.323636 118.537743 
L 335.896906 115.967144 
L 340.470177 105.091535 
L 345.043447 105.68475 
L 349.616717 104.696058 
L 354.189988 113.396545 
L 358.763258 102.125459 
L 363.336528 126.645015 
L 367.909798 126.249539 
L 372.483069 120.712865 
L 377.056339 267.632462 
L 381.629609 134.159073 
L 386.20288 108.650825 
L 390.77615 127.831445 
L 395.34942 125.656324 
L 399.92269 129.808829 
L 404.495961 130.599782 
L 409.069231 129.413352 
L 413.642501 131.192997 
L 418.215772 128.622399 
L 422.789042 132.181689 
L 427.362312 131.192997 
L 431.935582 133.170381 
" style="fill:none;stroke:#1f77b4;stroke-linecap:square;stroke-width:1.5;"/>
    <defs>
     <path d="M 0 1.5 
C 0.397805 1.5 0.77937 1.341951 1.06066 1.06066 
C 1.341951 0.77937 1.5 0.397805 1.5 0 
C 1.5 -0.397805 1.341951 -0.77937 1.06066 -1.06066 
C 0.77937 -1.341951 0.397805 -1.5 0 -1.5 
C -0.397805 -1.5 -0.77937 -1.341951 -1.06066 -1.06066 
C -1.341951 -0.77937 -1.5 -0.397805 -1.5 0 
C -1.5 0.397805 -1.341951 0.77937 -1.06066 1.06066 
C -0.77937 1.341951 -0.397805 1.5 0 1.5 
z
" id="m802cb39c7e" style="stroke:#1f77b4;"/>
    </defs>
    <g clip-path="url(#pc63ade560a)">
     <use style="fill:#1f77b4;stroke:#1f77b4;" x="70.64723" xlink:href="#m802cb39c7e" y="138.509317"/>
     <use style="fill:#1f77b4;stroke:#1f77b4;" x="75.2205" xlink:href="#m802cb39c7e" y="138.509317"/>
     <use style="fill:#1f77b4;stroke:#1f77b4;" x="79.793771" xlink:href="#m802cb39c7e" y="138.509317"/>
     <use style="fill:#1f77b4;stroke:#1f77b4;" x="84.367041" xlink:href="#m802cb39c7e" y="138.509317"/>
     <use style="fill:#1f77b4;stroke:#1f77b4;" x="88.940311" xlink:href="#m802cb39c7e" y="138.509317"/>
     <use style="fill:#1f77b4;stroke:#1f77b4;" x="93.513582" xlink:href="#m802cb39c7e" y="138.509317"/>
     <use style="fill:#1f77b4;stroke:#1f77b4;" x="98.086852" xlink:href="#m802cb39c7e" y="138.509317"/>
     <use style="fill:#1f77b4;stroke:#1f77b4;" x="102.660122" xlink:href="#m802cb39c7e" y="138.509317"/>
     <use style="fill:#1f77b4;stroke:#1f77b4;" x="107.233392" xlink:href="#m802cb39c7e" y="138.509317"/>
     <use style="fill:#1f77b4;stroke:#1f77b4;" x="111.806663" xlink:href="#m802cb39c7e" y="138.509317"/>
     <use style="fill:#1f77b4;stroke:#1f77b4;" x="116.379933" xlink:href="#m802cb39c7e" y="138.509317"/>
     <use style="fill:#1f77b4;stroke:#1f77b4;" x="120.953203" xlink:href="#m802cb39c7e" y="138.311578"/>
     <use style="fill:#1f77b4;stroke:#1f77b4;" x="125.526473" xlink:href="#m802cb39c7e" y="138.509317"/>
     <use style="fill:#1f77b4;stroke:#1f77b4;" x="130.099744" xlink:href="#m802cb39c7e" y="138.11384"/>
     <use style="fill:#1f77b4;stroke:#1f77b4;" x="134.673014" xlink:href="#m802cb39c7e" y="138.509317"/>
     <use style="fill:#1f77b4;stroke:#1f77b4;" x="139.246284" xlink:href="#m802cb39c7e" y="138.11384"/>
     <use style="fill:#1f77b4;stroke:#1f77b4;" x="143.819555" xlink:href="#m802cb39c7e" y="138.311578"/>
     <use style="fill:#1f77b4;stroke:#1f77b4;" x="148.392825" xlink:href="#m802cb39c7e" y="135.345503"/>
     <use style="fill:#1f77b4;stroke:#1f77b4;" x="152.966095" xlink:href="#m802cb39c7e" y="135.938718"/>
     <use style="fill:#1f77b4;stroke:#1f77b4;" x="157.539365" xlink:href="#m802cb39c7e" y="138.509317"/>
     <use style="fill:#1f77b4;stroke:#1f77b4;" x="162.112636" xlink:href="#m802cb39c7e" y="128.622399"/>
     <use style="fill:#1f77b4;stroke:#1f77b4;" x="166.685906" xlink:href="#m802cb39c7e" y="132.577166"/>
     <use style="fill:#1f77b4;stroke:#1f77b4;" x="171.259176" xlink:href="#m802cb39c7e" y="122.690248"/>
     <use style="fill:#1f77b4;stroke:#1f77b4;" x="175.832447" xlink:href="#m802cb39c7e" y="128.622399"/>
     <use style="fill:#1f77b4;stroke:#1f77b4;" x="180.405717" xlink:href="#m802cb39c7e" y="129.215614"/>
     <use style="fill:#1f77b4;stroke:#1f77b4;" x="184.978987" xlink:href="#m802cb39c7e" y="128.820137"/>
     <use style="fill:#1f77b4;stroke:#1f77b4;" x="189.552257" xlink:href="#m802cb39c7e" y="116.362621"/>
     <use style="fill:#1f77b4;stroke:#1f77b4;" x="194.125528" xlink:href="#m802cb39c7e" y="113.792022"/>
     <use style="fill:#1f77b4;stroke:#1f77b4;" x="198.698798" xlink:href="#m802cb39c7e" y="106.673441"/>
     <use style="fill:#1f77b4;stroke:#1f77b4;" x="203.272068" xlink:href="#m802cb39c7e" y="103.707366"/>
     <use style="fill:#1f77b4;stroke:#1f77b4;" x="207.845339" xlink:href="#m802cb39c7e" y="80.571979"/>
     <use style="fill:#1f77b4;stroke:#1f77b4;" x="212.418609" xlink:href="#m802cb39c7e" y="97.577477"/>
     <use style="fill:#1f77b4;stroke:#1f77b4;" x="216.991879" xlink:href="#m802cb39c7e" y="91.447588"/>
     <use style="fill:#1f77b4;stroke:#1f77b4;" x="221.565149" xlink:href="#m802cb39c7e" y="86.701868"/>
     <use style="fill:#1f77b4;stroke:#1f77b4;" x="226.13842" xlink:href="#m802cb39c7e" y="58.029806"/>
     <use style="fill:#1f77b4;stroke:#1f77b4;" x="230.71169" xlink:href="#m802cb39c7e" y="49.527057"/>
     <use style="fill:#1f77b4;stroke:#1f77b4;" x="235.28496" xlink:href="#m802cb39c7e" y="65.93934"/>
     <use style="fill:#1f77b4;stroke:#1f77b4;" x="239.858231" xlink:href="#m802cb39c7e" y="23.030117"/>
     <use style="fill:#1f77b4;stroke:#1f77b4;" x="244.431501" xlink:href="#m802cb39c7e" y="76.023996"/>
     <use style="fill:#1f77b4;stroke:#1f77b4;" x="249.004771" xlink:href="#m802cb39c7e" y="60.798143"/>
     <use style="fill:#1f77b4;stroke:#1f77b4;" x="253.578041" xlink:href="#m802cb39c7e" y="57.436591"/>
     <use style="fill:#1f77b4;stroke:#1f77b4;" x="258.151312" xlink:href="#m802cb39c7e" y="63.961957"/>
     <use style="fill:#1f77b4;stroke:#1f77b4;" x="262.724582" xlink:href="#m802cb39c7e" y="58.227544"/>
     <use style="fill:#1f77b4;stroke:#1f77b4;" x="267.297852" xlink:href="#m802cb39c7e" y="75.430781"/>
     <use style="fill:#1f77b4;stroke:#1f77b4;" x="271.871123" xlink:href="#m802cb39c7e" y="97.577477"/>
     <use style="fill:#1f77b4;stroke:#1f77b4;" x="276.444393" xlink:href="#m802cb39c7e" y="102.916413"/>
     <use style="fill:#1f77b4;stroke:#1f77b4;" x="281.017663" xlink:href="#m802cb39c7e" y="97.577477"/>
     <use style="fill:#1f77b4;stroke:#1f77b4;" x="285.590933" xlink:href="#m802cb39c7e" y="95.006878"/>
     <use style="fill:#1f77b4;stroke:#1f77b4;" x="290.164204" xlink:href="#m802cb39c7e" y="101.334506"/>
     <use style="fill:#1f77b4;stroke:#1f77b4;" x="294.737474" xlink:href="#m802cb39c7e" y="93.029495"/>
     <use style="fill:#1f77b4;stroke:#1f77b4;" x="299.310744" xlink:href="#m802cb39c7e" y="106.87118"/>
     <use style="fill:#1f77b4;stroke:#1f77b4;" x="303.884014" xlink:href="#m802cb39c7e" y="107.266656"/>
     <use style="fill:#1f77b4;stroke:#1f77b4;" x="308.457285" xlink:href="#m802cb39c7e" y="118.142266"/>
     <use style="fill:#1f77b4;stroke:#1f77b4;" x="313.030555" xlink:href="#m802cb39c7e" y="116.560359"/>
     <use style="fill:#1f77b4;stroke:#1f77b4;" x="317.603825" xlink:href="#m802cb39c7e" y="105.882488"/>
     <use style="fill:#1f77b4;stroke:#1f77b4;" x="322.177096" xlink:href="#m802cb39c7e" y="110.825947"/>
     <use style="fill:#1f77b4;stroke:#1f77b4;" x="326.750366" xlink:href="#m802cb39c7e" y="124.469893"/>
     <use style="fill:#1f77b4;stroke:#1f77b4;" x="331.323636" xlink:href="#m802cb39c7e" y="118.537743"/>
     <use style="fill:#1f77b4;stroke:#1f77b4;" x="335.896906" xlink:href="#m802cb39c7e" y="115.967144"/>
     <use style="fill:#1f77b4;stroke:#1f77b4;" x="340.470177" xlink:href="#m802cb39c7e" y="105.091535"/>
     <use style="fill:#1f77b4;stroke:#1f77b4;" x="345.043447" xlink:href="#m802cb39c7e" y="105.68475"/>
     <use style="fill:#1f77b4;stroke:#1f77b4;" x="349.616717" xlink:href="#m802cb39c7e" y="104.696058"/>
     <use style="fill:#1f77b4;stroke:#1f77b4;" x="354.189988" xlink:href="#m802cb39c7e" y="113.396545"/>
     <use style="fill:#1f77b4;stroke:#1f77b4;" x="358.763258" xlink:href="#m802cb39c7e" y="102.125459"/>
     <use style="fill:#1f77b4;stroke:#1f77b4;" x="363.336528" xlink:href="#m802cb39c7e" y="126.645015"/>
     <use style="fill:#1f77b4;stroke:#1f77b4;" x="367.909798" xlink:href="#m802cb39c7e" y="126.249539"/>
     <use style="fill:#1f77b4;stroke:#1f77b4;" x="372.483069" xlink:href="#m802cb39c7e" y="120.712865"/>
     <use style="fill:#1f77b4;stroke:#1f77b4;" x="377.056339" xlink:href="#m802cb39c7e" y="267.632462"/>
     <use style="fill:#1f77b4;stroke:#1f77b4;" x="381.629609" xlink:href="#m802cb39c7e" y="134.159073"/>
     <use style="fill:#1f77b4;stroke:#1f77b4;" x="386.20288" xlink:href="#m802cb39c7e" y="108.650825"/>
     <use style="fill:#1f77b4;stroke:#1f77b4;" x="390.77615" xlink:href="#m802cb39c7e" y="127.831445"/>
     <use style="fill:#1f77b4;stroke:#1f77b4;" x="395.34942" xlink:href="#m802cb39c7e" y="125.656324"/>
     <use style="fill:#1f77b4;stroke:#1f77b4;" x="399.92269" xlink:href="#m802cb39c7e" y="129.808829"/>
     <use style="fill:#1f77b4;stroke:#1f77b4;" x="404.495961" xlink:href="#m802cb39c7e" y="130.599782"/>
     <use style="fill:#1f77b4;stroke:#1f77b4;" x="409.069231" xlink:href="#m802cb39c7e" y="129.413352"/>
     <use style="fill:#1f77b4;stroke:#1f77b4;" x="413.642501" xlink:href="#m802cb39c7e" y="131.192997"/>
     <use style="fill:#1f77b4;stroke:#1f77b4;" x="418.215772" xlink:href="#m802cb39c7e" y="128.622399"/>
     <use style="fill:#1f77b4;stroke:#1f77b4;" x="422.789042" xlink:href="#m802cb39c7e" y="132.181689"/>
     <use style="fill:#1f77b4;stroke:#1f77b4;" x="427.362312" xlink:href="#m802cb39c7e" y="131.192997"/>
     <use style="fill:#1f77b4;stroke:#1f77b4;" x="431.935582" xlink:href="#m802cb39c7e" y="133.170381"/>
    </g>
   </g>
   <g id="patch_3">
    <path d="M 52.582813 279.86258 
L 52.582813 10.8 
" style="fill:none;stroke:#000000;stroke-linecap:square;stroke-linejoin:miter;stroke-width:0.8;"/>
   </g>
   <g id="patch_4">
    <path d="M 450 279.86258 
L 450 10.8 
" style="fill:none;stroke:#000000;stroke-linecap:square;stroke-linejoin:miter;stroke-width:0.8;"/>
   </g>
   <g id="patch_5">
    <path d="M 52.582813 279.86258 
L 450 279.86258 
" style="fill:none;stroke:#000000;stroke-linecap:square;stroke-linejoin:miter;stroke-width:0.8;"/>
   </g>
   <g id="patch_6">
    <path d="M 52.582813 10.8 
L 450 10.8 
" style="fill:none;stroke:#000000;stroke-linecap:square;stroke-linejoin:miter;stroke-width:0.8;"/>
   </g>
  </g>
 </g>
 <defs>
  <clipPath id="pc63ade560a">
   <rect height="269.06258" width="397.417187" x="52.582813" y="10.8"/>
  </clipPath>
 </defs>
</svg>
