<?xml version="1.0" encoding="utf-8" standalone="no"?>
<!DOCTYPE svg PUBLIC "-//W3C//DTD SVG 1.1//EN"
  "http://www.w3.org/Graphics/SVG/1.1/DTD/svg11.dtd">
<!-- Created with matplotlib (https://matplotlib.org/) -->
<svg height="345.6pt" version="1.1" viewBox="0 0 460.8 345.6" width="460.8pt" xmlns="http://www.w3.org/2000/svg" xmlns:xlink="http://www.w3.org/1999/xlink">
 <defs>
  <style type="text/css">
*{stroke-linecap:butt;stroke-linejoin:round;}
  </style>
 </defs>
 <g id="figure_1">
  <g id="patch_1">
   <path d="M 0 345.6 
L 460.8 345.6 
L 460.8 0 
L 0 0 
z
" style="fill:#ffffff;"/>
  </g>
  <g id="axes_1">
   <g id="patch_2">
    <path d="M 44.203125 279.86258 
L 446.083482 279.86258 
L 446.083482 10.8 
L 44.203125 10.8 
z
" style="fill:#ffffff;"/>
   </g>
   <g id="matplotlib.axis_1">
    <g id="xtick_1">
     <g id="line2d_1">
      <defs>
       <path d="M 0 0 
L 0 3.5 
" id="m1dab773355" style="stroke:#000000;stroke-width:0.8;"/>
      </defs>
      <g>
       <use style="stroke:#000000;stroke-width:0.8;" x="101.154085" xlink:href="#m1dab773355" y="279.86258"/>
      </g>
     </g>
     <g id="text_1">
      <!-- 2020-03-01 -->
      <defs>
       <path d="M 19.1875 8.296875 
L 53.609375 8.296875 
L 53.609375 0 
L 7.328125 0 
L 7.328125 8.296875 
Q 12.9375 14.109375 22.625 23.890625 
Q 32.328125 33.6875 34.8125 36.53125 
Q 39.546875 41.84375 41.421875 45.53125 
Q 43.3125 49.21875 43.3125 52.78125 
Q 43.3125 58.59375 39.234375 62.25 
Q 35.15625 65.921875 28.609375 65.921875 
Q 23.96875 65.921875 18.8125 64.3125 
Q 13.671875 62.703125 7.8125 59.421875 
L 7.8125 69.390625 
Q 13.765625 71.78125 18.9375 73 
Q 24.125 74.21875 28.421875 74.21875 
Q 39.75 74.21875 46.484375 68.546875 
Q 53.21875 62.890625 53.21875 53.421875 
Q 53.21875 48.921875 51.53125 44.890625 
Q 49.859375 40.875 45.40625 35.40625 
Q 44.1875 33.984375 37.640625 27.21875 
Q 31.109375 20.453125 19.1875 8.296875 
z
" id="DejaVuSans-50"/>
       <path d="M 31.78125 66.40625 
Q 24.171875 66.40625 20.328125 58.90625 
Q 16.5 51.421875 16.5 36.375 
Q 16.5 21.390625 20.328125 13.890625 
Q 24.171875 6.390625 31.78125 6.390625 
Q 39.453125 6.390625 43.28125 13.890625 
Q 47.125 21.390625 47.125 36.375 
Q 47.125 51.421875 43.28125 58.90625 
Q 39.453125 66.40625 31.78125 66.40625 
z
M 31.78125 74.21875 
Q 44.046875 74.21875 50.515625 64.515625 
Q 56.984375 54.828125 56.984375 36.375 
Q 56.984375 17.96875 50.515625 8.265625 
Q 44.046875 -1.421875 31.78125 -1.421875 
Q 19.53125 -1.421875 13.0625 8.265625 
Q 6.59375 17.96875 6.59375 36.375 
Q 6.59375 54.828125 13.0625 64.515625 
Q 19.53125 74.21875 31.78125 74.21875 
z
" id="DejaVuSans-48"/>
       <path d="M 4.890625 31.390625 
L 31.203125 31.390625 
L 31.203125 23.390625 
L 4.890625 23.390625 
z
" id="DejaVuSans-45"/>
       <path d="M 40.578125 39.3125 
Q 47.65625 37.796875 51.625 33 
Q 55.609375 28.21875 55.609375 21.1875 
Q 55.609375 10.40625 48.1875 4.484375 
Q 40.765625 -1.421875 27.09375 -1.421875 
Q 22.515625 -1.421875 17.65625 -0.515625 
Q 12.796875 0.390625 7.625 2.203125 
L 7.625 11.71875 
Q 11.71875 9.328125 16.59375 8.109375 
Q 21.484375 6.890625 26.8125 6.890625 
Q 36.078125 6.890625 40.9375 10.546875 
Q 45.796875 14.203125 45.796875 21.1875 
Q 45.796875 27.640625 41.28125 31.265625 
Q 36.765625 34.90625 28.71875 34.90625 
L 20.21875 34.90625 
L 20.21875 43.015625 
L 29.109375 43.015625 
Q 36.375 43.015625 40.234375 45.921875 
Q 44.09375 48.828125 44.09375 54.296875 
Q 44.09375 59.90625 40.109375 62.90625 
Q 36.140625 65.921875 28.71875 65.921875 
Q 24.65625 65.921875 20.015625 65.03125 
Q 15.375 64.15625 9.8125 62.3125 
L 9.8125 71.09375 
Q 15.4375 72.65625 20.34375 73.4375 
Q 25.25 74.21875 29.59375 74.21875 
Q 40.828125 74.21875 47.359375 69.109375 
Q 53.90625 64.015625 53.90625 55.328125 
Q 53.90625 49.265625 50.4375 45.09375 
Q 46.96875 40.921875 40.578125 39.3125 
z
" id="DejaVuSans-51"/>
       <path d="M 12.40625 8.296875 
L 28.515625 8.296875 
L 28.515625 63.921875 
L 10.984375 60.40625 
L 10.984375 69.390625 
L 28.421875 72.90625 
L 38.28125 72.90625 
L 38.28125 8.296875 
L 54.390625 8.296875 
L 54.390625 0 
L 12.40625 0 
z
" id="DejaVuSans-49"/>
      </defs>
      <g transform="translate(82.558281 333.329439)rotate(-45)scale(0.1 -0.1)">
       <use xlink:href="#DejaVuSans-50"/>
       <use x="63.623047" xlink:href="#DejaVuSans-48"/>
       <use x="127.246094" xlink:href="#DejaVuSans-50"/>
       <use x="190.869141" xlink:href="#DejaVuSans-48"/>
       <use x="254.492188" xlink:href="#DejaVuSans-45"/>
       <use x="290.576172" xlink:href="#DejaVuSans-48"/>
       <use x="354.199219" xlink:href="#DejaVuSans-51"/>
       <use x="417.822266" xlink:href="#DejaVuSans-45"/>
       <use x="453.90625" xlink:href="#DejaVuSans-48"/>
       <use x="517.529297" xlink:href="#DejaVuSans-49"/>
      </g>
     </g>
    </g>
    <g id="xtick_2">
     <g id="line2d_2">
      <g>
       <use style="stroke:#000000;stroke-width:0.8;" x="161.328684" xlink:href="#m1dab773355" y="279.86258"/>
      </g>
     </g>
     <g id="text_2">
      <!-- 2020-03-15 -->
      <defs>
       <path d="M 10.796875 72.90625 
L 49.515625 72.90625 
L 49.515625 64.59375 
L 19.828125 64.59375 
L 19.828125 46.734375 
Q 21.96875 47.46875 24.109375 47.828125 
Q 26.265625 48.1875 28.421875 48.1875 
Q 40.625 48.1875 47.75 41.5 
Q 54.890625 34.8125 54.890625 23.390625 
Q 54.890625 11.625 47.5625 5.09375 
Q 40.234375 -1.421875 26.90625 -1.421875 
Q 22.3125 -1.421875 17.546875 -0.640625 
Q 12.796875 0.140625 7.71875 1.703125 
L 7.71875 11.625 
Q 12.109375 9.234375 16.796875 8.0625 
Q 21.484375 6.890625 26.703125 6.890625 
Q 35.15625 6.890625 40.078125 11.328125 
Q 45.015625 15.765625 45.015625 23.390625 
Q 45.015625 31 40.078125 35.4375 
Q 35.15625 39.890625 26.703125 39.890625 
Q 22.75 39.890625 18.8125 39.015625 
Q 14.890625 38.140625 10.796875 36.28125 
z
" id="DejaVuSans-53"/>
      </defs>
      <g transform="translate(142.73288 333.329439)rotate(-45)scale(0.1 -0.1)">
       <use xlink:href="#DejaVuSans-50"/>
       <use x="63.623047" xlink:href="#DejaVuSans-48"/>
       <use x="127.246094" xlink:href="#DejaVuSans-50"/>
       <use x="190.869141" xlink:href="#DejaVuSans-48"/>
       <use x="254.492188" xlink:href="#DejaVuSans-45"/>
       <use x="290.576172" xlink:href="#DejaVuSans-48"/>
       <use x="354.199219" xlink:href="#DejaVuSans-51"/>
       <use x="417.822266" xlink:href="#DejaVuSans-45"/>
       <use x="453.90625" xlink:href="#DejaVuSans-49"/>
       <use x="517.529297" xlink:href="#DejaVuSans-53"/>
      </g>
     </g>
    </g>
    <g id="xtick_3">
     <g id="line2d_3">
      <g>
       <use style="stroke:#000000;stroke-width:0.8;" x="234.39784" xlink:href="#m1dab773355" y="279.86258"/>
      </g>
     </g>
     <g id="text_3">
      <!-- 2020-04-01 -->
      <defs>
       <path d="M 37.796875 64.3125 
L 12.890625 25.390625 
L 37.796875 25.390625 
z
M 35.203125 72.90625 
L 47.609375 72.90625 
L 47.609375 25.390625 
L 58.015625 25.390625 
L 58.015625 17.1875 
L 47.609375 17.1875 
L 47.609375 0 
L 37.796875 0 
L 37.796875 17.1875 
L 4.890625 17.1875 
L 4.890625 26.703125 
z
" id="DejaVuSans-52"/>
      </defs>
      <g transform="translate(215.802036 333.329439)rotate(-45)scale(0.1 -0.1)">
       <use xlink:href="#DejaVuSans-50"/>
       <use x="63.623047" xlink:href="#DejaVuSans-48"/>
       <use x="127.246094" xlink:href="#DejaVuSans-50"/>
       <use x="190.869141" xlink:href="#DejaVuSans-48"/>
       <use x="254.492188" xlink:href="#DejaVuSans-45"/>
       <use x="290.576172" xlink:href="#DejaVuSans-48"/>
       <use x="354.199219" xlink:href="#DejaVuSans-52"/>
       <use x="417.822266" xlink:href="#DejaVuSans-45"/>
       <use x="453.90625" xlink:href="#DejaVuSans-48"/>
       <use x="517.529297" xlink:href="#DejaVuSans-49"/>
      </g>
     </g>
    </g>
    <g id="xtick_4">
     <g id="line2d_4">
      <g>
       <use style="stroke:#000000;stroke-width:0.8;" x="294.572439" xlink:href="#m1dab773355" y="279.86258"/>
      </g>
     </g>
     <g id="text_4">
      <!-- 2020-04-15 -->
      <g transform="translate(275.976635 333.329439)rotate(-45)scale(0.1 -0.1)">
       <use xlink:href="#DejaVuSans-50"/>
       <use x="63.623047" xlink:href="#DejaVuSans-48"/>
       <use x="127.246094" xlink:href="#DejaVuSans-50"/>
       <use x="190.869141" xlink:href="#DejaVuSans-48"/>
       <use x="254.492188" xlink:href="#DejaVuSans-45"/>
       <use x="290.576172" xlink:href="#DejaVuSans-48"/>
       <use x="354.199219" xlink:href="#DejaVuSans-52"/>
       <use x="417.822266" xlink:href="#DejaVuSans-45"/>
       <use x="453.90625" xlink:href="#DejaVuSans-49"/>
       <use x="517.529297" xlink:href="#DejaVuSans-53"/>
      </g>
     </g>
    </g>
    <g id="xtick_5">
     <g id="line2d_5">
      <g>
       <use style="stroke:#000000;stroke-width:0.8;" x="363.343409" xlink:href="#m1dab773355" y="279.86258"/>
      </g>
     </g>
     <g id="text_5">
      <!-- 2020-05-01 -->
      <g transform="translate(344.747605 333.329439)rotate(-45)scale(0.1 -0.1)">
       <use xlink:href="#DejaVuSans-50"/>
       <use x="63.623047" xlink:href="#DejaVuSans-48"/>
       <use x="127.246094" xlink:href="#DejaVuSans-50"/>
       <use x="190.869141" xlink:href="#DejaVuSans-48"/>
       <use x="254.492188" xlink:href="#DejaVuSans-45"/>
       <use x="290.576172" xlink:href="#DejaVuSans-48"/>
       <use x="354.199219" xlink:href="#DejaVuSans-53"/>
       <use x="417.822266" xlink:href="#DejaVuSans-45"/>
       <use x="453.90625" xlink:href="#DejaVuSans-48"/>
       <use x="517.529297" xlink:href="#DejaVuSans-49"/>
      </g>
     </g>
    </g>
    <g id="xtick_6">
     <g id="line2d_6">
      <g>
       <use style="stroke:#000000;stroke-width:0.8;" x="423.518008" xlink:href="#m1dab773355" y="279.86258"/>
      </g>
     </g>
     <g id="text_6">
      <!-- 2020-05-15 -->
      <g transform="translate(404.922204 333.329439)rotate(-45)scale(0.1 -0.1)">
       <use xlink:href="#DejaVuSans-50"/>
       <use x="63.623047" xlink:href="#DejaVuSans-48"/>
       <use x="127.246094" xlink:href="#DejaVuSans-50"/>
       <use x="190.869141" xlink:href="#DejaVuSans-48"/>
       <use x="254.492188" xlink:href="#DejaVuSans-45"/>
       <use x="290.576172" xlink:href="#DejaVuSans-48"/>
       <use x="354.199219" xlink:href="#DejaVuSans-53"/>
       <use x="417.822266" xlink:href="#DejaVuSans-45"/>
       <use x="453.90625" xlink:href="#DejaVuSans-49"/>
       <use x="517.529297" xlink:href="#DejaVuSans-53"/>
      </g>
     </g>
    </g>
   </g>
   <g id="matplotlib.axis_2">
    <g id="ytick_1">
     <g id="line2d_7">
      <defs>
       <path d="M 0 0 
L -3.5 0 
" id="m493a919e41" style="stroke:#000000;stroke-width:0.8;"/>
      </defs>
      <g>
       <use style="stroke:#000000;stroke-width:0.8;" x="44.203125" xlink:href="#m493a919e41" y="279.86258"/>
      </g>
     </g>
     <g id="text_7">
      <!-- 0 -->
      <g transform="translate(30.840625 283.661798)scale(0.1 -0.1)">
       <use xlink:href="#DejaVuSans-48"/>
      </g>
     </g>
    </g>
    <g id="ytick_2">
     <g id="line2d_8">
      <g>
       <use style="stroke:#000000;stroke-width:0.8;" x="44.203125" xlink:href="#m493a919e41" y="238.446512"/>
      </g>
     </g>
     <g id="text_8">
      <!-- 5 -->
      <g transform="translate(30.840625 242.245731)scale(0.1 -0.1)">
       <use xlink:href="#DejaVuSans-53"/>
      </g>
     </g>
    </g>
    <g id="ytick_3">
     <g id="line2d_9">
      <g>
       <use style="stroke:#000000;stroke-width:0.8;" x="44.203125" xlink:href="#m493a919e41" y="197.030445"/>
      </g>
     </g>
     <g id="text_9">
      <!-- 10 -->
      <g transform="translate(24.478125 200.829664)scale(0.1 -0.1)">
       <use xlink:href="#DejaVuSans-49"/>
       <use x="63.623047" xlink:href="#DejaVuSans-48"/>
      </g>
     </g>
    </g>
    <g id="ytick_4">
     <g id="line2d_10">
      <g>
       <use style="stroke:#000000;stroke-width:0.8;" x="44.203125" xlink:href="#m493a919e41" y="155.614378"/>
      </g>
     </g>
     <g id="text_10">
      <!-- 15 -->
      <g transform="translate(24.478125 159.413596)scale(0.1 -0.1)">
       <use xlink:href="#DejaVuSans-49"/>
       <use x="63.623047" xlink:href="#DejaVuSans-53"/>
      </g>
     </g>
    </g>
    <g id="ytick_5">
     <g id="line2d_11">
      <g>
       <use style="stroke:#000000;stroke-width:0.8;" x="44.203125" xlink:href="#m493a919e41" y="114.19831"/>
      </g>
     </g>
     <g id="text_11">
      <!-- 20 -->
      <g transform="translate(24.478125 117.997529)scale(0.1 -0.1)">
       <use xlink:href="#DejaVuSans-50"/>
       <use x="63.623047" xlink:href="#DejaVuSans-48"/>
      </g>
     </g>
    </g>
    <g id="ytick_6">
     <g id="line2d_12">
      <g>
       <use style="stroke:#000000;stroke-width:0.8;" x="44.203125" xlink:href="#m493a919e41" y="72.782243"/>
      </g>
     </g>
     <g id="text_12">
      <!-- 25 -->
      <g transform="translate(24.478125 76.581462)scale(0.1 -0.1)">
       <use xlink:href="#DejaVuSans-50"/>
       <use x="63.623047" xlink:href="#DejaVuSans-53"/>
      </g>
     </g>
    </g>
    <g id="ytick_7">
     <g id="line2d_13">
      <g>
       <use style="stroke:#000000;stroke-width:0.8;" x="44.203125" xlink:href="#m493a919e41" y="31.366176"/>
      </g>
     </g>
     <g id="text_13">
      <!-- 30 -->
      <g transform="translate(24.478125 35.165394)scale(0.1 -0.1)">
       <use xlink:href="#DejaVuSans-51"/>
       <use x="63.623047" xlink:href="#DejaVuSans-48"/>
      </g>
     </g>
    </g>
    <g id="text_14">
     <!-- PV pcr (por 100000 hab.) diarios -->
     <defs>
      <path d="M 19.671875 64.796875 
L 19.671875 37.40625 
L 32.078125 37.40625 
Q 38.96875 37.40625 42.71875 40.96875 
Q 46.484375 44.53125 46.484375 51.125 
Q 46.484375 57.671875 42.71875 61.234375 
Q 38.96875 64.796875 32.078125 64.796875 
z
M 9.8125 72.90625 
L 32.078125 72.90625 
Q 44.34375 72.90625 50.609375 67.359375 
Q 56.890625 61.8125 56.890625 51.125 
Q 56.890625 40.328125 50.609375 34.8125 
Q 44.34375 29.296875 32.078125 29.296875 
L 19.671875 29.296875 
L 19.671875 0 
L 9.8125 0 
z
" id="DejaVuSans-80"/>
      <path d="M 28.609375 0 
L 0.78125 72.90625 
L 11.078125 72.90625 
L 34.1875 11.53125 
L 57.328125 72.90625 
L 67.578125 72.90625 
L 39.796875 0 
z
" id="DejaVuSans-86"/>
      <path id="DejaVuSans-32"/>
      <path d="M 18.109375 8.203125 
L 18.109375 -20.796875 
L 9.078125 -20.796875 
L 9.078125 54.6875 
L 18.109375 54.6875 
L 18.109375 46.390625 
Q 20.953125 51.265625 25.265625 53.625 
Q 29.59375 56 35.59375 56 
Q 45.5625 56 51.78125 48.09375 
Q 58.015625 40.1875 58.015625 27.296875 
Q 58.015625 14.40625 51.78125 6.484375 
Q 45.5625 -1.421875 35.59375 -1.421875 
Q 29.59375 -1.421875 25.265625 0.953125 
Q 20.953125 3.328125 18.109375 8.203125 
z
M 48.6875 27.296875 
Q 48.6875 37.203125 44.609375 42.84375 
Q 40.53125 48.484375 33.40625 48.484375 
Q 26.265625 48.484375 22.1875 42.84375 
Q 18.109375 37.203125 18.109375 27.296875 
Q 18.109375 17.390625 22.1875 11.75 
Q 26.265625 6.109375 33.40625 6.109375 
Q 40.53125 6.109375 44.609375 11.75 
Q 48.6875 17.390625 48.6875 27.296875 
z
" id="DejaVuSans-112"/>
      <path d="M 48.78125 52.59375 
L 48.78125 44.1875 
Q 44.96875 46.296875 41.140625 47.34375 
Q 37.3125 48.390625 33.40625 48.390625 
Q 24.65625 48.390625 19.8125 42.84375 
Q 14.984375 37.3125 14.984375 27.296875 
Q 14.984375 17.28125 19.8125 11.734375 
Q 24.65625 6.203125 33.40625 6.203125 
Q 37.3125 6.203125 41.140625 7.25 
Q 44.96875 8.296875 48.78125 10.40625 
L 48.78125 2.09375 
Q 45.015625 0.34375 40.984375 -0.53125 
Q 36.96875 -1.421875 32.421875 -1.421875 
Q 20.0625 -1.421875 12.78125 6.34375 
Q 5.515625 14.109375 5.515625 27.296875 
Q 5.515625 40.671875 12.859375 48.328125 
Q 20.21875 56 33.015625 56 
Q 37.15625 56 41.109375 55.140625 
Q 45.0625 54.296875 48.78125 52.59375 
z
" id="DejaVuSans-99"/>
      <path d="M 41.109375 46.296875 
Q 39.59375 47.171875 37.8125 47.578125 
Q 36.03125 48 33.890625 48 
Q 26.265625 48 22.1875 43.046875 
Q 18.109375 38.09375 18.109375 28.8125 
L 18.109375 0 
L 9.078125 0 
L 9.078125 54.6875 
L 18.109375 54.6875 
L 18.109375 46.1875 
Q 20.953125 51.171875 25.484375 53.578125 
Q 30.03125 56 36.53125 56 
Q 37.453125 56 38.578125 55.875 
Q 39.703125 55.765625 41.0625 55.515625 
z
" id="DejaVuSans-114"/>
      <path d="M 31 75.875 
Q 24.46875 64.65625 21.28125 53.65625 
Q 18.109375 42.671875 18.109375 31.390625 
Q 18.109375 20.125 21.3125 9.0625 
Q 24.515625 -2 31 -13.1875 
L 23.1875 -13.1875 
Q 15.875 -1.703125 12.234375 9.375 
Q 8.59375 20.453125 8.59375 31.390625 
Q 8.59375 42.28125 12.203125 53.3125 
Q 15.828125 64.359375 23.1875 75.875 
z
" id="DejaVuSans-40"/>
      <path d="M 30.609375 48.390625 
Q 23.390625 48.390625 19.1875 42.75 
Q 14.984375 37.109375 14.984375 27.296875 
Q 14.984375 17.484375 19.15625 11.84375 
Q 23.34375 6.203125 30.609375 6.203125 
Q 37.796875 6.203125 41.984375 11.859375 
Q 46.1875 17.53125 46.1875 27.296875 
Q 46.1875 37.015625 41.984375 42.703125 
Q 37.796875 48.390625 30.609375 48.390625 
z
M 30.609375 56 
Q 42.328125 56 49.015625 48.375 
Q 55.71875 40.765625 55.71875 27.296875 
Q 55.71875 13.875 49.015625 6.21875 
Q 42.328125 -1.421875 30.609375 -1.421875 
Q 18.84375 -1.421875 12.171875 6.21875 
Q 5.515625 13.875 5.515625 27.296875 
Q 5.515625 40.765625 12.171875 48.375 
Q 18.84375 56 30.609375 56 
z
" id="DejaVuSans-111"/>
      <path d="M 54.890625 33.015625 
L 54.890625 0 
L 45.90625 0 
L 45.90625 32.71875 
Q 45.90625 40.484375 42.875 44.328125 
Q 39.84375 48.1875 33.796875 48.1875 
Q 26.515625 48.1875 22.3125 43.546875 
Q 18.109375 38.921875 18.109375 30.90625 
L 18.109375 0 
L 9.078125 0 
L 9.078125 75.984375 
L 18.109375 75.984375 
L 18.109375 46.1875 
Q 21.34375 51.125 25.703125 53.5625 
Q 30.078125 56 35.796875 56 
Q 45.21875 56 50.046875 50.171875 
Q 54.890625 44.34375 54.890625 33.015625 
z
" id="DejaVuSans-104"/>
      <path d="M 34.28125 27.484375 
Q 23.390625 27.484375 19.1875 25 
Q 14.984375 22.515625 14.984375 16.5 
Q 14.984375 11.71875 18.140625 8.90625 
Q 21.296875 6.109375 26.703125 6.109375 
Q 34.1875 6.109375 38.703125 11.40625 
Q 43.21875 16.703125 43.21875 25.484375 
L 43.21875 27.484375 
z
M 52.203125 31.203125 
L 52.203125 0 
L 43.21875 0 
L 43.21875 8.296875 
Q 40.140625 3.328125 35.546875 0.953125 
Q 30.953125 -1.421875 24.3125 -1.421875 
Q 15.921875 -1.421875 10.953125 3.296875 
Q 6 8.015625 6 15.921875 
Q 6 25.140625 12.171875 29.828125 
Q 18.359375 34.515625 30.609375 34.515625 
L 43.21875 34.515625 
L 43.21875 35.40625 
Q 43.21875 41.609375 39.140625 45 
Q 35.0625 48.390625 27.6875 48.390625 
Q 23 48.390625 18.546875 47.265625 
Q 14.109375 46.140625 10.015625 43.890625 
L 10.015625 52.203125 
Q 14.9375 54.109375 19.578125 55.046875 
Q 24.21875 56 28.609375 56 
Q 40.484375 56 46.34375 49.84375 
Q 52.203125 43.703125 52.203125 31.203125 
z
" id="DejaVuSans-97"/>
      <path d="M 48.6875 27.296875 
Q 48.6875 37.203125 44.609375 42.84375 
Q 40.53125 48.484375 33.40625 48.484375 
Q 26.265625 48.484375 22.1875 42.84375 
Q 18.109375 37.203125 18.109375 27.296875 
Q 18.109375 17.390625 22.1875 11.75 
Q 26.265625 6.109375 33.40625 6.109375 
Q 40.53125 6.109375 44.609375 11.75 
Q 48.6875 17.390625 48.6875 27.296875 
z
M 18.109375 46.390625 
Q 20.953125 51.265625 25.265625 53.625 
Q 29.59375 56 35.59375 56 
Q 45.5625 56 51.78125 48.09375 
Q 58.015625 40.1875 58.015625 27.296875 
Q 58.015625 14.40625 51.78125 6.484375 
Q 45.5625 -1.421875 35.59375 -1.421875 
Q 29.59375 -1.421875 25.265625 0.953125 
Q 20.953125 3.328125 18.109375 8.203125 
L 18.109375 0 
L 9.078125 0 
L 9.078125 75.984375 
L 18.109375 75.984375 
z
" id="DejaVuSans-98"/>
      <path d="M 10.6875 12.40625 
L 21 12.40625 
L 21 0 
L 10.6875 0 
z
" id="DejaVuSans-46"/>
      <path d="M 8.015625 75.875 
L 15.828125 75.875 
Q 23.140625 64.359375 26.78125 53.3125 
Q 30.421875 42.28125 30.421875 31.390625 
Q 30.421875 20.453125 26.78125 9.375 
Q 23.140625 -1.703125 15.828125 -13.1875 
L 8.015625 -13.1875 
Q 14.5 -2 17.703125 9.0625 
Q 20.90625 20.125 20.90625 31.390625 
Q 20.90625 42.671875 17.703125 53.65625 
Q 14.5 64.65625 8.015625 75.875 
z
" id="DejaVuSans-41"/>
      <path d="M 45.40625 46.390625 
L 45.40625 75.984375 
L 54.390625 75.984375 
L 54.390625 0 
L 45.40625 0 
L 45.40625 8.203125 
Q 42.578125 3.328125 38.25 0.953125 
Q 33.9375 -1.421875 27.875 -1.421875 
Q 17.96875 -1.421875 11.734375 6.484375 
Q 5.515625 14.40625 5.515625 27.296875 
Q 5.515625 40.1875 11.734375 48.09375 
Q 17.96875 56 27.875 56 
Q 33.9375 56 38.25 53.625 
Q 42.578125 51.265625 45.40625 46.390625 
z
M 14.796875 27.296875 
Q 14.796875 17.390625 18.875 11.75 
Q 22.953125 6.109375 30.078125 6.109375 
Q 37.203125 6.109375 41.296875 11.75 
Q 45.40625 17.390625 45.40625 27.296875 
Q 45.40625 37.203125 41.296875 42.84375 
Q 37.203125 48.484375 30.078125 48.484375 
Q 22.953125 48.484375 18.875 42.84375 
Q 14.796875 37.203125 14.796875 27.296875 
z
" id="DejaVuSans-100"/>
      <path d="M 9.421875 54.6875 
L 18.40625 54.6875 
L 18.40625 0 
L 9.421875 0 
z
M 9.421875 75.984375 
L 18.40625 75.984375 
L 18.40625 64.59375 
L 9.421875 64.59375 
z
" id="DejaVuSans-105"/>
      <path d="M 44.28125 53.078125 
L 44.28125 44.578125 
Q 40.484375 46.53125 36.375 47.5 
Q 32.28125 48.484375 27.875 48.484375 
Q 21.1875 48.484375 17.84375 46.4375 
Q 14.5 44.390625 14.5 40.28125 
Q 14.5 37.15625 16.890625 35.375 
Q 19.28125 33.59375 26.515625 31.984375 
L 29.59375 31.296875 
Q 39.15625 29.25 43.1875 25.515625 
Q 47.21875 21.78125 47.21875 15.09375 
Q 47.21875 7.46875 41.1875 3.015625 
Q 35.15625 -1.421875 24.609375 -1.421875 
Q 20.21875 -1.421875 15.453125 -0.5625 
Q 10.6875 0.296875 5.421875 2 
L 5.421875 11.28125 
Q 10.40625 8.6875 15.234375 7.390625 
Q 20.0625 6.109375 24.8125 6.109375 
Q 31.15625 6.109375 34.5625 8.28125 
Q 37.984375 10.453125 37.984375 14.40625 
Q 37.984375 18.0625 35.515625 20.015625 
Q 33.0625 21.96875 24.703125 23.78125 
L 21.578125 24.515625 
Q 13.234375 26.265625 9.515625 29.90625 
Q 5.8125 33.546875 5.8125 39.890625 
Q 5.8125 47.609375 11.28125 51.796875 
Q 16.75 56 26.8125 56 
Q 31.78125 56 36.171875 55.265625 
Q 40.578125 54.546875 44.28125 53.078125 
z
" id="DejaVuSans-115"/>
     </defs>
     <g transform="translate(18.398438 226.700821)rotate(-90)scale(0.1 -0.1)">
      <use xlink:href="#DejaVuSans-80"/>
      <use x="60.302734" xlink:href="#DejaVuSans-86"/>
      <use x="128.710938" xlink:href="#DejaVuSans-32"/>
      <use x="160.498047" xlink:href="#DejaVuSans-112"/>
      <use x="223.974609" xlink:href="#DejaVuSans-99"/>
      <use x="278.955078" xlink:href="#DejaVuSans-114"/>
      <use x="320.068359" xlink:href="#DejaVuSans-32"/>
      <use x="351.855469" xlink:href="#DejaVuSans-40"/>
      <use x="390.869141" xlink:href="#DejaVuSans-112"/>
      <use x="454.345703" xlink:href="#DejaVuSans-111"/>
      <use x="515.527344" xlink:href="#DejaVuSans-114"/>
      <use x="556.640625" xlink:href="#DejaVuSans-32"/>
      <use x="588.427734" xlink:href="#DejaVuSans-49"/>
      <use x="652.050781" xlink:href="#DejaVuSans-48"/>
      <use x="715.673828" xlink:href="#DejaVuSans-48"/>
      <use x="779.296875" xlink:href="#DejaVuSans-48"/>
      <use x="842.919922" xlink:href="#DejaVuSans-48"/>
      <use x="906.542969" xlink:href="#DejaVuSans-48"/>
      <use x="970.166016" xlink:href="#DejaVuSans-32"/>
      <use x="1001.953125" xlink:href="#DejaVuSans-104"/>
      <use x="1065.332031" xlink:href="#DejaVuSans-97"/>
      <use x="1126.611328" xlink:href="#DejaVuSans-98"/>
      <use x="1190.087891" xlink:href="#DejaVuSans-46"/>
      <use x="1221.875" xlink:href="#DejaVuSans-41"/>
      <use x="1260.888672" xlink:href="#DejaVuSans-32"/>
      <use x="1292.675781" xlink:href="#DejaVuSans-100"/>
      <use x="1356.152344" xlink:href="#DejaVuSans-105"/>
      <use x="1383.935547" xlink:href="#DejaVuSans-97"/>
      <use x="1445.214844" xlink:href="#DejaVuSans-114"/>
      <use x="1486.328125" xlink:href="#DejaVuSans-105"/>
      <use x="1514.111328" xlink:href="#DejaVuSans-111"/>
      <use x="1575.292969" xlink:href="#DejaVuSans-115"/>
     </g>
    </g>
   </g>
   <g id="line2d_14">
    <path clip-path="url(#pc89967a384)" d="M 62.470414 279.86258 
L 66.7686 279.86258 
L 71.066785 279.86258 
L 75.364971 279.86258 
L 79.663157 279.86258 
L 83.961342 279.86258 
L 88.259528 279.86258 
L 92.557713 279.10332 
L 96.855899 279.48295 
L 101.154085 277.584801 
L 105.45227 278.344061 
L 109.750456 278.344061 
L 114.048642 279.86258 
L 118.346827 269.232947 
L 122.645013 279.86258 
L 126.943199 270.371836 
L 131.241384 249.87183 
L 135.53957 262.399612 
L 139.837755 268.473687 
L 144.135941 233.927381 
L 148.434127 252.908868 
L 152.732312 240.381086 
L 157.030498 238.482938 
L 161.328684 279.86258 
L 165.626869 228.612564 
L 169.925055 200.899593 
L 174.223241 197.482926 
L 178.521426 175.464401 
L 182.819612 181.158847 
L 187.117798 138.640316 
L 191.415983 156.862543 
L 195.714169 163.316249 
L 200.012354 73.72363 
L 204.31054 23.612504 
L 208.608726 31.205099 
L 212.906911 76.760668 
L 217.205097 50.566215 
L 221.503283 159.519951 
L 225.801468 180.019958 
L 230.099654 83.214373 
L 234.39784 98.019933 
L 238.696025 86.251411 
L 242.994211 143.195873 
L 247.292396 112.445863 
L 251.590582 210.769967 
L 255.888768 217.603302 
L 260.186953 121.177347 
L 264.485139 147.751429 
L 268.783325 184.195885 
L 273.08151 158.001432 
L 277.379696 203.557002 
L 281.677882 219.121821 
L 285.976067 214.945894 
L 290.274253 215.705153 
L 294.572439 208.112558 
L 298.870624 203.936631 
L 303.16881 222.918118 
L 307.466995 212.288486 
L 311.765181 257.844055 
L 316.063367 259.362574 
L 320.361552 230.131083 
L 324.659738 234.307011 
L 328.957924 238.103308 
L 333.256109 218.362561 
L 337.554295 246.075533 
L 341.852481 257.844055 
L 346.150666 260.501463 
L 350.448852 258.982944 
L 354.747037 248.732941 
L 359.045223 233.168121 
L 363.343409 255.945906 
L 367.641594 260.501463 
L 371.93978 274.547763 
L 376.237966 274.927393 
L 380.536151 263.538501 
L 384.834337 267.334798 
L 389.132523 257.084795 
L 393.430708 276.066282 
L 397.728894 262.779241 
L 402.02708 275.686652 
L 406.325265 276.445912 
L 410.623451 265.436649 
L 414.921636 277.964431 
L 419.219822 265.436649 
L 423.518008 228.992194 
L 427.816193 273.788504 
" style="fill:none;stroke:#1f77b4;stroke-linecap:square;stroke-width:1.5;"/>
    <defs>
     <path d="M 0 1.5 
C 0.397805 1.5 0.77937 1.341951 1.06066 1.06066 
C 1.341951 0.77937 1.5 0.397805 1.5 0 
C 1.5 -0.397805 1.341951 -0.77937 1.06066 -1.06066 
C 0.77937 -1.341951 0.397805 -1.5 0 -1.5 
C -0.397805 -1.5 -0.77937 -1.341951 -1.06066 -1.06066 
C -1.341951 -0.77937 -1.5 -0.397805 -1.5 0 
C -1.5 0.397805 -1.341951 0.77937 -1.06066 1.06066 
C -0.77937 1.341951 -0.397805 1.5 0 1.5 
z
" id="m6d8fe79297" style="stroke:#1f77b4;"/>
    </defs>
    <g clip-path="url(#pc89967a384)">
     <use style="fill:#1f77b4;stroke:#1f77b4;" x="62.470414" xlink:href="#m6d8fe79297" y="279.86258"/>
     <use style="fill:#1f77b4;stroke:#1f77b4;" x="66.7686" xlink:href="#m6d8fe79297" y="279.86258"/>
     <use style="fill:#1f77b4;stroke:#1f77b4;" x="71.066785" xlink:href="#m6d8fe79297" y="279.86258"/>
     <use style="fill:#1f77b4;stroke:#1f77b4;" x="75.364971" xlink:href="#m6d8fe79297" y="279.86258"/>
     <use style="fill:#1f77b4;stroke:#1f77b4;" x="79.663157" xlink:href="#m6d8fe79297" y="279.86258"/>
     <use style="fill:#1f77b4;stroke:#1f77b4;" x="83.961342" xlink:href="#m6d8fe79297" y="279.86258"/>
     <use style="fill:#1f77b4;stroke:#1f77b4;" x="88.259528" xlink:href="#m6d8fe79297" y="279.86258"/>
     <use style="fill:#1f77b4;stroke:#1f77b4;" x="92.557713" xlink:href="#m6d8fe79297" y="279.10332"/>
     <use style="fill:#1f77b4;stroke:#1f77b4;" x="96.855899" xlink:href="#m6d8fe79297" y="279.48295"/>
     <use style="fill:#1f77b4;stroke:#1f77b4;" x="101.154085" xlink:href="#m6d8fe79297" y="277.584801"/>
     <use style="fill:#1f77b4;stroke:#1f77b4;" x="105.45227" xlink:href="#m6d8fe79297" y="278.344061"/>
     <use style="fill:#1f77b4;stroke:#1f77b4;" x="109.750456" xlink:href="#m6d8fe79297" y="278.344061"/>
     <use style="fill:#1f77b4;stroke:#1f77b4;" x="114.048642" xlink:href="#m6d8fe79297" y="279.86258"/>
     <use style="fill:#1f77b4;stroke:#1f77b4;" x="118.346827" xlink:href="#m6d8fe79297" y="269.232947"/>
     <use style="fill:#1f77b4;stroke:#1f77b4;" x="122.645013" xlink:href="#m6d8fe79297" y="279.86258"/>
     <use style="fill:#1f77b4;stroke:#1f77b4;" x="126.943199" xlink:href="#m6d8fe79297" y="270.371836"/>
     <use style="fill:#1f77b4;stroke:#1f77b4;" x="131.241384" xlink:href="#m6d8fe79297" y="249.87183"/>
     <use style="fill:#1f77b4;stroke:#1f77b4;" x="135.53957" xlink:href="#m6d8fe79297" y="262.399612"/>
     <use style="fill:#1f77b4;stroke:#1f77b4;" x="139.837755" xlink:href="#m6d8fe79297" y="268.473687"/>
     <use style="fill:#1f77b4;stroke:#1f77b4;" x="144.135941" xlink:href="#m6d8fe79297" y="233.927381"/>
     <use style="fill:#1f77b4;stroke:#1f77b4;" x="148.434127" xlink:href="#m6d8fe79297" y="252.908868"/>
     <use style="fill:#1f77b4;stroke:#1f77b4;" x="152.732312" xlink:href="#m6d8fe79297" y="240.381086"/>
     <use style="fill:#1f77b4;stroke:#1f77b4;" x="157.030498" xlink:href="#m6d8fe79297" y="238.482938"/>
     <use style="fill:#1f77b4;stroke:#1f77b4;" x="161.328684" xlink:href="#m6d8fe79297" y="279.86258"/>
     <use style="fill:#1f77b4;stroke:#1f77b4;" x="165.626869" xlink:href="#m6d8fe79297" y="228.612564"/>
     <use style="fill:#1f77b4;stroke:#1f77b4;" x="169.925055" xlink:href="#m6d8fe79297" y="200.899593"/>
     <use style="fill:#1f77b4;stroke:#1f77b4;" x="174.223241" xlink:href="#m6d8fe79297" y="197.482926"/>
     <use style="fill:#1f77b4;stroke:#1f77b4;" x="178.521426" xlink:href="#m6d8fe79297" y="175.464401"/>
     <use style="fill:#1f77b4;stroke:#1f77b4;" x="182.819612" xlink:href="#m6d8fe79297" y="181.158847"/>
     <use style="fill:#1f77b4;stroke:#1f77b4;" x="187.117798" xlink:href="#m6d8fe79297" y="138.640316"/>
     <use style="fill:#1f77b4;stroke:#1f77b4;" x="191.415983" xlink:href="#m6d8fe79297" y="156.862543"/>
     <use style="fill:#1f77b4;stroke:#1f77b4;" x="195.714169" xlink:href="#m6d8fe79297" y="163.316249"/>
     <use style="fill:#1f77b4;stroke:#1f77b4;" x="200.012354" xlink:href="#m6d8fe79297" y="73.72363"/>
     <use style="fill:#1f77b4;stroke:#1f77b4;" x="204.31054" xlink:href="#m6d8fe79297" y="23.612504"/>
     <use style="fill:#1f77b4;stroke:#1f77b4;" x="208.608726" xlink:href="#m6d8fe79297" y="31.205099"/>
     <use style="fill:#1f77b4;stroke:#1f77b4;" x="212.906911" xlink:href="#m6d8fe79297" y="76.760668"/>
     <use style="fill:#1f77b4;stroke:#1f77b4;" x="217.205097" xlink:href="#m6d8fe79297" y="50.566215"/>
     <use style="fill:#1f77b4;stroke:#1f77b4;" x="221.503283" xlink:href="#m6d8fe79297" y="159.519951"/>
     <use style="fill:#1f77b4;stroke:#1f77b4;" x="225.801468" xlink:href="#m6d8fe79297" y="180.019958"/>
     <use style="fill:#1f77b4;stroke:#1f77b4;" x="230.099654" xlink:href="#m6d8fe79297" y="83.214373"/>
     <use style="fill:#1f77b4;stroke:#1f77b4;" x="234.39784" xlink:href="#m6d8fe79297" y="98.019933"/>
     <use style="fill:#1f77b4;stroke:#1f77b4;" x="238.696025" xlink:href="#m6d8fe79297" y="86.251411"/>
     <use style="fill:#1f77b4;stroke:#1f77b4;" x="242.994211" xlink:href="#m6d8fe79297" y="143.195873"/>
     <use style="fill:#1f77b4;stroke:#1f77b4;" x="247.292396" xlink:href="#m6d8fe79297" y="112.445863"/>
     <use style="fill:#1f77b4;stroke:#1f77b4;" x="251.590582" xlink:href="#m6d8fe79297" y="210.769967"/>
     <use style="fill:#1f77b4;stroke:#1f77b4;" x="255.888768" xlink:href="#m6d8fe79297" y="217.603302"/>
     <use style="fill:#1f77b4;stroke:#1f77b4;" x="260.186953" xlink:href="#m6d8fe79297" y="121.177347"/>
     <use style="fill:#1f77b4;stroke:#1f77b4;" x="264.485139" xlink:href="#m6d8fe79297" y="147.751429"/>
     <use style="fill:#1f77b4;stroke:#1f77b4;" x="268.783325" xlink:href="#m6d8fe79297" y="184.195885"/>
     <use style="fill:#1f77b4;stroke:#1f77b4;" x="273.08151" xlink:href="#m6d8fe79297" y="158.001432"/>
     <use style="fill:#1f77b4;stroke:#1f77b4;" x="277.379696" xlink:href="#m6d8fe79297" y="203.557002"/>
     <use style="fill:#1f77b4;stroke:#1f77b4;" x="281.677882" xlink:href="#m6d8fe79297" y="219.121821"/>
     <use style="fill:#1f77b4;stroke:#1f77b4;" x="285.976067" xlink:href="#m6d8fe79297" y="214.945894"/>
     <use style="fill:#1f77b4;stroke:#1f77b4;" x="290.274253" xlink:href="#m6d8fe79297" y="215.705153"/>
     <use style="fill:#1f77b4;stroke:#1f77b4;" x="294.572439" xlink:href="#m6d8fe79297" y="208.112558"/>
     <use style="fill:#1f77b4;stroke:#1f77b4;" x="298.870624" xlink:href="#m6d8fe79297" y="203.936631"/>
     <use style="fill:#1f77b4;stroke:#1f77b4;" x="303.16881" xlink:href="#m6d8fe79297" y="222.918118"/>
     <use style="fill:#1f77b4;stroke:#1f77b4;" x="307.466995" xlink:href="#m6d8fe79297" y="212.288486"/>
     <use style="fill:#1f77b4;stroke:#1f77b4;" x="311.765181" xlink:href="#m6d8fe79297" y="257.844055"/>
     <use style="fill:#1f77b4;stroke:#1f77b4;" x="316.063367" xlink:href="#m6d8fe79297" y="259.362574"/>
     <use style="fill:#1f77b4;stroke:#1f77b4;" x="320.361552" xlink:href="#m6d8fe79297" y="230.131083"/>
     <use style="fill:#1f77b4;stroke:#1f77b4;" x="324.659738" xlink:href="#m6d8fe79297" y="234.307011"/>
     <use style="fill:#1f77b4;stroke:#1f77b4;" x="328.957924" xlink:href="#m6d8fe79297" y="238.103308"/>
     <use style="fill:#1f77b4;stroke:#1f77b4;" x="333.256109" xlink:href="#m6d8fe79297" y="218.362561"/>
     <use style="fill:#1f77b4;stroke:#1f77b4;" x="337.554295" xlink:href="#m6d8fe79297" y="246.075533"/>
     <use style="fill:#1f77b4;stroke:#1f77b4;" x="341.852481" xlink:href="#m6d8fe79297" y="257.844055"/>
     <use style="fill:#1f77b4;stroke:#1f77b4;" x="346.150666" xlink:href="#m6d8fe79297" y="260.501463"/>
     <use style="fill:#1f77b4;stroke:#1f77b4;" x="350.448852" xlink:href="#m6d8fe79297" y="258.982944"/>
     <use style="fill:#1f77b4;stroke:#1f77b4;" x="354.747037" xlink:href="#m6d8fe79297" y="248.732941"/>
     <use style="fill:#1f77b4;stroke:#1f77b4;" x="359.045223" xlink:href="#m6d8fe79297" y="233.168121"/>
     <use style="fill:#1f77b4;stroke:#1f77b4;" x="363.343409" xlink:href="#m6d8fe79297" y="255.945906"/>
     <use style="fill:#1f77b4;stroke:#1f77b4;" x="367.641594" xlink:href="#m6d8fe79297" y="260.501463"/>
     <use style="fill:#1f77b4;stroke:#1f77b4;" x="371.93978" xlink:href="#m6d8fe79297" y="274.547763"/>
     <use style="fill:#1f77b4;stroke:#1f77b4;" x="376.237966" xlink:href="#m6d8fe79297" y="274.927393"/>
     <use style="fill:#1f77b4;stroke:#1f77b4;" x="380.536151" xlink:href="#m6d8fe79297" y="263.538501"/>
     <use style="fill:#1f77b4;stroke:#1f77b4;" x="384.834337" xlink:href="#m6d8fe79297" y="267.334798"/>
     <use style="fill:#1f77b4;stroke:#1f77b4;" x="389.132523" xlink:href="#m6d8fe79297" y="257.084795"/>
     <use style="fill:#1f77b4;stroke:#1f77b4;" x="393.430708" xlink:href="#m6d8fe79297" y="276.066282"/>
     <use style="fill:#1f77b4;stroke:#1f77b4;" x="397.728894" xlink:href="#m6d8fe79297" y="262.779241"/>
     <use style="fill:#1f77b4;stroke:#1f77b4;" x="402.02708" xlink:href="#m6d8fe79297" y="275.686652"/>
     <use style="fill:#1f77b4;stroke:#1f77b4;" x="406.325265" xlink:href="#m6d8fe79297" y="276.445912"/>
     <use style="fill:#1f77b4;stroke:#1f77b4;" x="410.623451" xlink:href="#m6d8fe79297" y="265.436649"/>
     <use style="fill:#1f77b4;stroke:#1f77b4;" x="414.921636" xlink:href="#m6d8fe79297" y="277.964431"/>
     <use style="fill:#1f77b4;stroke:#1f77b4;" x="419.219822" xlink:href="#m6d8fe79297" y="265.436649"/>
     <use style="fill:#1f77b4;stroke:#1f77b4;" x="423.518008" xlink:href="#m6d8fe79297" y="228.992194"/>
     <use style="fill:#1f77b4;stroke:#1f77b4;" x="427.816193" xlink:href="#m6d8fe79297" y="273.788504"/>
    </g>
   </g>
   <g id="patch_3">
    <path d="M 44.203125 279.86258 
L 44.203125 10.8 
" style="fill:none;stroke:#000000;stroke-linecap:square;stroke-linejoin:miter;stroke-width:0.8;"/>
   </g>
   <g id="patch_4">
    <path d="M 446.083482 279.86258 
L 446.083482 10.8 
" style="fill:none;stroke:#000000;stroke-linecap:square;stroke-linejoin:miter;stroke-width:0.8;"/>
   </g>
   <g id="patch_5">
    <path d="M 44.203125 279.86258 
L 446.083482 279.86258 
" style="fill:none;stroke:#000000;stroke-linecap:square;stroke-linejoin:miter;stroke-width:0.8;"/>
   </g>
   <g id="patch_6">
    <path d="M 44.203125 10.8 
L 446.083482 10.8 
" style="fill:none;stroke:#000000;stroke-linecap:square;stroke-linejoin:miter;stroke-width:0.8;"/>
   </g>
  </g>
 </g>
 <defs>
  <clipPath id="pc89967a384">
   <rect height="269.06258" width="401.880357" x="44.203125" y="10.8"/>
  </clipPath>
 </defs>
</svg>
