<?xml version="1.0" encoding="utf-8" standalone="no"?>
<!DOCTYPE svg PUBLIC "-//W3C//DTD SVG 1.1//EN"
  "http://www.w3.org/Graphics/SVG/1.1/DTD/svg11.dtd">
<!-- Created with matplotlib (https://matplotlib.org/) -->
<svg height="345.6pt" version="1.1" viewBox="0 0 460.8 345.6" width="460.8pt" xmlns="http://www.w3.org/2000/svg" xmlns:xlink="http://www.w3.org/1999/xlink">
 <defs>
  <style type="text/css">
*{stroke-linecap:butt;stroke-linejoin:round;}
  </style>
 </defs>
 <g id="figure_1">
  <g id="patch_1">
   <path d="M 0 345.6 
L 460.8 345.6 
L 460.8 0 
L 0 0 
z
" style="fill:#ffffff;"/>
  </g>
  <g id="axes_1">
   <g id="patch_2">
    <path d="M 44.203125 279.86258 
L 450 279.86258 
L 450 10.8 
L 44.203125 10.8 
z
" style="fill:#ffffff;"/>
   </g>
   <g id="matplotlib.axis_1">
    <g id="xtick_1">
     <g id="line2d_1">
      <defs>
       <path d="M 0 0 
L 0 3.5 
" id="m89ef3a230f" style="stroke:#000000;stroke-width:0.8;"/>
      </defs>
      <g>
       <use style="stroke:#000000;stroke-width:0.8;" x="100.377486" xlink:href="#m89ef3a230f" y="279.86258"/>
      </g>
     </g>
     <g id="text_1">
      <!-- 2020-03-01 -->
      <defs>
       <path d="M 19.1875 8.296875 
L 53.609375 8.296875 
L 53.609375 0 
L 7.328125 0 
L 7.328125 8.296875 
Q 12.9375 14.109375 22.625 23.890625 
Q 32.328125 33.6875 34.8125 36.53125 
Q 39.546875 41.84375 41.421875 45.53125 
Q 43.3125 49.21875 43.3125 52.78125 
Q 43.3125 58.59375 39.234375 62.25 
Q 35.15625 65.921875 28.609375 65.921875 
Q 23.96875 65.921875 18.8125 64.3125 
Q 13.671875 62.703125 7.8125 59.421875 
L 7.8125 69.390625 
Q 13.765625 71.78125 18.9375 73 
Q 24.125 74.21875 28.421875 74.21875 
Q 39.75 74.21875 46.484375 68.546875 
Q 53.21875 62.890625 53.21875 53.421875 
Q 53.21875 48.921875 51.53125 44.890625 
Q 49.859375 40.875 45.40625 35.40625 
Q 44.1875 33.984375 37.640625 27.21875 
Q 31.109375 20.453125 19.1875 8.296875 
z
" id="DejaVuSans-50"/>
       <path d="M 31.78125 66.40625 
Q 24.171875 66.40625 20.328125 58.90625 
Q 16.5 51.421875 16.5 36.375 
Q 16.5 21.390625 20.328125 13.890625 
Q 24.171875 6.390625 31.78125 6.390625 
Q 39.453125 6.390625 43.28125 13.890625 
Q 47.125 21.390625 47.125 36.375 
Q 47.125 51.421875 43.28125 58.90625 
Q 39.453125 66.40625 31.78125 66.40625 
z
M 31.78125 74.21875 
Q 44.046875 74.21875 50.515625 64.515625 
Q 56.984375 54.828125 56.984375 36.375 
Q 56.984375 17.96875 50.515625 8.265625 
Q 44.046875 -1.421875 31.78125 -1.421875 
Q 19.53125 -1.421875 13.0625 8.265625 
Q 6.59375 17.96875 6.59375 36.375 
Q 6.59375 54.828125 13.0625 64.515625 
Q 19.53125 74.21875 31.78125 74.21875 
z
" id="DejaVuSans-48"/>
       <path d="M 4.890625 31.390625 
L 31.203125 31.390625 
L 31.203125 23.390625 
L 4.890625 23.390625 
z
" id="DejaVuSans-45"/>
       <path d="M 40.578125 39.3125 
Q 47.65625 37.796875 51.625 33 
Q 55.609375 28.21875 55.609375 21.1875 
Q 55.609375 10.40625 48.1875 4.484375 
Q 40.765625 -1.421875 27.09375 -1.421875 
Q 22.515625 -1.421875 17.65625 -0.515625 
Q 12.796875 0.390625 7.625 2.203125 
L 7.625 11.71875 
Q 11.71875 9.328125 16.59375 8.109375 
Q 21.484375 6.890625 26.8125 6.890625 
Q 36.078125 6.890625 40.9375 10.546875 
Q 45.796875 14.203125 45.796875 21.1875 
Q 45.796875 27.640625 41.28125 31.265625 
Q 36.765625 34.90625 28.71875 34.90625 
L 20.21875 34.90625 
L 20.21875 43.015625 
L 29.109375 43.015625 
Q 36.375 43.015625 40.234375 45.921875 
Q 44.09375 48.828125 44.09375 54.296875 
Q 44.09375 59.90625 40.109375 62.90625 
Q 36.140625 65.921875 28.71875 65.921875 
Q 24.65625 65.921875 20.015625 65.03125 
Q 15.375 64.15625 9.8125 62.3125 
L 9.8125 71.09375 
Q 15.4375 72.65625 20.34375 73.4375 
Q 25.25 74.21875 29.59375 74.21875 
Q 40.828125 74.21875 47.359375 69.109375 
Q 53.90625 64.015625 53.90625 55.328125 
Q 53.90625 49.265625 50.4375 45.09375 
Q 46.96875 40.921875 40.578125 39.3125 
z
" id="DejaVuSans-51"/>
       <path d="M 12.40625 8.296875 
L 28.515625 8.296875 
L 28.515625 63.921875 
L 10.984375 60.40625 
L 10.984375 69.390625 
L 28.421875 72.90625 
L 38.28125 72.90625 
L 38.28125 8.296875 
L 54.390625 8.296875 
L 54.390625 0 
L 12.40625 0 
z
" id="DejaVuSans-49"/>
      </defs>
      <g transform="translate(81.781682 333.329439)rotate(-45)scale(0.1 -0.1)">
       <use xlink:href="#DejaVuSans-50"/>
       <use x="63.623047" xlink:href="#DejaVuSans-48"/>
       <use x="127.246094" xlink:href="#DejaVuSans-50"/>
       <use x="190.869141" xlink:href="#DejaVuSans-48"/>
       <use x="254.492188" xlink:href="#DejaVuSans-45"/>
       <use x="290.576172" xlink:href="#DejaVuSans-48"/>
       <use x="354.199219" xlink:href="#DejaVuSans-51"/>
       <use x="417.822266" xlink:href="#DejaVuSans-45"/>
       <use x="453.90625" xlink:href="#DejaVuSans-48"/>
       <use x="517.529297" xlink:href="#DejaVuSans-49"/>
      </g>
     </g>
    </g>
    <g id="xtick_2">
     <g id="line2d_2">
      <g>
       <use style="stroke:#000000;stroke-width:0.8;" x="159.067116" xlink:href="#m89ef3a230f" y="279.86258"/>
      </g>
     </g>
     <g id="text_2">
      <!-- 2020-03-15 -->
      <defs>
       <path d="M 10.796875 72.90625 
L 49.515625 72.90625 
L 49.515625 64.59375 
L 19.828125 64.59375 
L 19.828125 46.734375 
Q 21.96875 47.46875 24.109375 47.828125 
Q 26.265625 48.1875 28.421875 48.1875 
Q 40.625 48.1875 47.75 41.5 
Q 54.890625 34.8125 54.890625 23.390625 
Q 54.890625 11.625 47.5625 5.09375 
Q 40.234375 -1.421875 26.90625 -1.421875 
Q 22.3125 -1.421875 17.546875 -0.640625 
Q 12.796875 0.140625 7.71875 1.703125 
L 7.71875 11.625 
Q 12.109375 9.234375 16.796875 8.0625 
Q 21.484375 6.890625 26.703125 6.890625 
Q 35.15625 6.890625 40.078125 11.328125 
Q 45.015625 15.765625 45.015625 23.390625 
Q 45.015625 31 40.078125 35.4375 
Q 35.15625 39.890625 26.703125 39.890625 
Q 22.75 39.890625 18.8125 39.015625 
Q 14.890625 38.140625 10.796875 36.28125 
z
" id="DejaVuSans-53"/>
      </defs>
      <g transform="translate(140.471313 333.329439)rotate(-45)scale(0.1 -0.1)">
       <use xlink:href="#DejaVuSans-50"/>
       <use x="63.623047" xlink:href="#DejaVuSans-48"/>
       <use x="127.246094" xlink:href="#DejaVuSans-50"/>
       <use x="190.869141" xlink:href="#DejaVuSans-48"/>
       <use x="254.492188" xlink:href="#DejaVuSans-45"/>
       <use x="290.576172" xlink:href="#DejaVuSans-48"/>
       <use x="354.199219" xlink:href="#DejaVuSans-51"/>
       <use x="417.822266" xlink:href="#DejaVuSans-45"/>
       <use x="453.90625" xlink:href="#DejaVuSans-49"/>
       <use x="517.529297" xlink:href="#DejaVuSans-53"/>
      </g>
     </g>
    </g>
    <g id="xtick_3">
     <g id="line2d_3">
      <g>
       <use style="stroke:#000000;stroke-width:0.8;" x="230.333097" xlink:href="#m89ef3a230f" y="279.86258"/>
      </g>
     </g>
     <g id="text_3">
      <!-- 2020-04-01 -->
      <defs>
       <path d="M 37.796875 64.3125 
L 12.890625 25.390625 
L 37.796875 25.390625 
z
M 35.203125 72.90625 
L 47.609375 72.90625 
L 47.609375 25.390625 
L 58.015625 25.390625 
L 58.015625 17.1875 
L 47.609375 17.1875 
L 47.609375 0 
L 37.796875 0 
L 37.796875 17.1875 
L 4.890625 17.1875 
L 4.890625 26.703125 
z
" id="DejaVuSans-52"/>
      </defs>
      <g transform="translate(211.737293 333.329439)rotate(-45)scale(0.1 -0.1)">
       <use xlink:href="#DejaVuSans-50"/>
       <use x="63.623047" xlink:href="#DejaVuSans-48"/>
       <use x="127.246094" xlink:href="#DejaVuSans-50"/>
       <use x="190.869141" xlink:href="#DejaVuSans-48"/>
       <use x="254.492188" xlink:href="#DejaVuSans-45"/>
       <use x="290.576172" xlink:href="#DejaVuSans-48"/>
       <use x="354.199219" xlink:href="#DejaVuSans-52"/>
       <use x="417.822266" xlink:href="#DejaVuSans-45"/>
       <use x="453.90625" xlink:href="#DejaVuSans-48"/>
       <use x="517.529297" xlink:href="#DejaVuSans-49"/>
      </g>
     </g>
    </g>
    <g id="xtick_4">
     <g id="line2d_4">
      <g>
       <use style="stroke:#000000;stroke-width:0.8;" x="289.022727" xlink:href="#m89ef3a230f" y="279.86258"/>
      </g>
     </g>
     <g id="text_4">
      <!-- 2020-04-15 -->
      <g transform="translate(270.426924 333.329439)rotate(-45)scale(0.1 -0.1)">
       <use xlink:href="#DejaVuSans-50"/>
       <use x="63.623047" xlink:href="#DejaVuSans-48"/>
       <use x="127.246094" xlink:href="#DejaVuSans-50"/>
       <use x="190.869141" xlink:href="#DejaVuSans-48"/>
       <use x="254.492188" xlink:href="#DejaVuSans-45"/>
       <use x="290.576172" xlink:href="#DejaVuSans-48"/>
       <use x="354.199219" xlink:href="#DejaVuSans-52"/>
       <use x="417.822266" xlink:href="#DejaVuSans-45"/>
       <use x="453.90625" xlink:href="#DejaVuSans-49"/>
       <use x="517.529297" xlink:href="#DejaVuSans-53"/>
      </g>
     </g>
    </g>
    <g id="xtick_5">
     <g id="line2d_5">
      <g>
       <use style="stroke:#000000;stroke-width:0.8;" x="356.096591" xlink:href="#m89ef3a230f" y="279.86258"/>
      </g>
     </g>
     <g id="text_5">
      <!-- 2020-05-01 -->
      <g transform="translate(337.500787 333.329439)rotate(-45)scale(0.1 -0.1)">
       <use xlink:href="#DejaVuSans-50"/>
       <use x="63.623047" xlink:href="#DejaVuSans-48"/>
       <use x="127.246094" xlink:href="#DejaVuSans-50"/>
       <use x="190.869141" xlink:href="#DejaVuSans-48"/>
       <use x="254.492188" xlink:href="#DejaVuSans-45"/>
       <use x="290.576172" xlink:href="#DejaVuSans-48"/>
       <use x="354.199219" xlink:href="#DejaVuSans-53"/>
       <use x="417.822266" xlink:href="#DejaVuSans-45"/>
       <use x="453.90625" xlink:href="#DejaVuSans-48"/>
       <use x="517.529297" xlink:href="#DejaVuSans-49"/>
      </g>
     </g>
    </g>
    <g id="xtick_6">
     <g id="line2d_6">
      <g>
       <use style="stroke:#000000;stroke-width:0.8;" x="414.786222" xlink:href="#m89ef3a230f" y="279.86258"/>
      </g>
     </g>
     <g id="text_6">
      <!-- 2020-05-15 -->
      <g transform="translate(396.190418 333.329439)rotate(-45)scale(0.1 -0.1)">
       <use xlink:href="#DejaVuSans-50"/>
       <use x="63.623047" xlink:href="#DejaVuSans-48"/>
       <use x="127.246094" xlink:href="#DejaVuSans-50"/>
       <use x="190.869141" xlink:href="#DejaVuSans-48"/>
       <use x="254.492188" xlink:href="#DejaVuSans-45"/>
       <use x="290.576172" xlink:href="#DejaVuSans-48"/>
       <use x="354.199219" xlink:href="#DejaVuSans-53"/>
       <use x="417.822266" xlink:href="#DejaVuSans-45"/>
       <use x="453.90625" xlink:href="#DejaVuSans-49"/>
       <use x="517.529297" xlink:href="#DejaVuSans-53"/>
      </g>
     </g>
    </g>
   </g>
   <g id="matplotlib.axis_2">
    <g id="ytick_1">
     <g id="line2d_7">
      <defs>
       <path d="M 0 0 
L -3.5 0 
" id="m39fb30027f" style="stroke:#000000;stroke-width:0.8;"/>
      </defs>
      <g>
       <use style="stroke:#000000;stroke-width:0.8;" x="44.203125" xlink:href="#m39fb30027f" y="279.86258"/>
      </g>
     </g>
     <g id="text_7">
      <!-- 0 -->
      <g transform="translate(30.840625 283.661798)scale(0.1 -0.1)">
       <use xlink:href="#DejaVuSans-48"/>
      </g>
     </g>
    </g>
    <g id="ytick_2">
     <g id="line2d_8">
      <g>
       <use style="stroke:#000000;stroke-width:0.8;" x="44.203125" xlink:href="#m39fb30027f" y="238.48446"/>
      </g>
     </g>
     <g id="text_8">
      <!-- 5 -->
      <g transform="translate(30.840625 242.283679)scale(0.1 -0.1)">
       <use xlink:href="#DejaVuSans-53"/>
      </g>
     </g>
    </g>
    <g id="ytick_3">
     <g id="line2d_9">
      <g>
       <use style="stroke:#000000;stroke-width:0.8;" x="44.203125" xlink:href="#m39fb30027f" y="197.106341"/>
      </g>
     </g>
     <g id="text_9">
      <!-- 10 -->
      <g transform="translate(24.478125 200.90556)scale(0.1 -0.1)">
       <use xlink:href="#DejaVuSans-49"/>
       <use x="63.623047" xlink:href="#DejaVuSans-48"/>
      </g>
     </g>
    </g>
    <g id="ytick_4">
     <g id="line2d_10">
      <g>
       <use style="stroke:#000000;stroke-width:0.8;" x="44.203125" xlink:href="#m39fb30027f" y="155.728222"/>
      </g>
     </g>
     <g id="text_10">
      <!-- 15 -->
      <g transform="translate(24.478125 159.527441)scale(0.1 -0.1)">
       <use xlink:href="#DejaVuSans-49"/>
       <use x="63.623047" xlink:href="#DejaVuSans-53"/>
      </g>
     </g>
    </g>
    <g id="ytick_5">
     <g id="line2d_11">
      <g>
       <use style="stroke:#000000;stroke-width:0.8;" x="44.203125" xlink:href="#m39fb30027f" y="114.350103"/>
      </g>
     </g>
     <g id="text_11">
      <!-- 20 -->
      <g transform="translate(24.478125 118.149322)scale(0.1 -0.1)">
       <use xlink:href="#DejaVuSans-50"/>
       <use x="63.623047" xlink:href="#DejaVuSans-48"/>
      </g>
     </g>
    </g>
    <g id="ytick_6">
     <g id="line2d_12">
      <g>
       <use style="stroke:#000000;stroke-width:0.8;" x="44.203125" xlink:href="#m39fb30027f" y="72.971984"/>
      </g>
     </g>
     <g id="text_12">
      <!-- 25 -->
      <g transform="translate(24.478125 76.771203)scale(0.1 -0.1)">
       <use xlink:href="#DejaVuSans-50"/>
       <use x="63.623047" xlink:href="#DejaVuSans-53"/>
      </g>
     </g>
    </g>
    <g id="ytick_7">
     <g id="line2d_13">
      <g>
       <use style="stroke:#000000;stroke-width:0.8;" x="44.203125" xlink:href="#m39fb30027f" y="31.593865"/>
      </g>
     </g>
     <g id="text_13">
      <!-- 30 -->
      <g transform="translate(24.478125 35.393083)scale(0.1 -0.1)">
       <use xlink:href="#DejaVuSans-51"/>
       <use x="63.623047" xlink:href="#DejaVuSans-48"/>
      </g>
     </g>
    </g>
    <g id="text_14">
     <!-- PV pcr (por 100000 hab.) diarios -->
     <defs>
      <path d="M 19.671875 64.796875 
L 19.671875 37.40625 
L 32.078125 37.40625 
Q 38.96875 37.40625 42.71875 40.96875 
Q 46.484375 44.53125 46.484375 51.125 
Q 46.484375 57.671875 42.71875 61.234375 
Q 38.96875 64.796875 32.078125 64.796875 
z
M 9.8125 72.90625 
L 32.078125 72.90625 
Q 44.34375 72.90625 50.609375 67.359375 
Q 56.890625 61.8125 56.890625 51.125 
Q 56.890625 40.328125 50.609375 34.8125 
Q 44.34375 29.296875 32.078125 29.296875 
L 19.671875 29.296875 
L 19.671875 0 
L 9.8125 0 
z
" id="DejaVuSans-80"/>
      <path d="M 28.609375 0 
L 0.78125 72.90625 
L 11.078125 72.90625 
L 34.1875 11.53125 
L 57.328125 72.90625 
L 67.578125 72.90625 
L 39.796875 0 
z
" id="DejaVuSans-86"/>
      <path id="DejaVuSans-32"/>
      <path d="M 18.109375 8.203125 
L 18.109375 -20.796875 
L 9.078125 -20.796875 
L 9.078125 54.6875 
L 18.109375 54.6875 
L 18.109375 46.390625 
Q 20.953125 51.265625 25.265625 53.625 
Q 29.59375 56 35.59375 56 
Q 45.5625 56 51.78125 48.09375 
Q 58.015625 40.1875 58.015625 27.296875 
Q 58.015625 14.40625 51.78125 6.484375 
Q 45.5625 -1.421875 35.59375 -1.421875 
Q 29.59375 -1.421875 25.265625 0.953125 
Q 20.953125 3.328125 18.109375 8.203125 
z
M 48.6875 27.296875 
Q 48.6875 37.203125 44.609375 42.84375 
Q 40.53125 48.484375 33.40625 48.484375 
Q 26.265625 48.484375 22.1875 42.84375 
Q 18.109375 37.203125 18.109375 27.296875 
Q 18.109375 17.390625 22.1875 11.75 
Q 26.265625 6.109375 33.40625 6.109375 
Q 40.53125 6.109375 44.609375 11.75 
Q 48.6875 17.390625 48.6875 27.296875 
z
" id="DejaVuSans-112"/>
      <path d="M 48.78125 52.59375 
L 48.78125 44.1875 
Q 44.96875 46.296875 41.140625 47.34375 
Q 37.3125 48.390625 33.40625 48.390625 
Q 24.65625 48.390625 19.8125 42.84375 
Q 14.984375 37.3125 14.984375 27.296875 
Q 14.984375 17.28125 19.8125 11.734375 
Q 24.65625 6.203125 33.40625 6.203125 
Q 37.3125 6.203125 41.140625 7.25 
Q 44.96875 8.296875 48.78125 10.40625 
L 48.78125 2.09375 
Q 45.015625 0.34375 40.984375 -0.53125 
Q 36.96875 -1.421875 32.421875 -1.421875 
Q 20.0625 -1.421875 12.78125 6.34375 
Q 5.515625 14.109375 5.515625 27.296875 
Q 5.515625 40.671875 12.859375 48.328125 
Q 20.21875 56 33.015625 56 
Q 37.15625 56 41.109375 55.140625 
Q 45.0625 54.296875 48.78125 52.59375 
z
" id="DejaVuSans-99"/>
      <path d="M 41.109375 46.296875 
Q 39.59375 47.171875 37.8125 47.578125 
Q 36.03125 48 33.890625 48 
Q 26.265625 48 22.1875 43.046875 
Q 18.109375 38.09375 18.109375 28.8125 
L 18.109375 0 
L 9.078125 0 
L 9.078125 54.6875 
L 18.109375 54.6875 
L 18.109375 46.1875 
Q 20.953125 51.171875 25.484375 53.578125 
Q 30.03125 56 36.53125 56 
Q 37.453125 56 38.578125 55.875 
Q 39.703125 55.765625 41.0625 55.515625 
z
" id="DejaVuSans-114"/>
      <path d="M 31 75.875 
Q 24.46875 64.65625 21.28125 53.65625 
Q 18.109375 42.671875 18.109375 31.390625 
Q 18.109375 20.125 21.3125 9.0625 
Q 24.515625 -2 31 -13.1875 
L 23.1875 -13.1875 
Q 15.875 -1.703125 12.234375 9.375 
Q 8.59375 20.453125 8.59375 31.390625 
Q 8.59375 42.28125 12.203125 53.3125 
Q 15.828125 64.359375 23.1875 75.875 
z
" id="DejaVuSans-40"/>
      <path d="M 30.609375 48.390625 
Q 23.390625 48.390625 19.1875 42.75 
Q 14.984375 37.109375 14.984375 27.296875 
Q 14.984375 17.484375 19.15625 11.84375 
Q 23.34375 6.203125 30.609375 6.203125 
Q 37.796875 6.203125 41.984375 11.859375 
Q 46.1875 17.53125 46.1875 27.296875 
Q 46.1875 37.015625 41.984375 42.703125 
Q 37.796875 48.390625 30.609375 48.390625 
z
M 30.609375 56 
Q 42.328125 56 49.015625 48.375 
Q 55.71875 40.765625 55.71875 27.296875 
Q 55.71875 13.875 49.015625 6.21875 
Q 42.328125 -1.421875 30.609375 -1.421875 
Q 18.84375 -1.421875 12.171875 6.21875 
Q 5.515625 13.875 5.515625 27.296875 
Q 5.515625 40.765625 12.171875 48.375 
Q 18.84375 56 30.609375 56 
z
" id="DejaVuSans-111"/>
      <path d="M 54.890625 33.015625 
L 54.890625 0 
L 45.90625 0 
L 45.90625 32.71875 
Q 45.90625 40.484375 42.875 44.328125 
Q 39.84375 48.1875 33.796875 48.1875 
Q 26.515625 48.1875 22.3125 43.546875 
Q 18.109375 38.921875 18.109375 30.90625 
L 18.109375 0 
L 9.078125 0 
L 9.078125 75.984375 
L 18.109375 75.984375 
L 18.109375 46.1875 
Q 21.34375 51.125 25.703125 53.5625 
Q 30.078125 56 35.796875 56 
Q 45.21875 56 50.046875 50.171875 
Q 54.890625 44.34375 54.890625 33.015625 
z
" id="DejaVuSans-104"/>
      <path d="M 34.28125 27.484375 
Q 23.390625 27.484375 19.1875 25 
Q 14.984375 22.515625 14.984375 16.5 
Q 14.984375 11.71875 18.140625 8.90625 
Q 21.296875 6.109375 26.703125 6.109375 
Q 34.1875 6.109375 38.703125 11.40625 
Q 43.21875 16.703125 43.21875 25.484375 
L 43.21875 27.484375 
z
M 52.203125 31.203125 
L 52.203125 0 
L 43.21875 0 
L 43.21875 8.296875 
Q 40.140625 3.328125 35.546875 0.953125 
Q 30.953125 -1.421875 24.3125 -1.421875 
Q 15.921875 -1.421875 10.953125 3.296875 
Q 6 8.015625 6 15.921875 
Q 6 25.140625 12.171875 29.828125 
Q 18.359375 34.515625 30.609375 34.515625 
L 43.21875 34.515625 
L 43.21875 35.40625 
Q 43.21875 41.609375 39.140625 45 
Q 35.0625 48.390625 27.6875 48.390625 
Q 23 48.390625 18.546875 47.265625 
Q 14.109375 46.140625 10.015625 43.890625 
L 10.015625 52.203125 
Q 14.9375 54.109375 19.578125 55.046875 
Q 24.21875 56 28.609375 56 
Q 40.484375 56 46.34375 49.84375 
Q 52.203125 43.703125 52.203125 31.203125 
z
" id="DejaVuSans-97"/>
      <path d="M 48.6875 27.296875 
Q 48.6875 37.203125 44.609375 42.84375 
Q 40.53125 48.484375 33.40625 48.484375 
Q 26.265625 48.484375 22.1875 42.84375 
Q 18.109375 37.203125 18.109375 27.296875 
Q 18.109375 17.390625 22.1875 11.75 
Q 26.265625 6.109375 33.40625 6.109375 
Q 40.53125 6.109375 44.609375 11.75 
Q 48.6875 17.390625 48.6875 27.296875 
z
M 18.109375 46.390625 
Q 20.953125 51.265625 25.265625 53.625 
Q 29.59375 56 35.59375 56 
Q 45.5625 56 51.78125 48.09375 
Q 58.015625 40.1875 58.015625 27.296875 
Q 58.015625 14.40625 51.78125 6.484375 
Q 45.5625 -1.421875 35.59375 -1.421875 
Q 29.59375 -1.421875 25.265625 0.953125 
Q 20.953125 3.328125 18.109375 8.203125 
L 18.109375 0 
L 9.078125 0 
L 9.078125 75.984375 
L 18.109375 75.984375 
z
" id="DejaVuSans-98"/>
      <path d="M 10.6875 12.40625 
L 21 12.40625 
L 21 0 
L 10.6875 0 
z
" id="DejaVuSans-46"/>
      <path d="M 8.015625 75.875 
L 15.828125 75.875 
Q 23.140625 64.359375 26.78125 53.3125 
Q 30.421875 42.28125 30.421875 31.390625 
Q 30.421875 20.453125 26.78125 9.375 
Q 23.140625 -1.703125 15.828125 -13.1875 
L 8.015625 -13.1875 
Q 14.5 -2 17.703125 9.0625 
Q 20.90625 20.125 20.90625 31.390625 
Q 20.90625 42.671875 17.703125 53.65625 
Q 14.5 64.65625 8.015625 75.875 
z
" id="DejaVuSans-41"/>
      <path d="M 45.40625 46.390625 
L 45.40625 75.984375 
L 54.390625 75.984375 
L 54.390625 0 
L 45.40625 0 
L 45.40625 8.203125 
Q 42.578125 3.328125 38.25 0.953125 
Q 33.9375 -1.421875 27.875 -1.421875 
Q 17.96875 -1.421875 11.734375 6.484375 
Q 5.515625 14.40625 5.515625 27.296875 
Q 5.515625 40.1875 11.734375 48.09375 
Q 17.96875 56 27.875 56 
Q 33.9375 56 38.25 53.625 
Q 42.578125 51.265625 45.40625 46.390625 
z
M 14.796875 27.296875 
Q 14.796875 17.390625 18.875 11.75 
Q 22.953125 6.109375 30.078125 6.109375 
Q 37.203125 6.109375 41.296875 11.75 
Q 45.40625 17.390625 45.40625 27.296875 
Q 45.40625 37.203125 41.296875 42.84375 
Q 37.203125 48.484375 30.078125 48.484375 
Q 22.953125 48.484375 18.875 42.84375 
Q 14.796875 37.203125 14.796875 27.296875 
z
" id="DejaVuSans-100"/>
      <path d="M 9.421875 54.6875 
L 18.40625 54.6875 
L 18.40625 0 
L 9.421875 0 
z
M 9.421875 75.984375 
L 18.40625 75.984375 
L 18.40625 64.59375 
L 9.421875 64.59375 
z
" id="DejaVuSans-105"/>
      <path d="M 44.28125 53.078125 
L 44.28125 44.578125 
Q 40.484375 46.53125 36.375 47.5 
Q 32.28125 48.484375 27.875 48.484375 
Q 21.1875 48.484375 17.84375 46.4375 
Q 14.5 44.390625 14.5 40.28125 
Q 14.5 37.15625 16.890625 35.375 
Q 19.28125 33.59375 26.515625 31.984375 
L 29.59375 31.296875 
Q 39.15625 29.25 43.1875 25.515625 
Q 47.21875 21.78125 47.21875 15.09375 
Q 47.21875 7.46875 41.1875 3.015625 
Q 35.15625 -1.421875 24.609375 -1.421875 
Q 20.21875 -1.421875 15.453125 -0.5625 
Q 10.6875 0.296875 5.421875 2 
L 5.421875 11.28125 
Q 10.40625 8.6875 15.234375 7.390625 
Q 20.0625 6.109375 24.8125 6.109375 
Q 31.15625 6.109375 34.5625 8.28125 
Q 37.984375 10.453125 37.984375 14.40625 
Q 37.984375 18.0625 35.515625 20.015625 
Q 33.0625 21.96875 24.703125 23.78125 
L 21.578125 24.515625 
Q 13.234375 26.265625 9.515625 29.90625 
Q 5.8125 33.546875 5.8125 39.890625 
Q 5.8125 47.609375 11.28125 51.796875 
Q 16.75 56 26.8125 56 
Q 31.78125 56 36.171875 55.265625 
Q 40.578125 54.546875 44.28125 53.078125 
z
" id="DejaVuSans-115"/>
     </defs>
     <g transform="translate(18.398438 226.700821)rotate(-90)scale(0.1 -0.1)">
      <use xlink:href="#DejaVuSans-80"/>
      <use x="60.302734" xlink:href="#DejaVuSans-86"/>
      <use x="128.710938" xlink:href="#DejaVuSans-32"/>
      <use x="160.498047" xlink:href="#DejaVuSans-112"/>
      <use x="223.974609" xlink:href="#DejaVuSans-99"/>
      <use x="278.955078" xlink:href="#DejaVuSans-114"/>
      <use x="320.068359" xlink:href="#DejaVuSans-32"/>
      <use x="351.855469" xlink:href="#DejaVuSans-40"/>
      <use x="390.869141" xlink:href="#DejaVuSans-112"/>
      <use x="454.345703" xlink:href="#DejaVuSans-111"/>
      <use x="515.527344" xlink:href="#DejaVuSans-114"/>
      <use x="556.640625" xlink:href="#DejaVuSans-32"/>
      <use x="588.427734" xlink:href="#DejaVuSans-49"/>
      <use x="652.050781" xlink:href="#DejaVuSans-48"/>
      <use x="715.673828" xlink:href="#DejaVuSans-48"/>
      <use x="779.296875" xlink:href="#DejaVuSans-48"/>
      <use x="842.919922" xlink:href="#DejaVuSans-48"/>
      <use x="906.542969" xlink:href="#DejaVuSans-48"/>
      <use x="970.166016" xlink:href="#DejaVuSans-32"/>
      <use x="1001.953125" xlink:href="#DejaVuSans-104"/>
      <use x="1065.332031" xlink:href="#DejaVuSans-97"/>
      <use x="1126.611328" xlink:href="#DejaVuSans-98"/>
      <use x="1190.087891" xlink:href="#DejaVuSans-46"/>
      <use x="1221.875" xlink:href="#DejaVuSans-41"/>
      <use x="1260.888672" xlink:href="#DejaVuSans-32"/>
      <use x="1292.675781" xlink:href="#DejaVuSans-100"/>
      <use x="1356.152344" xlink:href="#DejaVuSans-105"/>
      <use x="1383.935547" xlink:href="#DejaVuSans-97"/>
      <use x="1445.214844" xlink:href="#DejaVuSans-114"/>
      <use x="1486.328125" xlink:href="#DejaVuSans-105"/>
      <use x="1514.111328" xlink:href="#DejaVuSans-111"/>
      <use x="1575.292969" xlink:href="#DejaVuSans-115"/>
     </g>
    </g>
   </g>
   <g id="line2d_14">
    <path clip-path="url(#p99a3665f97)" d="M 62.648438 279.86258 
L 66.840554 279.86258 
L 71.03267 279.86258 
L 75.224787 279.86258 
L 79.416903 279.86258 
L 83.60902 279.86258 
L 87.801136 279.86258 
L 91.993253 279.104016 
L 96.185369 279.483298 
L 100.377486 277.586888 
L 104.569602 278.345452 
L 108.761719 278.345452 
L 112.953835 279.86258 
L 117.145952 269.242686 
L 121.338068 279.86258 
L 125.530185 270.380532 
L 129.722301 249.89931 
L 133.914418 262.415612 
L 138.106534 268.484123 
L 142.298651 233.96947 
L 146.490767 252.933565 
L 150.682884 240.417262 
L 154.875 238.520853 
L 159.067116 279.86258 
L 163.259233 228.659523 
L 167.451349 200.971945 
L 171.643466 197.558407 
L 175.835582 175.560057 
L 180.027699 181.249286 
L 184.219815 138.769713 
L 188.411932 156.975244 
L 192.604048 163.423036 
L 196.796165 73.912508 
L 200.988281 23.847297 
L 205.180398 31.432935 
L 209.372514 76.946763 
L 213.564631 50.776312 
L 217.756747 159.630217 
L 221.948864 180.11144 
L 226.14098 83.394556 
L 230.333097 98.18655 
L 234.525213 86.428811 
L 238.71733 143.321096 
L 242.909446 112.599262 
L 247.101562 210.833274 
L 251.293679 217.660348 
L 255.485795 121.322746 
L 259.677912 147.872479 
L 263.870028 184.283541 
L 268.062145 158.11309 
L 272.254261 203.626918 
L 276.446378 219.177476 
L 280.638494 215.005375 
L 284.830611 215.763939 
L 289.022727 208.178301 
L 293.214844 204.0062 
L 297.40696 222.970295 
L 301.599077 212.350402 
L 305.791193 257.864229 
L 309.98331 259.381357 
L 314.175426 230.176651 
L 318.367543 234.348752 
L 322.559659 238.141571 
L 326.751776 218.418912 
L 330.943892 246.106491 
L 335.136009 257.864229 
L 339.328125 260.519203 
L 343.520241 259.002075 
L 347.712358 248.761464 
L 351.904474 233.210906 
L 356.096591 255.96782 
L 360.288707 260.519203 
L 364.480824 274.552633 
L 368.67294 274.931915 
L 372.865057 263.553458 
L 377.057173 267.346277 
L 381.24929 257.105666 
L 385.441406 276.069761 
L 389.633523 262.794894 
L 393.825639 275.690479 
L 398.017756 276.449043 
L 402.209872 265.449867 
L 406.401989 277.96617 
L 410.594105 265.449867 
L 414.786222 266.966995 
L 418.978338 235.865879 
L 423.170455 274.173351 
L 427.362571 284.793244 
L 431.554687 270.00125 
" style="fill:none;stroke:#1f77b4;stroke-linecap:square;stroke-width:1.5;"/>
    <defs>
     <path d="M 0 1.5 
C 0.397805 1.5 0.77937 1.341951 1.06066 1.06066 
C 1.341951 0.77937 1.5 0.397805 1.5 0 
C 1.5 -0.397805 1.341951 -0.77937 1.06066 -1.06066 
C 0.77937 -1.341951 0.397805 -1.5 0 -1.5 
C -0.397805 -1.5 -0.77937 -1.341951 -1.06066 -1.06066 
C -1.341951 -0.77937 -1.5 -0.397805 -1.5 0 
C -1.5 0.397805 -1.341951 0.77937 -1.06066 1.06066 
C -0.77937 1.341951 -0.397805 1.5 0 1.5 
z
" id="maedab93f1f" style="stroke:#1f77b4;"/>
    </defs>
    <g clip-path="url(#p99a3665f97)">
     <use style="fill:#1f77b4;stroke:#1f77b4;" x="62.648438" xlink:href="#maedab93f1f" y="279.86258"/>
     <use style="fill:#1f77b4;stroke:#1f77b4;" x="66.840554" xlink:href="#maedab93f1f" y="279.86258"/>
     <use style="fill:#1f77b4;stroke:#1f77b4;" x="71.03267" xlink:href="#maedab93f1f" y="279.86258"/>
     <use style="fill:#1f77b4;stroke:#1f77b4;" x="75.224787" xlink:href="#maedab93f1f" y="279.86258"/>
     <use style="fill:#1f77b4;stroke:#1f77b4;" x="79.416903" xlink:href="#maedab93f1f" y="279.86258"/>
     <use style="fill:#1f77b4;stroke:#1f77b4;" x="83.60902" xlink:href="#maedab93f1f" y="279.86258"/>
     <use style="fill:#1f77b4;stroke:#1f77b4;" x="87.801136" xlink:href="#maedab93f1f" y="279.86258"/>
     <use style="fill:#1f77b4;stroke:#1f77b4;" x="91.993253" xlink:href="#maedab93f1f" y="279.104016"/>
     <use style="fill:#1f77b4;stroke:#1f77b4;" x="96.185369" xlink:href="#maedab93f1f" y="279.483298"/>
     <use style="fill:#1f77b4;stroke:#1f77b4;" x="100.377486" xlink:href="#maedab93f1f" y="277.586888"/>
     <use style="fill:#1f77b4;stroke:#1f77b4;" x="104.569602" xlink:href="#maedab93f1f" y="278.345452"/>
     <use style="fill:#1f77b4;stroke:#1f77b4;" x="108.761719" xlink:href="#maedab93f1f" y="278.345452"/>
     <use style="fill:#1f77b4;stroke:#1f77b4;" x="112.953835" xlink:href="#maedab93f1f" y="279.86258"/>
     <use style="fill:#1f77b4;stroke:#1f77b4;" x="117.145952" xlink:href="#maedab93f1f" y="269.242686"/>
     <use style="fill:#1f77b4;stroke:#1f77b4;" x="121.338068" xlink:href="#maedab93f1f" y="279.86258"/>
     <use style="fill:#1f77b4;stroke:#1f77b4;" x="125.530185" xlink:href="#maedab93f1f" y="270.380532"/>
     <use style="fill:#1f77b4;stroke:#1f77b4;" x="129.722301" xlink:href="#maedab93f1f" y="249.89931"/>
     <use style="fill:#1f77b4;stroke:#1f77b4;" x="133.914418" xlink:href="#maedab93f1f" y="262.415612"/>
     <use style="fill:#1f77b4;stroke:#1f77b4;" x="138.106534" xlink:href="#maedab93f1f" y="268.484123"/>
     <use style="fill:#1f77b4;stroke:#1f77b4;" x="142.298651" xlink:href="#maedab93f1f" y="233.96947"/>
     <use style="fill:#1f77b4;stroke:#1f77b4;" x="146.490767" xlink:href="#maedab93f1f" y="252.933565"/>
     <use style="fill:#1f77b4;stroke:#1f77b4;" x="150.682884" xlink:href="#maedab93f1f" y="240.417262"/>
     <use style="fill:#1f77b4;stroke:#1f77b4;" x="154.875" xlink:href="#maedab93f1f" y="238.520853"/>
     <use style="fill:#1f77b4;stroke:#1f77b4;" x="159.067116" xlink:href="#maedab93f1f" y="279.86258"/>
     <use style="fill:#1f77b4;stroke:#1f77b4;" x="163.259233" xlink:href="#maedab93f1f" y="228.659523"/>
     <use style="fill:#1f77b4;stroke:#1f77b4;" x="167.451349" xlink:href="#maedab93f1f" y="200.971945"/>
     <use style="fill:#1f77b4;stroke:#1f77b4;" x="171.643466" xlink:href="#maedab93f1f" y="197.558407"/>
     <use style="fill:#1f77b4;stroke:#1f77b4;" x="175.835582" xlink:href="#maedab93f1f" y="175.560057"/>
     <use style="fill:#1f77b4;stroke:#1f77b4;" x="180.027699" xlink:href="#maedab93f1f" y="181.249286"/>
     <use style="fill:#1f77b4;stroke:#1f77b4;" x="184.219815" xlink:href="#maedab93f1f" y="138.769713"/>
     <use style="fill:#1f77b4;stroke:#1f77b4;" x="188.411932" xlink:href="#maedab93f1f" y="156.975244"/>
     <use style="fill:#1f77b4;stroke:#1f77b4;" x="192.604048" xlink:href="#maedab93f1f" y="163.423036"/>
     <use style="fill:#1f77b4;stroke:#1f77b4;" x="196.796165" xlink:href="#maedab93f1f" y="73.912508"/>
     <use style="fill:#1f77b4;stroke:#1f77b4;" x="200.988281" xlink:href="#maedab93f1f" y="23.847297"/>
     <use style="fill:#1f77b4;stroke:#1f77b4;" x="205.180398" xlink:href="#maedab93f1f" y="31.432935"/>
     <use style="fill:#1f77b4;stroke:#1f77b4;" x="209.372514" xlink:href="#maedab93f1f" y="76.946763"/>
     <use style="fill:#1f77b4;stroke:#1f77b4;" x="213.564631" xlink:href="#maedab93f1f" y="50.776312"/>
     <use style="fill:#1f77b4;stroke:#1f77b4;" x="217.756747" xlink:href="#maedab93f1f" y="159.630217"/>
     <use style="fill:#1f77b4;stroke:#1f77b4;" x="221.948864" xlink:href="#maedab93f1f" y="180.11144"/>
     <use style="fill:#1f77b4;stroke:#1f77b4;" x="226.14098" xlink:href="#maedab93f1f" y="83.394556"/>
     <use style="fill:#1f77b4;stroke:#1f77b4;" x="230.333097" xlink:href="#maedab93f1f" y="98.18655"/>
     <use style="fill:#1f77b4;stroke:#1f77b4;" x="234.525213" xlink:href="#maedab93f1f" y="86.428811"/>
     <use style="fill:#1f77b4;stroke:#1f77b4;" x="238.71733" xlink:href="#maedab93f1f" y="143.321096"/>
     <use style="fill:#1f77b4;stroke:#1f77b4;" x="242.909446" xlink:href="#maedab93f1f" y="112.599262"/>
     <use style="fill:#1f77b4;stroke:#1f77b4;" x="247.101562" xlink:href="#maedab93f1f" y="210.833274"/>
     <use style="fill:#1f77b4;stroke:#1f77b4;" x="251.293679" xlink:href="#maedab93f1f" y="217.660348"/>
     <use style="fill:#1f77b4;stroke:#1f77b4;" x="255.485795" xlink:href="#maedab93f1f" y="121.322746"/>
     <use style="fill:#1f77b4;stroke:#1f77b4;" x="259.677912" xlink:href="#maedab93f1f" y="147.872479"/>
     <use style="fill:#1f77b4;stroke:#1f77b4;" x="263.870028" xlink:href="#maedab93f1f" y="184.283541"/>
     <use style="fill:#1f77b4;stroke:#1f77b4;" x="268.062145" xlink:href="#maedab93f1f" y="158.11309"/>
     <use style="fill:#1f77b4;stroke:#1f77b4;" x="272.254261" xlink:href="#maedab93f1f" y="203.626918"/>
     <use style="fill:#1f77b4;stroke:#1f77b4;" x="276.446378" xlink:href="#maedab93f1f" y="219.177476"/>
     <use style="fill:#1f77b4;stroke:#1f77b4;" x="280.638494" xlink:href="#maedab93f1f" y="215.005375"/>
     <use style="fill:#1f77b4;stroke:#1f77b4;" x="284.830611" xlink:href="#maedab93f1f" y="215.763939"/>
     <use style="fill:#1f77b4;stroke:#1f77b4;" x="289.022727" xlink:href="#maedab93f1f" y="208.178301"/>
     <use style="fill:#1f77b4;stroke:#1f77b4;" x="293.214844" xlink:href="#maedab93f1f" y="204.0062"/>
     <use style="fill:#1f77b4;stroke:#1f77b4;" x="297.40696" xlink:href="#maedab93f1f" y="222.970295"/>
     <use style="fill:#1f77b4;stroke:#1f77b4;" x="301.599077" xlink:href="#maedab93f1f" y="212.350402"/>
     <use style="fill:#1f77b4;stroke:#1f77b4;" x="305.791193" xlink:href="#maedab93f1f" y="257.864229"/>
     <use style="fill:#1f77b4;stroke:#1f77b4;" x="309.98331" xlink:href="#maedab93f1f" y="259.381357"/>
     <use style="fill:#1f77b4;stroke:#1f77b4;" x="314.175426" xlink:href="#maedab93f1f" y="230.176651"/>
     <use style="fill:#1f77b4;stroke:#1f77b4;" x="318.367543" xlink:href="#maedab93f1f" y="234.348752"/>
     <use style="fill:#1f77b4;stroke:#1f77b4;" x="322.559659" xlink:href="#maedab93f1f" y="238.141571"/>
     <use style="fill:#1f77b4;stroke:#1f77b4;" x="326.751776" xlink:href="#maedab93f1f" y="218.418912"/>
     <use style="fill:#1f77b4;stroke:#1f77b4;" x="330.943892" xlink:href="#maedab93f1f" y="246.106491"/>
     <use style="fill:#1f77b4;stroke:#1f77b4;" x="335.136009" xlink:href="#maedab93f1f" y="257.864229"/>
     <use style="fill:#1f77b4;stroke:#1f77b4;" x="339.328125" xlink:href="#maedab93f1f" y="260.519203"/>
     <use style="fill:#1f77b4;stroke:#1f77b4;" x="343.520241" xlink:href="#maedab93f1f" y="259.002075"/>
     <use style="fill:#1f77b4;stroke:#1f77b4;" x="347.712358" xlink:href="#maedab93f1f" y="248.761464"/>
     <use style="fill:#1f77b4;stroke:#1f77b4;" x="351.904474" xlink:href="#maedab93f1f" y="233.210906"/>
     <use style="fill:#1f77b4;stroke:#1f77b4;" x="356.096591" xlink:href="#maedab93f1f" y="255.96782"/>
     <use style="fill:#1f77b4;stroke:#1f77b4;" x="360.288707" xlink:href="#maedab93f1f" y="260.519203"/>
     <use style="fill:#1f77b4;stroke:#1f77b4;" x="364.480824" xlink:href="#maedab93f1f" y="274.552633"/>
     <use style="fill:#1f77b4;stroke:#1f77b4;" x="368.67294" xlink:href="#maedab93f1f" y="274.931915"/>
     <use style="fill:#1f77b4;stroke:#1f77b4;" x="372.865057" xlink:href="#maedab93f1f" y="263.553458"/>
     <use style="fill:#1f77b4;stroke:#1f77b4;" x="377.057173" xlink:href="#maedab93f1f" y="267.346277"/>
     <use style="fill:#1f77b4;stroke:#1f77b4;" x="381.24929" xlink:href="#maedab93f1f" y="257.105666"/>
     <use style="fill:#1f77b4;stroke:#1f77b4;" x="385.441406" xlink:href="#maedab93f1f" y="276.069761"/>
     <use style="fill:#1f77b4;stroke:#1f77b4;" x="389.633523" xlink:href="#maedab93f1f" y="262.794894"/>
     <use style="fill:#1f77b4;stroke:#1f77b4;" x="393.825639" xlink:href="#maedab93f1f" y="275.690479"/>
     <use style="fill:#1f77b4;stroke:#1f77b4;" x="398.017756" xlink:href="#maedab93f1f" y="276.449043"/>
     <use style="fill:#1f77b4;stroke:#1f77b4;" x="402.209872" xlink:href="#maedab93f1f" y="265.449867"/>
     <use style="fill:#1f77b4;stroke:#1f77b4;" x="406.401989" xlink:href="#maedab93f1f" y="277.96617"/>
     <use style="fill:#1f77b4;stroke:#1f77b4;" x="410.594105" xlink:href="#maedab93f1f" y="265.449867"/>
     <use style="fill:#1f77b4;stroke:#1f77b4;" x="414.786222" xlink:href="#maedab93f1f" y="266.966995"/>
     <use style="fill:#1f77b4;stroke:#1f77b4;" x="418.978338" xlink:href="#maedab93f1f" y="235.865879"/>
     <use style="fill:#1f77b4;stroke:#1f77b4;" x="423.170455" xlink:href="#maedab93f1f" y="274.173351"/>
     <use style="fill:#1f77b4;stroke:#1f77b4;" x="427.362571" xlink:href="#maedab93f1f" y="284.793244"/>
     <use style="fill:#1f77b4;stroke:#1f77b4;" x="431.554687" xlink:href="#maedab93f1f" y="270.00125"/>
    </g>
   </g>
   <g id="patch_3">
    <path d="M 44.203125 279.86258 
L 44.203125 10.8 
" style="fill:none;stroke:#000000;stroke-linecap:square;stroke-linejoin:miter;stroke-width:0.8;"/>
   </g>
   <g id="patch_4">
    <path d="M 450 279.86258 
L 450 10.8 
" style="fill:none;stroke:#000000;stroke-linecap:square;stroke-linejoin:miter;stroke-width:0.8;"/>
   </g>
   <g id="patch_5">
    <path d="M 44.203125 279.86258 
L 450 279.86258 
" style="fill:none;stroke:#000000;stroke-linecap:square;stroke-linejoin:miter;stroke-width:0.8;"/>
   </g>
   <g id="patch_6">
    <path d="M 44.203125 10.8 
L 450 10.8 
" style="fill:none;stroke:#000000;stroke-linecap:square;stroke-linejoin:miter;stroke-width:0.8;"/>
   </g>
  </g>
 </g>
 <defs>
  <clipPath id="p99a3665f97">
   <rect height="269.06258" width="405.796875" x="44.203125" y="10.8"/>
  </clipPath>
 </defs>
</svg>
