<?xml version="1.0" encoding="utf-8" standalone="no"?>
<!DOCTYPE svg PUBLIC "-//W3C//DTD SVG 1.1//EN"
  "http://www.w3.org/Graphics/SVG/1.1/DTD/svg11.dtd">
<!-- Created with matplotlib (https://matplotlib.org/) -->
<svg height="345.6pt" version="1.1" viewBox="0 0 460.8 345.6" width="460.8pt" xmlns="http://www.w3.org/2000/svg" xmlns:xlink="http://www.w3.org/1999/xlink">
 <defs>
  <style type="text/css">
*{stroke-linecap:butt;stroke-linejoin:round;}
  </style>
 </defs>
 <g id="figure_1">
  <g id="patch_1">
   <path d="M 0 345.6 
L 460.8 345.6 
L 460.8 0 
L 0 0 
z
" style="fill:#ffffff;"/>
  </g>
  <g id="axes_1">
   <g id="patch_2">
    <path d="M 55.760938 279.86258 
L 450 279.86258 
L 450 10.8 
L 55.760938 10.8 
z
" style="fill:#ffffff;"/>
   </g>
   <g id="matplotlib.axis_1">
    <g id="xtick_1">
     <g id="line2d_1">
      <defs>
       <path d="M 0 0 
L 0 3.5 
" id="m35578d6077" style="stroke:#000000;stroke-width:0.8;"/>
      </defs>
      <g>
       <use style="stroke:#000000;stroke-width:0.8;" x="114.511178" xlink:href="#m35578d6077" y="279.86258"/>
      </g>
     </g>
     <g id="text_1">
      <!-- 2020-03-01 -->
      <defs>
       <path d="M 19.1875 8.296875 
L 53.609375 8.296875 
L 53.609375 0 
L 7.328125 0 
L 7.328125 8.296875 
Q 12.9375 14.109375 22.625 23.890625 
Q 32.328125 33.6875 34.8125 36.53125 
Q 39.546875 41.84375 41.421875 45.53125 
Q 43.3125 49.21875 43.3125 52.78125 
Q 43.3125 58.59375 39.234375 62.25 
Q 35.15625 65.921875 28.609375 65.921875 
Q 23.96875 65.921875 18.8125 64.3125 
Q 13.671875 62.703125 7.8125 59.421875 
L 7.8125 69.390625 
Q 13.765625 71.78125 18.9375 73 
Q 24.125 74.21875 28.421875 74.21875 
Q 39.75 74.21875 46.484375 68.546875 
Q 53.21875 62.890625 53.21875 53.421875 
Q 53.21875 48.921875 51.53125 44.890625 
Q 49.859375 40.875 45.40625 35.40625 
Q 44.1875 33.984375 37.640625 27.21875 
Q 31.109375 20.453125 19.1875 8.296875 
z
" id="DejaVuSans-50"/>
       <path d="M 31.78125 66.40625 
Q 24.171875 66.40625 20.328125 58.90625 
Q 16.5 51.421875 16.5 36.375 
Q 16.5 21.390625 20.328125 13.890625 
Q 24.171875 6.390625 31.78125 6.390625 
Q 39.453125 6.390625 43.28125 13.890625 
Q 47.125 21.390625 47.125 36.375 
Q 47.125 51.421875 43.28125 58.90625 
Q 39.453125 66.40625 31.78125 66.40625 
z
M 31.78125 74.21875 
Q 44.046875 74.21875 50.515625 64.515625 
Q 56.984375 54.828125 56.984375 36.375 
Q 56.984375 17.96875 50.515625 8.265625 
Q 44.046875 -1.421875 31.78125 -1.421875 
Q 19.53125 -1.421875 13.0625 8.265625 
Q 6.59375 17.96875 6.59375 36.375 
Q 6.59375 54.828125 13.0625 64.515625 
Q 19.53125 74.21875 31.78125 74.21875 
z
" id="DejaVuSans-48"/>
       <path d="M 4.890625 31.390625 
L 31.203125 31.390625 
L 31.203125 23.390625 
L 4.890625 23.390625 
z
" id="DejaVuSans-45"/>
       <path d="M 40.578125 39.3125 
Q 47.65625 37.796875 51.625 33 
Q 55.609375 28.21875 55.609375 21.1875 
Q 55.609375 10.40625 48.1875 4.484375 
Q 40.765625 -1.421875 27.09375 -1.421875 
Q 22.515625 -1.421875 17.65625 -0.515625 
Q 12.796875 0.390625 7.625 2.203125 
L 7.625 11.71875 
Q 11.71875 9.328125 16.59375 8.109375 
Q 21.484375 6.890625 26.8125 6.890625 
Q 36.078125 6.890625 40.9375 10.546875 
Q 45.796875 14.203125 45.796875 21.1875 
Q 45.796875 27.640625 41.28125 31.265625 
Q 36.765625 34.90625 28.71875 34.90625 
L 20.21875 34.90625 
L 20.21875 43.015625 
L 29.109375 43.015625 
Q 36.375 43.015625 40.234375 45.921875 
Q 44.09375 48.828125 44.09375 54.296875 
Q 44.09375 59.90625 40.109375 62.90625 
Q 36.140625 65.921875 28.71875 65.921875 
Q 24.65625 65.921875 20.015625 65.03125 
Q 15.375 64.15625 9.8125 62.3125 
L 9.8125 71.09375 
Q 15.4375 72.65625 20.34375 73.4375 
Q 25.25 74.21875 29.59375 74.21875 
Q 40.828125 74.21875 47.359375 69.109375 
Q 53.90625 64.015625 53.90625 55.328125 
Q 53.90625 49.265625 50.4375 45.09375 
Q 46.96875 40.921875 40.578125 39.3125 
z
" id="DejaVuSans-51"/>
       <path d="M 12.40625 8.296875 
L 28.515625 8.296875 
L 28.515625 63.921875 
L 10.984375 60.40625 
L 10.984375 69.390625 
L 28.421875 72.90625 
L 38.28125 72.90625 
L 38.28125 8.296875 
L 54.390625 8.296875 
L 54.390625 0 
L 12.40625 0 
z
" id="DejaVuSans-49"/>
      </defs>
      <g transform="translate(95.915374 333.329439)rotate(-45)scale(0.1 -0.1)">
       <use xlink:href="#DejaVuSans-50"/>
       <use x="63.623047" xlink:href="#DejaVuSans-48"/>
       <use x="127.246094" xlink:href="#DejaVuSans-50"/>
       <use x="190.869141" xlink:href="#DejaVuSans-48"/>
       <use x="254.492188" xlink:href="#DejaVuSans-45"/>
       <use x="290.576172" xlink:href="#DejaVuSans-48"/>
       <use x="354.199219" xlink:href="#DejaVuSans-51"/>
       <use x="417.822266" xlink:href="#DejaVuSans-45"/>
       <use x="453.90625" xlink:href="#DejaVuSans-48"/>
       <use x="517.529297" xlink:href="#DejaVuSans-49"/>
      </g>
     </g>
    </g>
    <g id="xtick_2">
     <g id="line2d_2">
      <g>
       <use style="stroke:#000000;stroke-width:0.8;" x="178.024951" xlink:href="#m35578d6077" y="279.86258"/>
      </g>
     </g>
     <g id="text_2">
      <!-- 2020-03-15 -->
      <defs>
       <path d="M 10.796875 72.90625 
L 49.515625 72.90625 
L 49.515625 64.59375 
L 19.828125 64.59375 
L 19.828125 46.734375 
Q 21.96875 47.46875 24.109375 47.828125 
Q 26.265625 48.1875 28.421875 48.1875 
Q 40.625 48.1875 47.75 41.5 
Q 54.890625 34.8125 54.890625 23.390625 
Q 54.890625 11.625 47.5625 5.09375 
Q 40.234375 -1.421875 26.90625 -1.421875 
Q 22.3125 -1.421875 17.546875 -0.640625 
Q 12.796875 0.140625 7.71875 1.703125 
L 7.71875 11.625 
Q 12.109375 9.234375 16.796875 8.0625 
Q 21.484375 6.890625 26.703125 6.890625 
Q 35.15625 6.890625 40.078125 11.328125 
Q 45.015625 15.765625 45.015625 23.390625 
Q 45.015625 31 40.078125 35.4375 
Q 35.15625 39.890625 26.703125 39.890625 
Q 22.75 39.890625 18.8125 39.015625 
Q 14.890625 38.140625 10.796875 36.28125 
z
" id="DejaVuSans-53"/>
      </defs>
      <g transform="translate(159.429147 333.329439)rotate(-45)scale(0.1 -0.1)">
       <use xlink:href="#DejaVuSans-50"/>
       <use x="63.623047" xlink:href="#DejaVuSans-48"/>
       <use x="127.246094" xlink:href="#DejaVuSans-50"/>
       <use x="190.869141" xlink:href="#DejaVuSans-48"/>
       <use x="254.492188" xlink:href="#DejaVuSans-45"/>
       <use x="290.576172" xlink:href="#DejaVuSans-48"/>
       <use x="354.199219" xlink:href="#DejaVuSans-51"/>
       <use x="417.822266" xlink:href="#DejaVuSans-45"/>
       <use x="453.90625" xlink:href="#DejaVuSans-49"/>
       <use x="517.529297" xlink:href="#DejaVuSans-53"/>
      </g>
     </g>
    </g>
    <g id="xtick_3">
     <g id="line2d_3">
      <g>
       <use style="stroke:#000000;stroke-width:0.8;" x="255.148818" xlink:href="#m35578d6077" y="279.86258"/>
      </g>
     </g>
     <g id="text_3">
      <!-- 2020-04-01 -->
      <defs>
       <path d="M 37.796875 64.3125 
L 12.890625 25.390625 
L 37.796875 25.390625 
z
M 35.203125 72.90625 
L 47.609375 72.90625 
L 47.609375 25.390625 
L 58.015625 25.390625 
L 58.015625 17.1875 
L 47.609375 17.1875 
L 47.609375 0 
L 37.796875 0 
L 37.796875 17.1875 
L 4.890625 17.1875 
L 4.890625 26.703125 
z
" id="DejaVuSans-52"/>
      </defs>
      <g transform="translate(236.553014 333.329439)rotate(-45)scale(0.1 -0.1)">
       <use xlink:href="#DejaVuSans-50"/>
       <use x="63.623047" xlink:href="#DejaVuSans-48"/>
       <use x="127.246094" xlink:href="#DejaVuSans-50"/>
       <use x="190.869141" xlink:href="#DejaVuSans-48"/>
       <use x="254.492188" xlink:href="#DejaVuSans-45"/>
       <use x="290.576172" xlink:href="#DejaVuSans-48"/>
       <use x="354.199219" xlink:href="#DejaVuSans-52"/>
       <use x="417.822266" xlink:href="#DejaVuSans-45"/>
       <use x="453.90625" xlink:href="#DejaVuSans-48"/>
       <use x="517.529297" xlink:href="#DejaVuSans-49"/>
      </g>
     </g>
    </g>
    <g id="xtick_4">
     <g id="line2d_4">
      <g>
       <use style="stroke:#000000;stroke-width:0.8;" x="318.662591" xlink:href="#m35578d6077" y="279.86258"/>
      </g>
     </g>
     <g id="text_4">
      <!-- 2020-04-15 -->
      <g transform="translate(300.066787 333.329439)rotate(-45)scale(0.1 -0.1)">
       <use xlink:href="#DejaVuSans-50"/>
       <use x="63.623047" xlink:href="#DejaVuSans-48"/>
       <use x="127.246094" xlink:href="#DejaVuSans-50"/>
       <use x="190.869141" xlink:href="#DejaVuSans-48"/>
       <use x="254.492188" xlink:href="#DejaVuSans-45"/>
       <use x="290.576172" xlink:href="#DejaVuSans-48"/>
       <use x="354.199219" xlink:href="#DejaVuSans-52"/>
       <use x="417.822266" xlink:href="#DejaVuSans-45"/>
       <use x="453.90625" xlink:href="#DejaVuSans-49"/>
       <use x="517.529297" xlink:href="#DejaVuSans-53"/>
      </g>
     </g>
    </g>
    <g id="xtick_5">
     <g id="line2d_5">
      <g>
       <use style="stroke:#000000;stroke-width:0.8;" x="391.24976" xlink:href="#m35578d6077" y="279.86258"/>
      </g>
     </g>
     <g id="text_5">
      <!-- 2020-05-01 -->
      <g transform="translate(372.653956 333.329439)rotate(-45)scale(0.1 -0.1)">
       <use xlink:href="#DejaVuSans-50"/>
       <use x="63.623047" xlink:href="#DejaVuSans-48"/>
       <use x="127.246094" xlink:href="#DejaVuSans-50"/>
       <use x="190.869141" xlink:href="#DejaVuSans-48"/>
       <use x="254.492188" xlink:href="#DejaVuSans-45"/>
       <use x="290.576172" xlink:href="#DejaVuSans-48"/>
       <use x="354.199219" xlink:href="#DejaVuSans-53"/>
       <use x="417.822266" xlink:href="#DejaVuSans-45"/>
       <use x="453.90625" xlink:href="#DejaVuSans-48"/>
       <use x="517.529297" xlink:href="#DejaVuSans-49"/>
      </g>
     </g>
    </g>
   </g>
   <g id="matplotlib.axis_2">
    <g id="ytick_1">
     <g id="line2d_6">
      <defs>
       <path d="M 0 0 
L -3.5 0 
" id="m84c8260c16" style="stroke:#000000;stroke-width:0.8;"/>
      </defs>
      <g>
       <use style="stroke:#000000;stroke-width:0.8;" x="55.760938" xlink:href="#m84c8260c16" y="266.510401"/>
      </g>
     </g>
     <g id="text_6">
      <!-- −2.5 -->
      <defs>
       <path d="M 10.59375 35.5 
L 73.1875 35.5 
L 73.1875 27.203125 
L 10.59375 27.203125 
z
" id="DejaVuSans-8722"/>
       <path d="M 10.6875 12.40625 
L 21 12.40625 
L 21 0 
L 10.6875 0 
z
" id="DejaVuSans-46"/>
      </defs>
      <g transform="translate(24.478125 270.30962)scale(0.1 -0.1)">
       <use xlink:href="#DejaVuSans-8722"/>
       <use x="83.789062" xlink:href="#DejaVuSans-50"/>
       <use x="147.412109" xlink:href="#DejaVuSans-46"/>
       <use x="179.199219" xlink:href="#DejaVuSans-53"/>
      </g>
     </g>
    </g>
    <g id="ytick_2">
     <g id="line2d_7">
      <g>
       <use style="stroke:#000000;stroke-width:0.8;" x="55.760938" xlink:href="#m84c8260c16" y="231.73519"/>
      </g>
     </g>
     <g id="text_7">
      <!-- 0.0 -->
      <g transform="translate(32.857813 235.534409)scale(0.1 -0.1)">
       <use xlink:href="#DejaVuSans-48"/>
       <use x="63.623047" xlink:href="#DejaVuSans-46"/>
       <use x="95.410156" xlink:href="#DejaVuSans-48"/>
      </g>
     </g>
    </g>
    <g id="ytick_3">
     <g id="line2d_8">
      <g>
       <use style="stroke:#000000;stroke-width:0.8;" x="55.760938" xlink:href="#m84c8260c16" y="196.959978"/>
      </g>
     </g>
     <g id="text_8">
      <!-- 2.5 -->
      <g transform="translate(32.857813 200.759197)scale(0.1 -0.1)">
       <use xlink:href="#DejaVuSans-50"/>
       <use x="63.623047" xlink:href="#DejaVuSans-46"/>
       <use x="95.410156" xlink:href="#DejaVuSans-53"/>
      </g>
     </g>
    </g>
    <g id="ytick_4">
     <g id="line2d_9">
      <g>
       <use style="stroke:#000000;stroke-width:0.8;" x="55.760938" xlink:href="#m84c8260c16" y="162.184767"/>
      </g>
     </g>
     <g id="text_9">
      <!-- 5.0 -->
      <g transform="translate(32.857813 165.983986)scale(0.1 -0.1)">
       <use xlink:href="#DejaVuSans-53"/>
       <use x="63.623047" xlink:href="#DejaVuSans-46"/>
       <use x="95.410156" xlink:href="#DejaVuSans-48"/>
      </g>
     </g>
    </g>
    <g id="ytick_5">
     <g id="line2d_10">
      <g>
       <use style="stroke:#000000;stroke-width:0.8;" x="55.760938" xlink:href="#m84c8260c16" y="127.409556"/>
      </g>
     </g>
     <g id="text_10">
      <!-- 7.5 -->
      <defs>
       <path d="M 8.203125 72.90625 
L 55.078125 72.90625 
L 55.078125 68.703125 
L 28.609375 0 
L 18.3125 0 
L 43.21875 64.59375 
L 8.203125 64.59375 
z
" id="DejaVuSans-55"/>
      </defs>
      <g transform="translate(32.857813 131.208774)scale(0.1 -0.1)">
       <use xlink:href="#DejaVuSans-55"/>
       <use x="63.623047" xlink:href="#DejaVuSans-46"/>
       <use x="95.410156" xlink:href="#DejaVuSans-53"/>
      </g>
     </g>
    </g>
    <g id="ytick_6">
     <g id="line2d_11">
      <g>
       <use style="stroke:#000000;stroke-width:0.8;" x="55.760938" xlink:href="#m84c8260c16" y="92.634344"/>
      </g>
     </g>
     <g id="text_11">
      <!-- 10.0 -->
      <g transform="translate(26.495313 96.433563)scale(0.1 -0.1)">
       <use xlink:href="#DejaVuSans-49"/>
       <use x="63.623047" xlink:href="#DejaVuSans-48"/>
       <use x="127.246094" xlink:href="#DejaVuSans-46"/>
       <use x="159.033203" xlink:href="#DejaVuSans-48"/>
      </g>
     </g>
    </g>
    <g id="ytick_7">
     <g id="line2d_12">
      <g>
       <use style="stroke:#000000;stroke-width:0.8;" x="55.760938" xlink:href="#m84c8260c16" y="57.859133"/>
      </g>
     </g>
     <g id="text_12">
      <!-- 12.5 -->
      <g transform="translate(26.495313 61.658352)scale(0.1 -0.1)">
       <use xlink:href="#DejaVuSans-49"/>
       <use x="63.623047" xlink:href="#DejaVuSans-50"/>
       <use x="127.246094" xlink:href="#DejaVuSans-46"/>
       <use x="159.033203" xlink:href="#DejaVuSans-53"/>
      </g>
     </g>
    </g>
    <g id="ytick_8">
     <g id="line2d_13">
      <g>
       <use style="stroke:#000000;stroke-width:0.8;" x="55.760938" xlink:href="#m84c8260c16" y="23.083921"/>
      </g>
     </g>
     <g id="text_13">
      <!-- 15.0 -->
      <g transform="translate(26.495313 26.88314)scale(0.1 -0.1)">
       <use xlink:href="#DejaVuSans-49"/>
       <use x="63.623047" xlink:href="#DejaVuSans-53"/>
       <use x="127.246094" xlink:href="#DejaVuSans-46"/>
       <use x="159.033203" xlink:href="#DejaVuSans-48"/>
      </g>
     </g>
    </g>
    <g id="text_14">
     <!-- VC pcr (por 100000 hab.) diarios -->
     <defs>
      <path d="M 28.609375 0 
L 0.78125 72.90625 
L 11.078125 72.90625 
L 34.1875 11.53125 
L 57.328125 72.90625 
L 67.578125 72.90625 
L 39.796875 0 
z
" id="DejaVuSans-86"/>
      <path d="M 64.40625 67.28125 
L 64.40625 56.890625 
Q 59.421875 61.53125 53.78125 63.8125 
Q 48.140625 66.109375 41.796875 66.109375 
Q 29.296875 66.109375 22.65625 58.46875 
Q 16.015625 50.828125 16.015625 36.375 
Q 16.015625 21.96875 22.65625 14.328125 
Q 29.296875 6.6875 41.796875 6.6875 
Q 48.140625 6.6875 53.78125 8.984375 
Q 59.421875 11.28125 64.40625 15.921875 
L 64.40625 5.609375 
Q 59.234375 2.09375 53.4375 0.328125 
Q 47.65625 -1.421875 41.21875 -1.421875 
Q 24.65625 -1.421875 15.125 8.703125 
Q 5.609375 18.84375 5.609375 36.375 
Q 5.609375 53.953125 15.125 64.078125 
Q 24.65625 74.21875 41.21875 74.21875 
Q 47.75 74.21875 53.53125 72.484375 
Q 59.328125 70.75 64.40625 67.28125 
z
" id="DejaVuSans-67"/>
      <path id="DejaVuSans-32"/>
      <path d="M 18.109375 8.203125 
L 18.109375 -20.796875 
L 9.078125 -20.796875 
L 9.078125 54.6875 
L 18.109375 54.6875 
L 18.109375 46.390625 
Q 20.953125 51.265625 25.265625 53.625 
Q 29.59375 56 35.59375 56 
Q 45.5625 56 51.78125 48.09375 
Q 58.015625 40.1875 58.015625 27.296875 
Q 58.015625 14.40625 51.78125 6.484375 
Q 45.5625 -1.421875 35.59375 -1.421875 
Q 29.59375 -1.421875 25.265625 0.953125 
Q 20.953125 3.328125 18.109375 8.203125 
z
M 48.6875 27.296875 
Q 48.6875 37.203125 44.609375 42.84375 
Q 40.53125 48.484375 33.40625 48.484375 
Q 26.265625 48.484375 22.1875 42.84375 
Q 18.109375 37.203125 18.109375 27.296875 
Q 18.109375 17.390625 22.1875 11.75 
Q 26.265625 6.109375 33.40625 6.109375 
Q 40.53125 6.109375 44.609375 11.75 
Q 48.6875 17.390625 48.6875 27.296875 
z
" id="DejaVuSans-112"/>
      <path d="M 48.78125 52.59375 
L 48.78125 44.1875 
Q 44.96875 46.296875 41.140625 47.34375 
Q 37.3125 48.390625 33.40625 48.390625 
Q 24.65625 48.390625 19.8125 42.84375 
Q 14.984375 37.3125 14.984375 27.296875 
Q 14.984375 17.28125 19.8125 11.734375 
Q 24.65625 6.203125 33.40625 6.203125 
Q 37.3125 6.203125 41.140625 7.25 
Q 44.96875 8.296875 48.78125 10.40625 
L 48.78125 2.09375 
Q 45.015625 0.34375 40.984375 -0.53125 
Q 36.96875 -1.421875 32.421875 -1.421875 
Q 20.0625 -1.421875 12.78125 6.34375 
Q 5.515625 14.109375 5.515625 27.296875 
Q 5.515625 40.671875 12.859375 48.328125 
Q 20.21875 56 33.015625 56 
Q 37.15625 56 41.109375 55.140625 
Q 45.0625 54.296875 48.78125 52.59375 
z
" id="DejaVuSans-99"/>
      <path d="M 41.109375 46.296875 
Q 39.59375 47.171875 37.8125 47.578125 
Q 36.03125 48 33.890625 48 
Q 26.265625 48 22.1875 43.046875 
Q 18.109375 38.09375 18.109375 28.8125 
L 18.109375 0 
L 9.078125 0 
L 9.078125 54.6875 
L 18.109375 54.6875 
L 18.109375 46.1875 
Q 20.953125 51.171875 25.484375 53.578125 
Q 30.03125 56 36.53125 56 
Q 37.453125 56 38.578125 55.875 
Q 39.703125 55.765625 41.0625 55.515625 
z
" id="DejaVuSans-114"/>
      <path d="M 31 75.875 
Q 24.46875 64.65625 21.28125 53.65625 
Q 18.109375 42.671875 18.109375 31.390625 
Q 18.109375 20.125 21.3125 9.0625 
Q 24.515625 -2 31 -13.1875 
L 23.1875 -13.1875 
Q 15.875 -1.703125 12.234375 9.375 
Q 8.59375 20.453125 8.59375 31.390625 
Q 8.59375 42.28125 12.203125 53.3125 
Q 15.828125 64.359375 23.1875 75.875 
z
" id="DejaVuSans-40"/>
      <path d="M 30.609375 48.390625 
Q 23.390625 48.390625 19.1875 42.75 
Q 14.984375 37.109375 14.984375 27.296875 
Q 14.984375 17.484375 19.15625 11.84375 
Q 23.34375 6.203125 30.609375 6.203125 
Q 37.796875 6.203125 41.984375 11.859375 
Q 46.1875 17.53125 46.1875 27.296875 
Q 46.1875 37.015625 41.984375 42.703125 
Q 37.796875 48.390625 30.609375 48.390625 
z
M 30.609375 56 
Q 42.328125 56 49.015625 48.375 
Q 55.71875 40.765625 55.71875 27.296875 
Q 55.71875 13.875 49.015625 6.21875 
Q 42.328125 -1.421875 30.609375 -1.421875 
Q 18.84375 -1.421875 12.171875 6.21875 
Q 5.515625 13.875 5.515625 27.296875 
Q 5.515625 40.765625 12.171875 48.375 
Q 18.84375 56 30.609375 56 
z
" id="DejaVuSans-111"/>
      <path d="M 54.890625 33.015625 
L 54.890625 0 
L 45.90625 0 
L 45.90625 32.71875 
Q 45.90625 40.484375 42.875 44.328125 
Q 39.84375 48.1875 33.796875 48.1875 
Q 26.515625 48.1875 22.3125 43.546875 
Q 18.109375 38.921875 18.109375 30.90625 
L 18.109375 0 
L 9.078125 0 
L 9.078125 75.984375 
L 18.109375 75.984375 
L 18.109375 46.1875 
Q 21.34375 51.125 25.703125 53.5625 
Q 30.078125 56 35.796875 56 
Q 45.21875 56 50.046875 50.171875 
Q 54.890625 44.34375 54.890625 33.015625 
z
" id="DejaVuSans-104"/>
      <path d="M 34.28125 27.484375 
Q 23.390625 27.484375 19.1875 25 
Q 14.984375 22.515625 14.984375 16.5 
Q 14.984375 11.71875 18.140625 8.90625 
Q 21.296875 6.109375 26.703125 6.109375 
Q 34.1875 6.109375 38.703125 11.40625 
Q 43.21875 16.703125 43.21875 25.484375 
L 43.21875 27.484375 
z
M 52.203125 31.203125 
L 52.203125 0 
L 43.21875 0 
L 43.21875 8.296875 
Q 40.140625 3.328125 35.546875 0.953125 
Q 30.953125 -1.421875 24.3125 -1.421875 
Q 15.921875 -1.421875 10.953125 3.296875 
Q 6 8.015625 6 15.921875 
Q 6 25.140625 12.171875 29.828125 
Q 18.359375 34.515625 30.609375 34.515625 
L 43.21875 34.515625 
L 43.21875 35.40625 
Q 43.21875 41.609375 39.140625 45 
Q 35.0625 48.390625 27.6875 48.390625 
Q 23 48.390625 18.546875 47.265625 
Q 14.109375 46.140625 10.015625 43.890625 
L 10.015625 52.203125 
Q 14.9375 54.109375 19.578125 55.046875 
Q 24.21875 56 28.609375 56 
Q 40.484375 56 46.34375 49.84375 
Q 52.203125 43.703125 52.203125 31.203125 
z
" id="DejaVuSans-97"/>
      <path d="M 48.6875 27.296875 
Q 48.6875 37.203125 44.609375 42.84375 
Q 40.53125 48.484375 33.40625 48.484375 
Q 26.265625 48.484375 22.1875 42.84375 
Q 18.109375 37.203125 18.109375 27.296875 
Q 18.109375 17.390625 22.1875 11.75 
Q 26.265625 6.109375 33.40625 6.109375 
Q 40.53125 6.109375 44.609375 11.75 
Q 48.6875 17.390625 48.6875 27.296875 
z
M 18.109375 46.390625 
Q 20.953125 51.265625 25.265625 53.625 
Q 29.59375 56 35.59375 56 
Q 45.5625 56 51.78125 48.09375 
Q 58.015625 40.1875 58.015625 27.296875 
Q 58.015625 14.40625 51.78125 6.484375 
Q 45.5625 -1.421875 35.59375 -1.421875 
Q 29.59375 -1.421875 25.265625 0.953125 
Q 20.953125 3.328125 18.109375 8.203125 
L 18.109375 0 
L 9.078125 0 
L 9.078125 75.984375 
L 18.109375 75.984375 
z
" id="DejaVuSans-98"/>
      <path d="M 8.015625 75.875 
L 15.828125 75.875 
Q 23.140625 64.359375 26.78125 53.3125 
Q 30.421875 42.28125 30.421875 31.390625 
Q 30.421875 20.453125 26.78125 9.375 
Q 23.140625 -1.703125 15.828125 -13.1875 
L 8.015625 -13.1875 
Q 14.5 -2 17.703125 9.0625 
Q 20.90625 20.125 20.90625 31.390625 
Q 20.90625 42.671875 17.703125 53.65625 
Q 14.5 64.65625 8.015625 75.875 
z
" id="DejaVuSans-41"/>
      <path d="M 45.40625 46.390625 
L 45.40625 75.984375 
L 54.390625 75.984375 
L 54.390625 0 
L 45.40625 0 
L 45.40625 8.203125 
Q 42.578125 3.328125 38.25 0.953125 
Q 33.9375 -1.421875 27.875 -1.421875 
Q 17.96875 -1.421875 11.734375 6.484375 
Q 5.515625 14.40625 5.515625 27.296875 
Q 5.515625 40.1875 11.734375 48.09375 
Q 17.96875 56 27.875 56 
Q 33.9375 56 38.25 53.625 
Q 42.578125 51.265625 45.40625 46.390625 
z
M 14.796875 27.296875 
Q 14.796875 17.390625 18.875 11.75 
Q 22.953125 6.109375 30.078125 6.109375 
Q 37.203125 6.109375 41.296875 11.75 
Q 45.40625 17.390625 45.40625 27.296875 
Q 45.40625 37.203125 41.296875 42.84375 
Q 37.203125 48.484375 30.078125 48.484375 
Q 22.953125 48.484375 18.875 42.84375 
Q 14.796875 37.203125 14.796875 27.296875 
z
" id="DejaVuSans-100"/>
      <path d="M 9.421875 54.6875 
L 18.40625 54.6875 
L 18.40625 0 
L 9.421875 0 
z
M 9.421875 75.984375 
L 18.40625 75.984375 
L 18.40625 64.59375 
L 9.421875 64.59375 
z
" id="DejaVuSans-105"/>
      <path d="M 44.28125 53.078125 
L 44.28125 44.578125 
Q 40.484375 46.53125 36.375 47.5 
Q 32.28125 48.484375 27.875 48.484375 
Q 21.1875 48.484375 17.84375 46.4375 
Q 14.5 44.390625 14.5 40.28125 
Q 14.5 37.15625 16.890625 35.375 
Q 19.28125 33.59375 26.515625 31.984375 
L 29.59375 31.296875 
Q 39.15625 29.25 43.1875 25.515625 
Q 47.21875 21.78125 47.21875 15.09375 
Q 47.21875 7.46875 41.1875 3.015625 
Q 35.15625 -1.421875 24.609375 -1.421875 
Q 20.21875 -1.421875 15.453125 -0.5625 
Q 10.6875 0.296875 5.421875 2 
L 5.421875 11.28125 
Q 10.40625 8.6875 15.234375 7.390625 
Q 20.0625 6.109375 24.8125 6.109375 
Q 31.15625 6.109375 34.5625 8.28125 
Q 37.984375 10.453125 37.984375 14.40625 
Q 37.984375 18.0625 35.515625 20.015625 
Q 33.0625 21.96875 24.703125 23.78125 
L 21.578125 24.515625 
Q 13.234375 26.265625 9.515625 29.90625 
Q 5.8125 33.546875 5.8125 39.890625 
Q 5.8125 47.609375 11.28125 51.796875 
Q 16.75 56 26.8125 56 
Q 31.78125 56 36.171875 55.265625 
Q 40.578125 54.546875 44.28125 53.078125 
z
" id="DejaVuSans-115"/>
     </defs>
     <g transform="translate(18.398437 227.177384)rotate(-90)scale(0.1 -0.1)">
      <use xlink:href="#DejaVuSans-86"/>
      <use x="68.408203" xlink:href="#DejaVuSans-67"/>
      <use x="138.232422" xlink:href="#DejaVuSans-32"/>
      <use x="170.019531" xlink:href="#DejaVuSans-112"/>
      <use x="233.496094" xlink:href="#DejaVuSans-99"/>
      <use x="288.476562" xlink:href="#DejaVuSans-114"/>
      <use x="329.589844" xlink:href="#DejaVuSans-32"/>
      <use x="361.376953" xlink:href="#DejaVuSans-40"/>
      <use x="400.390625" xlink:href="#DejaVuSans-112"/>
      <use x="463.867188" xlink:href="#DejaVuSans-111"/>
      <use x="525.048828" xlink:href="#DejaVuSans-114"/>
      <use x="566.162109" xlink:href="#DejaVuSans-32"/>
      <use x="597.949219" xlink:href="#DejaVuSans-49"/>
      <use x="661.572266" xlink:href="#DejaVuSans-48"/>
      <use x="725.195312" xlink:href="#DejaVuSans-48"/>
      <use x="788.818359" xlink:href="#DejaVuSans-48"/>
      <use x="852.441406" xlink:href="#DejaVuSans-48"/>
      <use x="916.064453" xlink:href="#DejaVuSans-48"/>
      <use x="979.6875" xlink:href="#DejaVuSans-32"/>
      <use x="1011.474609" xlink:href="#DejaVuSans-104"/>
      <use x="1074.853516" xlink:href="#DejaVuSans-97"/>
      <use x="1136.132812" xlink:href="#DejaVuSans-98"/>
      <use x="1199.609375" xlink:href="#DejaVuSans-46"/>
      <use x="1231.396484" xlink:href="#DejaVuSans-41"/>
      <use x="1270.410156" xlink:href="#DejaVuSans-32"/>
      <use x="1302.197266" xlink:href="#DejaVuSans-100"/>
      <use x="1365.673828" xlink:href="#DejaVuSans-105"/>
      <use x="1393.457031" xlink:href="#DejaVuSans-97"/>
      <use x="1454.736328" xlink:href="#DejaVuSans-114"/>
      <use x="1495.849609" xlink:href="#DejaVuSans-105"/>
      <use x="1523.632812" xlink:href="#DejaVuSans-111"/>
      <use x="1584.814453" xlink:href="#DejaVuSans-115"/>
     </g>
    </g>
   </g>
   <g id="line2d_14">
    <path clip-path="url(#pd0985db241)" d="M 73.680895 231.73519 
L 78.217593 231.73519 
L 82.754291 231.73519 
L 87.290989 231.73519 
L 91.827687 231.456916 
L 96.364385 231.456916 
L 100.901083 230.065549 
L 105.437781 231.178643 
L 109.974479 230.343823 
L 114.511178 231.73519 
L 119.047876 231.73519 
L 123.584574 230.622096 
L 128.121272 231.73519 
L 132.65797 228.674182 
L 137.194668 231.73519 
L 141.731366 229.787276 
L 146.268064 231.73519 
L 150.804762 228.117635 
L 155.34146 227.561088 
L 159.878158 228.674182 
L 164.414856 226.726268 
L 168.951554 221.717346 
L 173.488252 154.096903 
L 178.024951 231.73519 
L 182.561649 195.003097 
L 187.098347 180.254605 
L 191.635045 177.471871 
L 196.171743 180.532879 
L 200.708441 159.940645 
L 205.245139 164.671293 
L 209.781837 149.087981 
L 214.318535 157.714457 
L 218.855233 106.79042 
L 223.391931 69.223507 
L 227.928629 139.348411 
L 232.465327 92.041928 
L 237.002025 23.030117 
L 241.538724 141.018052 
L 246.075422 120.982365 
L 250.61212 116.52999 
L 255.148818 124.321646 
L 259.685516 143.800786 
L 264.222214 154.65345 
L 268.758912 152.983809 
L 273.29561 189.994175 
L 277.832308 201.403386 
L 282.369006 172.741223 
L 286.905704 145.7487 
L 291.442402 129.608841 
L 295.9791 163.001653 
L 300.515799 158.549278 
L 305.052497 170.793309 
L 309.589195 189.159355 
L 314.125893 173.019496 
L 318.662591 178.584965 
L 323.199289 267.632462 
L 327.735987 204.464394 
L 332.272685 211.421229 
L 336.809383 217.543245 
L 341.346081 220.047706 
L 345.882779 210.864683 
L 350.419477 219.491159 
L 354.956175 212.25605 
L 359.492873 196.394464 
L 364.029572 205.577487 
L 368.56627 226.169721 
L 373.102968 225.056628 
L 377.639666 222.83044 
L 382.176364 205.299214 
L 386.713062 227.282815 
L 391.24976 213.92569 
L 395.786458 224.778354 
L 400.323156 231.73519 
L 404.859854 213.92569 
L 409.396552 221.439073 
L 413.93325 216.430151 
L 418.469948 224.221807 
L 423.006646 220.047706 
L 427.543345 217.264972 
L 432.080043 227.282815 
" style="fill:none;stroke:#1f77b4;stroke-linecap:square;stroke-width:1.5;"/>
    <defs>
     <path d="M 0 1.5 
C 0.397805 1.5 0.77937 1.341951 1.06066 1.06066 
C 1.341951 0.77937 1.5 0.397805 1.5 0 
C 1.5 -0.397805 1.341951 -0.77937 1.06066 -1.06066 
C 0.77937 -1.341951 0.397805 -1.5 0 -1.5 
C -0.397805 -1.5 -0.77937 -1.341951 -1.06066 -1.06066 
C -1.341951 -0.77937 -1.5 -0.397805 -1.5 0 
C -1.5 0.397805 -1.341951 0.77937 -1.06066 1.06066 
C -0.77937 1.341951 -0.397805 1.5 0 1.5 
z
" id="me9159312e5" style="stroke:#1f77b4;"/>
    </defs>
    <g clip-path="url(#pd0985db241)">
     <use style="fill:#1f77b4;stroke:#1f77b4;" x="73.680895" xlink:href="#me9159312e5" y="231.73519"/>
     <use style="fill:#1f77b4;stroke:#1f77b4;" x="78.217593" xlink:href="#me9159312e5" y="231.73519"/>
     <use style="fill:#1f77b4;stroke:#1f77b4;" x="82.754291" xlink:href="#me9159312e5" y="231.73519"/>
     <use style="fill:#1f77b4;stroke:#1f77b4;" x="87.290989" xlink:href="#me9159312e5" y="231.73519"/>
     <use style="fill:#1f77b4;stroke:#1f77b4;" x="91.827687" xlink:href="#me9159312e5" y="231.456916"/>
     <use style="fill:#1f77b4;stroke:#1f77b4;" x="96.364385" xlink:href="#me9159312e5" y="231.456916"/>
     <use style="fill:#1f77b4;stroke:#1f77b4;" x="100.901083" xlink:href="#me9159312e5" y="230.065549"/>
     <use style="fill:#1f77b4;stroke:#1f77b4;" x="105.437781" xlink:href="#me9159312e5" y="231.178643"/>
     <use style="fill:#1f77b4;stroke:#1f77b4;" x="109.974479" xlink:href="#me9159312e5" y="230.343823"/>
     <use style="fill:#1f77b4;stroke:#1f77b4;" x="114.511178" xlink:href="#me9159312e5" y="231.73519"/>
     <use style="fill:#1f77b4;stroke:#1f77b4;" x="119.047876" xlink:href="#me9159312e5" y="231.73519"/>
     <use style="fill:#1f77b4;stroke:#1f77b4;" x="123.584574" xlink:href="#me9159312e5" y="230.622096"/>
     <use style="fill:#1f77b4;stroke:#1f77b4;" x="128.121272" xlink:href="#me9159312e5" y="231.73519"/>
     <use style="fill:#1f77b4;stroke:#1f77b4;" x="132.65797" xlink:href="#me9159312e5" y="228.674182"/>
     <use style="fill:#1f77b4;stroke:#1f77b4;" x="137.194668" xlink:href="#me9159312e5" y="231.73519"/>
     <use style="fill:#1f77b4;stroke:#1f77b4;" x="141.731366" xlink:href="#me9159312e5" y="229.787276"/>
     <use style="fill:#1f77b4;stroke:#1f77b4;" x="146.268064" xlink:href="#me9159312e5" y="231.73519"/>
     <use style="fill:#1f77b4;stroke:#1f77b4;" x="150.804762" xlink:href="#me9159312e5" y="228.117635"/>
     <use style="fill:#1f77b4;stroke:#1f77b4;" x="155.34146" xlink:href="#me9159312e5" y="227.561088"/>
     <use style="fill:#1f77b4;stroke:#1f77b4;" x="159.878158" xlink:href="#me9159312e5" y="228.674182"/>
     <use style="fill:#1f77b4;stroke:#1f77b4;" x="164.414856" xlink:href="#me9159312e5" y="226.726268"/>
     <use style="fill:#1f77b4;stroke:#1f77b4;" x="168.951554" xlink:href="#me9159312e5" y="221.717346"/>
     <use style="fill:#1f77b4;stroke:#1f77b4;" x="173.488252" xlink:href="#me9159312e5" y="154.096903"/>
     <use style="fill:#1f77b4;stroke:#1f77b4;" x="178.024951" xlink:href="#me9159312e5" y="231.73519"/>
     <use style="fill:#1f77b4;stroke:#1f77b4;" x="182.561649" xlink:href="#me9159312e5" y="195.003097"/>
     <use style="fill:#1f77b4;stroke:#1f77b4;" x="187.098347" xlink:href="#me9159312e5" y="180.254605"/>
     <use style="fill:#1f77b4;stroke:#1f77b4;" x="191.635045" xlink:href="#me9159312e5" y="177.471871"/>
     <use style="fill:#1f77b4;stroke:#1f77b4;" x="196.171743" xlink:href="#me9159312e5" y="180.532879"/>
     <use style="fill:#1f77b4;stroke:#1f77b4;" x="200.708441" xlink:href="#me9159312e5" y="159.940645"/>
     <use style="fill:#1f77b4;stroke:#1f77b4;" x="205.245139" xlink:href="#me9159312e5" y="164.671293"/>
     <use style="fill:#1f77b4;stroke:#1f77b4;" x="209.781837" xlink:href="#me9159312e5" y="149.087981"/>
     <use style="fill:#1f77b4;stroke:#1f77b4;" x="214.318535" xlink:href="#me9159312e5" y="157.714457"/>
     <use style="fill:#1f77b4;stroke:#1f77b4;" x="218.855233" xlink:href="#me9159312e5" y="106.79042"/>
     <use style="fill:#1f77b4;stroke:#1f77b4;" x="223.391931" xlink:href="#me9159312e5" y="69.223507"/>
     <use style="fill:#1f77b4;stroke:#1f77b4;" x="227.928629" xlink:href="#me9159312e5" y="139.348411"/>
     <use style="fill:#1f77b4;stroke:#1f77b4;" x="232.465327" xlink:href="#me9159312e5" y="92.041928"/>
     <use style="fill:#1f77b4;stroke:#1f77b4;" x="237.002025" xlink:href="#me9159312e5" y="23.030117"/>
     <use style="fill:#1f77b4;stroke:#1f77b4;" x="241.538724" xlink:href="#me9159312e5" y="141.018052"/>
     <use style="fill:#1f77b4;stroke:#1f77b4;" x="246.075422" xlink:href="#me9159312e5" y="120.982365"/>
     <use style="fill:#1f77b4;stroke:#1f77b4;" x="250.61212" xlink:href="#me9159312e5" y="116.52999"/>
     <use style="fill:#1f77b4;stroke:#1f77b4;" x="255.148818" xlink:href="#me9159312e5" y="124.321646"/>
     <use style="fill:#1f77b4;stroke:#1f77b4;" x="259.685516" xlink:href="#me9159312e5" y="143.800786"/>
     <use style="fill:#1f77b4;stroke:#1f77b4;" x="264.222214" xlink:href="#me9159312e5" y="154.65345"/>
     <use style="fill:#1f77b4;stroke:#1f77b4;" x="268.758912" xlink:href="#me9159312e5" y="152.983809"/>
     <use style="fill:#1f77b4;stroke:#1f77b4;" x="273.29561" xlink:href="#me9159312e5" y="189.994175"/>
     <use style="fill:#1f77b4;stroke:#1f77b4;" x="277.832308" xlink:href="#me9159312e5" y="201.403386"/>
     <use style="fill:#1f77b4;stroke:#1f77b4;" x="282.369006" xlink:href="#me9159312e5" y="172.741223"/>
     <use style="fill:#1f77b4;stroke:#1f77b4;" x="286.905704" xlink:href="#me9159312e5" y="145.7487"/>
     <use style="fill:#1f77b4;stroke:#1f77b4;" x="291.442402" xlink:href="#me9159312e5" y="129.608841"/>
     <use style="fill:#1f77b4;stroke:#1f77b4;" x="295.9791" xlink:href="#me9159312e5" y="163.001653"/>
     <use style="fill:#1f77b4;stroke:#1f77b4;" x="300.515799" xlink:href="#me9159312e5" y="158.549278"/>
     <use style="fill:#1f77b4;stroke:#1f77b4;" x="305.052497" xlink:href="#me9159312e5" y="170.793309"/>
     <use style="fill:#1f77b4;stroke:#1f77b4;" x="309.589195" xlink:href="#me9159312e5" y="189.159355"/>
     <use style="fill:#1f77b4;stroke:#1f77b4;" x="314.125893" xlink:href="#me9159312e5" y="173.019496"/>
     <use style="fill:#1f77b4;stroke:#1f77b4;" x="318.662591" xlink:href="#me9159312e5" y="178.584965"/>
     <use style="fill:#1f77b4;stroke:#1f77b4;" x="323.199289" xlink:href="#me9159312e5" y="267.632462"/>
     <use style="fill:#1f77b4;stroke:#1f77b4;" x="327.735987" xlink:href="#me9159312e5" y="204.464394"/>
     <use style="fill:#1f77b4;stroke:#1f77b4;" x="332.272685" xlink:href="#me9159312e5" y="211.421229"/>
     <use style="fill:#1f77b4;stroke:#1f77b4;" x="336.809383" xlink:href="#me9159312e5" y="217.543245"/>
     <use style="fill:#1f77b4;stroke:#1f77b4;" x="341.346081" xlink:href="#me9159312e5" y="220.047706"/>
     <use style="fill:#1f77b4;stroke:#1f77b4;" x="345.882779" xlink:href="#me9159312e5" y="210.864683"/>
     <use style="fill:#1f77b4;stroke:#1f77b4;" x="350.419477" xlink:href="#me9159312e5" y="219.491159"/>
     <use style="fill:#1f77b4;stroke:#1f77b4;" x="354.956175" xlink:href="#me9159312e5" y="212.25605"/>
     <use style="fill:#1f77b4;stroke:#1f77b4;" x="359.492873" xlink:href="#me9159312e5" y="196.394464"/>
     <use style="fill:#1f77b4;stroke:#1f77b4;" x="364.029572" xlink:href="#me9159312e5" y="205.577487"/>
     <use style="fill:#1f77b4;stroke:#1f77b4;" x="368.56627" xlink:href="#me9159312e5" y="226.169721"/>
     <use style="fill:#1f77b4;stroke:#1f77b4;" x="373.102968" xlink:href="#me9159312e5" y="225.056628"/>
     <use style="fill:#1f77b4;stroke:#1f77b4;" x="377.639666" xlink:href="#me9159312e5" y="222.83044"/>
     <use style="fill:#1f77b4;stroke:#1f77b4;" x="382.176364" xlink:href="#me9159312e5" y="205.299214"/>
     <use style="fill:#1f77b4;stroke:#1f77b4;" x="386.713062" xlink:href="#me9159312e5" y="227.282815"/>
     <use style="fill:#1f77b4;stroke:#1f77b4;" x="391.24976" xlink:href="#me9159312e5" y="213.92569"/>
     <use style="fill:#1f77b4;stroke:#1f77b4;" x="395.786458" xlink:href="#me9159312e5" y="224.778354"/>
     <use style="fill:#1f77b4;stroke:#1f77b4;" x="400.323156" xlink:href="#me9159312e5" y="231.73519"/>
     <use style="fill:#1f77b4;stroke:#1f77b4;" x="404.859854" xlink:href="#me9159312e5" y="213.92569"/>
     <use style="fill:#1f77b4;stroke:#1f77b4;" x="409.396552" xlink:href="#me9159312e5" y="221.439073"/>
     <use style="fill:#1f77b4;stroke:#1f77b4;" x="413.93325" xlink:href="#me9159312e5" y="216.430151"/>
     <use style="fill:#1f77b4;stroke:#1f77b4;" x="418.469948" xlink:href="#me9159312e5" y="224.221807"/>
     <use style="fill:#1f77b4;stroke:#1f77b4;" x="423.006646" xlink:href="#me9159312e5" y="220.047706"/>
     <use style="fill:#1f77b4;stroke:#1f77b4;" x="427.543345" xlink:href="#me9159312e5" y="217.264972"/>
     <use style="fill:#1f77b4;stroke:#1f77b4;" x="432.080043" xlink:href="#me9159312e5" y="227.282815"/>
    </g>
   </g>
   <g id="patch_3">
    <path d="M 55.760938 279.86258 
L 55.760938 10.8 
" style="fill:none;stroke:#000000;stroke-linecap:square;stroke-linejoin:miter;stroke-width:0.8;"/>
   </g>
   <g id="patch_4">
    <path d="M 450 279.86258 
L 450 10.8 
" style="fill:none;stroke:#000000;stroke-linecap:square;stroke-linejoin:miter;stroke-width:0.8;"/>
   </g>
   <g id="patch_5">
    <path d="M 55.760937 279.86258 
L 450 279.86258 
" style="fill:none;stroke:#000000;stroke-linecap:square;stroke-linejoin:miter;stroke-width:0.8;"/>
   </g>
   <g id="patch_6">
    <path d="M 55.760937 10.8 
L 450 10.8 
" style="fill:none;stroke:#000000;stroke-linecap:square;stroke-linejoin:miter;stroke-width:0.8;"/>
   </g>
  </g>
 </g>
 <defs>
  <clipPath id="pd0985db241">
   <rect height="269.06258" width="394.239062" x="55.760938" y="10.8"/>
  </clipPath>
 </defs>
</svg>
