<?xml version="1.0" encoding="utf-8" standalone="no"?>
<!DOCTYPE svg PUBLIC "-//W3C//DTD SVG 1.1//EN"
  "http://www.w3.org/Graphics/SVG/1.1/DTD/svg11.dtd">
<!-- Created with matplotlib (https://matplotlib.org/) -->
<svg height="345.6pt" version="1.1" viewBox="0 0 460.8 345.6" width="460.8pt" xmlns="http://www.w3.org/2000/svg" xmlns:xlink="http://www.w3.org/1999/xlink">
 <defs>
  <style type="text/css">
*{stroke-linecap:butt;stroke-linejoin:round;}
  </style>
 </defs>
 <g id="figure_1">
  <g id="patch_1">
   <path d="M 0 345.6 
L 460.8 345.6 
L 460.8 0 
L 0 0 
z
" style="fill:#ffffff;"/>
  </g>
  <g id="axes_1">
   <g id="patch_2">
    <path d="M 44.203125 279.86258 
L 450 279.86258 
L 450 10.8 
L 44.203125 10.8 
z
" style="fill:#ffffff;"/>
   </g>
   <g id="matplotlib.axis_1">
    <g id="xtick_1">
     <g id="line2d_1">
      <defs>
       <path d="M 0 0 
L 0 3.5 
" id="m9091cb3172" style="stroke:#000000;stroke-width:0.8;"/>
      </defs>
      <g>
       <use style="stroke:#000000;stroke-width:0.8;" x="84.672691" xlink:href="#m9091cb3172" y="279.86258"/>
      </g>
     </g>
     <g id="text_1">
      <!-- 2020-03-15 -->
      <defs>
       <path d="M 19.1875 8.296875 
L 53.609375 8.296875 
L 53.609375 0 
L 7.328125 0 
L 7.328125 8.296875 
Q 12.9375 14.109375 22.625 23.890625 
Q 32.328125 33.6875 34.8125 36.53125 
Q 39.546875 41.84375 41.421875 45.53125 
Q 43.3125 49.21875 43.3125 52.78125 
Q 43.3125 58.59375 39.234375 62.25 
Q 35.15625 65.921875 28.609375 65.921875 
Q 23.96875 65.921875 18.8125 64.3125 
Q 13.671875 62.703125 7.8125 59.421875 
L 7.8125 69.390625 
Q 13.765625 71.78125 18.9375 73 
Q 24.125 74.21875 28.421875 74.21875 
Q 39.75 74.21875 46.484375 68.546875 
Q 53.21875 62.890625 53.21875 53.421875 
Q 53.21875 48.921875 51.53125 44.890625 
Q 49.859375 40.875 45.40625 35.40625 
Q 44.1875 33.984375 37.640625 27.21875 
Q 31.109375 20.453125 19.1875 8.296875 
z
" id="DejaVuSans-50"/>
       <path d="M 31.78125 66.40625 
Q 24.171875 66.40625 20.328125 58.90625 
Q 16.5 51.421875 16.5 36.375 
Q 16.5 21.390625 20.328125 13.890625 
Q 24.171875 6.390625 31.78125 6.390625 
Q 39.453125 6.390625 43.28125 13.890625 
Q 47.125 21.390625 47.125 36.375 
Q 47.125 51.421875 43.28125 58.90625 
Q 39.453125 66.40625 31.78125 66.40625 
z
M 31.78125 74.21875 
Q 44.046875 74.21875 50.515625 64.515625 
Q 56.984375 54.828125 56.984375 36.375 
Q 56.984375 17.96875 50.515625 8.265625 
Q 44.046875 -1.421875 31.78125 -1.421875 
Q 19.53125 -1.421875 13.0625 8.265625 
Q 6.59375 17.96875 6.59375 36.375 
Q 6.59375 54.828125 13.0625 64.515625 
Q 19.53125 74.21875 31.78125 74.21875 
z
" id="DejaVuSans-48"/>
       <path d="M 4.890625 31.390625 
L 31.203125 31.390625 
L 31.203125 23.390625 
L 4.890625 23.390625 
z
" id="DejaVuSans-45"/>
       <path d="M 40.578125 39.3125 
Q 47.65625 37.796875 51.625 33 
Q 55.609375 28.21875 55.609375 21.1875 
Q 55.609375 10.40625 48.1875 4.484375 
Q 40.765625 -1.421875 27.09375 -1.421875 
Q 22.515625 -1.421875 17.65625 -0.515625 
Q 12.796875 0.390625 7.625 2.203125 
L 7.625 11.71875 
Q 11.71875 9.328125 16.59375 8.109375 
Q 21.484375 6.890625 26.8125 6.890625 
Q 36.078125 6.890625 40.9375 10.546875 
Q 45.796875 14.203125 45.796875 21.1875 
Q 45.796875 27.640625 41.28125 31.265625 
Q 36.765625 34.90625 28.71875 34.90625 
L 20.21875 34.90625 
L 20.21875 43.015625 
L 29.109375 43.015625 
Q 36.375 43.015625 40.234375 45.921875 
Q 44.09375 48.828125 44.09375 54.296875 
Q 44.09375 59.90625 40.109375 62.90625 
Q 36.140625 65.921875 28.71875 65.921875 
Q 24.65625 65.921875 20.015625 65.03125 
Q 15.375 64.15625 9.8125 62.3125 
L 9.8125 71.09375 
Q 15.4375 72.65625 20.34375 73.4375 
Q 25.25 74.21875 29.59375 74.21875 
Q 40.828125 74.21875 47.359375 69.109375 
Q 53.90625 64.015625 53.90625 55.328125 
Q 53.90625 49.265625 50.4375 45.09375 
Q 46.96875 40.921875 40.578125 39.3125 
z
" id="DejaVuSans-51"/>
       <path d="M 12.40625 8.296875 
L 28.515625 8.296875 
L 28.515625 63.921875 
L 10.984375 60.40625 
L 10.984375 69.390625 
L 28.421875 72.90625 
L 38.28125 72.90625 
L 38.28125 8.296875 
L 54.390625 8.296875 
L 54.390625 0 
L 12.40625 0 
z
" id="DejaVuSans-49"/>
       <path d="M 10.796875 72.90625 
L 49.515625 72.90625 
L 49.515625 64.59375 
L 19.828125 64.59375 
L 19.828125 46.734375 
Q 21.96875 47.46875 24.109375 47.828125 
Q 26.265625 48.1875 28.421875 48.1875 
Q 40.625 48.1875 47.75 41.5 
Q 54.890625 34.8125 54.890625 23.390625 
Q 54.890625 11.625 47.5625 5.09375 
Q 40.234375 -1.421875 26.90625 -1.421875 
Q 22.3125 -1.421875 17.546875 -0.640625 
Q 12.796875 0.140625 7.71875 1.703125 
L 7.71875 11.625 
Q 12.109375 9.234375 16.796875 8.0625 
Q 21.484375 6.890625 26.703125 6.890625 
Q 35.15625 6.890625 40.078125 11.328125 
Q 45.015625 15.765625 45.015625 23.390625 
Q 45.015625 31 40.078125 35.4375 
Q 35.15625 39.890625 26.703125 39.890625 
Q 22.75 39.890625 18.8125 39.015625 
Q 14.890625 38.140625 10.796875 36.28125 
z
" id="DejaVuSans-53"/>
      </defs>
      <g transform="translate(66.076888 333.329439)rotate(-45)scale(0.1 -0.1)">
       <use xlink:href="#DejaVuSans-50"/>
       <use x="63.623047" xlink:href="#DejaVuSans-48"/>
       <use x="127.246094" xlink:href="#DejaVuSans-50"/>
       <use x="190.869141" xlink:href="#DejaVuSans-48"/>
       <use x="254.492188" xlink:href="#DejaVuSans-45"/>
       <use x="290.576172" xlink:href="#DejaVuSans-48"/>
       <use x="354.199219" xlink:href="#DejaVuSans-51"/>
       <use x="417.822266" xlink:href="#DejaVuSans-45"/>
       <use x="453.90625" xlink:href="#DejaVuSans-49"/>
       <use x="517.529297" xlink:href="#DejaVuSans-53"/>
      </g>
     </g>
    </g>
    <g id="xtick_2">
     <g id="line2d_2">
      <g>
       <use style="stroke:#000000;stroke-width:0.8;" x="178.27577" xlink:href="#m9091cb3172" y="279.86258"/>
      </g>
     </g>
     <g id="text_2">
      <!-- 2020-04-01 -->
      <defs>
       <path d="M 37.796875 64.3125 
L 12.890625 25.390625 
L 37.796875 25.390625 
z
M 35.203125 72.90625 
L 47.609375 72.90625 
L 47.609375 25.390625 
L 58.015625 25.390625 
L 58.015625 17.1875 
L 47.609375 17.1875 
L 47.609375 0 
L 37.796875 0 
L 37.796875 17.1875 
L 4.890625 17.1875 
L 4.890625 26.703125 
z
" id="DejaVuSans-52"/>
      </defs>
      <g transform="translate(159.679966 333.329439)rotate(-45)scale(0.1 -0.1)">
       <use xlink:href="#DejaVuSans-50"/>
       <use x="63.623047" xlink:href="#DejaVuSans-48"/>
       <use x="127.246094" xlink:href="#DejaVuSans-50"/>
       <use x="190.869141" xlink:href="#DejaVuSans-48"/>
       <use x="254.492188" xlink:href="#DejaVuSans-45"/>
       <use x="290.576172" xlink:href="#DejaVuSans-48"/>
       <use x="354.199219" xlink:href="#DejaVuSans-52"/>
       <use x="417.822266" xlink:href="#DejaVuSans-45"/>
       <use x="453.90625" xlink:href="#DejaVuSans-48"/>
       <use x="517.529297" xlink:href="#DejaVuSans-49"/>
      </g>
     </g>
    </g>
    <g id="xtick_3">
     <g id="line2d_3">
      <g>
       <use style="stroke:#000000;stroke-width:0.8;" x="255.360658" xlink:href="#m9091cb3172" y="279.86258"/>
      </g>
     </g>
     <g id="text_3">
      <!-- 2020-04-15 -->
      <g transform="translate(236.764854 333.329439)rotate(-45)scale(0.1 -0.1)">
       <use xlink:href="#DejaVuSans-50"/>
       <use x="63.623047" xlink:href="#DejaVuSans-48"/>
       <use x="127.246094" xlink:href="#DejaVuSans-50"/>
       <use x="190.869141" xlink:href="#DejaVuSans-48"/>
       <use x="254.492188" xlink:href="#DejaVuSans-45"/>
       <use x="290.576172" xlink:href="#DejaVuSans-48"/>
       <use x="354.199219" xlink:href="#DejaVuSans-52"/>
       <use x="417.822266" xlink:href="#DejaVuSans-45"/>
       <use x="453.90625" xlink:href="#DejaVuSans-49"/>
       <use x="517.529297" xlink:href="#DejaVuSans-53"/>
      </g>
     </g>
    </g>
    <g id="xtick_4">
     <g id="line2d_4">
      <g>
       <use style="stroke:#000000;stroke-width:0.8;" x="343.457673" xlink:href="#m9091cb3172" y="279.86258"/>
      </g>
     </g>
     <g id="text_4">
      <!-- 2020-05-01 -->
      <g transform="translate(324.861869 333.329439)rotate(-45)scale(0.1 -0.1)">
       <use xlink:href="#DejaVuSans-50"/>
       <use x="63.623047" xlink:href="#DejaVuSans-48"/>
       <use x="127.246094" xlink:href="#DejaVuSans-50"/>
       <use x="190.869141" xlink:href="#DejaVuSans-48"/>
       <use x="254.492188" xlink:href="#DejaVuSans-45"/>
       <use x="290.576172" xlink:href="#DejaVuSans-48"/>
       <use x="354.199219" xlink:href="#DejaVuSans-53"/>
       <use x="417.822266" xlink:href="#DejaVuSans-45"/>
       <use x="453.90625" xlink:href="#DejaVuSans-48"/>
       <use x="517.529297" xlink:href="#DejaVuSans-49"/>
      </g>
     </g>
    </g>
    <g id="xtick_5">
     <g id="line2d_5">
      <g>
       <use style="stroke:#000000;stroke-width:0.8;" x="420.542561" xlink:href="#m9091cb3172" y="279.86258"/>
      </g>
     </g>
     <g id="text_5">
      <!-- 2020-05-15 -->
      <g transform="translate(401.946757 333.329439)rotate(-45)scale(0.1 -0.1)">
       <use xlink:href="#DejaVuSans-50"/>
       <use x="63.623047" xlink:href="#DejaVuSans-48"/>
       <use x="127.246094" xlink:href="#DejaVuSans-50"/>
       <use x="190.869141" xlink:href="#DejaVuSans-48"/>
       <use x="254.492188" xlink:href="#DejaVuSans-45"/>
       <use x="290.576172" xlink:href="#DejaVuSans-48"/>
       <use x="354.199219" xlink:href="#DejaVuSans-53"/>
       <use x="417.822266" xlink:href="#DejaVuSans-45"/>
       <use x="453.90625" xlink:href="#DejaVuSans-49"/>
       <use x="517.529297" xlink:href="#DejaVuSans-53"/>
      </g>
     </g>
    </g>
   </g>
   <g id="matplotlib.axis_2">
    <g id="ytick_1">
     <g id="line2d_6">
      <defs>
       <path d="M 0 0 
L -3.5 0 
" id="mb3ae27cbe3" style="stroke:#000000;stroke-width:0.8;"/>
      </defs>
      <g>
       <use style="stroke:#000000;stroke-width:0.8;" x="44.203125" xlink:href="#mb3ae27cbe3" y="279.86258"/>
      </g>
     </g>
     <g id="text_6">
      <!-- 0 -->
      <g transform="translate(30.840625 283.661798)scale(0.1 -0.1)">
       <use xlink:href="#DejaVuSans-48"/>
      </g>
     </g>
    </g>
    <g id="ytick_2">
     <g id="line2d_7">
      <g>
       <use style="stroke:#000000;stroke-width:0.8;" x="44.203125" xlink:href="#mb3ae27cbe3" y="242.724887"/>
      </g>
     </g>
     <g id="text_7">
      <!-- 10 -->
      <g transform="translate(24.478125 246.524106)scale(0.1 -0.1)">
       <use xlink:href="#DejaVuSans-49"/>
       <use x="63.623047" xlink:href="#DejaVuSans-48"/>
      </g>
     </g>
    </g>
    <g id="ytick_3">
     <g id="line2d_8">
      <g>
       <use style="stroke:#000000;stroke-width:0.8;" x="44.203125" xlink:href="#mb3ae27cbe3" y="205.587195"/>
      </g>
     </g>
     <g id="text_8">
      <!-- 20 -->
      <g transform="translate(24.478125 209.386414)scale(0.1 -0.1)">
       <use xlink:href="#DejaVuSans-50"/>
       <use x="63.623047" xlink:href="#DejaVuSans-48"/>
      </g>
     </g>
    </g>
    <g id="ytick_4">
     <g id="line2d_9">
      <g>
       <use style="stroke:#000000;stroke-width:0.8;" x="44.203125" xlink:href="#mb3ae27cbe3" y="168.449503"/>
      </g>
     </g>
     <g id="text_9">
      <!-- 30 -->
      <g transform="translate(24.478125 172.248722)scale(0.1 -0.1)">
       <use xlink:href="#DejaVuSans-51"/>
       <use x="63.623047" xlink:href="#DejaVuSans-48"/>
      </g>
     </g>
    </g>
    <g id="ytick_5">
     <g id="line2d_10">
      <g>
       <use style="stroke:#000000;stroke-width:0.8;" x="44.203125" xlink:href="#mb3ae27cbe3" y="131.311811"/>
      </g>
     </g>
     <g id="text_10">
      <!-- 40 -->
      <g transform="translate(24.478125 135.11103)scale(0.1 -0.1)">
       <use xlink:href="#DejaVuSans-52"/>
       <use x="63.623047" xlink:href="#DejaVuSans-48"/>
      </g>
     </g>
    </g>
    <g id="ytick_6">
     <g id="line2d_11">
      <g>
       <use style="stroke:#000000;stroke-width:0.8;" x="44.203125" xlink:href="#mb3ae27cbe3" y="94.174119"/>
      </g>
     </g>
     <g id="text_11">
      <!-- 50 -->
      <g transform="translate(24.478125 97.973338)scale(0.1 -0.1)">
       <use xlink:href="#DejaVuSans-53"/>
       <use x="63.623047" xlink:href="#DejaVuSans-48"/>
      </g>
     </g>
    </g>
    <g id="ytick_7">
     <g id="line2d_12">
      <g>
       <use style="stroke:#000000;stroke-width:0.8;" x="44.203125" xlink:href="#mb3ae27cbe3" y="57.036427"/>
      </g>
     </g>
     <g id="text_12">
      <!-- 60 -->
      <defs>
       <path d="M 33.015625 40.375 
Q 26.375 40.375 22.484375 35.828125 
Q 18.609375 31.296875 18.609375 23.390625 
Q 18.609375 15.53125 22.484375 10.953125 
Q 26.375 6.390625 33.015625 6.390625 
Q 39.65625 6.390625 43.53125 10.953125 
Q 47.40625 15.53125 47.40625 23.390625 
Q 47.40625 31.296875 43.53125 35.828125 
Q 39.65625 40.375 33.015625 40.375 
z
M 52.59375 71.296875 
L 52.59375 62.3125 
Q 48.875 64.0625 45.09375 64.984375 
Q 41.3125 65.921875 37.59375 65.921875 
Q 27.828125 65.921875 22.671875 59.328125 
Q 17.53125 52.734375 16.796875 39.40625 
Q 19.671875 43.65625 24.015625 45.921875 
Q 28.375 48.1875 33.59375 48.1875 
Q 44.578125 48.1875 50.953125 41.515625 
Q 57.328125 34.859375 57.328125 23.390625 
Q 57.328125 12.15625 50.6875 5.359375 
Q 44.046875 -1.421875 33.015625 -1.421875 
Q 20.359375 -1.421875 13.671875 8.265625 
Q 6.984375 17.96875 6.984375 36.375 
Q 6.984375 53.65625 15.1875 63.9375 
Q 23.390625 74.21875 37.203125 74.21875 
Q 40.921875 74.21875 44.703125 73.484375 
Q 48.484375 72.75 52.59375 71.296875 
z
" id="DejaVuSans-54"/>
      </defs>
      <g transform="translate(24.478125 60.835645)scale(0.1 -0.1)">
       <use xlink:href="#DejaVuSans-54"/>
       <use x="63.623047" xlink:href="#DejaVuSans-48"/>
      </g>
     </g>
    </g>
    <g id="ytick_8">
     <g id="line2d_13">
      <g>
       <use style="stroke:#000000;stroke-width:0.8;" x="44.203125" xlink:href="#mb3ae27cbe3" y="19.898735"/>
      </g>
     </g>
     <g id="text_13">
      <!-- 70 -->
      <defs>
       <path d="M 8.203125 72.90625 
L 55.078125 72.90625 
L 55.078125 68.703125 
L 28.609375 0 
L 18.3125 0 
L 43.21875 64.59375 
L 8.203125 64.59375 
z
" id="DejaVuSans-55"/>
      </defs>
      <g transform="translate(24.478125 23.697953)scale(0.1 -0.1)">
       <use xlink:href="#DejaVuSans-55"/>
       <use x="63.623047" xlink:href="#DejaVuSans-48"/>
      </g>
     </g>
    </g>
    <g id="text_14">
     <!-- CL fallecidos (Media 3 días) -->
     <defs>
      <path d="M 64.40625 67.28125 
L 64.40625 56.890625 
Q 59.421875 61.53125 53.78125 63.8125 
Q 48.140625 66.109375 41.796875 66.109375 
Q 29.296875 66.109375 22.65625 58.46875 
Q 16.015625 50.828125 16.015625 36.375 
Q 16.015625 21.96875 22.65625 14.328125 
Q 29.296875 6.6875 41.796875 6.6875 
Q 48.140625 6.6875 53.78125 8.984375 
Q 59.421875 11.28125 64.40625 15.921875 
L 64.40625 5.609375 
Q 59.234375 2.09375 53.4375 0.328125 
Q 47.65625 -1.421875 41.21875 -1.421875 
Q 24.65625 -1.421875 15.125 8.703125 
Q 5.609375 18.84375 5.609375 36.375 
Q 5.609375 53.953125 15.125 64.078125 
Q 24.65625 74.21875 41.21875 74.21875 
Q 47.75 74.21875 53.53125 72.484375 
Q 59.328125 70.75 64.40625 67.28125 
z
" id="DejaVuSans-67"/>
      <path d="M 9.8125 72.90625 
L 19.671875 72.90625 
L 19.671875 8.296875 
L 55.171875 8.296875 
L 55.171875 0 
L 9.8125 0 
z
" id="DejaVuSans-76"/>
      <path id="DejaVuSans-32"/>
      <path d="M 37.109375 75.984375 
L 37.109375 68.5 
L 28.515625 68.5 
Q 23.6875 68.5 21.796875 66.546875 
Q 19.921875 64.59375 19.921875 59.515625 
L 19.921875 54.6875 
L 34.71875 54.6875 
L 34.71875 47.703125 
L 19.921875 47.703125 
L 19.921875 0 
L 10.890625 0 
L 10.890625 47.703125 
L 2.296875 47.703125 
L 2.296875 54.6875 
L 10.890625 54.6875 
L 10.890625 58.5 
Q 10.890625 67.625 15.140625 71.796875 
Q 19.390625 75.984375 28.609375 75.984375 
z
" id="DejaVuSans-102"/>
      <path d="M 34.28125 27.484375 
Q 23.390625 27.484375 19.1875 25 
Q 14.984375 22.515625 14.984375 16.5 
Q 14.984375 11.71875 18.140625 8.90625 
Q 21.296875 6.109375 26.703125 6.109375 
Q 34.1875 6.109375 38.703125 11.40625 
Q 43.21875 16.703125 43.21875 25.484375 
L 43.21875 27.484375 
z
M 52.203125 31.203125 
L 52.203125 0 
L 43.21875 0 
L 43.21875 8.296875 
Q 40.140625 3.328125 35.546875 0.953125 
Q 30.953125 -1.421875 24.3125 -1.421875 
Q 15.921875 -1.421875 10.953125 3.296875 
Q 6 8.015625 6 15.921875 
Q 6 25.140625 12.171875 29.828125 
Q 18.359375 34.515625 30.609375 34.515625 
L 43.21875 34.515625 
L 43.21875 35.40625 
Q 43.21875 41.609375 39.140625 45 
Q 35.0625 48.390625 27.6875 48.390625 
Q 23 48.390625 18.546875 47.265625 
Q 14.109375 46.140625 10.015625 43.890625 
L 10.015625 52.203125 
Q 14.9375 54.109375 19.578125 55.046875 
Q 24.21875 56 28.609375 56 
Q 40.484375 56 46.34375 49.84375 
Q 52.203125 43.703125 52.203125 31.203125 
z
" id="DejaVuSans-97"/>
      <path d="M 9.421875 75.984375 
L 18.40625 75.984375 
L 18.40625 0 
L 9.421875 0 
z
" id="DejaVuSans-108"/>
      <path d="M 56.203125 29.59375 
L 56.203125 25.203125 
L 14.890625 25.203125 
Q 15.484375 15.921875 20.484375 11.0625 
Q 25.484375 6.203125 34.421875 6.203125 
Q 39.59375 6.203125 44.453125 7.46875 
Q 49.3125 8.734375 54.109375 11.28125 
L 54.109375 2.78125 
Q 49.265625 0.734375 44.1875 -0.34375 
Q 39.109375 -1.421875 33.890625 -1.421875 
Q 20.796875 -1.421875 13.15625 6.1875 
Q 5.515625 13.8125 5.515625 26.8125 
Q 5.515625 40.234375 12.765625 48.109375 
Q 20.015625 56 32.328125 56 
Q 43.359375 56 49.78125 48.890625 
Q 56.203125 41.796875 56.203125 29.59375 
z
M 47.21875 32.234375 
Q 47.125 39.59375 43.09375 43.984375 
Q 39.0625 48.390625 32.421875 48.390625 
Q 24.90625 48.390625 20.390625 44.140625 
Q 15.875 39.890625 15.1875 32.171875 
z
" id="DejaVuSans-101"/>
      <path d="M 48.78125 52.59375 
L 48.78125 44.1875 
Q 44.96875 46.296875 41.140625 47.34375 
Q 37.3125 48.390625 33.40625 48.390625 
Q 24.65625 48.390625 19.8125 42.84375 
Q 14.984375 37.3125 14.984375 27.296875 
Q 14.984375 17.28125 19.8125 11.734375 
Q 24.65625 6.203125 33.40625 6.203125 
Q 37.3125 6.203125 41.140625 7.25 
Q 44.96875 8.296875 48.78125 10.40625 
L 48.78125 2.09375 
Q 45.015625 0.34375 40.984375 -0.53125 
Q 36.96875 -1.421875 32.421875 -1.421875 
Q 20.0625 -1.421875 12.78125 6.34375 
Q 5.515625 14.109375 5.515625 27.296875 
Q 5.515625 40.671875 12.859375 48.328125 
Q 20.21875 56 33.015625 56 
Q 37.15625 56 41.109375 55.140625 
Q 45.0625 54.296875 48.78125 52.59375 
z
" id="DejaVuSans-99"/>
      <path d="M 9.421875 54.6875 
L 18.40625 54.6875 
L 18.40625 0 
L 9.421875 0 
z
M 9.421875 75.984375 
L 18.40625 75.984375 
L 18.40625 64.59375 
L 9.421875 64.59375 
z
" id="DejaVuSans-105"/>
      <path d="M 45.40625 46.390625 
L 45.40625 75.984375 
L 54.390625 75.984375 
L 54.390625 0 
L 45.40625 0 
L 45.40625 8.203125 
Q 42.578125 3.328125 38.25 0.953125 
Q 33.9375 -1.421875 27.875 -1.421875 
Q 17.96875 -1.421875 11.734375 6.484375 
Q 5.515625 14.40625 5.515625 27.296875 
Q 5.515625 40.1875 11.734375 48.09375 
Q 17.96875 56 27.875 56 
Q 33.9375 56 38.25 53.625 
Q 42.578125 51.265625 45.40625 46.390625 
z
M 14.796875 27.296875 
Q 14.796875 17.390625 18.875 11.75 
Q 22.953125 6.109375 30.078125 6.109375 
Q 37.203125 6.109375 41.296875 11.75 
Q 45.40625 17.390625 45.40625 27.296875 
Q 45.40625 37.203125 41.296875 42.84375 
Q 37.203125 48.484375 30.078125 48.484375 
Q 22.953125 48.484375 18.875 42.84375 
Q 14.796875 37.203125 14.796875 27.296875 
z
" id="DejaVuSans-100"/>
      <path d="M 30.609375 48.390625 
Q 23.390625 48.390625 19.1875 42.75 
Q 14.984375 37.109375 14.984375 27.296875 
Q 14.984375 17.484375 19.15625 11.84375 
Q 23.34375 6.203125 30.609375 6.203125 
Q 37.796875 6.203125 41.984375 11.859375 
Q 46.1875 17.53125 46.1875 27.296875 
Q 46.1875 37.015625 41.984375 42.703125 
Q 37.796875 48.390625 30.609375 48.390625 
z
M 30.609375 56 
Q 42.328125 56 49.015625 48.375 
Q 55.71875 40.765625 55.71875 27.296875 
Q 55.71875 13.875 49.015625 6.21875 
Q 42.328125 -1.421875 30.609375 -1.421875 
Q 18.84375 -1.421875 12.171875 6.21875 
Q 5.515625 13.875 5.515625 27.296875 
Q 5.515625 40.765625 12.171875 48.375 
Q 18.84375 56 30.609375 56 
z
" id="DejaVuSans-111"/>
      <path d="M 44.28125 53.078125 
L 44.28125 44.578125 
Q 40.484375 46.53125 36.375 47.5 
Q 32.28125 48.484375 27.875 48.484375 
Q 21.1875 48.484375 17.84375 46.4375 
Q 14.5 44.390625 14.5 40.28125 
Q 14.5 37.15625 16.890625 35.375 
Q 19.28125 33.59375 26.515625 31.984375 
L 29.59375 31.296875 
Q 39.15625 29.25 43.1875 25.515625 
Q 47.21875 21.78125 47.21875 15.09375 
Q 47.21875 7.46875 41.1875 3.015625 
Q 35.15625 -1.421875 24.609375 -1.421875 
Q 20.21875 -1.421875 15.453125 -0.5625 
Q 10.6875 0.296875 5.421875 2 
L 5.421875 11.28125 
Q 10.40625 8.6875 15.234375 7.390625 
Q 20.0625 6.109375 24.8125 6.109375 
Q 31.15625 6.109375 34.5625 8.28125 
Q 37.984375 10.453125 37.984375 14.40625 
Q 37.984375 18.0625 35.515625 20.015625 
Q 33.0625 21.96875 24.703125 23.78125 
L 21.578125 24.515625 
Q 13.234375 26.265625 9.515625 29.90625 
Q 5.8125 33.546875 5.8125 39.890625 
Q 5.8125 47.609375 11.28125 51.796875 
Q 16.75 56 26.8125 56 
Q 31.78125 56 36.171875 55.265625 
Q 40.578125 54.546875 44.28125 53.078125 
z
" id="DejaVuSans-115"/>
      <path d="M 31 75.875 
Q 24.46875 64.65625 21.28125 53.65625 
Q 18.109375 42.671875 18.109375 31.390625 
Q 18.109375 20.125 21.3125 9.0625 
Q 24.515625 -2 31 -13.1875 
L 23.1875 -13.1875 
Q 15.875 -1.703125 12.234375 9.375 
Q 8.59375 20.453125 8.59375 31.390625 
Q 8.59375 42.28125 12.203125 53.3125 
Q 15.828125 64.359375 23.1875 75.875 
z
" id="DejaVuSans-40"/>
      <path d="M 9.8125 72.90625 
L 24.515625 72.90625 
L 43.109375 23.296875 
L 61.8125 72.90625 
L 76.515625 72.90625 
L 76.515625 0 
L 66.890625 0 
L 66.890625 64.015625 
L 48.09375 14.015625 
L 38.1875 14.015625 
L 19.390625 64.015625 
L 19.390625 0 
L 9.8125 0 
z
" id="DejaVuSans-77"/>
      <path d="M 20.65625 79.984375 
L 30.375 79.984375 
L 14.46875 61.625 
L 6.984375 61.625 
z
M 9.421875 54.6875 
L 18.40625 54.6875 
L 18.40625 0 
L 9.421875 0 
z
M 13.921875 56 
z
" id="DejaVuSans-237"/>
      <path d="M 8.015625 75.875 
L 15.828125 75.875 
Q 23.140625 64.359375 26.78125 53.3125 
Q 30.421875 42.28125 30.421875 31.390625 
Q 30.421875 20.453125 26.78125 9.375 
Q 23.140625 -1.703125 15.828125 -13.1875 
L 8.015625 -13.1875 
Q 14.5 -2 17.703125 9.0625 
Q 20.90625 20.125 20.90625 31.390625 
Q 20.90625 42.671875 17.703125 53.65625 
Q 14.5 64.65625 8.015625 75.875 
z
" id="DejaVuSans-41"/>
     </defs>
     <g transform="translate(18.398438 213.953165)rotate(-90)scale(0.1 -0.1)">
      <use xlink:href="#DejaVuSans-67"/>
      <use x="69.824219" xlink:href="#DejaVuSans-76"/>
      <use x="125.537109" xlink:href="#DejaVuSans-32"/>
      <use x="157.324219" xlink:href="#DejaVuSans-102"/>
      <use x="192.529297" xlink:href="#DejaVuSans-97"/>
      <use x="253.808594" xlink:href="#DejaVuSans-108"/>
      <use x="281.591797" xlink:href="#DejaVuSans-108"/>
      <use x="309.375" xlink:href="#DejaVuSans-101"/>
      <use x="370.898438" xlink:href="#DejaVuSans-99"/>
      <use x="425.878906" xlink:href="#DejaVuSans-105"/>
      <use x="453.662109" xlink:href="#DejaVuSans-100"/>
      <use x="517.138672" xlink:href="#DejaVuSans-111"/>
      <use x="578.320312" xlink:href="#DejaVuSans-115"/>
      <use x="630.419922" xlink:href="#DejaVuSans-32"/>
      <use x="662.207031" xlink:href="#DejaVuSans-40"/>
      <use x="701.220703" xlink:href="#DejaVuSans-77"/>
      <use x="787.5" xlink:href="#DejaVuSans-101"/>
      <use x="849.023438" xlink:href="#DejaVuSans-100"/>
      <use x="912.5" xlink:href="#DejaVuSans-105"/>
      <use x="940.283203" xlink:href="#DejaVuSans-97"/>
      <use x="1001.5625" xlink:href="#DejaVuSans-32"/>
      <use x="1033.349609" xlink:href="#DejaVuSans-51"/>
      <use x="1096.972656" xlink:href="#DejaVuSans-32"/>
      <use x="1128.759766" xlink:href="#DejaVuSans-100"/>
      <use x="1192.236328" xlink:href="#DejaVuSans-237"/>
      <use x="1220.019531" xlink:href="#DejaVuSans-97"/>
      <use x="1281.298828" xlink:href="#DejaVuSans-115"/>
      <use x="1333.398438" xlink:href="#DejaVuSans-41"/>
     </g>
    </g>
   </g>
   <g id="line2d_14">
    <path clip-path="url(#p685f18be42)" d="M 62.648437 279.86258 
L 68.154501 279.86258 
L 73.660564 278.624657 
L 79.166628 276.14881 
L 84.672691 272.435041 
L 90.178755 266.245426 
L 95.684818 256.342041 
L 101.190882 251.390349 
L 106.696945 241.486964 
L 112.203008 239.011118 
L 117.709072 224.156041 
L 123.215135 206.825118 
L 128.721199 194.445888 
L 134.227262 167.21158 
L 139.733326 151.11858 
L 145.239389 121.408426 
L 150.745452 86.74658 
L 156.251516 64.463965 
L 161.757579 44.657196 
L 167.263643 38.467581 
L 172.769706 26.08835 
L 178.27577 33.515888 
L 183.781833 23.612504 
L 189.287896 31.040042 
L 194.79396 24.850427 
L 200.300023 37.229658 
L 205.806087 37.229658 
L 211.31215 55.798504 
L 216.818214 78.081119 
L 222.324277 97.887888 
L 227.83034 91.698273 
L 233.336404 107.791273 
L 238.842467 113.980888 
L 244.348531 132.549734 
L 249.854594 136.263503 
L 255.360658 144.928965 
L 260.866721 153.594426 
L 266.372785 165.973657 
L 271.878848 173.401195 
L 277.384911 165.973657 
L 282.890975 165.973657 
L 288.397038 161.021965 
L 293.903102 169.687426 
L 299.409165 167.21158 
L 304.915229 174.639119 
L 310.421292 175.877042 
L 315.927355 183.30458 
L 321.433419 191.970042 
L 326.939482 193.207965 
L 332.445546 203.111349 
L 337.951609 205.587195 
L 343.457673 215.49058 
L 348.963736 220.442272 
L 354.469799 220.442272 
L 359.975863 225.393964 
L 365.481926 221.680195 
L 370.98799 222.918118 
L 376.494053 225.393964 
L 382.000117 232.821503 
L 387.50618 239.011118 
L 393.012243 243.962811 
L 398.518307 243.962811 
L 404.02437 252.628272 
L 409.530434 255.104118 
L 415.036497 260.055811 
L 420.542561 253.866195 
L 426.048624 253.866195 
L 431.554688 251.390349 
" style="fill:none;stroke:#1f77b4;stroke-linecap:square;stroke-width:1.5;"/>
    <defs>
     <path d="M 0 1.5 
C 0.397805 1.5 0.77937 1.341951 1.06066 1.06066 
C 1.341951 0.77937 1.5 0.397805 1.5 0 
C 1.5 -0.397805 1.341951 -0.77937 1.06066 -1.06066 
C 0.77937 -1.341951 0.397805 -1.5 0 -1.5 
C -0.397805 -1.5 -0.77937 -1.341951 -1.06066 -1.06066 
C -1.341951 -0.77937 -1.5 -0.397805 -1.5 0 
C -1.5 0.397805 -1.341951 0.77937 -1.06066 1.06066 
C -0.77937 1.341951 -0.397805 1.5 0 1.5 
z
" id="mfa0a7964b6" style="stroke:#1f77b4;"/>
    </defs>
    <g clip-path="url(#p685f18be42)">
     <use style="fill:#1f77b4;stroke:#1f77b4;" x="62.648437" xlink:href="#mfa0a7964b6" y="279.86258"/>
     <use style="fill:#1f77b4;stroke:#1f77b4;" x="68.154501" xlink:href="#mfa0a7964b6" y="279.86258"/>
     <use style="fill:#1f77b4;stroke:#1f77b4;" x="73.660564" xlink:href="#mfa0a7964b6" y="278.624657"/>
     <use style="fill:#1f77b4;stroke:#1f77b4;" x="79.166628" xlink:href="#mfa0a7964b6" y="276.14881"/>
     <use style="fill:#1f77b4;stroke:#1f77b4;" x="84.672691" xlink:href="#mfa0a7964b6" y="272.435041"/>
     <use style="fill:#1f77b4;stroke:#1f77b4;" x="90.178755" xlink:href="#mfa0a7964b6" y="266.245426"/>
     <use style="fill:#1f77b4;stroke:#1f77b4;" x="95.684818" xlink:href="#mfa0a7964b6" y="256.342041"/>
     <use style="fill:#1f77b4;stroke:#1f77b4;" x="101.190882" xlink:href="#mfa0a7964b6" y="251.390349"/>
     <use style="fill:#1f77b4;stroke:#1f77b4;" x="106.696945" xlink:href="#mfa0a7964b6" y="241.486964"/>
     <use style="fill:#1f77b4;stroke:#1f77b4;" x="112.203008" xlink:href="#mfa0a7964b6" y="239.011118"/>
     <use style="fill:#1f77b4;stroke:#1f77b4;" x="117.709072" xlink:href="#mfa0a7964b6" y="224.156041"/>
     <use style="fill:#1f77b4;stroke:#1f77b4;" x="123.215135" xlink:href="#mfa0a7964b6" y="206.825118"/>
     <use style="fill:#1f77b4;stroke:#1f77b4;" x="128.721199" xlink:href="#mfa0a7964b6" y="194.445888"/>
     <use style="fill:#1f77b4;stroke:#1f77b4;" x="134.227262" xlink:href="#mfa0a7964b6" y="167.21158"/>
     <use style="fill:#1f77b4;stroke:#1f77b4;" x="139.733326" xlink:href="#mfa0a7964b6" y="151.11858"/>
     <use style="fill:#1f77b4;stroke:#1f77b4;" x="145.239389" xlink:href="#mfa0a7964b6" y="121.408426"/>
     <use style="fill:#1f77b4;stroke:#1f77b4;" x="150.745452" xlink:href="#mfa0a7964b6" y="86.74658"/>
     <use style="fill:#1f77b4;stroke:#1f77b4;" x="156.251516" xlink:href="#mfa0a7964b6" y="64.463965"/>
     <use style="fill:#1f77b4;stroke:#1f77b4;" x="161.757579" xlink:href="#mfa0a7964b6" y="44.657196"/>
     <use style="fill:#1f77b4;stroke:#1f77b4;" x="167.263643" xlink:href="#mfa0a7964b6" y="38.467581"/>
     <use style="fill:#1f77b4;stroke:#1f77b4;" x="172.769706" xlink:href="#mfa0a7964b6" y="26.08835"/>
     <use style="fill:#1f77b4;stroke:#1f77b4;" x="178.27577" xlink:href="#mfa0a7964b6" y="33.515888"/>
     <use style="fill:#1f77b4;stroke:#1f77b4;" x="183.781833" xlink:href="#mfa0a7964b6" y="23.612504"/>
     <use style="fill:#1f77b4;stroke:#1f77b4;" x="189.287896" xlink:href="#mfa0a7964b6" y="31.040042"/>
     <use style="fill:#1f77b4;stroke:#1f77b4;" x="194.79396" xlink:href="#mfa0a7964b6" y="24.850427"/>
     <use style="fill:#1f77b4;stroke:#1f77b4;" x="200.300023" xlink:href="#mfa0a7964b6" y="37.229658"/>
     <use style="fill:#1f77b4;stroke:#1f77b4;" x="205.806087" xlink:href="#mfa0a7964b6" y="37.229658"/>
     <use style="fill:#1f77b4;stroke:#1f77b4;" x="211.31215" xlink:href="#mfa0a7964b6" y="55.798504"/>
     <use style="fill:#1f77b4;stroke:#1f77b4;" x="216.818214" xlink:href="#mfa0a7964b6" y="78.081119"/>
     <use style="fill:#1f77b4;stroke:#1f77b4;" x="222.324277" xlink:href="#mfa0a7964b6" y="97.887888"/>
     <use style="fill:#1f77b4;stroke:#1f77b4;" x="227.83034" xlink:href="#mfa0a7964b6" y="91.698273"/>
     <use style="fill:#1f77b4;stroke:#1f77b4;" x="233.336404" xlink:href="#mfa0a7964b6" y="107.791273"/>
     <use style="fill:#1f77b4;stroke:#1f77b4;" x="238.842467" xlink:href="#mfa0a7964b6" y="113.980888"/>
     <use style="fill:#1f77b4;stroke:#1f77b4;" x="244.348531" xlink:href="#mfa0a7964b6" y="132.549734"/>
     <use style="fill:#1f77b4;stroke:#1f77b4;" x="249.854594" xlink:href="#mfa0a7964b6" y="136.263503"/>
     <use style="fill:#1f77b4;stroke:#1f77b4;" x="255.360658" xlink:href="#mfa0a7964b6" y="144.928965"/>
     <use style="fill:#1f77b4;stroke:#1f77b4;" x="260.866721" xlink:href="#mfa0a7964b6" y="153.594426"/>
     <use style="fill:#1f77b4;stroke:#1f77b4;" x="266.372785" xlink:href="#mfa0a7964b6" y="165.973657"/>
     <use style="fill:#1f77b4;stroke:#1f77b4;" x="271.878848" xlink:href="#mfa0a7964b6" y="173.401195"/>
     <use style="fill:#1f77b4;stroke:#1f77b4;" x="277.384911" xlink:href="#mfa0a7964b6" y="165.973657"/>
     <use style="fill:#1f77b4;stroke:#1f77b4;" x="282.890975" xlink:href="#mfa0a7964b6" y="165.973657"/>
     <use style="fill:#1f77b4;stroke:#1f77b4;" x="288.397038" xlink:href="#mfa0a7964b6" y="161.021965"/>
     <use style="fill:#1f77b4;stroke:#1f77b4;" x="293.903102" xlink:href="#mfa0a7964b6" y="169.687426"/>
     <use style="fill:#1f77b4;stroke:#1f77b4;" x="299.409165" xlink:href="#mfa0a7964b6" y="167.21158"/>
     <use style="fill:#1f77b4;stroke:#1f77b4;" x="304.915229" xlink:href="#mfa0a7964b6" y="174.639119"/>
     <use style="fill:#1f77b4;stroke:#1f77b4;" x="310.421292" xlink:href="#mfa0a7964b6" y="175.877042"/>
     <use style="fill:#1f77b4;stroke:#1f77b4;" x="315.927355" xlink:href="#mfa0a7964b6" y="183.30458"/>
     <use style="fill:#1f77b4;stroke:#1f77b4;" x="321.433419" xlink:href="#mfa0a7964b6" y="191.970042"/>
     <use style="fill:#1f77b4;stroke:#1f77b4;" x="326.939482" xlink:href="#mfa0a7964b6" y="193.207965"/>
     <use style="fill:#1f77b4;stroke:#1f77b4;" x="332.445546" xlink:href="#mfa0a7964b6" y="203.111349"/>
     <use style="fill:#1f77b4;stroke:#1f77b4;" x="337.951609" xlink:href="#mfa0a7964b6" y="205.587195"/>
     <use style="fill:#1f77b4;stroke:#1f77b4;" x="343.457673" xlink:href="#mfa0a7964b6" y="215.49058"/>
     <use style="fill:#1f77b4;stroke:#1f77b4;" x="348.963736" xlink:href="#mfa0a7964b6" y="220.442272"/>
     <use style="fill:#1f77b4;stroke:#1f77b4;" x="354.469799" xlink:href="#mfa0a7964b6" y="220.442272"/>
     <use style="fill:#1f77b4;stroke:#1f77b4;" x="359.975863" xlink:href="#mfa0a7964b6" y="225.393964"/>
     <use style="fill:#1f77b4;stroke:#1f77b4;" x="365.481926" xlink:href="#mfa0a7964b6" y="221.680195"/>
     <use style="fill:#1f77b4;stroke:#1f77b4;" x="370.98799" xlink:href="#mfa0a7964b6" y="222.918118"/>
     <use style="fill:#1f77b4;stroke:#1f77b4;" x="376.494053" xlink:href="#mfa0a7964b6" y="225.393964"/>
     <use style="fill:#1f77b4;stroke:#1f77b4;" x="382.000117" xlink:href="#mfa0a7964b6" y="232.821503"/>
     <use style="fill:#1f77b4;stroke:#1f77b4;" x="387.50618" xlink:href="#mfa0a7964b6" y="239.011118"/>
     <use style="fill:#1f77b4;stroke:#1f77b4;" x="393.012243" xlink:href="#mfa0a7964b6" y="243.962811"/>
     <use style="fill:#1f77b4;stroke:#1f77b4;" x="398.518307" xlink:href="#mfa0a7964b6" y="243.962811"/>
     <use style="fill:#1f77b4;stroke:#1f77b4;" x="404.02437" xlink:href="#mfa0a7964b6" y="252.628272"/>
     <use style="fill:#1f77b4;stroke:#1f77b4;" x="409.530434" xlink:href="#mfa0a7964b6" y="255.104118"/>
     <use style="fill:#1f77b4;stroke:#1f77b4;" x="415.036497" xlink:href="#mfa0a7964b6" y="260.055811"/>
     <use style="fill:#1f77b4;stroke:#1f77b4;" x="420.542561" xlink:href="#mfa0a7964b6" y="253.866195"/>
     <use style="fill:#1f77b4;stroke:#1f77b4;" x="426.048624" xlink:href="#mfa0a7964b6" y="253.866195"/>
     <use style="fill:#1f77b4;stroke:#1f77b4;" x="431.554688" xlink:href="#mfa0a7964b6" y="251.390349"/>
    </g>
   </g>
   <g id="patch_3">
    <path d="M 44.203125 279.86258 
L 44.203125 10.8 
" style="fill:none;stroke:#000000;stroke-linecap:square;stroke-linejoin:miter;stroke-width:0.8;"/>
   </g>
   <g id="patch_4">
    <path d="M 450 279.86258 
L 450 10.8 
" style="fill:none;stroke:#000000;stroke-linecap:square;stroke-linejoin:miter;stroke-width:0.8;"/>
   </g>
   <g id="patch_5">
    <path d="M 44.203125 279.86258 
L 450 279.86258 
" style="fill:none;stroke:#000000;stroke-linecap:square;stroke-linejoin:miter;stroke-width:0.8;"/>
   </g>
   <g id="patch_6">
    <path d="M 44.203125 10.8 
L 450 10.8 
" style="fill:none;stroke:#000000;stroke-linecap:square;stroke-linejoin:miter;stroke-width:0.8;"/>
   </g>
  </g>
 </g>
 <defs>
  <clipPath id="p685f18be42">
   <rect height="269.06258" width="405.796875" x="44.203125" y="10.8"/>
  </clipPath>
 </defs>
</svg>
