<?xml version="1.0" encoding="utf-8" standalone="no"?>
<!DOCTYPE svg PUBLIC "-//W3C//DTD SVG 1.1//EN"
  "http://www.w3.org/Graphics/SVG/1.1/DTD/svg11.dtd">
<!-- Created with matplotlib (https://matplotlib.org/) -->
<svg height="345.6pt" version="1.1" viewBox="0 0 460.8 345.6" width="460.8pt" xmlns="http://www.w3.org/2000/svg" xmlns:xlink="http://www.w3.org/1999/xlink">
 <defs>
  <style type="text/css">
*{stroke-linecap:butt;stroke-linejoin:round;}
  </style>
 </defs>
 <g id="figure_1">
  <g id="patch_1">
   <path d="M 0 345.6 
L 460.8 345.6 
L 460.8 0 
L 0 0 
z
" style="fill:#ffffff;"/>
  </g>
  <g id="axes_1">
   <g id="patch_2">
    <path d="M 37.840625 279.86258 
L 450 279.86258 
L 450 10.8 
L 37.840625 10.8 
z
" style="fill:#ffffff;"/>
   </g>
   <g id="matplotlib.axis_1">
    <g id="xtick_1">
     <g id="line2d_1">
      <defs>
       <path d="M 0 0 
L 0 3.5 
" id="m3863dc7419" style="stroke:#000000;stroke-width:0.8;"/>
      </defs>
      <g>
       <use style="stroke:#000000;stroke-width:0.8;" x="38.147748" xlink:href="#m3863dc7419" y="279.86258"/>
      </g>
     </g>
     <g id="text_1">
      <!-- 2020-03-08 -->
      <defs>
       <path d="M 19.1875 8.296875 
L 53.609375 8.296875 
L 53.609375 0 
L 7.328125 0 
L 7.328125 8.296875 
Q 12.9375 14.109375 22.625 23.890625 
Q 32.328125 33.6875 34.8125 36.53125 
Q 39.546875 41.84375 41.421875 45.53125 
Q 43.3125 49.21875 43.3125 52.78125 
Q 43.3125 58.59375 39.234375 62.25 
Q 35.15625 65.921875 28.609375 65.921875 
Q 23.96875 65.921875 18.8125 64.3125 
Q 13.671875 62.703125 7.8125 59.421875 
L 7.8125 69.390625 
Q 13.765625 71.78125 18.9375 73 
Q 24.125 74.21875 28.421875 74.21875 
Q 39.75 74.21875 46.484375 68.546875 
Q 53.21875 62.890625 53.21875 53.421875 
Q 53.21875 48.921875 51.53125 44.890625 
Q 49.859375 40.875 45.40625 35.40625 
Q 44.1875 33.984375 37.640625 27.21875 
Q 31.109375 20.453125 19.1875 8.296875 
z
" id="DejaVuSans-50"/>
       <path d="M 31.78125 66.40625 
Q 24.171875 66.40625 20.328125 58.90625 
Q 16.5 51.421875 16.5 36.375 
Q 16.5 21.390625 20.328125 13.890625 
Q 24.171875 6.390625 31.78125 6.390625 
Q 39.453125 6.390625 43.28125 13.890625 
Q 47.125 21.390625 47.125 36.375 
Q 47.125 51.421875 43.28125 58.90625 
Q 39.453125 66.40625 31.78125 66.40625 
z
M 31.78125 74.21875 
Q 44.046875 74.21875 50.515625 64.515625 
Q 56.984375 54.828125 56.984375 36.375 
Q 56.984375 17.96875 50.515625 8.265625 
Q 44.046875 -1.421875 31.78125 -1.421875 
Q 19.53125 -1.421875 13.0625 8.265625 
Q 6.59375 17.96875 6.59375 36.375 
Q 6.59375 54.828125 13.0625 64.515625 
Q 19.53125 74.21875 31.78125 74.21875 
z
" id="DejaVuSans-48"/>
       <path d="M 4.890625 31.390625 
L 31.203125 31.390625 
L 31.203125 23.390625 
L 4.890625 23.390625 
z
" id="DejaVuSans-45"/>
       <path d="M 40.578125 39.3125 
Q 47.65625 37.796875 51.625 33 
Q 55.609375 28.21875 55.609375 21.1875 
Q 55.609375 10.40625 48.1875 4.484375 
Q 40.765625 -1.421875 27.09375 -1.421875 
Q 22.515625 -1.421875 17.65625 -0.515625 
Q 12.796875 0.390625 7.625 2.203125 
L 7.625 11.71875 
Q 11.71875 9.328125 16.59375 8.109375 
Q 21.484375 6.890625 26.8125 6.890625 
Q 36.078125 6.890625 40.9375 10.546875 
Q 45.796875 14.203125 45.796875 21.1875 
Q 45.796875 27.640625 41.28125 31.265625 
Q 36.765625 34.90625 28.71875 34.90625 
L 20.21875 34.90625 
L 20.21875 43.015625 
L 29.109375 43.015625 
Q 36.375 43.015625 40.234375 45.921875 
Q 44.09375 48.828125 44.09375 54.296875 
Q 44.09375 59.90625 40.109375 62.90625 
Q 36.140625 65.921875 28.71875 65.921875 
Q 24.65625 65.921875 20.015625 65.03125 
Q 15.375 64.15625 9.8125 62.3125 
L 9.8125 71.09375 
Q 15.4375 72.65625 20.34375 73.4375 
Q 25.25 74.21875 29.59375 74.21875 
Q 40.828125 74.21875 47.359375 69.109375 
Q 53.90625 64.015625 53.90625 55.328125 
Q 53.90625 49.265625 50.4375 45.09375 
Q 46.96875 40.921875 40.578125 39.3125 
z
" id="DejaVuSans-51"/>
       <path d="M 31.78125 34.625 
Q 24.75 34.625 20.71875 30.859375 
Q 16.703125 27.09375 16.703125 20.515625 
Q 16.703125 13.921875 20.71875 10.15625 
Q 24.75 6.390625 31.78125 6.390625 
Q 38.8125 6.390625 42.859375 10.171875 
Q 46.921875 13.96875 46.921875 20.515625 
Q 46.921875 27.09375 42.890625 30.859375 
Q 38.875 34.625 31.78125 34.625 
z
M 21.921875 38.8125 
Q 15.578125 40.375 12.03125 44.71875 
Q 8.5 49.078125 8.5 55.328125 
Q 8.5 64.0625 14.71875 69.140625 
Q 20.953125 74.21875 31.78125 74.21875 
Q 42.671875 74.21875 48.875 69.140625 
Q 55.078125 64.0625 55.078125 55.328125 
Q 55.078125 49.078125 51.53125 44.71875 
Q 48 40.375 41.703125 38.8125 
Q 48.828125 37.15625 52.796875 32.3125 
Q 56.78125 27.484375 56.78125 20.515625 
Q 56.78125 9.90625 50.3125 4.234375 
Q 43.84375 -1.421875 31.78125 -1.421875 
Q 19.734375 -1.421875 13.25 4.234375 
Q 6.78125 9.90625 6.78125 20.515625 
Q 6.78125 27.484375 10.78125 32.3125 
Q 14.796875 37.15625 21.921875 38.8125 
z
M 18.3125 54.390625 
Q 18.3125 48.734375 21.84375 45.5625 
Q 25.390625 42.390625 31.78125 42.390625 
Q 38.140625 42.390625 41.71875 45.5625 
Q 45.3125 48.734375 45.3125 54.390625 
Q 45.3125 60.0625 41.71875 63.234375 
Q 38.140625 66.40625 31.78125 66.40625 
Q 25.390625 66.40625 21.84375 63.234375 
Q 18.3125 60.0625 18.3125 54.390625 
z
" id="DejaVuSans-56"/>
      </defs>
      <g transform="translate(19.551945 333.329439)rotate(-45)scale(0.1 -0.1)">
       <use xlink:href="#DejaVuSans-50"/>
       <use x="63.623047" xlink:href="#DejaVuSans-48"/>
       <use x="127.246094" xlink:href="#DejaVuSans-50"/>
       <use x="190.869141" xlink:href="#DejaVuSans-48"/>
       <use x="254.492188" xlink:href="#DejaVuSans-45"/>
       <use x="290.576172" xlink:href="#DejaVuSans-48"/>
       <use x="354.199219" xlink:href="#DejaVuSans-51"/>
       <use x="417.822266" xlink:href="#DejaVuSans-45"/>
       <use x="453.90625" xlink:href="#DejaVuSans-48"/>
       <use x="517.529297" xlink:href="#DejaVuSans-56"/>
      </g>
     </g>
    </g>
    <g id="xtick_2">
     <g id="line2d_2">
      <g>
       <use style="stroke:#000000;stroke-width:0.8;" x="81.145" xlink:href="#m3863dc7419" y="279.86258"/>
      </g>
     </g>
     <g id="text_2">
      <!-- 2020-03-15 -->
      <defs>
       <path d="M 12.40625 8.296875 
L 28.515625 8.296875 
L 28.515625 63.921875 
L 10.984375 60.40625 
L 10.984375 69.390625 
L 28.421875 72.90625 
L 38.28125 72.90625 
L 38.28125 8.296875 
L 54.390625 8.296875 
L 54.390625 0 
L 12.40625 0 
z
" id="DejaVuSans-49"/>
       <path d="M 10.796875 72.90625 
L 49.515625 72.90625 
L 49.515625 64.59375 
L 19.828125 64.59375 
L 19.828125 46.734375 
Q 21.96875 47.46875 24.109375 47.828125 
Q 26.265625 48.1875 28.421875 48.1875 
Q 40.625 48.1875 47.75 41.5 
Q 54.890625 34.8125 54.890625 23.390625 
Q 54.890625 11.625 47.5625 5.09375 
Q 40.234375 -1.421875 26.90625 -1.421875 
Q 22.3125 -1.421875 17.546875 -0.640625 
Q 12.796875 0.140625 7.71875 1.703125 
L 7.71875 11.625 
Q 12.109375 9.234375 16.796875 8.0625 
Q 21.484375 6.890625 26.703125 6.890625 
Q 35.15625 6.890625 40.078125 11.328125 
Q 45.015625 15.765625 45.015625 23.390625 
Q 45.015625 31 40.078125 35.4375 
Q 35.15625 39.890625 26.703125 39.890625 
Q 22.75 39.890625 18.8125 39.015625 
Q 14.890625 38.140625 10.796875 36.28125 
z
" id="DejaVuSans-53"/>
      </defs>
      <g transform="translate(62.549197 333.329439)rotate(-45)scale(0.1 -0.1)">
       <use xlink:href="#DejaVuSans-50"/>
       <use x="63.623047" xlink:href="#DejaVuSans-48"/>
       <use x="127.246094" xlink:href="#DejaVuSans-50"/>
       <use x="190.869141" xlink:href="#DejaVuSans-48"/>
       <use x="254.492188" xlink:href="#DejaVuSans-45"/>
       <use x="290.576172" xlink:href="#DejaVuSans-48"/>
       <use x="354.199219" xlink:href="#DejaVuSans-51"/>
       <use x="417.822266" xlink:href="#DejaVuSans-45"/>
       <use x="453.90625" xlink:href="#DejaVuSans-49"/>
       <use x="517.529297" xlink:href="#DejaVuSans-53"/>
      </g>
     </g>
    </g>
    <g id="xtick_3">
     <g id="line2d_3">
      <g>
       <use style="stroke:#000000;stroke-width:0.8;" x="124.142253" xlink:href="#m3863dc7419" y="279.86258"/>
      </g>
     </g>
     <g id="text_3">
      <!-- 2020-03-22 -->
      <g transform="translate(105.546449 333.329439)rotate(-45)scale(0.1 -0.1)">
       <use xlink:href="#DejaVuSans-50"/>
       <use x="63.623047" xlink:href="#DejaVuSans-48"/>
       <use x="127.246094" xlink:href="#DejaVuSans-50"/>
       <use x="190.869141" xlink:href="#DejaVuSans-48"/>
       <use x="254.492188" xlink:href="#DejaVuSans-45"/>
       <use x="290.576172" xlink:href="#DejaVuSans-48"/>
       <use x="354.199219" xlink:href="#DejaVuSans-51"/>
       <use x="417.822266" xlink:href="#DejaVuSans-45"/>
       <use x="453.90625" xlink:href="#DejaVuSans-50"/>
       <use x="517.529297" xlink:href="#DejaVuSans-50"/>
      </g>
     </g>
    </g>
    <g id="xtick_4">
     <g id="line2d_4">
      <g>
       <use style="stroke:#000000;stroke-width:0.8;" x="185.566899" xlink:href="#m3863dc7419" y="279.86258"/>
      </g>
     </g>
     <g id="text_4">
      <!-- 2020-04-01 -->
      <defs>
       <path d="M 37.796875 64.3125 
L 12.890625 25.390625 
L 37.796875 25.390625 
z
M 35.203125 72.90625 
L 47.609375 72.90625 
L 47.609375 25.390625 
L 58.015625 25.390625 
L 58.015625 17.1875 
L 47.609375 17.1875 
L 47.609375 0 
L 37.796875 0 
L 37.796875 17.1875 
L 4.890625 17.1875 
L 4.890625 26.703125 
z
" id="DejaVuSans-52"/>
      </defs>
      <g transform="translate(166.971095 333.329439)rotate(-45)scale(0.1 -0.1)">
       <use xlink:href="#DejaVuSans-50"/>
       <use x="63.623047" xlink:href="#DejaVuSans-48"/>
       <use x="127.246094" xlink:href="#DejaVuSans-50"/>
       <use x="190.869141" xlink:href="#DejaVuSans-48"/>
       <use x="254.492188" xlink:href="#DejaVuSans-45"/>
       <use x="290.576172" xlink:href="#DejaVuSans-48"/>
       <use x="354.199219" xlink:href="#DejaVuSans-52"/>
       <use x="417.822266" xlink:href="#DejaVuSans-45"/>
       <use x="453.90625" xlink:href="#DejaVuSans-48"/>
       <use x="517.529297" xlink:href="#DejaVuSans-49"/>
      </g>
     </g>
    </g>
    <g id="xtick_5">
     <g id="line2d_5">
      <g>
       <use style="stroke:#000000;stroke-width:0.8;" x="228.564151" xlink:href="#m3863dc7419" y="279.86258"/>
      </g>
     </g>
     <g id="text_5">
      <!-- 2020-04-08 -->
      <g transform="translate(209.968347 333.329439)rotate(-45)scale(0.1 -0.1)">
       <use xlink:href="#DejaVuSans-50"/>
       <use x="63.623047" xlink:href="#DejaVuSans-48"/>
       <use x="127.246094" xlink:href="#DejaVuSans-50"/>
       <use x="190.869141" xlink:href="#DejaVuSans-48"/>
       <use x="254.492188" xlink:href="#DejaVuSans-45"/>
       <use x="290.576172" xlink:href="#DejaVuSans-48"/>
       <use x="354.199219" xlink:href="#DejaVuSans-52"/>
       <use x="417.822266" xlink:href="#DejaVuSans-45"/>
       <use x="453.90625" xlink:href="#DejaVuSans-48"/>
       <use x="517.529297" xlink:href="#DejaVuSans-56"/>
      </g>
     </g>
    </g>
    <g id="xtick_6">
     <g id="line2d_6">
      <g>
       <use style="stroke:#000000;stroke-width:0.8;" x="271.561403" xlink:href="#m3863dc7419" y="279.86258"/>
      </g>
     </g>
     <g id="text_6">
      <!-- 2020-04-15 -->
      <g transform="translate(252.9656 333.329439)rotate(-45)scale(0.1 -0.1)">
       <use xlink:href="#DejaVuSans-50"/>
       <use x="63.623047" xlink:href="#DejaVuSans-48"/>
       <use x="127.246094" xlink:href="#DejaVuSans-50"/>
       <use x="190.869141" xlink:href="#DejaVuSans-48"/>
       <use x="254.492188" xlink:href="#DejaVuSans-45"/>
       <use x="290.576172" xlink:href="#DejaVuSans-48"/>
       <use x="354.199219" xlink:href="#DejaVuSans-52"/>
       <use x="417.822266" xlink:href="#DejaVuSans-45"/>
       <use x="453.90625" xlink:href="#DejaVuSans-49"/>
       <use x="517.529297" xlink:href="#DejaVuSans-53"/>
      </g>
     </g>
    </g>
    <g id="xtick_7">
     <g id="line2d_7">
      <g>
       <use style="stroke:#000000;stroke-width:0.8;" x="314.558655" xlink:href="#m3863dc7419" y="279.86258"/>
      </g>
     </g>
     <g id="text_7">
      <!-- 2020-04-22 -->
      <g transform="translate(295.962852 333.329439)rotate(-45)scale(0.1 -0.1)">
       <use xlink:href="#DejaVuSans-50"/>
       <use x="63.623047" xlink:href="#DejaVuSans-48"/>
       <use x="127.246094" xlink:href="#DejaVuSans-50"/>
       <use x="190.869141" xlink:href="#DejaVuSans-48"/>
       <use x="254.492188" xlink:href="#DejaVuSans-45"/>
       <use x="290.576172" xlink:href="#DejaVuSans-48"/>
       <use x="354.199219" xlink:href="#DejaVuSans-52"/>
       <use x="417.822266" xlink:href="#DejaVuSans-45"/>
       <use x="453.90625" xlink:href="#DejaVuSans-50"/>
       <use x="517.529297" xlink:href="#DejaVuSans-50"/>
      </g>
     </g>
    </g>
    <g id="xtick_8">
     <g id="line2d_8">
      <g>
       <use style="stroke:#000000;stroke-width:0.8;" x="369.840837" xlink:href="#m3863dc7419" y="279.86258"/>
      </g>
     </g>
     <g id="text_8">
      <!-- 2020-05-01 -->
      <g transform="translate(351.245033 333.329439)rotate(-45)scale(0.1 -0.1)">
       <use xlink:href="#DejaVuSans-50"/>
       <use x="63.623047" xlink:href="#DejaVuSans-48"/>
       <use x="127.246094" xlink:href="#DejaVuSans-50"/>
       <use x="190.869141" xlink:href="#DejaVuSans-48"/>
       <use x="254.492188" xlink:href="#DejaVuSans-45"/>
       <use x="290.576172" xlink:href="#DejaVuSans-48"/>
       <use x="354.199219" xlink:href="#DejaVuSans-53"/>
       <use x="417.822266" xlink:href="#DejaVuSans-45"/>
       <use x="453.90625" xlink:href="#DejaVuSans-48"/>
       <use x="517.529297" xlink:href="#DejaVuSans-49"/>
      </g>
     </g>
    </g>
    <g id="xtick_9">
     <g id="line2d_9">
      <g>
       <use style="stroke:#000000;stroke-width:0.8;" x="412.838089" xlink:href="#m3863dc7419" y="279.86258"/>
      </g>
     </g>
     <g id="text_9">
      <!-- 2020-05-08 -->
      <g transform="translate(394.242286 333.329439)rotate(-45)scale(0.1 -0.1)">
       <use xlink:href="#DejaVuSans-50"/>
       <use x="63.623047" xlink:href="#DejaVuSans-48"/>
       <use x="127.246094" xlink:href="#DejaVuSans-50"/>
       <use x="190.869141" xlink:href="#DejaVuSans-48"/>
       <use x="254.492188" xlink:href="#DejaVuSans-45"/>
       <use x="290.576172" xlink:href="#DejaVuSans-48"/>
       <use x="354.199219" xlink:href="#DejaVuSans-53"/>
       <use x="417.822266" xlink:href="#DejaVuSans-45"/>
       <use x="453.90625" xlink:href="#DejaVuSans-48"/>
       <use x="517.529297" xlink:href="#DejaVuSans-56"/>
      </g>
     </g>
    </g>
   </g>
   <g id="matplotlib.axis_2">
    <g id="ytick_1">
     <g id="line2d_10">
      <defs>
       <path d="M 0 0 
L -3.5 0 
" id="md644e25676" style="stroke:#000000;stroke-width:0.8;"/>
      </defs>
      <g>
       <use style="stroke:#000000;stroke-width:0.8;" x="37.840625" xlink:href="#md644e25676" y="279.86258"/>
      </g>
     </g>
     <g id="text_10">
      <!-- 0 -->
      <g transform="translate(24.478125 283.661798)scale(0.1 -0.1)">
       <use xlink:href="#DejaVuSans-48"/>
      </g>
     </g>
    </g>
    <g id="ytick_2">
     <g id="line2d_11">
      <g>
       <use style="stroke:#000000;stroke-width:0.8;" x="37.840625" xlink:href="#md644e25676" y="224.951849"/>
      </g>
     </g>
     <g id="text_11">
      <!-- 2 -->
      <g transform="translate(24.478125 228.751068)scale(0.1 -0.1)">
       <use xlink:href="#DejaVuSans-50"/>
      </g>
     </g>
    </g>
    <g id="ytick_3">
     <g id="line2d_12">
      <g>
       <use style="stroke:#000000;stroke-width:0.8;" x="37.840625" xlink:href="#md644e25676" y="170.041119"/>
      </g>
     </g>
     <g id="text_12">
      <!-- 4 -->
      <g transform="translate(24.478125 173.840337)scale(0.1 -0.1)">
       <use xlink:href="#DejaVuSans-52"/>
      </g>
     </g>
    </g>
    <g id="ytick_4">
     <g id="line2d_13">
      <g>
       <use style="stroke:#000000;stroke-width:0.8;" x="37.840625" xlink:href="#md644e25676" y="115.130388"/>
      </g>
     </g>
     <g id="text_13">
      <!-- 6 -->
      <defs>
       <path d="M 33.015625 40.375 
Q 26.375 40.375 22.484375 35.828125 
Q 18.609375 31.296875 18.609375 23.390625 
Q 18.609375 15.53125 22.484375 10.953125 
Q 26.375 6.390625 33.015625 6.390625 
Q 39.65625 6.390625 43.53125 10.953125 
Q 47.40625 15.53125 47.40625 23.390625 
Q 47.40625 31.296875 43.53125 35.828125 
Q 39.65625 40.375 33.015625 40.375 
z
M 52.59375 71.296875 
L 52.59375 62.3125 
Q 48.875 64.0625 45.09375 64.984375 
Q 41.3125 65.921875 37.59375 65.921875 
Q 27.828125 65.921875 22.671875 59.328125 
Q 17.53125 52.734375 16.796875 39.40625 
Q 19.671875 43.65625 24.015625 45.921875 
Q 28.375 48.1875 33.59375 48.1875 
Q 44.578125 48.1875 50.953125 41.515625 
Q 57.328125 34.859375 57.328125 23.390625 
Q 57.328125 12.15625 50.6875 5.359375 
Q 44.046875 -1.421875 33.015625 -1.421875 
Q 20.359375 -1.421875 13.671875 8.265625 
Q 6.984375 17.96875 6.984375 36.375 
Q 6.984375 53.65625 15.1875 63.9375 
Q 23.390625 74.21875 37.203125 74.21875 
Q 40.921875 74.21875 44.703125 73.484375 
Q 48.484375 72.75 52.59375 71.296875 
z
" id="DejaVuSans-54"/>
      </defs>
      <g transform="translate(24.478125 118.929607)scale(0.1 -0.1)">
       <use xlink:href="#DejaVuSans-54"/>
      </g>
     </g>
    </g>
    <g id="ytick_5">
     <g id="line2d_14">
      <g>
       <use style="stroke:#000000;stroke-width:0.8;" x="37.840625" xlink:href="#md644e25676" y="60.219657"/>
      </g>
     </g>
     <g id="text_14">
      <!-- 8 -->
      <g transform="translate(24.478125 64.018876)scale(0.1 -0.1)">
       <use xlink:href="#DejaVuSans-56"/>
      </g>
     </g>
    </g>
    <g id="text_15">
     <!-- CN fallecidos (Media 3 días) -->
     <defs>
      <path d="M 64.40625 67.28125 
L 64.40625 56.890625 
Q 59.421875 61.53125 53.78125 63.8125 
Q 48.140625 66.109375 41.796875 66.109375 
Q 29.296875 66.109375 22.65625 58.46875 
Q 16.015625 50.828125 16.015625 36.375 
Q 16.015625 21.96875 22.65625 14.328125 
Q 29.296875 6.6875 41.796875 6.6875 
Q 48.140625 6.6875 53.78125 8.984375 
Q 59.421875 11.28125 64.40625 15.921875 
L 64.40625 5.609375 
Q 59.234375 2.09375 53.4375 0.328125 
Q 47.65625 -1.421875 41.21875 -1.421875 
Q 24.65625 -1.421875 15.125 8.703125 
Q 5.609375 18.84375 5.609375 36.375 
Q 5.609375 53.953125 15.125 64.078125 
Q 24.65625 74.21875 41.21875 74.21875 
Q 47.75 74.21875 53.53125 72.484375 
Q 59.328125 70.75 64.40625 67.28125 
z
" id="DejaVuSans-67"/>
      <path d="M 9.8125 72.90625 
L 23.09375 72.90625 
L 55.421875 11.921875 
L 55.421875 72.90625 
L 64.984375 72.90625 
L 64.984375 0 
L 51.703125 0 
L 19.390625 60.984375 
L 19.390625 0 
L 9.8125 0 
z
" id="DejaVuSans-78"/>
      <path id="DejaVuSans-32"/>
      <path d="M 37.109375 75.984375 
L 37.109375 68.5 
L 28.515625 68.5 
Q 23.6875 68.5 21.796875 66.546875 
Q 19.921875 64.59375 19.921875 59.515625 
L 19.921875 54.6875 
L 34.71875 54.6875 
L 34.71875 47.703125 
L 19.921875 47.703125 
L 19.921875 0 
L 10.890625 0 
L 10.890625 47.703125 
L 2.296875 47.703125 
L 2.296875 54.6875 
L 10.890625 54.6875 
L 10.890625 58.5 
Q 10.890625 67.625 15.140625 71.796875 
Q 19.390625 75.984375 28.609375 75.984375 
z
" id="DejaVuSans-102"/>
      <path d="M 34.28125 27.484375 
Q 23.390625 27.484375 19.1875 25 
Q 14.984375 22.515625 14.984375 16.5 
Q 14.984375 11.71875 18.140625 8.90625 
Q 21.296875 6.109375 26.703125 6.109375 
Q 34.1875 6.109375 38.703125 11.40625 
Q 43.21875 16.703125 43.21875 25.484375 
L 43.21875 27.484375 
z
M 52.203125 31.203125 
L 52.203125 0 
L 43.21875 0 
L 43.21875 8.296875 
Q 40.140625 3.328125 35.546875 0.953125 
Q 30.953125 -1.421875 24.3125 -1.421875 
Q 15.921875 -1.421875 10.953125 3.296875 
Q 6 8.015625 6 15.921875 
Q 6 25.140625 12.171875 29.828125 
Q 18.359375 34.515625 30.609375 34.515625 
L 43.21875 34.515625 
L 43.21875 35.40625 
Q 43.21875 41.609375 39.140625 45 
Q 35.0625 48.390625 27.6875 48.390625 
Q 23 48.390625 18.546875 47.265625 
Q 14.109375 46.140625 10.015625 43.890625 
L 10.015625 52.203125 
Q 14.9375 54.109375 19.578125 55.046875 
Q 24.21875 56 28.609375 56 
Q 40.484375 56 46.34375 49.84375 
Q 52.203125 43.703125 52.203125 31.203125 
z
" id="DejaVuSans-97"/>
      <path d="M 9.421875 75.984375 
L 18.40625 75.984375 
L 18.40625 0 
L 9.421875 0 
z
" id="DejaVuSans-108"/>
      <path d="M 56.203125 29.59375 
L 56.203125 25.203125 
L 14.890625 25.203125 
Q 15.484375 15.921875 20.484375 11.0625 
Q 25.484375 6.203125 34.421875 6.203125 
Q 39.59375 6.203125 44.453125 7.46875 
Q 49.3125 8.734375 54.109375 11.28125 
L 54.109375 2.78125 
Q 49.265625 0.734375 44.1875 -0.34375 
Q 39.109375 -1.421875 33.890625 -1.421875 
Q 20.796875 -1.421875 13.15625 6.1875 
Q 5.515625 13.8125 5.515625 26.8125 
Q 5.515625 40.234375 12.765625 48.109375 
Q 20.015625 56 32.328125 56 
Q 43.359375 56 49.78125 48.890625 
Q 56.203125 41.796875 56.203125 29.59375 
z
M 47.21875 32.234375 
Q 47.125 39.59375 43.09375 43.984375 
Q 39.0625 48.390625 32.421875 48.390625 
Q 24.90625 48.390625 20.390625 44.140625 
Q 15.875 39.890625 15.1875 32.171875 
z
" id="DejaVuSans-101"/>
      <path d="M 48.78125 52.59375 
L 48.78125 44.1875 
Q 44.96875 46.296875 41.140625 47.34375 
Q 37.3125 48.390625 33.40625 48.390625 
Q 24.65625 48.390625 19.8125 42.84375 
Q 14.984375 37.3125 14.984375 27.296875 
Q 14.984375 17.28125 19.8125 11.734375 
Q 24.65625 6.203125 33.40625 6.203125 
Q 37.3125 6.203125 41.140625 7.25 
Q 44.96875 8.296875 48.78125 10.40625 
L 48.78125 2.09375 
Q 45.015625 0.34375 40.984375 -0.53125 
Q 36.96875 -1.421875 32.421875 -1.421875 
Q 20.0625 -1.421875 12.78125 6.34375 
Q 5.515625 14.109375 5.515625 27.296875 
Q 5.515625 40.671875 12.859375 48.328125 
Q 20.21875 56 33.015625 56 
Q 37.15625 56 41.109375 55.140625 
Q 45.0625 54.296875 48.78125 52.59375 
z
" id="DejaVuSans-99"/>
      <path d="M 9.421875 54.6875 
L 18.40625 54.6875 
L 18.40625 0 
L 9.421875 0 
z
M 9.421875 75.984375 
L 18.40625 75.984375 
L 18.40625 64.59375 
L 9.421875 64.59375 
z
" id="DejaVuSans-105"/>
      <path d="M 45.40625 46.390625 
L 45.40625 75.984375 
L 54.390625 75.984375 
L 54.390625 0 
L 45.40625 0 
L 45.40625 8.203125 
Q 42.578125 3.328125 38.25 0.953125 
Q 33.9375 -1.421875 27.875 -1.421875 
Q 17.96875 -1.421875 11.734375 6.484375 
Q 5.515625 14.40625 5.515625 27.296875 
Q 5.515625 40.1875 11.734375 48.09375 
Q 17.96875 56 27.875 56 
Q 33.9375 56 38.25 53.625 
Q 42.578125 51.265625 45.40625 46.390625 
z
M 14.796875 27.296875 
Q 14.796875 17.390625 18.875 11.75 
Q 22.953125 6.109375 30.078125 6.109375 
Q 37.203125 6.109375 41.296875 11.75 
Q 45.40625 17.390625 45.40625 27.296875 
Q 45.40625 37.203125 41.296875 42.84375 
Q 37.203125 48.484375 30.078125 48.484375 
Q 22.953125 48.484375 18.875 42.84375 
Q 14.796875 37.203125 14.796875 27.296875 
z
" id="DejaVuSans-100"/>
      <path d="M 30.609375 48.390625 
Q 23.390625 48.390625 19.1875 42.75 
Q 14.984375 37.109375 14.984375 27.296875 
Q 14.984375 17.484375 19.15625 11.84375 
Q 23.34375 6.203125 30.609375 6.203125 
Q 37.796875 6.203125 41.984375 11.859375 
Q 46.1875 17.53125 46.1875 27.296875 
Q 46.1875 37.015625 41.984375 42.703125 
Q 37.796875 48.390625 30.609375 48.390625 
z
M 30.609375 56 
Q 42.328125 56 49.015625 48.375 
Q 55.71875 40.765625 55.71875 27.296875 
Q 55.71875 13.875 49.015625 6.21875 
Q 42.328125 -1.421875 30.609375 -1.421875 
Q 18.84375 -1.421875 12.171875 6.21875 
Q 5.515625 13.875 5.515625 27.296875 
Q 5.515625 40.765625 12.171875 48.375 
Q 18.84375 56 30.609375 56 
z
" id="DejaVuSans-111"/>
      <path d="M 44.28125 53.078125 
L 44.28125 44.578125 
Q 40.484375 46.53125 36.375 47.5 
Q 32.28125 48.484375 27.875 48.484375 
Q 21.1875 48.484375 17.84375 46.4375 
Q 14.5 44.390625 14.5 40.28125 
Q 14.5 37.15625 16.890625 35.375 
Q 19.28125 33.59375 26.515625 31.984375 
L 29.59375 31.296875 
Q 39.15625 29.25 43.1875 25.515625 
Q 47.21875 21.78125 47.21875 15.09375 
Q 47.21875 7.46875 41.1875 3.015625 
Q 35.15625 -1.421875 24.609375 -1.421875 
Q 20.21875 -1.421875 15.453125 -0.5625 
Q 10.6875 0.296875 5.421875 2 
L 5.421875 11.28125 
Q 10.40625 8.6875 15.234375 7.390625 
Q 20.0625 6.109375 24.8125 6.109375 
Q 31.15625 6.109375 34.5625 8.28125 
Q 37.984375 10.453125 37.984375 14.40625 
Q 37.984375 18.0625 35.515625 20.015625 
Q 33.0625 21.96875 24.703125 23.78125 
L 21.578125 24.515625 
Q 13.234375 26.265625 9.515625 29.90625 
Q 5.8125 33.546875 5.8125 39.890625 
Q 5.8125 47.609375 11.28125 51.796875 
Q 16.75 56 26.8125 56 
Q 31.78125 56 36.171875 55.265625 
Q 40.578125 54.546875 44.28125 53.078125 
z
" id="DejaVuSans-115"/>
      <path d="M 31 75.875 
Q 24.46875 64.65625 21.28125 53.65625 
Q 18.109375 42.671875 18.109375 31.390625 
Q 18.109375 20.125 21.3125 9.0625 
Q 24.515625 -2 31 -13.1875 
L 23.1875 -13.1875 
Q 15.875 -1.703125 12.234375 9.375 
Q 8.59375 20.453125 8.59375 31.390625 
Q 8.59375 42.28125 12.203125 53.3125 
Q 15.828125 64.359375 23.1875 75.875 
z
" id="DejaVuSans-40"/>
      <path d="M 9.8125 72.90625 
L 24.515625 72.90625 
L 43.109375 23.296875 
L 61.8125 72.90625 
L 76.515625 72.90625 
L 76.515625 0 
L 66.890625 0 
L 66.890625 64.015625 
L 48.09375 14.015625 
L 38.1875 14.015625 
L 19.390625 64.015625 
L 19.390625 0 
L 9.8125 0 
z
" id="DejaVuSans-77"/>
      <path d="M 20.65625 79.984375 
L 30.375 79.984375 
L 14.46875 61.625 
L 6.984375 61.625 
z
M 9.421875 54.6875 
L 18.40625 54.6875 
L 18.40625 0 
L 9.421875 0 
z
M 13.921875 56 
z
" id="DejaVuSans-237"/>
      <path d="M 8.015625 75.875 
L 15.828125 75.875 
Q 23.140625 64.359375 26.78125 53.3125 
Q 30.421875 42.28125 30.421875 31.390625 
Q 30.421875 20.453125 26.78125 9.375 
Q 23.140625 -1.703125 15.828125 -13.1875 
L 8.015625 -13.1875 
Q 14.5 -2 17.703125 9.0625 
Q 20.90625 20.125 20.90625 31.390625 
Q 20.90625 42.671875 17.703125 53.65625 
Q 14.5 64.65625 8.015625 75.875 
z
" id="DejaVuSans-41"/>
     </defs>
     <g transform="translate(18.398438 214.907852)rotate(-90)scale(0.1 -0.1)">
      <use xlink:href="#DejaVuSans-67"/>
      <use x="69.824219" xlink:href="#DejaVuSans-78"/>
      <use x="144.628906" xlink:href="#DejaVuSans-32"/>
      <use x="176.416016" xlink:href="#DejaVuSans-102"/>
      <use x="211.621094" xlink:href="#DejaVuSans-97"/>
      <use x="272.900391" xlink:href="#DejaVuSans-108"/>
      <use x="300.683594" xlink:href="#DejaVuSans-108"/>
      <use x="328.466797" xlink:href="#DejaVuSans-101"/>
      <use x="389.990234" xlink:href="#DejaVuSans-99"/>
      <use x="444.970703" xlink:href="#DejaVuSans-105"/>
      <use x="472.753906" xlink:href="#DejaVuSans-100"/>
      <use x="536.230469" xlink:href="#DejaVuSans-111"/>
      <use x="597.412109" xlink:href="#DejaVuSans-115"/>
      <use x="649.511719" xlink:href="#DejaVuSans-32"/>
      <use x="681.298828" xlink:href="#DejaVuSans-40"/>
      <use x="720.3125" xlink:href="#DejaVuSans-77"/>
      <use x="806.591797" xlink:href="#DejaVuSans-101"/>
      <use x="868.115234" xlink:href="#DejaVuSans-100"/>
      <use x="931.591797" xlink:href="#DejaVuSans-105"/>
      <use x="959.375" xlink:href="#DejaVuSans-97"/>
      <use x="1020.654297" xlink:href="#DejaVuSans-32"/>
      <use x="1052.441406" xlink:href="#DejaVuSans-51"/>
      <use x="1116.064453" xlink:href="#DejaVuSans-32"/>
      <use x="1147.851562" xlink:href="#DejaVuSans-100"/>
      <use x="1211.328125" xlink:href="#DejaVuSans-237"/>
      <use x="1239.111328" xlink:href="#DejaVuSans-97"/>
      <use x="1300.390625" xlink:href="#DejaVuSans-115"/>
      <use x="1352.490234" xlink:href="#DejaVuSans-41"/>
     </g>
    </g>
   </g>
   <g id="line2d_15">
    <path clip-path="url(#p3aab64ac22)" d="M 56.575142 279.86258 
L 62.717607 279.86258 
L 68.860071 270.710791 
L 75.002536 270.710791 
L 81.145 270.710791 
L 87.287465 270.710791 
L 93.42993 261.559003 
L 99.572394 261.559003 
L 105.714859 261.559003 
L 111.857323 243.255426 
L 117.999788 224.951849 
L 124.142253 215.800061 
L 130.284717 197.496484 
L 136.427182 170.041119 
L 142.569647 160.88933 
L 148.712111 179.192907 
L 154.854576 142.585753 
L 160.99704 142.585753 
L 167.139505 160.88933 
L 173.28197 105.9786 
L 179.424434 69.371446 
L 185.566899 23.612504 
L 191.709363 115.130388 
L 197.851828 133.433965 
L 203.994293 170.041119 
L 210.136757 170.041119 
L 216.279222 179.192907 
L 222.421686 179.192907 
L 228.564151 215.800061 
L 234.706616 234.103638 
L 240.84908 243.255426 
L 246.991545 252.407214 
L 253.134009 261.559003 
L 259.276474 215.800061 
L 265.418939 197.496484 
L 271.561403 179.192907 
L 277.703868 197.496484 
L 283.846332 179.192907 
L 289.988797 170.041119 
L 296.131262 206.648272 
L 302.273726 234.103638 
L 308.416191 261.559003 
L 314.558655 261.559003 
L 320.70112 206.648272 
L 326.843585 197.496484 
L 332.986049 188.344695 
L 339.128514 252.407214 
L 345.270978 252.407214 
L 351.413443 252.407214 
L 357.555908 243.255426 
L 363.698372 252.407214 
L 369.840837 224.951849 
L 375.983302 234.103638 
L 382.125766 234.103638 
L 388.268231 261.559003 
L 394.410695 252.407214 
L 400.55316 252.407214 
L 406.695625 224.951849 
L 412.838089 234.103638 
L 418.980554 243.255426 
L 425.123018 270.710791 
L 431.265483 252.407214 
" style="fill:none;stroke:#1f77b4;stroke-linecap:square;stroke-width:1.5;"/>
    <defs>
     <path d="M 0 1.5 
C 0.397805 1.5 0.77937 1.341951 1.06066 1.06066 
C 1.341951 0.77937 1.5 0.397805 1.5 0 
C 1.5 -0.397805 1.341951 -0.77937 1.06066 -1.06066 
C 0.77937 -1.341951 0.397805 -1.5 0 -1.5 
C -0.397805 -1.5 -0.77937 -1.341951 -1.06066 -1.06066 
C -1.341951 -0.77937 -1.5 -0.397805 -1.5 0 
C -1.5 0.397805 -1.341951 0.77937 -1.06066 1.06066 
C -0.77937 1.341951 -0.397805 1.5 0 1.5 
z
" id="m3e53fe1056" style="stroke:#1f77b4;"/>
    </defs>
    <g clip-path="url(#p3aab64ac22)">
     <use style="fill:#1f77b4;stroke:#1f77b4;" x="56.575142" xlink:href="#m3e53fe1056" y="279.86258"/>
     <use style="fill:#1f77b4;stroke:#1f77b4;" x="62.717607" xlink:href="#m3e53fe1056" y="279.86258"/>
     <use style="fill:#1f77b4;stroke:#1f77b4;" x="68.860071" xlink:href="#m3e53fe1056" y="270.710791"/>
     <use style="fill:#1f77b4;stroke:#1f77b4;" x="75.002536" xlink:href="#m3e53fe1056" y="270.710791"/>
     <use style="fill:#1f77b4;stroke:#1f77b4;" x="81.145" xlink:href="#m3e53fe1056" y="270.710791"/>
     <use style="fill:#1f77b4;stroke:#1f77b4;" x="87.287465" xlink:href="#m3e53fe1056" y="270.710791"/>
     <use style="fill:#1f77b4;stroke:#1f77b4;" x="93.42993" xlink:href="#m3e53fe1056" y="261.559003"/>
     <use style="fill:#1f77b4;stroke:#1f77b4;" x="99.572394" xlink:href="#m3e53fe1056" y="261.559003"/>
     <use style="fill:#1f77b4;stroke:#1f77b4;" x="105.714859" xlink:href="#m3e53fe1056" y="261.559003"/>
     <use style="fill:#1f77b4;stroke:#1f77b4;" x="111.857323" xlink:href="#m3e53fe1056" y="243.255426"/>
     <use style="fill:#1f77b4;stroke:#1f77b4;" x="117.999788" xlink:href="#m3e53fe1056" y="224.951849"/>
     <use style="fill:#1f77b4;stroke:#1f77b4;" x="124.142253" xlink:href="#m3e53fe1056" y="215.800061"/>
     <use style="fill:#1f77b4;stroke:#1f77b4;" x="130.284717" xlink:href="#m3e53fe1056" y="197.496484"/>
     <use style="fill:#1f77b4;stroke:#1f77b4;" x="136.427182" xlink:href="#m3e53fe1056" y="170.041119"/>
     <use style="fill:#1f77b4;stroke:#1f77b4;" x="142.569647" xlink:href="#m3e53fe1056" y="160.88933"/>
     <use style="fill:#1f77b4;stroke:#1f77b4;" x="148.712111" xlink:href="#m3e53fe1056" y="179.192907"/>
     <use style="fill:#1f77b4;stroke:#1f77b4;" x="154.854576" xlink:href="#m3e53fe1056" y="142.585753"/>
     <use style="fill:#1f77b4;stroke:#1f77b4;" x="160.99704" xlink:href="#m3e53fe1056" y="142.585753"/>
     <use style="fill:#1f77b4;stroke:#1f77b4;" x="167.139505" xlink:href="#m3e53fe1056" y="160.88933"/>
     <use style="fill:#1f77b4;stroke:#1f77b4;" x="173.28197" xlink:href="#m3e53fe1056" y="105.9786"/>
     <use style="fill:#1f77b4;stroke:#1f77b4;" x="179.424434" xlink:href="#m3e53fe1056" y="69.371446"/>
     <use style="fill:#1f77b4;stroke:#1f77b4;" x="185.566899" xlink:href="#m3e53fe1056" y="23.612504"/>
     <use style="fill:#1f77b4;stroke:#1f77b4;" x="191.709363" xlink:href="#m3e53fe1056" y="115.130388"/>
     <use style="fill:#1f77b4;stroke:#1f77b4;" x="197.851828" xlink:href="#m3e53fe1056" y="133.433965"/>
     <use style="fill:#1f77b4;stroke:#1f77b4;" x="203.994293" xlink:href="#m3e53fe1056" y="170.041119"/>
     <use style="fill:#1f77b4;stroke:#1f77b4;" x="210.136757" xlink:href="#m3e53fe1056" y="170.041119"/>
     <use style="fill:#1f77b4;stroke:#1f77b4;" x="216.279222" xlink:href="#m3e53fe1056" y="179.192907"/>
     <use style="fill:#1f77b4;stroke:#1f77b4;" x="222.421686" xlink:href="#m3e53fe1056" y="179.192907"/>
     <use style="fill:#1f77b4;stroke:#1f77b4;" x="228.564151" xlink:href="#m3e53fe1056" y="215.800061"/>
     <use style="fill:#1f77b4;stroke:#1f77b4;" x="234.706616" xlink:href="#m3e53fe1056" y="234.103638"/>
     <use style="fill:#1f77b4;stroke:#1f77b4;" x="240.84908" xlink:href="#m3e53fe1056" y="243.255426"/>
     <use style="fill:#1f77b4;stroke:#1f77b4;" x="246.991545" xlink:href="#m3e53fe1056" y="252.407214"/>
     <use style="fill:#1f77b4;stroke:#1f77b4;" x="253.134009" xlink:href="#m3e53fe1056" y="261.559003"/>
     <use style="fill:#1f77b4;stroke:#1f77b4;" x="259.276474" xlink:href="#m3e53fe1056" y="215.800061"/>
     <use style="fill:#1f77b4;stroke:#1f77b4;" x="265.418939" xlink:href="#m3e53fe1056" y="197.496484"/>
     <use style="fill:#1f77b4;stroke:#1f77b4;" x="271.561403" xlink:href="#m3e53fe1056" y="179.192907"/>
     <use style="fill:#1f77b4;stroke:#1f77b4;" x="277.703868" xlink:href="#m3e53fe1056" y="197.496484"/>
     <use style="fill:#1f77b4;stroke:#1f77b4;" x="283.846332" xlink:href="#m3e53fe1056" y="179.192907"/>
     <use style="fill:#1f77b4;stroke:#1f77b4;" x="289.988797" xlink:href="#m3e53fe1056" y="170.041119"/>
     <use style="fill:#1f77b4;stroke:#1f77b4;" x="296.131262" xlink:href="#m3e53fe1056" y="206.648272"/>
     <use style="fill:#1f77b4;stroke:#1f77b4;" x="302.273726" xlink:href="#m3e53fe1056" y="234.103638"/>
     <use style="fill:#1f77b4;stroke:#1f77b4;" x="308.416191" xlink:href="#m3e53fe1056" y="261.559003"/>
     <use style="fill:#1f77b4;stroke:#1f77b4;" x="314.558655" xlink:href="#m3e53fe1056" y="261.559003"/>
     <use style="fill:#1f77b4;stroke:#1f77b4;" x="320.70112" xlink:href="#m3e53fe1056" y="206.648272"/>
     <use style="fill:#1f77b4;stroke:#1f77b4;" x="326.843585" xlink:href="#m3e53fe1056" y="197.496484"/>
     <use style="fill:#1f77b4;stroke:#1f77b4;" x="332.986049" xlink:href="#m3e53fe1056" y="188.344695"/>
     <use style="fill:#1f77b4;stroke:#1f77b4;" x="339.128514" xlink:href="#m3e53fe1056" y="252.407214"/>
     <use style="fill:#1f77b4;stroke:#1f77b4;" x="345.270978" xlink:href="#m3e53fe1056" y="252.407214"/>
     <use style="fill:#1f77b4;stroke:#1f77b4;" x="351.413443" xlink:href="#m3e53fe1056" y="252.407214"/>
     <use style="fill:#1f77b4;stroke:#1f77b4;" x="357.555908" xlink:href="#m3e53fe1056" y="243.255426"/>
     <use style="fill:#1f77b4;stroke:#1f77b4;" x="363.698372" xlink:href="#m3e53fe1056" y="252.407214"/>
     <use style="fill:#1f77b4;stroke:#1f77b4;" x="369.840837" xlink:href="#m3e53fe1056" y="224.951849"/>
     <use style="fill:#1f77b4;stroke:#1f77b4;" x="375.983302" xlink:href="#m3e53fe1056" y="234.103638"/>
     <use style="fill:#1f77b4;stroke:#1f77b4;" x="382.125766" xlink:href="#m3e53fe1056" y="234.103638"/>
     <use style="fill:#1f77b4;stroke:#1f77b4;" x="388.268231" xlink:href="#m3e53fe1056" y="261.559003"/>
     <use style="fill:#1f77b4;stroke:#1f77b4;" x="394.410695" xlink:href="#m3e53fe1056" y="252.407214"/>
     <use style="fill:#1f77b4;stroke:#1f77b4;" x="400.55316" xlink:href="#m3e53fe1056" y="252.407214"/>
     <use style="fill:#1f77b4;stroke:#1f77b4;" x="406.695625" xlink:href="#m3e53fe1056" y="224.951849"/>
     <use style="fill:#1f77b4;stroke:#1f77b4;" x="412.838089" xlink:href="#m3e53fe1056" y="234.103638"/>
     <use style="fill:#1f77b4;stroke:#1f77b4;" x="418.980554" xlink:href="#m3e53fe1056" y="243.255426"/>
     <use style="fill:#1f77b4;stroke:#1f77b4;" x="425.123018" xlink:href="#m3e53fe1056" y="270.710791"/>
     <use style="fill:#1f77b4;stroke:#1f77b4;" x="431.265483" xlink:href="#m3e53fe1056" y="252.407214"/>
    </g>
   </g>
   <g id="patch_3">
    <path d="M 37.840625 279.86258 
L 37.840625 10.8 
" style="fill:none;stroke:#000000;stroke-linecap:square;stroke-linejoin:miter;stroke-width:0.8;"/>
   </g>
   <g id="patch_4">
    <path d="M 450 279.86258 
L 450 10.8 
" style="fill:none;stroke:#000000;stroke-linecap:square;stroke-linejoin:miter;stroke-width:0.8;"/>
   </g>
   <g id="patch_5">
    <path d="M 37.840625 279.86258 
L 450 279.86258 
" style="fill:none;stroke:#000000;stroke-linecap:square;stroke-linejoin:miter;stroke-width:0.8;"/>
   </g>
   <g id="patch_6">
    <path d="M 37.840625 10.8 
L 450 10.8 
" style="fill:none;stroke:#000000;stroke-linecap:square;stroke-linejoin:miter;stroke-width:0.8;"/>
   </g>
  </g>
 </g>
 <defs>
  <clipPath id="p3aab64ac22">
   <rect height="269.06258" width="412.159375" x="37.840625" y="10.8"/>
  </clipPath>
 </defs>
</svg>
