<?xml version="1.0" encoding="utf-8" standalone="no"?>
<!DOCTYPE svg PUBLIC "-//W3C//DTD SVG 1.1//EN"
  "http://www.w3.org/Graphics/SVG/1.1/DTD/svg11.dtd">
<!-- Created with matplotlib (https://matplotlib.org/) -->
<svg height="345.6pt" version="1.1" viewBox="0 0 460.8 345.6" width="460.8pt" xmlns="http://www.w3.org/2000/svg" xmlns:xlink="http://www.w3.org/1999/xlink">
 <defs>
  <style type="text/css">
*{stroke-linecap:butt;stroke-linejoin:round;}
  </style>
 </defs>
 <g id="figure_1">
  <g id="patch_1">
   <path d="M 0 345.6 
L 460.8 345.6 
L 460.8 0 
L 0 0 
z
" style="fill:#ffffff;"/>
  </g>
  <g id="axes_1">
   <g id="patch_2">
    <path d="M 44.203125 279.86258 
L 450 279.86258 
L 450 10.8 
L 44.203125 10.8 
z
" style="fill:#ffffff;"/>
   </g>
   <g id="matplotlib.axis_1">
    <g id="xtick_1">
     <g id="line2d_1">
      <defs>
       <path d="M 0 0 
L 0 3.5 
" id="m7695c9142d" style="stroke:#000000;stroke-width:0.8;"/>
      </defs>
      <g>
       <use style="stroke:#000000;stroke-width:0.8;" x="84.034307" xlink:href="#m7695c9142d" y="279.86258"/>
      </g>
     </g>
     <g id="text_1">
      <!-- 2020-03-15 -->
      <defs>
       <path d="M 19.1875 8.296875 
L 53.609375 8.296875 
L 53.609375 0 
L 7.328125 0 
L 7.328125 8.296875 
Q 12.9375 14.109375 22.625 23.890625 
Q 32.328125 33.6875 34.8125 36.53125 
Q 39.546875 41.84375 41.421875 45.53125 
Q 43.3125 49.21875 43.3125 52.78125 
Q 43.3125 58.59375 39.234375 62.25 
Q 35.15625 65.921875 28.609375 65.921875 
Q 23.96875 65.921875 18.8125 64.3125 
Q 13.671875 62.703125 7.8125 59.421875 
L 7.8125 69.390625 
Q 13.765625 71.78125 18.9375 73 
Q 24.125 74.21875 28.421875 74.21875 
Q 39.75 74.21875 46.484375 68.546875 
Q 53.21875 62.890625 53.21875 53.421875 
Q 53.21875 48.921875 51.53125 44.890625 
Q 49.859375 40.875 45.40625 35.40625 
Q 44.1875 33.984375 37.640625 27.21875 
Q 31.109375 20.453125 19.1875 8.296875 
z
" id="DejaVuSans-50"/>
       <path d="M 31.78125 66.40625 
Q 24.171875 66.40625 20.328125 58.90625 
Q 16.5 51.421875 16.5 36.375 
Q 16.5 21.390625 20.328125 13.890625 
Q 24.171875 6.390625 31.78125 6.390625 
Q 39.453125 6.390625 43.28125 13.890625 
Q 47.125 21.390625 47.125 36.375 
Q 47.125 51.421875 43.28125 58.90625 
Q 39.453125 66.40625 31.78125 66.40625 
z
M 31.78125 74.21875 
Q 44.046875 74.21875 50.515625 64.515625 
Q 56.984375 54.828125 56.984375 36.375 
Q 56.984375 17.96875 50.515625 8.265625 
Q 44.046875 -1.421875 31.78125 -1.421875 
Q 19.53125 -1.421875 13.0625 8.265625 
Q 6.59375 17.96875 6.59375 36.375 
Q 6.59375 54.828125 13.0625 64.515625 
Q 19.53125 74.21875 31.78125 74.21875 
z
" id="DejaVuSans-48"/>
       <path d="M 4.890625 31.390625 
L 31.203125 31.390625 
L 31.203125 23.390625 
L 4.890625 23.390625 
z
" id="DejaVuSans-45"/>
       <path d="M 40.578125 39.3125 
Q 47.65625 37.796875 51.625 33 
Q 55.609375 28.21875 55.609375 21.1875 
Q 55.609375 10.40625 48.1875 4.484375 
Q 40.765625 -1.421875 27.09375 -1.421875 
Q 22.515625 -1.421875 17.65625 -0.515625 
Q 12.796875 0.390625 7.625 2.203125 
L 7.625 11.71875 
Q 11.71875 9.328125 16.59375 8.109375 
Q 21.484375 6.890625 26.8125 6.890625 
Q 36.078125 6.890625 40.9375 10.546875 
Q 45.796875 14.203125 45.796875 21.1875 
Q 45.796875 27.640625 41.28125 31.265625 
Q 36.765625 34.90625 28.71875 34.90625 
L 20.21875 34.90625 
L 20.21875 43.015625 
L 29.109375 43.015625 
Q 36.375 43.015625 40.234375 45.921875 
Q 44.09375 48.828125 44.09375 54.296875 
Q 44.09375 59.90625 40.109375 62.90625 
Q 36.140625 65.921875 28.71875 65.921875 
Q 24.65625 65.921875 20.015625 65.03125 
Q 15.375 64.15625 9.8125 62.3125 
L 9.8125 71.09375 
Q 15.4375 72.65625 20.34375 73.4375 
Q 25.25 74.21875 29.59375 74.21875 
Q 40.828125 74.21875 47.359375 69.109375 
Q 53.90625 64.015625 53.90625 55.328125 
Q 53.90625 49.265625 50.4375 45.09375 
Q 46.96875 40.921875 40.578125 39.3125 
z
" id="DejaVuSans-51"/>
       <path d="M 12.40625 8.296875 
L 28.515625 8.296875 
L 28.515625 63.921875 
L 10.984375 60.40625 
L 10.984375 69.390625 
L 28.421875 72.90625 
L 38.28125 72.90625 
L 38.28125 8.296875 
L 54.390625 8.296875 
L 54.390625 0 
L 12.40625 0 
z
" id="DejaVuSans-49"/>
       <path d="M 10.796875 72.90625 
L 49.515625 72.90625 
L 49.515625 64.59375 
L 19.828125 64.59375 
L 19.828125 46.734375 
Q 21.96875 47.46875 24.109375 47.828125 
Q 26.265625 48.1875 28.421875 48.1875 
Q 40.625 48.1875 47.75 41.5 
Q 54.890625 34.8125 54.890625 23.390625 
Q 54.890625 11.625 47.5625 5.09375 
Q 40.234375 -1.421875 26.90625 -1.421875 
Q 22.3125 -1.421875 17.546875 -0.640625 
Q 12.796875 0.140625 7.71875 1.703125 
L 7.71875 11.625 
Q 12.109375 9.234375 16.796875 8.0625 
Q 21.484375 6.890625 26.703125 6.890625 
Q 35.15625 6.890625 40.078125 11.328125 
Q 45.015625 15.765625 45.015625 23.390625 
Q 45.015625 31 40.078125 35.4375 
Q 35.15625 39.890625 26.703125 39.890625 
Q 22.75 39.890625 18.8125 39.015625 
Q 14.890625 38.140625 10.796875 36.28125 
z
" id="DejaVuSans-53"/>
      </defs>
      <g transform="translate(65.438504 333.329439)rotate(-45)scale(0.1 -0.1)">
       <use xlink:href="#DejaVuSans-50"/>
       <use x="63.623047" xlink:href="#DejaVuSans-48"/>
       <use x="127.246094" xlink:href="#DejaVuSans-50"/>
       <use x="190.869141" xlink:href="#DejaVuSans-48"/>
       <use x="254.492188" xlink:href="#DejaVuSans-45"/>
       <use x="290.576172" xlink:href="#DejaVuSans-48"/>
       <use x="354.199219" xlink:href="#DejaVuSans-51"/>
       <use x="417.822266" xlink:href="#DejaVuSans-45"/>
       <use x="453.90625" xlink:href="#DejaVuSans-49"/>
       <use x="517.529297" xlink:href="#DejaVuSans-53"/>
      </g>
     </g>
    </g>
    <g id="xtick_2">
     <g id="line2d_2">
      <g>
       <use style="stroke:#000000;stroke-width:0.8;" x="174.924253" xlink:href="#m7695c9142d" y="279.86258"/>
      </g>
     </g>
     <g id="text_2">
      <!-- 2020-04-01 -->
      <defs>
       <path d="M 37.796875 64.3125 
L 12.890625 25.390625 
L 37.796875 25.390625 
z
M 35.203125 72.90625 
L 47.609375 72.90625 
L 47.609375 25.390625 
L 58.015625 25.390625 
L 58.015625 17.1875 
L 47.609375 17.1875 
L 47.609375 0 
L 37.796875 0 
L 37.796875 17.1875 
L 4.890625 17.1875 
L 4.890625 26.703125 
z
" id="DejaVuSans-52"/>
      </defs>
      <g transform="translate(156.328449 333.329439)rotate(-45)scale(0.1 -0.1)">
       <use xlink:href="#DejaVuSans-50"/>
       <use x="63.623047" xlink:href="#DejaVuSans-48"/>
       <use x="127.246094" xlink:href="#DejaVuSans-50"/>
       <use x="190.869141" xlink:href="#DejaVuSans-48"/>
       <use x="254.492188" xlink:href="#DejaVuSans-45"/>
       <use x="290.576172" xlink:href="#DejaVuSans-48"/>
       <use x="354.199219" xlink:href="#DejaVuSans-52"/>
       <use x="417.822266" xlink:href="#DejaVuSans-45"/>
       <use x="453.90625" xlink:href="#DejaVuSans-48"/>
       <use x="517.529297" xlink:href="#DejaVuSans-49"/>
      </g>
     </g>
    </g>
    <g id="xtick_3">
     <g id="line2d_3">
      <g>
       <use style="stroke:#000000;stroke-width:0.8;" x="249.774796" xlink:href="#m7695c9142d" y="279.86258"/>
      </g>
     </g>
     <g id="text_3">
      <!-- 2020-04-15 -->
      <g transform="translate(231.178993 333.329439)rotate(-45)scale(0.1 -0.1)">
       <use xlink:href="#DejaVuSans-50"/>
       <use x="63.623047" xlink:href="#DejaVuSans-48"/>
       <use x="127.246094" xlink:href="#DejaVuSans-50"/>
       <use x="190.869141" xlink:href="#DejaVuSans-48"/>
       <use x="254.492188" xlink:href="#DejaVuSans-45"/>
       <use x="290.576172" xlink:href="#DejaVuSans-48"/>
       <use x="354.199219" xlink:href="#DejaVuSans-52"/>
       <use x="417.822266" xlink:href="#DejaVuSans-45"/>
       <use x="453.90625" xlink:href="#DejaVuSans-49"/>
       <use x="517.529297" xlink:href="#DejaVuSans-53"/>
      </g>
     </g>
    </g>
    <g id="xtick_4">
     <g id="line2d_4">
      <g>
       <use style="stroke:#000000;stroke-width:0.8;" x="335.318274" xlink:href="#m7695c9142d" y="279.86258"/>
      </g>
     </g>
     <g id="text_4">
      <!-- 2020-05-01 -->
      <g transform="translate(316.722471 333.329439)rotate(-45)scale(0.1 -0.1)">
       <use xlink:href="#DejaVuSans-50"/>
       <use x="63.623047" xlink:href="#DejaVuSans-48"/>
       <use x="127.246094" xlink:href="#DejaVuSans-50"/>
       <use x="190.869141" xlink:href="#DejaVuSans-48"/>
       <use x="254.492188" xlink:href="#DejaVuSans-45"/>
       <use x="290.576172" xlink:href="#DejaVuSans-48"/>
       <use x="354.199219" xlink:href="#DejaVuSans-53"/>
       <use x="417.822266" xlink:href="#DejaVuSans-45"/>
       <use x="453.90625" xlink:href="#DejaVuSans-48"/>
       <use x="517.529297" xlink:href="#DejaVuSans-49"/>
      </g>
     </g>
    </g>
    <g id="xtick_5">
     <g id="line2d_5">
      <g>
       <use style="stroke:#000000;stroke-width:0.8;" x="410.168818" xlink:href="#m7695c9142d" y="279.86258"/>
      </g>
     </g>
     <g id="text_5">
      <!-- 2020-05-15 -->
      <g transform="translate(391.573014 333.329439)rotate(-45)scale(0.1 -0.1)">
       <use xlink:href="#DejaVuSans-50"/>
       <use x="63.623047" xlink:href="#DejaVuSans-48"/>
       <use x="127.246094" xlink:href="#DejaVuSans-50"/>
       <use x="190.869141" xlink:href="#DejaVuSans-48"/>
       <use x="254.492188" xlink:href="#DejaVuSans-45"/>
       <use x="290.576172" xlink:href="#DejaVuSans-48"/>
       <use x="354.199219" xlink:href="#DejaVuSans-53"/>
       <use x="417.822266" xlink:href="#DejaVuSans-45"/>
       <use x="453.90625" xlink:href="#DejaVuSans-49"/>
       <use x="517.529297" xlink:href="#DejaVuSans-53"/>
      </g>
     </g>
    </g>
   </g>
   <g id="matplotlib.axis_2">
    <g id="ytick_1">
     <g id="line2d_6">
      <defs>
       <path d="M 0 0 
L -3.5 0 
" id="ma00ba0fd32" style="stroke:#000000;stroke-width:0.8;"/>
      </defs>
      <g>
       <use style="stroke:#000000;stroke-width:0.8;" x="44.203125" xlink:href="#ma00ba0fd32" y="279.86258"/>
      </g>
     </g>
     <g id="text_6">
      <!-- 0 -->
      <g transform="translate(30.840625 283.661798)scale(0.1 -0.1)">
       <use xlink:href="#DejaVuSans-48"/>
      </g>
     </g>
    </g>
    <g id="ytick_2">
     <g id="line2d_7">
      <g>
       <use style="stroke:#000000;stroke-width:0.8;" x="44.203125" xlink:href="#ma00ba0fd32" y="228.580004"/>
      </g>
     </g>
     <g id="text_7">
      <!-- 5 -->
      <g transform="translate(30.840625 232.379223)scale(0.1 -0.1)">
       <use xlink:href="#DejaVuSans-53"/>
      </g>
     </g>
    </g>
    <g id="ytick_3">
     <g id="line2d_8">
      <g>
       <use style="stroke:#000000;stroke-width:0.8;" x="44.203125" xlink:href="#ma00ba0fd32" y="177.297429"/>
      </g>
     </g>
     <g id="text_8">
      <!-- 10 -->
      <g transform="translate(24.478125 181.096647)scale(0.1 -0.1)">
       <use xlink:href="#DejaVuSans-49"/>
       <use x="63.623047" xlink:href="#DejaVuSans-48"/>
      </g>
     </g>
    </g>
    <g id="ytick_4">
     <g id="line2d_9">
      <g>
       <use style="stroke:#000000;stroke-width:0.8;" x="44.203125" xlink:href="#ma00ba0fd32" y="126.014853"/>
      </g>
     </g>
     <g id="text_9">
      <!-- 15 -->
      <g transform="translate(24.478125 129.814072)scale(0.1 -0.1)">
       <use xlink:href="#DejaVuSans-49"/>
       <use x="63.623047" xlink:href="#DejaVuSans-53"/>
      </g>
     </g>
    </g>
    <g id="ytick_5">
     <g id="line2d_10">
      <g>
       <use style="stroke:#000000;stroke-width:0.8;" x="44.203125" xlink:href="#ma00ba0fd32" y="74.732278"/>
      </g>
     </g>
     <g id="text_10">
      <!-- 20 -->
      <g transform="translate(24.478125 78.531496)scale(0.1 -0.1)">
       <use xlink:href="#DejaVuSans-50"/>
       <use x="63.623047" xlink:href="#DejaVuSans-48"/>
      </g>
     </g>
    </g>
    <g id="ytick_6">
     <g id="line2d_11">
      <g>
       <use style="stroke:#000000;stroke-width:0.8;" x="44.203125" xlink:href="#ma00ba0fd32" y="23.449702"/>
      </g>
     </g>
     <g id="text_11">
      <!-- 25 -->
      <g transform="translate(24.478125 27.248921)scale(0.1 -0.1)">
       <use xlink:href="#DejaVuSans-50"/>
       <use x="63.623047" xlink:href="#DejaVuSans-53"/>
      </g>
     </g>
    </g>
    <g id="text_12">
     <!-- EX fallecidos (Media 3 días) -->
     <defs>
      <path d="M 9.8125 72.90625 
L 55.90625 72.90625 
L 55.90625 64.59375 
L 19.671875 64.59375 
L 19.671875 43.015625 
L 54.390625 43.015625 
L 54.390625 34.71875 
L 19.671875 34.71875 
L 19.671875 8.296875 
L 56.78125 8.296875 
L 56.78125 0 
L 9.8125 0 
z
" id="DejaVuSans-69"/>
      <path d="M 6.296875 72.90625 
L 16.890625 72.90625 
L 35.015625 45.796875 
L 53.21875 72.90625 
L 63.8125 72.90625 
L 40.375 37.890625 
L 65.375 0 
L 54.78125 0 
L 34.28125 31 
L 13.625 0 
L 2.984375 0 
L 29 38.921875 
z
" id="DejaVuSans-88"/>
      <path id="DejaVuSans-32"/>
      <path d="M 37.109375 75.984375 
L 37.109375 68.5 
L 28.515625 68.5 
Q 23.6875 68.5 21.796875 66.546875 
Q 19.921875 64.59375 19.921875 59.515625 
L 19.921875 54.6875 
L 34.71875 54.6875 
L 34.71875 47.703125 
L 19.921875 47.703125 
L 19.921875 0 
L 10.890625 0 
L 10.890625 47.703125 
L 2.296875 47.703125 
L 2.296875 54.6875 
L 10.890625 54.6875 
L 10.890625 58.5 
Q 10.890625 67.625 15.140625 71.796875 
Q 19.390625 75.984375 28.609375 75.984375 
z
" id="DejaVuSans-102"/>
      <path d="M 34.28125 27.484375 
Q 23.390625 27.484375 19.1875 25 
Q 14.984375 22.515625 14.984375 16.5 
Q 14.984375 11.71875 18.140625 8.90625 
Q 21.296875 6.109375 26.703125 6.109375 
Q 34.1875 6.109375 38.703125 11.40625 
Q 43.21875 16.703125 43.21875 25.484375 
L 43.21875 27.484375 
z
M 52.203125 31.203125 
L 52.203125 0 
L 43.21875 0 
L 43.21875 8.296875 
Q 40.140625 3.328125 35.546875 0.953125 
Q 30.953125 -1.421875 24.3125 -1.421875 
Q 15.921875 -1.421875 10.953125 3.296875 
Q 6 8.015625 6 15.921875 
Q 6 25.140625 12.171875 29.828125 
Q 18.359375 34.515625 30.609375 34.515625 
L 43.21875 34.515625 
L 43.21875 35.40625 
Q 43.21875 41.609375 39.140625 45 
Q 35.0625 48.390625 27.6875 48.390625 
Q 23 48.390625 18.546875 47.265625 
Q 14.109375 46.140625 10.015625 43.890625 
L 10.015625 52.203125 
Q 14.9375 54.109375 19.578125 55.046875 
Q 24.21875 56 28.609375 56 
Q 40.484375 56 46.34375 49.84375 
Q 52.203125 43.703125 52.203125 31.203125 
z
" id="DejaVuSans-97"/>
      <path d="M 9.421875 75.984375 
L 18.40625 75.984375 
L 18.40625 0 
L 9.421875 0 
z
" id="DejaVuSans-108"/>
      <path d="M 56.203125 29.59375 
L 56.203125 25.203125 
L 14.890625 25.203125 
Q 15.484375 15.921875 20.484375 11.0625 
Q 25.484375 6.203125 34.421875 6.203125 
Q 39.59375 6.203125 44.453125 7.46875 
Q 49.3125 8.734375 54.109375 11.28125 
L 54.109375 2.78125 
Q 49.265625 0.734375 44.1875 -0.34375 
Q 39.109375 -1.421875 33.890625 -1.421875 
Q 20.796875 -1.421875 13.15625 6.1875 
Q 5.515625 13.8125 5.515625 26.8125 
Q 5.515625 40.234375 12.765625 48.109375 
Q 20.015625 56 32.328125 56 
Q 43.359375 56 49.78125 48.890625 
Q 56.203125 41.796875 56.203125 29.59375 
z
M 47.21875 32.234375 
Q 47.125 39.59375 43.09375 43.984375 
Q 39.0625 48.390625 32.421875 48.390625 
Q 24.90625 48.390625 20.390625 44.140625 
Q 15.875 39.890625 15.1875 32.171875 
z
" id="DejaVuSans-101"/>
      <path d="M 48.78125 52.59375 
L 48.78125 44.1875 
Q 44.96875 46.296875 41.140625 47.34375 
Q 37.3125 48.390625 33.40625 48.390625 
Q 24.65625 48.390625 19.8125 42.84375 
Q 14.984375 37.3125 14.984375 27.296875 
Q 14.984375 17.28125 19.8125 11.734375 
Q 24.65625 6.203125 33.40625 6.203125 
Q 37.3125 6.203125 41.140625 7.25 
Q 44.96875 8.296875 48.78125 10.40625 
L 48.78125 2.09375 
Q 45.015625 0.34375 40.984375 -0.53125 
Q 36.96875 -1.421875 32.421875 -1.421875 
Q 20.0625 -1.421875 12.78125 6.34375 
Q 5.515625 14.109375 5.515625 27.296875 
Q 5.515625 40.671875 12.859375 48.328125 
Q 20.21875 56 33.015625 56 
Q 37.15625 56 41.109375 55.140625 
Q 45.0625 54.296875 48.78125 52.59375 
z
" id="DejaVuSans-99"/>
      <path d="M 9.421875 54.6875 
L 18.40625 54.6875 
L 18.40625 0 
L 9.421875 0 
z
M 9.421875 75.984375 
L 18.40625 75.984375 
L 18.40625 64.59375 
L 9.421875 64.59375 
z
" id="DejaVuSans-105"/>
      <path d="M 45.40625 46.390625 
L 45.40625 75.984375 
L 54.390625 75.984375 
L 54.390625 0 
L 45.40625 0 
L 45.40625 8.203125 
Q 42.578125 3.328125 38.25 0.953125 
Q 33.9375 -1.421875 27.875 -1.421875 
Q 17.96875 -1.421875 11.734375 6.484375 
Q 5.515625 14.40625 5.515625 27.296875 
Q 5.515625 40.1875 11.734375 48.09375 
Q 17.96875 56 27.875 56 
Q 33.9375 56 38.25 53.625 
Q 42.578125 51.265625 45.40625 46.390625 
z
M 14.796875 27.296875 
Q 14.796875 17.390625 18.875 11.75 
Q 22.953125 6.109375 30.078125 6.109375 
Q 37.203125 6.109375 41.296875 11.75 
Q 45.40625 17.390625 45.40625 27.296875 
Q 45.40625 37.203125 41.296875 42.84375 
Q 37.203125 48.484375 30.078125 48.484375 
Q 22.953125 48.484375 18.875 42.84375 
Q 14.796875 37.203125 14.796875 27.296875 
z
" id="DejaVuSans-100"/>
      <path d="M 30.609375 48.390625 
Q 23.390625 48.390625 19.1875 42.75 
Q 14.984375 37.109375 14.984375 27.296875 
Q 14.984375 17.484375 19.15625 11.84375 
Q 23.34375 6.203125 30.609375 6.203125 
Q 37.796875 6.203125 41.984375 11.859375 
Q 46.1875 17.53125 46.1875 27.296875 
Q 46.1875 37.015625 41.984375 42.703125 
Q 37.796875 48.390625 30.609375 48.390625 
z
M 30.609375 56 
Q 42.328125 56 49.015625 48.375 
Q 55.71875 40.765625 55.71875 27.296875 
Q 55.71875 13.875 49.015625 6.21875 
Q 42.328125 -1.421875 30.609375 -1.421875 
Q 18.84375 -1.421875 12.171875 6.21875 
Q 5.515625 13.875 5.515625 27.296875 
Q 5.515625 40.765625 12.171875 48.375 
Q 18.84375 56 30.609375 56 
z
" id="DejaVuSans-111"/>
      <path d="M 44.28125 53.078125 
L 44.28125 44.578125 
Q 40.484375 46.53125 36.375 47.5 
Q 32.28125 48.484375 27.875 48.484375 
Q 21.1875 48.484375 17.84375 46.4375 
Q 14.5 44.390625 14.5 40.28125 
Q 14.5 37.15625 16.890625 35.375 
Q 19.28125 33.59375 26.515625 31.984375 
L 29.59375 31.296875 
Q 39.15625 29.25 43.1875 25.515625 
Q 47.21875 21.78125 47.21875 15.09375 
Q 47.21875 7.46875 41.1875 3.015625 
Q 35.15625 -1.421875 24.609375 -1.421875 
Q 20.21875 -1.421875 15.453125 -0.5625 
Q 10.6875 0.296875 5.421875 2 
L 5.421875 11.28125 
Q 10.40625 8.6875 15.234375 7.390625 
Q 20.0625 6.109375 24.8125 6.109375 
Q 31.15625 6.109375 34.5625 8.28125 
Q 37.984375 10.453125 37.984375 14.40625 
Q 37.984375 18.0625 35.515625 20.015625 
Q 33.0625 21.96875 24.703125 23.78125 
L 21.578125 24.515625 
Q 13.234375 26.265625 9.515625 29.90625 
Q 5.8125 33.546875 5.8125 39.890625 
Q 5.8125 47.609375 11.28125 51.796875 
Q 16.75 56 26.8125 56 
Q 31.78125 56 36.171875 55.265625 
Q 40.578125 54.546875 44.28125 53.078125 
z
" id="DejaVuSans-115"/>
      <path d="M 31 75.875 
Q 24.46875 64.65625 21.28125 53.65625 
Q 18.109375 42.671875 18.109375 31.390625 
Q 18.109375 20.125 21.3125 9.0625 
Q 24.515625 -2 31 -13.1875 
L 23.1875 -13.1875 
Q 15.875 -1.703125 12.234375 9.375 
Q 8.59375 20.453125 8.59375 31.390625 
Q 8.59375 42.28125 12.203125 53.3125 
Q 15.828125 64.359375 23.1875 75.875 
z
" id="DejaVuSans-40"/>
      <path d="M 9.8125 72.90625 
L 24.515625 72.90625 
L 43.109375 23.296875 
L 61.8125 72.90625 
L 76.515625 72.90625 
L 76.515625 0 
L 66.890625 0 
L 66.890625 64.015625 
L 48.09375 14.015625 
L 38.1875 14.015625 
L 19.390625 64.015625 
L 19.390625 0 
L 9.8125 0 
z
" id="DejaVuSans-77"/>
      <path d="M 20.65625 79.984375 
L 30.375 79.984375 
L 14.46875 61.625 
L 6.984375 61.625 
z
M 9.421875 54.6875 
L 18.40625 54.6875 
L 18.40625 0 
L 9.421875 0 
z
M 13.921875 56 
z
" id="DejaVuSans-237"/>
      <path d="M 8.015625 75.875 
L 15.828125 75.875 
Q 23.140625 64.359375 26.78125 53.3125 
Q 30.421875 42.28125 30.421875 31.390625 
Q 30.421875 20.453125 26.78125 9.375 
Q 23.140625 -1.703125 15.828125 -13.1875 
L 8.015625 -13.1875 
Q 14.5 -2 17.703125 9.0625 
Q 20.90625 20.125 20.90625 31.390625 
Q 20.90625 42.671875 17.703125 53.65625 
Q 14.5 64.65625 8.015625 75.875 
z
" id="DejaVuSans-41"/>
     </defs>
     <g transform="translate(18.398438 214.260196)rotate(-90)scale(0.1 -0.1)">
      <use xlink:href="#DejaVuSans-69"/>
      <use x="63.183594" xlink:href="#DejaVuSans-88"/>
      <use x="131.689453" xlink:href="#DejaVuSans-32"/>
      <use x="163.476562" xlink:href="#DejaVuSans-102"/>
      <use x="198.681641" xlink:href="#DejaVuSans-97"/>
      <use x="259.960938" xlink:href="#DejaVuSans-108"/>
      <use x="287.744141" xlink:href="#DejaVuSans-108"/>
      <use x="315.527344" xlink:href="#DejaVuSans-101"/>
      <use x="377.050781" xlink:href="#DejaVuSans-99"/>
      <use x="432.03125" xlink:href="#DejaVuSans-105"/>
      <use x="459.814453" xlink:href="#DejaVuSans-100"/>
      <use x="523.291016" xlink:href="#DejaVuSans-111"/>
      <use x="584.472656" xlink:href="#DejaVuSans-115"/>
      <use x="636.572266" xlink:href="#DejaVuSans-32"/>
      <use x="668.359375" xlink:href="#DejaVuSans-40"/>
      <use x="707.373047" xlink:href="#DejaVuSans-77"/>
      <use x="793.652344" xlink:href="#DejaVuSans-101"/>
      <use x="855.175781" xlink:href="#DejaVuSans-100"/>
      <use x="918.652344" xlink:href="#DejaVuSans-105"/>
      <use x="946.435547" xlink:href="#DejaVuSans-97"/>
      <use x="1007.714844" xlink:href="#DejaVuSans-32"/>
      <use x="1039.501953" xlink:href="#DejaVuSans-51"/>
      <use x="1103.125" xlink:href="#DejaVuSans-32"/>
      <use x="1134.912109" xlink:href="#DejaVuSans-100"/>
      <use x="1198.388672" xlink:href="#DejaVuSans-237"/>
      <use x="1226.171875" xlink:href="#DejaVuSans-97"/>
      <use x="1287.451172" xlink:href="#DejaVuSans-115"/>
      <use x="1339.550781" xlink:href="#DejaVuSans-41"/>
     </g>
    </g>
   </g>
   <g id="line2d_12">
    <path clip-path="url(#p5dbea9aab9)" d="M 62.648438 276.443741 
L 67.994905 276.443741 
L 73.341372 276.443741 
L 78.68784 276.443741 
L 84.034307 276.443741 
L 89.380774 276.443741 
L 94.727242 266.187226 
L 100.073709 259.349549 
L 105.420177 255.930711 
L 110.766644 259.349549 
L 116.113111 259.349549 
L 121.459579 252.511873 
L 126.806046 231.998842 
L 132.152514 194.39162 
L 137.498981 143.109045 
L 142.845448 132.85253 
L 148.191916 112.3395 
L 153.538383 136.271368 
L 158.884851 153.36556 
L 164.231318 126.014853 
L 169.577785 102.082984 
L 174.924253 23.449702 
L 180.27072 50.800409 
L 185.617188 88.407631 
L 190.963655 153.36556 
L 196.310122 184.135105 
L 201.65659 108.920661 
L 207.003057 98.664146 
L 212.349524 91.826469 
L 217.695992 177.297429 
L 223.042459 170.459752 
L 228.388927 180.716267 
L 233.735394 167.040913 
L 239.081861 173.87859 
L 244.428329 177.297429 
L 249.774796 149.946722 
L 255.121264 149.946722 
L 260.467731 149.946722 
L 265.814198 194.39162 
L 271.160666 221.742327 
L 276.507133 221.742327 
L 281.853601 211.485812 
L 287.200068 218.323489 
L 292.546535 231.998842 
L 297.893003 238.836519 
L 303.23947 228.580004 
L 308.585938 221.742327 
L 313.932405 221.742327 
L 319.278872 218.323489 
L 324.62534 218.323489 
L 329.971807 218.323489 
L 335.318274 218.323489 
L 340.664742 231.998842 
L 346.011209 249.093034 
L 351.357677 266.187226 
L 356.704144 269.606065 
L 362.050611 255.930711 
L 367.397079 245.674196 
L 372.743546 231.998842 
L 378.090014 235.417681 
L 383.436481 242.255358 
L 388.782948 245.674196 
L 394.129416 249.093034 
L 399.475883 249.093034 
L 404.822351 255.930711 
L 410.168818 252.511873 
L 415.515285 252.511873 
L 420.861753 259.349549 
L 426.20822 255.930711 
L 431.554688 266.187226 
" style="fill:none;stroke:#1f77b4;stroke-linecap:square;stroke-width:1.5;"/>
    <defs>
     <path d="M 0 1.5 
C 0.397805 1.5 0.77937 1.341951 1.06066 1.06066 
C 1.341951 0.77937 1.5 0.397805 1.5 0 
C 1.5 -0.397805 1.341951 -0.77937 1.06066 -1.06066 
C 0.77937 -1.341951 0.397805 -1.5 0 -1.5 
C -0.397805 -1.5 -0.77937 -1.341951 -1.06066 -1.06066 
C -1.341951 -0.77937 -1.5 -0.397805 -1.5 0 
C -1.5 0.397805 -1.341951 0.77937 -1.06066 1.06066 
C -0.77937 1.341951 -0.397805 1.5 0 1.5 
z
" id="m1734646e40" style="stroke:#1f77b4;"/>
    </defs>
    <g clip-path="url(#p5dbea9aab9)">
     <use style="fill:#1f77b4;stroke:#1f77b4;" x="62.648438" xlink:href="#m1734646e40" y="276.443741"/>
     <use style="fill:#1f77b4;stroke:#1f77b4;" x="67.994905" xlink:href="#m1734646e40" y="276.443741"/>
     <use style="fill:#1f77b4;stroke:#1f77b4;" x="73.341372" xlink:href="#m1734646e40" y="276.443741"/>
     <use style="fill:#1f77b4;stroke:#1f77b4;" x="78.68784" xlink:href="#m1734646e40" y="276.443741"/>
     <use style="fill:#1f77b4;stroke:#1f77b4;" x="84.034307" xlink:href="#m1734646e40" y="276.443741"/>
     <use style="fill:#1f77b4;stroke:#1f77b4;" x="89.380774" xlink:href="#m1734646e40" y="276.443741"/>
     <use style="fill:#1f77b4;stroke:#1f77b4;" x="94.727242" xlink:href="#m1734646e40" y="266.187226"/>
     <use style="fill:#1f77b4;stroke:#1f77b4;" x="100.073709" xlink:href="#m1734646e40" y="259.349549"/>
     <use style="fill:#1f77b4;stroke:#1f77b4;" x="105.420177" xlink:href="#m1734646e40" y="255.930711"/>
     <use style="fill:#1f77b4;stroke:#1f77b4;" x="110.766644" xlink:href="#m1734646e40" y="259.349549"/>
     <use style="fill:#1f77b4;stroke:#1f77b4;" x="116.113111" xlink:href="#m1734646e40" y="259.349549"/>
     <use style="fill:#1f77b4;stroke:#1f77b4;" x="121.459579" xlink:href="#m1734646e40" y="252.511873"/>
     <use style="fill:#1f77b4;stroke:#1f77b4;" x="126.806046" xlink:href="#m1734646e40" y="231.998842"/>
     <use style="fill:#1f77b4;stroke:#1f77b4;" x="132.152514" xlink:href="#m1734646e40" y="194.39162"/>
     <use style="fill:#1f77b4;stroke:#1f77b4;" x="137.498981" xlink:href="#m1734646e40" y="143.109045"/>
     <use style="fill:#1f77b4;stroke:#1f77b4;" x="142.845448" xlink:href="#m1734646e40" y="132.85253"/>
     <use style="fill:#1f77b4;stroke:#1f77b4;" x="148.191916" xlink:href="#m1734646e40" y="112.3395"/>
     <use style="fill:#1f77b4;stroke:#1f77b4;" x="153.538383" xlink:href="#m1734646e40" y="136.271368"/>
     <use style="fill:#1f77b4;stroke:#1f77b4;" x="158.884851" xlink:href="#m1734646e40" y="153.36556"/>
     <use style="fill:#1f77b4;stroke:#1f77b4;" x="164.231318" xlink:href="#m1734646e40" y="126.014853"/>
     <use style="fill:#1f77b4;stroke:#1f77b4;" x="169.577785" xlink:href="#m1734646e40" y="102.082984"/>
     <use style="fill:#1f77b4;stroke:#1f77b4;" x="174.924253" xlink:href="#m1734646e40" y="23.449702"/>
     <use style="fill:#1f77b4;stroke:#1f77b4;" x="180.27072" xlink:href="#m1734646e40" y="50.800409"/>
     <use style="fill:#1f77b4;stroke:#1f77b4;" x="185.617188" xlink:href="#m1734646e40" y="88.407631"/>
     <use style="fill:#1f77b4;stroke:#1f77b4;" x="190.963655" xlink:href="#m1734646e40" y="153.36556"/>
     <use style="fill:#1f77b4;stroke:#1f77b4;" x="196.310122" xlink:href="#m1734646e40" y="184.135105"/>
     <use style="fill:#1f77b4;stroke:#1f77b4;" x="201.65659" xlink:href="#m1734646e40" y="108.920661"/>
     <use style="fill:#1f77b4;stroke:#1f77b4;" x="207.003057" xlink:href="#m1734646e40" y="98.664146"/>
     <use style="fill:#1f77b4;stroke:#1f77b4;" x="212.349524" xlink:href="#m1734646e40" y="91.826469"/>
     <use style="fill:#1f77b4;stroke:#1f77b4;" x="217.695992" xlink:href="#m1734646e40" y="177.297429"/>
     <use style="fill:#1f77b4;stroke:#1f77b4;" x="223.042459" xlink:href="#m1734646e40" y="170.459752"/>
     <use style="fill:#1f77b4;stroke:#1f77b4;" x="228.388927" xlink:href="#m1734646e40" y="180.716267"/>
     <use style="fill:#1f77b4;stroke:#1f77b4;" x="233.735394" xlink:href="#m1734646e40" y="167.040913"/>
     <use style="fill:#1f77b4;stroke:#1f77b4;" x="239.081861" xlink:href="#m1734646e40" y="173.87859"/>
     <use style="fill:#1f77b4;stroke:#1f77b4;" x="244.428329" xlink:href="#m1734646e40" y="177.297429"/>
     <use style="fill:#1f77b4;stroke:#1f77b4;" x="249.774796" xlink:href="#m1734646e40" y="149.946722"/>
     <use style="fill:#1f77b4;stroke:#1f77b4;" x="255.121264" xlink:href="#m1734646e40" y="149.946722"/>
     <use style="fill:#1f77b4;stroke:#1f77b4;" x="260.467731" xlink:href="#m1734646e40" y="149.946722"/>
     <use style="fill:#1f77b4;stroke:#1f77b4;" x="265.814198" xlink:href="#m1734646e40" y="194.39162"/>
     <use style="fill:#1f77b4;stroke:#1f77b4;" x="271.160666" xlink:href="#m1734646e40" y="221.742327"/>
     <use style="fill:#1f77b4;stroke:#1f77b4;" x="276.507133" xlink:href="#m1734646e40" y="221.742327"/>
     <use style="fill:#1f77b4;stroke:#1f77b4;" x="281.853601" xlink:href="#m1734646e40" y="211.485812"/>
     <use style="fill:#1f77b4;stroke:#1f77b4;" x="287.200068" xlink:href="#m1734646e40" y="218.323489"/>
     <use style="fill:#1f77b4;stroke:#1f77b4;" x="292.546535" xlink:href="#m1734646e40" y="231.998842"/>
     <use style="fill:#1f77b4;stroke:#1f77b4;" x="297.893003" xlink:href="#m1734646e40" y="238.836519"/>
     <use style="fill:#1f77b4;stroke:#1f77b4;" x="303.23947" xlink:href="#m1734646e40" y="228.580004"/>
     <use style="fill:#1f77b4;stroke:#1f77b4;" x="308.585938" xlink:href="#m1734646e40" y="221.742327"/>
     <use style="fill:#1f77b4;stroke:#1f77b4;" x="313.932405" xlink:href="#m1734646e40" y="221.742327"/>
     <use style="fill:#1f77b4;stroke:#1f77b4;" x="319.278872" xlink:href="#m1734646e40" y="218.323489"/>
     <use style="fill:#1f77b4;stroke:#1f77b4;" x="324.62534" xlink:href="#m1734646e40" y="218.323489"/>
     <use style="fill:#1f77b4;stroke:#1f77b4;" x="329.971807" xlink:href="#m1734646e40" y="218.323489"/>
     <use style="fill:#1f77b4;stroke:#1f77b4;" x="335.318274" xlink:href="#m1734646e40" y="218.323489"/>
     <use style="fill:#1f77b4;stroke:#1f77b4;" x="340.664742" xlink:href="#m1734646e40" y="231.998842"/>
     <use style="fill:#1f77b4;stroke:#1f77b4;" x="346.011209" xlink:href="#m1734646e40" y="249.093034"/>
     <use style="fill:#1f77b4;stroke:#1f77b4;" x="351.357677" xlink:href="#m1734646e40" y="266.187226"/>
     <use style="fill:#1f77b4;stroke:#1f77b4;" x="356.704144" xlink:href="#m1734646e40" y="269.606065"/>
     <use style="fill:#1f77b4;stroke:#1f77b4;" x="362.050611" xlink:href="#m1734646e40" y="255.930711"/>
     <use style="fill:#1f77b4;stroke:#1f77b4;" x="367.397079" xlink:href="#m1734646e40" y="245.674196"/>
     <use style="fill:#1f77b4;stroke:#1f77b4;" x="372.743546" xlink:href="#m1734646e40" y="231.998842"/>
     <use style="fill:#1f77b4;stroke:#1f77b4;" x="378.090014" xlink:href="#m1734646e40" y="235.417681"/>
     <use style="fill:#1f77b4;stroke:#1f77b4;" x="383.436481" xlink:href="#m1734646e40" y="242.255358"/>
     <use style="fill:#1f77b4;stroke:#1f77b4;" x="388.782948" xlink:href="#m1734646e40" y="245.674196"/>
     <use style="fill:#1f77b4;stroke:#1f77b4;" x="394.129416" xlink:href="#m1734646e40" y="249.093034"/>
     <use style="fill:#1f77b4;stroke:#1f77b4;" x="399.475883" xlink:href="#m1734646e40" y="249.093034"/>
     <use style="fill:#1f77b4;stroke:#1f77b4;" x="404.822351" xlink:href="#m1734646e40" y="255.930711"/>
     <use style="fill:#1f77b4;stroke:#1f77b4;" x="410.168818" xlink:href="#m1734646e40" y="252.511873"/>
     <use style="fill:#1f77b4;stroke:#1f77b4;" x="415.515285" xlink:href="#m1734646e40" y="252.511873"/>
     <use style="fill:#1f77b4;stroke:#1f77b4;" x="420.861753" xlink:href="#m1734646e40" y="259.349549"/>
     <use style="fill:#1f77b4;stroke:#1f77b4;" x="426.20822" xlink:href="#m1734646e40" y="255.930711"/>
     <use style="fill:#1f77b4;stroke:#1f77b4;" x="431.554688" xlink:href="#m1734646e40" y="266.187226"/>
    </g>
   </g>
   <g id="patch_3">
    <path d="M 44.203125 279.86258 
L 44.203125 10.8 
" style="fill:none;stroke:#000000;stroke-linecap:square;stroke-linejoin:miter;stroke-width:0.8;"/>
   </g>
   <g id="patch_4">
    <path d="M 450 279.86258 
L 450 10.8 
" style="fill:none;stroke:#000000;stroke-linecap:square;stroke-linejoin:miter;stroke-width:0.8;"/>
   </g>
   <g id="patch_5">
    <path d="M 44.203125 279.86258 
L 450 279.86258 
" style="fill:none;stroke:#000000;stroke-linecap:square;stroke-linejoin:miter;stroke-width:0.8;"/>
   </g>
   <g id="patch_6">
    <path d="M 44.203125 10.8 
L 450 10.8 
" style="fill:none;stroke:#000000;stroke-linecap:square;stroke-linejoin:miter;stroke-width:0.8;"/>
   </g>
  </g>
 </g>
 <defs>
  <clipPath id="p5dbea9aab9">
   <rect height="269.06258" width="405.796875" x="44.203125" y="10.8"/>
  </clipPath>
 </defs>
</svg>
