<?xml version="1.0" encoding="utf-8" standalone="no"?>
<!DOCTYPE svg PUBLIC "-//W3C//DTD SVG 1.1//EN"
  "http://www.w3.org/Graphics/SVG/1.1/DTD/svg11.dtd">
<!-- Created with matplotlib (https://matplotlib.org/) -->
<svg height="345.6pt" version="1.1" viewBox="0 0 460.8 345.6" width="460.8pt" xmlns="http://www.w3.org/2000/svg" xmlns:xlink="http://www.w3.org/1999/xlink">
 <defs>
  <style type="text/css">
*{stroke-linecap:butt;stroke-linejoin:round;}
  </style>
 </defs>
 <g id="figure_1">
  <g id="patch_1">
   <path d="M 0 345.6 
L 460.8 345.6 
L 460.8 0 
L 0 0 
z
" style="fill:#ffffff;"/>
  </g>
  <g id="axes_1">
   <g id="patch_2">
    <path d="M 44.203125 279.86258 
L 431.957524 279.86258 
L 431.957524 10.8 
L 44.203125 10.8 
z
" style="fill:#ffffff;"/>
   </g>
   <g id="matplotlib.axis_1">
    <g id="xtick_1">
     <g id="line2d_1">
      <defs>
       <path d="M 0 0 
L 0 3.5 
" id="m6679ea2617" style="stroke:#000000;stroke-width:0.8;"/>
      </defs>
      <g>
       <use style="stroke:#000000;stroke-width:0.8;" x="45.04242" xlink:href="#m6679ea2617" y="279.86258"/>
      </g>
     </g>
     <g id="text_1">
      <!-- 2020-03-08 -->
      <defs>
       <path d="M 19.1875 8.296875 
L 53.609375 8.296875 
L 53.609375 0 
L 7.328125 0 
L 7.328125 8.296875 
Q 12.9375 14.109375 22.625 23.890625 
Q 32.328125 33.6875 34.8125 36.53125 
Q 39.546875 41.84375 41.421875 45.53125 
Q 43.3125 49.21875 43.3125 52.78125 
Q 43.3125 58.59375 39.234375 62.25 
Q 35.15625 65.921875 28.609375 65.921875 
Q 23.96875 65.921875 18.8125 64.3125 
Q 13.671875 62.703125 7.8125 59.421875 
L 7.8125 69.390625 
Q 13.765625 71.78125 18.9375 73 
Q 24.125 74.21875 28.421875 74.21875 
Q 39.75 74.21875 46.484375 68.546875 
Q 53.21875 62.890625 53.21875 53.421875 
Q 53.21875 48.921875 51.53125 44.890625 
Q 49.859375 40.875 45.40625 35.40625 
Q 44.1875 33.984375 37.640625 27.21875 
Q 31.109375 20.453125 19.1875 8.296875 
z
" id="DejaVuSans-50"/>
       <path d="M 31.78125 66.40625 
Q 24.171875 66.40625 20.328125 58.90625 
Q 16.5 51.421875 16.5 36.375 
Q 16.5 21.390625 20.328125 13.890625 
Q 24.171875 6.390625 31.78125 6.390625 
Q 39.453125 6.390625 43.28125 13.890625 
Q 47.125 21.390625 47.125 36.375 
Q 47.125 51.421875 43.28125 58.90625 
Q 39.453125 66.40625 31.78125 66.40625 
z
M 31.78125 74.21875 
Q 44.046875 74.21875 50.515625 64.515625 
Q 56.984375 54.828125 56.984375 36.375 
Q 56.984375 17.96875 50.515625 8.265625 
Q 44.046875 -1.421875 31.78125 -1.421875 
Q 19.53125 -1.421875 13.0625 8.265625 
Q 6.59375 17.96875 6.59375 36.375 
Q 6.59375 54.828125 13.0625 64.515625 
Q 19.53125 74.21875 31.78125 74.21875 
z
" id="DejaVuSans-48"/>
       <path d="M 4.890625 31.390625 
L 31.203125 31.390625 
L 31.203125 23.390625 
L 4.890625 23.390625 
z
" id="DejaVuSans-45"/>
       <path d="M 40.578125 39.3125 
Q 47.65625 37.796875 51.625 33 
Q 55.609375 28.21875 55.609375 21.1875 
Q 55.609375 10.40625 48.1875 4.484375 
Q 40.765625 -1.421875 27.09375 -1.421875 
Q 22.515625 -1.421875 17.65625 -0.515625 
Q 12.796875 0.390625 7.625 2.203125 
L 7.625 11.71875 
Q 11.71875 9.328125 16.59375 8.109375 
Q 21.484375 6.890625 26.8125 6.890625 
Q 36.078125 6.890625 40.9375 10.546875 
Q 45.796875 14.203125 45.796875 21.1875 
Q 45.796875 27.640625 41.28125 31.265625 
Q 36.765625 34.90625 28.71875 34.90625 
L 20.21875 34.90625 
L 20.21875 43.015625 
L 29.109375 43.015625 
Q 36.375 43.015625 40.234375 45.921875 
Q 44.09375 48.828125 44.09375 54.296875 
Q 44.09375 59.90625 40.109375 62.90625 
Q 36.140625 65.921875 28.71875 65.921875 
Q 24.65625 65.921875 20.015625 65.03125 
Q 15.375 64.15625 9.8125 62.3125 
L 9.8125 71.09375 
Q 15.4375 72.65625 20.34375 73.4375 
Q 25.25 74.21875 29.59375 74.21875 
Q 40.828125 74.21875 47.359375 69.109375 
Q 53.90625 64.015625 53.90625 55.328125 
Q 53.90625 49.265625 50.4375 45.09375 
Q 46.96875 40.921875 40.578125 39.3125 
z
" id="DejaVuSans-51"/>
       <path d="M 31.78125 34.625 
Q 24.75 34.625 20.71875 30.859375 
Q 16.703125 27.09375 16.703125 20.515625 
Q 16.703125 13.921875 20.71875 10.15625 
Q 24.75 6.390625 31.78125 6.390625 
Q 38.8125 6.390625 42.859375 10.171875 
Q 46.921875 13.96875 46.921875 20.515625 
Q 46.921875 27.09375 42.890625 30.859375 
Q 38.875 34.625 31.78125 34.625 
z
M 21.921875 38.8125 
Q 15.578125 40.375 12.03125 44.71875 
Q 8.5 49.078125 8.5 55.328125 
Q 8.5 64.0625 14.71875 69.140625 
Q 20.953125 74.21875 31.78125 74.21875 
Q 42.671875 74.21875 48.875 69.140625 
Q 55.078125 64.0625 55.078125 55.328125 
Q 55.078125 49.078125 51.53125 44.71875 
Q 48 40.375 41.703125 38.8125 
Q 48.828125 37.15625 52.796875 32.3125 
Q 56.78125 27.484375 56.78125 20.515625 
Q 56.78125 9.90625 50.3125 4.234375 
Q 43.84375 -1.421875 31.78125 -1.421875 
Q 19.734375 -1.421875 13.25 4.234375 
Q 6.78125 9.90625 6.78125 20.515625 
Q 6.78125 27.484375 10.78125 32.3125 
Q 14.796875 37.15625 21.921875 38.8125 
z
M 18.3125 54.390625 
Q 18.3125 48.734375 21.84375 45.5625 
Q 25.390625 42.390625 31.78125 42.390625 
Q 38.140625 42.390625 41.71875 45.5625 
Q 45.3125 48.734375 45.3125 54.390625 
Q 45.3125 60.0625 41.71875 63.234375 
Q 38.140625 66.40625 31.78125 66.40625 
Q 25.390625 66.40625 21.84375 63.234375 
Q 18.3125 60.0625 18.3125 54.390625 
z
" id="DejaVuSans-56"/>
      </defs>
      <g transform="translate(26.446617 333.329439)rotate(-45)scale(0.1 -0.1)">
       <use xlink:href="#DejaVuSans-50"/>
       <use x="63.623047" xlink:href="#DejaVuSans-48"/>
       <use x="127.246094" xlink:href="#DejaVuSans-50"/>
       <use x="190.869141" xlink:href="#DejaVuSans-48"/>
       <use x="254.492188" xlink:href="#DejaVuSans-45"/>
       <use x="290.576172" xlink:href="#DejaVuSans-48"/>
       <use x="354.199219" xlink:href="#DejaVuSans-51"/>
       <use x="417.822266" xlink:href="#DejaVuSans-45"/>
       <use x="453.90625" xlink:href="#DejaVuSans-48"/>
       <use x="517.529297" xlink:href="#DejaVuSans-56"/>
      </g>
     </g>
    </g>
    <g id="xtick_2">
     <g id="line2d_2">
      <g>
       <use style="stroke:#000000;stroke-width:0.8;" x="84.209531" xlink:href="#m6679ea2617" y="279.86258"/>
      </g>
     </g>
     <g id="text_2">
      <!-- 2020-03-15 -->
      <defs>
       <path d="M 12.40625 8.296875 
L 28.515625 8.296875 
L 28.515625 63.921875 
L 10.984375 60.40625 
L 10.984375 69.390625 
L 28.421875 72.90625 
L 38.28125 72.90625 
L 38.28125 8.296875 
L 54.390625 8.296875 
L 54.390625 0 
L 12.40625 0 
z
" id="DejaVuSans-49"/>
       <path d="M 10.796875 72.90625 
L 49.515625 72.90625 
L 49.515625 64.59375 
L 19.828125 64.59375 
L 19.828125 46.734375 
Q 21.96875 47.46875 24.109375 47.828125 
Q 26.265625 48.1875 28.421875 48.1875 
Q 40.625 48.1875 47.75 41.5 
Q 54.890625 34.8125 54.890625 23.390625 
Q 54.890625 11.625 47.5625 5.09375 
Q 40.234375 -1.421875 26.90625 -1.421875 
Q 22.3125 -1.421875 17.546875 -0.640625 
Q 12.796875 0.140625 7.71875 1.703125 
L 7.71875 11.625 
Q 12.109375 9.234375 16.796875 8.0625 
Q 21.484375 6.890625 26.703125 6.890625 
Q 35.15625 6.890625 40.078125 11.328125 
Q 45.015625 15.765625 45.015625 23.390625 
Q 45.015625 31 40.078125 35.4375 
Q 35.15625 39.890625 26.703125 39.890625 
Q 22.75 39.890625 18.8125 39.015625 
Q 14.890625 38.140625 10.796875 36.28125 
z
" id="DejaVuSans-53"/>
      </defs>
      <g transform="translate(65.613728 333.329439)rotate(-45)scale(0.1 -0.1)">
       <use xlink:href="#DejaVuSans-50"/>
       <use x="63.623047" xlink:href="#DejaVuSans-48"/>
       <use x="127.246094" xlink:href="#DejaVuSans-50"/>
       <use x="190.869141" xlink:href="#DejaVuSans-48"/>
       <use x="254.492188" xlink:href="#DejaVuSans-45"/>
       <use x="290.576172" xlink:href="#DejaVuSans-48"/>
       <use x="354.199219" xlink:href="#DejaVuSans-51"/>
       <use x="417.822266" xlink:href="#DejaVuSans-45"/>
       <use x="453.90625" xlink:href="#DejaVuSans-49"/>
       <use x="517.529297" xlink:href="#DejaVuSans-53"/>
      </g>
     </g>
    </g>
    <g id="xtick_3">
     <g id="line2d_3">
      <g>
       <use style="stroke:#000000;stroke-width:0.8;" x="123.376642" xlink:href="#m6679ea2617" y="279.86258"/>
      </g>
     </g>
     <g id="text_3">
      <!-- 2020-03-22 -->
      <g transform="translate(104.780839 333.329439)rotate(-45)scale(0.1 -0.1)">
       <use xlink:href="#DejaVuSans-50"/>
       <use x="63.623047" xlink:href="#DejaVuSans-48"/>
       <use x="127.246094" xlink:href="#DejaVuSans-50"/>
       <use x="190.869141" xlink:href="#DejaVuSans-48"/>
       <use x="254.492188" xlink:href="#DejaVuSans-45"/>
       <use x="290.576172" xlink:href="#DejaVuSans-48"/>
       <use x="354.199219" xlink:href="#DejaVuSans-51"/>
       <use x="417.822266" xlink:href="#DejaVuSans-45"/>
       <use x="453.90625" xlink:href="#DejaVuSans-50"/>
       <use x="517.529297" xlink:href="#DejaVuSans-50"/>
      </g>
     </g>
    </g>
    <g id="xtick_4">
     <g id="line2d_4">
      <g>
       <use style="stroke:#000000;stroke-width:0.8;" x="179.329658" xlink:href="#m6679ea2617" y="279.86258"/>
      </g>
     </g>
     <g id="text_4">
      <!-- 2020-04-01 -->
      <defs>
       <path d="M 37.796875 64.3125 
L 12.890625 25.390625 
L 37.796875 25.390625 
z
M 35.203125 72.90625 
L 47.609375 72.90625 
L 47.609375 25.390625 
L 58.015625 25.390625 
L 58.015625 17.1875 
L 47.609375 17.1875 
L 47.609375 0 
L 37.796875 0 
L 37.796875 17.1875 
L 4.890625 17.1875 
L 4.890625 26.703125 
z
" id="DejaVuSans-52"/>
      </defs>
      <g transform="translate(160.733854 333.329439)rotate(-45)scale(0.1 -0.1)">
       <use xlink:href="#DejaVuSans-50"/>
       <use x="63.623047" xlink:href="#DejaVuSans-48"/>
       <use x="127.246094" xlink:href="#DejaVuSans-50"/>
       <use x="190.869141" xlink:href="#DejaVuSans-48"/>
       <use x="254.492188" xlink:href="#DejaVuSans-45"/>
       <use x="290.576172" xlink:href="#DejaVuSans-48"/>
       <use x="354.199219" xlink:href="#DejaVuSans-52"/>
       <use x="417.822266" xlink:href="#DejaVuSans-45"/>
       <use x="453.90625" xlink:href="#DejaVuSans-48"/>
       <use x="517.529297" xlink:href="#DejaVuSans-49"/>
      </g>
     </g>
    </g>
    <g id="xtick_5">
     <g id="line2d_5">
      <g>
       <use style="stroke:#000000;stroke-width:0.8;" x="218.496769" xlink:href="#m6679ea2617" y="279.86258"/>
      </g>
     </g>
     <g id="text_5">
      <!-- 2020-04-08 -->
      <g transform="translate(199.900965 333.329439)rotate(-45)scale(0.1 -0.1)">
       <use xlink:href="#DejaVuSans-50"/>
       <use x="63.623047" xlink:href="#DejaVuSans-48"/>
       <use x="127.246094" xlink:href="#DejaVuSans-50"/>
       <use x="190.869141" xlink:href="#DejaVuSans-48"/>
       <use x="254.492188" xlink:href="#DejaVuSans-45"/>
       <use x="290.576172" xlink:href="#DejaVuSans-48"/>
       <use x="354.199219" xlink:href="#DejaVuSans-52"/>
       <use x="417.822266" xlink:href="#DejaVuSans-45"/>
       <use x="453.90625" xlink:href="#DejaVuSans-48"/>
       <use x="517.529297" xlink:href="#DejaVuSans-56"/>
      </g>
     </g>
    </g>
    <g id="xtick_6">
     <g id="line2d_6">
      <g>
       <use style="stroke:#000000;stroke-width:0.8;" x="257.66388" xlink:href="#m6679ea2617" y="279.86258"/>
      </g>
     </g>
     <g id="text_6">
      <!-- 2020-04-15 -->
      <g transform="translate(239.068076 333.329439)rotate(-45)scale(0.1 -0.1)">
       <use xlink:href="#DejaVuSans-50"/>
       <use x="63.623047" xlink:href="#DejaVuSans-48"/>
       <use x="127.246094" xlink:href="#DejaVuSans-50"/>
       <use x="190.869141" xlink:href="#DejaVuSans-48"/>
       <use x="254.492188" xlink:href="#DejaVuSans-45"/>
       <use x="290.576172" xlink:href="#DejaVuSans-48"/>
       <use x="354.199219" xlink:href="#DejaVuSans-52"/>
       <use x="417.822266" xlink:href="#DejaVuSans-45"/>
       <use x="453.90625" xlink:href="#DejaVuSans-49"/>
       <use x="517.529297" xlink:href="#DejaVuSans-53"/>
      </g>
     </g>
    </g>
    <g id="xtick_7">
     <g id="line2d_7">
      <g>
       <use style="stroke:#000000;stroke-width:0.8;" x="296.830991" xlink:href="#m6679ea2617" y="279.86258"/>
      </g>
     </g>
     <g id="text_7">
      <!-- 2020-04-22 -->
      <g transform="translate(278.235187 333.329439)rotate(-45)scale(0.1 -0.1)">
       <use xlink:href="#DejaVuSans-50"/>
       <use x="63.623047" xlink:href="#DejaVuSans-48"/>
       <use x="127.246094" xlink:href="#DejaVuSans-50"/>
       <use x="190.869141" xlink:href="#DejaVuSans-48"/>
       <use x="254.492188" xlink:href="#DejaVuSans-45"/>
       <use x="290.576172" xlink:href="#DejaVuSans-48"/>
       <use x="354.199219" xlink:href="#DejaVuSans-52"/>
       <use x="417.822266" xlink:href="#DejaVuSans-45"/>
       <use x="453.90625" xlink:href="#DejaVuSans-50"/>
       <use x="517.529297" xlink:href="#DejaVuSans-50"/>
      </g>
     </g>
    </g>
    <g id="xtick_8">
     <g id="line2d_8">
      <g>
       <use style="stroke:#000000;stroke-width:0.8;" x="347.188705" xlink:href="#m6679ea2617" y="279.86258"/>
      </g>
     </g>
     <g id="text_8">
      <!-- 2020-05-01 -->
      <g transform="translate(328.592901 333.329439)rotate(-45)scale(0.1 -0.1)">
       <use xlink:href="#DejaVuSans-50"/>
       <use x="63.623047" xlink:href="#DejaVuSans-48"/>
       <use x="127.246094" xlink:href="#DejaVuSans-50"/>
       <use x="190.869141" xlink:href="#DejaVuSans-48"/>
       <use x="254.492188" xlink:href="#DejaVuSans-45"/>
       <use x="290.576172" xlink:href="#DejaVuSans-48"/>
       <use x="354.199219" xlink:href="#DejaVuSans-53"/>
       <use x="417.822266" xlink:href="#DejaVuSans-45"/>
       <use x="453.90625" xlink:href="#DejaVuSans-48"/>
       <use x="517.529297" xlink:href="#DejaVuSans-49"/>
      </g>
     </g>
    </g>
    <g id="xtick_9">
     <g id="line2d_9">
      <g>
       <use style="stroke:#000000;stroke-width:0.8;" x="386.355816" xlink:href="#m6679ea2617" y="279.86258"/>
      </g>
     </g>
     <g id="text_9">
      <!-- 2020-05-08 -->
      <g transform="translate(367.760012 333.329439)rotate(-45)scale(0.1 -0.1)">
       <use xlink:href="#DejaVuSans-50"/>
       <use x="63.623047" xlink:href="#DejaVuSans-48"/>
       <use x="127.246094" xlink:href="#DejaVuSans-50"/>
       <use x="190.869141" xlink:href="#DejaVuSans-48"/>
       <use x="254.492188" xlink:href="#DejaVuSans-45"/>
       <use x="290.576172" xlink:href="#DejaVuSans-48"/>
       <use x="354.199219" xlink:href="#DejaVuSans-53"/>
       <use x="417.822266" xlink:href="#DejaVuSans-45"/>
       <use x="453.90625" xlink:href="#DejaVuSans-48"/>
       <use x="517.529297" xlink:href="#DejaVuSans-56"/>
      </g>
     </g>
    </g>
    <g id="xtick_10">
     <g id="line2d_10">
      <g>
       <use style="stroke:#000000;stroke-width:0.8;" x="425.522927" xlink:href="#m6679ea2617" y="279.86258"/>
      </g>
     </g>
     <g id="text_10">
      <!-- 2020-05-15 -->
      <g transform="translate(406.927123 333.329439)rotate(-45)scale(0.1 -0.1)">
       <use xlink:href="#DejaVuSans-50"/>
       <use x="63.623047" xlink:href="#DejaVuSans-48"/>
       <use x="127.246094" xlink:href="#DejaVuSans-50"/>
       <use x="190.869141" xlink:href="#DejaVuSans-48"/>
       <use x="254.492188" xlink:href="#DejaVuSans-45"/>
       <use x="290.576172" xlink:href="#DejaVuSans-48"/>
       <use x="354.199219" xlink:href="#DejaVuSans-53"/>
       <use x="417.822266" xlink:href="#DejaVuSans-45"/>
       <use x="453.90625" xlink:href="#DejaVuSans-49"/>
       <use x="517.529297" xlink:href="#DejaVuSans-53"/>
      </g>
     </g>
    </g>
   </g>
   <g id="matplotlib.axis_2">
    <g id="ytick_1">
     <g id="line2d_11">
      <defs>
       <path d="M 0 0 
L -3.5 0 
" id="m819dc9cdef" style="stroke:#000000;stroke-width:0.8;"/>
      </defs>
      <g>
       <use style="stroke:#000000;stroke-width:0.8;" x="44.203125" xlink:href="#m819dc9cdef" y="279.86258"/>
      </g>
     </g>
     <g id="text_11">
      <!-- 0 -->
      <g transform="translate(30.840625 283.661798)scale(0.1 -0.1)">
       <use xlink:href="#DejaVuSans-48"/>
      </g>
     </g>
    </g>
    <g id="ytick_2">
     <g id="line2d_12">
      <g>
       <use style="stroke:#000000;stroke-width:0.8;" x="44.203125" xlink:href="#m819dc9cdef" y="229.617467"/>
      </g>
     </g>
     <g id="text_12">
      <!-- 10 -->
      <g transform="translate(24.478125 233.416685)scale(0.1 -0.1)">
       <use xlink:href="#DejaVuSans-49"/>
       <use x="63.623047" xlink:href="#DejaVuSans-48"/>
      </g>
     </g>
    </g>
    <g id="ytick_3">
     <g id="line2d_13">
      <g>
       <use style="stroke:#000000;stroke-width:0.8;" x="44.203125" xlink:href="#m819dc9cdef" y="179.372354"/>
      </g>
     </g>
     <g id="text_13">
      <!-- 20 -->
      <g transform="translate(24.478125 183.171573)scale(0.1 -0.1)">
       <use xlink:href="#DejaVuSans-50"/>
       <use x="63.623047" xlink:href="#DejaVuSans-48"/>
      </g>
     </g>
    </g>
    <g id="ytick_4">
     <g id="line2d_14">
      <g>
       <use style="stroke:#000000;stroke-width:0.8;" x="44.203125" xlink:href="#m819dc9cdef" y="129.127241"/>
      </g>
     </g>
     <g id="text_14">
      <!-- 30 -->
      <g transform="translate(24.478125 132.92646)scale(0.1 -0.1)">
       <use xlink:href="#DejaVuSans-51"/>
       <use x="63.623047" xlink:href="#DejaVuSans-48"/>
      </g>
     </g>
    </g>
    <g id="ytick_5">
     <g id="line2d_15">
      <g>
       <use style="stroke:#000000;stroke-width:0.8;" x="44.203125" xlink:href="#m819dc9cdef" y="78.882128"/>
      </g>
     </g>
     <g id="text_15">
      <!-- 40 -->
      <g transform="translate(24.478125 82.681347)scale(0.1 -0.1)">
       <use xlink:href="#DejaVuSans-52"/>
       <use x="63.623047" xlink:href="#DejaVuSans-48"/>
      </g>
     </g>
    </g>
    <g id="ytick_6">
     <g id="line2d_16">
      <g>
       <use style="stroke:#000000;stroke-width:0.8;" x="44.203125" xlink:href="#m819dc9cdef" y="28.637015"/>
      </g>
     </g>
     <g id="text_16">
      <!-- 50 -->
      <g transform="translate(24.478125 32.436234)scale(0.1 -0.1)">
       <use xlink:href="#DejaVuSans-53"/>
       <use x="63.623047" xlink:href="#DejaVuSans-48"/>
      </g>
     </g>
    </g>
    <g id="text_17">
     <!-- GA fallecidos (Media 3 días) -->
     <defs>
      <path d="M 59.515625 10.40625 
L 59.515625 29.984375 
L 43.40625 29.984375 
L 43.40625 38.09375 
L 69.28125 38.09375 
L 69.28125 6.78125 
Q 63.578125 2.734375 56.6875 0.65625 
Q 49.8125 -1.421875 42 -1.421875 
Q 24.90625 -1.421875 15.25 8.5625 
Q 5.609375 18.5625 5.609375 36.375 
Q 5.609375 54.25 15.25 64.234375 
Q 24.90625 74.21875 42 74.21875 
Q 49.125 74.21875 55.546875 72.453125 
Q 61.96875 70.703125 67.390625 67.28125 
L 67.390625 56.78125 
Q 61.921875 61.421875 55.765625 63.765625 
Q 49.609375 66.109375 42.828125 66.109375 
Q 29.4375 66.109375 22.71875 58.640625 
Q 16.015625 51.171875 16.015625 36.375 
Q 16.015625 21.625 22.71875 14.15625 
Q 29.4375 6.6875 42.828125 6.6875 
Q 48.046875 6.6875 52.140625 7.59375 
Q 56.25 8.5 59.515625 10.40625 
z
" id="DejaVuSans-71"/>
      <path d="M 34.1875 63.1875 
L 20.796875 26.90625 
L 47.609375 26.90625 
z
M 28.609375 72.90625 
L 39.796875 72.90625 
L 67.578125 0 
L 57.328125 0 
L 50.6875 18.703125 
L 17.828125 18.703125 
L 11.1875 0 
L 0.78125 0 
z
" id="DejaVuSans-65"/>
      <path id="DejaVuSans-32"/>
      <path d="M 37.109375 75.984375 
L 37.109375 68.5 
L 28.515625 68.5 
Q 23.6875 68.5 21.796875 66.546875 
Q 19.921875 64.59375 19.921875 59.515625 
L 19.921875 54.6875 
L 34.71875 54.6875 
L 34.71875 47.703125 
L 19.921875 47.703125 
L 19.921875 0 
L 10.890625 0 
L 10.890625 47.703125 
L 2.296875 47.703125 
L 2.296875 54.6875 
L 10.890625 54.6875 
L 10.890625 58.5 
Q 10.890625 67.625 15.140625 71.796875 
Q 19.390625 75.984375 28.609375 75.984375 
z
" id="DejaVuSans-102"/>
      <path d="M 34.28125 27.484375 
Q 23.390625 27.484375 19.1875 25 
Q 14.984375 22.515625 14.984375 16.5 
Q 14.984375 11.71875 18.140625 8.90625 
Q 21.296875 6.109375 26.703125 6.109375 
Q 34.1875 6.109375 38.703125 11.40625 
Q 43.21875 16.703125 43.21875 25.484375 
L 43.21875 27.484375 
z
M 52.203125 31.203125 
L 52.203125 0 
L 43.21875 0 
L 43.21875 8.296875 
Q 40.140625 3.328125 35.546875 0.953125 
Q 30.953125 -1.421875 24.3125 -1.421875 
Q 15.921875 -1.421875 10.953125 3.296875 
Q 6 8.015625 6 15.921875 
Q 6 25.140625 12.171875 29.828125 
Q 18.359375 34.515625 30.609375 34.515625 
L 43.21875 34.515625 
L 43.21875 35.40625 
Q 43.21875 41.609375 39.140625 45 
Q 35.0625 48.390625 27.6875 48.390625 
Q 23 48.390625 18.546875 47.265625 
Q 14.109375 46.140625 10.015625 43.890625 
L 10.015625 52.203125 
Q 14.9375 54.109375 19.578125 55.046875 
Q 24.21875 56 28.609375 56 
Q 40.484375 56 46.34375 49.84375 
Q 52.203125 43.703125 52.203125 31.203125 
z
" id="DejaVuSans-97"/>
      <path d="M 9.421875 75.984375 
L 18.40625 75.984375 
L 18.40625 0 
L 9.421875 0 
z
" id="DejaVuSans-108"/>
      <path d="M 56.203125 29.59375 
L 56.203125 25.203125 
L 14.890625 25.203125 
Q 15.484375 15.921875 20.484375 11.0625 
Q 25.484375 6.203125 34.421875 6.203125 
Q 39.59375 6.203125 44.453125 7.46875 
Q 49.3125 8.734375 54.109375 11.28125 
L 54.109375 2.78125 
Q 49.265625 0.734375 44.1875 -0.34375 
Q 39.109375 -1.421875 33.890625 -1.421875 
Q 20.796875 -1.421875 13.15625 6.1875 
Q 5.515625 13.8125 5.515625 26.8125 
Q 5.515625 40.234375 12.765625 48.109375 
Q 20.015625 56 32.328125 56 
Q 43.359375 56 49.78125 48.890625 
Q 56.203125 41.796875 56.203125 29.59375 
z
M 47.21875 32.234375 
Q 47.125 39.59375 43.09375 43.984375 
Q 39.0625 48.390625 32.421875 48.390625 
Q 24.90625 48.390625 20.390625 44.140625 
Q 15.875 39.890625 15.1875 32.171875 
z
" id="DejaVuSans-101"/>
      <path d="M 48.78125 52.59375 
L 48.78125 44.1875 
Q 44.96875 46.296875 41.140625 47.34375 
Q 37.3125 48.390625 33.40625 48.390625 
Q 24.65625 48.390625 19.8125 42.84375 
Q 14.984375 37.3125 14.984375 27.296875 
Q 14.984375 17.28125 19.8125 11.734375 
Q 24.65625 6.203125 33.40625 6.203125 
Q 37.3125 6.203125 41.140625 7.25 
Q 44.96875 8.296875 48.78125 10.40625 
L 48.78125 2.09375 
Q 45.015625 0.34375 40.984375 -0.53125 
Q 36.96875 -1.421875 32.421875 -1.421875 
Q 20.0625 -1.421875 12.78125 6.34375 
Q 5.515625 14.109375 5.515625 27.296875 
Q 5.515625 40.671875 12.859375 48.328125 
Q 20.21875 56 33.015625 56 
Q 37.15625 56 41.109375 55.140625 
Q 45.0625 54.296875 48.78125 52.59375 
z
" id="DejaVuSans-99"/>
      <path d="M 9.421875 54.6875 
L 18.40625 54.6875 
L 18.40625 0 
L 9.421875 0 
z
M 9.421875 75.984375 
L 18.40625 75.984375 
L 18.40625 64.59375 
L 9.421875 64.59375 
z
" id="DejaVuSans-105"/>
      <path d="M 45.40625 46.390625 
L 45.40625 75.984375 
L 54.390625 75.984375 
L 54.390625 0 
L 45.40625 0 
L 45.40625 8.203125 
Q 42.578125 3.328125 38.25 0.953125 
Q 33.9375 -1.421875 27.875 -1.421875 
Q 17.96875 -1.421875 11.734375 6.484375 
Q 5.515625 14.40625 5.515625 27.296875 
Q 5.515625 40.1875 11.734375 48.09375 
Q 17.96875 56 27.875 56 
Q 33.9375 56 38.25 53.625 
Q 42.578125 51.265625 45.40625 46.390625 
z
M 14.796875 27.296875 
Q 14.796875 17.390625 18.875 11.75 
Q 22.953125 6.109375 30.078125 6.109375 
Q 37.203125 6.109375 41.296875 11.75 
Q 45.40625 17.390625 45.40625 27.296875 
Q 45.40625 37.203125 41.296875 42.84375 
Q 37.203125 48.484375 30.078125 48.484375 
Q 22.953125 48.484375 18.875 42.84375 
Q 14.796875 37.203125 14.796875 27.296875 
z
" id="DejaVuSans-100"/>
      <path d="M 30.609375 48.390625 
Q 23.390625 48.390625 19.1875 42.75 
Q 14.984375 37.109375 14.984375 27.296875 
Q 14.984375 17.484375 19.15625 11.84375 
Q 23.34375 6.203125 30.609375 6.203125 
Q 37.796875 6.203125 41.984375 11.859375 
Q 46.1875 17.53125 46.1875 27.296875 
Q 46.1875 37.015625 41.984375 42.703125 
Q 37.796875 48.390625 30.609375 48.390625 
z
M 30.609375 56 
Q 42.328125 56 49.015625 48.375 
Q 55.71875 40.765625 55.71875 27.296875 
Q 55.71875 13.875 49.015625 6.21875 
Q 42.328125 -1.421875 30.609375 -1.421875 
Q 18.84375 -1.421875 12.171875 6.21875 
Q 5.515625 13.875 5.515625 27.296875 
Q 5.515625 40.765625 12.171875 48.375 
Q 18.84375 56 30.609375 56 
z
" id="DejaVuSans-111"/>
      <path d="M 44.28125 53.078125 
L 44.28125 44.578125 
Q 40.484375 46.53125 36.375 47.5 
Q 32.28125 48.484375 27.875 48.484375 
Q 21.1875 48.484375 17.84375 46.4375 
Q 14.5 44.390625 14.5 40.28125 
Q 14.5 37.15625 16.890625 35.375 
Q 19.28125 33.59375 26.515625 31.984375 
L 29.59375 31.296875 
Q 39.15625 29.25 43.1875 25.515625 
Q 47.21875 21.78125 47.21875 15.09375 
Q 47.21875 7.46875 41.1875 3.015625 
Q 35.15625 -1.421875 24.609375 -1.421875 
Q 20.21875 -1.421875 15.453125 -0.5625 
Q 10.6875 0.296875 5.421875 2 
L 5.421875 11.28125 
Q 10.40625 8.6875 15.234375 7.390625 
Q 20.0625 6.109375 24.8125 6.109375 
Q 31.15625 6.109375 34.5625 8.28125 
Q 37.984375 10.453125 37.984375 14.40625 
Q 37.984375 18.0625 35.515625 20.015625 
Q 33.0625 21.96875 24.703125 23.78125 
L 21.578125 24.515625 
Q 13.234375 26.265625 9.515625 29.90625 
Q 5.8125 33.546875 5.8125 39.890625 
Q 5.8125 47.609375 11.28125 51.796875 
Q 16.75 56 26.8125 56 
Q 31.78125 56 36.171875 55.265625 
Q 40.578125 54.546875 44.28125 53.078125 
z
" id="DejaVuSans-115"/>
      <path d="M 31 75.875 
Q 24.46875 64.65625 21.28125 53.65625 
Q 18.109375 42.671875 18.109375 31.390625 
Q 18.109375 20.125 21.3125 9.0625 
Q 24.515625 -2 31 -13.1875 
L 23.1875 -13.1875 
Q 15.875 -1.703125 12.234375 9.375 
Q 8.59375 20.453125 8.59375 31.390625 
Q 8.59375 42.28125 12.203125 53.3125 
Q 15.828125 64.359375 23.1875 75.875 
z
" id="DejaVuSans-40"/>
      <path d="M 9.8125 72.90625 
L 24.515625 72.90625 
L 43.109375 23.296875 
L 61.8125 72.90625 
L 76.515625 72.90625 
L 76.515625 0 
L 66.890625 0 
L 66.890625 64.015625 
L 48.09375 14.015625 
L 38.1875 14.015625 
L 19.390625 64.015625 
L 19.390625 0 
L 9.8125 0 
z
" id="DejaVuSans-77"/>
      <path d="M 20.65625 79.984375 
L 30.375 79.984375 
L 14.46875 61.625 
L 6.984375 61.625 
z
M 9.421875 54.6875 
L 18.40625 54.6875 
L 18.40625 0 
L 9.421875 0 
z
M 13.921875 56 
z
" id="DejaVuSans-237"/>
      <path d="M 8.015625 75.875 
L 15.828125 75.875 
Q 23.140625 64.359375 26.78125 53.3125 
Q 30.421875 42.28125 30.421875 31.390625 
Q 30.421875 20.453125 26.78125 9.375 
Q 23.140625 -1.703125 15.828125 -13.1875 
L 8.015625 -13.1875 
Q 14.5 -2 17.703125 9.0625 
Q 20.90625 20.125 20.90625 31.390625 
Q 20.90625 42.671875 17.703125 53.65625 
Q 14.5 64.65625 8.015625 75.875 
z
" id="DejaVuSans-41"/>
     </defs>
     <g transform="translate(18.398438 214.970352)rotate(-90)scale(0.1 -0.1)">
      <use xlink:href="#DejaVuSans-71"/>
      <use x="77.490234" xlink:href="#DejaVuSans-65"/>
      <use x="145.898438" xlink:href="#DejaVuSans-32"/>
      <use x="177.685547" xlink:href="#DejaVuSans-102"/>
      <use x="212.890625" xlink:href="#DejaVuSans-97"/>
      <use x="274.169922" xlink:href="#DejaVuSans-108"/>
      <use x="301.953125" xlink:href="#DejaVuSans-108"/>
      <use x="329.736328" xlink:href="#DejaVuSans-101"/>
      <use x="391.259766" xlink:href="#DejaVuSans-99"/>
      <use x="446.240234" xlink:href="#DejaVuSans-105"/>
      <use x="474.023438" xlink:href="#DejaVuSans-100"/>
      <use x="537.5" xlink:href="#DejaVuSans-111"/>
      <use x="598.681641" xlink:href="#DejaVuSans-115"/>
      <use x="650.78125" xlink:href="#DejaVuSans-32"/>
      <use x="682.568359" xlink:href="#DejaVuSans-40"/>
      <use x="721.582031" xlink:href="#DejaVuSans-77"/>
      <use x="807.861328" xlink:href="#DejaVuSans-101"/>
      <use x="869.384766" xlink:href="#DejaVuSans-100"/>
      <use x="932.861328" xlink:href="#DejaVuSans-105"/>
      <use x="960.644531" xlink:href="#DejaVuSans-97"/>
      <use x="1021.923828" xlink:href="#DejaVuSans-32"/>
      <use x="1053.710938" xlink:href="#DejaVuSans-51"/>
      <use x="1117.333984" xlink:href="#DejaVuSans-32"/>
      <use x="1149.121094" xlink:href="#DejaVuSans-100"/>
      <use x="1212.597656" xlink:href="#DejaVuSans-237"/>
      <use x="1240.380859" xlink:href="#DejaVuSans-97"/>
      <use x="1301.660156" xlink:href="#DejaVuSans-115"/>
      <use x="1353.759766" xlink:href="#DejaVuSans-41"/>
     </g>
    </g>
   </g>
   <g id="line2d_17">
    <path clip-path="url(#p2c8685b60a)" d="M 61.828325 279.86258 
L 67.423627 279.86258 
L 73.018928 279.86258 
L 78.61423 276.512905 
L 84.209531 276.512905 
L 89.804833 274.838068 
L 95.400134 278.187743 
L 100.995436 276.512905 
L 106.590737 276.512905 
L 112.186039 269.813557 
L 117.781341 266.463883 
L 123.376642 258.089697 
L 128.971944 261.439372 
L 134.567245 254.740023 
L 140.162547 256.41486 
L 145.757848 241.341326 
L 151.35315 246.365838 
L 156.948452 232.967141 
L 162.543753 241.341326 
L 168.139055 217.893607 
L 173.734356 207.844584 
L 179.329658 189.421376 
L 184.924959 189.421376 
L 190.520261 186.071702 
L 196.115563 189.421376 
L 201.710864 192.771051 
L 207.306166 204.49491 
L 212.901467 214.543933 
L 218.496769 211.194259 
L 224.09207 214.543933 
L 229.687372 199.470399 
L 235.282674 207.844584 
L 240.877975 211.194259 
L 246.473277 231.292304 
L 252.068578 237.991652 
L 257.66388 236.316815 
L 263.259181 229.617467 
L 268.854483 221.243281 
L 274.449784 219.568444 
L 280.045086 226.267793 
L 285.640388 236.316815 
L 291.235689 243.016164 
L 296.830991 241.341326 
L 302.426292 243.016164 
L 308.021594 246.365838 
L 313.616895 248.040675 
L 319.212197 241.341326 
L 324.807499 239.666489 
L 330.4028 23.612504 
L 335.998102 42.035712 
L 341.593403 40.360875 
L 347.188705 263.114209 
L 352.784006 253.065186 
L 358.379308 256.41486 
L 363.97461 253.065186 
L 369.569911 248.040675 
L 375.165213 251.390349 
L 380.760514 254.740023 
L 386.355816 264.789046 
L 391.951117 269.813557 
L 397.546419 271.488394 
L 403.141721 273.163231 
L 408.737022 271.488394 
L 414.332324 266.463883 
" style="fill:none;stroke:#1f77b4;stroke-linecap:square;stroke-width:1.5;"/>
    <defs>
     <path d="M 0 1.5 
C 0.397805 1.5 0.77937 1.341951 1.06066 1.06066 
C 1.341951 0.77937 1.5 0.397805 1.5 0 
C 1.5 -0.397805 1.341951 -0.77937 1.06066 -1.06066 
C 0.77937 -1.341951 0.397805 -1.5 0 -1.5 
C -0.397805 -1.5 -0.77937 -1.341951 -1.06066 -1.06066 
C -1.341951 -0.77937 -1.5 -0.397805 -1.5 0 
C -1.5 0.397805 -1.341951 0.77937 -1.06066 1.06066 
C -0.77937 1.341951 -0.397805 1.5 0 1.5 
z
" id="m53a8a4ef02" style="stroke:#1f77b4;"/>
    </defs>
    <g clip-path="url(#p2c8685b60a)">
     <use style="fill:#1f77b4;stroke:#1f77b4;" x="61.828325" xlink:href="#m53a8a4ef02" y="279.86258"/>
     <use style="fill:#1f77b4;stroke:#1f77b4;" x="67.423627" xlink:href="#m53a8a4ef02" y="279.86258"/>
     <use style="fill:#1f77b4;stroke:#1f77b4;" x="73.018928" xlink:href="#m53a8a4ef02" y="279.86258"/>
     <use style="fill:#1f77b4;stroke:#1f77b4;" x="78.61423" xlink:href="#m53a8a4ef02" y="276.512905"/>
     <use style="fill:#1f77b4;stroke:#1f77b4;" x="84.209531" xlink:href="#m53a8a4ef02" y="276.512905"/>
     <use style="fill:#1f77b4;stroke:#1f77b4;" x="89.804833" xlink:href="#m53a8a4ef02" y="274.838068"/>
     <use style="fill:#1f77b4;stroke:#1f77b4;" x="95.400134" xlink:href="#m53a8a4ef02" y="278.187743"/>
     <use style="fill:#1f77b4;stroke:#1f77b4;" x="100.995436" xlink:href="#m53a8a4ef02" y="276.512905"/>
     <use style="fill:#1f77b4;stroke:#1f77b4;" x="106.590737" xlink:href="#m53a8a4ef02" y="276.512905"/>
     <use style="fill:#1f77b4;stroke:#1f77b4;" x="112.186039" xlink:href="#m53a8a4ef02" y="269.813557"/>
     <use style="fill:#1f77b4;stroke:#1f77b4;" x="117.781341" xlink:href="#m53a8a4ef02" y="266.463883"/>
     <use style="fill:#1f77b4;stroke:#1f77b4;" x="123.376642" xlink:href="#m53a8a4ef02" y="258.089697"/>
     <use style="fill:#1f77b4;stroke:#1f77b4;" x="128.971944" xlink:href="#m53a8a4ef02" y="261.439372"/>
     <use style="fill:#1f77b4;stroke:#1f77b4;" x="134.567245" xlink:href="#m53a8a4ef02" y="254.740023"/>
     <use style="fill:#1f77b4;stroke:#1f77b4;" x="140.162547" xlink:href="#m53a8a4ef02" y="256.41486"/>
     <use style="fill:#1f77b4;stroke:#1f77b4;" x="145.757848" xlink:href="#m53a8a4ef02" y="241.341326"/>
     <use style="fill:#1f77b4;stroke:#1f77b4;" x="151.35315" xlink:href="#m53a8a4ef02" y="246.365838"/>
     <use style="fill:#1f77b4;stroke:#1f77b4;" x="156.948452" xlink:href="#m53a8a4ef02" y="232.967141"/>
     <use style="fill:#1f77b4;stroke:#1f77b4;" x="162.543753" xlink:href="#m53a8a4ef02" y="241.341326"/>
     <use style="fill:#1f77b4;stroke:#1f77b4;" x="168.139055" xlink:href="#m53a8a4ef02" y="217.893607"/>
     <use style="fill:#1f77b4;stroke:#1f77b4;" x="173.734356" xlink:href="#m53a8a4ef02" y="207.844584"/>
     <use style="fill:#1f77b4;stroke:#1f77b4;" x="179.329658" xlink:href="#m53a8a4ef02" y="189.421376"/>
     <use style="fill:#1f77b4;stroke:#1f77b4;" x="184.924959" xlink:href="#m53a8a4ef02" y="189.421376"/>
     <use style="fill:#1f77b4;stroke:#1f77b4;" x="190.520261" xlink:href="#m53a8a4ef02" y="186.071702"/>
     <use style="fill:#1f77b4;stroke:#1f77b4;" x="196.115563" xlink:href="#m53a8a4ef02" y="189.421376"/>
     <use style="fill:#1f77b4;stroke:#1f77b4;" x="201.710864" xlink:href="#m53a8a4ef02" y="192.771051"/>
     <use style="fill:#1f77b4;stroke:#1f77b4;" x="207.306166" xlink:href="#m53a8a4ef02" y="204.49491"/>
     <use style="fill:#1f77b4;stroke:#1f77b4;" x="212.901467" xlink:href="#m53a8a4ef02" y="214.543933"/>
     <use style="fill:#1f77b4;stroke:#1f77b4;" x="218.496769" xlink:href="#m53a8a4ef02" y="211.194259"/>
     <use style="fill:#1f77b4;stroke:#1f77b4;" x="224.09207" xlink:href="#m53a8a4ef02" y="214.543933"/>
     <use style="fill:#1f77b4;stroke:#1f77b4;" x="229.687372" xlink:href="#m53a8a4ef02" y="199.470399"/>
     <use style="fill:#1f77b4;stroke:#1f77b4;" x="235.282674" xlink:href="#m53a8a4ef02" y="207.844584"/>
     <use style="fill:#1f77b4;stroke:#1f77b4;" x="240.877975" xlink:href="#m53a8a4ef02" y="211.194259"/>
     <use style="fill:#1f77b4;stroke:#1f77b4;" x="246.473277" xlink:href="#m53a8a4ef02" y="231.292304"/>
     <use style="fill:#1f77b4;stroke:#1f77b4;" x="252.068578" xlink:href="#m53a8a4ef02" y="237.991652"/>
     <use style="fill:#1f77b4;stroke:#1f77b4;" x="257.66388" xlink:href="#m53a8a4ef02" y="236.316815"/>
     <use style="fill:#1f77b4;stroke:#1f77b4;" x="263.259181" xlink:href="#m53a8a4ef02" y="229.617467"/>
     <use style="fill:#1f77b4;stroke:#1f77b4;" x="268.854483" xlink:href="#m53a8a4ef02" y="221.243281"/>
     <use style="fill:#1f77b4;stroke:#1f77b4;" x="274.449784" xlink:href="#m53a8a4ef02" y="219.568444"/>
     <use style="fill:#1f77b4;stroke:#1f77b4;" x="280.045086" xlink:href="#m53a8a4ef02" y="226.267793"/>
     <use style="fill:#1f77b4;stroke:#1f77b4;" x="285.640388" xlink:href="#m53a8a4ef02" y="236.316815"/>
     <use style="fill:#1f77b4;stroke:#1f77b4;" x="291.235689" xlink:href="#m53a8a4ef02" y="243.016164"/>
     <use style="fill:#1f77b4;stroke:#1f77b4;" x="296.830991" xlink:href="#m53a8a4ef02" y="241.341326"/>
     <use style="fill:#1f77b4;stroke:#1f77b4;" x="302.426292" xlink:href="#m53a8a4ef02" y="243.016164"/>
     <use style="fill:#1f77b4;stroke:#1f77b4;" x="308.021594" xlink:href="#m53a8a4ef02" y="246.365838"/>
     <use style="fill:#1f77b4;stroke:#1f77b4;" x="313.616895" xlink:href="#m53a8a4ef02" y="248.040675"/>
     <use style="fill:#1f77b4;stroke:#1f77b4;" x="319.212197" xlink:href="#m53a8a4ef02" y="241.341326"/>
     <use style="fill:#1f77b4;stroke:#1f77b4;" x="324.807499" xlink:href="#m53a8a4ef02" y="239.666489"/>
     <use style="fill:#1f77b4;stroke:#1f77b4;" x="330.4028" xlink:href="#m53a8a4ef02" y="23.612504"/>
     <use style="fill:#1f77b4;stroke:#1f77b4;" x="335.998102" xlink:href="#m53a8a4ef02" y="42.035712"/>
     <use style="fill:#1f77b4;stroke:#1f77b4;" x="341.593403" xlink:href="#m53a8a4ef02" y="40.360875"/>
     <use style="fill:#1f77b4;stroke:#1f77b4;" x="347.188705" xlink:href="#m53a8a4ef02" y="263.114209"/>
     <use style="fill:#1f77b4;stroke:#1f77b4;" x="352.784006" xlink:href="#m53a8a4ef02" y="253.065186"/>
     <use style="fill:#1f77b4;stroke:#1f77b4;" x="358.379308" xlink:href="#m53a8a4ef02" y="256.41486"/>
     <use style="fill:#1f77b4;stroke:#1f77b4;" x="363.97461" xlink:href="#m53a8a4ef02" y="253.065186"/>
     <use style="fill:#1f77b4;stroke:#1f77b4;" x="369.569911" xlink:href="#m53a8a4ef02" y="248.040675"/>
     <use style="fill:#1f77b4;stroke:#1f77b4;" x="375.165213" xlink:href="#m53a8a4ef02" y="251.390349"/>
     <use style="fill:#1f77b4;stroke:#1f77b4;" x="380.760514" xlink:href="#m53a8a4ef02" y="254.740023"/>
     <use style="fill:#1f77b4;stroke:#1f77b4;" x="386.355816" xlink:href="#m53a8a4ef02" y="264.789046"/>
     <use style="fill:#1f77b4;stroke:#1f77b4;" x="391.951117" xlink:href="#m53a8a4ef02" y="269.813557"/>
     <use style="fill:#1f77b4;stroke:#1f77b4;" x="397.546419" xlink:href="#m53a8a4ef02" y="271.488394"/>
     <use style="fill:#1f77b4;stroke:#1f77b4;" x="403.141721" xlink:href="#m53a8a4ef02" y="273.163231"/>
     <use style="fill:#1f77b4;stroke:#1f77b4;" x="408.737022" xlink:href="#m53a8a4ef02" y="271.488394"/>
     <use style="fill:#1f77b4;stroke:#1f77b4;" x="414.332324" xlink:href="#m53a8a4ef02" y="266.463883"/>
    </g>
   </g>
   <g id="patch_3">
    <path d="M 44.203125 279.86258 
L 44.203125 10.8 
" style="fill:none;stroke:#000000;stroke-linecap:square;stroke-linejoin:miter;stroke-width:0.8;"/>
   </g>
   <g id="patch_4">
    <path d="M 431.957524 279.86258 
L 431.957524 10.8 
" style="fill:none;stroke:#000000;stroke-linecap:square;stroke-linejoin:miter;stroke-width:0.8;"/>
   </g>
   <g id="patch_5">
    <path d="M 44.203125 279.86258 
L 431.957524 279.86258 
" style="fill:none;stroke:#000000;stroke-linecap:square;stroke-linejoin:miter;stroke-width:0.8;"/>
   </g>
   <g id="patch_6">
    <path d="M 44.203125 10.8 
L 431.957524 10.8 
" style="fill:none;stroke:#000000;stroke-linecap:square;stroke-linejoin:miter;stroke-width:0.8;"/>
   </g>
  </g>
 </g>
 <defs>
  <clipPath id="p2c8685b60a">
   <rect height="269.06258" width="387.754399" x="44.203125" y="10.8"/>
  </clipPath>
 </defs>
</svg>
