<?xml version="1.0" encoding="utf-8" standalone="no"?>
<!DOCTYPE svg PUBLIC "-//W3C//DTD SVG 1.1//EN"
  "http://www.w3.org/Graphics/SVG/1.1/DTD/svg11.dtd">
<!-- Created with matplotlib (https://matplotlib.org/) -->
<svg height="345.6pt" version="1.1" viewBox="0 0 460.8 345.6" width="460.8pt" xmlns="http://www.w3.org/2000/svg" xmlns:xlink="http://www.w3.org/1999/xlink">
 <defs>
  <style type="text/css">
*{stroke-linecap:butt;stroke-linejoin:round;}
  </style>
 </defs>
 <g id="figure_1">
  <g id="patch_1">
   <path d="M 0 345.6 
L 460.8 345.6 
L 460.8 0 
L 0 0 
z
" style="fill:#ffffff;"/>
  </g>
  <g id="axes_1">
   <g id="patch_2">
    <path d="M 44.203125 279.86258 
L 446.969155 279.86258 
L 446.969155 10.8 
L 44.203125 10.8 
z
" style="fill:#ffffff;"/>
   </g>
   <g id="matplotlib.axis_1">
    <g id="xtick_1">
     <g id="line2d_1">
      <defs>
       <path d="M 0 0 
L 0 3.5 
" id="m2a2bbcf229" style="stroke:#000000;stroke-width:0.8;"/>
      </defs>
      <g>
       <use style="stroke:#000000;stroke-width:0.8;" x="99.656419" xlink:href="#m2a2bbcf229" y="279.86258"/>
      </g>
     </g>
     <g id="text_1">
      <!-- 2020-03-15 -->
      <defs>
       <path d="M 19.1875 8.296875 
L 53.609375 8.296875 
L 53.609375 0 
L 7.328125 0 
L 7.328125 8.296875 
Q 12.9375 14.109375 22.625 23.890625 
Q 32.328125 33.6875 34.8125 36.53125 
Q 39.546875 41.84375 41.421875 45.53125 
Q 43.3125 49.21875 43.3125 52.78125 
Q 43.3125 58.59375 39.234375 62.25 
Q 35.15625 65.921875 28.609375 65.921875 
Q 23.96875 65.921875 18.8125 64.3125 
Q 13.671875 62.703125 7.8125 59.421875 
L 7.8125 69.390625 
Q 13.765625 71.78125 18.9375 73 
Q 24.125 74.21875 28.421875 74.21875 
Q 39.75 74.21875 46.484375 68.546875 
Q 53.21875 62.890625 53.21875 53.421875 
Q 53.21875 48.921875 51.53125 44.890625 
Q 49.859375 40.875 45.40625 35.40625 
Q 44.1875 33.984375 37.640625 27.21875 
Q 31.109375 20.453125 19.1875 8.296875 
z
" id="DejaVuSans-50"/>
       <path d="M 31.78125 66.40625 
Q 24.171875 66.40625 20.328125 58.90625 
Q 16.5 51.421875 16.5 36.375 
Q 16.5 21.390625 20.328125 13.890625 
Q 24.171875 6.390625 31.78125 6.390625 
Q 39.453125 6.390625 43.28125 13.890625 
Q 47.125 21.390625 47.125 36.375 
Q 47.125 51.421875 43.28125 58.90625 
Q 39.453125 66.40625 31.78125 66.40625 
z
M 31.78125 74.21875 
Q 44.046875 74.21875 50.515625 64.515625 
Q 56.984375 54.828125 56.984375 36.375 
Q 56.984375 17.96875 50.515625 8.265625 
Q 44.046875 -1.421875 31.78125 -1.421875 
Q 19.53125 -1.421875 13.0625 8.265625 
Q 6.59375 17.96875 6.59375 36.375 
Q 6.59375 54.828125 13.0625 64.515625 
Q 19.53125 74.21875 31.78125 74.21875 
z
" id="DejaVuSans-48"/>
       <path d="M 4.890625 31.390625 
L 31.203125 31.390625 
L 31.203125 23.390625 
L 4.890625 23.390625 
z
" id="DejaVuSans-45"/>
       <path d="M 40.578125 39.3125 
Q 47.65625 37.796875 51.625 33 
Q 55.609375 28.21875 55.609375 21.1875 
Q 55.609375 10.40625 48.1875 4.484375 
Q 40.765625 -1.421875 27.09375 -1.421875 
Q 22.515625 -1.421875 17.65625 -0.515625 
Q 12.796875 0.390625 7.625 2.203125 
L 7.625 11.71875 
Q 11.71875 9.328125 16.59375 8.109375 
Q 21.484375 6.890625 26.8125 6.890625 
Q 36.078125 6.890625 40.9375 10.546875 
Q 45.796875 14.203125 45.796875 21.1875 
Q 45.796875 27.640625 41.28125 31.265625 
Q 36.765625 34.90625 28.71875 34.90625 
L 20.21875 34.90625 
L 20.21875 43.015625 
L 29.109375 43.015625 
Q 36.375 43.015625 40.234375 45.921875 
Q 44.09375 48.828125 44.09375 54.296875 
Q 44.09375 59.90625 40.109375 62.90625 
Q 36.140625 65.921875 28.71875 65.921875 
Q 24.65625 65.921875 20.015625 65.03125 
Q 15.375 64.15625 9.8125 62.3125 
L 9.8125 71.09375 
Q 15.4375 72.65625 20.34375 73.4375 
Q 25.25 74.21875 29.59375 74.21875 
Q 40.828125 74.21875 47.359375 69.109375 
Q 53.90625 64.015625 53.90625 55.328125 
Q 53.90625 49.265625 50.4375 45.09375 
Q 46.96875 40.921875 40.578125 39.3125 
z
" id="DejaVuSans-51"/>
       <path d="M 12.40625 8.296875 
L 28.515625 8.296875 
L 28.515625 63.921875 
L 10.984375 60.40625 
L 10.984375 69.390625 
L 28.421875 72.90625 
L 38.28125 72.90625 
L 38.28125 8.296875 
L 54.390625 8.296875 
L 54.390625 0 
L 12.40625 0 
z
" id="DejaVuSans-49"/>
       <path d="M 10.796875 72.90625 
L 49.515625 72.90625 
L 49.515625 64.59375 
L 19.828125 64.59375 
L 19.828125 46.734375 
Q 21.96875 47.46875 24.109375 47.828125 
Q 26.265625 48.1875 28.421875 48.1875 
Q 40.625 48.1875 47.75 41.5 
Q 54.890625 34.8125 54.890625 23.390625 
Q 54.890625 11.625 47.5625 5.09375 
Q 40.234375 -1.421875 26.90625 -1.421875 
Q 22.3125 -1.421875 17.546875 -0.640625 
Q 12.796875 0.140625 7.71875 1.703125 
L 7.71875 11.625 
Q 12.109375 9.234375 16.796875 8.0625 
Q 21.484375 6.890625 26.703125 6.890625 
Q 35.15625 6.890625 40.078125 11.328125 
Q 45.015625 15.765625 45.015625 23.390625 
Q 45.015625 31 40.078125 35.4375 
Q 35.15625 39.890625 26.703125 39.890625 
Q 22.75 39.890625 18.8125 39.015625 
Q 14.890625 38.140625 10.796875 36.28125 
z
" id="DejaVuSans-53"/>
      </defs>
      <g transform="translate(81.060616 333.329439)rotate(-45)scale(0.1 -0.1)">
       <use xlink:href="#DejaVuSans-50"/>
       <use x="63.623047" xlink:href="#DejaVuSans-48"/>
       <use x="127.246094" xlink:href="#DejaVuSans-50"/>
       <use x="190.869141" xlink:href="#DejaVuSans-48"/>
       <use x="254.492188" xlink:href="#DejaVuSans-45"/>
       <use x="290.576172" xlink:href="#DejaVuSans-48"/>
       <use x="354.199219" xlink:href="#DejaVuSans-51"/>
       <use x="417.822266" xlink:href="#DejaVuSans-45"/>
       <use x="453.90625" xlink:href="#DejaVuSans-49"/>
       <use x="517.529297" xlink:href="#DejaVuSans-53"/>
      </g>
     </g>
    </g>
    <g id="xtick_2">
     <g id="line2d_2">
      <g>
       <use style="stroke:#000000;stroke-width:0.8;" x="189.867519" xlink:href="#m2a2bbcf229" y="279.86258"/>
      </g>
     </g>
     <g id="text_2">
      <!-- 2020-04-01 -->
      <defs>
       <path d="M 37.796875 64.3125 
L 12.890625 25.390625 
L 37.796875 25.390625 
z
M 35.203125 72.90625 
L 47.609375 72.90625 
L 47.609375 25.390625 
L 58.015625 25.390625 
L 58.015625 17.1875 
L 47.609375 17.1875 
L 47.609375 0 
L 37.796875 0 
L 37.796875 17.1875 
L 4.890625 17.1875 
L 4.890625 26.703125 
z
" id="DejaVuSans-52"/>
      </defs>
      <g transform="translate(171.271716 333.329439)rotate(-45)scale(0.1 -0.1)">
       <use xlink:href="#DejaVuSans-50"/>
       <use x="63.623047" xlink:href="#DejaVuSans-48"/>
       <use x="127.246094" xlink:href="#DejaVuSans-50"/>
       <use x="190.869141" xlink:href="#DejaVuSans-48"/>
       <use x="254.492188" xlink:href="#DejaVuSans-45"/>
       <use x="290.576172" xlink:href="#DejaVuSans-48"/>
       <use x="354.199219" xlink:href="#DejaVuSans-52"/>
       <use x="417.822266" xlink:href="#DejaVuSans-45"/>
       <use x="453.90625" xlink:href="#DejaVuSans-48"/>
       <use x="517.529297" xlink:href="#DejaVuSans-49"/>
      </g>
     </g>
    </g>
    <g id="xtick_3">
     <g id="line2d_3">
      <g>
       <use style="stroke:#000000;stroke-width:0.8;" x="264.159014" xlink:href="#m2a2bbcf229" y="279.86258"/>
      </g>
     </g>
     <g id="text_3">
      <!-- 2020-04-15 -->
      <g transform="translate(245.56321 333.329439)rotate(-45)scale(0.1 -0.1)">
       <use xlink:href="#DejaVuSans-50"/>
       <use x="63.623047" xlink:href="#DejaVuSans-48"/>
       <use x="127.246094" xlink:href="#DejaVuSans-50"/>
       <use x="190.869141" xlink:href="#DejaVuSans-48"/>
       <use x="254.492188" xlink:href="#DejaVuSans-45"/>
       <use x="290.576172" xlink:href="#DejaVuSans-48"/>
       <use x="354.199219" xlink:href="#DejaVuSans-52"/>
       <use x="417.822266" xlink:href="#DejaVuSans-45"/>
       <use x="453.90625" xlink:href="#DejaVuSans-49"/>
       <use x="517.529297" xlink:href="#DejaVuSans-53"/>
      </g>
     </g>
    </g>
    <g id="xtick_4">
     <g id="line2d_4">
      <g>
       <use style="stroke:#000000;stroke-width:0.8;" x="349.063579" xlink:href="#m2a2bbcf229" y="279.86258"/>
      </g>
     </g>
     <g id="text_4">
      <!-- 2020-05-01 -->
      <g transform="translate(330.467775 333.329439)rotate(-45)scale(0.1 -0.1)">
       <use xlink:href="#DejaVuSans-50"/>
       <use x="63.623047" xlink:href="#DejaVuSans-48"/>
       <use x="127.246094" xlink:href="#DejaVuSans-50"/>
       <use x="190.869141" xlink:href="#DejaVuSans-48"/>
       <use x="254.492188" xlink:href="#DejaVuSans-45"/>
       <use x="290.576172" xlink:href="#DejaVuSans-48"/>
       <use x="354.199219" xlink:href="#DejaVuSans-53"/>
       <use x="417.822266" xlink:href="#DejaVuSans-45"/>
       <use x="453.90625" xlink:href="#DejaVuSans-48"/>
       <use x="517.529297" xlink:href="#DejaVuSans-49"/>
      </g>
     </g>
    </g>
    <g id="xtick_5">
     <g id="line2d_5">
      <g>
       <use style="stroke:#000000;stroke-width:0.8;" x="423.355073" xlink:href="#m2a2bbcf229" y="279.86258"/>
      </g>
     </g>
     <g id="text_5">
      <!-- 2020-05-15 -->
      <g transform="translate(404.75927 333.329439)rotate(-45)scale(0.1 -0.1)">
       <use xlink:href="#DejaVuSans-50"/>
       <use x="63.623047" xlink:href="#DejaVuSans-48"/>
       <use x="127.246094" xlink:href="#DejaVuSans-50"/>
       <use x="190.869141" xlink:href="#DejaVuSans-48"/>
       <use x="254.492188" xlink:href="#DejaVuSans-45"/>
       <use x="290.576172" xlink:href="#DejaVuSans-48"/>
       <use x="354.199219" xlink:href="#DejaVuSans-53"/>
       <use x="417.822266" xlink:href="#DejaVuSans-45"/>
       <use x="453.90625" xlink:href="#DejaVuSans-49"/>
       <use x="517.529297" xlink:href="#DejaVuSans-53"/>
      </g>
     </g>
    </g>
   </g>
   <g id="matplotlib.axis_2">
    <g id="ytick_1">
     <g id="line2d_6">
      <defs>
       <path d="M 0 0 
L -3.5 0 
" id="mc941c53a0b" style="stroke:#000000;stroke-width:0.8;"/>
      </defs>
      <g>
       <use style="stroke:#000000;stroke-width:0.8;" x="44.203125" xlink:href="#mc941c53a0b" y="279.86258"/>
      </g>
     </g>
     <g id="text_6">
      <!-- 0 -->
      <g transform="translate(30.840625 283.661798)scale(0.1 -0.1)">
       <use xlink:href="#DejaVuSans-48"/>
      </g>
     </g>
    </g>
    <g id="ytick_2">
     <g id="line2d_7">
      <g>
       <use style="stroke:#000000;stroke-width:0.8;" x="44.203125" xlink:href="#mc941c53a0b" y="225.394217"/>
      </g>
     </g>
     <g id="text_7">
      <!-- 10 -->
      <g transform="translate(24.478125 229.193436)scale(0.1 -0.1)">
       <use xlink:href="#DejaVuSans-49"/>
       <use x="63.623047" xlink:href="#DejaVuSans-48"/>
      </g>
     </g>
    </g>
    <g id="ytick_3">
     <g id="line2d_8">
      <g>
       <use style="stroke:#000000;stroke-width:0.8;" x="44.203125" xlink:href="#mc941c53a0b" y="170.925855"/>
      </g>
     </g>
     <g id="text_8">
      <!-- 20 -->
      <g transform="translate(24.478125 174.725074)scale(0.1 -0.1)">
       <use xlink:href="#DejaVuSans-50"/>
       <use x="63.623047" xlink:href="#DejaVuSans-48"/>
      </g>
     </g>
    </g>
    <g id="ytick_4">
     <g id="line2d_9">
      <g>
       <use style="stroke:#000000;stroke-width:0.8;" x="44.203125" xlink:href="#mc941c53a0b" y="116.457493"/>
      </g>
     </g>
     <g id="text_9">
      <!-- 30 -->
      <g transform="translate(24.478125 120.256711)scale(0.1 -0.1)">
       <use xlink:href="#DejaVuSans-51"/>
       <use x="63.623047" xlink:href="#DejaVuSans-48"/>
      </g>
     </g>
    </g>
    <g id="ytick_5">
     <g id="line2d_10">
      <g>
       <use style="stroke:#000000;stroke-width:0.8;" x="44.203125" xlink:href="#mc941c53a0b" y="61.98913"/>
      </g>
     </g>
     <g id="text_10">
      <!-- 40 -->
      <g transform="translate(24.478125 65.788349)scale(0.1 -0.1)">
       <use xlink:href="#DejaVuSans-52"/>
       <use x="63.623047" xlink:href="#DejaVuSans-48"/>
      </g>
     </g>
    </g>
    <g id="text_11">
     <!-- EX fallecidos (por 100000 hab.) acumulados -->
     <defs>
      <path d="M 9.8125 72.90625 
L 55.90625 72.90625 
L 55.90625 64.59375 
L 19.671875 64.59375 
L 19.671875 43.015625 
L 54.390625 43.015625 
L 54.390625 34.71875 
L 19.671875 34.71875 
L 19.671875 8.296875 
L 56.78125 8.296875 
L 56.78125 0 
L 9.8125 0 
z
" id="DejaVuSans-69"/>
      <path d="M 6.296875 72.90625 
L 16.890625 72.90625 
L 35.015625 45.796875 
L 53.21875 72.90625 
L 63.8125 72.90625 
L 40.375 37.890625 
L 65.375 0 
L 54.78125 0 
L 34.28125 31 
L 13.625 0 
L 2.984375 0 
L 29 38.921875 
z
" id="DejaVuSans-88"/>
      <path id="DejaVuSans-32"/>
      <path d="M 37.109375 75.984375 
L 37.109375 68.5 
L 28.515625 68.5 
Q 23.6875 68.5 21.796875 66.546875 
Q 19.921875 64.59375 19.921875 59.515625 
L 19.921875 54.6875 
L 34.71875 54.6875 
L 34.71875 47.703125 
L 19.921875 47.703125 
L 19.921875 0 
L 10.890625 0 
L 10.890625 47.703125 
L 2.296875 47.703125 
L 2.296875 54.6875 
L 10.890625 54.6875 
L 10.890625 58.5 
Q 10.890625 67.625 15.140625 71.796875 
Q 19.390625 75.984375 28.609375 75.984375 
z
" id="DejaVuSans-102"/>
      <path d="M 34.28125 27.484375 
Q 23.390625 27.484375 19.1875 25 
Q 14.984375 22.515625 14.984375 16.5 
Q 14.984375 11.71875 18.140625 8.90625 
Q 21.296875 6.109375 26.703125 6.109375 
Q 34.1875 6.109375 38.703125 11.40625 
Q 43.21875 16.703125 43.21875 25.484375 
L 43.21875 27.484375 
z
M 52.203125 31.203125 
L 52.203125 0 
L 43.21875 0 
L 43.21875 8.296875 
Q 40.140625 3.328125 35.546875 0.953125 
Q 30.953125 -1.421875 24.3125 -1.421875 
Q 15.921875 -1.421875 10.953125 3.296875 
Q 6 8.015625 6 15.921875 
Q 6 25.140625 12.171875 29.828125 
Q 18.359375 34.515625 30.609375 34.515625 
L 43.21875 34.515625 
L 43.21875 35.40625 
Q 43.21875 41.609375 39.140625 45 
Q 35.0625 48.390625 27.6875 48.390625 
Q 23 48.390625 18.546875 47.265625 
Q 14.109375 46.140625 10.015625 43.890625 
L 10.015625 52.203125 
Q 14.9375 54.109375 19.578125 55.046875 
Q 24.21875 56 28.609375 56 
Q 40.484375 56 46.34375 49.84375 
Q 52.203125 43.703125 52.203125 31.203125 
z
" id="DejaVuSans-97"/>
      <path d="M 9.421875 75.984375 
L 18.40625 75.984375 
L 18.40625 0 
L 9.421875 0 
z
" id="DejaVuSans-108"/>
      <path d="M 56.203125 29.59375 
L 56.203125 25.203125 
L 14.890625 25.203125 
Q 15.484375 15.921875 20.484375 11.0625 
Q 25.484375 6.203125 34.421875 6.203125 
Q 39.59375 6.203125 44.453125 7.46875 
Q 49.3125 8.734375 54.109375 11.28125 
L 54.109375 2.78125 
Q 49.265625 0.734375 44.1875 -0.34375 
Q 39.109375 -1.421875 33.890625 -1.421875 
Q 20.796875 -1.421875 13.15625 6.1875 
Q 5.515625 13.8125 5.515625 26.8125 
Q 5.515625 40.234375 12.765625 48.109375 
Q 20.015625 56 32.328125 56 
Q 43.359375 56 49.78125 48.890625 
Q 56.203125 41.796875 56.203125 29.59375 
z
M 47.21875 32.234375 
Q 47.125 39.59375 43.09375 43.984375 
Q 39.0625 48.390625 32.421875 48.390625 
Q 24.90625 48.390625 20.390625 44.140625 
Q 15.875 39.890625 15.1875 32.171875 
z
" id="DejaVuSans-101"/>
      <path d="M 48.78125 52.59375 
L 48.78125 44.1875 
Q 44.96875 46.296875 41.140625 47.34375 
Q 37.3125 48.390625 33.40625 48.390625 
Q 24.65625 48.390625 19.8125 42.84375 
Q 14.984375 37.3125 14.984375 27.296875 
Q 14.984375 17.28125 19.8125 11.734375 
Q 24.65625 6.203125 33.40625 6.203125 
Q 37.3125 6.203125 41.140625 7.25 
Q 44.96875 8.296875 48.78125 10.40625 
L 48.78125 2.09375 
Q 45.015625 0.34375 40.984375 -0.53125 
Q 36.96875 -1.421875 32.421875 -1.421875 
Q 20.0625 -1.421875 12.78125 6.34375 
Q 5.515625 14.109375 5.515625 27.296875 
Q 5.515625 40.671875 12.859375 48.328125 
Q 20.21875 56 33.015625 56 
Q 37.15625 56 41.109375 55.140625 
Q 45.0625 54.296875 48.78125 52.59375 
z
" id="DejaVuSans-99"/>
      <path d="M 9.421875 54.6875 
L 18.40625 54.6875 
L 18.40625 0 
L 9.421875 0 
z
M 9.421875 75.984375 
L 18.40625 75.984375 
L 18.40625 64.59375 
L 9.421875 64.59375 
z
" id="DejaVuSans-105"/>
      <path d="M 45.40625 46.390625 
L 45.40625 75.984375 
L 54.390625 75.984375 
L 54.390625 0 
L 45.40625 0 
L 45.40625 8.203125 
Q 42.578125 3.328125 38.25 0.953125 
Q 33.9375 -1.421875 27.875 -1.421875 
Q 17.96875 -1.421875 11.734375 6.484375 
Q 5.515625 14.40625 5.515625 27.296875 
Q 5.515625 40.1875 11.734375 48.09375 
Q 17.96875 56 27.875 56 
Q 33.9375 56 38.25 53.625 
Q 42.578125 51.265625 45.40625 46.390625 
z
M 14.796875 27.296875 
Q 14.796875 17.390625 18.875 11.75 
Q 22.953125 6.109375 30.078125 6.109375 
Q 37.203125 6.109375 41.296875 11.75 
Q 45.40625 17.390625 45.40625 27.296875 
Q 45.40625 37.203125 41.296875 42.84375 
Q 37.203125 48.484375 30.078125 48.484375 
Q 22.953125 48.484375 18.875 42.84375 
Q 14.796875 37.203125 14.796875 27.296875 
z
" id="DejaVuSans-100"/>
      <path d="M 30.609375 48.390625 
Q 23.390625 48.390625 19.1875 42.75 
Q 14.984375 37.109375 14.984375 27.296875 
Q 14.984375 17.484375 19.15625 11.84375 
Q 23.34375 6.203125 30.609375 6.203125 
Q 37.796875 6.203125 41.984375 11.859375 
Q 46.1875 17.53125 46.1875 27.296875 
Q 46.1875 37.015625 41.984375 42.703125 
Q 37.796875 48.390625 30.609375 48.390625 
z
M 30.609375 56 
Q 42.328125 56 49.015625 48.375 
Q 55.71875 40.765625 55.71875 27.296875 
Q 55.71875 13.875 49.015625 6.21875 
Q 42.328125 -1.421875 30.609375 -1.421875 
Q 18.84375 -1.421875 12.171875 6.21875 
Q 5.515625 13.875 5.515625 27.296875 
Q 5.515625 40.765625 12.171875 48.375 
Q 18.84375 56 30.609375 56 
z
" id="DejaVuSans-111"/>
      <path d="M 44.28125 53.078125 
L 44.28125 44.578125 
Q 40.484375 46.53125 36.375 47.5 
Q 32.28125 48.484375 27.875 48.484375 
Q 21.1875 48.484375 17.84375 46.4375 
Q 14.5 44.390625 14.5 40.28125 
Q 14.5 37.15625 16.890625 35.375 
Q 19.28125 33.59375 26.515625 31.984375 
L 29.59375 31.296875 
Q 39.15625 29.25 43.1875 25.515625 
Q 47.21875 21.78125 47.21875 15.09375 
Q 47.21875 7.46875 41.1875 3.015625 
Q 35.15625 -1.421875 24.609375 -1.421875 
Q 20.21875 -1.421875 15.453125 -0.5625 
Q 10.6875 0.296875 5.421875 2 
L 5.421875 11.28125 
Q 10.40625 8.6875 15.234375 7.390625 
Q 20.0625 6.109375 24.8125 6.109375 
Q 31.15625 6.109375 34.5625 8.28125 
Q 37.984375 10.453125 37.984375 14.40625 
Q 37.984375 18.0625 35.515625 20.015625 
Q 33.0625 21.96875 24.703125 23.78125 
L 21.578125 24.515625 
Q 13.234375 26.265625 9.515625 29.90625 
Q 5.8125 33.546875 5.8125 39.890625 
Q 5.8125 47.609375 11.28125 51.796875 
Q 16.75 56 26.8125 56 
Q 31.78125 56 36.171875 55.265625 
Q 40.578125 54.546875 44.28125 53.078125 
z
" id="DejaVuSans-115"/>
      <path d="M 31 75.875 
Q 24.46875 64.65625 21.28125 53.65625 
Q 18.109375 42.671875 18.109375 31.390625 
Q 18.109375 20.125 21.3125 9.0625 
Q 24.515625 -2 31 -13.1875 
L 23.1875 -13.1875 
Q 15.875 -1.703125 12.234375 9.375 
Q 8.59375 20.453125 8.59375 31.390625 
Q 8.59375 42.28125 12.203125 53.3125 
Q 15.828125 64.359375 23.1875 75.875 
z
" id="DejaVuSans-40"/>
      <path d="M 18.109375 8.203125 
L 18.109375 -20.796875 
L 9.078125 -20.796875 
L 9.078125 54.6875 
L 18.109375 54.6875 
L 18.109375 46.390625 
Q 20.953125 51.265625 25.265625 53.625 
Q 29.59375 56 35.59375 56 
Q 45.5625 56 51.78125 48.09375 
Q 58.015625 40.1875 58.015625 27.296875 
Q 58.015625 14.40625 51.78125 6.484375 
Q 45.5625 -1.421875 35.59375 -1.421875 
Q 29.59375 -1.421875 25.265625 0.953125 
Q 20.953125 3.328125 18.109375 8.203125 
z
M 48.6875 27.296875 
Q 48.6875 37.203125 44.609375 42.84375 
Q 40.53125 48.484375 33.40625 48.484375 
Q 26.265625 48.484375 22.1875 42.84375 
Q 18.109375 37.203125 18.109375 27.296875 
Q 18.109375 17.390625 22.1875 11.75 
Q 26.265625 6.109375 33.40625 6.109375 
Q 40.53125 6.109375 44.609375 11.75 
Q 48.6875 17.390625 48.6875 27.296875 
z
" id="DejaVuSans-112"/>
      <path d="M 41.109375 46.296875 
Q 39.59375 47.171875 37.8125 47.578125 
Q 36.03125 48 33.890625 48 
Q 26.265625 48 22.1875 43.046875 
Q 18.109375 38.09375 18.109375 28.8125 
L 18.109375 0 
L 9.078125 0 
L 9.078125 54.6875 
L 18.109375 54.6875 
L 18.109375 46.1875 
Q 20.953125 51.171875 25.484375 53.578125 
Q 30.03125 56 36.53125 56 
Q 37.453125 56 38.578125 55.875 
Q 39.703125 55.765625 41.0625 55.515625 
z
" id="DejaVuSans-114"/>
      <path d="M 54.890625 33.015625 
L 54.890625 0 
L 45.90625 0 
L 45.90625 32.71875 
Q 45.90625 40.484375 42.875 44.328125 
Q 39.84375 48.1875 33.796875 48.1875 
Q 26.515625 48.1875 22.3125 43.546875 
Q 18.109375 38.921875 18.109375 30.90625 
L 18.109375 0 
L 9.078125 0 
L 9.078125 75.984375 
L 18.109375 75.984375 
L 18.109375 46.1875 
Q 21.34375 51.125 25.703125 53.5625 
Q 30.078125 56 35.796875 56 
Q 45.21875 56 50.046875 50.171875 
Q 54.890625 44.34375 54.890625 33.015625 
z
" id="DejaVuSans-104"/>
      <path d="M 48.6875 27.296875 
Q 48.6875 37.203125 44.609375 42.84375 
Q 40.53125 48.484375 33.40625 48.484375 
Q 26.265625 48.484375 22.1875 42.84375 
Q 18.109375 37.203125 18.109375 27.296875 
Q 18.109375 17.390625 22.1875 11.75 
Q 26.265625 6.109375 33.40625 6.109375 
Q 40.53125 6.109375 44.609375 11.75 
Q 48.6875 17.390625 48.6875 27.296875 
z
M 18.109375 46.390625 
Q 20.953125 51.265625 25.265625 53.625 
Q 29.59375 56 35.59375 56 
Q 45.5625 56 51.78125 48.09375 
Q 58.015625 40.1875 58.015625 27.296875 
Q 58.015625 14.40625 51.78125 6.484375 
Q 45.5625 -1.421875 35.59375 -1.421875 
Q 29.59375 -1.421875 25.265625 0.953125 
Q 20.953125 3.328125 18.109375 8.203125 
L 18.109375 0 
L 9.078125 0 
L 9.078125 75.984375 
L 18.109375 75.984375 
z
" id="DejaVuSans-98"/>
      <path d="M 10.6875 12.40625 
L 21 12.40625 
L 21 0 
L 10.6875 0 
z
" id="DejaVuSans-46"/>
      <path d="M 8.015625 75.875 
L 15.828125 75.875 
Q 23.140625 64.359375 26.78125 53.3125 
Q 30.421875 42.28125 30.421875 31.390625 
Q 30.421875 20.453125 26.78125 9.375 
Q 23.140625 -1.703125 15.828125 -13.1875 
L 8.015625 -13.1875 
Q 14.5 -2 17.703125 9.0625 
Q 20.90625 20.125 20.90625 31.390625 
Q 20.90625 42.671875 17.703125 53.65625 
Q 14.5 64.65625 8.015625 75.875 
z
" id="DejaVuSans-41"/>
      <path d="M 8.5 21.578125 
L 8.5 54.6875 
L 17.484375 54.6875 
L 17.484375 21.921875 
Q 17.484375 14.15625 20.5 10.265625 
Q 23.53125 6.390625 29.59375 6.390625 
Q 36.859375 6.390625 41.078125 11.03125 
Q 45.3125 15.671875 45.3125 23.6875 
L 45.3125 54.6875 
L 54.296875 54.6875 
L 54.296875 0 
L 45.3125 0 
L 45.3125 8.40625 
Q 42.046875 3.421875 37.71875 1 
Q 33.40625 -1.421875 27.6875 -1.421875 
Q 18.265625 -1.421875 13.375 4.4375 
Q 8.5 10.296875 8.5 21.578125 
z
M 31.109375 56 
z
" id="DejaVuSans-117"/>
      <path d="M 52 44.1875 
Q 55.375 50.25 60.0625 53.125 
Q 64.75 56 71.09375 56 
Q 79.640625 56 84.28125 50.015625 
Q 88.921875 44.046875 88.921875 33.015625 
L 88.921875 0 
L 79.890625 0 
L 79.890625 32.71875 
Q 79.890625 40.578125 77.09375 44.375 
Q 74.3125 48.1875 68.609375 48.1875 
Q 61.625 48.1875 57.5625 43.546875 
Q 53.515625 38.921875 53.515625 30.90625 
L 53.515625 0 
L 44.484375 0 
L 44.484375 32.71875 
Q 44.484375 40.625 41.703125 44.40625 
Q 38.921875 48.1875 33.109375 48.1875 
Q 26.21875 48.1875 22.15625 43.53125 
Q 18.109375 38.875 18.109375 30.90625 
L 18.109375 0 
L 9.078125 0 
L 9.078125 54.6875 
L 18.109375 54.6875 
L 18.109375 46.1875 
Q 21.1875 51.21875 25.484375 53.609375 
Q 29.78125 56 35.6875 56 
Q 41.65625 56 45.828125 52.96875 
Q 50 49.953125 52 44.1875 
z
" id="DejaVuSans-109"/>
     </defs>
     <g transform="translate(18.398438 256.103165)rotate(-90)scale(0.1 -0.1)">
      <use xlink:href="#DejaVuSans-69"/>
      <use x="63.183594" xlink:href="#DejaVuSans-88"/>
      <use x="131.689453" xlink:href="#DejaVuSans-32"/>
      <use x="163.476562" xlink:href="#DejaVuSans-102"/>
      <use x="198.681641" xlink:href="#DejaVuSans-97"/>
      <use x="259.960938" xlink:href="#DejaVuSans-108"/>
      <use x="287.744141" xlink:href="#DejaVuSans-108"/>
      <use x="315.527344" xlink:href="#DejaVuSans-101"/>
      <use x="377.050781" xlink:href="#DejaVuSans-99"/>
      <use x="432.03125" xlink:href="#DejaVuSans-105"/>
      <use x="459.814453" xlink:href="#DejaVuSans-100"/>
      <use x="523.291016" xlink:href="#DejaVuSans-111"/>
      <use x="584.472656" xlink:href="#DejaVuSans-115"/>
      <use x="636.572266" xlink:href="#DejaVuSans-32"/>
      <use x="668.359375" xlink:href="#DejaVuSans-40"/>
      <use x="707.373047" xlink:href="#DejaVuSans-112"/>
      <use x="770.849609" xlink:href="#DejaVuSans-111"/>
      <use x="832.03125" xlink:href="#DejaVuSans-114"/>
      <use x="873.144531" xlink:href="#DejaVuSans-32"/>
      <use x="904.931641" xlink:href="#DejaVuSans-49"/>
      <use x="968.554688" xlink:href="#DejaVuSans-48"/>
      <use x="1032.177734" xlink:href="#DejaVuSans-48"/>
      <use x="1095.800781" xlink:href="#DejaVuSans-48"/>
      <use x="1159.423828" xlink:href="#DejaVuSans-48"/>
      <use x="1223.046875" xlink:href="#DejaVuSans-48"/>
      <use x="1286.669922" xlink:href="#DejaVuSans-32"/>
      <use x="1318.457031" xlink:href="#DejaVuSans-104"/>
      <use x="1381.835938" xlink:href="#DejaVuSans-97"/>
      <use x="1443.115234" xlink:href="#DejaVuSans-98"/>
      <use x="1506.591797" xlink:href="#DejaVuSans-46"/>
      <use x="1538.378906" xlink:href="#DejaVuSans-41"/>
      <use x="1577.392578" xlink:href="#DejaVuSans-32"/>
      <use x="1609.179688" xlink:href="#DejaVuSans-97"/>
      <use x="1670.458984" xlink:href="#DejaVuSans-99"/>
      <use x="1725.439453" xlink:href="#DejaVuSans-117"/>
      <use x="1788.818359" xlink:href="#DejaVuSans-109"/>
      <use x="1886.230469" xlink:href="#DejaVuSans-117"/>
      <use x="1949.609375" xlink:href="#DejaVuSans-108"/>
      <use x="1977.392578" xlink:href="#DejaVuSans-97"/>
      <use x="2038.671875" xlink:href="#DejaVuSans-100"/>
      <use x="2102.148438" xlink:href="#DejaVuSans-111"/>
      <use x="2163.330078" xlink:href="#DejaVuSans-115"/>
     </g>
    </g>
   </g>
   <g id="line2d_11">
    <path clip-path="url(#pf9b19d24e8)" d="M 62.510672 279.86258 
L 67.817207 279.86258 
L 73.123742 279.35008 
L 78.430278 279.35008 
L 83.736813 279.35008 
L 89.043348 278.837579 
L 94.349884 278.837579 
L 99.656419 278.837579 
L 104.962954 278.325079 
L 110.26949 276.787579 
L 115.576025 275.762578 
L 120.88256 274.737578 
L 126.189096 273.712578 
L 131.495631 272.687578 
L 136.802166 270.637577 
L 142.108702 266.537576 
L 147.415237 259.875074 
L 152.721772 250.137571 
L 158.028308 244.500069 
L 163.334843 234.762566 
L 168.641378 228.612564 
L 173.947913 225.537564 
L 179.254449 211.700059 
L 184.560984 201.962557 
L 189.867519 187.100052 
L 195.174055 177.362549 
L 200.48059 173.262548 
L 205.787125 168.137547 
L 211.093661 163.012545 
L 216.400196 147.637541 
L 221.706731 140.975039 
L 227.013267 134.825037 
L 232.319802 132.262536 
L 237.626337 124.575034 
L 242.932873 119.962532 
L 248.239408 115.350031 
L 253.545943 108.687529 
L 258.852479 104.587528 
L 264.159014 95.875025 
L 269.465549 89.212523 
L 274.772084 85.112522 
L 280.07862 83.062521 
L 285.385155 80.500021 
L 290.69169 76.400019 
L 295.998226 72.812518 
L 301.304761 71.275018 
L 306.611296 69.225017 
L 311.917832 66.662517 
L 317.224367 63.587516 
L 322.530902 60.512515 
L 327.837438 57.950014 
L 333.143973 54.362513 
L 338.450508 51.287512 
L 343.757044 48.725011 
L 349.063579 45.13751 
L 354.370114 44.11251 
L 359.67665 44.11251 
L 364.983185 43.08751 
L 370.28972 42.575009 
L 375.596255 40.525009 
L 380.902791 37.962508 
L 386.209326 35.400007 
L 391.515861 33.862507 
L 396.822397 32.325006 
L 402.128932 30.275006 
L 407.435467 29.250005 
L 412.742003 27.712505 
L 418.048538 26.687505 
L 423.355073 25.150004 
L 428.661609 23.612504 
" style="fill:none;stroke:#1f77b4;stroke-linecap:square;stroke-width:1.5;"/>
    <defs>
     <path d="M 0 1.5 
C 0.397805 1.5 0.77937 1.341951 1.06066 1.06066 
C 1.341951 0.77937 1.5 0.397805 1.5 0 
C 1.5 -0.397805 1.341951 -0.77937 1.06066 -1.06066 
C 0.77937 -1.341951 0.397805 -1.5 0 -1.5 
C -0.397805 -1.5 -0.77937 -1.341951 -1.06066 -1.06066 
C -1.341951 -0.77937 -1.5 -0.397805 -1.5 0 
C -1.5 0.397805 -1.341951 0.77937 -1.06066 1.06066 
C -0.77937 1.341951 -0.397805 1.5 0 1.5 
z
" id="m8670b3f2b7" style="stroke:#1f77b4;"/>
    </defs>
    <g clip-path="url(#pf9b19d24e8)">
     <use style="fill:#1f77b4;stroke:#1f77b4;" x="62.510672" xlink:href="#m8670b3f2b7" y="279.86258"/>
     <use style="fill:#1f77b4;stroke:#1f77b4;" x="67.817207" xlink:href="#m8670b3f2b7" y="279.86258"/>
     <use style="fill:#1f77b4;stroke:#1f77b4;" x="73.123742" xlink:href="#m8670b3f2b7" y="279.35008"/>
     <use style="fill:#1f77b4;stroke:#1f77b4;" x="78.430278" xlink:href="#m8670b3f2b7" y="279.35008"/>
     <use style="fill:#1f77b4;stroke:#1f77b4;" x="83.736813" xlink:href="#m8670b3f2b7" y="279.35008"/>
     <use style="fill:#1f77b4;stroke:#1f77b4;" x="89.043348" xlink:href="#m8670b3f2b7" y="278.837579"/>
     <use style="fill:#1f77b4;stroke:#1f77b4;" x="94.349884" xlink:href="#m8670b3f2b7" y="278.837579"/>
     <use style="fill:#1f77b4;stroke:#1f77b4;" x="99.656419" xlink:href="#m8670b3f2b7" y="278.837579"/>
     <use style="fill:#1f77b4;stroke:#1f77b4;" x="104.962954" xlink:href="#m8670b3f2b7" y="278.325079"/>
     <use style="fill:#1f77b4;stroke:#1f77b4;" x="110.26949" xlink:href="#m8670b3f2b7" y="276.787579"/>
     <use style="fill:#1f77b4;stroke:#1f77b4;" x="115.576025" xlink:href="#m8670b3f2b7" y="275.762578"/>
     <use style="fill:#1f77b4;stroke:#1f77b4;" x="120.88256" xlink:href="#m8670b3f2b7" y="274.737578"/>
     <use style="fill:#1f77b4;stroke:#1f77b4;" x="126.189096" xlink:href="#m8670b3f2b7" y="273.712578"/>
     <use style="fill:#1f77b4;stroke:#1f77b4;" x="131.495631" xlink:href="#m8670b3f2b7" y="272.687578"/>
     <use style="fill:#1f77b4;stroke:#1f77b4;" x="136.802166" xlink:href="#m8670b3f2b7" y="270.637577"/>
     <use style="fill:#1f77b4;stroke:#1f77b4;" x="142.108702" xlink:href="#m8670b3f2b7" y="266.537576"/>
     <use style="fill:#1f77b4;stroke:#1f77b4;" x="147.415237" xlink:href="#m8670b3f2b7" y="259.875074"/>
     <use style="fill:#1f77b4;stroke:#1f77b4;" x="152.721772" xlink:href="#m8670b3f2b7" y="250.137571"/>
     <use style="fill:#1f77b4;stroke:#1f77b4;" x="158.028308" xlink:href="#m8670b3f2b7" y="244.500069"/>
     <use style="fill:#1f77b4;stroke:#1f77b4;" x="163.334843" xlink:href="#m8670b3f2b7" y="234.762566"/>
     <use style="fill:#1f77b4;stroke:#1f77b4;" x="168.641378" xlink:href="#m8670b3f2b7" y="228.612564"/>
     <use style="fill:#1f77b4;stroke:#1f77b4;" x="173.947913" xlink:href="#m8670b3f2b7" y="225.537564"/>
     <use style="fill:#1f77b4;stroke:#1f77b4;" x="179.254449" xlink:href="#m8670b3f2b7" y="211.700059"/>
     <use style="fill:#1f77b4;stroke:#1f77b4;" x="184.560984" xlink:href="#m8670b3f2b7" y="201.962557"/>
     <use style="fill:#1f77b4;stroke:#1f77b4;" x="189.867519" xlink:href="#m8670b3f2b7" y="187.100052"/>
     <use style="fill:#1f77b4;stroke:#1f77b4;" x="195.174055" xlink:href="#m8670b3f2b7" y="177.362549"/>
     <use style="fill:#1f77b4;stroke:#1f77b4;" x="200.48059" xlink:href="#m8670b3f2b7" y="173.262548"/>
     <use style="fill:#1f77b4;stroke:#1f77b4;" x="205.787125" xlink:href="#m8670b3f2b7" y="168.137547"/>
     <use style="fill:#1f77b4;stroke:#1f77b4;" x="211.093661" xlink:href="#m8670b3f2b7" y="163.012545"/>
     <use style="fill:#1f77b4;stroke:#1f77b4;" x="216.400196" xlink:href="#m8670b3f2b7" y="147.637541"/>
     <use style="fill:#1f77b4;stroke:#1f77b4;" x="221.706731" xlink:href="#m8670b3f2b7" y="140.975039"/>
     <use style="fill:#1f77b4;stroke:#1f77b4;" x="227.013267" xlink:href="#m8670b3f2b7" y="134.825037"/>
     <use style="fill:#1f77b4;stroke:#1f77b4;" x="232.319802" xlink:href="#m8670b3f2b7" y="132.262536"/>
     <use style="fill:#1f77b4;stroke:#1f77b4;" x="237.626337" xlink:href="#m8670b3f2b7" y="124.575034"/>
     <use style="fill:#1f77b4;stroke:#1f77b4;" x="242.932873" xlink:href="#m8670b3f2b7" y="119.962532"/>
     <use style="fill:#1f77b4;stroke:#1f77b4;" x="248.239408" xlink:href="#m8670b3f2b7" y="115.350031"/>
     <use style="fill:#1f77b4;stroke:#1f77b4;" x="253.545943" xlink:href="#m8670b3f2b7" y="108.687529"/>
     <use style="fill:#1f77b4;stroke:#1f77b4;" x="258.852479" xlink:href="#m8670b3f2b7" y="104.587528"/>
     <use style="fill:#1f77b4;stroke:#1f77b4;" x="264.159014" xlink:href="#m8670b3f2b7" y="95.875025"/>
     <use style="fill:#1f77b4;stroke:#1f77b4;" x="269.465549" xlink:href="#m8670b3f2b7" y="89.212523"/>
     <use style="fill:#1f77b4;stroke:#1f77b4;" x="274.772084" xlink:href="#m8670b3f2b7" y="85.112522"/>
     <use style="fill:#1f77b4;stroke:#1f77b4;" x="280.07862" xlink:href="#m8670b3f2b7" y="83.062521"/>
     <use style="fill:#1f77b4;stroke:#1f77b4;" x="285.385155" xlink:href="#m8670b3f2b7" y="80.500021"/>
     <use style="fill:#1f77b4;stroke:#1f77b4;" x="290.69169" xlink:href="#m8670b3f2b7" y="76.400019"/>
     <use style="fill:#1f77b4;stroke:#1f77b4;" x="295.998226" xlink:href="#m8670b3f2b7" y="72.812518"/>
     <use style="fill:#1f77b4;stroke:#1f77b4;" x="301.304761" xlink:href="#m8670b3f2b7" y="71.275018"/>
     <use style="fill:#1f77b4;stroke:#1f77b4;" x="306.611296" xlink:href="#m8670b3f2b7" y="69.225017"/>
     <use style="fill:#1f77b4;stroke:#1f77b4;" x="311.917832" xlink:href="#m8670b3f2b7" y="66.662517"/>
     <use style="fill:#1f77b4;stroke:#1f77b4;" x="317.224367" xlink:href="#m8670b3f2b7" y="63.587516"/>
     <use style="fill:#1f77b4;stroke:#1f77b4;" x="322.530902" xlink:href="#m8670b3f2b7" y="60.512515"/>
     <use style="fill:#1f77b4;stroke:#1f77b4;" x="327.837438" xlink:href="#m8670b3f2b7" y="57.950014"/>
     <use style="fill:#1f77b4;stroke:#1f77b4;" x="333.143973" xlink:href="#m8670b3f2b7" y="54.362513"/>
     <use style="fill:#1f77b4;stroke:#1f77b4;" x="338.450508" xlink:href="#m8670b3f2b7" y="51.287512"/>
     <use style="fill:#1f77b4;stroke:#1f77b4;" x="343.757044" xlink:href="#m8670b3f2b7" y="48.725011"/>
     <use style="fill:#1f77b4;stroke:#1f77b4;" x="349.063579" xlink:href="#m8670b3f2b7" y="45.13751"/>
     <use style="fill:#1f77b4;stroke:#1f77b4;" x="354.370114" xlink:href="#m8670b3f2b7" y="44.11251"/>
     <use style="fill:#1f77b4;stroke:#1f77b4;" x="359.67665" xlink:href="#m8670b3f2b7" y="44.11251"/>
     <use style="fill:#1f77b4;stroke:#1f77b4;" x="364.983185" xlink:href="#m8670b3f2b7" y="43.08751"/>
     <use style="fill:#1f77b4;stroke:#1f77b4;" x="370.28972" xlink:href="#m8670b3f2b7" y="42.575009"/>
     <use style="fill:#1f77b4;stroke:#1f77b4;" x="375.596255" xlink:href="#m8670b3f2b7" y="40.525009"/>
     <use style="fill:#1f77b4;stroke:#1f77b4;" x="380.902791" xlink:href="#m8670b3f2b7" y="37.962508"/>
     <use style="fill:#1f77b4;stroke:#1f77b4;" x="386.209326" xlink:href="#m8670b3f2b7" y="35.400007"/>
     <use style="fill:#1f77b4;stroke:#1f77b4;" x="391.515861" xlink:href="#m8670b3f2b7" y="33.862507"/>
     <use style="fill:#1f77b4;stroke:#1f77b4;" x="396.822397" xlink:href="#m8670b3f2b7" y="32.325006"/>
     <use style="fill:#1f77b4;stroke:#1f77b4;" x="402.128932" xlink:href="#m8670b3f2b7" y="30.275006"/>
     <use style="fill:#1f77b4;stroke:#1f77b4;" x="407.435467" xlink:href="#m8670b3f2b7" y="29.250005"/>
     <use style="fill:#1f77b4;stroke:#1f77b4;" x="412.742003" xlink:href="#m8670b3f2b7" y="27.712505"/>
     <use style="fill:#1f77b4;stroke:#1f77b4;" x="418.048538" xlink:href="#m8670b3f2b7" y="26.687505"/>
     <use style="fill:#1f77b4;stroke:#1f77b4;" x="423.355073" xlink:href="#m8670b3f2b7" y="25.150004"/>
     <use style="fill:#1f77b4;stroke:#1f77b4;" x="428.661609" xlink:href="#m8670b3f2b7" y="23.612504"/>
    </g>
   </g>
   <g id="patch_3">
    <path d="M 44.203125 279.86258 
L 44.203125 10.8 
" style="fill:none;stroke:#000000;stroke-linecap:square;stroke-linejoin:miter;stroke-width:0.8;"/>
   </g>
   <g id="patch_4">
    <path d="M 446.969155 279.86258 
L 446.969155 10.8 
" style="fill:none;stroke:#000000;stroke-linecap:square;stroke-linejoin:miter;stroke-width:0.8;"/>
   </g>
   <g id="patch_5">
    <path d="M 44.203125 279.86258 
L 446.969155 279.86258 
" style="fill:none;stroke:#000000;stroke-linecap:square;stroke-linejoin:miter;stroke-width:0.8;"/>
   </g>
   <g id="patch_6">
    <path d="M 44.203125 10.8 
L 446.969155 10.8 
" style="fill:none;stroke:#000000;stroke-linecap:square;stroke-linejoin:miter;stroke-width:0.8;"/>
   </g>
  </g>
 </g>
 <defs>
  <clipPath id="pf9b19d24e8">
   <rect height="269.06258" width="402.76603" x="44.203125" y="10.8"/>
  </clipPath>
 </defs>
</svg>
