<?xml version="1.0" encoding="utf-8" standalone="no"?>
<!DOCTYPE svg PUBLIC "-//W3C//DTD SVG 1.1//EN"
  "http://www.w3.org/Graphics/SVG/1.1/DTD/svg11.dtd">
<!-- Created with matplotlib (https://matplotlib.org/) -->
<svg height="345.6pt" version="1.1" viewBox="0 0 460.8 345.6" width="460.8pt" xmlns="http://www.w3.org/2000/svg" xmlns:xlink="http://www.w3.org/1999/xlink">
 <defs>
  <style type="text/css">
*{stroke-linecap:butt;stroke-linejoin:round;}
  </style>
 </defs>
 <g id="figure_1">
  <g id="patch_1">
   <path d="M 0 345.6 
L 460.8 345.6 
L 460.8 0 
L 0 0 
z
" style="fill:#ffffff;"/>
  </g>
  <g id="axes_1">
   <g id="patch_2">
    <path d="M 44.203125 279.86258 
L 447.038349 279.86258 
L 447.038349 10.8 
L 44.203125 10.8 
z
" style="fill:#ffffff;"/>
   </g>
   <g id="matplotlib.axis_1">
    <g id="xtick_1">
     <g id="line2d_1">
      <defs>
       <path d="M 0 0 
L 0 3.5 
" id="m33abf29c53" style="stroke:#000000;stroke-width:0.8;"/>
      </defs>
      <g>
       <use style="stroke:#000000;stroke-width:0.8;" x="94.826803" xlink:href="#m33abf29c53" y="279.86258"/>
      </g>
     </g>
     <g id="text_1">
      <!-- 2020-03-15 -->
      <defs>
       <path d="M 19.1875 8.296875 
L 53.609375 8.296875 
L 53.609375 0 
L 7.328125 0 
L 7.328125 8.296875 
Q 12.9375 14.109375 22.625 23.890625 
Q 32.328125 33.6875 34.8125 36.53125 
Q 39.546875 41.84375 41.421875 45.53125 
Q 43.3125 49.21875 43.3125 52.78125 
Q 43.3125 58.59375 39.234375 62.25 
Q 35.15625 65.921875 28.609375 65.921875 
Q 23.96875 65.921875 18.8125 64.3125 
Q 13.671875 62.703125 7.8125 59.421875 
L 7.8125 69.390625 
Q 13.765625 71.78125 18.9375 73 
Q 24.125 74.21875 28.421875 74.21875 
Q 39.75 74.21875 46.484375 68.546875 
Q 53.21875 62.890625 53.21875 53.421875 
Q 53.21875 48.921875 51.53125 44.890625 
Q 49.859375 40.875 45.40625 35.40625 
Q 44.1875 33.984375 37.640625 27.21875 
Q 31.109375 20.453125 19.1875 8.296875 
z
" id="DejaVuSans-50"/>
       <path d="M 31.78125 66.40625 
Q 24.171875 66.40625 20.328125 58.90625 
Q 16.5 51.421875 16.5 36.375 
Q 16.5 21.390625 20.328125 13.890625 
Q 24.171875 6.390625 31.78125 6.390625 
Q 39.453125 6.390625 43.28125 13.890625 
Q 47.125 21.390625 47.125 36.375 
Q 47.125 51.421875 43.28125 58.90625 
Q 39.453125 66.40625 31.78125 66.40625 
z
M 31.78125 74.21875 
Q 44.046875 74.21875 50.515625 64.515625 
Q 56.984375 54.828125 56.984375 36.375 
Q 56.984375 17.96875 50.515625 8.265625 
Q 44.046875 -1.421875 31.78125 -1.421875 
Q 19.53125 -1.421875 13.0625 8.265625 
Q 6.59375 17.96875 6.59375 36.375 
Q 6.59375 54.828125 13.0625 64.515625 
Q 19.53125 74.21875 31.78125 74.21875 
z
" id="DejaVuSans-48"/>
       <path d="M 4.890625 31.390625 
L 31.203125 31.390625 
L 31.203125 23.390625 
L 4.890625 23.390625 
z
" id="DejaVuSans-45"/>
       <path d="M 40.578125 39.3125 
Q 47.65625 37.796875 51.625 33 
Q 55.609375 28.21875 55.609375 21.1875 
Q 55.609375 10.40625 48.1875 4.484375 
Q 40.765625 -1.421875 27.09375 -1.421875 
Q 22.515625 -1.421875 17.65625 -0.515625 
Q 12.796875 0.390625 7.625 2.203125 
L 7.625 11.71875 
Q 11.71875 9.328125 16.59375 8.109375 
Q 21.484375 6.890625 26.8125 6.890625 
Q 36.078125 6.890625 40.9375 10.546875 
Q 45.796875 14.203125 45.796875 21.1875 
Q 45.796875 27.640625 41.28125 31.265625 
Q 36.765625 34.90625 28.71875 34.90625 
L 20.21875 34.90625 
L 20.21875 43.015625 
L 29.109375 43.015625 
Q 36.375 43.015625 40.234375 45.921875 
Q 44.09375 48.828125 44.09375 54.296875 
Q 44.09375 59.90625 40.109375 62.90625 
Q 36.140625 65.921875 28.71875 65.921875 
Q 24.65625 65.921875 20.015625 65.03125 
Q 15.375 64.15625 9.8125 62.3125 
L 9.8125 71.09375 
Q 15.4375 72.65625 20.34375 73.4375 
Q 25.25 74.21875 29.59375 74.21875 
Q 40.828125 74.21875 47.359375 69.109375 
Q 53.90625 64.015625 53.90625 55.328125 
Q 53.90625 49.265625 50.4375 45.09375 
Q 46.96875 40.921875 40.578125 39.3125 
z
" id="DejaVuSans-51"/>
       <path d="M 12.40625 8.296875 
L 28.515625 8.296875 
L 28.515625 63.921875 
L 10.984375 60.40625 
L 10.984375 69.390625 
L 28.421875 72.90625 
L 38.28125 72.90625 
L 38.28125 8.296875 
L 54.390625 8.296875 
L 54.390625 0 
L 12.40625 0 
z
" id="DejaVuSans-49"/>
       <path d="M 10.796875 72.90625 
L 49.515625 72.90625 
L 49.515625 64.59375 
L 19.828125 64.59375 
L 19.828125 46.734375 
Q 21.96875 47.46875 24.109375 47.828125 
Q 26.265625 48.1875 28.421875 48.1875 
Q 40.625 48.1875 47.75 41.5 
Q 54.890625 34.8125 54.890625 23.390625 
Q 54.890625 11.625 47.5625 5.09375 
Q 40.234375 -1.421875 26.90625 -1.421875 
Q 22.3125 -1.421875 17.546875 -0.640625 
Q 12.796875 0.140625 7.71875 1.703125 
L 7.71875 11.625 
Q 12.109375 9.234375 16.796875 8.0625 
Q 21.484375 6.890625 26.703125 6.890625 
Q 35.15625 6.890625 40.078125 11.328125 
Q 45.015625 15.765625 45.015625 23.390625 
Q 45.015625 31 40.078125 35.4375 
Q 35.15625 39.890625 26.703125 39.890625 
Q 22.75 39.890625 18.8125 39.015625 
Q 14.890625 38.140625 10.796875 36.28125 
z
" id="DejaVuSans-53"/>
      </defs>
      <g transform="translate(76.230999 333.329439)rotate(-45)scale(0.1 -0.1)">
       <use xlink:href="#DejaVuSans-50"/>
       <use x="63.623047" xlink:href="#DejaVuSans-48"/>
       <use x="127.246094" xlink:href="#DejaVuSans-50"/>
       <use x="190.869141" xlink:href="#DejaVuSans-48"/>
       <use x="254.492188" xlink:href="#DejaVuSans-45"/>
       <use x="290.576172" xlink:href="#DejaVuSans-48"/>
       <use x="354.199219" xlink:href="#DejaVuSans-51"/>
       <use x="417.822266" xlink:href="#DejaVuSans-45"/>
       <use x="453.90625" xlink:href="#DejaVuSans-49"/>
       <use x="517.529297" xlink:href="#DejaVuSans-53"/>
      </g>
     </g>
    </g>
    <g id="xtick_2">
     <g id="line2d_2">
      <g>
       <use style="stroke:#000000;stroke-width:0.8;" x="186.380263" xlink:href="#m33abf29c53" y="279.86258"/>
      </g>
     </g>
     <g id="text_2">
      <!-- 2020-04-01 -->
      <defs>
       <path d="M 37.796875 64.3125 
L 12.890625 25.390625 
L 37.796875 25.390625 
z
M 35.203125 72.90625 
L 47.609375 72.90625 
L 47.609375 25.390625 
L 58.015625 25.390625 
L 58.015625 17.1875 
L 47.609375 17.1875 
L 47.609375 0 
L 37.796875 0 
L 37.796875 17.1875 
L 4.890625 17.1875 
L 4.890625 26.703125 
z
" id="DejaVuSans-52"/>
      </defs>
      <g transform="translate(167.784459 333.329439)rotate(-45)scale(0.1 -0.1)">
       <use xlink:href="#DejaVuSans-50"/>
       <use x="63.623047" xlink:href="#DejaVuSans-48"/>
       <use x="127.246094" xlink:href="#DejaVuSans-50"/>
       <use x="190.869141" xlink:href="#DejaVuSans-48"/>
       <use x="254.492188" xlink:href="#DejaVuSans-45"/>
       <use x="290.576172" xlink:href="#DejaVuSans-48"/>
       <use x="354.199219" xlink:href="#DejaVuSans-52"/>
       <use x="417.822266" xlink:href="#DejaVuSans-45"/>
       <use x="453.90625" xlink:href="#DejaVuSans-48"/>
       <use x="517.529297" xlink:href="#DejaVuSans-49"/>
      </g>
     </g>
    </g>
    <g id="xtick_3">
     <g id="line2d_3">
      <g>
       <use style="stroke:#000000;stroke-width:0.8;" x="261.77723" xlink:href="#m33abf29c53" y="279.86258"/>
      </g>
     </g>
     <g id="text_3">
      <!-- 2020-04-15 -->
      <g transform="translate(243.181426 333.329439)rotate(-45)scale(0.1 -0.1)">
       <use xlink:href="#DejaVuSans-50"/>
       <use x="63.623047" xlink:href="#DejaVuSans-48"/>
       <use x="127.246094" xlink:href="#DejaVuSans-50"/>
       <use x="190.869141" xlink:href="#DejaVuSans-48"/>
       <use x="254.492188" xlink:href="#DejaVuSans-45"/>
       <use x="290.576172" xlink:href="#DejaVuSans-48"/>
       <use x="354.199219" xlink:href="#DejaVuSans-52"/>
       <use x="417.822266" xlink:href="#DejaVuSans-45"/>
       <use x="453.90625" xlink:href="#DejaVuSans-49"/>
       <use x="517.529297" xlink:href="#DejaVuSans-53"/>
      </g>
     </g>
    </g>
    <g id="xtick_4">
     <g id="line2d_4">
      <g>
       <use style="stroke:#000000;stroke-width:0.8;" x="347.945192" xlink:href="#m33abf29c53" y="279.86258"/>
      </g>
     </g>
     <g id="text_4">
      <!-- 2020-05-01 -->
      <g transform="translate(329.349389 333.329439)rotate(-45)scale(0.1 -0.1)">
       <use xlink:href="#DejaVuSans-50"/>
       <use x="63.623047" xlink:href="#DejaVuSans-48"/>
       <use x="127.246094" xlink:href="#DejaVuSans-50"/>
       <use x="190.869141" xlink:href="#DejaVuSans-48"/>
       <use x="254.492188" xlink:href="#DejaVuSans-45"/>
       <use x="290.576172" xlink:href="#DejaVuSans-48"/>
       <use x="354.199219" xlink:href="#DejaVuSans-53"/>
       <use x="417.822266" xlink:href="#DejaVuSans-45"/>
       <use x="453.90625" xlink:href="#DejaVuSans-48"/>
       <use x="517.529297" xlink:href="#DejaVuSans-49"/>
      </g>
     </g>
    </g>
    <g id="xtick_5">
     <g id="line2d_5">
      <g>
       <use style="stroke:#000000;stroke-width:0.8;" x="423.342159" xlink:href="#m33abf29c53" y="279.86258"/>
      </g>
     </g>
     <g id="text_5">
      <!-- 2020-05-15 -->
      <g transform="translate(404.746356 333.329439)rotate(-45)scale(0.1 -0.1)">
       <use xlink:href="#DejaVuSans-50"/>
       <use x="63.623047" xlink:href="#DejaVuSans-48"/>
       <use x="127.246094" xlink:href="#DejaVuSans-50"/>
       <use x="190.869141" xlink:href="#DejaVuSans-48"/>
       <use x="254.492188" xlink:href="#DejaVuSans-45"/>
       <use x="290.576172" xlink:href="#DejaVuSans-48"/>
       <use x="354.199219" xlink:href="#DejaVuSans-53"/>
       <use x="417.822266" xlink:href="#DejaVuSans-45"/>
       <use x="453.90625" xlink:href="#DejaVuSans-49"/>
       <use x="517.529297" xlink:href="#DejaVuSans-53"/>
      </g>
     </g>
    </g>
   </g>
   <g id="matplotlib.axis_2">
    <g id="ytick_1">
     <g id="line2d_6">
      <defs>
       <path d="M 0 0 
L -3.5 0 
" id="m4ea3e67476" style="stroke:#000000;stroke-width:0.8;"/>
      </defs>
      <g>
       <use style="stroke:#000000;stroke-width:0.8;" x="44.203125" xlink:href="#m4ea3e67476" y="279.86258"/>
      </g>
     </g>
     <g id="text_6">
      <!-- 0 -->
      <g transform="translate(30.840625 283.661798)scale(0.1 -0.1)">
       <use xlink:href="#DejaVuSans-48"/>
      </g>
     </g>
    </g>
    <g id="ytick_2">
     <g id="line2d_7">
      <g>
       <use style="stroke:#000000;stroke-width:0.8;" x="44.203125" xlink:href="#m4ea3e67476" y="223.45533"/>
      </g>
     </g>
     <g id="text_7">
      <!-- 10 -->
      <g transform="translate(24.478125 227.254549)scale(0.1 -0.1)">
       <use xlink:href="#DejaVuSans-49"/>
       <use x="63.623047" xlink:href="#DejaVuSans-48"/>
      </g>
     </g>
    </g>
    <g id="ytick_3">
     <g id="line2d_8">
      <g>
       <use style="stroke:#000000;stroke-width:0.8;" x="44.203125" xlink:href="#m4ea3e67476" y="167.048081"/>
      </g>
     </g>
     <g id="text_8">
      <!-- 20 -->
      <g transform="translate(24.478125 170.8473)scale(0.1 -0.1)">
       <use xlink:href="#DejaVuSans-50"/>
       <use x="63.623047" xlink:href="#DejaVuSans-48"/>
      </g>
     </g>
    </g>
    <g id="ytick_4">
     <g id="line2d_9">
      <g>
       <use style="stroke:#000000;stroke-width:0.8;" x="44.203125" xlink:href="#m4ea3e67476" y="110.640831"/>
      </g>
     </g>
     <g id="text_9">
      <!-- 30 -->
      <g transform="translate(24.478125 114.44005)scale(0.1 -0.1)">
       <use xlink:href="#DejaVuSans-51"/>
       <use x="63.623047" xlink:href="#DejaVuSans-48"/>
      </g>
     </g>
    </g>
    <g id="ytick_5">
     <g id="line2d_10">
      <g>
       <use style="stroke:#000000;stroke-width:0.8;" x="44.203125" xlink:href="#m4ea3e67476" y="54.233582"/>
      </g>
     </g>
     <g id="text_10">
      <!-- 40 -->
      <g transform="translate(24.478125 58.032801)scale(0.1 -0.1)">
       <use xlink:href="#DejaVuSans-52"/>
       <use x="63.623047" xlink:href="#DejaVuSans-48"/>
      </g>
     </g>
    </g>
    <g id="text_11">
     <!-- AR uci diarios -->
     <defs>
      <path d="M 34.1875 63.1875 
L 20.796875 26.90625 
L 47.609375 26.90625 
z
M 28.609375 72.90625 
L 39.796875 72.90625 
L 67.578125 0 
L 57.328125 0 
L 50.6875 18.703125 
L 17.828125 18.703125 
L 11.1875 0 
L 0.78125 0 
z
" id="DejaVuSans-65"/>
      <path d="M 44.390625 34.1875 
Q 47.5625 33.109375 50.5625 29.59375 
Q 53.5625 26.078125 56.59375 19.921875 
L 66.609375 0 
L 56 0 
L 46.6875 18.703125 
Q 43.0625 26.03125 39.671875 28.421875 
Q 36.28125 30.8125 30.421875 30.8125 
L 19.671875 30.8125 
L 19.671875 0 
L 9.8125 0 
L 9.8125 72.90625 
L 32.078125 72.90625 
Q 44.578125 72.90625 50.734375 67.671875 
Q 56.890625 62.453125 56.890625 51.90625 
Q 56.890625 45.015625 53.6875 40.46875 
Q 50.484375 35.9375 44.390625 34.1875 
z
M 19.671875 64.796875 
L 19.671875 38.921875 
L 32.078125 38.921875 
Q 39.203125 38.921875 42.84375 42.21875 
Q 46.484375 45.515625 46.484375 51.90625 
Q 46.484375 58.296875 42.84375 61.546875 
Q 39.203125 64.796875 32.078125 64.796875 
z
" id="DejaVuSans-82"/>
      <path id="DejaVuSans-32"/>
      <path d="M 8.5 21.578125 
L 8.5 54.6875 
L 17.484375 54.6875 
L 17.484375 21.921875 
Q 17.484375 14.15625 20.5 10.265625 
Q 23.53125 6.390625 29.59375 6.390625 
Q 36.859375 6.390625 41.078125 11.03125 
Q 45.3125 15.671875 45.3125 23.6875 
L 45.3125 54.6875 
L 54.296875 54.6875 
L 54.296875 0 
L 45.3125 0 
L 45.3125 8.40625 
Q 42.046875 3.421875 37.71875 1 
Q 33.40625 -1.421875 27.6875 -1.421875 
Q 18.265625 -1.421875 13.375 4.4375 
Q 8.5 10.296875 8.5 21.578125 
z
M 31.109375 56 
z
" id="DejaVuSans-117"/>
      <path d="M 48.78125 52.59375 
L 48.78125 44.1875 
Q 44.96875 46.296875 41.140625 47.34375 
Q 37.3125 48.390625 33.40625 48.390625 
Q 24.65625 48.390625 19.8125 42.84375 
Q 14.984375 37.3125 14.984375 27.296875 
Q 14.984375 17.28125 19.8125 11.734375 
Q 24.65625 6.203125 33.40625 6.203125 
Q 37.3125 6.203125 41.140625 7.25 
Q 44.96875 8.296875 48.78125 10.40625 
L 48.78125 2.09375 
Q 45.015625 0.34375 40.984375 -0.53125 
Q 36.96875 -1.421875 32.421875 -1.421875 
Q 20.0625 -1.421875 12.78125 6.34375 
Q 5.515625 14.109375 5.515625 27.296875 
Q 5.515625 40.671875 12.859375 48.328125 
Q 20.21875 56 33.015625 56 
Q 37.15625 56 41.109375 55.140625 
Q 45.0625 54.296875 48.78125 52.59375 
z
" id="DejaVuSans-99"/>
      <path d="M 9.421875 54.6875 
L 18.40625 54.6875 
L 18.40625 0 
L 9.421875 0 
z
M 9.421875 75.984375 
L 18.40625 75.984375 
L 18.40625 64.59375 
L 9.421875 64.59375 
z
" id="DejaVuSans-105"/>
      <path d="M 45.40625 46.390625 
L 45.40625 75.984375 
L 54.390625 75.984375 
L 54.390625 0 
L 45.40625 0 
L 45.40625 8.203125 
Q 42.578125 3.328125 38.25 0.953125 
Q 33.9375 -1.421875 27.875 -1.421875 
Q 17.96875 -1.421875 11.734375 6.484375 
Q 5.515625 14.40625 5.515625 27.296875 
Q 5.515625 40.1875 11.734375 48.09375 
Q 17.96875 56 27.875 56 
Q 33.9375 56 38.25 53.625 
Q 42.578125 51.265625 45.40625 46.390625 
z
M 14.796875 27.296875 
Q 14.796875 17.390625 18.875 11.75 
Q 22.953125 6.109375 30.078125 6.109375 
Q 37.203125 6.109375 41.296875 11.75 
Q 45.40625 17.390625 45.40625 27.296875 
Q 45.40625 37.203125 41.296875 42.84375 
Q 37.203125 48.484375 30.078125 48.484375 
Q 22.953125 48.484375 18.875 42.84375 
Q 14.796875 37.203125 14.796875 27.296875 
z
" id="DejaVuSans-100"/>
      <path d="M 34.28125 27.484375 
Q 23.390625 27.484375 19.1875 25 
Q 14.984375 22.515625 14.984375 16.5 
Q 14.984375 11.71875 18.140625 8.90625 
Q 21.296875 6.109375 26.703125 6.109375 
Q 34.1875 6.109375 38.703125 11.40625 
Q 43.21875 16.703125 43.21875 25.484375 
L 43.21875 27.484375 
z
M 52.203125 31.203125 
L 52.203125 0 
L 43.21875 0 
L 43.21875 8.296875 
Q 40.140625 3.328125 35.546875 0.953125 
Q 30.953125 -1.421875 24.3125 -1.421875 
Q 15.921875 -1.421875 10.953125 3.296875 
Q 6 8.015625 6 15.921875 
Q 6 25.140625 12.171875 29.828125 
Q 18.359375 34.515625 30.609375 34.515625 
L 43.21875 34.515625 
L 43.21875 35.40625 
Q 43.21875 41.609375 39.140625 45 
Q 35.0625 48.390625 27.6875 48.390625 
Q 23 48.390625 18.546875 47.265625 
Q 14.109375 46.140625 10.015625 43.890625 
L 10.015625 52.203125 
Q 14.9375 54.109375 19.578125 55.046875 
Q 24.21875 56 28.609375 56 
Q 40.484375 56 46.34375 49.84375 
Q 52.203125 43.703125 52.203125 31.203125 
z
" id="DejaVuSans-97"/>
      <path d="M 41.109375 46.296875 
Q 39.59375 47.171875 37.8125 47.578125 
Q 36.03125 48 33.890625 48 
Q 26.265625 48 22.1875 43.046875 
Q 18.109375 38.09375 18.109375 28.8125 
L 18.109375 0 
L 9.078125 0 
L 9.078125 54.6875 
L 18.109375 54.6875 
L 18.109375 46.1875 
Q 20.953125 51.171875 25.484375 53.578125 
Q 30.03125 56 36.53125 56 
Q 37.453125 56 38.578125 55.875 
Q 39.703125 55.765625 41.0625 55.515625 
z
" id="DejaVuSans-114"/>
      <path d="M 30.609375 48.390625 
Q 23.390625 48.390625 19.1875 42.75 
Q 14.984375 37.109375 14.984375 27.296875 
Q 14.984375 17.484375 19.15625 11.84375 
Q 23.34375 6.203125 30.609375 6.203125 
Q 37.796875 6.203125 41.984375 11.859375 
Q 46.1875 17.53125 46.1875 27.296875 
Q 46.1875 37.015625 41.984375 42.703125 
Q 37.796875 48.390625 30.609375 48.390625 
z
M 30.609375 56 
Q 42.328125 56 49.015625 48.375 
Q 55.71875 40.765625 55.71875 27.296875 
Q 55.71875 13.875 49.015625 6.21875 
Q 42.328125 -1.421875 30.609375 -1.421875 
Q 18.84375 -1.421875 12.171875 6.21875 
Q 5.515625 13.875 5.515625 27.296875 
Q 5.515625 40.765625 12.171875 48.375 
Q 18.84375 56 30.609375 56 
z
" id="DejaVuSans-111"/>
      <path d="M 44.28125 53.078125 
L 44.28125 44.578125 
Q 40.484375 46.53125 36.375 47.5 
Q 32.28125 48.484375 27.875 48.484375 
Q 21.1875 48.484375 17.84375 46.4375 
Q 14.5 44.390625 14.5 40.28125 
Q 14.5 37.15625 16.890625 35.375 
Q 19.28125 33.59375 26.515625 31.984375 
L 29.59375 31.296875 
Q 39.15625 29.25 43.1875 25.515625 
Q 47.21875 21.78125 47.21875 15.09375 
Q 47.21875 7.46875 41.1875 3.015625 
Q 35.15625 -1.421875 24.609375 -1.421875 
Q 20.21875 -1.421875 15.453125 -0.5625 
Q 10.6875 0.296875 5.421875 2 
L 5.421875 11.28125 
Q 10.40625 8.6875 15.234375 7.390625 
Q 20.0625 6.109375 24.8125 6.109375 
Q 31.15625 6.109375 34.5625 8.28125 
Q 37.984375 10.453125 37.984375 14.40625 
Q 37.984375 18.0625 35.515625 20.015625 
Q 33.0625 21.96875 24.703125 23.78125 
L 21.578125 24.515625 
Q 13.234375 26.265625 9.515625 29.90625 
Q 5.8125 33.546875 5.8125 39.890625 
Q 5.8125 47.609375 11.28125 51.796875 
Q 16.75 56 26.8125 56 
Q 31.78125 56 36.171875 55.265625 
Q 40.578125 54.546875 44.28125 53.078125 
z
" id="DejaVuSans-115"/>
     </defs>
     <g transform="translate(18.398437 179.446915)rotate(-90)scale(0.1 -0.1)">
      <use xlink:href="#DejaVuSans-65"/>
      <use x="68.408203" xlink:href="#DejaVuSans-82"/>
      <use x="137.890625" xlink:href="#DejaVuSans-32"/>
      <use x="169.677734" xlink:href="#DejaVuSans-117"/>
      <use x="233.056641" xlink:href="#DejaVuSans-99"/>
      <use x="288.037109" xlink:href="#DejaVuSans-105"/>
      <use x="315.820312" xlink:href="#DejaVuSans-32"/>
      <use x="347.607422" xlink:href="#DejaVuSans-100"/>
      <use x="411.083984" xlink:href="#DejaVuSans-105"/>
      <use x="438.867188" xlink:href="#DejaVuSans-97"/>
      <use x="500.146484" xlink:href="#DejaVuSans-114"/>
      <use x="541.259766" xlink:href="#DejaVuSans-105"/>
      <use x="569.042969" xlink:href="#DejaVuSans-111"/>
      <use x="630.224609" xlink:href="#DejaVuSans-115"/>
     </g>
    </g>
   </g>
   <g id="line2d_11">
    <path clip-path="url(#p06ba527c1e)" d="M 62.513817 279.86258 
L 67.899315 279.86258 
L 73.284812 279.86258 
L 78.67031 279.86258 
L 84.055808 268.58113 
L 89.441305 279.86258 
L 94.826803 268.58113 
L 100.2123 268.58113 
L 105.597798 279.86258 
L 110.983296 251.658955 
L 116.368793 200.89243 
L 121.754291 251.658955 
L 127.139789 212.17388 
L 132.525286 240.377505 
L 137.910784 200.89243 
L 143.296282 229.096055 
L 148.681779 178.329531 
L 154.067277 161.407356 
L 159.452775 223.45533 
L 164.838272 279.86258 
L 170.22377 99.359382 
L 175.609267 229.096055 
L 180.994765 262.940405 
L 186.380263 223.45533 
L 191.76576 268.58113 
L 197.151258 223.45533 
L 202.536756 37.311407 
L 207.922253 257.29968 
L 213.307751 223.45533 
L 218.693249 234.73678 
L 224.078746 246.01823 
L 229.464244 268.58113 
L 234.849742 262.940405 
L 240.235239 246.01823 
L 245.620737 268.58113 
L 251.006234 246.01823 
L 256.391732 268.58113 
L 261.77723 229.096055 
L 263.647017 346.6 
M 271.069073 346.6 
L 272.548225 262.940405 
L 277.933723 262.940405 
L 283.31922 268.58113 
L 288.704718 268.58113 
L 294.090216 268.58113 
L 299.475713 274.221855 
L 304.861211 274.221855 
L 310.246709 274.221855 
L 315.632206 268.58113 
L 321.017704 279.86258 
L 326.403201 274.221855 
L 331.788699 279.86258 
L 337.174197 279.86258 
L 342.559694 268.58113 
L 347.945192 279.86258 
L 353.33069 279.86258 
L 358.716187 279.86258 
L 364.101685 279.86258 
L 369.487183 279.86258 
L 374.87268 268.58113 
L 380.258178 274.221855 
L 385.643676 279.86258 
L 391.029173 279.86258 
L 396.414671 279.86258 
L 401.800168 274.221855 
L 407.185666 274.221855 
L 412.571164 279.86258 
L 417.956661 274.221855 
L 423.342159 279.86258 
L 428.727657 279.86258 
" style="fill:none;stroke:#1f77b4;stroke-linecap:square;stroke-width:1.5;"/>
    <defs>
     <path d="M 0 1.5 
C 0.397805 1.5 0.77937 1.341951 1.06066 1.06066 
C 1.341951 0.77937 1.5 0.397805 1.5 0 
C 1.5 -0.397805 1.341951 -0.77937 1.06066 -1.06066 
C 0.77937 -1.341951 0.397805 -1.5 0 -1.5 
C -0.397805 -1.5 -0.77937 -1.341951 -1.06066 -1.06066 
C -1.341951 -0.77937 -1.5 -0.397805 -1.5 0 
C -1.5 0.397805 -1.341951 0.77937 -1.06066 1.06066 
C -0.77937 1.341951 -0.397805 1.5 0 1.5 
z
" id="m0eb08559c4" style="stroke:#1f77b4;"/>
    </defs>
    <g clip-path="url(#p06ba527c1e)">
     <use style="fill:#1f77b4;stroke:#1f77b4;" x="62.513817" xlink:href="#m0eb08559c4" y="279.86258"/>
     <use style="fill:#1f77b4;stroke:#1f77b4;" x="67.899315" xlink:href="#m0eb08559c4" y="279.86258"/>
     <use style="fill:#1f77b4;stroke:#1f77b4;" x="73.284812" xlink:href="#m0eb08559c4" y="279.86258"/>
     <use style="fill:#1f77b4;stroke:#1f77b4;" x="78.67031" xlink:href="#m0eb08559c4" y="279.86258"/>
     <use style="fill:#1f77b4;stroke:#1f77b4;" x="84.055808" xlink:href="#m0eb08559c4" y="268.58113"/>
     <use style="fill:#1f77b4;stroke:#1f77b4;" x="89.441305" xlink:href="#m0eb08559c4" y="279.86258"/>
     <use style="fill:#1f77b4;stroke:#1f77b4;" x="94.826803" xlink:href="#m0eb08559c4" y="268.58113"/>
     <use style="fill:#1f77b4;stroke:#1f77b4;" x="100.2123" xlink:href="#m0eb08559c4" y="268.58113"/>
     <use style="fill:#1f77b4;stroke:#1f77b4;" x="105.597798" xlink:href="#m0eb08559c4" y="279.86258"/>
     <use style="fill:#1f77b4;stroke:#1f77b4;" x="110.983296" xlink:href="#m0eb08559c4" y="251.658955"/>
     <use style="fill:#1f77b4;stroke:#1f77b4;" x="116.368793" xlink:href="#m0eb08559c4" y="200.89243"/>
     <use style="fill:#1f77b4;stroke:#1f77b4;" x="121.754291" xlink:href="#m0eb08559c4" y="251.658955"/>
     <use style="fill:#1f77b4;stroke:#1f77b4;" x="127.139789" xlink:href="#m0eb08559c4" y="212.17388"/>
     <use style="fill:#1f77b4;stroke:#1f77b4;" x="132.525286" xlink:href="#m0eb08559c4" y="240.377505"/>
     <use style="fill:#1f77b4;stroke:#1f77b4;" x="137.910784" xlink:href="#m0eb08559c4" y="200.89243"/>
     <use style="fill:#1f77b4;stroke:#1f77b4;" x="143.296282" xlink:href="#m0eb08559c4" y="229.096055"/>
     <use style="fill:#1f77b4;stroke:#1f77b4;" x="148.681779" xlink:href="#m0eb08559c4" y="178.329531"/>
     <use style="fill:#1f77b4;stroke:#1f77b4;" x="154.067277" xlink:href="#m0eb08559c4" y="161.407356"/>
     <use style="fill:#1f77b4;stroke:#1f77b4;" x="159.452775" xlink:href="#m0eb08559c4" y="223.45533"/>
     <use style="fill:#1f77b4;stroke:#1f77b4;" x="164.838272" xlink:href="#m0eb08559c4" y="279.86258"/>
     <use style="fill:#1f77b4;stroke:#1f77b4;" x="170.22377" xlink:href="#m0eb08559c4" y="99.359382"/>
     <use style="fill:#1f77b4;stroke:#1f77b4;" x="175.609267" xlink:href="#m0eb08559c4" y="229.096055"/>
     <use style="fill:#1f77b4;stroke:#1f77b4;" x="180.994765" xlink:href="#m0eb08559c4" y="262.940405"/>
     <use style="fill:#1f77b4;stroke:#1f77b4;" x="186.380263" xlink:href="#m0eb08559c4" y="223.45533"/>
     <use style="fill:#1f77b4;stroke:#1f77b4;" x="191.76576" xlink:href="#m0eb08559c4" y="268.58113"/>
     <use style="fill:#1f77b4;stroke:#1f77b4;" x="197.151258" xlink:href="#m0eb08559c4" y="223.45533"/>
     <use style="fill:#1f77b4;stroke:#1f77b4;" x="202.536756" xlink:href="#m0eb08559c4" y="37.311407"/>
     <use style="fill:#1f77b4;stroke:#1f77b4;" x="207.922253" xlink:href="#m0eb08559c4" y="257.29968"/>
     <use style="fill:#1f77b4;stroke:#1f77b4;" x="213.307751" xlink:href="#m0eb08559c4" y="223.45533"/>
     <use style="fill:#1f77b4;stroke:#1f77b4;" x="218.693249" xlink:href="#m0eb08559c4" y="234.73678"/>
     <use style="fill:#1f77b4;stroke:#1f77b4;" x="224.078746" xlink:href="#m0eb08559c4" y="246.01823"/>
     <use style="fill:#1f77b4;stroke:#1f77b4;" x="229.464244" xlink:href="#m0eb08559c4" y="268.58113"/>
     <use style="fill:#1f77b4;stroke:#1f77b4;" x="234.849742" xlink:href="#m0eb08559c4" y="262.940405"/>
     <use style="fill:#1f77b4;stroke:#1f77b4;" x="240.235239" xlink:href="#m0eb08559c4" y="246.01823"/>
     <use style="fill:#1f77b4;stroke:#1f77b4;" x="245.620737" xlink:href="#m0eb08559c4" y="268.58113"/>
     <use style="fill:#1f77b4;stroke:#1f77b4;" x="251.006234" xlink:href="#m0eb08559c4" y="246.01823"/>
     <use style="fill:#1f77b4;stroke:#1f77b4;" x="256.391732" xlink:href="#m0eb08559c4" y="268.58113"/>
     <use style="fill:#1f77b4;stroke:#1f77b4;" x="261.77723" xlink:href="#m0eb08559c4" y="229.096055"/>
     <use style="fill:#1f77b4;stroke:#1f77b4;" x="267.162727" xlink:href="#m0eb08559c4" y="567.539552"/>
     <use style="fill:#1f77b4;stroke:#1f77b4;" x="272.548225" xlink:href="#m0eb08559c4" y="262.940405"/>
     <use style="fill:#1f77b4;stroke:#1f77b4;" x="277.933723" xlink:href="#m0eb08559c4" y="262.940405"/>
     <use style="fill:#1f77b4;stroke:#1f77b4;" x="283.31922" xlink:href="#m0eb08559c4" y="268.58113"/>
     <use style="fill:#1f77b4;stroke:#1f77b4;" x="288.704718" xlink:href="#m0eb08559c4" y="268.58113"/>
     <use style="fill:#1f77b4;stroke:#1f77b4;" x="294.090216" xlink:href="#m0eb08559c4" y="268.58113"/>
     <use style="fill:#1f77b4;stroke:#1f77b4;" x="299.475713" xlink:href="#m0eb08559c4" y="274.221855"/>
     <use style="fill:#1f77b4;stroke:#1f77b4;" x="304.861211" xlink:href="#m0eb08559c4" y="274.221855"/>
     <use style="fill:#1f77b4;stroke:#1f77b4;" x="310.246709" xlink:href="#m0eb08559c4" y="274.221855"/>
     <use style="fill:#1f77b4;stroke:#1f77b4;" x="315.632206" xlink:href="#m0eb08559c4" y="268.58113"/>
     <use style="fill:#1f77b4;stroke:#1f77b4;" x="321.017704" xlink:href="#m0eb08559c4" y="279.86258"/>
     <use style="fill:#1f77b4;stroke:#1f77b4;" x="326.403201" xlink:href="#m0eb08559c4" y="274.221855"/>
     <use style="fill:#1f77b4;stroke:#1f77b4;" x="331.788699" xlink:href="#m0eb08559c4" y="279.86258"/>
     <use style="fill:#1f77b4;stroke:#1f77b4;" x="337.174197" xlink:href="#m0eb08559c4" y="279.86258"/>
     <use style="fill:#1f77b4;stroke:#1f77b4;" x="342.559694" xlink:href="#m0eb08559c4" y="268.58113"/>
     <use style="fill:#1f77b4;stroke:#1f77b4;" x="347.945192" xlink:href="#m0eb08559c4" y="279.86258"/>
     <use style="fill:#1f77b4;stroke:#1f77b4;" x="353.33069" xlink:href="#m0eb08559c4" y="279.86258"/>
     <use style="fill:#1f77b4;stroke:#1f77b4;" x="358.716187" xlink:href="#m0eb08559c4" y="279.86258"/>
     <use style="fill:#1f77b4;stroke:#1f77b4;" x="364.101685" xlink:href="#m0eb08559c4" y="279.86258"/>
     <use style="fill:#1f77b4;stroke:#1f77b4;" x="369.487183" xlink:href="#m0eb08559c4" y="279.86258"/>
     <use style="fill:#1f77b4;stroke:#1f77b4;" x="374.87268" xlink:href="#m0eb08559c4" y="268.58113"/>
     <use style="fill:#1f77b4;stroke:#1f77b4;" x="380.258178" xlink:href="#m0eb08559c4" y="274.221855"/>
     <use style="fill:#1f77b4;stroke:#1f77b4;" x="385.643676" xlink:href="#m0eb08559c4" y="279.86258"/>
     <use style="fill:#1f77b4;stroke:#1f77b4;" x="391.029173" xlink:href="#m0eb08559c4" y="279.86258"/>
     <use style="fill:#1f77b4;stroke:#1f77b4;" x="396.414671" xlink:href="#m0eb08559c4" y="279.86258"/>
     <use style="fill:#1f77b4;stroke:#1f77b4;" x="401.800168" xlink:href="#m0eb08559c4" y="274.221855"/>
     <use style="fill:#1f77b4;stroke:#1f77b4;" x="407.185666" xlink:href="#m0eb08559c4" y="274.221855"/>
     <use style="fill:#1f77b4;stroke:#1f77b4;" x="412.571164" xlink:href="#m0eb08559c4" y="279.86258"/>
     <use style="fill:#1f77b4;stroke:#1f77b4;" x="417.956661" xlink:href="#m0eb08559c4" y="274.221855"/>
     <use style="fill:#1f77b4;stroke:#1f77b4;" x="423.342159" xlink:href="#m0eb08559c4" y="279.86258"/>
     <use style="fill:#1f77b4;stroke:#1f77b4;" x="428.727657" xlink:href="#m0eb08559c4" y="279.86258"/>
    </g>
   </g>
   <g id="patch_3">
    <path d="M 44.203125 279.86258 
L 44.203125 10.8 
" style="fill:none;stroke:#000000;stroke-linecap:square;stroke-linejoin:miter;stroke-width:0.8;"/>
   </g>
   <g id="patch_4">
    <path d="M 447.038349 279.86258 
L 447.038349 10.8 
" style="fill:none;stroke:#000000;stroke-linecap:square;stroke-linejoin:miter;stroke-width:0.8;"/>
   </g>
   <g id="patch_5">
    <path d="M 44.203125 279.86258 
L 447.038349 279.86258 
" style="fill:none;stroke:#000000;stroke-linecap:square;stroke-linejoin:miter;stroke-width:0.8;"/>
   </g>
   <g id="patch_6">
    <path d="M 44.203125 10.8 
L 447.038349 10.8 
" style="fill:none;stroke:#000000;stroke-linecap:square;stroke-linejoin:miter;stroke-width:0.8;"/>
   </g>
  </g>
 </g>
 <defs>
  <clipPath id="p06ba527c1e">
   <rect height="269.06258" width="402.835224" x="44.203125" y="10.8"/>
  </clipPath>
 </defs>
</svg>
