<?xml version="1.0" encoding="utf-8" standalone="no"?>
<!DOCTYPE svg PUBLIC "-//W3C//DTD SVG 1.1//EN"
  "http://www.w3.org/Graphics/SVG/1.1/DTD/svg11.dtd">
<!-- Created with matplotlib (https://matplotlib.org/) -->
<svg height="345.6pt" version="1.1" viewBox="0 0 460.8 345.6" width="460.8pt" xmlns="http://www.w3.org/2000/svg" xmlns:xlink="http://www.w3.org/1999/xlink">
 <defs>
  <style type="text/css">
*{stroke-linecap:butt;stroke-linejoin:round;}
  </style>
 </defs>
 <g id="figure_1">
  <g id="patch_1">
   <path d="M 0 345.6 
L 460.8 345.6 
L 460.8 0 
L 0 0 
z
" style="fill:#ffffff;"/>
  </g>
  <g id="axes_1">
   <g id="patch_2">
    <path d="M 37.840625 279.86258 
L 437.345009 279.86258 
L 437.345009 10.8 
L 37.840625 10.8 
z
" style="fill:#ffffff;"/>
   </g>
   <g id="matplotlib.axis_1">
    <g id="xtick_1">
     <g id="line2d_1">
      <defs>
       <path d="M 0 0 
L 0 3.5 
" id="maeecbfad73" style="stroke:#000000;stroke-width:0.8;"/>
      </defs>
      <g>
       <use style="stroke:#000000;stroke-width:0.8;" x="89.016806" xlink:href="#maeecbfad73" y="279.86258"/>
      </g>
     </g>
     <g id="text_1">
      <!-- 2020-03-15 -->
      <defs>
       <path d="M 19.1875 8.296875 
L 53.609375 8.296875 
L 53.609375 0 
L 7.328125 0 
L 7.328125 8.296875 
Q 12.9375 14.109375 22.625 23.890625 
Q 32.328125 33.6875 34.8125 36.53125 
Q 39.546875 41.84375 41.421875 45.53125 
Q 43.3125 49.21875 43.3125 52.78125 
Q 43.3125 58.59375 39.234375 62.25 
Q 35.15625 65.921875 28.609375 65.921875 
Q 23.96875 65.921875 18.8125 64.3125 
Q 13.671875 62.703125 7.8125 59.421875 
L 7.8125 69.390625 
Q 13.765625 71.78125 18.9375 73 
Q 24.125 74.21875 28.421875 74.21875 
Q 39.75 74.21875 46.484375 68.546875 
Q 53.21875 62.890625 53.21875 53.421875 
Q 53.21875 48.921875 51.53125 44.890625 
Q 49.859375 40.875 45.40625 35.40625 
Q 44.1875 33.984375 37.640625 27.21875 
Q 31.109375 20.453125 19.1875 8.296875 
z
" id="DejaVuSans-50"/>
       <path d="M 31.78125 66.40625 
Q 24.171875 66.40625 20.328125 58.90625 
Q 16.5 51.421875 16.5 36.375 
Q 16.5 21.390625 20.328125 13.890625 
Q 24.171875 6.390625 31.78125 6.390625 
Q 39.453125 6.390625 43.28125 13.890625 
Q 47.125 21.390625 47.125 36.375 
Q 47.125 51.421875 43.28125 58.90625 
Q 39.453125 66.40625 31.78125 66.40625 
z
M 31.78125 74.21875 
Q 44.046875 74.21875 50.515625 64.515625 
Q 56.984375 54.828125 56.984375 36.375 
Q 56.984375 17.96875 50.515625 8.265625 
Q 44.046875 -1.421875 31.78125 -1.421875 
Q 19.53125 -1.421875 13.0625 8.265625 
Q 6.59375 17.96875 6.59375 36.375 
Q 6.59375 54.828125 13.0625 64.515625 
Q 19.53125 74.21875 31.78125 74.21875 
z
" id="DejaVuSans-48"/>
       <path d="M 4.890625 31.390625 
L 31.203125 31.390625 
L 31.203125 23.390625 
L 4.890625 23.390625 
z
" id="DejaVuSans-45"/>
       <path d="M 40.578125 39.3125 
Q 47.65625 37.796875 51.625 33 
Q 55.609375 28.21875 55.609375 21.1875 
Q 55.609375 10.40625 48.1875 4.484375 
Q 40.765625 -1.421875 27.09375 -1.421875 
Q 22.515625 -1.421875 17.65625 -0.515625 
Q 12.796875 0.390625 7.625 2.203125 
L 7.625 11.71875 
Q 11.71875 9.328125 16.59375 8.109375 
Q 21.484375 6.890625 26.8125 6.890625 
Q 36.078125 6.890625 40.9375 10.546875 
Q 45.796875 14.203125 45.796875 21.1875 
Q 45.796875 27.640625 41.28125 31.265625 
Q 36.765625 34.90625 28.71875 34.90625 
L 20.21875 34.90625 
L 20.21875 43.015625 
L 29.109375 43.015625 
Q 36.375 43.015625 40.234375 45.921875 
Q 44.09375 48.828125 44.09375 54.296875 
Q 44.09375 59.90625 40.109375 62.90625 
Q 36.140625 65.921875 28.71875 65.921875 
Q 24.65625 65.921875 20.015625 65.03125 
Q 15.375 64.15625 9.8125 62.3125 
L 9.8125 71.09375 
Q 15.4375 72.65625 20.34375 73.4375 
Q 25.25 74.21875 29.59375 74.21875 
Q 40.828125 74.21875 47.359375 69.109375 
Q 53.90625 64.015625 53.90625 55.328125 
Q 53.90625 49.265625 50.4375 45.09375 
Q 46.96875 40.921875 40.578125 39.3125 
z
" id="DejaVuSans-51"/>
       <path d="M 12.40625 8.296875 
L 28.515625 8.296875 
L 28.515625 63.921875 
L 10.984375 60.40625 
L 10.984375 69.390625 
L 28.421875 72.90625 
L 38.28125 72.90625 
L 38.28125 8.296875 
L 54.390625 8.296875 
L 54.390625 0 
L 12.40625 0 
z
" id="DejaVuSans-49"/>
       <path d="M 10.796875 72.90625 
L 49.515625 72.90625 
L 49.515625 64.59375 
L 19.828125 64.59375 
L 19.828125 46.734375 
Q 21.96875 47.46875 24.109375 47.828125 
Q 26.265625 48.1875 28.421875 48.1875 
Q 40.625 48.1875 47.75 41.5 
Q 54.890625 34.8125 54.890625 23.390625 
Q 54.890625 11.625 47.5625 5.09375 
Q 40.234375 -1.421875 26.90625 -1.421875 
Q 22.3125 -1.421875 17.546875 -0.640625 
Q 12.796875 0.140625 7.71875 1.703125 
L 7.71875 11.625 
Q 12.109375 9.234375 16.796875 8.0625 
Q 21.484375 6.890625 26.703125 6.890625 
Q 35.15625 6.890625 40.078125 11.328125 
Q 45.015625 15.765625 45.015625 23.390625 
Q 45.015625 31 40.078125 35.4375 
Q 35.15625 39.890625 26.703125 39.890625 
Q 22.75 39.890625 18.8125 39.015625 
Q 14.890625 38.140625 10.796875 36.28125 
z
" id="DejaVuSans-53"/>
      </defs>
      <g transform="translate(70.421003 333.329439)rotate(-45)scale(0.1 -0.1)">
       <use xlink:href="#DejaVuSans-50"/>
       <use x="63.623047" xlink:href="#DejaVuSans-48"/>
       <use x="127.246094" xlink:href="#DejaVuSans-50"/>
       <use x="190.869141" xlink:href="#DejaVuSans-48"/>
       <use x="254.492188" xlink:href="#DejaVuSans-45"/>
       <use x="290.576172" xlink:href="#DejaVuSans-48"/>
       <use x="354.199219" xlink:href="#DejaVuSans-51"/>
       <use x="417.822266" xlink:href="#DejaVuSans-45"/>
       <use x="453.90625" xlink:href="#DejaVuSans-49"/>
       <use x="517.529297" xlink:href="#DejaVuSans-53"/>
      </g>
     </g>
    </g>
    <g id="xtick_2">
     <g id="line2d_2">
      <g>
       <use style="stroke:#000000;stroke-width:0.8;" x="182.564665" xlink:href="#maeecbfad73" y="279.86258"/>
      </g>
     </g>
     <g id="text_2">
      <!-- 2020-04-01 -->
      <defs>
       <path d="M 37.796875 64.3125 
L 12.890625 25.390625 
L 37.796875 25.390625 
z
M 35.203125 72.90625 
L 47.609375 72.90625 
L 47.609375 25.390625 
L 58.015625 25.390625 
L 58.015625 17.1875 
L 47.609375 17.1875 
L 47.609375 0 
L 37.796875 0 
L 37.796875 17.1875 
L 4.890625 17.1875 
L 4.890625 26.703125 
z
" id="DejaVuSans-52"/>
      </defs>
      <g transform="translate(163.968861 333.329439)rotate(-45)scale(0.1 -0.1)">
       <use xlink:href="#DejaVuSans-50"/>
       <use x="63.623047" xlink:href="#DejaVuSans-48"/>
       <use x="127.246094" xlink:href="#DejaVuSans-50"/>
       <use x="190.869141" xlink:href="#DejaVuSans-48"/>
       <use x="254.492188" xlink:href="#DejaVuSans-45"/>
       <use x="290.576172" xlink:href="#DejaVuSans-48"/>
       <use x="354.199219" xlink:href="#DejaVuSans-52"/>
       <use x="417.822266" xlink:href="#DejaVuSans-45"/>
       <use x="453.90625" xlink:href="#DejaVuSans-48"/>
       <use x="517.529297" xlink:href="#DejaVuSans-49"/>
      </g>
     </g>
    </g>
    <g id="xtick_3">
     <g id="line2d_3">
      <g>
       <use style="stroke:#000000;stroke-width:0.8;" x="259.604078" xlink:href="#maeecbfad73" y="279.86258"/>
      </g>
     </g>
     <g id="text_3">
      <!-- 2020-04-15 -->
      <g transform="translate(241.008274 333.329439)rotate(-45)scale(0.1 -0.1)">
       <use xlink:href="#DejaVuSans-50"/>
       <use x="63.623047" xlink:href="#DejaVuSans-48"/>
       <use x="127.246094" xlink:href="#DejaVuSans-50"/>
       <use x="190.869141" xlink:href="#DejaVuSans-48"/>
       <use x="254.492188" xlink:href="#DejaVuSans-45"/>
       <use x="290.576172" xlink:href="#DejaVuSans-48"/>
       <use x="354.199219" xlink:href="#DejaVuSans-52"/>
       <use x="417.822266" xlink:href="#DejaVuSans-45"/>
       <use x="453.90625" xlink:href="#DejaVuSans-49"/>
       <use x="517.529297" xlink:href="#DejaVuSans-53"/>
      </g>
     </g>
    </g>
    <g id="xtick_4">
     <g id="line2d_4">
      <g>
       <use style="stroke:#000000;stroke-width:0.8;" x="347.649121" xlink:href="#maeecbfad73" y="279.86258"/>
      </g>
     </g>
     <g id="text_4">
      <!-- 2020-05-01 -->
      <g transform="translate(329.053318 333.329439)rotate(-45)scale(0.1 -0.1)">
       <use xlink:href="#DejaVuSans-50"/>
       <use x="63.623047" xlink:href="#DejaVuSans-48"/>
       <use x="127.246094" xlink:href="#DejaVuSans-50"/>
       <use x="190.869141" xlink:href="#DejaVuSans-48"/>
       <use x="254.492188" xlink:href="#DejaVuSans-45"/>
       <use x="290.576172" xlink:href="#DejaVuSans-48"/>
       <use x="354.199219" xlink:href="#DejaVuSans-53"/>
       <use x="417.822266" xlink:href="#DejaVuSans-45"/>
       <use x="453.90625" xlink:href="#DejaVuSans-48"/>
       <use x="517.529297" xlink:href="#DejaVuSans-49"/>
      </g>
     </g>
    </g>
    <g id="xtick_5">
     <g id="line2d_5">
      <g>
       <use style="stroke:#000000;stroke-width:0.8;" x="424.688534" xlink:href="#maeecbfad73" y="279.86258"/>
      </g>
     </g>
     <g id="text_5">
      <!-- 2020-05-15 -->
      <g transform="translate(406.09273 333.329439)rotate(-45)scale(0.1 -0.1)">
       <use xlink:href="#DejaVuSans-50"/>
       <use x="63.623047" xlink:href="#DejaVuSans-48"/>
       <use x="127.246094" xlink:href="#DejaVuSans-50"/>
       <use x="190.869141" xlink:href="#DejaVuSans-48"/>
       <use x="254.492188" xlink:href="#DejaVuSans-45"/>
       <use x="290.576172" xlink:href="#DejaVuSans-48"/>
       <use x="354.199219" xlink:href="#DejaVuSans-53"/>
       <use x="417.822266" xlink:href="#DejaVuSans-45"/>
       <use x="453.90625" xlink:href="#DejaVuSans-49"/>
       <use x="517.529297" xlink:href="#DejaVuSans-53"/>
      </g>
     </g>
    </g>
   </g>
   <g id="matplotlib.axis_2">
    <g id="ytick_1">
     <g id="line2d_6">
      <defs>
       <path d="M 0 0 
L -3.5 0 
" id="ma98b54c299" style="stroke:#000000;stroke-width:0.8;"/>
      </defs>
      <g>
       <use style="stroke:#000000;stroke-width:0.8;" x="37.840625" xlink:href="#ma98b54c299" y="279.86258"/>
      </g>
     </g>
     <g id="text_6">
      <!-- 0 -->
      <g transform="translate(24.478125 283.661798)scale(0.1 -0.1)">
       <use xlink:href="#DejaVuSans-48"/>
      </g>
     </g>
    </g>
    <g id="ytick_2">
     <g id="line2d_7">
      <g>
       <use style="stroke:#000000;stroke-width:0.8;" x="37.840625" xlink:href="#ma98b54c299" y="247.83132"/>
      </g>
     </g>
     <g id="text_7">
      <!-- 1 -->
      <g transform="translate(24.478125 251.630539)scale(0.1 -0.1)">
       <use xlink:href="#DejaVuSans-49"/>
      </g>
     </g>
    </g>
    <g id="ytick_3">
     <g id="line2d_8">
      <g>
       <use style="stroke:#000000;stroke-width:0.8;" x="37.840625" xlink:href="#ma98b54c299" y="215.800061"/>
      </g>
     </g>
     <g id="text_8">
      <!-- 2 -->
      <g transform="translate(24.478125 219.599279)scale(0.1 -0.1)">
       <use xlink:href="#DejaVuSans-50"/>
      </g>
     </g>
    </g>
    <g id="ytick_4">
     <g id="line2d_9">
      <g>
       <use style="stroke:#000000;stroke-width:0.8;" x="37.840625" xlink:href="#ma98b54c299" y="183.768801"/>
      </g>
     </g>
     <g id="text_9">
      <!-- 3 -->
      <g transform="translate(24.478125 187.56802)scale(0.1 -0.1)">
       <use xlink:href="#DejaVuSans-51"/>
      </g>
     </g>
    </g>
    <g id="ytick_5">
     <g id="line2d_10">
      <g>
       <use style="stroke:#000000;stroke-width:0.8;" x="37.840625" xlink:href="#ma98b54c299" y="151.737542"/>
      </g>
     </g>
     <g id="text_10">
      <!-- 4 -->
      <g transform="translate(24.478125 155.53676)scale(0.1 -0.1)">
       <use xlink:href="#DejaVuSans-52"/>
      </g>
     </g>
    </g>
    <g id="ytick_6">
     <g id="line2d_11">
      <g>
       <use style="stroke:#000000;stroke-width:0.8;" x="37.840625" xlink:href="#ma98b54c299" y="119.706282"/>
      </g>
     </g>
     <g id="text_11">
      <!-- 5 -->
      <g transform="translate(24.478125 123.505501)scale(0.1 -0.1)">
       <use xlink:href="#DejaVuSans-53"/>
      </g>
     </g>
    </g>
    <g id="ytick_7">
     <g id="line2d_12">
      <g>
       <use style="stroke:#000000;stroke-width:0.8;" x="37.840625" xlink:href="#ma98b54c299" y="87.675023"/>
      </g>
     </g>
     <g id="text_12">
      <!-- 6 -->
      <defs>
       <path d="M 33.015625 40.375 
Q 26.375 40.375 22.484375 35.828125 
Q 18.609375 31.296875 18.609375 23.390625 
Q 18.609375 15.53125 22.484375 10.953125 
Q 26.375 6.390625 33.015625 6.390625 
Q 39.65625 6.390625 43.53125 10.953125 
Q 47.40625 15.53125 47.40625 23.390625 
Q 47.40625 31.296875 43.53125 35.828125 
Q 39.65625 40.375 33.015625 40.375 
z
M 52.59375 71.296875 
L 52.59375 62.3125 
Q 48.875 64.0625 45.09375 64.984375 
Q 41.3125 65.921875 37.59375 65.921875 
Q 27.828125 65.921875 22.671875 59.328125 
Q 17.53125 52.734375 16.796875 39.40625 
Q 19.671875 43.65625 24.015625 45.921875 
Q 28.375 48.1875 33.59375 48.1875 
Q 44.578125 48.1875 50.953125 41.515625 
Q 57.328125 34.859375 57.328125 23.390625 
Q 57.328125 12.15625 50.6875 5.359375 
Q 44.046875 -1.421875 33.015625 -1.421875 
Q 20.359375 -1.421875 13.671875 8.265625 
Q 6.984375 17.96875 6.984375 36.375 
Q 6.984375 53.65625 15.1875 63.9375 
Q 23.390625 74.21875 37.203125 74.21875 
Q 40.921875 74.21875 44.703125 73.484375 
Q 48.484375 72.75 52.59375 71.296875 
z
" id="DejaVuSans-54"/>
      </defs>
      <g transform="translate(24.478125 91.474242)scale(0.1 -0.1)">
       <use xlink:href="#DejaVuSans-54"/>
      </g>
     </g>
    </g>
    <g id="ytick_8">
     <g id="line2d_13">
      <g>
       <use style="stroke:#000000;stroke-width:0.8;" x="37.840625" xlink:href="#ma98b54c299" y="55.643763"/>
      </g>
     </g>
     <g id="text_13">
      <!-- 7 -->
      <defs>
       <path d="M 8.203125 72.90625 
L 55.078125 72.90625 
L 55.078125 68.703125 
L 28.609375 0 
L 18.3125 0 
L 43.21875 64.59375 
L 8.203125 64.59375 
z
" id="DejaVuSans-55"/>
      </defs>
      <g transform="translate(24.478125 59.442982)scale(0.1 -0.1)">
       <use xlink:href="#DejaVuSans-55"/>
      </g>
     </g>
    </g>
    <g id="ytick_9">
     <g id="line2d_14">
      <g>
       <use style="stroke:#000000;stroke-width:0.8;" x="37.840625" xlink:href="#ma98b54c299" y="23.612504"/>
      </g>
     </g>
     <g id="text_14">
      <!-- 8 -->
      <defs>
       <path d="M 31.78125 34.625 
Q 24.75 34.625 20.71875 30.859375 
Q 16.703125 27.09375 16.703125 20.515625 
Q 16.703125 13.921875 20.71875 10.15625 
Q 24.75 6.390625 31.78125 6.390625 
Q 38.8125 6.390625 42.859375 10.171875 
Q 46.921875 13.96875 46.921875 20.515625 
Q 46.921875 27.09375 42.890625 30.859375 
Q 38.875 34.625 31.78125 34.625 
z
M 21.921875 38.8125 
Q 15.578125 40.375 12.03125 44.71875 
Q 8.5 49.078125 8.5 55.328125 
Q 8.5 64.0625 14.71875 69.140625 
Q 20.953125 74.21875 31.78125 74.21875 
Q 42.671875 74.21875 48.875 69.140625 
Q 55.078125 64.0625 55.078125 55.328125 
Q 55.078125 49.078125 51.53125 44.71875 
Q 48 40.375 41.703125 38.8125 
Q 48.828125 37.15625 52.796875 32.3125 
Q 56.78125 27.484375 56.78125 20.515625 
Q 56.78125 9.90625 50.3125 4.234375 
Q 43.84375 -1.421875 31.78125 -1.421875 
Q 19.734375 -1.421875 13.25 4.234375 
Q 6.78125 9.90625 6.78125 20.515625 
Q 6.78125 27.484375 10.78125 32.3125 
Q 14.796875 37.15625 21.921875 38.8125 
z
M 18.3125 54.390625 
Q 18.3125 48.734375 21.84375 45.5625 
Q 25.390625 42.390625 31.78125 42.390625 
Q 38.140625 42.390625 41.71875 45.5625 
Q 45.3125 48.734375 45.3125 54.390625 
Q 45.3125 60.0625 41.71875 63.234375 
Q 38.140625 66.40625 31.78125 66.40625 
Q 25.390625 66.40625 21.84375 63.234375 
Q 18.3125 60.0625 18.3125 54.390625 
z
" id="DejaVuSans-56"/>
      </defs>
      <g transform="translate(24.478125 27.411723)scale(0.1 -0.1)">
       <use xlink:href="#DejaVuSans-56"/>
      </g>
     </g>
    </g>
    <g id="text_15">
     <!-- CB uci diarios -->
     <defs>
      <path d="M 64.40625 67.28125 
L 64.40625 56.890625 
Q 59.421875 61.53125 53.78125 63.8125 
Q 48.140625 66.109375 41.796875 66.109375 
Q 29.296875 66.109375 22.65625 58.46875 
Q 16.015625 50.828125 16.015625 36.375 
Q 16.015625 21.96875 22.65625 14.328125 
Q 29.296875 6.6875 41.796875 6.6875 
Q 48.140625 6.6875 53.78125 8.984375 
Q 59.421875 11.28125 64.40625 15.921875 
L 64.40625 5.609375 
Q 59.234375 2.09375 53.4375 0.328125 
Q 47.65625 -1.421875 41.21875 -1.421875 
Q 24.65625 -1.421875 15.125 8.703125 
Q 5.609375 18.84375 5.609375 36.375 
Q 5.609375 53.953125 15.125 64.078125 
Q 24.65625 74.21875 41.21875 74.21875 
Q 47.75 74.21875 53.53125 72.484375 
Q 59.328125 70.75 64.40625 67.28125 
z
" id="DejaVuSans-67"/>
      <path d="M 19.671875 34.8125 
L 19.671875 8.109375 
L 35.5 8.109375 
Q 43.453125 8.109375 47.28125 11.40625 
Q 51.125 14.703125 51.125 21.484375 
Q 51.125 28.328125 47.28125 31.5625 
Q 43.453125 34.8125 35.5 34.8125 
z
M 19.671875 64.796875 
L 19.671875 42.828125 
L 34.28125 42.828125 
Q 41.5 42.828125 45.03125 45.53125 
Q 48.578125 48.25 48.578125 53.8125 
Q 48.578125 59.328125 45.03125 62.0625 
Q 41.5 64.796875 34.28125 64.796875 
z
M 9.8125 72.90625 
L 35.015625 72.90625 
Q 46.296875 72.90625 52.390625 68.21875 
Q 58.5 63.53125 58.5 54.890625 
Q 58.5 48.1875 55.375 44.234375 
Q 52.25 40.28125 46.1875 39.3125 
Q 53.46875 37.75 57.5 32.78125 
Q 61.53125 27.828125 61.53125 20.40625 
Q 61.53125 10.640625 54.890625 5.3125 
Q 48.25 0 35.984375 0 
L 9.8125 0 
z
" id="DejaVuSans-66"/>
      <path id="DejaVuSans-32"/>
      <path d="M 8.5 21.578125 
L 8.5 54.6875 
L 17.484375 54.6875 
L 17.484375 21.921875 
Q 17.484375 14.15625 20.5 10.265625 
Q 23.53125 6.390625 29.59375 6.390625 
Q 36.859375 6.390625 41.078125 11.03125 
Q 45.3125 15.671875 45.3125 23.6875 
L 45.3125 54.6875 
L 54.296875 54.6875 
L 54.296875 0 
L 45.3125 0 
L 45.3125 8.40625 
Q 42.046875 3.421875 37.71875 1 
Q 33.40625 -1.421875 27.6875 -1.421875 
Q 18.265625 -1.421875 13.375 4.4375 
Q 8.5 10.296875 8.5 21.578125 
z
M 31.109375 56 
z
" id="DejaVuSans-117"/>
      <path d="M 48.78125 52.59375 
L 48.78125 44.1875 
Q 44.96875 46.296875 41.140625 47.34375 
Q 37.3125 48.390625 33.40625 48.390625 
Q 24.65625 48.390625 19.8125 42.84375 
Q 14.984375 37.3125 14.984375 27.296875 
Q 14.984375 17.28125 19.8125 11.734375 
Q 24.65625 6.203125 33.40625 6.203125 
Q 37.3125 6.203125 41.140625 7.25 
Q 44.96875 8.296875 48.78125 10.40625 
L 48.78125 2.09375 
Q 45.015625 0.34375 40.984375 -0.53125 
Q 36.96875 -1.421875 32.421875 -1.421875 
Q 20.0625 -1.421875 12.78125 6.34375 
Q 5.515625 14.109375 5.515625 27.296875 
Q 5.515625 40.671875 12.859375 48.328125 
Q 20.21875 56 33.015625 56 
Q 37.15625 56 41.109375 55.140625 
Q 45.0625 54.296875 48.78125 52.59375 
z
" id="DejaVuSans-99"/>
      <path d="M 9.421875 54.6875 
L 18.40625 54.6875 
L 18.40625 0 
L 9.421875 0 
z
M 9.421875 75.984375 
L 18.40625 75.984375 
L 18.40625 64.59375 
L 9.421875 64.59375 
z
" id="DejaVuSans-105"/>
      <path d="M 45.40625 46.390625 
L 45.40625 75.984375 
L 54.390625 75.984375 
L 54.390625 0 
L 45.40625 0 
L 45.40625 8.203125 
Q 42.578125 3.328125 38.25 0.953125 
Q 33.9375 -1.421875 27.875 -1.421875 
Q 17.96875 -1.421875 11.734375 6.484375 
Q 5.515625 14.40625 5.515625 27.296875 
Q 5.515625 40.1875 11.734375 48.09375 
Q 17.96875 56 27.875 56 
Q 33.9375 56 38.25 53.625 
Q 42.578125 51.265625 45.40625 46.390625 
z
M 14.796875 27.296875 
Q 14.796875 17.390625 18.875 11.75 
Q 22.953125 6.109375 30.078125 6.109375 
Q 37.203125 6.109375 41.296875 11.75 
Q 45.40625 17.390625 45.40625 27.296875 
Q 45.40625 37.203125 41.296875 42.84375 
Q 37.203125 48.484375 30.078125 48.484375 
Q 22.953125 48.484375 18.875 42.84375 
Q 14.796875 37.203125 14.796875 27.296875 
z
" id="DejaVuSans-100"/>
      <path d="M 34.28125 27.484375 
Q 23.390625 27.484375 19.1875 25 
Q 14.984375 22.515625 14.984375 16.5 
Q 14.984375 11.71875 18.140625 8.90625 
Q 21.296875 6.109375 26.703125 6.109375 
Q 34.1875 6.109375 38.703125 11.40625 
Q 43.21875 16.703125 43.21875 25.484375 
L 43.21875 27.484375 
z
M 52.203125 31.203125 
L 52.203125 0 
L 43.21875 0 
L 43.21875 8.296875 
Q 40.140625 3.328125 35.546875 0.953125 
Q 30.953125 -1.421875 24.3125 -1.421875 
Q 15.921875 -1.421875 10.953125 3.296875 
Q 6 8.015625 6 15.921875 
Q 6 25.140625 12.171875 29.828125 
Q 18.359375 34.515625 30.609375 34.515625 
L 43.21875 34.515625 
L 43.21875 35.40625 
Q 43.21875 41.609375 39.140625 45 
Q 35.0625 48.390625 27.6875 48.390625 
Q 23 48.390625 18.546875 47.265625 
Q 14.109375 46.140625 10.015625 43.890625 
L 10.015625 52.203125 
Q 14.9375 54.109375 19.578125 55.046875 
Q 24.21875 56 28.609375 56 
Q 40.484375 56 46.34375 49.84375 
Q 52.203125 43.703125 52.203125 31.203125 
z
" id="DejaVuSans-97"/>
      <path d="M 41.109375 46.296875 
Q 39.59375 47.171875 37.8125 47.578125 
Q 36.03125 48 33.890625 48 
Q 26.265625 48 22.1875 43.046875 
Q 18.109375 38.09375 18.109375 28.8125 
L 18.109375 0 
L 9.078125 0 
L 9.078125 54.6875 
L 18.109375 54.6875 
L 18.109375 46.1875 
Q 20.953125 51.171875 25.484375 53.578125 
Q 30.03125 56 36.53125 56 
Q 37.453125 56 38.578125 55.875 
Q 39.703125 55.765625 41.0625 55.515625 
z
" id="DejaVuSans-114"/>
      <path d="M 30.609375 48.390625 
Q 23.390625 48.390625 19.1875 42.75 
Q 14.984375 37.109375 14.984375 27.296875 
Q 14.984375 17.484375 19.15625 11.84375 
Q 23.34375 6.203125 30.609375 6.203125 
Q 37.796875 6.203125 41.984375 11.859375 
Q 46.1875 17.53125 46.1875 27.296875 
Q 46.1875 37.015625 41.984375 42.703125 
Q 37.796875 48.390625 30.609375 48.390625 
z
M 30.609375 56 
Q 42.328125 56 49.015625 48.375 
Q 55.71875 40.765625 55.71875 27.296875 
Q 55.71875 13.875 49.015625 6.21875 
Q 42.328125 -1.421875 30.609375 -1.421875 
Q 18.84375 -1.421875 12.171875 6.21875 
Q 5.515625 13.875 5.515625 27.296875 
Q 5.515625 40.765625 12.171875 48.375 
Q 18.84375 56 30.609375 56 
z
" id="DejaVuSans-111"/>
      <path d="M 44.28125 53.078125 
L 44.28125 44.578125 
Q 40.484375 46.53125 36.375 47.5 
Q 32.28125 48.484375 27.875 48.484375 
Q 21.1875 48.484375 17.84375 46.4375 
Q 14.5 44.390625 14.5 40.28125 
Q 14.5 37.15625 16.890625 35.375 
Q 19.28125 33.59375 26.515625 31.984375 
L 29.59375 31.296875 
Q 39.15625 29.25 43.1875 25.515625 
Q 47.21875 21.78125 47.21875 15.09375 
Q 47.21875 7.46875 41.1875 3.015625 
Q 35.15625 -1.421875 24.609375 -1.421875 
Q 20.21875 -1.421875 15.453125 -0.5625 
Q 10.6875 0.296875 5.421875 2 
L 5.421875 11.28125 
Q 10.40625 8.6875 15.234375 7.390625 
Q 20.0625 6.109375 24.8125 6.109375 
Q 31.15625 6.109375 34.5625 8.28125 
Q 37.984375 10.453125 37.984375 14.40625 
Q 37.984375 18.0625 35.515625 20.015625 
Q 33.0625 21.96875 24.703125 23.78125 
L 21.578125 24.515625 
Q 13.234375 26.265625 9.515625 29.90625 
Q 5.8125 33.546875 5.8125 39.890625 
Q 5.8125 47.609375 11.28125 51.796875 
Q 16.75 56 26.8125 56 
Q 31.78125 56 36.171875 55.265625 
Q 40.578125 54.546875 44.28125 53.078125 
z
" id="DejaVuSans-115"/>
     </defs>
     <g transform="translate(18.398438 179.474259)rotate(-90)scale(0.1 -0.1)">
      <use xlink:href="#DejaVuSans-67"/>
      <use x="69.824219" xlink:href="#DejaVuSans-66"/>
      <use x="138.427734" xlink:href="#DejaVuSans-32"/>
      <use x="170.214844" xlink:href="#DejaVuSans-117"/>
      <use x="233.59375" xlink:href="#DejaVuSans-99"/>
      <use x="288.574219" xlink:href="#DejaVuSans-105"/>
      <use x="316.357422" xlink:href="#DejaVuSans-32"/>
      <use x="348.144531" xlink:href="#DejaVuSans-100"/>
      <use x="411.621094" xlink:href="#DejaVuSans-105"/>
      <use x="439.404297" xlink:href="#DejaVuSans-97"/>
      <use x="500.683594" xlink:href="#DejaVuSans-114"/>
      <use x="541.796875" xlink:href="#DejaVuSans-105"/>
      <use x="569.580078" xlink:href="#DejaVuSans-111"/>
      <use x="630.761719" xlink:href="#DejaVuSans-115"/>
     </g>
    </g>
   </g>
   <g id="line2d_15">
    <path clip-path="url(#pdbd9c07d6a)" d="M 55.999915 279.86258 
L 61.50273 279.86258 
L 67.005546 279.86258 
L 72.508361 279.86258 
L 78.011176 279.86258 
L 83.513991 279.86258 
L 89.016806 215.800061 
L 94.519622 279.86258 
L 100.022437 247.83132 
L 105.525252 247.83132 
L 111.028067 183.768801 
L 116.530882 215.800061 
L 122.033698 279.86258 
L 127.536513 119.706282 
L 133.039328 215.800061 
L 138.542143 215.800061 
L 144.044958 23.612504 
L 149.547774 183.768801 
L 155.050589 23.612504 
L 160.553404 183.768801 
L 166.056219 87.675023 
L 171.559034 151.737542 
L 177.06185 151.737542 
L 182.564665 183.768801 
L 188.06748 215.800061 
L 193.570295 247.83132 
L 199.07311 215.800061 
L 204.575926 183.768801 
L 210.078741 247.83132 
L 215.581556 183.768801 
L 221.084371 215.800061 
L 226.587187 215.800061 
L 232.090002 215.800061 
L 237.592817 279.86258 
L 243.095632 279.86258 
L 248.598447 247.83132 
L 254.101263 279.86258 
L 259.604078 247.83132 
L 265.106893 247.83132 
L 270.609708 279.86258 
L 276.112523 279.86258 
L 281.615339 279.86258 
L 287.118154 279.86258 
L 292.620969 279.86258 
L 298.123784 279.86258 
L 303.626599 279.86258 
L 309.129415 279.86258 
L 314.63223 279.86258 
L 320.135045 279.86258 
L 325.63786 279.86258 
L 331.140675 247.83132 
L 336.643491 279.86258 
L 342.146306 279.86258 
L 347.649121 279.86258 
L 353.151936 279.86258 
L 358.654751 279.86258 
L 364.157567 279.86258 
L 369.660382 279.86258 
L 375.163197 279.86258 
L 380.666012 279.86258 
L 386.168827 279.86258 
L 391.671643 279.86258 
L 397.174458 279.86258 
L 402.677273 279.86258 
L 408.180088 279.86258 
L 413.682903 279.86258 
L 419.185719 279.86258 
" style="fill:none;stroke:#1f77b4;stroke-linecap:square;stroke-width:1.5;"/>
    <defs>
     <path d="M 0 1.5 
C 0.397805 1.5 0.77937 1.341951 1.06066 1.06066 
C 1.341951 0.77937 1.5 0.397805 1.5 0 
C 1.5 -0.397805 1.341951 -0.77937 1.06066 -1.06066 
C 0.77937 -1.341951 0.397805 -1.5 0 -1.5 
C -0.397805 -1.5 -0.77937 -1.341951 -1.06066 -1.06066 
C -1.341951 -0.77937 -1.5 -0.397805 -1.5 0 
C -1.5 0.397805 -1.341951 0.77937 -1.06066 1.06066 
C -0.77937 1.341951 -0.397805 1.5 0 1.5 
z
" id="m1686e3a5b0" style="stroke:#1f77b4;"/>
    </defs>
    <g clip-path="url(#pdbd9c07d6a)">
     <use style="fill:#1f77b4;stroke:#1f77b4;" x="55.999915" xlink:href="#m1686e3a5b0" y="279.86258"/>
     <use style="fill:#1f77b4;stroke:#1f77b4;" x="61.50273" xlink:href="#m1686e3a5b0" y="279.86258"/>
     <use style="fill:#1f77b4;stroke:#1f77b4;" x="67.005546" xlink:href="#m1686e3a5b0" y="279.86258"/>
     <use style="fill:#1f77b4;stroke:#1f77b4;" x="72.508361" xlink:href="#m1686e3a5b0" y="279.86258"/>
     <use style="fill:#1f77b4;stroke:#1f77b4;" x="78.011176" xlink:href="#m1686e3a5b0" y="279.86258"/>
     <use style="fill:#1f77b4;stroke:#1f77b4;" x="83.513991" xlink:href="#m1686e3a5b0" y="279.86258"/>
     <use style="fill:#1f77b4;stroke:#1f77b4;" x="89.016806" xlink:href="#m1686e3a5b0" y="215.800061"/>
     <use style="fill:#1f77b4;stroke:#1f77b4;" x="94.519622" xlink:href="#m1686e3a5b0" y="279.86258"/>
     <use style="fill:#1f77b4;stroke:#1f77b4;" x="100.022437" xlink:href="#m1686e3a5b0" y="247.83132"/>
     <use style="fill:#1f77b4;stroke:#1f77b4;" x="105.525252" xlink:href="#m1686e3a5b0" y="247.83132"/>
     <use style="fill:#1f77b4;stroke:#1f77b4;" x="111.028067" xlink:href="#m1686e3a5b0" y="183.768801"/>
     <use style="fill:#1f77b4;stroke:#1f77b4;" x="116.530882" xlink:href="#m1686e3a5b0" y="215.800061"/>
     <use style="fill:#1f77b4;stroke:#1f77b4;" x="122.033698" xlink:href="#m1686e3a5b0" y="279.86258"/>
     <use style="fill:#1f77b4;stroke:#1f77b4;" x="127.536513" xlink:href="#m1686e3a5b0" y="119.706282"/>
     <use style="fill:#1f77b4;stroke:#1f77b4;" x="133.039328" xlink:href="#m1686e3a5b0" y="215.800061"/>
     <use style="fill:#1f77b4;stroke:#1f77b4;" x="138.542143" xlink:href="#m1686e3a5b0" y="215.800061"/>
     <use style="fill:#1f77b4;stroke:#1f77b4;" x="144.044958" xlink:href="#m1686e3a5b0" y="23.612504"/>
     <use style="fill:#1f77b4;stroke:#1f77b4;" x="149.547774" xlink:href="#m1686e3a5b0" y="183.768801"/>
     <use style="fill:#1f77b4;stroke:#1f77b4;" x="155.050589" xlink:href="#m1686e3a5b0" y="23.612504"/>
     <use style="fill:#1f77b4;stroke:#1f77b4;" x="160.553404" xlink:href="#m1686e3a5b0" y="183.768801"/>
     <use style="fill:#1f77b4;stroke:#1f77b4;" x="166.056219" xlink:href="#m1686e3a5b0" y="87.675023"/>
     <use style="fill:#1f77b4;stroke:#1f77b4;" x="171.559034" xlink:href="#m1686e3a5b0" y="151.737542"/>
     <use style="fill:#1f77b4;stroke:#1f77b4;" x="177.06185" xlink:href="#m1686e3a5b0" y="151.737542"/>
     <use style="fill:#1f77b4;stroke:#1f77b4;" x="182.564665" xlink:href="#m1686e3a5b0" y="183.768801"/>
     <use style="fill:#1f77b4;stroke:#1f77b4;" x="188.06748" xlink:href="#m1686e3a5b0" y="215.800061"/>
     <use style="fill:#1f77b4;stroke:#1f77b4;" x="193.570295" xlink:href="#m1686e3a5b0" y="247.83132"/>
     <use style="fill:#1f77b4;stroke:#1f77b4;" x="199.07311" xlink:href="#m1686e3a5b0" y="215.800061"/>
     <use style="fill:#1f77b4;stroke:#1f77b4;" x="204.575926" xlink:href="#m1686e3a5b0" y="183.768801"/>
     <use style="fill:#1f77b4;stroke:#1f77b4;" x="210.078741" xlink:href="#m1686e3a5b0" y="247.83132"/>
     <use style="fill:#1f77b4;stroke:#1f77b4;" x="215.581556" xlink:href="#m1686e3a5b0" y="183.768801"/>
     <use style="fill:#1f77b4;stroke:#1f77b4;" x="221.084371" xlink:href="#m1686e3a5b0" y="215.800061"/>
     <use style="fill:#1f77b4;stroke:#1f77b4;" x="226.587187" xlink:href="#m1686e3a5b0" y="215.800061"/>
     <use style="fill:#1f77b4;stroke:#1f77b4;" x="232.090002" xlink:href="#m1686e3a5b0" y="215.800061"/>
     <use style="fill:#1f77b4;stroke:#1f77b4;" x="237.592817" xlink:href="#m1686e3a5b0" y="279.86258"/>
     <use style="fill:#1f77b4;stroke:#1f77b4;" x="243.095632" xlink:href="#m1686e3a5b0" y="279.86258"/>
     <use style="fill:#1f77b4;stroke:#1f77b4;" x="248.598447" xlink:href="#m1686e3a5b0" y="247.83132"/>
     <use style="fill:#1f77b4;stroke:#1f77b4;" x="254.101263" xlink:href="#m1686e3a5b0" y="279.86258"/>
     <use style="fill:#1f77b4;stroke:#1f77b4;" x="259.604078" xlink:href="#m1686e3a5b0" y="247.83132"/>
     <use style="fill:#1f77b4;stroke:#1f77b4;" x="265.106893" xlink:href="#m1686e3a5b0" y="247.83132"/>
     <use style="fill:#1f77b4;stroke:#1f77b4;" x="270.609708" xlink:href="#m1686e3a5b0" y="279.86258"/>
     <use style="fill:#1f77b4;stroke:#1f77b4;" x="276.112523" xlink:href="#m1686e3a5b0" y="279.86258"/>
     <use style="fill:#1f77b4;stroke:#1f77b4;" x="281.615339" xlink:href="#m1686e3a5b0" y="279.86258"/>
     <use style="fill:#1f77b4;stroke:#1f77b4;" x="287.118154" xlink:href="#m1686e3a5b0" y="279.86258"/>
     <use style="fill:#1f77b4;stroke:#1f77b4;" x="292.620969" xlink:href="#m1686e3a5b0" y="279.86258"/>
     <use style="fill:#1f77b4;stroke:#1f77b4;" x="298.123784" xlink:href="#m1686e3a5b0" y="279.86258"/>
     <use style="fill:#1f77b4;stroke:#1f77b4;" x="303.626599" xlink:href="#m1686e3a5b0" y="279.86258"/>
     <use style="fill:#1f77b4;stroke:#1f77b4;" x="309.129415" xlink:href="#m1686e3a5b0" y="279.86258"/>
     <use style="fill:#1f77b4;stroke:#1f77b4;" x="314.63223" xlink:href="#m1686e3a5b0" y="279.86258"/>
     <use style="fill:#1f77b4;stroke:#1f77b4;" x="320.135045" xlink:href="#m1686e3a5b0" y="279.86258"/>
     <use style="fill:#1f77b4;stroke:#1f77b4;" x="325.63786" xlink:href="#m1686e3a5b0" y="279.86258"/>
     <use style="fill:#1f77b4;stroke:#1f77b4;" x="331.140675" xlink:href="#m1686e3a5b0" y="247.83132"/>
     <use style="fill:#1f77b4;stroke:#1f77b4;" x="336.643491" xlink:href="#m1686e3a5b0" y="279.86258"/>
     <use style="fill:#1f77b4;stroke:#1f77b4;" x="342.146306" xlink:href="#m1686e3a5b0" y="279.86258"/>
     <use style="fill:#1f77b4;stroke:#1f77b4;" x="347.649121" xlink:href="#m1686e3a5b0" y="279.86258"/>
     <use style="fill:#1f77b4;stroke:#1f77b4;" x="353.151936" xlink:href="#m1686e3a5b0" y="279.86258"/>
     <use style="fill:#1f77b4;stroke:#1f77b4;" x="358.654751" xlink:href="#m1686e3a5b0" y="279.86258"/>
     <use style="fill:#1f77b4;stroke:#1f77b4;" x="364.157567" xlink:href="#m1686e3a5b0" y="279.86258"/>
     <use style="fill:#1f77b4;stroke:#1f77b4;" x="369.660382" xlink:href="#m1686e3a5b0" y="279.86258"/>
     <use style="fill:#1f77b4;stroke:#1f77b4;" x="375.163197" xlink:href="#m1686e3a5b0" y="279.86258"/>
     <use style="fill:#1f77b4;stroke:#1f77b4;" x="380.666012" xlink:href="#m1686e3a5b0" y="279.86258"/>
     <use style="fill:#1f77b4;stroke:#1f77b4;" x="386.168827" xlink:href="#m1686e3a5b0" y="279.86258"/>
     <use style="fill:#1f77b4;stroke:#1f77b4;" x="391.671643" xlink:href="#m1686e3a5b0" y="279.86258"/>
     <use style="fill:#1f77b4;stroke:#1f77b4;" x="397.174458" xlink:href="#m1686e3a5b0" y="279.86258"/>
     <use style="fill:#1f77b4;stroke:#1f77b4;" x="402.677273" xlink:href="#m1686e3a5b0" y="279.86258"/>
     <use style="fill:#1f77b4;stroke:#1f77b4;" x="408.180088" xlink:href="#m1686e3a5b0" y="279.86258"/>
     <use style="fill:#1f77b4;stroke:#1f77b4;" x="413.682903" xlink:href="#m1686e3a5b0" y="279.86258"/>
     <use style="fill:#1f77b4;stroke:#1f77b4;" x="419.185719" xlink:href="#m1686e3a5b0" y="279.86258"/>
    </g>
   </g>
   <g id="patch_3">
    <path d="M 37.840625 279.86258 
L 37.840625 10.8 
" style="fill:none;stroke:#000000;stroke-linecap:square;stroke-linejoin:miter;stroke-width:0.8;"/>
   </g>
   <g id="patch_4">
    <path d="M 437.345009 279.86258 
L 437.345009 10.8 
" style="fill:none;stroke:#000000;stroke-linecap:square;stroke-linejoin:miter;stroke-width:0.8;"/>
   </g>
   <g id="patch_5">
    <path d="M 37.840625 279.86258 
L 437.345009 279.86258 
" style="fill:none;stroke:#000000;stroke-linecap:square;stroke-linejoin:miter;stroke-width:0.8;"/>
   </g>
   <g id="patch_6">
    <path d="M 37.840625 10.8 
L 437.345009 10.8 
" style="fill:none;stroke:#000000;stroke-linecap:square;stroke-linejoin:miter;stroke-width:0.8;"/>
   </g>
  </g>
 </g>
 <defs>
  <clipPath id="pdbd9c07d6a">
   <rect height="269.06258" width="399.504384" x="37.840625" y="10.8"/>
  </clipPath>
 </defs>
</svg>
