<?xml version="1.0" encoding="utf-8" standalone="no"?>
<!DOCTYPE svg PUBLIC "-//W3C//DTD SVG 1.1//EN"
  "http://www.w3.org/Graphics/SVG/1.1/DTD/svg11.dtd">
<!-- Created with matplotlib (https://matplotlib.org/) -->
<svg height="345.6pt" version="1.1" viewBox="0 0 460.8 345.6" width="460.8pt" xmlns="http://www.w3.org/2000/svg" xmlns:xlink="http://www.w3.org/1999/xlink">
 <defs>
  <style type="text/css">
*{stroke-linecap:butt;stroke-linejoin:round;}
  </style>
 </defs>
 <g id="figure_1">
  <g id="patch_1">
   <path d="M 0 345.6 
L 460.8 345.6 
L 460.8 0 
L 0 0 
z
" style="fill:#ffffff;"/>
  </g>
  <g id="axes_1">
   <g id="patch_2">
    <path d="M 44.203125 279.86258 
L 432.274646 279.86258 
L 432.274646 14.599219 
L 44.203125 14.599219 
z
" style="fill:#ffffff;"/>
   </g>
   <g id="matplotlib.axis_1">
    <g id="xtick_1">
     <g id="line2d_1">
      <defs>
       <path d="M 0 0 
L 0 3.5 
" id="m9dbfdc3052" style="stroke:#000000;stroke-width:0.8;"/>
      </defs>
      <g>
       <use style="stroke:#000000;stroke-width:0.8;" x="94.408182" xlink:href="#m9dbfdc3052" y="279.86258"/>
      </g>
     </g>
     <g id="text_1">
      <!-- 2020-03-15 -->
      <defs>
       <path d="M 19.1875 8.296875 
L 53.609375 8.296875 
L 53.609375 0 
L 7.328125 0 
L 7.328125 8.296875 
Q 12.9375 14.109375 22.625 23.890625 
Q 32.328125 33.6875 34.8125 36.53125 
Q 39.546875 41.84375 41.421875 45.53125 
Q 43.3125 49.21875 43.3125 52.78125 
Q 43.3125 58.59375 39.234375 62.25 
Q 35.15625 65.921875 28.609375 65.921875 
Q 23.96875 65.921875 18.8125 64.3125 
Q 13.671875 62.703125 7.8125 59.421875 
L 7.8125 69.390625 
Q 13.765625 71.78125 18.9375 73 
Q 24.125 74.21875 28.421875 74.21875 
Q 39.75 74.21875 46.484375 68.546875 
Q 53.21875 62.890625 53.21875 53.421875 
Q 53.21875 48.921875 51.53125 44.890625 
Q 49.859375 40.875 45.40625 35.40625 
Q 44.1875 33.984375 37.640625 27.21875 
Q 31.109375 20.453125 19.1875 8.296875 
z
" id="DejaVuSans-50"/>
       <path d="M 31.78125 66.40625 
Q 24.171875 66.40625 20.328125 58.90625 
Q 16.5 51.421875 16.5 36.375 
Q 16.5 21.390625 20.328125 13.890625 
Q 24.171875 6.390625 31.78125 6.390625 
Q 39.453125 6.390625 43.28125 13.890625 
Q 47.125 21.390625 47.125 36.375 
Q 47.125 51.421875 43.28125 58.90625 
Q 39.453125 66.40625 31.78125 66.40625 
z
M 31.78125 74.21875 
Q 44.046875 74.21875 50.515625 64.515625 
Q 56.984375 54.828125 56.984375 36.375 
Q 56.984375 17.96875 50.515625 8.265625 
Q 44.046875 -1.421875 31.78125 -1.421875 
Q 19.53125 -1.421875 13.0625 8.265625 
Q 6.59375 17.96875 6.59375 36.375 
Q 6.59375 54.828125 13.0625 64.515625 
Q 19.53125 74.21875 31.78125 74.21875 
z
" id="DejaVuSans-48"/>
       <path d="M 4.890625 31.390625 
L 31.203125 31.390625 
L 31.203125 23.390625 
L 4.890625 23.390625 
z
" id="DejaVuSans-45"/>
       <path d="M 40.578125 39.3125 
Q 47.65625 37.796875 51.625 33 
Q 55.609375 28.21875 55.609375 21.1875 
Q 55.609375 10.40625 48.1875 4.484375 
Q 40.765625 -1.421875 27.09375 -1.421875 
Q 22.515625 -1.421875 17.65625 -0.515625 
Q 12.796875 0.390625 7.625 2.203125 
L 7.625 11.71875 
Q 11.71875 9.328125 16.59375 8.109375 
Q 21.484375 6.890625 26.8125 6.890625 
Q 36.078125 6.890625 40.9375 10.546875 
Q 45.796875 14.203125 45.796875 21.1875 
Q 45.796875 27.640625 41.28125 31.265625 
Q 36.765625 34.90625 28.71875 34.90625 
L 20.21875 34.90625 
L 20.21875 43.015625 
L 29.109375 43.015625 
Q 36.375 43.015625 40.234375 45.921875 
Q 44.09375 48.828125 44.09375 54.296875 
Q 44.09375 59.90625 40.109375 62.90625 
Q 36.140625 65.921875 28.71875 65.921875 
Q 24.65625 65.921875 20.015625 65.03125 
Q 15.375 64.15625 9.8125 62.3125 
L 9.8125 71.09375 
Q 15.4375 72.65625 20.34375 73.4375 
Q 25.25 74.21875 29.59375 74.21875 
Q 40.828125 74.21875 47.359375 69.109375 
Q 53.90625 64.015625 53.90625 55.328125 
Q 53.90625 49.265625 50.4375 45.09375 
Q 46.96875 40.921875 40.578125 39.3125 
z
" id="DejaVuSans-51"/>
       <path d="M 12.40625 8.296875 
L 28.515625 8.296875 
L 28.515625 63.921875 
L 10.984375 60.40625 
L 10.984375 69.390625 
L 28.421875 72.90625 
L 38.28125 72.90625 
L 38.28125 8.296875 
L 54.390625 8.296875 
L 54.390625 0 
L 12.40625 0 
z
" id="DejaVuSans-49"/>
       <path d="M 10.796875 72.90625 
L 49.515625 72.90625 
L 49.515625 64.59375 
L 19.828125 64.59375 
L 19.828125 46.734375 
Q 21.96875 47.46875 24.109375 47.828125 
Q 26.265625 48.1875 28.421875 48.1875 
Q 40.625 48.1875 47.75 41.5 
Q 54.890625 34.8125 54.890625 23.390625 
Q 54.890625 11.625 47.5625 5.09375 
Q 40.234375 -1.421875 26.90625 -1.421875 
Q 22.3125 -1.421875 17.546875 -0.640625 
Q 12.796875 0.140625 7.71875 1.703125 
L 7.71875 11.625 
Q 12.109375 9.234375 16.796875 8.0625 
Q 21.484375 6.890625 26.703125 6.890625 
Q 35.15625 6.890625 40.078125 11.328125 
Q 45.015625 15.765625 45.015625 23.390625 
Q 45.015625 31 40.078125 35.4375 
Q 35.15625 39.890625 26.703125 39.890625 
Q 22.75 39.890625 18.8125 39.015625 
Q 14.890625 38.140625 10.796875 36.28125 
z
" id="DejaVuSans-53"/>
      </defs>
      <g transform="translate(75.812378 333.329439)rotate(-45)scale(0.1 -0.1)">
       <use xlink:href="#DejaVuSans-50"/>
       <use x="63.623047" xlink:href="#DejaVuSans-48"/>
       <use x="127.246094" xlink:href="#DejaVuSans-50"/>
       <use x="190.869141" xlink:href="#DejaVuSans-48"/>
       <use x="254.492188" xlink:href="#DejaVuSans-45"/>
       <use x="290.576172" xlink:href="#DejaVuSans-48"/>
       <use x="354.199219" xlink:href="#DejaVuSans-51"/>
       <use x="417.822266" xlink:href="#DejaVuSans-45"/>
       <use x="453.90625" xlink:href="#DejaVuSans-49"/>
       <use x="517.529297" xlink:href="#DejaVuSans-53"/>
      </g>
     </g>
    </g>
    <g id="xtick_2">
     <g id="line2d_2">
      <g>
       <use style="stroke:#000000;stroke-width:0.8;" x="186.676935" xlink:href="#m9dbfdc3052" y="279.86258"/>
      </g>
     </g>
     <g id="text_2">
      <!-- 2020-04-01 -->
      <defs>
       <path d="M 37.796875 64.3125 
L 12.890625 25.390625 
L 37.796875 25.390625 
z
M 35.203125 72.90625 
L 47.609375 72.90625 
L 47.609375 25.390625 
L 58.015625 25.390625 
L 58.015625 17.1875 
L 47.609375 17.1875 
L 47.609375 0 
L 37.796875 0 
L 37.796875 17.1875 
L 4.890625 17.1875 
L 4.890625 26.703125 
z
" id="DejaVuSans-52"/>
      </defs>
      <g transform="translate(168.081132 333.329439)rotate(-45)scale(0.1 -0.1)">
       <use xlink:href="#DejaVuSans-50"/>
       <use x="63.623047" xlink:href="#DejaVuSans-48"/>
       <use x="127.246094" xlink:href="#DejaVuSans-50"/>
       <use x="190.869141" xlink:href="#DejaVuSans-48"/>
       <use x="254.492188" xlink:href="#DejaVuSans-45"/>
       <use x="290.576172" xlink:href="#DejaVuSans-48"/>
       <use x="354.199219" xlink:href="#DejaVuSans-52"/>
       <use x="417.822266" xlink:href="#DejaVuSans-45"/>
       <use x="453.90625" xlink:href="#DejaVuSans-48"/>
       <use x="517.529297" xlink:href="#DejaVuSans-49"/>
      </g>
     </g>
    </g>
    <g id="xtick_3">
     <g id="line2d_3">
      <g>
       <use style="stroke:#000000;stroke-width:0.8;" x="262.662968" xlink:href="#m9dbfdc3052" y="279.86258"/>
      </g>
     </g>
     <g id="text_3">
      <!-- 2020-04-15 -->
      <g transform="translate(244.067164 333.329439)rotate(-45)scale(0.1 -0.1)">
       <use xlink:href="#DejaVuSans-50"/>
       <use x="63.623047" xlink:href="#DejaVuSans-48"/>
       <use x="127.246094" xlink:href="#DejaVuSans-50"/>
       <use x="190.869141" xlink:href="#DejaVuSans-48"/>
       <use x="254.492188" xlink:href="#DejaVuSans-45"/>
       <use x="290.576172" xlink:href="#DejaVuSans-48"/>
       <use x="354.199219" xlink:href="#DejaVuSans-52"/>
       <use x="417.822266" xlink:href="#DejaVuSans-45"/>
       <use x="453.90625" xlink:href="#DejaVuSans-49"/>
       <use x="517.529297" xlink:href="#DejaVuSans-53"/>
      </g>
     </g>
    </g>
    <g id="xtick_4">
     <g id="line2d_4">
      <g>
       <use style="stroke:#000000;stroke-width:0.8;" x="349.504147" xlink:href="#m9dbfdc3052" y="279.86258"/>
      </g>
     </g>
     <g id="text_4">
      <!-- 2020-05-01 -->
      <g transform="translate(330.908344 333.329439)rotate(-45)scale(0.1 -0.1)">
       <use xlink:href="#DejaVuSans-50"/>
       <use x="63.623047" xlink:href="#DejaVuSans-48"/>
       <use x="127.246094" xlink:href="#DejaVuSans-50"/>
       <use x="190.869141" xlink:href="#DejaVuSans-48"/>
       <use x="254.492188" xlink:href="#DejaVuSans-45"/>
       <use x="290.576172" xlink:href="#DejaVuSans-48"/>
       <use x="354.199219" xlink:href="#DejaVuSans-53"/>
       <use x="417.822266" xlink:href="#DejaVuSans-45"/>
       <use x="453.90625" xlink:href="#DejaVuSans-48"/>
       <use x="517.529297" xlink:href="#DejaVuSans-49"/>
      </g>
     </g>
    </g>
    <g id="xtick_5">
     <g id="line2d_5">
      <g>
       <use style="stroke:#000000;stroke-width:0.8;" x="425.490179" xlink:href="#m9dbfdc3052" y="279.86258"/>
      </g>
     </g>
     <g id="text_5">
      <!-- 2020-05-15 -->
      <g transform="translate(406.894376 333.329439)rotate(-45)scale(0.1 -0.1)">
       <use xlink:href="#DejaVuSans-50"/>
       <use x="63.623047" xlink:href="#DejaVuSans-48"/>
       <use x="127.246094" xlink:href="#DejaVuSans-50"/>
       <use x="190.869141" xlink:href="#DejaVuSans-48"/>
       <use x="254.492188" xlink:href="#DejaVuSans-45"/>
       <use x="290.576172" xlink:href="#DejaVuSans-48"/>
       <use x="354.199219" xlink:href="#DejaVuSans-53"/>
       <use x="417.822266" xlink:href="#DejaVuSans-45"/>
       <use x="453.90625" xlink:href="#DejaVuSans-49"/>
       <use x="517.529297" xlink:href="#DejaVuSans-53"/>
      </g>
     </g>
    </g>
   </g>
   <g id="matplotlib.axis_2">
    <g id="ytick_1">
     <g id="line2d_6">
      <defs>
       <path d="M 0 0 
L -3.5 0 
" id="m48389c1c57" style="stroke:#000000;stroke-width:0.8;"/>
      </defs>
      <g>
       <use style="stroke:#000000;stroke-width:0.8;" x="44.203125" xlink:href="#m48389c1c57" y="279.86258"/>
      </g>
     </g>
     <g id="text_6">
      <!-- 0 -->
      <g transform="translate(30.840625 283.661798)scale(0.1 -0.1)">
       <use xlink:href="#DejaVuSans-48"/>
      </g>
     </g>
    </g>
    <g id="ytick_2">
     <g id="line2d_7">
      <g>
       <use style="stroke:#000000;stroke-width:0.8;" x="44.203125" xlink:href="#m48389c1c57" y="226.809907"/>
      </g>
     </g>
     <g id="text_7">
      <!-- 10 -->
      <g transform="translate(24.478125 230.609126)scale(0.1 -0.1)">
       <use xlink:href="#DejaVuSans-49"/>
       <use x="63.623047" xlink:href="#DejaVuSans-48"/>
      </g>
     </g>
    </g>
    <g id="ytick_3">
     <g id="line2d_8">
      <g>
       <use style="stroke:#000000;stroke-width:0.8;" x="44.203125" xlink:href="#m48389c1c57" y="173.757235"/>
      </g>
     </g>
     <g id="text_8">
      <!-- 20 -->
      <g transform="translate(24.478125 177.556454)scale(0.1 -0.1)">
       <use xlink:href="#DejaVuSans-50"/>
       <use x="63.623047" xlink:href="#DejaVuSans-48"/>
      </g>
     </g>
    </g>
    <g id="ytick_4">
     <g id="line2d_9">
      <g>
       <use style="stroke:#000000;stroke-width:0.8;" x="44.203125" xlink:href="#m48389c1c57" y="120.704563"/>
      </g>
     </g>
     <g id="text_9">
      <!-- 30 -->
      <g transform="translate(24.478125 124.503782)scale(0.1 -0.1)">
       <use xlink:href="#DejaVuSans-51"/>
       <use x="63.623047" xlink:href="#DejaVuSans-48"/>
      </g>
     </g>
    </g>
    <g id="ytick_5">
     <g id="line2d_10">
      <g>
       <use style="stroke:#000000;stroke-width:0.8;" x="44.203125" xlink:href="#m48389c1c57" y="67.651891"/>
      </g>
     </g>
     <g id="text_10">
      <!-- 40 -->
      <g transform="translate(24.478125 71.45111)scale(0.1 -0.1)">
       <use xlink:href="#DejaVuSans-52"/>
       <use x="63.623047" xlink:href="#DejaVuSans-48"/>
      </g>
     </g>
    </g>
    <g id="ytick_6">
     <g id="line2d_11">
      <g>
       <use style="stroke:#000000;stroke-width:0.8;" x="44.203125" xlink:href="#m48389c1c57" y="14.599219"/>
      </g>
     </g>
     <g id="text_11">
      <!-- 50 -->
      <g transform="translate(24.478125 18.398438)scale(0.1 -0.1)">
       <use xlink:href="#DejaVuSans-53"/>
       <use x="63.623047" xlink:href="#DejaVuSans-48"/>
      </g>
     </g>
    </g>
    <g id="text_12">
     <!-- CM uci diarios -->
     <defs>
      <path d="M 64.40625 67.28125 
L 64.40625 56.890625 
Q 59.421875 61.53125 53.78125 63.8125 
Q 48.140625 66.109375 41.796875 66.109375 
Q 29.296875 66.109375 22.65625 58.46875 
Q 16.015625 50.828125 16.015625 36.375 
Q 16.015625 21.96875 22.65625 14.328125 
Q 29.296875 6.6875 41.796875 6.6875 
Q 48.140625 6.6875 53.78125 8.984375 
Q 59.421875 11.28125 64.40625 15.921875 
L 64.40625 5.609375 
Q 59.234375 2.09375 53.4375 0.328125 
Q 47.65625 -1.421875 41.21875 -1.421875 
Q 24.65625 -1.421875 15.125 8.703125 
Q 5.609375 18.84375 5.609375 36.375 
Q 5.609375 53.953125 15.125 64.078125 
Q 24.65625 74.21875 41.21875 74.21875 
Q 47.75 74.21875 53.53125 72.484375 
Q 59.328125 70.75 64.40625 67.28125 
z
" id="DejaVuSans-67"/>
      <path d="M 9.8125 72.90625 
L 24.515625 72.90625 
L 43.109375 23.296875 
L 61.8125 72.90625 
L 76.515625 72.90625 
L 76.515625 0 
L 66.890625 0 
L 66.890625 64.015625 
L 48.09375 14.015625 
L 38.1875 14.015625 
L 19.390625 64.015625 
L 19.390625 0 
L 9.8125 0 
z
" id="DejaVuSans-77"/>
      <path id="DejaVuSans-32"/>
      <path d="M 8.5 21.578125 
L 8.5 54.6875 
L 17.484375 54.6875 
L 17.484375 21.921875 
Q 17.484375 14.15625 20.5 10.265625 
Q 23.53125 6.390625 29.59375 6.390625 
Q 36.859375 6.390625 41.078125 11.03125 
Q 45.3125 15.671875 45.3125 23.6875 
L 45.3125 54.6875 
L 54.296875 54.6875 
L 54.296875 0 
L 45.3125 0 
L 45.3125 8.40625 
Q 42.046875 3.421875 37.71875 1 
Q 33.40625 -1.421875 27.6875 -1.421875 
Q 18.265625 -1.421875 13.375 4.4375 
Q 8.5 10.296875 8.5 21.578125 
z
M 31.109375 56 
z
" id="DejaVuSans-117"/>
      <path d="M 48.78125 52.59375 
L 48.78125 44.1875 
Q 44.96875 46.296875 41.140625 47.34375 
Q 37.3125 48.390625 33.40625 48.390625 
Q 24.65625 48.390625 19.8125 42.84375 
Q 14.984375 37.3125 14.984375 27.296875 
Q 14.984375 17.28125 19.8125 11.734375 
Q 24.65625 6.203125 33.40625 6.203125 
Q 37.3125 6.203125 41.140625 7.25 
Q 44.96875 8.296875 48.78125 10.40625 
L 48.78125 2.09375 
Q 45.015625 0.34375 40.984375 -0.53125 
Q 36.96875 -1.421875 32.421875 -1.421875 
Q 20.0625 -1.421875 12.78125 6.34375 
Q 5.515625 14.109375 5.515625 27.296875 
Q 5.515625 40.671875 12.859375 48.328125 
Q 20.21875 56 33.015625 56 
Q 37.15625 56 41.109375 55.140625 
Q 45.0625 54.296875 48.78125 52.59375 
z
" id="DejaVuSans-99"/>
      <path d="M 9.421875 54.6875 
L 18.40625 54.6875 
L 18.40625 0 
L 9.421875 0 
z
M 9.421875 75.984375 
L 18.40625 75.984375 
L 18.40625 64.59375 
L 9.421875 64.59375 
z
" id="DejaVuSans-105"/>
      <path d="M 45.40625 46.390625 
L 45.40625 75.984375 
L 54.390625 75.984375 
L 54.390625 0 
L 45.40625 0 
L 45.40625 8.203125 
Q 42.578125 3.328125 38.25 0.953125 
Q 33.9375 -1.421875 27.875 -1.421875 
Q 17.96875 -1.421875 11.734375 6.484375 
Q 5.515625 14.40625 5.515625 27.296875 
Q 5.515625 40.1875 11.734375 48.09375 
Q 17.96875 56 27.875 56 
Q 33.9375 56 38.25 53.625 
Q 42.578125 51.265625 45.40625 46.390625 
z
M 14.796875 27.296875 
Q 14.796875 17.390625 18.875 11.75 
Q 22.953125 6.109375 30.078125 6.109375 
Q 37.203125 6.109375 41.296875 11.75 
Q 45.40625 17.390625 45.40625 27.296875 
Q 45.40625 37.203125 41.296875 42.84375 
Q 37.203125 48.484375 30.078125 48.484375 
Q 22.953125 48.484375 18.875 42.84375 
Q 14.796875 37.203125 14.796875 27.296875 
z
" id="DejaVuSans-100"/>
      <path d="M 34.28125 27.484375 
Q 23.390625 27.484375 19.1875 25 
Q 14.984375 22.515625 14.984375 16.5 
Q 14.984375 11.71875 18.140625 8.90625 
Q 21.296875 6.109375 26.703125 6.109375 
Q 34.1875 6.109375 38.703125 11.40625 
Q 43.21875 16.703125 43.21875 25.484375 
L 43.21875 27.484375 
z
M 52.203125 31.203125 
L 52.203125 0 
L 43.21875 0 
L 43.21875 8.296875 
Q 40.140625 3.328125 35.546875 0.953125 
Q 30.953125 -1.421875 24.3125 -1.421875 
Q 15.921875 -1.421875 10.953125 3.296875 
Q 6 8.015625 6 15.921875 
Q 6 25.140625 12.171875 29.828125 
Q 18.359375 34.515625 30.609375 34.515625 
L 43.21875 34.515625 
L 43.21875 35.40625 
Q 43.21875 41.609375 39.140625 45 
Q 35.0625 48.390625 27.6875 48.390625 
Q 23 48.390625 18.546875 47.265625 
Q 14.109375 46.140625 10.015625 43.890625 
L 10.015625 52.203125 
Q 14.9375 54.109375 19.578125 55.046875 
Q 24.21875 56 28.609375 56 
Q 40.484375 56 46.34375 49.84375 
Q 52.203125 43.703125 52.203125 31.203125 
z
" id="DejaVuSans-97"/>
      <path d="M 41.109375 46.296875 
Q 39.59375 47.171875 37.8125 47.578125 
Q 36.03125 48 33.890625 48 
Q 26.265625 48 22.1875 43.046875 
Q 18.109375 38.09375 18.109375 28.8125 
L 18.109375 0 
L 9.078125 0 
L 9.078125 54.6875 
L 18.109375 54.6875 
L 18.109375 46.1875 
Q 20.953125 51.171875 25.484375 53.578125 
Q 30.03125 56 36.53125 56 
Q 37.453125 56 38.578125 55.875 
Q 39.703125 55.765625 41.0625 55.515625 
z
" id="DejaVuSans-114"/>
      <path d="M 30.609375 48.390625 
Q 23.390625 48.390625 19.1875 42.75 
Q 14.984375 37.109375 14.984375 27.296875 
Q 14.984375 17.484375 19.15625 11.84375 
Q 23.34375 6.203125 30.609375 6.203125 
Q 37.796875 6.203125 41.984375 11.859375 
Q 46.1875 17.53125 46.1875 27.296875 
Q 46.1875 37.015625 41.984375 42.703125 
Q 37.796875 48.390625 30.609375 48.390625 
z
M 30.609375 56 
Q 42.328125 56 49.015625 48.375 
Q 55.71875 40.765625 55.71875 27.296875 
Q 55.71875 13.875 49.015625 6.21875 
Q 42.328125 -1.421875 30.609375 -1.421875 
Q 18.84375 -1.421875 12.171875 6.21875 
Q 5.515625 13.875 5.515625 27.296875 
Q 5.515625 40.765625 12.171875 48.375 
Q 18.84375 56 30.609375 56 
z
" id="DejaVuSans-111"/>
      <path d="M 44.28125 53.078125 
L 44.28125 44.578125 
Q 40.484375 46.53125 36.375 47.5 
Q 32.28125 48.484375 27.875 48.484375 
Q 21.1875 48.484375 17.84375 46.4375 
Q 14.5 44.390625 14.5 40.28125 
Q 14.5 37.15625 16.890625 35.375 
Q 19.28125 33.59375 26.515625 31.984375 
L 29.59375 31.296875 
Q 39.15625 29.25 43.1875 25.515625 
Q 47.21875 21.78125 47.21875 15.09375 
Q 47.21875 7.46875 41.1875 3.015625 
Q 35.15625 -1.421875 24.609375 -1.421875 
Q 20.21875 -1.421875 15.453125 -0.5625 
Q 10.6875 0.296875 5.421875 2 
L 5.421875 11.28125 
Q 10.40625 8.6875 15.234375 7.390625 
Q 20.0625 6.109375 24.8125 6.109375 
Q 31.15625 6.109375 34.5625 8.28125 
Q 37.984375 10.453125 37.984375 14.40625 
Q 37.984375 18.0625 35.515625 20.015625 
Q 33.0625 21.96875 24.703125 23.78125 
L 21.578125 24.515625 
Q 13.234375 26.265625 9.515625 29.90625 
Q 5.8125 33.546875 5.8125 39.890625 
Q 5.8125 47.609375 11.28125 51.796875 
Q 16.75 56 26.8125 56 
Q 31.78125 56 36.171875 55.265625 
Q 40.578125 54.546875 44.28125 53.078125 
z
" id="DejaVuSans-115"/>
     </defs>
     <g transform="translate(18.398437 182.257462)rotate(-90)scale(0.1 -0.1)">
      <use xlink:href="#DejaVuSans-67"/>
      <use x="69.824219" xlink:href="#DejaVuSans-77"/>
      <use x="156.103516" xlink:href="#DejaVuSans-32"/>
      <use x="187.890625" xlink:href="#DejaVuSans-117"/>
      <use x="251.269531" xlink:href="#DejaVuSans-99"/>
      <use x="306.25" xlink:href="#DejaVuSans-105"/>
      <use x="334.033203" xlink:href="#DejaVuSans-32"/>
      <use x="365.820312" xlink:href="#DejaVuSans-100"/>
      <use x="429.296875" xlink:href="#DejaVuSans-105"/>
      <use x="457.080078" xlink:href="#DejaVuSans-97"/>
      <use x="518.359375" xlink:href="#DejaVuSans-114"/>
      <use x="559.472656" xlink:href="#DejaVuSans-105"/>
      <use x="587.255859" xlink:href="#DejaVuSans-111"/>
      <use x="648.4375" xlink:href="#DejaVuSans-115"/>
     </g>
    </g>
   </g>
   <g id="line2d_12">
    <path clip-path="url(#p305d0962b1)" d="M 61.84274 274.557312 
L 67.270313 269.252045 
L 72.697887 258.641511 
L 78.125461 274.557312 
L 83.553035 279.86258 
L 88.980608 279.86258 
L 94.408182 210.894106 
L 99.835756 279.86258 
L 105.263329 248.030976 
L 110.690903 237.420442 
L 116.118477 279.86258 
L 121.546051 131.315098 
L 126.973624 221.50464 
L 131.112428 -1 
M 135.127442 -1 
L 137.828772 67.651891 
L 143.256346 131.315098 
L 148.683919 104.788761 
L 154.111493 120.704563 
L 159.539067 194.978304 
L 164.96664 226.809907 
L 170.394214 263.946778 
L 175.821788 57.041356 
L 181.249362 232.115175 
L 186.676935 269.252045 
L 192.104509 279.86258 
L 197.532083 253.336244 
L 202.959657 295.778381 
L 208.38723 295.778381 
L 213.814804 248.030976 
L 219.242378 311.694183 
L 224.669951 343.525786 
L 227.815037 346.6 
M 235.700675 346.6 
L 240.952673 279.86258 
L 242.759827 -1 
M 250.269751 -1 
L 251.80782 221.50464 
L 257.235394 232.115175 
L 262.662968 237.420442 
L 268.090541 237.420442 
L 273.518115 263.946778 
L 278.945689 258.641511 
L 284.373262 210.894106 
L 289.800836 263.946778 
L 295.22841 263.946778 
L 300.655984 232.115175 
L 306.083557 242.725709 
L 311.511131 248.030976 
L 316.938705 248.030976 
L 322.366279 205.588839 
L 327.793852 253.336244 
L 333.221426 258.641511 
L 338.649 258.641511 
L 344.076573 258.641511 
L 349.504147 253.336244 
L 354.931721 263.946778 
L 360.359295 269.252045 
L 365.786868 263.946778 
L 371.214442 263.946778 
L 376.642016 274.557312 
L 382.069589 258.641511 
L 387.497163 258.641511 
L 392.924737 269.252045 
L 398.352311 274.557312 
L 403.779884 253.336244 
L 409.207458 263.946778 
L 414.635032 269.252045 
" style="fill:none;stroke:#1f77b4;stroke-linecap:square;stroke-width:1.5;"/>
    <defs>
     <path d="M 0 1.5 
C 0.397805 1.5 0.77937 1.341951 1.06066 1.06066 
C 1.341951 0.77937 1.5 0.397805 1.5 0 
C 1.5 -0.397805 1.341951 -0.77937 1.06066 -1.06066 
C 0.77937 -1.341951 0.397805 -1.5 0 -1.5 
C -0.397805 -1.5 -0.77937 -1.341951 -1.06066 -1.06066 
C -1.341951 -0.77937 -1.5 -0.397805 -1.5 0 
C -1.5 0.397805 -1.341951 0.77937 -1.06066 1.06066 
C -0.77937 1.341951 -0.397805 1.5 0 1.5 
z
" id="m3da26389df" style="stroke:#1f77b4;"/>
    </defs>
    <g clip-path="url(#p305d0962b1)">
     <use style="fill:#1f77b4;stroke:#1f77b4;" x="61.84274" xlink:href="#m3da26389df" y="274.557312"/>
     <use style="fill:#1f77b4;stroke:#1f77b4;" x="67.270313" xlink:href="#m3da26389df" y="269.252045"/>
     <use style="fill:#1f77b4;stroke:#1f77b4;" x="72.697887" xlink:href="#m3da26389df" y="258.641511"/>
     <use style="fill:#1f77b4;stroke:#1f77b4;" x="78.125461" xlink:href="#m3da26389df" y="274.557312"/>
     <use style="fill:#1f77b4;stroke:#1f77b4;" x="83.553035" xlink:href="#m3da26389df" y="279.86258"/>
     <use style="fill:#1f77b4;stroke:#1f77b4;" x="88.980608" xlink:href="#m3da26389df" y="279.86258"/>
     <use style="fill:#1f77b4;stroke:#1f77b4;" x="94.408182" xlink:href="#m3da26389df" y="210.894106"/>
     <use style="fill:#1f77b4;stroke:#1f77b4;" x="99.835756" xlink:href="#m3da26389df" y="279.86258"/>
     <use style="fill:#1f77b4;stroke:#1f77b4;" x="105.263329" xlink:href="#m3da26389df" y="248.030976"/>
     <use style="fill:#1f77b4;stroke:#1f77b4;" x="110.690903" xlink:href="#m3da26389df" y="237.420442"/>
     <use style="fill:#1f77b4;stroke:#1f77b4;" x="116.118477" xlink:href="#m3da26389df" y="279.86258"/>
     <use style="fill:#1f77b4;stroke:#1f77b4;" x="121.546051" xlink:href="#m3da26389df" y="131.315098"/>
     <use style="fill:#1f77b4;stroke:#1f77b4;" x="126.973624" xlink:href="#m3da26389df" y="221.50464"/>
     <use style="fill:#1f77b4;stroke:#1f77b4;" x="131.112428" xlink:href="#m3da26389df" y="-1"/>
     <use style="fill:#1f77b4;stroke:#1f77b4;" x="135.127442" xlink:href="#m3da26389df" y="-1"/>
     <use style="fill:#1f77b4;stroke:#1f77b4;" x="137.828772" xlink:href="#m3da26389df" y="67.651891"/>
     <use style="fill:#1f77b4;stroke:#1f77b4;" x="143.256346" xlink:href="#m3da26389df" y="131.315098"/>
     <use style="fill:#1f77b4;stroke:#1f77b4;" x="148.683919" xlink:href="#m3da26389df" y="104.788761"/>
     <use style="fill:#1f77b4;stroke:#1f77b4;" x="154.111493" xlink:href="#m3da26389df" y="120.704563"/>
     <use style="fill:#1f77b4;stroke:#1f77b4;" x="159.539067" xlink:href="#m3da26389df" y="194.978304"/>
     <use style="fill:#1f77b4;stroke:#1f77b4;" x="164.96664" xlink:href="#m3da26389df" y="226.809907"/>
     <use style="fill:#1f77b4;stroke:#1f77b4;" x="170.394214" xlink:href="#m3da26389df" y="263.946778"/>
     <use style="fill:#1f77b4;stroke:#1f77b4;" x="175.821788" xlink:href="#m3da26389df" y="57.041356"/>
     <use style="fill:#1f77b4;stroke:#1f77b4;" x="181.249362" xlink:href="#m3da26389df" y="232.115175"/>
     <use style="fill:#1f77b4;stroke:#1f77b4;" x="186.676935" xlink:href="#m3da26389df" y="269.252045"/>
     <use style="fill:#1f77b4;stroke:#1f77b4;" x="192.104509" xlink:href="#m3da26389df" y="279.86258"/>
     <use style="fill:#1f77b4;stroke:#1f77b4;" x="197.532083" xlink:href="#m3da26389df" y="253.336244"/>
     <use style="fill:#1f77b4;stroke:#1f77b4;" x="202.959657" xlink:href="#m3da26389df" y="295.778381"/>
     <use style="fill:#1f77b4;stroke:#1f77b4;" x="208.38723" xlink:href="#m3da26389df" y="295.778381"/>
     <use style="fill:#1f77b4;stroke:#1f77b4;" x="213.814804" xlink:href="#m3da26389df" y="248.030976"/>
     <use style="fill:#1f77b4;stroke:#1f77b4;" x="219.242378" xlink:href="#m3da26389df" y="311.694183"/>
     <use style="fill:#1f77b4;stroke:#1f77b4;" x="224.669951" xlink:href="#m3da26389df" y="343.525786"/>
     <use style="fill:#1f77b4;stroke:#1f77b4;" x="230.097525" xlink:href="#m3da26389df" y="348.831053"/>
     <use style="fill:#1f77b4;stroke:#1f77b4;" x="235.525099" xlink:href="#m3da26389df" y="348.831053"/>
     <use style="fill:#1f77b4;stroke:#1f77b4;" x="240.952673" xlink:href="#m3da26389df" y="279.86258"/>
     <use style="fill:#1f77b4;stroke:#1f77b4;" x="242.759827" xlink:href="#m3da26389df" y="-1"/>
     <use style="fill:#1f77b4;stroke:#1f77b4;" x="250.269751" xlink:href="#m3da26389df" y="-1"/>
     <use style="fill:#1f77b4;stroke:#1f77b4;" x="251.80782" xlink:href="#m3da26389df" y="221.50464"/>
     <use style="fill:#1f77b4;stroke:#1f77b4;" x="257.235394" xlink:href="#m3da26389df" y="232.115175"/>
     <use style="fill:#1f77b4;stroke:#1f77b4;" x="262.662968" xlink:href="#m3da26389df" y="237.420442"/>
     <use style="fill:#1f77b4;stroke:#1f77b4;" x="268.090541" xlink:href="#m3da26389df" y="237.420442"/>
     <use style="fill:#1f77b4;stroke:#1f77b4;" x="273.518115" xlink:href="#m3da26389df" y="263.946778"/>
     <use style="fill:#1f77b4;stroke:#1f77b4;" x="278.945689" xlink:href="#m3da26389df" y="258.641511"/>
     <use style="fill:#1f77b4;stroke:#1f77b4;" x="284.373262" xlink:href="#m3da26389df" y="210.894106"/>
     <use style="fill:#1f77b4;stroke:#1f77b4;" x="289.800836" xlink:href="#m3da26389df" y="263.946778"/>
     <use style="fill:#1f77b4;stroke:#1f77b4;" x="295.22841" xlink:href="#m3da26389df" y="263.946778"/>
     <use style="fill:#1f77b4;stroke:#1f77b4;" x="300.655984" xlink:href="#m3da26389df" y="232.115175"/>
     <use style="fill:#1f77b4;stroke:#1f77b4;" x="306.083557" xlink:href="#m3da26389df" y="242.725709"/>
     <use style="fill:#1f77b4;stroke:#1f77b4;" x="311.511131" xlink:href="#m3da26389df" y="248.030976"/>
     <use style="fill:#1f77b4;stroke:#1f77b4;" x="316.938705" xlink:href="#m3da26389df" y="248.030976"/>
     <use style="fill:#1f77b4;stroke:#1f77b4;" x="322.366279" xlink:href="#m3da26389df" y="205.588839"/>
     <use style="fill:#1f77b4;stroke:#1f77b4;" x="327.793852" xlink:href="#m3da26389df" y="253.336244"/>
     <use style="fill:#1f77b4;stroke:#1f77b4;" x="333.221426" xlink:href="#m3da26389df" y="258.641511"/>
     <use style="fill:#1f77b4;stroke:#1f77b4;" x="338.649" xlink:href="#m3da26389df" y="258.641511"/>
     <use style="fill:#1f77b4;stroke:#1f77b4;" x="344.076573" xlink:href="#m3da26389df" y="258.641511"/>
     <use style="fill:#1f77b4;stroke:#1f77b4;" x="349.504147" xlink:href="#m3da26389df" y="253.336244"/>
     <use style="fill:#1f77b4;stroke:#1f77b4;" x="354.931721" xlink:href="#m3da26389df" y="263.946778"/>
     <use style="fill:#1f77b4;stroke:#1f77b4;" x="360.359295" xlink:href="#m3da26389df" y="269.252045"/>
     <use style="fill:#1f77b4;stroke:#1f77b4;" x="365.786868" xlink:href="#m3da26389df" y="263.946778"/>
     <use style="fill:#1f77b4;stroke:#1f77b4;" x="371.214442" xlink:href="#m3da26389df" y="263.946778"/>
     <use style="fill:#1f77b4;stroke:#1f77b4;" x="376.642016" xlink:href="#m3da26389df" y="274.557312"/>
     <use style="fill:#1f77b4;stroke:#1f77b4;" x="382.069589" xlink:href="#m3da26389df" y="258.641511"/>
     <use style="fill:#1f77b4;stroke:#1f77b4;" x="387.497163" xlink:href="#m3da26389df" y="258.641511"/>
     <use style="fill:#1f77b4;stroke:#1f77b4;" x="392.924737" xlink:href="#m3da26389df" y="269.252045"/>
     <use style="fill:#1f77b4;stroke:#1f77b4;" x="398.352311" xlink:href="#m3da26389df" y="274.557312"/>
     <use style="fill:#1f77b4;stroke:#1f77b4;" x="403.779884" xlink:href="#m3da26389df" y="253.336244"/>
     <use style="fill:#1f77b4;stroke:#1f77b4;" x="409.207458" xlink:href="#m3da26389df" y="263.946778"/>
     <use style="fill:#1f77b4;stroke:#1f77b4;" x="414.635032" xlink:href="#m3da26389df" y="269.252045"/>
    </g>
   </g>
   <g id="patch_3">
    <path d="M 44.203125 279.86258 
L 44.203125 14.599219 
" style="fill:none;stroke:#000000;stroke-linecap:square;stroke-linejoin:miter;stroke-width:0.8;"/>
   </g>
   <g id="patch_4">
    <path d="M 432.274646 279.86258 
L 432.274646 14.599219 
" style="fill:none;stroke:#000000;stroke-linecap:square;stroke-linejoin:miter;stroke-width:0.8;"/>
   </g>
   <g id="patch_5">
    <path d="M 44.203125 279.86258 
L 432.274646 279.86258 
" style="fill:none;stroke:#000000;stroke-linecap:square;stroke-linejoin:miter;stroke-width:0.8;"/>
   </g>
   <g id="patch_6">
    <path d="M 44.203125 14.599219 
L 432.274646 14.599219 
" style="fill:none;stroke:#000000;stroke-linecap:square;stroke-linejoin:miter;stroke-width:0.8;"/>
   </g>
  </g>
 </g>
 <defs>
  <clipPath id="p305d0962b1">
   <rect height="265.263361" width="388.071521" x="44.203125" y="14.599219"/>
  </clipPath>
 </defs>
</svg>
