<?xml version="1.0" encoding="utf-8" standalone="no"?>
<!DOCTYPE svg PUBLIC "-//W3C//DTD SVG 1.1//EN"
  "http://www.w3.org/Graphics/SVG/1.1/DTD/svg11.dtd">
<!-- Created with matplotlib (https://matplotlib.org/) -->
<svg height="345.6pt" version="1.1" viewBox="0 0 460.8 345.6" width="460.8pt" xmlns="http://www.w3.org/2000/svg" xmlns:xlink="http://www.w3.org/1999/xlink">
 <defs>
  <style type="text/css">
*{stroke-linecap:butt;stroke-linejoin:round;}
  </style>
 </defs>
 <g id="figure_1">
  <g id="patch_1">
   <path d="M 0 345.6 
L 460.8 345.6 
L 460.8 0 
L 0 0 
z
" style="fill:#ffffff;"/>
  </g>
  <g id="axes_1">
   <g id="patch_2">
    <path d="M 56.928125 279.86258 
L 450 279.86258 
L 450 10.8 
L 56.928125 10.8 
z
" style="fill:#ffffff;"/>
   </g>
   <g id="matplotlib.axis_1">
    <g id="xtick_1">
     <g id="line2d_1">
      <defs>
       <path d="M 0 0 
L 0 3.5 
" id="m42d1e99bac" style="stroke:#000000;stroke-width:0.8;"/>
      </defs>
      <g>
       <use style="stroke:#000000;stroke-width:0.8;" x="69.122996" xlink:href="#m42d1e99bac" y="279.86258"/>
      </g>
     </g>
     <g id="text_1">
      <!-- 2020-03-08 -->
      <defs>
       <path d="M 19.1875 8.296875 
L 53.609375 8.296875 
L 53.609375 0 
L 7.328125 0 
L 7.328125 8.296875 
Q 12.9375 14.109375 22.625 23.890625 
Q 32.328125 33.6875 34.8125 36.53125 
Q 39.546875 41.84375 41.421875 45.53125 
Q 43.3125 49.21875 43.3125 52.78125 
Q 43.3125 58.59375 39.234375 62.25 
Q 35.15625 65.921875 28.609375 65.921875 
Q 23.96875 65.921875 18.8125 64.3125 
Q 13.671875 62.703125 7.8125 59.421875 
L 7.8125 69.390625 
Q 13.765625 71.78125 18.9375 73 
Q 24.125 74.21875 28.421875 74.21875 
Q 39.75 74.21875 46.484375 68.546875 
Q 53.21875 62.890625 53.21875 53.421875 
Q 53.21875 48.921875 51.53125 44.890625 
Q 49.859375 40.875 45.40625 35.40625 
Q 44.1875 33.984375 37.640625 27.21875 
Q 31.109375 20.453125 19.1875 8.296875 
z
" id="DejaVuSans-50"/>
       <path d="M 31.78125 66.40625 
Q 24.171875 66.40625 20.328125 58.90625 
Q 16.5 51.421875 16.5 36.375 
Q 16.5 21.390625 20.328125 13.890625 
Q 24.171875 6.390625 31.78125 6.390625 
Q 39.453125 6.390625 43.28125 13.890625 
Q 47.125 21.390625 47.125 36.375 
Q 47.125 51.421875 43.28125 58.90625 
Q 39.453125 66.40625 31.78125 66.40625 
z
M 31.78125 74.21875 
Q 44.046875 74.21875 50.515625 64.515625 
Q 56.984375 54.828125 56.984375 36.375 
Q 56.984375 17.96875 50.515625 8.265625 
Q 44.046875 -1.421875 31.78125 -1.421875 
Q 19.53125 -1.421875 13.0625 8.265625 
Q 6.59375 17.96875 6.59375 36.375 
Q 6.59375 54.828125 13.0625 64.515625 
Q 19.53125 74.21875 31.78125 74.21875 
z
" id="DejaVuSans-48"/>
       <path d="M 4.890625 31.390625 
L 31.203125 31.390625 
L 31.203125 23.390625 
L 4.890625 23.390625 
z
" id="DejaVuSans-45"/>
       <path d="M 40.578125 39.3125 
Q 47.65625 37.796875 51.625 33 
Q 55.609375 28.21875 55.609375 21.1875 
Q 55.609375 10.40625 48.1875 4.484375 
Q 40.765625 -1.421875 27.09375 -1.421875 
Q 22.515625 -1.421875 17.65625 -0.515625 
Q 12.796875 0.390625 7.625 2.203125 
L 7.625 11.71875 
Q 11.71875 9.328125 16.59375 8.109375 
Q 21.484375 6.890625 26.8125 6.890625 
Q 36.078125 6.890625 40.9375 10.546875 
Q 45.796875 14.203125 45.796875 21.1875 
Q 45.796875 27.640625 41.28125 31.265625 
Q 36.765625 34.90625 28.71875 34.90625 
L 20.21875 34.90625 
L 20.21875 43.015625 
L 29.109375 43.015625 
Q 36.375 43.015625 40.234375 45.921875 
Q 44.09375 48.828125 44.09375 54.296875 
Q 44.09375 59.90625 40.109375 62.90625 
Q 36.140625 65.921875 28.71875 65.921875 
Q 24.65625 65.921875 20.015625 65.03125 
Q 15.375 64.15625 9.8125 62.3125 
L 9.8125 71.09375 
Q 15.4375 72.65625 20.34375 73.4375 
Q 25.25 74.21875 29.59375 74.21875 
Q 40.828125 74.21875 47.359375 69.109375 
Q 53.90625 64.015625 53.90625 55.328125 
Q 53.90625 49.265625 50.4375 45.09375 
Q 46.96875 40.921875 40.578125 39.3125 
z
" id="DejaVuSans-51"/>
       <path d="M 31.78125 34.625 
Q 24.75 34.625 20.71875 30.859375 
Q 16.703125 27.09375 16.703125 20.515625 
Q 16.703125 13.921875 20.71875 10.15625 
Q 24.75 6.390625 31.78125 6.390625 
Q 38.8125 6.390625 42.859375 10.171875 
Q 46.921875 13.96875 46.921875 20.515625 
Q 46.921875 27.09375 42.890625 30.859375 
Q 38.875 34.625 31.78125 34.625 
z
M 21.921875 38.8125 
Q 15.578125 40.375 12.03125 44.71875 
Q 8.5 49.078125 8.5 55.328125 
Q 8.5 64.0625 14.71875 69.140625 
Q 20.953125 74.21875 31.78125 74.21875 
Q 42.671875 74.21875 48.875 69.140625 
Q 55.078125 64.0625 55.078125 55.328125 
Q 55.078125 49.078125 51.53125 44.71875 
Q 48 40.375 41.703125 38.8125 
Q 48.828125 37.15625 52.796875 32.3125 
Q 56.78125 27.484375 56.78125 20.515625 
Q 56.78125 9.90625 50.3125 4.234375 
Q 43.84375 -1.421875 31.78125 -1.421875 
Q 19.734375 -1.421875 13.25 4.234375 
Q 6.78125 9.90625 6.78125 20.515625 
Q 6.78125 27.484375 10.78125 32.3125 
Q 14.796875 37.15625 21.921875 38.8125 
z
M 18.3125 54.390625 
Q 18.3125 48.734375 21.84375 45.5625 
Q 25.390625 42.390625 31.78125 42.390625 
Q 38.140625 42.390625 41.71875 45.5625 
Q 45.3125 48.734375 45.3125 54.390625 
Q 45.3125 60.0625 41.71875 63.234375 
Q 38.140625 66.40625 31.78125 66.40625 
Q 25.390625 66.40625 21.84375 63.234375 
Q 18.3125 60.0625 18.3125 54.390625 
z
" id="DejaVuSans-56"/>
      </defs>
      <g transform="translate(50.527192 333.329439)rotate(-45)scale(0.1 -0.1)">
       <use xlink:href="#DejaVuSans-50"/>
       <use x="63.623047" xlink:href="#DejaVuSans-48"/>
       <use x="127.246094" xlink:href="#DejaVuSans-50"/>
       <use x="190.869141" xlink:href="#DejaVuSans-48"/>
       <use x="254.492188" xlink:href="#DejaVuSans-45"/>
       <use x="290.576172" xlink:href="#DejaVuSans-48"/>
       <use x="354.199219" xlink:href="#DejaVuSans-51"/>
       <use x="417.822266" xlink:href="#DejaVuSans-45"/>
       <use x="453.90625" xlink:href="#DejaVuSans-48"/>
       <use x="517.529297" xlink:href="#DejaVuSans-56"/>
      </g>
     </g>
    </g>
    <g id="xtick_2">
     <g id="line2d_2">
      <g>
       <use style="stroke:#000000;stroke-width:0.8;" x="108.827225" xlink:href="#m42d1e99bac" y="279.86258"/>
      </g>
     </g>
     <g id="text_2">
      <!-- 2020-03-15 -->
      <defs>
       <path d="M 12.40625 8.296875 
L 28.515625 8.296875 
L 28.515625 63.921875 
L 10.984375 60.40625 
L 10.984375 69.390625 
L 28.421875 72.90625 
L 38.28125 72.90625 
L 38.28125 8.296875 
L 54.390625 8.296875 
L 54.390625 0 
L 12.40625 0 
z
" id="DejaVuSans-49"/>
       <path d="M 10.796875 72.90625 
L 49.515625 72.90625 
L 49.515625 64.59375 
L 19.828125 64.59375 
L 19.828125 46.734375 
Q 21.96875 47.46875 24.109375 47.828125 
Q 26.265625 48.1875 28.421875 48.1875 
Q 40.625 48.1875 47.75 41.5 
Q 54.890625 34.8125 54.890625 23.390625 
Q 54.890625 11.625 47.5625 5.09375 
Q 40.234375 -1.421875 26.90625 -1.421875 
Q 22.3125 -1.421875 17.546875 -0.640625 
Q 12.796875 0.140625 7.71875 1.703125 
L 7.71875 11.625 
Q 12.109375 9.234375 16.796875 8.0625 
Q 21.484375 6.890625 26.703125 6.890625 
Q 35.15625 6.890625 40.078125 11.328125 
Q 45.015625 15.765625 45.015625 23.390625 
Q 45.015625 31 40.078125 35.4375 
Q 35.15625 39.890625 26.703125 39.890625 
Q 22.75 39.890625 18.8125 39.015625 
Q 14.890625 38.140625 10.796875 36.28125 
z
" id="DejaVuSans-53"/>
      </defs>
      <g transform="translate(90.231422 333.329439)rotate(-45)scale(0.1 -0.1)">
       <use xlink:href="#DejaVuSans-50"/>
       <use x="63.623047" xlink:href="#DejaVuSans-48"/>
       <use x="127.246094" xlink:href="#DejaVuSans-50"/>
       <use x="190.869141" xlink:href="#DejaVuSans-48"/>
       <use x="254.492188" xlink:href="#DejaVuSans-45"/>
       <use x="290.576172" xlink:href="#DejaVuSans-48"/>
       <use x="354.199219" xlink:href="#DejaVuSans-51"/>
       <use x="417.822266" xlink:href="#DejaVuSans-45"/>
       <use x="453.90625" xlink:href="#DejaVuSans-49"/>
       <use x="517.529297" xlink:href="#DejaVuSans-53"/>
      </g>
     </g>
    </g>
    <g id="xtick_3">
     <g id="line2d_3">
      <g>
       <use style="stroke:#000000;stroke-width:0.8;" x="148.531455" xlink:href="#m42d1e99bac" y="279.86258"/>
      </g>
     </g>
     <g id="text_3">
      <!-- 2020-03-22 -->
      <g transform="translate(129.935652 333.329439)rotate(-45)scale(0.1 -0.1)">
       <use xlink:href="#DejaVuSans-50"/>
       <use x="63.623047" xlink:href="#DejaVuSans-48"/>
       <use x="127.246094" xlink:href="#DejaVuSans-50"/>
       <use x="190.869141" xlink:href="#DejaVuSans-48"/>
       <use x="254.492188" xlink:href="#DejaVuSans-45"/>
       <use x="290.576172" xlink:href="#DejaVuSans-48"/>
       <use x="354.199219" xlink:href="#DejaVuSans-51"/>
       <use x="417.822266" xlink:href="#DejaVuSans-45"/>
       <use x="453.90625" xlink:href="#DejaVuSans-50"/>
       <use x="517.529297" xlink:href="#DejaVuSans-50"/>
      </g>
     </g>
    </g>
    <g id="xtick_4">
     <g id="line2d_4">
      <g>
       <use style="stroke:#000000;stroke-width:0.8;" x="205.251783" xlink:href="#m42d1e99bac" y="279.86258"/>
      </g>
     </g>
     <g id="text_4">
      <!-- 2020-04-01 -->
      <defs>
       <path d="M 37.796875 64.3125 
L 12.890625 25.390625 
L 37.796875 25.390625 
z
M 35.203125 72.90625 
L 47.609375 72.90625 
L 47.609375 25.390625 
L 58.015625 25.390625 
L 58.015625 17.1875 
L 47.609375 17.1875 
L 47.609375 0 
L 37.796875 0 
L 37.796875 17.1875 
L 4.890625 17.1875 
L 4.890625 26.703125 
z
" id="DejaVuSans-52"/>
      </defs>
      <g transform="translate(186.65598 333.329439)rotate(-45)scale(0.1 -0.1)">
       <use xlink:href="#DejaVuSans-50"/>
       <use x="63.623047" xlink:href="#DejaVuSans-48"/>
       <use x="127.246094" xlink:href="#DejaVuSans-50"/>
       <use x="190.869141" xlink:href="#DejaVuSans-48"/>
       <use x="254.492188" xlink:href="#DejaVuSans-45"/>
       <use x="290.576172" xlink:href="#DejaVuSans-48"/>
       <use x="354.199219" xlink:href="#DejaVuSans-52"/>
       <use x="417.822266" xlink:href="#DejaVuSans-45"/>
       <use x="453.90625" xlink:href="#DejaVuSans-48"/>
       <use x="517.529297" xlink:href="#DejaVuSans-49"/>
      </g>
     </g>
    </g>
    <g id="xtick_5">
     <g id="line2d_5">
      <g>
       <use style="stroke:#000000;stroke-width:0.8;" x="244.956013" xlink:href="#m42d1e99bac" y="279.86258"/>
      </g>
     </g>
     <g id="text_5">
      <!-- 2020-04-08 -->
      <g transform="translate(226.36021 333.329439)rotate(-45)scale(0.1 -0.1)">
       <use xlink:href="#DejaVuSans-50"/>
       <use x="63.623047" xlink:href="#DejaVuSans-48"/>
       <use x="127.246094" xlink:href="#DejaVuSans-50"/>
       <use x="190.869141" xlink:href="#DejaVuSans-48"/>
       <use x="254.492188" xlink:href="#DejaVuSans-45"/>
       <use x="290.576172" xlink:href="#DejaVuSans-48"/>
       <use x="354.199219" xlink:href="#DejaVuSans-52"/>
       <use x="417.822266" xlink:href="#DejaVuSans-45"/>
       <use x="453.90625" xlink:href="#DejaVuSans-48"/>
       <use x="517.529297" xlink:href="#DejaVuSans-56"/>
      </g>
     </g>
    </g>
    <g id="xtick_6">
     <g id="line2d_6">
      <g>
       <use style="stroke:#000000;stroke-width:0.8;" x="284.660243" xlink:href="#m42d1e99bac" y="279.86258"/>
      </g>
     </g>
     <g id="text_6">
      <!-- 2020-04-15 -->
      <g transform="translate(266.06444 333.329439)rotate(-45)scale(0.1 -0.1)">
       <use xlink:href="#DejaVuSans-50"/>
       <use x="63.623047" xlink:href="#DejaVuSans-48"/>
       <use x="127.246094" xlink:href="#DejaVuSans-50"/>
       <use x="190.869141" xlink:href="#DejaVuSans-48"/>
       <use x="254.492188" xlink:href="#DejaVuSans-45"/>
       <use x="290.576172" xlink:href="#DejaVuSans-48"/>
       <use x="354.199219" xlink:href="#DejaVuSans-52"/>
       <use x="417.822266" xlink:href="#DejaVuSans-45"/>
       <use x="453.90625" xlink:href="#DejaVuSans-49"/>
       <use x="517.529297" xlink:href="#DejaVuSans-53"/>
      </g>
     </g>
    </g>
    <g id="xtick_7">
     <g id="line2d_7">
      <g>
       <use style="stroke:#000000;stroke-width:0.8;" x="324.364473" xlink:href="#m42d1e99bac" y="279.86258"/>
      </g>
     </g>
     <g id="text_7">
      <!-- 2020-04-22 -->
      <g transform="translate(305.768669 333.329439)rotate(-45)scale(0.1 -0.1)">
       <use xlink:href="#DejaVuSans-50"/>
       <use x="63.623047" xlink:href="#DejaVuSans-48"/>
       <use x="127.246094" xlink:href="#DejaVuSans-50"/>
       <use x="190.869141" xlink:href="#DejaVuSans-48"/>
       <use x="254.492188" xlink:href="#DejaVuSans-45"/>
       <use x="290.576172" xlink:href="#DejaVuSans-48"/>
       <use x="354.199219" xlink:href="#DejaVuSans-52"/>
       <use x="417.822266" xlink:href="#DejaVuSans-45"/>
       <use x="453.90625" xlink:href="#DejaVuSans-50"/>
       <use x="517.529297" xlink:href="#DejaVuSans-50"/>
      </g>
     </g>
    </g>
    <g id="xtick_8">
     <g id="line2d_8">
      <g>
       <use style="stroke:#000000;stroke-width:0.8;" x="375.412768" xlink:href="#m42d1e99bac" y="279.86258"/>
      </g>
     </g>
     <g id="text_8">
      <!-- 2020-05-01 -->
      <g transform="translate(356.816965 333.329439)rotate(-45)scale(0.1 -0.1)">
       <use xlink:href="#DejaVuSans-50"/>
       <use x="63.623047" xlink:href="#DejaVuSans-48"/>
       <use x="127.246094" xlink:href="#DejaVuSans-50"/>
       <use x="190.869141" xlink:href="#DejaVuSans-48"/>
       <use x="254.492188" xlink:href="#DejaVuSans-45"/>
       <use x="290.576172" xlink:href="#DejaVuSans-48"/>
       <use x="354.199219" xlink:href="#DejaVuSans-53"/>
       <use x="417.822266" xlink:href="#DejaVuSans-45"/>
       <use x="453.90625" xlink:href="#DejaVuSans-48"/>
       <use x="517.529297" xlink:href="#DejaVuSans-49"/>
      </g>
     </g>
    </g>
    <g id="xtick_9">
     <g id="line2d_9">
      <g>
       <use style="stroke:#000000;stroke-width:0.8;" x="415.116998" xlink:href="#m42d1e99bac" y="279.86258"/>
      </g>
     </g>
     <g id="text_9">
      <!-- 2020-05-08 -->
      <g transform="translate(396.521195 333.329439)rotate(-45)scale(0.1 -0.1)">
       <use xlink:href="#DejaVuSans-50"/>
       <use x="63.623047" xlink:href="#DejaVuSans-48"/>
       <use x="127.246094" xlink:href="#DejaVuSans-50"/>
       <use x="190.869141" xlink:href="#DejaVuSans-48"/>
       <use x="254.492188" xlink:href="#DejaVuSans-45"/>
       <use x="290.576172" xlink:href="#DejaVuSans-48"/>
       <use x="354.199219" xlink:href="#DejaVuSans-53"/>
       <use x="417.822266" xlink:href="#DejaVuSans-45"/>
       <use x="453.90625" xlink:href="#DejaVuSans-48"/>
       <use x="517.529297" xlink:href="#DejaVuSans-56"/>
      </g>
     </g>
    </g>
   </g>
   <g id="matplotlib.axis_2">
    <g id="ytick_1">
     <g id="line2d_10">
      <defs>
       <path d="M 0 0 
L -3.5 0 
" id="m385c5ea415" style="stroke:#000000;stroke-width:0.8;"/>
      </defs>
      <g>
       <use style="stroke:#000000;stroke-width:0.8;" x="56.928125" xlink:href="#m385c5ea415" y="279.86258"/>
      </g>
     </g>
     <g id="text_10">
      <!-- 0 -->
      <g transform="translate(43.565625 283.661798)scale(0.1 -0.1)">
       <use xlink:href="#DejaVuSans-48"/>
      </g>
     </g>
    </g>
    <g id="ytick_2">
     <g id="line2d_11">
      <g>
       <use style="stroke:#000000;stroke-width:0.8;" x="56.928125" xlink:href="#m385c5ea415" y="227.327712"/>
      </g>
     </g>
     <g id="text_11">
      <!-- 500 -->
      <g transform="translate(30.840625 231.12693)scale(0.1 -0.1)">
       <use xlink:href="#DejaVuSans-53"/>
       <use x="63.623047" xlink:href="#DejaVuSans-48"/>
       <use x="127.246094" xlink:href="#DejaVuSans-48"/>
      </g>
     </g>
    </g>
    <g id="ytick_3">
     <g id="line2d_12">
      <g>
       <use style="stroke:#000000;stroke-width:0.8;" x="56.928125" xlink:href="#m385c5ea415" y="174.792844"/>
      </g>
     </g>
     <g id="text_12">
      <!-- 1000 -->
      <g transform="translate(24.478125 178.592063)scale(0.1 -0.1)">
       <use xlink:href="#DejaVuSans-49"/>
       <use x="63.623047" xlink:href="#DejaVuSans-48"/>
       <use x="127.246094" xlink:href="#DejaVuSans-48"/>
       <use x="190.869141" xlink:href="#DejaVuSans-48"/>
      </g>
     </g>
    </g>
    <g id="ytick_4">
     <g id="line2d_13">
      <g>
       <use style="stroke:#000000;stroke-width:0.8;" x="56.928125" xlink:href="#m385c5ea415" y="122.257976"/>
      </g>
     </g>
     <g id="text_13">
      <!-- 1500 -->
      <g transform="translate(24.478125 126.057195)scale(0.1 -0.1)">
       <use xlink:href="#DejaVuSans-49"/>
       <use x="63.623047" xlink:href="#DejaVuSans-53"/>
       <use x="127.246094" xlink:href="#DejaVuSans-48"/>
       <use x="190.869141" xlink:href="#DejaVuSans-48"/>
      </g>
     </g>
    </g>
    <g id="ytick_5">
     <g id="line2d_14">
      <g>
       <use style="stroke:#000000;stroke-width:0.8;" x="56.928125" xlink:href="#m385c5ea415" y="69.723108"/>
      </g>
     </g>
     <g id="text_14">
      <!-- 2000 -->
      <g transform="translate(24.478125 73.522327)scale(0.1 -0.1)">
       <use xlink:href="#DejaVuSans-50"/>
       <use x="63.623047" xlink:href="#DejaVuSans-48"/>
       <use x="127.246094" xlink:href="#DejaVuSans-48"/>
       <use x="190.869141" xlink:href="#DejaVuSans-48"/>
      </g>
     </g>
    </g>
    <g id="ytick_6">
     <g id="line2d_15">
      <g>
       <use style="stroke:#000000;stroke-width:0.8;" x="56.928125" xlink:href="#m385c5ea415" y="17.18824"/>
      </g>
     </g>
     <g id="text_15">
      <!-- 2500 -->
      <g transform="translate(24.478125 20.987459)scale(0.1 -0.1)">
       <use xlink:href="#DejaVuSans-50"/>
       <use x="63.623047" xlink:href="#DejaVuSans-53"/>
       <use x="127.246094" xlink:href="#DejaVuSans-48"/>
       <use x="190.869141" xlink:href="#DejaVuSans-48"/>
      </g>
     </g>
    </g>
    <g id="text_16">
     <!-- MD uci diarios -->
     <defs>
      <path d="M 9.8125 72.90625 
L 24.515625 72.90625 
L 43.109375 23.296875 
L 61.8125 72.90625 
L 76.515625 72.90625 
L 76.515625 0 
L 66.890625 0 
L 66.890625 64.015625 
L 48.09375 14.015625 
L 38.1875 14.015625 
L 19.390625 64.015625 
L 19.390625 0 
L 9.8125 0 
z
" id="DejaVuSans-77"/>
      <path d="M 19.671875 64.796875 
L 19.671875 8.109375 
L 31.59375 8.109375 
Q 46.6875 8.109375 53.6875 14.9375 
Q 60.6875 21.78125 60.6875 36.53125 
Q 60.6875 51.171875 53.6875 57.984375 
Q 46.6875 64.796875 31.59375 64.796875 
z
M 9.8125 72.90625 
L 30.078125 72.90625 
Q 51.265625 72.90625 61.171875 64.09375 
Q 71.09375 55.28125 71.09375 36.53125 
Q 71.09375 17.671875 61.125 8.828125 
Q 51.171875 0 30.078125 0 
L 9.8125 0 
z
" id="DejaVuSans-68"/>
      <path id="DejaVuSans-32"/>
      <path d="M 8.5 21.578125 
L 8.5 54.6875 
L 17.484375 54.6875 
L 17.484375 21.921875 
Q 17.484375 14.15625 20.5 10.265625 
Q 23.53125 6.390625 29.59375 6.390625 
Q 36.859375 6.390625 41.078125 11.03125 
Q 45.3125 15.671875 45.3125 23.6875 
L 45.3125 54.6875 
L 54.296875 54.6875 
L 54.296875 0 
L 45.3125 0 
L 45.3125 8.40625 
Q 42.046875 3.421875 37.71875 1 
Q 33.40625 -1.421875 27.6875 -1.421875 
Q 18.265625 -1.421875 13.375 4.4375 
Q 8.5 10.296875 8.5 21.578125 
z
M 31.109375 56 
z
" id="DejaVuSans-117"/>
      <path d="M 48.78125 52.59375 
L 48.78125 44.1875 
Q 44.96875 46.296875 41.140625 47.34375 
Q 37.3125 48.390625 33.40625 48.390625 
Q 24.65625 48.390625 19.8125 42.84375 
Q 14.984375 37.3125 14.984375 27.296875 
Q 14.984375 17.28125 19.8125 11.734375 
Q 24.65625 6.203125 33.40625 6.203125 
Q 37.3125 6.203125 41.140625 7.25 
Q 44.96875 8.296875 48.78125 10.40625 
L 48.78125 2.09375 
Q 45.015625 0.34375 40.984375 -0.53125 
Q 36.96875 -1.421875 32.421875 -1.421875 
Q 20.0625 -1.421875 12.78125 6.34375 
Q 5.515625 14.109375 5.515625 27.296875 
Q 5.515625 40.671875 12.859375 48.328125 
Q 20.21875 56 33.015625 56 
Q 37.15625 56 41.109375 55.140625 
Q 45.0625 54.296875 48.78125 52.59375 
z
" id="DejaVuSans-99"/>
      <path d="M 9.421875 54.6875 
L 18.40625 54.6875 
L 18.40625 0 
L 9.421875 0 
z
M 9.421875 75.984375 
L 18.40625 75.984375 
L 18.40625 64.59375 
L 9.421875 64.59375 
z
" id="DejaVuSans-105"/>
      <path d="M 45.40625 46.390625 
L 45.40625 75.984375 
L 54.390625 75.984375 
L 54.390625 0 
L 45.40625 0 
L 45.40625 8.203125 
Q 42.578125 3.328125 38.25 0.953125 
Q 33.9375 -1.421875 27.875 -1.421875 
Q 17.96875 -1.421875 11.734375 6.484375 
Q 5.515625 14.40625 5.515625 27.296875 
Q 5.515625 40.1875 11.734375 48.09375 
Q 17.96875 56 27.875 56 
Q 33.9375 56 38.25 53.625 
Q 42.578125 51.265625 45.40625 46.390625 
z
M 14.796875 27.296875 
Q 14.796875 17.390625 18.875 11.75 
Q 22.953125 6.109375 30.078125 6.109375 
Q 37.203125 6.109375 41.296875 11.75 
Q 45.40625 17.390625 45.40625 27.296875 
Q 45.40625 37.203125 41.296875 42.84375 
Q 37.203125 48.484375 30.078125 48.484375 
Q 22.953125 48.484375 18.875 42.84375 
Q 14.796875 37.203125 14.796875 27.296875 
z
" id="DejaVuSans-100"/>
      <path d="M 34.28125 27.484375 
Q 23.390625 27.484375 19.1875 25 
Q 14.984375 22.515625 14.984375 16.5 
Q 14.984375 11.71875 18.140625 8.90625 
Q 21.296875 6.109375 26.703125 6.109375 
Q 34.1875 6.109375 38.703125 11.40625 
Q 43.21875 16.703125 43.21875 25.484375 
L 43.21875 27.484375 
z
M 52.203125 31.203125 
L 52.203125 0 
L 43.21875 0 
L 43.21875 8.296875 
Q 40.140625 3.328125 35.546875 0.953125 
Q 30.953125 -1.421875 24.3125 -1.421875 
Q 15.921875 -1.421875 10.953125 3.296875 
Q 6 8.015625 6 15.921875 
Q 6 25.140625 12.171875 29.828125 
Q 18.359375 34.515625 30.609375 34.515625 
L 43.21875 34.515625 
L 43.21875 35.40625 
Q 43.21875 41.609375 39.140625 45 
Q 35.0625 48.390625 27.6875 48.390625 
Q 23 48.390625 18.546875 47.265625 
Q 14.109375 46.140625 10.015625 43.890625 
L 10.015625 52.203125 
Q 14.9375 54.109375 19.578125 55.046875 
Q 24.21875 56 28.609375 56 
Q 40.484375 56 46.34375 49.84375 
Q 52.203125 43.703125 52.203125 31.203125 
z
" id="DejaVuSans-97"/>
      <path d="M 41.109375 46.296875 
Q 39.59375 47.171875 37.8125 47.578125 
Q 36.03125 48 33.890625 48 
Q 26.265625 48 22.1875 43.046875 
Q 18.109375 38.09375 18.109375 28.8125 
L 18.109375 0 
L 9.078125 0 
L 9.078125 54.6875 
L 18.109375 54.6875 
L 18.109375 46.1875 
Q 20.953125 51.171875 25.484375 53.578125 
Q 30.03125 56 36.53125 56 
Q 37.453125 56 38.578125 55.875 
Q 39.703125 55.765625 41.0625 55.515625 
z
" id="DejaVuSans-114"/>
      <path d="M 30.609375 48.390625 
Q 23.390625 48.390625 19.1875 42.75 
Q 14.984375 37.109375 14.984375 27.296875 
Q 14.984375 17.484375 19.15625 11.84375 
Q 23.34375 6.203125 30.609375 6.203125 
Q 37.796875 6.203125 41.984375 11.859375 
Q 46.1875 17.53125 46.1875 27.296875 
Q 46.1875 37.015625 41.984375 42.703125 
Q 37.796875 48.390625 30.609375 48.390625 
z
M 30.609375 56 
Q 42.328125 56 49.015625 48.375 
Q 55.71875 40.765625 55.71875 27.296875 
Q 55.71875 13.875 49.015625 6.21875 
Q 42.328125 -1.421875 30.609375 -1.421875 
Q 18.84375 -1.421875 12.171875 6.21875 
Q 5.515625 13.875 5.515625 27.296875 
Q 5.515625 40.765625 12.171875 48.375 
Q 18.84375 56 30.609375 56 
z
" id="DejaVuSans-111"/>
      <path d="M 44.28125 53.078125 
L 44.28125 44.578125 
Q 40.484375 46.53125 36.375 47.5 
Q 32.28125 48.484375 27.875 48.484375 
Q 21.1875 48.484375 17.84375 46.4375 
Q 14.5 44.390625 14.5 40.28125 
Q 14.5 37.15625 16.890625 35.375 
Q 19.28125 33.59375 26.515625 31.984375 
L 29.59375 31.296875 
Q 39.15625 29.25 43.1875 25.515625 
Q 47.21875 21.78125 47.21875 15.09375 
Q 47.21875 7.46875 41.1875 3.015625 
Q 35.15625 -1.421875 24.609375 -1.421875 
Q 20.21875 -1.421875 15.453125 -0.5625 
Q 10.6875 0.296875 5.421875 2 
L 5.421875 11.28125 
Q 10.40625 8.6875 15.234375 7.390625 
Q 20.0625 6.109375 24.8125 6.109375 
Q 31.15625 6.109375 34.5625 8.28125 
Q 37.984375 10.453125 37.984375 14.40625 
Q 37.984375 18.0625 35.515625 20.015625 
Q 33.0625 21.96875 24.703125 23.78125 
L 21.578125 24.515625 
Q 13.234375 26.265625 9.515625 29.90625 
Q 5.8125 33.546875 5.8125 39.890625 
Q 5.8125 47.609375 11.28125 51.796875 
Q 16.75 56 26.8125 56 
Q 31.78125 56 36.171875 55.265625 
Q 40.578125 54.546875 44.28125 53.078125 
z
" id="DejaVuSans-115"/>
     </defs>
     <g transform="translate(18.398438 180.716446)rotate(-90)scale(0.1 -0.1)">
      <use xlink:href="#DejaVuSans-77"/>
      <use x="86.279297" xlink:href="#DejaVuSans-68"/>
      <use x="163.28125" xlink:href="#DejaVuSans-32"/>
      <use x="195.068359" xlink:href="#DejaVuSans-117"/>
      <use x="258.447266" xlink:href="#DejaVuSans-99"/>
      <use x="313.427734" xlink:href="#DejaVuSans-105"/>
      <use x="341.210938" xlink:href="#DejaVuSans-32"/>
      <use x="372.998047" xlink:href="#DejaVuSans-100"/>
      <use x="436.474609" xlink:href="#DejaVuSans-105"/>
      <use x="464.257812" xlink:href="#DejaVuSans-97"/>
      <use x="525.537109" xlink:href="#DejaVuSans-114"/>
      <use x="566.650391" xlink:href="#DejaVuSans-105"/>
      <use x="594.433594" xlink:href="#DejaVuSans-111"/>
      <use x="655.615234" xlink:href="#DejaVuSans-115"/>
     </g>
    </g>
   </g>
   <g id="line2d_16">
    <path clip-path="url(#p34db2342db)" d="M 74.795028 277.340906 
L 80.467061 277.235836 
L 86.139094 276.395278 
L 91.811127 275.134442 
L 97.48316 279.86258 
L 103.155193 272.192489 
L 108.827225 279.86258 
L 114.499258 270.721513 
L 120.171291 263.99705 
L 125.843324 269.460676 
L 131.515357 270.616443 
L 137.18739 270.511373 
L 142.859422 272.822907 
L 148.531455 268.515048 
L 154.203488 268.515048 
L 159.875521 269.355606 
L 165.547554 272.402628 
L 171.219586 270.301234 
L 176.891619 270.196164 
L 182.563652 277.235836 
L 188.235685 276.605418 
L 193.907718 274.188814 
L 199.579751 279.86258 
L 205.251783 278.391603 
L 210.923816 282.174114 
L 216.595849 280.703138 
L 222.267882 279.75751 
L 227.939915 278.706813 
L 233.611948 281.543695 
L 239.28398 284.485648 
L 244.956013 281.648765 
L 250.628046 283.434951 
L 256.300079 282.279184 
L 261.972112 284.485648 
L 267.644145 280.387928 
L 273.316177 282.804532 
L 278.98821 285.641415 
L 284.660243 283.85523 
L 290.332276 285.326206 
L 296.004309 286.166764 
L 301.676342 276.815557 
L 307.348374 281.123416 
L 313.020407 283.54002 
L 318.69244 285.326206 
L 324.364473 284.380578 
L 330.036506 283.224811 
L 335.708539 285.851555 
L 341.380571 281.858905 
L 347.052604 23.912703 
L 352.724637 276.815557 
L 358.39667 278.076394 
L 364.068703 277.551045 
L 369.740735 278.286534 
L 375.412768 278.601743 
L 381.084801 278.076394 
L 386.756834 278.811882 
L 392.428867 278.706813 
L 398.1009 277.445976 
L 403.772932 277.761185 
L 409.444965 279.022022 
L 415.116998 278.286534 
L 420.789031 278.601743 
L 426.461064 278.916952 
L 432.133097 278.391603 
" style="fill:none;stroke:#1f77b4;stroke-linecap:square;stroke-width:1.5;"/>
    <defs>
     <path d="M 0 1.5 
C 0.397805 1.5 0.77937 1.341951 1.06066 1.06066 
C 1.341951 0.77937 1.5 0.397805 1.5 0 
C 1.5 -0.397805 1.341951 -0.77937 1.06066 -1.06066 
C 0.77937 -1.341951 0.397805 -1.5 0 -1.5 
C -0.397805 -1.5 -0.77937 -1.341951 -1.06066 -1.06066 
C -1.341951 -0.77937 -1.5 -0.397805 -1.5 0 
C -1.5 0.397805 -1.341951 0.77937 -1.06066 1.06066 
C -0.77937 1.341951 -0.397805 1.5 0 1.5 
z
" id="m20c6f71145" style="stroke:#1f77b4;"/>
    </defs>
    <g clip-path="url(#p34db2342db)">
     <use style="fill:#1f77b4;stroke:#1f77b4;" x="74.795028" xlink:href="#m20c6f71145" y="277.340906"/>
     <use style="fill:#1f77b4;stroke:#1f77b4;" x="80.467061" xlink:href="#m20c6f71145" y="277.235836"/>
     <use style="fill:#1f77b4;stroke:#1f77b4;" x="86.139094" xlink:href="#m20c6f71145" y="276.395278"/>
     <use style="fill:#1f77b4;stroke:#1f77b4;" x="91.811127" xlink:href="#m20c6f71145" y="275.134442"/>
     <use style="fill:#1f77b4;stroke:#1f77b4;" x="97.48316" xlink:href="#m20c6f71145" y="279.86258"/>
     <use style="fill:#1f77b4;stroke:#1f77b4;" x="103.155193" xlink:href="#m20c6f71145" y="272.192489"/>
     <use style="fill:#1f77b4;stroke:#1f77b4;" x="108.827225" xlink:href="#m20c6f71145" y="279.86258"/>
     <use style="fill:#1f77b4;stroke:#1f77b4;" x="114.499258" xlink:href="#m20c6f71145" y="270.721513"/>
     <use style="fill:#1f77b4;stroke:#1f77b4;" x="120.171291" xlink:href="#m20c6f71145" y="263.99705"/>
     <use style="fill:#1f77b4;stroke:#1f77b4;" x="125.843324" xlink:href="#m20c6f71145" y="269.460676"/>
     <use style="fill:#1f77b4;stroke:#1f77b4;" x="131.515357" xlink:href="#m20c6f71145" y="270.616443"/>
     <use style="fill:#1f77b4;stroke:#1f77b4;" x="137.18739" xlink:href="#m20c6f71145" y="270.511373"/>
     <use style="fill:#1f77b4;stroke:#1f77b4;" x="142.859422" xlink:href="#m20c6f71145" y="272.822907"/>
     <use style="fill:#1f77b4;stroke:#1f77b4;" x="148.531455" xlink:href="#m20c6f71145" y="268.515048"/>
     <use style="fill:#1f77b4;stroke:#1f77b4;" x="154.203488" xlink:href="#m20c6f71145" y="268.515048"/>
     <use style="fill:#1f77b4;stroke:#1f77b4;" x="159.875521" xlink:href="#m20c6f71145" y="269.355606"/>
     <use style="fill:#1f77b4;stroke:#1f77b4;" x="165.547554" xlink:href="#m20c6f71145" y="272.402628"/>
     <use style="fill:#1f77b4;stroke:#1f77b4;" x="171.219586" xlink:href="#m20c6f71145" y="270.301234"/>
     <use style="fill:#1f77b4;stroke:#1f77b4;" x="176.891619" xlink:href="#m20c6f71145" y="270.196164"/>
     <use style="fill:#1f77b4;stroke:#1f77b4;" x="182.563652" xlink:href="#m20c6f71145" y="277.235836"/>
     <use style="fill:#1f77b4;stroke:#1f77b4;" x="188.235685" xlink:href="#m20c6f71145" y="276.605418"/>
     <use style="fill:#1f77b4;stroke:#1f77b4;" x="193.907718" xlink:href="#m20c6f71145" y="274.188814"/>
     <use style="fill:#1f77b4;stroke:#1f77b4;" x="199.579751" xlink:href="#m20c6f71145" y="279.86258"/>
     <use style="fill:#1f77b4;stroke:#1f77b4;" x="205.251783" xlink:href="#m20c6f71145" y="278.391603"/>
     <use style="fill:#1f77b4;stroke:#1f77b4;" x="210.923816" xlink:href="#m20c6f71145" y="282.174114"/>
     <use style="fill:#1f77b4;stroke:#1f77b4;" x="216.595849" xlink:href="#m20c6f71145" y="280.703138"/>
     <use style="fill:#1f77b4;stroke:#1f77b4;" x="222.267882" xlink:href="#m20c6f71145" y="279.75751"/>
     <use style="fill:#1f77b4;stroke:#1f77b4;" x="227.939915" xlink:href="#m20c6f71145" y="278.706813"/>
     <use style="fill:#1f77b4;stroke:#1f77b4;" x="233.611948" xlink:href="#m20c6f71145" y="281.543695"/>
     <use style="fill:#1f77b4;stroke:#1f77b4;" x="239.28398" xlink:href="#m20c6f71145" y="284.485648"/>
     <use style="fill:#1f77b4;stroke:#1f77b4;" x="244.956013" xlink:href="#m20c6f71145" y="281.648765"/>
     <use style="fill:#1f77b4;stroke:#1f77b4;" x="250.628046" xlink:href="#m20c6f71145" y="283.434951"/>
     <use style="fill:#1f77b4;stroke:#1f77b4;" x="256.300079" xlink:href="#m20c6f71145" y="282.279184"/>
     <use style="fill:#1f77b4;stroke:#1f77b4;" x="261.972112" xlink:href="#m20c6f71145" y="284.485648"/>
     <use style="fill:#1f77b4;stroke:#1f77b4;" x="267.644145" xlink:href="#m20c6f71145" y="280.387928"/>
     <use style="fill:#1f77b4;stroke:#1f77b4;" x="273.316177" xlink:href="#m20c6f71145" y="282.804532"/>
     <use style="fill:#1f77b4;stroke:#1f77b4;" x="278.98821" xlink:href="#m20c6f71145" y="285.641415"/>
     <use style="fill:#1f77b4;stroke:#1f77b4;" x="284.660243" xlink:href="#m20c6f71145" y="283.85523"/>
     <use style="fill:#1f77b4;stroke:#1f77b4;" x="290.332276" xlink:href="#m20c6f71145" y="285.326206"/>
     <use style="fill:#1f77b4;stroke:#1f77b4;" x="296.004309" xlink:href="#m20c6f71145" y="286.166764"/>
     <use style="fill:#1f77b4;stroke:#1f77b4;" x="301.676342" xlink:href="#m20c6f71145" y="276.815557"/>
     <use style="fill:#1f77b4;stroke:#1f77b4;" x="307.348374" xlink:href="#m20c6f71145" y="281.123416"/>
     <use style="fill:#1f77b4;stroke:#1f77b4;" x="313.020407" xlink:href="#m20c6f71145" y="283.54002"/>
     <use style="fill:#1f77b4;stroke:#1f77b4;" x="318.69244" xlink:href="#m20c6f71145" y="285.326206"/>
     <use style="fill:#1f77b4;stroke:#1f77b4;" x="324.364473" xlink:href="#m20c6f71145" y="284.380578"/>
     <use style="fill:#1f77b4;stroke:#1f77b4;" x="330.036506" xlink:href="#m20c6f71145" y="283.224811"/>
     <use style="fill:#1f77b4;stroke:#1f77b4;" x="335.708539" xlink:href="#m20c6f71145" y="285.851555"/>
     <use style="fill:#1f77b4;stroke:#1f77b4;" x="341.380571" xlink:href="#m20c6f71145" y="281.858905"/>
     <use style="fill:#1f77b4;stroke:#1f77b4;" x="347.052604" xlink:href="#m20c6f71145" y="23.912703"/>
     <use style="fill:#1f77b4;stroke:#1f77b4;" x="352.724637" xlink:href="#m20c6f71145" y="276.815557"/>
     <use style="fill:#1f77b4;stroke:#1f77b4;" x="358.39667" xlink:href="#m20c6f71145" y="278.076394"/>
     <use style="fill:#1f77b4;stroke:#1f77b4;" x="364.068703" xlink:href="#m20c6f71145" y="277.551045"/>
     <use style="fill:#1f77b4;stroke:#1f77b4;" x="369.740735" xlink:href="#m20c6f71145" y="278.286534"/>
     <use style="fill:#1f77b4;stroke:#1f77b4;" x="375.412768" xlink:href="#m20c6f71145" y="278.601743"/>
     <use style="fill:#1f77b4;stroke:#1f77b4;" x="381.084801" xlink:href="#m20c6f71145" y="278.076394"/>
     <use style="fill:#1f77b4;stroke:#1f77b4;" x="386.756834" xlink:href="#m20c6f71145" y="278.811882"/>
     <use style="fill:#1f77b4;stroke:#1f77b4;" x="392.428867" xlink:href="#m20c6f71145" y="278.706813"/>
     <use style="fill:#1f77b4;stroke:#1f77b4;" x="398.1009" xlink:href="#m20c6f71145" y="277.445976"/>
     <use style="fill:#1f77b4;stroke:#1f77b4;" x="403.772932" xlink:href="#m20c6f71145" y="277.761185"/>
     <use style="fill:#1f77b4;stroke:#1f77b4;" x="409.444965" xlink:href="#m20c6f71145" y="279.022022"/>
     <use style="fill:#1f77b4;stroke:#1f77b4;" x="415.116998" xlink:href="#m20c6f71145" y="278.286534"/>
     <use style="fill:#1f77b4;stroke:#1f77b4;" x="420.789031" xlink:href="#m20c6f71145" y="278.601743"/>
     <use style="fill:#1f77b4;stroke:#1f77b4;" x="426.461064" xlink:href="#m20c6f71145" y="278.916952"/>
     <use style="fill:#1f77b4;stroke:#1f77b4;" x="432.133097" xlink:href="#m20c6f71145" y="278.391603"/>
    </g>
   </g>
   <g id="patch_3">
    <path d="M 56.928125 279.86258 
L 56.928125 10.8 
" style="fill:none;stroke:#000000;stroke-linecap:square;stroke-linejoin:miter;stroke-width:0.8;"/>
   </g>
   <g id="patch_4">
    <path d="M 450 279.86258 
L 450 10.8 
" style="fill:none;stroke:#000000;stroke-linecap:square;stroke-linejoin:miter;stroke-width:0.8;"/>
   </g>
   <g id="patch_5">
    <path d="M 56.928125 279.86258 
L 450 279.86258 
" style="fill:none;stroke:#000000;stroke-linecap:square;stroke-linejoin:miter;stroke-width:0.8;"/>
   </g>
   <g id="patch_6">
    <path d="M 56.928125 10.8 
L 450 10.8 
" style="fill:none;stroke:#000000;stroke-linecap:square;stroke-linejoin:miter;stroke-width:0.8;"/>
   </g>
  </g>
 </g>
 <defs>
  <clipPath id="p34db2342db">
   <rect height="269.06258" width="393.071875" x="56.928125" y="10.8"/>
  </clipPath>
 </defs>
</svg>
