<?xml version="1.0" encoding="utf-8" standalone="no"?>
<!DOCTYPE svg PUBLIC "-//W3C//DTD SVG 1.1//EN"
  "http://www.w3.org/Graphics/SVG/1.1/DTD/svg11.dtd">
<!-- Created with matplotlib (https://matplotlib.org/) -->
<svg height="345.6pt" version="1.1" viewBox="0 0 460.8 345.6" width="460.8pt" xmlns="http://www.w3.org/2000/svg" xmlns:xlink="http://www.w3.org/1999/xlink">
 <defs>
  <style type="text/css">
*{stroke-linecap:butt;stroke-linejoin:round;}
  </style>
 </defs>
 <g id="figure_1">
  <g id="patch_1">
   <path d="M 0 345.6 
L 460.8 345.6 
L 460.8 0 
L 0 0 
z
" style="fill:#ffffff;"/>
  </g>
  <g id="axes_1">
   <g id="patch_2">
    <path d="M 44.203125 279.86258 
L 430.239775 279.86258 
L 430.239775 10.8 
L 44.203125 10.8 
z
" style="fill:#ffffff;"/>
   </g>
   <g id="matplotlib.axis_1">
    <g id="xtick_1">
     <g id="line2d_1">
      <defs>
       <path d="M 0 0 
L 0 3.5 
" id="m666dee9851" style="stroke:#000000;stroke-width:0.8;"/>
      </defs>
      <g>
       <use style="stroke:#000000;stroke-width:0.8;" x="100.743846" xlink:href="#m666dee9851" y="279.86258"/>
      </g>
     </g>
     <g id="text_1">
      <!-- 2020-03-01 -->
      <defs>
       <path d="M 19.1875 8.296875 
L 53.609375 8.296875 
L 53.609375 0 
L 7.328125 0 
L 7.328125 8.296875 
Q 12.9375 14.109375 22.625 23.890625 
Q 32.328125 33.6875 34.8125 36.53125 
Q 39.546875 41.84375 41.421875 45.53125 
Q 43.3125 49.21875 43.3125 52.78125 
Q 43.3125 58.59375 39.234375 62.25 
Q 35.15625 65.921875 28.609375 65.921875 
Q 23.96875 65.921875 18.8125 64.3125 
Q 13.671875 62.703125 7.8125 59.421875 
L 7.8125 69.390625 
Q 13.765625 71.78125 18.9375 73 
Q 24.125 74.21875 28.421875 74.21875 
Q 39.75 74.21875 46.484375 68.546875 
Q 53.21875 62.890625 53.21875 53.421875 
Q 53.21875 48.921875 51.53125 44.890625 
Q 49.859375 40.875 45.40625 35.40625 
Q 44.1875 33.984375 37.640625 27.21875 
Q 31.109375 20.453125 19.1875 8.296875 
z
" id="DejaVuSans-50"/>
       <path d="M 31.78125 66.40625 
Q 24.171875 66.40625 20.328125 58.90625 
Q 16.5 51.421875 16.5 36.375 
Q 16.5 21.390625 20.328125 13.890625 
Q 24.171875 6.390625 31.78125 6.390625 
Q 39.453125 6.390625 43.28125 13.890625 
Q 47.125 21.390625 47.125 36.375 
Q 47.125 51.421875 43.28125 58.90625 
Q 39.453125 66.40625 31.78125 66.40625 
z
M 31.78125 74.21875 
Q 44.046875 74.21875 50.515625 64.515625 
Q 56.984375 54.828125 56.984375 36.375 
Q 56.984375 17.96875 50.515625 8.265625 
Q 44.046875 -1.421875 31.78125 -1.421875 
Q 19.53125 -1.421875 13.0625 8.265625 
Q 6.59375 17.96875 6.59375 36.375 
Q 6.59375 54.828125 13.0625 64.515625 
Q 19.53125 74.21875 31.78125 74.21875 
z
" id="DejaVuSans-48"/>
       <path d="M 4.890625 31.390625 
L 31.203125 31.390625 
L 31.203125 23.390625 
L 4.890625 23.390625 
z
" id="DejaVuSans-45"/>
       <path d="M 40.578125 39.3125 
Q 47.65625 37.796875 51.625 33 
Q 55.609375 28.21875 55.609375 21.1875 
Q 55.609375 10.40625 48.1875 4.484375 
Q 40.765625 -1.421875 27.09375 -1.421875 
Q 22.515625 -1.421875 17.65625 -0.515625 
Q 12.796875 0.390625 7.625 2.203125 
L 7.625 11.71875 
Q 11.71875 9.328125 16.59375 8.109375 
Q 21.484375 6.890625 26.8125 6.890625 
Q 36.078125 6.890625 40.9375 10.546875 
Q 45.796875 14.203125 45.796875 21.1875 
Q 45.796875 27.640625 41.28125 31.265625 
Q 36.765625 34.90625 28.71875 34.90625 
L 20.21875 34.90625 
L 20.21875 43.015625 
L 29.109375 43.015625 
Q 36.375 43.015625 40.234375 45.921875 
Q 44.09375 48.828125 44.09375 54.296875 
Q 44.09375 59.90625 40.109375 62.90625 
Q 36.140625 65.921875 28.71875 65.921875 
Q 24.65625 65.921875 20.015625 65.03125 
Q 15.375 64.15625 9.8125 62.3125 
L 9.8125 71.09375 
Q 15.4375 72.65625 20.34375 73.4375 
Q 25.25 74.21875 29.59375 74.21875 
Q 40.828125 74.21875 47.359375 69.109375 
Q 53.90625 64.015625 53.90625 55.328125 
Q 53.90625 49.265625 50.4375 45.09375 
Q 46.96875 40.921875 40.578125 39.3125 
z
" id="DejaVuSans-51"/>
       <path d="M 12.40625 8.296875 
L 28.515625 8.296875 
L 28.515625 63.921875 
L 10.984375 60.40625 
L 10.984375 69.390625 
L 28.421875 72.90625 
L 38.28125 72.90625 
L 38.28125 8.296875 
L 54.390625 8.296875 
L 54.390625 0 
L 12.40625 0 
z
" id="DejaVuSans-49"/>
      </defs>
      <g transform="translate(82.148043 333.329439)rotate(-45)scale(0.1 -0.1)">
       <use xlink:href="#DejaVuSans-50"/>
       <use x="63.623047" xlink:href="#DejaVuSans-48"/>
       <use x="127.246094" xlink:href="#DejaVuSans-50"/>
       <use x="190.869141" xlink:href="#DejaVuSans-48"/>
       <use x="254.492188" xlink:href="#DejaVuSans-45"/>
       <use x="290.576172" xlink:href="#DejaVuSans-48"/>
       <use x="354.199219" xlink:href="#DejaVuSans-51"/>
       <use x="417.822266" xlink:href="#DejaVuSans-45"/>
       <use x="453.90625" xlink:href="#DejaVuSans-48"/>
       <use x="517.529297" xlink:href="#DejaVuSans-49"/>
      </g>
     </g>
    </g>
    <g id="xtick_2">
     <g id="line2d_2">
      <g>
       <use style="stroke:#000000;stroke-width:0.8;" x="161.400559" xlink:href="#m666dee9851" y="279.86258"/>
      </g>
     </g>
     <g id="text_2">
      <!-- 2020-03-15 -->
      <defs>
       <path d="M 10.796875 72.90625 
L 49.515625 72.90625 
L 49.515625 64.59375 
L 19.828125 64.59375 
L 19.828125 46.734375 
Q 21.96875 47.46875 24.109375 47.828125 
Q 26.265625 48.1875 28.421875 48.1875 
Q 40.625 48.1875 47.75 41.5 
Q 54.890625 34.8125 54.890625 23.390625 
Q 54.890625 11.625 47.5625 5.09375 
Q 40.234375 -1.421875 26.90625 -1.421875 
Q 22.3125 -1.421875 17.546875 -0.640625 
Q 12.796875 0.140625 7.71875 1.703125 
L 7.71875 11.625 
Q 12.109375 9.234375 16.796875 8.0625 
Q 21.484375 6.890625 26.703125 6.890625 
Q 35.15625 6.890625 40.078125 11.328125 
Q 45.015625 15.765625 45.015625 23.390625 
Q 45.015625 31 40.078125 35.4375 
Q 35.15625 39.890625 26.703125 39.890625 
Q 22.75 39.890625 18.8125 39.015625 
Q 14.890625 38.140625 10.796875 36.28125 
z
" id="DejaVuSans-53"/>
      </defs>
      <g transform="translate(142.804756 333.329439)rotate(-45)scale(0.1 -0.1)">
       <use xlink:href="#DejaVuSans-50"/>
       <use x="63.623047" xlink:href="#DejaVuSans-48"/>
       <use x="127.246094" xlink:href="#DejaVuSans-50"/>
       <use x="190.869141" xlink:href="#DejaVuSans-48"/>
       <use x="254.492188" xlink:href="#DejaVuSans-45"/>
       <use x="290.576172" xlink:href="#DejaVuSans-48"/>
       <use x="354.199219" xlink:href="#DejaVuSans-51"/>
       <use x="417.822266" xlink:href="#DejaVuSans-45"/>
       <use x="453.90625" xlink:href="#DejaVuSans-49"/>
       <use x="517.529297" xlink:href="#DejaVuSans-53"/>
      </g>
     </g>
    </g>
    <g id="xtick_3">
     <g id="line2d_3">
      <g>
       <use style="stroke:#000000;stroke-width:0.8;" x="235.055139" xlink:href="#m666dee9851" y="279.86258"/>
      </g>
     </g>
     <g id="text_3">
      <!-- 2020-04-01 -->
      <defs>
       <path d="M 37.796875 64.3125 
L 12.890625 25.390625 
L 37.796875 25.390625 
z
M 35.203125 72.90625 
L 47.609375 72.90625 
L 47.609375 25.390625 
L 58.015625 25.390625 
L 58.015625 17.1875 
L 47.609375 17.1875 
L 47.609375 0 
L 37.796875 0 
L 37.796875 17.1875 
L 4.890625 17.1875 
L 4.890625 26.703125 
z
" id="DejaVuSans-52"/>
      </defs>
      <g transform="translate(216.459335 333.329439)rotate(-45)scale(0.1 -0.1)">
       <use xlink:href="#DejaVuSans-50"/>
       <use x="63.623047" xlink:href="#DejaVuSans-48"/>
       <use x="127.246094" xlink:href="#DejaVuSans-50"/>
       <use x="190.869141" xlink:href="#DejaVuSans-48"/>
       <use x="254.492188" xlink:href="#DejaVuSans-45"/>
       <use x="290.576172" xlink:href="#DejaVuSans-48"/>
       <use x="354.199219" xlink:href="#DejaVuSans-52"/>
       <use x="417.822266" xlink:href="#DejaVuSans-45"/>
       <use x="453.90625" xlink:href="#DejaVuSans-48"/>
       <use x="517.529297" xlink:href="#DejaVuSans-49"/>
      </g>
     </g>
    </g>
    <g id="xtick_4">
     <g id="line2d_4">
      <g>
       <use style="stroke:#000000;stroke-width:0.8;" x="295.711851" xlink:href="#m666dee9851" y="279.86258"/>
      </g>
     </g>
     <g id="text_4">
      <!-- 2020-04-15 -->
      <g transform="translate(277.116048 333.329439)rotate(-45)scale(0.1 -0.1)">
       <use xlink:href="#DejaVuSans-50"/>
       <use x="63.623047" xlink:href="#DejaVuSans-48"/>
       <use x="127.246094" xlink:href="#DejaVuSans-50"/>
       <use x="190.869141" xlink:href="#DejaVuSans-48"/>
       <use x="254.492188" xlink:href="#DejaVuSans-45"/>
       <use x="290.576172" xlink:href="#DejaVuSans-48"/>
       <use x="354.199219" xlink:href="#DejaVuSans-52"/>
       <use x="417.822266" xlink:href="#DejaVuSans-45"/>
       <use x="453.90625" xlink:href="#DejaVuSans-49"/>
       <use x="517.529297" xlink:href="#DejaVuSans-53"/>
      </g>
     </g>
    </g>
    <g id="xtick_5">
     <g id="line2d_5">
      <g>
       <use style="stroke:#000000;stroke-width:0.8;" x="365.033809" xlink:href="#m666dee9851" y="279.86258"/>
      </g>
     </g>
     <g id="text_5">
      <!-- 2020-05-01 -->
      <g transform="translate(346.438005 333.329439)rotate(-45)scale(0.1 -0.1)">
       <use xlink:href="#DejaVuSans-50"/>
       <use x="63.623047" xlink:href="#DejaVuSans-48"/>
       <use x="127.246094" xlink:href="#DejaVuSans-50"/>
       <use x="190.869141" xlink:href="#DejaVuSans-48"/>
       <use x="254.492188" xlink:href="#DejaVuSans-45"/>
       <use x="290.576172" xlink:href="#DejaVuSans-48"/>
       <use x="354.199219" xlink:href="#DejaVuSans-53"/>
       <use x="417.822266" xlink:href="#DejaVuSans-45"/>
       <use x="453.90625" xlink:href="#DejaVuSans-48"/>
       <use x="517.529297" xlink:href="#DejaVuSans-49"/>
      </g>
     </g>
    </g>
    <g id="xtick_6">
     <g id="line2d_6">
      <g>
       <use style="stroke:#000000;stroke-width:0.8;" x="425.690521" xlink:href="#m666dee9851" y="279.86258"/>
      </g>
     </g>
     <g id="text_6">
      <!-- 2020-05-15 -->
      <g transform="translate(407.094718 333.329439)rotate(-45)scale(0.1 -0.1)">
       <use xlink:href="#DejaVuSans-50"/>
       <use x="63.623047" xlink:href="#DejaVuSans-48"/>
       <use x="127.246094" xlink:href="#DejaVuSans-50"/>
       <use x="190.869141" xlink:href="#DejaVuSans-48"/>
       <use x="254.492188" xlink:href="#DejaVuSans-45"/>
       <use x="290.576172" xlink:href="#DejaVuSans-48"/>
       <use x="354.199219" xlink:href="#DejaVuSans-53"/>
       <use x="417.822266" xlink:href="#DejaVuSans-45"/>
       <use x="453.90625" xlink:href="#DejaVuSans-49"/>
       <use x="517.529297" xlink:href="#DejaVuSans-53"/>
      </g>
     </g>
    </g>
   </g>
   <g id="matplotlib.axis_2">
    <g id="ytick_1">
     <g id="line2d_7">
      <defs>
       <path d="M 0 0 
L -3.5 0 
" id="m588187fa96" style="stroke:#000000;stroke-width:0.8;"/>
      </defs>
      <g>
       <use style="stroke:#000000;stroke-width:0.8;" x="44.203125" xlink:href="#m588187fa96" y="279.86258"/>
      </g>
     </g>
     <g id="text_7">
      <!-- 0 -->
      <g transform="translate(30.840625 283.661798)scale(0.1 -0.1)">
       <use xlink:href="#DejaVuSans-48"/>
      </g>
     </g>
    </g>
    <g id="ytick_2">
     <g id="line2d_8">
      <g>
       <use style="stroke:#000000;stroke-width:0.8;" x="44.203125" xlink:href="#m588187fa96" y="222.918118"/>
      </g>
     </g>
     <g id="text_8">
      <!-- 10 -->
      <g transform="translate(24.478125 226.717337)scale(0.1 -0.1)">
       <use xlink:href="#DejaVuSans-49"/>
       <use x="63.623047" xlink:href="#DejaVuSans-48"/>
      </g>
     </g>
    </g>
    <g id="ytick_3">
     <g id="line2d_9">
      <g>
       <use style="stroke:#000000;stroke-width:0.8;" x="44.203125" xlink:href="#m588187fa96" y="165.973657"/>
      </g>
     </g>
     <g id="text_9">
      <!-- 20 -->
      <g transform="translate(24.478125 169.772876)scale(0.1 -0.1)">
       <use xlink:href="#DejaVuSans-50"/>
       <use x="63.623047" xlink:href="#DejaVuSans-48"/>
      </g>
     </g>
    </g>
    <g id="ytick_4">
     <g id="line2d_10">
      <g>
       <use style="stroke:#000000;stroke-width:0.8;" x="44.203125" xlink:href="#m588187fa96" y="109.029196"/>
      </g>
     </g>
     <g id="text_10">
      <!-- 30 -->
      <g transform="translate(24.478125 112.828414)scale(0.1 -0.1)">
       <use xlink:href="#DejaVuSans-51"/>
       <use x="63.623047" xlink:href="#DejaVuSans-48"/>
      </g>
     </g>
    </g>
    <g id="ytick_5">
     <g id="line2d_11">
      <g>
       <use style="stroke:#000000;stroke-width:0.8;" x="44.203125" xlink:href="#m588187fa96" y="52.084734"/>
      </g>
     </g>
     <g id="text_11">
      <!-- 40 -->
      <g transform="translate(24.478125 55.883953)scale(0.1 -0.1)">
       <use xlink:href="#DejaVuSans-52"/>
       <use x="63.623047" xlink:href="#DejaVuSans-48"/>
      </g>
     </g>
    </g>
    <g id="text_12">
     <!-- VC uci diarios -->
     <defs>
      <path d="M 28.609375 0 
L 0.78125 72.90625 
L 11.078125 72.90625 
L 34.1875 11.53125 
L 57.328125 72.90625 
L 67.578125 72.90625 
L 39.796875 0 
z
" id="DejaVuSans-86"/>
      <path d="M 64.40625 67.28125 
L 64.40625 56.890625 
Q 59.421875 61.53125 53.78125 63.8125 
Q 48.140625 66.109375 41.796875 66.109375 
Q 29.296875 66.109375 22.65625 58.46875 
Q 16.015625 50.828125 16.015625 36.375 
Q 16.015625 21.96875 22.65625 14.328125 
Q 29.296875 6.6875 41.796875 6.6875 
Q 48.140625 6.6875 53.78125 8.984375 
Q 59.421875 11.28125 64.40625 15.921875 
L 64.40625 5.609375 
Q 59.234375 2.09375 53.4375 0.328125 
Q 47.65625 -1.421875 41.21875 -1.421875 
Q 24.65625 -1.421875 15.125 8.703125 
Q 5.609375 18.84375 5.609375 36.375 
Q 5.609375 53.953125 15.125 64.078125 
Q 24.65625 74.21875 41.21875 74.21875 
Q 47.75 74.21875 53.53125 72.484375 
Q 59.328125 70.75 64.40625 67.28125 
z
" id="DejaVuSans-67"/>
      <path id="DejaVuSans-32"/>
      <path d="M 8.5 21.578125 
L 8.5 54.6875 
L 17.484375 54.6875 
L 17.484375 21.921875 
Q 17.484375 14.15625 20.5 10.265625 
Q 23.53125 6.390625 29.59375 6.390625 
Q 36.859375 6.390625 41.078125 11.03125 
Q 45.3125 15.671875 45.3125 23.6875 
L 45.3125 54.6875 
L 54.296875 54.6875 
L 54.296875 0 
L 45.3125 0 
L 45.3125 8.40625 
Q 42.046875 3.421875 37.71875 1 
Q 33.40625 -1.421875 27.6875 -1.421875 
Q 18.265625 -1.421875 13.375 4.4375 
Q 8.5 10.296875 8.5 21.578125 
z
M 31.109375 56 
z
" id="DejaVuSans-117"/>
      <path d="M 48.78125 52.59375 
L 48.78125 44.1875 
Q 44.96875 46.296875 41.140625 47.34375 
Q 37.3125 48.390625 33.40625 48.390625 
Q 24.65625 48.390625 19.8125 42.84375 
Q 14.984375 37.3125 14.984375 27.296875 
Q 14.984375 17.28125 19.8125 11.734375 
Q 24.65625 6.203125 33.40625 6.203125 
Q 37.3125 6.203125 41.140625 7.25 
Q 44.96875 8.296875 48.78125 10.40625 
L 48.78125 2.09375 
Q 45.015625 0.34375 40.984375 -0.53125 
Q 36.96875 -1.421875 32.421875 -1.421875 
Q 20.0625 -1.421875 12.78125 6.34375 
Q 5.515625 14.109375 5.515625 27.296875 
Q 5.515625 40.671875 12.859375 48.328125 
Q 20.21875 56 33.015625 56 
Q 37.15625 56 41.109375 55.140625 
Q 45.0625 54.296875 48.78125 52.59375 
z
" id="DejaVuSans-99"/>
      <path d="M 9.421875 54.6875 
L 18.40625 54.6875 
L 18.40625 0 
L 9.421875 0 
z
M 9.421875 75.984375 
L 18.40625 75.984375 
L 18.40625 64.59375 
L 9.421875 64.59375 
z
" id="DejaVuSans-105"/>
      <path d="M 45.40625 46.390625 
L 45.40625 75.984375 
L 54.390625 75.984375 
L 54.390625 0 
L 45.40625 0 
L 45.40625 8.203125 
Q 42.578125 3.328125 38.25 0.953125 
Q 33.9375 -1.421875 27.875 -1.421875 
Q 17.96875 -1.421875 11.734375 6.484375 
Q 5.515625 14.40625 5.515625 27.296875 
Q 5.515625 40.1875 11.734375 48.09375 
Q 17.96875 56 27.875 56 
Q 33.9375 56 38.25 53.625 
Q 42.578125 51.265625 45.40625 46.390625 
z
M 14.796875 27.296875 
Q 14.796875 17.390625 18.875 11.75 
Q 22.953125 6.109375 30.078125 6.109375 
Q 37.203125 6.109375 41.296875 11.75 
Q 45.40625 17.390625 45.40625 27.296875 
Q 45.40625 37.203125 41.296875 42.84375 
Q 37.203125 48.484375 30.078125 48.484375 
Q 22.953125 48.484375 18.875 42.84375 
Q 14.796875 37.203125 14.796875 27.296875 
z
" id="DejaVuSans-100"/>
      <path d="M 34.28125 27.484375 
Q 23.390625 27.484375 19.1875 25 
Q 14.984375 22.515625 14.984375 16.5 
Q 14.984375 11.71875 18.140625 8.90625 
Q 21.296875 6.109375 26.703125 6.109375 
Q 34.1875 6.109375 38.703125 11.40625 
Q 43.21875 16.703125 43.21875 25.484375 
L 43.21875 27.484375 
z
M 52.203125 31.203125 
L 52.203125 0 
L 43.21875 0 
L 43.21875 8.296875 
Q 40.140625 3.328125 35.546875 0.953125 
Q 30.953125 -1.421875 24.3125 -1.421875 
Q 15.921875 -1.421875 10.953125 3.296875 
Q 6 8.015625 6 15.921875 
Q 6 25.140625 12.171875 29.828125 
Q 18.359375 34.515625 30.609375 34.515625 
L 43.21875 34.515625 
L 43.21875 35.40625 
Q 43.21875 41.609375 39.140625 45 
Q 35.0625 48.390625 27.6875 48.390625 
Q 23 48.390625 18.546875 47.265625 
Q 14.109375 46.140625 10.015625 43.890625 
L 10.015625 52.203125 
Q 14.9375 54.109375 19.578125 55.046875 
Q 24.21875 56 28.609375 56 
Q 40.484375 56 46.34375 49.84375 
Q 52.203125 43.703125 52.203125 31.203125 
z
" id="DejaVuSans-97"/>
      <path d="M 41.109375 46.296875 
Q 39.59375 47.171875 37.8125 47.578125 
Q 36.03125 48 33.890625 48 
Q 26.265625 48 22.1875 43.046875 
Q 18.109375 38.09375 18.109375 28.8125 
L 18.109375 0 
L 9.078125 0 
L 9.078125 54.6875 
L 18.109375 54.6875 
L 18.109375 46.1875 
Q 20.953125 51.171875 25.484375 53.578125 
Q 30.03125 56 36.53125 56 
Q 37.453125 56 38.578125 55.875 
Q 39.703125 55.765625 41.0625 55.515625 
z
" id="DejaVuSans-114"/>
      <path d="M 30.609375 48.390625 
Q 23.390625 48.390625 19.1875 42.75 
Q 14.984375 37.109375 14.984375 27.296875 
Q 14.984375 17.484375 19.15625 11.84375 
Q 23.34375 6.203125 30.609375 6.203125 
Q 37.796875 6.203125 41.984375 11.859375 
Q 46.1875 17.53125 46.1875 27.296875 
Q 46.1875 37.015625 41.984375 42.703125 
Q 37.796875 48.390625 30.609375 48.390625 
z
M 30.609375 56 
Q 42.328125 56 49.015625 48.375 
Q 55.71875 40.765625 55.71875 27.296875 
Q 55.71875 13.875 49.015625 6.21875 
Q 42.328125 -1.421875 30.609375 -1.421875 
Q 18.84375 -1.421875 12.171875 6.21875 
Q 5.515625 13.875 5.515625 27.296875 
Q 5.515625 40.765625 12.171875 48.375 
Q 18.84375 56 30.609375 56 
z
" id="DejaVuSans-111"/>
      <path d="M 44.28125 53.078125 
L 44.28125 44.578125 
Q 40.484375 46.53125 36.375 47.5 
Q 32.28125 48.484375 27.875 48.484375 
Q 21.1875 48.484375 17.84375 46.4375 
Q 14.5 44.390625 14.5 40.28125 
Q 14.5 37.15625 16.890625 35.375 
Q 19.28125 33.59375 26.515625 31.984375 
L 29.59375 31.296875 
Q 39.15625 29.25 43.1875 25.515625 
Q 47.21875 21.78125 47.21875 15.09375 
Q 47.21875 7.46875 41.1875 3.015625 
Q 35.15625 -1.421875 24.609375 -1.421875 
Q 20.21875 -1.421875 15.453125 -0.5625 
Q 10.6875 0.296875 5.421875 2 
L 5.421875 11.28125 
Q 10.40625 8.6875 15.234375 7.390625 
Q 20.0625 6.109375 24.8125 6.109375 
Q 31.15625 6.109375 34.5625 8.28125 
Q 37.984375 10.453125 37.984375 14.40625 
Q 37.984375 18.0625 35.515625 20.015625 
Q 33.0625 21.96875 24.703125 23.78125 
L 21.578125 24.515625 
Q 13.234375 26.265625 9.515625 29.90625 
Q 5.8125 33.546875 5.8125 39.890625 
Q 5.8125 47.609375 11.28125 51.796875 
Q 16.75 56 26.8125 56 
Q 31.78125 56 36.171875 55.265625 
Q 40.578125 54.546875 44.28125 53.078125 
z
" id="DejaVuSans-115"/>
     </defs>
     <g transform="translate(18.398437 179.464102)rotate(-90)scale(0.1 -0.1)">
      <use xlink:href="#DejaVuSans-86"/>
      <use x="68.408203" xlink:href="#DejaVuSans-67"/>
      <use x="138.232422" xlink:href="#DejaVuSans-32"/>
      <use x="170.019531" xlink:href="#DejaVuSans-117"/>
      <use x="233.398438" xlink:href="#DejaVuSans-99"/>
      <use x="288.378906" xlink:href="#DejaVuSans-105"/>
      <use x="316.162109" xlink:href="#DejaVuSans-32"/>
      <use x="347.949219" xlink:href="#DejaVuSans-100"/>
      <use x="411.425781" xlink:href="#DejaVuSans-105"/>
      <use x="439.208984" xlink:href="#DejaVuSans-97"/>
      <use x="500.488281" xlink:href="#DejaVuSans-114"/>
      <use x="541.601562" xlink:href="#DejaVuSans-105"/>
      <use x="569.384766" xlink:href="#DejaVuSans-111"/>
      <use x="630.566406" xlink:href="#DejaVuSans-115"/>
     </g>
    </g>
   </g>
   <g id="line2d_12">
    <path clip-path="url(#pcd15dda231)" d="M 61.750245 274.168134 
L 66.082868 279.86258 
L 70.41549 274.168134 
L 74.748112 279.86258 
L 79.080735 279.86258 
L 83.413357 274.168134 
L 87.745979 279.86258 
L 92.078602 279.86258 
L 96.411224 279.86258 
L 100.743846 279.86258 
L 105.076469 279.86258 
L 109.409091 268.473687 
L 113.741713 274.168134 
L 118.074336 268.473687 
L 122.406958 279.86258 
L 126.73958 274.168134 
L 131.072203 279.86258 
L 135.404825 274.168134 
L 139.737447 268.473687 
L 144.07007 262.779241 
L 148.402692 240.001457 
L 152.735314 240.001457 
L 157.067937 234.307011 
L 161.400559 222.918118 
L 165.733181 251.390349 
L 170.065804 205.83478 
L 174.398426 165.973657 
L 178.731048 188.751442 
L 183.063671 120.418088 
L 187.396293 148.890319 
L 191.728915 114.723642 
L 196.061538 46.390288 
L 200.39416 91.945857 
L 204.726782 86.251411 
L 209.059405 74.862519 
L 213.392027 148.890319 
L 217.724649 126.112534 
L 222.057272 177.362549 
L 226.389894 148.890319 
L 230.722516 177.362549 
L 235.055139 194.445888 
L 239.387761 217.223672 
L 243.720383 222.918118 
L 248.053006 234.307011 
L 252.385628 228.612564 
L 256.71825 251.390349 
L 261.050873 257.084795 
L 265.383495 23.612504 
L 269.716117 165.973657 
L 274.04874 257.084795 
L 278.381362 268.473687 
L 282.713984 228.612564 
L 287.046607 251.390349 
L 291.379229 240.001457 
L 295.711851 69.168073 
L 300.044474 240.001457 
L 304.377096 257.084795 
L 308.709718 240.001457 
L 313.042341 262.779241 
L 317.374963 268.473687 
L 321.707585 274.168134 
L 326.040208 274.168134 
L 330.37283 274.168134 
L 334.705452 268.473687 
L 339.038075 274.168134 
L 343.370697 268.473687 
L 347.703319 262.779241 
L 352.035942 262.779241 
L 356.368564 274.168134 
L 360.701186 103.33475 
L 365.033809 274.168134 
L 369.366431 262.779241 
L 373.699053 268.473687 
L 378.031676 274.168134 
L 382.364298 279.86258 
L 386.69692 262.779241 
L 391.029543 268.473687 
L 395.362165 262.779241 
L 399.694787 240.001457 
L 404.02741 279.86258 
L 408.360032 274.168134 
L 412.692654 279.86258 
" style="fill:none;stroke:#1f77b4;stroke-linecap:square;stroke-width:1.5;"/>
    <defs>
     <path d="M 0 1.5 
C 0.397805 1.5 0.77937 1.341951 1.06066 1.06066 
C 1.341951 0.77937 1.5 0.397805 1.5 0 
C 1.5 -0.397805 1.341951 -0.77937 1.06066 -1.06066 
C 0.77937 -1.341951 0.397805 -1.5 0 -1.5 
C -0.397805 -1.5 -0.77937 -1.341951 -1.06066 -1.06066 
C -1.341951 -0.77937 -1.5 -0.397805 -1.5 0 
C -1.5 0.397805 -1.341951 0.77937 -1.06066 1.06066 
C -0.77937 1.341951 -0.397805 1.5 0 1.5 
z
" id="mbbab0419a6" style="stroke:#1f77b4;"/>
    </defs>
    <g clip-path="url(#pcd15dda231)">
     <use style="fill:#1f77b4;stroke:#1f77b4;" x="61.750245" xlink:href="#mbbab0419a6" y="274.168134"/>
     <use style="fill:#1f77b4;stroke:#1f77b4;" x="66.082868" xlink:href="#mbbab0419a6" y="279.86258"/>
     <use style="fill:#1f77b4;stroke:#1f77b4;" x="70.41549" xlink:href="#mbbab0419a6" y="274.168134"/>
     <use style="fill:#1f77b4;stroke:#1f77b4;" x="74.748112" xlink:href="#mbbab0419a6" y="279.86258"/>
     <use style="fill:#1f77b4;stroke:#1f77b4;" x="79.080735" xlink:href="#mbbab0419a6" y="279.86258"/>
     <use style="fill:#1f77b4;stroke:#1f77b4;" x="83.413357" xlink:href="#mbbab0419a6" y="274.168134"/>
     <use style="fill:#1f77b4;stroke:#1f77b4;" x="87.745979" xlink:href="#mbbab0419a6" y="279.86258"/>
     <use style="fill:#1f77b4;stroke:#1f77b4;" x="92.078602" xlink:href="#mbbab0419a6" y="279.86258"/>
     <use style="fill:#1f77b4;stroke:#1f77b4;" x="96.411224" xlink:href="#mbbab0419a6" y="279.86258"/>
     <use style="fill:#1f77b4;stroke:#1f77b4;" x="100.743846" xlink:href="#mbbab0419a6" y="279.86258"/>
     <use style="fill:#1f77b4;stroke:#1f77b4;" x="105.076469" xlink:href="#mbbab0419a6" y="279.86258"/>
     <use style="fill:#1f77b4;stroke:#1f77b4;" x="109.409091" xlink:href="#mbbab0419a6" y="268.473687"/>
     <use style="fill:#1f77b4;stroke:#1f77b4;" x="113.741713" xlink:href="#mbbab0419a6" y="274.168134"/>
     <use style="fill:#1f77b4;stroke:#1f77b4;" x="118.074336" xlink:href="#mbbab0419a6" y="268.473687"/>
     <use style="fill:#1f77b4;stroke:#1f77b4;" x="122.406958" xlink:href="#mbbab0419a6" y="279.86258"/>
     <use style="fill:#1f77b4;stroke:#1f77b4;" x="126.73958" xlink:href="#mbbab0419a6" y="274.168134"/>
     <use style="fill:#1f77b4;stroke:#1f77b4;" x="131.072203" xlink:href="#mbbab0419a6" y="279.86258"/>
     <use style="fill:#1f77b4;stroke:#1f77b4;" x="135.404825" xlink:href="#mbbab0419a6" y="274.168134"/>
     <use style="fill:#1f77b4;stroke:#1f77b4;" x="139.737447" xlink:href="#mbbab0419a6" y="268.473687"/>
     <use style="fill:#1f77b4;stroke:#1f77b4;" x="144.07007" xlink:href="#mbbab0419a6" y="262.779241"/>
     <use style="fill:#1f77b4;stroke:#1f77b4;" x="148.402692" xlink:href="#mbbab0419a6" y="240.001457"/>
     <use style="fill:#1f77b4;stroke:#1f77b4;" x="152.735314" xlink:href="#mbbab0419a6" y="240.001457"/>
     <use style="fill:#1f77b4;stroke:#1f77b4;" x="157.067937" xlink:href="#mbbab0419a6" y="234.307011"/>
     <use style="fill:#1f77b4;stroke:#1f77b4;" x="161.400559" xlink:href="#mbbab0419a6" y="222.918118"/>
     <use style="fill:#1f77b4;stroke:#1f77b4;" x="165.733181" xlink:href="#mbbab0419a6" y="251.390349"/>
     <use style="fill:#1f77b4;stroke:#1f77b4;" x="170.065804" xlink:href="#mbbab0419a6" y="205.83478"/>
     <use style="fill:#1f77b4;stroke:#1f77b4;" x="174.398426" xlink:href="#mbbab0419a6" y="165.973657"/>
     <use style="fill:#1f77b4;stroke:#1f77b4;" x="178.731048" xlink:href="#mbbab0419a6" y="188.751442"/>
     <use style="fill:#1f77b4;stroke:#1f77b4;" x="183.063671" xlink:href="#mbbab0419a6" y="120.418088"/>
     <use style="fill:#1f77b4;stroke:#1f77b4;" x="187.396293" xlink:href="#mbbab0419a6" y="148.890319"/>
     <use style="fill:#1f77b4;stroke:#1f77b4;" x="191.728915" xlink:href="#mbbab0419a6" y="114.723642"/>
     <use style="fill:#1f77b4;stroke:#1f77b4;" x="196.061538" xlink:href="#mbbab0419a6" y="46.390288"/>
     <use style="fill:#1f77b4;stroke:#1f77b4;" x="200.39416" xlink:href="#mbbab0419a6" y="91.945857"/>
     <use style="fill:#1f77b4;stroke:#1f77b4;" x="204.726782" xlink:href="#mbbab0419a6" y="86.251411"/>
     <use style="fill:#1f77b4;stroke:#1f77b4;" x="209.059405" xlink:href="#mbbab0419a6" y="74.862519"/>
     <use style="fill:#1f77b4;stroke:#1f77b4;" x="213.392027" xlink:href="#mbbab0419a6" y="148.890319"/>
     <use style="fill:#1f77b4;stroke:#1f77b4;" x="217.724649" xlink:href="#mbbab0419a6" y="126.112534"/>
     <use style="fill:#1f77b4;stroke:#1f77b4;" x="222.057272" xlink:href="#mbbab0419a6" y="177.362549"/>
     <use style="fill:#1f77b4;stroke:#1f77b4;" x="226.389894" xlink:href="#mbbab0419a6" y="148.890319"/>
     <use style="fill:#1f77b4;stroke:#1f77b4;" x="230.722516" xlink:href="#mbbab0419a6" y="177.362549"/>
     <use style="fill:#1f77b4;stroke:#1f77b4;" x="235.055139" xlink:href="#mbbab0419a6" y="194.445888"/>
     <use style="fill:#1f77b4;stroke:#1f77b4;" x="239.387761" xlink:href="#mbbab0419a6" y="217.223672"/>
     <use style="fill:#1f77b4;stroke:#1f77b4;" x="243.720383" xlink:href="#mbbab0419a6" y="222.918118"/>
     <use style="fill:#1f77b4;stroke:#1f77b4;" x="248.053006" xlink:href="#mbbab0419a6" y="234.307011"/>
     <use style="fill:#1f77b4;stroke:#1f77b4;" x="252.385628" xlink:href="#mbbab0419a6" y="228.612564"/>
     <use style="fill:#1f77b4;stroke:#1f77b4;" x="256.71825" xlink:href="#mbbab0419a6" y="251.390349"/>
     <use style="fill:#1f77b4;stroke:#1f77b4;" x="261.050873" xlink:href="#mbbab0419a6" y="257.084795"/>
     <use style="fill:#1f77b4;stroke:#1f77b4;" x="265.383495" xlink:href="#mbbab0419a6" y="23.612504"/>
     <use style="fill:#1f77b4;stroke:#1f77b4;" x="269.716117" xlink:href="#mbbab0419a6" y="165.973657"/>
     <use style="fill:#1f77b4;stroke:#1f77b4;" x="274.04874" xlink:href="#mbbab0419a6" y="257.084795"/>
     <use style="fill:#1f77b4;stroke:#1f77b4;" x="278.381362" xlink:href="#mbbab0419a6" y="268.473687"/>
     <use style="fill:#1f77b4;stroke:#1f77b4;" x="282.713984" xlink:href="#mbbab0419a6" y="228.612564"/>
     <use style="fill:#1f77b4;stroke:#1f77b4;" x="287.046607" xlink:href="#mbbab0419a6" y="251.390349"/>
     <use style="fill:#1f77b4;stroke:#1f77b4;" x="291.379229" xlink:href="#mbbab0419a6" y="240.001457"/>
     <use style="fill:#1f77b4;stroke:#1f77b4;" x="295.711851" xlink:href="#mbbab0419a6" y="69.168073"/>
     <use style="fill:#1f77b4;stroke:#1f77b4;" x="300.044474" xlink:href="#mbbab0419a6" y="240.001457"/>
     <use style="fill:#1f77b4;stroke:#1f77b4;" x="304.377096" xlink:href="#mbbab0419a6" y="257.084795"/>
     <use style="fill:#1f77b4;stroke:#1f77b4;" x="308.709718" xlink:href="#mbbab0419a6" y="240.001457"/>
     <use style="fill:#1f77b4;stroke:#1f77b4;" x="313.042341" xlink:href="#mbbab0419a6" y="262.779241"/>
     <use style="fill:#1f77b4;stroke:#1f77b4;" x="317.374963" xlink:href="#mbbab0419a6" y="268.473687"/>
     <use style="fill:#1f77b4;stroke:#1f77b4;" x="321.707585" xlink:href="#mbbab0419a6" y="274.168134"/>
     <use style="fill:#1f77b4;stroke:#1f77b4;" x="326.040208" xlink:href="#mbbab0419a6" y="274.168134"/>
     <use style="fill:#1f77b4;stroke:#1f77b4;" x="330.37283" xlink:href="#mbbab0419a6" y="274.168134"/>
     <use style="fill:#1f77b4;stroke:#1f77b4;" x="334.705452" xlink:href="#mbbab0419a6" y="268.473687"/>
     <use style="fill:#1f77b4;stroke:#1f77b4;" x="339.038075" xlink:href="#mbbab0419a6" y="274.168134"/>
     <use style="fill:#1f77b4;stroke:#1f77b4;" x="343.370697" xlink:href="#mbbab0419a6" y="268.473687"/>
     <use style="fill:#1f77b4;stroke:#1f77b4;" x="347.703319" xlink:href="#mbbab0419a6" y="262.779241"/>
     <use style="fill:#1f77b4;stroke:#1f77b4;" x="352.035942" xlink:href="#mbbab0419a6" y="262.779241"/>
     <use style="fill:#1f77b4;stroke:#1f77b4;" x="356.368564" xlink:href="#mbbab0419a6" y="274.168134"/>
     <use style="fill:#1f77b4;stroke:#1f77b4;" x="360.701186" xlink:href="#mbbab0419a6" y="103.33475"/>
     <use style="fill:#1f77b4;stroke:#1f77b4;" x="365.033809" xlink:href="#mbbab0419a6" y="274.168134"/>
     <use style="fill:#1f77b4;stroke:#1f77b4;" x="369.366431" xlink:href="#mbbab0419a6" y="262.779241"/>
     <use style="fill:#1f77b4;stroke:#1f77b4;" x="373.699053" xlink:href="#mbbab0419a6" y="268.473687"/>
     <use style="fill:#1f77b4;stroke:#1f77b4;" x="378.031676" xlink:href="#mbbab0419a6" y="274.168134"/>
     <use style="fill:#1f77b4;stroke:#1f77b4;" x="382.364298" xlink:href="#mbbab0419a6" y="279.86258"/>
     <use style="fill:#1f77b4;stroke:#1f77b4;" x="386.69692" xlink:href="#mbbab0419a6" y="262.779241"/>
     <use style="fill:#1f77b4;stroke:#1f77b4;" x="391.029543" xlink:href="#mbbab0419a6" y="268.473687"/>
     <use style="fill:#1f77b4;stroke:#1f77b4;" x="395.362165" xlink:href="#mbbab0419a6" y="262.779241"/>
     <use style="fill:#1f77b4;stroke:#1f77b4;" x="399.694787" xlink:href="#mbbab0419a6" y="240.001457"/>
     <use style="fill:#1f77b4;stroke:#1f77b4;" x="404.02741" xlink:href="#mbbab0419a6" y="279.86258"/>
     <use style="fill:#1f77b4;stroke:#1f77b4;" x="408.360032" xlink:href="#mbbab0419a6" y="274.168134"/>
     <use style="fill:#1f77b4;stroke:#1f77b4;" x="412.692654" xlink:href="#mbbab0419a6" y="279.86258"/>
    </g>
   </g>
   <g id="patch_3">
    <path d="M 44.203125 279.86258 
L 44.203125 10.8 
" style="fill:none;stroke:#000000;stroke-linecap:square;stroke-linejoin:miter;stroke-width:0.8;"/>
   </g>
   <g id="patch_4">
    <path d="M 430.239775 279.86258 
L 430.239775 10.8 
" style="fill:none;stroke:#000000;stroke-linecap:square;stroke-linejoin:miter;stroke-width:0.8;"/>
   </g>
   <g id="patch_5">
    <path d="M 44.203125 279.86258 
L 430.239775 279.86258 
" style="fill:none;stroke:#000000;stroke-linecap:square;stroke-linejoin:miter;stroke-width:0.8;"/>
   </g>
   <g id="patch_6">
    <path d="M 44.203125 10.8 
L 430.239775 10.8 
" style="fill:none;stroke:#000000;stroke-linecap:square;stroke-linejoin:miter;stroke-width:0.8;"/>
   </g>
  </g>
 </g>
 <defs>
  <clipPath id="pcd15dda231">
   <rect height="269.06258" width="386.03665" x="44.203125" y="10.8"/>
  </clipPath>
 </defs>
</svg>
