<?xml version="1.0" encoding="utf-8" standalone="no"?>
<!DOCTYPE svg PUBLIC "-//W3C//DTD SVG 1.1//EN"
  "http://www.w3.org/Graphics/SVG/1.1/DTD/svg11.dtd">
<!-- Created with matplotlib (https://matplotlib.org/) -->
<svg height="345.6pt" version="1.1" viewBox="0 0 460.8 345.6" width="460.8pt" xmlns="http://www.w3.org/2000/svg" xmlns:xlink="http://www.w3.org/1999/xlink">
 <defs>
  <style type="text/css">
*{stroke-linecap:butt;stroke-linejoin:round;}
  </style>
 </defs>
 <g id="figure_1">
  <g id="patch_1">
   <path d="M 0 345.6 
L 460.8 345.6 
L 460.8 0 
L 0 0 
z
" style="fill:#ffffff;"/>
  </g>
  <g id="axes_1">
   <g id="patch_2">
    <path d="M 50.565625 279.86258 
L 430.239775 279.86258 
L 430.239775 10.8 
L 50.565625 10.8 
z
" style="fill:#ffffff;"/>
   </g>
   <g id="matplotlib.axis_1">
    <g id="xtick_1">
     <g id="line2d_1">
      <defs>
       <path d="M 0 0 
L 0 3.5 
" id="m0d7994c4d3" style="stroke:#000000;stroke-width:0.8;"/>
      </defs>
      <g>
       <use style="stroke:#000000;stroke-width:0.8;" x="106.174465" xlink:href="#m0d7994c4d3" y="279.86258"/>
      </g>
     </g>
     <g id="text_1">
      <!-- 2020-03-01 -->
      <defs>
       <path d="M 19.1875 8.296875 
L 53.609375 8.296875 
L 53.609375 0 
L 7.328125 0 
L 7.328125 8.296875 
Q 12.9375 14.109375 22.625 23.890625 
Q 32.328125 33.6875 34.8125 36.53125 
Q 39.546875 41.84375 41.421875 45.53125 
Q 43.3125 49.21875 43.3125 52.78125 
Q 43.3125 58.59375 39.234375 62.25 
Q 35.15625 65.921875 28.609375 65.921875 
Q 23.96875 65.921875 18.8125 64.3125 
Q 13.671875 62.703125 7.8125 59.421875 
L 7.8125 69.390625 
Q 13.765625 71.78125 18.9375 73 
Q 24.125 74.21875 28.421875 74.21875 
Q 39.75 74.21875 46.484375 68.546875 
Q 53.21875 62.890625 53.21875 53.421875 
Q 53.21875 48.921875 51.53125 44.890625 
Q 49.859375 40.875 45.40625 35.40625 
Q 44.1875 33.984375 37.640625 27.21875 
Q 31.109375 20.453125 19.1875 8.296875 
z
" id="DejaVuSans-50"/>
       <path d="M 31.78125 66.40625 
Q 24.171875 66.40625 20.328125 58.90625 
Q 16.5 51.421875 16.5 36.375 
Q 16.5 21.390625 20.328125 13.890625 
Q 24.171875 6.390625 31.78125 6.390625 
Q 39.453125 6.390625 43.28125 13.890625 
Q 47.125 21.390625 47.125 36.375 
Q 47.125 51.421875 43.28125 58.90625 
Q 39.453125 66.40625 31.78125 66.40625 
z
M 31.78125 74.21875 
Q 44.046875 74.21875 50.515625 64.515625 
Q 56.984375 54.828125 56.984375 36.375 
Q 56.984375 17.96875 50.515625 8.265625 
Q 44.046875 -1.421875 31.78125 -1.421875 
Q 19.53125 -1.421875 13.0625 8.265625 
Q 6.59375 17.96875 6.59375 36.375 
Q 6.59375 54.828125 13.0625 64.515625 
Q 19.53125 74.21875 31.78125 74.21875 
z
" id="DejaVuSans-48"/>
       <path d="M 4.890625 31.390625 
L 31.203125 31.390625 
L 31.203125 23.390625 
L 4.890625 23.390625 
z
" id="DejaVuSans-45"/>
       <path d="M 40.578125 39.3125 
Q 47.65625 37.796875 51.625 33 
Q 55.609375 28.21875 55.609375 21.1875 
Q 55.609375 10.40625 48.1875 4.484375 
Q 40.765625 -1.421875 27.09375 -1.421875 
Q 22.515625 -1.421875 17.65625 -0.515625 
Q 12.796875 0.390625 7.625 2.203125 
L 7.625 11.71875 
Q 11.71875 9.328125 16.59375 8.109375 
Q 21.484375 6.890625 26.8125 6.890625 
Q 36.078125 6.890625 40.9375 10.546875 
Q 45.796875 14.203125 45.796875 21.1875 
Q 45.796875 27.640625 41.28125 31.265625 
Q 36.765625 34.90625 28.71875 34.90625 
L 20.21875 34.90625 
L 20.21875 43.015625 
L 29.109375 43.015625 
Q 36.375 43.015625 40.234375 45.921875 
Q 44.09375 48.828125 44.09375 54.296875 
Q 44.09375 59.90625 40.109375 62.90625 
Q 36.140625 65.921875 28.71875 65.921875 
Q 24.65625 65.921875 20.015625 65.03125 
Q 15.375 64.15625 9.8125 62.3125 
L 9.8125 71.09375 
Q 15.4375 72.65625 20.34375 73.4375 
Q 25.25 74.21875 29.59375 74.21875 
Q 40.828125 74.21875 47.359375 69.109375 
Q 53.90625 64.015625 53.90625 55.328125 
Q 53.90625 49.265625 50.4375 45.09375 
Q 46.96875 40.921875 40.578125 39.3125 
z
" id="DejaVuSans-51"/>
       <path d="M 12.40625 8.296875 
L 28.515625 8.296875 
L 28.515625 63.921875 
L 10.984375 60.40625 
L 10.984375 69.390625 
L 28.421875 72.90625 
L 38.28125 72.90625 
L 38.28125 8.296875 
L 54.390625 8.296875 
L 54.390625 0 
L 12.40625 0 
z
" id="DejaVuSans-49"/>
      </defs>
      <g transform="translate(87.578662 333.329439)rotate(-45)scale(0.1 -0.1)">
       <use xlink:href="#DejaVuSans-50"/>
       <use x="63.623047" xlink:href="#DejaVuSans-48"/>
       <use x="127.246094" xlink:href="#DejaVuSans-50"/>
       <use x="190.869141" xlink:href="#DejaVuSans-48"/>
       <use x="254.492188" xlink:href="#DejaVuSans-45"/>
       <use x="290.576172" xlink:href="#DejaVuSans-48"/>
       <use x="354.199219" xlink:href="#DejaVuSans-51"/>
       <use x="417.822266" xlink:href="#DejaVuSans-45"/>
       <use x="453.90625" xlink:href="#DejaVuSans-48"/>
       <use x="517.529297" xlink:href="#DejaVuSans-49"/>
      </g>
     </g>
    </g>
    <g id="xtick_2">
     <g id="line2d_2">
      <g>
       <use style="stroke:#000000;stroke-width:0.8;" x="165.831458" xlink:href="#m0d7994c4d3" y="279.86258"/>
      </g>
     </g>
     <g id="text_2">
      <!-- 2020-03-15 -->
      <defs>
       <path d="M 10.796875 72.90625 
L 49.515625 72.90625 
L 49.515625 64.59375 
L 19.828125 64.59375 
L 19.828125 46.734375 
Q 21.96875 47.46875 24.109375 47.828125 
Q 26.265625 48.1875 28.421875 48.1875 
Q 40.625 48.1875 47.75 41.5 
Q 54.890625 34.8125 54.890625 23.390625 
Q 54.890625 11.625 47.5625 5.09375 
Q 40.234375 -1.421875 26.90625 -1.421875 
Q 22.3125 -1.421875 17.546875 -0.640625 
Q 12.796875 0.140625 7.71875 1.703125 
L 7.71875 11.625 
Q 12.109375 9.234375 16.796875 8.0625 
Q 21.484375 6.890625 26.703125 6.890625 
Q 35.15625 6.890625 40.078125 11.328125 
Q 45.015625 15.765625 45.015625 23.390625 
Q 45.015625 31 40.078125 35.4375 
Q 35.15625 39.890625 26.703125 39.890625 
Q 22.75 39.890625 18.8125 39.015625 
Q 14.890625 38.140625 10.796875 36.28125 
z
" id="DejaVuSans-53"/>
      </defs>
      <g transform="translate(147.235655 333.329439)rotate(-45)scale(0.1 -0.1)">
       <use xlink:href="#DejaVuSans-50"/>
       <use x="63.623047" xlink:href="#DejaVuSans-48"/>
       <use x="127.246094" xlink:href="#DejaVuSans-50"/>
       <use x="190.869141" xlink:href="#DejaVuSans-48"/>
       <use x="254.492188" xlink:href="#DejaVuSans-45"/>
       <use x="290.576172" xlink:href="#DejaVuSans-48"/>
       <use x="354.199219" xlink:href="#DejaVuSans-51"/>
       <use x="417.822266" xlink:href="#DejaVuSans-45"/>
       <use x="453.90625" xlink:href="#DejaVuSans-49"/>
       <use x="517.529297" xlink:href="#DejaVuSans-53"/>
      </g>
     </g>
    </g>
    <g id="xtick_3">
     <g id="line2d_3">
      <g>
       <use style="stroke:#000000;stroke-width:0.8;" x="238.272093" xlink:href="#m0d7994c4d3" y="279.86258"/>
      </g>
     </g>
     <g id="text_3">
      <!-- 2020-04-01 -->
      <defs>
       <path d="M 37.796875 64.3125 
L 12.890625 25.390625 
L 37.796875 25.390625 
z
M 35.203125 72.90625 
L 47.609375 72.90625 
L 47.609375 25.390625 
L 58.015625 25.390625 
L 58.015625 17.1875 
L 47.609375 17.1875 
L 47.609375 0 
L 37.796875 0 
L 37.796875 17.1875 
L 4.890625 17.1875 
L 4.890625 26.703125 
z
" id="DejaVuSans-52"/>
      </defs>
      <g transform="translate(219.676289 333.329439)rotate(-45)scale(0.1 -0.1)">
       <use xlink:href="#DejaVuSans-50"/>
       <use x="63.623047" xlink:href="#DejaVuSans-48"/>
       <use x="127.246094" xlink:href="#DejaVuSans-50"/>
       <use x="190.869141" xlink:href="#DejaVuSans-48"/>
       <use x="254.492188" xlink:href="#DejaVuSans-45"/>
       <use x="290.576172" xlink:href="#DejaVuSans-48"/>
       <use x="354.199219" xlink:href="#DejaVuSans-52"/>
       <use x="417.822266" xlink:href="#DejaVuSans-45"/>
       <use x="453.90625" xlink:href="#DejaVuSans-48"/>
       <use x="517.529297" xlink:href="#DejaVuSans-49"/>
      </g>
     </g>
    </g>
    <g id="xtick_4">
     <g id="line2d_4">
      <g>
       <use style="stroke:#000000;stroke-width:0.8;" x="297.929086" xlink:href="#m0d7994c4d3" y="279.86258"/>
      </g>
     </g>
     <g id="text_4">
      <!-- 2020-04-15 -->
      <g transform="translate(279.333283 333.329439)rotate(-45)scale(0.1 -0.1)">
       <use xlink:href="#DejaVuSans-50"/>
       <use x="63.623047" xlink:href="#DejaVuSans-48"/>
       <use x="127.246094" xlink:href="#DejaVuSans-50"/>
       <use x="190.869141" xlink:href="#DejaVuSans-48"/>
       <use x="254.492188" xlink:href="#DejaVuSans-45"/>
       <use x="290.576172" xlink:href="#DejaVuSans-48"/>
       <use x="354.199219" xlink:href="#DejaVuSans-52"/>
       <use x="417.822266" xlink:href="#DejaVuSans-45"/>
       <use x="453.90625" xlink:href="#DejaVuSans-49"/>
       <use x="517.529297" xlink:href="#DejaVuSans-53"/>
      </g>
     </g>
    </g>
    <g id="xtick_5">
     <g id="line2d_5">
      <g>
       <use style="stroke:#000000;stroke-width:0.8;" x="366.108507" xlink:href="#m0d7994c4d3" y="279.86258"/>
      </g>
     </g>
     <g id="text_5">
      <!-- 2020-05-01 -->
      <g transform="translate(347.512703 333.329439)rotate(-45)scale(0.1 -0.1)">
       <use xlink:href="#DejaVuSans-50"/>
       <use x="63.623047" xlink:href="#DejaVuSans-48"/>
       <use x="127.246094" xlink:href="#DejaVuSans-50"/>
       <use x="190.869141" xlink:href="#DejaVuSans-48"/>
       <use x="254.492188" xlink:href="#DejaVuSans-45"/>
       <use x="290.576172" xlink:href="#DejaVuSans-48"/>
       <use x="354.199219" xlink:href="#DejaVuSans-53"/>
       <use x="417.822266" xlink:href="#DejaVuSans-45"/>
       <use x="453.90625" xlink:href="#DejaVuSans-48"/>
       <use x="517.529297" xlink:href="#DejaVuSans-49"/>
      </g>
     </g>
    </g>
    <g id="xtick_6">
     <g id="line2d_6">
      <g>
       <use style="stroke:#000000;stroke-width:0.8;" x="425.7655" xlink:href="#m0d7994c4d3" y="279.86258"/>
      </g>
     </g>
     <g id="text_6">
      <!-- 2020-05-15 -->
      <g transform="translate(407.169697 333.329439)rotate(-45)scale(0.1 -0.1)">
       <use xlink:href="#DejaVuSans-50"/>
       <use x="63.623047" xlink:href="#DejaVuSans-48"/>
       <use x="127.246094" xlink:href="#DejaVuSans-50"/>
       <use x="190.869141" xlink:href="#DejaVuSans-48"/>
       <use x="254.492188" xlink:href="#DejaVuSans-45"/>
       <use x="290.576172" xlink:href="#DejaVuSans-48"/>
       <use x="354.199219" xlink:href="#DejaVuSans-53"/>
       <use x="417.822266" xlink:href="#DejaVuSans-45"/>
       <use x="453.90625" xlink:href="#DejaVuSans-49"/>
       <use x="517.529297" xlink:href="#DejaVuSans-53"/>
      </g>
     </g>
    </g>
   </g>
   <g id="matplotlib.axis_2">
    <g id="ytick_1">
     <g id="line2d_7">
      <defs>
       <path d="M 0 0 
L -3.5 0 
" id="ma11d5ee143" style="stroke:#000000;stroke-width:0.8;"/>
      </defs>
      <g>
       <use style="stroke:#000000;stroke-width:0.8;" x="50.565625" xlink:href="#ma11d5ee143" y="279.86258"/>
      </g>
     </g>
     <g id="text_7">
      <!-- 0 -->
      <g transform="translate(37.203125 283.661798)scale(0.1 -0.1)">
       <use xlink:href="#DejaVuSans-48"/>
      </g>
     </g>
    </g>
    <g id="ytick_2">
     <g id="line2d_8">
      <g>
       <use style="stroke:#000000;stroke-width:0.8;" x="50.565625" xlink:href="#ma11d5ee143" y="231.695272"/>
      </g>
     </g>
     <g id="text_8">
      <!-- 50 -->
      <g transform="translate(30.840625 235.494491)scale(0.1 -0.1)">
       <use xlink:href="#DejaVuSans-53"/>
       <use x="63.623047" xlink:href="#DejaVuSans-48"/>
      </g>
     </g>
    </g>
    <g id="ytick_3">
     <g id="line2d_9">
      <g>
       <use style="stroke:#000000;stroke-width:0.8;" x="50.565625" xlink:href="#ma11d5ee143" y="183.527965"/>
      </g>
     </g>
     <g id="text_9">
      <!-- 100 -->
      <g transform="translate(24.478125 187.327183)scale(0.1 -0.1)">
       <use xlink:href="#DejaVuSans-49"/>
       <use x="63.623047" xlink:href="#DejaVuSans-48"/>
       <use x="127.246094" xlink:href="#DejaVuSans-48"/>
      </g>
     </g>
    </g>
    <g id="ytick_4">
     <g id="line2d_10">
      <g>
       <use style="stroke:#000000;stroke-width:0.8;" x="50.565625" xlink:href="#ma11d5ee143" y="135.360657"/>
      </g>
     </g>
     <g id="text_10">
      <!-- 150 -->
      <g transform="translate(24.478125 139.159876)scale(0.1 -0.1)">
       <use xlink:href="#DejaVuSans-49"/>
       <use x="63.623047" xlink:href="#DejaVuSans-53"/>
       <use x="127.246094" xlink:href="#DejaVuSans-48"/>
      </g>
     </g>
    </g>
    <g id="ytick_5">
     <g id="line2d_11">
      <g>
       <use style="stroke:#000000;stroke-width:0.8;" x="50.565625" xlink:href="#ma11d5ee143" y="87.19335"/>
      </g>
     </g>
     <g id="text_11">
      <!-- 200 -->
      <g transform="translate(24.478125 90.992568)scale(0.1 -0.1)">
       <use xlink:href="#DejaVuSans-50"/>
       <use x="63.623047" xlink:href="#DejaVuSans-48"/>
       <use x="127.246094" xlink:href="#DejaVuSans-48"/>
      </g>
     </g>
    </g>
    <g id="ytick_6">
     <g id="line2d_12">
      <g>
       <use style="stroke:#000000;stroke-width:0.8;" x="50.565625" xlink:href="#ma11d5ee143" y="39.026042"/>
      </g>
     </g>
     <g id="text_12">
      <!-- 250 -->
      <g transform="translate(24.478125 42.825261)scale(0.1 -0.1)">
       <use xlink:href="#DejaVuSans-50"/>
       <use x="63.623047" xlink:href="#DejaVuSans-53"/>
       <use x="127.246094" xlink:href="#DejaVuSans-48"/>
      </g>
     </g>
    </g>
    <g id="text_13">
     <!-- AR pcr diarios -->
     <defs>
      <path d="M 34.1875 63.1875 
L 20.796875 26.90625 
L 47.609375 26.90625 
z
M 28.609375 72.90625 
L 39.796875 72.90625 
L 67.578125 0 
L 57.328125 0 
L 50.6875 18.703125 
L 17.828125 18.703125 
L 11.1875 0 
L 0.78125 0 
z
" id="DejaVuSans-65"/>
      <path d="M 44.390625 34.1875 
Q 47.5625 33.109375 50.5625 29.59375 
Q 53.5625 26.078125 56.59375 19.921875 
L 66.609375 0 
L 56 0 
L 46.6875 18.703125 
Q 43.0625 26.03125 39.671875 28.421875 
Q 36.28125 30.8125 30.421875 30.8125 
L 19.671875 30.8125 
L 19.671875 0 
L 9.8125 0 
L 9.8125 72.90625 
L 32.078125 72.90625 
Q 44.578125 72.90625 50.734375 67.671875 
Q 56.890625 62.453125 56.890625 51.90625 
Q 56.890625 45.015625 53.6875 40.46875 
Q 50.484375 35.9375 44.390625 34.1875 
z
M 19.671875 64.796875 
L 19.671875 38.921875 
L 32.078125 38.921875 
Q 39.203125 38.921875 42.84375 42.21875 
Q 46.484375 45.515625 46.484375 51.90625 
Q 46.484375 58.296875 42.84375 61.546875 
Q 39.203125 64.796875 32.078125 64.796875 
z
" id="DejaVuSans-82"/>
      <path id="DejaVuSans-32"/>
      <path d="M 18.109375 8.203125 
L 18.109375 -20.796875 
L 9.078125 -20.796875 
L 9.078125 54.6875 
L 18.109375 54.6875 
L 18.109375 46.390625 
Q 20.953125 51.265625 25.265625 53.625 
Q 29.59375 56 35.59375 56 
Q 45.5625 56 51.78125 48.09375 
Q 58.015625 40.1875 58.015625 27.296875 
Q 58.015625 14.40625 51.78125 6.484375 
Q 45.5625 -1.421875 35.59375 -1.421875 
Q 29.59375 -1.421875 25.265625 0.953125 
Q 20.953125 3.328125 18.109375 8.203125 
z
M 48.6875 27.296875 
Q 48.6875 37.203125 44.609375 42.84375 
Q 40.53125 48.484375 33.40625 48.484375 
Q 26.265625 48.484375 22.1875 42.84375 
Q 18.109375 37.203125 18.109375 27.296875 
Q 18.109375 17.390625 22.1875 11.75 
Q 26.265625 6.109375 33.40625 6.109375 
Q 40.53125 6.109375 44.609375 11.75 
Q 48.6875 17.390625 48.6875 27.296875 
z
" id="DejaVuSans-112"/>
      <path d="M 48.78125 52.59375 
L 48.78125 44.1875 
Q 44.96875 46.296875 41.140625 47.34375 
Q 37.3125 48.390625 33.40625 48.390625 
Q 24.65625 48.390625 19.8125 42.84375 
Q 14.984375 37.3125 14.984375 27.296875 
Q 14.984375 17.28125 19.8125 11.734375 
Q 24.65625 6.203125 33.40625 6.203125 
Q 37.3125 6.203125 41.140625 7.25 
Q 44.96875 8.296875 48.78125 10.40625 
L 48.78125 2.09375 
Q 45.015625 0.34375 40.984375 -0.53125 
Q 36.96875 -1.421875 32.421875 -1.421875 
Q 20.0625 -1.421875 12.78125 6.34375 
Q 5.515625 14.109375 5.515625 27.296875 
Q 5.515625 40.671875 12.859375 48.328125 
Q 20.21875 56 33.015625 56 
Q 37.15625 56 41.109375 55.140625 
Q 45.0625 54.296875 48.78125 52.59375 
z
" id="DejaVuSans-99"/>
      <path d="M 41.109375 46.296875 
Q 39.59375 47.171875 37.8125 47.578125 
Q 36.03125 48 33.890625 48 
Q 26.265625 48 22.1875 43.046875 
Q 18.109375 38.09375 18.109375 28.8125 
L 18.109375 0 
L 9.078125 0 
L 9.078125 54.6875 
L 18.109375 54.6875 
L 18.109375 46.1875 
Q 20.953125 51.171875 25.484375 53.578125 
Q 30.03125 56 36.53125 56 
Q 37.453125 56 38.578125 55.875 
Q 39.703125 55.765625 41.0625 55.515625 
z
" id="DejaVuSans-114"/>
      <path d="M 45.40625 46.390625 
L 45.40625 75.984375 
L 54.390625 75.984375 
L 54.390625 0 
L 45.40625 0 
L 45.40625 8.203125 
Q 42.578125 3.328125 38.25 0.953125 
Q 33.9375 -1.421875 27.875 -1.421875 
Q 17.96875 -1.421875 11.734375 6.484375 
Q 5.515625 14.40625 5.515625 27.296875 
Q 5.515625 40.1875 11.734375 48.09375 
Q 17.96875 56 27.875 56 
Q 33.9375 56 38.25 53.625 
Q 42.578125 51.265625 45.40625 46.390625 
z
M 14.796875 27.296875 
Q 14.796875 17.390625 18.875 11.75 
Q 22.953125 6.109375 30.078125 6.109375 
Q 37.203125 6.109375 41.296875 11.75 
Q 45.40625 17.390625 45.40625 27.296875 
Q 45.40625 37.203125 41.296875 42.84375 
Q 37.203125 48.484375 30.078125 48.484375 
Q 22.953125 48.484375 18.875 42.84375 
Q 14.796875 37.203125 14.796875 27.296875 
z
" id="DejaVuSans-100"/>
      <path d="M 9.421875 54.6875 
L 18.40625 54.6875 
L 18.40625 0 
L 9.421875 0 
z
M 9.421875 75.984375 
L 18.40625 75.984375 
L 18.40625 64.59375 
L 9.421875 64.59375 
z
" id="DejaVuSans-105"/>
      <path d="M 34.28125 27.484375 
Q 23.390625 27.484375 19.1875 25 
Q 14.984375 22.515625 14.984375 16.5 
Q 14.984375 11.71875 18.140625 8.90625 
Q 21.296875 6.109375 26.703125 6.109375 
Q 34.1875 6.109375 38.703125 11.40625 
Q 43.21875 16.703125 43.21875 25.484375 
L 43.21875 27.484375 
z
M 52.203125 31.203125 
L 52.203125 0 
L 43.21875 0 
L 43.21875 8.296875 
Q 40.140625 3.328125 35.546875 0.953125 
Q 30.953125 -1.421875 24.3125 -1.421875 
Q 15.921875 -1.421875 10.953125 3.296875 
Q 6 8.015625 6 15.921875 
Q 6 25.140625 12.171875 29.828125 
Q 18.359375 34.515625 30.609375 34.515625 
L 43.21875 34.515625 
L 43.21875 35.40625 
Q 43.21875 41.609375 39.140625 45 
Q 35.0625 48.390625 27.6875 48.390625 
Q 23 48.390625 18.546875 47.265625 
Q 14.109375 46.140625 10.015625 43.890625 
L 10.015625 52.203125 
Q 14.9375 54.109375 19.578125 55.046875 
Q 24.21875 56 28.609375 56 
Q 40.484375 56 46.34375 49.84375 
Q 52.203125 43.703125 52.203125 31.203125 
z
" id="DejaVuSans-97"/>
      <path d="M 30.609375 48.390625 
Q 23.390625 48.390625 19.1875 42.75 
Q 14.984375 37.109375 14.984375 27.296875 
Q 14.984375 17.484375 19.15625 11.84375 
Q 23.34375 6.203125 30.609375 6.203125 
Q 37.796875 6.203125 41.984375 11.859375 
Q 46.1875 17.53125 46.1875 27.296875 
Q 46.1875 37.015625 41.984375 42.703125 
Q 37.796875 48.390625 30.609375 48.390625 
z
M 30.609375 56 
Q 42.328125 56 49.015625 48.375 
Q 55.71875 40.765625 55.71875 27.296875 
Q 55.71875 13.875 49.015625 6.21875 
Q 42.328125 -1.421875 30.609375 -1.421875 
Q 18.84375 -1.421875 12.171875 6.21875 
Q 5.515625 13.875 5.515625 27.296875 
Q 5.515625 40.765625 12.171875 48.375 
Q 18.84375 56 30.609375 56 
z
" id="DejaVuSans-111"/>
      <path d="M 44.28125 53.078125 
L 44.28125 44.578125 
Q 40.484375 46.53125 36.375 47.5 
Q 32.28125 48.484375 27.875 48.484375 
Q 21.1875 48.484375 17.84375 46.4375 
Q 14.5 44.390625 14.5 40.28125 
Q 14.5 37.15625 16.890625 35.375 
Q 19.28125 33.59375 26.515625 31.984375 
L 29.59375 31.296875 
Q 39.15625 29.25 43.1875 25.515625 
Q 47.21875 21.78125 47.21875 15.09375 
Q 47.21875 7.46875 41.1875 3.015625 
Q 35.15625 -1.421875 24.609375 -1.421875 
Q 20.21875 -1.421875 15.453125 -0.5625 
Q 10.6875 0.296875 5.421875 2 
L 5.421875 11.28125 
Q 10.40625 8.6875 15.234375 7.390625 
Q 20.0625 6.109375 24.8125 6.109375 
Q 31.15625 6.109375 34.5625 8.28125 
Q 37.984375 10.453125 37.984375 14.40625 
Q 37.984375 18.0625 35.515625 20.015625 
Q 33.0625 21.96875 24.703125 23.78125 
L 21.578125 24.515625 
Q 13.234375 26.265625 9.515625 29.90625 
Q 5.8125 33.546875 5.8125 39.890625 
Q 5.8125 47.609375 11.28125 51.796875 
Q 16.75 56 26.8125 56 
Q 31.78125 56 36.171875 55.265625 
Q 40.578125 54.546875 44.28125 53.078125 
z
" id="DejaVuSans-115"/>
     </defs>
     <g transform="translate(18.398438 180.11879)rotate(-90)scale(0.1 -0.1)">
      <use xlink:href="#DejaVuSans-65"/>
      <use x="68.408203" xlink:href="#DejaVuSans-82"/>
      <use x="137.890625" xlink:href="#DejaVuSans-32"/>
      <use x="169.677734" xlink:href="#DejaVuSans-112"/>
      <use x="233.154297" xlink:href="#DejaVuSans-99"/>
      <use x="288.134766" xlink:href="#DejaVuSans-114"/>
      <use x="329.248047" xlink:href="#DejaVuSans-32"/>
      <use x="361.035156" xlink:href="#DejaVuSans-100"/>
      <use x="424.511719" xlink:href="#DejaVuSans-105"/>
      <use x="452.294922" xlink:href="#DejaVuSans-97"/>
      <use x="513.574219" xlink:href="#DejaVuSans-114"/>
      <use x="554.6875" xlink:href="#DejaVuSans-105"/>
      <use x="582.470703" xlink:href="#DejaVuSans-111"/>
      <use x="643.652344" xlink:href="#DejaVuSans-115"/>
     </g>
    </g>
   </g>
   <g id="line2d_13">
    <path clip-path="url(#p3ca303888c)" d="M 67.823541 279.86258 
L 72.084755 279.86258 
L 76.345968 279.86258 
L 80.607182 279.86258 
L 84.868396 279.86258 
L 89.12961 279.86258 
L 93.390824 279.86258 
L 97.652038 279.86258 
L 101.913251 279.86258 
L 106.174465 279.86258 
L 110.435679 279.86258 
L 114.696893 279.86258 
L 118.958107 278.899234 
L 123.21932 279.86258 
L 127.480534 276.009195 
L 131.741748 279.86258 
L 136.002962 277.935887 
L 140.264176 257.705618 
L 144.525389 272.15581 
L 148.786603 273.119157 
L 153.047817 261.559003 
L 157.309031 264.449041 
L 161.570245 240.365388 
L 165.831458 254.81558 
L 170.092672 222.061811 
L 174.353886 261.559003 
L 178.6151 226.878541 
L 182.876314 203.758234 
L 187.137527 218.208426 
L 191.398741 175.821195 
L 195.659955 177.747888 
L 199.921169 164.261042 
L 204.182383 136.324003 
L 208.443596 78.523234 
L 212.70481 65.999734 
L 216.966024 35.172658 
L 221.227238 23.612504 
L 225.488452 67.926427 
L 229.749665 92.973427 
L 234.010879 68.889773 
L 238.272093 78.523234 
L 242.533307 97.790157 
L 246.794521 97.790157 
L 251.055734 131.507273 
L 255.316948 169.077772 
L 259.578162 181.601272 
L 263.839376 183.527965 
L 268.10059 148.847503 
L 272.361803 139.214042 
L 276.623017 146.920811 
L 280.884231 182.564619 
L 285.145445 167.15108 
L 289.406659 223.988503 
L 293.667872 190.271388 
L 297.929086 209.538311 
L 302.1903 204.72158 
L 306.451514 220.135118 
L 310.712728 224.951849 
L 314.973941 235.548657 
L 319.235155 250.962195 
L 323.496369 205.684926 
L 327.757583 210.501657 
L 332.018797 247.108811 
L 336.28001 226.878541 
L 340.541224 248.072157 
L 344.802438 250.962195 
L 349.063652 261.559003 
L 353.324866 243.255426 
L 357.586079 232.658618 
L 361.847293 255.778926 
L 366.108507 260.595657 
L 370.369721 252.888887 
L 374.630935 256.742272 
L 378.892148 261.559003 
L 383.153362 256.742272 
L 387.414576 253.852234 
L 391.67579 264.449041 
L 395.937004 263.485695 
L 400.198217 255.778926 
L 404.459431 260.595657 
L 408.720645 257.705618 
L 412.981859 267.33908 
" style="fill:none;stroke:#1f77b4;stroke-linecap:square;stroke-width:1.5;"/>
    <defs>
     <path d="M 0 1.5 
C 0.397805 1.5 0.77937 1.341951 1.06066 1.06066 
C 1.341951 0.77937 1.5 0.397805 1.5 0 
C 1.5 -0.397805 1.341951 -0.77937 1.06066 -1.06066 
C 0.77937 -1.341951 0.397805 -1.5 0 -1.5 
C -0.397805 -1.5 -0.77937 -1.341951 -1.06066 -1.06066 
C -1.341951 -0.77937 -1.5 -0.397805 -1.5 0 
C -1.5 0.397805 -1.341951 0.77937 -1.06066 1.06066 
C -0.77937 1.341951 -0.397805 1.5 0 1.5 
z
" id="mf0ec5542f9" style="stroke:#1f77b4;"/>
    </defs>
    <g clip-path="url(#p3ca303888c)">
     <use style="fill:#1f77b4;stroke:#1f77b4;" x="67.823541" xlink:href="#mf0ec5542f9" y="279.86258"/>
     <use style="fill:#1f77b4;stroke:#1f77b4;" x="72.084755" xlink:href="#mf0ec5542f9" y="279.86258"/>
     <use style="fill:#1f77b4;stroke:#1f77b4;" x="76.345968" xlink:href="#mf0ec5542f9" y="279.86258"/>
     <use style="fill:#1f77b4;stroke:#1f77b4;" x="80.607182" xlink:href="#mf0ec5542f9" y="279.86258"/>
     <use style="fill:#1f77b4;stroke:#1f77b4;" x="84.868396" xlink:href="#mf0ec5542f9" y="279.86258"/>
     <use style="fill:#1f77b4;stroke:#1f77b4;" x="89.12961" xlink:href="#mf0ec5542f9" y="279.86258"/>
     <use style="fill:#1f77b4;stroke:#1f77b4;" x="93.390824" xlink:href="#mf0ec5542f9" y="279.86258"/>
     <use style="fill:#1f77b4;stroke:#1f77b4;" x="97.652038" xlink:href="#mf0ec5542f9" y="279.86258"/>
     <use style="fill:#1f77b4;stroke:#1f77b4;" x="101.913251" xlink:href="#mf0ec5542f9" y="279.86258"/>
     <use style="fill:#1f77b4;stroke:#1f77b4;" x="106.174465" xlink:href="#mf0ec5542f9" y="279.86258"/>
     <use style="fill:#1f77b4;stroke:#1f77b4;" x="110.435679" xlink:href="#mf0ec5542f9" y="279.86258"/>
     <use style="fill:#1f77b4;stroke:#1f77b4;" x="114.696893" xlink:href="#mf0ec5542f9" y="279.86258"/>
     <use style="fill:#1f77b4;stroke:#1f77b4;" x="118.958107" xlink:href="#mf0ec5542f9" y="278.899234"/>
     <use style="fill:#1f77b4;stroke:#1f77b4;" x="123.21932" xlink:href="#mf0ec5542f9" y="279.86258"/>
     <use style="fill:#1f77b4;stroke:#1f77b4;" x="127.480534" xlink:href="#mf0ec5542f9" y="276.009195"/>
     <use style="fill:#1f77b4;stroke:#1f77b4;" x="131.741748" xlink:href="#mf0ec5542f9" y="279.86258"/>
     <use style="fill:#1f77b4;stroke:#1f77b4;" x="136.002962" xlink:href="#mf0ec5542f9" y="277.935887"/>
     <use style="fill:#1f77b4;stroke:#1f77b4;" x="140.264176" xlink:href="#mf0ec5542f9" y="257.705618"/>
     <use style="fill:#1f77b4;stroke:#1f77b4;" x="144.525389" xlink:href="#mf0ec5542f9" y="272.15581"/>
     <use style="fill:#1f77b4;stroke:#1f77b4;" x="148.786603" xlink:href="#mf0ec5542f9" y="273.119157"/>
     <use style="fill:#1f77b4;stroke:#1f77b4;" x="153.047817" xlink:href="#mf0ec5542f9" y="261.559003"/>
     <use style="fill:#1f77b4;stroke:#1f77b4;" x="157.309031" xlink:href="#mf0ec5542f9" y="264.449041"/>
     <use style="fill:#1f77b4;stroke:#1f77b4;" x="161.570245" xlink:href="#mf0ec5542f9" y="240.365388"/>
     <use style="fill:#1f77b4;stroke:#1f77b4;" x="165.831458" xlink:href="#mf0ec5542f9" y="254.81558"/>
     <use style="fill:#1f77b4;stroke:#1f77b4;" x="170.092672" xlink:href="#mf0ec5542f9" y="222.061811"/>
     <use style="fill:#1f77b4;stroke:#1f77b4;" x="174.353886" xlink:href="#mf0ec5542f9" y="261.559003"/>
     <use style="fill:#1f77b4;stroke:#1f77b4;" x="178.6151" xlink:href="#mf0ec5542f9" y="226.878541"/>
     <use style="fill:#1f77b4;stroke:#1f77b4;" x="182.876314" xlink:href="#mf0ec5542f9" y="203.758234"/>
     <use style="fill:#1f77b4;stroke:#1f77b4;" x="187.137527" xlink:href="#mf0ec5542f9" y="218.208426"/>
     <use style="fill:#1f77b4;stroke:#1f77b4;" x="191.398741" xlink:href="#mf0ec5542f9" y="175.821195"/>
     <use style="fill:#1f77b4;stroke:#1f77b4;" x="195.659955" xlink:href="#mf0ec5542f9" y="177.747888"/>
     <use style="fill:#1f77b4;stroke:#1f77b4;" x="199.921169" xlink:href="#mf0ec5542f9" y="164.261042"/>
     <use style="fill:#1f77b4;stroke:#1f77b4;" x="204.182383" xlink:href="#mf0ec5542f9" y="136.324003"/>
     <use style="fill:#1f77b4;stroke:#1f77b4;" x="208.443596" xlink:href="#mf0ec5542f9" y="78.523234"/>
     <use style="fill:#1f77b4;stroke:#1f77b4;" x="212.70481" xlink:href="#mf0ec5542f9" y="65.999734"/>
     <use style="fill:#1f77b4;stroke:#1f77b4;" x="216.966024" xlink:href="#mf0ec5542f9" y="35.172658"/>
     <use style="fill:#1f77b4;stroke:#1f77b4;" x="221.227238" xlink:href="#mf0ec5542f9" y="23.612504"/>
     <use style="fill:#1f77b4;stroke:#1f77b4;" x="225.488452" xlink:href="#mf0ec5542f9" y="67.926427"/>
     <use style="fill:#1f77b4;stroke:#1f77b4;" x="229.749665" xlink:href="#mf0ec5542f9" y="92.973427"/>
     <use style="fill:#1f77b4;stroke:#1f77b4;" x="234.010879" xlink:href="#mf0ec5542f9" y="68.889773"/>
     <use style="fill:#1f77b4;stroke:#1f77b4;" x="238.272093" xlink:href="#mf0ec5542f9" y="78.523234"/>
     <use style="fill:#1f77b4;stroke:#1f77b4;" x="242.533307" xlink:href="#mf0ec5542f9" y="97.790157"/>
     <use style="fill:#1f77b4;stroke:#1f77b4;" x="246.794521" xlink:href="#mf0ec5542f9" y="97.790157"/>
     <use style="fill:#1f77b4;stroke:#1f77b4;" x="251.055734" xlink:href="#mf0ec5542f9" y="131.507273"/>
     <use style="fill:#1f77b4;stroke:#1f77b4;" x="255.316948" xlink:href="#mf0ec5542f9" y="169.077772"/>
     <use style="fill:#1f77b4;stroke:#1f77b4;" x="259.578162" xlink:href="#mf0ec5542f9" y="181.601272"/>
     <use style="fill:#1f77b4;stroke:#1f77b4;" x="263.839376" xlink:href="#mf0ec5542f9" y="183.527965"/>
     <use style="fill:#1f77b4;stroke:#1f77b4;" x="268.10059" xlink:href="#mf0ec5542f9" y="148.847503"/>
     <use style="fill:#1f77b4;stroke:#1f77b4;" x="272.361803" xlink:href="#mf0ec5542f9" y="139.214042"/>
     <use style="fill:#1f77b4;stroke:#1f77b4;" x="276.623017" xlink:href="#mf0ec5542f9" y="146.920811"/>
     <use style="fill:#1f77b4;stroke:#1f77b4;" x="280.884231" xlink:href="#mf0ec5542f9" y="182.564619"/>
     <use style="fill:#1f77b4;stroke:#1f77b4;" x="285.145445" xlink:href="#mf0ec5542f9" y="167.15108"/>
     <use style="fill:#1f77b4;stroke:#1f77b4;" x="289.406659" xlink:href="#mf0ec5542f9" y="223.988503"/>
     <use style="fill:#1f77b4;stroke:#1f77b4;" x="293.667872" xlink:href="#mf0ec5542f9" y="190.271388"/>
     <use style="fill:#1f77b4;stroke:#1f77b4;" x="297.929086" xlink:href="#mf0ec5542f9" y="209.538311"/>
     <use style="fill:#1f77b4;stroke:#1f77b4;" x="302.1903" xlink:href="#mf0ec5542f9" y="204.72158"/>
     <use style="fill:#1f77b4;stroke:#1f77b4;" x="306.451514" xlink:href="#mf0ec5542f9" y="220.135118"/>
     <use style="fill:#1f77b4;stroke:#1f77b4;" x="310.712728" xlink:href="#mf0ec5542f9" y="224.951849"/>
     <use style="fill:#1f77b4;stroke:#1f77b4;" x="314.973941" xlink:href="#mf0ec5542f9" y="235.548657"/>
     <use style="fill:#1f77b4;stroke:#1f77b4;" x="319.235155" xlink:href="#mf0ec5542f9" y="250.962195"/>
     <use style="fill:#1f77b4;stroke:#1f77b4;" x="323.496369" xlink:href="#mf0ec5542f9" y="205.684926"/>
     <use style="fill:#1f77b4;stroke:#1f77b4;" x="327.757583" xlink:href="#mf0ec5542f9" y="210.501657"/>
     <use style="fill:#1f77b4;stroke:#1f77b4;" x="332.018797" xlink:href="#mf0ec5542f9" y="247.108811"/>
     <use style="fill:#1f77b4;stroke:#1f77b4;" x="336.28001" xlink:href="#mf0ec5542f9" y="226.878541"/>
     <use style="fill:#1f77b4;stroke:#1f77b4;" x="340.541224" xlink:href="#mf0ec5542f9" y="248.072157"/>
     <use style="fill:#1f77b4;stroke:#1f77b4;" x="344.802438" xlink:href="#mf0ec5542f9" y="250.962195"/>
     <use style="fill:#1f77b4;stroke:#1f77b4;" x="349.063652" xlink:href="#mf0ec5542f9" y="261.559003"/>
     <use style="fill:#1f77b4;stroke:#1f77b4;" x="353.324866" xlink:href="#mf0ec5542f9" y="243.255426"/>
     <use style="fill:#1f77b4;stroke:#1f77b4;" x="357.586079" xlink:href="#mf0ec5542f9" y="232.658618"/>
     <use style="fill:#1f77b4;stroke:#1f77b4;" x="361.847293" xlink:href="#mf0ec5542f9" y="255.778926"/>
     <use style="fill:#1f77b4;stroke:#1f77b4;" x="366.108507" xlink:href="#mf0ec5542f9" y="260.595657"/>
     <use style="fill:#1f77b4;stroke:#1f77b4;" x="370.369721" xlink:href="#mf0ec5542f9" y="252.888887"/>
     <use style="fill:#1f77b4;stroke:#1f77b4;" x="374.630935" xlink:href="#mf0ec5542f9" y="256.742272"/>
     <use style="fill:#1f77b4;stroke:#1f77b4;" x="378.892148" xlink:href="#mf0ec5542f9" y="261.559003"/>
     <use style="fill:#1f77b4;stroke:#1f77b4;" x="383.153362" xlink:href="#mf0ec5542f9" y="256.742272"/>
     <use style="fill:#1f77b4;stroke:#1f77b4;" x="387.414576" xlink:href="#mf0ec5542f9" y="253.852234"/>
     <use style="fill:#1f77b4;stroke:#1f77b4;" x="391.67579" xlink:href="#mf0ec5542f9" y="264.449041"/>
     <use style="fill:#1f77b4;stroke:#1f77b4;" x="395.937004" xlink:href="#mf0ec5542f9" y="263.485695"/>
     <use style="fill:#1f77b4;stroke:#1f77b4;" x="400.198217" xlink:href="#mf0ec5542f9" y="255.778926"/>
     <use style="fill:#1f77b4;stroke:#1f77b4;" x="404.459431" xlink:href="#mf0ec5542f9" y="260.595657"/>
     <use style="fill:#1f77b4;stroke:#1f77b4;" x="408.720645" xlink:href="#mf0ec5542f9" y="257.705618"/>
     <use style="fill:#1f77b4;stroke:#1f77b4;" x="412.981859" xlink:href="#mf0ec5542f9" y="267.33908"/>
    </g>
   </g>
   <g id="patch_3">
    <path d="M 50.565625 279.86258 
L 50.565625 10.8 
" style="fill:none;stroke:#000000;stroke-linecap:square;stroke-linejoin:miter;stroke-width:0.8;"/>
   </g>
   <g id="patch_4">
    <path d="M 430.239775 279.86258 
L 430.239775 10.8 
" style="fill:none;stroke:#000000;stroke-linecap:square;stroke-linejoin:miter;stroke-width:0.8;"/>
   </g>
   <g id="patch_5">
    <path d="M 50.565625 279.86258 
L 430.239775 279.86258 
" style="fill:none;stroke:#000000;stroke-linecap:square;stroke-linejoin:miter;stroke-width:0.8;"/>
   </g>
   <g id="patch_6">
    <path d="M 50.565625 10.8 
L 430.239775 10.8 
" style="fill:none;stroke:#000000;stroke-linecap:square;stroke-linejoin:miter;stroke-width:0.8;"/>
   </g>
  </g>
 </g>
 <defs>
  <clipPath id="p3ca303888c">
   <rect height="269.06258" width="379.67415" x="50.565625" y="10.8"/>
  </clipPath>
 </defs>
</svg>
