<?xml version="1.0" encoding="utf-8" standalone="no"?>
<!DOCTYPE svg PUBLIC "-//W3C//DTD SVG 1.1//EN"
  "http://www.w3.org/Graphics/SVG/1.1/DTD/svg11.dtd">
<!-- Created with matplotlib (https://matplotlib.org/) -->
<svg height="345.6pt" version="1.1" viewBox="0 0 460.8 345.6" width="460.8pt" xmlns="http://www.w3.org/2000/svg" xmlns:xlink="http://www.w3.org/1999/xlink">
 <defs>
  <style type="text/css">
*{stroke-linecap:butt;stroke-linejoin:round;}
  </style>
 </defs>
 <g id="figure_1">
  <g id="patch_1">
   <path d="M 0 345.6 
L 460.8 345.6 
L 460.8 0 
L 0 0 
z
" style="fill:#ffffff;"/>
  </g>
  <g id="axes_1">
   <g id="patch_2">
    <path d="M 50.565625 279.86258 
L 430.239775 279.86258 
L 430.239775 10.8 
L 50.565625 10.8 
z
" style="fill:#ffffff;"/>
   </g>
   <g id="matplotlib.axis_1">
    <g id="xtick_1">
     <g id="line2d_1">
      <defs>
       <path d="M 0 0 
L 0 3.5 
" id="m0a72e9414d" style="stroke:#000000;stroke-width:0.8;"/>
      </defs>
      <g>
       <use style="stroke:#000000;stroke-width:0.8;" x="106.174465" xlink:href="#m0a72e9414d" y="279.86258"/>
      </g>
     </g>
     <g id="text_1">
      <!-- 2020-03-01 -->
      <defs>
       <path d="M 19.1875 8.296875 
L 53.609375 8.296875 
L 53.609375 0 
L 7.328125 0 
L 7.328125 8.296875 
Q 12.9375 14.109375 22.625 23.890625 
Q 32.328125 33.6875 34.8125 36.53125 
Q 39.546875 41.84375 41.421875 45.53125 
Q 43.3125 49.21875 43.3125 52.78125 
Q 43.3125 58.59375 39.234375 62.25 
Q 35.15625 65.921875 28.609375 65.921875 
Q 23.96875 65.921875 18.8125 64.3125 
Q 13.671875 62.703125 7.8125 59.421875 
L 7.8125 69.390625 
Q 13.765625 71.78125 18.9375 73 
Q 24.125 74.21875 28.421875 74.21875 
Q 39.75 74.21875 46.484375 68.546875 
Q 53.21875 62.890625 53.21875 53.421875 
Q 53.21875 48.921875 51.53125 44.890625 
Q 49.859375 40.875 45.40625 35.40625 
Q 44.1875 33.984375 37.640625 27.21875 
Q 31.109375 20.453125 19.1875 8.296875 
z
" id="DejaVuSans-50"/>
       <path d="M 31.78125 66.40625 
Q 24.171875 66.40625 20.328125 58.90625 
Q 16.5 51.421875 16.5 36.375 
Q 16.5 21.390625 20.328125 13.890625 
Q 24.171875 6.390625 31.78125 6.390625 
Q 39.453125 6.390625 43.28125 13.890625 
Q 47.125 21.390625 47.125 36.375 
Q 47.125 51.421875 43.28125 58.90625 
Q 39.453125 66.40625 31.78125 66.40625 
z
M 31.78125 74.21875 
Q 44.046875 74.21875 50.515625 64.515625 
Q 56.984375 54.828125 56.984375 36.375 
Q 56.984375 17.96875 50.515625 8.265625 
Q 44.046875 -1.421875 31.78125 -1.421875 
Q 19.53125 -1.421875 13.0625 8.265625 
Q 6.59375 17.96875 6.59375 36.375 
Q 6.59375 54.828125 13.0625 64.515625 
Q 19.53125 74.21875 31.78125 74.21875 
z
" id="DejaVuSans-48"/>
       <path d="M 4.890625 31.390625 
L 31.203125 31.390625 
L 31.203125 23.390625 
L 4.890625 23.390625 
z
" id="DejaVuSans-45"/>
       <path d="M 40.578125 39.3125 
Q 47.65625 37.796875 51.625 33 
Q 55.609375 28.21875 55.609375 21.1875 
Q 55.609375 10.40625 48.1875 4.484375 
Q 40.765625 -1.421875 27.09375 -1.421875 
Q 22.515625 -1.421875 17.65625 -0.515625 
Q 12.796875 0.390625 7.625 2.203125 
L 7.625 11.71875 
Q 11.71875 9.328125 16.59375 8.109375 
Q 21.484375 6.890625 26.8125 6.890625 
Q 36.078125 6.890625 40.9375 10.546875 
Q 45.796875 14.203125 45.796875 21.1875 
Q 45.796875 27.640625 41.28125 31.265625 
Q 36.765625 34.90625 28.71875 34.90625 
L 20.21875 34.90625 
L 20.21875 43.015625 
L 29.109375 43.015625 
Q 36.375 43.015625 40.234375 45.921875 
Q 44.09375 48.828125 44.09375 54.296875 
Q 44.09375 59.90625 40.109375 62.90625 
Q 36.140625 65.921875 28.71875 65.921875 
Q 24.65625 65.921875 20.015625 65.03125 
Q 15.375 64.15625 9.8125 62.3125 
L 9.8125 71.09375 
Q 15.4375 72.65625 20.34375 73.4375 
Q 25.25 74.21875 29.59375 74.21875 
Q 40.828125 74.21875 47.359375 69.109375 
Q 53.90625 64.015625 53.90625 55.328125 
Q 53.90625 49.265625 50.4375 45.09375 
Q 46.96875 40.921875 40.578125 39.3125 
z
" id="DejaVuSans-51"/>
       <path d="M 12.40625 8.296875 
L 28.515625 8.296875 
L 28.515625 63.921875 
L 10.984375 60.40625 
L 10.984375 69.390625 
L 28.421875 72.90625 
L 38.28125 72.90625 
L 38.28125 8.296875 
L 54.390625 8.296875 
L 54.390625 0 
L 12.40625 0 
z
" id="DejaVuSans-49"/>
      </defs>
      <g transform="translate(87.578662 333.329439)rotate(-45)scale(0.1 -0.1)">
       <use xlink:href="#DejaVuSans-50"/>
       <use x="63.623047" xlink:href="#DejaVuSans-48"/>
       <use x="127.246094" xlink:href="#DejaVuSans-50"/>
       <use x="190.869141" xlink:href="#DejaVuSans-48"/>
       <use x="254.492188" xlink:href="#DejaVuSans-45"/>
       <use x="290.576172" xlink:href="#DejaVuSans-48"/>
       <use x="354.199219" xlink:href="#DejaVuSans-51"/>
       <use x="417.822266" xlink:href="#DejaVuSans-45"/>
       <use x="453.90625" xlink:href="#DejaVuSans-48"/>
       <use x="517.529297" xlink:href="#DejaVuSans-49"/>
      </g>
     </g>
    </g>
    <g id="xtick_2">
     <g id="line2d_2">
      <g>
       <use style="stroke:#000000;stroke-width:0.8;" x="165.831458" xlink:href="#m0a72e9414d" y="279.86258"/>
      </g>
     </g>
     <g id="text_2">
      <!-- 2020-03-15 -->
      <defs>
       <path d="M 10.796875 72.90625 
L 49.515625 72.90625 
L 49.515625 64.59375 
L 19.828125 64.59375 
L 19.828125 46.734375 
Q 21.96875 47.46875 24.109375 47.828125 
Q 26.265625 48.1875 28.421875 48.1875 
Q 40.625 48.1875 47.75 41.5 
Q 54.890625 34.8125 54.890625 23.390625 
Q 54.890625 11.625 47.5625 5.09375 
Q 40.234375 -1.421875 26.90625 -1.421875 
Q 22.3125 -1.421875 17.546875 -0.640625 
Q 12.796875 0.140625 7.71875 1.703125 
L 7.71875 11.625 
Q 12.109375 9.234375 16.796875 8.0625 
Q 21.484375 6.890625 26.703125 6.890625 
Q 35.15625 6.890625 40.078125 11.328125 
Q 45.015625 15.765625 45.015625 23.390625 
Q 45.015625 31 40.078125 35.4375 
Q 35.15625 39.890625 26.703125 39.890625 
Q 22.75 39.890625 18.8125 39.015625 
Q 14.890625 38.140625 10.796875 36.28125 
z
" id="DejaVuSans-53"/>
      </defs>
      <g transform="translate(147.235655 333.329439)rotate(-45)scale(0.1 -0.1)">
       <use xlink:href="#DejaVuSans-50"/>
       <use x="63.623047" xlink:href="#DejaVuSans-48"/>
       <use x="127.246094" xlink:href="#DejaVuSans-50"/>
       <use x="190.869141" xlink:href="#DejaVuSans-48"/>
       <use x="254.492188" xlink:href="#DejaVuSans-45"/>
       <use x="290.576172" xlink:href="#DejaVuSans-48"/>
       <use x="354.199219" xlink:href="#DejaVuSans-51"/>
       <use x="417.822266" xlink:href="#DejaVuSans-45"/>
       <use x="453.90625" xlink:href="#DejaVuSans-49"/>
       <use x="517.529297" xlink:href="#DejaVuSans-53"/>
      </g>
     </g>
    </g>
    <g id="xtick_3">
     <g id="line2d_3">
      <g>
       <use style="stroke:#000000;stroke-width:0.8;" x="238.272093" xlink:href="#m0a72e9414d" y="279.86258"/>
      </g>
     </g>
     <g id="text_3">
      <!-- 2020-04-01 -->
      <defs>
       <path d="M 37.796875 64.3125 
L 12.890625 25.390625 
L 37.796875 25.390625 
z
M 35.203125 72.90625 
L 47.609375 72.90625 
L 47.609375 25.390625 
L 58.015625 25.390625 
L 58.015625 17.1875 
L 47.609375 17.1875 
L 47.609375 0 
L 37.796875 0 
L 37.796875 17.1875 
L 4.890625 17.1875 
L 4.890625 26.703125 
z
" id="DejaVuSans-52"/>
      </defs>
      <g transform="translate(219.676289 333.329439)rotate(-45)scale(0.1 -0.1)">
       <use xlink:href="#DejaVuSans-50"/>
       <use x="63.623047" xlink:href="#DejaVuSans-48"/>
       <use x="127.246094" xlink:href="#DejaVuSans-50"/>
       <use x="190.869141" xlink:href="#DejaVuSans-48"/>
       <use x="254.492188" xlink:href="#DejaVuSans-45"/>
       <use x="290.576172" xlink:href="#DejaVuSans-48"/>
       <use x="354.199219" xlink:href="#DejaVuSans-52"/>
       <use x="417.822266" xlink:href="#DejaVuSans-45"/>
       <use x="453.90625" xlink:href="#DejaVuSans-48"/>
       <use x="517.529297" xlink:href="#DejaVuSans-49"/>
      </g>
     </g>
    </g>
    <g id="xtick_4">
     <g id="line2d_4">
      <g>
       <use style="stroke:#000000;stroke-width:0.8;" x="297.929086" xlink:href="#m0a72e9414d" y="279.86258"/>
      </g>
     </g>
     <g id="text_4">
      <!-- 2020-04-15 -->
      <g transform="translate(279.333283 333.329439)rotate(-45)scale(0.1 -0.1)">
       <use xlink:href="#DejaVuSans-50"/>
       <use x="63.623047" xlink:href="#DejaVuSans-48"/>
       <use x="127.246094" xlink:href="#DejaVuSans-50"/>
       <use x="190.869141" xlink:href="#DejaVuSans-48"/>
       <use x="254.492188" xlink:href="#DejaVuSans-45"/>
       <use x="290.576172" xlink:href="#DejaVuSans-48"/>
       <use x="354.199219" xlink:href="#DejaVuSans-52"/>
       <use x="417.822266" xlink:href="#DejaVuSans-45"/>
       <use x="453.90625" xlink:href="#DejaVuSans-49"/>
       <use x="517.529297" xlink:href="#DejaVuSans-53"/>
      </g>
     </g>
    </g>
    <g id="xtick_5">
     <g id="line2d_5">
      <g>
       <use style="stroke:#000000;stroke-width:0.8;" x="366.108507" xlink:href="#m0a72e9414d" y="279.86258"/>
      </g>
     </g>
     <g id="text_5">
      <!-- 2020-05-01 -->
      <g transform="translate(347.512703 333.329439)rotate(-45)scale(0.1 -0.1)">
       <use xlink:href="#DejaVuSans-50"/>
       <use x="63.623047" xlink:href="#DejaVuSans-48"/>
       <use x="127.246094" xlink:href="#DejaVuSans-50"/>
       <use x="190.869141" xlink:href="#DejaVuSans-48"/>
       <use x="254.492188" xlink:href="#DejaVuSans-45"/>
       <use x="290.576172" xlink:href="#DejaVuSans-48"/>
       <use x="354.199219" xlink:href="#DejaVuSans-53"/>
       <use x="417.822266" xlink:href="#DejaVuSans-45"/>
       <use x="453.90625" xlink:href="#DejaVuSans-48"/>
       <use x="517.529297" xlink:href="#DejaVuSans-49"/>
      </g>
     </g>
    </g>
    <g id="xtick_6">
     <g id="line2d_6">
      <g>
       <use style="stroke:#000000;stroke-width:0.8;" x="425.7655" xlink:href="#m0a72e9414d" y="279.86258"/>
      </g>
     </g>
     <g id="text_6">
      <!-- 2020-05-15 -->
      <g transform="translate(407.169697 333.329439)rotate(-45)scale(0.1 -0.1)">
       <use xlink:href="#DejaVuSans-50"/>
       <use x="63.623047" xlink:href="#DejaVuSans-48"/>
       <use x="127.246094" xlink:href="#DejaVuSans-50"/>
       <use x="190.869141" xlink:href="#DejaVuSans-48"/>
       <use x="254.492188" xlink:href="#DejaVuSans-45"/>
       <use x="290.576172" xlink:href="#DejaVuSans-48"/>
       <use x="354.199219" xlink:href="#DejaVuSans-53"/>
       <use x="417.822266" xlink:href="#DejaVuSans-45"/>
       <use x="453.90625" xlink:href="#DejaVuSans-49"/>
       <use x="517.529297" xlink:href="#DejaVuSans-53"/>
      </g>
     </g>
    </g>
   </g>
   <g id="matplotlib.axis_2">
    <g id="ytick_1">
     <g id="line2d_7">
      <defs>
       <path d="M 0 0 
L -3.5 0 
" id="mdf6ca6aa2c" style="stroke:#000000;stroke-width:0.8;"/>
      </defs>
      <g>
       <use style="stroke:#000000;stroke-width:0.8;" x="50.565625" xlink:href="#mdf6ca6aa2c" y="279.86258"/>
      </g>
     </g>
     <g id="text_7">
      <!-- 0 -->
      <g transform="translate(37.203125 283.661798)scale(0.1 -0.1)">
       <use xlink:href="#DejaVuSans-48"/>
      </g>
     </g>
    </g>
    <g id="ytick_2">
     <g id="line2d_8">
      <g>
       <use style="stroke:#000000;stroke-width:0.8;" x="50.565625" xlink:href="#mdf6ca6aa2c" y="238.202352"/>
      </g>
     </g>
     <g id="text_8">
      <!-- 100 -->
      <g transform="translate(24.478125 242.001571)scale(0.1 -0.1)">
       <use xlink:href="#DejaVuSans-49"/>
       <use x="63.623047" xlink:href="#DejaVuSans-48"/>
       <use x="127.246094" xlink:href="#DejaVuSans-48"/>
      </g>
     </g>
    </g>
    <g id="ytick_3">
     <g id="line2d_9">
      <g>
       <use style="stroke:#000000;stroke-width:0.8;" x="50.565625" xlink:href="#mdf6ca6aa2c" y="196.542125"/>
      </g>
     </g>
     <g id="text_9">
      <!-- 200 -->
      <g transform="translate(24.478125 200.341343)scale(0.1 -0.1)">
       <use xlink:href="#DejaVuSans-50"/>
       <use x="63.623047" xlink:href="#DejaVuSans-48"/>
       <use x="127.246094" xlink:href="#DejaVuSans-48"/>
      </g>
     </g>
    </g>
    <g id="ytick_4">
     <g id="line2d_10">
      <g>
       <use style="stroke:#000000;stroke-width:0.8;" x="50.565625" xlink:href="#mdf6ca6aa2c" y="154.881897"/>
      </g>
     </g>
     <g id="text_10">
      <!-- 300 -->
      <g transform="translate(24.478125 158.681116)scale(0.1 -0.1)">
       <use xlink:href="#DejaVuSans-51"/>
       <use x="63.623047" xlink:href="#DejaVuSans-48"/>
       <use x="127.246094" xlink:href="#DejaVuSans-48"/>
      </g>
     </g>
    </g>
    <g id="ytick_5">
     <g id="line2d_11">
      <g>
       <use style="stroke:#000000;stroke-width:0.8;" x="50.565625" xlink:href="#mdf6ca6aa2c" y="113.221669"/>
      </g>
     </g>
     <g id="text_11">
      <!-- 400 -->
      <g transform="translate(24.478125 117.020888)scale(0.1 -0.1)">
       <use xlink:href="#DejaVuSans-52"/>
       <use x="63.623047" xlink:href="#DejaVuSans-48"/>
       <use x="127.246094" xlink:href="#DejaVuSans-48"/>
      </g>
     </g>
    </g>
    <g id="ytick_6">
     <g id="line2d_12">
      <g>
       <use style="stroke:#000000;stroke-width:0.8;" x="50.565625" xlink:href="#mdf6ca6aa2c" y="71.561442"/>
      </g>
     </g>
     <g id="text_12">
      <!-- 500 -->
      <g transform="translate(24.478125 75.360661)scale(0.1 -0.1)">
       <use xlink:href="#DejaVuSans-53"/>
       <use x="63.623047" xlink:href="#DejaVuSans-48"/>
       <use x="127.246094" xlink:href="#DejaVuSans-48"/>
      </g>
     </g>
    </g>
    <g id="ytick_7">
     <g id="line2d_13">
      <g>
       <use style="stroke:#000000;stroke-width:0.8;" x="50.565625" xlink:href="#mdf6ca6aa2c" y="29.901214"/>
      </g>
     </g>
     <g id="text_13">
      <!-- 600 -->
      <defs>
       <path d="M 33.015625 40.375 
Q 26.375 40.375 22.484375 35.828125 
Q 18.609375 31.296875 18.609375 23.390625 
Q 18.609375 15.53125 22.484375 10.953125 
Q 26.375 6.390625 33.015625 6.390625 
Q 39.65625 6.390625 43.53125 10.953125 
Q 47.40625 15.53125 47.40625 23.390625 
Q 47.40625 31.296875 43.53125 35.828125 
Q 39.65625 40.375 33.015625 40.375 
z
M 52.59375 71.296875 
L 52.59375 62.3125 
Q 48.875 64.0625 45.09375 64.984375 
Q 41.3125 65.921875 37.59375 65.921875 
Q 27.828125 65.921875 22.671875 59.328125 
Q 17.53125 52.734375 16.796875 39.40625 
Q 19.671875 43.65625 24.015625 45.921875 
Q 28.375 48.1875 33.59375 48.1875 
Q 44.578125 48.1875 50.953125 41.515625 
Q 57.328125 34.859375 57.328125 23.390625 
Q 57.328125 12.15625 50.6875 5.359375 
Q 44.046875 -1.421875 33.015625 -1.421875 
Q 20.359375 -1.421875 13.671875 8.265625 
Q 6.984375 17.96875 6.984375 36.375 
Q 6.984375 53.65625 15.1875 63.9375 
Q 23.390625 74.21875 37.203125 74.21875 
Q 40.921875 74.21875 44.703125 73.484375 
Q 48.484375 72.75 52.59375 71.296875 
z
" id="DejaVuSans-54"/>
      </defs>
      <g transform="translate(24.478125 33.700433)scale(0.1 -0.1)">
       <use xlink:href="#DejaVuSans-54"/>
       <use x="63.623047" xlink:href="#DejaVuSans-48"/>
       <use x="127.246094" xlink:href="#DejaVuSans-48"/>
      </g>
     </g>
    </g>
    <g id="text_14">
     <!-- GA pcr diarios -->
     <defs>
      <path d="M 59.515625 10.40625 
L 59.515625 29.984375 
L 43.40625 29.984375 
L 43.40625 38.09375 
L 69.28125 38.09375 
L 69.28125 6.78125 
Q 63.578125 2.734375 56.6875 0.65625 
Q 49.8125 -1.421875 42 -1.421875 
Q 24.90625 -1.421875 15.25 8.5625 
Q 5.609375 18.5625 5.609375 36.375 
Q 5.609375 54.25 15.25 64.234375 
Q 24.90625 74.21875 42 74.21875 
Q 49.125 74.21875 55.546875 72.453125 
Q 61.96875 70.703125 67.390625 67.28125 
L 67.390625 56.78125 
Q 61.921875 61.421875 55.765625 63.765625 
Q 49.609375 66.109375 42.828125 66.109375 
Q 29.4375 66.109375 22.71875 58.640625 
Q 16.015625 51.171875 16.015625 36.375 
Q 16.015625 21.625 22.71875 14.15625 
Q 29.4375 6.6875 42.828125 6.6875 
Q 48.046875 6.6875 52.140625 7.59375 
Q 56.25 8.5 59.515625 10.40625 
z
" id="DejaVuSans-71"/>
      <path d="M 34.1875 63.1875 
L 20.796875 26.90625 
L 47.609375 26.90625 
z
M 28.609375 72.90625 
L 39.796875 72.90625 
L 67.578125 0 
L 57.328125 0 
L 50.6875 18.703125 
L 17.828125 18.703125 
L 11.1875 0 
L 0.78125 0 
z
" id="DejaVuSans-65"/>
      <path id="DejaVuSans-32"/>
      <path d="M 18.109375 8.203125 
L 18.109375 -20.796875 
L 9.078125 -20.796875 
L 9.078125 54.6875 
L 18.109375 54.6875 
L 18.109375 46.390625 
Q 20.953125 51.265625 25.265625 53.625 
Q 29.59375 56 35.59375 56 
Q 45.5625 56 51.78125 48.09375 
Q 58.015625 40.1875 58.015625 27.296875 
Q 58.015625 14.40625 51.78125 6.484375 
Q 45.5625 -1.421875 35.59375 -1.421875 
Q 29.59375 -1.421875 25.265625 0.953125 
Q 20.953125 3.328125 18.109375 8.203125 
z
M 48.6875 27.296875 
Q 48.6875 37.203125 44.609375 42.84375 
Q 40.53125 48.484375 33.40625 48.484375 
Q 26.265625 48.484375 22.1875 42.84375 
Q 18.109375 37.203125 18.109375 27.296875 
Q 18.109375 17.390625 22.1875 11.75 
Q 26.265625 6.109375 33.40625 6.109375 
Q 40.53125 6.109375 44.609375 11.75 
Q 48.6875 17.390625 48.6875 27.296875 
z
" id="DejaVuSans-112"/>
      <path d="M 48.78125 52.59375 
L 48.78125 44.1875 
Q 44.96875 46.296875 41.140625 47.34375 
Q 37.3125 48.390625 33.40625 48.390625 
Q 24.65625 48.390625 19.8125 42.84375 
Q 14.984375 37.3125 14.984375 27.296875 
Q 14.984375 17.28125 19.8125 11.734375 
Q 24.65625 6.203125 33.40625 6.203125 
Q 37.3125 6.203125 41.140625 7.25 
Q 44.96875 8.296875 48.78125 10.40625 
L 48.78125 2.09375 
Q 45.015625 0.34375 40.984375 -0.53125 
Q 36.96875 -1.421875 32.421875 -1.421875 
Q 20.0625 -1.421875 12.78125 6.34375 
Q 5.515625 14.109375 5.515625 27.296875 
Q 5.515625 40.671875 12.859375 48.328125 
Q 20.21875 56 33.015625 56 
Q 37.15625 56 41.109375 55.140625 
Q 45.0625 54.296875 48.78125 52.59375 
z
" id="DejaVuSans-99"/>
      <path d="M 41.109375 46.296875 
Q 39.59375 47.171875 37.8125 47.578125 
Q 36.03125 48 33.890625 48 
Q 26.265625 48 22.1875 43.046875 
Q 18.109375 38.09375 18.109375 28.8125 
L 18.109375 0 
L 9.078125 0 
L 9.078125 54.6875 
L 18.109375 54.6875 
L 18.109375 46.1875 
Q 20.953125 51.171875 25.484375 53.578125 
Q 30.03125 56 36.53125 56 
Q 37.453125 56 38.578125 55.875 
Q 39.703125 55.765625 41.0625 55.515625 
z
" id="DejaVuSans-114"/>
      <path d="M 45.40625 46.390625 
L 45.40625 75.984375 
L 54.390625 75.984375 
L 54.390625 0 
L 45.40625 0 
L 45.40625 8.203125 
Q 42.578125 3.328125 38.25 0.953125 
Q 33.9375 -1.421875 27.875 -1.421875 
Q 17.96875 -1.421875 11.734375 6.484375 
Q 5.515625 14.40625 5.515625 27.296875 
Q 5.515625 40.1875 11.734375 48.09375 
Q 17.96875 56 27.875 56 
Q 33.9375 56 38.25 53.625 
Q 42.578125 51.265625 45.40625 46.390625 
z
M 14.796875 27.296875 
Q 14.796875 17.390625 18.875 11.75 
Q 22.953125 6.109375 30.078125 6.109375 
Q 37.203125 6.109375 41.296875 11.75 
Q 45.40625 17.390625 45.40625 27.296875 
Q 45.40625 37.203125 41.296875 42.84375 
Q 37.203125 48.484375 30.078125 48.484375 
Q 22.953125 48.484375 18.875 42.84375 
Q 14.796875 37.203125 14.796875 27.296875 
z
" id="DejaVuSans-100"/>
      <path d="M 9.421875 54.6875 
L 18.40625 54.6875 
L 18.40625 0 
L 9.421875 0 
z
M 9.421875 75.984375 
L 18.40625 75.984375 
L 18.40625 64.59375 
L 9.421875 64.59375 
z
" id="DejaVuSans-105"/>
      <path d="M 34.28125 27.484375 
Q 23.390625 27.484375 19.1875 25 
Q 14.984375 22.515625 14.984375 16.5 
Q 14.984375 11.71875 18.140625 8.90625 
Q 21.296875 6.109375 26.703125 6.109375 
Q 34.1875 6.109375 38.703125 11.40625 
Q 43.21875 16.703125 43.21875 25.484375 
L 43.21875 27.484375 
z
M 52.203125 31.203125 
L 52.203125 0 
L 43.21875 0 
L 43.21875 8.296875 
Q 40.140625 3.328125 35.546875 0.953125 
Q 30.953125 -1.421875 24.3125 -1.421875 
Q 15.921875 -1.421875 10.953125 3.296875 
Q 6 8.015625 6 15.921875 
Q 6 25.140625 12.171875 29.828125 
Q 18.359375 34.515625 30.609375 34.515625 
L 43.21875 34.515625 
L 43.21875 35.40625 
Q 43.21875 41.609375 39.140625 45 
Q 35.0625 48.390625 27.6875 48.390625 
Q 23 48.390625 18.546875 47.265625 
Q 14.109375 46.140625 10.015625 43.890625 
L 10.015625 52.203125 
Q 14.9375 54.109375 19.578125 55.046875 
Q 24.21875 56 28.609375 56 
Q 40.484375 56 46.34375 49.84375 
Q 52.203125 43.703125 52.203125 31.203125 
z
" id="DejaVuSans-97"/>
      <path d="M 30.609375 48.390625 
Q 23.390625 48.390625 19.1875 42.75 
Q 14.984375 37.109375 14.984375 27.296875 
Q 14.984375 17.484375 19.15625 11.84375 
Q 23.34375 6.203125 30.609375 6.203125 
Q 37.796875 6.203125 41.984375 11.859375 
Q 46.1875 17.53125 46.1875 27.296875 
Q 46.1875 37.015625 41.984375 42.703125 
Q 37.796875 48.390625 30.609375 48.390625 
z
M 30.609375 56 
Q 42.328125 56 49.015625 48.375 
Q 55.71875 40.765625 55.71875 27.296875 
Q 55.71875 13.875 49.015625 6.21875 
Q 42.328125 -1.421875 30.609375 -1.421875 
Q 18.84375 -1.421875 12.171875 6.21875 
Q 5.515625 13.875 5.515625 27.296875 
Q 5.515625 40.765625 12.171875 48.375 
Q 18.84375 56 30.609375 56 
z
" id="DejaVuSans-111"/>
      <path d="M 44.28125 53.078125 
L 44.28125 44.578125 
Q 40.484375 46.53125 36.375 47.5 
Q 32.28125 48.484375 27.875 48.484375 
Q 21.1875 48.484375 17.84375 46.4375 
Q 14.5 44.390625 14.5 40.28125 
Q 14.5 37.15625 16.890625 35.375 
Q 19.28125 33.59375 26.515625 31.984375 
L 29.59375 31.296875 
Q 39.15625 29.25 43.1875 25.515625 
Q 47.21875 21.78125 47.21875 15.09375 
Q 47.21875 7.46875 41.1875 3.015625 
Q 35.15625 -1.421875 24.609375 -1.421875 
Q 20.21875 -1.421875 15.453125 -0.5625 
Q 10.6875 0.296875 5.421875 2 
L 5.421875 11.28125 
Q 10.40625 8.6875 15.234375 7.390625 
Q 20.0625 6.109375 24.8125 6.109375 
Q 31.15625 6.109375 34.5625 8.28125 
Q 37.984375 10.453125 37.984375 14.40625 
Q 37.984375 18.0625 35.515625 20.015625 
Q 33.0625 21.96875 24.703125 23.78125 
L 21.578125 24.515625 
Q 13.234375 26.265625 9.515625 29.90625 
Q 5.8125 33.546875 5.8125 39.890625 
Q 5.8125 47.609375 11.28125 51.796875 
Q 16.75 56 26.8125 56 
Q 31.78125 56 36.171875 55.265625 
Q 40.578125 54.546875 44.28125 53.078125 
z
" id="DejaVuSans-115"/>
     </defs>
     <g transform="translate(18.398438 180.51879)rotate(-90)scale(0.1 -0.1)">
      <use xlink:href="#DejaVuSans-71"/>
      <use x="77.490234" xlink:href="#DejaVuSans-65"/>
      <use x="145.898438" xlink:href="#DejaVuSans-32"/>
      <use x="177.685547" xlink:href="#DejaVuSans-112"/>
      <use x="241.162109" xlink:href="#DejaVuSans-99"/>
      <use x="296.142578" xlink:href="#DejaVuSans-114"/>
      <use x="337.255859" xlink:href="#DejaVuSans-32"/>
      <use x="369.042969" xlink:href="#DejaVuSans-100"/>
      <use x="432.519531" xlink:href="#DejaVuSans-105"/>
      <use x="460.302734" xlink:href="#DejaVuSans-97"/>
      <use x="521.582031" xlink:href="#DejaVuSans-114"/>
      <use x="562.695312" xlink:href="#DejaVuSans-105"/>
      <use x="590.478516" xlink:href="#DejaVuSans-111"/>
      <use x="651.660156" xlink:href="#DejaVuSans-115"/>
     </g>
    </g>
   </g>
   <g id="line2d_14">
    <path clip-path="url(#pc5bd301e87)" d="M 67.823541 279.86258 
L 72.084755 279.86258 
L 76.345968 279.86258 
L 80.607182 279.86258 
L 84.868396 279.86258 
L 89.12961 279.86258 
L 93.390824 279.86258 
L 97.652038 279.86258 
L 101.913251 279.86258 
L 106.174465 279.86258 
L 110.435679 279.86258 
L 114.696893 279.445977 
L 118.958107 279.86258 
L 123.21932 279.029375 
L 127.480534 279.86258 
L 131.741748 279.029375 
L 136.002962 279.445977 
L 140.264176 273.196943 
L 144.525389 274.44675 
L 148.786603 279.86258 
L 153.047817 259.032466 
L 157.309031 267.364511 
L 161.570245 246.534398 
L 165.831458 259.032466 
L 170.092672 260.282273 
L 174.353886 259.449068 
L 178.6151 233.203125 
L 182.876314 227.787295 
L 187.137527 212.789613 
L 191.398741 206.540579 
L 195.659955 157.798113 
L 199.921169 193.625909 
L 204.182383 180.711238 
L 208.443596 170.712783 
L 212.70481 110.305454 
L 216.966024 92.391556 
L 221.227238 126.969545 
L 225.488452 36.566851 
L 229.749665 148.216261 
L 234.010879 116.137885 
L 238.272093 109.055647 
L 242.533307 122.803522 
L 246.794521 110.722056 
L 251.055734 146.966454 
L 255.316948 193.625909 
L 259.578162 204.87417 
L 263.839376 193.625909 
L 268.10059 188.210079 
L 272.361803 201.541352 
L 276.623017 184.044056 
L 280.884231 213.206216 
L 285.145445 214.03942 
L 289.406659 236.952545 
L 293.667872 233.619727 
L 297.929086 211.123204 
L 302.1903 221.538261 
L 306.451514 250.283818 
L 310.712728 237.78575 
L 314.973941 232.36992 
L 319.235155 209.456795 
L 323.496369 210.706602 
L 327.757583 208.623591 
L 332.018797 226.954091 
L 336.28001 203.207761 
L 340.541224 254.866443 
L 344.802438 254.033239 
L 349.063652 242.368375 
L 350.498554 346.6 
M 356.435902 346.6 
L 357.586079 270.69733 
L 361.847293 216.955636 
L 366.108507 257.366057 
L 370.369721 252.783432 
L 374.630935 261.53208 
L 378.892148 263.198489 
L 383.153362 260.698875 
L 387.414576 264.448295 
L 391.67579 259.032466 
L 395.937004 266.531307 
L 400.198217 264.448295 
L 404.459431 268.614318 
L 408.720645 275.279955 
L 412.981859 275.696557 
" style="fill:none;stroke:#1f77b4;stroke-linecap:square;stroke-width:1.5;"/>
    <defs>
     <path d="M 0 1.5 
C 0.397805 1.5 0.77937 1.341951 1.06066 1.06066 
C 1.341951 0.77937 1.5 0.397805 1.5 0 
C 1.5 -0.397805 1.341951 -0.77937 1.06066 -1.06066 
C 0.77937 -1.341951 0.397805 -1.5 0 -1.5 
C -0.397805 -1.5 -0.77937 -1.341951 -1.06066 -1.06066 
C -1.341951 -0.77937 -1.5 -0.397805 -1.5 0 
C -1.5 0.397805 -1.341951 0.77937 -1.06066 1.06066 
C -0.77937 1.341951 -0.397805 1.5 0 1.5 
z
" id="m84dea30ff9" style="stroke:#1f77b4;"/>
    </defs>
    <g clip-path="url(#pc5bd301e87)">
     <use style="fill:#1f77b4;stroke:#1f77b4;" x="67.823541" xlink:href="#m84dea30ff9" y="279.86258"/>
     <use style="fill:#1f77b4;stroke:#1f77b4;" x="72.084755" xlink:href="#m84dea30ff9" y="279.86258"/>
     <use style="fill:#1f77b4;stroke:#1f77b4;" x="76.345968" xlink:href="#m84dea30ff9" y="279.86258"/>
     <use style="fill:#1f77b4;stroke:#1f77b4;" x="80.607182" xlink:href="#m84dea30ff9" y="279.86258"/>
     <use style="fill:#1f77b4;stroke:#1f77b4;" x="84.868396" xlink:href="#m84dea30ff9" y="279.86258"/>
     <use style="fill:#1f77b4;stroke:#1f77b4;" x="89.12961" xlink:href="#m84dea30ff9" y="279.86258"/>
     <use style="fill:#1f77b4;stroke:#1f77b4;" x="93.390824" xlink:href="#m84dea30ff9" y="279.86258"/>
     <use style="fill:#1f77b4;stroke:#1f77b4;" x="97.652038" xlink:href="#m84dea30ff9" y="279.86258"/>
     <use style="fill:#1f77b4;stroke:#1f77b4;" x="101.913251" xlink:href="#m84dea30ff9" y="279.86258"/>
     <use style="fill:#1f77b4;stroke:#1f77b4;" x="106.174465" xlink:href="#m84dea30ff9" y="279.86258"/>
     <use style="fill:#1f77b4;stroke:#1f77b4;" x="110.435679" xlink:href="#m84dea30ff9" y="279.86258"/>
     <use style="fill:#1f77b4;stroke:#1f77b4;" x="114.696893" xlink:href="#m84dea30ff9" y="279.445977"/>
     <use style="fill:#1f77b4;stroke:#1f77b4;" x="118.958107" xlink:href="#m84dea30ff9" y="279.86258"/>
     <use style="fill:#1f77b4;stroke:#1f77b4;" x="123.21932" xlink:href="#m84dea30ff9" y="279.029375"/>
     <use style="fill:#1f77b4;stroke:#1f77b4;" x="127.480534" xlink:href="#m84dea30ff9" y="279.86258"/>
     <use style="fill:#1f77b4;stroke:#1f77b4;" x="131.741748" xlink:href="#m84dea30ff9" y="279.029375"/>
     <use style="fill:#1f77b4;stroke:#1f77b4;" x="136.002962" xlink:href="#m84dea30ff9" y="279.445977"/>
     <use style="fill:#1f77b4;stroke:#1f77b4;" x="140.264176" xlink:href="#m84dea30ff9" y="273.196943"/>
     <use style="fill:#1f77b4;stroke:#1f77b4;" x="144.525389" xlink:href="#m84dea30ff9" y="274.44675"/>
     <use style="fill:#1f77b4;stroke:#1f77b4;" x="148.786603" xlink:href="#m84dea30ff9" y="279.86258"/>
     <use style="fill:#1f77b4;stroke:#1f77b4;" x="153.047817" xlink:href="#m84dea30ff9" y="259.032466"/>
     <use style="fill:#1f77b4;stroke:#1f77b4;" x="157.309031" xlink:href="#m84dea30ff9" y="267.364511"/>
     <use style="fill:#1f77b4;stroke:#1f77b4;" x="161.570245" xlink:href="#m84dea30ff9" y="246.534398"/>
     <use style="fill:#1f77b4;stroke:#1f77b4;" x="165.831458" xlink:href="#m84dea30ff9" y="259.032466"/>
     <use style="fill:#1f77b4;stroke:#1f77b4;" x="170.092672" xlink:href="#m84dea30ff9" y="260.282273"/>
     <use style="fill:#1f77b4;stroke:#1f77b4;" x="174.353886" xlink:href="#m84dea30ff9" y="259.449068"/>
     <use style="fill:#1f77b4;stroke:#1f77b4;" x="178.6151" xlink:href="#m84dea30ff9" y="233.203125"/>
     <use style="fill:#1f77b4;stroke:#1f77b4;" x="182.876314" xlink:href="#m84dea30ff9" y="227.787295"/>
     <use style="fill:#1f77b4;stroke:#1f77b4;" x="187.137527" xlink:href="#m84dea30ff9" y="212.789613"/>
     <use style="fill:#1f77b4;stroke:#1f77b4;" x="191.398741" xlink:href="#m84dea30ff9" y="206.540579"/>
     <use style="fill:#1f77b4;stroke:#1f77b4;" x="195.659955" xlink:href="#m84dea30ff9" y="157.798113"/>
     <use style="fill:#1f77b4;stroke:#1f77b4;" x="199.921169" xlink:href="#m84dea30ff9" y="193.625909"/>
     <use style="fill:#1f77b4;stroke:#1f77b4;" x="204.182383" xlink:href="#m84dea30ff9" y="180.711238"/>
     <use style="fill:#1f77b4;stroke:#1f77b4;" x="208.443596" xlink:href="#m84dea30ff9" y="170.712783"/>
     <use style="fill:#1f77b4;stroke:#1f77b4;" x="212.70481" xlink:href="#m84dea30ff9" y="110.305454"/>
     <use style="fill:#1f77b4;stroke:#1f77b4;" x="216.966024" xlink:href="#m84dea30ff9" y="92.391556"/>
     <use style="fill:#1f77b4;stroke:#1f77b4;" x="221.227238" xlink:href="#m84dea30ff9" y="126.969545"/>
     <use style="fill:#1f77b4;stroke:#1f77b4;" x="225.488452" xlink:href="#m84dea30ff9" y="36.566851"/>
     <use style="fill:#1f77b4;stroke:#1f77b4;" x="229.749665" xlink:href="#m84dea30ff9" y="148.216261"/>
     <use style="fill:#1f77b4;stroke:#1f77b4;" x="234.010879" xlink:href="#m84dea30ff9" y="116.137885"/>
     <use style="fill:#1f77b4;stroke:#1f77b4;" x="238.272093" xlink:href="#m84dea30ff9" y="109.055647"/>
     <use style="fill:#1f77b4;stroke:#1f77b4;" x="242.533307" xlink:href="#m84dea30ff9" y="122.803522"/>
     <use style="fill:#1f77b4;stroke:#1f77b4;" x="246.794521" xlink:href="#m84dea30ff9" y="110.722056"/>
     <use style="fill:#1f77b4;stroke:#1f77b4;" x="251.055734" xlink:href="#m84dea30ff9" y="146.966454"/>
     <use style="fill:#1f77b4;stroke:#1f77b4;" x="255.316948" xlink:href="#m84dea30ff9" y="193.625909"/>
     <use style="fill:#1f77b4;stroke:#1f77b4;" x="259.578162" xlink:href="#m84dea30ff9" y="204.87417"/>
     <use style="fill:#1f77b4;stroke:#1f77b4;" x="263.839376" xlink:href="#m84dea30ff9" y="193.625909"/>
     <use style="fill:#1f77b4;stroke:#1f77b4;" x="268.10059" xlink:href="#m84dea30ff9" y="188.210079"/>
     <use style="fill:#1f77b4;stroke:#1f77b4;" x="272.361803" xlink:href="#m84dea30ff9" y="201.541352"/>
     <use style="fill:#1f77b4;stroke:#1f77b4;" x="276.623017" xlink:href="#m84dea30ff9" y="184.044056"/>
     <use style="fill:#1f77b4;stroke:#1f77b4;" x="280.884231" xlink:href="#m84dea30ff9" y="213.206216"/>
     <use style="fill:#1f77b4;stroke:#1f77b4;" x="285.145445" xlink:href="#m84dea30ff9" y="214.03942"/>
     <use style="fill:#1f77b4;stroke:#1f77b4;" x="289.406659" xlink:href="#m84dea30ff9" y="236.952545"/>
     <use style="fill:#1f77b4;stroke:#1f77b4;" x="293.667872" xlink:href="#m84dea30ff9" y="233.619727"/>
     <use style="fill:#1f77b4;stroke:#1f77b4;" x="297.929086" xlink:href="#m84dea30ff9" y="211.123204"/>
     <use style="fill:#1f77b4;stroke:#1f77b4;" x="302.1903" xlink:href="#m84dea30ff9" y="221.538261"/>
     <use style="fill:#1f77b4;stroke:#1f77b4;" x="306.451514" xlink:href="#m84dea30ff9" y="250.283818"/>
     <use style="fill:#1f77b4;stroke:#1f77b4;" x="310.712728" xlink:href="#m84dea30ff9" y="237.78575"/>
     <use style="fill:#1f77b4;stroke:#1f77b4;" x="314.973941" xlink:href="#m84dea30ff9" y="232.36992"/>
     <use style="fill:#1f77b4;stroke:#1f77b4;" x="319.235155" xlink:href="#m84dea30ff9" y="209.456795"/>
     <use style="fill:#1f77b4;stroke:#1f77b4;" x="323.496369" xlink:href="#m84dea30ff9" y="210.706602"/>
     <use style="fill:#1f77b4;stroke:#1f77b4;" x="327.757583" xlink:href="#m84dea30ff9" y="208.623591"/>
     <use style="fill:#1f77b4;stroke:#1f77b4;" x="332.018797" xlink:href="#m84dea30ff9" y="226.954091"/>
     <use style="fill:#1f77b4;stroke:#1f77b4;" x="336.28001" xlink:href="#m84dea30ff9" y="203.207761"/>
     <use style="fill:#1f77b4;stroke:#1f77b4;" x="340.541224" xlink:href="#m84dea30ff9" y="254.866443"/>
     <use style="fill:#1f77b4;stroke:#1f77b4;" x="344.802438" xlink:href="#m84dea30ff9" y="254.033239"/>
     <use style="fill:#1f77b4;stroke:#1f77b4;" x="349.063652" xlink:href="#m84dea30ff9" y="242.368375"/>
     <use style="fill:#1f77b4;stroke:#1f77b4;" x="353.324866" xlink:href="#m84dea30ff9" y="551.903866"/>
     <use style="fill:#1f77b4;stroke:#1f77b4;" x="357.586079" xlink:href="#m84dea30ff9" y="270.69733"/>
     <use style="fill:#1f77b4;stroke:#1f77b4;" x="361.847293" xlink:href="#m84dea30ff9" y="216.955636"/>
     <use style="fill:#1f77b4;stroke:#1f77b4;" x="366.108507" xlink:href="#m84dea30ff9" y="257.366057"/>
     <use style="fill:#1f77b4;stroke:#1f77b4;" x="370.369721" xlink:href="#m84dea30ff9" y="252.783432"/>
     <use style="fill:#1f77b4;stroke:#1f77b4;" x="374.630935" xlink:href="#m84dea30ff9" y="261.53208"/>
     <use style="fill:#1f77b4;stroke:#1f77b4;" x="378.892148" xlink:href="#m84dea30ff9" y="263.198489"/>
     <use style="fill:#1f77b4;stroke:#1f77b4;" x="383.153362" xlink:href="#m84dea30ff9" y="260.698875"/>
     <use style="fill:#1f77b4;stroke:#1f77b4;" x="387.414576" xlink:href="#m84dea30ff9" y="264.448295"/>
     <use style="fill:#1f77b4;stroke:#1f77b4;" x="391.67579" xlink:href="#m84dea30ff9" y="259.032466"/>
     <use style="fill:#1f77b4;stroke:#1f77b4;" x="395.937004" xlink:href="#m84dea30ff9" y="266.531307"/>
     <use style="fill:#1f77b4;stroke:#1f77b4;" x="400.198217" xlink:href="#m84dea30ff9" y="264.448295"/>
     <use style="fill:#1f77b4;stroke:#1f77b4;" x="404.459431" xlink:href="#m84dea30ff9" y="268.614318"/>
     <use style="fill:#1f77b4;stroke:#1f77b4;" x="408.720645" xlink:href="#m84dea30ff9" y="275.279955"/>
     <use style="fill:#1f77b4;stroke:#1f77b4;" x="412.981859" xlink:href="#m84dea30ff9" y="275.696557"/>
    </g>
   </g>
   <g id="patch_3">
    <path d="M 50.565625 279.86258 
L 50.565625 10.8 
" style="fill:none;stroke:#000000;stroke-linecap:square;stroke-linejoin:miter;stroke-width:0.8;"/>
   </g>
   <g id="patch_4">
    <path d="M 430.239775 279.86258 
L 430.239775 10.8 
" style="fill:none;stroke:#000000;stroke-linecap:square;stroke-linejoin:miter;stroke-width:0.8;"/>
   </g>
   <g id="patch_5">
    <path d="M 50.565625 279.86258 
L 430.239775 279.86258 
" style="fill:none;stroke:#000000;stroke-linecap:square;stroke-linejoin:miter;stroke-width:0.8;"/>
   </g>
   <g id="patch_6">
    <path d="M 50.565625 10.8 
L 430.239775 10.8 
" style="fill:none;stroke:#000000;stroke-linecap:square;stroke-linejoin:miter;stroke-width:0.8;"/>
   </g>
  </g>
 </g>
 <defs>
  <clipPath id="pc5bd301e87">
   <rect height="269.06258" width="379.67415" x="50.565625" y="10.8"/>
  </clipPath>
 </defs>
</svg>
