<?xml version="1.0" encoding="utf-8" standalone="no"?>
<!DOCTYPE svg PUBLIC "-//W3C//DTD SVG 1.1//EN"
  "http://www.w3.org/Graphics/SVG/1.1/DTD/svg11.dtd">
<!-- Created with matplotlib (https://matplotlib.org/) -->
<svg height="345.6pt" version="1.1" viewBox="0 0 460.8 345.6" width="460.8pt" xmlns="http://www.w3.org/2000/svg" xmlns:xlink="http://www.w3.org/1999/xlink">
 <defs>
  <style type="text/css">
*{stroke-linecap:butt;stroke-linejoin:round;}
  </style>
 </defs>
 <g id="figure_1">
  <g id="patch_1">
   <path d="M 0 345.6 
L 460.8 345.6 
L 460.8 0 
L 0 0 
z
" style="fill:#ffffff;"/>
  </g>
  <g id="axes_1">
   <g id="patch_2">
    <path d="M 50.565625 279.86258 
L 434.345614 279.86258 
L 434.345614 10.8 
L 50.565625 10.8 
z
" style="fill:#ffffff;"/>
   </g>
   <g id="matplotlib.axis_1">
    <g id="xtick_1">
     <g id="line2d_1">
      <defs>
       <path d="M 0 0 
L 0 3.5 
" id="mc39d82f4f0" style="stroke:#000000;stroke-width:0.8;"/>
      </defs>
      <g>
       <use style="stroke:#000000;stroke-width:0.8;" x="106.303073" xlink:href="#mc39d82f4f0" y="279.86258"/>
      </g>
     </g>
     <g id="text_1">
      <!-- 2020-03-01 -->
      <defs>
       <path d="M 19.1875 8.296875 
L 53.609375 8.296875 
L 53.609375 0 
L 7.328125 0 
L 7.328125 8.296875 
Q 12.9375 14.109375 22.625 23.890625 
Q 32.328125 33.6875 34.8125 36.53125 
Q 39.546875 41.84375 41.421875 45.53125 
Q 43.3125 49.21875 43.3125 52.78125 
Q 43.3125 58.59375 39.234375 62.25 
Q 35.15625 65.921875 28.609375 65.921875 
Q 23.96875 65.921875 18.8125 64.3125 
Q 13.671875 62.703125 7.8125 59.421875 
L 7.8125 69.390625 
Q 13.765625 71.78125 18.9375 73 
Q 24.125 74.21875 28.421875 74.21875 
Q 39.75 74.21875 46.484375 68.546875 
Q 53.21875 62.890625 53.21875 53.421875 
Q 53.21875 48.921875 51.53125 44.890625 
Q 49.859375 40.875 45.40625 35.40625 
Q 44.1875 33.984375 37.640625 27.21875 
Q 31.109375 20.453125 19.1875 8.296875 
z
" id="DejaVuSans-50"/>
       <path d="M 31.78125 66.40625 
Q 24.171875 66.40625 20.328125 58.90625 
Q 16.5 51.421875 16.5 36.375 
Q 16.5 21.390625 20.328125 13.890625 
Q 24.171875 6.390625 31.78125 6.390625 
Q 39.453125 6.390625 43.28125 13.890625 
Q 47.125 21.390625 47.125 36.375 
Q 47.125 51.421875 43.28125 58.90625 
Q 39.453125 66.40625 31.78125 66.40625 
z
M 31.78125 74.21875 
Q 44.046875 74.21875 50.515625 64.515625 
Q 56.984375 54.828125 56.984375 36.375 
Q 56.984375 17.96875 50.515625 8.265625 
Q 44.046875 -1.421875 31.78125 -1.421875 
Q 19.53125 -1.421875 13.0625 8.265625 
Q 6.59375 17.96875 6.59375 36.375 
Q 6.59375 54.828125 13.0625 64.515625 
Q 19.53125 74.21875 31.78125 74.21875 
z
" id="DejaVuSans-48"/>
       <path d="M 4.890625 31.390625 
L 31.203125 31.390625 
L 31.203125 23.390625 
L 4.890625 23.390625 
z
" id="DejaVuSans-45"/>
       <path d="M 40.578125 39.3125 
Q 47.65625 37.796875 51.625 33 
Q 55.609375 28.21875 55.609375 21.1875 
Q 55.609375 10.40625 48.1875 4.484375 
Q 40.765625 -1.421875 27.09375 -1.421875 
Q 22.515625 -1.421875 17.65625 -0.515625 
Q 12.796875 0.390625 7.625 2.203125 
L 7.625 11.71875 
Q 11.71875 9.328125 16.59375 8.109375 
Q 21.484375 6.890625 26.8125 6.890625 
Q 36.078125 6.890625 40.9375 10.546875 
Q 45.796875 14.203125 45.796875 21.1875 
Q 45.796875 27.640625 41.28125 31.265625 
Q 36.765625 34.90625 28.71875 34.90625 
L 20.21875 34.90625 
L 20.21875 43.015625 
L 29.109375 43.015625 
Q 36.375 43.015625 40.234375 45.921875 
Q 44.09375 48.828125 44.09375 54.296875 
Q 44.09375 59.90625 40.109375 62.90625 
Q 36.140625 65.921875 28.71875 65.921875 
Q 24.65625 65.921875 20.015625 65.03125 
Q 15.375 64.15625 9.8125 62.3125 
L 9.8125 71.09375 
Q 15.4375 72.65625 20.34375 73.4375 
Q 25.25 74.21875 29.59375 74.21875 
Q 40.828125 74.21875 47.359375 69.109375 
Q 53.90625 64.015625 53.90625 55.328125 
Q 53.90625 49.265625 50.4375 45.09375 
Q 46.96875 40.921875 40.578125 39.3125 
z
" id="DejaVuSans-51"/>
       <path d="M 12.40625 8.296875 
L 28.515625 8.296875 
L 28.515625 63.921875 
L 10.984375 60.40625 
L 10.984375 69.390625 
L 28.421875 72.90625 
L 38.28125 72.90625 
L 38.28125 8.296875 
L 54.390625 8.296875 
L 54.390625 0 
L 12.40625 0 
z
" id="DejaVuSans-49"/>
      </defs>
      <g transform="translate(87.70727 333.329439)rotate(-45)scale(0.1 -0.1)">
       <use xlink:href="#DejaVuSans-50"/>
       <use x="63.623047" xlink:href="#DejaVuSans-48"/>
       <use x="127.246094" xlink:href="#DejaVuSans-50"/>
       <use x="190.869141" xlink:href="#DejaVuSans-48"/>
       <use x="254.492188" xlink:href="#DejaVuSans-45"/>
       <use x="290.576172" xlink:href="#DejaVuSans-48"/>
       <use x="354.199219" xlink:href="#DejaVuSans-51"/>
       <use x="417.822266" xlink:href="#DejaVuSans-45"/>
       <use x="453.90625" xlink:href="#DejaVuSans-48"/>
       <use x="517.529297" xlink:href="#DejaVuSans-49"/>
      </g>
     </g>
    </g>
    <g id="xtick_2">
     <g id="line2d_2">
      <g>
       <use style="stroke:#000000;stroke-width:0.8;" x="165.869812" xlink:href="#mc39d82f4f0" y="279.86258"/>
      </g>
     </g>
     <g id="text_2">
      <!-- 2020-03-15 -->
      <defs>
       <path d="M 10.796875 72.90625 
L 49.515625 72.90625 
L 49.515625 64.59375 
L 19.828125 64.59375 
L 19.828125 46.734375 
Q 21.96875 47.46875 24.109375 47.828125 
Q 26.265625 48.1875 28.421875 48.1875 
Q 40.625 48.1875 47.75 41.5 
Q 54.890625 34.8125 54.890625 23.390625 
Q 54.890625 11.625 47.5625 5.09375 
Q 40.234375 -1.421875 26.90625 -1.421875 
Q 22.3125 -1.421875 17.546875 -0.640625 
Q 12.796875 0.140625 7.71875 1.703125 
L 7.71875 11.625 
Q 12.109375 9.234375 16.796875 8.0625 
Q 21.484375 6.890625 26.703125 6.890625 
Q 35.15625 6.890625 40.078125 11.328125 
Q 45.015625 15.765625 45.015625 23.390625 
Q 45.015625 31 40.078125 35.4375 
Q 35.15625 39.890625 26.703125 39.890625 
Q 22.75 39.890625 18.8125 39.015625 
Q 14.890625 38.140625 10.796875 36.28125 
z
" id="DejaVuSans-53"/>
      </defs>
      <g transform="translate(147.274009 333.329439)rotate(-45)scale(0.1 -0.1)">
       <use xlink:href="#DejaVuSans-50"/>
       <use x="63.623047" xlink:href="#DejaVuSans-48"/>
       <use x="127.246094" xlink:href="#DejaVuSans-50"/>
       <use x="190.869141" xlink:href="#DejaVuSans-48"/>
       <use x="254.492188" xlink:href="#DejaVuSans-45"/>
       <use x="290.576172" xlink:href="#DejaVuSans-48"/>
       <use x="354.199219" xlink:href="#DejaVuSans-51"/>
       <use x="417.822266" xlink:href="#DejaVuSans-45"/>
       <use x="453.90625" xlink:href="#DejaVuSans-49"/>
       <use x="517.529297" xlink:href="#DejaVuSans-53"/>
      </g>
     </g>
    </g>
    <g id="xtick_3">
     <g id="line2d_3">
      <g>
       <use style="stroke:#000000;stroke-width:0.8;" x="238.200852" xlink:href="#mc39d82f4f0" y="279.86258"/>
      </g>
     </g>
     <g id="text_3">
      <!-- 2020-04-01 -->
      <defs>
       <path d="M 37.796875 64.3125 
L 12.890625 25.390625 
L 37.796875 25.390625 
z
M 35.203125 72.90625 
L 47.609375 72.90625 
L 47.609375 25.390625 
L 58.015625 25.390625 
L 58.015625 17.1875 
L 47.609375 17.1875 
L 47.609375 0 
L 37.796875 0 
L 37.796875 17.1875 
L 4.890625 17.1875 
L 4.890625 26.703125 
z
" id="DejaVuSans-52"/>
      </defs>
      <g transform="translate(219.605049 333.329439)rotate(-45)scale(0.1 -0.1)">
       <use xlink:href="#DejaVuSans-50"/>
       <use x="63.623047" xlink:href="#DejaVuSans-48"/>
       <use x="127.246094" xlink:href="#DejaVuSans-50"/>
       <use x="190.869141" xlink:href="#DejaVuSans-48"/>
       <use x="254.492188" xlink:href="#DejaVuSans-45"/>
       <use x="290.576172" xlink:href="#DejaVuSans-48"/>
       <use x="354.199219" xlink:href="#DejaVuSans-52"/>
       <use x="417.822266" xlink:href="#DejaVuSans-45"/>
       <use x="453.90625" xlink:href="#DejaVuSans-48"/>
       <use x="517.529297" xlink:href="#DejaVuSans-49"/>
      </g>
     </g>
    </g>
    <g id="xtick_4">
     <g id="line2d_4">
      <g>
       <use style="stroke:#000000;stroke-width:0.8;" x="297.767591" xlink:href="#mc39d82f4f0" y="279.86258"/>
      </g>
     </g>
     <g id="text_4">
      <!-- 2020-04-15 -->
      <g transform="translate(279.171788 333.329439)rotate(-45)scale(0.1 -0.1)">
       <use xlink:href="#DejaVuSans-50"/>
       <use x="63.623047" xlink:href="#DejaVuSans-48"/>
       <use x="127.246094" xlink:href="#DejaVuSans-50"/>
       <use x="190.869141" xlink:href="#DejaVuSans-48"/>
       <use x="254.492188" xlink:href="#DejaVuSans-45"/>
       <use x="290.576172" xlink:href="#DejaVuSans-48"/>
       <use x="354.199219" xlink:href="#DejaVuSans-52"/>
       <use x="417.822266" xlink:href="#DejaVuSans-45"/>
       <use x="453.90625" xlink:href="#DejaVuSans-49"/>
       <use x="517.529297" xlink:href="#DejaVuSans-53"/>
      </g>
     </g>
    </g>
    <g id="xtick_5">
     <g id="line2d_5">
      <g>
       <use style="stroke:#000000;stroke-width:0.8;" x="365.843864" xlink:href="#mc39d82f4f0" y="279.86258"/>
      </g>
     </g>
     <g id="text_5">
      <!-- 2020-05-01 -->
      <g transform="translate(347.24806 333.329439)rotate(-45)scale(0.1 -0.1)">
       <use xlink:href="#DejaVuSans-50"/>
       <use x="63.623047" xlink:href="#DejaVuSans-48"/>
       <use x="127.246094" xlink:href="#DejaVuSans-50"/>
       <use x="190.869141" xlink:href="#DejaVuSans-48"/>
       <use x="254.492188" xlink:href="#DejaVuSans-45"/>
       <use x="290.576172" xlink:href="#DejaVuSans-48"/>
       <use x="354.199219" xlink:href="#DejaVuSans-53"/>
       <use x="417.822266" xlink:href="#DejaVuSans-45"/>
       <use x="453.90625" xlink:href="#DejaVuSans-48"/>
       <use x="517.529297" xlink:href="#DejaVuSans-49"/>
      </g>
     </g>
    </g>
    <g id="xtick_6">
     <g id="line2d_6">
      <g>
       <use style="stroke:#000000;stroke-width:0.8;" x="425.410603" xlink:href="#mc39d82f4f0" y="279.86258"/>
      </g>
     </g>
     <g id="text_6">
      <!-- 2020-05-15 -->
      <g transform="translate(406.814799 333.329439)rotate(-45)scale(0.1 -0.1)">
       <use xlink:href="#DejaVuSans-50"/>
       <use x="63.623047" xlink:href="#DejaVuSans-48"/>
       <use x="127.246094" xlink:href="#DejaVuSans-50"/>
       <use x="190.869141" xlink:href="#DejaVuSans-48"/>
       <use x="254.492188" xlink:href="#DejaVuSans-45"/>
       <use x="290.576172" xlink:href="#DejaVuSans-48"/>
       <use x="354.199219" xlink:href="#DejaVuSans-53"/>
       <use x="417.822266" xlink:href="#DejaVuSans-45"/>
       <use x="453.90625" xlink:href="#DejaVuSans-49"/>
       <use x="517.529297" xlink:href="#DejaVuSans-53"/>
      </g>
     </g>
    </g>
   </g>
   <g id="matplotlib.axis_2">
    <g id="ytick_1">
     <g id="line2d_7">
      <defs>
       <path d="M 0 0 
L -3.5 0 
" id="mb39a2a0c29" style="stroke:#000000;stroke-width:0.8;"/>
      </defs>
      <g>
       <use style="stroke:#000000;stroke-width:0.8;" x="50.565625" xlink:href="#mb39a2a0c29" y="279.86258"/>
      </g>
     </g>
     <g id="text_7">
      <!-- 0 -->
      <g transform="translate(37.203125 283.661798)scale(0.1 -0.1)">
       <use xlink:href="#DejaVuSans-48"/>
      </g>
     </g>
    </g>
    <g id="ytick_2">
     <g id="line2d_8">
      <g>
       <use style="stroke:#000000;stroke-width:0.8;" x="50.565625" xlink:href="#mb39a2a0c29" y="231.965369"/>
      </g>
     </g>
     <g id="text_8">
      <!-- 20 -->
      <g transform="translate(30.840625 235.764588)scale(0.1 -0.1)">
       <use xlink:href="#DejaVuSans-50"/>
       <use x="63.623047" xlink:href="#DejaVuSans-48"/>
      </g>
     </g>
    </g>
    <g id="ytick_3">
     <g id="line2d_9">
      <g>
       <use style="stroke:#000000;stroke-width:0.8;" x="50.565625" xlink:href="#mb39a2a0c29" y="184.068159"/>
      </g>
     </g>
     <g id="text_9">
      <!-- 40 -->
      <g transform="translate(30.840625 187.867378)scale(0.1 -0.1)">
       <use xlink:href="#DejaVuSans-52"/>
       <use x="63.623047" xlink:href="#DejaVuSans-48"/>
      </g>
     </g>
    </g>
    <g id="ytick_4">
     <g id="line2d_10">
      <g>
       <use style="stroke:#000000;stroke-width:0.8;" x="50.565625" xlink:href="#mb39a2a0c29" y="136.170948"/>
      </g>
     </g>
     <g id="text_10">
      <!-- 60 -->
      <defs>
       <path d="M 33.015625 40.375 
Q 26.375 40.375 22.484375 35.828125 
Q 18.609375 31.296875 18.609375 23.390625 
Q 18.609375 15.53125 22.484375 10.953125 
Q 26.375 6.390625 33.015625 6.390625 
Q 39.65625 6.390625 43.53125 10.953125 
Q 47.40625 15.53125 47.40625 23.390625 
Q 47.40625 31.296875 43.53125 35.828125 
Q 39.65625 40.375 33.015625 40.375 
z
M 52.59375 71.296875 
L 52.59375 62.3125 
Q 48.875 64.0625 45.09375 64.984375 
Q 41.3125 65.921875 37.59375 65.921875 
Q 27.828125 65.921875 22.671875 59.328125 
Q 17.53125 52.734375 16.796875 39.40625 
Q 19.671875 43.65625 24.015625 45.921875 
Q 28.375 48.1875 33.59375 48.1875 
Q 44.578125 48.1875 50.953125 41.515625 
Q 57.328125 34.859375 57.328125 23.390625 
Q 57.328125 12.15625 50.6875 5.359375 
Q 44.046875 -1.421875 33.015625 -1.421875 
Q 20.359375 -1.421875 13.671875 8.265625 
Q 6.984375 17.96875 6.984375 36.375 
Q 6.984375 53.65625 15.1875 63.9375 
Q 23.390625 74.21875 37.203125 74.21875 
Q 40.921875 74.21875 44.703125 73.484375 
Q 48.484375 72.75 52.59375 71.296875 
z
" id="DejaVuSans-54"/>
      </defs>
      <g transform="translate(30.840625 139.970167)scale(0.1 -0.1)">
       <use xlink:href="#DejaVuSans-54"/>
       <use x="63.623047" xlink:href="#DejaVuSans-48"/>
      </g>
     </g>
    </g>
    <g id="ytick_5">
     <g id="line2d_11">
      <g>
       <use style="stroke:#000000;stroke-width:0.8;" x="50.565625" xlink:href="#mb39a2a0c29" y="88.273738"/>
      </g>
     </g>
     <g id="text_11">
      <!-- 80 -->
      <defs>
       <path d="M 31.78125 34.625 
Q 24.75 34.625 20.71875 30.859375 
Q 16.703125 27.09375 16.703125 20.515625 
Q 16.703125 13.921875 20.71875 10.15625 
Q 24.75 6.390625 31.78125 6.390625 
Q 38.8125 6.390625 42.859375 10.171875 
Q 46.921875 13.96875 46.921875 20.515625 
Q 46.921875 27.09375 42.890625 30.859375 
Q 38.875 34.625 31.78125 34.625 
z
M 21.921875 38.8125 
Q 15.578125 40.375 12.03125 44.71875 
Q 8.5 49.078125 8.5 55.328125 
Q 8.5 64.0625 14.71875 69.140625 
Q 20.953125 74.21875 31.78125 74.21875 
Q 42.671875 74.21875 48.875 69.140625 
Q 55.078125 64.0625 55.078125 55.328125 
Q 55.078125 49.078125 51.53125 44.71875 
Q 48 40.375 41.703125 38.8125 
Q 48.828125 37.15625 52.796875 32.3125 
Q 56.78125 27.484375 56.78125 20.515625 
Q 56.78125 9.90625 50.3125 4.234375 
Q 43.84375 -1.421875 31.78125 -1.421875 
Q 19.734375 -1.421875 13.25 4.234375 
Q 6.78125 9.90625 6.78125 20.515625 
Q 6.78125 27.484375 10.78125 32.3125 
Q 14.796875 37.15625 21.921875 38.8125 
z
M 18.3125 54.390625 
Q 18.3125 48.734375 21.84375 45.5625 
Q 25.390625 42.390625 31.78125 42.390625 
Q 38.140625 42.390625 41.71875 45.5625 
Q 45.3125 48.734375 45.3125 54.390625 
Q 45.3125 60.0625 41.71875 63.234375 
Q 38.140625 66.40625 31.78125 66.40625 
Q 25.390625 66.40625 21.84375 63.234375 
Q 18.3125 60.0625 18.3125 54.390625 
z
" id="DejaVuSans-56"/>
      </defs>
      <g transform="translate(30.840625 92.072957)scale(0.1 -0.1)">
       <use xlink:href="#DejaVuSans-56"/>
       <use x="63.623047" xlink:href="#DejaVuSans-48"/>
      </g>
     </g>
    </g>
    <g id="ytick_6">
     <g id="line2d_12">
      <g>
       <use style="stroke:#000000;stroke-width:0.8;" x="50.565625" xlink:href="#mb39a2a0c29" y="40.376527"/>
      </g>
     </g>
     <g id="text_12">
      <!-- 100 -->
      <g transform="translate(24.478125 44.175746)scale(0.1 -0.1)">
       <use xlink:href="#DejaVuSans-49"/>
       <use x="63.623047" xlink:href="#DejaVuSans-48"/>
       <use x="127.246094" xlink:href="#DejaVuSans-48"/>
      </g>
     </g>
    </g>
    <g id="text_13">
     <!-- IB pcr diarios -->
     <defs>
      <path d="M 9.8125 72.90625 
L 19.671875 72.90625 
L 19.671875 0 
L 9.8125 0 
z
" id="DejaVuSans-73"/>
      <path d="M 19.671875 34.8125 
L 19.671875 8.109375 
L 35.5 8.109375 
Q 43.453125 8.109375 47.28125 11.40625 
Q 51.125 14.703125 51.125 21.484375 
Q 51.125 28.328125 47.28125 31.5625 
Q 43.453125 34.8125 35.5 34.8125 
z
M 19.671875 64.796875 
L 19.671875 42.828125 
L 34.28125 42.828125 
Q 41.5 42.828125 45.03125 45.53125 
Q 48.578125 48.25 48.578125 53.8125 
Q 48.578125 59.328125 45.03125 62.0625 
Q 41.5 64.796875 34.28125 64.796875 
z
M 9.8125 72.90625 
L 35.015625 72.90625 
Q 46.296875 72.90625 52.390625 68.21875 
Q 58.5 63.53125 58.5 54.890625 
Q 58.5 48.1875 55.375 44.234375 
Q 52.25 40.28125 46.1875 39.3125 
Q 53.46875 37.75 57.5 32.78125 
Q 61.53125 27.828125 61.53125 20.40625 
Q 61.53125 10.640625 54.890625 5.3125 
Q 48.25 0 35.984375 0 
L 9.8125 0 
z
" id="DejaVuSans-66"/>
      <path id="DejaVuSans-32"/>
      <path d="M 18.109375 8.203125 
L 18.109375 -20.796875 
L 9.078125 -20.796875 
L 9.078125 54.6875 
L 18.109375 54.6875 
L 18.109375 46.390625 
Q 20.953125 51.265625 25.265625 53.625 
Q 29.59375 56 35.59375 56 
Q 45.5625 56 51.78125 48.09375 
Q 58.015625 40.1875 58.015625 27.296875 
Q 58.015625 14.40625 51.78125 6.484375 
Q 45.5625 -1.421875 35.59375 -1.421875 
Q 29.59375 -1.421875 25.265625 0.953125 
Q 20.953125 3.328125 18.109375 8.203125 
z
M 48.6875 27.296875 
Q 48.6875 37.203125 44.609375 42.84375 
Q 40.53125 48.484375 33.40625 48.484375 
Q 26.265625 48.484375 22.1875 42.84375 
Q 18.109375 37.203125 18.109375 27.296875 
Q 18.109375 17.390625 22.1875 11.75 
Q 26.265625 6.109375 33.40625 6.109375 
Q 40.53125 6.109375 44.609375 11.75 
Q 48.6875 17.390625 48.6875 27.296875 
z
" id="DejaVuSans-112"/>
      <path d="M 48.78125 52.59375 
L 48.78125 44.1875 
Q 44.96875 46.296875 41.140625 47.34375 
Q 37.3125 48.390625 33.40625 48.390625 
Q 24.65625 48.390625 19.8125 42.84375 
Q 14.984375 37.3125 14.984375 27.296875 
Q 14.984375 17.28125 19.8125 11.734375 
Q 24.65625 6.203125 33.40625 6.203125 
Q 37.3125 6.203125 41.140625 7.25 
Q 44.96875 8.296875 48.78125 10.40625 
L 48.78125 2.09375 
Q 45.015625 0.34375 40.984375 -0.53125 
Q 36.96875 -1.421875 32.421875 -1.421875 
Q 20.0625 -1.421875 12.78125 6.34375 
Q 5.515625 14.109375 5.515625 27.296875 
Q 5.515625 40.671875 12.859375 48.328125 
Q 20.21875 56 33.015625 56 
Q 37.15625 56 41.109375 55.140625 
Q 45.0625 54.296875 48.78125 52.59375 
z
" id="DejaVuSans-99"/>
      <path d="M 41.109375 46.296875 
Q 39.59375 47.171875 37.8125 47.578125 
Q 36.03125 48 33.890625 48 
Q 26.265625 48 22.1875 43.046875 
Q 18.109375 38.09375 18.109375 28.8125 
L 18.109375 0 
L 9.078125 0 
L 9.078125 54.6875 
L 18.109375 54.6875 
L 18.109375 46.1875 
Q 20.953125 51.171875 25.484375 53.578125 
Q 30.03125 56 36.53125 56 
Q 37.453125 56 38.578125 55.875 
Q 39.703125 55.765625 41.0625 55.515625 
z
" id="DejaVuSans-114"/>
      <path d="M 45.40625 46.390625 
L 45.40625 75.984375 
L 54.390625 75.984375 
L 54.390625 0 
L 45.40625 0 
L 45.40625 8.203125 
Q 42.578125 3.328125 38.25 0.953125 
Q 33.9375 -1.421875 27.875 -1.421875 
Q 17.96875 -1.421875 11.734375 6.484375 
Q 5.515625 14.40625 5.515625 27.296875 
Q 5.515625 40.1875 11.734375 48.09375 
Q 17.96875 56 27.875 56 
Q 33.9375 56 38.25 53.625 
Q 42.578125 51.265625 45.40625 46.390625 
z
M 14.796875 27.296875 
Q 14.796875 17.390625 18.875 11.75 
Q 22.953125 6.109375 30.078125 6.109375 
Q 37.203125 6.109375 41.296875 11.75 
Q 45.40625 17.390625 45.40625 27.296875 
Q 45.40625 37.203125 41.296875 42.84375 
Q 37.203125 48.484375 30.078125 48.484375 
Q 22.953125 48.484375 18.875 42.84375 
Q 14.796875 37.203125 14.796875 27.296875 
z
" id="DejaVuSans-100"/>
      <path d="M 9.421875 54.6875 
L 18.40625 54.6875 
L 18.40625 0 
L 9.421875 0 
z
M 9.421875 75.984375 
L 18.40625 75.984375 
L 18.40625 64.59375 
L 9.421875 64.59375 
z
" id="DejaVuSans-105"/>
      <path d="M 34.28125 27.484375 
Q 23.390625 27.484375 19.1875 25 
Q 14.984375 22.515625 14.984375 16.5 
Q 14.984375 11.71875 18.140625 8.90625 
Q 21.296875 6.109375 26.703125 6.109375 
Q 34.1875 6.109375 38.703125 11.40625 
Q 43.21875 16.703125 43.21875 25.484375 
L 43.21875 27.484375 
z
M 52.203125 31.203125 
L 52.203125 0 
L 43.21875 0 
L 43.21875 8.296875 
Q 40.140625 3.328125 35.546875 0.953125 
Q 30.953125 -1.421875 24.3125 -1.421875 
Q 15.921875 -1.421875 10.953125 3.296875 
Q 6 8.015625 6 15.921875 
Q 6 25.140625 12.171875 29.828125 
Q 18.359375 34.515625 30.609375 34.515625 
L 43.21875 34.515625 
L 43.21875 35.40625 
Q 43.21875 41.609375 39.140625 45 
Q 35.0625 48.390625 27.6875 48.390625 
Q 23 48.390625 18.546875 47.265625 
Q 14.109375 46.140625 10.015625 43.890625 
L 10.015625 52.203125 
Q 14.9375 54.109375 19.578125 55.046875 
Q 24.21875 56 28.609375 56 
Q 40.484375 56 46.34375 49.84375 
Q 52.203125 43.703125 52.203125 31.203125 
z
" id="DejaVuSans-97"/>
      <path d="M 30.609375 48.390625 
Q 23.390625 48.390625 19.1875 42.75 
Q 14.984375 37.109375 14.984375 27.296875 
Q 14.984375 17.484375 19.15625 11.84375 
Q 23.34375 6.203125 30.609375 6.203125 
Q 37.796875 6.203125 41.984375 11.859375 
Q 46.1875 17.53125 46.1875 27.296875 
Q 46.1875 37.015625 41.984375 42.703125 
Q 37.796875 48.390625 30.609375 48.390625 
z
M 30.609375 56 
Q 42.328125 56 49.015625 48.375 
Q 55.71875 40.765625 55.71875 27.296875 
Q 55.71875 13.875 49.015625 6.21875 
Q 42.328125 -1.421875 30.609375 -1.421875 
Q 18.84375 -1.421875 12.171875 6.21875 
Q 5.515625 13.875 5.515625 27.296875 
Q 5.515625 40.765625 12.171875 48.375 
Q 18.84375 56 30.609375 56 
z
" id="DejaVuSans-111"/>
      <path d="M 44.28125 53.078125 
L 44.28125 44.578125 
Q 40.484375 46.53125 36.375 47.5 
Q 32.28125 48.484375 27.875 48.484375 
Q 21.1875 48.484375 17.84375 46.4375 
Q 14.5 44.390625 14.5 40.28125 
Q 14.5 37.15625 16.890625 35.375 
Q 19.28125 33.59375 26.515625 31.984375 
L 29.59375 31.296875 
Q 39.15625 29.25 43.1875 25.515625 
Q 47.21875 21.78125 47.21875 15.09375 
Q 47.21875 7.46875 41.1875 3.015625 
Q 35.15625 -1.421875 24.609375 -1.421875 
Q 20.21875 -1.421875 15.453125 -0.5625 
Q 10.6875 0.296875 5.421875 2 
L 5.421875 11.28125 
Q 10.40625 8.6875 15.234375 7.390625 
Q 20.0625 6.109375 24.8125 6.109375 
Q 31.15625 6.109375 34.5625 8.28125 
Q 37.984375 10.453125 37.984375 14.40625 
Q 37.984375 18.0625 35.515625 20.015625 
Q 33.0625 21.96875 24.703125 23.78125 
L 21.578125 24.515625 
Q 13.234375 26.265625 9.515625 29.90625 
Q 5.8125 33.546875 5.8125 39.890625 
Q 5.8125 47.609375 11.28125 51.796875 
Q 16.75 56 26.8125 56 
Q 31.78125 56 36.171875 55.265625 
Q 40.578125 54.546875 44.28125 53.078125 
z
" id="DejaVuSans-115"/>
     </defs>
     <g transform="translate(18.398438 178.129727)rotate(-90)scale(0.1 -0.1)">
      <use xlink:href="#DejaVuSans-73"/>
      <use x="29.492188" xlink:href="#DejaVuSans-66"/>
      <use x="98.095703" xlink:href="#DejaVuSans-32"/>
      <use x="129.882812" xlink:href="#DejaVuSans-112"/>
      <use x="193.359375" xlink:href="#DejaVuSans-99"/>
      <use x="248.339844" xlink:href="#DejaVuSans-114"/>
      <use x="289.453125" xlink:href="#DejaVuSans-32"/>
      <use x="321.240234" xlink:href="#DejaVuSans-100"/>
      <use x="384.716797" xlink:href="#DejaVuSans-105"/>
      <use x="412.5" xlink:href="#DejaVuSans-97"/>
      <use x="473.779297" xlink:href="#DejaVuSans-114"/>
      <use x="514.892578" xlink:href="#DejaVuSans-105"/>
      <use x="542.675781" xlink:href="#DejaVuSans-111"/>
      <use x="603.857422" xlink:href="#DejaVuSans-115"/>
     </g>
    </g>
   </g>
   <g id="line2d_13">
    <path clip-path="url(#p07c3efcfa7)" d="M 68.01017 279.86258 
L 72.264937 279.86258 
L 76.519704 279.86258 
L 80.774471 279.86258 
L 85.029238 279.86258 
L 89.284005 279.86258 
L 93.538772 279.86258 
L 97.793539 277.467719 
L 102.048306 279.86258 
L 106.303073 279.86258 
L 110.557841 279.86258 
L 114.812608 272.677998 
L 119.067375 277.467719 
L 123.322142 279.86258 
L 127.576909 279.86258 
L 131.831676 275.072859 
L 136.086443 272.677998 
L 140.34121 275.072859 
L 144.595977 272.677998 
L 148.850744 265.493417 
L 153.105511 265.493417 
L 157.360278 279.86258 
L 161.615045 246.334532 
L 165.869812 205.621903 
L 170.124579 234.36023 
L 174.379346 231.965369 
L 178.634113 143.35553 
L 182.88888 198.437322 
L 187.143648 176.883577 
L 191.398415 76.299435 
L 195.653182 114.617204 
L 199.907949 93.063459 
L 204.162716 78.694296 
L 208.417483 45.166248 
L 212.67225 52.35083 
L 216.927017 23.612504 
L 221.181784 49.95597 
L 225.436551 179.278438 
L 229.691318 114.617204 
L 233.946085 131.381227 
L 238.200852 105.037762 
L 242.455619 152.934972 
L 246.710386 246.334532 
L 250.965153 227.175648 
L 255.21992 215.201346 
L 259.474688 162.514414 
L 263.729455 176.883577 
L 267.984222 193.647601 
L 272.238989 184.068159 
L 276.493756 234.36023 
L 280.748523 215.201346 
L 285.00329 241.544811 
L 289.258057 229.570509 
L 293.512824 196.042461 
L 297.767591 205.621903 
L 302.022358 205.621903 
L 306.277125 145.75039 
L 310.531892 241.544811 
L 314.786659 258.308835 
L 319.041426 236.75509 
L 323.296193 229.570509 
L 327.55096 234.36023 
L 331.805727 246.334532 
L 336.060495 217.596206 
L 340.315262 263.098556 
L 344.570029 267.888277 
L 348.824796 253.519114 
L 353.079563 258.308835 
L 357.33433 270.283138 
L 361.589097 253.519114 
L 365.843864 260.703695 
L 370.098631 265.493417 
L 374.353398 279.86258 
L 378.608165 275.072859 
L 382.862932 253.519114 
L 387.117699 260.703695 
L 391.372466 265.493417 
L 395.627233 258.308835 
L 399.882 265.493417 
L 404.136767 272.677998 
L 408.391535 279.86258 
L 412.646302 270.283138 
L 416.901069 277.467719 
" style="fill:none;stroke:#1f77b4;stroke-linecap:square;stroke-width:1.5;"/>
    <defs>
     <path d="M 0 1.5 
C 0.397805 1.5 0.77937 1.341951 1.06066 1.06066 
C 1.341951 0.77937 1.5 0.397805 1.5 0 
C 1.5 -0.397805 1.341951 -0.77937 1.06066 -1.06066 
C 0.77937 -1.341951 0.397805 -1.5 0 -1.5 
C -0.397805 -1.5 -0.77937 -1.341951 -1.06066 -1.06066 
C -1.341951 -0.77937 -1.5 -0.397805 -1.5 0 
C -1.5 0.397805 -1.341951 0.77937 -1.06066 1.06066 
C -0.77937 1.341951 -0.397805 1.5 0 1.5 
z
" id="m107e1ea524" style="stroke:#1f77b4;"/>
    </defs>
    <g clip-path="url(#p07c3efcfa7)">
     <use style="fill:#1f77b4;stroke:#1f77b4;" x="68.01017" xlink:href="#m107e1ea524" y="279.86258"/>
     <use style="fill:#1f77b4;stroke:#1f77b4;" x="72.264937" xlink:href="#m107e1ea524" y="279.86258"/>
     <use style="fill:#1f77b4;stroke:#1f77b4;" x="76.519704" xlink:href="#m107e1ea524" y="279.86258"/>
     <use style="fill:#1f77b4;stroke:#1f77b4;" x="80.774471" xlink:href="#m107e1ea524" y="279.86258"/>
     <use style="fill:#1f77b4;stroke:#1f77b4;" x="85.029238" xlink:href="#m107e1ea524" y="279.86258"/>
     <use style="fill:#1f77b4;stroke:#1f77b4;" x="89.284005" xlink:href="#m107e1ea524" y="279.86258"/>
     <use style="fill:#1f77b4;stroke:#1f77b4;" x="93.538772" xlink:href="#m107e1ea524" y="279.86258"/>
     <use style="fill:#1f77b4;stroke:#1f77b4;" x="97.793539" xlink:href="#m107e1ea524" y="277.467719"/>
     <use style="fill:#1f77b4;stroke:#1f77b4;" x="102.048306" xlink:href="#m107e1ea524" y="279.86258"/>
     <use style="fill:#1f77b4;stroke:#1f77b4;" x="106.303073" xlink:href="#m107e1ea524" y="279.86258"/>
     <use style="fill:#1f77b4;stroke:#1f77b4;" x="110.557841" xlink:href="#m107e1ea524" y="279.86258"/>
     <use style="fill:#1f77b4;stroke:#1f77b4;" x="114.812608" xlink:href="#m107e1ea524" y="272.677998"/>
     <use style="fill:#1f77b4;stroke:#1f77b4;" x="119.067375" xlink:href="#m107e1ea524" y="277.467719"/>
     <use style="fill:#1f77b4;stroke:#1f77b4;" x="123.322142" xlink:href="#m107e1ea524" y="279.86258"/>
     <use style="fill:#1f77b4;stroke:#1f77b4;" x="127.576909" xlink:href="#m107e1ea524" y="279.86258"/>
     <use style="fill:#1f77b4;stroke:#1f77b4;" x="131.831676" xlink:href="#m107e1ea524" y="275.072859"/>
     <use style="fill:#1f77b4;stroke:#1f77b4;" x="136.086443" xlink:href="#m107e1ea524" y="272.677998"/>
     <use style="fill:#1f77b4;stroke:#1f77b4;" x="140.34121" xlink:href="#m107e1ea524" y="275.072859"/>
     <use style="fill:#1f77b4;stroke:#1f77b4;" x="144.595977" xlink:href="#m107e1ea524" y="272.677998"/>
     <use style="fill:#1f77b4;stroke:#1f77b4;" x="148.850744" xlink:href="#m107e1ea524" y="265.493417"/>
     <use style="fill:#1f77b4;stroke:#1f77b4;" x="153.105511" xlink:href="#m107e1ea524" y="265.493417"/>
     <use style="fill:#1f77b4;stroke:#1f77b4;" x="157.360278" xlink:href="#m107e1ea524" y="279.86258"/>
     <use style="fill:#1f77b4;stroke:#1f77b4;" x="161.615045" xlink:href="#m107e1ea524" y="246.334532"/>
     <use style="fill:#1f77b4;stroke:#1f77b4;" x="165.869812" xlink:href="#m107e1ea524" y="205.621903"/>
     <use style="fill:#1f77b4;stroke:#1f77b4;" x="170.124579" xlink:href="#m107e1ea524" y="234.36023"/>
     <use style="fill:#1f77b4;stroke:#1f77b4;" x="174.379346" xlink:href="#m107e1ea524" y="231.965369"/>
     <use style="fill:#1f77b4;stroke:#1f77b4;" x="178.634113" xlink:href="#m107e1ea524" y="143.35553"/>
     <use style="fill:#1f77b4;stroke:#1f77b4;" x="182.88888" xlink:href="#m107e1ea524" y="198.437322"/>
     <use style="fill:#1f77b4;stroke:#1f77b4;" x="187.143648" xlink:href="#m107e1ea524" y="176.883577"/>
     <use style="fill:#1f77b4;stroke:#1f77b4;" x="191.398415" xlink:href="#m107e1ea524" y="76.299435"/>
     <use style="fill:#1f77b4;stroke:#1f77b4;" x="195.653182" xlink:href="#m107e1ea524" y="114.617204"/>
     <use style="fill:#1f77b4;stroke:#1f77b4;" x="199.907949" xlink:href="#m107e1ea524" y="93.063459"/>
     <use style="fill:#1f77b4;stroke:#1f77b4;" x="204.162716" xlink:href="#m107e1ea524" y="78.694296"/>
     <use style="fill:#1f77b4;stroke:#1f77b4;" x="208.417483" xlink:href="#m107e1ea524" y="45.166248"/>
     <use style="fill:#1f77b4;stroke:#1f77b4;" x="212.67225" xlink:href="#m107e1ea524" y="52.35083"/>
     <use style="fill:#1f77b4;stroke:#1f77b4;" x="216.927017" xlink:href="#m107e1ea524" y="23.612504"/>
     <use style="fill:#1f77b4;stroke:#1f77b4;" x="221.181784" xlink:href="#m107e1ea524" y="49.95597"/>
     <use style="fill:#1f77b4;stroke:#1f77b4;" x="225.436551" xlink:href="#m107e1ea524" y="179.278438"/>
     <use style="fill:#1f77b4;stroke:#1f77b4;" x="229.691318" xlink:href="#m107e1ea524" y="114.617204"/>
     <use style="fill:#1f77b4;stroke:#1f77b4;" x="233.946085" xlink:href="#m107e1ea524" y="131.381227"/>
     <use style="fill:#1f77b4;stroke:#1f77b4;" x="238.200852" xlink:href="#m107e1ea524" y="105.037762"/>
     <use style="fill:#1f77b4;stroke:#1f77b4;" x="242.455619" xlink:href="#m107e1ea524" y="152.934972"/>
     <use style="fill:#1f77b4;stroke:#1f77b4;" x="246.710386" xlink:href="#m107e1ea524" y="246.334532"/>
     <use style="fill:#1f77b4;stroke:#1f77b4;" x="250.965153" xlink:href="#m107e1ea524" y="227.175648"/>
     <use style="fill:#1f77b4;stroke:#1f77b4;" x="255.21992" xlink:href="#m107e1ea524" y="215.201346"/>
     <use style="fill:#1f77b4;stroke:#1f77b4;" x="259.474688" xlink:href="#m107e1ea524" y="162.514414"/>
     <use style="fill:#1f77b4;stroke:#1f77b4;" x="263.729455" xlink:href="#m107e1ea524" y="176.883577"/>
     <use style="fill:#1f77b4;stroke:#1f77b4;" x="267.984222" xlink:href="#m107e1ea524" y="193.647601"/>
     <use style="fill:#1f77b4;stroke:#1f77b4;" x="272.238989" xlink:href="#m107e1ea524" y="184.068159"/>
     <use style="fill:#1f77b4;stroke:#1f77b4;" x="276.493756" xlink:href="#m107e1ea524" y="234.36023"/>
     <use style="fill:#1f77b4;stroke:#1f77b4;" x="280.748523" xlink:href="#m107e1ea524" y="215.201346"/>
     <use style="fill:#1f77b4;stroke:#1f77b4;" x="285.00329" xlink:href="#m107e1ea524" y="241.544811"/>
     <use style="fill:#1f77b4;stroke:#1f77b4;" x="289.258057" xlink:href="#m107e1ea524" y="229.570509"/>
     <use style="fill:#1f77b4;stroke:#1f77b4;" x="293.512824" xlink:href="#m107e1ea524" y="196.042461"/>
     <use style="fill:#1f77b4;stroke:#1f77b4;" x="297.767591" xlink:href="#m107e1ea524" y="205.621903"/>
     <use style="fill:#1f77b4;stroke:#1f77b4;" x="302.022358" xlink:href="#m107e1ea524" y="205.621903"/>
     <use style="fill:#1f77b4;stroke:#1f77b4;" x="306.277125" xlink:href="#m107e1ea524" y="145.75039"/>
     <use style="fill:#1f77b4;stroke:#1f77b4;" x="310.531892" xlink:href="#m107e1ea524" y="241.544811"/>
     <use style="fill:#1f77b4;stroke:#1f77b4;" x="314.786659" xlink:href="#m107e1ea524" y="258.308835"/>
     <use style="fill:#1f77b4;stroke:#1f77b4;" x="319.041426" xlink:href="#m107e1ea524" y="236.75509"/>
     <use style="fill:#1f77b4;stroke:#1f77b4;" x="323.296193" xlink:href="#m107e1ea524" y="229.570509"/>
     <use style="fill:#1f77b4;stroke:#1f77b4;" x="327.55096" xlink:href="#m107e1ea524" y="234.36023"/>
     <use style="fill:#1f77b4;stroke:#1f77b4;" x="331.805727" xlink:href="#m107e1ea524" y="246.334532"/>
     <use style="fill:#1f77b4;stroke:#1f77b4;" x="336.060495" xlink:href="#m107e1ea524" y="217.596206"/>
     <use style="fill:#1f77b4;stroke:#1f77b4;" x="340.315262" xlink:href="#m107e1ea524" y="263.098556"/>
     <use style="fill:#1f77b4;stroke:#1f77b4;" x="344.570029" xlink:href="#m107e1ea524" y="267.888277"/>
     <use style="fill:#1f77b4;stroke:#1f77b4;" x="348.824796" xlink:href="#m107e1ea524" y="253.519114"/>
     <use style="fill:#1f77b4;stroke:#1f77b4;" x="353.079563" xlink:href="#m107e1ea524" y="258.308835"/>
     <use style="fill:#1f77b4;stroke:#1f77b4;" x="357.33433" xlink:href="#m107e1ea524" y="270.283138"/>
     <use style="fill:#1f77b4;stroke:#1f77b4;" x="361.589097" xlink:href="#m107e1ea524" y="253.519114"/>
     <use style="fill:#1f77b4;stroke:#1f77b4;" x="365.843864" xlink:href="#m107e1ea524" y="260.703695"/>
     <use style="fill:#1f77b4;stroke:#1f77b4;" x="370.098631" xlink:href="#m107e1ea524" y="265.493417"/>
     <use style="fill:#1f77b4;stroke:#1f77b4;" x="374.353398" xlink:href="#m107e1ea524" y="279.86258"/>
     <use style="fill:#1f77b4;stroke:#1f77b4;" x="378.608165" xlink:href="#m107e1ea524" y="275.072859"/>
     <use style="fill:#1f77b4;stroke:#1f77b4;" x="382.862932" xlink:href="#m107e1ea524" y="253.519114"/>
     <use style="fill:#1f77b4;stroke:#1f77b4;" x="387.117699" xlink:href="#m107e1ea524" y="260.703695"/>
     <use style="fill:#1f77b4;stroke:#1f77b4;" x="391.372466" xlink:href="#m107e1ea524" y="265.493417"/>
     <use style="fill:#1f77b4;stroke:#1f77b4;" x="395.627233" xlink:href="#m107e1ea524" y="258.308835"/>
     <use style="fill:#1f77b4;stroke:#1f77b4;" x="399.882" xlink:href="#m107e1ea524" y="265.493417"/>
     <use style="fill:#1f77b4;stroke:#1f77b4;" x="404.136767" xlink:href="#m107e1ea524" y="272.677998"/>
     <use style="fill:#1f77b4;stroke:#1f77b4;" x="408.391535" xlink:href="#m107e1ea524" y="279.86258"/>
     <use style="fill:#1f77b4;stroke:#1f77b4;" x="412.646302" xlink:href="#m107e1ea524" y="270.283138"/>
     <use style="fill:#1f77b4;stroke:#1f77b4;" x="416.901069" xlink:href="#m107e1ea524" y="277.467719"/>
    </g>
   </g>
   <g id="patch_3">
    <path d="M 50.565625 279.86258 
L 50.565625 10.8 
" style="fill:none;stroke:#000000;stroke-linecap:square;stroke-linejoin:miter;stroke-width:0.8;"/>
   </g>
   <g id="patch_4">
    <path d="M 434.345614 279.86258 
L 434.345614 10.8 
" style="fill:none;stroke:#000000;stroke-linecap:square;stroke-linejoin:miter;stroke-width:0.8;"/>
   </g>
   <g id="patch_5">
    <path d="M 50.565625 279.86258 
L 434.345614 279.86258 
" style="fill:none;stroke:#000000;stroke-linecap:square;stroke-linejoin:miter;stroke-width:0.8;"/>
   </g>
   <g id="patch_6">
    <path d="M 50.565625 10.8 
L 434.345614 10.8 
" style="fill:none;stroke:#000000;stroke-linecap:square;stroke-linejoin:miter;stroke-width:0.8;"/>
   </g>
  </g>
 </g>
 <defs>
  <clipPath id="p07c3efcfa7">
   <rect height="269.06258" width="383.779989" x="50.565625" y="10.8"/>
  </clipPath>
 </defs>
</svg>
