<?xml version="1.0" encoding="utf-8" standalone="no"?>
<!DOCTYPE svg PUBLIC "-//W3C//DTD SVG 1.1//EN"
  "http://www.w3.org/Graphics/SVG/1.1/DTD/svg11.dtd">
<!-- Created with matplotlib (https://matplotlib.org/) -->
<svg height="345.6pt" version="1.1" viewBox="0 0 460.8 345.6" width="460.8pt" xmlns="http://www.w3.org/2000/svg" xmlns:xlink="http://www.w3.org/1999/xlink">
 <defs>
  <style type="text/css">
*{stroke-linecap:butt;stroke-linejoin:round;}
  </style>
 </defs>
 <g id="figure_1">
  <g id="patch_1">
   <path d="M 0 345.6 
L 460.8 345.6 
L 460.8 0 
L 0 0 
z
" style="fill:#ffffff;"/>
  </g>
  <g id="axes_1">
   <g id="patch_2">
    <path d="M 56.928125 279.86258 
L 430.239775 279.86258 
L 430.239775 10.8 
L 56.928125 10.8 
z
" style="fill:#ffffff;"/>
   </g>
   <g id="matplotlib.axis_1">
    <g id="xtick_1">
     <g id="line2d_1">
      <defs>
       <path d="M 0 0 
L 0 3.5 
" id="m1986c91035" style="stroke:#000000;stroke-width:0.8;"/>
      </defs>
      <g>
       <use style="stroke:#000000;stroke-width:0.8;" x="111.605084" xlink:href="#m1986c91035" y="279.86258"/>
      </g>
     </g>
     <g id="text_1">
      <!-- 2020-03-01 -->
      <defs>
       <path d="M 19.1875 8.296875 
L 53.609375 8.296875 
L 53.609375 0 
L 7.328125 0 
L 7.328125 8.296875 
Q 12.9375 14.109375 22.625 23.890625 
Q 32.328125 33.6875 34.8125 36.53125 
Q 39.546875 41.84375 41.421875 45.53125 
Q 43.3125 49.21875 43.3125 52.78125 
Q 43.3125 58.59375 39.234375 62.25 
Q 35.15625 65.921875 28.609375 65.921875 
Q 23.96875 65.921875 18.8125 64.3125 
Q 13.671875 62.703125 7.8125 59.421875 
L 7.8125 69.390625 
Q 13.765625 71.78125 18.9375 73 
Q 24.125 74.21875 28.421875 74.21875 
Q 39.75 74.21875 46.484375 68.546875 
Q 53.21875 62.890625 53.21875 53.421875 
Q 53.21875 48.921875 51.53125 44.890625 
Q 49.859375 40.875 45.40625 35.40625 
Q 44.1875 33.984375 37.640625 27.21875 
Q 31.109375 20.453125 19.1875 8.296875 
z
" id="DejaVuSans-50"/>
       <path d="M 31.78125 66.40625 
Q 24.171875 66.40625 20.328125 58.90625 
Q 16.5 51.421875 16.5 36.375 
Q 16.5 21.390625 20.328125 13.890625 
Q 24.171875 6.390625 31.78125 6.390625 
Q 39.453125 6.390625 43.28125 13.890625 
Q 47.125 21.390625 47.125 36.375 
Q 47.125 51.421875 43.28125 58.90625 
Q 39.453125 66.40625 31.78125 66.40625 
z
M 31.78125 74.21875 
Q 44.046875 74.21875 50.515625 64.515625 
Q 56.984375 54.828125 56.984375 36.375 
Q 56.984375 17.96875 50.515625 8.265625 
Q 44.046875 -1.421875 31.78125 -1.421875 
Q 19.53125 -1.421875 13.0625 8.265625 
Q 6.59375 17.96875 6.59375 36.375 
Q 6.59375 54.828125 13.0625 64.515625 
Q 19.53125 74.21875 31.78125 74.21875 
z
" id="DejaVuSans-48"/>
       <path d="M 4.890625 31.390625 
L 31.203125 31.390625 
L 31.203125 23.390625 
L 4.890625 23.390625 
z
" id="DejaVuSans-45"/>
       <path d="M 40.578125 39.3125 
Q 47.65625 37.796875 51.625 33 
Q 55.609375 28.21875 55.609375 21.1875 
Q 55.609375 10.40625 48.1875 4.484375 
Q 40.765625 -1.421875 27.09375 -1.421875 
Q 22.515625 -1.421875 17.65625 -0.515625 
Q 12.796875 0.390625 7.625 2.203125 
L 7.625 11.71875 
Q 11.71875 9.328125 16.59375 8.109375 
Q 21.484375 6.890625 26.8125 6.890625 
Q 36.078125 6.890625 40.9375 10.546875 
Q 45.796875 14.203125 45.796875 21.1875 
Q 45.796875 27.640625 41.28125 31.265625 
Q 36.765625 34.90625 28.71875 34.90625 
L 20.21875 34.90625 
L 20.21875 43.015625 
L 29.109375 43.015625 
Q 36.375 43.015625 40.234375 45.921875 
Q 44.09375 48.828125 44.09375 54.296875 
Q 44.09375 59.90625 40.109375 62.90625 
Q 36.140625 65.921875 28.71875 65.921875 
Q 24.65625 65.921875 20.015625 65.03125 
Q 15.375 64.15625 9.8125 62.3125 
L 9.8125 71.09375 
Q 15.4375 72.65625 20.34375 73.4375 
Q 25.25 74.21875 29.59375 74.21875 
Q 40.828125 74.21875 47.359375 69.109375 
Q 53.90625 64.015625 53.90625 55.328125 
Q 53.90625 49.265625 50.4375 45.09375 
Q 46.96875 40.921875 40.578125 39.3125 
z
" id="DejaVuSans-51"/>
       <path d="M 12.40625 8.296875 
L 28.515625 8.296875 
L 28.515625 63.921875 
L 10.984375 60.40625 
L 10.984375 69.390625 
L 28.421875 72.90625 
L 38.28125 72.90625 
L 38.28125 8.296875 
L 54.390625 8.296875 
L 54.390625 0 
L 12.40625 0 
z
" id="DejaVuSans-49"/>
      </defs>
      <g transform="translate(93.00928 333.329439)rotate(-45)scale(0.1 -0.1)">
       <use xlink:href="#DejaVuSans-50"/>
       <use x="63.623047" xlink:href="#DejaVuSans-48"/>
       <use x="127.246094" xlink:href="#DejaVuSans-50"/>
       <use x="190.869141" xlink:href="#DejaVuSans-48"/>
       <use x="254.492188" xlink:href="#DejaVuSans-45"/>
       <use x="290.576172" xlink:href="#DejaVuSans-48"/>
       <use x="354.199219" xlink:href="#DejaVuSans-51"/>
       <use x="417.822266" xlink:href="#DejaVuSans-45"/>
       <use x="453.90625" xlink:href="#DejaVuSans-48"/>
       <use x="517.529297" xlink:href="#DejaVuSans-49"/>
      </g>
     </g>
    </g>
    <g id="xtick_2">
     <g id="line2d_2">
      <g>
       <use style="stroke:#000000;stroke-width:0.8;" x="170.262358" xlink:href="#m1986c91035" y="279.86258"/>
      </g>
     </g>
     <g id="text_2">
      <!-- 2020-03-15 -->
      <defs>
       <path d="M 10.796875 72.90625 
L 49.515625 72.90625 
L 49.515625 64.59375 
L 19.828125 64.59375 
L 19.828125 46.734375 
Q 21.96875 47.46875 24.109375 47.828125 
Q 26.265625 48.1875 28.421875 48.1875 
Q 40.625 48.1875 47.75 41.5 
Q 54.890625 34.8125 54.890625 23.390625 
Q 54.890625 11.625 47.5625 5.09375 
Q 40.234375 -1.421875 26.90625 -1.421875 
Q 22.3125 -1.421875 17.546875 -0.640625 
Q 12.796875 0.140625 7.71875 1.703125 
L 7.71875 11.625 
Q 12.109375 9.234375 16.796875 8.0625 
Q 21.484375 6.890625 26.703125 6.890625 
Q 35.15625 6.890625 40.078125 11.328125 
Q 45.015625 15.765625 45.015625 23.390625 
Q 45.015625 31 40.078125 35.4375 
Q 35.15625 39.890625 26.703125 39.890625 
Q 22.75 39.890625 18.8125 39.015625 
Q 14.890625 38.140625 10.796875 36.28125 
z
" id="DejaVuSans-53"/>
      </defs>
      <g transform="translate(151.666554 333.329439)rotate(-45)scale(0.1 -0.1)">
       <use xlink:href="#DejaVuSans-50"/>
       <use x="63.623047" xlink:href="#DejaVuSans-48"/>
       <use x="127.246094" xlink:href="#DejaVuSans-50"/>
       <use x="190.869141" xlink:href="#DejaVuSans-48"/>
       <use x="254.492188" xlink:href="#DejaVuSans-45"/>
       <use x="290.576172" xlink:href="#DejaVuSans-48"/>
       <use x="354.199219" xlink:href="#DejaVuSans-51"/>
       <use x="417.822266" xlink:href="#DejaVuSans-45"/>
       <use x="453.90625" xlink:href="#DejaVuSans-49"/>
       <use x="517.529297" xlink:href="#DejaVuSans-53"/>
      </g>
     </g>
    </g>
    <g id="xtick_3">
     <g id="line2d_3">
      <g>
       <use style="stroke:#000000;stroke-width:0.8;" x="241.489047" xlink:href="#m1986c91035" y="279.86258"/>
      </g>
     </g>
     <g id="text_3">
      <!-- 2020-04-01 -->
      <defs>
       <path d="M 37.796875 64.3125 
L 12.890625 25.390625 
L 37.796875 25.390625 
z
M 35.203125 72.90625 
L 47.609375 72.90625 
L 47.609375 25.390625 
L 58.015625 25.390625 
L 58.015625 17.1875 
L 47.609375 17.1875 
L 47.609375 0 
L 37.796875 0 
L 37.796875 17.1875 
L 4.890625 17.1875 
L 4.890625 26.703125 
z
" id="DejaVuSans-52"/>
      </defs>
      <g transform="translate(222.893244 333.329439)rotate(-45)scale(0.1 -0.1)">
       <use xlink:href="#DejaVuSans-50"/>
       <use x="63.623047" xlink:href="#DejaVuSans-48"/>
       <use x="127.246094" xlink:href="#DejaVuSans-50"/>
       <use x="190.869141" xlink:href="#DejaVuSans-48"/>
       <use x="254.492188" xlink:href="#DejaVuSans-45"/>
       <use x="290.576172" xlink:href="#DejaVuSans-48"/>
       <use x="354.199219" xlink:href="#DejaVuSans-52"/>
       <use x="417.822266" xlink:href="#DejaVuSans-45"/>
       <use x="453.90625" xlink:href="#DejaVuSans-48"/>
       <use x="517.529297" xlink:href="#DejaVuSans-49"/>
      </g>
     </g>
    </g>
    <g id="xtick_4">
     <g id="line2d_4">
      <g>
       <use style="stroke:#000000;stroke-width:0.8;" x="300.146321" xlink:href="#m1986c91035" y="279.86258"/>
      </g>
     </g>
     <g id="text_4">
      <!-- 2020-04-15 -->
      <g transform="translate(281.550518 333.329439)rotate(-45)scale(0.1 -0.1)">
       <use xlink:href="#DejaVuSans-50"/>
       <use x="63.623047" xlink:href="#DejaVuSans-48"/>
       <use x="127.246094" xlink:href="#DejaVuSans-50"/>
       <use x="190.869141" xlink:href="#DejaVuSans-48"/>
       <use x="254.492188" xlink:href="#DejaVuSans-45"/>
       <use x="290.576172" xlink:href="#DejaVuSans-48"/>
       <use x="354.199219" xlink:href="#DejaVuSans-52"/>
       <use x="417.822266" xlink:href="#DejaVuSans-45"/>
       <use x="453.90625" xlink:href="#DejaVuSans-49"/>
       <use x="517.529297" xlink:href="#DejaVuSans-53"/>
      </g>
     </g>
    </g>
    <g id="xtick_5">
     <g id="line2d_5">
      <g>
       <use style="stroke:#000000;stroke-width:0.8;" x="367.183205" xlink:href="#m1986c91035" y="279.86258"/>
      </g>
     </g>
     <g id="text_5">
      <!-- 2020-05-01 -->
      <g transform="translate(348.587402 333.329439)rotate(-45)scale(0.1 -0.1)">
       <use xlink:href="#DejaVuSans-50"/>
       <use x="63.623047" xlink:href="#DejaVuSans-48"/>
       <use x="127.246094" xlink:href="#DejaVuSans-50"/>
       <use x="190.869141" xlink:href="#DejaVuSans-48"/>
       <use x="254.492188" xlink:href="#DejaVuSans-45"/>
       <use x="290.576172" xlink:href="#DejaVuSans-48"/>
       <use x="354.199219" xlink:href="#DejaVuSans-53"/>
       <use x="417.822266" xlink:href="#DejaVuSans-45"/>
       <use x="453.90625" xlink:href="#DejaVuSans-48"/>
       <use x="517.529297" xlink:href="#DejaVuSans-49"/>
      </g>
     </g>
    </g>
    <g id="xtick_6">
     <g id="line2d_6">
      <g>
       <use style="stroke:#000000;stroke-width:0.8;" x="425.840479" xlink:href="#m1986c91035" y="279.86258"/>
      </g>
     </g>
     <g id="text_6">
      <!-- 2020-05-15 -->
      <g transform="translate(407.244676 333.329439)rotate(-45)scale(0.1 -0.1)">
       <use xlink:href="#DejaVuSans-50"/>
       <use x="63.623047" xlink:href="#DejaVuSans-48"/>
       <use x="127.246094" xlink:href="#DejaVuSans-50"/>
       <use x="190.869141" xlink:href="#DejaVuSans-48"/>
       <use x="254.492188" xlink:href="#DejaVuSans-45"/>
       <use x="290.576172" xlink:href="#DejaVuSans-48"/>
       <use x="354.199219" xlink:href="#DejaVuSans-53"/>
       <use x="417.822266" xlink:href="#DejaVuSans-45"/>
       <use x="453.90625" xlink:href="#DejaVuSans-49"/>
       <use x="517.529297" xlink:href="#DejaVuSans-53"/>
      </g>
     </g>
    </g>
   </g>
   <g id="matplotlib.axis_2">
    <g id="ytick_1">
     <g id="line2d_7">
      <defs>
       <path d="M 0 0 
L -3.5 0 
" id="mcaf44abd86" style="stroke:#000000;stroke-width:0.8;"/>
      </defs>
      <g>
       <use style="stroke:#000000;stroke-width:0.8;" x="56.928125" xlink:href="#mcaf44abd86" y="279.86258"/>
      </g>
     </g>
     <g id="text_7">
      <!-- 0 -->
      <g transform="translate(43.565625 283.661798)scale(0.1 -0.1)">
       <use xlink:href="#DejaVuSans-48"/>
      </g>
     </g>
    </g>
    <g id="ytick_2">
     <g id="line2d_8">
      <g>
       <use style="stroke:#000000;stroke-width:0.8;" x="56.928125" xlink:href="#mcaf44abd86" y="223.069566"/>
      </g>
     </g>
     <g id="text_8">
      <!-- 500 -->
      <g transform="translate(30.840625 226.868785)scale(0.1 -0.1)">
       <use xlink:href="#DejaVuSans-53"/>
       <use x="63.623047" xlink:href="#DejaVuSans-48"/>
       <use x="127.246094" xlink:href="#DejaVuSans-48"/>
      </g>
     </g>
    </g>
    <g id="ytick_3">
     <g id="line2d_9">
      <g>
       <use style="stroke:#000000;stroke-width:0.8;" x="56.928125" xlink:href="#mcaf44abd86" y="166.276553"/>
      </g>
     </g>
     <g id="text_9">
      <!-- 1000 -->
      <g transform="translate(24.478125 170.075772)scale(0.1 -0.1)">
       <use xlink:href="#DejaVuSans-49"/>
       <use x="63.623047" xlink:href="#DejaVuSans-48"/>
       <use x="127.246094" xlink:href="#DejaVuSans-48"/>
       <use x="190.869141" xlink:href="#DejaVuSans-48"/>
      </g>
     </g>
    </g>
    <g id="ytick_4">
     <g id="line2d_10">
      <g>
       <use style="stroke:#000000;stroke-width:0.8;" x="56.928125" xlink:href="#mcaf44abd86" y="109.48354"/>
      </g>
     </g>
     <g id="text_10">
      <!-- 1500 -->
      <g transform="translate(24.478125 113.282759)scale(0.1 -0.1)">
       <use xlink:href="#DejaVuSans-49"/>
       <use x="63.623047" xlink:href="#DejaVuSans-53"/>
       <use x="127.246094" xlink:href="#DejaVuSans-48"/>
       <use x="190.869141" xlink:href="#DejaVuSans-48"/>
      </g>
     </g>
    </g>
    <g id="ytick_5">
     <g id="line2d_11">
      <g>
       <use style="stroke:#000000;stroke-width:0.8;" x="56.928125" xlink:href="#mcaf44abd86" y="52.690527"/>
      </g>
     </g>
     <g id="text_11">
      <!-- 2000 -->
      <g transform="translate(24.478125 56.489745)scale(0.1 -0.1)">
       <use xlink:href="#DejaVuSans-50"/>
       <use x="63.623047" xlink:href="#DejaVuSans-48"/>
       <use x="127.246094" xlink:href="#DejaVuSans-48"/>
       <use x="190.869141" xlink:href="#DejaVuSans-48"/>
      </g>
     </g>
    </g>
    <g id="text_12">
     <!-- CB pcr acumulados -->
     <defs>
      <path d="M 64.40625 67.28125 
L 64.40625 56.890625 
Q 59.421875 61.53125 53.78125 63.8125 
Q 48.140625 66.109375 41.796875 66.109375 
Q 29.296875 66.109375 22.65625 58.46875 
Q 16.015625 50.828125 16.015625 36.375 
Q 16.015625 21.96875 22.65625 14.328125 
Q 29.296875 6.6875 41.796875 6.6875 
Q 48.140625 6.6875 53.78125 8.984375 
Q 59.421875 11.28125 64.40625 15.921875 
L 64.40625 5.609375 
Q 59.234375 2.09375 53.4375 0.328125 
Q 47.65625 -1.421875 41.21875 -1.421875 
Q 24.65625 -1.421875 15.125 8.703125 
Q 5.609375 18.84375 5.609375 36.375 
Q 5.609375 53.953125 15.125 64.078125 
Q 24.65625 74.21875 41.21875 74.21875 
Q 47.75 74.21875 53.53125 72.484375 
Q 59.328125 70.75 64.40625 67.28125 
z
" id="DejaVuSans-67"/>
      <path d="M 19.671875 34.8125 
L 19.671875 8.109375 
L 35.5 8.109375 
Q 43.453125 8.109375 47.28125 11.40625 
Q 51.125 14.703125 51.125 21.484375 
Q 51.125 28.328125 47.28125 31.5625 
Q 43.453125 34.8125 35.5 34.8125 
z
M 19.671875 64.796875 
L 19.671875 42.828125 
L 34.28125 42.828125 
Q 41.5 42.828125 45.03125 45.53125 
Q 48.578125 48.25 48.578125 53.8125 
Q 48.578125 59.328125 45.03125 62.0625 
Q 41.5 64.796875 34.28125 64.796875 
z
M 9.8125 72.90625 
L 35.015625 72.90625 
Q 46.296875 72.90625 52.390625 68.21875 
Q 58.5 63.53125 58.5 54.890625 
Q 58.5 48.1875 55.375 44.234375 
Q 52.25 40.28125 46.1875 39.3125 
Q 53.46875 37.75 57.5 32.78125 
Q 61.53125 27.828125 61.53125 20.40625 
Q 61.53125 10.640625 54.890625 5.3125 
Q 48.25 0 35.984375 0 
L 9.8125 0 
z
" id="DejaVuSans-66"/>
      <path id="DejaVuSans-32"/>
      <path d="M 18.109375 8.203125 
L 18.109375 -20.796875 
L 9.078125 -20.796875 
L 9.078125 54.6875 
L 18.109375 54.6875 
L 18.109375 46.390625 
Q 20.953125 51.265625 25.265625 53.625 
Q 29.59375 56 35.59375 56 
Q 45.5625 56 51.78125 48.09375 
Q 58.015625 40.1875 58.015625 27.296875 
Q 58.015625 14.40625 51.78125 6.484375 
Q 45.5625 -1.421875 35.59375 -1.421875 
Q 29.59375 -1.421875 25.265625 0.953125 
Q 20.953125 3.328125 18.109375 8.203125 
z
M 48.6875 27.296875 
Q 48.6875 37.203125 44.609375 42.84375 
Q 40.53125 48.484375 33.40625 48.484375 
Q 26.265625 48.484375 22.1875 42.84375 
Q 18.109375 37.203125 18.109375 27.296875 
Q 18.109375 17.390625 22.1875 11.75 
Q 26.265625 6.109375 33.40625 6.109375 
Q 40.53125 6.109375 44.609375 11.75 
Q 48.6875 17.390625 48.6875 27.296875 
z
" id="DejaVuSans-112"/>
      <path d="M 48.78125 52.59375 
L 48.78125 44.1875 
Q 44.96875 46.296875 41.140625 47.34375 
Q 37.3125 48.390625 33.40625 48.390625 
Q 24.65625 48.390625 19.8125 42.84375 
Q 14.984375 37.3125 14.984375 27.296875 
Q 14.984375 17.28125 19.8125 11.734375 
Q 24.65625 6.203125 33.40625 6.203125 
Q 37.3125 6.203125 41.140625 7.25 
Q 44.96875 8.296875 48.78125 10.40625 
L 48.78125 2.09375 
Q 45.015625 0.34375 40.984375 -0.53125 
Q 36.96875 -1.421875 32.421875 -1.421875 
Q 20.0625 -1.421875 12.78125 6.34375 
Q 5.515625 14.109375 5.515625 27.296875 
Q 5.515625 40.671875 12.859375 48.328125 
Q 20.21875 56 33.015625 56 
Q 37.15625 56 41.109375 55.140625 
Q 45.0625 54.296875 48.78125 52.59375 
z
" id="DejaVuSans-99"/>
      <path d="M 41.109375 46.296875 
Q 39.59375 47.171875 37.8125 47.578125 
Q 36.03125 48 33.890625 48 
Q 26.265625 48 22.1875 43.046875 
Q 18.109375 38.09375 18.109375 28.8125 
L 18.109375 0 
L 9.078125 0 
L 9.078125 54.6875 
L 18.109375 54.6875 
L 18.109375 46.1875 
Q 20.953125 51.171875 25.484375 53.578125 
Q 30.03125 56 36.53125 56 
Q 37.453125 56 38.578125 55.875 
Q 39.703125 55.765625 41.0625 55.515625 
z
" id="DejaVuSans-114"/>
      <path d="M 34.28125 27.484375 
Q 23.390625 27.484375 19.1875 25 
Q 14.984375 22.515625 14.984375 16.5 
Q 14.984375 11.71875 18.140625 8.90625 
Q 21.296875 6.109375 26.703125 6.109375 
Q 34.1875 6.109375 38.703125 11.40625 
Q 43.21875 16.703125 43.21875 25.484375 
L 43.21875 27.484375 
z
M 52.203125 31.203125 
L 52.203125 0 
L 43.21875 0 
L 43.21875 8.296875 
Q 40.140625 3.328125 35.546875 0.953125 
Q 30.953125 -1.421875 24.3125 -1.421875 
Q 15.921875 -1.421875 10.953125 3.296875 
Q 6 8.015625 6 15.921875 
Q 6 25.140625 12.171875 29.828125 
Q 18.359375 34.515625 30.609375 34.515625 
L 43.21875 34.515625 
L 43.21875 35.40625 
Q 43.21875 41.609375 39.140625 45 
Q 35.0625 48.390625 27.6875 48.390625 
Q 23 48.390625 18.546875 47.265625 
Q 14.109375 46.140625 10.015625 43.890625 
L 10.015625 52.203125 
Q 14.9375 54.109375 19.578125 55.046875 
Q 24.21875 56 28.609375 56 
Q 40.484375 56 46.34375 49.84375 
Q 52.203125 43.703125 52.203125 31.203125 
z
" id="DejaVuSans-97"/>
      <path d="M 8.5 21.578125 
L 8.5 54.6875 
L 17.484375 54.6875 
L 17.484375 21.921875 
Q 17.484375 14.15625 20.5 10.265625 
Q 23.53125 6.390625 29.59375 6.390625 
Q 36.859375 6.390625 41.078125 11.03125 
Q 45.3125 15.671875 45.3125 23.6875 
L 45.3125 54.6875 
L 54.296875 54.6875 
L 54.296875 0 
L 45.3125 0 
L 45.3125 8.40625 
Q 42.046875 3.421875 37.71875 1 
Q 33.40625 -1.421875 27.6875 -1.421875 
Q 18.265625 -1.421875 13.375 4.4375 
Q 8.5 10.296875 8.5 21.578125 
z
M 31.109375 56 
z
" id="DejaVuSans-117"/>
      <path d="M 52 44.1875 
Q 55.375 50.25 60.0625 53.125 
Q 64.75 56 71.09375 56 
Q 79.640625 56 84.28125 50.015625 
Q 88.921875 44.046875 88.921875 33.015625 
L 88.921875 0 
L 79.890625 0 
L 79.890625 32.71875 
Q 79.890625 40.578125 77.09375 44.375 
Q 74.3125 48.1875 68.609375 48.1875 
Q 61.625 48.1875 57.5625 43.546875 
Q 53.515625 38.921875 53.515625 30.90625 
L 53.515625 0 
L 44.484375 0 
L 44.484375 32.71875 
Q 44.484375 40.625 41.703125 44.40625 
Q 38.921875 48.1875 33.109375 48.1875 
Q 26.21875 48.1875 22.15625 43.53125 
Q 18.109375 38.875 18.109375 30.90625 
L 18.109375 0 
L 9.078125 0 
L 9.078125 54.6875 
L 18.109375 54.6875 
L 18.109375 46.1875 
Q 21.1875 51.21875 25.484375 53.609375 
Q 29.78125 56 35.6875 56 
Q 41.65625 56 45.828125 52.96875 
Q 50 49.953125 52 44.1875 
z
" id="DejaVuSans-109"/>
      <path d="M 9.421875 75.984375 
L 18.40625 75.984375 
L 18.40625 0 
L 9.421875 0 
z
" id="DejaVuSans-108"/>
      <path d="M 45.40625 46.390625 
L 45.40625 75.984375 
L 54.390625 75.984375 
L 54.390625 0 
L 45.40625 0 
L 45.40625 8.203125 
Q 42.578125 3.328125 38.25 0.953125 
Q 33.9375 -1.421875 27.875 -1.421875 
Q 17.96875 -1.421875 11.734375 6.484375 
Q 5.515625 14.40625 5.515625 27.296875 
Q 5.515625 40.1875 11.734375 48.09375 
Q 17.96875 56 27.875 56 
Q 33.9375 56 38.25 53.625 
Q 42.578125 51.265625 45.40625 46.390625 
z
M 14.796875 27.296875 
Q 14.796875 17.390625 18.875 11.75 
Q 22.953125 6.109375 30.078125 6.109375 
Q 37.203125 6.109375 41.296875 11.75 
Q 45.40625 17.390625 45.40625 27.296875 
Q 45.40625 37.203125 41.296875 42.84375 
Q 37.203125 48.484375 30.078125 48.484375 
Q 22.953125 48.484375 18.875 42.84375 
Q 14.796875 37.203125 14.796875 27.296875 
z
" id="DejaVuSans-100"/>
      <path d="M 30.609375 48.390625 
Q 23.390625 48.390625 19.1875 42.75 
Q 14.984375 37.109375 14.984375 27.296875 
Q 14.984375 17.484375 19.15625 11.84375 
Q 23.34375 6.203125 30.609375 6.203125 
Q 37.796875 6.203125 41.984375 11.859375 
Q 46.1875 17.53125 46.1875 27.296875 
Q 46.1875 37.015625 41.984375 42.703125 
Q 37.796875 48.390625 30.609375 48.390625 
z
M 30.609375 56 
Q 42.328125 56 49.015625 48.375 
Q 55.71875 40.765625 55.71875 27.296875 
Q 55.71875 13.875 49.015625 6.21875 
Q 42.328125 -1.421875 30.609375 -1.421875 
Q 18.84375 -1.421875 12.171875 6.21875 
Q 5.515625 13.875 5.515625 27.296875 
Q 5.515625 40.765625 12.171875 48.375 
Q 18.84375 56 30.609375 56 
z
" id="DejaVuSans-111"/>
      <path d="M 44.28125 53.078125 
L 44.28125 44.578125 
Q 40.484375 46.53125 36.375 47.5 
Q 32.28125 48.484375 27.875 48.484375 
Q 21.1875 48.484375 17.84375 46.4375 
Q 14.5 44.390625 14.5 40.28125 
Q 14.5 37.15625 16.890625 35.375 
Q 19.28125 33.59375 26.515625 31.984375 
L 29.59375 31.296875 
Q 39.15625 29.25 43.1875 25.515625 
Q 47.21875 21.78125 47.21875 15.09375 
Q 47.21875 7.46875 41.1875 3.015625 
Q 35.15625 -1.421875 24.609375 -1.421875 
Q 20.21875 -1.421875 15.453125 -0.5625 
Q 10.6875 0.296875 5.421875 2 
L 5.421875 11.28125 
Q 10.40625 8.6875 15.234375 7.390625 
Q 20.0625 6.109375 24.8125 6.109375 
Q 31.15625 6.109375 34.5625 8.28125 
Q 37.984375 10.453125 37.984375 14.40625 
Q 37.984375 18.0625 35.515625 20.015625 
Q 33.0625 21.96875 24.703125 23.78125 
L 21.578125 24.515625 
Q 13.234375 26.265625 9.515625 29.90625 
Q 5.8125 33.546875 5.8125 39.890625 
Q 5.8125 47.609375 11.28125 51.796875 
Q 16.75 56 26.8125 56 
Q 31.78125 56 36.171875 55.265625 
Q 40.578125 54.546875 44.28125 53.078125 
z
" id="DejaVuSans-115"/>
     </defs>
     <g transform="translate(18.398438 193.722696)rotate(-90)scale(0.1 -0.1)">
      <use xlink:href="#DejaVuSans-67"/>
      <use x="69.824219" xlink:href="#DejaVuSans-66"/>
      <use x="138.427734" xlink:href="#DejaVuSans-32"/>
      <use x="170.214844" xlink:href="#DejaVuSans-112"/>
      <use x="233.691406" xlink:href="#DejaVuSans-99"/>
      <use x="288.671875" xlink:href="#DejaVuSans-114"/>
      <use x="329.785156" xlink:href="#DejaVuSans-32"/>
      <use x="361.572266" xlink:href="#DejaVuSans-97"/>
      <use x="422.851562" xlink:href="#DejaVuSans-99"/>
      <use x="477.832031" xlink:href="#DejaVuSans-117"/>
      <use x="541.210938" xlink:href="#DejaVuSans-109"/>
      <use x="638.623047" xlink:href="#DejaVuSans-117"/>
      <use x="702.001953" xlink:href="#DejaVuSans-108"/>
      <use x="729.785156" xlink:href="#DejaVuSans-97"/>
      <use x="791.064453" xlink:href="#DejaVuSans-100"/>
      <use x="854.541016" xlink:href="#DejaVuSans-111"/>
      <use x="915.722656" xlink:href="#DejaVuSans-115"/>
     </g>
    </g>
   </g>
   <g id="line2d_12">
    <path clip-path="url(#pcde5e5c9ec)" d="M 73.896836 279.86258 
L 78.086642 279.86258 
L 82.276447 279.86258 
L 86.466252 279.86258 
L 90.656057 279.86258 
L 94.845863 279.86258 
L 99.035668 279.86258 
L 103.225473 279.86258 
L 107.415279 279.748994 
L 111.605084 278.726719 
L 115.794889 278.726719 
L 119.984694 278.726719 
L 124.1745 278.726719 
L 128.364305 278.726719 
L 132.55411 278.726719 
L 136.743915 278.499547 
L 140.933721 278.499547 
L 145.123526 278.499547 
L 149.313331 278.499547 
L 153.503137 278.045203 
L 157.692942 276.568585 
L 161.882747 276.341413 
L 166.072552 274.069692 
L 170.262358 273.27459 
L 174.452163 273.27459 
L 178.641968 272.13873 
L 182.831773 270.434939 
L 187.021579 263.506192 
L 191.211384 255.441584 
L 195.401189 247.83132 
L 199.590994 240.448228 
L 203.7808 231.588518 
L 207.970605 221.933706 
L 212.16041 203.646356 
L 216.350216 187.857898 
L 220.540021 173.432473 
L 224.729826 163.664075 
L 228.919631 154.91795 
L 233.109437 146.853343 
L 237.299242 142.082729 
L 241.489047 135.835498 
L 245.678852 129.815439 
L 249.868658 122.659519 
L 254.058463 116.185115 
L 258.248268 111.414502 
L 262.438074 109.369954 
L 266.627879 101.305346 
L 270.817684 95.966803 
L 275.007489 91.423362 
L 279.197295 84.6082 
L 283.3871 80.859861 
L 287.576905 78.020211 
L 291.76671 75.862076 
L 295.956516 72.795253 
L 300.146321 70.296361 
L 304.336126 65.866506 
L 308.525932 53.826387 
L 312.715737 58.483414 
L 316.905542 55.757349 
L 321.095347 52.917699 
L 325.285153 51.327494 
L 329.474958 50.078048 
L 333.664763 46.443295 
L 337.854568 44.625919 
L 342.044374 43.262886 
L 346.234179 40.87758 
L 350.423984 39.628134 
L 354.61379 36.106967 
L 358.803595 33.040144 
L 362.9934 31.790698 
L 367.183205 29.859735 
L 371.373011 29.405391 
L 375.562816 29.291805 
L 379.752621 29.178219 
L 383.942426 28.496703 
L 388.132232 27.701601 
L 392.322037 26.338568 
L 396.511842 25.316294 
L 400.701648 24.975536 
L 404.891453 24.86195 
L 409.081258 24.748364 
L 413.271063 23.612504 
" style="fill:none;stroke:#1f77b4;stroke-linecap:square;stroke-width:1.5;"/>
    <defs>
     <path d="M 0 1.5 
C 0.397805 1.5 0.77937 1.341951 1.06066 1.06066 
C 1.341951 0.77937 1.5 0.397805 1.5 0 
C 1.5 -0.397805 1.341951 -0.77937 1.06066 -1.06066 
C 0.77937 -1.341951 0.397805 -1.5 0 -1.5 
C -0.397805 -1.5 -0.77937 -1.341951 -1.06066 -1.06066 
C -1.341951 -0.77937 -1.5 -0.397805 -1.5 0 
C -1.5 0.397805 -1.341951 0.77937 -1.06066 1.06066 
C -0.77937 1.341951 -0.397805 1.5 0 1.5 
z
" id="m599af493fc" style="stroke:#1f77b4;"/>
    </defs>
    <g clip-path="url(#pcde5e5c9ec)">
     <use style="fill:#1f77b4;stroke:#1f77b4;" x="73.896836" xlink:href="#m599af493fc" y="279.86258"/>
     <use style="fill:#1f77b4;stroke:#1f77b4;" x="78.086642" xlink:href="#m599af493fc" y="279.86258"/>
     <use style="fill:#1f77b4;stroke:#1f77b4;" x="82.276447" xlink:href="#m599af493fc" y="279.86258"/>
     <use style="fill:#1f77b4;stroke:#1f77b4;" x="86.466252" xlink:href="#m599af493fc" y="279.86258"/>
     <use style="fill:#1f77b4;stroke:#1f77b4;" x="90.656057" xlink:href="#m599af493fc" y="279.86258"/>
     <use style="fill:#1f77b4;stroke:#1f77b4;" x="94.845863" xlink:href="#m599af493fc" y="279.86258"/>
     <use style="fill:#1f77b4;stroke:#1f77b4;" x="99.035668" xlink:href="#m599af493fc" y="279.86258"/>
     <use style="fill:#1f77b4;stroke:#1f77b4;" x="103.225473" xlink:href="#m599af493fc" y="279.86258"/>
     <use style="fill:#1f77b4;stroke:#1f77b4;" x="107.415279" xlink:href="#m599af493fc" y="279.748994"/>
     <use style="fill:#1f77b4;stroke:#1f77b4;" x="111.605084" xlink:href="#m599af493fc" y="278.726719"/>
     <use style="fill:#1f77b4;stroke:#1f77b4;" x="115.794889" xlink:href="#m599af493fc" y="278.726719"/>
     <use style="fill:#1f77b4;stroke:#1f77b4;" x="119.984694" xlink:href="#m599af493fc" y="278.726719"/>
     <use style="fill:#1f77b4;stroke:#1f77b4;" x="124.1745" xlink:href="#m599af493fc" y="278.726719"/>
     <use style="fill:#1f77b4;stroke:#1f77b4;" x="128.364305" xlink:href="#m599af493fc" y="278.726719"/>
     <use style="fill:#1f77b4;stroke:#1f77b4;" x="132.55411" xlink:href="#m599af493fc" y="278.726719"/>
     <use style="fill:#1f77b4;stroke:#1f77b4;" x="136.743915" xlink:href="#m599af493fc" y="278.499547"/>
     <use style="fill:#1f77b4;stroke:#1f77b4;" x="140.933721" xlink:href="#m599af493fc" y="278.499547"/>
     <use style="fill:#1f77b4;stroke:#1f77b4;" x="145.123526" xlink:href="#m599af493fc" y="278.499547"/>
     <use style="fill:#1f77b4;stroke:#1f77b4;" x="149.313331" xlink:href="#m599af493fc" y="278.499547"/>
     <use style="fill:#1f77b4;stroke:#1f77b4;" x="153.503137" xlink:href="#m599af493fc" y="278.045203"/>
     <use style="fill:#1f77b4;stroke:#1f77b4;" x="157.692942" xlink:href="#m599af493fc" y="276.568585"/>
     <use style="fill:#1f77b4;stroke:#1f77b4;" x="161.882747" xlink:href="#m599af493fc" y="276.341413"/>
     <use style="fill:#1f77b4;stroke:#1f77b4;" x="166.072552" xlink:href="#m599af493fc" y="274.069692"/>
     <use style="fill:#1f77b4;stroke:#1f77b4;" x="170.262358" xlink:href="#m599af493fc" y="273.27459"/>
     <use style="fill:#1f77b4;stroke:#1f77b4;" x="174.452163" xlink:href="#m599af493fc" y="273.27459"/>
     <use style="fill:#1f77b4;stroke:#1f77b4;" x="178.641968" xlink:href="#m599af493fc" y="272.13873"/>
     <use style="fill:#1f77b4;stroke:#1f77b4;" x="182.831773" xlink:href="#m599af493fc" y="270.434939"/>
     <use style="fill:#1f77b4;stroke:#1f77b4;" x="187.021579" xlink:href="#m599af493fc" y="263.506192"/>
     <use style="fill:#1f77b4;stroke:#1f77b4;" x="191.211384" xlink:href="#m599af493fc" y="255.441584"/>
     <use style="fill:#1f77b4;stroke:#1f77b4;" x="195.401189" xlink:href="#m599af493fc" y="247.83132"/>
     <use style="fill:#1f77b4;stroke:#1f77b4;" x="199.590994" xlink:href="#m599af493fc" y="240.448228"/>
     <use style="fill:#1f77b4;stroke:#1f77b4;" x="203.7808" xlink:href="#m599af493fc" y="231.588518"/>
     <use style="fill:#1f77b4;stroke:#1f77b4;" x="207.970605" xlink:href="#m599af493fc" y="221.933706"/>
     <use style="fill:#1f77b4;stroke:#1f77b4;" x="212.16041" xlink:href="#m599af493fc" y="203.646356"/>
     <use style="fill:#1f77b4;stroke:#1f77b4;" x="216.350216" xlink:href="#m599af493fc" y="187.857898"/>
     <use style="fill:#1f77b4;stroke:#1f77b4;" x="220.540021" xlink:href="#m599af493fc" y="173.432473"/>
     <use style="fill:#1f77b4;stroke:#1f77b4;" x="224.729826" xlink:href="#m599af493fc" y="163.664075"/>
     <use style="fill:#1f77b4;stroke:#1f77b4;" x="228.919631" xlink:href="#m599af493fc" y="154.91795"/>
     <use style="fill:#1f77b4;stroke:#1f77b4;" x="233.109437" xlink:href="#m599af493fc" y="146.853343"/>
     <use style="fill:#1f77b4;stroke:#1f77b4;" x="237.299242" xlink:href="#m599af493fc" y="142.082729"/>
     <use style="fill:#1f77b4;stroke:#1f77b4;" x="241.489047" xlink:href="#m599af493fc" y="135.835498"/>
     <use style="fill:#1f77b4;stroke:#1f77b4;" x="245.678852" xlink:href="#m599af493fc" y="129.815439"/>
     <use style="fill:#1f77b4;stroke:#1f77b4;" x="249.868658" xlink:href="#m599af493fc" y="122.659519"/>
     <use style="fill:#1f77b4;stroke:#1f77b4;" x="254.058463" xlink:href="#m599af493fc" y="116.185115"/>
     <use style="fill:#1f77b4;stroke:#1f77b4;" x="258.248268" xlink:href="#m599af493fc" y="111.414502"/>
     <use style="fill:#1f77b4;stroke:#1f77b4;" x="262.438074" xlink:href="#m599af493fc" y="109.369954"/>
     <use style="fill:#1f77b4;stroke:#1f77b4;" x="266.627879" xlink:href="#m599af493fc" y="101.305346"/>
     <use style="fill:#1f77b4;stroke:#1f77b4;" x="270.817684" xlink:href="#m599af493fc" y="95.966803"/>
     <use style="fill:#1f77b4;stroke:#1f77b4;" x="275.007489" xlink:href="#m599af493fc" y="91.423362"/>
     <use style="fill:#1f77b4;stroke:#1f77b4;" x="279.197295" xlink:href="#m599af493fc" y="84.6082"/>
     <use style="fill:#1f77b4;stroke:#1f77b4;" x="283.3871" xlink:href="#m599af493fc" y="80.859861"/>
     <use style="fill:#1f77b4;stroke:#1f77b4;" x="287.576905" xlink:href="#m599af493fc" y="78.020211"/>
     <use style="fill:#1f77b4;stroke:#1f77b4;" x="291.76671" xlink:href="#m599af493fc" y="75.862076"/>
     <use style="fill:#1f77b4;stroke:#1f77b4;" x="295.956516" xlink:href="#m599af493fc" y="72.795253"/>
     <use style="fill:#1f77b4;stroke:#1f77b4;" x="300.146321" xlink:href="#m599af493fc" y="70.296361"/>
     <use style="fill:#1f77b4;stroke:#1f77b4;" x="304.336126" xlink:href="#m599af493fc" y="65.866506"/>
     <use style="fill:#1f77b4;stroke:#1f77b4;" x="308.525932" xlink:href="#m599af493fc" y="53.826387"/>
     <use style="fill:#1f77b4;stroke:#1f77b4;" x="312.715737" xlink:href="#m599af493fc" y="58.483414"/>
     <use style="fill:#1f77b4;stroke:#1f77b4;" x="316.905542" xlink:href="#m599af493fc" y="55.757349"/>
     <use style="fill:#1f77b4;stroke:#1f77b4;" x="321.095347" xlink:href="#m599af493fc" y="52.917699"/>
     <use style="fill:#1f77b4;stroke:#1f77b4;" x="325.285153" xlink:href="#m599af493fc" y="51.327494"/>
     <use style="fill:#1f77b4;stroke:#1f77b4;" x="329.474958" xlink:href="#m599af493fc" y="50.078048"/>
     <use style="fill:#1f77b4;stroke:#1f77b4;" x="333.664763" xlink:href="#m599af493fc" y="46.443295"/>
     <use style="fill:#1f77b4;stroke:#1f77b4;" x="337.854568" xlink:href="#m599af493fc" y="44.625919"/>
     <use style="fill:#1f77b4;stroke:#1f77b4;" x="342.044374" xlink:href="#m599af493fc" y="43.262886"/>
     <use style="fill:#1f77b4;stroke:#1f77b4;" x="346.234179" xlink:href="#m599af493fc" y="40.87758"/>
     <use style="fill:#1f77b4;stroke:#1f77b4;" x="350.423984" xlink:href="#m599af493fc" y="39.628134"/>
     <use style="fill:#1f77b4;stroke:#1f77b4;" x="354.61379" xlink:href="#m599af493fc" y="36.106967"/>
     <use style="fill:#1f77b4;stroke:#1f77b4;" x="358.803595" xlink:href="#m599af493fc" y="33.040144"/>
     <use style="fill:#1f77b4;stroke:#1f77b4;" x="362.9934" xlink:href="#m599af493fc" y="31.790698"/>
     <use style="fill:#1f77b4;stroke:#1f77b4;" x="367.183205" xlink:href="#m599af493fc" y="29.859735"/>
     <use style="fill:#1f77b4;stroke:#1f77b4;" x="371.373011" xlink:href="#m599af493fc" y="29.405391"/>
     <use style="fill:#1f77b4;stroke:#1f77b4;" x="375.562816" xlink:href="#m599af493fc" y="29.291805"/>
     <use style="fill:#1f77b4;stroke:#1f77b4;" x="379.752621" xlink:href="#m599af493fc" y="29.178219"/>
     <use style="fill:#1f77b4;stroke:#1f77b4;" x="383.942426" xlink:href="#m599af493fc" y="28.496703"/>
     <use style="fill:#1f77b4;stroke:#1f77b4;" x="388.132232" xlink:href="#m599af493fc" y="27.701601"/>
     <use style="fill:#1f77b4;stroke:#1f77b4;" x="392.322037" xlink:href="#m599af493fc" y="26.338568"/>
     <use style="fill:#1f77b4;stroke:#1f77b4;" x="396.511842" xlink:href="#m599af493fc" y="25.316294"/>
     <use style="fill:#1f77b4;stroke:#1f77b4;" x="400.701648" xlink:href="#m599af493fc" y="24.975536"/>
     <use style="fill:#1f77b4;stroke:#1f77b4;" x="404.891453" xlink:href="#m599af493fc" y="24.86195"/>
     <use style="fill:#1f77b4;stroke:#1f77b4;" x="409.081258" xlink:href="#m599af493fc" y="24.748364"/>
     <use style="fill:#1f77b4;stroke:#1f77b4;" x="413.271063" xlink:href="#m599af493fc" y="23.612504"/>
    </g>
   </g>
   <g id="patch_3">
    <path d="M 56.928125 279.86258 
L 56.928125 10.8 
" style="fill:none;stroke:#000000;stroke-linecap:square;stroke-linejoin:miter;stroke-width:0.8;"/>
   </g>
   <g id="patch_4">
    <path d="M 430.239775 279.86258 
L 430.239775 10.8 
" style="fill:none;stroke:#000000;stroke-linecap:square;stroke-linejoin:miter;stroke-width:0.8;"/>
   </g>
   <g id="patch_5">
    <path d="M 56.928125 279.86258 
L 430.239775 279.86258 
" style="fill:none;stroke:#000000;stroke-linecap:square;stroke-linejoin:miter;stroke-width:0.8;"/>
   </g>
   <g id="patch_6">
    <path d="M 56.928125 10.8 
L 430.239775 10.8 
" style="fill:none;stroke:#000000;stroke-linecap:square;stroke-linejoin:miter;stroke-width:0.8;"/>
   </g>
  </g>
 </g>
 <defs>
  <clipPath id="pcde5e5c9ec">
   <rect height="269.06258" width="373.31165" x="56.928125" y="10.8"/>
  </clipPath>
 </defs>
</svg>
