<?xml version="1.0" encoding="utf-8" standalone="no"?>
<!DOCTYPE svg PUBLIC "-//W3C//DTD SVG 1.1//EN"
  "http://www.w3.org/Graphics/SVG/1.1/DTD/svg11.dtd">
<!-- Created with matplotlib (https://matplotlib.org/) -->
<svg height="345.6pt" version="1.1" viewBox="0 0 460.8 345.6" width="460.8pt" xmlns="http://www.w3.org/2000/svg" xmlns:xlink="http://www.w3.org/1999/xlink">
 <defs>
  <style type="text/css">
*{stroke-linecap:butt;stroke-linejoin:round;}
  </style>
 </defs>
 <g id="figure_1">
  <g id="patch_1">
   <path d="M 0 345.6 
L 460.8 345.6 
L 460.8 0 
L 0 0 
z
" style="fill:#ffffff;"/>
  </g>
  <g id="axes_1">
   <g id="patch_2">
    <path d="M 63.290625 279.86258 
L 430.239775 279.86258 
L 430.239775 10.8 
L 63.290625 10.8 
z
" style="fill:#ffffff;"/>
   </g>
   <g id="matplotlib.axis_1">
    <g id="xtick_1">
     <g id="line2d_1">
      <defs>
       <path d="M 0 0 
L 0 3.5 
" id="m63c76aafb6" style="stroke:#000000;stroke-width:0.8;"/>
      </defs>
      <g>
       <use style="stroke:#000000;stroke-width:0.8;" x="117.035702" xlink:href="#m63c76aafb6" y="279.86258"/>
      </g>
     </g>
     <g id="text_1">
      <!-- 2020-03-01 -->
      <defs>
       <path d="M 19.1875 8.296875 
L 53.609375 8.296875 
L 53.609375 0 
L 7.328125 0 
L 7.328125 8.296875 
Q 12.9375 14.109375 22.625 23.890625 
Q 32.328125 33.6875 34.8125 36.53125 
Q 39.546875 41.84375 41.421875 45.53125 
Q 43.3125 49.21875 43.3125 52.78125 
Q 43.3125 58.59375 39.234375 62.25 
Q 35.15625 65.921875 28.609375 65.921875 
Q 23.96875 65.921875 18.8125 64.3125 
Q 13.671875 62.703125 7.8125 59.421875 
L 7.8125 69.390625 
Q 13.765625 71.78125 18.9375 73 
Q 24.125 74.21875 28.421875 74.21875 
Q 39.75 74.21875 46.484375 68.546875 
Q 53.21875 62.890625 53.21875 53.421875 
Q 53.21875 48.921875 51.53125 44.890625 
Q 49.859375 40.875 45.40625 35.40625 
Q 44.1875 33.984375 37.640625 27.21875 
Q 31.109375 20.453125 19.1875 8.296875 
z
" id="DejaVuSans-50"/>
       <path d="M 31.78125 66.40625 
Q 24.171875 66.40625 20.328125 58.90625 
Q 16.5 51.421875 16.5 36.375 
Q 16.5 21.390625 20.328125 13.890625 
Q 24.171875 6.390625 31.78125 6.390625 
Q 39.453125 6.390625 43.28125 13.890625 
Q 47.125 21.390625 47.125 36.375 
Q 47.125 51.421875 43.28125 58.90625 
Q 39.453125 66.40625 31.78125 66.40625 
z
M 31.78125 74.21875 
Q 44.046875 74.21875 50.515625 64.515625 
Q 56.984375 54.828125 56.984375 36.375 
Q 56.984375 17.96875 50.515625 8.265625 
Q 44.046875 -1.421875 31.78125 -1.421875 
Q 19.53125 -1.421875 13.0625 8.265625 
Q 6.59375 17.96875 6.59375 36.375 
Q 6.59375 54.828125 13.0625 64.515625 
Q 19.53125 74.21875 31.78125 74.21875 
z
" id="DejaVuSans-48"/>
       <path d="M 4.890625 31.390625 
L 31.203125 31.390625 
L 31.203125 23.390625 
L 4.890625 23.390625 
z
" id="DejaVuSans-45"/>
       <path d="M 40.578125 39.3125 
Q 47.65625 37.796875 51.625 33 
Q 55.609375 28.21875 55.609375 21.1875 
Q 55.609375 10.40625 48.1875 4.484375 
Q 40.765625 -1.421875 27.09375 -1.421875 
Q 22.515625 -1.421875 17.65625 -0.515625 
Q 12.796875 0.390625 7.625 2.203125 
L 7.625 11.71875 
Q 11.71875 9.328125 16.59375 8.109375 
Q 21.484375 6.890625 26.8125 6.890625 
Q 36.078125 6.890625 40.9375 10.546875 
Q 45.796875 14.203125 45.796875 21.1875 
Q 45.796875 27.640625 41.28125 31.265625 
Q 36.765625 34.90625 28.71875 34.90625 
L 20.21875 34.90625 
L 20.21875 43.015625 
L 29.109375 43.015625 
Q 36.375 43.015625 40.234375 45.921875 
Q 44.09375 48.828125 44.09375 54.296875 
Q 44.09375 59.90625 40.109375 62.90625 
Q 36.140625 65.921875 28.71875 65.921875 
Q 24.65625 65.921875 20.015625 65.03125 
Q 15.375 64.15625 9.8125 62.3125 
L 9.8125 71.09375 
Q 15.4375 72.65625 20.34375 73.4375 
Q 25.25 74.21875 29.59375 74.21875 
Q 40.828125 74.21875 47.359375 69.109375 
Q 53.90625 64.015625 53.90625 55.328125 
Q 53.90625 49.265625 50.4375 45.09375 
Q 46.96875 40.921875 40.578125 39.3125 
z
" id="DejaVuSans-51"/>
       <path d="M 12.40625 8.296875 
L 28.515625 8.296875 
L 28.515625 63.921875 
L 10.984375 60.40625 
L 10.984375 69.390625 
L 28.421875 72.90625 
L 38.28125 72.90625 
L 38.28125 8.296875 
L 54.390625 8.296875 
L 54.390625 0 
L 12.40625 0 
z
" id="DejaVuSans-49"/>
      </defs>
      <g transform="translate(98.439899 333.329439)rotate(-45)scale(0.1 -0.1)">
       <use xlink:href="#DejaVuSans-50"/>
       <use x="63.623047" xlink:href="#DejaVuSans-48"/>
       <use x="127.246094" xlink:href="#DejaVuSans-50"/>
       <use x="190.869141" xlink:href="#DejaVuSans-48"/>
       <use x="254.492188" xlink:href="#DejaVuSans-45"/>
       <use x="290.576172" xlink:href="#DejaVuSans-48"/>
       <use x="354.199219" xlink:href="#DejaVuSans-51"/>
       <use x="417.822266" xlink:href="#DejaVuSans-45"/>
       <use x="453.90625" xlink:href="#DejaVuSans-48"/>
       <use x="517.529297" xlink:href="#DejaVuSans-49"/>
      </g>
     </g>
    </g>
    <g id="xtick_2">
     <g id="line2d_2">
      <g>
       <use style="stroke:#000000;stroke-width:0.8;" x="174.693257" xlink:href="#m63c76aafb6" y="279.86258"/>
      </g>
     </g>
     <g id="text_2">
      <!-- 2020-03-15 -->
      <defs>
       <path d="M 10.796875 72.90625 
L 49.515625 72.90625 
L 49.515625 64.59375 
L 19.828125 64.59375 
L 19.828125 46.734375 
Q 21.96875 47.46875 24.109375 47.828125 
Q 26.265625 48.1875 28.421875 48.1875 
Q 40.625 48.1875 47.75 41.5 
Q 54.890625 34.8125 54.890625 23.390625 
Q 54.890625 11.625 47.5625 5.09375 
Q 40.234375 -1.421875 26.90625 -1.421875 
Q 22.3125 -1.421875 17.546875 -0.640625 
Q 12.796875 0.140625 7.71875 1.703125 
L 7.71875 11.625 
Q 12.109375 9.234375 16.796875 8.0625 
Q 21.484375 6.890625 26.703125 6.890625 
Q 35.15625 6.890625 40.078125 11.328125 
Q 45.015625 15.765625 45.015625 23.390625 
Q 45.015625 31 40.078125 35.4375 
Q 35.15625 39.890625 26.703125 39.890625 
Q 22.75 39.890625 18.8125 39.015625 
Q 14.890625 38.140625 10.796875 36.28125 
z
" id="DejaVuSans-53"/>
      </defs>
      <g transform="translate(156.097453 333.329439)rotate(-45)scale(0.1 -0.1)">
       <use xlink:href="#DejaVuSans-50"/>
       <use x="63.623047" xlink:href="#DejaVuSans-48"/>
       <use x="127.246094" xlink:href="#DejaVuSans-50"/>
       <use x="190.869141" xlink:href="#DejaVuSans-48"/>
       <use x="254.492188" xlink:href="#DejaVuSans-45"/>
       <use x="290.576172" xlink:href="#DejaVuSans-48"/>
       <use x="354.199219" xlink:href="#DejaVuSans-51"/>
       <use x="417.822266" xlink:href="#DejaVuSans-45"/>
       <use x="453.90625" xlink:href="#DejaVuSans-49"/>
       <use x="517.529297" xlink:href="#DejaVuSans-53"/>
      </g>
     </g>
    </g>
    <g id="xtick_3">
     <g id="line2d_3">
      <g>
       <use style="stroke:#000000;stroke-width:0.8;" x="244.706001" xlink:href="#m63c76aafb6" y="279.86258"/>
      </g>
     </g>
     <g id="text_3">
      <!-- 2020-04-01 -->
      <defs>
       <path d="M 37.796875 64.3125 
L 12.890625 25.390625 
L 37.796875 25.390625 
z
M 35.203125 72.90625 
L 47.609375 72.90625 
L 47.609375 25.390625 
L 58.015625 25.390625 
L 58.015625 17.1875 
L 47.609375 17.1875 
L 47.609375 0 
L 37.796875 0 
L 37.796875 17.1875 
L 4.890625 17.1875 
L 4.890625 26.703125 
z
" id="DejaVuSans-52"/>
      </defs>
      <g transform="translate(226.110198 333.329439)rotate(-45)scale(0.1 -0.1)">
       <use xlink:href="#DejaVuSans-50"/>
       <use x="63.623047" xlink:href="#DejaVuSans-48"/>
       <use x="127.246094" xlink:href="#DejaVuSans-50"/>
       <use x="190.869141" xlink:href="#DejaVuSans-48"/>
       <use x="254.492188" xlink:href="#DejaVuSans-45"/>
       <use x="290.576172" xlink:href="#DejaVuSans-48"/>
       <use x="354.199219" xlink:href="#DejaVuSans-52"/>
       <use x="417.822266" xlink:href="#DejaVuSans-45"/>
       <use x="453.90625" xlink:href="#DejaVuSans-48"/>
       <use x="517.529297" xlink:href="#DejaVuSans-49"/>
      </g>
     </g>
    </g>
    <g id="xtick_4">
     <g id="line2d_4">
      <g>
       <use style="stroke:#000000;stroke-width:0.8;" x="302.363556" xlink:href="#m63c76aafb6" y="279.86258"/>
      </g>
     </g>
     <g id="text_4">
      <!-- 2020-04-15 -->
      <g transform="translate(283.767752 333.329439)rotate(-45)scale(0.1 -0.1)">
       <use xlink:href="#DejaVuSans-50"/>
       <use x="63.623047" xlink:href="#DejaVuSans-48"/>
       <use x="127.246094" xlink:href="#DejaVuSans-50"/>
       <use x="190.869141" xlink:href="#DejaVuSans-48"/>
       <use x="254.492188" xlink:href="#DejaVuSans-45"/>
       <use x="290.576172" xlink:href="#DejaVuSans-48"/>
       <use x="354.199219" xlink:href="#DejaVuSans-52"/>
       <use x="417.822266" xlink:href="#DejaVuSans-45"/>
       <use x="453.90625" xlink:href="#DejaVuSans-49"/>
       <use x="517.529297" xlink:href="#DejaVuSans-53"/>
      </g>
     </g>
    </g>
    <g id="xtick_5">
     <g id="line2d_5">
      <g>
       <use style="stroke:#000000;stroke-width:0.8;" x="368.257904" xlink:href="#m63c76aafb6" y="279.86258"/>
      </g>
     </g>
     <g id="text_5">
      <!-- 2020-05-01 -->
      <g transform="translate(349.6621 333.329439)rotate(-45)scale(0.1 -0.1)">
       <use xlink:href="#DejaVuSans-50"/>
       <use x="63.623047" xlink:href="#DejaVuSans-48"/>
       <use x="127.246094" xlink:href="#DejaVuSans-50"/>
       <use x="190.869141" xlink:href="#DejaVuSans-48"/>
       <use x="254.492188" xlink:href="#DejaVuSans-45"/>
       <use x="290.576172" xlink:href="#DejaVuSans-48"/>
       <use x="354.199219" xlink:href="#DejaVuSans-53"/>
       <use x="417.822266" xlink:href="#DejaVuSans-45"/>
       <use x="453.90625" xlink:href="#DejaVuSans-48"/>
       <use x="517.529297" xlink:href="#DejaVuSans-49"/>
      </g>
     </g>
    </g>
    <g id="xtick_6">
     <g id="line2d_6">
      <g>
       <use style="stroke:#000000;stroke-width:0.8;" x="425.915458" xlink:href="#m63c76aafb6" y="279.86258"/>
      </g>
     </g>
     <g id="text_6">
      <!-- 2020-05-15 -->
      <g transform="translate(407.319655 333.329439)rotate(-45)scale(0.1 -0.1)">
       <use xlink:href="#DejaVuSans-50"/>
       <use x="63.623047" xlink:href="#DejaVuSans-48"/>
       <use x="127.246094" xlink:href="#DejaVuSans-50"/>
       <use x="190.869141" xlink:href="#DejaVuSans-48"/>
       <use x="254.492188" xlink:href="#DejaVuSans-45"/>
       <use x="290.576172" xlink:href="#DejaVuSans-48"/>
       <use x="354.199219" xlink:href="#DejaVuSans-53"/>
       <use x="417.822266" xlink:href="#DejaVuSans-45"/>
       <use x="453.90625" xlink:href="#DejaVuSans-49"/>
       <use x="517.529297" xlink:href="#DejaVuSans-53"/>
      </g>
     </g>
    </g>
   </g>
   <g id="matplotlib.axis_2">
    <g id="ytick_1">
     <g id="line2d_7">
      <defs>
       <path d="M 0 0 
L -3.5 0 
" id="m5807f5ca51" style="stroke:#000000;stroke-width:0.8;"/>
      </defs>
      <g>
       <use style="stroke:#000000;stroke-width:0.8;" x="63.290625" xlink:href="#m5807f5ca51" y="279.86258"/>
      </g>
     </g>
     <g id="text_7">
      <!-- 0 -->
      <g transform="translate(49.928125 283.661798)scale(0.1 -0.1)">
       <use xlink:href="#DejaVuSans-48"/>
      </g>
     </g>
    </g>
    <g id="ytick_2">
     <g id="line2d_8">
      <g>
       <use style="stroke:#000000;stroke-width:0.8;" x="63.290625" xlink:href="#m5807f5ca51" y="233.507646"/>
      </g>
     </g>
     <g id="text_8">
      <!-- 10000 -->
      <g transform="translate(24.478125 237.306864)scale(0.1 -0.1)">
       <use xlink:href="#DejaVuSans-49"/>
       <use x="63.623047" xlink:href="#DejaVuSans-48"/>
       <use x="127.246094" xlink:href="#DejaVuSans-48"/>
       <use x="190.869141" xlink:href="#DejaVuSans-48"/>
       <use x="254.492188" xlink:href="#DejaVuSans-48"/>
      </g>
     </g>
    </g>
    <g id="ytick_3">
     <g id="line2d_9">
      <g>
       <use style="stroke:#000000;stroke-width:0.8;" x="63.290625" xlink:href="#m5807f5ca51" y="187.152711"/>
      </g>
     </g>
     <g id="text_9">
      <!-- 20000 -->
      <g transform="translate(24.478125 190.95193)scale(0.1 -0.1)">
       <use xlink:href="#DejaVuSans-50"/>
       <use x="63.623047" xlink:href="#DejaVuSans-48"/>
       <use x="127.246094" xlink:href="#DejaVuSans-48"/>
       <use x="190.869141" xlink:href="#DejaVuSans-48"/>
       <use x="254.492188" xlink:href="#DejaVuSans-48"/>
      </g>
     </g>
    </g>
    <g id="ytick_4">
     <g id="line2d_10">
      <g>
       <use style="stroke:#000000;stroke-width:0.8;" x="63.290625" xlink:href="#m5807f5ca51" y="140.797777"/>
      </g>
     </g>
     <g id="text_10">
      <!-- 30000 -->
      <g transform="translate(24.478125 144.596996)scale(0.1 -0.1)">
       <use xlink:href="#DejaVuSans-51"/>
       <use x="63.623047" xlink:href="#DejaVuSans-48"/>
       <use x="127.246094" xlink:href="#DejaVuSans-48"/>
       <use x="190.869141" xlink:href="#DejaVuSans-48"/>
       <use x="254.492188" xlink:href="#DejaVuSans-48"/>
      </g>
     </g>
    </g>
    <g id="ytick_5">
     <g id="line2d_11">
      <g>
       <use style="stroke:#000000;stroke-width:0.8;" x="63.290625" xlink:href="#m5807f5ca51" y="94.442843"/>
      </g>
     </g>
     <g id="text_11">
      <!-- 40000 -->
      <g transform="translate(24.478125 98.242062)scale(0.1 -0.1)">
       <use xlink:href="#DejaVuSans-52"/>
       <use x="63.623047" xlink:href="#DejaVuSans-48"/>
       <use x="127.246094" xlink:href="#DejaVuSans-48"/>
       <use x="190.869141" xlink:href="#DejaVuSans-48"/>
       <use x="254.492188" xlink:href="#DejaVuSans-48"/>
      </g>
     </g>
    </g>
    <g id="ytick_6">
     <g id="line2d_12">
      <g>
       <use style="stroke:#000000;stroke-width:0.8;" x="63.290625" xlink:href="#m5807f5ca51" y="48.087909"/>
      </g>
     </g>
     <g id="text_12">
      <!-- 50000 -->
      <g transform="translate(24.478125 51.887128)scale(0.1 -0.1)">
       <use xlink:href="#DejaVuSans-53"/>
       <use x="63.623047" xlink:href="#DejaVuSans-48"/>
       <use x="127.246094" xlink:href="#DejaVuSans-48"/>
       <use x="190.869141" xlink:href="#DejaVuSans-48"/>
       <use x="254.492188" xlink:href="#DejaVuSans-48"/>
      </g>
     </g>
    </g>
    <g id="text_13">
     <!-- CT pcr acumulados -->
     <defs>
      <path d="M 64.40625 67.28125 
L 64.40625 56.890625 
Q 59.421875 61.53125 53.78125 63.8125 
Q 48.140625 66.109375 41.796875 66.109375 
Q 29.296875 66.109375 22.65625 58.46875 
Q 16.015625 50.828125 16.015625 36.375 
Q 16.015625 21.96875 22.65625 14.328125 
Q 29.296875 6.6875 41.796875 6.6875 
Q 48.140625 6.6875 53.78125 8.984375 
Q 59.421875 11.28125 64.40625 15.921875 
L 64.40625 5.609375 
Q 59.234375 2.09375 53.4375 0.328125 
Q 47.65625 -1.421875 41.21875 -1.421875 
Q 24.65625 -1.421875 15.125 8.703125 
Q 5.609375 18.84375 5.609375 36.375 
Q 5.609375 53.953125 15.125 64.078125 
Q 24.65625 74.21875 41.21875 74.21875 
Q 47.75 74.21875 53.53125 72.484375 
Q 59.328125 70.75 64.40625 67.28125 
z
" id="DejaVuSans-67"/>
      <path d="M -0.296875 72.90625 
L 61.375 72.90625 
L 61.375 64.59375 
L 35.5 64.59375 
L 35.5 0 
L 25.59375 0 
L 25.59375 64.59375 
L -0.296875 64.59375 
z
" id="DejaVuSans-84"/>
      <path id="DejaVuSans-32"/>
      <path d="M 18.109375 8.203125 
L 18.109375 -20.796875 
L 9.078125 -20.796875 
L 9.078125 54.6875 
L 18.109375 54.6875 
L 18.109375 46.390625 
Q 20.953125 51.265625 25.265625 53.625 
Q 29.59375 56 35.59375 56 
Q 45.5625 56 51.78125 48.09375 
Q 58.015625 40.1875 58.015625 27.296875 
Q 58.015625 14.40625 51.78125 6.484375 
Q 45.5625 -1.421875 35.59375 -1.421875 
Q 29.59375 -1.421875 25.265625 0.953125 
Q 20.953125 3.328125 18.109375 8.203125 
z
M 48.6875 27.296875 
Q 48.6875 37.203125 44.609375 42.84375 
Q 40.53125 48.484375 33.40625 48.484375 
Q 26.265625 48.484375 22.1875 42.84375 
Q 18.109375 37.203125 18.109375 27.296875 
Q 18.109375 17.390625 22.1875 11.75 
Q 26.265625 6.109375 33.40625 6.109375 
Q 40.53125 6.109375 44.609375 11.75 
Q 48.6875 17.390625 48.6875 27.296875 
z
" id="DejaVuSans-112"/>
      <path d="M 48.78125 52.59375 
L 48.78125 44.1875 
Q 44.96875 46.296875 41.140625 47.34375 
Q 37.3125 48.390625 33.40625 48.390625 
Q 24.65625 48.390625 19.8125 42.84375 
Q 14.984375 37.3125 14.984375 27.296875 
Q 14.984375 17.28125 19.8125 11.734375 
Q 24.65625 6.203125 33.40625 6.203125 
Q 37.3125 6.203125 41.140625 7.25 
Q 44.96875 8.296875 48.78125 10.40625 
L 48.78125 2.09375 
Q 45.015625 0.34375 40.984375 -0.53125 
Q 36.96875 -1.421875 32.421875 -1.421875 
Q 20.0625 -1.421875 12.78125 6.34375 
Q 5.515625 14.109375 5.515625 27.296875 
Q 5.515625 40.671875 12.859375 48.328125 
Q 20.21875 56 33.015625 56 
Q 37.15625 56 41.109375 55.140625 
Q 45.0625 54.296875 48.78125 52.59375 
z
" id="DejaVuSans-99"/>
      <path d="M 41.109375 46.296875 
Q 39.59375 47.171875 37.8125 47.578125 
Q 36.03125 48 33.890625 48 
Q 26.265625 48 22.1875 43.046875 
Q 18.109375 38.09375 18.109375 28.8125 
L 18.109375 0 
L 9.078125 0 
L 9.078125 54.6875 
L 18.109375 54.6875 
L 18.109375 46.1875 
Q 20.953125 51.171875 25.484375 53.578125 
Q 30.03125 56 36.53125 56 
Q 37.453125 56 38.578125 55.875 
Q 39.703125 55.765625 41.0625 55.515625 
z
" id="DejaVuSans-114"/>
      <path d="M 34.28125 27.484375 
Q 23.390625 27.484375 19.1875 25 
Q 14.984375 22.515625 14.984375 16.5 
Q 14.984375 11.71875 18.140625 8.90625 
Q 21.296875 6.109375 26.703125 6.109375 
Q 34.1875 6.109375 38.703125 11.40625 
Q 43.21875 16.703125 43.21875 25.484375 
L 43.21875 27.484375 
z
M 52.203125 31.203125 
L 52.203125 0 
L 43.21875 0 
L 43.21875 8.296875 
Q 40.140625 3.328125 35.546875 0.953125 
Q 30.953125 -1.421875 24.3125 -1.421875 
Q 15.921875 -1.421875 10.953125 3.296875 
Q 6 8.015625 6 15.921875 
Q 6 25.140625 12.171875 29.828125 
Q 18.359375 34.515625 30.609375 34.515625 
L 43.21875 34.515625 
L 43.21875 35.40625 
Q 43.21875 41.609375 39.140625 45 
Q 35.0625 48.390625 27.6875 48.390625 
Q 23 48.390625 18.546875 47.265625 
Q 14.109375 46.140625 10.015625 43.890625 
L 10.015625 52.203125 
Q 14.9375 54.109375 19.578125 55.046875 
Q 24.21875 56 28.609375 56 
Q 40.484375 56 46.34375 49.84375 
Q 52.203125 43.703125 52.203125 31.203125 
z
" id="DejaVuSans-97"/>
      <path d="M 8.5 21.578125 
L 8.5 54.6875 
L 17.484375 54.6875 
L 17.484375 21.921875 
Q 17.484375 14.15625 20.5 10.265625 
Q 23.53125 6.390625 29.59375 6.390625 
Q 36.859375 6.390625 41.078125 11.03125 
Q 45.3125 15.671875 45.3125 23.6875 
L 45.3125 54.6875 
L 54.296875 54.6875 
L 54.296875 0 
L 45.3125 0 
L 45.3125 8.40625 
Q 42.046875 3.421875 37.71875 1 
Q 33.40625 -1.421875 27.6875 -1.421875 
Q 18.265625 -1.421875 13.375 4.4375 
Q 8.5 10.296875 8.5 21.578125 
z
M 31.109375 56 
z
" id="DejaVuSans-117"/>
      <path d="M 52 44.1875 
Q 55.375 50.25 60.0625 53.125 
Q 64.75 56 71.09375 56 
Q 79.640625 56 84.28125 50.015625 
Q 88.921875 44.046875 88.921875 33.015625 
L 88.921875 0 
L 79.890625 0 
L 79.890625 32.71875 
Q 79.890625 40.578125 77.09375 44.375 
Q 74.3125 48.1875 68.609375 48.1875 
Q 61.625 48.1875 57.5625 43.546875 
Q 53.515625 38.921875 53.515625 30.90625 
L 53.515625 0 
L 44.484375 0 
L 44.484375 32.71875 
Q 44.484375 40.625 41.703125 44.40625 
Q 38.921875 48.1875 33.109375 48.1875 
Q 26.21875 48.1875 22.15625 43.53125 
Q 18.109375 38.875 18.109375 30.90625 
L 18.109375 0 
L 9.078125 0 
L 9.078125 54.6875 
L 18.109375 54.6875 
L 18.109375 46.1875 
Q 21.1875 51.21875 25.484375 53.609375 
Q 29.78125 56 35.6875 56 
Q 41.65625 56 45.828125 52.96875 
Q 50 49.953125 52 44.1875 
z
" id="DejaVuSans-109"/>
      <path d="M 9.421875 75.984375 
L 18.40625 75.984375 
L 18.40625 0 
L 9.421875 0 
z
" id="DejaVuSans-108"/>
      <path d="M 45.40625 46.390625 
L 45.40625 75.984375 
L 54.390625 75.984375 
L 54.390625 0 
L 45.40625 0 
L 45.40625 8.203125 
Q 42.578125 3.328125 38.25 0.953125 
Q 33.9375 -1.421875 27.875 -1.421875 
Q 17.96875 -1.421875 11.734375 6.484375 
Q 5.515625 14.40625 5.515625 27.296875 
Q 5.515625 40.1875 11.734375 48.09375 
Q 17.96875 56 27.875 56 
Q 33.9375 56 38.25 53.625 
Q 42.578125 51.265625 45.40625 46.390625 
z
M 14.796875 27.296875 
Q 14.796875 17.390625 18.875 11.75 
Q 22.953125 6.109375 30.078125 6.109375 
Q 37.203125 6.109375 41.296875 11.75 
Q 45.40625 17.390625 45.40625 27.296875 
Q 45.40625 37.203125 41.296875 42.84375 
Q 37.203125 48.484375 30.078125 48.484375 
Q 22.953125 48.484375 18.875 42.84375 
Q 14.796875 37.203125 14.796875 27.296875 
z
" id="DejaVuSans-100"/>
      <path d="M 30.609375 48.390625 
Q 23.390625 48.390625 19.1875 42.75 
Q 14.984375 37.109375 14.984375 27.296875 
Q 14.984375 17.484375 19.15625 11.84375 
Q 23.34375 6.203125 30.609375 6.203125 
Q 37.796875 6.203125 41.984375 11.859375 
Q 46.1875 17.53125 46.1875 27.296875 
Q 46.1875 37.015625 41.984375 42.703125 
Q 37.796875 48.390625 30.609375 48.390625 
z
M 30.609375 56 
Q 42.328125 56 49.015625 48.375 
Q 55.71875 40.765625 55.71875 27.296875 
Q 55.71875 13.875 49.015625 6.21875 
Q 42.328125 -1.421875 30.609375 -1.421875 
Q 18.84375 -1.421875 12.171875 6.21875 
Q 5.515625 13.875 5.515625 27.296875 
Q 5.515625 40.765625 12.171875 48.375 
Q 18.84375 56 30.609375 56 
z
" id="DejaVuSans-111"/>
      <path d="M 44.28125 53.078125 
L 44.28125 44.578125 
Q 40.484375 46.53125 36.375 47.5 
Q 32.28125 48.484375 27.875 48.484375 
Q 21.1875 48.484375 17.84375 46.4375 
Q 14.5 44.390625 14.5 40.28125 
Q 14.5 37.15625 16.890625 35.375 
Q 19.28125 33.59375 26.515625 31.984375 
L 29.59375 31.296875 
Q 39.15625 29.25 43.1875 25.515625 
Q 47.21875 21.78125 47.21875 15.09375 
Q 47.21875 7.46875 41.1875 3.015625 
Q 35.15625 -1.421875 24.609375 -1.421875 
Q 20.21875 -1.421875 15.453125 -0.5625 
Q 10.6875 0.296875 5.421875 2 
L 5.421875 11.28125 
Q 10.40625 8.6875 15.234375 7.390625 
Q 20.0625 6.109375 24.8125 6.109375 
Q 31.15625 6.109375 34.5625 8.28125 
Q 37.984375 10.453125 37.984375 14.40625 
Q 37.984375 18.0625 35.515625 20.015625 
Q 33.0625 21.96875 24.703125 23.78125 
L 21.578125 24.515625 
Q 13.234375 26.265625 9.515625 29.90625 
Q 5.8125 33.546875 5.8125 39.890625 
Q 5.8125 47.609375 11.28125 51.796875 
Q 16.75 56 26.8125 56 
Q 31.78125 56 36.171875 55.265625 
Q 40.578125 54.546875 44.28125 53.078125 
z
" id="DejaVuSans-115"/>
     </defs>
     <g transform="translate(18.398438 193.346134)rotate(-90)scale(0.1 -0.1)">
      <use xlink:href="#DejaVuSans-67"/>
      <use x="69.824219" xlink:href="#DejaVuSans-84"/>
      <use x="130.908203" xlink:href="#DejaVuSans-32"/>
      <use x="162.695312" xlink:href="#DejaVuSans-112"/>
      <use x="226.171875" xlink:href="#DejaVuSans-99"/>
      <use x="281.152344" xlink:href="#DejaVuSans-114"/>
      <use x="322.265625" xlink:href="#DejaVuSans-32"/>
      <use x="354.052734" xlink:href="#DejaVuSans-97"/>
      <use x="415.332031" xlink:href="#DejaVuSans-99"/>
      <use x="470.3125" xlink:href="#DejaVuSans-117"/>
      <use x="533.691406" xlink:href="#DejaVuSans-109"/>
      <use x="631.103516" xlink:href="#DejaVuSans-117"/>
      <use x="694.482422" xlink:href="#DejaVuSans-108"/>
      <use x="722.265625" xlink:href="#DejaVuSans-97"/>
      <use x="783.544922" xlink:href="#DejaVuSans-100"/>
      <use x="847.021484" xlink:href="#DejaVuSans-111"/>
      <use x="908.203125" xlink:href="#DejaVuSans-115"/>
     </g>
    </g>
   </g>
   <g id="line2d_13">
    <path clip-path="url(#pa885f6966a)" d="M 79.970132 279.86258 
L 84.088529 279.86258 
L 88.206925 279.86258 
L 92.325322 279.86258 
L 96.443719 279.857944 
L 100.562116 279.853309 
L 104.680512 279.848673 
L 108.798909 279.839402 
L 112.917306 279.834767 
L 117.035702 279.793047 
L 121.154099 279.793047 
L 125.272496 279.793047 
L 129.390893 279.751328 
L 133.509289 279.751328 
L 137.627686 279.751328 
L 141.746083 279.63544 
L 145.86448 279.589086 
L 149.982876 279.482469 
L 154.101273 279.292414 
L 158.21967 278.92621 
L 162.338067 278.244792 
L 166.456463 277.275974 
L 170.57486 276.423044 
L 174.693257 275.148283 
L 178.811654 273.307992 
L 182.93005 271.212749 
L 187.048447 267.337476 
L 191.166844 264.704516 
L 195.285241 260.379601 
L 199.403637 256.47188 
L 203.522034 253.222399 
L 207.640431 243.409059 
L 211.758828 233.799682 
L 215.877224 226.12794 
L 219.995621 219.879295 
L 224.114018 213.746537 
L 228.232415 210.214291 
L 232.350811 205.212594 
L 236.469208 194.013242 
L 240.587605 187.194431 
L 244.706001 178.790281 
L 248.824398 171.113904 
L 252.942795 165.208286 
L 257.061192 159.191415 
L 261.179588 155.520104 
L 265.297985 148.5715 
L 269.416382 142.434106 
L 273.534779 135.962958 
L 277.653175 132.342637 
L 281.771572 126.965465 
L 285.889969 122.130645 
L 290.008366 118.890435 
L 294.126762 116.707118 
L 298.245159 110.643893 
L 302.363556 106.708359 
L 306.481953 102.249014 
L 310.600349 94.707066 
L 314.718746 92.366142 
L 318.837143 86.673756 
L 322.95554 80.017188 
L 327.073936 76.818697 
L 331.192333 71.766009 
L 335.31073 68.743668 
L 339.429127 65.420019 
L 343.547523 62.870498 
L 347.66592 58.494592 
L 351.784317 56.626488 
L 355.902713 54.327283 
L 360.02111 53.112784 
L 364.139507 51.300306 
L 368.257904 48.783233 
L 372.3763 47.003204 
L 376.494697 46.391318 
L 380.613094 44.513944 
L 384.731491 43.804713 
L 388.849887 42.571672 
L 392.968284 40.054599 
L 397.086681 39.118229 
L 401.205078 25.480608 
L 405.323474 25.095862 
L 409.441871 24.242931 
L 413.560268 23.612504 
" style="fill:none;stroke:#1f77b4;stroke-linecap:square;stroke-width:1.5;"/>
    <defs>
     <path d="M 0 1.5 
C 0.397805 1.5 0.77937 1.341951 1.06066 1.06066 
C 1.341951 0.77937 1.5 0.397805 1.5 0 
C 1.5 -0.397805 1.341951 -0.77937 1.06066 -1.06066 
C 0.77937 -1.341951 0.397805 -1.5 0 -1.5 
C -0.397805 -1.5 -0.77937 -1.341951 -1.06066 -1.06066 
C -1.341951 -0.77937 -1.5 -0.397805 -1.5 0 
C -1.5 0.397805 -1.341951 0.77937 -1.06066 1.06066 
C -0.77937 1.341951 -0.397805 1.5 0 1.5 
z
" id="mba9dc1f672" style="stroke:#1f77b4;"/>
    </defs>
    <g clip-path="url(#pa885f6966a)">
     <use style="fill:#1f77b4;stroke:#1f77b4;" x="79.970132" xlink:href="#mba9dc1f672" y="279.86258"/>
     <use style="fill:#1f77b4;stroke:#1f77b4;" x="84.088529" xlink:href="#mba9dc1f672" y="279.86258"/>
     <use style="fill:#1f77b4;stroke:#1f77b4;" x="88.206925" xlink:href="#mba9dc1f672" y="279.86258"/>
     <use style="fill:#1f77b4;stroke:#1f77b4;" x="92.325322" xlink:href="#mba9dc1f672" y="279.86258"/>
     <use style="fill:#1f77b4;stroke:#1f77b4;" x="96.443719" xlink:href="#mba9dc1f672" y="279.857944"/>
     <use style="fill:#1f77b4;stroke:#1f77b4;" x="100.562116" xlink:href="#mba9dc1f672" y="279.853309"/>
     <use style="fill:#1f77b4;stroke:#1f77b4;" x="104.680512" xlink:href="#mba9dc1f672" y="279.848673"/>
     <use style="fill:#1f77b4;stroke:#1f77b4;" x="108.798909" xlink:href="#mba9dc1f672" y="279.839402"/>
     <use style="fill:#1f77b4;stroke:#1f77b4;" x="112.917306" xlink:href="#mba9dc1f672" y="279.834767"/>
     <use style="fill:#1f77b4;stroke:#1f77b4;" x="117.035702" xlink:href="#mba9dc1f672" y="279.793047"/>
     <use style="fill:#1f77b4;stroke:#1f77b4;" x="121.154099" xlink:href="#mba9dc1f672" y="279.793047"/>
     <use style="fill:#1f77b4;stroke:#1f77b4;" x="125.272496" xlink:href="#mba9dc1f672" y="279.793047"/>
     <use style="fill:#1f77b4;stroke:#1f77b4;" x="129.390893" xlink:href="#mba9dc1f672" y="279.751328"/>
     <use style="fill:#1f77b4;stroke:#1f77b4;" x="133.509289" xlink:href="#mba9dc1f672" y="279.751328"/>
     <use style="fill:#1f77b4;stroke:#1f77b4;" x="137.627686" xlink:href="#mba9dc1f672" y="279.751328"/>
     <use style="fill:#1f77b4;stroke:#1f77b4;" x="141.746083" xlink:href="#mba9dc1f672" y="279.63544"/>
     <use style="fill:#1f77b4;stroke:#1f77b4;" x="145.86448" xlink:href="#mba9dc1f672" y="279.589086"/>
     <use style="fill:#1f77b4;stroke:#1f77b4;" x="149.982876" xlink:href="#mba9dc1f672" y="279.482469"/>
     <use style="fill:#1f77b4;stroke:#1f77b4;" x="154.101273" xlink:href="#mba9dc1f672" y="279.292414"/>
     <use style="fill:#1f77b4;stroke:#1f77b4;" x="158.21967" xlink:href="#mba9dc1f672" y="278.92621"/>
     <use style="fill:#1f77b4;stroke:#1f77b4;" x="162.338067" xlink:href="#mba9dc1f672" y="278.244792"/>
     <use style="fill:#1f77b4;stroke:#1f77b4;" x="166.456463" xlink:href="#mba9dc1f672" y="277.275974"/>
     <use style="fill:#1f77b4;stroke:#1f77b4;" x="170.57486" xlink:href="#mba9dc1f672" y="276.423044"/>
     <use style="fill:#1f77b4;stroke:#1f77b4;" x="174.693257" xlink:href="#mba9dc1f672" y="275.148283"/>
     <use style="fill:#1f77b4;stroke:#1f77b4;" x="178.811654" xlink:href="#mba9dc1f672" y="273.307992"/>
     <use style="fill:#1f77b4;stroke:#1f77b4;" x="182.93005" xlink:href="#mba9dc1f672" y="271.212749"/>
     <use style="fill:#1f77b4;stroke:#1f77b4;" x="187.048447" xlink:href="#mba9dc1f672" y="267.337476"/>
     <use style="fill:#1f77b4;stroke:#1f77b4;" x="191.166844" xlink:href="#mba9dc1f672" y="264.704516"/>
     <use style="fill:#1f77b4;stroke:#1f77b4;" x="195.285241" xlink:href="#mba9dc1f672" y="260.379601"/>
     <use style="fill:#1f77b4;stroke:#1f77b4;" x="199.403637" xlink:href="#mba9dc1f672" y="256.47188"/>
     <use style="fill:#1f77b4;stroke:#1f77b4;" x="203.522034" xlink:href="#mba9dc1f672" y="253.222399"/>
     <use style="fill:#1f77b4;stroke:#1f77b4;" x="207.640431" xlink:href="#mba9dc1f672" y="243.409059"/>
     <use style="fill:#1f77b4;stroke:#1f77b4;" x="211.758828" xlink:href="#mba9dc1f672" y="233.799682"/>
     <use style="fill:#1f77b4;stroke:#1f77b4;" x="215.877224" xlink:href="#mba9dc1f672" y="226.12794"/>
     <use style="fill:#1f77b4;stroke:#1f77b4;" x="219.995621" xlink:href="#mba9dc1f672" y="219.879295"/>
     <use style="fill:#1f77b4;stroke:#1f77b4;" x="224.114018" xlink:href="#mba9dc1f672" y="213.746537"/>
     <use style="fill:#1f77b4;stroke:#1f77b4;" x="228.232415" xlink:href="#mba9dc1f672" y="210.214291"/>
     <use style="fill:#1f77b4;stroke:#1f77b4;" x="232.350811" xlink:href="#mba9dc1f672" y="205.212594"/>
     <use style="fill:#1f77b4;stroke:#1f77b4;" x="236.469208" xlink:href="#mba9dc1f672" y="194.013242"/>
     <use style="fill:#1f77b4;stroke:#1f77b4;" x="240.587605" xlink:href="#mba9dc1f672" y="187.194431"/>
     <use style="fill:#1f77b4;stroke:#1f77b4;" x="244.706001" xlink:href="#mba9dc1f672" y="178.790281"/>
     <use style="fill:#1f77b4;stroke:#1f77b4;" x="248.824398" xlink:href="#mba9dc1f672" y="171.113904"/>
     <use style="fill:#1f77b4;stroke:#1f77b4;" x="252.942795" xlink:href="#mba9dc1f672" y="165.208286"/>
     <use style="fill:#1f77b4;stroke:#1f77b4;" x="257.061192" xlink:href="#mba9dc1f672" y="159.191415"/>
     <use style="fill:#1f77b4;stroke:#1f77b4;" x="261.179588" xlink:href="#mba9dc1f672" y="155.520104"/>
     <use style="fill:#1f77b4;stroke:#1f77b4;" x="265.297985" xlink:href="#mba9dc1f672" y="148.5715"/>
     <use style="fill:#1f77b4;stroke:#1f77b4;" x="269.416382" xlink:href="#mba9dc1f672" y="142.434106"/>
     <use style="fill:#1f77b4;stroke:#1f77b4;" x="273.534779" xlink:href="#mba9dc1f672" y="135.962958"/>
     <use style="fill:#1f77b4;stroke:#1f77b4;" x="277.653175" xlink:href="#mba9dc1f672" y="132.342637"/>
     <use style="fill:#1f77b4;stroke:#1f77b4;" x="281.771572" xlink:href="#mba9dc1f672" y="126.965465"/>
     <use style="fill:#1f77b4;stroke:#1f77b4;" x="285.889969" xlink:href="#mba9dc1f672" y="122.130645"/>
     <use style="fill:#1f77b4;stroke:#1f77b4;" x="290.008366" xlink:href="#mba9dc1f672" y="118.890435"/>
     <use style="fill:#1f77b4;stroke:#1f77b4;" x="294.126762" xlink:href="#mba9dc1f672" y="116.707118"/>
     <use style="fill:#1f77b4;stroke:#1f77b4;" x="298.245159" xlink:href="#mba9dc1f672" y="110.643893"/>
     <use style="fill:#1f77b4;stroke:#1f77b4;" x="302.363556" xlink:href="#mba9dc1f672" y="106.708359"/>
     <use style="fill:#1f77b4;stroke:#1f77b4;" x="306.481953" xlink:href="#mba9dc1f672" y="102.249014"/>
     <use style="fill:#1f77b4;stroke:#1f77b4;" x="310.600349" xlink:href="#mba9dc1f672" y="94.707066"/>
     <use style="fill:#1f77b4;stroke:#1f77b4;" x="314.718746" xlink:href="#mba9dc1f672" y="92.366142"/>
     <use style="fill:#1f77b4;stroke:#1f77b4;" x="318.837143" xlink:href="#mba9dc1f672" y="86.673756"/>
     <use style="fill:#1f77b4;stroke:#1f77b4;" x="322.95554" xlink:href="#mba9dc1f672" y="80.017188"/>
     <use style="fill:#1f77b4;stroke:#1f77b4;" x="327.073936" xlink:href="#mba9dc1f672" y="76.818697"/>
     <use style="fill:#1f77b4;stroke:#1f77b4;" x="331.192333" xlink:href="#mba9dc1f672" y="71.766009"/>
     <use style="fill:#1f77b4;stroke:#1f77b4;" x="335.31073" xlink:href="#mba9dc1f672" y="68.743668"/>
     <use style="fill:#1f77b4;stroke:#1f77b4;" x="339.429127" xlink:href="#mba9dc1f672" y="65.420019"/>
     <use style="fill:#1f77b4;stroke:#1f77b4;" x="343.547523" xlink:href="#mba9dc1f672" y="62.870498"/>
     <use style="fill:#1f77b4;stroke:#1f77b4;" x="347.66592" xlink:href="#mba9dc1f672" y="58.494592"/>
     <use style="fill:#1f77b4;stroke:#1f77b4;" x="351.784317" xlink:href="#mba9dc1f672" y="56.626488"/>
     <use style="fill:#1f77b4;stroke:#1f77b4;" x="355.902713" xlink:href="#mba9dc1f672" y="54.327283"/>
     <use style="fill:#1f77b4;stroke:#1f77b4;" x="360.02111" xlink:href="#mba9dc1f672" y="53.112784"/>
     <use style="fill:#1f77b4;stroke:#1f77b4;" x="364.139507" xlink:href="#mba9dc1f672" y="51.300306"/>
     <use style="fill:#1f77b4;stroke:#1f77b4;" x="368.257904" xlink:href="#mba9dc1f672" y="48.783233"/>
     <use style="fill:#1f77b4;stroke:#1f77b4;" x="372.3763" xlink:href="#mba9dc1f672" y="47.003204"/>
     <use style="fill:#1f77b4;stroke:#1f77b4;" x="376.494697" xlink:href="#mba9dc1f672" y="46.391318"/>
     <use style="fill:#1f77b4;stroke:#1f77b4;" x="380.613094" xlink:href="#mba9dc1f672" y="44.513944"/>
     <use style="fill:#1f77b4;stroke:#1f77b4;" x="384.731491" xlink:href="#mba9dc1f672" y="43.804713"/>
     <use style="fill:#1f77b4;stroke:#1f77b4;" x="388.849887" xlink:href="#mba9dc1f672" y="42.571672"/>
     <use style="fill:#1f77b4;stroke:#1f77b4;" x="392.968284" xlink:href="#mba9dc1f672" y="40.054599"/>
     <use style="fill:#1f77b4;stroke:#1f77b4;" x="397.086681" xlink:href="#mba9dc1f672" y="39.118229"/>
     <use style="fill:#1f77b4;stroke:#1f77b4;" x="401.205078" xlink:href="#mba9dc1f672" y="25.480608"/>
     <use style="fill:#1f77b4;stroke:#1f77b4;" x="405.323474" xlink:href="#mba9dc1f672" y="25.095862"/>
     <use style="fill:#1f77b4;stroke:#1f77b4;" x="409.441871" xlink:href="#mba9dc1f672" y="24.242931"/>
     <use style="fill:#1f77b4;stroke:#1f77b4;" x="413.560268" xlink:href="#mba9dc1f672" y="23.612504"/>
    </g>
   </g>
   <g id="patch_3">
    <path d="M 63.290625 279.86258 
L 63.290625 10.8 
" style="fill:none;stroke:#000000;stroke-linecap:square;stroke-linejoin:miter;stroke-width:0.8;"/>
   </g>
   <g id="patch_4">
    <path d="M 430.239775 279.86258 
L 430.239775 10.8 
" style="fill:none;stroke:#000000;stroke-linecap:square;stroke-linejoin:miter;stroke-width:0.8;"/>
   </g>
   <g id="patch_5">
    <path d="M 63.290625 279.86258 
L 430.239775 279.86258 
" style="fill:none;stroke:#000000;stroke-linecap:square;stroke-linejoin:miter;stroke-width:0.8;"/>
   </g>
   <g id="patch_6">
    <path d="M 63.290625 10.8 
L 430.239775 10.8 
" style="fill:none;stroke:#000000;stroke-linecap:square;stroke-linejoin:miter;stroke-width:0.8;"/>
   </g>
  </g>
 </g>
 <defs>
  <clipPath id="pa885f6966a">
   <rect height="269.06258" width="366.94915" x="63.290625" y="10.8"/>
  </clipPath>
 </defs>
</svg>
