<?xml version="1.0" encoding="utf-8" standalone="no"?>
<!DOCTYPE svg PUBLIC "-//W3C//DTD SVG 1.1//EN"
  "http://www.w3.org/Graphics/SVG/1.1/DTD/svg11.dtd">
<!-- Created with matplotlib (https://matplotlib.org/) -->
<svg height="345.6pt" version="1.1" viewBox="0 0 460.8 345.6" width="460.8pt" xmlns="http://www.w3.org/2000/svg" xmlns:xlink="http://www.w3.org/1999/xlink">
 <defs>
  <style type="text/css">
*{stroke-linecap:butt;stroke-linejoin:round;}
  </style>
 </defs>
 <g id="figure_1">
  <g id="patch_1">
   <path d="M 0 345.6 
L 460.8 345.6 
L 460.8 0 
L 0 0 
z
" style="fill:#ffffff;"/>
  </g>
  <g id="axes_1">
   <g id="patch_2">
    <path d="M 63.290625 279.86258 
L 430.239775 279.86258 
L 430.239775 10.8 
L 63.290625 10.8 
z
" style="fill:#ffffff;"/>
   </g>
   <g id="matplotlib.axis_1">
    <g id="xtick_1">
     <g id="line2d_1">
      <defs>
       <path d="M 0 0 
L 0 3.5 
" id="m5a005a0b13" style="stroke:#000000;stroke-width:0.8;"/>
      </defs>
      <g>
       <use style="stroke:#000000;stroke-width:0.8;" x="117.035702" xlink:href="#m5a005a0b13" y="279.86258"/>
      </g>
     </g>
     <g id="text_1">
      <!-- 2020-03-01 -->
      <defs>
       <path d="M 19.1875 8.296875 
L 53.609375 8.296875 
L 53.609375 0 
L 7.328125 0 
L 7.328125 8.296875 
Q 12.9375 14.109375 22.625 23.890625 
Q 32.328125 33.6875 34.8125 36.53125 
Q 39.546875 41.84375 41.421875 45.53125 
Q 43.3125 49.21875 43.3125 52.78125 
Q 43.3125 58.59375 39.234375 62.25 
Q 35.15625 65.921875 28.609375 65.921875 
Q 23.96875 65.921875 18.8125 64.3125 
Q 13.671875 62.703125 7.8125 59.421875 
L 7.8125 69.390625 
Q 13.765625 71.78125 18.9375 73 
Q 24.125 74.21875 28.421875 74.21875 
Q 39.75 74.21875 46.484375 68.546875 
Q 53.21875 62.890625 53.21875 53.421875 
Q 53.21875 48.921875 51.53125 44.890625 
Q 49.859375 40.875 45.40625 35.40625 
Q 44.1875 33.984375 37.640625 27.21875 
Q 31.109375 20.453125 19.1875 8.296875 
z
" id="DejaVuSans-50"/>
       <path d="M 31.78125 66.40625 
Q 24.171875 66.40625 20.328125 58.90625 
Q 16.5 51.421875 16.5 36.375 
Q 16.5 21.390625 20.328125 13.890625 
Q 24.171875 6.390625 31.78125 6.390625 
Q 39.453125 6.390625 43.28125 13.890625 
Q 47.125 21.390625 47.125 36.375 
Q 47.125 51.421875 43.28125 58.90625 
Q 39.453125 66.40625 31.78125 66.40625 
z
M 31.78125 74.21875 
Q 44.046875 74.21875 50.515625 64.515625 
Q 56.984375 54.828125 56.984375 36.375 
Q 56.984375 17.96875 50.515625 8.265625 
Q 44.046875 -1.421875 31.78125 -1.421875 
Q 19.53125 -1.421875 13.0625 8.265625 
Q 6.59375 17.96875 6.59375 36.375 
Q 6.59375 54.828125 13.0625 64.515625 
Q 19.53125 74.21875 31.78125 74.21875 
z
" id="DejaVuSans-48"/>
       <path d="M 4.890625 31.390625 
L 31.203125 31.390625 
L 31.203125 23.390625 
L 4.890625 23.390625 
z
" id="DejaVuSans-45"/>
       <path d="M 40.578125 39.3125 
Q 47.65625 37.796875 51.625 33 
Q 55.609375 28.21875 55.609375 21.1875 
Q 55.609375 10.40625 48.1875 4.484375 
Q 40.765625 -1.421875 27.09375 -1.421875 
Q 22.515625 -1.421875 17.65625 -0.515625 
Q 12.796875 0.390625 7.625 2.203125 
L 7.625 11.71875 
Q 11.71875 9.328125 16.59375 8.109375 
Q 21.484375 6.890625 26.8125 6.890625 
Q 36.078125 6.890625 40.9375 10.546875 
Q 45.796875 14.203125 45.796875 21.1875 
Q 45.796875 27.640625 41.28125 31.265625 
Q 36.765625 34.90625 28.71875 34.90625 
L 20.21875 34.90625 
L 20.21875 43.015625 
L 29.109375 43.015625 
Q 36.375 43.015625 40.234375 45.921875 
Q 44.09375 48.828125 44.09375 54.296875 
Q 44.09375 59.90625 40.109375 62.90625 
Q 36.140625 65.921875 28.71875 65.921875 
Q 24.65625 65.921875 20.015625 65.03125 
Q 15.375 64.15625 9.8125 62.3125 
L 9.8125 71.09375 
Q 15.4375 72.65625 20.34375 73.4375 
Q 25.25 74.21875 29.59375 74.21875 
Q 40.828125 74.21875 47.359375 69.109375 
Q 53.90625 64.015625 53.90625 55.328125 
Q 53.90625 49.265625 50.4375 45.09375 
Q 46.96875 40.921875 40.578125 39.3125 
z
" id="DejaVuSans-51"/>
       <path d="M 12.40625 8.296875 
L 28.515625 8.296875 
L 28.515625 63.921875 
L 10.984375 60.40625 
L 10.984375 69.390625 
L 28.421875 72.90625 
L 38.28125 72.90625 
L 38.28125 8.296875 
L 54.390625 8.296875 
L 54.390625 0 
L 12.40625 0 
z
" id="DejaVuSans-49"/>
      </defs>
      <g transform="translate(98.439899 333.329439)rotate(-45)scale(0.1 -0.1)">
       <use xlink:href="#DejaVuSans-50"/>
       <use x="63.623047" xlink:href="#DejaVuSans-48"/>
       <use x="127.246094" xlink:href="#DejaVuSans-50"/>
       <use x="190.869141" xlink:href="#DejaVuSans-48"/>
       <use x="254.492188" xlink:href="#DejaVuSans-45"/>
       <use x="290.576172" xlink:href="#DejaVuSans-48"/>
       <use x="354.199219" xlink:href="#DejaVuSans-51"/>
       <use x="417.822266" xlink:href="#DejaVuSans-45"/>
       <use x="453.90625" xlink:href="#DejaVuSans-48"/>
       <use x="517.529297" xlink:href="#DejaVuSans-49"/>
      </g>
     </g>
    </g>
    <g id="xtick_2">
     <g id="line2d_2">
      <g>
       <use style="stroke:#000000;stroke-width:0.8;" x="174.693257" xlink:href="#m5a005a0b13" y="279.86258"/>
      </g>
     </g>
     <g id="text_2">
      <!-- 2020-03-15 -->
      <defs>
       <path d="M 10.796875 72.90625 
L 49.515625 72.90625 
L 49.515625 64.59375 
L 19.828125 64.59375 
L 19.828125 46.734375 
Q 21.96875 47.46875 24.109375 47.828125 
Q 26.265625 48.1875 28.421875 48.1875 
Q 40.625 48.1875 47.75 41.5 
Q 54.890625 34.8125 54.890625 23.390625 
Q 54.890625 11.625 47.5625 5.09375 
Q 40.234375 -1.421875 26.90625 -1.421875 
Q 22.3125 -1.421875 17.546875 -0.640625 
Q 12.796875 0.140625 7.71875 1.703125 
L 7.71875 11.625 
Q 12.109375 9.234375 16.796875 8.0625 
Q 21.484375 6.890625 26.703125 6.890625 
Q 35.15625 6.890625 40.078125 11.328125 
Q 45.015625 15.765625 45.015625 23.390625 
Q 45.015625 31 40.078125 35.4375 
Q 35.15625 39.890625 26.703125 39.890625 
Q 22.75 39.890625 18.8125 39.015625 
Q 14.890625 38.140625 10.796875 36.28125 
z
" id="DejaVuSans-53"/>
      </defs>
      <g transform="translate(156.097453 333.329439)rotate(-45)scale(0.1 -0.1)">
       <use xlink:href="#DejaVuSans-50"/>
       <use x="63.623047" xlink:href="#DejaVuSans-48"/>
       <use x="127.246094" xlink:href="#DejaVuSans-50"/>
       <use x="190.869141" xlink:href="#DejaVuSans-48"/>
       <use x="254.492188" xlink:href="#DejaVuSans-45"/>
       <use x="290.576172" xlink:href="#DejaVuSans-48"/>
       <use x="354.199219" xlink:href="#DejaVuSans-51"/>
       <use x="417.822266" xlink:href="#DejaVuSans-45"/>
       <use x="453.90625" xlink:href="#DejaVuSans-49"/>
       <use x="517.529297" xlink:href="#DejaVuSans-53"/>
      </g>
     </g>
    </g>
    <g id="xtick_3">
     <g id="line2d_3">
      <g>
       <use style="stroke:#000000;stroke-width:0.8;" x="244.706001" xlink:href="#m5a005a0b13" y="279.86258"/>
      </g>
     </g>
     <g id="text_3">
      <!-- 2020-04-01 -->
      <defs>
       <path d="M 37.796875 64.3125 
L 12.890625 25.390625 
L 37.796875 25.390625 
z
M 35.203125 72.90625 
L 47.609375 72.90625 
L 47.609375 25.390625 
L 58.015625 25.390625 
L 58.015625 17.1875 
L 47.609375 17.1875 
L 47.609375 0 
L 37.796875 0 
L 37.796875 17.1875 
L 4.890625 17.1875 
L 4.890625 26.703125 
z
" id="DejaVuSans-52"/>
      </defs>
      <g transform="translate(226.110198 333.329439)rotate(-45)scale(0.1 -0.1)">
       <use xlink:href="#DejaVuSans-50"/>
       <use x="63.623047" xlink:href="#DejaVuSans-48"/>
       <use x="127.246094" xlink:href="#DejaVuSans-50"/>
       <use x="190.869141" xlink:href="#DejaVuSans-48"/>
       <use x="254.492188" xlink:href="#DejaVuSans-45"/>
       <use x="290.576172" xlink:href="#DejaVuSans-48"/>
       <use x="354.199219" xlink:href="#DejaVuSans-52"/>
       <use x="417.822266" xlink:href="#DejaVuSans-45"/>
       <use x="453.90625" xlink:href="#DejaVuSans-48"/>
       <use x="517.529297" xlink:href="#DejaVuSans-49"/>
      </g>
     </g>
    </g>
    <g id="xtick_4">
     <g id="line2d_4">
      <g>
       <use style="stroke:#000000;stroke-width:0.8;" x="302.363556" xlink:href="#m5a005a0b13" y="279.86258"/>
      </g>
     </g>
     <g id="text_4">
      <!-- 2020-04-15 -->
      <g transform="translate(283.767752 333.329439)rotate(-45)scale(0.1 -0.1)">
       <use xlink:href="#DejaVuSans-50"/>
       <use x="63.623047" xlink:href="#DejaVuSans-48"/>
       <use x="127.246094" xlink:href="#DejaVuSans-50"/>
       <use x="190.869141" xlink:href="#DejaVuSans-48"/>
       <use x="254.492188" xlink:href="#DejaVuSans-45"/>
       <use x="290.576172" xlink:href="#DejaVuSans-48"/>
       <use x="354.199219" xlink:href="#DejaVuSans-52"/>
       <use x="417.822266" xlink:href="#DejaVuSans-45"/>
       <use x="453.90625" xlink:href="#DejaVuSans-49"/>
       <use x="517.529297" xlink:href="#DejaVuSans-53"/>
      </g>
     </g>
    </g>
    <g id="xtick_5">
     <g id="line2d_5">
      <g>
       <use style="stroke:#000000;stroke-width:0.8;" x="368.257904" xlink:href="#m5a005a0b13" y="279.86258"/>
      </g>
     </g>
     <g id="text_5">
      <!-- 2020-05-01 -->
      <g transform="translate(349.6621 333.329439)rotate(-45)scale(0.1 -0.1)">
       <use xlink:href="#DejaVuSans-50"/>
       <use x="63.623047" xlink:href="#DejaVuSans-48"/>
       <use x="127.246094" xlink:href="#DejaVuSans-50"/>
       <use x="190.869141" xlink:href="#DejaVuSans-48"/>
       <use x="254.492188" xlink:href="#DejaVuSans-45"/>
       <use x="290.576172" xlink:href="#DejaVuSans-48"/>
       <use x="354.199219" xlink:href="#DejaVuSans-53"/>
       <use x="417.822266" xlink:href="#DejaVuSans-45"/>
       <use x="453.90625" xlink:href="#DejaVuSans-48"/>
       <use x="517.529297" xlink:href="#DejaVuSans-49"/>
      </g>
     </g>
    </g>
    <g id="xtick_6">
     <g id="line2d_6">
      <g>
       <use style="stroke:#000000;stroke-width:0.8;" x="425.915458" xlink:href="#m5a005a0b13" y="279.86258"/>
      </g>
     </g>
     <g id="text_6">
      <!-- 2020-05-15 -->
      <g transform="translate(407.319655 333.329439)rotate(-45)scale(0.1 -0.1)">
       <use xlink:href="#DejaVuSans-50"/>
       <use x="63.623047" xlink:href="#DejaVuSans-48"/>
       <use x="127.246094" xlink:href="#DejaVuSans-50"/>
       <use x="190.869141" xlink:href="#DejaVuSans-48"/>
       <use x="254.492188" xlink:href="#DejaVuSans-45"/>
       <use x="290.576172" xlink:href="#DejaVuSans-48"/>
       <use x="354.199219" xlink:href="#DejaVuSans-53"/>
       <use x="417.822266" xlink:href="#DejaVuSans-45"/>
       <use x="453.90625" xlink:href="#DejaVuSans-49"/>
       <use x="517.529297" xlink:href="#DejaVuSans-53"/>
      </g>
     </g>
    </g>
   </g>
   <g id="matplotlib.axis_2">
    <g id="ytick_1">
     <g id="line2d_7">
      <defs>
       <path d="M 0 0 
L -3.5 0 
" id="m0c8275718f" style="stroke:#000000;stroke-width:0.8;"/>
      </defs>
      <g>
       <use style="stroke:#000000;stroke-width:0.8;" x="63.290625" xlink:href="#m0c8275718f" y="279.86258"/>
      </g>
     </g>
     <g id="text_7">
      <!-- 0 -->
      <g transform="translate(49.928125 283.661798)scale(0.1 -0.1)">
       <use xlink:href="#DejaVuSans-48"/>
      </g>
     </g>
    </g>
    <g id="ytick_2">
     <g id="line2d_8">
      <g>
       <use style="stroke:#000000;stroke-width:0.8;" x="63.290625" xlink:href="#m0c8275718f" y="232.232454"/>
      </g>
     </g>
     <g id="text_8">
      <!-- 2000 -->
      <g transform="translate(30.840625 236.031673)scale(0.1 -0.1)">
       <use xlink:href="#DejaVuSans-50"/>
       <use x="63.623047" xlink:href="#DejaVuSans-48"/>
       <use x="127.246094" xlink:href="#DejaVuSans-48"/>
       <use x="190.869141" xlink:href="#DejaVuSans-48"/>
      </g>
     </g>
    </g>
    <g id="ytick_3">
     <g id="line2d_9">
      <g>
       <use style="stroke:#000000;stroke-width:0.8;" x="63.290625" xlink:href="#m0c8275718f" y="184.602328"/>
      </g>
     </g>
     <g id="text_9">
      <!-- 4000 -->
      <g transform="translate(30.840625 188.401547)scale(0.1 -0.1)">
       <use xlink:href="#DejaVuSans-52"/>
       <use x="63.623047" xlink:href="#DejaVuSans-48"/>
       <use x="127.246094" xlink:href="#DejaVuSans-48"/>
       <use x="190.869141" xlink:href="#DejaVuSans-48"/>
      </g>
     </g>
    </g>
    <g id="ytick_4">
     <g id="line2d_10">
      <g>
       <use style="stroke:#000000;stroke-width:0.8;" x="63.290625" xlink:href="#m0c8275718f" y="136.972203"/>
      </g>
     </g>
     <g id="text_10">
      <!-- 6000 -->
      <defs>
       <path d="M 33.015625 40.375 
Q 26.375 40.375 22.484375 35.828125 
Q 18.609375 31.296875 18.609375 23.390625 
Q 18.609375 15.53125 22.484375 10.953125 
Q 26.375 6.390625 33.015625 6.390625 
Q 39.65625 6.390625 43.53125 10.953125 
Q 47.40625 15.53125 47.40625 23.390625 
Q 47.40625 31.296875 43.53125 35.828125 
Q 39.65625 40.375 33.015625 40.375 
z
M 52.59375 71.296875 
L 52.59375 62.3125 
Q 48.875 64.0625 45.09375 64.984375 
Q 41.3125 65.921875 37.59375 65.921875 
Q 27.828125 65.921875 22.671875 59.328125 
Q 17.53125 52.734375 16.796875 39.40625 
Q 19.671875 43.65625 24.015625 45.921875 
Q 28.375 48.1875 33.59375 48.1875 
Q 44.578125 48.1875 50.953125 41.515625 
Q 57.328125 34.859375 57.328125 23.390625 
Q 57.328125 12.15625 50.6875 5.359375 
Q 44.046875 -1.421875 33.015625 -1.421875 
Q 20.359375 -1.421875 13.671875 8.265625 
Q 6.984375 17.96875 6.984375 36.375 
Q 6.984375 53.65625 15.1875 63.9375 
Q 23.390625 74.21875 37.203125 74.21875 
Q 40.921875 74.21875 44.703125 73.484375 
Q 48.484375 72.75 52.59375 71.296875 
z
" id="DejaVuSans-54"/>
      </defs>
      <g transform="translate(30.840625 140.771422)scale(0.1 -0.1)">
       <use xlink:href="#DejaVuSans-54"/>
       <use x="63.623047" xlink:href="#DejaVuSans-48"/>
       <use x="127.246094" xlink:href="#DejaVuSans-48"/>
       <use x="190.869141" xlink:href="#DejaVuSans-48"/>
      </g>
     </g>
    </g>
    <g id="ytick_5">
     <g id="line2d_11">
      <g>
       <use style="stroke:#000000;stroke-width:0.8;" x="63.290625" xlink:href="#m0c8275718f" y="89.342077"/>
      </g>
     </g>
     <g id="text_11">
      <!-- 8000 -->
      <defs>
       <path d="M 31.78125 34.625 
Q 24.75 34.625 20.71875 30.859375 
Q 16.703125 27.09375 16.703125 20.515625 
Q 16.703125 13.921875 20.71875 10.15625 
Q 24.75 6.390625 31.78125 6.390625 
Q 38.8125 6.390625 42.859375 10.171875 
Q 46.921875 13.96875 46.921875 20.515625 
Q 46.921875 27.09375 42.890625 30.859375 
Q 38.875 34.625 31.78125 34.625 
z
M 21.921875 38.8125 
Q 15.578125 40.375 12.03125 44.71875 
Q 8.5 49.078125 8.5 55.328125 
Q 8.5 64.0625 14.71875 69.140625 
Q 20.953125 74.21875 31.78125 74.21875 
Q 42.671875 74.21875 48.875 69.140625 
Q 55.078125 64.0625 55.078125 55.328125 
Q 55.078125 49.078125 51.53125 44.71875 
Q 48 40.375 41.703125 38.8125 
Q 48.828125 37.15625 52.796875 32.3125 
Q 56.78125 27.484375 56.78125 20.515625 
Q 56.78125 9.90625 50.3125 4.234375 
Q 43.84375 -1.421875 31.78125 -1.421875 
Q 19.734375 -1.421875 13.25 4.234375 
Q 6.78125 9.90625 6.78125 20.515625 
Q 6.78125 27.484375 10.78125 32.3125 
Q 14.796875 37.15625 21.921875 38.8125 
z
M 18.3125 54.390625 
Q 18.3125 48.734375 21.84375 45.5625 
Q 25.390625 42.390625 31.78125 42.390625 
Q 38.140625 42.390625 41.71875 45.5625 
Q 45.3125 48.734375 45.3125 54.390625 
Q 45.3125 60.0625 41.71875 63.234375 
Q 38.140625 66.40625 31.78125 66.40625 
Q 25.390625 66.40625 21.84375 63.234375 
Q 18.3125 60.0625 18.3125 54.390625 
z
" id="DejaVuSans-56"/>
      </defs>
      <g transform="translate(30.840625 93.141296)scale(0.1 -0.1)">
       <use xlink:href="#DejaVuSans-56"/>
       <use x="63.623047" xlink:href="#DejaVuSans-48"/>
       <use x="127.246094" xlink:href="#DejaVuSans-48"/>
       <use x="190.869141" xlink:href="#DejaVuSans-48"/>
      </g>
     </g>
    </g>
    <g id="ytick_6">
     <g id="line2d_12">
      <g>
       <use style="stroke:#000000;stroke-width:0.8;" x="63.290625" xlink:href="#m0c8275718f" y="41.711952"/>
      </g>
     </g>
     <g id="text_12">
      <!-- 10000 -->
      <g transform="translate(24.478125 45.51117)scale(0.1 -0.1)">
       <use xlink:href="#DejaVuSans-49"/>
       <use x="63.623047" xlink:href="#DejaVuSans-48"/>
       <use x="127.246094" xlink:href="#DejaVuSans-48"/>
       <use x="190.869141" xlink:href="#DejaVuSans-48"/>
       <use x="254.492188" xlink:href="#DejaVuSans-48"/>
      </g>
     </g>
    </g>
    <g id="text_13">
     <!-- VC pcr acumulados -->
     <defs>
      <path d="M 28.609375 0 
L 0.78125 72.90625 
L 11.078125 72.90625 
L 34.1875 11.53125 
L 57.328125 72.90625 
L 67.578125 72.90625 
L 39.796875 0 
z
" id="DejaVuSans-86"/>
      <path d="M 64.40625 67.28125 
L 64.40625 56.890625 
Q 59.421875 61.53125 53.78125 63.8125 
Q 48.140625 66.109375 41.796875 66.109375 
Q 29.296875 66.109375 22.65625 58.46875 
Q 16.015625 50.828125 16.015625 36.375 
Q 16.015625 21.96875 22.65625 14.328125 
Q 29.296875 6.6875 41.796875 6.6875 
Q 48.140625 6.6875 53.78125 8.984375 
Q 59.421875 11.28125 64.40625 15.921875 
L 64.40625 5.609375 
Q 59.234375 2.09375 53.4375 0.328125 
Q 47.65625 -1.421875 41.21875 -1.421875 
Q 24.65625 -1.421875 15.125 8.703125 
Q 5.609375 18.84375 5.609375 36.375 
Q 5.609375 53.953125 15.125 64.078125 
Q 24.65625 74.21875 41.21875 74.21875 
Q 47.75 74.21875 53.53125 72.484375 
Q 59.328125 70.75 64.40625 67.28125 
z
" id="DejaVuSans-67"/>
      <path id="DejaVuSans-32"/>
      <path d="M 18.109375 8.203125 
L 18.109375 -20.796875 
L 9.078125 -20.796875 
L 9.078125 54.6875 
L 18.109375 54.6875 
L 18.109375 46.390625 
Q 20.953125 51.265625 25.265625 53.625 
Q 29.59375 56 35.59375 56 
Q 45.5625 56 51.78125 48.09375 
Q 58.015625 40.1875 58.015625 27.296875 
Q 58.015625 14.40625 51.78125 6.484375 
Q 45.5625 -1.421875 35.59375 -1.421875 
Q 29.59375 -1.421875 25.265625 0.953125 
Q 20.953125 3.328125 18.109375 8.203125 
z
M 48.6875 27.296875 
Q 48.6875 37.203125 44.609375 42.84375 
Q 40.53125 48.484375 33.40625 48.484375 
Q 26.265625 48.484375 22.1875 42.84375 
Q 18.109375 37.203125 18.109375 27.296875 
Q 18.109375 17.390625 22.1875 11.75 
Q 26.265625 6.109375 33.40625 6.109375 
Q 40.53125 6.109375 44.609375 11.75 
Q 48.6875 17.390625 48.6875 27.296875 
z
" id="DejaVuSans-112"/>
      <path d="M 48.78125 52.59375 
L 48.78125 44.1875 
Q 44.96875 46.296875 41.140625 47.34375 
Q 37.3125 48.390625 33.40625 48.390625 
Q 24.65625 48.390625 19.8125 42.84375 
Q 14.984375 37.3125 14.984375 27.296875 
Q 14.984375 17.28125 19.8125 11.734375 
Q 24.65625 6.203125 33.40625 6.203125 
Q 37.3125 6.203125 41.140625 7.25 
Q 44.96875 8.296875 48.78125 10.40625 
L 48.78125 2.09375 
Q 45.015625 0.34375 40.984375 -0.53125 
Q 36.96875 -1.421875 32.421875 -1.421875 
Q 20.0625 -1.421875 12.78125 6.34375 
Q 5.515625 14.109375 5.515625 27.296875 
Q 5.515625 40.671875 12.859375 48.328125 
Q 20.21875 56 33.015625 56 
Q 37.15625 56 41.109375 55.140625 
Q 45.0625 54.296875 48.78125 52.59375 
z
" id="DejaVuSans-99"/>
      <path d="M 41.109375 46.296875 
Q 39.59375 47.171875 37.8125 47.578125 
Q 36.03125 48 33.890625 48 
Q 26.265625 48 22.1875 43.046875 
Q 18.109375 38.09375 18.109375 28.8125 
L 18.109375 0 
L 9.078125 0 
L 9.078125 54.6875 
L 18.109375 54.6875 
L 18.109375 46.1875 
Q 20.953125 51.171875 25.484375 53.578125 
Q 30.03125 56 36.53125 56 
Q 37.453125 56 38.578125 55.875 
Q 39.703125 55.765625 41.0625 55.515625 
z
" id="DejaVuSans-114"/>
      <path d="M 34.28125 27.484375 
Q 23.390625 27.484375 19.1875 25 
Q 14.984375 22.515625 14.984375 16.5 
Q 14.984375 11.71875 18.140625 8.90625 
Q 21.296875 6.109375 26.703125 6.109375 
Q 34.1875 6.109375 38.703125 11.40625 
Q 43.21875 16.703125 43.21875 25.484375 
L 43.21875 27.484375 
z
M 52.203125 31.203125 
L 52.203125 0 
L 43.21875 0 
L 43.21875 8.296875 
Q 40.140625 3.328125 35.546875 0.953125 
Q 30.953125 -1.421875 24.3125 -1.421875 
Q 15.921875 -1.421875 10.953125 3.296875 
Q 6 8.015625 6 15.921875 
Q 6 25.140625 12.171875 29.828125 
Q 18.359375 34.515625 30.609375 34.515625 
L 43.21875 34.515625 
L 43.21875 35.40625 
Q 43.21875 41.609375 39.140625 45 
Q 35.0625 48.390625 27.6875 48.390625 
Q 23 48.390625 18.546875 47.265625 
Q 14.109375 46.140625 10.015625 43.890625 
L 10.015625 52.203125 
Q 14.9375 54.109375 19.578125 55.046875 
Q 24.21875 56 28.609375 56 
Q 40.484375 56 46.34375 49.84375 
Q 52.203125 43.703125 52.203125 31.203125 
z
" id="DejaVuSans-97"/>
      <path d="M 8.5 21.578125 
L 8.5 54.6875 
L 17.484375 54.6875 
L 17.484375 21.921875 
Q 17.484375 14.15625 20.5 10.265625 
Q 23.53125 6.390625 29.59375 6.390625 
Q 36.859375 6.390625 41.078125 11.03125 
Q 45.3125 15.671875 45.3125 23.6875 
L 45.3125 54.6875 
L 54.296875 54.6875 
L 54.296875 0 
L 45.3125 0 
L 45.3125 8.40625 
Q 42.046875 3.421875 37.71875 1 
Q 33.40625 -1.421875 27.6875 -1.421875 
Q 18.265625 -1.421875 13.375 4.4375 
Q 8.5 10.296875 8.5 21.578125 
z
M 31.109375 56 
z
" id="DejaVuSans-117"/>
      <path d="M 52 44.1875 
Q 55.375 50.25 60.0625 53.125 
Q 64.75 56 71.09375 56 
Q 79.640625 56 84.28125 50.015625 
Q 88.921875 44.046875 88.921875 33.015625 
L 88.921875 0 
L 79.890625 0 
L 79.890625 32.71875 
Q 79.890625 40.578125 77.09375 44.375 
Q 74.3125 48.1875 68.609375 48.1875 
Q 61.625 48.1875 57.5625 43.546875 
Q 53.515625 38.921875 53.515625 30.90625 
L 53.515625 0 
L 44.484375 0 
L 44.484375 32.71875 
Q 44.484375 40.625 41.703125 44.40625 
Q 38.921875 48.1875 33.109375 48.1875 
Q 26.21875 48.1875 22.15625 43.53125 
Q 18.109375 38.875 18.109375 30.90625 
L 18.109375 0 
L 9.078125 0 
L 9.078125 54.6875 
L 18.109375 54.6875 
L 18.109375 46.1875 
Q 21.1875 51.21875 25.484375 53.609375 
Q 29.78125 56 35.6875 56 
Q 41.65625 56 45.828125 52.96875 
Q 50 49.953125 52 44.1875 
z
" id="DejaVuSans-109"/>
      <path d="M 9.421875 75.984375 
L 18.40625 75.984375 
L 18.40625 0 
L 9.421875 0 
z
" id="DejaVuSans-108"/>
      <path d="M 45.40625 46.390625 
L 45.40625 75.984375 
L 54.390625 75.984375 
L 54.390625 0 
L 45.40625 0 
L 45.40625 8.203125 
Q 42.578125 3.328125 38.25 0.953125 
Q 33.9375 -1.421875 27.875 -1.421875 
Q 17.96875 -1.421875 11.734375 6.484375 
Q 5.515625 14.40625 5.515625 27.296875 
Q 5.515625 40.1875 11.734375 48.09375 
Q 17.96875 56 27.875 56 
Q 33.9375 56 38.25 53.625 
Q 42.578125 51.265625 45.40625 46.390625 
z
M 14.796875 27.296875 
Q 14.796875 17.390625 18.875 11.75 
Q 22.953125 6.109375 30.078125 6.109375 
Q 37.203125 6.109375 41.296875 11.75 
Q 45.40625 17.390625 45.40625 27.296875 
Q 45.40625 37.203125 41.296875 42.84375 
Q 37.203125 48.484375 30.078125 48.484375 
Q 22.953125 48.484375 18.875 42.84375 
Q 14.796875 37.203125 14.796875 27.296875 
z
" id="DejaVuSans-100"/>
      <path d="M 30.609375 48.390625 
Q 23.390625 48.390625 19.1875 42.75 
Q 14.984375 37.109375 14.984375 27.296875 
Q 14.984375 17.484375 19.15625 11.84375 
Q 23.34375 6.203125 30.609375 6.203125 
Q 37.796875 6.203125 41.984375 11.859375 
Q 46.1875 17.53125 46.1875 27.296875 
Q 46.1875 37.015625 41.984375 42.703125 
Q 37.796875 48.390625 30.609375 48.390625 
z
M 30.609375 56 
Q 42.328125 56 49.015625 48.375 
Q 55.71875 40.765625 55.71875 27.296875 
Q 55.71875 13.875 49.015625 6.21875 
Q 42.328125 -1.421875 30.609375 -1.421875 
Q 18.84375 -1.421875 12.171875 6.21875 
Q 5.515625 13.875 5.515625 27.296875 
Q 5.515625 40.765625 12.171875 48.375 
Q 18.84375 56 30.609375 56 
z
" id="DejaVuSans-111"/>
      <path d="M 44.28125 53.078125 
L 44.28125 44.578125 
Q 40.484375 46.53125 36.375 47.5 
Q 32.28125 48.484375 27.875 48.484375 
Q 21.1875 48.484375 17.84375 46.4375 
Q 14.5 44.390625 14.5 40.28125 
Q 14.5 37.15625 16.890625 35.375 
Q 19.28125 33.59375 26.515625 31.984375 
L 29.59375 31.296875 
Q 39.15625 29.25 43.1875 25.515625 
Q 47.21875 21.78125 47.21875 15.09375 
Q 47.21875 7.46875 41.1875 3.015625 
Q 35.15625 -1.421875 24.609375 -1.421875 
Q 20.21875 -1.421875 15.453125 -0.5625 
Q 10.6875 0.296875 5.421875 2 
L 5.421875 11.28125 
Q 10.40625 8.6875 15.234375 7.390625 
Q 20.0625 6.109375 24.8125 6.109375 
Q 31.15625 6.109375 34.5625 8.28125 
Q 37.984375 10.453125 37.984375 14.40625 
Q 37.984375 18.0625 35.515625 20.015625 
Q 33.0625 21.96875 24.703125 23.78125 
L 21.578125 24.515625 
Q 13.234375 26.265625 9.515625 29.90625 
Q 5.8125 33.546875 5.8125 39.890625 
Q 5.8125 47.609375 11.28125 51.796875 
Q 16.75 56 26.8125 56 
Q 31.78125 56 36.171875 55.265625 
Q 40.578125 54.546875 44.28125 53.078125 
z
" id="DejaVuSans-115"/>
     </defs>
     <g transform="translate(18.398438 193.71254)rotate(-90)scale(0.1 -0.1)">
      <use xlink:href="#DejaVuSans-86"/>
      <use x="68.408203" xlink:href="#DejaVuSans-67"/>
      <use x="138.232422" xlink:href="#DejaVuSans-32"/>
      <use x="170.019531" xlink:href="#DejaVuSans-112"/>
      <use x="233.496094" xlink:href="#DejaVuSans-99"/>
      <use x="288.476562" xlink:href="#DejaVuSans-114"/>
      <use x="329.589844" xlink:href="#DejaVuSans-32"/>
      <use x="361.376953" xlink:href="#DejaVuSans-97"/>
      <use x="422.65625" xlink:href="#DejaVuSans-99"/>
      <use x="477.636719" xlink:href="#DejaVuSans-117"/>
      <use x="541.015625" xlink:href="#DejaVuSans-109"/>
      <use x="638.427734" xlink:href="#DejaVuSans-117"/>
      <use x="701.806641" xlink:href="#DejaVuSans-108"/>
      <use x="729.589844" xlink:href="#DejaVuSans-97"/>
      <use x="790.869141" xlink:href="#DejaVuSans-100"/>
      <use x="854.345703" xlink:href="#DejaVuSans-111"/>
      <use x="915.527344" xlink:href="#DejaVuSans-115"/>
     </g>
    </g>
   </g>
   <g id="line2d_13">
    <path clip-path="url(#p04d3f6ac7b)" d="M 79.970132 279.86258 
L 84.088529 279.86258 
L 88.206925 279.86258 
L 92.325322 279.86258 
L 96.443719 279.838765 
L 100.562116 279.81495 
L 104.680512 279.672059 
L 108.798909 279.624429 
L 112.917306 279.505354 
L 117.035702 279.505354 
L 121.154099 279.505354 
L 125.272496 279.410093 
L 129.390893 279.410093 
L 133.509289 279.148128 
L 137.627686 279.148128 
L 141.746083 278.981422 
L 145.86448 278.981422 
L 149.982876 278.671827 
L 154.101273 278.314601 
L 158.21967 278.052635 
L 162.338067 277.623964 
L 166.456463 276.766621 
L 170.57486 270.122219 
L 174.693257 270.122219 
L 178.811654 266.978631 
L 182.93005 262.572844 
L 187.048447 257.928907 
L 191.166844 253.546935 
L 195.285241 247.402649 
L 199.403637 241.663219 
L 203.522034 234.590145 
L 207.640431 228.255339 
L 211.758828 217.562375 
L 215.877224 203.654379 
L 219.995621 195.747778 
L 224.114018 183.792616 
L 228.232415 165.931319 
L 232.350811 158.167609 
L 236.469208 148.689214 
L 240.587605 138.829778 
L 244.706001 129.637163 
L 248.824398 122.111604 
L 252.942795 115.514831 
L 257.061192 108.775168 
L 261.179588 105.202909 
L 265.297985 102.607067 
L 269.416382 97.558274 
L 273.534779 90.199419 
L 277.653175 81.459291 
L 281.771572 75.576971 
L 285.889969 69.313609 
L 290.008366 64.098111 
L 294.126762 60.454406 
L 298.245159 55.429428 
L 302.363556 50.880751 
L 306.481953 53.952894 
L 310.600349 51.619018 
L 314.718746 49.880518 
L 318.837143 48.66595 
L 322.95554 47.665717 
L 327.073936 45.879588 
L 331.192333 44.831725 
L 335.31073 43.16467 
L 339.429127 40.140157 
L 343.547523 37.901541 
L 347.66592 37.42524 
L 351.784317 36.853679 
L 355.902713 36.091597 
L 360.02111 33.829166 
L 364.139507 33.448125 
L 368.257904 31.923961 
L 372.3763 31.328584 
L 376.494697 31.328584 
L 380.613094 29.80442 
L 384.731491 28.923263 
L 388.849887 27.613434 
L 392.968284 26.970428 
L 397.086681 25.970195 
L 401.205078 24.731812 
L 405.323474 24.350771 
L 409.441871 24.088805 
L 413.560268 23.612504 
" style="fill:none;stroke:#1f77b4;stroke-linecap:square;stroke-width:1.5;"/>
    <defs>
     <path d="M 0 1.5 
C 0.397805 1.5 0.77937 1.341951 1.06066 1.06066 
C 1.341951 0.77937 1.5 0.397805 1.5 0 
C 1.5 -0.397805 1.341951 -0.77937 1.06066 -1.06066 
C 0.77937 -1.341951 0.397805 -1.5 0 -1.5 
C -0.397805 -1.5 -0.77937 -1.341951 -1.06066 -1.06066 
C -1.341951 -0.77937 -1.5 -0.397805 -1.5 0 
C -1.5 0.397805 -1.341951 0.77937 -1.06066 1.06066 
C -0.77937 1.341951 -0.397805 1.5 0 1.5 
z
" id="m9fe2c49389" style="stroke:#1f77b4;"/>
    </defs>
    <g clip-path="url(#p04d3f6ac7b)">
     <use style="fill:#1f77b4;stroke:#1f77b4;" x="79.970132" xlink:href="#m9fe2c49389" y="279.86258"/>
     <use style="fill:#1f77b4;stroke:#1f77b4;" x="84.088529" xlink:href="#m9fe2c49389" y="279.86258"/>
     <use style="fill:#1f77b4;stroke:#1f77b4;" x="88.206925" xlink:href="#m9fe2c49389" y="279.86258"/>
     <use style="fill:#1f77b4;stroke:#1f77b4;" x="92.325322" xlink:href="#m9fe2c49389" y="279.86258"/>
     <use style="fill:#1f77b4;stroke:#1f77b4;" x="96.443719" xlink:href="#m9fe2c49389" y="279.838765"/>
     <use style="fill:#1f77b4;stroke:#1f77b4;" x="100.562116" xlink:href="#m9fe2c49389" y="279.81495"/>
     <use style="fill:#1f77b4;stroke:#1f77b4;" x="104.680512" xlink:href="#m9fe2c49389" y="279.672059"/>
     <use style="fill:#1f77b4;stroke:#1f77b4;" x="108.798909" xlink:href="#m9fe2c49389" y="279.624429"/>
     <use style="fill:#1f77b4;stroke:#1f77b4;" x="112.917306" xlink:href="#m9fe2c49389" y="279.505354"/>
     <use style="fill:#1f77b4;stroke:#1f77b4;" x="117.035702" xlink:href="#m9fe2c49389" y="279.505354"/>
     <use style="fill:#1f77b4;stroke:#1f77b4;" x="121.154099" xlink:href="#m9fe2c49389" y="279.505354"/>
     <use style="fill:#1f77b4;stroke:#1f77b4;" x="125.272496" xlink:href="#m9fe2c49389" y="279.410093"/>
     <use style="fill:#1f77b4;stroke:#1f77b4;" x="129.390893" xlink:href="#m9fe2c49389" y="279.410093"/>
     <use style="fill:#1f77b4;stroke:#1f77b4;" x="133.509289" xlink:href="#m9fe2c49389" y="279.148128"/>
     <use style="fill:#1f77b4;stroke:#1f77b4;" x="137.627686" xlink:href="#m9fe2c49389" y="279.148128"/>
     <use style="fill:#1f77b4;stroke:#1f77b4;" x="141.746083" xlink:href="#m9fe2c49389" y="278.981422"/>
     <use style="fill:#1f77b4;stroke:#1f77b4;" x="145.86448" xlink:href="#m9fe2c49389" y="278.981422"/>
     <use style="fill:#1f77b4;stroke:#1f77b4;" x="149.982876" xlink:href="#m9fe2c49389" y="278.671827"/>
     <use style="fill:#1f77b4;stroke:#1f77b4;" x="154.101273" xlink:href="#m9fe2c49389" y="278.314601"/>
     <use style="fill:#1f77b4;stroke:#1f77b4;" x="158.21967" xlink:href="#m9fe2c49389" y="278.052635"/>
     <use style="fill:#1f77b4;stroke:#1f77b4;" x="162.338067" xlink:href="#m9fe2c49389" y="277.623964"/>
     <use style="fill:#1f77b4;stroke:#1f77b4;" x="166.456463" xlink:href="#m9fe2c49389" y="276.766621"/>
     <use style="fill:#1f77b4;stroke:#1f77b4;" x="170.57486" xlink:href="#m9fe2c49389" y="270.122219"/>
     <use style="fill:#1f77b4;stroke:#1f77b4;" x="174.693257" xlink:href="#m9fe2c49389" y="270.122219"/>
     <use style="fill:#1f77b4;stroke:#1f77b4;" x="178.811654" xlink:href="#m9fe2c49389" y="266.978631"/>
     <use style="fill:#1f77b4;stroke:#1f77b4;" x="182.93005" xlink:href="#m9fe2c49389" y="262.572844"/>
     <use style="fill:#1f77b4;stroke:#1f77b4;" x="187.048447" xlink:href="#m9fe2c49389" y="257.928907"/>
     <use style="fill:#1f77b4;stroke:#1f77b4;" x="191.166844" xlink:href="#m9fe2c49389" y="253.546935"/>
     <use style="fill:#1f77b4;stroke:#1f77b4;" x="195.285241" xlink:href="#m9fe2c49389" y="247.402649"/>
     <use style="fill:#1f77b4;stroke:#1f77b4;" x="199.403637" xlink:href="#m9fe2c49389" y="241.663219"/>
     <use style="fill:#1f77b4;stroke:#1f77b4;" x="203.522034" xlink:href="#m9fe2c49389" y="234.590145"/>
     <use style="fill:#1f77b4;stroke:#1f77b4;" x="207.640431" xlink:href="#m9fe2c49389" y="228.255339"/>
     <use style="fill:#1f77b4;stroke:#1f77b4;" x="211.758828" xlink:href="#m9fe2c49389" y="217.562375"/>
     <use style="fill:#1f77b4;stroke:#1f77b4;" x="215.877224" xlink:href="#m9fe2c49389" y="203.654379"/>
     <use style="fill:#1f77b4;stroke:#1f77b4;" x="219.995621" xlink:href="#m9fe2c49389" y="195.747778"/>
     <use style="fill:#1f77b4;stroke:#1f77b4;" x="224.114018" xlink:href="#m9fe2c49389" y="183.792616"/>
     <use style="fill:#1f77b4;stroke:#1f77b4;" x="228.232415" xlink:href="#m9fe2c49389" y="165.931319"/>
     <use style="fill:#1f77b4;stroke:#1f77b4;" x="232.350811" xlink:href="#m9fe2c49389" y="158.167609"/>
     <use style="fill:#1f77b4;stroke:#1f77b4;" x="236.469208" xlink:href="#m9fe2c49389" y="148.689214"/>
     <use style="fill:#1f77b4;stroke:#1f77b4;" x="240.587605" xlink:href="#m9fe2c49389" y="138.829778"/>
     <use style="fill:#1f77b4;stroke:#1f77b4;" x="244.706001" xlink:href="#m9fe2c49389" y="129.637163"/>
     <use style="fill:#1f77b4;stroke:#1f77b4;" x="248.824398" xlink:href="#m9fe2c49389" y="122.111604"/>
     <use style="fill:#1f77b4;stroke:#1f77b4;" x="252.942795" xlink:href="#m9fe2c49389" y="115.514831"/>
     <use style="fill:#1f77b4;stroke:#1f77b4;" x="257.061192" xlink:href="#m9fe2c49389" y="108.775168"/>
     <use style="fill:#1f77b4;stroke:#1f77b4;" x="261.179588" xlink:href="#m9fe2c49389" y="105.202909"/>
     <use style="fill:#1f77b4;stroke:#1f77b4;" x="265.297985" xlink:href="#m9fe2c49389" y="102.607067"/>
     <use style="fill:#1f77b4;stroke:#1f77b4;" x="269.416382" xlink:href="#m9fe2c49389" y="97.558274"/>
     <use style="fill:#1f77b4;stroke:#1f77b4;" x="273.534779" xlink:href="#m9fe2c49389" y="90.199419"/>
     <use style="fill:#1f77b4;stroke:#1f77b4;" x="277.653175" xlink:href="#m9fe2c49389" y="81.459291"/>
     <use style="fill:#1f77b4;stroke:#1f77b4;" x="281.771572" xlink:href="#m9fe2c49389" y="75.576971"/>
     <use style="fill:#1f77b4;stroke:#1f77b4;" x="285.889969" xlink:href="#m9fe2c49389" y="69.313609"/>
     <use style="fill:#1f77b4;stroke:#1f77b4;" x="290.008366" xlink:href="#m9fe2c49389" y="64.098111"/>
     <use style="fill:#1f77b4;stroke:#1f77b4;" x="294.126762" xlink:href="#m9fe2c49389" y="60.454406"/>
     <use style="fill:#1f77b4;stroke:#1f77b4;" x="298.245159" xlink:href="#m9fe2c49389" y="55.429428"/>
     <use style="fill:#1f77b4;stroke:#1f77b4;" x="302.363556" xlink:href="#m9fe2c49389" y="50.880751"/>
     <use style="fill:#1f77b4;stroke:#1f77b4;" x="306.481953" xlink:href="#m9fe2c49389" y="53.952894"/>
     <use style="fill:#1f77b4;stroke:#1f77b4;" x="310.600349" xlink:href="#m9fe2c49389" y="51.619018"/>
     <use style="fill:#1f77b4;stroke:#1f77b4;" x="314.718746" xlink:href="#m9fe2c49389" y="49.880518"/>
     <use style="fill:#1f77b4;stroke:#1f77b4;" x="318.837143" xlink:href="#m9fe2c49389" y="48.66595"/>
     <use style="fill:#1f77b4;stroke:#1f77b4;" x="322.95554" xlink:href="#m9fe2c49389" y="47.665717"/>
     <use style="fill:#1f77b4;stroke:#1f77b4;" x="327.073936" xlink:href="#m9fe2c49389" y="45.879588"/>
     <use style="fill:#1f77b4;stroke:#1f77b4;" x="331.192333" xlink:href="#m9fe2c49389" y="44.831725"/>
     <use style="fill:#1f77b4;stroke:#1f77b4;" x="335.31073" xlink:href="#m9fe2c49389" y="43.16467"/>
     <use style="fill:#1f77b4;stroke:#1f77b4;" x="339.429127" xlink:href="#m9fe2c49389" y="40.140157"/>
     <use style="fill:#1f77b4;stroke:#1f77b4;" x="343.547523" xlink:href="#m9fe2c49389" y="37.901541"/>
     <use style="fill:#1f77b4;stroke:#1f77b4;" x="347.66592" xlink:href="#m9fe2c49389" y="37.42524"/>
     <use style="fill:#1f77b4;stroke:#1f77b4;" x="351.784317" xlink:href="#m9fe2c49389" y="36.853679"/>
     <use style="fill:#1f77b4;stroke:#1f77b4;" x="355.902713" xlink:href="#m9fe2c49389" y="36.091597"/>
     <use style="fill:#1f77b4;stroke:#1f77b4;" x="360.02111" xlink:href="#m9fe2c49389" y="33.829166"/>
     <use style="fill:#1f77b4;stroke:#1f77b4;" x="364.139507" xlink:href="#m9fe2c49389" y="33.448125"/>
     <use style="fill:#1f77b4;stroke:#1f77b4;" x="368.257904" xlink:href="#m9fe2c49389" y="31.923961"/>
     <use style="fill:#1f77b4;stroke:#1f77b4;" x="372.3763" xlink:href="#m9fe2c49389" y="31.328584"/>
     <use style="fill:#1f77b4;stroke:#1f77b4;" x="376.494697" xlink:href="#m9fe2c49389" y="31.328584"/>
     <use style="fill:#1f77b4;stroke:#1f77b4;" x="380.613094" xlink:href="#m9fe2c49389" y="29.80442"/>
     <use style="fill:#1f77b4;stroke:#1f77b4;" x="384.731491" xlink:href="#m9fe2c49389" y="28.923263"/>
     <use style="fill:#1f77b4;stroke:#1f77b4;" x="388.849887" xlink:href="#m9fe2c49389" y="27.613434"/>
     <use style="fill:#1f77b4;stroke:#1f77b4;" x="392.968284" xlink:href="#m9fe2c49389" y="26.970428"/>
     <use style="fill:#1f77b4;stroke:#1f77b4;" x="397.086681" xlink:href="#m9fe2c49389" y="25.970195"/>
     <use style="fill:#1f77b4;stroke:#1f77b4;" x="401.205078" xlink:href="#m9fe2c49389" y="24.731812"/>
     <use style="fill:#1f77b4;stroke:#1f77b4;" x="405.323474" xlink:href="#m9fe2c49389" y="24.350771"/>
     <use style="fill:#1f77b4;stroke:#1f77b4;" x="409.441871" xlink:href="#m9fe2c49389" y="24.088805"/>
     <use style="fill:#1f77b4;stroke:#1f77b4;" x="413.560268" xlink:href="#m9fe2c49389" y="23.612504"/>
    </g>
   </g>
   <g id="patch_3">
    <path d="M 63.290625 279.86258 
L 63.290625 10.8 
" style="fill:none;stroke:#000000;stroke-linecap:square;stroke-linejoin:miter;stroke-width:0.8;"/>
   </g>
   <g id="patch_4">
    <path d="M 430.239775 279.86258 
L 430.239775 10.8 
" style="fill:none;stroke:#000000;stroke-linecap:square;stroke-linejoin:miter;stroke-width:0.8;"/>
   </g>
   <g id="patch_5">
    <path d="M 63.290625 279.86258 
L 430.239775 279.86258 
" style="fill:none;stroke:#000000;stroke-linecap:square;stroke-linejoin:miter;stroke-width:0.8;"/>
   </g>
   <g id="patch_6">
    <path d="M 63.290625 10.8 
L 430.239775 10.8 
" style="fill:none;stroke:#000000;stroke-linecap:square;stroke-linejoin:miter;stroke-width:0.8;"/>
   </g>
  </g>
 </g>
 <defs>
  <clipPath id="p04d3f6ac7b">
   <rect height="269.06258" width="366.94915" x="63.290625" y="10.8"/>
  </clipPath>
 </defs>
</svg>
