<?xml version="1.0" encoding="utf-8" standalone="no"?>
<!DOCTYPE svg PUBLIC "-//W3C//DTD SVG 1.1//EN"
  "http://www.w3.org/Graphics/SVG/1.1/DTD/svg11.dtd">
<!-- Created with matplotlib (https://matplotlib.org/) -->
<svg height="345.6pt" version="1.1" viewBox="0 0 460.8 345.6" width="460.8pt" xmlns="http://www.w3.org/2000/svg" xmlns:xlink="http://www.w3.org/1999/xlink">
 <defs>
  <style type="text/css">
*{stroke-linecap:butt;stroke-linejoin:round;}
  </style>
 </defs>
 <g id="figure_1">
  <g id="patch_1">
   <path d="M 0 345.6 
L 460.8 345.6 
L 460.8 0 
L 0 0 
z
" style="fill:#ffffff;"/>
  </g>
  <g id="axes_1">
   <g id="patch_2">
    <path d="M 53.74375 279.86258 
L 447.038349 279.86258 
L 447.038349 10.8 
L 53.74375 10.8 
z
" style="fill:#ffffff;"/>
   </g>
   <g id="matplotlib.axis_1">
    <g id="xtick_1">
     <g id="line2d_1">
      <defs>
       <path d="M 0 0 
L 0 3.5 
" id="m096539293a" style="stroke:#000000;stroke-width:0.8;"/>
      </defs>
      <g>
       <use style="stroke:#000000;stroke-width:0.8;" x="103.168472" xlink:href="#m096539293a" y="279.86258"/>
      </g>
     </g>
     <g id="text_1">
      <!-- 2020-03-15 -->
      <defs>
       <path d="M 19.1875 8.296875 
L 53.609375 8.296875 
L 53.609375 0 
L 7.328125 0 
L 7.328125 8.296875 
Q 12.9375 14.109375 22.625 23.890625 
Q 32.328125 33.6875 34.8125 36.53125 
Q 39.546875 41.84375 41.421875 45.53125 
Q 43.3125 49.21875 43.3125 52.78125 
Q 43.3125 58.59375 39.234375 62.25 
Q 35.15625 65.921875 28.609375 65.921875 
Q 23.96875 65.921875 18.8125 64.3125 
Q 13.671875 62.703125 7.8125 59.421875 
L 7.8125 69.390625 
Q 13.765625 71.78125 18.9375 73 
Q 24.125 74.21875 28.421875 74.21875 
Q 39.75 74.21875 46.484375 68.546875 
Q 53.21875 62.890625 53.21875 53.421875 
Q 53.21875 48.921875 51.53125 44.890625 
Q 49.859375 40.875 45.40625 35.40625 
Q 44.1875 33.984375 37.640625 27.21875 
Q 31.109375 20.453125 19.1875 8.296875 
z
" id="DejaVuSans-50"/>
       <path d="M 31.78125 66.40625 
Q 24.171875 66.40625 20.328125 58.90625 
Q 16.5 51.421875 16.5 36.375 
Q 16.5 21.390625 20.328125 13.890625 
Q 24.171875 6.390625 31.78125 6.390625 
Q 39.453125 6.390625 43.28125 13.890625 
Q 47.125 21.390625 47.125 36.375 
Q 47.125 51.421875 43.28125 58.90625 
Q 39.453125 66.40625 31.78125 66.40625 
z
M 31.78125 74.21875 
Q 44.046875 74.21875 50.515625 64.515625 
Q 56.984375 54.828125 56.984375 36.375 
Q 56.984375 17.96875 50.515625 8.265625 
Q 44.046875 -1.421875 31.78125 -1.421875 
Q 19.53125 -1.421875 13.0625 8.265625 
Q 6.59375 17.96875 6.59375 36.375 
Q 6.59375 54.828125 13.0625 64.515625 
Q 19.53125 74.21875 31.78125 74.21875 
z
" id="DejaVuSans-48"/>
       <path d="M 4.890625 31.390625 
L 31.203125 31.390625 
L 31.203125 23.390625 
L 4.890625 23.390625 
z
" id="DejaVuSans-45"/>
       <path d="M 40.578125 39.3125 
Q 47.65625 37.796875 51.625 33 
Q 55.609375 28.21875 55.609375 21.1875 
Q 55.609375 10.40625 48.1875 4.484375 
Q 40.765625 -1.421875 27.09375 -1.421875 
Q 22.515625 -1.421875 17.65625 -0.515625 
Q 12.796875 0.390625 7.625 2.203125 
L 7.625 11.71875 
Q 11.71875 9.328125 16.59375 8.109375 
Q 21.484375 6.890625 26.8125 6.890625 
Q 36.078125 6.890625 40.9375 10.546875 
Q 45.796875 14.203125 45.796875 21.1875 
Q 45.796875 27.640625 41.28125 31.265625 
Q 36.765625 34.90625 28.71875 34.90625 
L 20.21875 34.90625 
L 20.21875 43.015625 
L 29.109375 43.015625 
Q 36.375 43.015625 40.234375 45.921875 
Q 44.09375 48.828125 44.09375 54.296875 
Q 44.09375 59.90625 40.109375 62.90625 
Q 36.140625 65.921875 28.71875 65.921875 
Q 24.65625 65.921875 20.015625 65.03125 
Q 15.375 64.15625 9.8125 62.3125 
L 9.8125 71.09375 
Q 15.4375 72.65625 20.34375 73.4375 
Q 25.25 74.21875 29.59375 74.21875 
Q 40.828125 74.21875 47.359375 69.109375 
Q 53.90625 64.015625 53.90625 55.328125 
Q 53.90625 49.265625 50.4375 45.09375 
Q 46.96875 40.921875 40.578125 39.3125 
z
" id="DejaVuSans-51"/>
       <path d="M 12.40625 8.296875 
L 28.515625 8.296875 
L 28.515625 63.921875 
L 10.984375 60.40625 
L 10.984375 69.390625 
L 28.421875 72.90625 
L 38.28125 72.90625 
L 38.28125 8.296875 
L 54.390625 8.296875 
L 54.390625 0 
L 12.40625 0 
z
" id="DejaVuSans-49"/>
       <path d="M 10.796875 72.90625 
L 49.515625 72.90625 
L 49.515625 64.59375 
L 19.828125 64.59375 
L 19.828125 46.734375 
Q 21.96875 47.46875 24.109375 47.828125 
Q 26.265625 48.1875 28.421875 48.1875 
Q 40.625 48.1875 47.75 41.5 
Q 54.890625 34.8125 54.890625 23.390625 
Q 54.890625 11.625 47.5625 5.09375 
Q 40.234375 -1.421875 26.90625 -1.421875 
Q 22.3125 -1.421875 17.546875 -0.640625 
Q 12.796875 0.140625 7.71875 1.703125 
L 7.71875 11.625 
Q 12.109375 9.234375 16.796875 8.0625 
Q 21.484375 6.890625 26.703125 6.890625 
Q 35.15625 6.890625 40.078125 11.328125 
Q 45.015625 15.765625 45.015625 23.390625 
Q 45.015625 31 40.078125 35.4375 
Q 35.15625 39.890625 26.703125 39.890625 
Q 22.75 39.890625 18.8125 39.015625 
Q 14.890625 38.140625 10.796875 36.28125 
z
" id="DejaVuSans-53"/>
      </defs>
      <g transform="translate(84.572669 333.329439)rotate(-45)scale(0.1 -0.1)">
       <use xlink:href="#DejaVuSans-50"/>
       <use x="63.623047" xlink:href="#DejaVuSans-48"/>
       <use x="127.246094" xlink:href="#DejaVuSans-50"/>
       <use x="190.869141" xlink:href="#DejaVuSans-48"/>
       <use x="254.492188" xlink:href="#DejaVuSans-45"/>
       <use x="290.576172" xlink:href="#DejaVuSans-48"/>
       <use x="354.199219" xlink:href="#DejaVuSans-51"/>
       <use x="417.822266" xlink:href="#DejaVuSans-45"/>
       <use x="453.90625" xlink:href="#DejaVuSans-49"/>
       <use x="517.529297" xlink:href="#DejaVuSans-53"/>
      </g>
     </g>
    </g>
    <g id="xtick_2">
     <g id="line2d_2">
      <g>
       <use style="stroke:#000000;stroke-width:0.8;" x="192.553608" xlink:href="#m096539293a" y="279.86258"/>
      </g>
     </g>
     <g id="text_2">
      <!-- 2020-04-01 -->
      <defs>
       <path d="M 37.796875 64.3125 
L 12.890625 25.390625 
L 37.796875 25.390625 
z
M 35.203125 72.90625 
L 47.609375 72.90625 
L 47.609375 25.390625 
L 58.015625 25.390625 
L 58.015625 17.1875 
L 47.609375 17.1875 
L 47.609375 0 
L 37.796875 0 
L 37.796875 17.1875 
L 4.890625 17.1875 
L 4.890625 26.703125 
z
" id="DejaVuSans-52"/>
      </defs>
      <g transform="translate(173.957805 333.329439)rotate(-45)scale(0.1 -0.1)">
       <use xlink:href="#DejaVuSans-50"/>
       <use x="63.623047" xlink:href="#DejaVuSans-48"/>
       <use x="127.246094" xlink:href="#DejaVuSans-50"/>
       <use x="190.869141" xlink:href="#DejaVuSans-48"/>
       <use x="254.492188" xlink:href="#DejaVuSans-45"/>
       <use x="290.576172" xlink:href="#DejaVuSans-48"/>
       <use x="354.199219" xlink:href="#DejaVuSans-52"/>
       <use x="417.822266" xlink:href="#DejaVuSans-45"/>
       <use x="453.90625" xlink:href="#DejaVuSans-48"/>
       <use x="517.529297" xlink:href="#DejaVuSans-49"/>
      </g>
     </g>
    </g>
    <g id="xtick_3">
     <g id="line2d_3">
      <g>
       <use style="stroke:#000000;stroke-width:0.8;" x="266.164897" xlink:href="#m096539293a" y="279.86258"/>
      </g>
     </g>
     <g id="text_3">
      <!-- 2020-04-15 -->
      <g transform="translate(247.569093 333.329439)rotate(-45)scale(0.1 -0.1)">
       <use xlink:href="#DejaVuSans-50"/>
       <use x="63.623047" xlink:href="#DejaVuSans-48"/>
       <use x="127.246094" xlink:href="#DejaVuSans-50"/>
       <use x="190.869141" xlink:href="#DejaVuSans-48"/>
       <use x="254.492188" xlink:href="#DejaVuSans-45"/>
       <use x="290.576172" xlink:href="#DejaVuSans-48"/>
       <use x="354.199219" xlink:href="#DejaVuSans-52"/>
       <use x="417.822266" xlink:href="#DejaVuSans-45"/>
       <use x="453.90625" xlink:href="#DejaVuSans-49"/>
       <use x="517.529297" xlink:href="#DejaVuSans-53"/>
      </g>
     </g>
    </g>
    <g id="xtick_4">
     <g id="line2d_4">
      <g>
       <use style="stroke:#000000;stroke-width:0.8;" x="350.292084" xlink:href="#m096539293a" y="279.86258"/>
      </g>
     </g>
     <g id="text_4">
      <!-- 2020-05-01 -->
      <g transform="translate(331.69628 333.329439)rotate(-45)scale(0.1 -0.1)">
       <use xlink:href="#DejaVuSans-50"/>
       <use x="63.623047" xlink:href="#DejaVuSans-48"/>
       <use x="127.246094" xlink:href="#DejaVuSans-50"/>
       <use x="190.869141" xlink:href="#DejaVuSans-48"/>
       <use x="254.492188" xlink:href="#DejaVuSans-45"/>
       <use x="290.576172" xlink:href="#DejaVuSans-48"/>
       <use x="354.199219" xlink:href="#DejaVuSans-53"/>
       <use x="417.822266" xlink:href="#DejaVuSans-45"/>
       <use x="453.90625" xlink:href="#DejaVuSans-48"/>
       <use x="517.529297" xlink:href="#DejaVuSans-49"/>
      </g>
     </g>
    </g>
    <g id="xtick_5">
     <g id="line2d_5">
      <g>
       <use style="stroke:#000000;stroke-width:0.8;" x="423.903372" xlink:href="#m096539293a" y="279.86258"/>
      </g>
     </g>
     <g id="text_5">
      <!-- 2020-05-15 -->
      <g transform="translate(405.307569 333.329439)rotate(-45)scale(0.1 -0.1)">
       <use xlink:href="#DejaVuSans-50"/>
       <use x="63.623047" xlink:href="#DejaVuSans-48"/>
       <use x="127.246094" xlink:href="#DejaVuSans-50"/>
       <use x="190.869141" xlink:href="#DejaVuSans-48"/>
       <use x="254.492188" xlink:href="#DejaVuSans-45"/>
       <use x="290.576172" xlink:href="#DejaVuSans-48"/>
       <use x="354.199219" xlink:href="#DejaVuSans-53"/>
       <use x="417.822266" xlink:href="#DejaVuSans-45"/>
       <use x="453.90625" xlink:href="#DejaVuSans-49"/>
       <use x="517.529297" xlink:href="#DejaVuSans-53"/>
      </g>
     </g>
    </g>
   </g>
   <g id="matplotlib.axis_2">
    <g id="ytick_1">
     <g id="line2d_6">
      <defs>
       <path d="M 0 0 
L -3.5 0 
" id="m622021ef4e" style="stroke:#000000;stroke-width:0.8;"/>
      </defs>
      <g>
       <use style="stroke:#000000;stroke-width:0.8;" x="53.74375" xlink:href="#m622021ef4e" y="279.86258"/>
      </g>
     </g>
     <g id="text_6">
      <!-- 0.0 -->
      <defs>
       <path d="M 10.6875 12.40625 
L 21 12.40625 
L 21 0 
L 10.6875 0 
z
" id="DejaVuSans-46"/>
      </defs>
      <g transform="translate(30.840625 283.661798)scale(0.1 -0.1)">
       <use xlink:href="#DejaVuSans-48"/>
       <use x="63.623047" xlink:href="#DejaVuSans-46"/>
       <use x="95.410156" xlink:href="#DejaVuSans-48"/>
      </g>
     </g>
    </g>
    <g id="ytick_2">
     <g id="line2d_7">
      <g>
       <use style="stroke:#000000;stroke-width:0.8;" x="53.74375" xlink:href="#m622021ef4e" y="248.104686"/>
      </g>
     </g>
     <g id="text_7">
      <!-- 2.5 -->
      <g transform="translate(30.840625 251.903904)scale(0.1 -0.1)">
       <use xlink:href="#DejaVuSans-50"/>
       <use x="63.623047" xlink:href="#DejaVuSans-46"/>
       <use x="95.410156" xlink:href="#DejaVuSans-53"/>
      </g>
     </g>
    </g>
    <g id="ytick_3">
     <g id="line2d_8">
      <g>
       <use style="stroke:#000000;stroke-width:0.8;" x="53.74375" xlink:href="#m622021ef4e" y="216.346792"/>
      </g>
     </g>
     <g id="text_8">
      <!-- 5.0 -->
      <g transform="translate(30.840625 220.14601)scale(0.1 -0.1)">
       <use xlink:href="#DejaVuSans-53"/>
       <use x="63.623047" xlink:href="#DejaVuSans-46"/>
       <use x="95.410156" xlink:href="#DejaVuSans-48"/>
      </g>
     </g>
    </g>
    <g id="ytick_4">
     <g id="line2d_9">
      <g>
       <use style="stroke:#000000;stroke-width:0.8;" x="53.74375" xlink:href="#m622021ef4e" y="184.588897"/>
      </g>
     </g>
     <g id="text_9">
      <!-- 7.5 -->
      <defs>
       <path d="M 8.203125 72.90625 
L 55.078125 72.90625 
L 55.078125 68.703125 
L 28.609375 0 
L 18.3125 0 
L 43.21875 64.59375 
L 8.203125 64.59375 
z
" id="DejaVuSans-55"/>
      </defs>
      <g transform="translate(30.840625 188.388116)scale(0.1 -0.1)">
       <use xlink:href="#DejaVuSans-55"/>
       <use x="63.623047" xlink:href="#DejaVuSans-46"/>
       <use x="95.410156" xlink:href="#DejaVuSans-53"/>
      </g>
     </g>
    </g>
    <g id="ytick_5">
     <g id="line2d_10">
      <g>
       <use style="stroke:#000000;stroke-width:0.8;" x="53.74375" xlink:href="#m622021ef4e" y="152.831003"/>
      </g>
     </g>
     <g id="text_10">
      <!-- 10.0 -->
      <g transform="translate(24.478125 156.630222)scale(0.1 -0.1)">
       <use xlink:href="#DejaVuSans-49"/>
       <use x="63.623047" xlink:href="#DejaVuSans-48"/>
       <use x="127.246094" xlink:href="#DejaVuSans-46"/>
       <use x="159.033203" xlink:href="#DejaVuSans-48"/>
      </g>
     </g>
    </g>
    <g id="ytick_6">
     <g id="line2d_11">
      <g>
       <use style="stroke:#000000;stroke-width:0.8;" x="53.74375" xlink:href="#m622021ef4e" y="121.073109"/>
      </g>
     </g>
     <g id="text_11">
      <!-- 12.5 -->
      <g transform="translate(24.478125 124.872328)scale(0.1 -0.1)">
       <use xlink:href="#DejaVuSans-49"/>
       <use x="63.623047" xlink:href="#DejaVuSans-50"/>
       <use x="127.246094" xlink:href="#DejaVuSans-46"/>
       <use x="159.033203" xlink:href="#DejaVuSans-53"/>
      </g>
     </g>
    </g>
    <g id="ytick_7">
     <g id="line2d_12">
      <g>
       <use style="stroke:#000000;stroke-width:0.8;" x="53.74375" xlink:href="#m622021ef4e" y="89.315215"/>
      </g>
     </g>
     <g id="text_12">
      <!-- 15.0 -->
      <g transform="translate(24.478125 93.114434)scale(0.1 -0.1)">
       <use xlink:href="#DejaVuSans-49"/>
       <use x="63.623047" xlink:href="#DejaVuSans-53"/>
       <use x="127.246094" xlink:href="#DejaVuSans-46"/>
       <use x="159.033203" xlink:href="#DejaVuSans-48"/>
      </g>
     </g>
    </g>
    <g id="ytick_8">
     <g id="line2d_13">
      <g>
       <use style="stroke:#000000;stroke-width:0.8;" x="53.74375" xlink:href="#m622021ef4e" y="57.557321"/>
      </g>
     </g>
     <g id="text_13">
      <!-- 17.5 -->
      <g transform="translate(24.478125 61.35654)scale(0.1 -0.1)">
       <use xlink:href="#DejaVuSans-49"/>
       <use x="63.623047" xlink:href="#DejaVuSans-55"/>
       <use x="127.246094" xlink:href="#DejaVuSans-46"/>
       <use x="159.033203" xlink:href="#DejaVuSans-53"/>
      </g>
     </g>
    </g>
    <g id="ytick_9">
     <g id="line2d_14">
      <g>
       <use style="stroke:#000000;stroke-width:0.8;" x="53.74375" xlink:href="#m622021ef4e" y="25.799427"/>
      </g>
     </g>
     <g id="text_14">
      <!-- 20.0 -->
      <g transform="translate(24.478125 29.598646)scale(0.1 -0.1)">
       <use xlink:href="#DejaVuSans-50"/>
       <use x="63.623047" xlink:href="#DejaVuSans-48"/>
       <use x="127.246094" xlink:href="#DejaVuSans-46"/>
       <use x="159.033203" xlink:href="#DejaVuSans-48"/>
      </g>
     </g>
    </g>
    <g id="text_15">
     <!-- CT hospitalizados (por 100000 hab.) diarios -->
     <defs>
      <path d="M 64.40625 67.28125 
L 64.40625 56.890625 
Q 59.421875 61.53125 53.78125 63.8125 
Q 48.140625 66.109375 41.796875 66.109375 
Q 29.296875 66.109375 22.65625 58.46875 
Q 16.015625 50.828125 16.015625 36.375 
Q 16.015625 21.96875 22.65625 14.328125 
Q 29.296875 6.6875 41.796875 6.6875 
Q 48.140625 6.6875 53.78125 8.984375 
Q 59.421875 11.28125 64.40625 15.921875 
L 64.40625 5.609375 
Q 59.234375 2.09375 53.4375 0.328125 
Q 47.65625 -1.421875 41.21875 -1.421875 
Q 24.65625 -1.421875 15.125 8.703125 
Q 5.609375 18.84375 5.609375 36.375 
Q 5.609375 53.953125 15.125 64.078125 
Q 24.65625 74.21875 41.21875 74.21875 
Q 47.75 74.21875 53.53125 72.484375 
Q 59.328125 70.75 64.40625 67.28125 
z
" id="DejaVuSans-67"/>
      <path d="M -0.296875 72.90625 
L 61.375 72.90625 
L 61.375 64.59375 
L 35.5 64.59375 
L 35.5 0 
L 25.59375 0 
L 25.59375 64.59375 
L -0.296875 64.59375 
z
" id="DejaVuSans-84"/>
      <path id="DejaVuSans-32"/>
      <path d="M 54.890625 33.015625 
L 54.890625 0 
L 45.90625 0 
L 45.90625 32.71875 
Q 45.90625 40.484375 42.875 44.328125 
Q 39.84375 48.1875 33.796875 48.1875 
Q 26.515625 48.1875 22.3125 43.546875 
Q 18.109375 38.921875 18.109375 30.90625 
L 18.109375 0 
L 9.078125 0 
L 9.078125 75.984375 
L 18.109375 75.984375 
L 18.109375 46.1875 
Q 21.34375 51.125 25.703125 53.5625 
Q 30.078125 56 35.796875 56 
Q 45.21875 56 50.046875 50.171875 
Q 54.890625 44.34375 54.890625 33.015625 
z
" id="DejaVuSans-104"/>
      <path d="M 30.609375 48.390625 
Q 23.390625 48.390625 19.1875 42.75 
Q 14.984375 37.109375 14.984375 27.296875 
Q 14.984375 17.484375 19.15625 11.84375 
Q 23.34375 6.203125 30.609375 6.203125 
Q 37.796875 6.203125 41.984375 11.859375 
Q 46.1875 17.53125 46.1875 27.296875 
Q 46.1875 37.015625 41.984375 42.703125 
Q 37.796875 48.390625 30.609375 48.390625 
z
M 30.609375 56 
Q 42.328125 56 49.015625 48.375 
Q 55.71875 40.765625 55.71875 27.296875 
Q 55.71875 13.875 49.015625 6.21875 
Q 42.328125 -1.421875 30.609375 -1.421875 
Q 18.84375 -1.421875 12.171875 6.21875 
Q 5.515625 13.875 5.515625 27.296875 
Q 5.515625 40.765625 12.171875 48.375 
Q 18.84375 56 30.609375 56 
z
" id="DejaVuSans-111"/>
      <path d="M 44.28125 53.078125 
L 44.28125 44.578125 
Q 40.484375 46.53125 36.375 47.5 
Q 32.28125 48.484375 27.875 48.484375 
Q 21.1875 48.484375 17.84375 46.4375 
Q 14.5 44.390625 14.5 40.28125 
Q 14.5 37.15625 16.890625 35.375 
Q 19.28125 33.59375 26.515625 31.984375 
L 29.59375 31.296875 
Q 39.15625 29.25 43.1875 25.515625 
Q 47.21875 21.78125 47.21875 15.09375 
Q 47.21875 7.46875 41.1875 3.015625 
Q 35.15625 -1.421875 24.609375 -1.421875 
Q 20.21875 -1.421875 15.453125 -0.5625 
Q 10.6875 0.296875 5.421875 2 
L 5.421875 11.28125 
Q 10.40625 8.6875 15.234375 7.390625 
Q 20.0625 6.109375 24.8125 6.109375 
Q 31.15625 6.109375 34.5625 8.28125 
Q 37.984375 10.453125 37.984375 14.40625 
Q 37.984375 18.0625 35.515625 20.015625 
Q 33.0625 21.96875 24.703125 23.78125 
L 21.578125 24.515625 
Q 13.234375 26.265625 9.515625 29.90625 
Q 5.8125 33.546875 5.8125 39.890625 
Q 5.8125 47.609375 11.28125 51.796875 
Q 16.75 56 26.8125 56 
Q 31.78125 56 36.171875 55.265625 
Q 40.578125 54.546875 44.28125 53.078125 
z
" id="DejaVuSans-115"/>
      <path d="M 18.109375 8.203125 
L 18.109375 -20.796875 
L 9.078125 -20.796875 
L 9.078125 54.6875 
L 18.109375 54.6875 
L 18.109375 46.390625 
Q 20.953125 51.265625 25.265625 53.625 
Q 29.59375 56 35.59375 56 
Q 45.5625 56 51.78125 48.09375 
Q 58.015625 40.1875 58.015625 27.296875 
Q 58.015625 14.40625 51.78125 6.484375 
Q 45.5625 -1.421875 35.59375 -1.421875 
Q 29.59375 -1.421875 25.265625 0.953125 
Q 20.953125 3.328125 18.109375 8.203125 
z
M 48.6875 27.296875 
Q 48.6875 37.203125 44.609375 42.84375 
Q 40.53125 48.484375 33.40625 48.484375 
Q 26.265625 48.484375 22.1875 42.84375 
Q 18.109375 37.203125 18.109375 27.296875 
Q 18.109375 17.390625 22.1875 11.75 
Q 26.265625 6.109375 33.40625 6.109375 
Q 40.53125 6.109375 44.609375 11.75 
Q 48.6875 17.390625 48.6875 27.296875 
z
" id="DejaVuSans-112"/>
      <path d="M 9.421875 54.6875 
L 18.40625 54.6875 
L 18.40625 0 
L 9.421875 0 
z
M 9.421875 75.984375 
L 18.40625 75.984375 
L 18.40625 64.59375 
L 9.421875 64.59375 
z
" id="DejaVuSans-105"/>
      <path d="M 18.3125 70.21875 
L 18.3125 54.6875 
L 36.8125 54.6875 
L 36.8125 47.703125 
L 18.3125 47.703125 
L 18.3125 18.015625 
Q 18.3125 11.328125 20.140625 9.421875 
Q 21.96875 7.515625 27.59375 7.515625 
L 36.8125 7.515625 
L 36.8125 0 
L 27.59375 0 
Q 17.1875 0 13.234375 3.875 
Q 9.28125 7.765625 9.28125 18.015625 
L 9.28125 47.703125 
L 2.6875 47.703125 
L 2.6875 54.6875 
L 9.28125 54.6875 
L 9.28125 70.21875 
z
" id="DejaVuSans-116"/>
      <path d="M 34.28125 27.484375 
Q 23.390625 27.484375 19.1875 25 
Q 14.984375 22.515625 14.984375 16.5 
Q 14.984375 11.71875 18.140625 8.90625 
Q 21.296875 6.109375 26.703125 6.109375 
Q 34.1875 6.109375 38.703125 11.40625 
Q 43.21875 16.703125 43.21875 25.484375 
L 43.21875 27.484375 
z
M 52.203125 31.203125 
L 52.203125 0 
L 43.21875 0 
L 43.21875 8.296875 
Q 40.140625 3.328125 35.546875 0.953125 
Q 30.953125 -1.421875 24.3125 -1.421875 
Q 15.921875 -1.421875 10.953125 3.296875 
Q 6 8.015625 6 15.921875 
Q 6 25.140625 12.171875 29.828125 
Q 18.359375 34.515625 30.609375 34.515625 
L 43.21875 34.515625 
L 43.21875 35.40625 
Q 43.21875 41.609375 39.140625 45 
Q 35.0625 48.390625 27.6875 48.390625 
Q 23 48.390625 18.546875 47.265625 
Q 14.109375 46.140625 10.015625 43.890625 
L 10.015625 52.203125 
Q 14.9375 54.109375 19.578125 55.046875 
Q 24.21875 56 28.609375 56 
Q 40.484375 56 46.34375 49.84375 
Q 52.203125 43.703125 52.203125 31.203125 
z
" id="DejaVuSans-97"/>
      <path d="M 9.421875 75.984375 
L 18.40625 75.984375 
L 18.40625 0 
L 9.421875 0 
z
" id="DejaVuSans-108"/>
      <path d="M 5.515625 54.6875 
L 48.1875 54.6875 
L 48.1875 46.484375 
L 14.40625 7.171875 
L 48.1875 7.171875 
L 48.1875 0 
L 4.296875 0 
L 4.296875 8.203125 
L 38.09375 47.515625 
L 5.515625 47.515625 
z
" id="DejaVuSans-122"/>
      <path d="M 45.40625 46.390625 
L 45.40625 75.984375 
L 54.390625 75.984375 
L 54.390625 0 
L 45.40625 0 
L 45.40625 8.203125 
Q 42.578125 3.328125 38.25 0.953125 
Q 33.9375 -1.421875 27.875 -1.421875 
Q 17.96875 -1.421875 11.734375 6.484375 
Q 5.515625 14.40625 5.515625 27.296875 
Q 5.515625 40.1875 11.734375 48.09375 
Q 17.96875 56 27.875 56 
Q 33.9375 56 38.25 53.625 
Q 42.578125 51.265625 45.40625 46.390625 
z
M 14.796875 27.296875 
Q 14.796875 17.390625 18.875 11.75 
Q 22.953125 6.109375 30.078125 6.109375 
Q 37.203125 6.109375 41.296875 11.75 
Q 45.40625 17.390625 45.40625 27.296875 
Q 45.40625 37.203125 41.296875 42.84375 
Q 37.203125 48.484375 30.078125 48.484375 
Q 22.953125 48.484375 18.875 42.84375 
Q 14.796875 37.203125 14.796875 27.296875 
z
" id="DejaVuSans-100"/>
      <path d="M 31 75.875 
Q 24.46875 64.65625 21.28125 53.65625 
Q 18.109375 42.671875 18.109375 31.390625 
Q 18.109375 20.125 21.3125 9.0625 
Q 24.515625 -2 31 -13.1875 
L 23.1875 -13.1875 
Q 15.875 -1.703125 12.234375 9.375 
Q 8.59375 20.453125 8.59375 31.390625 
Q 8.59375 42.28125 12.203125 53.3125 
Q 15.828125 64.359375 23.1875 75.875 
z
" id="DejaVuSans-40"/>
      <path d="M 41.109375 46.296875 
Q 39.59375 47.171875 37.8125 47.578125 
Q 36.03125 48 33.890625 48 
Q 26.265625 48 22.1875 43.046875 
Q 18.109375 38.09375 18.109375 28.8125 
L 18.109375 0 
L 9.078125 0 
L 9.078125 54.6875 
L 18.109375 54.6875 
L 18.109375 46.1875 
Q 20.953125 51.171875 25.484375 53.578125 
Q 30.03125 56 36.53125 56 
Q 37.453125 56 38.578125 55.875 
Q 39.703125 55.765625 41.0625 55.515625 
z
" id="DejaVuSans-114"/>
      <path d="M 48.6875 27.296875 
Q 48.6875 37.203125 44.609375 42.84375 
Q 40.53125 48.484375 33.40625 48.484375 
Q 26.265625 48.484375 22.1875 42.84375 
Q 18.109375 37.203125 18.109375 27.296875 
Q 18.109375 17.390625 22.1875 11.75 
Q 26.265625 6.109375 33.40625 6.109375 
Q 40.53125 6.109375 44.609375 11.75 
Q 48.6875 17.390625 48.6875 27.296875 
z
M 18.109375 46.390625 
Q 20.953125 51.265625 25.265625 53.625 
Q 29.59375 56 35.59375 56 
Q 45.5625 56 51.78125 48.09375 
Q 58.015625 40.1875 58.015625 27.296875 
Q 58.015625 14.40625 51.78125 6.484375 
Q 45.5625 -1.421875 35.59375 -1.421875 
Q 29.59375 -1.421875 25.265625 0.953125 
Q 20.953125 3.328125 18.109375 8.203125 
L 18.109375 0 
L 9.078125 0 
L 9.078125 75.984375 
L 18.109375 75.984375 
z
" id="DejaVuSans-98"/>
      <path d="M 8.015625 75.875 
L 15.828125 75.875 
Q 23.140625 64.359375 26.78125 53.3125 
Q 30.421875 42.28125 30.421875 31.390625 
Q 30.421875 20.453125 26.78125 9.375 
Q 23.140625 -1.703125 15.828125 -13.1875 
L 8.015625 -13.1875 
Q 14.5 -2 17.703125 9.0625 
Q 20.90625 20.125 20.90625 31.390625 
Q 20.90625 42.671875 17.703125 53.65625 
Q 14.5 64.65625 8.015625 75.875 
z
" id="DejaVuSans-41"/>
     </defs>
     <g transform="translate(18.398438 254.557071)rotate(-90)scale(0.1 -0.1)">
      <use xlink:href="#DejaVuSans-67"/>
      <use x="69.824219" xlink:href="#DejaVuSans-84"/>
      <use x="130.908203" xlink:href="#DejaVuSans-32"/>
      <use x="162.695312" xlink:href="#DejaVuSans-104"/>
      <use x="226.074219" xlink:href="#DejaVuSans-111"/>
      <use x="287.255859" xlink:href="#DejaVuSans-115"/>
      <use x="339.355469" xlink:href="#DejaVuSans-112"/>
      <use x="402.832031" xlink:href="#DejaVuSans-105"/>
      <use x="430.615234" xlink:href="#DejaVuSans-116"/>
      <use x="469.824219" xlink:href="#DejaVuSans-97"/>
      <use x="531.103516" xlink:href="#DejaVuSans-108"/>
      <use x="558.886719" xlink:href="#DejaVuSans-105"/>
      <use x="586.669922" xlink:href="#DejaVuSans-122"/>
      <use x="639.160156" xlink:href="#DejaVuSans-97"/>
      <use x="700.439453" xlink:href="#DejaVuSans-100"/>
      <use x="763.916016" xlink:href="#DejaVuSans-111"/>
      <use x="825.097656" xlink:href="#DejaVuSans-115"/>
      <use x="877.197266" xlink:href="#DejaVuSans-32"/>
      <use x="908.984375" xlink:href="#DejaVuSans-40"/>
      <use x="947.998047" xlink:href="#DejaVuSans-112"/>
      <use x="1011.474609" xlink:href="#DejaVuSans-111"/>
      <use x="1072.65625" xlink:href="#DejaVuSans-114"/>
      <use x="1113.769531" xlink:href="#DejaVuSans-32"/>
      <use x="1145.556641" xlink:href="#DejaVuSans-49"/>
      <use x="1209.179688" xlink:href="#DejaVuSans-48"/>
      <use x="1272.802734" xlink:href="#DejaVuSans-48"/>
      <use x="1336.425781" xlink:href="#DejaVuSans-48"/>
      <use x="1400.048828" xlink:href="#DejaVuSans-48"/>
      <use x="1463.671875" xlink:href="#DejaVuSans-48"/>
      <use x="1527.294922" xlink:href="#DejaVuSans-32"/>
      <use x="1559.082031" xlink:href="#DejaVuSans-104"/>
      <use x="1622.460938" xlink:href="#DejaVuSans-97"/>
      <use x="1683.740234" xlink:href="#DejaVuSans-98"/>
      <use x="1747.216797" xlink:href="#DejaVuSans-46"/>
      <use x="1779.003906" xlink:href="#DejaVuSans-41"/>
      <use x="1818.017578" xlink:href="#DejaVuSans-32"/>
      <use x="1849.804688" xlink:href="#DejaVuSans-100"/>
      <use x="1913.28125" xlink:href="#DejaVuSans-105"/>
      <use x="1941.064453" xlink:href="#DejaVuSans-97"/>
      <use x="2002.34375" xlink:href="#DejaVuSans-114"/>
      <use x="2043.457031" xlink:href="#DejaVuSans-105"/>
      <use x="2071.240234" xlink:href="#DejaVuSans-111"/>
      <use x="2132.421875" xlink:href="#DejaVuSans-115"/>
     </g>
    </g>
   </g>
   <g id="line2d_15">
    <path clip-path="url(#p24345cd05e)" d="M 71.620777 277.358507 
L 76.878726 276.690755 
L 82.136676 275.856064 
L 87.394625 269.345476 
L 92.652574 269.345476 
L 97.910523 265.33896 
L 103.168472 265.172022 
L 108.426421 254.821856 
L 113.684371 254.154103 
L 118.94232 255.489608 
L 124.200269 251.650031 
L 129.458218 165.176064 
L 134.716167 240.465174 
L 139.974117 239.630483 
L 145.232066 104.410573 
L 150.490015 89.553077 
L 155.747964 109.25178 
L 161.005913 55.664631 
L 166.263862 72.859261 
L 171.521812 197.562067 
L 176.779761 166.511569 
L 182.03771 146.47899 
L 187.295659 25.949638 
L 192.553608 120.937451 
L 197.811558 162.505053 
L 203.069507 87.883695 
L 208.327456 188.547406 
L 213.585405 203.071026 
L 218.843354 215.591388 
L 224.101303 181.035189 
L 229.359253 157.163032 
L 234.617202 144.64267 
L 239.875151 210.750181 
L 245.1331 183.372323 
L 250.391049 247.977391 
L 255.648999 236.29172 
L 260.906948 106.246893 
L 266.164897 231.617451 
L 271.422846 164.842187 
L 276.680795 151.153258 
L 281.938744 242.802308 
L 287.196694 256.491237 
L 292.454643 209.581614 
L 297.712592 196.560438 
L 302.970541 221.100347 
L 308.22849 199.231448 
L 313.486439 279.86258 
L 318.744389 23.612504 
L 324.002338 257.492866 
L 329.260287 207.912233 
L 334.518236 227.110121 
L 339.776185 243.636999 
L 345.034135 251.650031 
L 350.292084 260.330815 
L 355.550033 245.139442 
L 360.807982 269.178537 
L 366.065931 209.0808 
L 371.32388 223.103605 
L 376.58183 252.65166 
L 381.839779 219.764842 
L 387.097728 266.674465 
L 392.355677 263.669578 
L 397.613626 273.852806 
L 402.871576 226.776245 
L 408.129525 258.327557 
L 413.387474 273.51893 
L 418.645423 274.186682 
L 423.903372 279.86258 
L 429.161321 261.499382 
" style="fill:none;stroke:#1f77b4;stroke-linecap:square;stroke-width:1.5;"/>
    <defs>
     <path d="M 0 1.5 
C 0.397805 1.5 0.77937 1.341951 1.06066 1.06066 
C 1.341951 0.77937 1.5 0.397805 1.5 0 
C 1.5 -0.397805 1.341951 -0.77937 1.06066 -1.06066 
C 0.77937 -1.341951 0.397805 -1.5 0 -1.5 
C -0.397805 -1.5 -0.77937 -1.341951 -1.06066 -1.06066 
C -1.341951 -0.77937 -1.5 -0.397805 -1.5 0 
C -1.5 0.397805 -1.341951 0.77937 -1.06066 1.06066 
C -0.77937 1.341951 -0.397805 1.5 0 1.5 
z
" id="mccd172618c" style="stroke:#1f77b4;"/>
    </defs>
    <g clip-path="url(#p24345cd05e)">
     <use style="fill:#1f77b4;stroke:#1f77b4;" x="71.620777" xlink:href="#mccd172618c" y="277.358507"/>
     <use style="fill:#1f77b4;stroke:#1f77b4;" x="76.878726" xlink:href="#mccd172618c" y="276.690755"/>
     <use style="fill:#1f77b4;stroke:#1f77b4;" x="82.136676" xlink:href="#mccd172618c" y="275.856064"/>
     <use style="fill:#1f77b4;stroke:#1f77b4;" x="87.394625" xlink:href="#mccd172618c" y="269.345476"/>
     <use style="fill:#1f77b4;stroke:#1f77b4;" x="92.652574" xlink:href="#mccd172618c" y="269.345476"/>
     <use style="fill:#1f77b4;stroke:#1f77b4;" x="97.910523" xlink:href="#mccd172618c" y="265.33896"/>
     <use style="fill:#1f77b4;stroke:#1f77b4;" x="103.168472" xlink:href="#mccd172618c" y="265.172022"/>
     <use style="fill:#1f77b4;stroke:#1f77b4;" x="108.426421" xlink:href="#mccd172618c" y="254.821856"/>
     <use style="fill:#1f77b4;stroke:#1f77b4;" x="113.684371" xlink:href="#mccd172618c" y="254.154103"/>
     <use style="fill:#1f77b4;stroke:#1f77b4;" x="118.94232" xlink:href="#mccd172618c" y="255.489608"/>
     <use style="fill:#1f77b4;stroke:#1f77b4;" x="124.200269" xlink:href="#mccd172618c" y="251.650031"/>
     <use style="fill:#1f77b4;stroke:#1f77b4;" x="129.458218" xlink:href="#mccd172618c" y="165.176064"/>
     <use style="fill:#1f77b4;stroke:#1f77b4;" x="134.716167" xlink:href="#mccd172618c" y="240.465174"/>
     <use style="fill:#1f77b4;stroke:#1f77b4;" x="139.974117" xlink:href="#mccd172618c" y="239.630483"/>
     <use style="fill:#1f77b4;stroke:#1f77b4;" x="145.232066" xlink:href="#mccd172618c" y="104.410573"/>
     <use style="fill:#1f77b4;stroke:#1f77b4;" x="150.490015" xlink:href="#mccd172618c" y="89.553077"/>
     <use style="fill:#1f77b4;stroke:#1f77b4;" x="155.747964" xlink:href="#mccd172618c" y="109.25178"/>
     <use style="fill:#1f77b4;stroke:#1f77b4;" x="161.005913" xlink:href="#mccd172618c" y="55.664631"/>
     <use style="fill:#1f77b4;stroke:#1f77b4;" x="166.263862" xlink:href="#mccd172618c" y="72.859261"/>
     <use style="fill:#1f77b4;stroke:#1f77b4;" x="171.521812" xlink:href="#mccd172618c" y="197.562067"/>
     <use style="fill:#1f77b4;stroke:#1f77b4;" x="176.779761" xlink:href="#mccd172618c" y="166.511569"/>
     <use style="fill:#1f77b4;stroke:#1f77b4;" x="182.03771" xlink:href="#mccd172618c" y="146.47899"/>
     <use style="fill:#1f77b4;stroke:#1f77b4;" x="187.295659" xlink:href="#mccd172618c" y="25.949638"/>
     <use style="fill:#1f77b4;stroke:#1f77b4;" x="192.553608" xlink:href="#mccd172618c" y="120.937451"/>
     <use style="fill:#1f77b4;stroke:#1f77b4;" x="197.811558" xlink:href="#mccd172618c" y="162.505053"/>
     <use style="fill:#1f77b4;stroke:#1f77b4;" x="203.069507" xlink:href="#mccd172618c" y="87.883695"/>
     <use style="fill:#1f77b4;stroke:#1f77b4;" x="208.327456" xlink:href="#mccd172618c" y="188.547406"/>
     <use style="fill:#1f77b4;stroke:#1f77b4;" x="213.585405" xlink:href="#mccd172618c" y="203.071026"/>
     <use style="fill:#1f77b4;stroke:#1f77b4;" x="218.843354" xlink:href="#mccd172618c" y="215.591388"/>
     <use style="fill:#1f77b4;stroke:#1f77b4;" x="224.101303" xlink:href="#mccd172618c" y="181.035189"/>
     <use style="fill:#1f77b4;stroke:#1f77b4;" x="229.359253" xlink:href="#mccd172618c" y="157.163032"/>
     <use style="fill:#1f77b4;stroke:#1f77b4;" x="234.617202" xlink:href="#mccd172618c" y="144.64267"/>
     <use style="fill:#1f77b4;stroke:#1f77b4;" x="239.875151" xlink:href="#mccd172618c" y="210.750181"/>
     <use style="fill:#1f77b4;stroke:#1f77b4;" x="245.1331" xlink:href="#mccd172618c" y="183.372323"/>
     <use style="fill:#1f77b4;stroke:#1f77b4;" x="250.391049" xlink:href="#mccd172618c" y="247.977391"/>
     <use style="fill:#1f77b4;stroke:#1f77b4;" x="255.648999" xlink:href="#mccd172618c" y="236.29172"/>
     <use style="fill:#1f77b4;stroke:#1f77b4;" x="260.906948" xlink:href="#mccd172618c" y="106.246893"/>
     <use style="fill:#1f77b4;stroke:#1f77b4;" x="266.164897" xlink:href="#mccd172618c" y="231.617451"/>
     <use style="fill:#1f77b4;stroke:#1f77b4;" x="271.422846" xlink:href="#mccd172618c" y="164.842187"/>
     <use style="fill:#1f77b4;stroke:#1f77b4;" x="276.680795" xlink:href="#mccd172618c" y="151.153258"/>
     <use style="fill:#1f77b4;stroke:#1f77b4;" x="281.938744" xlink:href="#mccd172618c" y="242.802308"/>
     <use style="fill:#1f77b4;stroke:#1f77b4;" x="287.196694" xlink:href="#mccd172618c" y="256.491237"/>
     <use style="fill:#1f77b4;stroke:#1f77b4;" x="292.454643" xlink:href="#mccd172618c" y="209.581614"/>
     <use style="fill:#1f77b4;stroke:#1f77b4;" x="297.712592" xlink:href="#mccd172618c" y="196.560438"/>
     <use style="fill:#1f77b4;stroke:#1f77b4;" x="302.970541" xlink:href="#mccd172618c" y="221.100347"/>
     <use style="fill:#1f77b4;stroke:#1f77b4;" x="308.22849" xlink:href="#mccd172618c" y="199.231448"/>
     <use style="fill:#1f77b4;stroke:#1f77b4;" x="313.486439" xlink:href="#mccd172618c" y="279.86258"/>
     <use style="fill:#1f77b4;stroke:#1f77b4;" x="318.744389" xlink:href="#mccd172618c" y="23.612504"/>
     <use style="fill:#1f77b4;stroke:#1f77b4;" x="324.002338" xlink:href="#mccd172618c" y="257.492866"/>
     <use style="fill:#1f77b4;stroke:#1f77b4;" x="329.260287" xlink:href="#mccd172618c" y="207.912233"/>
     <use style="fill:#1f77b4;stroke:#1f77b4;" x="334.518236" xlink:href="#mccd172618c" y="227.110121"/>
     <use style="fill:#1f77b4;stroke:#1f77b4;" x="339.776185" xlink:href="#mccd172618c" y="243.636999"/>
     <use style="fill:#1f77b4;stroke:#1f77b4;" x="345.034135" xlink:href="#mccd172618c" y="251.650031"/>
     <use style="fill:#1f77b4;stroke:#1f77b4;" x="350.292084" xlink:href="#mccd172618c" y="260.330815"/>
     <use style="fill:#1f77b4;stroke:#1f77b4;" x="355.550033" xlink:href="#mccd172618c" y="245.139442"/>
     <use style="fill:#1f77b4;stroke:#1f77b4;" x="360.807982" xlink:href="#mccd172618c" y="269.178537"/>
     <use style="fill:#1f77b4;stroke:#1f77b4;" x="366.065931" xlink:href="#mccd172618c" y="209.0808"/>
     <use style="fill:#1f77b4;stroke:#1f77b4;" x="371.32388" xlink:href="#mccd172618c" y="223.103605"/>
     <use style="fill:#1f77b4;stroke:#1f77b4;" x="376.58183" xlink:href="#mccd172618c" y="252.65166"/>
     <use style="fill:#1f77b4;stroke:#1f77b4;" x="381.839779" xlink:href="#mccd172618c" y="219.764842"/>
     <use style="fill:#1f77b4;stroke:#1f77b4;" x="387.097728" xlink:href="#mccd172618c" y="266.674465"/>
     <use style="fill:#1f77b4;stroke:#1f77b4;" x="392.355677" xlink:href="#mccd172618c" y="263.669578"/>
     <use style="fill:#1f77b4;stroke:#1f77b4;" x="397.613626" xlink:href="#mccd172618c" y="273.852806"/>
     <use style="fill:#1f77b4;stroke:#1f77b4;" x="402.871576" xlink:href="#mccd172618c" y="226.776245"/>
     <use style="fill:#1f77b4;stroke:#1f77b4;" x="408.129525" xlink:href="#mccd172618c" y="258.327557"/>
     <use style="fill:#1f77b4;stroke:#1f77b4;" x="413.387474" xlink:href="#mccd172618c" y="273.51893"/>
     <use style="fill:#1f77b4;stroke:#1f77b4;" x="418.645423" xlink:href="#mccd172618c" y="274.186682"/>
     <use style="fill:#1f77b4;stroke:#1f77b4;" x="423.903372" xlink:href="#mccd172618c" y="279.86258"/>
     <use style="fill:#1f77b4;stroke:#1f77b4;" x="429.161321" xlink:href="#mccd172618c" y="261.499382"/>
    </g>
   </g>
   <g id="patch_3">
    <path d="M 53.74375 279.86258 
L 53.74375 10.8 
" style="fill:none;stroke:#000000;stroke-linecap:square;stroke-linejoin:miter;stroke-width:0.8;"/>
   </g>
   <g id="patch_4">
    <path d="M 447.038349 279.86258 
L 447.038349 10.8 
" style="fill:none;stroke:#000000;stroke-linecap:square;stroke-linejoin:miter;stroke-width:0.8;"/>
   </g>
   <g id="patch_5">
    <path d="M 53.74375 279.86258 
L 447.038349 279.86258 
" style="fill:none;stroke:#000000;stroke-linecap:square;stroke-linejoin:miter;stroke-width:0.8;"/>
   </g>
   <g id="patch_6">
    <path d="M 53.74375 10.8 
L 447.038349 10.8 
" style="fill:none;stroke:#000000;stroke-linecap:square;stroke-linejoin:miter;stroke-width:0.8;"/>
   </g>
  </g>
 </g>
 <defs>
  <clipPath id="p24345cd05e">
   <rect height="269.06258" width="393.294599" x="53.74375" y="10.8"/>
  </clipPath>
 </defs>
</svg>
