<?xml version="1.0" encoding="utf-8" standalone="no"?>
<!DOCTYPE svg PUBLIC "-//W3C//DTD SVG 1.1//EN"
  "http://www.w3.org/Graphics/SVG/1.1/DTD/svg11.dtd">
<!-- Created with matplotlib (https://matplotlib.org/) -->
<svg height="345.6pt" version="1.1" viewBox="0 0 460.8 345.6" width="460.8pt" xmlns="http://www.w3.org/2000/svg" xmlns:xlink="http://www.w3.org/1999/xlink">
 <defs>
  <style type="text/css">
*{stroke-linecap:butt;stroke-linejoin:round;}
  </style>
 </defs>
 <g id="figure_1">
  <g id="patch_1">
   <path d="M 0 345.6 
L 460.8 345.6 
L 460.8 0 
L 0 0 
z
" style="fill:#ffffff;"/>
  </g>
  <g id="axes_1">
   <g id="patch_2">
    <path d="M 37.840625 279.86258 
L 447.183025 279.86258 
L 447.183025 10.8 
L 37.840625 10.8 
z
" style="fill:#ffffff;"/>
   </g>
   <g id="matplotlib.axis_1">
    <g id="xtick_1">
     <g id="line2d_1">
      <defs>
       <path d="M 0 0 
L 0 3.5 
" id="m11e53e6ccd" style="stroke:#000000;stroke-width:0.8;"/>
      </defs>
      <g>
       <use style="stroke:#000000;stroke-width:0.8;" x="79.000398" xlink:href="#m11e53e6ccd" y="279.86258"/>
      </g>
     </g>
     <g id="text_1">
      <!-- 2020-03-15 -->
      <defs>
       <path d="M 19.1875 8.296875 
L 53.609375 8.296875 
L 53.609375 0 
L 7.328125 0 
L 7.328125 8.296875 
Q 12.9375 14.109375 22.625 23.890625 
Q 32.328125 33.6875 34.8125 36.53125 
Q 39.546875 41.84375 41.421875 45.53125 
Q 43.3125 49.21875 43.3125 52.78125 
Q 43.3125 58.59375 39.234375 62.25 
Q 35.15625 65.921875 28.609375 65.921875 
Q 23.96875 65.921875 18.8125 64.3125 
Q 13.671875 62.703125 7.8125 59.421875 
L 7.8125 69.390625 
Q 13.765625 71.78125 18.9375 73 
Q 24.125 74.21875 28.421875 74.21875 
Q 39.75 74.21875 46.484375 68.546875 
Q 53.21875 62.890625 53.21875 53.421875 
Q 53.21875 48.921875 51.53125 44.890625 
Q 49.859375 40.875 45.40625 35.40625 
Q 44.1875 33.984375 37.640625 27.21875 
Q 31.109375 20.453125 19.1875 8.296875 
z
" id="DejaVuSans-50"/>
       <path d="M 31.78125 66.40625 
Q 24.171875 66.40625 20.328125 58.90625 
Q 16.5 51.421875 16.5 36.375 
Q 16.5 21.390625 20.328125 13.890625 
Q 24.171875 6.390625 31.78125 6.390625 
Q 39.453125 6.390625 43.28125 13.890625 
Q 47.125 21.390625 47.125 36.375 
Q 47.125 51.421875 43.28125 58.90625 
Q 39.453125 66.40625 31.78125 66.40625 
z
M 31.78125 74.21875 
Q 44.046875 74.21875 50.515625 64.515625 
Q 56.984375 54.828125 56.984375 36.375 
Q 56.984375 17.96875 50.515625 8.265625 
Q 44.046875 -1.421875 31.78125 -1.421875 
Q 19.53125 -1.421875 13.0625 8.265625 
Q 6.59375 17.96875 6.59375 36.375 
Q 6.59375 54.828125 13.0625 64.515625 
Q 19.53125 74.21875 31.78125 74.21875 
z
" id="DejaVuSans-48"/>
       <path d="M 4.890625 31.390625 
L 31.203125 31.390625 
L 31.203125 23.390625 
L 4.890625 23.390625 
z
" id="DejaVuSans-45"/>
       <path d="M 40.578125 39.3125 
Q 47.65625 37.796875 51.625 33 
Q 55.609375 28.21875 55.609375 21.1875 
Q 55.609375 10.40625 48.1875 4.484375 
Q 40.765625 -1.421875 27.09375 -1.421875 
Q 22.515625 -1.421875 17.65625 -0.515625 
Q 12.796875 0.390625 7.625 2.203125 
L 7.625 11.71875 
Q 11.71875 9.328125 16.59375 8.109375 
Q 21.484375 6.890625 26.8125 6.890625 
Q 36.078125 6.890625 40.9375 10.546875 
Q 45.796875 14.203125 45.796875 21.1875 
Q 45.796875 27.640625 41.28125 31.265625 
Q 36.765625 34.90625 28.71875 34.90625 
L 20.21875 34.90625 
L 20.21875 43.015625 
L 29.109375 43.015625 
Q 36.375 43.015625 40.234375 45.921875 
Q 44.09375 48.828125 44.09375 54.296875 
Q 44.09375 59.90625 40.109375 62.90625 
Q 36.140625 65.921875 28.71875 65.921875 
Q 24.65625 65.921875 20.015625 65.03125 
Q 15.375 64.15625 9.8125 62.3125 
L 9.8125 71.09375 
Q 15.4375 72.65625 20.34375 73.4375 
Q 25.25 74.21875 29.59375 74.21875 
Q 40.828125 74.21875 47.359375 69.109375 
Q 53.90625 64.015625 53.90625 55.328125 
Q 53.90625 49.265625 50.4375 45.09375 
Q 46.96875 40.921875 40.578125 39.3125 
z
" id="DejaVuSans-51"/>
       <path d="M 12.40625 8.296875 
L 28.515625 8.296875 
L 28.515625 63.921875 
L 10.984375 60.40625 
L 10.984375 69.390625 
L 28.421875 72.90625 
L 38.28125 72.90625 
L 38.28125 8.296875 
L 54.390625 8.296875 
L 54.390625 0 
L 12.40625 0 
z
" id="DejaVuSans-49"/>
       <path d="M 10.796875 72.90625 
L 49.515625 72.90625 
L 49.515625 64.59375 
L 19.828125 64.59375 
L 19.828125 46.734375 
Q 21.96875 47.46875 24.109375 47.828125 
Q 26.265625 48.1875 28.421875 48.1875 
Q 40.625 48.1875 47.75 41.5 
Q 54.890625 34.8125 54.890625 23.390625 
Q 54.890625 11.625 47.5625 5.09375 
Q 40.234375 -1.421875 26.90625 -1.421875 
Q 22.3125 -1.421875 17.546875 -0.640625 
Q 12.796875 0.140625 7.71875 1.703125 
L 7.71875 11.625 
Q 12.109375 9.234375 16.796875 8.0625 
Q 21.484375 6.890625 26.703125 6.890625 
Q 35.15625 6.890625 40.078125 11.328125 
Q 45.015625 15.765625 45.015625 23.390625 
Q 45.015625 31 40.078125 35.4375 
Q 35.15625 39.890625 26.703125 39.890625 
Q 22.75 39.890625 18.8125 39.015625 
Q 14.890625 38.140625 10.796875 36.28125 
z
" id="DejaVuSans-53"/>
      </defs>
      <g transform="translate(60.404595 333.329439)rotate(-45)scale(0.1 -0.1)">
       <use xlink:href="#DejaVuSans-50"/>
       <use x="63.623047" xlink:href="#DejaVuSans-48"/>
       <use x="127.246094" xlink:href="#DejaVuSans-50"/>
       <use x="190.869141" xlink:href="#DejaVuSans-48"/>
       <use x="254.492188" xlink:href="#DejaVuSans-45"/>
       <use x="290.576172" xlink:href="#DejaVuSans-48"/>
       <use x="354.199219" xlink:href="#DejaVuSans-51"/>
       <use x="417.822266" xlink:href="#DejaVuSans-45"/>
       <use x="453.90625" xlink:href="#DejaVuSans-49"/>
       <use x="517.529297" xlink:href="#DejaVuSans-53"/>
      </g>
     </g>
    </g>
    <g id="xtick_2">
     <g id="line2d_2">
      <g>
       <use style="stroke:#000000;stroke-width:0.8;" x="174.851924" xlink:href="#m11e53e6ccd" y="279.86258"/>
      </g>
     </g>
     <g id="text_2">
      <!-- 2020-04-01 -->
      <defs>
       <path d="M 37.796875 64.3125 
L 12.890625 25.390625 
L 37.796875 25.390625 
z
M 35.203125 72.90625 
L 47.609375 72.90625 
L 47.609375 25.390625 
L 58.015625 25.390625 
L 58.015625 17.1875 
L 47.609375 17.1875 
L 47.609375 0 
L 37.796875 0 
L 37.796875 17.1875 
L 4.890625 17.1875 
L 4.890625 26.703125 
z
" id="DejaVuSans-52"/>
      </defs>
      <g transform="translate(156.256121 333.329439)rotate(-45)scale(0.1 -0.1)">
       <use xlink:href="#DejaVuSans-50"/>
       <use x="63.623047" xlink:href="#DejaVuSans-48"/>
       <use x="127.246094" xlink:href="#DejaVuSans-50"/>
       <use x="190.869141" xlink:href="#DejaVuSans-48"/>
       <use x="254.492188" xlink:href="#DejaVuSans-45"/>
       <use x="290.576172" xlink:href="#DejaVuSans-48"/>
       <use x="354.199219" xlink:href="#DejaVuSans-52"/>
       <use x="417.822266" xlink:href="#DejaVuSans-45"/>
       <use x="453.90625" xlink:href="#DejaVuSans-48"/>
       <use x="517.529297" xlink:href="#DejaVuSans-49"/>
      </g>
     </g>
    </g>
    <g id="xtick_3">
     <g id="line2d_3">
      <g>
       <use style="stroke:#000000;stroke-width:0.8;" x="253.788475" xlink:href="#m11e53e6ccd" y="279.86258"/>
      </g>
     </g>
     <g id="text_3">
      <!-- 2020-04-15 -->
      <g transform="translate(235.192672 333.329439)rotate(-45)scale(0.1 -0.1)">
       <use xlink:href="#DejaVuSans-50"/>
       <use x="63.623047" xlink:href="#DejaVuSans-48"/>
       <use x="127.246094" xlink:href="#DejaVuSans-50"/>
       <use x="190.869141" xlink:href="#DejaVuSans-48"/>
       <use x="254.492188" xlink:href="#DejaVuSans-45"/>
       <use x="290.576172" xlink:href="#DejaVuSans-48"/>
       <use x="354.199219" xlink:href="#DejaVuSans-52"/>
       <use x="417.822266" xlink:href="#DejaVuSans-45"/>
       <use x="453.90625" xlink:href="#DejaVuSans-49"/>
       <use x="517.529297" xlink:href="#DejaVuSans-53"/>
      </g>
     </g>
    </g>
    <g id="xtick_4">
     <g id="line2d_4">
      <g>
       <use style="stroke:#000000;stroke-width:0.8;" x="344.001677" xlink:href="#m11e53e6ccd" y="279.86258"/>
      </g>
     </g>
     <g id="text_4">
      <!-- 2020-05-01 -->
      <g transform="translate(325.405873 333.329439)rotate(-45)scale(0.1 -0.1)">
       <use xlink:href="#DejaVuSans-50"/>
       <use x="63.623047" xlink:href="#DejaVuSans-48"/>
       <use x="127.246094" xlink:href="#DejaVuSans-50"/>
       <use x="190.869141" xlink:href="#DejaVuSans-48"/>
       <use x="254.492188" xlink:href="#DejaVuSans-45"/>
       <use x="290.576172" xlink:href="#DejaVuSans-48"/>
       <use x="354.199219" xlink:href="#DejaVuSans-53"/>
       <use x="417.822266" xlink:href="#DejaVuSans-45"/>
       <use x="453.90625" xlink:href="#DejaVuSans-48"/>
       <use x="517.529297" xlink:href="#DejaVuSans-49"/>
      </g>
     </g>
    </g>
    <g id="xtick_5">
     <g id="line2d_5">
      <g>
       <use style="stroke:#000000;stroke-width:0.8;" x="422.938228" xlink:href="#m11e53e6ccd" y="279.86258"/>
      </g>
     </g>
     <g id="text_5">
      <!-- 2020-05-15 -->
      <g transform="translate(404.342424 333.329439)rotate(-45)scale(0.1 -0.1)">
       <use xlink:href="#DejaVuSans-50"/>
       <use x="63.623047" xlink:href="#DejaVuSans-48"/>
       <use x="127.246094" xlink:href="#DejaVuSans-50"/>
       <use x="190.869141" xlink:href="#DejaVuSans-48"/>
       <use x="254.492188" xlink:href="#DejaVuSans-45"/>
       <use x="290.576172" xlink:href="#DejaVuSans-48"/>
       <use x="354.199219" xlink:href="#DejaVuSans-53"/>
       <use x="417.822266" xlink:href="#DejaVuSans-45"/>
       <use x="453.90625" xlink:href="#DejaVuSans-49"/>
       <use x="517.529297" xlink:href="#DejaVuSans-53"/>
      </g>
     </g>
    </g>
   </g>
   <g id="matplotlib.axis_2">
    <g id="ytick_1">
     <g id="line2d_6">
      <defs>
       <path d="M 0 0 
L -3.5 0 
" id="ma246aba866" style="stroke:#000000;stroke-width:0.8;"/>
      </defs>
      <g>
       <use style="stroke:#000000;stroke-width:0.8;" x="37.840625" xlink:href="#ma246aba866" y="279.86258"/>
      </g>
     </g>
     <g id="text_6">
      <!-- 0 -->
      <g transform="translate(24.478125 283.661798)scale(0.1 -0.1)">
       <use xlink:href="#DejaVuSans-48"/>
      </g>
     </g>
    </g>
    <g id="ytick_2">
     <g id="line2d_7">
      <g>
       <use style="stroke:#000000;stroke-width:0.8;" x="37.840625" xlink:href="#ma246aba866" y="235.986124"/>
      </g>
     </g>
     <g id="text_7">
      <!-- 1 -->
      <g transform="translate(24.478125 239.785343)scale(0.1 -0.1)">
       <use xlink:href="#DejaVuSans-49"/>
      </g>
     </g>
    </g>
    <g id="ytick_3">
     <g id="line2d_8">
      <g>
       <use style="stroke:#000000;stroke-width:0.8;" x="37.840625" xlink:href="#ma246aba866" y="192.109668"/>
      </g>
     </g>
     <g id="text_8">
      <!-- 2 -->
      <g transform="translate(24.478125 195.908887)scale(0.1 -0.1)">
       <use xlink:href="#DejaVuSans-50"/>
      </g>
     </g>
    </g>
    <g id="ytick_4">
     <g id="line2d_9">
      <g>
       <use style="stroke:#000000;stroke-width:0.8;" x="37.840625" xlink:href="#ma246aba866" y="148.233212"/>
      </g>
     </g>
     <g id="text_9">
      <!-- 3 -->
      <g transform="translate(24.478125 152.032431)scale(0.1 -0.1)">
       <use xlink:href="#DejaVuSans-51"/>
      </g>
     </g>
    </g>
    <g id="ytick_5">
     <g id="line2d_10">
      <g>
       <use style="stroke:#000000;stroke-width:0.8;" x="37.840625" xlink:href="#ma246aba866" y="104.356756"/>
      </g>
     </g>
     <g id="text_10">
      <!-- 4 -->
      <g transform="translate(24.478125 108.155975)scale(0.1 -0.1)">
       <use xlink:href="#DejaVuSans-52"/>
      </g>
     </g>
    </g>
    <g id="ytick_6">
     <g id="line2d_11">
      <g>
       <use style="stroke:#000000;stroke-width:0.8;" x="37.840625" xlink:href="#ma246aba866" y="60.4803"/>
      </g>
     </g>
     <g id="text_11">
      <!-- 5 -->
      <g transform="translate(24.478125 64.279519)scale(0.1 -0.1)">
       <use xlink:href="#DejaVuSans-53"/>
      </g>
     </g>
    </g>
    <g id="ytick_7">
     <g id="line2d_12">
      <g>
       <use style="stroke:#000000;stroke-width:0.8;" x="37.840625" xlink:href="#ma246aba866" y="16.603845"/>
      </g>
     </g>
     <g id="text_12">
      <!-- 6 -->
      <defs>
       <path d="M 33.015625 40.375 
Q 26.375 40.375 22.484375 35.828125 
Q 18.609375 31.296875 18.609375 23.390625 
Q 18.609375 15.53125 22.484375 10.953125 
Q 26.375 6.390625 33.015625 6.390625 
Q 39.65625 6.390625 43.53125 10.953125 
Q 47.40625 15.53125 47.40625 23.390625 
Q 47.40625 31.296875 43.53125 35.828125 
Q 39.65625 40.375 33.015625 40.375 
z
M 52.59375 71.296875 
L 52.59375 62.3125 
Q 48.875 64.0625 45.09375 64.984375 
Q 41.3125 65.921875 37.59375 65.921875 
Q 27.828125 65.921875 22.671875 59.328125 
Q 17.53125 52.734375 16.796875 39.40625 
Q 19.671875 43.65625 24.015625 45.921875 
Q 28.375 48.1875 33.59375 48.1875 
Q 44.578125 48.1875 50.953125 41.515625 
Q 57.328125 34.859375 57.328125 23.390625 
Q 57.328125 12.15625 50.6875 5.359375 
Q 44.046875 -1.421875 33.015625 -1.421875 
Q 20.359375 -1.421875 13.671875 8.265625 
Q 6.984375 17.96875 6.984375 36.375 
Q 6.984375 53.65625 15.1875 63.9375 
Q 23.390625 74.21875 37.203125 74.21875 
Q 40.921875 74.21875 44.703125 73.484375 
Q 48.484375 72.75 52.59375 71.296875 
z
" id="DejaVuSans-54"/>
      </defs>
      <g transform="translate(24.478125 20.403063)scale(0.1 -0.1)">
       <use xlink:href="#DejaVuSans-54"/>
      </g>
     </g>
    </g>
    <g id="text_13">
     <!-- IB hospitalizados (por 100000 hab.) diarios -->
     <defs>
      <path d="M 9.8125 72.90625 
L 19.671875 72.90625 
L 19.671875 0 
L 9.8125 0 
z
" id="DejaVuSans-73"/>
      <path d="M 19.671875 34.8125 
L 19.671875 8.109375 
L 35.5 8.109375 
Q 43.453125 8.109375 47.28125 11.40625 
Q 51.125 14.703125 51.125 21.484375 
Q 51.125 28.328125 47.28125 31.5625 
Q 43.453125 34.8125 35.5 34.8125 
z
M 19.671875 64.796875 
L 19.671875 42.828125 
L 34.28125 42.828125 
Q 41.5 42.828125 45.03125 45.53125 
Q 48.578125 48.25 48.578125 53.8125 
Q 48.578125 59.328125 45.03125 62.0625 
Q 41.5 64.796875 34.28125 64.796875 
z
M 9.8125 72.90625 
L 35.015625 72.90625 
Q 46.296875 72.90625 52.390625 68.21875 
Q 58.5 63.53125 58.5 54.890625 
Q 58.5 48.1875 55.375 44.234375 
Q 52.25 40.28125 46.1875 39.3125 
Q 53.46875 37.75 57.5 32.78125 
Q 61.53125 27.828125 61.53125 20.40625 
Q 61.53125 10.640625 54.890625 5.3125 
Q 48.25 0 35.984375 0 
L 9.8125 0 
z
" id="DejaVuSans-66"/>
      <path id="DejaVuSans-32"/>
      <path d="M 54.890625 33.015625 
L 54.890625 0 
L 45.90625 0 
L 45.90625 32.71875 
Q 45.90625 40.484375 42.875 44.328125 
Q 39.84375 48.1875 33.796875 48.1875 
Q 26.515625 48.1875 22.3125 43.546875 
Q 18.109375 38.921875 18.109375 30.90625 
L 18.109375 0 
L 9.078125 0 
L 9.078125 75.984375 
L 18.109375 75.984375 
L 18.109375 46.1875 
Q 21.34375 51.125 25.703125 53.5625 
Q 30.078125 56 35.796875 56 
Q 45.21875 56 50.046875 50.171875 
Q 54.890625 44.34375 54.890625 33.015625 
z
" id="DejaVuSans-104"/>
      <path d="M 30.609375 48.390625 
Q 23.390625 48.390625 19.1875 42.75 
Q 14.984375 37.109375 14.984375 27.296875 
Q 14.984375 17.484375 19.15625 11.84375 
Q 23.34375 6.203125 30.609375 6.203125 
Q 37.796875 6.203125 41.984375 11.859375 
Q 46.1875 17.53125 46.1875 27.296875 
Q 46.1875 37.015625 41.984375 42.703125 
Q 37.796875 48.390625 30.609375 48.390625 
z
M 30.609375 56 
Q 42.328125 56 49.015625 48.375 
Q 55.71875 40.765625 55.71875 27.296875 
Q 55.71875 13.875 49.015625 6.21875 
Q 42.328125 -1.421875 30.609375 -1.421875 
Q 18.84375 -1.421875 12.171875 6.21875 
Q 5.515625 13.875 5.515625 27.296875 
Q 5.515625 40.765625 12.171875 48.375 
Q 18.84375 56 30.609375 56 
z
" id="DejaVuSans-111"/>
      <path d="M 44.28125 53.078125 
L 44.28125 44.578125 
Q 40.484375 46.53125 36.375 47.5 
Q 32.28125 48.484375 27.875 48.484375 
Q 21.1875 48.484375 17.84375 46.4375 
Q 14.5 44.390625 14.5 40.28125 
Q 14.5 37.15625 16.890625 35.375 
Q 19.28125 33.59375 26.515625 31.984375 
L 29.59375 31.296875 
Q 39.15625 29.25 43.1875 25.515625 
Q 47.21875 21.78125 47.21875 15.09375 
Q 47.21875 7.46875 41.1875 3.015625 
Q 35.15625 -1.421875 24.609375 -1.421875 
Q 20.21875 -1.421875 15.453125 -0.5625 
Q 10.6875 0.296875 5.421875 2 
L 5.421875 11.28125 
Q 10.40625 8.6875 15.234375 7.390625 
Q 20.0625 6.109375 24.8125 6.109375 
Q 31.15625 6.109375 34.5625 8.28125 
Q 37.984375 10.453125 37.984375 14.40625 
Q 37.984375 18.0625 35.515625 20.015625 
Q 33.0625 21.96875 24.703125 23.78125 
L 21.578125 24.515625 
Q 13.234375 26.265625 9.515625 29.90625 
Q 5.8125 33.546875 5.8125 39.890625 
Q 5.8125 47.609375 11.28125 51.796875 
Q 16.75 56 26.8125 56 
Q 31.78125 56 36.171875 55.265625 
Q 40.578125 54.546875 44.28125 53.078125 
z
" id="DejaVuSans-115"/>
      <path d="M 18.109375 8.203125 
L 18.109375 -20.796875 
L 9.078125 -20.796875 
L 9.078125 54.6875 
L 18.109375 54.6875 
L 18.109375 46.390625 
Q 20.953125 51.265625 25.265625 53.625 
Q 29.59375 56 35.59375 56 
Q 45.5625 56 51.78125 48.09375 
Q 58.015625 40.1875 58.015625 27.296875 
Q 58.015625 14.40625 51.78125 6.484375 
Q 45.5625 -1.421875 35.59375 -1.421875 
Q 29.59375 -1.421875 25.265625 0.953125 
Q 20.953125 3.328125 18.109375 8.203125 
z
M 48.6875 27.296875 
Q 48.6875 37.203125 44.609375 42.84375 
Q 40.53125 48.484375 33.40625 48.484375 
Q 26.265625 48.484375 22.1875 42.84375 
Q 18.109375 37.203125 18.109375 27.296875 
Q 18.109375 17.390625 22.1875 11.75 
Q 26.265625 6.109375 33.40625 6.109375 
Q 40.53125 6.109375 44.609375 11.75 
Q 48.6875 17.390625 48.6875 27.296875 
z
" id="DejaVuSans-112"/>
      <path d="M 9.421875 54.6875 
L 18.40625 54.6875 
L 18.40625 0 
L 9.421875 0 
z
M 9.421875 75.984375 
L 18.40625 75.984375 
L 18.40625 64.59375 
L 9.421875 64.59375 
z
" id="DejaVuSans-105"/>
      <path d="M 18.3125 70.21875 
L 18.3125 54.6875 
L 36.8125 54.6875 
L 36.8125 47.703125 
L 18.3125 47.703125 
L 18.3125 18.015625 
Q 18.3125 11.328125 20.140625 9.421875 
Q 21.96875 7.515625 27.59375 7.515625 
L 36.8125 7.515625 
L 36.8125 0 
L 27.59375 0 
Q 17.1875 0 13.234375 3.875 
Q 9.28125 7.765625 9.28125 18.015625 
L 9.28125 47.703125 
L 2.6875 47.703125 
L 2.6875 54.6875 
L 9.28125 54.6875 
L 9.28125 70.21875 
z
" id="DejaVuSans-116"/>
      <path d="M 34.28125 27.484375 
Q 23.390625 27.484375 19.1875 25 
Q 14.984375 22.515625 14.984375 16.5 
Q 14.984375 11.71875 18.140625 8.90625 
Q 21.296875 6.109375 26.703125 6.109375 
Q 34.1875 6.109375 38.703125 11.40625 
Q 43.21875 16.703125 43.21875 25.484375 
L 43.21875 27.484375 
z
M 52.203125 31.203125 
L 52.203125 0 
L 43.21875 0 
L 43.21875 8.296875 
Q 40.140625 3.328125 35.546875 0.953125 
Q 30.953125 -1.421875 24.3125 -1.421875 
Q 15.921875 -1.421875 10.953125 3.296875 
Q 6 8.015625 6 15.921875 
Q 6 25.140625 12.171875 29.828125 
Q 18.359375 34.515625 30.609375 34.515625 
L 43.21875 34.515625 
L 43.21875 35.40625 
Q 43.21875 41.609375 39.140625 45 
Q 35.0625 48.390625 27.6875 48.390625 
Q 23 48.390625 18.546875 47.265625 
Q 14.109375 46.140625 10.015625 43.890625 
L 10.015625 52.203125 
Q 14.9375 54.109375 19.578125 55.046875 
Q 24.21875 56 28.609375 56 
Q 40.484375 56 46.34375 49.84375 
Q 52.203125 43.703125 52.203125 31.203125 
z
" id="DejaVuSans-97"/>
      <path d="M 9.421875 75.984375 
L 18.40625 75.984375 
L 18.40625 0 
L 9.421875 0 
z
" id="DejaVuSans-108"/>
      <path d="M 5.515625 54.6875 
L 48.1875 54.6875 
L 48.1875 46.484375 
L 14.40625 7.171875 
L 48.1875 7.171875 
L 48.1875 0 
L 4.296875 0 
L 4.296875 8.203125 
L 38.09375 47.515625 
L 5.515625 47.515625 
z
" id="DejaVuSans-122"/>
      <path d="M 45.40625 46.390625 
L 45.40625 75.984375 
L 54.390625 75.984375 
L 54.390625 0 
L 45.40625 0 
L 45.40625 8.203125 
Q 42.578125 3.328125 38.25 0.953125 
Q 33.9375 -1.421875 27.875 -1.421875 
Q 17.96875 -1.421875 11.734375 6.484375 
Q 5.515625 14.40625 5.515625 27.296875 
Q 5.515625 40.1875 11.734375 48.09375 
Q 17.96875 56 27.875 56 
Q 33.9375 56 38.25 53.625 
Q 42.578125 51.265625 45.40625 46.390625 
z
M 14.796875 27.296875 
Q 14.796875 17.390625 18.875 11.75 
Q 22.953125 6.109375 30.078125 6.109375 
Q 37.203125 6.109375 41.296875 11.75 
Q 45.40625 17.390625 45.40625 27.296875 
Q 45.40625 37.203125 41.296875 42.84375 
Q 37.203125 48.484375 30.078125 48.484375 
Q 22.953125 48.484375 18.875 42.84375 
Q 14.796875 37.203125 14.796875 27.296875 
z
" id="DejaVuSans-100"/>
      <path d="M 31 75.875 
Q 24.46875 64.65625 21.28125 53.65625 
Q 18.109375 42.671875 18.109375 31.390625 
Q 18.109375 20.125 21.3125 9.0625 
Q 24.515625 -2 31 -13.1875 
L 23.1875 -13.1875 
Q 15.875 -1.703125 12.234375 9.375 
Q 8.59375 20.453125 8.59375 31.390625 
Q 8.59375 42.28125 12.203125 53.3125 
Q 15.828125 64.359375 23.1875 75.875 
z
" id="DejaVuSans-40"/>
      <path d="M 41.109375 46.296875 
Q 39.59375 47.171875 37.8125 47.578125 
Q 36.03125 48 33.890625 48 
Q 26.265625 48 22.1875 43.046875 
Q 18.109375 38.09375 18.109375 28.8125 
L 18.109375 0 
L 9.078125 0 
L 9.078125 54.6875 
L 18.109375 54.6875 
L 18.109375 46.1875 
Q 20.953125 51.171875 25.484375 53.578125 
Q 30.03125 56 36.53125 56 
Q 37.453125 56 38.578125 55.875 
Q 39.703125 55.765625 41.0625 55.515625 
z
" id="DejaVuSans-114"/>
      <path d="M 48.6875 27.296875 
Q 48.6875 37.203125 44.609375 42.84375 
Q 40.53125 48.484375 33.40625 48.484375 
Q 26.265625 48.484375 22.1875 42.84375 
Q 18.109375 37.203125 18.109375 27.296875 
Q 18.109375 17.390625 22.1875 11.75 
Q 26.265625 6.109375 33.40625 6.109375 
Q 40.53125 6.109375 44.609375 11.75 
Q 48.6875 17.390625 48.6875 27.296875 
z
M 18.109375 46.390625 
Q 20.953125 51.265625 25.265625 53.625 
Q 29.59375 56 35.59375 56 
Q 45.5625 56 51.78125 48.09375 
Q 58.015625 40.1875 58.015625 27.296875 
Q 58.015625 14.40625 51.78125 6.484375 
Q 45.5625 -1.421875 35.59375 -1.421875 
Q 29.59375 -1.421875 25.265625 0.953125 
Q 20.953125 3.328125 18.109375 8.203125 
L 18.109375 0 
L 9.078125 0 
L 9.078125 75.984375 
L 18.109375 75.984375 
z
" id="DejaVuSans-98"/>
      <path d="M 10.6875 12.40625 
L 21 12.40625 
L 21 0 
L 10.6875 0 
z
" id="DejaVuSans-46"/>
      <path d="M 8.015625 75.875 
L 15.828125 75.875 
Q 23.140625 64.359375 26.78125 53.3125 
Q 30.421875 42.28125 30.421875 31.390625 
Q 30.421875 20.453125 26.78125 9.375 
Q 23.140625 -1.703125 15.828125 -13.1875 
L 8.015625 -13.1875 
Q 14.5 -2 17.703125 9.0625 
Q 20.90625 20.125 20.90625 31.390625 
Q 20.90625 42.671875 17.703125 53.65625 
Q 14.5 64.65625 8.015625 75.875 
z
" id="DejaVuSans-41"/>
     </defs>
     <g transform="translate(18.398438 252.917227)rotate(-90)scale(0.1 -0.1)">
      <use xlink:href="#DejaVuSans-73"/>
      <use x="29.492188" xlink:href="#DejaVuSans-66"/>
      <use x="98.095703" xlink:href="#DejaVuSans-32"/>
      <use x="129.882812" xlink:href="#DejaVuSans-104"/>
      <use x="193.261719" xlink:href="#DejaVuSans-111"/>
      <use x="254.443359" xlink:href="#DejaVuSans-115"/>
      <use x="306.542969" xlink:href="#DejaVuSans-112"/>
      <use x="370.019531" xlink:href="#DejaVuSans-105"/>
      <use x="397.802734" xlink:href="#DejaVuSans-116"/>
      <use x="437.011719" xlink:href="#DejaVuSans-97"/>
      <use x="498.291016" xlink:href="#DejaVuSans-108"/>
      <use x="526.074219" xlink:href="#DejaVuSans-105"/>
      <use x="553.857422" xlink:href="#DejaVuSans-122"/>
      <use x="606.347656" xlink:href="#DejaVuSans-97"/>
      <use x="667.626953" xlink:href="#DejaVuSans-100"/>
      <use x="731.103516" xlink:href="#DejaVuSans-111"/>
      <use x="792.285156" xlink:href="#DejaVuSans-115"/>
      <use x="844.384766" xlink:href="#DejaVuSans-32"/>
      <use x="876.171875" xlink:href="#DejaVuSans-40"/>
      <use x="915.185547" xlink:href="#DejaVuSans-112"/>
      <use x="978.662109" xlink:href="#DejaVuSans-111"/>
      <use x="1039.84375" xlink:href="#DejaVuSans-114"/>
      <use x="1080.957031" xlink:href="#DejaVuSans-32"/>
      <use x="1112.744141" xlink:href="#DejaVuSans-49"/>
      <use x="1176.367188" xlink:href="#DejaVuSans-48"/>
      <use x="1239.990234" xlink:href="#DejaVuSans-48"/>
      <use x="1303.613281" xlink:href="#DejaVuSans-48"/>
      <use x="1367.236328" xlink:href="#DejaVuSans-48"/>
      <use x="1430.859375" xlink:href="#DejaVuSans-48"/>
      <use x="1494.482422" xlink:href="#DejaVuSans-32"/>
      <use x="1526.269531" xlink:href="#DejaVuSans-104"/>
      <use x="1589.648438" xlink:href="#DejaVuSans-97"/>
      <use x="1650.927734" xlink:href="#DejaVuSans-98"/>
      <use x="1714.404297" xlink:href="#DejaVuSans-46"/>
      <use x="1746.191406" xlink:href="#DejaVuSans-41"/>
      <use x="1785.205078" xlink:href="#DejaVuSans-32"/>
      <use x="1816.992188" xlink:href="#DejaVuSans-100"/>
      <use x="1880.46875" xlink:href="#DejaVuSans-105"/>
      <use x="1908.251953" xlink:href="#DejaVuSans-97"/>
      <use x="1969.53125" xlink:href="#DejaVuSans-114"/>
      <use x="2010.644531" xlink:href="#DejaVuSans-105"/>
      <use x="2038.427734" xlink:href="#DejaVuSans-111"/>
      <use x="2099.609375" xlink:href="#DejaVuSans-115"/>
     </g>
    </g>
   </g>
   <g id="line2d_13">
    <path clip-path="url(#pceb6442925)" d="M 56.447098 279.86258 
L 62.085423 276.201864 
L 67.723748 279.86258 
L 73.362073 279.86258 
L 79.000398 235.933995 
L 84.638723 261.559003 
L 90.277048 268.880434 
L 95.915373 272.541149 
L 101.553698 217.630418 
L 107.192023 235.933995 
L 112.830348 210.308988 
L 118.468674 250.576857 
L 124.106999 133.433965 
L 129.745324 144.416111 
L 135.383649 129.77325 
L 141.021974 162.719688 
L 146.660299 111.469673 
L 152.298624 52.898227 
L 157.936949 250.576857 
L 163.575274 111.469673 
L 169.213599 30.933935 
L 174.851924 100.487527 
L 180.490249 23.612504 
L 186.128574 107.808957 
L 191.7669 170.041119 
L 197.405225 210.308988 
L 203.04355 199.326842 
L 208.681875 184.68398 
L 214.3202 206.648272 
L 219.958525 184.68398 
L 225.59685 276.201864 
L 231.235175 181.023265 
L 236.8735 257.898287 
L 242.511825 224.951849 
L 248.15015 166.380403 
L 253.788475 224.951849 
L 259.4268 159.058972 
L 265.065125 162.719688 
L 270.703451 213.969703 
L 276.341776 250.576857 
L 281.980101 195.666126 
L 287.618426 210.308988 
L 293.256751 217.630418 
L 298.895076 213.969703 
L 304.533401 213.969703 
L 310.171726 265.219718 
L 315.810051 279.86258 
L 321.448376 235.933995 
L 327.086701 261.559003 
L 332.725026 268.880434 
L 338.363351 250.576857 
L 344.001677 265.219718 
L 349.640002 261.559003 
L 355.278327 268.880434 
L 360.916652 250.576857 
L 366.554977 235.933995 
L 372.193302 265.219718 
L 377.831627 279.86258 
L 383.469952 279.86258 
L 389.108277 279.86258 
L 394.746602 279.86258 
L 400.384927 276.201864 
L 406.023252 261.559003 
L 411.661577 279.86258 
L 417.299902 268.880434 
L 422.938228 279.86258 
L 428.576553 272.541149 
" style="fill:none;stroke:#1f77b4;stroke-linecap:square;stroke-width:1.5;"/>
    <defs>
     <path d="M 0 1.5 
C 0.397805 1.5 0.77937 1.341951 1.06066 1.06066 
C 1.341951 0.77937 1.5 0.397805 1.5 0 
C 1.5 -0.397805 1.341951 -0.77937 1.06066 -1.06066 
C 0.77937 -1.341951 0.397805 -1.5 0 -1.5 
C -0.397805 -1.5 -0.77937 -1.341951 -1.06066 -1.06066 
C -1.341951 -0.77937 -1.5 -0.397805 -1.5 0 
C -1.5 0.397805 -1.341951 0.77937 -1.06066 1.06066 
C -0.77937 1.341951 -0.397805 1.5 0 1.5 
z
" id="m0b914f202d" style="stroke:#1f77b4;"/>
    </defs>
    <g clip-path="url(#pceb6442925)">
     <use style="fill:#1f77b4;stroke:#1f77b4;" x="56.447098" xlink:href="#m0b914f202d" y="279.86258"/>
     <use style="fill:#1f77b4;stroke:#1f77b4;" x="62.085423" xlink:href="#m0b914f202d" y="276.201864"/>
     <use style="fill:#1f77b4;stroke:#1f77b4;" x="67.723748" xlink:href="#m0b914f202d" y="279.86258"/>
     <use style="fill:#1f77b4;stroke:#1f77b4;" x="73.362073" xlink:href="#m0b914f202d" y="279.86258"/>
     <use style="fill:#1f77b4;stroke:#1f77b4;" x="79.000398" xlink:href="#m0b914f202d" y="235.933995"/>
     <use style="fill:#1f77b4;stroke:#1f77b4;" x="84.638723" xlink:href="#m0b914f202d" y="261.559003"/>
     <use style="fill:#1f77b4;stroke:#1f77b4;" x="90.277048" xlink:href="#m0b914f202d" y="268.880434"/>
     <use style="fill:#1f77b4;stroke:#1f77b4;" x="95.915373" xlink:href="#m0b914f202d" y="272.541149"/>
     <use style="fill:#1f77b4;stroke:#1f77b4;" x="101.553698" xlink:href="#m0b914f202d" y="217.630418"/>
     <use style="fill:#1f77b4;stroke:#1f77b4;" x="107.192023" xlink:href="#m0b914f202d" y="235.933995"/>
     <use style="fill:#1f77b4;stroke:#1f77b4;" x="112.830348" xlink:href="#m0b914f202d" y="210.308988"/>
     <use style="fill:#1f77b4;stroke:#1f77b4;" x="118.468674" xlink:href="#m0b914f202d" y="250.576857"/>
     <use style="fill:#1f77b4;stroke:#1f77b4;" x="124.106999" xlink:href="#m0b914f202d" y="133.433965"/>
     <use style="fill:#1f77b4;stroke:#1f77b4;" x="129.745324" xlink:href="#m0b914f202d" y="144.416111"/>
     <use style="fill:#1f77b4;stroke:#1f77b4;" x="135.383649" xlink:href="#m0b914f202d" y="129.77325"/>
     <use style="fill:#1f77b4;stroke:#1f77b4;" x="141.021974" xlink:href="#m0b914f202d" y="162.719688"/>
     <use style="fill:#1f77b4;stroke:#1f77b4;" x="146.660299" xlink:href="#m0b914f202d" y="111.469673"/>
     <use style="fill:#1f77b4;stroke:#1f77b4;" x="152.298624" xlink:href="#m0b914f202d" y="52.898227"/>
     <use style="fill:#1f77b4;stroke:#1f77b4;" x="157.936949" xlink:href="#m0b914f202d" y="250.576857"/>
     <use style="fill:#1f77b4;stroke:#1f77b4;" x="163.575274" xlink:href="#m0b914f202d" y="111.469673"/>
     <use style="fill:#1f77b4;stroke:#1f77b4;" x="169.213599" xlink:href="#m0b914f202d" y="30.933935"/>
     <use style="fill:#1f77b4;stroke:#1f77b4;" x="174.851924" xlink:href="#m0b914f202d" y="100.487527"/>
     <use style="fill:#1f77b4;stroke:#1f77b4;" x="180.490249" xlink:href="#m0b914f202d" y="23.612504"/>
     <use style="fill:#1f77b4;stroke:#1f77b4;" x="186.128574" xlink:href="#m0b914f202d" y="107.808957"/>
     <use style="fill:#1f77b4;stroke:#1f77b4;" x="191.7669" xlink:href="#m0b914f202d" y="170.041119"/>
     <use style="fill:#1f77b4;stroke:#1f77b4;" x="197.405225" xlink:href="#m0b914f202d" y="210.308988"/>
     <use style="fill:#1f77b4;stroke:#1f77b4;" x="203.04355" xlink:href="#m0b914f202d" y="199.326842"/>
     <use style="fill:#1f77b4;stroke:#1f77b4;" x="208.681875" xlink:href="#m0b914f202d" y="184.68398"/>
     <use style="fill:#1f77b4;stroke:#1f77b4;" x="214.3202" xlink:href="#m0b914f202d" y="206.648272"/>
     <use style="fill:#1f77b4;stroke:#1f77b4;" x="219.958525" xlink:href="#m0b914f202d" y="184.68398"/>
     <use style="fill:#1f77b4;stroke:#1f77b4;" x="225.59685" xlink:href="#m0b914f202d" y="276.201864"/>
     <use style="fill:#1f77b4;stroke:#1f77b4;" x="231.235175" xlink:href="#m0b914f202d" y="181.023265"/>
     <use style="fill:#1f77b4;stroke:#1f77b4;" x="236.8735" xlink:href="#m0b914f202d" y="257.898287"/>
     <use style="fill:#1f77b4;stroke:#1f77b4;" x="242.511825" xlink:href="#m0b914f202d" y="224.951849"/>
     <use style="fill:#1f77b4;stroke:#1f77b4;" x="248.15015" xlink:href="#m0b914f202d" y="166.380403"/>
     <use style="fill:#1f77b4;stroke:#1f77b4;" x="253.788475" xlink:href="#m0b914f202d" y="224.951849"/>
     <use style="fill:#1f77b4;stroke:#1f77b4;" x="259.4268" xlink:href="#m0b914f202d" y="159.058972"/>
     <use style="fill:#1f77b4;stroke:#1f77b4;" x="265.065125" xlink:href="#m0b914f202d" y="162.719688"/>
     <use style="fill:#1f77b4;stroke:#1f77b4;" x="270.703451" xlink:href="#m0b914f202d" y="213.969703"/>
     <use style="fill:#1f77b4;stroke:#1f77b4;" x="276.341776" xlink:href="#m0b914f202d" y="250.576857"/>
     <use style="fill:#1f77b4;stroke:#1f77b4;" x="281.980101" xlink:href="#m0b914f202d" y="195.666126"/>
     <use style="fill:#1f77b4;stroke:#1f77b4;" x="287.618426" xlink:href="#m0b914f202d" y="210.308988"/>
     <use style="fill:#1f77b4;stroke:#1f77b4;" x="293.256751" xlink:href="#m0b914f202d" y="217.630418"/>
     <use style="fill:#1f77b4;stroke:#1f77b4;" x="298.895076" xlink:href="#m0b914f202d" y="213.969703"/>
     <use style="fill:#1f77b4;stroke:#1f77b4;" x="304.533401" xlink:href="#m0b914f202d" y="213.969703"/>
     <use style="fill:#1f77b4;stroke:#1f77b4;" x="310.171726" xlink:href="#m0b914f202d" y="265.219718"/>
     <use style="fill:#1f77b4;stroke:#1f77b4;" x="315.810051" xlink:href="#m0b914f202d" y="279.86258"/>
     <use style="fill:#1f77b4;stroke:#1f77b4;" x="321.448376" xlink:href="#m0b914f202d" y="235.933995"/>
     <use style="fill:#1f77b4;stroke:#1f77b4;" x="327.086701" xlink:href="#m0b914f202d" y="261.559003"/>
     <use style="fill:#1f77b4;stroke:#1f77b4;" x="332.725026" xlink:href="#m0b914f202d" y="268.880434"/>
     <use style="fill:#1f77b4;stroke:#1f77b4;" x="338.363351" xlink:href="#m0b914f202d" y="250.576857"/>
     <use style="fill:#1f77b4;stroke:#1f77b4;" x="344.001677" xlink:href="#m0b914f202d" y="265.219718"/>
     <use style="fill:#1f77b4;stroke:#1f77b4;" x="349.640002" xlink:href="#m0b914f202d" y="261.559003"/>
     <use style="fill:#1f77b4;stroke:#1f77b4;" x="355.278327" xlink:href="#m0b914f202d" y="268.880434"/>
     <use style="fill:#1f77b4;stroke:#1f77b4;" x="360.916652" xlink:href="#m0b914f202d" y="250.576857"/>
     <use style="fill:#1f77b4;stroke:#1f77b4;" x="366.554977" xlink:href="#m0b914f202d" y="235.933995"/>
     <use style="fill:#1f77b4;stroke:#1f77b4;" x="372.193302" xlink:href="#m0b914f202d" y="265.219718"/>
     <use style="fill:#1f77b4;stroke:#1f77b4;" x="377.831627" xlink:href="#m0b914f202d" y="279.86258"/>
     <use style="fill:#1f77b4;stroke:#1f77b4;" x="383.469952" xlink:href="#m0b914f202d" y="279.86258"/>
     <use style="fill:#1f77b4;stroke:#1f77b4;" x="389.108277" xlink:href="#m0b914f202d" y="279.86258"/>
     <use style="fill:#1f77b4;stroke:#1f77b4;" x="394.746602" xlink:href="#m0b914f202d" y="279.86258"/>
     <use style="fill:#1f77b4;stroke:#1f77b4;" x="400.384927" xlink:href="#m0b914f202d" y="276.201864"/>
     <use style="fill:#1f77b4;stroke:#1f77b4;" x="406.023252" xlink:href="#m0b914f202d" y="261.559003"/>
     <use style="fill:#1f77b4;stroke:#1f77b4;" x="411.661577" xlink:href="#m0b914f202d" y="279.86258"/>
     <use style="fill:#1f77b4;stroke:#1f77b4;" x="417.299902" xlink:href="#m0b914f202d" y="268.880434"/>
     <use style="fill:#1f77b4;stroke:#1f77b4;" x="422.938228" xlink:href="#m0b914f202d" y="279.86258"/>
     <use style="fill:#1f77b4;stroke:#1f77b4;" x="428.576553" xlink:href="#m0b914f202d" y="272.541149"/>
    </g>
   </g>
   <g id="patch_3">
    <path d="M 37.840625 279.86258 
L 37.840625 10.8 
" style="fill:none;stroke:#000000;stroke-linecap:square;stroke-linejoin:miter;stroke-width:0.8;"/>
   </g>
   <g id="patch_4">
    <path d="M 447.183025 279.86258 
L 447.183025 10.8 
" style="fill:none;stroke:#000000;stroke-linecap:square;stroke-linejoin:miter;stroke-width:0.8;"/>
   </g>
   <g id="patch_5">
    <path d="M 37.840625 279.86258 
L 447.183025 279.86258 
" style="fill:none;stroke:#000000;stroke-linecap:square;stroke-linejoin:miter;stroke-width:0.8;"/>
   </g>
   <g id="patch_6">
    <path d="M 37.840625 10.8 
L 447.183025 10.8 
" style="fill:none;stroke:#000000;stroke-linecap:square;stroke-linejoin:miter;stroke-width:0.8;"/>
   </g>
  </g>
 </g>
 <defs>
  <clipPath id="pceb6442925">
   <rect height="269.06258" width="409.3424" x="37.840625" y="10.8"/>
  </clipPath>
 </defs>
</svg>
