<?xml version="1.0" encoding="utf-8" standalone="no"?>
<!DOCTYPE svg PUBLIC "-//W3C//DTD SVG 1.1//EN"
  "http://www.w3.org/Graphics/SVG/1.1/DTD/svg11.dtd">
<!-- Created with matplotlib (https://matplotlib.org/) -->
<svg height="345.6pt" version="1.1" viewBox="0 0 460.8 345.6" width="460.8pt" xmlns="http://www.w3.org/2000/svg" xmlns:xlink="http://www.w3.org/1999/xlink">
 <defs>
  <style type="text/css">
*{stroke-linecap:butt;stroke-linejoin:round;}
  </style>
 </defs>
 <g id="figure_1">
  <g id="patch_1">
   <path d="M 0 345.6 
L 460.8 345.6 
L 460.8 0 
L 0 0 
z
" style="fill:#ffffff;"/>
  </g>
  <g id="axes_1">
   <g id="patch_2">
    <path d="M 37.840625 279.86258 
L 430.239775 279.86258 
L 430.239775 10.8 
L 37.840625 10.8 
z
" style="fill:#ffffff;"/>
   </g>
   <g id="matplotlib.axis_1">
    <g id="xtick_1">
     <g id="line2d_1">
      <defs>
       <path d="M 0 0 
L 0 3.5 
" id="m48fc203d85" style="stroke:#000000;stroke-width:0.8;"/>
      </defs>
      <g>
       <use style="stroke:#000000;stroke-width:0.8;" x="95.313228" xlink:href="#m48fc203d85" y="279.86258"/>
      </g>
     </g>
     <g id="text_1">
      <!-- 2020-03-01 -->
      <defs>
       <path d="M 19.1875 8.296875 
L 53.609375 8.296875 
L 53.609375 0 
L 7.328125 0 
L 7.328125 8.296875 
Q 12.9375 14.109375 22.625 23.890625 
Q 32.328125 33.6875 34.8125 36.53125 
Q 39.546875 41.84375 41.421875 45.53125 
Q 43.3125 49.21875 43.3125 52.78125 
Q 43.3125 58.59375 39.234375 62.25 
Q 35.15625 65.921875 28.609375 65.921875 
Q 23.96875 65.921875 18.8125 64.3125 
Q 13.671875 62.703125 7.8125 59.421875 
L 7.8125 69.390625 
Q 13.765625 71.78125 18.9375 73 
Q 24.125 74.21875 28.421875 74.21875 
Q 39.75 74.21875 46.484375 68.546875 
Q 53.21875 62.890625 53.21875 53.421875 
Q 53.21875 48.921875 51.53125 44.890625 
Q 49.859375 40.875 45.40625 35.40625 
Q 44.1875 33.984375 37.640625 27.21875 
Q 31.109375 20.453125 19.1875 8.296875 
z
" id="DejaVuSans-50"/>
       <path d="M 31.78125 66.40625 
Q 24.171875 66.40625 20.328125 58.90625 
Q 16.5 51.421875 16.5 36.375 
Q 16.5 21.390625 20.328125 13.890625 
Q 24.171875 6.390625 31.78125 6.390625 
Q 39.453125 6.390625 43.28125 13.890625 
Q 47.125 21.390625 47.125 36.375 
Q 47.125 51.421875 43.28125 58.90625 
Q 39.453125 66.40625 31.78125 66.40625 
z
M 31.78125 74.21875 
Q 44.046875 74.21875 50.515625 64.515625 
Q 56.984375 54.828125 56.984375 36.375 
Q 56.984375 17.96875 50.515625 8.265625 
Q 44.046875 -1.421875 31.78125 -1.421875 
Q 19.53125 -1.421875 13.0625 8.265625 
Q 6.59375 17.96875 6.59375 36.375 
Q 6.59375 54.828125 13.0625 64.515625 
Q 19.53125 74.21875 31.78125 74.21875 
z
" id="DejaVuSans-48"/>
       <path d="M 4.890625 31.390625 
L 31.203125 31.390625 
L 31.203125 23.390625 
L 4.890625 23.390625 
z
" id="DejaVuSans-45"/>
       <path d="M 40.578125 39.3125 
Q 47.65625 37.796875 51.625 33 
Q 55.609375 28.21875 55.609375 21.1875 
Q 55.609375 10.40625 48.1875 4.484375 
Q 40.765625 -1.421875 27.09375 -1.421875 
Q 22.515625 -1.421875 17.65625 -0.515625 
Q 12.796875 0.390625 7.625 2.203125 
L 7.625 11.71875 
Q 11.71875 9.328125 16.59375 8.109375 
Q 21.484375 6.890625 26.8125 6.890625 
Q 36.078125 6.890625 40.9375 10.546875 
Q 45.796875 14.203125 45.796875 21.1875 
Q 45.796875 27.640625 41.28125 31.265625 
Q 36.765625 34.90625 28.71875 34.90625 
L 20.21875 34.90625 
L 20.21875 43.015625 
L 29.109375 43.015625 
Q 36.375 43.015625 40.234375 45.921875 
Q 44.09375 48.828125 44.09375 54.296875 
Q 44.09375 59.90625 40.109375 62.90625 
Q 36.140625 65.921875 28.71875 65.921875 
Q 24.65625 65.921875 20.015625 65.03125 
Q 15.375 64.15625 9.8125 62.3125 
L 9.8125 71.09375 
Q 15.4375 72.65625 20.34375 73.4375 
Q 25.25 74.21875 29.59375 74.21875 
Q 40.828125 74.21875 47.359375 69.109375 
Q 53.90625 64.015625 53.90625 55.328125 
Q 53.90625 49.265625 50.4375 45.09375 
Q 46.96875 40.921875 40.578125 39.3125 
z
" id="DejaVuSans-51"/>
       <path d="M 12.40625 8.296875 
L 28.515625 8.296875 
L 28.515625 63.921875 
L 10.984375 60.40625 
L 10.984375 69.390625 
L 28.421875 72.90625 
L 38.28125 72.90625 
L 38.28125 8.296875 
L 54.390625 8.296875 
L 54.390625 0 
L 12.40625 0 
z
" id="DejaVuSans-49"/>
      </defs>
      <g transform="translate(76.717424 333.329439)rotate(-45)scale(0.1 -0.1)">
       <use xlink:href="#DejaVuSans-50"/>
       <use x="63.623047" xlink:href="#DejaVuSans-48"/>
       <use x="127.246094" xlink:href="#DejaVuSans-50"/>
       <use x="190.869141" xlink:href="#DejaVuSans-48"/>
       <use x="254.492188" xlink:href="#DejaVuSans-45"/>
       <use x="290.576172" xlink:href="#DejaVuSans-48"/>
       <use x="354.199219" xlink:href="#DejaVuSans-51"/>
       <use x="417.822266" xlink:href="#DejaVuSans-45"/>
       <use x="453.90625" xlink:href="#DejaVuSans-48"/>
       <use x="517.529297" xlink:href="#DejaVuSans-49"/>
      </g>
     </g>
    </g>
    <g id="xtick_2">
     <g id="line2d_2">
      <g>
       <use style="stroke:#000000;stroke-width:0.8;" x="156.96966" xlink:href="#m48fc203d85" y="279.86258"/>
      </g>
     </g>
     <g id="text_2">
      <!-- 2020-03-15 -->
      <defs>
       <path d="M 10.796875 72.90625 
L 49.515625 72.90625 
L 49.515625 64.59375 
L 19.828125 64.59375 
L 19.828125 46.734375 
Q 21.96875 47.46875 24.109375 47.828125 
Q 26.265625 48.1875 28.421875 48.1875 
Q 40.625 48.1875 47.75 41.5 
Q 54.890625 34.8125 54.890625 23.390625 
Q 54.890625 11.625 47.5625 5.09375 
Q 40.234375 -1.421875 26.90625 -1.421875 
Q 22.3125 -1.421875 17.546875 -0.640625 
Q 12.796875 0.140625 7.71875 1.703125 
L 7.71875 11.625 
Q 12.109375 9.234375 16.796875 8.0625 
Q 21.484375 6.890625 26.703125 6.890625 
Q 35.15625 6.890625 40.078125 11.328125 
Q 45.015625 15.765625 45.015625 23.390625 
Q 45.015625 31 40.078125 35.4375 
Q 35.15625 39.890625 26.703125 39.890625 
Q 22.75 39.890625 18.8125 39.015625 
Q 14.890625 38.140625 10.796875 36.28125 
z
" id="DejaVuSans-53"/>
      </defs>
      <g transform="translate(138.373856 333.329439)rotate(-45)scale(0.1 -0.1)">
       <use xlink:href="#DejaVuSans-50"/>
       <use x="63.623047" xlink:href="#DejaVuSans-48"/>
       <use x="127.246094" xlink:href="#DejaVuSans-50"/>
       <use x="190.869141" xlink:href="#DejaVuSans-48"/>
       <use x="254.492188" xlink:href="#DejaVuSans-45"/>
       <use x="290.576172" xlink:href="#DejaVuSans-48"/>
       <use x="354.199219" xlink:href="#DejaVuSans-51"/>
       <use x="417.822266" xlink:href="#DejaVuSans-45"/>
       <use x="453.90625" xlink:href="#DejaVuSans-49"/>
       <use x="517.529297" xlink:href="#DejaVuSans-53"/>
      </g>
     </g>
    </g>
    <g id="xtick_3">
     <g id="line2d_3">
      <g>
       <use style="stroke:#000000;stroke-width:0.8;" x="231.838184" xlink:href="#m48fc203d85" y="279.86258"/>
      </g>
     </g>
     <g id="text_3">
      <!-- 2020-04-01 -->
      <defs>
       <path d="M 37.796875 64.3125 
L 12.890625 25.390625 
L 37.796875 25.390625 
z
M 35.203125 72.90625 
L 47.609375 72.90625 
L 47.609375 25.390625 
L 58.015625 25.390625 
L 58.015625 17.1875 
L 47.609375 17.1875 
L 47.609375 0 
L 37.796875 0 
L 37.796875 17.1875 
L 4.890625 17.1875 
L 4.890625 26.703125 
z
" id="DejaVuSans-52"/>
      </defs>
      <g transform="translate(213.242381 333.329439)rotate(-45)scale(0.1 -0.1)">
       <use xlink:href="#DejaVuSans-50"/>
       <use x="63.623047" xlink:href="#DejaVuSans-48"/>
       <use x="127.246094" xlink:href="#DejaVuSans-50"/>
       <use x="190.869141" xlink:href="#DejaVuSans-48"/>
       <use x="254.492188" xlink:href="#DejaVuSans-45"/>
       <use x="290.576172" xlink:href="#DejaVuSans-48"/>
       <use x="354.199219" xlink:href="#DejaVuSans-52"/>
       <use x="417.822266" xlink:href="#DejaVuSans-45"/>
       <use x="453.90625" xlink:href="#DejaVuSans-48"/>
       <use x="517.529297" xlink:href="#DejaVuSans-49"/>
      </g>
     </g>
    </g>
    <g id="xtick_4">
     <g id="line2d_4">
      <g>
       <use style="stroke:#000000;stroke-width:0.8;" x="293.494616" xlink:href="#m48fc203d85" y="279.86258"/>
      </g>
     </g>
     <g id="text_4">
      <!-- 2020-04-15 -->
      <g transform="translate(274.898813 333.329439)rotate(-45)scale(0.1 -0.1)">
       <use xlink:href="#DejaVuSans-50"/>
       <use x="63.623047" xlink:href="#DejaVuSans-48"/>
       <use x="127.246094" xlink:href="#DejaVuSans-50"/>
       <use x="190.869141" xlink:href="#DejaVuSans-48"/>
       <use x="254.492188" xlink:href="#DejaVuSans-45"/>
       <use x="290.576172" xlink:href="#DejaVuSans-48"/>
       <use x="354.199219" xlink:href="#DejaVuSans-52"/>
       <use x="417.822266" xlink:href="#DejaVuSans-45"/>
       <use x="453.90625" xlink:href="#DejaVuSans-49"/>
       <use x="517.529297" xlink:href="#DejaVuSans-53"/>
      </g>
     </g>
    </g>
    <g id="xtick_5">
     <g id="line2d_5">
      <g>
       <use style="stroke:#000000;stroke-width:0.8;" x="363.95911" xlink:href="#m48fc203d85" y="279.86258"/>
      </g>
     </g>
     <g id="text_5">
      <!-- 2020-05-01 -->
      <g transform="translate(345.363307 333.329439)rotate(-45)scale(0.1 -0.1)">
       <use xlink:href="#DejaVuSans-50"/>
       <use x="63.623047" xlink:href="#DejaVuSans-48"/>
       <use x="127.246094" xlink:href="#DejaVuSans-50"/>
       <use x="190.869141" xlink:href="#DejaVuSans-48"/>
       <use x="254.492188" xlink:href="#DejaVuSans-45"/>
       <use x="290.576172" xlink:href="#DejaVuSans-48"/>
       <use x="354.199219" xlink:href="#DejaVuSans-53"/>
       <use x="417.822266" xlink:href="#DejaVuSans-45"/>
       <use x="453.90625" xlink:href="#DejaVuSans-48"/>
       <use x="517.529297" xlink:href="#DejaVuSans-49"/>
      </g>
     </g>
    </g>
    <g id="xtick_6">
     <g id="line2d_6">
      <g>
       <use style="stroke:#000000;stroke-width:0.8;" x="425.615542" xlink:href="#m48fc203d85" y="279.86258"/>
      </g>
     </g>
     <g id="text_6">
      <!-- 2020-05-15 -->
      <g transform="translate(407.019739 333.329439)rotate(-45)scale(0.1 -0.1)">
       <use xlink:href="#DejaVuSans-50"/>
       <use x="63.623047" xlink:href="#DejaVuSans-48"/>
       <use x="127.246094" xlink:href="#DejaVuSans-50"/>
       <use x="190.869141" xlink:href="#DejaVuSans-48"/>
       <use x="254.492188" xlink:href="#DejaVuSans-45"/>
       <use x="290.576172" xlink:href="#DejaVuSans-48"/>
       <use x="354.199219" xlink:href="#DejaVuSans-53"/>
       <use x="417.822266" xlink:href="#DejaVuSans-45"/>
       <use x="453.90625" xlink:href="#DejaVuSans-49"/>
       <use x="517.529297" xlink:href="#DejaVuSans-53"/>
      </g>
     </g>
    </g>
   </g>
   <g id="matplotlib.axis_2">
    <g id="ytick_1">
     <g id="line2d_7">
      <defs>
       <path d="M 0 0 
L -3.5 0 
" id="mab1f9e2ee9" style="stroke:#000000;stroke-width:0.8;"/>
      </defs>
      <g>
       <use style="stroke:#000000;stroke-width:0.8;" x="37.840625" xlink:href="#mab1f9e2ee9" y="279.86258"/>
      </g>
     </g>
     <g id="text_7">
      <!-- 0 -->
      <g transform="translate(24.478125 283.661798)scale(0.1 -0.1)">
       <use xlink:href="#DejaVuSans-48"/>
      </g>
     </g>
    </g>
    <g id="ytick_2">
     <g id="line2d_8">
      <g>
       <use style="stroke:#000000;stroke-width:0.8;" x="37.840625" xlink:href="#mab1f9e2ee9" y="234.107653"/>
      </g>
     </g>
     <g id="text_8">
      <!-- 1 -->
      <g transform="translate(24.478125 237.906871)scale(0.1 -0.1)">
       <use xlink:href="#DejaVuSans-49"/>
      </g>
     </g>
    </g>
    <g id="ytick_3">
     <g id="line2d_9">
      <g>
       <use style="stroke:#000000;stroke-width:0.8;" x="37.840625" xlink:href="#mab1f9e2ee9" y="188.352726"/>
      </g>
     </g>
     <g id="text_9">
      <!-- 2 -->
      <g transform="translate(24.478125 192.151945)scale(0.1 -0.1)">
       <use xlink:href="#DejaVuSans-50"/>
      </g>
     </g>
    </g>
    <g id="ytick_4">
     <g id="line2d_10">
      <g>
       <use style="stroke:#000000;stroke-width:0.8;" x="37.840625" xlink:href="#mab1f9e2ee9" y="142.597799"/>
      </g>
     </g>
     <g id="text_10">
      <!-- 3 -->
      <g transform="translate(24.478125 146.397018)scale(0.1 -0.1)">
       <use xlink:href="#DejaVuSans-51"/>
      </g>
     </g>
    </g>
    <g id="ytick_5">
     <g id="line2d_11">
      <g>
       <use style="stroke:#000000;stroke-width:0.8;" x="37.840625" xlink:href="#mab1f9e2ee9" y="96.842872"/>
      </g>
     </g>
     <g id="text_11">
      <!-- 4 -->
      <g transform="translate(24.478125 100.642091)scale(0.1 -0.1)">
       <use xlink:href="#DejaVuSans-52"/>
      </g>
     </g>
    </g>
    <g id="ytick_6">
     <g id="line2d_12">
      <g>
       <use style="stroke:#000000;stroke-width:0.8;" x="37.840625" xlink:href="#mab1f9e2ee9" y="51.087945"/>
      </g>
     </g>
     <g id="text_12">
      <!-- 5 -->
      <g transform="translate(24.478125 54.887164)scale(0.1 -0.1)">
       <use xlink:href="#DejaVuSans-53"/>
      </g>
     </g>
    </g>
    <g id="text_13">
     <!-- VC hospitalizados (por 100000 hab.) diarios -->
     <defs>
      <path d="M 28.609375 0 
L 0.78125 72.90625 
L 11.078125 72.90625 
L 34.1875 11.53125 
L 57.328125 72.90625 
L 67.578125 72.90625 
L 39.796875 0 
z
" id="DejaVuSans-86"/>
      <path d="M 64.40625 67.28125 
L 64.40625 56.890625 
Q 59.421875 61.53125 53.78125 63.8125 
Q 48.140625 66.109375 41.796875 66.109375 
Q 29.296875 66.109375 22.65625 58.46875 
Q 16.015625 50.828125 16.015625 36.375 
Q 16.015625 21.96875 22.65625 14.328125 
Q 29.296875 6.6875 41.796875 6.6875 
Q 48.140625 6.6875 53.78125 8.984375 
Q 59.421875 11.28125 64.40625 15.921875 
L 64.40625 5.609375 
Q 59.234375 2.09375 53.4375 0.328125 
Q 47.65625 -1.421875 41.21875 -1.421875 
Q 24.65625 -1.421875 15.125 8.703125 
Q 5.609375 18.84375 5.609375 36.375 
Q 5.609375 53.953125 15.125 64.078125 
Q 24.65625 74.21875 41.21875 74.21875 
Q 47.75 74.21875 53.53125 72.484375 
Q 59.328125 70.75 64.40625 67.28125 
z
" id="DejaVuSans-67"/>
      <path id="DejaVuSans-32"/>
      <path d="M 54.890625 33.015625 
L 54.890625 0 
L 45.90625 0 
L 45.90625 32.71875 
Q 45.90625 40.484375 42.875 44.328125 
Q 39.84375 48.1875 33.796875 48.1875 
Q 26.515625 48.1875 22.3125 43.546875 
Q 18.109375 38.921875 18.109375 30.90625 
L 18.109375 0 
L 9.078125 0 
L 9.078125 75.984375 
L 18.109375 75.984375 
L 18.109375 46.1875 
Q 21.34375 51.125 25.703125 53.5625 
Q 30.078125 56 35.796875 56 
Q 45.21875 56 50.046875 50.171875 
Q 54.890625 44.34375 54.890625 33.015625 
z
" id="DejaVuSans-104"/>
      <path d="M 30.609375 48.390625 
Q 23.390625 48.390625 19.1875 42.75 
Q 14.984375 37.109375 14.984375 27.296875 
Q 14.984375 17.484375 19.15625 11.84375 
Q 23.34375 6.203125 30.609375 6.203125 
Q 37.796875 6.203125 41.984375 11.859375 
Q 46.1875 17.53125 46.1875 27.296875 
Q 46.1875 37.015625 41.984375 42.703125 
Q 37.796875 48.390625 30.609375 48.390625 
z
M 30.609375 56 
Q 42.328125 56 49.015625 48.375 
Q 55.71875 40.765625 55.71875 27.296875 
Q 55.71875 13.875 49.015625 6.21875 
Q 42.328125 -1.421875 30.609375 -1.421875 
Q 18.84375 -1.421875 12.171875 6.21875 
Q 5.515625 13.875 5.515625 27.296875 
Q 5.515625 40.765625 12.171875 48.375 
Q 18.84375 56 30.609375 56 
z
" id="DejaVuSans-111"/>
      <path d="M 44.28125 53.078125 
L 44.28125 44.578125 
Q 40.484375 46.53125 36.375 47.5 
Q 32.28125 48.484375 27.875 48.484375 
Q 21.1875 48.484375 17.84375 46.4375 
Q 14.5 44.390625 14.5 40.28125 
Q 14.5 37.15625 16.890625 35.375 
Q 19.28125 33.59375 26.515625 31.984375 
L 29.59375 31.296875 
Q 39.15625 29.25 43.1875 25.515625 
Q 47.21875 21.78125 47.21875 15.09375 
Q 47.21875 7.46875 41.1875 3.015625 
Q 35.15625 -1.421875 24.609375 -1.421875 
Q 20.21875 -1.421875 15.453125 -0.5625 
Q 10.6875 0.296875 5.421875 2 
L 5.421875 11.28125 
Q 10.40625 8.6875 15.234375 7.390625 
Q 20.0625 6.109375 24.8125 6.109375 
Q 31.15625 6.109375 34.5625 8.28125 
Q 37.984375 10.453125 37.984375 14.40625 
Q 37.984375 18.0625 35.515625 20.015625 
Q 33.0625 21.96875 24.703125 23.78125 
L 21.578125 24.515625 
Q 13.234375 26.265625 9.515625 29.90625 
Q 5.8125 33.546875 5.8125 39.890625 
Q 5.8125 47.609375 11.28125 51.796875 
Q 16.75 56 26.8125 56 
Q 31.78125 56 36.171875 55.265625 
Q 40.578125 54.546875 44.28125 53.078125 
z
" id="DejaVuSans-115"/>
      <path d="M 18.109375 8.203125 
L 18.109375 -20.796875 
L 9.078125 -20.796875 
L 9.078125 54.6875 
L 18.109375 54.6875 
L 18.109375 46.390625 
Q 20.953125 51.265625 25.265625 53.625 
Q 29.59375 56 35.59375 56 
Q 45.5625 56 51.78125 48.09375 
Q 58.015625 40.1875 58.015625 27.296875 
Q 58.015625 14.40625 51.78125 6.484375 
Q 45.5625 -1.421875 35.59375 -1.421875 
Q 29.59375 -1.421875 25.265625 0.953125 
Q 20.953125 3.328125 18.109375 8.203125 
z
M 48.6875 27.296875 
Q 48.6875 37.203125 44.609375 42.84375 
Q 40.53125 48.484375 33.40625 48.484375 
Q 26.265625 48.484375 22.1875 42.84375 
Q 18.109375 37.203125 18.109375 27.296875 
Q 18.109375 17.390625 22.1875 11.75 
Q 26.265625 6.109375 33.40625 6.109375 
Q 40.53125 6.109375 44.609375 11.75 
Q 48.6875 17.390625 48.6875 27.296875 
z
" id="DejaVuSans-112"/>
      <path d="M 9.421875 54.6875 
L 18.40625 54.6875 
L 18.40625 0 
L 9.421875 0 
z
M 9.421875 75.984375 
L 18.40625 75.984375 
L 18.40625 64.59375 
L 9.421875 64.59375 
z
" id="DejaVuSans-105"/>
      <path d="M 18.3125 70.21875 
L 18.3125 54.6875 
L 36.8125 54.6875 
L 36.8125 47.703125 
L 18.3125 47.703125 
L 18.3125 18.015625 
Q 18.3125 11.328125 20.140625 9.421875 
Q 21.96875 7.515625 27.59375 7.515625 
L 36.8125 7.515625 
L 36.8125 0 
L 27.59375 0 
Q 17.1875 0 13.234375 3.875 
Q 9.28125 7.765625 9.28125 18.015625 
L 9.28125 47.703125 
L 2.6875 47.703125 
L 2.6875 54.6875 
L 9.28125 54.6875 
L 9.28125 70.21875 
z
" id="DejaVuSans-116"/>
      <path d="M 34.28125 27.484375 
Q 23.390625 27.484375 19.1875 25 
Q 14.984375 22.515625 14.984375 16.5 
Q 14.984375 11.71875 18.140625 8.90625 
Q 21.296875 6.109375 26.703125 6.109375 
Q 34.1875 6.109375 38.703125 11.40625 
Q 43.21875 16.703125 43.21875 25.484375 
L 43.21875 27.484375 
z
M 52.203125 31.203125 
L 52.203125 0 
L 43.21875 0 
L 43.21875 8.296875 
Q 40.140625 3.328125 35.546875 0.953125 
Q 30.953125 -1.421875 24.3125 -1.421875 
Q 15.921875 -1.421875 10.953125 3.296875 
Q 6 8.015625 6 15.921875 
Q 6 25.140625 12.171875 29.828125 
Q 18.359375 34.515625 30.609375 34.515625 
L 43.21875 34.515625 
L 43.21875 35.40625 
Q 43.21875 41.609375 39.140625 45 
Q 35.0625 48.390625 27.6875 48.390625 
Q 23 48.390625 18.546875 47.265625 
Q 14.109375 46.140625 10.015625 43.890625 
L 10.015625 52.203125 
Q 14.9375 54.109375 19.578125 55.046875 
Q 24.21875 56 28.609375 56 
Q 40.484375 56 46.34375 49.84375 
Q 52.203125 43.703125 52.203125 31.203125 
z
" id="DejaVuSans-97"/>
      <path d="M 9.421875 75.984375 
L 18.40625 75.984375 
L 18.40625 0 
L 9.421875 0 
z
" id="DejaVuSans-108"/>
      <path d="M 5.515625 54.6875 
L 48.1875 54.6875 
L 48.1875 46.484375 
L 14.40625 7.171875 
L 48.1875 7.171875 
L 48.1875 0 
L 4.296875 0 
L 4.296875 8.203125 
L 38.09375 47.515625 
L 5.515625 47.515625 
z
" id="DejaVuSans-122"/>
      <path d="M 45.40625 46.390625 
L 45.40625 75.984375 
L 54.390625 75.984375 
L 54.390625 0 
L 45.40625 0 
L 45.40625 8.203125 
Q 42.578125 3.328125 38.25 0.953125 
Q 33.9375 -1.421875 27.875 -1.421875 
Q 17.96875 -1.421875 11.734375 6.484375 
Q 5.515625 14.40625 5.515625 27.296875 
Q 5.515625 40.1875 11.734375 48.09375 
Q 17.96875 56 27.875 56 
Q 33.9375 56 38.25 53.625 
Q 42.578125 51.265625 45.40625 46.390625 
z
M 14.796875 27.296875 
Q 14.796875 17.390625 18.875 11.75 
Q 22.953125 6.109375 30.078125 6.109375 
Q 37.203125 6.109375 41.296875 11.75 
Q 45.40625 17.390625 45.40625 27.296875 
Q 45.40625 37.203125 41.296875 42.84375 
Q 37.203125 48.484375 30.078125 48.484375 
Q 22.953125 48.484375 18.875 42.84375 
Q 14.796875 37.203125 14.796875 27.296875 
z
" id="DejaVuSans-100"/>
      <path d="M 31 75.875 
Q 24.46875 64.65625 21.28125 53.65625 
Q 18.109375 42.671875 18.109375 31.390625 
Q 18.109375 20.125 21.3125 9.0625 
Q 24.515625 -2 31 -13.1875 
L 23.1875 -13.1875 
Q 15.875 -1.703125 12.234375 9.375 
Q 8.59375 20.453125 8.59375 31.390625 
Q 8.59375 42.28125 12.203125 53.3125 
Q 15.828125 64.359375 23.1875 75.875 
z
" id="DejaVuSans-40"/>
      <path d="M 41.109375 46.296875 
Q 39.59375 47.171875 37.8125 47.578125 
Q 36.03125 48 33.890625 48 
Q 26.265625 48 22.1875 43.046875 
Q 18.109375 38.09375 18.109375 28.8125 
L 18.109375 0 
L 9.078125 0 
L 9.078125 54.6875 
L 18.109375 54.6875 
L 18.109375 46.1875 
Q 20.953125 51.171875 25.484375 53.578125 
Q 30.03125 56 36.53125 56 
Q 37.453125 56 38.578125 55.875 
Q 39.703125 55.765625 41.0625 55.515625 
z
" id="DejaVuSans-114"/>
      <path d="M 48.6875 27.296875 
Q 48.6875 37.203125 44.609375 42.84375 
Q 40.53125 48.484375 33.40625 48.484375 
Q 26.265625 48.484375 22.1875 42.84375 
Q 18.109375 37.203125 18.109375 27.296875 
Q 18.109375 17.390625 22.1875 11.75 
Q 26.265625 6.109375 33.40625 6.109375 
Q 40.53125 6.109375 44.609375 11.75 
Q 48.6875 17.390625 48.6875 27.296875 
z
M 18.109375 46.390625 
Q 20.953125 51.265625 25.265625 53.625 
Q 29.59375 56 35.59375 56 
Q 45.5625 56 51.78125 48.09375 
Q 58.015625 40.1875 58.015625 27.296875 
Q 58.015625 14.40625 51.78125 6.484375 
Q 45.5625 -1.421875 35.59375 -1.421875 
Q 29.59375 -1.421875 25.265625 0.953125 
Q 20.953125 3.328125 18.109375 8.203125 
L 18.109375 0 
L 9.078125 0 
L 9.078125 75.984375 
L 18.109375 75.984375 
z
" id="DejaVuSans-98"/>
      <path d="M 10.6875 12.40625 
L 21 12.40625 
L 21 0 
L 10.6875 0 
z
" id="DejaVuSans-46"/>
      <path d="M 8.015625 75.875 
L 15.828125 75.875 
Q 23.140625 64.359375 26.78125 53.3125 
Q 30.421875 42.28125 30.421875 31.390625 
Q 30.421875 20.453125 26.78125 9.375 
Q 23.140625 -1.703125 15.828125 -13.1875 
L 8.015625 -13.1875 
Q 14.5 -2 17.703125 9.0625 
Q 20.90625 20.125 20.90625 31.390625 
Q 20.90625 42.671875 17.703125 53.65625 
Q 14.5 64.65625 8.015625 75.875 
z
" id="DejaVuSans-41"/>
     </defs>
     <g transform="translate(18.398438 254.923477)rotate(-90)scale(0.1 -0.1)">
      <use xlink:href="#DejaVuSans-86"/>
      <use x="68.408203" xlink:href="#DejaVuSans-67"/>
      <use x="138.232422" xlink:href="#DejaVuSans-32"/>
      <use x="170.019531" xlink:href="#DejaVuSans-104"/>
      <use x="233.398438" xlink:href="#DejaVuSans-111"/>
      <use x="294.580078" xlink:href="#DejaVuSans-115"/>
      <use x="346.679688" xlink:href="#DejaVuSans-112"/>
      <use x="410.15625" xlink:href="#DejaVuSans-105"/>
      <use x="437.939453" xlink:href="#DejaVuSans-116"/>
      <use x="477.148438" xlink:href="#DejaVuSans-97"/>
      <use x="538.427734" xlink:href="#DejaVuSans-108"/>
      <use x="566.210938" xlink:href="#DejaVuSans-105"/>
      <use x="593.994141" xlink:href="#DejaVuSans-122"/>
      <use x="646.484375" xlink:href="#DejaVuSans-97"/>
      <use x="707.763672" xlink:href="#DejaVuSans-100"/>
      <use x="771.240234" xlink:href="#DejaVuSans-111"/>
      <use x="832.421875" xlink:href="#DejaVuSans-115"/>
      <use x="884.521484" xlink:href="#DejaVuSans-32"/>
      <use x="916.308594" xlink:href="#DejaVuSans-40"/>
      <use x="955.322266" xlink:href="#DejaVuSans-112"/>
      <use x="1018.798828" xlink:href="#DejaVuSans-111"/>
      <use x="1079.980469" xlink:href="#DejaVuSans-114"/>
      <use x="1121.09375" xlink:href="#DejaVuSans-32"/>
      <use x="1152.880859" xlink:href="#DejaVuSans-49"/>
      <use x="1216.503906" xlink:href="#DejaVuSans-48"/>
      <use x="1280.126953" xlink:href="#DejaVuSans-48"/>
      <use x="1343.75" xlink:href="#DejaVuSans-48"/>
      <use x="1407.373047" xlink:href="#DejaVuSans-48"/>
      <use x="1470.996094" xlink:href="#DejaVuSans-48"/>
      <use x="1534.619141" xlink:href="#DejaVuSans-32"/>
      <use x="1566.40625" xlink:href="#DejaVuSans-104"/>
      <use x="1629.785156" xlink:href="#DejaVuSans-97"/>
      <use x="1691.064453" xlink:href="#DejaVuSans-98"/>
      <use x="1754.541016" xlink:href="#DejaVuSans-46"/>
      <use x="1786.328125" xlink:href="#DejaVuSans-41"/>
      <use x="1825.341797" xlink:href="#DejaVuSans-32"/>
      <use x="1857.128906" xlink:href="#DejaVuSans-100"/>
      <use x="1920.605469" xlink:href="#DejaVuSans-105"/>
      <use x="1948.388672" xlink:href="#DejaVuSans-97"/>
      <use x="2009.667969" xlink:href="#DejaVuSans-114"/>
      <use x="2050.78125" xlink:href="#DejaVuSans-105"/>
      <use x="2078.564453" xlink:href="#DejaVuSans-111"/>
      <use x="2139.746094" xlink:href="#DejaVuSans-115"/>
     </g>
    </g>
   </g>
   <g id="line2d_13">
    <path clip-path="url(#pc7b2a3be6f)" d="M 55.67695 276.201242 
L 60.080981 277.116576 
L 64.485012 275.285907 
L 68.889043 269.7939 
L 73.293073 271.624569 
L 77.697104 275.285907 
L 82.101135 270.709235 
L 86.505166 275.285907 
L 90.909197 273.455238 
L 95.313228 277.116576 
L 99.717259 275.285907 
L 104.121289 268.878566 
L 108.52532 268.878566 
L 112.929351 267.963231 
L 117.333382 272.539904 
L 121.737413 272.539904 
L 126.141444 273.455238 
L 130.545475 263.386558 
L 134.949505 253.317879 
L 139.353536 250.571875 
L 143.757567 244.164534 
L 148.161598 246.910537 
L 152.565629 250.571875 
L 156.96966 233.18052 
L 161.373691 219.450502 
L 165.777721 212.127826 
L 170.181752 172.768442 
L 174.585783 160.869093 
L 178.989814 124.255713 
L 183.393845 106.864357 
L 187.797876 119.67904 
L 192.201907 50.113617 
L 196.605938 23.568916 
L 201.009968 46.452279 
L 205.413999 41.875607 
L 209.81803 51.944286 
L 214.222061 127.001716 
L 218.626092 150.800414 
L 223.030123 99.541681 
L 227.434154 149.885079 
L 231.838184 155.377086 
L 236.242215 185.583125 
L 240.646246 217.619833 
L 245.050277 224.942509 
L 249.454308 235.926523 
L 253.858339 252.402544 
L 258.26237 266.132562 
L 262.6664 186.498459 
L 267.070431 122.425044 
L 271.474462 147.139075 
L 275.878493 264.301893 
L 280.282524 170.022438 
L 284.686555 162.699762 
L 289.090586 217.619833 
L 293.494616 225.857843 
L 297.898647 205.720484 
L 302.302678 185.583125 
L 306.706709 213.04316 
L 311.11074 237.757192 
L 315.514771 244.164534 
L 319.918802 252.402544 
L 324.322832 260.640555 
L 328.726863 254.233213 
L 333.130894 249.656541 
L 337.534925 247.825872 
L 341.938956 262.471224 
L 346.342987 267.047896 
L 350.747018 256.063882 
L 355.151049 257.894551 
L 359.555079 252.402544 
L 363.95911 255.148548 
L 368.363141 254.233213 
L 372.767172 258.809886 
L 377.171203 270.709235 
L 381.575234 269.7939 
L 385.979265 255.148548 
L 390.383295 247.825872 
L 394.787326 252.402544 
L 399.191357 245.995203 
L 403.595388 278.947245 
L 407.999419 275.285907 
L 412.40345 270.709235 
" style="fill:none;stroke:#1f77b4;stroke-linecap:square;stroke-width:1.5;"/>
    <defs>
     <path d="M 0 1.5 
C 0.397805 1.5 0.77937 1.341951 1.06066 1.06066 
C 1.341951 0.77937 1.5 0.397805 1.5 0 
C 1.5 -0.397805 1.341951 -0.77937 1.06066 -1.06066 
C 0.77937 -1.341951 0.397805 -1.5 0 -1.5 
C -0.397805 -1.5 -0.77937 -1.341951 -1.06066 -1.06066 
C -1.341951 -0.77937 -1.5 -0.397805 -1.5 0 
C -1.5 0.397805 -1.341951 0.77937 -1.06066 1.06066 
C -0.77937 1.341951 -0.397805 1.5 0 1.5 
z
" id="m095cca8136" style="stroke:#1f77b4;"/>
    </defs>
    <g clip-path="url(#pc7b2a3be6f)">
     <use style="fill:#1f77b4;stroke:#1f77b4;" x="55.67695" xlink:href="#m095cca8136" y="276.201242"/>
     <use style="fill:#1f77b4;stroke:#1f77b4;" x="60.080981" xlink:href="#m095cca8136" y="277.116576"/>
     <use style="fill:#1f77b4;stroke:#1f77b4;" x="64.485012" xlink:href="#m095cca8136" y="275.285907"/>
     <use style="fill:#1f77b4;stroke:#1f77b4;" x="68.889043" xlink:href="#m095cca8136" y="269.7939"/>
     <use style="fill:#1f77b4;stroke:#1f77b4;" x="73.293073" xlink:href="#m095cca8136" y="271.624569"/>
     <use style="fill:#1f77b4;stroke:#1f77b4;" x="77.697104" xlink:href="#m095cca8136" y="275.285907"/>
     <use style="fill:#1f77b4;stroke:#1f77b4;" x="82.101135" xlink:href="#m095cca8136" y="270.709235"/>
     <use style="fill:#1f77b4;stroke:#1f77b4;" x="86.505166" xlink:href="#m095cca8136" y="275.285907"/>
     <use style="fill:#1f77b4;stroke:#1f77b4;" x="90.909197" xlink:href="#m095cca8136" y="273.455238"/>
     <use style="fill:#1f77b4;stroke:#1f77b4;" x="95.313228" xlink:href="#m095cca8136" y="277.116576"/>
     <use style="fill:#1f77b4;stroke:#1f77b4;" x="99.717259" xlink:href="#m095cca8136" y="275.285907"/>
     <use style="fill:#1f77b4;stroke:#1f77b4;" x="104.121289" xlink:href="#m095cca8136" y="268.878566"/>
     <use style="fill:#1f77b4;stroke:#1f77b4;" x="108.52532" xlink:href="#m095cca8136" y="268.878566"/>
     <use style="fill:#1f77b4;stroke:#1f77b4;" x="112.929351" xlink:href="#m095cca8136" y="267.963231"/>
     <use style="fill:#1f77b4;stroke:#1f77b4;" x="117.333382" xlink:href="#m095cca8136" y="272.539904"/>
     <use style="fill:#1f77b4;stroke:#1f77b4;" x="121.737413" xlink:href="#m095cca8136" y="272.539904"/>
     <use style="fill:#1f77b4;stroke:#1f77b4;" x="126.141444" xlink:href="#m095cca8136" y="273.455238"/>
     <use style="fill:#1f77b4;stroke:#1f77b4;" x="130.545475" xlink:href="#m095cca8136" y="263.386558"/>
     <use style="fill:#1f77b4;stroke:#1f77b4;" x="134.949505" xlink:href="#m095cca8136" y="253.317879"/>
     <use style="fill:#1f77b4;stroke:#1f77b4;" x="139.353536" xlink:href="#m095cca8136" y="250.571875"/>
     <use style="fill:#1f77b4;stroke:#1f77b4;" x="143.757567" xlink:href="#m095cca8136" y="244.164534"/>
     <use style="fill:#1f77b4;stroke:#1f77b4;" x="148.161598" xlink:href="#m095cca8136" y="246.910537"/>
     <use style="fill:#1f77b4;stroke:#1f77b4;" x="152.565629" xlink:href="#m095cca8136" y="250.571875"/>
     <use style="fill:#1f77b4;stroke:#1f77b4;" x="156.96966" xlink:href="#m095cca8136" y="233.18052"/>
     <use style="fill:#1f77b4;stroke:#1f77b4;" x="161.373691" xlink:href="#m095cca8136" y="219.450502"/>
     <use style="fill:#1f77b4;stroke:#1f77b4;" x="165.777721" xlink:href="#m095cca8136" y="212.127826"/>
     <use style="fill:#1f77b4;stroke:#1f77b4;" x="170.181752" xlink:href="#m095cca8136" y="172.768442"/>
     <use style="fill:#1f77b4;stroke:#1f77b4;" x="174.585783" xlink:href="#m095cca8136" y="160.869093"/>
     <use style="fill:#1f77b4;stroke:#1f77b4;" x="178.989814" xlink:href="#m095cca8136" y="124.255713"/>
     <use style="fill:#1f77b4;stroke:#1f77b4;" x="183.393845" xlink:href="#m095cca8136" y="106.864357"/>
     <use style="fill:#1f77b4;stroke:#1f77b4;" x="187.797876" xlink:href="#m095cca8136" y="119.67904"/>
     <use style="fill:#1f77b4;stroke:#1f77b4;" x="192.201907" xlink:href="#m095cca8136" y="50.113617"/>
     <use style="fill:#1f77b4;stroke:#1f77b4;" x="196.605938" xlink:href="#m095cca8136" y="23.568916"/>
     <use style="fill:#1f77b4;stroke:#1f77b4;" x="201.009968" xlink:href="#m095cca8136" y="46.452279"/>
     <use style="fill:#1f77b4;stroke:#1f77b4;" x="205.413999" xlink:href="#m095cca8136" y="41.875607"/>
     <use style="fill:#1f77b4;stroke:#1f77b4;" x="209.81803" xlink:href="#m095cca8136" y="51.944286"/>
     <use style="fill:#1f77b4;stroke:#1f77b4;" x="214.222061" xlink:href="#m095cca8136" y="127.001716"/>
     <use style="fill:#1f77b4;stroke:#1f77b4;" x="218.626092" xlink:href="#m095cca8136" y="150.800414"/>
     <use style="fill:#1f77b4;stroke:#1f77b4;" x="223.030123" xlink:href="#m095cca8136" y="99.541681"/>
     <use style="fill:#1f77b4;stroke:#1f77b4;" x="227.434154" xlink:href="#m095cca8136" y="149.885079"/>
     <use style="fill:#1f77b4;stroke:#1f77b4;" x="231.838184" xlink:href="#m095cca8136" y="155.377086"/>
     <use style="fill:#1f77b4;stroke:#1f77b4;" x="236.242215" xlink:href="#m095cca8136" y="185.583125"/>
     <use style="fill:#1f77b4;stroke:#1f77b4;" x="240.646246" xlink:href="#m095cca8136" y="217.619833"/>
     <use style="fill:#1f77b4;stroke:#1f77b4;" x="245.050277" xlink:href="#m095cca8136" y="224.942509"/>
     <use style="fill:#1f77b4;stroke:#1f77b4;" x="249.454308" xlink:href="#m095cca8136" y="235.926523"/>
     <use style="fill:#1f77b4;stroke:#1f77b4;" x="253.858339" xlink:href="#m095cca8136" y="252.402544"/>
     <use style="fill:#1f77b4;stroke:#1f77b4;" x="258.26237" xlink:href="#m095cca8136" y="266.132562"/>
     <use style="fill:#1f77b4;stroke:#1f77b4;" x="262.6664" xlink:href="#m095cca8136" y="186.498459"/>
     <use style="fill:#1f77b4;stroke:#1f77b4;" x="267.070431" xlink:href="#m095cca8136" y="122.425044"/>
     <use style="fill:#1f77b4;stroke:#1f77b4;" x="271.474462" xlink:href="#m095cca8136" y="147.139075"/>
     <use style="fill:#1f77b4;stroke:#1f77b4;" x="275.878493" xlink:href="#m095cca8136" y="264.301893"/>
     <use style="fill:#1f77b4;stroke:#1f77b4;" x="280.282524" xlink:href="#m095cca8136" y="170.022438"/>
     <use style="fill:#1f77b4;stroke:#1f77b4;" x="284.686555" xlink:href="#m095cca8136" y="162.699762"/>
     <use style="fill:#1f77b4;stroke:#1f77b4;" x="289.090586" xlink:href="#m095cca8136" y="217.619833"/>
     <use style="fill:#1f77b4;stroke:#1f77b4;" x="293.494616" xlink:href="#m095cca8136" y="225.857843"/>
     <use style="fill:#1f77b4;stroke:#1f77b4;" x="297.898647" xlink:href="#m095cca8136" y="205.720484"/>
     <use style="fill:#1f77b4;stroke:#1f77b4;" x="302.302678" xlink:href="#m095cca8136" y="185.583125"/>
     <use style="fill:#1f77b4;stroke:#1f77b4;" x="306.706709" xlink:href="#m095cca8136" y="213.04316"/>
     <use style="fill:#1f77b4;stroke:#1f77b4;" x="311.11074" xlink:href="#m095cca8136" y="237.757192"/>
     <use style="fill:#1f77b4;stroke:#1f77b4;" x="315.514771" xlink:href="#m095cca8136" y="244.164534"/>
     <use style="fill:#1f77b4;stroke:#1f77b4;" x="319.918802" xlink:href="#m095cca8136" y="252.402544"/>
     <use style="fill:#1f77b4;stroke:#1f77b4;" x="324.322832" xlink:href="#m095cca8136" y="260.640555"/>
     <use style="fill:#1f77b4;stroke:#1f77b4;" x="328.726863" xlink:href="#m095cca8136" y="254.233213"/>
     <use style="fill:#1f77b4;stroke:#1f77b4;" x="333.130894" xlink:href="#m095cca8136" y="249.656541"/>
     <use style="fill:#1f77b4;stroke:#1f77b4;" x="337.534925" xlink:href="#m095cca8136" y="247.825872"/>
     <use style="fill:#1f77b4;stroke:#1f77b4;" x="341.938956" xlink:href="#m095cca8136" y="262.471224"/>
     <use style="fill:#1f77b4;stroke:#1f77b4;" x="346.342987" xlink:href="#m095cca8136" y="267.047896"/>
     <use style="fill:#1f77b4;stroke:#1f77b4;" x="350.747018" xlink:href="#m095cca8136" y="256.063882"/>
     <use style="fill:#1f77b4;stroke:#1f77b4;" x="355.151049" xlink:href="#m095cca8136" y="257.894551"/>
     <use style="fill:#1f77b4;stroke:#1f77b4;" x="359.555079" xlink:href="#m095cca8136" y="252.402544"/>
     <use style="fill:#1f77b4;stroke:#1f77b4;" x="363.95911" xlink:href="#m095cca8136" y="255.148548"/>
     <use style="fill:#1f77b4;stroke:#1f77b4;" x="368.363141" xlink:href="#m095cca8136" y="254.233213"/>
     <use style="fill:#1f77b4;stroke:#1f77b4;" x="372.767172" xlink:href="#m095cca8136" y="258.809886"/>
     <use style="fill:#1f77b4;stroke:#1f77b4;" x="377.171203" xlink:href="#m095cca8136" y="270.709235"/>
     <use style="fill:#1f77b4;stroke:#1f77b4;" x="381.575234" xlink:href="#m095cca8136" y="269.7939"/>
     <use style="fill:#1f77b4;stroke:#1f77b4;" x="385.979265" xlink:href="#m095cca8136" y="255.148548"/>
     <use style="fill:#1f77b4;stroke:#1f77b4;" x="390.383295" xlink:href="#m095cca8136" y="247.825872"/>
     <use style="fill:#1f77b4;stroke:#1f77b4;" x="394.787326" xlink:href="#m095cca8136" y="252.402544"/>
     <use style="fill:#1f77b4;stroke:#1f77b4;" x="399.191357" xlink:href="#m095cca8136" y="245.995203"/>
     <use style="fill:#1f77b4;stroke:#1f77b4;" x="403.595388" xlink:href="#m095cca8136" y="278.947245"/>
     <use style="fill:#1f77b4;stroke:#1f77b4;" x="407.999419" xlink:href="#m095cca8136" y="275.285907"/>
     <use style="fill:#1f77b4;stroke:#1f77b4;" x="412.40345" xlink:href="#m095cca8136" y="270.709235"/>
    </g>
   </g>
   <g id="patch_3">
    <path d="M 37.840625 279.86258 
L 37.840625 10.8 
" style="fill:none;stroke:#000000;stroke-linecap:square;stroke-linejoin:miter;stroke-width:0.8;"/>
   </g>
   <g id="patch_4">
    <path d="M 430.239775 279.86258 
L 430.239775 10.8 
" style="fill:none;stroke:#000000;stroke-linecap:square;stroke-linejoin:miter;stroke-width:0.8;"/>
   </g>
   <g id="patch_5">
    <path d="M 37.840625 279.86258 
L 430.239775 279.86258 
" style="fill:none;stroke:#000000;stroke-linecap:square;stroke-linejoin:miter;stroke-width:0.8;"/>
   </g>
   <g id="patch_6">
    <path d="M 37.840625 10.8 
L 430.239775 10.8 
" style="fill:none;stroke:#000000;stroke-linecap:square;stroke-linejoin:miter;stroke-width:0.8;"/>
   </g>
  </g>
 </g>
 <defs>
  <clipPath id="pc7b2a3be6f">
   <rect height="269.06258" width="392.39915" x="37.840625" y="10.8"/>
  </clipPath>
 </defs>
</svg>
